<?xml version="1.0" encoding="utf-8" standalone="no"?>
<!DOCTYPE svg PUBLIC "-//W3C//DTD SVG 1.1//EN"
  "http://www.w3.org/Graphics/SVG/1.1/DTD/svg11.dtd">
<svg xmlns:xlink="http://www.w3.org/1999/xlink" width="576pt" height="432pt" viewBox="0 0 576 432" xmlns="http://www.w3.org/2000/svg" version="1.1">
 <metadata>
  <rdf:RDF xmlns:dc="http://purl.org/dc/elements/1.1/" xmlns:cc="http://creativecommons.org/ns#" xmlns:rdf="http://www.w3.org/1999/02/22-rdf-syntax-ns#">
   <cc:Work>
    <dc:type rdf:resource="http://purl.org/dc/dcmitype/StillImage"/>
    <dc:date>2024-11-12T14:09:09.002702</dc:date>
    <dc:format>image/svg+xml</dc:format>
    <dc:creator>
     <cc:Agent>
      <dc:title>Matplotlib v3.7.5, https://matplotlib.org/</dc:title>
     </cc:Agent>
    </dc:creator>
   </cc:Work>
  </rdf:RDF>
 </metadata>
 <defs>
  <style type="text/css">*{stroke-linejoin: round; stroke-linecap: butt}</style>
 </defs>
 <g id="figure_1">
  <g id="patch_1">
   <path d="M 0 432 
L 576 432 
L 576 0 
L 0 0 
z
" style="fill: #ffffff"/>
  </g>
  <g id="axes_1">
   <g id="patch_2">
    <path d="M 72 384.48 
L 518.4 384.48 
L 518.4 51.84 
L 72 51.84 
z
" style="fill: #ffffff"/>
   </g>
   <g id="matplotlib.axis_1">
    <g id="xtick_1">
     <g id="line2d_1">
      <path d="M 92.290909 384.48 
L 92.290909 51.84 
" clip-path="url(#p461ad6b6ab)" style="fill: none; stroke: #b0b0b0; stroke-width: 0.8; stroke-linecap: square"/>
     </g>
     <g id="line2d_2">
      <defs>
       <path id="ma5f8815d9d" d="M 0 0 
L 0 3.5 
" style="stroke: #000000; stroke-width: 0.8"/>
      </defs>
      <g>
       <use xlink:href="#ma5f8815d9d" x="92.290909" y="384.48" style="stroke: #000000; stroke-width: 0.8"/>
      </g>
     </g>
     <g id="text_1">
      <!-- 0.17 -->
      <g transform="translate(81.158097 399.078438) scale(0.1 -0.1)">
       <defs>
        <path id="DejaVuSans-30" d="M 2034 4250 
Q 1547 4250 1301 3770 
Q 1056 3291 1056 2328 
Q 1056 1369 1301 889 
Q 1547 409 2034 409 
Q 2525 409 2770 889 
Q 3016 1369 3016 2328 
Q 3016 3291 2770 3770 
Q 2525 4250 2034 4250 
z
M 2034 4750 
Q 2819 4750 3233 4129 
Q 3647 3509 3647 2328 
Q 3647 1150 3233 529 
Q 2819 -91 2034 -91 
Q 1250 -91 836 529 
Q 422 1150 422 2328 
Q 422 3509 836 4129 
Q 1250 4750 2034 4750 
z
" transform="scale(0.015625)"/>
        <path id="DejaVuSans-2e" d="M 684 794 
L 1344 794 
L 1344 0 
L 684 0 
L 684 794 
z
" transform="scale(0.015625)"/>
        <path id="DejaVuSans-31" d="M 794 531 
L 1825 531 
L 1825 4091 
L 703 3866 
L 703 4441 
L 1819 4666 
L 2450 4666 
L 2450 531 
L 3481 531 
L 3481 0 
L 794 0 
L 794 531 
z
" transform="scale(0.015625)"/>
        <path id="DejaVuSans-37" d="M 525 4666 
L 3525 4666 
L 3525 4397 
L 1831 0 
L 1172 0 
L 2766 4134 
L 525 4134 
L 525 4666 
z
" transform="scale(0.015625)"/>
       </defs>
       <use xlink:href="#DejaVuSans-30"/>
       <use xlink:href="#DejaVuSans-2e" x="63.623047"/>
       <use xlink:href="#DejaVuSans-31" x="95.410156"/>
       <use xlink:href="#DejaVuSans-37" x="159.033203"/>
      </g>
     </g>
    </g>
    <g id="xtick_2">
     <g id="line2d_3">
      <path d="M 132.470927 384.48 
L 132.470927 51.84 
" clip-path="url(#p461ad6b6ab)" style="fill: none; stroke: #b0b0b0; stroke-width: 0.8; stroke-linecap: square"/>
     </g>
     <g id="line2d_4">
      <g>
       <use xlink:href="#ma5f8815d9d" x="132.470927" y="384.48" style="stroke: #000000; stroke-width: 0.8"/>
      </g>
     </g>
     <g id="text_2">
      <!-- 6.83 -->
      <g transform="translate(121.338115 399.078438) scale(0.1 -0.1)">
       <defs>
        <path id="DejaVuSans-36" d="M 2113 2584 
Q 1688 2584 1439 2293 
Q 1191 2003 1191 1497 
Q 1191 994 1439 701 
Q 1688 409 2113 409 
Q 2538 409 2786 701 
Q 3034 994 3034 1497 
Q 3034 2003 2786 2293 
Q 2538 2584 2113 2584 
z
M 3366 4563 
L 3366 3988 
Q 3128 4100 2886 4159 
Q 2644 4219 2406 4219 
Q 1781 4219 1451 3797 
Q 1122 3375 1075 2522 
Q 1259 2794 1537 2939 
Q 1816 3084 2150 3084 
Q 2853 3084 3261 2657 
Q 3669 2231 3669 1497 
Q 3669 778 3244 343 
Q 2819 -91 2113 -91 
Q 1303 -91 875 529 
Q 447 1150 447 2328 
Q 447 3434 972 4092 
Q 1497 4750 2381 4750 
Q 2619 4750 2861 4703 
Q 3103 4656 3366 4563 
z
" transform="scale(0.015625)"/>
        <path id="DejaVuSans-38" d="M 2034 2216 
Q 1584 2216 1326 1975 
Q 1069 1734 1069 1313 
Q 1069 891 1326 650 
Q 1584 409 2034 409 
Q 2484 409 2743 651 
Q 3003 894 3003 1313 
Q 3003 1734 2745 1975 
Q 2488 2216 2034 2216 
z
M 1403 2484 
Q 997 2584 770 2862 
Q 544 3141 544 3541 
Q 544 4100 942 4425 
Q 1341 4750 2034 4750 
Q 2731 4750 3128 4425 
Q 3525 4100 3525 3541 
Q 3525 3141 3298 2862 
Q 3072 2584 2669 2484 
Q 3125 2378 3379 2068 
Q 3634 1759 3634 1313 
Q 3634 634 3220 271 
Q 2806 -91 2034 -91 
Q 1263 -91 848 271 
Q 434 634 434 1313 
Q 434 1759 690 2068 
Q 947 2378 1403 2484 
z
M 1172 3481 
Q 1172 3119 1398 2916 
Q 1625 2713 2034 2713 
Q 2441 2713 2670 2916 
Q 2900 3119 2900 3481 
Q 2900 3844 2670 4047 
Q 2441 4250 2034 4250 
Q 1625 4250 1398 4047 
Q 1172 3844 1172 3481 
z
" transform="scale(0.015625)"/>
        <path id="DejaVuSans-33" d="M 2597 2516 
Q 3050 2419 3304 2112 
Q 3559 1806 3559 1356 
Q 3559 666 3084 287 
Q 2609 -91 1734 -91 
Q 1441 -91 1130 -33 
Q 819 25 488 141 
L 488 750 
Q 750 597 1062 519 
Q 1375 441 1716 441 
Q 2309 441 2620 675 
Q 2931 909 2931 1356 
Q 2931 1769 2642 2001 
Q 2353 2234 1838 2234 
L 1294 2234 
L 1294 2753 
L 1863 2753 
Q 2328 2753 2575 2939 
Q 2822 3125 2822 3475 
Q 2822 3834 2567 4026 
Q 2313 4219 1838 4219 
Q 1578 4219 1281 4162 
Q 984 4106 628 3988 
L 628 4550 
Q 988 4650 1302 4700 
Q 1616 4750 1894 4750 
Q 2613 4750 3031 4423 
Q 3450 4097 3450 3541 
Q 3450 3153 3228 2886 
Q 3006 2619 2597 2516 
z
" transform="scale(0.015625)"/>
       </defs>
       <use xlink:href="#DejaVuSans-36"/>
       <use xlink:href="#DejaVuSans-2e" x="63.623047"/>
       <use xlink:href="#DejaVuSans-38" x="95.410156"/>
       <use xlink:href="#DejaVuSans-33" x="159.033203"/>
      </g>
     </g>
    </g>
    <g id="xtick_3">
     <g id="line2d_5">
      <path d="M 172.650945 384.48 
L 172.650945 51.84 
" clip-path="url(#p461ad6b6ab)" style="fill: none; stroke: #b0b0b0; stroke-width: 0.8; stroke-linecap: square"/>
     </g>
     <g id="line2d_6">
      <g>
       <use xlink:href="#ma5f8815d9d" x="172.650945" y="384.48" style="stroke: #000000; stroke-width: 0.8"/>
      </g>
     </g>
     <g id="text_3">
      <!-- 13.5 -->
      <g transform="translate(161.518133 399.078438) scale(0.1 -0.1)">
       <defs>
        <path id="DejaVuSans-35" d="M 691 4666 
L 3169 4666 
L 3169 4134 
L 1269 4134 
L 1269 2991 
Q 1406 3038 1543 3061 
Q 1681 3084 1819 3084 
Q 2600 3084 3056 2656 
Q 3513 2228 3513 1497 
Q 3513 744 3044 326 
Q 2575 -91 1722 -91 
Q 1428 -91 1123 -41 
Q 819 9 494 109 
L 494 744 
Q 775 591 1075 516 
Q 1375 441 1709 441 
Q 2250 441 2565 725 
Q 2881 1009 2881 1497 
Q 2881 1984 2565 2268 
Q 2250 2553 1709 2553 
Q 1456 2553 1204 2497 
Q 953 2441 691 2322 
L 691 4666 
z
" transform="scale(0.015625)"/>
       </defs>
       <use xlink:href="#DejaVuSans-31"/>
       <use xlink:href="#DejaVuSans-33" x="63.623047"/>
       <use xlink:href="#DejaVuSans-2e" x="127.246094"/>
       <use xlink:href="#DejaVuSans-35" x="159.033203"/>
      </g>
     </g>
    </g>
    <g id="xtick_4">
     <g id="line2d_7">
      <path d="M 212.830963 384.48 
L 212.830963 51.84 
" clip-path="url(#p461ad6b6ab)" style="fill: none; stroke: #b0b0b0; stroke-width: 0.8; stroke-linecap: square"/>
     </g>
     <g id="line2d_8">
      <g>
       <use xlink:href="#ma5f8815d9d" x="212.830963" y="384.48" style="stroke: #000000; stroke-width: 0.8"/>
      </g>
     </g>
     <g id="text_4">
      <!-- 20.17 -->
      <g transform="translate(198.516901 399.078438) scale(0.1 -0.1)">
       <defs>
        <path id="DejaVuSans-32" d="M 1228 531 
L 3431 531 
L 3431 0 
L 469 0 
L 469 531 
Q 828 903 1448 1529 
Q 2069 2156 2228 2338 
Q 2531 2678 2651 2914 
Q 2772 3150 2772 3378 
Q 2772 3750 2511 3984 
Q 2250 4219 1831 4219 
Q 1534 4219 1204 4116 
Q 875 4013 500 3803 
L 500 4441 
Q 881 4594 1212 4672 
Q 1544 4750 1819 4750 
Q 2544 4750 2975 4387 
Q 3406 4025 3406 3419 
Q 3406 3131 3298 2873 
Q 3191 2616 2906 2266 
Q 2828 2175 2409 1742 
Q 1991 1309 1228 531 
z
" transform="scale(0.015625)"/>
       </defs>
       <use xlink:href="#DejaVuSans-32"/>
       <use xlink:href="#DejaVuSans-30" x="63.623047"/>
       <use xlink:href="#DejaVuSans-2e" x="127.246094"/>
       <use xlink:href="#DejaVuSans-31" x="159.033203"/>
       <use xlink:href="#DejaVuSans-37" x="222.65625"/>
      </g>
     </g>
    </g>
    <g id="xtick_5">
     <g id="line2d_9">
      <path d="M 253.010981 384.48 
L 253.010981 51.84 
" clip-path="url(#p461ad6b6ab)" style="fill: none; stroke: #b0b0b0; stroke-width: 0.8; stroke-linecap: square"/>
     </g>
     <g id="line2d_10">
      <g>
       <use xlink:href="#ma5f8815d9d" x="253.010981" y="384.48" style="stroke: #000000; stroke-width: 0.8"/>
      </g>
     </g>
     <g id="text_5">
      <!-- 26.83 -->
      <g transform="translate(238.696919 399.078438) scale(0.1 -0.1)">
       <use xlink:href="#DejaVuSans-32"/>
       <use xlink:href="#DejaVuSans-36" x="63.623047"/>
       <use xlink:href="#DejaVuSans-2e" x="127.246094"/>
       <use xlink:href="#DejaVuSans-38" x="159.033203"/>
       <use xlink:href="#DejaVuSans-33" x="222.65625"/>
      </g>
     </g>
    </g>
    <g id="xtick_6">
     <g id="line2d_11">
      <path d="M 293.190999 384.48 
L 293.190999 51.84 
" clip-path="url(#p461ad6b6ab)" style="fill: none; stroke: #b0b0b0; stroke-width: 0.8; stroke-linecap: square"/>
     </g>
     <g id="line2d_12">
      <g>
       <use xlink:href="#ma5f8815d9d" x="293.190999" y="384.48" style="stroke: #000000; stroke-width: 0.8"/>
      </g>
     </g>
     <g id="text_6">
      <!-- 33.5 -->
      <g transform="translate(282.058187 399.078438) scale(0.1 -0.1)">
       <use xlink:href="#DejaVuSans-33"/>
       <use xlink:href="#DejaVuSans-33" x="63.623047"/>
       <use xlink:href="#DejaVuSans-2e" x="127.246094"/>
       <use xlink:href="#DejaVuSans-35" x="159.033203"/>
      </g>
     </g>
    </g>
    <g id="xtick_7">
     <g id="line2d_13">
      <path d="M 333.371017 384.48 
L 333.371017 51.84 
" clip-path="url(#p461ad6b6ab)" style="fill: none; stroke: #b0b0b0; stroke-width: 0.8; stroke-linecap: square"/>
     </g>
     <g id="line2d_14">
      <g>
       <use xlink:href="#ma5f8815d9d" x="333.371017" y="384.48" style="stroke: #000000; stroke-width: 0.8"/>
      </g>
     </g>
     <g id="text_7">
      <!-- 40.17 -->
      <g transform="translate(319.056955 399.078438) scale(0.1 -0.1)">
       <defs>
        <path id="DejaVuSans-34" d="M 2419 4116 
L 825 1625 
L 2419 1625 
L 2419 4116 
z
M 2253 4666 
L 3047 4666 
L 3047 1625 
L 3713 1625 
L 3713 1100 
L 3047 1100 
L 3047 0 
L 2419 0 
L 2419 1100 
L 313 1100 
L 313 1709 
L 2253 4666 
z
" transform="scale(0.015625)"/>
       </defs>
       <use xlink:href="#DejaVuSans-34"/>
       <use xlink:href="#DejaVuSans-30" x="63.623047"/>
       <use xlink:href="#DejaVuSans-2e" x="127.246094"/>
       <use xlink:href="#DejaVuSans-31" x="159.033203"/>
       <use xlink:href="#DejaVuSans-37" x="222.65625"/>
      </g>
     </g>
    </g>
    <g id="xtick_8">
     <g id="line2d_15">
      <path d="M 373.551035 384.48 
L 373.551035 51.84 
" clip-path="url(#p461ad6b6ab)" style="fill: none; stroke: #b0b0b0; stroke-width: 0.8; stroke-linecap: square"/>
     </g>
     <g id="line2d_16">
      <g>
       <use xlink:href="#ma5f8815d9d" x="373.551035" y="384.48" style="stroke: #000000; stroke-width: 0.8"/>
      </g>
     </g>
     <g id="text_8">
      <!-- 46.83 -->
      <g transform="translate(359.236973 399.078438) scale(0.1 -0.1)">
       <use xlink:href="#DejaVuSans-34"/>
       <use xlink:href="#DejaVuSans-36" x="63.623047"/>
       <use xlink:href="#DejaVuSans-2e" x="127.246094"/>
       <use xlink:href="#DejaVuSans-38" x="159.033203"/>
       <use xlink:href="#DejaVuSans-33" x="222.65625"/>
      </g>
     </g>
    </g>
    <g id="xtick_9">
     <g id="line2d_17">
      <path d="M 413.731053 384.48 
L 413.731053 51.84 
" clip-path="url(#p461ad6b6ab)" style="fill: none; stroke: #b0b0b0; stroke-width: 0.8; stroke-linecap: square"/>
     </g>
     <g id="line2d_18">
      <g>
       <use xlink:href="#ma5f8815d9d" x="413.731053" y="384.48" style="stroke: #000000; stroke-width: 0.8"/>
      </g>
     </g>
     <g id="text_9">
      <!-- 53.5 -->
      <g transform="translate(402.598241 399.078438) scale(0.1 -0.1)">
       <use xlink:href="#DejaVuSans-35"/>
       <use xlink:href="#DejaVuSans-33" x="63.623047"/>
       <use xlink:href="#DejaVuSans-2e" x="127.246094"/>
       <use xlink:href="#DejaVuSans-35" x="159.033203"/>
      </g>
     </g>
    </g>
    <g id="xtick_10">
     <g id="line2d_19">
      <path d="M 453.911071 384.48 
L 453.911071 51.84 
" clip-path="url(#p461ad6b6ab)" style="fill: none; stroke: #b0b0b0; stroke-width: 0.8; stroke-linecap: square"/>
     </g>
     <g id="line2d_20">
      <g>
       <use xlink:href="#ma5f8815d9d" x="453.911071" y="384.48" style="stroke: #000000; stroke-width: 0.8"/>
      </g>
     </g>
     <g id="text_10">
      <!-- 60.17 -->
      <g transform="translate(439.597009 399.078438) scale(0.1 -0.1)">
       <use xlink:href="#DejaVuSans-36"/>
       <use xlink:href="#DejaVuSans-30" x="63.623047"/>
       <use xlink:href="#DejaVuSans-2e" x="127.246094"/>
       <use xlink:href="#DejaVuSans-31" x="159.033203"/>
       <use xlink:href="#DejaVuSans-37" x="222.65625"/>
      </g>
     </g>
    </g>
    <g id="xtick_11">
     <g id="line2d_21">
      <path d="M 494.091089 384.48 
L 494.091089 51.84 
" clip-path="url(#p461ad6b6ab)" style="fill: none; stroke: #b0b0b0; stroke-width: 0.8; stroke-linecap: square"/>
     </g>
     <g id="line2d_22">
      <g>
       <use xlink:href="#ma5f8815d9d" x="494.091089" y="384.48" style="stroke: #000000; stroke-width: 0.8"/>
      </g>
     </g>
     <g id="text_11">
      <!-- 66.83 -->
      <g transform="translate(479.777027 399.078438) scale(0.1 -0.1)">
       <use xlink:href="#DejaVuSans-36"/>
       <use xlink:href="#DejaVuSans-36" x="63.623047"/>
       <use xlink:href="#DejaVuSans-2e" x="127.246094"/>
       <use xlink:href="#DejaVuSans-38" x="159.033203"/>
       <use xlink:href="#DejaVuSans-33" x="222.65625"/>
      </g>
     </g>
    </g>
    <g id="text_12">
     <!-- time in hours [h] -->
     <g transform="translate(253.451562 412.756563) scale(0.1 -0.1)">
      <defs>
       <path id="DejaVuSans-74" d="M 1172 4494 
L 1172 3500 
L 2356 3500 
L 2356 3053 
L 1172 3053 
L 1172 1153 
Q 1172 725 1289 603 
Q 1406 481 1766 481 
L 2356 481 
L 2356 0 
L 1766 0 
Q 1100 0 847 248 
Q 594 497 594 1153 
L 594 3053 
L 172 3053 
L 172 3500 
L 594 3500 
L 594 4494 
L 1172 4494 
z
" transform="scale(0.015625)"/>
       <path id="DejaVuSans-69" d="M 603 3500 
L 1178 3500 
L 1178 0 
L 603 0 
L 603 3500 
z
M 603 4863 
L 1178 4863 
L 1178 4134 
L 603 4134 
L 603 4863 
z
" transform="scale(0.015625)"/>
       <path id="DejaVuSans-6d" d="M 3328 2828 
Q 3544 3216 3844 3400 
Q 4144 3584 4550 3584 
Q 5097 3584 5394 3201 
Q 5691 2819 5691 2113 
L 5691 0 
L 5113 0 
L 5113 2094 
Q 5113 2597 4934 2840 
Q 4756 3084 4391 3084 
Q 3944 3084 3684 2787 
Q 3425 2491 3425 1978 
L 3425 0 
L 2847 0 
L 2847 2094 
Q 2847 2600 2669 2842 
Q 2491 3084 2119 3084 
Q 1678 3084 1418 2786 
Q 1159 2488 1159 1978 
L 1159 0 
L 581 0 
L 581 3500 
L 1159 3500 
L 1159 2956 
Q 1356 3278 1631 3431 
Q 1906 3584 2284 3584 
Q 2666 3584 2933 3390 
Q 3200 3197 3328 2828 
z
" transform="scale(0.015625)"/>
       <path id="DejaVuSans-65" d="M 3597 1894 
L 3597 1613 
L 953 1613 
Q 991 1019 1311 708 
Q 1631 397 2203 397 
Q 2534 397 2845 478 
Q 3156 559 3463 722 
L 3463 178 
Q 3153 47 2828 -22 
Q 2503 -91 2169 -91 
Q 1331 -91 842 396 
Q 353 884 353 1716 
Q 353 2575 817 3079 
Q 1281 3584 2069 3584 
Q 2775 3584 3186 3129 
Q 3597 2675 3597 1894 
z
M 3022 2063 
Q 3016 2534 2758 2815 
Q 2500 3097 2075 3097 
Q 1594 3097 1305 2825 
Q 1016 2553 972 2059 
L 3022 2063 
z
" transform="scale(0.015625)"/>
       <path id="DejaVuSans-20" transform="scale(0.015625)"/>
       <path id="DejaVuSans-6e" d="M 3513 2113 
L 3513 0 
L 2938 0 
L 2938 2094 
Q 2938 2591 2744 2837 
Q 2550 3084 2163 3084 
Q 1697 3084 1428 2787 
Q 1159 2491 1159 1978 
L 1159 0 
L 581 0 
L 581 3500 
L 1159 3500 
L 1159 2956 
Q 1366 3272 1645 3428 
Q 1925 3584 2291 3584 
Q 2894 3584 3203 3211 
Q 3513 2838 3513 2113 
z
" transform="scale(0.015625)"/>
       <path id="DejaVuSans-68" d="M 3513 2113 
L 3513 0 
L 2938 0 
L 2938 2094 
Q 2938 2591 2744 2837 
Q 2550 3084 2163 3084 
Q 1697 3084 1428 2787 
Q 1159 2491 1159 1978 
L 1159 0 
L 581 0 
L 581 4863 
L 1159 4863 
L 1159 2956 
Q 1366 3272 1645 3428 
Q 1925 3584 2291 3584 
Q 2894 3584 3203 3211 
Q 3513 2838 3513 2113 
z
" transform="scale(0.015625)"/>
       <path id="DejaVuSans-6f" d="M 1959 3097 
Q 1497 3097 1228 2736 
Q 959 2375 959 1747 
Q 959 1119 1226 758 
Q 1494 397 1959 397 
Q 2419 397 2687 759 
Q 2956 1122 2956 1747 
Q 2956 2369 2687 2733 
Q 2419 3097 1959 3097 
z
M 1959 3584 
Q 2709 3584 3137 3096 
Q 3566 2609 3566 1747 
Q 3566 888 3137 398 
Q 2709 -91 1959 -91 
Q 1206 -91 779 398 
Q 353 888 353 1747 
Q 353 2609 779 3096 
Q 1206 3584 1959 3584 
z
" transform="scale(0.015625)"/>
       <path id="DejaVuSans-75" d="M 544 1381 
L 544 3500 
L 1119 3500 
L 1119 1403 
Q 1119 906 1312 657 
Q 1506 409 1894 409 
Q 2359 409 2629 706 
Q 2900 1003 2900 1516 
L 2900 3500 
L 3475 3500 
L 3475 0 
L 2900 0 
L 2900 538 
Q 2691 219 2414 64 
Q 2138 -91 1772 -91 
Q 1169 -91 856 284 
Q 544 659 544 1381 
z
M 1991 3584 
L 1991 3584 
z
" transform="scale(0.015625)"/>
       <path id="DejaVuSans-72" d="M 2631 2963 
Q 2534 3019 2420 3045 
Q 2306 3072 2169 3072 
Q 1681 3072 1420 2755 
Q 1159 2438 1159 1844 
L 1159 0 
L 581 0 
L 581 3500 
L 1159 3500 
L 1159 2956 
Q 1341 3275 1631 3429 
Q 1922 3584 2338 3584 
Q 2397 3584 2469 3576 
Q 2541 3569 2628 3553 
L 2631 2963 
z
" transform="scale(0.015625)"/>
       <path id="DejaVuSans-73" d="M 2834 3397 
L 2834 2853 
Q 2591 2978 2328 3040 
Q 2066 3103 1784 3103 
Q 1356 3103 1142 2972 
Q 928 2841 928 2578 
Q 928 2378 1081 2264 
Q 1234 2150 1697 2047 
L 1894 2003 
Q 2506 1872 2764 1633 
Q 3022 1394 3022 966 
Q 3022 478 2636 193 
Q 2250 -91 1575 -91 
Q 1294 -91 989 -36 
Q 684 19 347 128 
L 347 722 
Q 666 556 975 473 
Q 1284 391 1588 391 
Q 1994 391 2212 530 
Q 2431 669 2431 922 
Q 2431 1156 2273 1281 
Q 2116 1406 1581 1522 
L 1381 1569 
Q 847 1681 609 1914 
Q 372 2147 372 2553 
Q 372 3047 722 3315 
Q 1072 3584 1716 3584 
Q 2034 3584 2315 3537 
Q 2597 3491 2834 3397 
z
" transform="scale(0.015625)"/>
       <path id="DejaVuSans-5b" d="M 550 4863 
L 1875 4863 
L 1875 4416 
L 1125 4416 
L 1125 -397 
L 1875 -397 
L 1875 -844 
L 550 -844 
L 550 4863 
z
" transform="scale(0.015625)"/>
       <path id="DejaVuSans-5d" d="M 1947 4863 
L 1947 -844 
L 622 -844 
L 622 -397 
L 1369 -397 
L 1369 4416 
L 622 4416 
L 622 4863 
L 1947 4863 
z
" transform="scale(0.015625)"/>
      </defs>
      <use xlink:href="#DejaVuSans-74"/>
      <use xlink:href="#DejaVuSans-69" x="39.208984"/>
      <use xlink:href="#DejaVuSans-6d" x="66.992188"/>
      <use xlink:href="#DejaVuSans-65" x="164.404297"/>
      <use xlink:href="#DejaVuSans-20" x="225.927734"/>
      <use xlink:href="#DejaVuSans-69" x="257.714844"/>
      <use xlink:href="#DejaVuSans-6e" x="285.498047"/>
      <use xlink:href="#DejaVuSans-20" x="348.876953"/>
      <use xlink:href="#DejaVuSans-68" x="380.664062"/>
      <use xlink:href="#DejaVuSans-6f" x="444.042969"/>
      <use xlink:href="#DejaVuSans-75" x="505.224609"/>
      <use xlink:href="#DejaVuSans-72" x="568.603516"/>
      <use xlink:href="#DejaVuSans-73" x="609.716797"/>
      <use xlink:href="#DejaVuSans-20" x="661.816406"/>
      <use xlink:href="#DejaVuSans-5b" x="693.603516"/>
      <use xlink:href="#DejaVuSans-68" x="732.617188"/>
      <use xlink:href="#DejaVuSans-5d" x="795.996094"/>
     </g>
    </g>
   </g>
   <g id="matplotlib.axis_2">
    <g id="ytick_1">
     <g id="line2d_23">
      <path d="M 72 363.69 
L 518.4 363.69 
" clip-path="url(#p461ad6b6ab)" style="fill: none; stroke: #b0b0b0; stroke-width: 0.8; stroke-linecap: square"/>
     </g>
     <g id="line2d_24">
      <defs>
       <path id="m9084c4228e" d="M 0 0 
L -3.5 0 
" style="stroke: #000000; stroke-width: 0.8"/>
      </defs>
      <g>
       <use xlink:href="#m9084c4228e" x="72" y="363.69" style="stroke: #000000; stroke-width: 0.8"/>
      </g>
     </g>
     <g id="text_13">
      <!-- 0.0 -->
      <g transform="translate(49.096875 367.489219) scale(0.1 -0.1)">
       <use xlink:href="#DejaVuSans-30"/>
       <use xlink:href="#DejaVuSans-2e" x="63.623047"/>
       <use xlink:href="#DejaVuSans-30" x="95.410156"/>
      </g>
     </g>
    </g>
    <g id="ytick_2">
     <g id="line2d_25">
      <path d="M 72 311.715 
L 518.4 311.715 
" clip-path="url(#p461ad6b6ab)" style="fill: none; stroke: #b0b0b0; stroke-width: 0.8; stroke-linecap: square"/>
     </g>
     <g id="line2d_26">
      <g>
       <use xlink:href="#m9084c4228e" x="72" y="311.715" style="stroke: #000000; stroke-width: 0.8"/>
      </g>
     </g>
     <g id="text_14">
      <!-- 0.5 -->
      <g transform="translate(49.096875 315.514219) scale(0.1 -0.1)">
       <use xlink:href="#DejaVuSans-30"/>
       <use xlink:href="#DejaVuSans-2e" x="63.623047"/>
       <use xlink:href="#DejaVuSans-35" x="95.410156"/>
      </g>
     </g>
    </g>
    <g id="ytick_3">
     <g id="line2d_27">
      <path d="M 72 259.74 
L 518.4 259.74 
" clip-path="url(#p461ad6b6ab)" style="fill: none; stroke: #b0b0b0; stroke-width: 0.8; stroke-linecap: square"/>
     </g>
     <g id="line2d_28">
      <g>
       <use xlink:href="#m9084c4228e" x="72" y="259.74" style="stroke: #000000; stroke-width: 0.8"/>
      </g>
     </g>
     <g id="text_15">
      <!-- 1.0 -->
      <g transform="translate(49.096875 263.539219) scale(0.1 -0.1)">
       <use xlink:href="#DejaVuSans-31"/>
       <use xlink:href="#DejaVuSans-2e" x="63.623047"/>
       <use xlink:href="#DejaVuSans-30" x="95.410156"/>
      </g>
     </g>
    </g>
    <g id="ytick_4">
     <g id="line2d_29">
      <path d="M 72 207.765 
L 518.4 207.765 
" clip-path="url(#p461ad6b6ab)" style="fill: none; stroke: #b0b0b0; stroke-width: 0.8; stroke-linecap: square"/>
     </g>
     <g id="line2d_30">
      <g>
       <use xlink:href="#m9084c4228e" x="72" y="207.765" style="stroke: #000000; stroke-width: 0.8"/>
      </g>
     </g>
     <g id="text_16">
      <!-- 1.5 -->
      <g transform="translate(49.096875 211.564219) scale(0.1 -0.1)">
       <use xlink:href="#DejaVuSans-31"/>
       <use xlink:href="#DejaVuSans-2e" x="63.623047"/>
       <use xlink:href="#DejaVuSans-35" x="95.410156"/>
      </g>
     </g>
    </g>
    <g id="ytick_5">
     <g id="line2d_31">
      <path d="M 72 155.79 
L 518.4 155.79 
" clip-path="url(#p461ad6b6ab)" style="fill: none; stroke: #b0b0b0; stroke-width: 0.8; stroke-linecap: square"/>
     </g>
     <g id="line2d_32">
      <g>
       <use xlink:href="#m9084c4228e" x="72" y="155.79" style="stroke: #000000; stroke-width: 0.8"/>
      </g>
     </g>
     <g id="text_17">
      <!-- 2.0 -->
      <g transform="translate(49.096875 159.589219) scale(0.1 -0.1)">
       <use xlink:href="#DejaVuSans-32"/>
       <use xlink:href="#DejaVuSans-2e" x="63.623047"/>
       <use xlink:href="#DejaVuSans-30" x="95.410156"/>
      </g>
     </g>
    </g>
    <g id="ytick_6">
     <g id="line2d_33">
      <path d="M 72 103.815 
L 518.4 103.815 
" clip-path="url(#p461ad6b6ab)" style="fill: none; stroke: #b0b0b0; stroke-width: 0.8; stroke-linecap: square"/>
     </g>
     <g id="line2d_34">
      <g>
       <use xlink:href="#m9084c4228e" x="72" y="103.815" style="stroke: #000000; stroke-width: 0.8"/>
      </g>
     </g>
     <g id="text_18">
      <!-- 2.5 -->
      <g transform="translate(49.096875 107.614219) scale(0.1 -0.1)">
       <use xlink:href="#DejaVuSans-32"/>
       <use xlink:href="#DejaVuSans-2e" x="63.623047"/>
       <use xlink:href="#DejaVuSans-35" x="95.410156"/>
      </g>
     </g>
    </g>
    <g id="ytick_7">
     <g id="line2d_35">
      <path d="M 72 51.84 
L 518.4 51.84 
" clip-path="url(#p461ad6b6ab)" style="fill: none; stroke: #b0b0b0; stroke-width: 0.8; stroke-linecap: square"/>
     </g>
     <g id="line2d_36">
      <g>
       <use xlink:href="#m9084c4228e" x="72" y="51.84" style="stroke: #000000; stroke-width: 0.8"/>
      </g>
     </g>
     <g id="text_19">
      <!-- 3.0 -->
      <g transform="translate(49.096875 55.639219) scale(0.1 -0.1)">
       <use xlink:href="#DejaVuSans-33"/>
       <use xlink:href="#DejaVuSans-2e" x="63.623047"/>
       <use xlink:href="#DejaVuSans-30" x="95.410156"/>
      </g>
     </g>
    </g>
    <g id="text_20">
     <!-- blank corrected OD600 -->
     <g transform="translate(43.017187 276.115469) rotate(-90) scale(0.1 -0.1)">
      <defs>
       <path id="DejaVuSans-62" d="M 3116 1747 
Q 3116 2381 2855 2742 
Q 2594 3103 2138 3103 
Q 1681 3103 1420 2742 
Q 1159 2381 1159 1747 
Q 1159 1113 1420 752 
Q 1681 391 2138 391 
Q 2594 391 2855 752 
Q 3116 1113 3116 1747 
z
M 1159 2969 
Q 1341 3281 1617 3432 
Q 1894 3584 2278 3584 
Q 2916 3584 3314 3078 
Q 3713 2572 3713 1747 
Q 3713 922 3314 415 
Q 2916 -91 2278 -91 
Q 1894 -91 1617 61 
Q 1341 213 1159 525 
L 1159 0 
L 581 0 
L 581 4863 
L 1159 4863 
L 1159 2969 
z
" transform="scale(0.015625)"/>
       <path id="DejaVuSans-6c" d="M 603 4863 
L 1178 4863 
L 1178 0 
L 603 0 
L 603 4863 
z
" transform="scale(0.015625)"/>
       <path id="DejaVuSans-61" d="M 2194 1759 
Q 1497 1759 1228 1600 
Q 959 1441 959 1056 
Q 959 750 1161 570 
Q 1363 391 1709 391 
Q 2188 391 2477 730 
Q 2766 1069 2766 1631 
L 2766 1759 
L 2194 1759 
z
M 3341 1997 
L 3341 0 
L 2766 0 
L 2766 531 
Q 2569 213 2275 61 
Q 1981 -91 1556 -91 
Q 1019 -91 701 211 
Q 384 513 384 1019 
Q 384 1609 779 1909 
Q 1175 2209 1959 2209 
L 2766 2209 
L 2766 2266 
Q 2766 2663 2505 2880 
Q 2244 3097 1772 3097 
Q 1472 3097 1187 3025 
Q 903 2953 641 2809 
L 641 3341 
Q 956 3463 1253 3523 
Q 1550 3584 1831 3584 
Q 2591 3584 2966 3190 
Q 3341 2797 3341 1997 
z
" transform="scale(0.015625)"/>
       <path id="DejaVuSans-6b" d="M 581 4863 
L 1159 4863 
L 1159 1991 
L 2875 3500 
L 3609 3500 
L 1753 1863 
L 3688 0 
L 2938 0 
L 1159 1709 
L 1159 0 
L 581 0 
L 581 4863 
z
" transform="scale(0.015625)"/>
       <path id="DejaVuSans-63" d="M 3122 3366 
L 3122 2828 
Q 2878 2963 2633 3030 
Q 2388 3097 2138 3097 
Q 1578 3097 1268 2742 
Q 959 2388 959 1747 
Q 959 1106 1268 751 
Q 1578 397 2138 397 
Q 2388 397 2633 464 
Q 2878 531 3122 666 
L 3122 134 
Q 2881 22 2623 -34 
Q 2366 -91 2075 -91 
Q 1284 -91 818 406 
Q 353 903 353 1747 
Q 353 2603 823 3093 
Q 1294 3584 2113 3584 
Q 2378 3584 2631 3529 
Q 2884 3475 3122 3366 
z
" transform="scale(0.015625)"/>
       <path id="DejaVuSans-64" d="M 2906 2969 
L 2906 4863 
L 3481 4863 
L 3481 0 
L 2906 0 
L 2906 525 
Q 2725 213 2448 61 
Q 2172 -91 1784 -91 
Q 1150 -91 751 415 
Q 353 922 353 1747 
Q 353 2572 751 3078 
Q 1150 3584 1784 3584 
Q 2172 3584 2448 3432 
Q 2725 3281 2906 2969 
z
M 947 1747 
Q 947 1113 1208 752 
Q 1469 391 1925 391 
Q 2381 391 2643 752 
Q 2906 1113 2906 1747 
Q 2906 2381 2643 2742 
Q 2381 3103 1925 3103 
Q 1469 3103 1208 2742 
Q 947 2381 947 1747 
z
" transform="scale(0.015625)"/>
       <path id="DejaVuSans-4f" d="M 2522 4238 
Q 1834 4238 1429 3725 
Q 1025 3213 1025 2328 
Q 1025 1447 1429 934 
Q 1834 422 2522 422 
Q 3209 422 3611 934 
Q 4013 1447 4013 2328 
Q 4013 3213 3611 3725 
Q 3209 4238 2522 4238 
z
M 2522 4750 
Q 3503 4750 4090 4092 
Q 4678 3434 4678 2328 
Q 4678 1225 4090 567 
Q 3503 -91 2522 -91 
Q 1538 -91 948 565 
Q 359 1222 359 2328 
Q 359 3434 948 4092 
Q 1538 4750 2522 4750 
z
" transform="scale(0.015625)"/>
       <path id="DejaVuSans-44" d="M 1259 4147 
L 1259 519 
L 2022 519 
Q 2988 519 3436 956 
Q 3884 1394 3884 2338 
Q 3884 3275 3436 3711 
Q 2988 4147 2022 4147 
L 1259 4147 
z
M 628 4666 
L 1925 4666 
Q 3281 4666 3915 4102 
Q 4550 3538 4550 2338 
Q 4550 1131 3912 565 
Q 3275 0 1925 0 
L 628 0 
L 628 4666 
z
" transform="scale(0.015625)"/>
      </defs>
      <use xlink:href="#DejaVuSans-62"/>
      <use xlink:href="#DejaVuSans-6c" x="63.476562"/>
      <use xlink:href="#DejaVuSans-61" x="91.259766"/>
      <use xlink:href="#DejaVuSans-6e" x="152.539062"/>
      <use xlink:href="#DejaVuSans-6b" x="215.917969"/>
      <use xlink:href="#DejaVuSans-20" x="273.828125"/>
      <use xlink:href="#DejaVuSans-63" x="305.615234"/>
      <use xlink:href="#DejaVuSans-6f" x="360.595703"/>
      <use xlink:href="#DejaVuSans-72" x="421.777344"/>
      <use xlink:href="#DejaVuSans-72" x="461.140625"/>
      <use xlink:href="#DejaVuSans-65" x="500.003906"/>
      <use xlink:href="#DejaVuSans-63" x="561.527344"/>
      <use xlink:href="#DejaVuSans-74" x="616.507812"/>
      <use xlink:href="#DejaVuSans-65" x="655.716797"/>
      <use xlink:href="#DejaVuSans-64" x="717.240234"/>
      <use xlink:href="#DejaVuSans-20" x="780.716797"/>
      <use xlink:href="#DejaVuSans-4f" x="812.503906"/>
      <use xlink:href="#DejaVuSans-44" x="891.214844"/>
      <use xlink:href="#DejaVuSans-36" x="968.216797"/>
      <use xlink:href="#DejaVuSans-30" x="1031.839844"/>
      <use xlink:href="#DejaVuSans-30" x="1095.462891"/>
     </g>
    </g>
   </g>
   <g id="line2d_37">
    <path d="M 92.290909 353.435333 
L 93.29541 360.607883 
L 94.29991 359.360482 
L 95.30441 360.503933 
L 96.308911 360.296033 
L 97.313411 360.296033 
L 98.317912 359.984182 
L 99.322412 360.088132 
L 101.331413 361.855282 
L 102.335914 360.607883 
L 103.340414 361.231583 
L 104.344914 361.439482 
L 105.349415 361.439482 
L 106.353915 361.647382 
L 107.358416 362.167132 
L 108.362916 361.335532 
L 109.367417 362.271082 
L 110.371917 361.751332 
L 111.376418 361.855282 
L 112.380918 361.127633 
L 114.389919 361.855282 
L 115.394419 361.543432 
L 117.40342 361.335532 
L 118.407921 360.503933 
L 119.412421 360.296033 
L 121.421422 359.048632 
L 122.425923 357.801233 
L 125.439424 357.281482 
L 126.443924 357.489382 
L 127.448425 356.969632 
L 128.452925 356.865682 
L 129.457426 356.969632 
L 130.461926 357.281482 
L 131.466427 357.073582 
L 134.479928 357.281482 
L 135.484428 357.177532 
L 137.493429 356.553832 
L 139.50243 355.098532 
L 140.506931 354.162982 
L 142.515932 353.331383 
L 143.520432 352.707682 
L 149.547435 351.460283 
L 150.551935 350.316832 
L 151.556436 350.420782 
L 152.560936 350.212882 
L 154.569937 349.277332 
L 155.574437 348.861533 
L 157.583438 346.470683 
L 159.592439 345.223282 
L 160.59694 344.807482 
L 161.60144 344.807482 
L 162.605941 344.287733 
L 163.610441 344.183783 
L 165.619442 344.911432 
L 167.628443 344.599582 
L 169.637444 344.495632 
L 170.641944 344.599582 
L 171.646445 344.079833 
L 172.650945 344.287733 
L 173.655446 344.079833 
L 174.659946 343.664033 
L 175.664446 342.520582 
L 176.668947 342.000833 
L 177.673447 341.065282 
L 178.677948 340.649482 
L 181.691449 340.649482 
L 182.69595 340.233682 
L 183.70045 340.441582 
L 184.70495 340.129732 
L 185.709451 340.337632 
L 186.713951 339.921832 
L 187.718452 340.337632 
L 189.727453 339.194183 
L 190.731953 339.298133 
L 191.736454 338.882333 
L 194.749955 336.907283 
L 196.758956 336.387533 
L 197.763456 335.763832 
L 199.772457 335.659882 
L 200.776958 335.348032 
L 201.781458 336.179633 
L 203.790459 336.075682 
L 204.794959 335.555932 
L 205.79946 335.763832 
L 206.80396 334.828283 
L 207.808461 335.140132 
L 210.821962 333.788783 
L 211.826463 333.165082 
L 214.839964 331.917683 
L 215.844464 331.917683 
L 216.848965 331.397933 
L 217.853465 331.605833 
L 219.862466 331.501882 
L 220.866967 331.813733 
L 221.871467 331.501882 
L 222.875968 331.605833 
L 224.884968 331.086082 
L 226.893969 330.878182 
L 227.89847 329.838683 
L 228.90297 329.422883 
L 229.907471 329.214983 
L 230.911971 328.279432 
L 231.916472 328.175482 
L 233.925473 327.551783 
L 234.929973 327.863632 
L 235.934473 327.239933 
L 236.938974 327.863632 
L 237.943474 327.032033 
L 239.952475 326.512282 
L 242.965977 325.784632 
L 243.970477 325.160933 
L 244.974977 324.849083 
L 247.988479 323.081932 
L 248.992979 322.666133 
L 249.99748 322.042432 
L 253.010981 321.418732 
L 254.015482 321.730582 
L 256.024482 321.210832 
L 257.028983 321.834532 
L 259.037984 321.210832 
L 260.042484 320.483182 
L 262.051485 320.379233 
L 263.055986 319.963433 
L 264.060486 319.859483 
L 265.064986 319.443683 
L 267.073987 317.988383 
L 268.078488 317.884433 
L 270.087489 317.364683 
L 271.091989 317.468633 
L 272.09649 317.260733 
L 273.10099 317.884433 
L 275.109991 317.572583 
L 276.114491 316.948882 
L 277.118992 317.260733 
L 278.123492 317.364683 
L 279.127993 317.156782 
L 280.132493 316.221232 
L 281.136994 316.533082 
L 282.141494 316.117282 
L 283.145995 316.013332 
L 284.150495 315.181733 
L 285.154995 315.389633 
L 286.159496 314.869883 
L 289.172997 314.661982 
L 290.177498 314.973832 
L 291.181998 314.973832 
L 292.186499 314.765932 
L 293.190999 315.493583 
L 294.1955 315.389633 
L 295.2 314.973832 
L 296.2045 315.285683 
L 297.209001 315.181733 
L 298.213501 315.493583 
L 299.218002 315.389633 
L 301.227003 314.454082 
L 302.231503 314.454082 
L 303.236004 313.726432 
L 305.245005 314.142232 
L 306.249505 314.869883 
L 307.254005 314.454082 
L 308.258506 314.350132 
L 309.263006 314.558032 
L 311.272007 314.350132 
L 312.276508 314.973832 
L 314.285509 313.830382 
L 315.290009 313.726432 
L 316.294509 314.765932 
L 317.29901 314.558032 
L 318.30351 313.830382 
L 319.308011 313.934332 
L 320.312511 313.622482 
L 321.317012 313.102733 
L 322.321512 312.894833 
L 324.330513 312.894833 
L 326.339514 313.622482 
L 328.348515 313.310632 
L 329.353015 312.998783 
L 330.357516 313.310632 
L 331.362016 313.310632 
L 332.366517 313.726432 
L 333.371017 313.102733 
L 334.375518 313.830382 
L 335.380018 313.310632 
L 337.389019 313.206682 
L 338.393519 312.686933 
L 339.39802 312.686933 
L 340.40252 312.998783 
L 341.407021 312.790883 
L 342.411521 312.894833 
L 345.425023 312.582982 
L 346.429523 313.102733 
L 348.438524 312.998783 
L 349.443024 313.414582 
L 350.447525 313.414582 
L 351.452025 312.790883 
L 352.456526 313.310632 
L 354.465527 313.622482 
L 355.470027 313.414582 
L 356.474527 313.414582 
L 357.479028 313.726432 
L 358.483528 313.518532 
L 359.488029 313.726432 
L 360.492529 313.206682 
L 362.50153 313.622482 
L 363.506031 314.038282 
L 364.510531 313.934332 
L 365.515032 314.350132 
L 366.519532 314.246182 
L 367.524032 314.558032 
L 368.528533 314.454082 
L 369.533033 314.869883 
L 370.537534 314.350132 
L 373.551035 314.142232 
L 374.555536 314.142232 
L 375.560036 314.558032 
L 376.564536 314.350132 
L 377.569037 314.454082 
L 378.573537 314.038282 
L 379.578038 314.973832 
L 380.582538 314.973832 
L 381.587039 315.285683 
L 382.591539 315.285683 
L 383.59604 315.805432 
L 384.60054 315.285683 
L 385.605041 315.597532 
L 386.609541 316.221232 
L 387.614041 316.533082 
L 388.618542 315.909382 
L 389.623042 316.013332 
L 390.627543 315.909382 
L 391.632043 315.389633 
L 392.636544 315.701482 
L 394.645545 315.285683 
L 395.650045 315.389633 
L 397.659046 316.013332 
L 399.668047 315.805432 
L 400.672547 316.429132 
L 401.677048 316.013332 
L 402.681548 316.429132 
L 404.690549 316.533082 
L 405.69505 316.325182 
L 407.70405 316.429132 
L 408.708551 317.260733 
L 410.717552 316.325182 
L 411.722052 316.948882 
L 414.735554 316.637032 
L 416.744554 316.948882 
L 418.753555 316.844932 
L 419.758056 317.364683 
L 420.762556 317.364683 
L 423.776058 317.988383 
L 424.780558 318.612082 
L 425.785059 318.508132 
L 427.794059 317.676533 
L 428.79856 317.780483 
L 429.80306 317.572583 
L 431.812061 317.780483 
L 432.816562 317.572583 
L 433.821062 318.196282 
L 434.825563 318.404182 
L 436.834563 318.404182 
L 437.839064 318.612082 
L 438.843564 319.027882 
L 439.848065 319.131832 
L 440.852565 318.819982 
L 441.857066 319.235782 
L 444.870567 319.027882 
L 446.879568 319.131832 
L 447.884068 318.716032 
L 448.888569 319.131832 
L 450.89757 319.131832 
L 451.90207 319.443683 
L 452.906571 319.547632 
L 453.911071 319.859483 
L 454.915572 319.963433 
L 455.920072 319.755533 
L 457.929073 320.275283 
L 458.933573 320.067383 
L 461.947075 320.691082 
L 462.951575 320.379233 
L 465.965077 319.963433 
L 467.974077 320.275283 
L 468.978578 320.379233 
L 469.983078 320.691082 
L 471.992079 320.691082 
L 472.99658 321.106882 
L 475.005581 321.210832 
L 481.032583 321.210832 
L 482.037084 320.795032 
L 483.041584 321.106882 
L 485.050585 320.898982 
L 486.055086 320.587132 
L 489.068587 321.834532 
L 490.073087 321.522682 
L 491.077588 321.834532 
L 492.082088 321.626632 
L 497.10459 322.042432 
L 498.109091 321.938482 
L 498.109091 321.938482 
" clip-path="url(#p461ad6b6ab)" style="fill: none; stroke: #0000ff; stroke-opacity: 0.5; stroke-width: 1.5; stroke-linecap: square"/>
   </g>
   <g id="line2d_38">
    <path d="M 92.290909 348.445733 
L 93.29541 361.231583 
L 94.29991 358.528883 
L 95.30441 360.296033 
L 96.308911 359.880232 
L 97.313411 359.880232 
L 98.317912 359.152582 
L 99.322412 357.801233 
L 100.326913 358.840733 
L 101.331413 360.192083 
L 102.335914 359.880232 
L 103.340414 360.607883 
L 104.344914 361.647382 
L 106.353915 361.543432 
L 107.358416 361.023683 
L 108.362916 360.711833 
L 109.367417 361.647382 
L 110.371917 361.127633 
L 111.376418 361.127633 
L 112.380918 359.984182 
L 113.385419 360.296033 
L 114.389919 361.335532 
L 115.394419 360.711833 
L 117.40342 360.192083 
L 118.407921 359.672332 
L 119.412421 359.360482 
L 120.416922 358.736783 
L 121.421422 358.632833 
L 122.425923 357.385432 
L 123.430423 357.073582 
L 124.434923 357.281482 
L 125.439424 357.177532 
L 126.443924 355.826183 
L 127.448425 356.345933 
L 128.452925 356.345933 
L 129.457426 355.722233 
L 130.461926 356.969632 
L 131.466427 356.969632 
L 132.470927 357.177532 
L 133.475428 357.593332 
L 135.484428 357.281482 
L 139.50243 354.474832 
L 140.506931 353.435333 
L 144.524932 351.460283 
L 145.529433 351.148433 
L 146.533933 350.212882 
L 147.538434 350.212882 
L 152.560936 348.653633 
L 154.569937 347.302282 
L 155.574437 346.990432 
L 157.583438 344.807482 
L 158.587939 344.287733 
L 159.592439 343.456133 
L 160.59694 343.248232 
L 162.605941 342.104782 
L 163.610441 342.208732 
L 165.619442 342.104782 
L 166.623942 341.585033 
L 168.632943 341.273183 
L 170.641944 341.585033 
L 171.646445 341.169233 
L 172.650945 341.585033 
L 173.655446 340.961333 
L 174.659946 340.753432 
L 175.664446 340.025782 
L 176.668947 340.337632 
L 178.677948 338.570482 
L 181.691449 338.050732 
L 182.69595 337.946782 
L 183.70045 337.530982 
L 184.70495 337.427032 
L 186.713951 336.907283 
L 187.718452 336.803333 
L 188.722952 336.387533 
L 189.727453 336.283583 
L 191.736454 335.763832 
L 192.740954 335.555932 
L 193.745455 334.932232 
L 194.749955 333.684832 
L 195.754455 333.996683 
L 196.758956 333.165082 
L 197.763456 332.853232 
L 198.767957 332.957182 
L 199.772457 332.437432 
L 200.776958 332.125583 
L 201.781458 332.333483 
L 205.79946 331.917683 
L 206.80396 330.982132 
L 207.808461 331.190032 
L 208.812961 330.358432 
L 209.817462 330.774232 
L 210.821962 330.046582 
L 211.826463 329.838683 
L 212.830963 329.214983 
L 213.835464 329.422883 
L 214.839964 328.279432 
L 216.848965 327.759682 
L 217.853465 327.239933 
L 218.857966 327.032033 
L 220.866967 327.239933 
L 221.871467 326.616232 
L 222.875968 326.720182 
L 223.880468 326.512282 
L 227.89847 324.849083 
L 228.90297 324.849083 
L 229.907471 324.641183 
L 230.911971 323.601682 
L 231.916472 323.185882 
L 232.920972 322.458233 
L 234.929973 322.977982 
L 235.934473 321.626632 
L 236.938974 320.795032 
L 237.943474 321.418732 
L 238.947975 321.002932 
L 239.952475 319.963433 
L 240.956976 319.963433 
L 241.961476 319.443683 
L 242.965977 319.235782 
L 243.970477 318.819982 
L 244.974977 319.027882 
L 245.979478 318.196282 
L 246.983978 317.884433 
L 247.988479 318.404182 
L 248.992979 316.637032 
L 249.99748 316.533082 
L 251.00198 315.493583 
L 254.015482 314.973832 
L 255.019982 314.869883 
L 257.028983 314.038282 
L 258.033483 314.142232 
L 259.037984 314.038282 
L 260.042484 312.686933 
L 261.046985 313.206682 
L 263.055986 312.894833 
L 264.060486 312.375082 
L 265.064986 312.998783 
L 266.069487 311.439532 
L 267.073987 311.439532 
L 268.078488 310.607933 
L 269.082988 310.815832 
L 270.087489 310.607933 
L 271.091989 309.464482 
L 272.09649 309.360532 
L 273.10099 309.880282 
L 274.105491 309.152632 
L 275.109991 309.568432 
L 276.114491 308.632882 
L 277.118992 308.944732 
L 278.123492 309.048682 
L 279.127993 308.528932 
L 280.132493 307.697333 
L 281.136994 307.697333 
L 282.141494 307.905233 
L 283.145995 307.593382 
L 284.150495 308.321033 
L 285.154995 307.697333 
L 286.159496 306.761782 
L 287.163996 306.761782 
L 289.172997 306.034132 
L 290.177498 305.722283 
L 292.186499 306.657832 
L 293.190999 306.449932 
L 294.1955 306.657832 
L 295.2 305.826233 
L 296.2045 306.553882 
L 300.222502 305.306483 
L 302.231503 305.202532 
L 303.236004 304.786732 
L 304.240504 304.163032 
L 305.245005 304.890682 
L 307.254005 304.266982 
L 308.258506 304.682782 
L 309.263006 304.059082 
L 310.267507 304.370932 
L 311.272007 303.643282 
L 312.276508 304.370932 
L 313.281008 303.851182 
L 314.285509 304.474882 
L 316.294509 303.851182 
L 317.29901 303.747232 
L 318.30351 304.266982 
L 319.308011 303.435383 
L 320.312511 303.435383 
L 321.317012 302.084032 
L 323.326013 302.499832 
L 324.330513 301.772182 
L 325.335014 301.980082 
L 326.339514 301.876132 
L 327.344014 302.291932 
L 329.353015 302.603782 
L 330.357516 301.356382 
L 331.362016 302.084032 
L 332.366517 301.460332 
L 334.375518 301.772182 
L 335.380018 301.356382 
L 337.389019 301.460332 
L 338.393519 300.836633 
L 339.39802 299.901082 
L 340.40252 300.836633 
L 341.407021 300.005032 
L 342.411521 300.420832 
L 344.420522 300.628732 
L 345.425023 300.212932 
L 346.429523 300.524783 
L 347.434023 300.108982 
L 348.438524 300.420832 
L 349.443024 300.316882 
L 350.447525 300.420832 
L 351.452025 300.732683 
L 352.456526 300.628732 
L 353.461026 300.005032 
L 354.465527 300.108982 
L 355.470027 299.485282 
L 356.474527 300.108982 
L 357.479028 299.589232 
L 358.483528 299.901082 
L 359.488029 299.797132 
L 360.492529 299.069482 
L 363.506031 299.485282 
L 365.515032 299.797132 
L 366.519532 300.316882 
L 368.528533 299.173432 
L 369.533033 298.757632 
L 370.537534 299.589232 
L 371.542034 299.173432 
L 372.546535 300.212932 
L 373.551035 298.965532 
L 374.555536 299.901082 
L 375.560036 299.277382 
L 376.564536 298.861582 
L 377.569037 299.277382 
L 379.578038 299.485282 
L 380.582538 298.757632 
L 381.587039 299.069482 
L 382.591539 298.445782 
L 383.59604 298.757632 
L 384.60054 300.005032 
L 385.605041 298.965532 
L 386.609541 300.524783 
L 387.614041 299.797132 
L 388.618542 299.277382 
L 389.623042 299.589232 
L 390.627543 299.173432 
L 392.636544 299.381332 
L 393.641044 298.965532 
L 394.645545 299.485282 
L 395.650045 298.653683 
L 396.654545 298.757632 
L 397.659046 299.173432 
L 398.663546 298.653683 
L 399.668047 300.420832 
L 400.672547 299.173432 
L 401.677048 299.797132 
L 402.681548 298.861582 
L 403.686049 299.901082 
L 404.690549 298.861582 
L 405.69505 299.381332 
L 406.69955 299.485282 
L 407.70405 299.901082 
L 408.708551 299.693182 
L 409.713051 299.693182 
L 410.717552 299.173432 
L 411.722052 299.069482 
L 412.726553 298.653683 
L 413.731053 298.445782 
L 414.735554 298.653683 
L 415.740054 298.341833 
L 416.744554 298.861582 
L 417.749055 298.549733 
L 418.753555 299.589232 
L 419.758056 299.381332 
L 420.762556 297.926032 
L 422.771557 299.693182 
L 423.776058 298.133933 
L 424.780558 299.381332 
L 425.785059 298.861582 
L 426.789559 299.589232 
L 427.794059 299.277382 
L 428.79856 299.173432 
L 429.80306 298.237882 
L 430.807561 298.757632 
L 431.812061 298.757632 
L 432.816562 298.965532 
L 434.825563 298.549733 
L 436.834563 298.965532 
L 437.839064 298.341833 
L 438.843564 298.549733 
L 439.848065 299.069482 
L 441.857066 298.861582 
L 442.861566 299.901082 
L 444.870567 298.341833 
L 445.875068 298.861582 
L 446.879568 299.173432 
L 447.884068 299.069482 
L 448.888569 298.757632 
L 449.893069 298.133933 
L 450.89757 299.797132 
L 451.90207 298.757632 
L 452.906571 299.485282 
L 453.911071 298.133933 
L 454.915572 299.069482 
L 455.920072 298.757632 
L 457.929073 299.277382 
L 458.933573 298.757632 
L 459.938074 298.861582 
L 460.942574 299.277382 
L 461.947075 299.485282 
L 462.951575 298.757632 
L 463.956076 298.861582 
L 465.965077 298.445782 
L 466.969577 299.485282 
L 467.974077 298.237882 
L 468.978578 299.173432 
L 469.983078 298.237882 
L 470.987579 298.861582 
L 472.99658 299.069482 
L 475.005581 298.341833 
L 477.014581 299.693182 
L 478.019082 299.589232 
L 479.023582 300.212932 
L 480.028083 298.965532 
L 481.032583 299.069482 
L 483.041584 298.757632 
L 484.046085 298.653683 
L 485.050585 298.861582 
L 486.055086 297.718132 
L 487.059586 299.381332 
L 488.064086 298.653683 
L 489.068587 299.485282 
L 490.073087 298.341833 
L 492.082088 298.029982 
L 493.086589 298.757632 
L 494.091089 298.237882 
L 495.09559 298.029982 
L 496.10009 298.757632 
L 498.109091 298.653683 
L 498.109091 298.653683 
" clip-path="url(#p461ad6b6ab)" style="fill: none; stroke: #0000ff; stroke-opacity: 0.5; stroke-width: 1.5; stroke-linecap: square"/>
   </g>
   <g id="line2d_39">
    <path d="M 92.290909 346.262783 
L 93.29541 359.984182 
L 94.29991 358.217033 
L 95.30441 359.672332 
L 96.308911 359.048632 
L 97.313411 360.399983 
L 98.317912 360.919733 
L 99.322412 361.231583 
L 100.326913 361.335532 
L 101.331413 361.959232 
L 102.335914 361.127633 
L 103.340414 361.543432 
L 104.344914 361.543432 
L 105.349415 361.855282 
L 107.358416 361.751332 
L 108.362916 361.231583 
L 109.367417 361.751332 
L 110.371917 361.231583 
L 111.376418 361.231583 
L 112.380918 360.711833 
L 113.385419 360.503933 
L 114.389919 361.231583 
L 116.39892 360.503933 
L 117.40342 360.192083 
L 118.407921 359.360482 
L 119.412421 359.360482 
L 121.421422 358.009133 
L 122.425923 357.489382 
L 124.434923 356.761732 
L 125.439424 357.177532 
L 126.443924 356.345933 
L 128.452925 357.697282 
L 129.457426 357.697282 
L 130.461926 357.905183 
L 131.466427 357.281482 
L 133.475428 357.385432 
L 134.479928 357.073582 
L 135.484428 357.073582 
L 136.488929 356.553832 
L 139.50243 354.474832 
L 140.506931 353.435333 
L 143.520432 352.083982 
L 144.524932 351.460283 
L 145.529433 351.044483 
L 146.533933 351.044483 
L 147.538434 350.524733 
L 148.542934 350.524733 
L 149.547435 351.148433 
L 151.556436 351.252383 
L 152.560936 350.108932 
L 153.565437 350.004982 
L 154.569937 349.173383 
L 155.574437 349.173383 
L 157.583438 346.158833 
L 158.587939 345.743032 
L 160.59694 344.599582 
L 161.60144 344.079833 
L 164.614941 343.767983 
L 168.632943 344.599582 
L 169.637444 345.431182 
L 170.641944 345.950933 
L 171.646445 345.223282 
L 172.650945 345.431182 
L 173.655446 344.807482 
L 175.664446 343.040332 
L 176.668947 342.728482 
L 177.673447 341.792933 
L 178.677948 341.273183 
L 179.682448 340.961333 
L 181.691449 340.857382 
L 182.69595 340.545532 
L 184.70495 340.441582 
L 186.713951 340.649482 
L 187.718452 341.377133 
L 189.727453 341.273183 
L 191.736454 340.129732 
L 192.740954 339.609983 
L 194.749955 338.050732 
L 195.754455 337.842832 
L 197.763456 337.011233 
L 198.767957 336.803333 
L 200.776958 336.075682 
L 201.781458 336.075682 
L 202.785959 336.283583 
L 203.790459 336.283583 
L 205.79946 336.907283 
L 206.80396 336.699383 
L 207.808461 337.115183 
L 209.817462 336.075682 
L 210.821962 335.036182 
L 211.826463 334.724333 
L 215.844464 332.541382 
L 216.848965 332.437432 
L 218.857966 331.813733 
L 219.862466 332.021633 
L 221.871467 331.605833 
L 222.875968 331.917683 
L 223.880468 331.605833 
L 224.884968 331.709783 
L 225.889469 331.293982 
L 226.893969 330.670282 
L 227.89847 330.254482 
L 228.90297 330.254482 
L 229.907471 329.942633 
L 230.911971 329.111032 
L 231.916472 328.591282 
L 233.925473 327.863632 
L 234.929973 328.071532 
L 235.934473 327.239933 
L 236.938974 326.928082 
L 237.943474 326.200432 
L 238.947975 326.720182 
L 239.952475 325.888582 
L 240.956976 325.888582 
L 241.961476 325.576732 
L 242.965977 325.680682 
L 243.970477 324.953033 
L 244.974977 324.745133 
L 245.979478 324.121432 
L 247.988479 323.809582 
L 248.992979 322.770083 
L 249.99748 322.042432 
L 253.010981 320.795032 
L 254.015482 320.587132 
L 255.019982 320.795032 
L 256.024482 320.691082 
L 257.028983 320.171333 
L 258.033483 320.067383 
L 259.037984 319.651583 
L 261.046985 319.235782 
L 262.051485 319.547632 
L 263.055986 319.235782 
L 264.060486 318.404182 
L 265.064986 318.923932 
L 266.069487 317.780483 
L 269.082988 316.844932 
L 270.087489 316.740982 
L 271.091989 315.701482 
L 272.09649 316.013332 
L 273.10099 315.909382 
L 274.105491 315.597532 
L 275.109991 315.909382 
L 276.114491 315.493583 
L 277.118992 315.285683 
L 278.123492 315.701482 
L 279.127993 315.389633 
L 280.132493 315.389633 
L 281.136994 314.973832 
L 285.154995 314.038282 
L 286.159496 313.310632 
L 287.163996 313.622482 
L 288.168497 313.102733 
L 290.177498 312.998783 
L 291.181998 313.414582 
L 292.186499 313.206682 
L 293.190999 313.414582 
L 294.1955 313.206682 
L 295.2 312.582982 
L 296.2045 313.414582 
L 297.209001 313.414582 
L 300.222502 312.790883 
L 301.227003 313.102733 
L 302.231503 312.790883 
L 303.236004 312.167182 
L 305.245005 311.751382 
L 306.249505 311.959282 
L 307.254005 311.543482 
L 309.263006 311.439532 
L 310.267507 311.959282 
L 311.272007 311.231632 
L 312.276508 311.855332 
L 313.281008 311.647432 
L 314.285509 311.855332 
L 317.29901 311.231632 
L 319.308011 311.335582 
L 320.312511 311.023732 
L 321.317012 310.088182 
L 322.321512 310.088182 
L 323.326013 309.776332 
L 324.330513 309.256582 
L 325.335014 309.984232 
L 326.339514 309.464482 
L 327.344014 309.776332 
L 329.353015 310.088182 
L 330.357516 309.568432 
L 331.362016 309.984232 
L 332.366517 309.360532 
L 334.375518 309.984232 
L 336.384518 309.984232 
L 337.389019 309.464482 
L 338.393519 309.152632 
L 339.39802 309.152632 
L 341.407021 308.424982 
L 343.416022 308.736832 
L 344.420522 308.528932 
L 345.425023 308.528932 
L 346.429523 308.840782 
L 347.434023 308.840782 
L 348.438524 308.528932 
L 349.443024 308.944732 
L 350.447525 308.840782 
L 351.452025 309.152632 
L 352.456526 308.736832 
L 353.461026 309.048682 
L 355.470027 308.736832 
L 356.474527 309.152632 
L 357.479028 308.632882 
L 359.488029 308.944732 
L 360.492529 308.528932 
L 361.49703 308.424982 
L 363.506031 308.840782 
L 364.510531 308.840782 
L 365.515032 309.048682 
L 366.519532 308.840782 
L 367.524032 308.944732 
L 368.528533 308.840782 
L 369.533033 308.424982 
L 370.537534 308.944732 
L 371.542034 308.736832 
L 372.546535 309.048682 
L 373.551035 308.424982 
L 374.555536 308.217083 
L 377.569037 308.113133 
L 378.573537 308.632882 
L 380.582538 308.113133 
L 381.587039 308.528932 
L 382.591539 308.528932 
L 383.59604 309.256582 
L 384.60054 309.464482 
L 385.605041 309.360532 
L 388.618542 309.568432 
L 390.627543 309.464482 
L 391.632043 308.944732 
L 392.636544 309.360532 
L 393.641044 308.736832 
L 394.645545 309.048682 
L 396.654545 309.152632 
L 397.659046 309.256582 
L 398.663546 308.944732 
L 399.668047 309.464482 
L 401.677048 309.256582 
L 403.686049 310.192132 
L 404.690549 309.568432 
L 405.69505 309.880282 
L 407.70405 310.088182 
L 408.708551 309.984232 
L 409.713051 310.192132 
L 410.717552 309.672382 
L 411.722052 310.192132 
L 413.731053 309.464482 
L 414.735554 308.736832 
L 415.740054 309.568432 
L 416.744554 309.568432 
L 417.749055 309.776332 
L 418.753555 309.672382 
L 419.758056 310.192132 
L 420.762556 309.776332 
L 421.767057 310.296083 
L 422.771557 310.503983 
L 423.776058 310.296083 
L 424.780558 310.711883 
L 426.789559 311.023732 
L 427.794059 311.023732 
L 428.79856 310.711883 
L 429.80306 310.088182 
L 430.807561 310.400032 
L 431.812061 310.400032 
L 432.816562 310.711883 
L 433.821062 310.503983 
L 434.825563 310.607933 
L 435.830063 310.296083 
L 437.839064 311.439532 
L 438.843564 311.231632 
L 439.848065 311.231632 
L 440.852565 311.647432 
L 441.857066 311.751382 
L 442.861566 312.167182 
L 443.866067 311.855332 
L 444.870567 311.751382 
L 445.875068 311.231632 
L 447.884068 311.439532 
L 448.888569 311.855332 
L 449.893069 311.231632 
L 450.89757 311.543482 
L 452.906571 311.855332 
L 453.911071 311.231632 
L 454.915572 311.751382 
L 456.924572 312.063232 
L 457.929073 312.894833 
L 459.938074 311.959282 
L 461.947075 313.206682 
L 462.951575 312.790883 
L 463.956076 313.102733 
L 464.960576 312.271132 
L 466.969577 312.582982 
L 467.974077 311.959282 
L 468.978578 312.271132 
L 469.983078 311.959282 
L 470.987579 312.479033 
L 471.992079 312.271132 
L 474.00108 312.894833 
L 475.005581 312.894833 
L 477.014581 313.622482 
L 479.023582 313.726432 
L 481.032583 312.998783 
L 482.037084 313.310632 
L 486.055086 312.894833 
L 487.059586 313.206682 
L 488.064086 312.790883 
L 489.068587 313.206682 
L 490.073087 312.998783 
L 492.082088 313.102733 
L 493.086589 313.518532 
L 494.091089 313.414582 
L 495.09559 313.726432 
L 498.109091 313.726432 
L 498.109091 313.726432 
" clip-path="url(#p461ad6b6ab)" style="fill: none; stroke: #0000ff; stroke-opacity: 0.5; stroke-width: 1.5; stroke-linecap: square"/>
   </g>
   <g id="line2d_40">
    <path d="M 92.290909 351.668183 
L 93.29541 359.880232 
L 94.29991 358.736783 
L 95.30441 359.984182 
L 96.308911 361.023683 
L 97.313411 361.335532 
L 99.322412 360.919733 
L 100.326913 361.751332 
L 101.331413 361.543432 
L 103.340414 361.543432 
L 106.353915 362.167132 
L 109.367417 361.023683 
L 110.371917 362.063182 
L 112.380918 360.711833 
L 113.385419 360.607883 
L 114.389919 361.751332 
L 115.394419 360.919733 
L 116.39892 361.127633 
L 117.40342 360.503933 
L 118.407921 359.464432 
L 119.412421 360.192083 
L 120.416922 359.776282 
L 121.421422 359.568382 
L 122.425923 358.528883 
L 123.430423 358.528883 
L 126.443924 357.801233 
L 127.448425 359.048632 
L 129.457426 358.424933 
L 130.461926 358.944682 
L 131.466427 357.905183 
L 134.479928 357.593332 
L 135.484428 357.801233 
L 136.488929 357.697282 
L 137.493429 357.281482 
L 140.506931 354.890632 
L 142.515932 353.851133 
L 143.520432 353.643233 
L 144.524932 353.123483 
L 146.533933 352.915582 
L 148.542934 353.643233 
L 149.547435 353.851133 
L 150.551935 353.331383 
L 151.556436 353.019532 
L 153.565437 351.772132 
L 154.569937 350.940533 
L 155.574437 351.044483 
L 156.578938 349.589182 
L 157.583438 347.822032 
L 159.592439 346.262783 
L 160.59694 345.846982 
L 161.60144 345.119332 
L 162.605941 344.703532 
L 163.610441 344.599582 
L 164.614941 344.703532 
L 166.623942 346.158833 
L 167.628443 346.574633 
L 168.632943 346.470683 
L 169.637444 346.574633 
L 170.641944 346.886482 
L 171.646445 346.262783 
L 172.650945 346.470683 
L 173.655446 346.158833 
L 174.659946 345.327232 
L 175.664446 344.287733 
L 176.668947 344.079833 
L 177.673447 342.936382 
L 178.677948 342.624532 
L 179.682448 342.520582 
L 180.686949 342.624532 
L 182.69595 341.792933 
L 184.70495 342.936382 
L 185.709451 343.767983 
L 186.713951 343.560083 
L 187.718452 344.287733 
L 188.722952 343.248232 
L 189.727453 343.248232 
L 190.731953 342.520582 
L 191.736454 342.000833 
L 192.740954 341.169233 
L 193.745455 340.545532 
L 194.749955 339.713932 
L 195.754455 339.609983 
L 196.758956 339.090233 
L 197.763456 338.882333 
L 198.767957 338.882333 
L 199.772457 338.258632 
L 200.776958 338.050732 
L 201.781458 338.362582 
L 202.785959 339.194183 
L 204.794959 340.545532 
L 207.808461 339.921832 
L 209.817462 339.194183 
L 210.821962 337.738882 
L 214.839964 335.555932 
L 218.857966 335.244082 
L 219.862466 335.763832 
L 220.866967 335.763832 
L 221.871467 336.179633 
L 222.875968 336.907283 
L 223.880468 337.011233 
L 225.889469 336.491483 
L 226.893969 335.763832 
L 227.89847 334.724333 
L 228.90297 334.204583 
L 229.907471 334.308533 
L 230.911971 333.269032 
L 231.916472 332.957182 
L 232.920972 332.437432 
L 233.925473 332.229533 
L 234.929973 332.229533 
L 236.938974 331.086082 
L 237.943474 330.878182 
L 238.947975 331.917683 
L 239.952475 331.501882 
L 240.956976 332.645332 
L 241.961476 332.333483 
L 242.965977 332.333483 
L 244.974977 331.709783 
L 245.979478 330.982132 
L 246.983978 330.046582 
L 247.988479 329.734733 
L 249.99748 327.759682 
L 251.00198 327.135983 
L 252.006481 327.343883 
L 253.010981 326.616232 
L 254.015482 326.304382 
L 255.019982 326.512282 
L 256.024482 326.096482 
L 257.028983 326.616232 
L 259.037984 326.928082 
L 260.042484 327.343883 
L 261.046985 327.135983 
L 262.051485 327.239933 
L 263.055986 326.720182 
L 264.060486 325.576732 
L 265.064986 325.472782 
L 266.069487 324.641183 
L 267.073987 323.601682 
L 269.082988 323.185882 
L 270.087489 323.185882 
L 271.091989 322.354282 
L 273.10099 322.666133 
L 274.105491 322.042432 
L 275.109991 322.666133 
L 276.114491 322.770083 
L 278.123492 323.913532 
L 279.127993 324.329332 
L 280.132493 323.393782 
L 281.136994 323.081932 
L 283.145995 321.834532 
L 284.150495 321.626632 
L 285.154995 320.587132 
L 286.159496 320.171333 
L 287.163996 320.379233 
L 288.168497 320.379233 
L 289.172997 319.651583 
L 290.177498 319.859483 
L 292.186499 319.963433 
L 295.2 321.106882 
L 296.2045 322.042432 
L 298.213501 321.938482 
L 299.218002 321.002932 
L 300.222502 320.691082 
L 303.236004 319.235782 
L 304.240504 318.819982 
L 305.245005 318.716032 
L 306.249505 319.235782 
L 307.254005 318.612082 
L 309.263006 318.923932 
L 310.267507 319.235782 
L 311.272007 319.235782 
L 312.276508 319.651583 
L 313.281008 319.859483 
L 315.290009 321.002932 
L 317.29901 321.106882 
L 318.30351 320.171333 
L 319.308011 320.275283 
L 320.312511 319.235782 
L 321.317012 319.235782 
L 322.321512 318.300232 
L 323.326013 318.092332 
L 324.330513 317.676533 
L 325.335014 317.780483 
L 326.339514 318.196282 
L 327.344014 318.092332 
L 328.348515 317.780483 
L 329.353015 318.404182 
L 330.357516 318.716032 
L 331.362016 319.547632 
L 333.371017 320.067383 
L 334.375518 319.963433 
L 335.380018 319.131832 
L 338.393519 317.988383 
L 340.40252 317.468633 
L 341.407021 316.844932 
L 343.416022 316.948882 
L 344.420522 316.533082 
L 345.425023 316.429132 
L 346.429523 317.156782 
L 347.434023 317.364683 
L 348.438524 317.988383 
L 349.443024 318.819982 
L 350.447525 319.443683 
L 351.452025 319.131832 
L 354.465527 319.443683 
L 355.470027 318.300232 
L 356.474527 318.404182 
L 357.479028 318.196282 
L 358.483528 317.780483 
L 359.488029 318.092332 
L 360.492529 317.572583 
L 362.50153 318.196282 
L 363.506031 319.027882 
L 364.510531 319.443683 
L 365.515032 319.339732 
L 366.519532 319.547632 
L 367.524032 319.235782 
L 369.533033 319.547632 
L 371.542034 317.988383 
L 372.546535 317.988383 
L 373.551035 318.196282 
L 374.555536 317.260733 
L 375.560036 317.468633 
L 376.564536 317.052833 
L 377.569037 317.364683 
L 378.573537 317.156782 
L 379.578038 317.156782 
L 380.582538 317.468633 
L 381.587039 318.508132 
L 383.59604 320.275283 
L 384.60054 320.587132 
L 385.605041 320.171333 
L 386.609541 320.587132 
L 387.614041 320.795032 
L 388.618542 319.755533 
L 389.623042 319.235782 
L 391.632043 318.819982 
L 392.636544 318.404182 
L 393.641044 318.300232 
L 394.645545 317.780483 
L 395.650045 317.572583 
L 396.654545 317.884433 
L 397.659046 317.884433 
L 400.672547 318.612082 
L 401.677048 319.339732 
L 402.681548 320.587132 
L 403.686049 321.210832 
L 404.690549 320.795032 
L 405.69505 320.795032 
L 407.70405 320.379233 
L 408.708551 320.483182 
L 409.713051 319.651583 
L 411.722052 319.131832 
L 412.726553 318.508132 
L 414.735554 318.196282 
L 415.740054 318.404182 
L 416.744554 317.884433 
L 417.749055 318.300232 
L 418.753555 319.027882 
L 419.758056 320.171333 
L 420.762556 321.106882 
L 421.767057 321.002932 
L 422.771557 321.730582 
L 423.776058 321.418732 
L 424.780558 321.834532 
L 425.785059 321.418732 
L 427.794059 320.067383 
L 429.80306 319.339732 
L 430.807561 318.716032 
L 431.812061 318.612082 
L 432.816562 319.443683 
L 433.821062 318.923932 
L 434.825563 319.443683 
L 435.830063 319.131832 
L 436.834563 319.755533 
L 437.839064 321.002932 
L 438.843564 321.938482 
L 439.848065 322.250333 
L 440.852565 321.626632 
L 441.857066 321.834532 
L 442.861566 322.354282 
L 443.866067 321.626632 
L 444.870567 321.730582 
L 445.875068 321.210832 
L 447.884068 319.547632 
L 448.888569 320.067383 
L 450.89757 319.547632 
L 451.90207 319.651583 
L 452.906571 320.171333 
L 453.911071 319.651583 
L 455.920072 321.522682 
L 456.924572 322.666133 
L 457.929073 323.081932 
L 459.938074 322.146382 
L 460.942574 322.458233 
L 461.947075 322.977982 
L 463.956076 321.938482 
L 464.960576 320.795032 
L 465.965077 320.898982 
L 466.969577 320.483182 
L 468.978578 320.587132 
L 469.983078 320.275283 
L 471.992079 320.691082 
L 472.99658 321.418732 
L 474.00108 323.289832 
L 475.005581 322.977982 
L 476.010081 322.874032 
L 478.019082 323.497732 
L 480.028083 322.250333 
L 481.032583 322.042432 
L 483.041584 320.898982 
L 484.046085 320.795032 
L 485.050585 320.171333 
L 486.055086 320.587132 
L 487.059586 320.171333 
L 488.064086 320.691082 
L 489.068587 321.002932 
L 490.073087 320.898982 
L 491.077588 320.275283 
L 492.082088 322.042432 
L 493.086589 322.874032 
L 496.10009 323.601682 
L 497.10459 323.497732 
L 498.109091 322.874032 
L 498.109091 322.874032 
" clip-path="url(#p461ad6b6ab)" style="fill: none; stroke: #0000ff; stroke-opacity: 0.5; stroke-width: 1.5; stroke-linecap: square"/>
   </g>
   <g id="line2d_41">
    <path d="M 92.290909 351.980032 
L 93.29541 360.607883 
L 94.29991 359.048632 
L 95.30441 359.776282 
L 96.308911 358.009133 
L 97.313411 358.424933 
L 98.317912 359.464432 
L 99.322412 359.360482 
L 100.326913 359.984182 
L 101.331413 358.944682 
L 102.335914 360.711833 
L 103.340414 360.503933 
L 104.344914 361.543432 
L 105.349415 361.647382 
L 106.353915 361.959232 
L 107.358416 361.751332 
L 108.362916 361.127633 
L 109.367417 361.543432 
L 111.376418 361.023683 
L 112.380918 359.568382 
L 113.385419 359.880232 
L 114.389919 361.127633 
L 115.394419 360.503933 
L 116.39892 360.711833 
L 118.407921 359.568382 
L 119.412421 359.880232 
L 121.421422 359.568382 
L 122.425923 357.905183 
L 123.430423 358.320983 
L 124.434923 357.593332 
L 125.439424 358.009133 
L 127.448425 358.217033 
L 129.457426 357.801233 
L 130.461926 358.424933 
L 131.466427 356.969632 
L 132.470927 356.345933 
L 133.475428 356.969632 
L 134.479928 356.865682 
L 136.488929 356.969632 
L 137.493429 356.449883 
L 138.49793 355.514333 
L 139.50243 354.994582 
L 140.506931 353.747183 
L 145.529433 352.291882 
L 146.533933 353.019532 
L 147.538434 353.331383 
L 149.547435 352.915582 
L 150.551935 352.291882 
L 152.560936 351.356333 
L 153.565437 350.420782 
L 154.569937 350.316832 
L 155.574437 349.901032 
L 156.578938 348.341783 
L 157.583438 346.990432 
L 159.592439 345.431182 
L 160.59694 344.703532 
L 161.60144 344.183783 
L 163.610441 344.183783 
L 164.614941 344.703532 
L 165.619442 345.743032 
L 166.623942 345.950933 
L 167.628443 345.950933 
L 168.632943 345.743032 
L 170.641944 345.846982 
L 171.646445 345.327232 
L 172.650945 345.535132 
L 173.655446 345.223282 
L 174.659946 344.391683 
L 175.664446 343.352183 
L 176.668947 343.144282 
L 178.677948 341.585033 
L 179.682448 341.688983 
L 180.686949 341.481083 
L 182.69595 341.481083 
L 184.70495 342.624532 
L 185.709451 342.936382 
L 186.713951 342.728482 
L 187.718452 342.936382 
L 188.722952 342.104782 
L 189.727453 342.104782 
L 190.731953 341.688983 
L 191.736454 340.441582 
L 192.740954 340.025782 
L 194.749955 338.466532 
L 195.754455 338.362582 
L 197.763456 337.219133 
L 198.767957 337.323082 
L 200.776958 336.907283 
L 201.781458 337.738882 
L 202.785959 338.986283 
L 203.790459 339.609983 
L 204.794959 339.194183 
L 206.80396 338.674432 
L 209.817462 337.427032 
L 211.826463 335.659882 
L 212.830963 334.932232 
L 213.835464 334.828283 
L 214.839964 333.892733 
L 215.844464 333.580882 
L 218.857966 333.476932 
L 219.862466 334.516433 
L 220.866967 335.140132 
L 221.871467 335.140132 
L 222.875968 335.348032 
L 224.884968 335.036182 
L 225.889469 334.724333 
L 228.90297 332.437432 
L 229.907471 332.021633 
L 230.911971 330.774232 
L 231.916472 330.878182 
L 233.925473 330.150532 
L 234.929973 329.942633 
L 235.934473 329.214983 
L 236.938974 329.838683 
L 237.943474 329.734733 
L 238.947975 330.358432 
L 239.952475 330.358432 
L 240.956976 330.774232 
L 242.965977 330.254482 
L 243.970477 329.214983 
L 244.974977 329.214983 
L 247.988479 327.135983 
L 248.992979 325.888582 
L 249.99748 325.368832 
L 251.00198 324.433283 
L 252.006481 324.433283 
L 253.010981 323.913532 
L 254.015482 323.913532 
L 255.019982 323.705632 
L 256.024482 323.809582 
L 257.028983 324.849083 
L 258.033483 325.368832 
L 260.042484 325.472782 
L 262.051485 324.745133 
L 263.055986 324.537232 
L 264.060486 323.497732 
L 265.064986 323.289832 
L 266.069487 321.938482 
L 267.073987 321.522682 
L 268.078488 320.795032 
L 269.082988 320.898982 
L 270.087489 320.691082 
L 271.091989 319.859483 
L 274.105491 320.171333 
L 275.109991 321.002932 
L 276.114491 321.210832 
L 277.118992 322.146382 
L 279.127993 322.458233 
L 280.132493 321.314782 
L 281.136994 321.002932 
L 283.145995 319.651583 
L 284.150495 319.443683 
L 285.154995 318.923932 
L 286.159496 317.988383 
L 287.163996 318.196282 
L 288.168497 317.988383 
L 289.172997 317.364683 
L 290.177498 317.780483 
L 291.181998 317.884433 
L 292.186499 318.404182 
L 293.190999 319.547632 
L 294.1955 320.379233 
L 295.2 320.483182 
L 296.2045 321.210832 
L 297.209001 321.002932 
L 298.213501 321.002932 
L 299.218002 320.067383 
L 300.222502 319.547632 
L 301.227003 318.508132 
L 302.231503 318.508132 
L 303.236004 317.572583 
L 304.240504 317.052833 
L 307.254005 317.260733 
L 309.263006 317.260733 
L 311.272007 318.612082 
L 312.276508 319.547632 
L 313.281008 319.443683 
L 314.285509 319.963433 
L 315.290009 319.755533 
L 316.294509 319.859483 
L 317.29901 319.755533 
L 318.30351 318.923932 
L 320.312511 317.884433 
L 321.317012 316.740982 
L 322.321512 316.429132 
L 326.339514 316.117282 
L 328.348515 316.844932 
L 329.353015 317.884433 
L 331.362016 318.612082 
L 332.366517 318.819982 
L 333.371017 318.819982 
L 334.375518 318.612082 
L 335.380018 317.676533 
L 336.384518 317.364683 
L 337.389019 316.533082 
L 339.39802 315.493583 
L 340.40252 315.493583 
L 341.407021 314.765932 
L 342.411521 315.389633 
L 344.420522 314.973832 
L 345.425023 315.285683 
L 347.434023 316.844932 
L 348.438524 317.468633 
L 349.443024 318.404182 
L 350.447525 318.404182 
L 351.452025 318.092332 
L 352.456526 318.404182 
L 353.461026 317.988383 
L 354.465527 318.196282 
L 355.470027 316.948882 
L 358.483528 316.533082 
L 360.492529 316.117282 
L 361.49703 316.117282 
L 362.50153 316.844932 
L 363.506031 318.092332 
L 364.510531 318.508132 
L 365.515032 318.404182 
L 366.519532 318.819982 
L 367.524032 318.300232 
L 368.528533 318.092332 
L 369.533033 318.196282 
L 370.537534 317.364683 
L 371.542034 316.844932 
L 372.546535 316.740982 
L 373.551035 316.117282 
L 374.555536 315.701482 
L 375.560036 315.597532 
L 376.564536 315.077783 
L 377.569037 315.285683 
L 378.573537 315.285683 
L 379.578038 315.701482 
L 380.582538 315.909382 
L 381.587039 317.884433 
L 382.591539 317.988383 
L 383.59604 318.612082 
L 385.605041 318.300232 
L 386.609541 318.716032 
L 387.614041 318.716032 
L 388.618542 317.780483 
L 389.623042 317.676533 
L 391.632043 316.533082 
L 392.636544 316.740982 
L 393.641044 316.221232 
L 395.650045 315.701482 
L 396.654545 315.701482 
L 398.663546 316.117282 
L 399.668047 316.740982 
L 400.672547 317.780483 
L 401.677048 318.612082 
L 402.681548 318.612082 
L 403.686049 318.923932 
L 405.69505 318.508132 
L 406.69955 318.508132 
L 407.70405 318.300232 
L 408.708551 318.300232 
L 409.713051 317.468633 
L 410.717552 317.260733 
L 411.722052 316.844932 
L 412.726553 316.844932 
L 413.731053 316.117282 
L 414.735554 315.805432 
L 415.740054 316.221232 
L 416.744554 315.805432 
L 417.749055 316.325182 
L 418.753555 317.572583 
L 419.758056 319.027882 
L 421.767057 319.131832 
L 422.771557 319.651583 
L 423.776058 319.235782 
L 424.780558 319.755533 
L 425.785059 319.131832 
L 426.789559 318.923932 
L 427.794059 317.988383 
L 429.80306 317.052833 
L 431.812061 317.052833 
L 432.816562 317.364683 
L 433.821062 316.948882 
L 434.825563 317.572583 
L 435.830063 317.884433 
L 436.834563 318.716032 
L 438.843564 319.859483 
L 440.852565 320.275283 
L 441.857066 319.859483 
L 443.866067 319.547632 
L 446.879568 318.819982 
L 447.884068 317.572583 
L 448.888569 318.196282 
L 449.893069 318.196282 
L 450.89757 317.988383 
L 451.90207 317.572583 
L 452.906571 318.612082 
L 453.911071 318.819982 
L 454.915572 320.067383 
L 455.920072 319.859483 
L 456.924572 320.691082 
L 457.929073 320.898982 
L 458.933573 320.171333 
L 460.942574 320.379233 
L 461.947075 320.898982 
L 462.951575 319.963433 
L 463.956076 319.651583 
L 464.960576 318.923932 
L 465.965077 318.612082 
L 466.969577 318.819982 
L 467.974077 318.508132 
L 468.978578 318.508132 
L 469.983078 318.300232 
L 470.987579 318.300232 
L 471.992079 319.339732 
L 472.99658 320.171333 
L 474.00108 321.418732 
L 475.005581 320.898982 
L 476.010081 321.106882 
L 477.014581 321.106882 
L 478.019082 321.522682 
L 479.023582 321.002932 
L 480.028083 320.275283 
L 481.032583 319.859483 
L 482.037084 319.027882 
L 483.041584 319.235782 
L 484.046085 318.923932 
L 485.050585 318.196282 
L 486.055086 317.988383 
L 487.059586 318.716032 
L 488.064086 318.404182 
L 489.068587 319.027882 
L 490.073087 319.027882 
L 492.082088 321.418732 
L 493.086589 321.938482 
L 494.091089 322.042432 
L 495.09559 321.106882 
L 496.10009 321.834532 
L 498.109091 321.002932 
L 498.109091 321.002932 
" clip-path="url(#p461ad6b6ab)" style="fill: none; stroke: #0000ff; stroke-opacity: 0.5; stroke-width: 1.5; stroke-linecap: square"/>
   </g>
   <g id="line2d_42">
    <path d="M 92.290909 347.302282 
L 93.29541 359.880232 
L 94.29991 358.424933 
L 95.30441 358.840733 
L 96.308911 357.697282 
L 97.313411 358.424933 
L 98.317912 358.632833 
L 100.326913 359.984182 
L 101.331413 359.048632 
L 102.335914 359.984182 
L 103.340414 359.568382 
L 105.349415 361.127633 
L 108.362916 361.231583 
L 109.367417 360.296033 
L 110.371917 361.231583 
L 111.376418 360.815783 
L 112.380918 360.088132 
L 113.385419 359.984182 
L 114.389919 360.607883 
L 115.394419 359.984182 
L 116.39892 360.503933 
L 117.40342 359.776282 
L 118.407921 359.984182 
L 119.412421 359.048632 
L 120.416922 359.256532 
L 121.421422 359.048632 
L 122.425923 357.385432 
L 123.430423 357.697282 
L 124.434923 357.593332 
L 125.439424 358.217033 
L 126.443924 357.697282 
L 127.448425 358.424933 
L 128.452925 357.281482 
L 129.457426 357.385432 
L 130.461926 357.697282 
L 131.466427 357.489382 
L 132.470927 355.826183 
L 133.475428 357.073582 
L 134.479928 356.241983 
L 135.484428 357.073582 
L 136.488929 356.865682 
L 137.493429 356.345933 
L 138.49793 355.410383 
L 141.511431 353.227433 
L 144.524932 352.291882 
L 145.529433 352.395832 
L 146.533933 353.019532 
L 147.538434 353.227433 
L 149.547435 352.603732 
L 152.560936 351.148433 
L 153.565437 350.316832 
L 155.574437 349.381282 
L 157.583438 346.574633 
L 159.592439 345.015382 
L 160.59694 344.287733 
L 161.60144 343.352183 
L 162.605941 343.248232 
L 163.610441 343.560083 
L 164.614941 344.183783 
L 165.619442 345.535132 
L 166.623942 345.743032 
L 170.641944 345.431182 
L 171.646445 345.015382 
L 172.650945 345.119332 
L 173.655446 344.807482 
L 174.659946 343.767983 
L 175.664446 342.936382 
L 179.682448 341.273183 
L 180.686949 341.065282 
L 182.69595 341.585033 
L 183.70045 342.000833 
L 184.70495 342.624532 
L 186.713951 342.520582 
L 187.718452 342.520582 
L 188.722952 342.000833 
L 189.727453 341.688983 
L 190.731953 341.169233 
L 191.736454 340.233682 
L 192.740954 339.921832 
L 194.749955 338.154682 
L 195.754455 338.362582 
L 197.763456 337.219133 
L 198.767957 337.323082 
L 199.772457 337.011233 
L 200.776958 337.219133 
L 201.781458 337.946782 
L 202.785959 339.194183 
L 203.790459 339.298133 
L 204.794959 338.674432 
L 207.808461 338.154682 
L 209.817462 337.219133 
L 210.821962 336.179633 
L 211.826463 335.659882 
L 212.830963 334.516433 
L 213.835464 334.724333 
L 214.839964 333.684832 
L 216.848965 333.476932 
L 217.853465 333.061132 
L 218.857966 333.580882 
L 219.862466 334.828283 
L 220.866967 335.348032 
L 221.871467 334.932232 
L 222.875968 335.036182 
L 224.884968 334.828283 
L 226.893969 333.892733 
L 227.89847 332.853232 
L 230.911971 331.293982 
L 231.916472 330.462382 
L 232.920972 330.358432 
L 233.925473 329.422883 
L 234.929973 329.942633 
L 235.934473 329.111032 
L 236.938974 329.838683 
L 238.947975 330.982132 
L 239.952475 330.358432 
L 240.956976 330.462382 
L 241.961476 329.838683 
L 242.965977 329.838683 
L 243.970477 328.591282 
L 244.974977 328.487332 
L 246.983978 327.343883 
L 247.988479 327.135983 
L 248.992979 325.992532 
L 249.99748 325.368832 
L 251.00198 324.537232 
L 252.006481 324.433283 
L 253.010981 323.705632 
L 255.019982 324.225382 
L 256.024482 324.433283 
L 257.028983 325.368832 
L 258.033483 325.472782 
L 259.037984 325.368832 
L 260.042484 324.849083 
L 261.046985 324.953033 
L 262.051485 324.433283 
L 263.055986 324.225382 
L 264.060486 323.081932 
L 265.064986 323.185882 
L 266.069487 321.522682 
L 267.073987 321.210832 
L 268.078488 320.587132 
L 269.082988 320.691082 
L 270.087489 320.379233 
L 271.091989 319.755533 
L 273.10099 320.067383 
L 274.105491 320.275283 
L 275.109991 321.210832 
L 276.114491 321.314782 
L 278.123492 322.146382 
L 279.127993 321.834532 
L 280.132493 321.106882 
L 281.136994 320.587132 
L 282.141494 319.651583 
L 284.150495 319.339732 
L 285.154995 318.612082 
L 286.159496 317.676533 
L 287.163996 317.988383 
L 288.168497 317.468633 
L 289.172997 317.364683 
L 291.181998 318.092332 
L 293.190999 319.547632 
L 294.1955 320.587132 
L 297.209001 320.795032 
L 298.213501 320.587132 
L 299.218002 319.651583 
L 300.222502 319.235782 
L 301.227003 318.508132 
L 302.231503 318.092332 
L 303.236004 317.468633 
L 305.245005 316.740982 
L 306.249505 317.260733 
L 309.263006 316.948882 
L 310.267507 317.988383 
L 311.272007 317.988383 
L 312.276508 319.027882 
L 313.281008 319.027882 
L 314.285509 319.755533 
L 315.290009 319.339732 
L 317.29901 319.339732 
L 318.30351 318.612082 
L 319.308011 318.300232 
L 321.317012 316.740982 
L 322.321512 316.637032 
L 324.330513 315.909382 
L 325.335014 316.221232 
L 326.339514 316.221232 
L 328.348515 317.156782 
L 329.353015 318.716032 
L 332.366517 318.612082 
L 333.371017 318.404182 
L 334.375518 318.612082 
L 335.380018 317.364683 
L 336.384518 317.364683 
L 337.389019 316.533082 
L 338.393519 316.013332 
L 340.40252 315.701482 
L 341.407021 314.558032 
L 342.411521 315.493583 
L 343.416022 315.077783 
L 344.420522 315.077783 
L 345.425023 315.597532 
L 346.429523 316.325182 
L 347.434023 316.740982 
L 348.438524 317.884433 
L 349.443024 318.300232 
L 350.447525 318.196282 
L 351.452025 317.676533 
L 352.456526 318.196282 
L 353.461026 317.676533 
L 354.465527 317.780483 
L 355.470027 317.052833 
L 356.474527 316.740982 
L 357.479028 316.637032 
L 358.483528 316.325182 
L 360.492529 316.221232 
L 361.49703 316.325182 
L 362.50153 317.572583 
L 363.506031 317.884433 
L 364.510531 318.404182 
L 365.515032 318.300232 
L 366.519532 318.612082 
L 368.528533 317.780483 
L 369.533033 317.676533 
L 370.537534 317.052833 
L 372.546535 316.740982 
L 373.551035 316.013332 
L 374.555536 315.805432 
L 376.564536 314.973832 
L 378.573537 315.285683 
L 380.582538 316.325182 
L 381.587039 317.988383 
L 382.591539 317.572583 
L 383.59604 318.404182 
L 385.605041 317.884433 
L 386.609541 318.612082 
L 387.614041 318.404182 
L 388.618542 316.844932 
L 389.623042 317.468633 
L 391.632043 316.325182 
L 392.636544 316.637032 
L 393.641044 315.597532 
L 394.645545 315.805432 
L 395.650045 315.701482 
L 396.654545 315.909382 
L 397.659046 315.805432 
L 398.663546 315.389633 
L 399.668047 317.156782 
L 400.672547 318.092332 
L 401.677048 318.196282 
L 403.686049 318.716032 
L 406.69955 318.092332 
L 407.70405 318.092332 
L 408.708551 318.300232 
L 409.713051 317.468633 
L 410.717552 317.260733 
L 411.722052 316.844932 
L 412.726553 316.844932 
L 413.731053 316.221232 
L 414.735554 315.805432 
L 415.740054 316.637032 
L 416.744554 316.221232 
L 417.749055 316.844932 
L 418.753555 317.260733 
L 419.758056 319.027882 
L 420.762556 318.923932 
L 421.767057 318.612082 
L 422.771557 319.131832 
L 423.776058 318.923932 
L 424.780558 319.547632 
L 425.785059 318.819982 
L 426.789559 318.923932 
L 428.79856 317.780483 
L 429.80306 317.260733 
L 431.812061 317.156782 
L 432.816562 317.572583 
L 433.821062 317.052833 
L 436.834563 318.819982 
L 438.843564 319.547632 
L 439.848065 319.651583 
L 440.852565 319.339732 
L 442.861566 319.651583 
L 445.875068 318.819982 
L 446.879568 318.716032 
L 447.884068 317.676533 
L 448.888569 318.092332 
L 449.893069 317.884433 
L 450.89757 317.988383 
L 451.90207 317.572583 
L 452.906571 318.612082 
L 453.911071 318.508132 
L 454.915572 319.963433 
L 455.920072 319.859483 
L 456.924572 320.691082 
L 458.933573 320.171333 
L 459.938074 319.651583 
L 460.942574 320.275283 
L 461.947075 320.691082 
L 462.951575 319.443683 
L 463.956076 319.547632 
L 464.960576 318.612082 
L 465.965077 318.092332 
L 466.969577 318.612082 
L 468.978578 318.092332 
L 469.983078 318.196282 
L 470.987579 318.612082 
L 471.992079 319.547632 
L 472.99658 320.275283 
L 474.00108 320.691082 
L 475.005581 320.795032 
L 476.010081 320.171333 
L 477.014581 320.795032 
L 478.019082 321.002932 
L 479.023582 320.691082 
L 480.028083 319.859483 
L 481.032583 319.443683 
L 482.037084 318.508132 
L 483.041584 319.235782 
L 484.046085 318.612082 
L 485.050585 318.300232 
L 487.059586 318.508132 
L 488.064086 318.196282 
L 489.068587 318.923932 
L 490.073087 319.131832 
L 491.077588 320.587132 
L 492.082088 321.418732 
L 493.086589 321.002932 
L 495.09559 321.730582 
L 496.10009 321.418732 
L 497.10459 320.587132 
L 498.109091 320.691082 
L 498.109091 320.691082 
" clip-path="url(#p461ad6b6ab)" style="fill: none; stroke: #0000ff; stroke-opacity: 0.5; stroke-width: 1.5; stroke-linecap: square"/>
   </g>
   <g id="line2d_43">
    <path d="M 92.290909 339.713932 
L 93.29541 357.801233 
L 94.29991 356.449883 
L 95.30441 358.944682 
L 96.308911 357.697282 
L 97.313411 359.672332 
L 98.317912 359.256532 
L 99.322412 359.152582 
L 100.326913 360.088132 
L 101.331413 359.256532 
L 102.335914 359.776282 
L 103.340414 359.568382 
L 104.344914 361.023683 
L 107.358416 361.335532 
L 108.362916 361.127633 
L 109.367417 360.088132 
L 110.371917 361.127633 
L 111.376418 360.919733 
L 113.385419 359.776282 
L 114.389919 360.711833 
L 115.394419 360.192083 
L 116.39892 360.503933 
L 117.40342 360.088132 
L 118.407921 359.256532 
L 120.416922 359.152582 
L 122.425923 357.905183 
L 123.430423 357.905183 
L 124.434923 357.281482 
L 125.439424 357.697282 
L 127.448425 357.593332 
L 128.452925 357.073582 
L 129.457426 357.905183 
L 130.461926 358.217033 
L 131.466427 356.657782 
L 132.470927 355.618283 
L 133.475428 356.969632 
L 136.488929 356.969632 
L 137.493429 356.449883 
L 140.506931 353.851133 
L 144.524932 352.291882 
L 147.538434 353.851133 
L 148.542934 353.227433 
L 149.547435 352.915582 
L 151.556436 351.668183 
L 152.560936 351.252383 
L 153.565437 350.316832 
L 154.569937 350.108932 
L 155.574437 349.485232 
L 156.578938 348.133882 
L 157.583438 346.574633 
L 158.587939 345.639082 
L 159.592439 345.015382 
L 160.59694 344.599582 
L 161.60144 343.871933 
L 162.605941 343.352183 
L 164.614941 344.911432 
L 165.619442 346.054883 
L 166.623942 345.535132 
L 168.632943 345.223282 
L 169.637444 345.431182 
L 170.641944 345.431182 
L 171.646445 344.911432 
L 172.650945 345.015382 
L 173.655446 344.911432 
L 175.664446 342.728482 
L 176.668947 342.312682 
L 177.673447 341.481083 
L 178.677948 341.273183 
L 179.682448 340.857382 
L 180.686949 340.649482 
L 181.691449 341.169233 
L 182.69595 342.000833 
L 184.70495 342.936382 
L 186.713951 342.312682 
L 187.718452 342.728482 
L 188.722952 342.104782 
L 189.727453 341.896883 
L 190.731953 340.961333 
L 191.736454 340.233682 
L 192.740954 339.713932 
L 194.749955 338.362582 
L 197.763456 337.323082 
L 199.772457 337.323082 
L 200.776958 337.738882 
L 202.785959 339.713932 
L 203.790459 339.090233 
L 204.794959 338.986283 
L 206.80396 338.050732 
L 207.808461 338.362582 
L 208.812961 338.050732 
L 209.817462 337.323082 
L 210.821962 336.283583 
L 211.826463 335.659882 
L 212.830963 334.724333 
L 213.835464 334.620383 
L 214.839964 333.580882 
L 216.848965 333.476932 
L 217.853465 333.165082 
L 218.857966 334.412483 
L 219.862466 336.075682 
L 220.866967 335.867782 
L 221.871467 335.140132 
L 222.875968 335.244082 
L 224.884968 335.036182 
L 226.893969 333.684832 
L 227.89847 332.853232 
L 229.907471 331.917683 
L 231.916472 330.150532 
L 232.920972 329.942633 
L 234.929973 329.942633 
L 235.934473 329.111032 
L 236.938974 330.254482 
L 237.943474 330.878182 
L 238.947975 332.229533 
L 239.952475 331.397933 
L 240.956976 331.293982 
L 241.961476 330.566332 
L 242.965977 330.462382 
L 243.970477 330.150532 
L 245.979478 328.487332 
L 246.983978 327.863632 
L 247.988479 327.655732 
L 248.992979 325.992532 
L 249.99748 325.784632 
L 252.006481 324.641183 
L 253.010981 324.329332 
L 254.015482 324.433283 
L 255.019982 325.368832 
L 257.028983 326.720182 
L 260.042484 325.680682 
L 261.046985 325.056983 
L 262.051485 325.576732 
L 263.055986 324.953033 
L 264.060486 323.185882 
L 265.064986 323.393782 
L 266.069487 321.938482 
L 267.073987 321.626632 
L 268.078488 320.691082 
L 270.087489 321.002932 
L 271.091989 319.755533 
L 272.09649 320.379233 
L 274.105491 320.795032 
L 275.109991 322.354282 
L 276.114491 322.354282 
L 278.123492 322.874032 
L 279.127993 322.354282 
L 280.132493 322.146382 
L 282.141494 320.171333 
L 283.145995 320.171333 
L 286.159496 318.092332 
L 287.163996 317.988383 
L 288.168497 317.468633 
L 290.177498 318.092332 
L 291.181998 318.716032 
L 292.186499 319.547632 
L 293.190999 320.691082 
L 294.1955 321.314782 
L 295.2 320.795032 
L 296.2045 321.106882 
L 297.209001 321.106882 
L 298.213501 320.795032 
L 299.218002 319.443683 
L 300.222502 319.443683 
L 301.227003 318.716032 
L 302.231503 317.780483 
L 303.236004 317.364683 
L 304.240504 316.637032 
L 305.245005 316.221232 
L 306.249505 317.156782 
L 307.254005 317.260733 
L 308.258506 317.052833 
L 309.263006 317.156782 
L 312.276508 320.171333 
L 315.290009 320.275283 
L 316.294509 319.859483 
L 317.29901 319.755533 
L 318.30351 318.923932 
L 319.308011 318.508132 
L 320.312511 317.780483 
L 321.317012 316.844932 
L 323.326013 316.221232 
L 324.330513 315.597532 
L 325.335014 316.325182 
L 326.339514 316.533082 
L 327.344014 317.260733 
L 328.348515 318.404182 
L 329.353015 319.859483 
L 330.357516 319.235782 
L 331.362016 319.547632 
L 332.366517 319.131832 
L 334.375518 319.027882 
L 335.380018 318.196282 
L 336.384518 317.884433 
L 337.389019 316.740982 
L 338.393519 316.637032 
L 340.40252 315.909382 
L 341.407021 314.869883 
L 342.411521 315.805432 
L 343.416022 315.389633 
L 344.420522 315.285683 
L 345.425023 316.221232 
L 346.429523 316.948882 
L 347.434023 318.092332 
L 349.443024 318.819982 
L 350.447525 318.819982 
L 351.452025 318.508132 
L 354.465527 318.404182 
L 355.470027 317.780483 
L 357.479028 317.052833 
L 359.488029 316.533082 
L 360.492529 316.637032 
L 361.49703 317.364683 
L 362.50153 318.404182 
L 364.510531 319.131832 
L 365.515032 318.819982 
L 366.519532 319.235782 
L 367.524032 318.300232 
L 368.528533 318.508132 
L 369.533033 318.404182 
L 370.537534 317.364683 
L 371.542034 316.948882 
L 372.546535 316.844932 
L 373.551035 316.221232 
L 375.560036 315.701482 
L 376.564536 315.285683 
L 377.569037 315.181733 
L 378.573537 315.805432 
L 379.578038 316.117282 
L 380.582538 317.260733 
L 381.587039 318.612082 
L 382.591539 318.300232 
L 383.59604 318.716032 
L 384.60054 319.443683 
L 385.605041 318.404182 
L 386.609541 318.819982 
L 387.614041 318.819982 
L 388.618542 317.468633 
L 389.623042 317.780483 
L 390.627543 317.260733 
L 391.632043 317.156782 
L 392.636544 316.740982 
L 393.641044 315.909382 
L 394.645545 315.805432 
L 395.650045 315.909382 
L 396.654545 316.221232 
L 397.659046 316.221232 
L 398.663546 316.533082 
L 399.668047 318.300232 
L 400.672547 318.819982 
L 401.677048 318.716032 
L 402.681548 319.443683 
L 403.686049 319.547632 
L 404.690549 319.235782 
L 405.69505 319.443683 
L 406.69955 318.923932 
L 407.70405 318.923932 
L 408.708551 318.612082 
L 409.713051 317.884433 
L 410.717552 317.780483 
L 414.735554 315.597532 
L 415.740054 316.740982 
L 416.744554 316.637032 
L 417.749055 317.988383 
L 418.753555 319.027882 
L 419.758056 319.755533 
L 420.762556 319.547632 
L 421.767057 319.131832 
L 422.771557 319.859483 
L 424.780558 320.067383 
L 425.785059 319.235782 
L 426.789559 319.339732 
L 427.794059 319.131832 
L 428.79856 318.612082 
L 429.80306 317.260733 
L 431.812061 317.572583 
L 432.816562 318.196282 
L 433.821062 318.092332 
L 434.825563 318.716032 
L 435.830063 318.923932 
L 436.834563 319.755533 
L 437.839064 320.379233 
L 438.843564 320.587132 
L 439.848065 320.587132 
L 440.852565 319.859483 
L 443.866067 320.483182 
L 444.870567 319.963433 
L 445.875068 319.651583 
L 447.884068 318.092332 
L 448.888569 317.884433 
L 449.893069 318.300232 
L 450.89757 318.508132 
L 451.90207 318.196282 
L 452.906571 319.755533 
L 453.911071 319.443683 
L 454.915572 320.587132 
L 455.920072 320.795032 
L 456.924572 321.626632 
L 457.929073 321.314782 
L 458.933573 321.834532 
L 459.938074 321.106882 
L 460.942574 320.795032 
L 461.947075 321.522682 
L 462.951575 320.587132 
L 463.956076 320.275283 
L 464.960576 319.027882 
L 466.969577 318.716032 
L 468.978578 318.923932 
L 469.983078 318.300232 
L 470.987579 319.339732 
L 471.992079 320.691082 
L 472.99658 321.626632 
L 474.00108 322.042432 
L 475.005581 321.522682 
L 477.014581 321.938482 
L 479.023582 321.834532 
L 480.028083 321.210832 
L 481.032583 320.379233 
L 482.037084 320.379233 
L 483.041584 319.651583 
L 484.046085 319.755533 
L 485.050585 319.235782 
L 486.055086 318.923932 
L 487.059586 319.235782 
L 488.064086 319.131832 
L 490.073087 321.002932 
L 491.077588 322.250333 
L 492.082088 322.458233 
L 494.091089 322.354282 
L 496.10009 323.081932 
L 497.10459 321.834532 
L 498.109091 322.562183 
L 498.109091 322.562183 
" clip-path="url(#p461ad6b6ab)" style="fill: none; stroke: #0000ff; stroke-opacity: 0.5; stroke-width: 1.5; stroke-linecap: square"/>
   </g>
   <g id="LineCollection_1">
    <path d="M 92.290909 353.057267 
L 92.290909 343.745098 
" clip-path="url(#p461ad6b6ab)" style="fill: none; stroke: #ff0000; stroke-width: 1.5"/>
    <path d="M 132.470927 357.595495 
L 132.470927 355.92797 
" clip-path="url(#p461ad6b6ab)" style="fill: none; stroke: #ff0000; stroke-width: 1.5"/>
    <path d="M 172.650945 346.330916 
L 172.650945 343.224649 
" clip-path="url(#p461ad6b6ab)" style="fill: none; stroke: #ff0000; stroke-width: 1.5"/>
    <path d="M 212.830963 336.219524 
L 212.830963 331.506541 
" clip-path="url(#p461ad6b6ab)" style="fill: none; stroke: #ff0000; stroke-width: 1.5"/>
    <path d="M 253.010981 325.97375 
L 253.010981 318.556615 
" clip-path="url(#p461ad6b6ab)" style="fill: none; stroke: #ff0000; stroke-width: 1.5"/>
    <path d="M 293.190999 321.711168 
L 293.190999 311.295597 
" clip-path="url(#p461ad6b6ab)" style="fill: none; stroke: #ff0000; stroke-width: 1.5"/>
    <path d="M 333.371017 321.185373 
L 333.371017 307.574292 
" clip-path="url(#p461ad6b6ab)" style="fill: none; stroke: #ff0000; stroke-width: 1.5"/>
    <path d="M 373.551035 319.342664 
L 373.551035 305.823301 
" clip-path="url(#p461ad6b6ab)" style="fill: none; stroke: #ff0000; stroke-width: 1.5"/>
    <path d="M 413.731053 320.112199 
L 413.731053 306.033866 
" clip-path="url(#p461ad6b6ab)" style="fill: none; stroke: #ff0000; stroke-width: 1.5"/>
    <path d="M 453.911071 323.160079 
L 453.911071 307.025186 
" clip-path="url(#p461ad6b6ab)" style="fill: none; stroke: #ff0000; stroke-width: 1.5"/>
    <path d="M 494.091089 326.564505 
L 494.091089 308.37276 
" clip-path="url(#p461ad6b6ab)" style="fill: none; stroke: #ff0000; stroke-width: 1.5"/>
   </g>
   <g id="line2d_44">
    <defs>
     <path id="m1e0a1b45f0" d="M 5 0 
L -5 -0 
" style="stroke: #ff0000"/>
    </defs>
    <g clip-path="url(#p461ad6b6ab)">
     <use xlink:href="#m1e0a1b45f0" x="92.290909" y="353.057267" style="fill: #ff0000; stroke: #ff0000"/>
     <use xlink:href="#m1e0a1b45f0" x="132.470927" y="357.595495" style="fill: #ff0000; stroke: #ff0000"/>
     <use xlink:href="#m1e0a1b45f0" x="172.650945" y="346.330916" style="fill: #ff0000; stroke: #ff0000"/>
     <use xlink:href="#m1e0a1b45f0" x="212.830963" y="336.219524" style="fill: #ff0000; stroke: #ff0000"/>
     <use xlink:href="#m1e0a1b45f0" x="253.010981" y="325.97375" style="fill: #ff0000; stroke: #ff0000"/>
     <use xlink:href="#m1e0a1b45f0" x="293.190999" y="321.711168" style="fill: #ff0000; stroke: #ff0000"/>
     <use xlink:href="#m1e0a1b45f0" x="333.371017" y="321.185373" style="fill: #ff0000; stroke: #ff0000"/>
     <use xlink:href="#m1e0a1b45f0" x="373.551035" y="319.342664" style="fill: #ff0000; stroke: #ff0000"/>
     <use xlink:href="#m1e0a1b45f0" x="413.731053" y="320.112199" style="fill: #ff0000; stroke: #ff0000"/>
     <use xlink:href="#m1e0a1b45f0" x="453.911071" y="323.160079" style="fill: #ff0000; stroke: #ff0000"/>
     <use xlink:href="#m1e0a1b45f0" x="494.091089" y="326.564505" style="fill: #ff0000; stroke: #ff0000"/>
    </g>
   </g>
   <g id="line2d_45">
    <g clip-path="url(#p461ad6b6ab)">
     <use xlink:href="#m1e0a1b45f0" x="92.290909" y="343.745098" style="fill: #ff0000; stroke: #ff0000"/>
     <use xlink:href="#m1e0a1b45f0" x="132.470927" y="355.92797" style="fill: #ff0000; stroke: #ff0000"/>
     <use xlink:href="#m1e0a1b45f0" x="172.650945" y="343.224649" style="fill: #ff0000; stroke: #ff0000"/>
     <use xlink:href="#m1e0a1b45f0" x="212.830963" y="331.506541" style="fill: #ff0000; stroke: #ff0000"/>
     <use xlink:href="#m1e0a1b45f0" x="253.010981" y="318.556615" style="fill: #ff0000; stroke: #ff0000"/>
     <use xlink:href="#m1e0a1b45f0" x="293.190999" y="311.295597" style="fill: #ff0000; stroke: #ff0000"/>
     <use xlink:href="#m1e0a1b45f0" x="333.371017" y="307.574292" style="fill: #ff0000; stroke: #ff0000"/>
     <use xlink:href="#m1e0a1b45f0" x="373.551035" y="305.823301" style="fill: #ff0000; stroke: #ff0000"/>
     <use xlink:href="#m1e0a1b45f0" x="413.731053" y="306.033866" style="fill: #ff0000; stroke: #ff0000"/>
     <use xlink:href="#m1e0a1b45f0" x="453.911071" y="307.025186" style="fill: #ff0000; stroke: #ff0000"/>
     <use xlink:href="#m1e0a1b45f0" x="494.091089" y="308.37276" style="fill: #ff0000; stroke: #ff0000"/>
    </g>
   </g>
   <g id="line2d_46">
    <path d="M 92.290909 348.401183 
L 132.470927 356.761732 
L 172.650945 344.777783 
L 212.830963 333.863032 
L 253.010981 322.265182 
L 293.190999 316.503382 
L 333.371017 314.379833 
L 373.551035 312.582982 
L 413.731053 313.073033 
L 453.911071 315.092632 
L 494.091089 317.468633 
" clip-path="url(#p461ad6b6ab)" style="fill: none; stroke: #ff0000; stroke-width: 1.5; stroke-linecap: square"/>
   </g>
   <g id="patch_3">
    <path d="M 72 384.48 
L 72 51.84 
" style="fill: none; stroke: #000000; stroke-width: 0.8; stroke-linejoin: miter; stroke-linecap: square"/>
   </g>
   <g id="patch_4">
    <path d="M 518.4 384.48 
L 518.4 51.84 
" style="fill: none; stroke: #000000; stroke-width: 0.8; stroke-linejoin: miter; stroke-linecap: square"/>
   </g>
   <g id="patch_5">
    <path d="M 72 384.48 
L 518.4 384.48 
" style="fill: none; stroke: #000000; stroke-width: 0.8; stroke-linejoin: miter; stroke-linecap: square"/>
   </g>
   <g id="patch_6">
    <path d="M 72 51.84 
L 518.4 51.84 
" style="fill: none; stroke: #000000; stroke-width: 0.8; stroke-linejoin: miter; stroke-linecap: square"/>
   </g>
   <g id="text_21">
    <!-- M15: No AA -->
    <g transform="translate(265.882812 45.84) scale(0.1 -0.1)">
     <defs>
      <path id="DejaVuSans-4d" d="M 628 4666 
L 1569 4666 
L 2759 1491 
L 3956 4666 
L 4897 4666 
L 4897 0 
L 4281 0 
L 4281 4097 
L 3078 897 
L 2444 897 
L 1241 4097 
L 1241 0 
L 628 0 
L 628 4666 
z
" transform="scale(0.015625)"/>
      <path id="DejaVuSans-3a" d="M 750 794 
L 1409 794 
L 1409 0 
L 750 0 
L 750 794 
z
M 750 3309 
L 1409 3309 
L 1409 2516 
L 750 2516 
L 750 3309 
z
" transform="scale(0.015625)"/>
      <path id="DejaVuSans-4e" d="M 628 4666 
L 1478 4666 
L 3547 763 
L 3547 4666 
L 4159 4666 
L 4159 0 
L 3309 0 
L 1241 3903 
L 1241 0 
L 628 0 
L 628 4666 
z
" transform="scale(0.015625)"/>
      <path id="DejaVuSans-41" d="M 2188 4044 
L 1331 1722 
L 3047 1722 
L 2188 4044 
z
M 1831 4666 
L 2547 4666 
L 4325 0 
L 3669 0 
L 3244 1197 
L 1141 1197 
L 716 0 
L 50 0 
L 1831 4666 
z
" transform="scale(0.015625)"/>
     </defs>
     <use xlink:href="#DejaVuSans-4d"/>
     <use xlink:href="#DejaVuSans-31" x="86.279297"/>
     <use xlink:href="#DejaVuSans-35" x="149.902344"/>
     <use xlink:href="#DejaVuSans-3a" x="213.525391"/>
     <use xlink:href="#DejaVuSans-20" x="247.216797"/>
     <use xlink:href="#DejaVuSans-4e" x="279.003906"/>
     <use xlink:href="#DejaVuSans-6f" x="353.808594"/>
     <use xlink:href="#DejaVuSans-20" x="414.990234"/>
     <use xlink:href="#DejaVuSans-41" x="446.777344"/>
     <use xlink:href="#DejaVuSans-41" x="517.935547"/>
    </g>
   </g>
  </g>
 </g>
 <defs>
  <clipPath id="p461ad6b6ab">
   <rect x="72" y="51.84" width="446.4" height="332.64"/>
  </clipPath>
 </defs>
</svg>
