<?xml version="1.0" encoding="utf-8" standalone="no"?>
<!DOCTYPE svg PUBLIC "-//W3C//DTD SVG 1.1//EN"
  "http://www.w3.org/Graphics/SVG/1.1/DTD/svg11.dtd">
<svg xmlns:xlink="http://www.w3.org/1999/xlink" width="576pt" height="432pt" viewBox="0 0 576 432" xmlns="http://www.w3.org/2000/svg" version="1.1">
 <metadata>
  <rdf:RDF xmlns:dc="http://purl.org/dc/elements/1.1/" xmlns:cc="http://creativecommons.org/ns#" xmlns:rdf="http://www.w3.org/1999/02/22-rdf-syntax-ns#">
   <cc:Work>
    <dc:type rdf:resource="http://purl.org/dc/dcmitype/StillImage"/>
    <dc:date>2024-11-12T14:09:09.101288</dc:date>
    <dc:format>image/svg+xml</dc:format>
    <dc:creator>
     <cc:Agent>
      <dc:title>Matplotlib v3.7.5, https://matplotlib.org/</dc:title>
     </cc:Agent>
    </dc:creator>
   </cc:Work>
  </rdf:RDF>
 </metadata>
 <defs>
  <style type="text/css">*{stroke-linejoin: round; stroke-linecap: butt}</style>
 </defs>
 <g id="figure_1">
  <g id="patch_1">
   <path d="M 0 432 
L 576 432 
L 576 0 
L 0 0 
z
" style="fill: #ffffff"/>
  </g>
  <g id="axes_1">
   <g id="patch_2">
    <path d="M 72 384.48 
L 518.4 384.48 
L 518.4 51.84 
L 72 51.84 
z
" style="fill: #ffffff"/>
   </g>
   <g id="matplotlib.axis_1">
    <g id="xtick_1">
     <g id="line2d_1">
      <path d="M 92.290909 384.48 
L 92.290909 51.84 
" clip-path="url(#p7d7f4def1a)" style="fill: none; stroke: #b0b0b0; stroke-width: 0.8; stroke-linecap: square"/>
     </g>
     <g id="line2d_2">
      <defs>
       <path id="mcaedf5429e" d="M 0 0 
L 0 3.5 
" style="stroke: #000000; stroke-width: 0.8"/>
      </defs>
      <g>
       <use xlink:href="#mcaedf5429e" x="92.290909" y="384.48" style="stroke: #000000; stroke-width: 0.8"/>
      </g>
     </g>
     <g id="text_1">
      <!-- 0.17 -->
      <g transform="translate(81.158097 399.078438) scale(0.1 -0.1)">
       <defs>
        <path id="DejaVuSans-30" d="M 2034 4250 
Q 1547 4250 1301 3770 
Q 1056 3291 1056 2328 
Q 1056 1369 1301 889 
Q 1547 409 2034 409 
Q 2525 409 2770 889 
Q 3016 1369 3016 2328 
Q 3016 3291 2770 3770 
Q 2525 4250 2034 4250 
z
M 2034 4750 
Q 2819 4750 3233 4129 
Q 3647 3509 3647 2328 
Q 3647 1150 3233 529 
Q 2819 -91 2034 -91 
Q 1250 -91 836 529 
Q 422 1150 422 2328 
Q 422 3509 836 4129 
Q 1250 4750 2034 4750 
z
" transform="scale(0.015625)"/>
        <path id="DejaVuSans-2e" d="M 684 794 
L 1344 794 
L 1344 0 
L 684 0 
L 684 794 
z
" transform="scale(0.015625)"/>
        <path id="DejaVuSans-31" d="M 794 531 
L 1825 531 
L 1825 4091 
L 703 3866 
L 703 4441 
L 1819 4666 
L 2450 4666 
L 2450 531 
L 3481 531 
L 3481 0 
L 794 0 
L 794 531 
z
" transform="scale(0.015625)"/>
        <path id="DejaVuSans-37" d="M 525 4666 
L 3525 4666 
L 3525 4397 
L 1831 0 
L 1172 0 
L 2766 4134 
L 525 4134 
L 525 4666 
z
" transform="scale(0.015625)"/>
       </defs>
       <use xlink:href="#DejaVuSans-30"/>
       <use xlink:href="#DejaVuSans-2e" x="63.623047"/>
       <use xlink:href="#DejaVuSans-31" x="95.410156"/>
       <use xlink:href="#DejaVuSans-37" x="159.033203"/>
      </g>
     </g>
    </g>
    <g id="xtick_2">
     <g id="line2d_3">
      <path d="M 132.470927 384.48 
L 132.470927 51.84 
" clip-path="url(#p7d7f4def1a)" style="fill: none; stroke: #b0b0b0; stroke-width: 0.8; stroke-linecap: square"/>
     </g>
     <g id="line2d_4">
      <g>
       <use xlink:href="#mcaedf5429e" x="132.470927" y="384.48" style="stroke: #000000; stroke-width: 0.8"/>
      </g>
     </g>
     <g id="text_2">
      <!-- 6.83 -->
      <g transform="translate(121.338115 399.078438) scale(0.1 -0.1)">
       <defs>
        <path id="DejaVuSans-36" d="M 2113 2584 
Q 1688 2584 1439 2293 
Q 1191 2003 1191 1497 
Q 1191 994 1439 701 
Q 1688 409 2113 409 
Q 2538 409 2786 701 
Q 3034 994 3034 1497 
Q 3034 2003 2786 2293 
Q 2538 2584 2113 2584 
z
M 3366 4563 
L 3366 3988 
Q 3128 4100 2886 4159 
Q 2644 4219 2406 4219 
Q 1781 4219 1451 3797 
Q 1122 3375 1075 2522 
Q 1259 2794 1537 2939 
Q 1816 3084 2150 3084 
Q 2853 3084 3261 2657 
Q 3669 2231 3669 1497 
Q 3669 778 3244 343 
Q 2819 -91 2113 -91 
Q 1303 -91 875 529 
Q 447 1150 447 2328 
Q 447 3434 972 4092 
Q 1497 4750 2381 4750 
Q 2619 4750 2861 4703 
Q 3103 4656 3366 4563 
z
" transform="scale(0.015625)"/>
        <path id="DejaVuSans-38" d="M 2034 2216 
Q 1584 2216 1326 1975 
Q 1069 1734 1069 1313 
Q 1069 891 1326 650 
Q 1584 409 2034 409 
Q 2484 409 2743 651 
Q 3003 894 3003 1313 
Q 3003 1734 2745 1975 
Q 2488 2216 2034 2216 
z
M 1403 2484 
Q 997 2584 770 2862 
Q 544 3141 544 3541 
Q 544 4100 942 4425 
Q 1341 4750 2034 4750 
Q 2731 4750 3128 4425 
Q 3525 4100 3525 3541 
Q 3525 3141 3298 2862 
Q 3072 2584 2669 2484 
Q 3125 2378 3379 2068 
Q 3634 1759 3634 1313 
Q 3634 634 3220 271 
Q 2806 -91 2034 -91 
Q 1263 -91 848 271 
Q 434 634 434 1313 
Q 434 1759 690 2068 
Q 947 2378 1403 2484 
z
M 1172 3481 
Q 1172 3119 1398 2916 
Q 1625 2713 2034 2713 
Q 2441 2713 2670 2916 
Q 2900 3119 2900 3481 
Q 2900 3844 2670 4047 
Q 2441 4250 2034 4250 
Q 1625 4250 1398 4047 
Q 1172 3844 1172 3481 
z
" transform="scale(0.015625)"/>
        <path id="DejaVuSans-33" d="M 2597 2516 
Q 3050 2419 3304 2112 
Q 3559 1806 3559 1356 
Q 3559 666 3084 287 
Q 2609 -91 1734 -91 
Q 1441 -91 1130 -33 
Q 819 25 488 141 
L 488 750 
Q 750 597 1062 519 
Q 1375 441 1716 441 
Q 2309 441 2620 675 
Q 2931 909 2931 1356 
Q 2931 1769 2642 2001 
Q 2353 2234 1838 2234 
L 1294 2234 
L 1294 2753 
L 1863 2753 
Q 2328 2753 2575 2939 
Q 2822 3125 2822 3475 
Q 2822 3834 2567 4026 
Q 2313 4219 1838 4219 
Q 1578 4219 1281 4162 
Q 984 4106 628 3988 
L 628 4550 
Q 988 4650 1302 4700 
Q 1616 4750 1894 4750 
Q 2613 4750 3031 4423 
Q 3450 4097 3450 3541 
Q 3450 3153 3228 2886 
Q 3006 2619 2597 2516 
z
" transform="scale(0.015625)"/>
       </defs>
       <use xlink:href="#DejaVuSans-36"/>
       <use xlink:href="#DejaVuSans-2e" x="63.623047"/>
       <use xlink:href="#DejaVuSans-38" x="95.410156"/>
       <use xlink:href="#DejaVuSans-33" x="159.033203"/>
      </g>
     </g>
    </g>
    <g id="xtick_3">
     <g id="line2d_5">
      <path d="M 172.650945 384.48 
L 172.650945 51.84 
" clip-path="url(#p7d7f4def1a)" style="fill: none; stroke: #b0b0b0; stroke-width: 0.8; stroke-linecap: square"/>
     </g>
     <g id="line2d_6">
      <g>
       <use xlink:href="#mcaedf5429e" x="172.650945" y="384.48" style="stroke: #000000; stroke-width: 0.8"/>
      </g>
     </g>
     <g id="text_3">
      <!-- 13.5 -->
      <g transform="translate(161.518133 399.078438) scale(0.1 -0.1)">
       <defs>
        <path id="DejaVuSans-35" d="M 691 4666 
L 3169 4666 
L 3169 4134 
L 1269 4134 
L 1269 2991 
Q 1406 3038 1543 3061 
Q 1681 3084 1819 3084 
Q 2600 3084 3056 2656 
Q 3513 2228 3513 1497 
Q 3513 744 3044 326 
Q 2575 -91 1722 -91 
Q 1428 -91 1123 -41 
Q 819 9 494 109 
L 494 744 
Q 775 591 1075 516 
Q 1375 441 1709 441 
Q 2250 441 2565 725 
Q 2881 1009 2881 1497 
Q 2881 1984 2565 2268 
Q 2250 2553 1709 2553 
Q 1456 2553 1204 2497 
Q 953 2441 691 2322 
L 691 4666 
z
" transform="scale(0.015625)"/>
       </defs>
       <use xlink:href="#DejaVuSans-31"/>
       <use xlink:href="#DejaVuSans-33" x="63.623047"/>
       <use xlink:href="#DejaVuSans-2e" x="127.246094"/>
       <use xlink:href="#DejaVuSans-35" x="159.033203"/>
      </g>
     </g>
    </g>
    <g id="xtick_4">
     <g id="line2d_7">
      <path d="M 212.830963 384.48 
L 212.830963 51.84 
" clip-path="url(#p7d7f4def1a)" style="fill: none; stroke: #b0b0b0; stroke-width: 0.8; stroke-linecap: square"/>
     </g>
     <g id="line2d_8">
      <g>
       <use xlink:href="#mcaedf5429e" x="212.830963" y="384.48" style="stroke: #000000; stroke-width: 0.8"/>
      </g>
     </g>
     <g id="text_4">
      <!-- 20.17 -->
      <g transform="translate(198.516901 399.078438) scale(0.1 -0.1)">
       <defs>
        <path id="DejaVuSans-32" d="M 1228 531 
L 3431 531 
L 3431 0 
L 469 0 
L 469 531 
Q 828 903 1448 1529 
Q 2069 2156 2228 2338 
Q 2531 2678 2651 2914 
Q 2772 3150 2772 3378 
Q 2772 3750 2511 3984 
Q 2250 4219 1831 4219 
Q 1534 4219 1204 4116 
Q 875 4013 500 3803 
L 500 4441 
Q 881 4594 1212 4672 
Q 1544 4750 1819 4750 
Q 2544 4750 2975 4387 
Q 3406 4025 3406 3419 
Q 3406 3131 3298 2873 
Q 3191 2616 2906 2266 
Q 2828 2175 2409 1742 
Q 1991 1309 1228 531 
z
" transform="scale(0.015625)"/>
       </defs>
       <use xlink:href="#DejaVuSans-32"/>
       <use xlink:href="#DejaVuSans-30" x="63.623047"/>
       <use xlink:href="#DejaVuSans-2e" x="127.246094"/>
       <use xlink:href="#DejaVuSans-31" x="159.033203"/>
       <use xlink:href="#DejaVuSans-37" x="222.65625"/>
      </g>
     </g>
    </g>
    <g id="xtick_5">
     <g id="line2d_9">
      <path d="M 253.010981 384.48 
L 253.010981 51.84 
" clip-path="url(#p7d7f4def1a)" style="fill: none; stroke: #b0b0b0; stroke-width: 0.8; stroke-linecap: square"/>
     </g>
     <g id="line2d_10">
      <g>
       <use xlink:href="#mcaedf5429e" x="253.010981" y="384.48" style="stroke: #000000; stroke-width: 0.8"/>
      </g>
     </g>
     <g id="text_5">
      <!-- 26.83 -->
      <g transform="translate(238.696919 399.078438) scale(0.1 -0.1)">
       <use xlink:href="#DejaVuSans-32"/>
       <use xlink:href="#DejaVuSans-36" x="63.623047"/>
       <use xlink:href="#DejaVuSans-2e" x="127.246094"/>
       <use xlink:href="#DejaVuSans-38" x="159.033203"/>
       <use xlink:href="#DejaVuSans-33" x="222.65625"/>
      </g>
     </g>
    </g>
    <g id="xtick_6">
     <g id="line2d_11">
      <path d="M 293.190999 384.48 
L 293.190999 51.84 
" clip-path="url(#p7d7f4def1a)" style="fill: none; stroke: #b0b0b0; stroke-width: 0.8; stroke-linecap: square"/>
     </g>
     <g id="line2d_12">
      <g>
       <use xlink:href="#mcaedf5429e" x="293.190999" y="384.48" style="stroke: #000000; stroke-width: 0.8"/>
      </g>
     </g>
     <g id="text_6">
      <!-- 33.5 -->
      <g transform="translate(282.058187 399.078438) scale(0.1 -0.1)">
       <use xlink:href="#DejaVuSans-33"/>
       <use xlink:href="#DejaVuSans-33" x="63.623047"/>
       <use xlink:href="#DejaVuSans-2e" x="127.246094"/>
       <use xlink:href="#DejaVuSans-35" x="159.033203"/>
      </g>
     </g>
    </g>
    <g id="xtick_7">
     <g id="line2d_13">
      <path d="M 333.371017 384.48 
L 333.371017 51.84 
" clip-path="url(#p7d7f4def1a)" style="fill: none; stroke: #b0b0b0; stroke-width: 0.8; stroke-linecap: square"/>
     </g>
     <g id="line2d_14">
      <g>
       <use xlink:href="#mcaedf5429e" x="333.371017" y="384.48" style="stroke: #000000; stroke-width: 0.8"/>
      </g>
     </g>
     <g id="text_7">
      <!-- 40.17 -->
      <g transform="translate(319.056955 399.078438) scale(0.1 -0.1)">
       <defs>
        <path id="DejaVuSans-34" d="M 2419 4116 
L 825 1625 
L 2419 1625 
L 2419 4116 
z
M 2253 4666 
L 3047 4666 
L 3047 1625 
L 3713 1625 
L 3713 1100 
L 3047 1100 
L 3047 0 
L 2419 0 
L 2419 1100 
L 313 1100 
L 313 1709 
L 2253 4666 
z
" transform="scale(0.015625)"/>
       </defs>
       <use xlink:href="#DejaVuSans-34"/>
       <use xlink:href="#DejaVuSans-30" x="63.623047"/>
       <use xlink:href="#DejaVuSans-2e" x="127.246094"/>
       <use xlink:href="#DejaVuSans-31" x="159.033203"/>
       <use xlink:href="#DejaVuSans-37" x="222.65625"/>
      </g>
     </g>
    </g>
    <g id="xtick_8">
     <g id="line2d_15">
      <path d="M 373.551035 384.48 
L 373.551035 51.84 
" clip-path="url(#p7d7f4def1a)" style="fill: none; stroke: #b0b0b0; stroke-width: 0.8; stroke-linecap: square"/>
     </g>
     <g id="line2d_16">
      <g>
       <use xlink:href="#mcaedf5429e" x="373.551035" y="384.48" style="stroke: #000000; stroke-width: 0.8"/>
      </g>
     </g>
     <g id="text_8">
      <!-- 46.83 -->
      <g transform="translate(359.236973 399.078438) scale(0.1 -0.1)">
       <use xlink:href="#DejaVuSans-34"/>
       <use xlink:href="#DejaVuSans-36" x="63.623047"/>
       <use xlink:href="#DejaVuSans-2e" x="127.246094"/>
       <use xlink:href="#DejaVuSans-38" x="159.033203"/>
       <use xlink:href="#DejaVuSans-33" x="222.65625"/>
      </g>
     </g>
    </g>
    <g id="xtick_9">
     <g id="line2d_17">
      <path d="M 413.731053 384.48 
L 413.731053 51.84 
" clip-path="url(#p7d7f4def1a)" style="fill: none; stroke: #b0b0b0; stroke-width: 0.8; stroke-linecap: square"/>
     </g>
     <g id="line2d_18">
      <g>
       <use xlink:href="#mcaedf5429e" x="413.731053" y="384.48" style="stroke: #000000; stroke-width: 0.8"/>
      </g>
     </g>
     <g id="text_9">
      <!-- 53.5 -->
      <g transform="translate(402.598241 399.078438) scale(0.1 -0.1)">
       <use xlink:href="#DejaVuSans-35"/>
       <use xlink:href="#DejaVuSans-33" x="63.623047"/>
       <use xlink:href="#DejaVuSans-2e" x="127.246094"/>
       <use xlink:href="#DejaVuSans-35" x="159.033203"/>
      </g>
     </g>
    </g>
    <g id="xtick_10">
     <g id="line2d_19">
      <path d="M 453.911071 384.48 
L 453.911071 51.84 
" clip-path="url(#p7d7f4def1a)" style="fill: none; stroke: #b0b0b0; stroke-width: 0.8; stroke-linecap: square"/>
     </g>
     <g id="line2d_20">
      <g>
       <use xlink:href="#mcaedf5429e" x="453.911071" y="384.48" style="stroke: #000000; stroke-width: 0.8"/>
      </g>
     </g>
     <g id="text_10">
      <!-- 60.17 -->
      <g transform="translate(439.597009 399.078438) scale(0.1 -0.1)">
       <use xlink:href="#DejaVuSans-36"/>
       <use xlink:href="#DejaVuSans-30" x="63.623047"/>
       <use xlink:href="#DejaVuSans-2e" x="127.246094"/>
       <use xlink:href="#DejaVuSans-31" x="159.033203"/>
       <use xlink:href="#DejaVuSans-37" x="222.65625"/>
      </g>
     </g>
    </g>
    <g id="xtick_11">
     <g id="line2d_21">
      <path d="M 494.091089 384.48 
L 494.091089 51.84 
" clip-path="url(#p7d7f4def1a)" style="fill: none; stroke: #b0b0b0; stroke-width: 0.8; stroke-linecap: square"/>
     </g>
     <g id="line2d_22">
      <g>
       <use xlink:href="#mcaedf5429e" x="494.091089" y="384.48" style="stroke: #000000; stroke-width: 0.8"/>
      </g>
     </g>
     <g id="text_11">
      <!-- 66.83 -->
      <g transform="translate(479.777027 399.078438) scale(0.1 -0.1)">
       <use xlink:href="#DejaVuSans-36"/>
       <use xlink:href="#DejaVuSans-36" x="63.623047"/>
       <use xlink:href="#DejaVuSans-2e" x="127.246094"/>
       <use xlink:href="#DejaVuSans-38" x="159.033203"/>
       <use xlink:href="#DejaVuSans-33" x="222.65625"/>
      </g>
     </g>
    </g>
    <g id="text_12">
     <!-- time in hours [h] -->
     <g transform="translate(253.451562 412.756563) scale(0.1 -0.1)">
      <defs>
       <path id="DejaVuSans-74" d="M 1172 4494 
L 1172 3500 
L 2356 3500 
L 2356 3053 
L 1172 3053 
L 1172 1153 
Q 1172 725 1289 603 
Q 1406 481 1766 481 
L 2356 481 
L 2356 0 
L 1766 0 
Q 1100 0 847 248 
Q 594 497 594 1153 
L 594 3053 
L 172 3053 
L 172 3500 
L 594 3500 
L 594 4494 
L 1172 4494 
z
" transform="scale(0.015625)"/>
       <path id="DejaVuSans-69" d="M 603 3500 
L 1178 3500 
L 1178 0 
L 603 0 
L 603 3500 
z
M 603 4863 
L 1178 4863 
L 1178 4134 
L 603 4134 
L 603 4863 
z
" transform="scale(0.015625)"/>
       <path id="DejaVuSans-6d" d="M 3328 2828 
Q 3544 3216 3844 3400 
Q 4144 3584 4550 3584 
Q 5097 3584 5394 3201 
Q 5691 2819 5691 2113 
L 5691 0 
L 5113 0 
L 5113 2094 
Q 5113 2597 4934 2840 
Q 4756 3084 4391 3084 
Q 3944 3084 3684 2787 
Q 3425 2491 3425 1978 
L 3425 0 
L 2847 0 
L 2847 2094 
Q 2847 2600 2669 2842 
Q 2491 3084 2119 3084 
Q 1678 3084 1418 2786 
Q 1159 2488 1159 1978 
L 1159 0 
L 581 0 
L 581 3500 
L 1159 3500 
L 1159 2956 
Q 1356 3278 1631 3431 
Q 1906 3584 2284 3584 
Q 2666 3584 2933 3390 
Q 3200 3197 3328 2828 
z
" transform="scale(0.015625)"/>
       <path id="DejaVuSans-65" d="M 3597 1894 
L 3597 1613 
L 953 1613 
Q 991 1019 1311 708 
Q 1631 397 2203 397 
Q 2534 397 2845 478 
Q 3156 559 3463 722 
L 3463 178 
Q 3153 47 2828 -22 
Q 2503 -91 2169 -91 
Q 1331 -91 842 396 
Q 353 884 353 1716 
Q 353 2575 817 3079 
Q 1281 3584 2069 3584 
Q 2775 3584 3186 3129 
Q 3597 2675 3597 1894 
z
M 3022 2063 
Q 3016 2534 2758 2815 
Q 2500 3097 2075 3097 
Q 1594 3097 1305 2825 
Q 1016 2553 972 2059 
L 3022 2063 
z
" transform="scale(0.015625)"/>
       <path id="DejaVuSans-20" transform="scale(0.015625)"/>
       <path id="DejaVuSans-6e" d="M 3513 2113 
L 3513 0 
L 2938 0 
L 2938 2094 
Q 2938 2591 2744 2837 
Q 2550 3084 2163 3084 
Q 1697 3084 1428 2787 
Q 1159 2491 1159 1978 
L 1159 0 
L 581 0 
L 581 3500 
L 1159 3500 
L 1159 2956 
Q 1366 3272 1645 3428 
Q 1925 3584 2291 3584 
Q 2894 3584 3203 3211 
Q 3513 2838 3513 2113 
z
" transform="scale(0.015625)"/>
       <path id="DejaVuSans-68" d="M 3513 2113 
L 3513 0 
L 2938 0 
L 2938 2094 
Q 2938 2591 2744 2837 
Q 2550 3084 2163 3084 
Q 1697 3084 1428 2787 
Q 1159 2491 1159 1978 
L 1159 0 
L 581 0 
L 581 4863 
L 1159 4863 
L 1159 2956 
Q 1366 3272 1645 3428 
Q 1925 3584 2291 3584 
Q 2894 3584 3203 3211 
Q 3513 2838 3513 2113 
z
" transform="scale(0.015625)"/>
       <path id="DejaVuSans-6f" d="M 1959 3097 
Q 1497 3097 1228 2736 
Q 959 2375 959 1747 
Q 959 1119 1226 758 
Q 1494 397 1959 397 
Q 2419 397 2687 759 
Q 2956 1122 2956 1747 
Q 2956 2369 2687 2733 
Q 2419 3097 1959 3097 
z
M 1959 3584 
Q 2709 3584 3137 3096 
Q 3566 2609 3566 1747 
Q 3566 888 3137 398 
Q 2709 -91 1959 -91 
Q 1206 -91 779 398 
Q 353 888 353 1747 
Q 353 2609 779 3096 
Q 1206 3584 1959 3584 
z
" transform="scale(0.015625)"/>
       <path id="DejaVuSans-75" d="M 544 1381 
L 544 3500 
L 1119 3500 
L 1119 1403 
Q 1119 906 1312 657 
Q 1506 409 1894 409 
Q 2359 409 2629 706 
Q 2900 1003 2900 1516 
L 2900 3500 
L 3475 3500 
L 3475 0 
L 2900 0 
L 2900 538 
Q 2691 219 2414 64 
Q 2138 -91 1772 -91 
Q 1169 -91 856 284 
Q 544 659 544 1381 
z
M 1991 3584 
L 1991 3584 
z
" transform="scale(0.015625)"/>
       <path id="DejaVuSans-72" d="M 2631 2963 
Q 2534 3019 2420 3045 
Q 2306 3072 2169 3072 
Q 1681 3072 1420 2755 
Q 1159 2438 1159 1844 
L 1159 0 
L 581 0 
L 581 3500 
L 1159 3500 
L 1159 2956 
Q 1341 3275 1631 3429 
Q 1922 3584 2338 3584 
Q 2397 3584 2469 3576 
Q 2541 3569 2628 3553 
L 2631 2963 
z
" transform="scale(0.015625)"/>
       <path id="DejaVuSans-73" d="M 2834 3397 
L 2834 2853 
Q 2591 2978 2328 3040 
Q 2066 3103 1784 3103 
Q 1356 3103 1142 2972 
Q 928 2841 928 2578 
Q 928 2378 1081 2264 
Q 1234 2150 1697 2047 
L 1894 2003 
Q 2506 1872 2764 1633 
Q 3022 1394 3022 966 
Q 3022 478 2636 193 
Q 2250 -91 1575 -91 
Q 1294 -91 989 -36 
Q 684 19 347 128 
L 347 722 
Q 666 556 975 473 
Q 1284 391 1588 391 
Q 1994 391 2212 530 
Q 2431 669 2431 922 
Q 2431 1156 2273 1281 
Q 2116 1406 1581 1522 
L 1381 1569 
Q 847 1681 609 1914 
Q 372 2147 372 2553 
Q 372 3047 722 3315 
Q 1072 3584 1716 3584 
Q 2034 3584 2315 3537 
Q 2597 3491 2834 3397 
z
" transform="scale(0.015625)"/>
       <path id="DejaVuSans-5b" d="M 550 4863 
L 1875 4863 
L 1875 4416 
L 1125 4416 
L 1125 -397 
L 1875 -397 
L 1875 -844 
L 550 -844 
L 550 4863 
z
" transform="scale(0.015625)"/>
       <path id="DejaVuSans-5d" d="M 1947 4863 
L 1947 -844 
L 622 -844 
L 622 -397 
L 1369 -397 
L 1369 4416 
L 622 4416 
L 622 4863 
L 1947 4863 
z
" transform="scale(0.015625)"/>
      </defs>
      <use xlink:href="#DejaVuSans-74"/>
      <use xlink:href="#DejaVuSans-69" x="39.208984"/>
      <use xlink:href="#DejaVuSans-6d" x="66.992188"/>
      <use xlink:href="#DejaVuSans-65" x="164.404297"/>
      <use xlink:href="#DejaVuSans-20" x="225.927734"/>
      <use xlink:href="#DejaVuSans-69" x="257.714844"/>
      <use xlink:href="#DejaVuSans-6e" x="285.498047"/>
      <use xlink:href="#DejaVuSans-20" x="348.876953"/>
      <use xlink:href="#DejaVuSans-68" x="380.664062"/>
      <use xlink:href="#DejaVuSans-6f" x="444.042969"/>
      <use xlink:href="#DejaVuSans-75" x="505.224609"/>
      <use xlink:href="#DejaVuSans-72" x="568.603516"/>
      <use xlink:href="#DejaVuSans-73" x="609.716797"/>
      <use xlink:href="#DejaVuSans-20" x="661.816406"/>
      <use xlink:href="#DejaVuSans-5b" x="693.603516"/>
      <use xlink:href="#DejaVuSans-68" x="732.617188"/>
      <use xlink:href="#DejaVuSans-5d" x="795.996094"/>
     </g>
    </g>
   </g>
   <g id="matplotlib.axis_2">
    <g id="ytick_1">
     <g id="line2d_23">
      <path d="M 72 359.07526 
L 518.4 359.07526 
" clip-path="url(#p7d7f4def1a)" style="fill: none; stroke: #b0b0b0; stroke-width: 0.8; stroke-linecap: square"/>
     </g>
     <g id="line2d_24">
      <defs>
       <path id="mf4c36a9771" d="M 0 0 
L -3.5 0 
" style="stroke: #000000; stroke-width: 0.8"/>
      </defs>
      <g>
       <use xlink:href="#mf4c36a9771" x="72" y="359.07526" style="stroke: #000000; stroke-width: 0.8"/>
      </g>
     </g>
     <g id="text_13">
      <!-- 5000 -->
      <g transform="translate(39.55 362.874479) scale(0.1 -0.1)">
       <use xlink:href="#DejaVuSans-35"/>
       <use xlink:href="#DejaVuSans-30" x="63.623047"/>
       <use xlink:href="#DejaVuSans-30" x="127.246094"/>
       <use xlink:href="#DejaVuSans-30" x="190.869141"/>
      </g>
     </g>
    </g>
    <g id="ytick_2">
     <g id="line2d_25">
      <path d="M 72 312.627928 
L 518.4 312.627928 
" clip-path="url(#p7d7f4def1a)" style="fill: none; stroke: #b0b0b0; stroke-width: 0.8; stroke-linecap: square"/>
     </g>
     <g id="line2d_26">
      <g>
       <use xlink:href="#mf4c36a9771" x="72" y="312.627928" style="stroke: #000000; stroke-width: 0.8"/>
      </g>
     </g>
     <g id="text_14">
      <!-- 10000 -->
      <g transform="translate(33.1875 316.427147) scale(0.1 -0.1)">
       <use xlink:href="#DejaVuSans-31"/>
       <use xlink:href="#DejaVuSans-30" x="63.623047"/>
       <use xlink:href="#DejaVuSans-30" x="127.246094"/>
       <use xlink:href="#DejaVuSans-30" x="190.869141"/>
       <use xlink:href="#DejaVuSans-30" x="254.492188"/>
      </g>
     </g>
    </g>
    <g id="ytick_3">
     <g id="line2d_27">
      <path d="M 72 266.180596 
L 518.4 266.180596 
" clip-path="url(#p7d7f4def1a)" style="fill: none; stroke: #b0b0b0; stroke-width: 0.8; stroke-linecap: square"/>
     </g>
     <g id="line2d_28">
      <g>
       <use xlink:href="#mf4c36a9771" x="72" y="266.180596" style="stroke: #000000; stroke-width: 0.8"/>
      </g>
     </g>
     <g id="text_15">
      <!-- 15000 -->
      <g transform="translate(33.1875 269.979815) scale(0.1 -0.1)">
       <use xlink:href="#DejaVuSans-31"/>
       <use xlink:href="#DejaVuSans-35" x="63.623047"/>
       <use xlink:href="#DejaVuSans-30" x="127.246094"/>
       <use xlink:href="#DejaVuSans-30" x="190.869141"/>
       <use xlink:href="#DejaVuSans-30" x="254.492188"/>
      </g>
     </g>
    </g>
    <g id="ytick_4">
     <g id="line2d_29">
      <path d="M 72 219.733264 
L 518.4 219.733264 
" clip-path="url(#p7d7f4def1a)" style="fill: none; stroke: #b0b0b0; stroke-width: 0.8; stroke-linecap: square"/>
     </g>
     <g id="line2d_30">
      <g>
       <use xlink:href="#mf4c36a9771" x="72" y="219.733264" style="stroke: #000000; stroke-width: 0.8"/>
      </g>
     </g>
     <g id="text_16">
      <!-- 20000 -->
      <g transform="translate(33.1875 223.532483) scale(0.1 -0.1)">
       <use xlink:href="#DejaVuSans-32"/>
       <use xlink:href="#DejaVuSans-30" x="63.623047"/>
       <use xlink:href="#DejaVuSans-30" x="127.246094"/>
       <use xlink:href="#DejaVuSans-30" x="190.869141"/>
       <use xlink:href="#DejaVuSans-30" x="254.492188"/>
      </g>
     </g>
    </g>
    <g id="ytick_5">
     <g id="line2d_31">
      <path d="M 72 173.285932 
L 518.4 173.285932 
" clip-path="url(#p7d7f4def1a)" style="fill: none; stroke: #b0b0b0; stroke-width: 0.8; stroke-linecap: square"/>
     </g>
     <g id="line2d_32">
      <g>
       <use xlink:href="#mf4c36a9771" x="72" y="173.285932" style="stroke: #000000; stroke-width: 0.8"/>
      </g>
     </g>
     <g id="text_17">
      <!-- 25000 -->
      <g transform="translate(33.1875 177.085151) scale(0.1 -0.1)">
       <use xlink:href="#DejaVuSans-32"/>
       <use xlink:href="#DejaVuSans-35" x="63.623047"/>
       <use xlink:href="#DejaVuSans-30" x="127.246094"/>
       <use xlink:href="#DejaVuSans-30" x="190.869141"/>
       <use xlink:href="#DejaVuSans-30" x="254.492188"/>
      </g>
     </g>
    </g>
    <g id="ytick_6">
     <g id="line2d_33">
      <path d="M 72 126.8386 
L 518.4 126.8386 
" clip-path="url(#p7d7f4def1a)" style="fill: none; stroke: #b0b0b0; stroke-width: 0.8; stroke-linecap: square"/>
     </g>
     <g id="line2d_34">
      <g>
       <use xlink:href="#mf4c36a9771" x="72" y="126.8386" style="stroke: #000000; stroke-width: 0.8"/>
      </g>
     </g>
     <g id="text_18">
      <!-- 30000 -->
      <g transform="translate(33.1875 130.637819) scale(0.1 -0.1)">
       <use xlink:href="#DejaVuSans-33"/>
       <use xlink:href="#DejaVuSans-30" x="63.623047"/>
       <use xlink:href="#DejaVuSans-30" x="127.246094"/>
       <use xlink:href="#DejaVuSans-30" x="190.869141"/>
       <use xlink:href="#DejaVuSans-30" x="254.492188"/>
      </g>
     </g>
    </g>
    <g id="ytick_7">
     <g id="line2d_35">
      <path d="M 72 80.391268 
L 518.4 80.391268 
" clip-path="url(#p7d7f4def1a)" style="fill: none; stroke: #b0b0b0; stroke-width: 0.8; stroke-linecap: square"/>
     </g>
     <g id="line2d_36">
      <g>
       <use xlink:href="#mf4c36a9771" x="72" y="80.391268" style="stroke: #000000; stroke-width: 0.8"/>
      </g>
     </g>
     <g id="text_19">
      <!-- 35000 -->
      <g transform="translate(33.1875 84.190487) scale(0.1 -0.1)">
       <use xlink:href="#DejaVuSans-33"/>
       <use xlink:href="#DejaVuSans-35" x="63.623047"/>
       <use xlink:href="#DejaVuSans-30" x="127.246094"/>
       <use xlink:href="#DejaVuSans-30" x="190.869141"/>
       <use xlink:href="#DejaVuSans-30" x="254.492188"/>
      </g>
     </g>
    </g>
    <g id="text_20">
     <!-- blank corrected GFP RFU -->
     <g transform="translate(27.107812 280.149062) rotate(-90) scale(0.1 -0.1)">
      <defs>
       <path id="DejaVuSans-62" d="M 3116 1747 
Q 3116 2381 2855 2742 
Q 2594 3103 2138 3103 
Q 1681 3103 1420 2742 
Q 1159 2381 1159 1747 
Q 1159 1113 1420 752 
Q 1681 391 2138 391 
Q 2594 391 2855 752 
Q 3116 1113 3116 1747 
z
M 1159 2969 
Q 1341 3281 1617 3432 
Q 1894 3584 2278 3584 
Q 2916 3584 3314 3078 
Q 3713 2572 3713 1747 
Q 3713 922 3314 415 
Q 2916 -91 2278 -91 
Q 1894 -91 1617 61 
Q 1341 213 1159 525 
L 1159 0 
L 581 0 
L 581 4863 
L 1159 4863 
L 1159 2969 
z
" transform="scale(0.015625)"/>
       <path id="DejaVuSans-6c" d="M 603 4863 
L 1178 4863 
L 1178 0 
L 603 0 
L 603 4863 
z
" transform="scale(0.015625)"/>
       <path id="DejaVuSans-61" d="M 2194 1759 
Q 1497 1759 1228 1600 
Q 959 1441 959 1056 
Q 959 750 1161 570 
Q 1363 391 1709 391 
Q 2188 391 2477 730 
Q 2766 1069 2766 1631 
L 2766 1759 
L 2194 1759 
z
M 3341 1997 
L 3341 0 
L 2766 0 
L 2766 531 
Q 2569 213 2275 61 
Q 1981 -91 1556 -91 
Q 1019 -91 701 211 
Q 384 513 384 1019 
Q 384 1609 779 1909 
Q 1175 2209 1959 2209 
L 2766 2209 
L 2766 2266 
Q 2766 2663 2505 2880 
Q 2244 3097 1772 3097 
Q 1472 3097 1187 3025 
Q 903 2953 641 2809 
L 641 3341 
Q 956 3463 1253 3523 
Q 1550 3584 1831 3584 
Q 2591 3584 2966 3190 
Q 3341 2797 3341 1997 
z
" transform="scale(0.015625)"/>
       <path id="DejaVuSans-6b" d="M 581 4863 
L 1159 4863 
L 1159 1991 
L 2875 3500 
L 3609 3500 
L 1753 1863 
L 3688 0 
L 2938 0 
L 1159 1709 
L 1159 0 
L 581 0 
L 581 4863 
z
" transform="scale(0.015625)"/>
       <path id="DejaVuSans-63" d="M 3122 3366 
L 3122 2828 
Q 2878 2963 2633 3030 
Q 2388 3097 2138 3097 
Q 1578 3097 1268 2742 
Q 959 2388 959 1747 
Q 959 1106 1268 751 
Q 1578 397 2138 397 
Q 2388 397 2633 464 
Q 2878 531 3122 666 
L 3122 134 
Q 2881 22 2623 -34 
Q 2366 -91 2075 -91 
Q 1284 -91 818 406 
Q 353 903 353 1747 
Q 353 2603 823 3093 
Q 1294 3584 2113 3584 
Q 2378 3584 2631 3529 
Q 2884 3475 3122 3366 
z
" transform="scale(0.015625)"/>
       <path id="DejaVuSans-64" d="M 2906 2969 
L 2906 4863 
L 3481 4863 
L 3481 0 
L 2906 0 
L 2906 525 
Q 2725 213 2448 61 
Q 2172 -91 1784 -91 
Q 1150 -91 751 415 
Q 353 922 353 1747 
Q 353 2572 751 3078 
Q 1150 3584 1784 3584 
Q 2172 3584 2448 3432 
Q 2725 3281 2906 2969 
z
M 947 1747 
Q 947 1113 1208 752 
Q 1469 391 1925 391 
Q 2381 391 2643 752 
Q 2906 1113 2906 1747 
Q 2906 2381 2643 2742 
Q 2381 3103 1925 3103 
Q 1469 3103 1208 2742 
Q 947 2381 947 1747 
z
" transform="scale(0.015625)"/>
       <path id="DejaVuSans-47" d="M 3809 666 
L 3809 1919 
L 2778 1919 
L 2778 2438 
L 4434 2438 
L 4434 434 
Q 4069 175 3628 42 
Q 3188 -91 2688 -91 
Q 1594 -91 976 548 
Q 359 1188 359 2328 
Q 359 3472 976 4111 
Q 1594 4750 2688 4750 
Q 3144 4750 3555 4637 
Q 3966 4525 4313 4306 
L 4313 3634 
Q 3963 3931 3569 4081 
Q 3175 4231 2741 4231 
Q 1884 4231 1454 3753 
Q 1025 3275 1025 2328 
Q 1025 1384 1454 906 
Q 1884 428 2741 428 
Q 3075 428 3337 486 
Q 3600 544 3809 666 
z
" transform="scale(0.015625)"/>
       <path id="DejaVuSans-46" d="M 628 4666 
L 3309 4666 
L 3309 4134 
L 1259 4134 
L 1259 2759 
L 3109 2759 
L 3109 2228 
L 1259 2228 
L 1259 0 
L 628 0 
L 628 4666 
z
" transform="scale(0.015625)"/>
       <path id="DejaVuSans-50" d="M 1259 4147 
L 1259 2394 
L 2053 2394 
Q 2494 2394 2734 2622 
Q 2975 2850 2975 3272 
Q 2975 3691 2734 3919 
Q 2494 4147 2053 4147 
L 1259 4147 
z
M 628 4666 
L 2053 4666 
Q 2838 4666 3239 4311 
Q 3641 3956 3641 3272 
Q 3641 2581 3239 2228 
Q 2838 1875 2053 1875 
L 1259 1875 
L 1259 0 
L 628 0 
L 628 4666 
z
" transform="scale(0.015625)"/>
       <path id="DejaVuSans-52" d="M 2841 2188 
Q 3044 2119 3236 1894 
Q 3428 1669 3622 1275 
L 4263 0 
L 3584 0 
L 2988 1197 
Q 2756 1666 2539 1819 
Q 2322 1972 1947 1972 
L 1259 1972 
L 1259 0 
L 628 0 
L 628 4666 
L 2053 4666 
Q 2853 4666 3247 4331 
Q 3641 3997 3641 3322 
Q 3641 2881 3436 2590 
Q 3231 2300 2841 2188 
z
M 1259 4147 
L 1259 2491 
L 2053 2491 
Q 2509 2491 2742 2702 
Q 2975 2913 2975 3322 
Q 2975 3731 2742 3939 
Q 2509 4147 2053 4147 
L 1259 4147 
z
" transform="scale(0.015625)"/>
       <path id="DejaVuSans-55" d="M 556 4666 
L 1191 4666 
L 1191 1831 
Q 1191 1081 1462 751 
Q 1734 422 2344 422 
Q 2950 422 3222 751 
Q 3494 1081 3494 1831 
L 3494 4666 
L 4128 4666 
L 4128 1753 
Q 4128 841 3676 375 
Q 3225 -91 2344 -91 
Q 1459 -91 1007 375 
Q 556 841 556 1753 
L 556 4666 
z
" transform="scale(0.015625)"/>
      </defs>
      <use xlink:href="#DejaVuSans-62"/>
      <use xlink:href="#DejaVuSans-6c" x="63.476562"/>
      <use xlink:href="#DejaVuSans-61" x="91.259766"/>
      <use xlink:href="#DejaVuSans-6e" x="152.539062"/>
      <use xlink:href="#DejaVuSans-6b" x="215.917969"/>
      <use xlink:href="#DejaVuSans-20" x="273.828125"/>
      <use xlink:href="#DejaVuSans-63" x="305.615234"/>
      <use xlink:href="#DejaVuSans-6f" x="360.595703"/>
      <use xlink:href="#DejaVuSans-72" x="421.777344"/>
      <use xlink:href="#DejaVuSans-72" x="461.140625"/>
      <use xlink:href="#DejaVuSans-65" x="500.003906"/>
      <use xlink:href="#DejaVuSans-63" x="561.527344"/>
      <use xlink:href="#DejaVuSans-74" x="616.507812"/>
      <use xlink:href="#DejaVuSans-65" x="655.716797"/>
      <use xlink:href="#DejaVuSans-64" x="717.240234"/>
      <use xlink:href="#DejaVuSans-20" x="780.716797"/>
      <use xlink:href="#DejaVuSans-47" x="812.503906"/>
      <use xlink:href="#DejaVuSans-46" x="889.994141"/>
      <use xlink:href="#DejaVuSans-50" x="947.513672"/>
      <use xlink:href="#DejaVuSans-20" x="1007.816406"/>
      <use xlink:href="#DejaVuSans-52" x="1039.603516"/>
      <use xlink:href="#DejaVuSans-46" x="1109.085938"/>
      <use xlink:href="#DejaVuSans-55" x="1166.605469"/>
     </g>
    </g>
   </g>
   <g id="line2d_37">
    <path d="M 92.290909 332.98245 
L 93.29541 333.428344 
L 94.29991 335.054001 
L 95.30441 335.945789 
L 96.308911 334.775317 
L 97.313411 335.388421 
L 98.317912 334.552369 
L 99.322412 332.97316 
L 100.326913 331.858424 
L 101.331413 330.112004 
L 102.335914 329.870478 
L 105.349415 326.386928 
L 106.353915 325.680929 
L 108.362916 322.18809 
L 109.367417 321.584274 
L 112.380918 316.345015 
L 113.385419 316.057042 
L 114.389919 313.567465 
L 115.394419 312.350545 
L 117.40342 306.721128 
L 118.407921 306.498181 
L 119.412421 304.993287 
L 120.416922 304.788919 
L 121.421422 304.212972 
L 122.425923 303.02392 
L 123.430423 302.624473 
L 124.434923 299.670423 
L 125.439424 297.663898 
L 126.443924 297.385214 
L 127.448425 294.524059 
L 128.452925 290.938325 
L 129.457426 288.439458 
L 130.461926 285.030224 
L 133.475428 272.693813 
L 135.484428 264.881371 
L 136.488929 263.580846 
L 137.493429 261.862295 
L 138.49793 261.862295 
L 139.50243 261.490716 
L 140.506931 259.521349 
L 141.511431 258.731745 
L 143.520432 254.430722 
L 144.524932 251.690329 
L 145.529433 248.569068 
L 146.533933 246.488228 
L 149.547435 232.804844 
L 150.551935 227.054664 
L 154.569937 209.478994 
L 155.574437 207.936942 
L 156.578938 206.942969 
L 157.583438 207.073022 
L 158.587939 205.781786 
L 161.60144 197.170451 
L 162.605941 197.021819 
L 164.614941 186.924169 
L 165.619442 185.010539 
L 166.623942 182.02862 
L 167.628443 177.346729 
L 168.632943 173.296522 
L 169.637444 172.191075 
L 170.641944 168.531026 
L 171.646445 168.391684 
L 172.650945 166.54308 
L 173.655446 166.348001 
L 174.659946 168.791131 
L 175.664446 170.258866 
L 176.668947 174.364811 
L 177.673447 173.101443 
L 179.682448 174.857152 
L 180.686949 173.900337 
L 181.691449 173.909627 
L 182.69595 173.166469 
L 183.70045 171.512944 
L 184.70495 171.048471 
L 185.709451 168.205894 
L 186.713951 165.864949 
L 187.718452 164.164976 
L 188.722952 164.202134 
L 189.727453 162.325662 
L 190.731953 164.768792 
L 191.736454 165.558396 
L 192.740954 166.933237 
L 193.745455 169.720077 
L 194.749955 171.494365 
L 195.754455 172.126049 
L 196.758956 173.788864 
L 197.763456 174.959336 
L 200.776958 171.680155 
L 201.781458 171.485076 
L 202.785959 168.2895 
L 204.794959 163.551872 
L 206.80396 160.634979 
L 207.808461 159.390191 
L 208.812961 160.765032 
L 209.817462 160.634979 
L 210.821962 165.019607 
L 211.826463 167.314106 
L 213.835464 168.958341 
L 214.839964 169.487841 
L 215.844464 169.50642 
L 216.848965 166.970395 
L 217.853465 168.047973 
L 218.857966 164.917423 
L 219.862466 162.502162 
L 220.866967 160.960111 
L 221.871467 157.848139 
L 222.875968 158.210429 
L 223.880468 156.111009 
L 224.884968 155.163484 
L 225.889469 155.358562 
L 226.893969 154.160221 
L 227.89847 156.027404 
L 228.90297 156.166746 
L 229.907471 158.990744 
L 230.911971 159.000033 
L 231.916472 160.569953 
L 232.920972 161.508189 
L 233.925473 160.700006 
L 235.934473 157.346508 
L 236.938974 155.878772 
L 237.943474 155.089168 
L 238.947975 152.952591 
L 239.952475 151.21546 
L 240.956976 150.165751 
L 241.961476 150.026409 
L 242.965977 149.329699 
L 243.970477 149.31112 
L 244.974977 150.70454 
L 245.979478 150.332961 
L 246.983978 153.259143 
L 247.988479 155.702273 
L 248.992979 155.860194 
L 249.99748 159.464506 
L 251.00198 157.941034 
L 252.006481 158.554139 
L 253.010981 157.588034 
L 254.015482 156.018114 
L 255.019982 155.692983 
L 256.024482 152.943301 
L 257.028983 151.419829 
L 258.033483 149.673409 
L 259.037984 147.406779 
L 260.042484 147.369621 
L 261.046985 145.976201 
L 263.055986 145.716096 
L 265.064986 151.011092 
L 267.073987 153.593564 
L 268.078488 155.451457 
L 269.082988 155.962378 
L 270.087489 156.891324 
L 271.091989 156.529035 
L 272.09649 156.770561 
L 273.10099 155.200641 
L 274.105491 154.262405 
L 275.109991 153.770064 
L 276.114491 153.946563 
L 277.118992 152.841117 
L 278.123492 153.900116 
L 279.127993 155.971667 
L 280.132493 157.523008 
L 281.136994 160.495637 
L 282.141494 162.948056 
L 283.145995 166.37587 
L 284.150495 170.426077 
L 285.154995 173.556627 
L 287.163996 178.749439 
L 288.168497 182.418778 
L 290.177498 186.868432 
L 291.181998 190.797877 
L 292.186499 192.377086 
L 293.190999 196.687398 
L 294.1955 199.706475 
L 295.2 204.026077 
L 296.2045 209.228178 
L 298.213501 221.425247 
L 299.218002 228.392347 
L 300.222502 234.486237 
L 301.227003 242.233652 
L 302.231503 248.308963 
L 303.236004 255.359668 
L 304.240504 259.344849 
L 305.245005 265.540923 
L 306.249505 269.154526 
L 307.254005 274.040785 
L 308.258506 277.301388 
L 310.267507 284.779408 
L 311.272007 288.105037 
L 312.276508 290.473851 
L 313.281008 293.381454 
L 314.285509 295.945347 
L 315.290009 299.280265 
L 318.30351 306.591075 
L 319.308011 309.851678 
L 320.312511 312.220492 
L 321.317012 313.948333 
L 322.321512 316.270699 
L 323.326013 317.589804 
L 324.330513 318.685961 
L 325.335014 319.085408 
L 326.339514 320.26517 
L 327.344014 320.515986 
L 328.348515 320.450959 
L 330.357516 323.637246 
L 331.362016 323.516483 
L 332.366517 324.826298 
L 333.371017 324.733403 
L 334.375518 325.866718 
L 335.380018 327.817506 
L 336.384518 328.068322 
L 337.389019 328.737163 
L 338.393519 329.805452 
L 339.39802 330.251346 
L 340.40252 331.75624 
L 341.407021 331.75624 
L 342.411521 332.313608 
L 343.416022 331.347503 
L 344.420522 331.793398 
L 346.429523 332.369345 
L 347.434023 331.821266 
L 349.443024 332.861686 
L 350.447525 333.056765 
L 351.452025 332.45295 
L 352.456526 333.038186 
L 353.461026 332.731634 
L 354.465527 333.642002 
L 355.470027 334.041449 
L 356.474527 334.134343 
L 357.479028 334.394448 
L 358.483528 334.812474 
L 359.488029 335.490605 
L 360.492529 335.109737 
L 361.49703 334.403738 
L 362.50153 335.397711 
L 363.506031 334.849632 
L 364.510531 335.462737 
L 365.515032 334.348001 
L 366.519532 334.645264 
L 367.524032 334.747448 
L 368.528533 335.119027 
L 369.533033 334.320133 
L 371.542034 335.221211 
L 372.546535 335.06329 
L 373.551035 335.081869 
L 374.555536 336.205894 
L 375.560036 336.642499 
L 376.564536 336.029395 
L 377.569037 335.629947 
L 378.573537 336.205894 
L 380.582538 335.59279 
L 381.587039 335.741421 
L 382.591539 335.2305 
L 383.59604 335.509184 
L 384.60054 334.505922 
L 385.605041 333.818502 
L 386.609541 335.286237 
L 387.614041 335.211921 
L 388.618542 334.459475 
L 390.627543 335.276948 
L 391.632043 335.676395 
L 392.636544 335.602079 
L 394.645545 336.345236 
L 395.650045 335.602079 
L 396.654545 335.016843 
L 397.659046 335.732132 
L 398.663546 335.146895 
L 399.668047 335.044711 
L 400.672547 335.379132 
L 401.677048 335.453448 
L 402.681548 334.691711 
L 403.686049 334.273685 
L 404.690549 334.821764 
L 405.69505 334.264396 
L 406.69955 334.152922 
L 408.708551 334.766027 
L 409.713051 335.722842 
L 410.717552 335.490605 
L 411.722052 334.617396 
L 412.726553 335.323395 
L 413.731053 335.657816 
L 414.735554 335.2305 
L 416.744554 335.323395 
L 419.758056 334.812474 
L 420.762556 334.403738 
L 421.767057 334.812474 
L 422.771557 333.902107 
L 424.780558 333.985712 
L 425.785059 333.734896 
L 426.789559 334.53379 
L 427.794059 334.320133 
L 428.79856 334.589527 
L 429.80306 335.341974 
L 430.807561 335.184053 
L 431.812061 334.19008 
L 432.816562 334.310843 
L 433.821062 333.827791 
L 434.825563 333.911396 
L 435.830063 333.576975 
L 436.834563 333.558396 
L 437.839064 333.688449 
L 438.843564 332.898844 
L 440.852565 333.688449 
L 441.857066 333.242555 
L 443.866067 332.815239 
L 444.870567 333.177528 
L 445.875068 333.289002 
L 446.879568 332.750213 
L 447.884068 333.344739 
L 448.888569 333.50266 
L 449.893069 332.954581 
L 450.89757 333.075344 
L 451.90207 332.852397 
L 452.906571 332.79666 
L 453.911071 332.870976 
L 454.915572 332.360055 
L 455.920072 332.146398 
L 456.924572 332.127819 
L 457.929073 332.369345 
L 458.933573 331.988477 
L 459.938074 331.133846 
L 460.942574 331.672635 
L 461.947075 331.505424 
L 463.956076 332.564424 
L 464.960576 332.815239 
L 465.965077 332.768792 
L 466.969577 331.960608 
L 467.974077 332.815239 
L 469.983078 331.691214 
L 470.987579 332.146398 
L 471.992079 331.746951 
L 472.99658 331.524003 
L 474.00108 329.879768 
L 475.005581 331.133846 
L 476.010081 330.474294 
L 477.014581 330.697241 
L 478.019082 330.771557 
L 479.023582 330.613636 
L 480.028083 331.198872 
L 481.032583 330.855162 
L 482.037084 331.40324 
L 483.041584 332.081371 
L 484.046085 331.988477 
L 486.055086 331.105977 
L 487.059586 331.431109 
L 488.064086 330.251346 
L 489.068587 329.981952 
L 490.073087 330.799425 
L 491.077588 329.889057 
L 492.082088 330.18632 
L 493.086589 329.786873 
L 494.091089 329.749715 
L 495.09559 329.13661 
L 496.10009 329.545347 
L 497.10459 329.619663 
L 498.109091 329.861189 
L 498.109091 329.861189 
" clip-path="url(#p7d7f4def1a)" style="fill: none; stroke: #008000; stroke-width: 1.5; stroke-linecap: square"/>
   </g>
   <g id="line2d_38">
    <path d="M 92.290909 331.737661 
L 93.29541 331.895582 
L 94.29991 333.028897 
L 95.30441 335.109737 
L 96.308911 333.874238 
L 97.313411 334.282975 
L 98.317912 332.174266 
L 99.322412 332.740923 
L 100.326913 331.681924 
L 102.335914 327.826796 
L 103.340414 326.591297 
L 104.344914 325.745955 
L 106.353915 323.014852 
L 107.358416 321.054775 
L 109.367417 319.131855 
L 110.371917 316.78162 
L 111.376418 315.137385 
L 112.380918 312.880044 
L 113.385419 312.499176 
L 114.389919 309.498678 
L 115.394419 309.359336 
L 116.39892 306.005839 
L 117.40342 304.658866 
L 119.412421 302.513 
L 120.416922 301.974211 
L 121.421422 302.011369 
L 122.425923 301.927763 
L 124.434923 298.713608 
L 125.439424 296.539873 
L 126.443924 295.5459 
L 127.448425 293.873796 
L 128.452925 289.97222 
L 129.457426 287.306143 
L 130.461926 280.998596 
L 131.466427 277.310677 
L 132.470927 270.575814 
L 133.475428 266.785712 
L 134.479928 261.667216 
L 135.484428 259.075455 
L 136.488929 257.76564 
L 137.493429 257.774929 
L 138.49793 258.072192 
L 139.50243 257.904982 
L 140.506931 257.003904 
L 142.515932 254.300669 
L 143.520432 251.513829 
L 145.529433 247.157069 
L 146.533933 242.781731 
L 148.542934 236.455604 
L 149.547435 233.176422 
L 151.556436 223.64543 
L 153.565437 213.083307 
L 154.569937 209.636915 
L 155.574437 206.794338 
L 156.578938 204.862129 
L 157.583438 204.722787 
L 158.587939 203.10642 
L 159.592439 202.418999 
L 160.59694 200.551816 
L 161.60144 196.83603 
L 162.605941 195.071031 
L 163.610441 193.993453 
L 164.614941 190.454166 
L 166.623942 187.509406 
L 167.628443 184.64825 
L 168.632943 182.892541 
L 169.637444 180.765253 
L 170.641944 177.216677 
L 171.646445 175.330915 
L 172.650945 173.110733 
L 173.655446 172.525496 
L 174.659946 172.358286 
L 175.664446 175.0801 
L 176.668947 175.59102 
L 177.673447 176.872967 
L 178.677948 177.021598 
L 179.682448 178.229229 
L 180.686949 177.699729 
L 181.691449 177.950545 
L 182.69595 177.634703 
L 183.70045 178.145623 
L 184.70495 175.60031 
L 185.709451 176.027625 
L 186.713951 174.597047 
L 187.718452 176.009046 
L 188.722952 174.5506 
L 189.727453 173.519469 
L 190.731953 173.872469 
L 191.736454 173.547338 
L 192.740954 176.99373 
L 193.745455 178.489334 
L 194.749955 179.353254 
L 195.754455 180.913884 
L 196.758956 181.777805 
L 197.763456 182.483804 
L 198.767957 182.251568 
L 199.772457 180.356516 
L 200.776958 182.846093 
L 202.785959 180.607332 
L 204.794959 177.829782 
L 205.79946 179.232491 
L 206.80396 176.798651 
L 207.808461 176.835809 
L 208.812961 175.971888 
L 209.817462 175.897573 
L 210.821962 178.080597 
L 211.826463 178.972386 
L 213.835464 181.33191 
L 214.839964 181.434095 
L 215.844464 181.1647 
L 216.848965 181.415516 
L 217.853465 181.173989 
L 218.857966 180.793121 
L 220.866967 179.130307 
L 221.871467 178.90736 
L 222.875968 177.634703 
L 223.880468 178.415018 
L 224.884968 176.315599 
L 225.889469 176.046204 
L 226.893969 176.659309 
L 227.89847 177.941255 
L 228.90297 177.736887 
L 229.907471 179.901333 
L 230.911971 181.387647 
L 231.916472 181.907857 
L 232.920972 182.019331 
L 233.925473 183.143356 
L 234.929973 181.3412 
L 235.934473 182.056489 
L 236.938974 182.595278 
L 237.943474 181.396937 
L 238.947975 181.917147 
L 239.952475 180.960332 
L 240.956976 180.46799 
L 241.961476 182.576699 
L 242.965977 181.610594 
L 243.970477 180.310069 
L 244.974977 180.542306 
L 245.979478 181.183279 
L 246.983978 182.641725 
L 247.988479 185.187039 
L 248.992979 185.307802 
L 249.99748 187.667327 
L 251.00198 186.924169 
L 252.006481 186.589748 
L 253.010981 187.490827 
L 254.015482 187.880984 
L 255.019982 186.701222 
L 256.024482 186.376091 
L 257.028983 185.920907 
L 258.033483 186.496854 
L 259.037984 185.605065 
L 260.042484 185.809433 
L 261.046985 185.187039 
L 262.051485 185.056986 
L 263.055986 185.670091 
L 264.060486 187.453669 
L 265.064986 188.893536 
L 266.069487 189.627404 
L 267.073987 192.600033 
L 268.078488 193.306033 
L 269.082988 194.244269 
L 270.087489 194.597268 
L 271.091989 195.43332 
L 272.09649 195.758452 
L 273.10099 196.548056 
L 274.105491 199.242002 
L 276.114491 201.239237 
L 277.118992 201.545789 
L 278.123492 202.446868 
L 279.127993 207.853337 
L 280.132493 207.546785 
L 281.136994 209.71123 
L 282.141494 212.832491 
L 283.145995 217.783777 
L 284.150495 221.350932 
L 285.154995 223.403904 
L 286.159496 228.661742 
L 287.163996 230.751872 
L 288.168497 235.322289 
L 290.177498 243.385546 
L 292.186499 251.606724 
L 293.190999 257.895693 
L 295.2 267.110843 
L 298.213501 283.228067 
L 299.218002 287.18538 
L 300.222502 292.443218 
L 301.227003 298.416345 
L 302.231503 302.290053 
L 303.236004 306.758286 
L 304.240504 310.288283 
L 305.245005 313.251623 
L 306.249505 316.846646 
L 309.263006 324.919193 
L 310.267507 326.804954 
L 312.276508 329.786873 
L 313.281008 331.960608 
L 314.285509 333.809212 
L 315.290009 334.849632 
L 316.294509 336.995499 
L 317.29901 338.54684 
L 318.30351 338.72334 
L 319.308011 341.036417 
L 320.312511 342.318363 
L 321.317012 343.117257 
L 322.321512 344.501388 
L 323.326013 345.263124 
L 324.330513 346.619386 
L 326.339514 347.316096 
L 327.344014 348.328648 
L 328.348515 348.430832 
L 329.353015 348.728095 
L 330.357516 350.065778 
L 331.362016 351.031883 
L 332.366517 351.069041 
L 333.371017 352.155908 
L 334.375518 352.109461 
L 335.380018 352.443882 
L 336.384518 353.196328 
L 337.389019 354.311064 
L 338.393519 354.691933 
L 340.40252 354.979906 
L 341.407021 355.685905 
L 342.411521 356.196826 
L 343.416022 355.890274 
L 344.420522 356.856378 
L 345.425023 357.042168 
L 346.429523 358.259088 
L 347.434023 357.460194 
L 349.443024 357.190799 
L 351.452025 358.454166 
L 352.456526 358.556351 
L 353.461026 358.361272 
L 354.465527 358.417009 
L 356.474527 359.234482 
L 357.479028 359.345955 
L 358.483528 359.150876 
L 359.488029 359.801139 
L 360.492529 359.866165 
L 361.49703 360.451402 
L 362.50153 359.466718 
L 363.506031 360.30277 
L 364.510531 360.674349 
L 365.515032 360.525717 
L 366.519532 360.627902 
L 367.524032 360.888007 
L 368.528533 360.683638 
L 369.533033 360.13556 
L 371.542034 360.962322 
L 372.546535 361.18527 
L 373.551035 362.411479 
L 374.555536 361.714769 
L 375.560036 362.420769 
L 376.564536 362.272137 
L 377.569037 362.365032 
L 378.573537 363.033873 
L 379.578038 362.940979 
L 380.582538 362.653005 
L 381.587039 362.987426 
L 382.591539 363.535505 
L 383.59604 362.448637 
L 385.605041 362.968847 
L 386.609541 363.535505 
L 387.614041 362.978137 
L 388.618542 363.832767 
L 389.623042 363.006005 
L 391.632043 363.646978 
L 395.650045 364.111451 
L 396.654545 364.102162 
L 397.659046 364.241504 
L 398.663546 364.780293 
L 401.677048 364.399425 
L 402.681548 364.501609 
L 403.686049 364.724556 
L 404.690549 364.455162 
L 405.69505 364.352978 
L 407.70405 364.984661 
L 408.708551 364.30653 
L 409.713051 365.207609 
L 410.717552 364.808161 
L 411.722052 365.374819 
L 412.726553 365.402687 
L 413.731053 365.922897 
L 414.735554 365.87645 
L 415.740054 365.458424 
L 416.744554 366.591739 
L 418.753555 365.820713 
L 419.758056 366.517423 
L 420.762556 366.034371 
L 421.767057 366.415239 
L 422.771557 366.508134 
L 423.776058 365.811424 
L 424.780558 366.545292 
L 425.785059 366.517423 
L 426.789559 366.814686 
L 427.794059 366.238739 
L 429.80306 366.675344 
L 430.807561 366.731081 
L 431.812061 366.638186 
L 432.816562 366.898291 
L 434.825563 366.554581 
L 435.830063 367.028344 
L 436.834563 367.028344 
L 437.839064 366.656765 
L 438.843564 366.991186 
L 439.848065 367.158396 
L 440.852565 366.378081 
L 441.857066 367.130528 
L 443.866067 366.92616 
L 444.870567 366.703213 
L 445.875068 367.529975 
L 446.879568 366.786818 
L 447.884068 367.037633 
L 448.888569 367.520686 
L 449.893069 367.585712 
L 450.89757 367.836528 
L 451.90207 367.019054 
L 452.906571 367.873685 
L 453.911071 367.641449 
L 456.924572 367.390633 
L 458.933573 367.650738 
L 459.938074 368.013027 
L 460.942574 367.520686 
L 461.947075 367.204844 
L 462.951575 367.994448 
L 463.956076 367.920133 
L 464.960576 367.734343 
L 465.965077 367.910843 
L 466.969577 368.746895 
L 467.974077 368.31029 
L 469.983078 368.440343 
L 471.992079 368.784053 
L 472.99658 367.62287 
L 474.00108 368.013027 
L 475.005581 368.654001 
L 476.010081 368.235975 
L 478.019082 368.115212 
L 479.023582 368.189527 
L 480.028083 367.938712 
L 481.032583 368.598264 
L 482.037084 368.338159 
L 484.046085 368.616843 
L 485.050585 368.997711 
L 487.059586 369.099895 
L 488.064086 368.811921 
L 489.068587 368.774764 
L 490.073087 368.607553 
L 491.077588 369.36 
L 492.082088 368.728316 
L 494.091089 369.257816 
L 495.09559 368.421764 
L 496.10009 369.239237 
L 497.10459 368.811921 
L 498.109091 369.285684 
L 498.109091 369.285684 
" clip-path="url(#p7d7f4def1a)" style="fill: none; stroke: #008000; stroke-width: 1.5; stroke-linecap: square"/>
   </g>
   <g id="line2d_39">
    <path d="M 92.290909 328.97869 
L 93.29541 332.202134 
L 94.29991 333.31687 
L 95.30441 333.762765 
L 97.313411 332.480818 
L 98.317912 330.88303 
L 99.322412 330.632215 
L 100.326913 329.656821 
L 101.331413 329.285242 
L 102.335914 327.390191 
L 103.340414 326.033929 
L 104.344914 324.937772 
L 105.349415 323.386431 
L 106.353915 322.866221 
L 107.358416 321.110511 
L 108.362916 319.856434 
L 109.367417 318.286514 
L 110.371917 316.354305 
L 113.385419 312.759281 
L 114.389919 310.353309 
L 117.40342 304.872524 
L 118.407921 302.113553 
L 119.412421 301.035975 
L 120.416922 300.264949 
L 121.421422 300.636528 
L 122.425923 300.645817 
L 123.430423 298.054056 
L 124.434923 296.214741 
L 125.439424 292.898402 
L 126.443924 291.997324 
L 127.448425 285.922013 
L 128.452925 280.552701 
L 129.457426 277.171335 
L 130.461926 274.681758 
L 131.466427 271.272524 
L 132.470927 268.587868 
L 133.475428 266.367686 
L 134.479928 262.99561 
L 135.484428 260.134454 
L 136.488929 258.425192 
L 137.493429 256.437246 
L 138.49793 256.54872 
L 139.50243 255.183168 
L 140.506931 255.712668 
L 141.511431 253.018723 
L 143.520432 249.795278 
L 144.524932 247.240675 
L 145.529433 243.32052 
L 146.533933 241.05389 
L 147.538434 236.195499 
L 148.542934 229.627846 
L 149.547435 222.168405 
L 150.551935 212.581675 
L 151.556436 205.122234 
L 152.560936 202.697683 
L 153.565437 198.145845 
L 154.569937 194.374321 
L 155.574437 194.91311 
L 156.578938 192.562875 
L 157.583438 196.297241 
L 158.587939 195.26611 
L 160.59694 189.618114 
L 161.60144 187.017064 
L 162.605941 185.103434 
L 163.610441 180.718806 
L 165.619442 173.751706 
L 166.623942 167.499895 
L 168.632943 150.806724 
L 169.637444 142.17681 
L 170.641944 138.665391 
L 171.646445 135.794946 
L 172.650945 136.101498 
L 173.655446 138.386707 
L 174.659946 142.306862 
L 176.668947 148.818778 
L 177.673447 149.459751 
L 178.677948 151.178302 
L 179.682448 151.522013 
L 180.686949 151.317644 
L 181.691449 150.908908 
L 183.70045 148.78162 
L 184.70495 146.310622 
L 185.709451 144.564202 
L 188.722952 127.620216 
L 189.727453 124.201692 
L 190.731953 126.254664 
L 191.736454 131.670423 
L 192.740954 134.32721 
L 193.745455 137.885076 
L 194.749955 142.213967 
L 195.754455 143.514493 
L 196.758956 143.91394 
L 197.763456 144.842886 
L 199.772457 144.945071 
L 200.776958 144.071861 
L 201.781458 142.566967 
L 202.785959 141.721626 
L 203.790459 138.228786 
L 205.79946 125.260691 
L 206.80396 119.724169 
L 207.808461 119.854222 
L 208.812961 121.331247 
L 209.817462 123.384219 
L 210.821962 125.706586 
L 213.835464 135.349052 
L 214.839964 135.451236 
L 215.844464 136.24084 
L 216.848965 137.206945 
L 218.857966 133.918474 
L 219.862466 132.692264 
L 220.866967 129.515267 
L 221.871467 128.874294 
L 222.875968 125.139928 
L 223.880468 124.341034 
L 224.884968 120.393011 
L 225.889469 119.631275 
L 226.893969 119.696301 
L 227.89847 121.44272 
L 228.90297 122.938325 
L 229.907471 126.161769 
L 230.911971 127.267216 
L 231.916472 129.784661 
L 232.920972 130.769345 
L 233.925473 131.085187 
L 234.929973 129.580293 
L 235.934473 128.892873 
L 236.938974 128.567741 
L 237.943474 127.666663 
L 238.947975 129.069372 
L 239.952475 127.044269 
L 240.956976 125.409323 
L 241.961476 124.712613 
L 242.965977 122.891877 
L 243.970477 122.250904 
L 244.974977 121.256931 
L 245.979478 120.560221 
L 246.983978 123.867271 
L 247.988479 126.301111 
L 249.99748 129.784661 
L 252.006481 131.094476 
L 253.010981 131.428897 
L 254.015482 131.001581 
L 255.019982 131.326713 
L 256.024482 129.580293 
L 257.028983 128.428399 
L 258.033483 128.0754 
L 259.037984 125.242112 
L 260.042484 124.40606 
L 261.046985 123.811534 
L 262.051485 123.830113 
L 263.055986 124.23885 
L 264.060486 124.898402 
L 265.064986 124.145955 
L 266.069487 129.385214 
L 267.073987 132.088449 
L 268.078488 133.407553 
L 269.082988 135.711341 
L 270.087489 136.584551 
L 271.091989 137.141919 
L 272.09649 137.076892 
L 273.10099 139.009101 
L 274.105491 139.975206 
L 275.109991 141.359336 
L 276.114491 142.251125 
L 277.118992 142.669151 
L 278.123492 143.923229 
L 279.127993 146.431385 
L 280.132493 147.202411 
L 281.136994 149.422593 
L 282.141494 153.045485 
L 284.150495 164.360055 
L 286.159496 173.036417 
L 287.163996 177.309571 
L 289.172997 188.791352 
L 291.181998 198.322344 
L 293.190999 209.051678 
L 294.1955 216.232436 
L 295.2 221.583168 
L 296.2045 228.262295 
L 297.209001 234.08679 
L 298.213501 242.419442 
L 299.218002 246.61828 
L 300.222502 253.576091 
L 304.240504 277.803019 
L 305.245005 282.754305 
L 306.249505 286.154249 
L 307.254005 290.018667 
L 309.263006 296.614189 
L 310.267507 299.38245 
L 311.272007 301.073132 
L 312.276508 304.473077 
L 313.281008 306.293813 
L 314.285509 308.393232 
L 315.290009 309.489389 
L 316.294509 312.136887 
L 317.29901 313.576754 
L 319.308011 317.255383 
L 320.312511 318.593066 
L 322.321512 322.596826 
L 323.326013 323.795167 
L 324.330513 325.355798 
L 326.339514 326.414797 
L 329.353015 329.693978 
L 330.357516 329.814741 
L 331.362016 330.437136 
L 332.366517 331.208161 
L 333.371017 331.421819 
L 334.375518 332.499397 
L 335.380018 333.066055 
L 336.384518 333.883528 
L 337.389019 333.874238 
L 338.393519 334.589527 
L 339.39802 335.657816 
L 340.40252 336.930473 
L 341.407021 337.515709 
L 342.411521 337.943025 
L 343.416022 338.156682 
L 344.420522 338.184551 
L 345.425023 338.806945 
L 346.429523 339.039182 
L 347.434023 339.085629 
L 348.438524 338.89984 
L 350.447525 339.06705 
L 351.452025 338.946287 
L 352.456526 339.224971 
L 353.461026 340.033155 
L 354.465527 338.936998 
L 355.470027 339.029892 
L 356.474527 340.395444 
L 357.479028 340.265391 
L 358.483528 340.63697 
L 362.50153 341.389417 
L 364.510531 341.15718 
L 365.515032 341.445153 
L 366.519532 341.342969 
L 367.524032 340.80418 
L 368.528533 340.98997 
L 369.533033 341.695969 
L 370.537534 341.110733 
L 371.542034 341.658811 
L 372.546535 341.835311 
L 373.551035 342.160442 
L 374.555536 342.810705 
L 375.560036 343.303047 
L 376.564536 343.24731 
L 377.569037 343.061521 
L 378.573537 343.646757 
L 379.578038 343.702494 
L 380.582538 343.535283 
L 381.587039 343.210152 
L 382.591539 343.349494 
L 383.59604 342.439126 
L 384.60054 342.38339 
L 385.605041 341.983942 
L 386.609541 342.745679 
L 387.614041 342.457705 
L 388.618542 341.983942 
L 389.623042 342.532021 
L 391.632043 342.671363 
L 392.636544 343.07081 
L 393.641044 344.352756 
L 395.650045 343.015073 
L 396.654545 344.157678 
L 397.659046 344.733625 
L 398.663546 344.315599 
L 400.672547 344.510677 
L 401.677048 343.470257 
L 403.686049 343.293757 
L 404.690549 342.699231 
L 405.69505 343.823257 
L 406.69955 343.098678 
L 407.70405 343.145126 
L 408.708551 343.990467 
L 409.713051 343.823257 
L 410.717552 344.473519 
L 411.722052 343.971888 
L 412.726553 344.547835 
L 413.731053 345.263124 
L 414.735554 345.133072 
L 415.740054 344.371335 
L 416.744554 345.439624 
L 418.753555 344.566414 
L 420.762556 344.854388 
L 421.767057 343.832546 
L 422.771557 343.516704 
L 423.776058 343.637468 
L 424.780558 342.773547 
L 425.785059 343.479547 
L 426.789559 343.60031 
L 427.794059 343.219442 
L 428.79856 343.758231 
L 429.80306 344.445651 
L 430.807561 344.501388 
L 431.812061 344.269151 
L 432.816562 344.715046 
L 433.821062 344.157678 
L 434.825563 345.021598 
L 435.830063 344.789361 
L 436.834563 343.618889 
L 437.839064 344.603572 
L 438.843564 343.154415 
L 439.848065 343.293757 
L 440.852565 341.863179 
L 441.857066 341.723837 
L 442.861566 342.346232 
L 443.866067 342.299784 
L 444.870567 342.457705 
L 445.875068 343.182284 
L 446.879568 342.782837 
L 447.884068 343.284468 
L 448.888569 343.544573 
L 449.893069 343.451678 
L 450.89757 343.730362 
L 451.90207 343.748941 
L 452.906571 343.228731 
L 453.911071 343.563152 
L 454.915572 343.117257 
L 455.920072 343.117257 
L 456.924572 342.3741 
L 457.929073 342.225469 
L 458.933573 341.714548 
L 459.938074 341.603074 
L 460.942574 341.064285 
L 461.947075 341.352259 
L 462.951575 342.1976 
L 463.956076 342.5506 
L 464.960576 342.346232 
L 465.965077 342.838573 
L 466.969577 343.479547 
L 467.974077 343.656046 
L 468.978578 342.54131 
L 469.983078 343.563152 
L 470.987579 342.819994 
L 471.992079 342.950047 
L 472.99658 342.262626 
L 474.00108 341.129312 
L 475.005581 341.342969 
L 476.010081 341.101443 
L 477.014581 340.655549 
L 479.023582 341.240785 
L 480.028083 341.027127 
L 481.032583 341.352259 
L 482.037084 342.299784 
L 483.041584 341.863179 
L 484.046085 341.974653 
L 485.050585 343.172994 
L 488.064086 342.336942 
L 489.068587 342.513442 
L 491.077588 342.532021 
L 492.082088 342.20689 
L 494.091089 340.832049 
L 496.10009 340.330417 
L 498.109091 340.618391 
L 498.109091 340.618391 
" clip-path="url(#p7d7f4def1a)" style="fill: none; stroke: #008000; stroke-width: 1.5; stroke-linecap: square"/>
   </g>
   <g id="line2d_40">
    <path d="M 92.290909 339.392181 
L 93.29541 337.162709 
L 94.29991 339.568681 
L 95.30441 338.621156 
L 98.317912 337.014078 
L 99.322412 336.298789 
L 100.326913 335.351263 
L 101.331413 334.701001 
L 102.335914 332.80595 
L 103.340414 332.034924 
L 104.344914 330.948056 
L 105.349415 329.015847 
L 106.353915 329.071584 
L 107.358416 327.213691 
L 108.362916 326.201139 
L 109.367417 324.863456 
L 110.371917 323.720852 
L 112.380918 320.051512 
L 113.385419 319.373381 
L 114.389919 317.329699 
L 115.394419 314.886569 
L 116.39892 314.069096 
L 117.40342 312.638518 
L 118.407921 311.468045 
L 119.412421 307.975206 
L 120.416922 308.170285 
L 121.421422 308.681205 
L 122.425923 307.650075 
L 124.434923 303.767078 
L 126.443924 297.087951 
L 127.448425 291.049798 
L 130.461926 283.841172 
L 131.466427 282.150489 
L 132.470927 279.660912 
L 133.475428 276.000863 
L 135.484428 271.987813 
L 136.488929 268.959447 
L 137.493429 268.160553 
L 138.49793 265.977528 
L 139.50243 267.305922 
L 140.506931 267.454553 
L 141.511431 264.20324 
L 143.520432 260.710401 
L 144.524932 257.663456 
L 145.529433 253.724722 
L 146.533933 248.373989 
L 147.538434 240.208549 
L 148.542934 230.872635 
L 149.547435 227.045375 
L 150.551935 222.400641 
L 151.556436 219.409433 
L 153.565437 211.225413 
L 154.569937 207.686127 
L 155.574437 205.577418 
L 156.578938 207.398153 
L 157.583438 208.726547 
L 158.587939 206.738601 
L 159.592439 203.663788 
L 160.59694 203.61734 
L 162.605941 196.204346 
L 163.610441 192.65577 
L 164.614941 187.026353 
L 165.619442 184.202356 
L 167.628443 164.490108 
L 168.632943 161.043716 
L 169.637444 159.668875 
L 170.641944 154.596826 
L 171.646445 152.78538 
L 172.650945 152.766801 
L 173.655446 151.902881 
L 174.659946 156.686956 
L 176.668947 163.143135 
L 177.673447 163.105977 
L 178.677948 164.480818 
L 179.682448 164.146398 
L 180.686949 163.356793 
L 181.691449 164.267161 
L 182.69595 162.307083 
L 183.70045 158.35906 
L 184.70495 152.246591 
L 185.709451 145.000807 
L 186.713951 138.618944 
L 187.718452 137.327708 
L 188.722952 136.668156 
L 189.727453 135.37692 
L 190.731953 138.451733 
L 191.736454 145.400254 
L 193.745455 150.537329 
L 194.749955 153.760774 
L 195.754455 156.464009 
L 196.758956 157.002798 
L 197.763456 157.671639 
L 198.767957 156.863456 
L 199.772457 155.730141 
L 200.776958 155.795167 
L 201.781458 152.553143 
L 202.785959 145.465281 
L 203.790459 135.832104 
L 204.794959 127.796716 
L 205.79946 125.381454 
L 206.80396 126.598374 
L 207.808461 128.289057 
L 208.812961 128.874294 
L 209.817462 132.023423 
L 210.821962 134.726657 
L 211.826463 137.773602 
L 212.830963 142.018889 
L 213.835464 143.505203 
L 214.839964 145.325939 
L 215.844464 145.892596 
L 216.848965 143.635256 
L 217.853465 143.189361 
L 218.857966 138.293813 
L 219.862466 135.116815 
L 220.866967 126.942085 
L 221.871467 121.925773 
L 222.875968 115.53462 
L 223.880468 111.70736 
L 224.884968 110.546176 
L 225.889469 111.586597 
L 226.893969 113.481648 
L 227.89847 117.736223 
L 228.90297 120.987537 
L 229.907471 125.093481 
L 230.911971 126.877058 
L 231.916472 129.589583 
L 233.925473 132.051291 
L 234.929973 131.345292 
L 236.938974 127.694531 
L 237.943474 124.92627 
L 238.947975 119.724169 
L 239.952475 113.4352 
L 240.956976 104.442997 
L 242.965977 97.522344 
L 243.970477 98.832159 
L 244.974977 98.154028 
L 247.988479 111.772386 
L 248.992979 116.993066 
L 249.99748 120.439458 
L 251.00198 119.872801 
L 252.006481 122.576035 
L 253.010981 121.340536 
L 254.015482 121.470589 
L 255.019982 121.377694 
L 256.024482 117.253171 
L 257.028983 114.326989 
L 260.042484 93.026243 
L 261.046985 90.016456 
L 263.055986 94.317479 
L 265.064986 102.696577 
L 266.069487 107.796494 
L 268.078488 113.27728 
L 269.082988 115.060857 
L 270.087489 115.488173 
L 271.091989 113.899674 
L 272.09649 115.562488 
L 273.10099 114.150489 
L 274.105491 113.658148 
L 275.109991 111.930307 
L 276.114491 104.963207 
L 277.118992 100.420658 
L 278.123492 94.1224 
L 279.127993 92.775427 
L 280.132493 92.998374 
L 281.136994 97.875344 
L 282.141494 104.294365 
L 283.145995 108.762599 
L 285.154995 119.510511 
L 286.159496 121.953641 
L 287.163996 126.514769 
L 288.168497 129.793951 
L 289.172997 130.462792 
L 290.177498 131.865502 
L 291.181998 135.367631 
L 292.186499 136.844656 
L 293.190999 135.479104 
L 294.1955 133.361106 
L 295.2 130.899397 
L 296.2045 131.670423 
L 297.209001 133.853448 
L 298.213501 141.266442 
L 299.218002 147.146674 
L 300.222502 157.903876 
L 301.227003 165.892817 
L 302.231503 176.28773 
L 305.245005 199.734343 
L 307.254005 211.327597 
L 308.258506 218.805618 
L 309.263006 224.973824 
L 311.272007 234.662737 
L 312.276508 237.523893 
L 313.281008 239.028786 
L 314.285509 241.852784 
L 315.290009 247.268543 
L 316.294509 250.752093 
L 317.29901 255.32251 
L 319.308011 268.281316 
L 320.312511 273.121128 
L 321.317012 278.992071 
L 322.321512 282.048305 
L 324.330513 288.820326 
L 326.339514 292.814797 
L 328.348515 295.936058 
L 329.353015 295.462295 
L 330.357516 296.428399 
L 331.362016 293.929533 
L 332.366517 296.381952 
L 333.371017 295.8989 
L 335.380018 301.128869 
L 336.384518 304.296577 
L 337.389019 306.944075 
L 338.393519 308.337495 
L 339.39802 310.724888 
L 341.407021 313.47457 
L 342.411521 314.394227 
L 343.416022 314.487122 
L 344.420522 315.657595 
L 345.425023 316.521515 
L 346.429523 316.660857 
L 347.434023 315.443937 
L 348.438524 312.880044 
L 349.443024 311.625966 
L 350.447525 311.365861 
L 352.456526 311.133625 
L 353.461026 312.378413 
L 354.465527 312.350545 
L 355.470027 314.505701 
L 356.474527 315.759779 
L 357.479028 318.110014 
L 358.483528 318.574487 
L 359.488029 319.39196 
L 360.492529 320.43238 
L 361.49703 319.875012 
L 362.50153 317.803461 
L 363.506031 316.326436 
L 364.510531 315.7412 
L 365.515032 315.453226 
L 366.519532 315.434647 
L 367.524032 315.704042 
L 368.528533 315.620437 
L 369.533033 315.964147 
L 370.537534 317.65483 
L 372.546535 319.856434 
L 373.551035 321.296301 
L 374.555536 321.574985 
L 376.564536 323.813746 
L 377.569037 323.191352 
L 379.578038 324.213193 
L 380.582538 322.290274 
L 381.587039 320.005065 
L 382.591539 317.153199 
L 383.59604 316.939541 
L 384.60054 316.549383 
L 385.605041 316.521515 
L 386.609541 317.208936 
L 387.614041 316.112779 
L 388.618542 318.435145 
L 389.623042 318.992513 
L 390.627543 319.336223 
L 391.632043 321.584274 
L 392.636544 322.3553 
L 393.641044 324.333956 
L 394.645545 324.464009 
L 395.650045 323.758009 
L 396.654545 325.392955 
L 397.659046 324.891324 
L 398.663546 325.588034 
L 399.668047 324.44543 
L 400.672547 322.624694 
L 401.677048 320.144407 
L 402.681548 318.212198 
L 403.686049 317.459751 
L 404.690549 317.088173 
L 405.69505 317.227515 
L 406.69955 317.626962 
L 407.70405 318.955355 
L 408.708551 320.60888 
L 409.713051 321.760774 
L 412.726553 324.491877 
L 414.735554 325.207166 
L 415.740054 324.974929 
L 416.744554 326.00606 
L 417.749055 325.262903 
L 418.753555 324.203904 
L 419.758056 320.506696 
L 420.762556 319.382671 
L 421.767057 317.83133 
L 422.771557 317.747725 
L 423.776058 318.760276 
L 424.780558 318.862461 
L 425.785059 318.769566 
L 426.789559 320.348775 
L 427.794059 321.454222 
L 428.79856 323.256378 
L 429.80306 324.018114 
L 432.816562 325.680929 
L 433.821062 324.78914 
L 434.825563 324.807719 
L 435.830063 324.343246 
L 436.834563 322.541089 
L 437.839064 319.679934 
L 438.843564 318.52804 
L 439.848065 318.834592 
L 440.852565 318.044988 
L 441.857066 317.691988 
L 442.861566 318.463014 
L 443.866067 319.001803 
L 445.875068 322.615405 
L 446.879568 322.912668 
L 447.884068 323.980957 
L 448.888569 324.696246 
L 449.893069 325.625192 
L 451.90207 325.290771 
L 452.906571 325.300061 
L 453.911071 324.584772 
L 454.915572 322.271695 
L 455.920072 319.614907 
L 456.924572 318.946066 
L 457.929073 318.119303 
L 458.933573 318.583777 
L 459.938074 318.110014 
L 460.942574 317.896356 
L 461.947075 319.447697 
L 462.951575 319.40125 
L 463.956076 322.5318 
L 465.965077 324.937772 
L 466.969577 324.603351 
L 467.974077 325.225745 
L 468.978578 325.578745 
L 469.983078 325.448692 
L 470.987579 325.653061 
L 471.992079 324.584772 
L 472.99658 321.036196 
L 474.00108 318.18433 
L 475.005581 318.110014 
L 476.010081 317.664119 
L 477.014581 316.521515 
L 478.019082 317.515488 
L 480.028083 320.971169 
L 482.037084 323.655825 
L 483.041584 324.10172 
L 485.050585 326.786375 
L 486.055086 326.098955 
L 487.059586 326.433376 
L 488.064086 326.582007 
L 489.068587 326.108244 
L 490.073087 325.197877 
L 491.077588 323.172773 
L 492.082088 322.52251 
L 493.086589 319.40125 
L 495.09559 316.159226 
L 496.10009 317.153199 
L 497.10459 317.803461 
L 498.109091 318.908908 
L 498.109091 318.908908 
" clip-path="url(#p7d7f4def1a)" style="fill: none; stroke: #008000; stroke-width: 1.5; stroke-linecap: square"/>
   </g>
   <g id="line2d_41">
    <path d="M 92.290909 327.343743 
L 93.29541 332.740923 
L 94.29991 335.741421 
L 95.30441 335.184053 
L 96.308911 335.184053 
L 97.313411 334.626685 
L 98.317912 334.905369 
L 99.322412 334.19937 
L 100.326913 333.038186 
L 101.331413 332.304318 
L 103.340414 328.356295 
L 104.344914 327.213691 
L 106.353915 323.74872 
L 107.358416 323.423589 
L 111.376418 316.79091 
L 112.380918 315.063069 
L 113.385419 314.310622 
L 115.394419 309.925994 
L 116.39892 308.792679 
L 117.40342 306.098734 
L 118.407921 304.287288 
L 119.412421 302.800973 
L 120.416922 300.93379 
L 121.421422 300.404291 
L 122.425923 300.738712 
L 124.434923 296.456268 
L 125.439424 293.084191 
L 127.448425 284.779408 
L 128.452925 282.679989 
L 130.461926 276.325994 
L 131.466427 274.718916 
L 133.475428 269.154526 
L 134.479928 264.946398 
L 135.484428 262.921294 
L 136.488929 259.595665 
L 137.493429 259.261244 
L 138.49793 257.979298 
L 139.50243 258.666718 
L 140.506931 257.635588 
L 141.511431 256.084247 
L 142.515932 253.650406 
L 144.524932 247.955964 
L 145.529433 242.902494 
L 146.533933 234.133237 
L 147.538434 223.775482 
L 149.547435 214.885463 
L 150.551935 212.126492 
L 151.556436 207.713995 
L 152.560936 204.84355 
L 153.565437 200.598264 
L 154.569937 195.572662 
L 155.574437 193.835532 
L 156.578938 194.244269 
L 157.583438 197.254056 
L 158.587939 194.560111 
L 159.592439 193.148112 
L 160.59694 189.664562 
L 161.60144 187.397932 
L 162.605941 183.171225 
L 163.610441 179.93849 
L 166.623942 152.590301 
L 167.628443 149.524777 
L 168.632943 147.871252 
L 169.637444 144.564202 
L 170.641944 140.690495 
L 171.646445 138.730417 
L 172.650945 138.247365 
L 173.655446 137.216234 
L 174.659946 140.644048 
L 175.664446 144.527045 
L 176.668947 148.883804 
L 177.673447 149.970672 
L 178.677948 149.552646 
L 179.682448 149.989251 
L 180.686949 148.521515 
L 181.691449 147.796937 
L 182.69595 141.749494 
L 183.70045 133.351816 
L 184.70495 126.263954 
L 185.709451 121.033984 
L 186.713951 121.749273 
L 187.718452 121.219773 
L 188.722952 120.968958 
L 189.727453 119.027459 
L 190.731953 123.830113 
L 191.736454 129.914714 
L 192.740954 131.72616 
L 193.745455 136.983998 
L 194.749955 137.98726 
L 195.754455 140.411811 
L 196.758956 141.777362 
L 197.763456 142.455494 
L 199.772457 138.953365 
L 200.776958 135.72992 
L 201.781458 129.050793 
L 202.785959 115.87833 
L 203.790459 110.82486 
L 204.794959 110.30465 
L 205.79946 109.487177 
L 206.80396 110.063124 
L 207.808461 111.103544 
L 208.812961 110.546176 
L 209.817462 113.119359 
L 210.821962 118.358618 
L 211.826463 121.637799 
L 212.830963 127.155742 
L 213.835464 127.332242 
L 214.839964 129.375925 
L 215.844464 130.304871 
L 216.848965 127.387979 
L 217.853465 125.669428 
L 218.857966 119.761327 
L 220.866967 101.358894 
L 221.871467 97.475897 
L 222.875968 92.933348 
L 223.880468 94.048084 
L 224.884968 92.54319 
L 225.889469 92.989085 
L 226.893969 94.605452 
L 227.89847 100.662184 
L 229.907471 107.545679 
L 230.911971 109.078441 
L 231.916472 112.40407 
L 232.920972 113.890384 
L 233.925473 115.590357 
L 234.929973 114.094753 
L 235.934473 110.100282 
L 237.943474 100.847973 
L 238.947975 90.880376 
L 239.952475 85.566801 
L 240.956976 77.633597 
L 241.961476 77.735781 
L 242.965977 78.44178 
L 243.970477 80.160332 
L 244.974977 80.281095 
L 246.983978 91.493481 
L 247.988479 94.577584 
L 249.99748 104.610207 
L 251.00198 104.275787 
L 252.006481 106.449522 
L 253.010981 105.288338 
L 254.015482 103.718419 
L 255.019982 103.198208 
L 256.024482 96.258977 
L 257.028983 87.248195 
L 258.033483 77.048361 
L 259.037984 71.103102 
L 260.042484 66.96 
L 261.046985 69.319524 
L 262.051485 70.889444 
L 263.055986 72.821653 
L 264.060486 80.206779 
L 265.064986 84.665723 
L 267.073987 94.707636 
L 268.078488 98.804291 
L 269.082988 99.370948 
L 270.087489 102.167078 
L 271.091989 101.572552 
L 272.09649 101.247421 
L 273.10099 101.349605 
L 274.105491 96.156793 
L 277.118992 78.581122 
L 278.123492 76.00794 
L 279.127993 79.370727 
L 280.132493 84.675012 
L 281.136994 91.242665 
L 282.141494 100.160553 
L 283.145995 107.554968 
L 285.154995 119.947116 
L 286.159496 127.146453 
L 287.163996 132.822317 
L 288.168497 136.844656 
L 289.172997 142.204678 
L 291.181998 149.710567 
L 292.186499 151.652065 
L 293.190999 149.877777 
L 294.1955 149.051015 
L 295.2 151.40125 
L 296.2045 158.349771 
L 297.209001 168.215184 
L 298.213501 176.845098 
L 301.227003 213.343412 
L 303.236004 232.489002 
L 304.240504 239.623312 
L 306.249505 251.393066 
L 307.254005 256.595167 
L 308.258506 259.967244 
L 309.263006 266.144739 
L 310.267507 267.073685 
L 311.272007 266.12616 
L 312.276508 265.708134 
L 313.281008 267.742527 
L 314.285509 268.420658 
L 315.290009 272.294365 
L 317.29901 278.397545 
L 318.30351 283.441725 
L 320.312511 291.941587 
L 321.317012 294.663401 
L 322.321512 298.67645 
L 323.326013 300.655106 
L 324.330513 301.63979 
L 326.339514 304.798208 
L 327.344014 305.392734 
L 328.348515 304.733182 
L 329.353015 301.695527 
L 330.357516 300.571501 
L 331.362016 300.190633 
L 332.366517 301.166027 
L 333.371017 301.779132 
L 334.375518 303.943578 
L 337.389019 312.592071 
L 338.393519 313.158728 
L 339.39802 314.580017 
L 340.40252 316.874515 
L 341.407021 318.044988 
L 343.416022 318.500171 
L 344.420522 318.983224 
L 345.425023 319.103987 
L 346.429523 317.877777 
L 347.434023 315.193121 
L 348.438524 312.972939 
L 349.443024 311.709571 
L 350.447525 311.133625 
L 352.456526 311.91394 
L 353.461026 313.12157 
L 354.465527 313.270202 
L 355.470027 314.580017 
L 356.474527 316.679436 
L 357.479028 318.128593 
L 359.488029 319.587039 
L 360.492529 319.74496 
L 361.49703 319.512723 
L 362.50153 317.032436 
L 364.510531 313.939043 
L 365.515032 314.86799 
L 367.524032 315.351042 
L 368.528533 315.072358 
L 369.533033 315.722621 
L 370.537534 317.710567 
L 371.542034 318.946066 
L 372.546535 321.119801 
L 373.551035 322.52251 
L 375.560036 324.510456 
L 377.569037 324.259641 
L 378.573537 324.956351 
L 379.578038 324.380404 
L 380.582538 320.664617 
L 381.587039 317.775593 
L 382.591539 316.920962 
L 383.59604 316.61441 
L 384.60054 317.450462 
L 385.605041 317.116041 
L 386.609541 317.496909 
L 387.614041 318.360829 
L 388.618542 320.09796 
L 390.627543 321.816511 
L 391.632043 322.364589 
L 392.636544 324.333956 
L 393.641044 325.615903 
L 394.645545 326.01535 
L 395.650045 325.671639 
L 396.654545 326.117534 
L 397.659046 325.913166 
L 398.663546 326.396218 
L 399.668047 324.157456 
L 400.672547 321.277722 
L 401.677048 319.540592 
L 402.681548 318.964645 
L 403.686049 319.373381 
L 404.690549 318.713829 
L 405.69505 318.750987 
L 406.69955 319.856434 
L 407.70405 320.60888 
L 409.713051 323.999536 
L 410.717552 324.96564 
L 411.722052 325.030666 
L 412.726553 326.935007 
L 413.731053 326.823533 
L 414.735554 327.343743 
L 415.740054 326.869981 
L 417.749055 326.377639 
L 419.758056 320.376644 
L 420.762556 319.930749 
L 421.767057 319.92146 
L 422.771557 319.642776 
L 423.776058 319.819276 
L 424.780558 320.358065 
L 425.785059 321.472801 
L 426.789559 322.048748 
L 428.79856 324.333956 
L 429.80306 325.123561 
L 430.807561 326.777086 
L 431.812061 326.470534 
L 432.816562 327.065059 
L 433.821062 326.238297 
L 434.825563 326.563428 
L 436.834563 321.259143 
L 437.839064 320.070091 
L 438.843564 319.91217 
L 439.848065 320.153696 
L 441.857066 319.865723 
L 442.861566 320.497407 
L 443.866067 320.906143 
L 444.870567 321.937274 
L 445.875068 323.767299 
L 447.884068 325.030666 
L 448.888569 326.294034 
L 449.893069 326.786375 
L 450.89757 326.665612 
L 451.90207 326.052508 
L 452.906571 324.566193 
L 453.911071 323.850904 
L 454.915572 320.989748 
L 455.920072 320.190854 
L 456.924572 320.44167 
L 457.929073 320.190854 
L 458.933573 319.540592 
L 459.938074 319.494144 
L 460.942574 319.828565 
L 461.947075 319.856434 
L 462.951575 320.367354 
L 463.956076 323.284247 
L 464.960576 324.464009 
L 465.965077 325.244324 
L 466.969577 327.009323 
L 467.974077 326.87927 
L 468.978578 327.176533 
L 469.983078 327.288007 
L 470.987579 326.173271 
L 471.992079 324.519746 
L 472.99658 319.995776 
L 474.00108 319.466276 
L 475.005581 319.652065 
L 476.010081 318.630224 
L 477.014581 319.679934 
L 478.019082 319.029671 
L 479.023582 320.005065 
L 481.032583 323.470036 
L 482.037084 324.705535 
L 483.041584 326.312613 
L 484.046085 326.981454 
L 485.050585 328.198374 
L 486.055086 328.012585 
L 487.059586 327.548112 
L 488.064086 327.380901 
L 489.068587 327.074349 
L 490.073087 325.104982 
L 491.077588 321.695748 
L 492.082088 319.447697 
L 493.086589 318.054277 
L 494.091089 317.914935 
L 495.09559 317.65483 
L 496.10009 318.388698 
L 497.10459 319.438408 
L 498.109091 320.218723 
L 498.109091 320.218723 
" clip-path="url(#p7d7f4def1a)" style="fill: none; stroke: #008000; stroke-width: 1.5; stroke-linecap: square"/>
   </g>
   <g id="line2d_42">
    <path d="M 92.290909 329.461742 
L 93.29541 333.567686 
L 94.29991 336.484578 
L 95.30441 337.060525 
L 96.308911 336.503157 
L 98.317912 335.657816 
L 99.322412 335.945789 
L 100.326913 334.162212 
L 101.331413 333.66987 
L 102.335914 331.607609 
L 103.340414 331.040951 
L 106.353915 326.405507 
L 107.358416 325.430113 
L 108.362916 322.894089 
L 109.367417 321.890827 
L 110.371917 319.466276 
L 111.376418 318.388698 
L 112.380918 316.670147 
L 113.385419 315.592568 
L 114.389919 312.722123 
L 115.394419 311.690993 
L 116.39892 310.223257 
L 117.40342 308.040232 
L 118.407921 304.77963 
L 119.412421 303.822814 
L 120.416922 303.274736 
L 121.421422 303.423367 
L 123.430423 299.986265 
L 124.434923 297.682477 
L 126.443924 289.767852 
L 127.448425 285.09525 
L 128.452925 283.367409 
L 129.457426 279.493702 
L 130.461926 279.280044 
L 131.466427 275.8801 
L 132.470927 272.024971 
L 134.479928 268.374211 
L 135.484428 264.082477 
L 136.488929 261.806558 
L 137.493429 260.89619 
L 138.49793 260.496743 
L 139.50243 261.24919 
L 140.506931 261.620769 
L 141.511431 258.963981 
L 142.515932 257.198983 
L 143.520432 253.873354 
L 144.524932 251.049356 
L 145.529433 245.75436 
L 146.533933 234.913553 
L 147.538434 227.6399 
L 148.542934 222.465668 
L 149.547435 220.51488 
L 150.551935 215.591463 
L 153.565437 204.862129 
L 154.569937 200.997711 
L 155.574437 200.821211 
L 156.578938 199.715764 
L 157.583438 202.669815 
L 158.587939 201.731579 
L 159.592439 197.114714 
L 160.59694 197.384108 
L 161.60144 194.234979 
L 162.605941 188.633431 
L 163.610441 185.252065 
L 164.614941 174.1976 
L 166.623942 156.26893 
L 167.628443 151.587039 
L 170.641944 145.446702 
L 171.646445 142.678441 
L 172.650945 140.894863 
L 173.655446 140.662626 
L 174.659946 147.499674 
L 175.664446 151.466276 
L 176.668947 154.290274 
L 177.673447 155.330694 
L 178.677948 155.767299 
L 179.682448 153.175538 
L 180.686949 151.419829 
L 181.691449 151.809986 
L 183.70045 132.395001 
L 184.70495 125.10277 
L 185.709451 125.474349 
L 187.718452 126.654111 
L 188.722952 124.452508 
L 189.727453 123.19843 
L 190.731953 125.827349 
L 191.736454 133.964921 
L 192.740954 138.042997 
L 193.745455 140.820547 
L 194.749955 144.136887 
L 195.754455 145.242333 
L 196.758956 146.69149 
L 197.763456 146.412806 
L 198.767957 145.864728 
L 199.772457 142.669151 
L 200.776958 138.405286 
L 201.781458 128.781399 
L 202.785959 116.22204 
L 203.790459 113.379464 
L 204.794959 112.413359 
L 205.79946 114.011147 
L 206.80396 113.463069 
L 207.808461 113.741753 
L 208.812961 115.52533 
L 209.817462 118.052065 
L 210.821962 122.659641 
L 211.826463 127.852452 
L 212.830963 129.914714 
L 213.835464 133.779132 
L 214.839964 132.441449 
L 215.844464 134.262184 
L 217.853465 130.026187 
L 218.857966 122.241615 
L 219.862466 109.700835 
L 220.866967 101.396052 
L 221.871467 96.927819 
L 223.880468 96.630556 
L 224.884968 95.822372 
L 225.889469 96.02674 
L 226.893969 97.996107 
L 227.89847 103.560498 
L 228.90297 105.492707 
L 229.907471 110.741255 
L 230.911971 113.899674 
L 231.916472 116.435698 
L 232.920972 117.97775 
L 233.925473 118.191407 
L 234.929973 117.160276 
L 235.934473 113.751042 
L 236.938974 107.917257 
L 238.947975 88.855272 
L 239.952475 83.922566 
L 240.956976 80.931357 
L 241.961476 82.473409 
L 242.965977 79.733016 
L 243.970477 82.464119 
L 244.974977 83.829671 
L 246.983978 93.667216 
L 247.988479 97.187924 
L 248.992979 101.684025 
L 249.99748 107.833652 
L 251.00198 107.00689 
L 252.006481 108.428178 
L 253.010981 108.790467 
L 254.015482 106.505259 
L 255.019982 103.653392 
L 256.024482 90.248692 
L 257.028983 81.22862 
L 258.033483 74.1036 
L 259.037984 71.31676 
L 260.042484 70.973049 
L 261.046985 71.251733 
L 262.051485 73.685574 
L 263.055986 73.982837 
L 264.060486 84.071197 
L 265.064986 87.85201 
L 266.069487 95.042057 
L 268.078488 102.64084 
L 269.082988 104.684523 
L 270.087489 105.26047 
L 271.091989 104.888891 
L 272.09649 105.632049 
L 273.10099 103.198208 
L 275.109991 90.676008 
L 276.114491 82.529146 
L 277.118992 81.219331 
L 278.123492 77.856544 
L 279.127993 85.492485 
L 280.132493 89.031772 
L 281.136994 96.584108 
L 282.141494 105.882864 
L 283.145995 113.258701 
L 284.150495 119.287564 
L 285.154995 124.396771 
L 286.159496 132.339265 
L 287.163996 138.563207 
L 288.168497 142.873519 
L 289.172997 148.893094 
L 290.177498 153.287011 
L 291.181998 155.497904 
L 292.186499 155.367852 
L 293.190999 153.398485 
L 294.1955 155.209931 
L 295.2 158.925717 
L 296.2045 166.106475 
L 297.209001 174.689942 
L 298.213501 184.629671 
L 300.222502 209.646204 
L 302.231503 230.621819 
L 303.236004 239.437523 
L 304.240504 246.739043 
L 305.245005 251.792513 
L 307.254005 263.265004 
L 309.263006 270.417893 
L 310.267507 272.600918 
L 312.276508 270.956682 
L 313.281008 270.947393 
L 314.285509 272.749549 
L 315.290009 275.332021 
L 316.294509 279.419386 
L 317.29901 282.039016 
L 318.30351 286.32146 
L 319.308011 291.653613 
L 321.317012 298.825082 
L 322.321512 300.961659 
L 323.326013 303.525552 
L 324.330513 303.330473 
L 326.339514 307.445706 
L 327.344014 306.414576 
L 328.348515 303.432657 
L 329.353015 301.379685 
L 330.357516 301.398264 
L 331.362016 301.584053 
L 332.366517 303.432657 
L 333.371017 303.358341 
L 334.375518 305.745734 
L 335.380018 309.015626 
L 336.384518 311.226519 
L 337.389019 312.694255 
L 338.393519 315.471805 
L 341.407021 319.958618 
L 342.411521 320.562433 
L 343.416022 320.590301 
L 344.420522 321.008327 
L 345.425023 320.757512 
L 347.434023 315.806226 
L 348.438524 313.037965 
L 349.443024 313.065834 
L 350.447525 312.675676 
L 351.452025 312.852176 
L 352.456526 313.168018 
L 353.461026 314.765806 
L 354.465527 314.115543 
L 356.474527 317.859198 
L 357.479028 320.125828 
L 358.483528 320.488117 
L 359.488029 321.630722 
L 360.492529 321.993011 
L 361.49703 319.837855 
L 362.50153 317.208936 
L 363.506031 315.899121 
L 364.510531 316.307857 
L 365.515032 315.945568 
L 366.519532 316.475068 
L 367.524032 316.419331 
L 368.528533 316.670147 
L 369.533033 317.069594 
L 371.542034 320.627459 
L 372.546535 322.113774 
L 373.551035 324.194614 
L 374.555536 324.714824 
L 375.560036 325.634482 
L 376.564536 326.275455 
L 378.573537 325.476561 
L 379.578038 325.244324 
L 380.582538 321.537827 
L 381.587039 318.890329 
L 382.591539 318.091435 
L 383.59604 317.989251 
L 385.605041 319.670644 
L 386.609541 319.113276 
L 387.614041 319.837855 
L 389.623042 321.472801 
L 391.632043 324.919193 
L 392.636544 325.671639 
L 393.641044 327.325165 
L 394.645545 326.786375 
L 396.654545 327.362322 
L 398.663546 327.046481 
L 399.668047 324.594061 
L 400.672547 321.649301 
L 401.677048 320.655328 
L 402.681548 319.967907 
L 403.686049 320.497407 
L 404.690549 319.884302 
L 405.69505 319.977197 
L 406.69955 321.361327 
L 407.70405 321.519248 
L 408.708551 323.367852 
L 410.717552 326.024639 
L 411.722052 326.247586 
L 412.726553 327.706033 
L 415.740054 328.402743 
L 416.744554 328.124059 
L 417.749055 327.603848 
L 418.753555 323.934509 
L 419.758056 321.026906 
L 420.762556 321.370617 
L 422.771557 321.361327 
L 423.776058 321.695748 
L 424.780558 320.831827 
L 425.785059 322.810484 
L 426.789559 323.098457 
L 427.794059 323.841615 
L 429.80306 326.693481 
L 430.807561 326.665612 
L 431.812061 327.57598 
L 432.816562 327.631717 
L 433.821062 326.749218 
L 434.825563 325.235035 
L 435.830063 322.726879 
L 436.834563 321.231275 
L 437.839064 320.989748 
L 438.843564 321.166248 
L 439.848065 320.868985 
L 441.857066 321.370617 
L 442.861566 321.379906 
L 443.866067 322.271695 
L 444.870567 323.758009 
L 445.875068 324.835588 
L 446.879568 326.628455 
L 447.884068 326.860691 
L 448.888569 327.566691 
L 449.893069 328.003296 
L 451.90207 327.343743 
L 452.906571 326.35906 
L 453.911071 324.231772 
L 454.915572 321.509959 
L 455.920072 320.720354 
L 456.924572 320.868985 
L 457.929073 321.175538 
L 458.933573 319.726381 
L 459.938074 321.184827 
L 460.942574 320.859696 
L 461.947075 320.664617 
L 462.951575 322.429616 
L 463.956076 324.62193 
L 464.960576 325.931745 
L 465.965077 326.962875 
L 466.969577 327.278717 
L 467.974077 328.021874 
L 468.978578 328.059032 
L 469.983078 327.631717 
L 470.987579 326.647033 
L 471.992079 324.640509 
L 472.99658 319.856434 
L 474.00108 320.506696 
L 475.005581 320.776091 
L 476.010081 320.757512 
L 477.014581 320.032933 
L 478.019082 320.906143 
L 479.023582 321.435643 
L 480.028083 322.132353 
L 482.037084 326.294034 
L 483.041584 326.962875 
L 485.050585 328.709295 
L 486.055086 328.347006 
L 487.059586 328.10548 
L 488.064086 327.715322 
L 489.068587 327.492375 
L 491.077588 321.036196 
L 492.082088 319.522013 
L 493.086589 319.92146 
L 494.091089 318.732408 
L 495.09559 319.763539 
L 496.10009 318.955355 
L 497.10459 321.352038 
L 498.109091 321.807221 
L 498.109091 321.807221 
" clip-path="url(#p7d7f4def1a)" style="fill: none; stroke: #008000; stroke-width: 1.5; stroke-linecap: square"/>
   </g>
   <g id="line2d_43">
    <path d="M 92.290909 331.143135 
L 93.29541 335.146895 
L 94.29991 335.815737 
L 95.30441 336.735394 
L 96.308911 336.326657 
L 97.313411 336.568184 
L 98.317912 335.518474 
L 99.322412 335.555632 
L 100.326913 334.236528 
L 101.331413 333.354028 
L 102.335914 332.09995 
L 103.340414 331.040951 
L 104.344914 329.647531 
L 105.349415 327.241559 
L 106.353915 326.479823 
L 107.358416 326.451955 
L 109.367417 321.677169 
L 110.371917 318.908908 
L 111.376418 318.574487 
L 112.380918 317.097462 
L 113.385419 315.248858 
L 114.389919 312.991518 
L 115.394419 311.672414 
L 116.39892 309.359336 
L 118.407921 305.717866 
L 119.412421 304.027183 
L 120.416922 303.20042 
L 121.421422 303.943578 
L 122.425923 303.339762 
L 123.430423 300.24637 
L 124.434923 298.955134 
L 125.439424 294.486901 
L 126.443924 289.433431 
L 127.448425 285.216013 
L 128.452925 283.961935 
L 129.457426 281.760332 
L 132.470927 273.697075 
L 133.475428 271.746287 
L 134.479928 268.439237 
L 135.484428 265.559502 
L 136.488929 264.825635 
L 137.493429 261.657926 
L 138.49793 261.555742 
L 139.50243 263.227846 
L 140.506931 264.426187 
L 141.511431 261.277058 
L 142.515932 260.115875 
L 143.520432 255.034537 
L 144.524932 252.647144 
L 145.529433 245.763649 
L 146.533933 234.514106 
L 147.538434 228.160111 
L 148.542934 223.914824 
L 149.547435 222.307747 
L 150.551935 217.458645 
L 151.556436 213.780017 
L 152.560936 211.420492 
L 153.565437 206.162654 
L 154.569937 202.688394 
L 155.574437 200.245264 
L 156.578938 203.236472 
L 157.583438 205.298734 
L 158.587939 204.295471 
L 159.592439 202.131026 
L 160.59694 201.843052 
L 161.60144 198.062239 
L 163.610441 184.425303 
L 164.614941 168.150158 
L 165.619442 161.824031 
L 166.623942 158.19185 
L 167.628443 155.562931 
L 168.632943 151.522013 
L 169.637444 150.17504 
L 171.646445 145.511728 
L 172.650945 141.777362 
L 173.655446 139.38997 
L 174.659946 148.029173 
L 175.664446 152.701775 
L 176.668947 156.287509 
L 177.673447 156.287509 
L 178.677948 157.857429 
L 179.682448 157.179298 
L 180.686949 155.702273 
L 181.691449 151.354802 
L 182.69595 137.281261 
L 183.70045 128.753531 
L 184.70495 126.793453 
L 185.709451 128.186873 
L 186.713951 124.954139 
L 187.718452 127.415847 
L 188.722952 126.217506 
L 189.727453 124.285297 
L 190.731953 128.168294 
L 191.736454 135.934288 
L 192.740954 139.306364 
L 193.745455 142.186099 
L 194.749955 147.611147 
L 195.754455 150.110014 
L 196.758956 149.543356 
L 197.763456 149.970672 
L 198.767957 149.422593 
L 199.772457 143.598098 
L 200.776958 136.42663 
L 201.781458 122.882588 
L 202.785959 116.955908 
L 203.790459 114.810041 
L 204.794959 115.413857 
L 206.80396 113.79749 
L 207.808461 115.042278 
L 208.812961 115.785435 
L 209.817462 118.693038 
L 211.826463 128.837136 
L 212.830963 133.407553 
L 213.835464 136.268709 
L 214.839964 137.773602 
L 215.844464 137.049024 
L 216.848965 135.38621 
L 217.853465 129.80324 
L 219.862466 102.529367 
L 220.866967 101.070921 
L 222.875968 99.408106 
L 223.880468 100.0305 
L 224.884968 98.051844 
L 226.893969 100.72721 
L 227.89847 106.319469 
L 228.90297 110.025966 
L 229.907471 115.237357 
L 230.911971 116.909461 
L 231.916472 121.015405 
L 232.920972 123.89514 
L 233.925473 123.89514 
L 234.929973 121.842168 
L 235.934473 116.723672 
L 236.938974 103.597656 
L 237.943474 92.89619 
L 238.947975 84.340592 
L 239.952475 83.513829 
L 240.956976 84.126934 
L 241.961476 85.148775 
L 242.965977 84.470644 
L 243.970477 82.575593 
L 245.979478 89.23614 
L 246.983978 96.277556 
L 247.988479 100.253448 
L 248.992979 107.647863 
L 249.99748 110.899176 
L 252.006481 112.376201 
L 253.010981 111.642333 
L 254.015482 109.672967 
L 255.019982 98.265502 
L 256.024482 80.70841 
L 257.028983 75.766414 
L 258.033483 74.428731 
L 259.037984 71.706917 
L 260.042484 73.992126 
L 261.046985 74.307968 
L 262.051485 74.410152 
L 263.055986 75.236915 
L 264.060486 85.028012 
L 267.073987 101.832657 
L 268.078488 104.350102 
L 269.082988 106.170838 
L 270.087489 106.923284 
L 271.091989 106.440232 
L 272.09649 105.501996 
L 273.10099 99.305922 
L 274.105491 90.211534 
L 275.109991 76.658203 
L 276.114491 73.824916 
L 277.118992 73.267548 
L 278.123492 73.481205 
L 279.127993 78.45107 
L 280.132493 84.052618 
L 282.141494 99.287343 
L 283.145995 105.065391 
L 284.150495 112.078938 
L 285.154995 117.429671 
L 286.159496 123.941587 
L 287.163996 128.456268 
L 289.172997 134.884578 
L 290.177498 136.380182 
L 291.181998 133.565474 
L 292.186499 128.716373 
L 293.190999 121.591352 
L 295.2 129.896135 
L 298.213501 151.21546 
L 301.227003 190.853613 
L 302.231503 202.902051 
L 305.245005 226.868875 
L 306.249505 233.91958 
L 309.263006 247.482201 
L 310.267507 248.086016 
L 311.272007 245.336334 
L 312.276508 244.342361 
L 313.281008 246.887675 
L 315.290009 256.492983 
L 316.294509 261.342085 
L 317.29901 264.807056 
L 319.308011 277.189914 
L 320.312511 280.013912 
L 321.317012 285.550434 
L 322.321512 288.764589 
L 324.330513 293.45577 
L 325.335014 295.341532 
L 326.339514 294.812032 
L 327.344014 293.45577 
L 328.348515 289.517036 
L 329.353015 287.36188 
L 330.357516 288.848195 
L 331.362016 289.749273 
L 332.366517 291.607166 
L 333.371017 292.368902 
L 334.375518 294.449743 
L 335.380018 298.890108 
L 336.384518 300.608659 
L 337.389019 303.999314 
L 339.39802 308.2446 
L 340.40252 309.730915 
L 341.407021 312.053282 
L 342.411521 312.294808 
L 343.416022 312.025413 
L 344.420522 312.972939 
L 345.425023 310.938546 
L 346.429523 307.585048 
L 347.434023 303.609157 
L 348.438524 302.782394 
L 349.443024 303.367631 
L 351.452025 303.869262 
L 353.461026 306.024418 
L 354.465527 305.271971 
L 355.470027 309.192126 
L 356.474527 310.845651 
L 357.479028 313.065834 
L 358.483528 313.158728 
L 359.488029 313.697517 
L 360.492529 314.840122 
L 361.49703 311.133625 
L 362.50153 308.579021 
L 363.506031 307.473575 
L 364.510531 308.727653 
L 365.515032 308.012364 
L 367.524032 308.7741 
L 369.533033 308.709074 
L 372.546535 316.047752 
L 373.551035 316.530805 
L 374.555536 318.760276 
L 375.560036 319.178302 
L 376.564536 319.085408 
L 377.569037 318.769566 
L 378.573537 318.983224 
L 379.578038 316.939541 
L 380.582538 312.768571 
L 381.587039 310.037468 
L 382.591539 309.64731 
L 386.609541 310.734177 
L 387.614041 311.152203 
L 388.618542 312.833597 
L 389.623042 312.78715 
L 390.627543 314.161991 
L 391.632043 316.651568 
L 392.636544 317.617672 
L 393.641044 320.107249 
L 394.645545 319.596328 
L 395.650045 318.87175 
L 396.654545 319.837855 
L 397.659046 319.21546 
L 399.668047 312.824307 
L 400.672547 309.703047 
L 401.677048 310.065336 
L 402.681548 310.827072 
L 403.686049 309.424363 
L 404.690549 311.022151 
L 405.69505 310.269704 
L 406.69955 311.412309 
L 407.70405 310.984993 
L 408.708551 313.716096 
L 409.713051 314.960885 
L 410.717552 316.763041 
L 411.722052 317.171778 
L 412.726553 319.020382 
L 413.731053 319.559171 
L 414.735554 319.419829 
L 415.740054 320.005065 
L 416.744554 318.407277 
L 418.753555 311.012861 
L 419.758056 309.340758 
L 420.762556 309.415073 
L 421.767057 309.089942 
L 423.776058 309.3036 
L 424.780558 310.121073 
L 425.785059 310.529809 
L 426.789559 311.096467 
L 427.794059 311.821045 
L 428.79856 313.455991 
L 429.80306 315.806226 
L 430.807561 315.926989 
L 431.812061 316.419331 
L 432.816562 316.688725 
L 433.821062 313.725386 
L 434.825563 311.542361 
L 435.830063 308.5976 
L 436.834563 307.696522 
L 437.839064 307.919469 
L 438.843564 307.622206 
L 439.848065 308.07739 
L 440.852565 307.817285 
L 441.857066 308.179574 
L 442.861566 308.207443 
L 443.866067 309.1271 
L 444.870567 310.306862 
L 445.875068 312.006834 
L 446.879568 313.214465 
L 447.884068 314.775095 
L 448.888569 315.165253 
L 450.89757 315.416069 
L 451.90207 313.957622 
L 452.906571 310.436915 
L 453.911071 307.38068 
L 454.915572 305.82005 
L 457.929073 305.559945 
L 458.933573 305.086182 
L 459.938074 304.343025 
L 460.942574 304.129367 
L 461.947075 305.504208 
L 462.951575 307.241338 
L 463.956076 310.325441 
L 464.960576 312.053282 
L 465.965077 313.372386 
L 466.969577 313.65107 
L 467.974077 313.539596 
L 468.978578 313.251623 
L 469.983078 313.753254 
L 470.987579 310.251125 
L 471.992079 307.38997 
L 472.99658 303.005341 
L 474.00108 302.438684 
L 476.010081 301.779132 
L 477.014581 302.708079 
L 478.019082 302.912447 
L 479.023582 303.637025 
L 482.037084 310.102494 
L 483.041584 311.003572 
L 484.046085 312.731413 
L 485.050585 313.158728 
L 486.055086 312.657097 
L 487.059586 312.991518 
L 488.064086 312.099729 
L 489.068587 309.452231 
L 490.073087 304.891103 
L 491.077588 298.119082 
L 492.082088 299.252397 
L 493.086589 299.884081 
L 494.091089 298.462792 
L 495.09559 299.846923 
L 496.10009 298.407056 
L 497.10459 300.153475 
L 498.109091 300.357844 
L 498.109091 300.357844 
" clip-path="url(#p7d7f4def1a)" style="fill: none; stroke: #008000; stroke-width: 1.5; stroke-linecap: square"/>
   </g>
   <g id="patch_3">
    <path d="M 72 384.48 
L 72 51.84 
" style="fill: none; stroke: #000000; stroke-width: 0.8; stroke-linejoin: miter; stroke-linecap: square"/>
   </g>
   <g id="patch_4">
    <path d="M 518.4 384.48 
L 518.4 51.84 
" style="fill: none; stroke: #000000; stroke-width: 0.8; stroke-linejoin: miter; stroke-linecap: square"/>
   </g>
   <g id="patch_5">
    <path d="M 72 384.48 
L 518.4 384.48 
" style="fill: none; stroke: #000000; stroke-width: 0.8; stroke-linejoin: miter; stroke-linecap: square"/>
   </g>
   <g id="patch_6">
    <path d="M 72 51.84 
L 518.4 51.84 
" style="fill: none; stroke: #000000; stroke-width: 0.8; stroke-linejoin: miter; stroke-linecap: square"/>
   </g>
   <g id="text_21">
    <!-- M15: No AA -->
    <g transform="translate(265.882812 45.84) scale(0.1 -0.1)">
     <defs>
      <path id="DejaVuSans-4d" d="M 628 4666 
L 1569 4666 
L 2759 1491 
L 3956 4666 
L 4897 4666 
L 4897 0 
L 4281 0 
L 4281 4097 
L 3078 897 
L 2444 897 
L 1241 4097 
L 1241 0 
L 628 0 
L 628 4666 
z
" transform="scale(0.015625)"/>
      <path id="DejaVuSans-3a" d="M 750 794 
L 1409 794 
L 1409 0 
L 750 0 
L 750 794 
z
M 750 3309 
L 1409 3309 
L 1409 2516 
L 750 2516 
L 750 3309 
z
" transform="scale(0.015625)"/>
      <path id="DejaVuSans-4e" d="M 628 4666 
L 1478 4666 
L 3547 763 
L 3547 4666 
L 4159 4666 
L 4159 0 
L 3309 0 
L 1241 3903 
L 1241 0 
L 628 0 
L 628 4666 
z
" transform="scale(0.015625)"/>
      <path id="DejaVuSans-41" d="M 2188 4044 
L 1331 1722 
L 3047 1722 
L 2188 4044 
z
M 1831 4666 
L 2547 4666 
L 4325 0 
L 3669 0 
L 3244 1197 
L 1141 1197 
L 716 0 
L 50 0 
L 1831 4666 
z
" transform="scale(0.015625)"/>
     </defs>
     <use xlink:href="#DejaVuSans-4d"/>
     <use xlink:href="#DejaVuSans-31" x="86.279297"/>
     <use xlink:href="#DejaVuSans-35" x="149.902344"/>
     <use xlink:href="#DejaVuSans-3a" x="213.525391"/>
     <use xlink:href="#DejaVuSans-20" x="247.216797"/>
     <use xlink:href="#DejaVuSans-4e" x="279.003906"/>
     <use xlink:href="#DejaVuSans-6f" x="353.808594"/>
     <use xlink:href="#DejaVuSans-20" x="414.990234"/>
     <use xlink:href="#DejaVuSans-41" x="446.777344"/>
     <use xlink:href="#DejaVuSans-41" x="517.935547"/>
    </g>
   </g>
  </g>
 </g>
 <defs>
  <clipPath id="p7d7f4def1a">
   <rect x="72" y="51.84" width="446.4" height="332.64"/>
  </clipPath>
 </defs>
</svg>
