<?xml version="1.0" encoding="utf-8" standalone="no"?>
<!DOCTYPE svg PUBLIC "-//W3C//DTD SVG 1.1//EN"
  "http://www.w3.org/Graphics/SVG/1.1/DTD/svg11.dtd">
<svg xmlns:xlink="http://www.w3.org/1999/xlink" width="576pt" height="432pt" viewBox="0 0 576 432" xmlns="http://www.w3.org/2000/svg" version="1.1">
 <metadata>
  <rdf:RDF xmlns:dc="http://purl.org/dc/elements/1.1/" xmlns:cc="http://creativecommons.org/ns#" xmlns:rdf="http://www.w3.org/1999/02/22-rdf-syntax-ns#">
   <cc:Work>
    <dc:type rdf:resource="http://purl.org/dc/dcmitype/StillImage"/>
    <dc:date>2024-11-12T14:09:16.388322</dc:date>
    <dc:format>image/svg+xml</dc:format>
    <dc:creator>
     <cc:Agent>
      <dc:title>Matplotlib v3.7.5, https://matplotlib.org/</dc:title>
     </cc:Agent>
    </dc:creator>
   </cc:Work>
  </rdf:RDF>
 </metadata>
 <defs>
  <style type="text/css">*{stroke-linejoin: round; stroke-linecap: butt}</style>
 </defs>
 <g id="figure_1">
  <g id="patch_1">
   <path d="M 0 432 
L 576 432 
L 576 0 
L 0 0 
z
" style="fill: #ffffff"/>
  </g>
  <g id="axes_1">
   <g id="patch_2">
    <path d="M 72 384.48 
L 518.4 384.48 
L 518.4 51.84 
L 72 51.84 
z
" style="fill: #ffffff"/>
   </g>
   <g id="matplotlib.axis_1">
    <g id="xtick_1">
     <g id="line2d_1">
      <path d="M 92.290909 384.48 
L 92.290909 51.84 
" clip-path="url(#pef1b0eb559)" style="fill: none; stroke: #b0b0b0; stroke-width: 0.8; stroke-linecap: square"/>
     </g>
     <g id="line2d_2">
      <defs>
       <path id="m630843ec2d" d="M 0 0 
L 0 3.5 
" style="stroke: #000000; stroke-width: 0.8"/>
      </defs>
      <g>
       <use xlink:href="#m630843ec2d" x="92.290909" y="384.48" style="stroke: #000000; stroke-width: 0.8"/>
      </g>
     </g>
     <g id="text_1">
      <!-- 0.17 -->
      <g transform="translate(81.158097 399.078438) scale(0.1 -0.1)">
       <defs>
        <path id="DejaVuSans-30" d="M 2034 4250 
Q 1547 4250 1301 3770 
Q 1056 3291 1056 2328 
Q 1056 1369 1301 889 
Q 1547 409 2034 409 
Q 2525 409 2770 889 
Q 3016 1369 3016 2328 
Q 3016 3291 2770 3770 
Q 2525 4250 2034 4250 
z
M 2034 4750 
Q 2819 4750 3233 4129 
Q 3647 3509 3647 2328 
Q 3647 1150 3233 529 
Q 2819 -91 2034 -91 
Q 1250 -91 836 529 
Q 422 1150 422 2328 
Q 422 3509 836 4129 
Q 1250 4750 2034 4750 
z
" transform="scale(0.015625)"/>
        <path id="DejaVuSans-2e" d="M 684 794 
L 1344 794 
L 1344 0 
L 684 0 
L 684 794 
z
" transform="scale(0.015625)"/>
        <path id="DejaVuSans-31" d="M 794 531 
L 1825 531 
L 1825 4091 
L 703 3866 
L 703 4441 
L 1819 4666 
L 2450 4666 
L 2450 531 
L 3481 531 
L 3481 0 
L 794 0 
L 794 531 
z
" transform="scale(0.015625)"/>
        <path id="DejaVuSans-37" d="M 525 4666 
L 3525 4666 
L 3525 4397 
L 1831 0 
L 1172 0 
L 2766 4134 
L 525 4134 
L 525 4666 
z
" transform="scale(0.015625)"/>
       </defs>
       <use xlink:href="#DejaVuSans-30"/>
       <use xlink:href="#DejaVuSans-2e" x="63.623047"/>
       <use xlink:href="#DejaVuSans-31" x="95.410156"/>
       <use xlink:href="#DejaVuSans-37" x="159.033203"/>
      </g>
     </g>
    </g>
    <g id="xtick_2">
     <g id="line2d_3">
      <path d="M 132.771526 384.48 
L 132.771526 51.84 
" clip-path="url(#pef1b0eb559)" style="fill: none; stroke: #b0b0b0; stroke-width: 0.8; stroke-linecap: square"/>
     </g>
     <g id="line2d_4">
      <g>
       <use xlink:href="#m630843ec2d" x="132.771526" y="384.48" style="stroke: #000000; stroke-width: 0.8"/>
      </g>
     </g>
     <g id="text_2">
      <!-- 6.83 -->
      <g transform="translate(121.638713 399.078438) scale(0.1 -0.1)">
       <defs>
        <path id="DejaVuSans-36" d="M 2113 2584 
Q 1688 2584 1439 2293 
Q 1191 2003 1191 1497 
Q 1191 994 1439 701 
Q 1688 409 2113 409 
Q 2538 409 2786 701 
Q 3034 994 3034 1497 
Q 3034 2003 2786 2293 
Q 2538 2584 2113 2584 
z
M 3366 4563 
L 3366 3988 
Q 3128 4100 2886 4159 
Q 2644 4219 2406 4219 
Q 1781 4219 1451 3797 
Q 1122 3375 1075 2522 
Q 1259 2794 1537 2939 
Q 1816 3084 2150 3084 
Q 2853 3084 3261 2657 
Q 3669 2231 3669 1497 
Q 3669 778 3244 343 
Q 2819 -91 2113 -91 
Q 1303 -91 875 529 
Q 447 1150 447 2328 
Q 447 3434 972 4092 
Q 1497 4750 2381 4750 
Q 2619 4750 2861 4703 
Q 3103 4656 3366 4563 
z
" transform="scale(0.015625)"/>
        <path id="DejaVuSans-38" d="M 2034 2216 
Q 1584 2216 1326 1975 
Q 1069 1734 1069 1313 
Q 1069 891 1326 650 
Q 1584 409 2034 409 
Q 2484 409 2743 651 
Q 3003 894 3003 1313 
Q 3003 1734 2745 1975 
Q 2488 2216 2034 2216 
z
M 1403 2484 
Q 997 2584 770 2862 
Q 544 3141 544 3541 
Q 544 4100 942 4425 
Q 1341 4750 2034 4750 
Q 2731 4750 3128 4425 
Q 3525 4100 3525 3541 
Q 3525 3141 3298 2862 
Q 3072 2584 2669 2484 
Q 3125 2378 3379 2068 
Q 3634 1759 3634 1313 
Q 3634 634 3220 271 
Q 2806 -91 2034 -91 
Q 1263 -91 848 271 
Q 434 634 434 1313 
Q 434 1759 690 2068 
Q 947 2378 1403 2484 
z
M 1172 3481 
Q 1172 3119 1398 2916 
Q 1625 2713 2034 2713 
Q 2441 2713 2670 2916 
Q 2900 3119 2900 3481 
Q 2900 3844 2670 4047 
Q 2441 4250 2034 4250 
Q 1625 4250 1398 4047 
Q 1172 3844 1172 3481 
z
" transform="scale(0.015625)"/>
        <path id="DejaVuSans-33" d="M 2597 2516 
Q 3050 2419 3304 2112 
Q 3559 1806 3559 1356 
Q 3559 666 3084 287 
Q 2609 -91 1734 -91 
Q 1441 -91 1130 -33 
Q 819 25 488 141 
L 488 750 
Q 750 597 1062 519 
Q 1375 441 1716 441 
Q 2309 441 2620 675 
Q 2931 909 2931 1356 
Q 2931 1769 2642 2001 
Q 2353 2234 1838 2234 
L 1294 2234 
L 1294 2753 
L 1863 2753 
Q 2328 2753 2575 2939 
Q 2822 3125 2822 3475 
Q 2822 3834 2567 4026 
Q 2313 4219 1838 4219 
Q 1578 4219 1281 4162 
Q 984 4106 628 3988 
L 628 4550 
Q 988 4650 1302 4700 
Q 1616 4750 1894 4750 
Q 2613 4750 3031 4423 
Q 3450 4097 3450 3541 
Q 3450 3153 3228 2886 
Q 3006 2619 2597 2516 
z
" transform="scale(0.015625)"/>
       </defs>
       <use xlink:href="#DejaVuSans-36"/>
       <use xlink:href="#DejaVuSans-2e" x="63.623047"/>
       <use xlink:href="#DejaVuSans-38" x="95.410156"/>
       <use xlink:href="#DejaVuSans-33" x="159.033203"/>
      </g>
     </g>
    </g>
    <g id="xtick_3">
     <g id="line2d_5">
      <path d="M 173.252142 384.48 
L 173.252142 51.84 
" clip-path="url(#pef1b0eb559)" style="fill: none; stroke: #b0b0b0; stroke-width: 0.8; stroke-linecap: square"/>
     </g>
     <g id="line2d_6">
      <g>
       <use xlink:href="#m630843ec2d" x="173.252142" y="384.48" style="stroke: #000000; stroke-width: 0.8"/>
      </g>
     </g>
     <g id="text_3">
      <!-- 13.5 -->
      <g transform="translate(162.11933 399.078438) scale(0.1 -0.1)">
       <defs>
        <path id="DejaVuSans-35" d="M 691 4666 
L 3169 4666 
L 3169 4134 
L 1269 4134 
L 1269 2991 
Q 1406 3038 1543 3061 
Q 1681 3084 1819 3084 
Q 2600 3084 3056 2656 
Q 3513 2228 3513 1497 
Q 3513 744 3044 326 
Q 2575 -91 1722 -91 
Q 1428 -91 1123 -41 
Q 819 9 494 109 
L 494 744 
Q 775 591 1075 516 
Q 1375 441 1709 441 
Q 2250 441 2565 725 
Q 2881 1009 2881 1497 
Q 2881 1984 2565 2268 
Q 2250 2553 1709 2553 
Q 1456 2553 1204 2497 
Q 953 2441 691 2322 
L 691 4666 
z
" transform="scale(0.015625)"/>
       </defs>
       <use xlink:href="#DejaVuSans-31"/>
       <use xlink:href="#DejaVuSans-33" x="63.623047"/>
       <use xlink:href="#DejaVuSans-2e" x="127.246094"/>
       <use xlink:href="#DejaVuSans-35" x="159.033203"/>
      </g>
     </g>
    </g>
    <g id="xtick_4">
     <g id="line2d_7">
      <path d="M 213.732759 384.48 
L 213.732759 51.84 
" clip-path="url(#pef1b0eb559)" style="fill: none; stroke: #b0b0b0; stroke-width: 0.8; stroke-linecap: square"/>
     </g>
     <g id="line2d_8">
      <g>
       <use xlink:href="#m630843ec2d" x="213.732759" y="384.48" style="stroke: #000000; stroke-width: 0.8"/>
      </g>
     </g>
     <g id="text_4">
      <!-- 20.17 -->
      <g transform="translate(199.418697 399.078438) scale(0.1 -0.1)">
       <defs>
        <path id="DejaVuSans-32" d="M 1228 531 
L 3431 531 
L 3431 0 
L 469 0 
L 469 531 
Q 828 903 1448 1529 
Q 2069 2156 2228 2338 
Q 2531 2678 2651 2914 
Q 2772 3150 2772 3378 
Q 2772 3750 2511 3984 
Q 2250 4219 1831 4219 
Q 1534 4219 1204 4116 
Q 875 4013 500 3803 
L 500 4441 
Q 881 4594 1212 4672 
Q 1544 4750 1819 4750 
Q 2544 4750 2975 4387 
Q 3406 4025 3406 3419 
Q 3406 3131 3298 2873 
Q 3191 2616 2906 2266 
Q 2828 2175 2409 1742 
Q 1991 1309 1228 531 
z
" transform="scale(0.015625)"/>
       </defs>
       <use xlink:href="#DejaVuSans-32"/>
       <use xlink:href="#DejaVuSans-30" x="63.623047"/>
       <use xlink:href="#DejaVuSans-2e" x="127.246094"/>
       <use xlink:href="#DejaVuSans-31" x="159.033203"/>
       <use xlink:href="#DejaVuSans-37" x="222.65625"/>
      </g>
     </g>
    </g>
    <g id="xtick_5">
     <g id="line2d_9">
      <path d="M 254.213376 384.48 
L 254.213376 51.84 
" clip-path="url(#pef1b0eb559)" style="fill: none; stroke: #b0b0b0; stroke-width: 0.8; stroke-linecap: square"/>
     </g>
     <g id="line2d_10">
      <g>
       <use xlink:href="#m630843ec2d" x="254.213376" y="384.48" style="stroke: #000000; stroke-width: 0.8"/>
      </g>
     </g>
     <g id="text_5">
      <!-- 26.83 -->
      <g transform="translate(239.899313 399.078438) scale(0.1 -0.1)">
       <use xlink:href="#DejaVuSans-32"/>
       <use xlink:href="#DejaVuSans-36" x="63.623047"/>
       <use xlink:href="#DejaVuSans-2e" x="127.246094"/>
       <use xlink:href="#DejaVuSans-38" x="159.033203"/>
       <use xlink:href="#DejaVuSans-33" x="222.65625"/>
      </g>
     </g>
    </g>
    <g id="xtick_6">
     <g id="line2d_11">
      <path d="M 294.693992 384.48 
L 294.693992 51.84 
" clip-path="url(#pef1b0eb559)" style="fill: none; stroke: #b0b0b0; stroke-width: 0.8; stroke-linecap: square"/>
     </g>
     <g id="line2d_12">
      <g>
       <use xlink:href="#m630843ec2d" x="294.693992" y="384.48" style="stroke: #000000; stroke-width: 0.8"/>
      </g>
     </g>
     <g id="text_6">
      <!-- 33.5 -->
      <g transform="translate(283.56118 399.078438) scale(0.1 -0.1)">
       <use xlink:href="#DejaVuSans-33"/>
       <use xlink:href="#DejaVuSans-33" x="63.623047"/>
       <use xlink:href="#DejaVuSans-2e" x="127.246094"/>
       <use xlink:href="#DejaVuSans-35" x="159.033203"/>
      </g>
     </g>
    </g>
    <g id="xtick_7">
     <g id="line2d_13">
      <path d="M 335.174609 384.48 
L 335.174609 51.84 
" clip-path="url(#pef1b0eb559)" style="fill: none; stroke: #b0b0b0; stroke-width: 0.8; stroke-linecap: square"/>
     </g>
     <g id="line2d_14">
      <g>
       <use xlink:href="#m630843ec2d" x="335.174609" y="384.48" style="stroke: #000000; stroke-width: 0.8"/>
      </g>
     </g>
     <g id="text_7">
      <!-- 40.17 -->
      <g transform="translate(320.860546 399.078438) scale(0.1 -0.1)">
       <defs>
        <path id="DejaVuSans-34" d="M 2419 4116 
L 825 1625 
L 2419 1625 
L 2419 4116 
z
M 2253 4666 
L 3047 4666 
L 3047 1625 
L 3713 1625 
L 3713 1100 
L 3047 1100 
L 3047 0 
L 2419 0 
L 2419 1100 
L 313 1100 
L 313 1709 
L 2253 4666 
z
" transform="scale(0.015625)"/>
       </defs>
       <use xlink:href="#DejaVuSans-34"/>
       <use xlink:href="#DejaVuSans-30" x="63.623047"/>
       <use xlink:href="#DejaVuSans-2e" x="127.246094"/>
       <use xlink:href="#DejaVuSans-31" x="159.033203"/>
       <use xlink:href="#DejaVuSans-37" x="222.65625"/>
      </g>
     </g>
    </g>
    <g id="xtick_8">
     <g id="line2d_15">
      <path d="M 375.655226 384.48 
L 375.655226 51.84 
" clip-path="url(#pef1b0eb559)" style="fill: none; stroke: #b0b0b0; stroke-width: 0.8; stroke-linecap: square"/>
     </g>
     <g id="line2d_16">
      <g>
       <use xlink:href="#m630843ec2d" x="375.655226" y="384.48" style="stroke: #000000; stroke-width: 0.8"/>
      </g>
     </g>
     <g id="text_8">
      <!-- 46.83 -->
      <g transform="translate(361.341163 399.078438) scale(0.1 -0.1)">
       <use xlink:href="#DejaVuSans-34"/>
       <use xlink:href="#DejaVuSans-36" x="63.623047"/>
       <use xlink:href="#DejaVuSans-2e" x="127.246094"/>
       <use xlink:href="#DejaVuSans-38" x="159.033203"/>
       <use xlink:href="#DejaVuSans-33" x="222.65625"/>
      </g>
     </g>
    </g>
    <g id="xtick_9">
     <g id="line2d_17">
      <path d="M 416.135842 384.48 
L 416.135842 51.84 
" clip-path="url(#pef1b0eb559)" style="fill: none; stroke: #b0b0b0; stroke-width: 0.8; stroke-linecap: square"/>
     </g>
     <g id="line2d_18">
      <g>
       <use xlink:href="#m630843ec2d" x="416.135842" y="384.48" style="stroke: #000000; stroke-width: 0.8"/>
      </g>
     </g>
     <g id="text_9">
      <!-- 53.5 -->
      <g transform="translate(405.00303 399.078438) scale(0.1 -0.1)">
       <use xlink:href="#DejaVuSans-35"/>
       <use xlink:href="#DejaVuSans-33" x="63.623047"/>
       <use xlink:href="#DejaVuSans-2e" x="127.246094"/>
       <use xlink:href="#DejaVuSans-35" x="159.033203"/>
      </g>
     </g>
    </g>
    <g id="xtick_10">
     <g id="line2d_19">
      <path d="M 456.616459 384.48 
L 456.616459 51.84 
" clip-path="url(#pef1b0eb559)" style="fill: none; stroke: #b0b0b0; stroke-width: 0.8; stroke-linecap: square"/>
     </g>
     <g id="line2d_20">
      <g>
       <use xlink:href="#m630843ec2d" x="456.616459" y="384.48" style="stroke: #000000; stroke-width: 0.8"/>
      </g>
     </g>
     <g id="text_10">
      <!-- 60.17 -->
      <g transform="translate(442.302396 399.078438) scale(0.1 -0.1)">
       <use xlink:href="#DejaVuSans-36"/>
       <use xlink:href="#DejaVuSans-30" x="63.623047"/>
       <use xlink:href="#DejaVuSans-2e" x="127.246094"/>
       <use xlink:href="#DejaVuSans-31" x="159.033203"/>
       <use xlink:href="#DejaVuSans-37" x="222.65625"/>
      </g>
     </g>
    </g>
    <g id="xtick_11">
     <g id="line2d_21">
      <path d="M 497.097075 384.48 
L 497.097075 51.84 
" clip-path="url(#pef1b0eb559)" style="fill: none; stroke: #b0b0b0; stroke-width: 0.8; stroke-linecap: square"/>
     </g>
     <g id="line2d_22">
      <g>
       <use xlink:href="#m630843ec2d" x="497.097075" y="384.48" style="stroke: #000000; stroke-width: 0.8"/>
      </g>
     </g>
     <g id="text_11">
      <!-- 66.83 -->
      <g transform="translate(482.783013 399.078438) scale(0.1 -0.1)">
       <use xlink:href="#DejaVuSans-36"/>
       <use xlink:href="#DejaVuSans-36" x="63.623047"/>
       <use xlink:href="#DejaVuSans-2e" x="127.246094"/>
       <use xlink:href="#DejaVuSans-38" x="159.033203"/>
       <use xlink:href="#DejaVuSans-33" x="222.65625"/>
      </g>
     </g>
    </g>
    <g id="text_12">
     <!-- time in hours [h] -->
     <g transform="translate(253.451562 412.756563) scale(0.1 -0.1)">
      <defs>
       <path id="DejaVuSans-74" d="M 1172 4494 
L 1172 3500 
L 2356 3500 
L 2356 3053 
L 1172 3053 
L 1172 1153 
Q 1172 725 1289 603 
Q 1406 481 1766 481 
L 2356 481 
L 2356 0 
L 1766 0 
Q 1100 0 847 248 
Q 594 497 594 1153 
L 594 3053 
L 172 3053 
L 172 3500 
L 594 3500 
L 594 4494 
L 1172 4494 
z
" transform="scale(0.015625)"/>
       <path id="DejaVuSans-69" d="M 603 3500 
L 1178 3500 
L 1178 0 
L 603 0 
L 603 3500 
z
M 603 4863 
L 1178 4863 
L 1178 4134 
L 603 4134 
L 603 4863 
z
" transform="scale(0.015625)"/>
       <path id="DejaVuSans-6d" d="M 3328 2828 
Q 3544 3216 3844 3400 
Q 4144 3584 4550 3584 
Q 5097 3584 5394 3201 
Q 5691 2819 5691 2113 
L 5691 0 
L 5113 0 
L 5113 2094 
Q 5113 2597 4934 2840 
Q 4756 3084 4391 3084 
Q 3944 3084 3684 2787 
Q 3425 2491 3425 1978 
L 3425 0 
L 2847 0 
L 2847 2094 
Q 2847 2600 2669 2842 
Q 2491 3084 2119 3084 
Q 1678 3084 1418 2786 
Q 1159 2488 1159 1978 
L 1159 0 
L 581 0 
L 581 3500 
L 1159 3500 
L 1159 2956 
Q 1356 3278 1631 3431 
Q 1906 3584 2284 3584 
Q 2666 3584 2933 3390 
Q 3200 3197 3328 2828 
z
" transform="scale(0.015625)"/>
       <path id="DejaVuSans-65" d="M 3597 1894 
L 3597 1613 
L 953 1613 
Q 991 1019 1311 708 
Q 1631 397 2203 397 
Q 2534 397 2845 478 
Q 3156 559 3463 722 
L 3463 178 
Q 3153 47 2828 -22 
Q 2503 -91 2169 -91 
Q 1331 -91 842 396 
Q 353 884 353 1716 
Q 353 2575 817 3079 
Q 1281 3584 2069 3584 
Q 2775 3584 3186 3129 
Q 3597 2675 3597 1894 
z
M 3022 2063 
Q 3016 2534 2758 2815 
Q 2500 3097 2075 3097 
Q 1594 3097 1305 2825 
Q 1016 2553 972 2059 
L 3022 2063 
z
" transform="scale(0.015625)"/>
       <path id="DejaVuSans-20" transform="scale(0.015625)"/>
       <path id="DejaVuSans-6e" d="M 3513 2113 
L 3513 0 
L 2938 0 
L 2938 2094 
Q 2938 2591 2744 2837 
Q 2550 3084 2163 3084 
Q 1697 3084 1428 2787 
Q 1159 2491 1159 1978 
L 1159 0 
L 581 0 
L 581 3500 
L 1159 3500 
L 1159 2956 
Q 1366 3272 1645 3428 
Q 1925 3584 2291 3584 
Q 2894 3584 3203 3211 
Q 3513 2838 3513 2113 
z
" transform="scale(0.015625)"/>
       <path id="DejaVuSans-68" d="M 3513 2113 
L 3513 0 
L 2938 0 
L 2938 2094 
Q 2938 2591 2744 2837 
Q 2550 3084 2163 3084 
Q 1697 3084 1428 2787 
Q 1159 2491 1159 1978 
L 1159 0 
L 581 0 
L 581 4863 
L 1159 4863 
L 1159 2956 
Q 1366 3272 1645 3428 
Q 1925 3584 2291 3584 
Q 2894 3584 3203 3211 
Q 3513 2838 3513 2113 
z
" transform="scale(0.015625)"/>
       <path id="DejaVuSans-6f" d="M 1959 3097 
Q 1497 3097 1228 2736 
Q 959 2375 959 1747 
Q 959 1119 1226 758 
Q 1494 397 1959 397 
Q 2419 397 2687 759 
Q 2956 1122 2956 1747 
Q 2956 2369 2687 2733 
Q 2419 3097 1959 3097 
z
M 1959 3584 
Q 2709 3584 3137 3096 
Q 3566 2609 3566 1747 
Q 3566 888 3137 398 
Q 2709 -91 1959 -91 
Q 1206 -91 779 398 
Q 353 888 353 1747 
Q 353 2609 779 3096 
Q 1206 3584 1959 3584 
z
" transform="scale(0.015625)"/>
       <path id="DejaVuSans-75" d="M 544 1381 
L 544 3500 
L 1119 3500 
L 1119 1403 
Q 1119 906 1312 657 
Q 1506 409 1894 409 
Q 2359 409 2629 706 
Q 2900 1003 2900 1516 
L 2900 3500 
L 3475 3500 
L 3475 0 
L 2900 0 
L 2900 538 
Q 2691 219 2414 64 
Q 2138 -91 1772 -91 
Q 1169 -91 856 284 
Q 544 659 544 1381 
z
M 1991 3584 
L 1991 3584 
z
" transform="scale(0.015625)"/>
       <path id="DejaVuSans-72" d="M 2631 2963 
Q 2534 3019 2420 3045 
Q 2306 3072 2169 3072 
Q 1681 3072 1420 2755 
Q 1159 2438 1159 1844 
L 1159 0 
L 581 0 
L 581 3500 
L 1159 3500 
L 1159 2956 
Q 1341 3275 1631 3429 
Q 1922 3584 2338 3584 
Q 2397 3584 2469 3576 
Q 2541 3569 2628 3553 
L 2631 2963 
z
" transform="scale(0.015625)"/>
       <path id="DejaVuSans-73" d="M 2834 3397 
L 2834 2853 
Q 2591 2978 2328 3040 
Q 2066 3103 1784 3103 
Q 1356 3103 1142 2972 
Q 928 2841 928 2578 
Q 928 2378 1081 2264 
Q 1234 2150 1697 2047 
L 1894 2003 
Q 2506 1872 2764 1633 
Q 3022 1394 3022 966 
Q 3022 478 2636 193 
Q 2250 -91 1575 -91 
Q 1294 -91 989 -36 
Q 684 19 347 128 
L 347 722 
Q 666 556 975 473 
Q 1284 391 1588 391 
Q 1994 391 2212 530 
Q 2431 669 2431 922 
Q 2431 1156 2273 1281 
Q 2116 1406 1581 1522 
L 1381 1569 
Q 847 1681 609 1914 
Q 372 2147 372 2553 
Q 372 3047 722 3315 
Q 1072 3584 1716 3584 
Q 2034 3584 2315 3537 
Q 2597 3491 2834 3397 
z
" transform="scale(0.015625)"/>
       <path id="DejaVuSans-5b" d="M 550 4863 
L 1875 4863 
L 1875 4416 
L 1125 4416 
L 1125 -397 
L 1875 -397 
L 1875 -844 
L 550 -844 
L 550 4863 
z
" transform="scale(0.015625)"/>
       <path id="DejaVuSans-5d" d="M 1947 4863 
L 1947 -844 
L 622 -844 
L 622 -397 
L 1369 -397 
L 1369 4416 
L 622 4416 
L 622 4863 
L 1947 4863 
z
" transform="scale(0.015625)"/>
      </defs>
      <use xlink:href="#DejaVuSans-74"/>
      <use xlink:href="#DejaVuSans-69" x="39.208984"/>
      <use xlink:href="#DejaVuSans-6d" x="66.992188"/>
      <use xlink:href="#DejaVuSans-65" x="164.404297"/>
      <use xlink:href="#DejaVuSans-20" x="225.927734"/>
      <use xlink:href="#DejaVuSans-69" x="257.714844"/>
      <use xlink:href="#DejaVuSans-6e" x="285.498047"/>
      <use xlink:href="#DejaVuSans-20" x="348.876953"/>
      <use xlink:href="#DejaVuSans-68" x="380.664062"/>
      <use xlink:href="#DejaVuSans-6f" x="444.042969"/>
      <use xlink:href="#DejaVuSans-75" x="505.224609"/>
      <use xlink:href="#DejaVuSans-72" x="568.603516"/>
      <use xlink:href="#DejaVuSans-73" x="609.716797"/>
      <use xlink:href="#DejaVuSans-20" x="661.816406"/>
      <use xlink:href="#DejaVuSans-5b" x="693.603516"/>
      <use xlink:href="#DejaVuSans-68" x="732.617188"/>
      <use xlink:href="#DejaVuSans-5d" x="795.996094"/>
     </g>
    </g>
   </g>
   <g id="matplotlib.axis_2">
    <g id="ytick_1">
     <g id="line2d_23">
      <path d="M 72 363.69 
L 518.4 363.69 
" clip-path="url(#pef1b0eb559)" style="fill: none; stroke: #b0b0b0; stroke-width: 0.8; stroke-linecap: square"/>
     </g>
     <g id="line2d_24">
      <defs>
       <path id="m60f7db817a" d="M 0 0 
L -3.5 0 
" style="stroke: #000000; stroke-width: 0.8"/>
      </defs>
      <g>
       <use xlink:href="#m60f7db817a" x="72" y="363.69" style="stroke: #000000; stroke-width: 0.8"/>
      </g>
     </g>
     <g id="text_13">
      <!-- 0.0 -->
      <g transform="translate(49.096875 367.489219) scale(0.1 -0.1)">
       <use xlink:href="#DejaVuSans-30"/>
       <use xlink:href="#DejaVuSans-2e" x="63.623047"/>
       <use xlink:href="#DejaVuSans-30" x="95.410156"/>
      </g>
     </g>
    </g>
    <g id="ytick_2">
     <g id="line2d_25">
      <path d="M 72 311.715 
L 518.4 311.715 
" clip-path="url(#pef1b0eb559)" style="fill: none; stroke: #b0b0b0; stroke-width: 0.8; stroke-linecap: square"/>
     </g>
     <g id="line2d_26">
      <g>
       <use xlink:href="#m60f7db817a" x="72" y="311.715" style="stroke: #000000; stroke-width: 0.8"/>
      </g>
     </g>
     <g id="text_14">
      <!-- 0.5 -->
      <g transform="translate(49.096875 315.514219) scale(0.1 -0.1)">
       <use xlink:href="#DejaVuSans-30"/>
       <use xlink:href="#DejaVuSans-2e" x="63.623047"/>
       <use xlink:href="#DejaVuSans-35" x="95.410156"/>
      </g>
     </g>
    </g>
    <g id="ytick_3">
     <g id="line2d_27">
      <path d="M 72 259.74 
L 518.4 259.74 
" clip-path="url(#pef1b0eb559)" style="fill: none; stroke: #b0b0b0; stroke-width: 0.8; stroke-linecap: square"/>
     </g>
     <g id="line2d_28">
      <g>
       <use xlink:href="#m60f7db817a" x="72" y="259.74" style="stroke: #000000; stroke-width: 0.8"/>
      </g>
     </g>
     <g id="text_15">
      <!-- 1.0 -->
      <g transform="translate(49.096875 263.539219) scale(0.1 -0.1)">
       <use xlink:href="#DejaVuSans-31"/>
       <use xlink:href="#DejaVuSans-2e" x="63.623047"/>
       <use xlink:href="#DejaVuSans-30" x="95.410156"/>
      </g>
     </g>
    </g>
    <g id="ytick_4">
     <g id="line2d_29">
      <path d="M 72 207.765 
L 518.4 207.765 
" clip-path="url(#pef1b0eb559)" style="fill: none; stroke: #b0b0b0; stroke-width: 0.8; stroke-linecap: square"/>
     </g>
     <g id="line2d_30">
      <g>
       <use xlink:href="#m60f7db817a" x="72" y="207.765" style="stroke: #000000; stroke-width: 0.8"/>
      </g>
     </g>
     <g id="text_16">
      <!-- 1.5 -->
      <g transform="translate(49.096875 211.564219) scale(0.1 -0.1)">
       <use xlink:href="#DejaVuSans-31"/>
       <use xlink:href="#DejaVuSans-2e" x="63.623047"/>
       <use xlink:href="#DejaVuSans-35" x="95.410156"/>
      </g>
     </g>
    </g>
    <g id="ytick_5">
     <g id="line2d_31">
      <path d="M 72 155.79 
L 518.4 155.79 
" clip-path="url(#pef1b0eb559)" style="fill: none; stroke: #b0b0b0; stroke-width: 0.8; stroke-linecap: square"/>
     </g>
     <g id="line2d_32">
      <g>
       <use xlink:href="#m60f7db817a" x="72" y="155.79" style="stroke: #000000; stroke-width: 0.8"/>
      </g>
     </g>
     <g id="text_17">
      <!-- 2.0 -->
      <g transform="translate(49.096875 159.589219) scale(0.1 -0.1)">
       <use xlink:href="#DejaVuSans-32"/>
       <use xlink:href="#DejaVuSans-2e" x="63.623047"/>
       <use xlink:href="#DejaVuSans-30" x="95.410156"/>
      </g>
     </g>
    </g>
    <g id="ytick_6">
     <g id="line2d_33">
      <path d="M 72 103.815 
L 518.4 103.815 
" clip-path="url(#pef1b0eb559)" style="fill: none; stroke: #b0b0b0; stroke-width: 0.8; stroke-linecap: square"/>
     </g>
     <g id="line2d_34">
      <g>
       <use xlink:href="#m60f7db817a" x="72" y="103.815" style="stroke: #000000; stroke-width: 0.8"/>
      </g>
     </g>
     <g id="text_18">
      <!-- 2.5 -->
      <g transform="translate(49.096875 107.614219) scale(0.1 -0.1)">
       <use xlink:href="#DejaVuSans-32"/>
       <use xlink:href="#DejaVuSans-2e" x="63.623047"/>
       <use xlink:href="#DejaVuSans-35" x="95.410156"/>
      </g>
     </g>
    </g>
    <g id="ytick_7">
     <g id="line2d_35">
      <path d="M 72 51.84 
L 518.4 51.84 
" clip-path="url(#pef1b0eb559)" style="fill: none; stroke: #b0b0b0; stroke-width: 0.8; stroke-linecap: square"/>
     </g>
     <g id="line2d_36">
      <g>
       <use xlink:href="#m60f7db817a" x="72" y="51.84" style="stroke: #000000; stroke-width: 0.8"/>
      </g>
     </g>
     <g id="text_19">
      <!-- 3.0 -->
      <g transform="translate(49.096875 55.639219) scale(0.1 -0.1)">
       <use xlink:href="#DejaVuSans-33"/>
       <use xlink:href="#DejaVuSans-2e" x="63.623047"/>
       <use xlink:href="#DejaVuSans-30" x="95.410156"/>
      </g>
     </g>
    </g>
    <g id="text_20">
     <!-- blank corrected OD600 -->
     <g transform="translate(43.017187 276.115469) rotate(-90) scale(0.1 -0.1)">
      <defs>
       <path id="DejaVuSans-62" d="M 3116 1747 
Q 3116 2381 2855 2742 
Q 2594 3103 2138 3103 
Q 1681 3103 1420 2742 
Q 1159 2381 1159 1747 
Q 1159 1113 1420 752 
Q 1681 391 2138 391 
Q 2594 391 2855 752 
Q 3116 1113 3116 1747 
z
M 1159 2969 
Q 1341 3281 1617 3432 
Q 1894 3584 2278 3584 
Q 2916 3584 3314 3078 
Q 3713 2572 3713 1747 
Q 3713 922 3314 415 
Q 2916 -91 2278 -91 
Q 1894 -91 1617 61 
Q 1341 213 1159 525 
L 1159 0 
L 581 0 
L 581 4863 
L 1159 4863 
L 1159 2969 
z
" transform="scale(0.015625)"/>
       <path id="DejaVuSans-6c" d="M 603 4863 
L 1178 4863 
L 1178 0 
L 603 0 
L 603 4863 
z
" transform="scale(0.015625)"/>
       <path id="DejaVuSans-61" d="M 2194 1759 
Q 1497 1759 1228 1600 
Q 959 1441 959 1056 
Q 959 750 1161 570 
Q 1363 391 1709 391 
Q 2188 391 2477 730 
Q 2766 1069 2766 1631 
L 2766 1759 
L 2194 1759 
z
M 3341 1997 
L 3341 0 
L 2766 0 
L 2766 531 
Q 2569 213 2275 61 
Q 1981 -91 1556 -91 
Q 1019 -91 701 211 
Q 384 513 384 1019 
Q 384 1609 779 1909 
Q 1175 2209 1959 2209 
L 2766 2209 
L 2766 2266 
Q 2766 2663 2505 2880 
Q 2244 3097 1772 3097 
Q 1472 3097 1187 3025 
Q 903 2953 641 2809 
L 641 3341 
Q 956 3463 1253 3523 
Q 1550 3584 1831 3584 
Q 2591 3584 2966 3190 
Q 3341 2797 3341 1997 
z
" transform="scale(0.015625)"/>
       <path id="DejaVuSans-6b" d="M 581 4863 
L 1159 4863 
L 1159 1991 
L 2875 3500 
L 3609 3500 
L 1753 1863 
L 3688 0 
L 2938 0 
L 1159 1709 
L 1159 0 
L 581 0 
L 581 4863 
z
" transform="scale(0.015625)"/>
       <path id="DejaVuSans-63" d="M 3122 3366 
L 3122 2828 
Q 2878 2963 2633 3030 
Q 2388 3097 2138 3097 
Q 1578 3097 1268 2742 
Q 959 2388 959 1747 
Q 959 1106 1268 751 
Q 1578 397 2138 397 
Q 2388 397 2633 464 
Q 2878 531 3122 666 
L 3122 134 
Q 2881 22 2623 -34 
Q 2366 -91 2075 -91 
Q 1284 -91 818 406 
Q 353 903 353 1747 
Q 353 2603 823 3093 
Q 1294 3584 2113 3584 
Q 2378 3584 2631 3529 
Q 2884 3475 3122 3366 
z
" transform="scale(0.015625)"/>
       <path id="DejaVuSans-64" d="M 2906 2969 
L 2906 4863 
L 3481 4863 
L 3481 0 
L 2906 0 
L 2906 525 
Q 2725 213 2448 61 
Q 2172 -91 1784 -91 
Q 1150 -91 751 415 
Q 353 922 353 1747 
Q 353 2572 751 3078 
Q 1150 3584 1784 3584 
Q 2172 3584 2448 3432 
Q 2725 3281 2906 2969 
z
M 947 1747 
Q 947 1113 1208 752 
Q 1469 391 1925 391 
Q 2381 391 2643 752 
Q 2906 1113 2906 1747 
Q 2906 2381 2643 2742 
Q 2381 3103 1925 3103 
Q 1469 3103 1208 2742 
Q 947 2381 947 1747 
z
" transform="scale(0.015625)"/>
       <path id="DejaVuSans-4f" d="M 2522 4238 
Q 1834 4238 1429 3725 
Q 1025 3213 1025 2328 
Q 1025 1447 1429 934 
Q 1834 422 2522 422 
Q 3209 422 3611 934 
Q 4013 1447 4013 2328 
Q 4013 3213 3611 3725 
Q 3209 4238 2522 4238 
z
M 2522 4750 
Q 3503 4750 4090 4092 
Q 4678 3434 4678 2328 
Q 4678 1225 4090 567 
Q 3503 -91 2522 -91 
Q 1538 -91 948 565 
Q 359 1222 359 2328 
Q 359 3434 948 4092 
Q 1538 4750 2522 4750 
z
" transform="scale(0.015625)"/>
       <path id="DejaVuSans-44" d="M 1259 4147 
L 1259 519 
L 2022 519 
Q 2988 519 3436 956 
Q 3884 1394 3884 2338 
Q 3884 3275 3436 3711 
Q 2988 4147 2022 4147 
L 1259 4147 
z
M 628 4666 
L 1925 4666 
Q 3281 4666 3915 4102 
Q 4550 3538 4550 2338 
Q 4550 1131 3912 565 
Q 3275 0 1925 0 
L 628 0 
L 628 4666 
z
" transform="scale(0.015625)"/>
      </defs>
      <use xlink:href="#DejaVuSans-62"/>
      <use xlink:href="#DejaVuSans-6c" x="63.476562"/>
      <use xlink:href="#DejaVuSans-61" x="91.259766"/>
      <use xlink:href="#DejaVuSans-6e" x="152.539062"/>
      <use xlink:href="#DejaVuSans-6b" x="215.917969"/>
      <use xlink:href="#DejaVuSans-20" x="273.828125"/>
      <use xlink:href="#DejaVuSans-63" x="305.615234"/>
      <use xlink:href="#DejaVuSans-6f" x="360.595703"/>
      <use xlink:href="#DejaVuSans-72" x="421.777344"/>
      <use xlink:href="#DejaVuSans-72" x="461.140625"/>
      <use xlink:href="#DejaVuSans-65" x="500.003906"/>
      <use xlink:href="#DejaVuSans-63" x="561.527344"/>
      <use xlink:href="#DejaVuSans-74" x="616.507812"/>
      <use xlink:href="#DejaVuSans-65" x="655.716797"/>
      <use xlink:href="#DejaVuSans-64" x="717.240234"/>
      <use xlink:href="#DejaVuSans-20" x="780.716797"/>
      <use xlink:href="#DejaVuSans-4f" x="812.503906"/>
      <use xlink:href="#DejaVuSans-44" x="891.214844"/>
      <use xlink:href="#DejaVuSans-36" x="968.216797"/>
      <use xlink:href="#DejaVuSans-30" x="1031.839844"/>
      <use xlink:href="#DejaVuSans-30" x="1095.462891"/>
     </g>
    </g>
   </g>
   <g id="line2d_37">
    <path d="M 92.290909 363.388545 
L 93.302925 370.457145 
L 94.31494 370.249245 
L 95.326955 369.417645 
L 96.338971 369.417645 
L 97.350986 369.105795 
L 98.363002 369.209745 
L 99.375017 368.793945 
L 100.387032 369.625545 
L 101.399048 369.729495 
L 102.411063 369.313695 
L 103.423079 369.937395 
L 104.435094 369.729495 
L 105.447109 370.145295 
L 107.47114 369.521595 
L 109.495171 369.625545 
L 110.507187 369.521595 
L 111.519202 368.897895 
L 112.531217 369.417645 
L 114.555248 368.793945 
L 115.567264 369.417645 
L 116.579279 368.897895 
L 117.591294 369.417645 
L 118.60331 369.105795 
L 119.615325 369.209745 
L 120.627341 368.689995 
L 121.639356 368.793945 
L 122.651372 368.482095 
L 123.663387 368.586045 
L 126.699433 367.962345 
L 127.711449 368.170245 
L 128.723464 367.442595 
L 129.735479 367.442595 
L 134.795557 366.403095 
L 136.819587 365.467545 
L 138.843618 365.051745 
L 139.855634 364.324095 
L 141.879664 363.908295 
L 148.963772 360.893745 
L 149.975788 360.789795 
L 150.987803 360.062145 
L 153.011834 359.126595 
L 154.023849 358.918695 
L 156.04788 357.775245 
L 157.059896 357.359445 
L 158.071911 356.631795 
L 160.095942 355.696245 
L 165.156019 352.161945 
L 166.168034 351.642195 
L 169.204081 349.251345 
L 171.228112 347.692095 
L 172.240127 346.860495 
L 173.252142 345.613095 
L 174.264158 345.405195 
L 178.312219 341.351145 
L 179.324235 340.519545 
L 182.360281 337.401045 
L 184.384312 334.906245 
L 185.396327 333.970695 
L 186.408343 332.515395 
L 187.420358 331.579845 
L 188.432374 330.124545 
L 189.444389 329.188995 
L 190.456404 327.837645 
L 191.46842 326.902095 
L 192.480435 325.134945 
L 193.492451 323.887545 
L 194.504466 322.328295 
L 195.516482 321.704595 
L 199.564543 315.571545 
L 200.576559 314.532045 
L 201.588574 312.868845 
L 203.612605 310.062195 
L 204.62462 308.606895 
L 205.636636 307.359495 
L 206.648651 305.488395 
L 207.660667 304.137045 
L 208.672682 302.993595 
L 210.696713 300.394845 
L 211.708728 299.667195 
L 213.732759 297.900045 
L 214.744774 297.172395 
L 215.75679 296.756595 
L 216.768805 296.028945 
L 217.780821 295.613145 
L 218.792836 294.573645 
L 220.816867 293.845995 
L 221.828882 292.910445 
L 222.840898 292.598595 
L 223.852913 292.078845 
L 224.864929 291.039345 
L 225.876944 290.727495 
L 226.888959 290.207745 
L 227.900975 289.064295 
L 228.91299 288.648495 
L 229.925006 287.608995 
L 230.937021 287.089245 
L 231.949036 286.777395 
L 233.973067 285.010245 
L 234.985083 284.594445 
L 235.997098 283.450995 
L 240.04516 280.956195 
L 241.057175 279.812745 
L 242.069191 279.292995 
L 243.081206 278.149545 
L 245.105237 276.694245 
L 247.129268 275.550795 
L 248.141283 274.303395 
L 249.153299 273.783645 
L 250.165314 272.848095 
L 251.177329 271.704645 
L 252.189345 271.392795 
L 254.213376 269.625645 
L 255.225391 269.313795 
L 256.237406 268.794045 
L 257.249422 267.650595 
L 258.261437 267.234795 
L 259.273453 265.571595 
L 260.285468 265.779495 
L 261.297484 265.051845 
L 262.309499 264.116295 
L 263.321514 263.700495 
L 265.345545 262.453095 
L 266.357561 262.141245 
L 267.369576 261.205695 
L 268.381591 260.789895 
L 269.393607 259.958295 
L 270.405622 259.854345 
L 271.417638 258.814845 
L 272.429653 258.087195 
L 273.441669 258.087195 
L 274.453684 256.943745 
L 275.465699 257.151645 
L 276.477715 256.008195 
L 279.513761 254.552895 
L 280.525776 254.241045 
L 281.537792 252.993645 
L 283.561823 251.954145 
L 284.573838 251.746245 
L 285.585854 251.018595 
L 286.597869 250.498845 
L 287.609884 250.498845 
L 288.6219 249.667245 
L 290.645931 248.939595 
L 291.657946 248.523795 
L 292.669961 247.900095 
L 294.693992 247.588245 
L 295.706008 247.068495 
L 296.718023 246.756645 
L 297.730039 246.236895 
L 298.742054 246.132945 
L 299.754069 245.717145 
L 300.766085 245.093445 
L 301.7781 244.781595 
L 303.802131 243.638145 
L 304.814146 243.742095 
L 305.826162 243.014445 
L 306.838177 242.910495 
L 307.850193 241.974945 
L 308.862208 241.767045 
L 309.874224 240.519645 
L 310.886239 240.415695 
L 314.934301 238.440645 
L 315.946316 238.336695 
L 317.970347 237.193245 
L 318.982362 236.985345 
L 319.994378 236.985345 
L 323.030424 235.426095 
L 324.042439 235.530045 
L 325.054455 234.802395 
L 326.06647 234.282645 
L 327.078486 233.554995 
L 328.090501 233.451045 
L 329.102516 233.554995 
L 330.114532 233.347095 
L 331.126547 232.203645 
L 334.162594 231.579945 
L 335.174609 230.852295 
L 336.186624 230.540445 
L 337.19864 229.708845 
L 338.210655 229.708845 
L 339.222671 229.189095 
L 340.234686 228.461445 
L 341.246701 228.773295 
L 342.258717 227.837745 
L 343.270732 227.733795 
L 346.306779 225.654795 
L 348.330809 225.342945 
L 349.342825 224.511345 
L 350.35484 223.471845 
L 351.366856 223.159995 
L 352.378871 222.640245 
L 353.390886 222.536295 
L 354.402902 222.016545 
L 355.414917 221.184945 
L 356.426933 221.080995 
L 360.474994 219.417795 
L 362.499025 218.274345 
L 363.511041 217.858545 
L 364.523056 217.650645 
L 368.571118 215.571645 
L 369.583133 215.259795 
L 371.607164 215.259795 
L 372.619179 214.012395 
L 373.631195 213.700545 
L 374.64321 213.180795 
L 375.655226 211.517595 
L 378.691272 214.532145 
L 379.703287 215.259795 
L 380.715303 216.195345 
L 381.727318 217.442745 
L 382.739333 218.378295 
L 383.751349 219.729645 
L 384.763364 220.769145 
L 385.77538 222.536295 
L 386.787395 223.783695 
L 387.799411 224.511345 
L 388.811426 226.278495 
L 390.835457 228.877245 
L 391.847472 229.812795 
L 392.859488 230.956245 
L 399.943596 237.401145 
L 401.967626 238.960395 
L 402.979642 239.688045 
L 403.991657 240.727545 
L 405.003673 241.039395 
L 406.015688 241.143345 
L 408.039719 242.494695 
L 410.06375 243.118395 
L 411.075765 244.365795 
L 412.087781 244.053945 
L 414.111811 245.197395 
L 415.123827 245.301345 
L 417.147858 246.028995 
L 418.159873 246.340845 
L 419.171888 247.068495 
L 420.183904 247.068495 
L 421.195919 247.796145 
L 423.21995 248.731695 
L 424.231966 249.251445 
L 425.243981 249.251445 
L 426.255996 249.667245 
L 427.268012 250.394895 
L 428.280027 250.706745 
L 429.292043 251.226495 
L 430.304058 251.330445 
L 432.328089 252.265995 
L 433.340104 252.785745 
L 435.364135 253.513395 
L 436.376151 253.409445 
L 439.412197 254.656845 
L 440.424212 254.864745 
L 441.436228 255.280545 
L 443.460258 255.696345 
L 444.472274 255.696345 
L 447.50832 256.839795 
L 448.520336 256.735845 
L 449.532351 257.671395 
L 450.544366 257.567445 
L 451.556382 258.191145 
L 452.568397 258.191145 
L 453.580413 258.606945 
L 454.592428 258.814845 
L 455.604443 258.606945 
L 456.616459 259.022745 
L 458.64049 259.438545 
L 459.652505 260.062245 
L 460.664521 260.062245 
L 461.676536 260.685945 
L 462.688551 260.685945 
L 463.700567 260.478045 
L 464.712582 260.789895 
L 465.724598 261.413595 
L 466.736613 261.413595 
L 467.748628 261.725445 
L 469.772659 262.037295 
L 470.784675 262.557045 
L 471.79669 262.453095 
L 472.808706 262.557045 
L 473.820721 262.972845 
L 474.832736 263.076795 
L 475.844752 263.700495 
L 477.868783 263.804445 
L 478.880798 264.012345 
L 479.892813 264.532095 
L 480.904829 264.636045 
L 481.916844 264.532095 
L 482.92886 264.947895 
L 483.940875 265.779495 
L 486.976921 265.467645 
L 487.988937 265.987395 
L 489.000952 265.779495 
L 491.024983 266.091345 
L 492.036998 266.299245 
L 493.049014 266.195295 
L 494.061029 266.818995 
L 495.073045 266.611095 
L 496.08506 266.922945 
L 497.097075 266.922945 
L 498.109091 267.338745 
L 498.109091 267.338745 
" clip-path="url(#pef1b0eb559)" style="fill: none; stroke: #0000ff; stroke-opacity: 0.5; stroke-width: 1.5; stroke-linecap: square"/>
   </g>
   <g id="line2d_38">
    <path d="M 92.290909 364.428045 
L 93.302925 369.833445 
L 94.31494 370.561095 
L 95.326955 370.768995 
L 96.338971 370.665045 
L 98.363002 370.976895 
L 99.375017 370.249245 
L 100.387032 370.976895 
L 102.411063 370.041345 
L 103.423079 370.041345 
L 104.435094 369.729495 
L 105.447109 369.729495 
L 106.459125 369.313695 
L 107.47114 369.417645 
L 108.483156 368.586045 
L 109.495171 368.170245 
L 110.507187 367.962345 
L 111.519202 367.442595 
L 112.531217 367.754445 
L 113.543233 367.130745 
L 114.555248 367.858395 
L 115.567264 367.546545 
L 116.579279 367.546545 
L 117.591294 367.858395 
L 118.60331 368.586045 
L 119.615325 368.170245 
L 121.639356 368.689995 
L 123.663387 367.962345 
L 125.687418 368.066295 
L 126.699433 367.858395 
L 127.711449 368.378145 
L 128.723464 368.066295 
L 129.735479 367.338645 
L 132.771526 367.650495 
L 134.795557 366.922845 
L 135.807572 367.130745 
L 136.819587 366.714945 
L 137.831603 366.818895 
L 138.843618 366.299145 
L 141.879664 365.571495 
L 142.89168 365.155695 
L 144.915711 364.012245 
L 145.927726 363.492495 
L 146.939742 363.180645 
L 147.951757 362.556945 
L 149.975788 361.829295 
L 150.987803 361.205595 
L 151.999819 360.893745 
L 155.035865 359.334495 
L 157.059896 357.983145 
L 158.071911 356.943645 
L 159.083927 356.215995 
L 162.119973 353.513295 
L 165.156019 351.122445 
L 166.168034 350.706645 
L 167.18005 349.978995 
L 169.204081 348.939495 
L 172.240127 346.860495 
L 173.252142 346.236795 
L 174.264158 346.028895 
L 175.276173 344.781495 
L 177.300204 343.534095 
L 178.312219 342.390645 
L 182.360281 338.648445 
L 183.372297 337.401045 
L 185.396327 335.633895 
L 186.408343 334.386495 
L 187.420358 332.827245 
L 190.456404 329.604795 
L 191.46842 328.253445 
L 192.480435 327.109995 
L 194.504466 324.199395 
L 195.516482 323.159895 
L 196.528497 321.808545 
L 197.540512 320.145345 
L 198.552528 318.793995 
L 199.564543 317.234745 
L 201.588574 314.635995 
L 202.600589 313.180695 
L 203.612605 311.933295 
L 204.62462 310.893795 
L 206.648651 307.983195 
L 207.660667 306.839745 
L 208.672682 305.488395 
L 210.696713 302.473845 
L 211.708728 301.122495 
L 212.720744 300.186945 
L 213.732759 299.563245 
L 215.75679 297.796095 
L 217.780821 296.444745 
L 218.792836 295.717095 
L 219.804852 295.509195 
L 220.816867 294.781545 
L 221.828882 294.365745 
L 226.888959 290.103795 
L 227.900975 288.960345 
L 230.937021 286.985295 
L 231.949036 286.049745 
L 235.997098 283.139145 
L 237.009114 282.723345 
L 238.021129 282.099645 
L 239.033144 281.164095 
L 240.04516 280.644345 
L 241.057175 279.812745 
L 242.069191 279.189045 
L 243.081206 278.253495 
L 244.093221 277.837695 
L 246.117252 276.278445 
L 247.129268 275.966595 
L 249.153299 274.199445 
L 250.165314 273.367845 
L 251.177329 271.912545 
L 252.189345 271.184895 
L 253.20136 269.833545 
L 254.213376 269.001945 
L 255.225391 267.858495 
L 256.237406 267.026895 
L 257.249422 265.883445 
L 259.273453 264.220245 
L 261.297484 262.868895 
L 262.309499 261.725445 
L 263.321514 261.309645 
L 265.345545 259.958295 
L 266.357561 259.750395 
L 267.369576 258.710895 
L 269.393607 257.151645 
L 270.405622 256.839795 
L 272.429653 255.280545 
L 273.441669 254.864745 
L 274.453684 254.137095 
L 277.48973 252.681795 
L 278.501746 251.642295 
L 281.537792 249.563295 
L 282.549807 248.523795 
L 283.561823 248.107995 
L 286.597869 246.028995 
L 290.645931 244.261845 
L 294.693992 242.286795 
L 295.706008 241.870995 
L 296.718023 240.935445 
L 297.730039 240.935445 
L 298.742054 240.415695 
L 299.754069 239.376195 
L 300.766085 239.480145 
L 302.790116 238.648545 
L 303.802131 238.440645 
L 305.826162 236.985345 
L 307.850193 235.945845 
L 308.862208 235.114245 
L 309.874224 234.698445 
L 310.886239 233.762895 
L 311.898254 233.139195 
L 312.91027 233.035245 
L 313.922285 232.411545 
L 316.958331 231.164145 
L 317.970347 230.332545 
L 318.982362 230.124645 
L 319.994378 229.293045 
L 322.018409 228.773295 
L 324.042439 227.214045 
L 325.054455 227.317995 
L 326.06647 226.278495 
L 328.090501 225.342945 
L 329.102516 225.238995 
L 330.114532 224.719245 
L 331.126547 223.991595 
L 332.138563 224.199495 
L 333.150578 222.536295 
L 334.162594 221.808645 
L 335.174609 222.640245 
L 336.186624 221.808645 
L 337.19864 220.665195 
L 338.210655 220.873095 
L 339.222671 220.249395 
L 340.234686 220.041495 
L 341.246701 219.521745 
L 342.258717 218.794095 
L 344.282748 218.066445 
L 345.294763 216.819045 
L 346.306779 216.819045 
L 347.318794 216.195345 
L 349.342825 214.324245 
L 350.35484 214.220295 
L 351.366856 213.596595 
L 353.390886 211.829445 
L 354.402902 211.829445 
L 355.414917 211.309695 
L 356.426933 210.478095 
L 357.438948 210.062295 
L 358.450964 209.438595 
L 359.462979 208.606995 
L 360.474994 208.503045 
L 361.48701 207.567495 
L 362.499025 206.839845 
L 364.523056 206.320095 
L 365.535071 205.696395 
L 366.547087 204.656895 
L 367.559102 204.864795 
L 368.571118 203.513445 
L 369.583133 203.513445 
L 370.595148 202.785795 
L 371.607164 202.473945 
L 373.631195 200.394945 
L 374.64321 200.706795 
L 375.655226 199.875195 
L 377.679256 198.731745 
L 378.691272 197.692245 
L 379.703287 196.132995 
L 380.715303 196.652745 
L 381.727318 198.315945 
L 382.739333 198.627795 
L 383.751349 199.563345 
L 384.763364 201.018645 
L 385.77538 202.162095 
L 386.787395 203.617395 
L 388.811426 205.592445 
L 389.823441 207.463545 
L 390.835457 208.295145 
L 391.847472 208.710945 
L 393.871503 211.413645 
L 394.883518 213.596595 
L 395.895534 213.804495 
L 397.919565 216.299295 
L 398.93158 216.611145 
L 399.943596 218.170395 
L 400.955611 218.794095 
L 401.967626 220.145445 
L 402.979642 220.457295 
L 403.991657 221.912595 
L 405.003673 222.328395 
L 406.015688 222.952095 
L 408.039719 223.367895 
L 409.051734 224.927145 
L 410.06375 224.615295 
L 413.099796 226.486395 
L 414.111811 226.486395 
L 415.123827 227.317995 
L 416.135842 226.590345 
L 417.147858 227.421945 
L 418.159873 227.733795 
L 419.171888 228.461445 
L 420.183904 228.669345 
L 421.195919 229.189095 
L 422.207935 229.189095 
L 423.21995 229.500945 
L 424.231966 230.228595 
L 425.243981 230.124645 
L 426.255996 230.956245 
L 427.268012 231.268095 
L 428.280027 231.164145 
L 430.304058 232.931295 
L 432.328089 233.035245 
L 434.35212 234.178695 
L 435.364135 234.386595 
L 436.376151 235.114245 
L 437.388166 233.243145 
L 438.400181 235.530045 
L 440.424212 235.841895 
L 441.436228 235.633995 
L 442.448243 236.153745 
L 443.460258 236.985345 
L 444.472274 235.530045 
L 445.484289 236.985345 
L 446.496305 237.712995 
L 448.520336 237.401145 
L 449.532351 238.544595 
L 450.544366 238.648545 
L 451.556382 238.128795 
L 452.568397 238.648545 
L 453.580413 239.584095 
L 454.592428 239.272245 
L 455.604443 239.168295 
L 456.616459 239.584095 
L 457.628474 239.168295 
L 458.64049 239.895945 
L 460.664521 240.623595 
L 461.676536 240.623595 
L 462.688551 240.935445 
L 464.712582 241.974945 
L 465.724598 241.974945 
L 466.736613 241.767045 
L 467.748628 242.286795 
L 469.772659 242.286795 
L 470.784675 242.702595 
L 471.79669 242.494695 
L 474.832736 243.534195 
L 475.844752 243.534195 
L 476.856767 243.846045 
L 477.868783 244.573695 
L 478.880798 244.261845 
L 479.892813 244.469745 
L 480.904829 244.989495 
L 481.916844 244.573695 
L 482.92886 244.469745 
L 483.940875 245.301345 
L 484.952891 245.405295 
L 485.964906 244.469745 
L 486.976921 244.989495 
L 487.988937 246.028995 
L 489.000952 245.405295 
L 490.012968 246.652695 
L 491.024983 246.340845 
L 493.049014 245.405295 
L 494.061029 246.652695 
L 495.073045 245.925045 
L 496.08506 246.340845 
L 497.097075 245.821095 
L 498.109091 247.484295 
L 498.109091 247.484295 
" clip-path="url(#pef1b0eb559)" style="fill: none; stroke: #0000ff; stroke-opacity: 0.5; stroke-width: 1.5; stroke-linecap: square"/>
   </g>
   <g id="line2d_39">
    <path d="M 92.290909 365.259645 
L 93.302925 369.625545 
L 95.326955 370.249245 
L 98.363002 369.937395 
L 99.375017 369.417645 
L 101.399048 369.313695 
L 102.411063 368.897895 
L 103.423079 369.313695 
L 105.447109 369.625545 
L 106.459125 369.001845 
L 107.47114 369.001845 
L 108.483156 368.689995 
L 109.495171 368.689995 
L 110.507187 367.962345 
L 111.519202 367.858395 
L 112.531217 367.338645 
L 113.543233 367.026795 
L 115.567264 367.130745 
L 116.579279 367.234695 
L 117.591294 367.026795 
L 120.627341 367.442595 
L 121.639356 367.234695 
L 123.663387 367.338645 
L 124.675402 366.922845 
L 125.687418 366.299145 
L 127.711449 366.922845 
L 128.723464 366.403095 
L 129.735479 366.299145 
L 130.747495 366.610995 
L 131.75951 366.299145 
L 132.771526 367.130745 
L 133.783541 366.610995 
L 134.795557 366.299145 
L 135.807572 366.195195 
L 136.819587 365.883345 
L 137.831603 365.363595 
L 138.843618 365.155695 
L 141.879664 363.804345 
L 142.89168 363.284595 
L 143.903695 362.972745 
L 144.915711 362.349045 
L 146.939742 361.621395 
L 147.951757 361.309545 
L 148.963772 360.789795 
L 149.975788 360.062145 
L 150.987803 359.542395 
L 151.999819 359.230545 
L 153.011834 358.502895 
L 155.035865 357.879195 
L 156.04788 357.047595 
L 158.071911 356.008095 
L 159.083927 354.968595 
L 161.107957 353.513295 
L 162.119973 352.473795 
L 164.144004 350.810595 
L 165.156019 350.186895 
L 166.168034 349.771095 
L 167.18005 348.731595 
L 168.192065 348.003945 
L 172.240127 345.924945 
L 173.252142 345.093345 
L 174.264158 344.885445 
L 178.312219 341.662995 
L 179.324235 340.311645 
L 181.348266 337.920795 
L 182.360281 337.401045 
L 183.372297 336.153645 
L 184.384312 335.114145 
L 186.408343 332.619345 
L 187.420358 330.956145 
L 189.444389 329.396895 
L 191.46842 326.174445 
L 192.480435 325.134945 
L 193.492451 323.679645 
L 194.504466 322.536195 
L 195.516482 320.769045 
L 196.528497 319.729545 
L 197.540512 318.066345 
L 200.576559 314.116245 
L 201.588574 312.453045 
L 204.62462 309.022695 
L 205.636636 307.255545 
L 209.684697 301.434345 
L 210.696713 300.290895 
L 211.708728 299.563245 
L 213.732759 297.276345 
L 214.744774 296.652645 
L 215.75679 295.821045 
L 217.780821 294.677595 
L 218.792836 294.469695 
L 219.804852 293.326245 
L 220.816867 293.014395 
L 222.840898 291.870945 
L 223.852913 291.143295 
L 224.864929 289.687995 
L 225.876944 288.856395 
L 226.888959 288.336645 
L 228.91299 285.737895 
L 233.973067 281.995695 
L 234.985083 281.060145 
L 235.997098 281.164095 
L 237.009114 280.020645 
L 238.021129 279.292995 
L 239.033144 278.981145 
L 241.057175 277.733745 
L 242.069191 277.629795 
L 243.081206 277.213995 
L 244.093221 276.590295 
L 245.105237 275.654745 
L 246.117252 275.446845 
L 247.129268 274.927095 
L 248.141283 273.887595 
L 249.153299 273.263895 
L 252.189345 269.209845 
L 253.20136 268.066395 
L 254.213376 267.130845 
L 255.225391 265.779495 
L 258.261437 263.284695 
L 259.273453 262.141245 
L 260.285468 261.829395 
L 262.309499 259.958295 
L 263.321514 259.958295 
L 264.33353 259.334595 
L 265.345545 258.191145 
L 267.369576 257.671395 
L 269.393607 256.527945 
L 270.405622 255.904245 
L 271.417638 255.592395 
L 273.441669 254.344995 
L 274.453684 252.993645 
L 275.465699 253.617345 
L 278.501746 251.954145 
L 279.513761 251.122545 
L 280.525776 249.979095 
L 282.549807 248.315895 
L 283.561823 247.172445 
L 284.573838 246.964545 
L 285.585854 245.821095 
L 286.597869 245.405295 
L 287.609884 244.781595 
L 288.6219 244.365795 
L 290.645931 243.949995 
L 291.657946 243.222345 
L 292.669961 242.182845 
L 294.693992 241.663095 
L 295.706008 241.767045 
L 296.718023 240.935445 
L 297.730039 240.623595 
L 298.742054 240.103845 
L 299.754069 239.376195 
L 300.766085 238.960395 
L 301.7781 238.856445 
L 302.790116 238.128795 
L 303.802131 237.920895 
L 305.826162 237.089295 
L 307.850193 236.985345 
L 308.862208 235.737945 
L 310.886239 234.074745 
L 312.91027 232.723395 
L 313.922285 232.723395 
L 314.934301 231.579945 
L 315.946316 231.372045 
L 316.958331 230.852295 
L 317.970347 230.020695 
L 318.982362 230.332545 
L 319.994378 229.708845 
L 321.006393 229.293045 
L 322.018409 229.189095 
L 323.030424 227.941695 
L 324.042439 227.733795 
L 325.054455 227.317995 
L 326.06647 226.382445 
L 327.078486 226.070595 
L 328.090501 226.070595 
L 329.102516 225.654795 
L 330.114532 225.031095 
L 331.126547 224.095545 
L 332.138563 224.095545 
L 333.150578 223.679745 
L 334.162594 222.640245 
L 335.174609 222.952095 
L 336.186624 222.328395 
L 337.19864 221.496795 
L 339.222671 221.080995 
L 340.234686 219.937545 
L 341.246701 219.625695 
L 342.258717 219.001995 
L 343.270732 218.690145 
L 346.306779 216.611145 
L 347.318794 216.611145 
L 348.330809 215.779545 
L 349.342825 214.324245 
L 350.35484 213.388695 
L 351.366856 212.972895 
L 352.378871 212.764995 
L 353.390886 212.037345 
L 355.414917 210.893895 
L 356.426933 210.789945 
L 357.438948 209.334645 
L 358.450964 209.438595 
L 359.462979 208.710945 
L 360.474994 208.399095 
L 361.48701 207.359595 
L 364.523056 206.008245 
L 365.535071 204.968745 
L 366.547087 204.864795 
L 367.559102 204.345045 
L 368.571118 203.097645 
L 369.583133 202.577895 
L 370.595148 202.473945 
L 371.607164 201.850245 
L 373.631195 200.187045 
L 374.64321 200.187045 
L 375.655226 199.043595 
L 376.667241 199.043595 
L 377.679256 198.315945 
L 378.691272 196.756695 
L 379.703287 198.211995 
L 380.715303 197.900145 
L 381.727318 199.355445 
L 382.739333 200.290995 
L 384.763364 202.681845 
L 385.77538 202.889745 
L 387.799411 206.008245 
L 389.823441 208.606995 
L 390.835457 210.166245 
L 391.847472 210.997845 
L 392.859488 212.141295 
L 394.883518 213.804495 
L 395.895534 215.155845 
L 396.907549 217.338795 
L 397.919565 217.650645 
L 398.93158 218.170395 
L 399.943596 219.729645 
L 401.967626 221.496795 
L 402.979642 222.224445 
L 403.991657 223.367895 
L 405.003673 223.991595 
L 406.015688 224.095545 
L 407.027703 225.031095 
L 408.039719 225.238995 
L 409.051734 226.070595 
L 410.06375 226.278495 
L 413.099796 227.837745 
L 414.111811 228.045645 
L 416.135842 227.733795 
L 417.147858 228.773295 
L 418.159873 229.500945 
L 419.171888 229.396995 
L 421.195919 230.956245 
L 422.207935 230.436495 
L 423.21995 231.372045 
L 424.231966 231.164145 
L 425.243981 232.203645 
L 426.255996 231.164145 
L 427.268012 232.099695 
L 428.280027 232.307595 
L 429.292043 233.243145 
L 430.304058 233.347095 
L 431.316073 234.282645 
L 432.328089 234.178695 
L 433.340104 235.010295 
L 434.35212 235.114245 
L 435.364135 235.426095 
L 436.376151 236.153745 
L 437.388166 235.633995 
L 438.400181 236.153745 
L 439.412197 237.401145 
L 440.424212 236.777445 
L 442.448243 237.920895 
L 443.460258 237.816945 
L 444.472274 238.336695 
L 445.484289 238.128795 
L 446.496305 238.336695 
L 448.520336 238.440645 
L 449.532351 240.103845 
L 450.544366 240.207795 
L 451.556382 239.584095 
L 452.568397 240.623595 
L 453.580413 240.519645 
L 454.592428 241.039395 
L 455.604443 241.351245 
L 456.616459 240.831495 
L 457.628474 240.831495 
L 458.64049 242.286795 
L 459.652505 241.663095 
L 460.664521 242.494695 
L 461.676536 242.390745 
L 462.688551 242.910495 
L 463.700567 242.702595 
L 464.712582 243.014445 
L 465.724598 243.638145 
L 466.736613 243.118395 
L 467.748628 243.326295 
L 468.760644 244.469745 
L 469.772659 243.742095 
L 470.784675 244.677645 
L 471.79669 244.989495 
L 473.820721 245.197395 
L 474.832736 245.613195 
L 475.844752 246.548745 
L 476.856767 245.613195 
L 477.868783 246.444795 
L 478.880798 246.132945 
L 479.892813 246.652695 
L 480.904829 247.588245 
L 481.916844 246.964545 
L 482.92886 247.068495 
L 483.940875 247.692195 
L 484.952891 248.939595 
L 485.964906 247.692195 
L 486.976921 248.004045 
L 487.988937 248.939595 
L 489.000952 248.315895 
L 490.012968 248.523795 
L 491.024983 249.043545 
L 492.036998 248.627745 
L 493.049014 248.523795 
L 494.061029 249.667245 
L 495.073045 249.043545 
L 496.08506 249.667245 
L 498.109091 249.667245 
L 498.109091 249.667245 
" clip-path="url(#pef1b0eb559)" style="fill: none; stroke: #0000ff; stroke-opacity: 0.5; stroke-width: 1.5; stroke-linecap: square"/>
   </g>
   <g id="line2d_40">
    <path d="M 92.290909 367.442595 
L 93.302925 370.041345 
L 94.31494 370.353195 
L 95.326955 370.457145 
L 97.350986 370.249245 
L 100.387032 370.457145 
L 101.399048 370.145295 
L 102.411063 370.353195 
L 103.423079 369.937395 
L 104.435094 369.937395 
L 105.447109 370.561095 
L 106.459125 370.041345 
L 109.495171 369.937395 
L 110.507187 369.625545 
L 111.519202 369.729495 
L 112.531217 369.001845 
L 113.543233 368.482095 
L 114.555248 369.001845 
L 115.567264 368.274195 
L 116.579279 368.170245 
L 117.591294 368.274195 
L 118.60331 367.338645 
L 120.627341 367.858395 
L 122.651372 367.130745 
L 123.663387 367.234695 
L 124.675402 366.818895 
L 125.687418 366.610995 
L 126.699433 366.195195 
L 127.711449 366.507045 
L 128.723464 366.507045 
L 129.735479 365.571495 
L 130.747495 366.195195 
L 131.75951 366.610995 
L 132.771526 366.714945 
L 134.795557 366.091245 
L 136.819587 365.779395 
L 137.831603 365.259645 
L 139.855634 365.259645 
L 140.867649 364.947795 
L 142.89168 363.908295 
L 143.903695 363.804345 
L 144.915711 362.868795 
L 148.963772 361.205595 
L 149.975788 360.581895 
L 153.011834 359.646345 
L 159.083927 355.800195 
L 161.107957 354.033045 
L 163.131988 352.369845 
L 164.144004 351.330345 
L 165.156019 350.706645 
L 166.168034 350.602695 
L 171.228112 348.003945 
L 172.240127 347.692095 
L 173.252142 347.172345 
L 174.264158 346.236795 
L 175.276173 345.093345 
L 177.300204 343.638045 
L 178.312219 342.286695 
L 180.33625 340.519545 
L 186.408343 334.282545 
L 187.420358 332.723295 
L 189.444389 330.332445 
L 190.456404 329.085045 
L 191.46842 328.045545 
L 192.480435 326.694195 
L 193.492451 325.134945 
L 194.504466 324.303345 
L 195.516482 322.951995 
L 197.540512 319.833495 
L 198.552528 319.001895 
L 199.564543 316.922895 
L 200.576559 316.091295 
L 202.600589 313.388595 
L 203.612605 311.829345 
L 204.62462 310.685895 
L 205.636636 309.334545 
L 207.660667 306.216045 
L 209.684697 303.409395 
L 210.696713 301.954095 
L 211.708728 300.706695 
L 212.720744 299.979045 
L 213.732759 298.731645 
L 215.75679 297.276345 
L 216.768805 296.236845 
L 217.780821 295.821045 
L 219.804852 294.677595 
L 220.816867 294.469695 
L 221.828882 293.326245 
L 222.840898 292.910445 
L 225.876944 290.103795 
L 226.888959 288.960345 
L 227.900975 288.128745 
L 228.91299 287.089245 
L 229.925006 286.257645 
L 230.937021 285.841845 
L 231.949036 284.594445 
L 232.961052 284.074695 
L 233.973067 283.243095 
L 234.985083 282.827295 
L 235.997098 282.619395 
L 237.009114 282.723345 
L 238.021129 282.099645 
L 239.033144 281.891745 
L 241.057175 281.060145 
L 248.141283 275.862645 
L 249.153299 274.927095 
L 250.165314 273.783645 
L 251.177329 272.432295 
L 252.189345 271.392795 
L 253.20136 269.729595 
L 255.225391 267.338745 
L 256.237406 266.299245 
L 257.249422 265.675545 
L 261.297484 262.453095 
L 263.321514 261.725445 
L 264.33353 261.309645 
L 266.357561 260.997795 
L 270.405622 259.750395 
L 271.417638 259.230645 
L 272.429653 259.022745 
L 274.453684 257.879295 
L 275.465699 257.463495 
L 276.477715 256.735845 
L 278.501746 255.696345 
L 279.513761 254.344995 
L 280.525776 253.409445 
L 281.537792 251.538345 
L 282.549807 250.810695 
L 283.561823 249.667245 
L 284.573838 249.147495 
L 286.597869 247.692195 
L 288.6219 246.756645 
L 290.645931 245.821095 
L 292.669961 244.677645 
L 293.681977 244.469745 
L 296.718023 243.326295 
L 297.730039 243.014445 
L 299.754069 242.702595 
L 300.766085 242.182845 
L 302.790116 242.286795 
L 303.802131 241.870995 
L 304.814146 241.767045 
L 305.826162 241.455195 
L 307.850193 239.895945 
L 308.862208 238.752495 
L 309.874224 238.128795 
L 310.886239 237.297195 
L 312.91027 236.049795 
L 313.922285 235.633995 
L 314.934301 234.906345 
L 315.946316 234.698445 
L 317.970347 233.970795 
L 318.982362 233.139195 
L 319.994378 233.035245 
L 321.006393 231.995745 
L 322.018409 231.891795 
L 324.042439 231.372045 
L 325.054455 230.540445 
L 327.078486 229.812795 
L 328.090501 229.396995 
L 329.102516 228.669345 
L 330.114532 228.669345 
L 331.126547 227.837745 
L 332.138563 227.629845 
L 333.150578 227.006145 
L 334.162594 227.006145 
L 336.186624 225.654795 
L 337.19864 225.135045 
L 339.222671 224.615295 
L 340.234686 223.679745 
L 341.246701 222.952095 
L 343.270732 222.536295 
L 344.282748 221.808645 
L 345.294763 220.561245 
L 346.306779 220.145445 
L 348.330809 218.170395 
L 349.342825 217.546695 
L 350.35484 216.403245 
L 351.366856 216.091395 
L 353.390886 214.220295 
L 355.414917 213.492645 
L 356.426933 212.868945 
L 357.438948 212.661045 
L 358.450964 211.621545 
L 359.462979 210.997845 
L 361.48701 210.270195 
L 363.511041 209.126745 
L 364.523056 209.022795 
L 367.559102 207.151695 
L 368.571118 206.943795 
L 371.607164 205.384545 
L 372.619179 204.656895 
L 373.631195 204.552945 
L 374.64321 202.577895 
L 375.655226 202.266045 
L 376.667241 203.409495 
L 378.691272 204.552945 
L 379.703287 205.800345 
L 380.715303 206.424045 
L 382.739333 208.606995 
L 383.751349 210.166245 
L 384.763364 210.997845 
L 385.77538 212.037345 
L 386.787395 213.284745 
L 387.799411 214.324245 
L 388.811426 215.675595 
L 389.823441 216.715095 
L 390.835457 217.546695 
L 391.847472 219.521745 
L 392.859488 220.353345 
L 393.871503 221.496795 
L 395.895534 224.095545 
L 396.907549 225.342945 
L 398.93158 227.421945 
L 399.943596 228.253545 
L 400.955611 229.396995 
L 403.991657 231.579945 
L 405.003673 232.099695 
L 406.015688 233.035245 
L 408.039719 233.658945 
L 409.051734 234.490545 
L 410.06375 234.490545 
L 412.087781 235.530045 
L 413.099796 235.841895 
L 414.111811 235.945845 
L 415.123827 236.361645 
L 416.135842 236.361645 
L 417.147858 236.673495 
L 418.159873 236.777445 
L 419.171888 237.401145 
L 420.183904 237.297195 
L 421.195919 237.401145 
L 422.207935 237.920895 
L 423.21995 237.712995 
L 424.231966 238.544595 
L 427.268012 239.791995 
L 429.292043 240.311745 
L 430.304058 241.143345 
L 431.316073 241.247295 
L 432.328089 242.182845 
L 433.340104 242.286795 
L 434.35212 242.598645 
L 435.364135 242.702595 
L 436.376151 243.846045 
L 437.388166 243.742095 
L 438.400181 244.573695 
L 439.412197 244.781595 
L 440.424212 245.821095 
L 442.448243 246.756645 
L 443.460258 247.588245 
L 444.472274 247.380345 
L 445.484289 248.211945 
L 446.496305 248.211945 
L 450.544366 249.771195 
L 451.556382 249.979095 
L 452.568397 250.394895 
L 453.580413 250.498845 
L 454.592428 250.394895 
L 457.628474 251.850195 
L 459.652505 252.369945 
L 460.664521 252.993645 
L 461.676536 252.889695 
L 462.688551 253.617345 
L 463.700567 253.825245 
L 464.712582 254.344995 
L 465.724598 254.656845 
L 467.748628 254.760795 
L 468.760644 254.864745 
L 469.772659 255.488445 
L 471.79669 255.904245 
L 472.808706 256.423995 
L 473.820721 256.735845 
L 474.832736 257.255595 
L 475.844752 257.047695 
L 476.856767 257.879295 
L 477.868783 258.399045 
L 478.880798 258.606945 
L 480.904829 259.750395 
L 481.916844 259.334595 
L 482.92886 259.646445 
L 483.940875 260.478045 
L 484.952891 260.581995 
L 485.964906 260.374095 
L 487.988937 261.309645 
L 489.000952 261.725445 
L 490.012968 261.829395 
L 493.049014 261.413595 
L 495.073045 262.349145 
L 497.097075 262.764945 
L 498.109091 263.180745 
L 498.109091 263.180745 
" clip-path="url(#pef1b0eb559)" style="fill: none; stroke: #0000ff; stroke-opacity: 0.5; stroke-width: 1.5; stroke-linecap: square"/>
   </g>
   <g id="LineCollection_1">
    <path d="M 92.290909 366.851171 
L 92.290909 363.408244 
" clip-path="url(#pef1b0eb559)" style="fill: none; stroke: #ff0000; stroke-width: 1.5"/>
    <path d="M 132.771526 367.496857 
L 132.771526 366.608708 
" clip-path="url(#pef1b0eb559)" style="fill: none; stroke: #ff0000; stroke-width: 1.5"/>
    <path d="M 173.252142 346.923107 
L 173.252142 345.134683 
" clip-path="url(#pef1b0eb559)" style="fill: none; stroke: #ff0000; stroke-width: 1.5"/>
    <path d="M 213.732759 299.363065 
L 213.732759 297.372575 
" clip-path="url(#pef1b0eb559)" style="fill: none; stroke: #ff0000; stroke-width: 1.5"/>
    <path d="M 254.213376 269.621517 
L 254.213376 267.498798 
" clip-path="url(#pef1b0eb559)" style="fill: none; stroke: #ff0000; stroke-width: 1.5"/>
    <path d="M 294.693992 246.558409 
L 294.693992 241.237631 
" clip-path="url(#pef1b0eb559)" style="fill: none; stroke: #ff0000; stroke-width: 1.5"/>
    <path d="M 335.174609 229.501446 
L 335.174609 221.860119 
" clip-path="url(#pef1b0eb559)" style="fill: none; stroke: #ff0000; stroke-width: 1.5"/>
    <path d="M 375.655226 208.902221 
L 375.655226 197.448994 
" clip-path="url(#pef1b0eb559)" style="fill: none; stroke: #ff0000; stroke-width: 1.5"/>
    <path d="M 416.135842 242.988863 
L 416.135842 225.212602 
" clip-path="url(#pef1b0eb559)" style="fill: none; stroke: #ff0000; stroke-width: 1.5"/>
    <path d="M 456.616459 256.941219 
L 456.616459 238.495146 
" clip-path="url(#pef1b0eb559)" style="fill: none; stroke: #ff0000; stroke-width: 1.5"/>
    <path d="M 497.097075 266.433801 
L 497.097075 246.154314 
" clip-path="url(#pef1b0eb559)" style="fill: none; stroke: #ff0000; stroke-width: 1.5"/>
   </g>
   <g id="line2d_41">
    <defs>
     <path id="m71b1e4121b" d="M 5 0 
L -5 -0 
" style="stroke: #ff0000"/>
    </defs>
    <g clip-path="url(#pef1b0eb559)">
     <use xlink:href="#m71b1e4121b" x="92.290909" y="366.851171" style="fill: #ff0000; stroke: #ff0000"/>
     <use xlink:href="#m71b1e4121b" x="132.771526" y="367.496857" style="fill: #ff0000; stroke: #ff0000"/>
     <use xlink:href="#m71b1e4121b" x="173.252142" y="346.923107" style="fill: #ff0000; stroke: #ff0000"/>
     <use xlink:href="#m71b1e4121b" x="213.732759" y="299.363065" style="fill: #ff0000; stroke: #ff0000"/>
     <use xlink:href="#m71b1e4121b" x="254.213376" y="269.621517" style="fill: #ff0000; stroke: #ff0000"/>
     <use xlink:href="#m71b1e4121b" x="294.693992" y="246.558409" style="fill: #ff0000; stroke: #ff0000"/>
     <use xlink:href="#m71b1e4121b" x="335.174609" y="229.501446" style="fill: #ff0000; stroke: #ff0000"/>
     <use xlink:href="#m71b1e4121b" x="375.655226" y="208.902221" style="fill: #ff0000; stroke: #ff0000"/>
     <use xlink:href="#m71b1e4121b" x="416.135842" y="242.988863" style="fill: #ff0000; stroke: #ff0000"/>
     <use xlink:href="#m71b1e4121b" x="456.616459" y="256.941219" style="fill: #ff0000; stroke: #ff0000"/>
     <use xlink:href="#m71b1e4121b" x="497.097075" y="266.433801" style="fill: #ff0000; stroke: #ff0000"/>
    </g>
   </g>
   <g id="line2d_42">
    <g clip-path="url(#pef1b0eb559)">
     <use xlink:href="#m71b1e4121b" x="92.290909" y="363.408244" style="fill: #ff0000; stroke: #ff0000"/>
     <use xlink:href="#m71b1e4121b" x="132.771526" y="366.608708" style="fill: #ff0000; stroke: #ff0000"/>
     <use xlink:href="#m71b1e4121b" x="173.252142" y="345.134683" style="fill: #ff0000; stroke: #ff0000"/>
     <use xlink:href="#m71b1e4121b" x="213.732759" y="297.372575" style="fill: #ff0000; stroke: #ff0000"/>
     <use xlink:href="#m71b1e4121b" x="254.213376" y="267.498798" style="fill: #ff0000; stroke: #ff0000"/>
     <use xlink:href="#m71b1e4121b" x="294.693992" y="241.237631" style="fill: #ff0000; stroke: #ff0000"/>
     <use xlink:href="#m71b1e4121b" x="335.174609" y="221.860119" style="fill: #ff0000; stroke: #ff0000"/>
     <use xlink:href="#m71b1e4121b" x="375.655226" y="197.448994" style="fill: #ff0000; stroke: #ff0000"/>
     <use xlink:href="#m71b1e4121b" x="416.135842" y="225.212602" style="fill: #ff0000; stroke: #ff0000"/>
     <use xlink:href="#m71b1e4121b" x="456.616459" y="238.495146" style="fill: #ff0000; stroke: #ff0000"/>
     <use xlink:href="#m71b1e4121b" x="497.097075" y="246.154314" style="fill: #ff0000; stroke: #ff0000"/>
    </g>
   </g>
   <g id="line2d_43">
    <path d="M 92.290909 365.129707 
L 132.771526 367.052782 
L 173.252142 346.028895 
L 213.732759 298.36782 
L 254.213376 268.560158 
L 294.693992 243.89802 
L 335.174609 225.680782 
L 375.655226 203.175607 
L 416.135842 234.100732 
L 456.616459 247.718182 
L 497.097075 256.294058 
" clip-path="url(#pef1b0eb559)" style="fill: none; stroke: #ff0000; stroke-width: 1.5; stroke-linecap: square"/>
   </g>
   <g id="patch_3">
    <path d="M 72 384.48 
L 72 51.84 
" style="fill: none; stroke: #000000; stroke-width: 0.8; stroke-linejoin: miter; stroke-linecap: square"/>
   </g>
   <g id="patch_4">
    <path d="M 518.4 384.48 
L 518.4 51.84 
" style="fill: none; stroke: #000000; stroke-width: 0.8; stroke-linejoin: miter; stroke-linecap: square"/>
   </g>
   <g id="patch_5">
    <path d="M 72 384.48 
L 518.4 384.48 
" style="fill: none; stroke: #000000; stroke-width: 0.8; stroke-linejoin: miter; stroke-linecap: square"/>
   </g>
   <g id="patch_6">
    <path d="M 72 51.84 
L 518.4 51.84 
" style="fill: none; stroke: #000000; stroke-width: 0.8; stroke-linejoin: miter; stroke-linecap: square"/>
   </g>
   <g id="text_21">
    <!-- M26: Aspartat; Isoleucin; Threonin; Tryptophan; Phenylalanin; Methionin; Histidin; Arginin -->
    <g transform="translate(71.594531 45.84) scale(0.1 -0.1)">
     <defs>
      <path id="DejaVuSans-4d" d="M 628 4666 
L 1569 4666 
L 2759 1491 
L 3956 4666 
L 4897 4666 
L 4897 0 
L 4281 0 
L 4281 4097 
L 3078 897 
L 2444 897 
L 1241 4097 
L 1241 0 
L 628 0 
L 628 4666 
z
" transform="scale(0.015625)"/>
      <path id="DejaVuSans-3a" d="M 750 794 
L 1409 794 
L 1409 0 
L 750 0 
L 750 794 
z
M 750 3309 
L 1409 3309 
L 1409 2516 
L 750 2516 
L 750 3309 
z
" transform="scale(0.015625)"/>
      <path id="DejaVuSans-41" d="M 2188 4044 
L 1331 1722 
L 3047 1722 
L 2188 4044 
z
M 1831 4666 
L 2547 4666 
L 4325 0 
L 3669 0 
L 3244 1197 
L 1141 1197 
L 716 0 
L 50 0 
L 1831 4666 
z
" transform="scale(0.015625)"/>
      <path id="DejaVuSans-70" d="M 1159 525 
L 1159 -1331 
L 581 -1331 
L 581 3500 
L 1159 3500 
L 1159 2969 
Q 1341 3281 1617 3432 
Q 1894 3584 2278 3584 
Q 2916 3584 3314 3078 
Q 3713 2572 3713 1747 
Q 3713 922 3314 415 
Q 2916 -91 2278 -91 
Q 1894 -91 1617 61 
Q 1341 213 1159 525 
z
M 3116 1747 
Q 3116 2381 2855 2742 
Q 2594 3103 2138 3103 
Q 1681 3103 1420 2742 
Q 1159 2381 1159 1747 
Q 1159 1113 1420 752 
Q 1681 391 2138 391 
Q 2594 391 2855 752 
Q 3116 1113 3116 1747 
z
" transform="scale(0.015625)"/>
      <path id="DejaVuSans-3b" d="M 750 3309 
L 1409 3309 
L 1409 2516 
L 750 2516 
L 750 3309 
z
M 750 794 
L 1409 794 
L 1409 256 
L 897 -744 
L 494 -744 
L 750 256 
L 750 794 
z
" transform="scale(0.015625)"/>
      <path id="DejaVuSans-49" d="M 628 4666 
L 1259 4666 
L 1259 0 
L 628 0 
L 628 4666 
z
" transform="scale(0.015625)"/>
      <path id="DejaVuSans-54" d="M -19 4666 
L 3928 4666 
L 3928 4134 
L 2272 4134 
L 2272 0 
L 1638 0 
L 1638 4134 
L -19 4134 
L -19 4666 
z
" transform="scale(0.015625)"/>
      <path id="DejaVuSans-79" d="M 2059 -325 
Q 1816 -950 1584 -1140 
Q 1353 -1331 966 -1331 
L 506 -1331 
L 506 -850 
L 844 -850 
Q 1081 -850 1212 -737 
Q 1344 -625 1503 -206 
L 1606 56 
L 191 3500 
L 800 3500 
L 1894 763 
L 2988 3500 
L 3597 3500 
L 2059 -325 
z
" transform="scale(0.015625)"/>
      <path id="DejaVuSans-50" d="M 1259 4147 
L 1259 2394 
L 2053 2394 
Q 2494 2394 2734 2622 
Q 2975 2850 2975 3272 
Q 2975 3691 2734 3919 
Q 2494 4147 2053 4147 
L 1259 4147 
z
M 628 4666 
L 2053 4666 
Q 2838 4666 3239 4311 
Q 3641 3956 3641 3272 
Q 3641 2581 3239 2228 
Q 2838 1875 2053 1875 
L 1259 1875 
L 1259 0 
L 628 0 
L 628 4666 
z
" transform="scale(0.015625)"/>
      <path id="DejaVuSans-48" d="M 628 4666 
L 1259 4666 
L 1259 2753 
L 3553 2753 
L 3553 4666 
L 4184 4666 
L 4184 0 
L 3553 0 
L 3553 2222 
L 1259 2222 
L 1259 0 
L 628 0 
L 628 4666 
z
" transform="scale(0.015625)"/>
      <path id="DejaVuSans-67" d="M 2906 1791 
Q 2906 2416 2648 2759 
Q 2391 3103 1925 3103 
Q 1463 3103 1205 2759 
Q 947 2416 947 1791 
Q 947 1169 1205 825 
Q 1463 481 1925 481 
Q 2391 481 2648 825 
Q 2906 1169 2906 1791 
z
M 3481 434 
Q 3481 -459 3084 -895 
Q 2688 -1331 1869 -1331 
Q 1566 -1331 1297 -1286 
Q 1028 -1241 775 -1147 
L 775 -588 
Q 1028 -725 1275 -790 
Q 1522 -856 1778 -856 
Q 2344 -856 2625 -561 
Q 2906 -266 2906 331 
L 2906 616 
Q 2728 306 2450 153 
Q 2172 0 1784 0 
Q 1141 0 747 490 
Q 353 981 353 1791 
Q 353 2603 747 3093 
Q 1141 3584 1784 3584 
Q 2172 3584 2450 3431 
Q 2728 3278 2906 2969 
L 2906 3500 
L 3481 3500 
L 3481 434 
z
" transform="scale(0.015625)"/>
     </defs>
     <use xlink:href="#DejaVuSans-4d"/>
     <use xlink:href="#DejaVuSans-32" x="86.279297"/>
     <use xlink:href="#DejaVuSans-36" x="149.902344"/>
     <use xlink:href="#DejaVuSans-3a" x="213.525391"/>
     <use xlink:href="#DejaVuSans-20" x="247.216797"/>
     <use xlink:href="#DejaVuSans-41" x="279.003906"/>
     <use xlink:href="#DejaVuSans-73" x="347.412109"/>
     <use xlink:href="#DejaVuSans-70" x="399.511719"/>
     <use xlink:href="#DejaVuSans-61" x="462.988281"/>
     <use xlink:href="#DejaVuSans-72" x="524.267578"/>
     <use xlink:href="#DejaVuSans-74" x="565.380859"/>
     <use xlink:href="#DejaVuSans-61" x="604.589844"/>
     <use xlink:href="#DejaVuSans-74" x="665.869141"/>
     <use xlink:href="#DejaVuSans-3b" x="705.078125"/>
     <use xlink:href="#DejaVuSans-20" x="738.769531"/>
     <use xlink:href="#DejaVuSans-49" x="770.556641"/>
     <use xlink:href="#DejaVuSans-73" x="800.048828"/>
     <use xlink:href="#DejaVuSans-6f" x="852.148438"/>
     <use xlink:href="#DejaVuSans-6c" x="913.330078"/>
     <use xlink:href="#DejaVuSans-65" x="941.113281"/>
     <use xlink:href="#DejaVuSans-75" x="1002.636719"/>
     <use xlink:href="#DejaVuSans-63" x="1066.015625"/>
     <use xlink:href="#DejaVuSans-69" x="1120.996094"/>
     <use xlink:href="#DejaVuSans-6e" x="1148.779297"/>
     <use xlink:href="#DejaVuSans-3b" x="1212.158203"/>
     <use xlink:href="#DejaVuSans-20" x="1245.849609"/>
     <use xlink:href="#DejaVuSans-54" x="1277.636719"/>
     <use xlink:href="#DejaVuSans-68" x="1338.720703"/>
     <use xlink:href="#DejaVuSans-72" x="1402.099609"/>
     <use xlink:href="#DejaVuSans-65" x="1440.962891"/>
     <use xlink:href="#DejaVuSans-6f" x="1502.486328"/>
     <use xlink:href="#DejaVuSans-6e" x="1563.667969"/>
     <use xlink:href="#DejaVuSans-69" x="1627.046875"/>
     <use xlink:href="#DejaVuSans-6e" x="1654.830078"/>
     <use xlink:href="#DejaVuSans-3b" x="1718.208984"/>
     <use xlink:href="#DejaVuSans-20" x="1751.900391"/>
     <use xlink:href="#DejaVuSans-54" x="1783.6875"/>
     <use xlink:href="#DejaVuSans-72" x="1830.021484"/>
     <use xlink:href="#DejaVuSans-79" x="1871.134766"/>
     <use xlink:href="#DejaVuSans-70" x="1930.314453"/>
     <use xlink:href="#DejaVuSans-74" x="1993.791016"/>
     <use xlink:href="#DejaVuSans-6f" x="2033"/>
     <use xlink:href="#DejaVuSans-70" x="2094.181641"/>
     <use xlink:href="#DejaVuSans-68" x="2157.658203"/>
     <use xlink:href="#DejaVuSans-61" x="2221.037109"/>
     <use xlink:href="#DejaVuSans-6e" x="2282.316406"/>
     <use xlink:href="#DejaVuSans-3b" x="2345.695312"/>
     <use xlink:href="#DejaVuSans-20" x="2379.386719"/>
     <use xlink:href="#DejaVuSans-50" x="2411.173828"/>
     <use xlink:href="#DejaVuSans-68" x="2471.476562"/>
     <use xlink:href="#DejaVuSans-65" x="2534.855469"/>
     <use xlink:href="#DejaVuSans-6e" x="2596.378906"/>
     <use xlink:href="#DejaVuSans-79" x="2659.757812"/>
     <use xlink:href="#DejaVuSans-6c" x="2718.9375"/>
     <use xlink:href="#DejaVuSans-61" x="2746.720703"/>
     <use xlink:href="#DejaVuSans-6c" x="2808"/>
     <use xlink:href="#DejaVuSans-61" x="2835.783203"/>
     <use xlink:href="#DejaVuSans-6e" x="2897.0625"/>
     <use xlink:href="#DejaVuSans-69" x="2960.441406"/>
     <use xlink:href="#DejaVuSans-6e" x="2988.224609"/>
     <use xlink:href="#DejaVuSans-3b" x="3051.603516"/>
     <use xlink:href="#DejaVuSans-20" x="3085.294922"/>
     <use xlink:href="#DejaVuSans-4d" x="3117.082031"/>
     <use xlink:href="#DejaVuSans-65" x="3203.361328"/>
     <use xlink:href="#DejaVuSans-74" x="3264.884766"/>
     <use xlink:href="#DejaVuSans-68" x="3304.09375"/>
     <use xlink:href="#DejaVuSans-69" x="3367.472656"/>
     <use xlink:href="#DejaVuSans-6f" x="3395.255859"/>
     <use xlink:href="#DejaVuSans-6e" x="3456.4375"/>
     <use xlink:href="#DejaVuSans-69" x="3519.816406"/>
     <use xlink:href="#DejaVuSans-6e" x="3547.599609"/>
     <use xlink:href="#DejaVuSans-3b" x="3610.978516"/>
     <use xlink:href="#DejaVuSans-20" x="3644.669922"/>
     <use xlink:href="#DejaVuSans-48" x="3676.457031"/>
     <use xlink:href="#DejaVuSans-69" x="3751.652344"/>
     <use xlink:href="#DejaVuSans-73" x="3779.435547"/>
     <use xlink:href="#DejaVuSans-74" x="3831.535156"/>
     <use xlink:href="#DejaVuSans-69" x="3870.744141"/>
     <use xlink:href="#DejaVuSans-64" x="3898.527344"/>
     <use xlink:href="#DejaVuSans-69" x="3962.003906"/>
     <use xlink:href="#DejaVuSans-6e" x="3989.787109"/>
     <use xlink:href="#DejaVuSans-3b" x="4053.166016"/>
     <use xlink:href="#DejaVuSans-20" x="4086.857422"/>
     <use xlink:href="#DejaVuSans-41" x="4118.644531"/>
     <use xlink:href="#DejaVuSans-72" x="4187.052734"/>
     <use xlink:href="#DejaVuSans-67" x="4226.416016"/>
     <use xlink:href="#DejaVuSans-69" x="4289.892578"/>
     <use xlink:href="#DejaVuSans-6e" x="4317.675781"/>
     <use xlink:href="#DejaVuSans-69" x="4381.054688"/>
     <use xlink:href="#DejaVuSans-6e" x="4408.837891"/>
    </g>
   </g>
  </g>
 </g>
 <defs>
  <clipPath id="pef1b0eb559">
   <rect x="72" y="51.84" width="446.4" height="332.64"/>
  </clipPath>
 </defs>
</svg>
