<?xml version="1.0" encoding="utf-8" standalone="no"?>
<!DOCTYPE svg PUBLIC "-//W3C//DTD SVG 1.1//EN"
  "http://www.w3.org/Graphics/SVG/1.1/DTD/svg11.dtd">
<svg xmlns:xlink="http://www.w3.org/1999/xlink" width="576pt" height="432pt" viewBox="0 0 576 432" xmlns="http://www.w3.org/2000/svg" version="1.1">
 <metadata>
  <rdf:RDF xmlns:dc="http://purl.org/dc/elements/1.1/" xmlns:cc="http://creativecommons.org/ns#" xmlns:rdf="http://www.w3.org/1999/02/22-rdf-syntax-ns#">
   <cc:Work>
    <dc:type rdf:resource="http://purl.org/dc/dcmitype/StillImage"/>
    <dc:date>2024-11-12T14:09:16.724215</dc:date>
    <dc:format>image/svg+xml</dc:format>
    <dc:creator>
     <cc:Agent>
      <dc:title>Matplotlib v3.7.5, https://matplotlib.org/</dc:title>
     </cc:Agent>
    </dc:creator>
   </cc:Work>
  </rdf:RDF>
 </metadata>
 <defs>
  <style type="text/css">*{stroke-linejoin: round; stroke-linecap: butt}</style>
 </defs>
 <g id="figure_1">
  <g id="patch_1">
   <path d="M 0 432 
L 576 432 
L 576 0 
L 0 0 
z
" style="fill: #ffffff"/>
  </g>
  <g id="axes_1">
   <g id="patch_2">
    <path d="M 72 384.48 
L 518.4 384.48 
L 518.4 51.84 
L 72 51.84 
z
" style="fill: #ffffff"/>
   </g>
   <g id="matplotlib.axis_1">
    <g id="xtick_1">
     <g id="line2d_1">
      <path d="M 92.290909 384.48 
L 92.290909 51.84 
" clip-path="url(#p20d413e31d)" style="fill: none; stroke: #b0b0b0; stroke-width: 0.8; stroke-linecap: square"/>
     </g>
     <g id="line2d_2">
      <defs>
       <path id="me477a84ce6" d="M 0 0 
L 0 3.5 
" style="stroke: #000000; stroke-width: 0.8"/>
      </defs>
      <g>
       <use xlink:href="#me477a84ce6" x="92.290909" y="384.48" style="stroke: #000000; stroke-width: 0.8"/>
      </g>
     </g>
     <g id="text_1">
      <!-- 0.17 -->
      <g transform="translate(81.158097 399.078438) scale(0.1 -0.1)">
       <defs>
        <path id="DejaVuSans-30" d="M 2034 4250 
Q 1547 4250 1301 3770 
Q 1056 3291 1056 2328 
Q 1056 1369 1301 889 
Q 1547 409 2034 409 
Q 2525 409 2770 889 
Q 3016 1369 3016 2328 
Q 3016 3291 2770 3770 
Q 2525 4250 2034 4250 
z
M 2034 4750 
Q 2819 4750 3233 4129 
Q 3647 3509 3647 2328 
Q 3647 1150 3233 529 
Q 2819 -91 2034 -91 
Q 1250 -91 836 529 
Q 422 1150 422 2328 
Q 422 3509 836 4129 
Q 1250 4750 2034 4750 
z
" transform="scale(0.015625)"/>
        <path id="DejaVuSans-2e" d="M 684 794 
L 1344 794 
L 1344 0 
L 684 0 
L 684 794 
z
" transform="scale(0.015625)"/>
        <path id="DejaVuSans-31" d="M 794 531 
L 1825 531 
L 1825 4091 
L 703 3866 
L 703 4441 
L 1819 4666 
L 2450 4666 
L 2450 531 
L 3481 531 
L 3481 0 
L 794 0 
L 794 531 
z
" transform="scale(0.015625)"/>
        <path id="DejaVuSans-37" d="M 525 4666 
L 3525 4666 
L 3525 4397 
L 1831 0 
L 1172 0 
L 2766 4134 
L 525 4134 
L 525 4666 
z
" transform="scale(0.015625)"/>
       </defs>
       <use xlink:href="#DejaVuSans-30"/>
       <use xlink:href="#DejaVuSans-2e" x="63.623047"/>
       <use xlink:href="#DejaVuSans-31" x="95.410156"/>
       <use xlink:href="#DejaVuSans-37" x="159.033203"/>
      </g>
     </g>
    </g>
    <g id="xtick_2">
     <g id="line2d_3">
      <path d="M 132.771526 384.48 
L 132.771526 51.84 
" clip-path="url(#p20d413e31d)" style="fill: none; stroke: #b0b0b0; stroke-width: 0.8; stroke-linecap: square"/>
     </g>
     <g id="line2d_4">
      <g>
       <use xlink:href="#me477a84ce6" x="132.771526" y="384.48" style="stroke: #000000; stroke-width: 0.8"/>
      </g>
     </g>
     <g id="text_2">
      <!-- 6.83 -->
      <g transform="translate(121.638713 399.078438) scale(0.1 -0.1)">
       <defs>
        <path id="DejaVuSans-36" d="M 2113 2584 
Q 1688 2584 1439 2293 
Q 1191 2003 1191 1497 
Q 1191 994 1439 701 
Q 1688 409 2113 409 
Q 2538 409 2786 701 
Q 3034 994 3034 1497 
Q 3034 2003 2786 2293 
Q 2538 2584 2113 2584 
z
M 3366 4563 
L 3366 3988 
Q 3128 4100 2886 4159 
Q 2644 4219 2406 4219 
Q 1781 4219 1451 3797 
Q 1122 3375 1075 2522 
Q 1259 2794 1537 2939 
Q 1816 3084 2150 3084 
Q 2853 3084 3261 2657 
Q 3669 2231 3669 1497 
Q 3669 778 3244 343 
Q 2819 -91 2113 -91 
Q 1303 -91 875 529 
Q 447 1150 447 2328 
Q 447 3434 972 4092 
Q 1497 4750 2381 4750 
Q 2619 4750 2861 4703 
Q 3103 4656 3366 4563 
z
" transform="scale(0.015625)"/>
        <path id="DejaVuSans-38" d="M 2034 2216 
Q 1584 2216 1326 1975 
Q 1069 1734 1069 1313 
Q 1069 891 1326 650 
Q 1584 409 2034 409 
Q 2484 409 2743 651 
Q 3003 894 3003 1313 
Q 3003 1734 2745 1975 
Q 2488 2216 2034 2216 
z
M 1403 2484 
Q 997 2584 770 2862 
Q 544 3141 544 3541 
Q 544 4100 942 4425 
Q 1341 4750 2034 4750 
Q 2731 4750 3128 4425 
Q 3525 4100 3525 3541 
Q 3525 3141 3298 2862 
Q 3072 2584 2669 2484 
Q 3125 2378 3379 2068 
Q 3634 1759 3634 1313 
Q 3634 634 3220 271 
Q 2806 -91 2034 -91 
Q 1263 -91 848 271 
Q 434 634 434 1313 
Q 434 1759 690 2068 
Q 947 2378 1403 2484 
z
M 1172 3481 
Q 1172 3119 1398 2916 
Q 1625 2713 2034 2713 
Q 2441 2713 2670 2916 
Q 2900 3119 2900 3481 
Q 2900 3844 2670 4047 
Q 2441 4250 2034 4250 
Q 1625 4250 1398 4047 
Q 1172 3844 1172 3481 
z
" transform="scale(0.015625)"/>
        <path id="DejaVuSans-33" d="M 2597 2516 
Q 3050 2419 3304 2112 
Q 3559 1806 3559 1356 
Q 3559 666 3084 287 
Q 2609 -91 1734 -91 
Q 1441 -91 1130 -33 
Q 819 25 488 141 
L 488 750 
Q 750 597 1062 519 
Q 1375 441 1716 441 
Q 2309 441 2620 675 
Q 2931 909 2931 1356 
Q 2931 1769 2642 2001 
Q 2353 2234 1838 2234 
L 1294 2234 
L 1294 2753 
L 1863 2753 
Q 2328 2753 2575 2939 
Q 2822 3125 2822 3475 
Q 2822 3834 2567 4026 
Q 2313 4219 1838 4219 
Q 1578 4219 1281 4162 
Q 984 4106 628 3988 
L 628 4550 
Q 988 4650 1302 4700 
Q 1616 4750 1894 4750 
Q 2613 4750 3031 4423 
Q 3450 4097 3450 3541 
Q 3450 3153 3228 2886 
Q 3006 2619 2597 2516 
z
" transform="scale(0.015625)"/>
       </defs>
       <use xlink:href="#DejaVuSans-36"/>
       <use xlink:href="#DejaVuSans-2e" x="63.623047"/>
       <use xlink:href="#DejaVuSans-38" x="95.410156"/>
       <use xlink:href="#DejaVuSans-33" x="159.033203"/>
      </g>
     </g>
    </g>
    <g id="xtick_3">
     <g id="line2d_5">
      <path d="M 173.252142 384.48 
L 173.252142 51.84 
" clip-path="url(#p20d413e31d)" style="fill: none; stroke: #b0b0b0; stroke-width: 0.8; stroke-linecap: square"/>
     </g>
     <g id="line2d_6">
      <g>
       <use xlink:href="#me477a84ce6" x="173.252142" y="384.48" style="stroke: #000000; stroke-width: 0.8"/>
      </g>
     </g>
     <g id="text_3">
      <!-- 13.5 -->
      <g transform="translate(162.11933 399.078438) scale(0.1 -0.1)">
       <defs>
        <path id="DejaVuSans-35" d="M 691 4666 
L 3169 4666 
L 3169 4134 
L 1269 4134 
L 1269 2991 
Q 1406 3038 1543 3061 
Q 1681 3084 1819 3084 
Q 2600 3084 3056 2656 
Q 3513 2228 3513 1497 
Q 3513 744 3044 326 
Q 2575 -91 1722 -91 
Q 1428 -91 1123 -41 
Q 819 9 494 109 
L 494 744 
Q 775 591 1075 516 
Q 1375 441 1709 441 
Q 2250 441 2565 725 
Q 2881 1009 2881 1497 
Q 2881 1984 2565 2268 
Q 2250 2553 1709 2553 
Q 1456 2553 1204 2497 
Q 953 2441 691 2322 
L 691 4666 
z
" transform="scale(0.015625)"/>
       </defs>
       <use xlink:href="#DejaVuSans-31"/>
       <use xlink:href="#DejaVuSans-33" x="63.623047"/>
       <use xlink:href="#DejaVuSans-2e" x="127.246094"/>
       <use xlink:href="#DejaVuSans-35" x="159.033203"/>
      </g>
     </g>
    </g>
    <g id="xtick_4">
     <g id="line2d_7">
      <path d="M 213.732759 384.48 
L 213.732759 51.84 
" clip-path="url(#p20d413e31d)" style="fill: none; stroke: #b0b0b0; stroke-width: 0.8; stroke-linecap: square"/>
     </g>
     <g id="line2d_8">
      <g>
       <use xlink:href="#me477a84ce6" x="213.732759" y="384.48" style="stroke: #000000; stroke-width: 0.8"/>
      </g>
     </g>
     <g id="text_4">
      <!-- 20.17 -->
      <g transform="translate(199.418697 399.078438) scale(0.1 -0.1)">
       <defs>
        <path id="DejaVuSans-32" d="M 1228 531 
L 3431 531 
L 3431 0 
L 469 0 
L 469 531 
Q 828 903 1448 1529 
Q 2069 2156 2228 2338 
Q 2531 2678 2651 2914 
Q 2772 3150 2772 3378 
Q 2772 3750 2511 3984 
Q 2250 4219 1831 4219 
Q 1534 4219 1204 4116 
Q 875 4013 500 3803 
L 500 4441 
Q 881 4594 1212 4672 
Q 1544 4750 1819 4750 
Q 2544 4750 2975 4387 
Q 3406 4025 3406 3419 
Q 3406 3131 3298 2873 
Q 3191 2616 2906 2266 
Q 2828 2175 2409 1742 
Q 1991 1309 1228 531 
z
" transform="scale(0.015625)"/>
       </defs>
       <use xlink:href="#DejaVuSans-32"/>
       <use xlink:href="#DejaVuSans-30" x="63.623047"/>
       <use xlink:href="#DejaVuSans-2e" x="127.246094"/>
       <use xlink:href="#DejaVuSans-31" x="159.033203"/>
       <use xlink:href="#DejaVuSans-37" x="222.65625"/>
      </g>
     </g>
    </g>
    <g id="xtick_5">
     <g id="line2d_9">
      <path d="M 254.213376 384.48 
L 254.213376 51.84 
" clip-path="url(#p20d413e31d)" style="fill: none; stroke: #b0b0b0; stroke-width: 0.8; stroke-linecap: square"/>
     </g>
     <g id="line2d_10">
      <g>
       <use xlink:href="#me477a84ce6" x="254.213376" y="384.48" style="stroke: #000000; stroke-width: 0.8"/>
      </g>
     </g>
     <g id="text_5">
      <!-- 26.83 -->
      <g transform="translate(239.899313 399.078438) scale(0.1 -0.1)">
       <use xlink:href="#DejaVuSans-32"/>
       <use xlink:href="#DejaVuSans-36" x="63.623047"/>
       <use xlink:href="#DejaVuSans-2e" x="127.246094"/>
       <use xlink:href="#DejaVuSans-38" x="159.033203"/>
       <use xlink:href="#DejaVuSans-33" x="222.65625"/>
      </g>
     </g>
    </g>
    <g id="xtick_6">
     <g id="line2d_11">
      <path d="M 294.693992 384.48 
L 294.693992 51.84 
" clip-path="url(#p20d413e31d)" style="fill: none; stroke: #b0b0b0; stroke-width: 0.8; stroke-linecap: square"/>
     </g>
     <g id="line2d_12">
      <g>
       <use xlink:href="#me477a84ce6" x="294.693992" y="384.48" style="stroke: #000000; stroke-width: 0.8"/>
      </g>
     </g>
     <g id="text_6">
      <!-- 33.5 -->
      <g transform="translate(283.56118 399.078438) scale(0.1 -0.1)">
       <use xlink:href="#DejaVuSans-33"/>
       <use xlink:href="#DejaVuSans-33" x="63.623047"/>
       <use xlink:href="#DejaVuSans-2e" x="127.246094"/>
       <use xlink:href="#DejaVuSans-35" x="159.033203"/>
      </g>
     </g>
    </g>
    <g id="xtick_7">
     <g id="line2d_13">
      <path d="M 335.174609 384.48 
L 335.174609 51.84 
" clip-path="url(#p20d413e31d)" style="fill: none; stroke: #b0b0b0; stroke-width: 0.8; stroke-linecap: square"/>
     </g>
     <g id="line2d_14">
      <g>
       <use xlink:href="#me477a84ce6" x="335.174609" y="384.48" style="stroke: #000000; stroke-width: 0.8"/>
      </g>
     </g>
     <g id="text_7">
      <!-- 40.17 -->
      <g transform="translate(320.860546 399.078438) scale(0.1 -0.1)">
       <defs>
        <path id="DejaVuSans-34" d="M 2419 4116 
L 825 1625 
L 2419 1625 
L 2419 4116 
z
M 2253 4666 
L 3047 4666 
L 3047 1625 
L 3713 1625 
L 3713 1100 
L 3047 1100 
L 3047 0 
L 2419 0 
L 2419 1100 
L 313 1100 
L 313 1709 
L 2253 4666 
z
" transform="scale(0.015625)"/>
       </defs>
       <use xlink:href="#DejaVuSans-34"/>
       <use xlink:href="#DejaVuSans-30" x="63.623047"/>
       <use xlink:href="#DejaVuSans-2e" x="127.246094"/>
       <use xlink:href="#DejaVuSans-31" x="159.033203"/>
       <use xlink:href="#DejaVuSans-37" x="222.65625"/>
      </g>
     </g>
    </g>
    <g id="xtick_8">
     <g id="line2d_15">
      <path d="M 375.655226 384.48 
L 375.655226 51.84 
" clip-path="url(#p20d413e31d)" style="fill: none; stroke: #b0b0b0; stroke-width: 0.8; stroke-linecap: square"/>
     </g>
     <g id="line2d_16">
      <g>
       <use xlink:href="#me477a84ce6" x="375.655226" y="384.48" style="stroke: #000000; stroke-width: 0.8"/>
      </g>
     </g>
     <g id="text_8">
      <!-- 46.83 -->
      <g transform="translate(361.341163 399.078438) scale(0.1 -0.1)">
       <use xlink:href="#DejaVuSans-34"/>
       <use xlink:href="#DejaVuSans-36" x="63.623047"/>
       <use xlink:href="#DejaVuSans-2e" x="127.246094"/>
       <use xlink:href="#DejaVuSans-38" x="159.033203"/>
       <use xlink:href="#DejaVuSans-33" x="222.65625"/>
      </g>
     </g>
    </g>
    <g id="xtick_9">
     <g id="line2d_17">
      <path d="M 416.135842 384.48 
L 416.135842 51.84 
" clip-path="url(#p20d413e31d)" style="fill: none; stroke: #b0b0b0; stroke-width: 0.8; stroke-linecap: square"/>
     </g>
     <g id="line2d_18">
      <g>
       <use xlink:href="#me477a84ce6" x="416.135842" y="384.48" style="stroke: #000000; stroke-width: 0.8"/>
      </g>
     </g>
     <g id="text_9">
      <!-- 53.5 -->
      <g transform="translate(405.00303 399.078438) scale(0.1 -0.1)">
       <use xlink:href="#DejaVuSans-35"/>
       <use xlink:href="#DejaVuSans-33" x="63.623047"/>
       <use xlink:href="#DejaVuSans-2e" x="127.246094"/>
       <use xlink:href="#DejaVuSans-35" x="159.033203"/>
      </g>
     </g>
    </g>
    <g id="xtick_10">
     <g id="line2d_19">
      <path d="M 456.616459 384.48 
L 456.616459 51.84 
" clip-path="url(#p20d413e31d)" style="fill: none; stroke: #b0b0b0; stroke-width: 0.8; stroke-linecap: square"/>
     </g>
     <g id="line2d_20">
      <g>
       <use xlink:href="#me477a84ce6" x="456.616459" y="384.48" style="stroke: #000000; stroke-width: 0.8"/>
      </g>
     </g>
     <g id="text_10">
      <!-- 60.17 -->
      <g transform="translate(442.302396 399.078438) scale(0.1 -0.1)">
       <use xlink:href="#DejaVuSans-36"/>
       <use xlink:href="#DejaVuSans-30" x="63.623047"/>
       <use xlink:href="#DejaVuSans-2e" x="127.246094"/>
       <use xlink:href="#DejaVuSans-31" x="159.033203"/>
       <use xlink:href="#DejaVuSans-37" x="222.65625"/>
      </g>
     </g>
    </g>
    <g id="xtick_11">
     <g id="line2d_21">
      <path d="M 497.097075 384.48 
L 497.097075 51.84 
" clip-path="url(#p20d413e31d)" style="fill: none; stroke: #b0b0b0; stroke-width: 0.8; stroke-linecap: square"/>
     </g>
     <g id="line2d_22">
      <g>
       <use xlink:href="#me477a84ce6" x="497.097075" y="384.48" style="stroke: #000000; stroke-width: 0.8"/>
      </g>
     </g>
     <g id="text_11">
      <!-- 66.83 -->
      <g transform="translate(482.783013 399.078438) scale(0.1 -0.1)">
       <use xlink:href="#DejaVuSans-36"/>
       <use xlink:href="#DejaVuSans-36" x="63.623047"/>
       <use xlink:href="#DejaVuSans-2e" x="127.246094"/>
       <use xlink:href="#DejaVuSans-38" x="159.033203"/>
       <use xlink:href="#DejaVuSans-33" x="222.65625"/>
      </g>
     </g>
    </g>
    <g id="text_12">
     <!-- time in hours [h] -->
     <g transform="translate(253.451562 412.756563) scale(0.1 -0.1)">
      <defs>
       <path id="DejaVuSans-74" d="M 1172 4494 
L 1172 3500 
L 2356 3500 
L 2356 3053 
L 1172 3053 
L 1172 1153 
Q 1172 725 1289 603 
Q 1406 481 1766 481 
L 2356 481 
L 2356 0 
L 1766 0 
Q 1100 0 847 248 
Q 594 497 594 1153 
L 594 3053 
L 172 3053 
L 172 3500 
L 594 3500 
L 594 4494 
L 1172 4494 
z
" transform="scale(0.015625)"/>
       <path id="DejaVuSans-69" d="M 603 3500 
L 1178 3500 
L 1178 0 
L 603 0 
L 603 3500 
z
M 603 4863 
L 1178 4863 
L 1178 4134 
L 603 4134 
L 603 4863 
z
" transform="scale(0.015625)"/>
       <path id="DejaVuSans-6d" d="M 3328 2828 
Q 3544 3216 3844 3400 
Q 4144 3584 4550 3584 
Q 5097 3584 5394 3201 
Q 5691 2819 5691 2113 
L 5691 0 
L 5113 0 
L 5113 2094 
Q 5113 2597 4934 2840 
Q 4756 3084 4391 3084 
Q 3944 3084 3684 2787 
Q 3425 2491 3425 1978 
L 3425 0 
L 2847 0 
L 2847 2094 
Q 2847 2600 2669 2842 
Q 2491 3084 2119 3084 
Q 1678 3084 1418 2786 
Q 1159 2488 1159 1978 
L 1159 0 
L 581 0 
L 581 3500 
L 1159 3500 
L 1159 2956 
Q 1356 3278 1631 3431 
Q 1906 3584 2284 3584 
Q 2666 3584 2933 3390 
Q 3200 3197 3328 2828 
z
" transform="scale(0.015625)"/>
       <path id="DejaVuSans-65" d="M 3597 1894 
L 3597 1613 
L 953 1613 
Q 991 1019 1311 708 
Q 1631 397 2203 397 
Q 2534 397 2845 478 
Q 3156 559 3463 722 
L 3463 178 
Q 3153 47 2828 -22 
Q 2503 -91 2169 -91 
Q 1331 -91 842 396 
Q 353 884 353 1716 
Q 353 2575 817 3079 
Q 1281 3584 2069 3584 
Q 2775 3584 3186 3129 
Q 3597 2675 3597 1894 
z
M 3022 2063 
Q 3016 2534 2758 2815 
Q 2500 3097 2075 3097 
Q 1594 3097 1305 2825 
Q 1016 2553 972 2059 
L 3022 2063 
z
" transform="scale(0.015625)"/>
       <path id="DejaVuSans-20" transform="scale(0.015625)"/>
       <path id="DejaVuSans-6e" d="M 3513 2113 
L 3513 0 
L 2938 0 
L 2938 2094 
Q 2938 2591 2744 2837 
Q 2550 3084 2163 3084 
Q 1697 3084 1428 2787 
Q 1159 2491 1159 1978 
L 1159 0 
L 581 0 
L 581 3500 
L 1159 3500 
L 1159 2956 
Q 1366 3272 1645 3428 
Q 1925 3584 2291 3584 
Q 2894 3584 3203 3211 
Q 3513 2838 3513 2113 
z
" transform="scale(0.015625)"/>
       <path id="DejaVuSans-68" d="M 3513 2113 
L 3513 0 
L 2938 0 
L 2938 2094 
Q 2938 2591 2744 2837 
Q 2550 3084 2163 3084 
Q 1697 3084 1428 2787 
Q 1159 2491 1159 1978 
L 1159 0 
L 581 0 
L 581 4863 
L 1159 4863 
L 1159 2956 
Q 1366 3272 1645 3428 
Q 1925 3584 2291 3584 
Q 2894 3584 3203 3211 
Q 3513 2838 3513 2113 
z
" transform="scale(0.015625)"/>
       <path id="DejaVuSans-6f" d="M 1959 3097 
Q 1497 3097 1228 2736 
Q 959 2375 959 1747 
Q 959 1119 1226 758 
Q 1494 397 1959 397 
Q 2419 397 2687 759 
Q 2956 1122 2956 1747 
Q 2956 2369 2687 2733 
Q 2419 3097 1959 3097 
z
M 1959 3584 
Q 2709 3584 3137 3096 
Q 3566 2609 3566 1747 
Q 3566 888 3137 398 
Q 2709 -91 1959 -91 
Q 1206 -91 779 398 
Q 353 888 353 1747 
Q 353 2609 779 3096 
Q 1206 3584 1959 3584 
z
" transform="scale(0.015625)"/>
       <path id="DejaVuSans-75" d="M 544 1381 
L 544 3500 
L 1119 3500 
L 1119 1403 
Q 1119 906 1312 657 
Q 1506 409 1894 409 
Q 2359 409 2629 706 
Q 2900 1003 2900 1516 
L 2900 3500 
L 3475 3500 
L 3475 0 
L 2900 0 
L 2900 538 
Q 2691 219 2414 64 
Q 2138 -91 1772 -91 
Q 1169 -91 856 284 
Q 544 659 544 1381 
z
M 1991 3584 
L 1991 3584 
z
" transform="scale(0.015625)"/>
       <path id="DejaVuSans-72" d="M 2631 2963 
Q 2534 3019 2420 3045 
Q 2306 3072 2169 3072 
Q 1681 3072 1420 2755 
Q 1159 2438 1159 1844 
L 1159 0 
L 581 0 
L 581 3500 
L 1159 3500 
L 1159 2956 
Q 1341 3275 1631 3429 
Q 1922 3584 2338 3584 
Q 2397 3584 2469 3576 
Q 2541 3569 2628 3553 
L 2631 2963 
z
" transform="scale(0.015625)"/>
       <path id="DejaVuSans-73" d="M 2834 3397 
L 2834 2853 
Q 2591 2978 2328 3040 
Q 2066 3103 1784 3103 
Q 1356 3103 1142 2972 
Q 928 2841 928 2578 
Q 928 2378 1081 2264 
Q 1234 2150 1697 2047 
L 1894 2003 
Q 2506 1872 2764 1633 
Q 3022 1394 3022 966 
Q 3022 478 2636 193 
Q 2250 -91 1575 -91 
Q 1294 -91 989 -36 
Q 684 19 347 128 
L 347 722 
Q 666 556 975 473 
Q 1284 391 1588 391 
Q 1994 391 2212 530 
Q 2431 669 2431 922 
Q 2431 1156 2273 1281 
Q 2116 1406 1581 1522 
L 1381 1569 
Q 847 1681 609 1914 
Q 372 2147 372 2553 
Q 372 3047 722 3315 
Q 1072 3584 1716 3584 
Q 2034 3584 2315 3537 
Q 2597 3491 2834 3397 
z
" transform="scale(0.015625)"/>
       <path id="DejaVuSans-5b" d="M 550 4863 
L 1875 4863 
L 1875 4416 
L 1125 4416 
L 1125 -397 
L 1875 -397 
L 1875 -844 
L 550 -844 
L 550 4863 
z
" transform="scale(0.015625)"/>
       <path id="DejaVuSans-5d" d="M 1947 4863 
L 1947 -844 
L 622 -844 
L 622 -397 
L 1369 -397 
L 1369 4416 
L 622 4416 
L 622 4863 
L 1947 4863 
z
" transform="scale(0.015625)"/>
      </defs>
      <use xlink:href="#DejaVuSans-74"/>
      <use xlink:href="#DejaVuSans-69" x="39.208984"/>
      <use xlink:href="#DejaVuSans-6d" x="66.992188"/>
      <use xlink:href="#DejaVuSans-65" x="164.404297"/>
      <use xlink:href="#DejaVuSans-20" x="225.927734"/>
      <use xlink:href="#DejaVuSans-69" x="257.714844"/>
      <use xlink:href="#DejaVuSans-6e" x="285.498047"/>
      <use xlink:href="#DejaVuSans-20" x="348.876953"/>
      <use xlink:href="#DejaVuSans-68" x="380.664062"/>
      <use xlink:href="#DejaVuSans-6f" x="444.042969"/>
      <use xlink:href="#DejaVuSans-75" x="505.224609"/>
      <use xlink:href="#DejaVuSans-72" x="568.603516"/>
      <use xlink:href="#DejaVuSans-73" x="609.716797"/>
      <use xlink:href="#DejaVuSans-20" x="661.816406"/>
      <use xlink:href="#DejaVuSans-5b" x="693.603516"/>
      <use xlink:href="#DejaVuSans-68" x="732.617188"/>
      <use xlink:href="#DejaVuSans-5d" x="795.996094"/>
     </g>
    </g>
   </g>
   <g id="matplotlib.axis_2">
    <g id="ytick_1">
     <g id="line2d_23">
      <path d="M 72 383.402201 
L 518.4 383.402201 
" clip-path="url(#p20d413e31d)" style="fill: none; stroke: #b0b0b0; stroke-width: 0.8; stroke-linecap: square"/>
     </g>
     <g id="line2d_24">
      <defs>
       <path id="mb46f5749ab" d="M 0 0 
L -3.5 0 
" style="stroke: #000000; stroke-width: 0.8"/>
      </defs>
      <g>
       <use xlink:href="#mb46f5749ab" x="72" y="383.402201" style="stroke: #000000; stroke-width: 0.8"/>
      </g>
     </g>
     <g id="text_13">
      <!-- 0 -->
      <g transform="translate(58.6375 387.20142) scale(0.1 -0.1)">
       <use xlink:href="#DejaVuSans-30"/>
      </g>
     </g>
    </g>
    <g id="ytick_2">
     <g id="line2d_25">
      <path d="M 72 340.519229 
L 518.4 340.519229 
" clip-path="url(#p20d413e31d)" style="fill: none; stroke: #b0b0b0; stroke-width: 0.8; stroke-linecap: square"/>
     </g>
     <g id="line2d_26">
      <g>
       <use xlink:href="#mb46f5749ab" x="72" y="340.519229" style="stroke: #000000; stroke-width: 0.8"/>
      </g>
     </g>
     <g id="text_14">
      <!-- 20000 -->
      <g transform="translate(33.1875 344.318447) scale(0.1 -0.1)">
       <use xlink:href="#DejaVuSans-32"/>
       <use xlink:href="#DejaVuSans-30" x="63.623047"/>
       <use xlink:href="#DejaVuSans-30" x="127.246094"/>
       <use xlink:href="#DejaVuSans-30" x="190.869141"/>
       <use xlink:href="#DejaVuSans-30" x="254.492188"/>
      </g>
     </g>
    </g>
    <g id="ytick_3">
     <g id="line2d_27">
      <path d="M 72 297.636256 
L 518.4 297.636256 
" clip-path="url(#p20d413e31d)" style="fill: none; stroke: #b0b0b0; stroke-width: 0.8; stroke-linecap: square"/>
     </g>
     <g id="line2d_28">
      <g>
       <use xlink:href="#mb46f5749ab" x="72" y="297.636256" style="stroke: #000000; stroke-width: 0.8"/>
      </g>
     </g>
     <g id="text_15">
      <!-- 40000 -->
      <g transform="translate(33.1875 301.435475) scale(0.1 -0.1)">
       <use xlink:href="#DejaVuSans-34"/>
       <use xlink:href="#DejaVuSans-30" x="63.623047"/>
       <use xlink:href="#DejaVuSans-30" x="127.246094"/>
       <use xlink:href="#DejaVuSans-30" x="190.869141"/>
       <use xlink:href="#DejaVuSans-30" x="254.492188"/>
      </g>
     </g>
    </g>
    <g id="ytick_4">
     <g id="line2d_29">
      <path d="M 72 254.753284 
L 518.4 254.753284 
" clip-path="url(#p20d413e31d)" style="fill: none; stroke: #b0b0b0; stroke-width: 0.8; stroke-linecap: square"/>
     </g>
     <g id="line2d_30">
      <g>
       <use xlink:href="#mb46f5749ab" x="72" y="254.753284" style="stroke: #000000; stroke-width: 0.8"/>
      </g>
     </g>
     <g id="text_16">
      <!-- 60000 -->
      <g transform="translate(33.1875 258.552503) scale(0.1 -0.1)">
       <use xlink:href="#DejaVuSans-36"/>
       <use xlink:href="#DejaVuSans-30" x="63.623047"/>
       <use xlink:href="#DejaVuSans-30" x="127.246094"/>
       <use xlink:href="#DejaVuSans-30" x="190.869141"/>
       <use xlink:href="#DejaVuSans-30" x="254.492188"/>
      </g>
     </g>
    </g>
    <g id="ytick_5">
     <g id="line2d_31">
      <path d="M 72 211.870312 
L 518.4 211.870312 
" clip-path="url(#p20d413e31d)" style="fill: none; stroke: #b0b0b0; stroke-width: 0.8; stroke-linecap: square"/>
     </g>
     <g id="line2d_32">
      <g>
       <use xlink:href="#mb46f5749ab" x="72" y="211.870312" style="stroke: #000000; stroke-width: 0.8"/>
      </g>
     </g>
     <g id="text_17">
      <!-- 80000 -->
      <g transform="translate(33.1875 215.66953) scale(0.1 -0.1)">
       <use xlink:href="#DejaVuSans-38"/>
       <use xlink:href="#DejaVuSans-30" x="63.623047"/>
       <use xlink:href="#DejaVuSans-30" x="127.246094"/>
       <use xlink:href="#DejaVuSans-30" x="190.869141"/>
       <use xlink:href="#DejaVuSans-30" x="254.492188"/>
      </g>
     </g>
    </g>
    <g id="ytick_6">
     <g id="line2d_33">
      <path d="M 72 168.987339 
L 518.4 168.987339 
" clip-path="url(#p20d413e31d)" style="fill: none; stroke: #b0b0b0; stroke-width: 0.8; stroke-linecap: square"/>
     </g>
     <g id="line2d_34">
      <g>
       <use xlink:href="#mb46f5749ab" x="72" y="168.987339" style="stroke: #000000; stroke-width: 0.8"/>
      </g>
     </g>
     <g id="text_18">
      <!-- 100000 -->
      <g transform="translate(26.825 172.786558) scale(0.1 -0.1)">
       <use xlink:href="#DejaVuSans-31"/>
       <use xlink:href="#DejaVuSans-30" x="63.623047"/>
       <use xlink:href="#DejaVuSans-30" x="127.246094"/>
       <use xlink:href="#DejaVuSans-30" x="190.869141"/>
       <use xlink:href="#DejaVuSans-30" x="254.492188"/>
       <use xlink:href="#DejaVuSans-30" x="318.115234"/>
      </g>
     </g>
    </g>
    <g id="ytick_7">
     <g id="line2d_35">
      <path d="M 72 126.104367 
L 518.4 126.104367 
" clip-path="url(#p20d413e31d)" style="fill: none; stroke: #b0b0b0; stroke-width: 0.8; stroke-linecap: square"/>
     </g>
     <g id="line2d_36">
      <g>
       <use xlink:href="#mb46f5749ab" x="72" y="126.104367" style="stroke: #000000; stroke-width: 0.8"/>
      </g>
     </g>
     <g id="text_19">
      <!-- 120000 -->
      <g transform="translate(26.825 129.903586) scale(0.1 -0.1)">
       <use xlink:href="#DejaVuSans-31"/>
       <use xlink:href="#DejaVuSans-32" x="63.623047"/>
       <use xlink:href="#DejaVuSans-30" x="127.246094"/>
       <use xlink:href="#DejaVuSans-30" x="190.869141"/>
       <use xlink:href="#DejaVuSans-30" x="254.492188"/>
       <use xlink:href="#DejaVuSans-30" x="318.115234"/>
      </g>
     </g>
    </g>
    <g id="ytick_8">
     <g id="line2d_37">
      <path d="M 72 83.221395 
L 518.4 83.221395 
" clip-path="url(#p20d413e31d)" style="fill: none; stroke: #b0b0b0; stroke-width: 0.8; stroke-linecap: square"/>
     </g>
     <g id="line2d_38">
      <g>
       <use xlink:href="#mb46f5749ab" x="72" y="83.221395" style="stroke: #000000; stroke-width: 0.8"/>
      </g>
     </g>
     <g id="text_20">
      <!-- 140000 -->
      <g transform="translate(26.825 87.020613) scale(0.1 -0.1)">
       <use xlink:href="#DejaVuSans-31"/>
       <use xlink:href="#DejaVuSans-34" x="63.623047"/>
       <use xlink:href="#DejaVuSans-30" x="127.246094"/>
       <use xlink:href="#DejaVuSans-30" x="190.869141"/>
       <use xlink:href="#DejaVuSans-30" x="254.492188"/>
       <use xlink:href="#DejaVuSans-30" x="318.115234"/>
      </g>
     </g>
    </g>
    <g id="text_21">
     <!-- blank corrected GFP RFU -->
     <g transform="translate(20.745312 280.149062) rotate(-90) scale(0.1 -0.1)">
      <defs>
       <path id="DejaVuSans-62" d="M 3116 1747 
Q 3116 2381 2855 2742 
Q 2594 3103 2138 3103 
Q 1681 3103 1420 2742 
Q 1159 2381 1159 1747 
Q 1159 1113 1420 752 
Q 1681 391 2138 391 
Q 2594 391 2855 752 
Q 3116 1113 3116 1747 
z
M 1159 2969 
Q 1341 3281 1617 3432 
Q 1894 3584 2278 3584 
Q 2916 3584 3314 3078 
Q 3713 2572 3713 1747 
Q 3713 922 3314 415 
Q 2916 -91 2278 -91 
Q 1894 -91 1617 61 
Q 1341 213 1159 525 
L 1159 0 
L 581 0 
L 581 4863 
L 1159 4863 
L 1159 2969 
z
" transform="scale(0.015625)"/>
       <path id="DejaVuSans-6c" d="M 603 4863 
L 1178 4863 
L 1178 0 
L 603 0 
L 603 4863 
z
" transform="scale(0.015625)"/>
       <path id="DejaVuSans-61" d="M 2194 1759 
Q 1497 1759 1228 1600 
Q 959 1441 959 1056 
Q 959 750 1161 570 
Q 1363 391 1709 391 
Q 2188 391 2477 730 
Q 2766 1069 2766 1631 
L 2766 1759 
L 2194 1759 
z
M 3341 1997 
L 3341 0 
L 2766 0 
L 2766 531 
Q 2569 213 2275 61 
Q 1981 -91 1556 -91 
Q 1019 -91 701 211 
Q 384 513 384 1019 
Q 384 1609 779 1909 
Q 1175 2209 1959 2209 
L 2766 2209 
L 2766 2266 
Q 2766 2663 2505 2880 
Q 2244 3097 1772 3097 
Q 1472 3097 1187 3025 
Q 903 2953 641 2809 
L 641 3341 
Q 956 3463 1253 3523 
Q 1550 3584 1831 3584 
Q 2591 3584 2966 3190 
Q 3341 2797 3341 1997 
z
" transform="scale(0.015625)"/>
       <path id="DejaVuSans-6b" d="M 581 4863 
L 1159 4863 
L 1159 1991 
L 2875 3500 
L 3609 3500 
L 1753 1863 
L 3688 0 
L 2938 0 
L 1159 1709 
L 1159 0 
L 581 0 
L 581 4863 
z
" transform="scale(0.015625)"/>
       <path id="DejaVuSans-63" d="M 3122 3366 
L 3122 2828 
Q 2878 2963 2633 3030 
Q 2388 3097 2138 3097 
Q 1578 3097 1268 2742 
Q 959 2388 959 1747 
Q 959 1106 1268 751 
Q 1578 397 2138 397 
Q 2388 397 2633 464 
Q 2878 531 3122 666 
L 3122 134 
Q 2881 22 2623 -34 
Q 2366 -91 2075 -91 
Q 1284 -91 818 406 
Q 353 903 353 1747 
Q 353 2603 823 3093 
Q 1294 3584 2113 3584 
Q 2378 3584 2631 3529 
Q 2884 3475 3122 3366 
z
" transform="scale(0.015625)"/>
       <path id="DejaVuSans-64" d="M 2906 2969 
L 2906 4863 
L 3481 4863 
L 3481 0 
L 2906 0 
L 2906 525 
Q 2725 213 2448 61 
Q 2172 -91 1784 -91 
Q 1150 -91 751 415 
Q 353 922 353 1747 
Q 353 2572 751 3078 
Q 1150 3584 1784 3584 
Q 2172 3584 2448 3432 
Q 2725 3281 2906 2969 
z
M 947 1747 
Q 947 1113 1208 752 
Q 1469 391 1925 391 
Q 2381 391 2643 752 
Q 2906 1113 2906 1747 
Q 2906 2381 2643 2742 
Q 2381 3103 1925 3103 
Q 1469 3103 1208 2742 
Q 947 2381 947 1747 
z
" transform="scale(0.015625)"/>
       <path id="DejaVuSans-47" d="M 3809 666 
L 3809 1919 
L 2778 1919 
L 2778 2438 
L 4434 2438 
L 4434 434 
Q 4069 175 3628 42 
Q 3188 -91 2688 -91 
Q 1594 -91 976 548 
Q 359 1188 359 2328 
Q 359 3472 976 4111 
Q 1594 4750 2688 4750 
Q 3144 4750 3555 4637 
Q 3966 4525 4313 4306 
L 4313 3634 
Q 3963 3931 3569 4081 
Q 3175 4231 2741 4231 
Q 1884 4231 1454 3753 
Q 1025 3275 1025 2328 
Q 1025 1384 1454 906 
Q 1884 428 2741 428 
Q 3075 428 3337 486 
Q 3600 544 3809 666 
z
" transform="scale(0.015625)"/>
       <path id="DejaVuSans-46" d="M 628 4666 
L 3309 4666 
L 3309 4134 
L 1259 4134 
L 1259 2759 
L 3109 2759 
L 3109 2228 
L 1259 2228 
L 1259 0 
L 628 0 
L 628 4666 
z
" transform="scale(0.015625)"/>
       <path id="DejaVuSans-50" d="M 1259 4147 
L 1259 2394 
L 2053 2394 
Q 2494 2394 2734 2622 
Q 2975 2850 2975 3272 
Q 2975 3691 2734 3919 
Q 2494 4147 2053 4147 
L 1259 4147 
z
M 628 4666 
L 2053 4666 
Q 2838 4666 3239 4311 
Q 3641 3956 3641 3272 
Q 3641 2581 3239 2228 
Q 2838 1875 2053 1875 
L 1259 1875 
L 1259 0 
L 628 0 
L 628 4666 
z
" transform="scale(0.015625)"/>
       <path id="DejaVuSans-52" d="M 2841 2188 
Q 3044 2119 3236 1894 
Q 3428 1669 3622 1275 
L 4263 0 
L 3584 0 
L 2988 1197 
Q 2756 1666 2539 1819 
Q 2322 1972 1947 1972 
L 1259 1972 
L 1259 0 
L 628 0 
L 628 4666 
L 2053 4666 
Q 2853 4666 3247 4331 
Q 3641 3997 3641 3322 
Q 3641 2881 3436 2590 
Q 3231 2300 2841 2188 
z
M 1259 4147 
L 1259 2491 
L 2053 2491 
Q 2509 2491 2742 2702 
Q 2975 2913 2975 3322 
Q 2975 3731 2742 3939 
Q 2509 4147 2053 4147 
L 1259 4147 
z
" transform="scale(0.015625)"/>
       <path id="DejaVuSans-55" d="M 556 4666 
L 1191 4666 
L 1191 1831 
Q 1191 1081 1462 751 
Q 1734 422 2344 422 
Q 2950 422 3222 751 
Q 3494 1081 3494 1831 
L 3494 4666 
L 4128 4666 
L 4128 1753 
Q 4128 841 3676 375 
Q 3225 -91 2344 -91 
Q 1459 -91 1007 375 
Q 556 841 556 1753 
L 556 4666 
z
" transform="scale(0.015625)"/>
      </defs>
      <use xlink:href="#DejaVuSans-62"/>
      <use xlink:href="#DejaVuSans-6c" x="63.476562"/>
      <use xlink:href="#DejaVuSans-61" x="91.259766"/>
      <use xlink:href="#DejaVuSans-6e" x="152.539062"/>
      <use xlink:href="#DejaVuSans-6b" x="215.917969"/>
      <use xlink:href="#DejaVuSans-20" x="273.828125"/>
      <use xlink:href="#DejaVuSans-63" x="305.615234"/>
      <use xlink:href="#DejaVuSans-6f" x="360.595703"/>
      <use xlink:href="#DejaVuSans-72" x="421.777344"/>
      <use xlink:href="#DejaVuSans-72" x="461.140625"/>
      <use xlink:href="#DejaVuSans-65" x="500.003906"/>
      <use xlink:href="#DejaVuSans-63" x="561.527344"/>
      <use xlink:href="#DejaVuSans-74" x="616.507812"/>
      <use xlink:href="#DejaVuSans-65" x="655.716797"/>
      <use xlink:href="#DejaVuSans-64" x="717.240234"/>
      <use xlink:href="#DejaVuSans-20" x="780.716797"/>
      <use xlink:href="#DejaVuSans-47" x="812.503906"/>
      <use xlink:href="#DejaVuSans-46" x="889.994141"/>
      <use xlink:href="#DejaVuSans-50" x="947.513672"/>
      <use xlink:href="#DejaVuSans-20" x="1007.816406"/>
      <use xlink:href="#DejaVuSans-52" x="1039.603516"/>
      <use xlink:href="#DejaVuSans-46" x="1109.085938"/>
      <use xlink:href="#DejaVuSans-55" x="1166.605469"/>
     </g>
    </g>
   </g>
   <g id="line2d_39">
    <path d="M 92.290909 366.240264 
L 93.302925 368.167853 
L 94.31494 368.989062 
L 95.326955 369.254937 
L 96.338971 369.293531 
L 97.350986 369.09627 
L 98.363002 369.059819 
L 99.375017 368.899008 
L 100.387032 368.864702 
L 101.399048 368.620269 
L 102.411063 368.573097 
L 105.447109 367.796916 
L 106.459125 367.792627 
L 107.47114 367.42169 
L 108.483156 366.726986 
L 110.507187 366.220966 
L 111.519202 365.920786 
L 112.531217 365.34401 
L 113.543233 365.151036 
L 115.567264 364.25907 
L 116.579279 363.986764 
L 117.591294 363.525772 
L 118.60331 362.882527 
L 119.615325 362.511589 
L 120.627341 361.763281 
L 121.639356 361.388055 
L 122.651372 360.682631 
L 123.663387 360.195909 
L 124.675402 359.893584 
L 126.699433 358.622104 
L 127.711449 358.294049 
L 128.723464 357.468552 
L 132.771526 355.553827 
L 133.783541 354.700456 
L 135.807572 353.373228 
L 136.819587 353.07948 
L 137.831603 352.026703 
L 138.843618 351.344863 
L 141.879664 348.964858 
L 142.89168 348.458839 
L 143.903695 347.798442 
L 145.927726 346.063825 
L 146.939742 345.371265 
L 147.951757 344.434272 
L 148.963772 343.825334 
L 149.975788 342.858323 
L 150.987803 342.165763 
L 153.011834 340.514769 
L 154.023849 339.822209 
L 157.059896 336.792527 
L 158.071911 335.446001 
L 159.083927 334.601207 
L 162.119973 331.35711 
L 164.144004 328.676924 
L 165.156019 327.72921 
L 168.192065 323.97695 
L 170.216096 321.648405 
L 172.240127 318.942489 
L 173.252142 317.926163 
L 174.264158 316.532466 
L 175.276173 314.845021 
L 176.288189 313.468478 
L 177.300204 312.460728 
L 185.396327 300.277676 
L 186.408343 298.42942 
L 187.420358 297.162228 
L 188.432374 295.187467 
L 189.444389 292.824615 
L 190.456404 291.585297 
L 191.46842 289.827095 
L 192.480435 287.605757 
L 195.516482 282.575585 
L 196.528497 280.287778 
L 197.540512 278.703252 
L 198.552528 276.900023 
L 199.564543 274.736577 
L 200.576559 273.029835 
L 204.62462 265.085765 
L 206.648651 261.387108 
L 207.660667 258.766959 
L 208.672682 257.484758 
L 212.720744 248.704469 
L 213.732759 245.824878 
L 214.744774 244.429037 
L 215.75679 241.67595 
L 217.780821 238.108087 
L 221.828882 228.926842 
L 223.852913 225.19388 
L 225.876944 220.202302 
L 226.888959 218.673524 
L 227.900975 216.36642 
L 228.91299 213.718396 
L 229.925006 212.468357 
L 231.949036 207.974222 
L 232.961052 206.957896 
L 233.973067 205.173964 
L 234.985083 202.637436 
L 235.997098 201.818371 
L 237.009114 201.301632 
L 238.021129 198.925915 
L 242.069191 193.48621 
L 243.081206 192.304784 
L 244.093221 190.936817 
L 245.105237 190.439375 
L 246.117252 189.382309 
L 248.141283 186.10605 
L 249.153299 185.222661 
L 250.165314 183.505198 
L 251.177329 183.172855 
L 252.189345 182.109357 
L 253.20136 180.173191 
L 254.213376 180.020957 
L 255.225391 179.360559 
L 256.237406 176.911941 
L 258.261437 173.55206 
L 259.273453 172.299877 
L 260.285468 171.768128 
L 262.309499 169.666863 
L 263.321514 167.704967 
L 264.33353 167.445525 
L 265.345545 166.617884 
L 266.357561 165.033358 
L 267.369576 164.604528 
L 268.381591 162.462523 
L 269.393607 161.827855 
L 271.417638 159.861671 
L 272.429653 158.11419 
L 273.441669 156.718349 
L 274.453684 156.456763 
L 275.465699 154.527029 
L 276.477715 153.712253 
L 278.501746 151.263635 
L 279.513761 150.350228 
L 280.525776 150.796211 
L 281.537792 150.260174 
L 282.549807 149.07446 
L 283.561823 148.064566 
L 284.573838 146.143408 
L 285.585854 145.000577 
L 286.597869 143.180195 
L 287.609884 140.645811 
L 288.6219 139.693809 
L 289.633915 137.062939 
L 290.645931 136.932146 
L 292.669961 132.407992 
L 293.681977 131.5439 
L 294.693992 131.031449 
L 295.706008 128.726489 
L 296.718023 127.823803 
L 298.742054 124.549688 
L 299.754069 123.565523 
L 300.766085 121.927394 
L 301.7781 119.697479 
L 302.790116 119.420884 
L 305.826162 116.071724 
L 306.838177 113.837521 
L 307.850193 115.482083 
L 308.862208 115.059686 
L 309.874224 114.890298 
L 310.886239 113.350799 
L 311.898254 111.232381 
L 312.91027 111.532561 
L 313.922285 110.707064 
L 314.934301 107.047003 
L 315.946316 105.423882 
L 318.982362 101.152738 
L 321.006393 98.082317 
L 322.018409 96.997378 
L 323.030424 96.744368 
L 324.042439 95.7066 
L 325.054455 94.044885 
L 326.06647 94.981878 
L 327.078486 92.621171 
L 328.090501 92.029386 
L 329.102516 90.955167 
L 330.114532 92.887045 
L 331.126547 90.080355 
L 332.138563 90.451292 
L 333.150578 89.540029 
L 334.162594 89.915255 
L 336.186624 89.128353 
L 337.19864 87.996242 
L 338.210655 87.47307 
L 339.222671 88.778856 
L 340.234686 87.904044 
L 342.258717 88.654496 
L 343.270732 87.994098 
L 344.282748 87.745377 
L 346.306779 88.875343 
L 347.318794 91.26178 
L 348.330809 93.242974 
L 350.35484 92.955658 
L 351.366856 95.627267 
L 352.378871 93.959119 
L 353.390886 94.478003 
L 354.402902 93.826182 
L 355.414917 94.038453 
L 356.426933 93.36519 
L 358.450964 93.238685 
L 359.462979 93.832615 
L 360.474994 94.122075 
L 361.48701 94.237859 
L 362.499025 95.106239 
L 363.511041 95.245609 
L 364.523056 95.637988 
L 365.535071 96.596422 
L 366.547087 96.096836 
L 367.559102 97.321144 
L 368.571118 97.833596 
L 369.583133 98.073741 
L 370.595148 99.216572 
L 371.607164 100.809674 
L 372.619179 101.480793 
L 373.631195 102.338452 
L 374.64321 103.877951 
L 375.655226 105.957775 
L 376.667241 105.985649 
L 377.679256 108.963871 
L 380.715303 112.160797 
L 381.727318 113.27361 
L 382.739333 112.35377 
L 383.751349 112.484563 
L 384.763364 110.964362 
L 385.77538 112.182238 
L 386.787395 111.796292 
L 387.799411 112.819051 
L 388.811426 112.596059 
L 389.823441 112.662528 
L 390.835457 112.593915 
L 391.847472 112.960564 
L 392.859488 114.532225 
L 393.871503 113.303628 
L 395.895534 115.265524 
L 396.907549 115.705075 
L 397.919565 116.948681 
L 398.93158 136.940723 
L 399.943596 133.141291 
L 400.955611 132.292208 
L 401.967626 129.783554 
L 402.979642 129.337572 
L 403.991657 129.425482 
L 405.003673 126.548034 
L 406.015688 126.732431 
L 407.027703 128.880868 
L 408.039719 128.602129 
L 409.051734 129.871465 
L 410.06375 128.820832 
L 411.075765 127.028323 
L 412.087781 127.416414 
L 413.099796 125.448086 
L 414.111811 122.804351 
L 415.123827 124.395309 
L 416.135842 122.489161 
L 418.159873 121.76015 
L 419.171888 120.857464 
L 420.183904 121.299158 
L 421.195919 119.781101 
L 422.207935 118.503189 
L 423.21995 117.765601 
L 424.231966 115.850877 
L 425.243981 114.208459 
L 426.255996 114.024062 
L 427.268012 112.066454 
L 428.280027 111.66121 
L 429.292043 110.614866 
L 431.316073 109.757206 
L 432.328089 108.104068 
L 433.340104 107.29358 
L 434.35212 106.997687 
L 436.376151 104.467592 
L 437.388166 104.44615 
L 438.400181 103.854365 
L 439.412197 102.747985 
L 440.424212 102.546435 
L 441.436228 101.633027 
L 442.448243 101.079837 
L 443.460258 99.859816 
L 445.484289 98.620498 
L 446.496305 97.37046 
L 447.50832 98.30102 
L 448.520336 98.918535 
L 449.532351 96.000349 
L 450.544366 95.498618 
L 452.568397 95.462168 
L 453.580413 95.335663 
L 454.592428 93.648218 
L 455.604443 93.062865 
L 456.616459 92.616882 
L 458.64049 93.217244 
L 460.664521 91.591979 
L 461.676536 92.185908 
L 462.688551 90.901563 
L 465.724598 89.846642 
L 466.736613 89.012569 
L 467.748628 90.800788 
L 468.760644 88.440081 
L 469.772659 87.470926 
L 470.784675 87.344421 
L 471.79669 87.363718 
L 472.808706 87.771106 
L 473.820721 86.43959 
L 474.832736 86.147986 
L 475.844752 87.039952 
L 476.856767 86.053643 
L 477.868783 84.810037 
L 478.880798 86.025769 
L 479.892813 85.155245 
L 480.904829 85.165966 
L 481.916844 84.998722 
L 482.92886 83.129025 
L 483.940875 84.539874 
L 484.952891 84.342613 
L 485.964906 83.306989 
L 486.976921 82.762375 
L 487.988937 82.957493 
L 489.000952 85.59694 
L 490.012968 84.265423 
L 491.024983 82.17059 
L 492.036998 80.860515 
L 493.049014 83.514971 
L 494.061029 80.673975 
L 495.073045 81.2143 
L 496.08506 80.746876 
L 497.097075 80.598929 
L 498.109091 79.786297 
L 498.109091 79.786297 
" clip-path="url(#p20d413e31d)" style="fill: none; stroke: #008000; stroke-width: 1.5; stroke-linecap: square"/>
   </g>
   <g id="line2d_40">
    <path d="M 92.290909 366.647652 
L 93.302925 368.474467 
L 94.31494 369.250648 
L 95.326955 369.111279 
L 96.338971 369.36 
L 97.350986 369.072684 
L 100.387032 369.122 
L 104.435094 368.390845 
L 105.447109 368.002754 
L 106.459125 367.931997 
L 107.47114 367.380951 
L 109.495171 366.752715 
L 110.507187 366.658373 
L 111.519202 366.173795 
L 112.531217 365.989398 
L 115.567264 364.86372 
L 116.579279 364.531377 
L 117.591294 363.96961 
L 119.615325 363.041194 
L 120.627341 362.397949 
L 122.651372 361.497407 
L 126.699433 359.218177 
L 127.711449 358.860104 
L 130.747495 357.050443 
L 132.771526 356.20136 
L 133.783541 355.21934 
L 134.795557 354.942745 
L 135.807572 354.074365 
L 136.819587 353.484724 
L 137.831603 352.751425 
L 138.843618 352.241117 
L 139.855634 350.999655 
L 140.867649 350.416447 
L 143.903695 347.879919 
L 144.915711 347.427504 
L 146.939742 346.158168 
L 149.975788 343.615208 
L 155.035865 339.299036 
L 156.04788 338.128331 
L 157.059896 337.609447 
L 158.071911 336.661734 
L 160.095942 335.806218 
L 161.107957 335.177983 
L 162.119973 334.749153 
L 163.131988 333.730682 
L 164.144004 333.085294 
L 165.156019 331.996066 
L 166.168034 331.125542 
L 167.18005 329.800458 
L 168.192065 328.160184 
L 169.204081 326.993768 
L 170.216096 326.382685 
L 171.228112 324.247113 
L 176.288189 315.715546 
L 177.300204 313.712911 
L 178.312219 312.181989 
L 179.324235 310.039984 
L 180.33625 308.862847 
L 181.348266 307.394105 
L 182.360281 305.668065 
L 183.372297 304.229342 
L 184.384312 302.381086 
L 185.396327 301.84076 
L 186.408343 299.276358 
L 187.420358 298.17641 
L 188.432374 296.045126 
L 190.456404 292.783876 
L 191.46842 291.263675 
L 192.480435 289.372536 
L 193.492451 289.048769 
L 194.504466 286.628026 
L 195.516482 284.659697 
L 200.576559 276.975069 
L 201.588574 275.049623 
L 204.62462 267.890311 
L 205.636636 264.802737 
L 206.648651 263.239653 
L 207.660667 260.555179 
L 208.672682 259.12932 
L 210.696713 254.485094 
L 212.720744 250.760708 
L 213.732759 248.354973 
L 214.744774 246.508861 
L 216.768805 241.856058 
L 217.780821 240.134307 
L 218.792836 237.848645 
L 219.804852 235.839577 
L 220.816867 233.047896 
L 221.828882 232.503282 
L 222.840898 231.094577 
L 223.852913 231.31328 
L 224.864929 231.028108 
L 225.876944 230.483494 
L 226.888959 230.880162 
L 227.900975 231.073135 
L 228.91299 230.378431 
L 229.925006 230.020358 
L 230.937021 228.635238 
L 231.949036 227.633921 
L 234.985083 222.903929 
L 235.997098 221.059961 
L 237.009114 219.711292 
L 239.033144 215.691013 
L 240.04516 212.925061 
L 241.057175 210.806642 
L 243.081206 205.431262 
L 244.093221 202.91832 
L 246.117252 199.489826 
L 247.129268 197.051929 
L 248.141283 195.39879 
L 249.153299 194.624753 
L 251.177329 196.125657 
L 252.189345 197.901012 
L 253.20136 199.918656 
L 254.213376 201.475308 
L 255.225391 202.781094 
L 256.237406 201.696155 
L 257.249422 201.378821 
L 259.273453 201.320929 
L 260.285468 200.081611 
L 261.297484 199.798583 
L 263.321514 197.519353 
L 264.33353 196.745316 
L 265.345545 196.511604 
L 266.357561 194.999979 
L 267.369576 194.296698 
L 268.381591 192.544929 
L 269.393607 191.588638 
L 270.405622 191.020439 
L 271.417638 189.922635 
L 272.429653 188.188019 
L 273.441669 187.298197 
L 274.453684 187.709873 
L 275.465699 185.428499 
L 276.477715 184.111992 
L 277.48973 183.239324 
L 278.501746 183.014188 
L 279.513761 183.363684 
L 280.525776 184.583705 
L 281.537792 185.998843 
L 282.549807 186.995872 
L 283.561823 188.310235 
L 284.573838 187.536197 
L 285.585854 188.503208 
L 286.597869 188.670452 
L 288.6219 187.673423 
L 289.633915 186.7107 
L 290.645931 186.27115 
L 291.657946 185.449941 
L 292.669961 184.94821 
L 293.681977 184.146298 
L 294.693992 183.689595 
L 296.718023 182.032168 
L 297.730039 180.960094 
L 298.742054 180.263245 
L 299.754069 178.815945 
L 300.766085 178.269187 
L 302.790116 176.326588 
L 303.802131 175.994245 
L 304.814146 174.133124 
L 305.826162 174.564098 
L 306.838177 174.010908 
L 307.850193 174.950045 
L 309.874224 176.328733 
L 310.886239 176.986986 
L 311.898254 176.125038 
L 312.91027 177.285023 
L 313.922285 178.204863 
L 314.934301 177.010572 
L 315.946316 176.798301 
L 316.958331 176.703959 
L 317.970347 177.379365 
L 318.982362 176.187219 
L 319.994378 175.477506 
L 321.006393 175.290965 
L 322.018409 175.408893 
L 324.042439 175.183757 
L 325.054455 176.090732 
L 326.06647 176.354462 
L 328.090501 175.792695 
L 329.102516 175.413181 
L 330.114532 177.969006 
L 331.126547 176.873346 
L 333.150578 177.445834 
L 334.162594 177.784609 
L 335.174609 178.835242 
L 336.186624 178.438575 
L 337.19864 178.515764 
L 338.210655 178.882414 
L 339.222671 179.596415 
L 340.234686 180.03811 
L 341.246701 181.075878 
L 342.258717 181.689104 
L 343.270732 181.66123 
L 344.282748 182.323772 
L 346.306779 184.941778 
L 347.318794 186.856502 
L 348.330809 188.07009 
L 349.342825 189.04139 
L 350.35484 189.268669 
L 351.366856 191.880242 
L 352.378871 192.375541 
L 354.402902 193.81212 
L 356.426933 195.816899 
L 357.438948 195.99272 
L 358.450964 197.390704 
L 359.462979 197.562236 
L 360.474994 199.097447 
L 361.48701 199.749268 
L 362.499025 200.238134 
L 364.523056 201.801218 
L 365.535071 203.628033 
L 366.547087 203.784556 
L 367.559102 204.687242 
L 368.571118 205.223279 
L 371.607164 208.437358 
L 372.619179 209.277864 
L 373.631195 210.866678 
L 374.64321 212.030951 
L 375.655226 213.025836 
L 377.679256 216.518654 
L 378.691272 217.599305 
L 379.703287 219.123795 
L 380.715303 220.167995 
L 381.727318 221.027799 
L 382.739333 221.495223 
L 383.751349 223.356344 
L 384.763364 223.246993 
L 385.77538 224.265463 
L 386.787395 224.638545 
L 387.799411 225.159573 
L 388.811426 225.260348 
L 389.823441 226.268098 
L 390.835457 226.308837 
L 391.847472 226.692639 
L 392.859488 228.024156 
L 393.871503 227.653218 
L 394.883518 228.313616 
L 395.895534 228.459418 
L 396.907549 229.197005 
L 397.919565 229.289203 
L 398.93158 229.739475 
L 399.943596 230.359134 
L 400.955611 231.870758 
L 401.967626 239.381711 
L 402.979642 238.198141 
L 403.991657 238.221727 
L 405.003673 237.900104 
L 406.015688 237.887239 
L 407.027703 239.16944 
L 408.039719 238.935728 
L 409.051734 239.323819 
L 410.06375 238.667709 
L 411.075765 238.734178 
L 412.087781 239.150143 
L 413.099796 238.489745 
L 414.111811 237.46913 
L 415.123827 238.06306 
L 416.135842 237.531311 
L 417.147858 238.305348 
L 418.159873 237.74787 
L 419.171888 237.803618 
L 420.183904 237.63423 
L 421.195919 237.033868 
L 422.207935 237.464842 
L 423.21995 237.297598 
L 424.231966 236.253398 
L 425.243981 235.580135 
L 426.255996 235.764532 
L 427.268012 234.936891 
L 428.280027 235.324982 
L 429.292043 234.939035 
L 430.304058 234.293646 
L 431.316073 234.482331 
L 432.328089 234.03206 
L 433.340104 233.783339 
L 435.364135 233.76833 
L 436.376151 232.979283 
L 437.388166 233.435987 
L 438.400181 232.897806 
L 439.412197 232.520435 
L 440.424212 232.601913 
L 441.436228 231.135315 
L 442.448243 232.055155 
L 443.460258 231.534127 
L 444.472274 230.783675 
L 445.484289 230.564972 
L 446.496305 229.679438 
L 447.50832 229.668718 
L 449.532351 228.20212 
L 450.544366 228.281454 
L 452.568397 227.764714 
L 453.580413 228.107778 
L 454.592428 226.718369 
L 455.604443 226.330278 
L 458.64049 227.522425 
L 459.652505 226.851306 
L 460.664521 226.424621 
L 461.676536 226.163035 
L 462.688551 226.613306 
L 463.700567 225.663448 
L 464.712582 225.530511 
L 465.724598 226.199485 
L 466.736613 225.774944 
L 467.748628 224.983753 
L 468.760644 224.870113 
L 469.772659 224.372671 
L 471.79669 224.312634 
L 472.808706 223.73157 
L 473.820721 224.078922 
L 474.832736 224.207571 
L 475.844752 224.104652 
L 477.868783 223.060452 
L 478.880798 223.684399 
L 479.892813 223.592201 
L 480.904829 223.144073 
L 481.916844 222.861046 
L 482.92886 221.823278 
L 483.940875 222.865334 
L 486.976921 221.930485 
L 487.988937 222.024828 
L 489.000952 224.754329 
L 491.024983 224.696437 
L 492.036998 223.480705 
L 493.049014 224.807933 
L 494.061029 223.229839 
L 495.073045 222.781712 
L 496.08506 222.548 
L 497.097075 222.86319 
L 498.109091 222.721676 
L 498.109091 222.721676 
" clip-path="url(#p20d413e31d)" style="fill: none; stroke: #008000; stroke-width: 1.5; stroke-linecap: square"/>
   </g>
   <g id="line2d_41">
    <path d="M 92.290909 366.315309 
L 93.302925 367.636105 
L 94.31494 368.152844 
L 95.326955 368.107817 
L 96.338971 368.427295 
L 98.363002 368.298646 
L 99.375017 368.204304 
L 100.387032 367.996321 
L 101.399048 367.936285 
L 102.411063 367.408825 
L 103.423079 367.726159 
L 104.435094 367.368086 
L 105.447109 366.821328 
L 106.459125 366.759148 
L 108.483156 366.064444 
L 109.495171 365.543415 
L 110.507187 365.459794 
L 111.519202 365.159613 
L 113.543233 364.181881 
L 114.555248 364.08325 
L 116.579279 362.706707 
L 118.60331 362.063462 
L 119.615325 361.516704 
L 120.627341 361.096451 
L 121.639356 360.410324 
L 124.675402 359.065942 
L 125.687418 358.264031 
L 126.699433 357.972427 
L 127.711449 356.932515 
L 130.747495 355.459485 
L 131.75951 354.548221 
L 134.795557 352.862921 
L 135.807572 351.780126 
L 136.819587 351.124016 
L 137.831603 350.137708 
L 138.843618 349.944734 
L 139.855634 348.729002 
L 140.867649 348.259433 
L 141.879664 347.371756 
L 142.89168 346.758529 
L 143.903695 345.851555 
L 144.915711 345.20831 
L 145.927726 344.327065 
L 146.939742 343.795316 
L 147.951757 342.733962 
L 148.963772 341.959925 
L 149.975788 340.754913 
L 150.987803 340.156696 
L 151.999819 338.872351 
L 153.011834 338.119755 
L 154.023849 336.966203 
L 156.04788 335.081496 
L 157.059896 334.093044 
L 158.071911 333.985836 
L 159.083927 333.14533 
L 160.095942 332.772248 
L 161.107957 332.562121 
L 163.131988 331.076226 
L 164.144004 329.986999 
L 165.156019 329.296583 
L 166.168034 328.136599 
L 168.192065 325.102628 
L 169.204081 323.344427 
L 170.216096 321.869252 
L 171.228112 318.82885 
L 173.252142 314.28111 
L 174.264158 312.769486 
L 175.276173 311.628799 
L 177.300204 308.532648 
L 180.33625 304.089972 
L 181.348266 302.704852 
L 184.384312 297.230841 
L 185.396327 296.411776 
L 186.408343 294.364114 
L 187.420358 292.95112 
L 189.444389 288.622084 
L 190.456404 287.23482 
L 191.46842 285.59669 
L 192.480435 283.386073 
L 193.492451 283.371064 
L 194.504466 280.146264 
L 195.516482 277.678349 
L 196.528497 276.799248 
L 197.540512 275.030326 
L 198.552528 272.534537 
L 199.564543 271.636139 
L 200.576559 270.141667 
L 202.600589 264.238826 
L 203.612605 262.727201 
L 204.62462 260.795323 
L 205.636636 258.177318 
L 206.648651 256.230431 
L 207.660667 254.727383 
L 208.672682 252.476027 
L 209.684697 249.800129 
L 210.696713 248.314234 
L 211.708728 246.313743 
L 213.732759 241.367193 
L 214.744774 240.162181 
L 215.75679 237.057454 
L 216.768805 235.089125 
L 217.780821 232.642652 
L 218.792836 230.931621 
L 219.804852 228.345778 
L 220.816867 226.163035 
L 221.828882 224.591374 
L 222.840898 223.527876 
L 223.852913 224.042472 
L 224.864929 223.547173 
L 226.888959 224.246166 
L 227.900975 224.044616 
L 228.91299 223.249137 
L 229.925006 223.114055 
L 230.937021 222.177062 
L 231.949036 220.110103 
L 232.961052 219.115218 
L 233.973067 216.497213 
L 235.997098 215.034903 
L 237.009114 212.70207 
L 238.021129 209.852496 
L 239.033144 207.393158 
L 241.057175 198.732941 
L 243.081206 191.803053 
L 244.093221 188.597551 
L 245.105237 187.22744 
L 246.117252 187.197422 
L 247.129268 185.033976 
L 248.141283 184.534389 
L 249.153299 183.753919 
L 250.165314 185.679365 
L 251.177329 187.360377 
L 253.20136 191.850224 
L 254.213376 195.490989 
L 255.225391 194.967816 
L 256.237406 194.924934 
L 257.249422 193.994373 
L 259.273453 192.941596 
L 260.285468 191.749449 
L 262.309499 190.044851 
L 263.321514 188.775515 
L 265.345545 184.347848 
L 266.357561 181.532581 
L 267.369576 180.001659 
L 268.381591 177.510158 
L 270.405622 171.187064 
L 271.417638 168.860663 
L 272.429653 165.9339 
L 273.441669 164.370816 
L 274.453684 164.319356 
L 275.465699 160.914448 
L 276.477715 155.800654 
L 277.48973 154.406957 
L 278.501746 154.355498 
L 279.513761 156.967071 
L 280.525776 160.496339 
L 282.549807 164.971177 
L 283.561823 167.267561 
L 284.573838 166.862316 
L 285.585854 167.863634 
L 286.597869 168.573347 
L 287.609884 168.028733 
L 288.6219 167.276137 
L 289.633915 166.122585 
L 290.645931 164.604528 
L 291.657946 163.965572 
L 292.669961 161.6649 
L 293.681977 160.224032 
L 294.693992 160.633565 
L 295.706008 159.606518 
L 296.718023 158.067019 
L 297.730039 155.751338 
L 298.742054 153.937389 
L 299.754069 153.176216 
L 300.766085 150.163687 
L 301.7781 148.422638 
L 302.790116 146.218454 
L 304.814146 142.431887 
L 305.826162 141.6943 
L 306.838177 138.814708 
L 307.850193 141.63212 
L 308.862208 142.723491 
L 309.874224 144.127909 
L 310.886239 146.027624 
L 311.898254 145.742453 
L 312.91027 148.113881 
L 313.922285 146.89386 
L 314.934301 146.141264 
L 315.946316 146.115534 
L 316.958331 145.898975 
L 317.970347 145.828219 
L 318.982362 143.960665 
L 319.994378 143.756971 
L 322.018409 142.256067 
L 323.030424 142.369707 
L 324.042439 142.817834 
L 325.054455 141.319074 
L 326.06647 141.788643 
L 328.090501 141.690012 
L 329.102516 140.444261 
L 330.114532 142.96578 
L 331.126547 141.209722 
L 333.150578 142.528374 
L 334.162594 143.450358 
L 335.174609 142.950771 
L 338.210655 143.424628 
L 339.222671 144.629639 
L 342.258717 146.505769 
L 343.270732 146.053354 
L 344.282748 147.063248 
L 345.294763 148.986549 
L 346.306779 151.587402 
L 348.330809 157.492387 
L 349.342825 159.248445 
L 350.35484 160.706466 
L 351.366856 163.388796 
L 352.378871 163.903391 
L 353.390886 165.813828 
L 354.402902 166.279108 
L 355.414917 168.470428 
L 356.426933 168.858519 
L 357.438948 169.523205 
L 358.450964 169.321655 
L 359.462979 169.699025 
L 360.474994 171.937516 
L 361.48701 172.627932 
L 362.499025 173.03532 
L 363.511041 174.523359 
L 364.523056 175.153739 
L 365.535071 176.097165 
L 366.547087 175.537542 
L 368.571118 177.295744 
L 369.583133 177.501582 
L 371.607164 179.542811 
L 372.619179 180.848598 
L 373.631195 182.733304 
L 374.64321 183.897577 
L 375.655226 185.940951 
L 376.667241 187.486882 
L 377.679256 190.456528 
L 378.691272 191.260584 
L 379.703287 193.88931 
L 380.715303 195.62607 
L 381.727318 196.059188 
L 382.739333 196.224288 
L 383.751349 198.45849 
L 384.763364 198.552833 
L 385.77538 199.14033 
L 386.787395 198.923771 
L 387.799411 199.64206 
L 389.823441 200.531882 
L 391.847472 200.926406 
L 392.859488 202.740355 
L 393.871503 202.12284 
L 394.883518 202.305093 
L 395.895534 203.480087 
L 396.907549 203.377167 
L 397.919565 212.00951 
L 398.93158 210.80021 
L 400.955611 210.186983 
L 401.967626 209.515865 
L 402.979642 209.119197 
L 403.991657 209.108477 
L 405.003673 207.401734 
L 406.015688 206.848544 
L 407.027703 206.484039 
L 408.039719 205.626379 
L 409.051734 205.592073 
L 410.06375 205.00672 
L 411.075765 205.227568 
L 412.087781 205.789335 
L 413.099796 205.068901 
L 414.111811 204.663657 
L 415.123827 205.304757 
L 416.135842 205.013153 
L 417.147858 204.466395 
L 418.159873 205.291892 
L 419.171888 204.948828 
L 420.183904 205.242577 
L 421.195919 204.760143 
L 423.21995 204.438521 
L 424.231966 203.600159 
L 425.243981 203.846736 
L 426.255996 203.486519 
L 427.268012 202.995509 
L 429.292043 202.609562 
L 431.316073 201.335938 
L 432.328089 201.278046 
L 433.340104 200.656243 
L 435.364135 200.169521 
L 436.376151 199.856475 
L 438.400181 198.261229 
L 439.412197 198.068255 
L 441.436228 196.803208 
L 442.448243 197.234182 
L 443.460258 195.443817 
L 444.472274 195.441673 
L 445.484289 194.217364 
L 448.520336 192.066783 
L 449.532351 191.670116 
L 450.544366 190.707393 
L 451.556382 190.310726 
L 452.568397 190.265699 
L 453.580413 190.025554 
L 454.592428 189.995536 
L 455.604443 188.683317 
L 456.616459 188.093676 
L 457.628474 189.034957 
L 458.64049 188.104397 
L 459.652505 186.794322 
L 460.664521 185.925942 
L 461.676536 184.795975 
L 462.688551 184.879597 
L 463.700567 183.550225 
L 465.724598 182.081483 
L 466.736613 181.298869 
L 467.748628 181.202382 
L 468.760644 179.92447 
L 469.772659 179.442036 
L 470.784675 179.424883 
L 471.79669 179.838704 
L 472.808706 177.859655 
L 473.820721 177.147797 
L 474.832736 176.024263 
L 475.844752 176.502409 
L 477.868783 172.758725 
L 478.880798 171.420776 
L 479.892813 170.468774 
L 480.904829 169.120105 
L 481.916844 169.409565 
L 482.92886 167.576318 
L 483.940875 167.771435 
L 484.952891 167.782156 
L 485.964906 166.079702 
L 486.976921 166.023954 
L 487.988937 165.157718 
L 489.000952 164.139248 
L 490.012968 165.725918 
L 491.024983 164.508041 
L 492.036998 164.068491 
L 493.049014 164.83824 
L 494.061029 164.072779 
L 495.073045 164.896132 
L 496.08506 164.368672 
L 497.097075 163.594634 
L 498.109091 163.315895 
L 498.109091 163.315895 
" clip-path="url(#p20d413e31d)" style="fill: none; stroke: #008000; stroke-width: 1.5; stroke-linecap: square"/>
   </g>
   <g id="line2d_42">
    <path d="M 92.290909 366.122336 
L 93.302925 367.777618 
L 94.31494 368.382268 
L 97.350986 368.603116 
L 99.375017 368.521638 
L 100.387032 368.320088 
L 101.399048 368.3158 
L 104.435094 367.805492 
L 105.447109 367.466717 
L 107.47114 367.040031 
L 108.483156 366.529724 
L 111.519202 365.597019 
L 114.555248 364.33626 
L 115.567264 363.986764 
L 116.579279 363.489321 
L 117.591294 363.236312 
L 118.60331 362.685265 
L 120.627341 361.823318 
L 121.639356 361.242253 
L 125.687418 359.68989 
L 126.699433 358.973744 
L 127.711449 358.426986 
L 128.723464 358.047472 
L 129.735479 357.146929 
L 130.747495 356.557289 
L 131.75951 356.229234 
L 133.783541 354.629699 
L 134.795557 354.166563 
L 135.807572 353.257444 
L 136.819587 352.772866 
L 138.843618 351.085421 
L 139.855634 350.555817 
L 140.867649 349.498751 
L 141.879664 348.786894 
L 142.89168 348.430965 
L 145.927726 345.757212 
L 146.939742 345.197589 
L 149.975788 342.534557 
L 150.987803 341.803402 
L 151.999819 340.634841 
L 157.059896 335.887696 
L 158.071911 334.830631 
L 159.083927 334.283873 
L 160.095942 334.185242 
L 161.107957 333.61061 
L 164.144004 331.194155 
L 166.168034 328.415338 
L 167.18005 326.326937 
L 168.192065 323.567418 
L 169.204081 321.708441 
L 170.216096 320.874367 
L 172.240127 317.823244 
L 173.252142 316.268736 
L 174.264158 315.278139 
L 182.360281 303.708314 
L 183.372297 301.720688 
L 185.396327 299.001907 
L 188.432374 293.896689 
L 189.444389 291.664631 
L 191.46842 288.838643 
L 192.480435 286.625882 
L 193.492451 285.375843 
L 194.504466 282.807153 
L 195.516482 280.783077 
L 196.528497 279.507308 
L 197.540512 277.262385 
L 201.588574 269.937973 
L 202.600589 267.690905 
L 203.612605 265.821208 
L 204.62462 264.298862 
L 205.636636 261.687289 
L 206.648651 260.051304 
L 207.660667 257.877137 
L 208.672682 256.213278 
L 209.684697 253.522371 
L 210.696713 252.289486 
L 211.708728 249.457065 
L 213.732759 245.108732 
L 214.744774 243.522062 
L 215.75679 241.157066 
L 216.768805 239.212323 
L 217.780821 236.654354 
L 219.804852 232.35748 
L 220.816867 229.932448 
L 221.828882 228.457274 
L 222.840898 226.353864 
L 223.852913 225.603412 
L 224.864929 224.550635 
L 225.876944 224.053192 
L 227.900975 223.701552 
L 228.91299 222.880343 
L 229.925006 222.81173 
L 230.937021 221.21434 
L 232.961052 217.26053 
L 234.985083 211.216175 
L 237.009114 202.920464 
L 238.021129 199.262546 
L 239.033144 197.341389 
L 240.04516 195.68825 
L 241.057175 194.403905 
L 242.069191 193.790679 
L 243.081206 191.841648 
L 244.093221 190.983988 
L 245.105237 189.806851 
L 246.117252 189.045678 
L 247.129268 187.42899 
L 248.141283 186.299024 
L 249.153299 186.277582 
L 250.165314 187.193134 
L 251.177329 188.314523 
L 252.189345 190.315014 
L 253.20136 192.905146 
L 254.213376 194.830591 
L 255.225391 195.666809 
L 256.237406 195.025709 
L 257.249422 194.103725 
L 258.261437 192.937308 
L 261.297484 187.911423 
L 262.309499 184.79812 
L 263.321514 180.891481 
L 265.345545 171.971823 
L 266.357561 168.020157 
L 267.369576 165.423593 
L 268.381591 163.800472 
L 269.393607 161.714216 
L 270.405622 161.377584 
L 272.429653 158.31574 
L 273.441669 158.598768 
L 274.453684 156.799827 
L 275.465699 154.56348 
L 276.477715 153.452811 
L 277.48973 152.123439 
L 278.501746 153.304865 
L 279.513761 155.656996 
L 281.537792 162.040126 
L 282.549807 164.147824 
L 283.561823 166.581433 
L 284.573838 166.474226 
L 285.585854 168.06304 
L 286.597869 167.222533 
L 288.6219 165.26707 
L 289.633915 163.230129 
L 290.645931 162.992128 
L 291.657946 160.841547 
L 292.669961 159.019021 
L 293.681977 155.952888 
L 294.693992 154.194686 
L 295.706008 150.15511 
L 296.718023 144.987712 
L 297.730039 138.788979 
L 299.754069 132.227884 
L 300.766085 126.275727 
L 301.7781 122.937288 
L 302.790116 121.018275 
L 303.802131 119.48092 
L 304.814146 118.432432 
L 305.826162 117.081618 
L 306.838177 119.056379 
L 308.862208 130.287429 
L 310.886239 136.284613 
L 311.898254 136.447568 
L 312.91027 137.770508 
L 313.922285 137.009335 
L 314.934301 136.095928 
L 315.946316 136.449712 
L 316.958331 135.48699 
L 317.970347 134.779421 
L 318.982362 133.057669 
L 319.994378 130.735556 
L 322.018409 127.448577 
L 323.030424 125.096446 
L 324.042439 121.813754 
L 325.054455 120.209931 
L 326.06647 118.824811 
L 327.078486 118.902 
L 328.090501 117.621943 
L 329.102516 116.084589 
L 330.114532 117.398952 
L 331.126547 114.744496 
L 332.138563 113.183556 
L 333.150578 113.213574 
L 334.162594 112.289446 
L 335.174609 111.957103 
L 336.186624 112.075031 
L 337.19864 110.003783 
L 338.210655 109.176142 
L 339.222671 109.090376 
L 340.234686 108.395672 
L 341.246701 108.149095 
L 342.258717 107.730986 
L 343.270732 108.53933 
L 344.282748 109.133259 
L 345.294763 114.429306 
L 346.306779 120.413625 
L 347.318794 125.641059 
L 348.330809 130.047285 
L 349.342825 133.741653 
L 350.35484 136.398253 
L 351.366856 141.164695 
L 352.378871 140.545036 
L 353.390886 141.557074 
L 354.402902 143.012951 
L 355.414917 144.734703 
L 356.426933 145.122794 
L 357.438948 144.906235 
L 358.450964 146.049066 
L 360.474994 147.112564 
L 361.48701 148.002385 
L 362.499025 147.63788 
L 363.511041 147.747232 
L 365.535071 149.25028 
L 366.547087 147.991664 
L 367.559102 148.426927 
L 368.571118 148.2168 
L 369.583133 145.706002 
L 370.595148 146.287066 
L 371.607164 147.009644 
L 372.619179 148.002385 
L 373.631195 148.146043 
L 374.64321 149.155937 
L 375.655226 150.686859 
L 376.667241 154.168957 
L 377.679256 158.588047 
L 378.691272 160.163996 
L 379.703287 163.839067 
L 380.715303 166.737956 
L 381.727318 167.92367 
L 382.739333 168.043742 
L 383.751349 169.859836 
L 384.763364 168.809203 
L 385.77538 169.891998 
L 386.787395 170.661748 
L 387.799411 170.331549 
L 388.811426 170.751802 
L 389.823441 169.30879 
L 390.835457 167.34475 
L 392.859488 164.010599 
L 393.871503 159.863815 
L 394.883518 159.844518 
L 395.895534 156.598277 
L 396.907549 161.89218 
L 397.919565 157.498819 
L 398.93158 155.393266 
L 400.955611 149.179523 
L 401.967626 145.654542 
L 402.979642 144.533153 
L 403.991657 143.666917 
L 405.003673 141.329795 
L 406.015688 143.92207 
L 408.039719 152.009799 
L 410.06375 155.910005 
L 411.075765 155.830672 
L 412.087781 157.301558 
L 413.099796 156.61543 
L 414.111811 154.988021 
L 415.123827 155.421139 
L 417.147858 155.401842 
L 418.159873 156.253069 
L 420.183904 156.872728 
L 421.195919 156.671178 
L 422.207935 155.10595 
L 423.21995 154.919409 
L 424.231966 154.612795 
L 425.243981 153.499982 
L 426.255996 153.09045 
L 427.268012 151.690321 
L 428.280027 149.501145 
L 429.292043 146.443589 
L 431.316073 139.876062 
L 432.328089 136.747749 
L 434.35212 127.907424 
L 435.364135 122.495593 
L 436.376151 118.076503 
L 437.388166 116.890789 
L 438.400181 113.803215 
L 439.412197 110.196757 
L 440.424212 107.838193 
L 441.436228 106.914065 
L 442.448243 103.187535 
L 443.460258 101.969659 
L 444.472274 98.757724 
L 445.484289 97.559145 
L 446.496305 96.1097 
L 448.520336 94.43512 
L 449.532351 92.910631 
L 450.544366 93.616056 
L 451.556382 93.148631 
L 452.568397 93.64393 
L 453.580413 90.56922 
L 454.592428 90.36767 
L 455.604443 89.021145 
L 456.616459 87.921197 
L 457.628474 87.970512 
L 458.64049 87.140727 
L 459.652505 86.608978 
L 460.664521 86.394563 
L 461.676536 84.580613 
L 462.688551 84.411226 
L 463.700567 83.978108 
L 464.712582 84.52701 
L 465.724598 83.617891 
L 466.736613 81.911148 
L 467.748628 82.125563 
L 468.760644 81.65385 
L 469.772659 80.461704 
L 470.784675 80.090766 
L 471.79669 78.84716 
L 472.808706 79.593324 
L 473.820721 78.892187 
L 474.832736 77.326959 
L 475.844752 78.161032 
L 476.856767 76.415695 
L 477.868783 76.475732 
L 478.880798 76.169118 
L 479.892813 75.592342 
L 480.904829 75.600919 
L 481.916844 76.124091 
L 482.92886 74.095727 
L 483.940875 75.092756 
L 484.952891 74.593169 
L 485.964906 73.952069 
L 486.976921 72.434011 
L 487.988937 72.729904 
L 489.000952 72.022335 
L 490.012968 74.610322 
L 491.024983 69.968241 
L 492.036998 70.22125 
L 493.049014 71.246153 
L 494.061029 70.317737 
L 495.073045 69.747393 
L 496.08506 68.096399 
L 497.097075 68.297949 
L 498.109091 66.96 
L 498.109091 66.96 
" clip-path="url(#p20d413e31d)" style="fill: none; stroke: #008000; stroke-width: 1.5; stroke-linecap: square"/>
   </g>
   <g id="patch_3">
    <path d="M 72 384.48 
L 72 51.84 
" style="fill: none; stroke: #000000; stroke-width: 0.8; stroke-linejoin: miter; stroke-linecap: square"/>
   </g>
   <g id="patch_4">
    <path d="M 518.4 384.48 
L 518.4 51.84 
" style="fill: none; stroke: #000000; stroke-width: 0.8; stroke-linejoin: miter; stroke-linecap: square"/>
   </g>
   <g id="patch_5">
    <path d="M 72 384.48 
L 518.4 384.48 
" style="fill: none; stroke: #000000; stroke-width: 0.8; stroke-linejoin: miter; stroke-linecap: square"/>
   </g>
   <g id="patch_6">
    <path d="M 72 51.84 
L 518.4 51.84 
" style="fill: none; stroke: #000000; stroke-width: 0.8; stroke-linejoin: miter; stroke-linecap: square"/>
   </g>
   <g id="text_22">
    <!-- M27: Aspartat; Asparagin; Isoleucin;Tryptophan; Phenylalanin; Methionin; Histidin; Arginin -->
    <g transform="translate(70.096875 45.84) scale(0.1 -0.1)">
     <defs>
      <path id="DejaVuSans-4d" d="M 628 4666 
L 1569 4666 
L 2759 1491 
L 3956 4666 
L 4897 4666 
L 4897 0 
L 4281 0 
L 4281 4097 
L 3078 897 
L 2444 897 
L 1241 4097 
L 1241 0 
L 628 0 
L 628 4666 
z
" transform="scale(0.015625)"/>
      <path id="DejaVuSans-3a" d="M 750 794 
L 1409 794 
L 1409 0 
L 750 0 
L 750 794 
z
M 750 3309 
L 1409 3309 
L 1409 2516 
L 750 2516 
L 750 3309 
z
" transform="scale(0.015625)"/>
      <path id="DejaVuSans-41" d="M 2188 4044 
L 1331 1722 
L 3047 1722 
L 2188 4044 
z
M 1831 4666 
L 2547 4666 
L 4325 0 
L 3669 0 
L 3244 1197 
L 1141 1197 
L 716 0 
L 50 0 
L 1831 4666 
z
" transform="scale(0.015625)"/>
      <path id="DejaVuSans-70" d="M 1159 525 
L 1159 -1331 
L 581 -1331 
L 581 3500 
L 1159 3500 
L 1159 2969 
Q 1341 3281 1617 3432 
Q 1894 3584 2278 3584 
Q 2916 3584 3314 3078 
Q 3713 2572 3713 1747 
Q 3713 922 3314 415 
Q 2916 -91 2278 -91 
Q 1894 -91 1617 61 
Q 1341 213 1159 525 
z
M 3116 1747 
Q 3116 2381 2855 2742 
Q 2594 3103 2138 3103 
Q 1681 3103 1420 2742 
Q 1159 2381 1159 1747 
Q 1159 1113 1420 752 
Q 1681 391 2138 391 
Q 2594 391 2855 752 
Q 3116 1113 3116 1747 
z
" transform="scale(0.015625)"/>
      <path id="DejaVuSans-3b" d="M 750 3309 
L 1409 3309 
L 1409 2516 
L 750 2516 
L 750 3309 
z
M 750 794 
L 1409 794 
L 1409 256 
L 897 -744 
L 494 -744 
L 750 256 
L 750 794 
z
" transform="scale(0.015625)"/>
      <path id="DejaVuSans-67" d="M 2906 1791 
Q 2906 2416 2648 2759 
Q 2391 3103 1925 3103 
Q 1463 3103 1205 2759 
Q 947 2416 947 1791 
Q 947 1169 1205 825 
Q 1463 481 1925 481 
Q 2391 481 2648 825 
Q 2906 1169 2906 1791 
z
M 3481 434 
Q 3481 -459 3084 -895 
Q 2688 -1331 1869 -1331 
Q 1566 -1331 1297 -1286 
Q 1028 -1241 775 -1147 
L 775 -588 
Q 1028 -725 1275 -790 
Q 1522 -856 1778 -856 
Q 2344 -856 2625 -561 
Q 2906 -266 2906 331 
L 2906 616 
Q 2728 306 2450 153 
Q 2172 0 1784 0 
Q 1141 0 747 490 
Q 353 981 353 1791 
Q 353 2603 747 3093 
Q 1141 3584 1784 3584 
Q 2172 3584 2450 3431 
Q 2728 3278 2906 2969 
L 2906 3500 
L 3481 3500 
L 3481 434 
z
" transform="scale(0.015625)"/>
      <path id="DejaVuSans-49" d="M 628 4666 
L 1259 4666 
L 1259 0 
L 628 0 
L 628 4666 
z
" transform="scale(0.015625)"/>
      <path id="DejaVuSans-54" d="M -19 4666 
L 3928 4666 
L 3928 4134 
L 2272 4134 
L 2272 0 
L 1638 0 
L 1638 4134 
L -19 4134 
L -19 4666 
z
" transform="scale(0.015625)"/>
      <path id="DejaVuSans-79" d="M 2059 -325 
Q 1816 -950 1584 -1140 
Q 1353 -1331 966 -1331 
L 506 -1331 
L 506 -850 
L 844 -850 
Q 1081 -850 1212 -737 
Q 1344 -625 1503 -206 
L 1606 56 
L 191 3500 
L 800 3500 
L 1894 763 
L 2988 3500 
L 3597 3500 
L 2059 -325 
z
" transform="scale(0.015625)"/>
      <path id="DejaVuSans-48" d="M 628 4666 
L 1259 4666 
L 1259 2753 
L 3553 2753 
L 3553 4666 
L 4184 4666 
L 4184 0 
L 3553 0 
L 3553 2222 
L 1259 2222 
L 1259 0 
L 628 0 
L 628 4666 
z
" transform="scale(0.015625)"/>
     </defs>
     <use xlink:href="#DejaVuSans-4d"/>
     <use xlink:href="#DejaVuSans-32" x="86.279297"/>
     <use xlink:href="#DejaVuSans-37" x="149.902344"/>
     <use xlink:href="#DejaVuSans-3a" x="213.525391"/>
     <use xlink:href="#DejaVuSans-20" x="247.216797"/>
     <use xlink:href="#DejaVuSans-41" x="279.003906"/>
     <use xlink:href="#DejaVuSans-73" x="347.412109"/>
     <use xlink:href="#DejaVuSans-70" x="399.511719"/>
     <use xlink:href="#DejaVuSans-61" x="462.988281"/>
     <use xlink:href="#DejaVuSans-72" x="524.267578"/>
     <use xlink:href="#DejaVuSans-74" x="565.380859"/>
     <use xlink:href="#DejaVuSans-61" x="604.589844"/>
     <use xlink:href="#DejaVuSans-74" x="665.869141"/>
     <use xlink:href="#DejaVuSans-3b" x="705.078125"/>
     <use xlink:href="#DejaVuSans-20" x="738.769531"/>
     <use xlink:href="#DejaVuSans-41" x="770.556641"/>
     <use xlink:href="#DejaVuSans-73" x="838.964844"/>
     <use xlink:href="#DejaVuSans-70" x="891.064453"/>
     <use xlink:href="#DejaVuSans-61" x="954.541016"/>
     <use xlink:href="#DejaVuSans-72" x="1015.820312"/>
     <use xlink:href="#DejaVuSans-61" x="1056.933594"/>
     <use xlink:href="#DejaVuSans-67" x="1118.212891"/>
     <use xlink:href="#DejaVuSans-69" x="1181.689453"/>
     <use xlink:href="#DejaVuSans-6e" x="1209.472656"/>
     <use xlink:href="#DejaVuSans-3b" x="1272.851562"/>
     <use xlink:href="#DejaVuSans-20" x="1306.542969"/>
     <use xlink:href="#DejaVuSans-49" x="1338.330078"/>
     <use xlink:href="#DejaVuSans-73" x="1367.822266"/>
     <use xlink:href="#DejaVuSans-6f" x="1419.921875"/>
     <use xlink:href="#DejaVuSans-6c" x="1481.103516"/>
     <use xlink:href="#DejaVuSans-65" x="1508.886719"/>
     <use xlink:href="#DejaVuSans-75" x="1570.410156"/>
     <use xlink:href="#DejaVuSans-63" x="1633.789062"/>
     <use xlink:href="#DejaVuSans-69" x="1688.769531"/>
     <use xlink:href="#DejaVuSans-6e" x="1716.552734"/>
     <use xlink:href="#DejaVuSans-3b" x="1779.931641"/>
     <use xlink:href="#DejaVuSans-54" x="1813.623047"/>
     <use xlink:href="#DejaVuSans-72" x="1859.957031"/>
     <use xlink:href="#DejaVuSans-79" x="1901.070312"/>
     <use xlink:href="#DejaVuSans-70" x="1960.25"/>
     <use xlink:href="#DejaVuSans-74" x="2023.726562"/>
     <use xlink:href="#DejaVuSans-6f" x="2062.935547"/>
     <use xlink:href="#DejaVuSans-70" x="2124.117188"/>
     <use xlink:href="#DejaVuSans-68" x="2187.59375"/>
     <use xlink:href="#DejaVuSans-61" x="2250.972656"/>
     <use xlink:href="#DejaVuSans-6e" x="2312.251953"/>
     <use xlink:href="#DejaVuSans-3b" x="2375.630859"/>
     <use xlink:href="#DejaVuSans-20" x="2409.322266"/>
     <use xlink:href="#DejaVuSans-50" x="2441.109375"/>
     <use xlink:href="#DejaVuSans-68" x="2501.412109"/>
     <use xlink:href="#DejaVuSans-65" x="2564.791016"/>
     <use xlink:href="#DejaVuSans-6e" x="2626.314453"/>
     <use xlink:href="#DejaVuSans-79" x="2689.693359"/>
     <use xlink:href="#DejaVuSans-6c" x="2748.873047"/>
     <use xlink:href="#DejaVuSans-61" x="2776.65625"/>
     <use xlink:href="#DejaVuSans-6c" x="2837.935547"/>
     <use xlink:href="#DejaVuSans-61" x="2865.71875"/>
     <use xlink:href="#DejaVuSans-6e" x="2926.998047"/>
     <use xlink:href="#DejaVuSans-69" x="2990.376953"/>
     <use xlink:href="#DejaVuSans-6e" x="3018.160156"/>
     <use xlink:href="#DejaVuSans-3b" x="3081.539062"/>
     <use xlink:href="#DejaVuSans-20" x="3115.230469"/>
     <use xlink:href="#DejaVuSans-4d" x="3147.017578"/>
     <use xlink:href="#DejaVuSans-65" x="3233.296875"/>
     <use xlink:href="#DejaVuSans-74" x="3294.820312"/>
     <use xlink:href="#DejaVuSans-68" x="3334.029297"/>
     <use xlink:href="#DejaVuSans-69" x="3397.408203"/>
     <use xlink:href="#DejaVuSans-6f" x="3425.191406"/>
     <use xlink:href="#DejaVuSans-6e" x="3486.373047"/>
     <use xlink:href="#DejaVuSans-69" x="3549.751953"/>
     <use xlink:href="#DejaVuSans-6e" x="3577.535156"/>
     <use xlink:href="#DejaVuSans-3b" x="3640.914062"/>
     <use xlink:href="#DejaVuSans-20" x="3674.605469"/>
     <use xlink:href="#DejaVuSans-48" x="3706.392578"/>
     <use xlink:href="#DejaVuSans-69" x="3781.587891"/>
     <use xlink:href="#DejaVuSans-73" x="3809.371094"/>
     <use xlink:href="#DejaVuSans-74" x="3861.470703"/>
     <use xlink:href="#DejaVuSans-69" x="3900.679688"/>
     <use xlink:href="#DejaVuSans-64" x="3928.462891"/>
     <use xlink:href="#DejaVuSans-69" x="3991.939453"/>
     <use xlink:href="#DejaVuSans-6e" x="4019.722656"/>
     <use xlink:href="#DejaVuSans-3b" x="4083.101562"/>
     <use xlink:href="#DejaVuSans-20" x="4116.792969"/>
     <use xlink:href="#DejaVuSans-41" x="4148.580078"/>
     <use xlink:href="#DejaVuSans-72" x="4216.988281"/>
     <use xlink:href="#DejaVuSans-67" x="4256.351562"/>
     <use xlink:href="#DejaVuSans-69" x="4319.828125"/>
     <use xlink:href="#DejaVuSans-6e" x="4347.611328"/>
     <use xlink:href="#DejaVuSans-69" x="4410.990234"/>
     <use xlink:href="#DejaVuSans-6e" x="4438.773438"/>
    </g>
   </g>
  </g>
 </g>
 <defs>
  <clipPath id="p20d413e31d">
   <rect x="72" y="51.84" width="446.4" height="332.64"/>
  </clipPath>
 </defs>
</svg>
