<?xml version="1.0" encoding="utf-8" standalone="no"?>
<!DOCTYPE svg PUBLIC "-//W3C//DTD SVG 1.1//EN"
  "http://www.w3.org/Graphics/SVG/1.1/DTD/svg11.dtd">
<svg xmlns:xlink="http://www.w3.org/1999/xlink" width="576pt" height="432pt" viewBox="0 0 576 432" xmlns="http://www.w3.org/2000/svg" version="1.1">
 <metadata>
  <rdf:RDF xmlns:dc="http://purl.org/dc/elements/1.1/" xmlns:cc="http://creativecommons.org/ns#" xmlns:rdf="http://www.w3.org/1999/02/22-rdf-syntax-ns#">
   <cc:Work>
    <dc:type rdf:resource="http://purl.org/dc/dcmitype/StillImage"/>
    <dc:date>2024-11-12T14:09:17.062099</dc:date>
    <dc:format>image/svg+xml</dc:format>
    <dc:creator>
     <cc:Agent>
      <dc:title>Matplotlib v3.7.5, https://matplotlib.org/</dc:title>
     </cc:Agent>
    </dc:creator>
   </cc:Work>
  </rdf:RDF>
 </metadata>
 <defs>
  <style type="text/css">*{stroke-linejoin: round; stroke-linecap: butt}</style>
 </defs>
 <g id="figure_1">
  <g id="patch_1">
   <path d="M 0 432 
L 576 432 
L 576 0 
L 0 0 
z
" style="fill: #ffffff"/>
  </g>
  <g id="axes_1">
   <g id="patch_2">
    <path d="M 72 384.48 
L 518.4 384.48 
L 518.4 51.84 
L 72 51.84 
z
" style="fill: #ffffff"/>
   </g>
   <g id="matplotlib.axis_1">
    <g id="xtick_1">
     <g id="line2d_1">
      <path d="M 92.290909 384.48 
L 92.290909 51.84 
" clip-path="url(#pea45682898)" style="fill: none; stroke: #b0b0b0; stroke-width: 0.8; stroke-linecap: square"/>
     </g>
     <g id="line2d_2">
      <defs>
       <path id="m8cb9ed61a3" d="M 0 0 
L 0 3.5 
" style="stroke: #000000; stroke-width: 0.8"/>
      </defs>
      <g>
       <use xlink:href="#m8cb9ed61a3" x="92.290909" y="384.48" style="stroke: #000000; stroke-width: 0.8"/>
      </g>
     </g>
     <g id="text_1">
      <!-- 0.17 -->
      <g transform="translate(81.158097 399.078438) scale(0.1 -0.1)">
       <defs>
        <path id="DejaVuSans-30" d="M 2034 4250 
Q 1547 4250 1301 3770 
Q 1056 3291 1056 2328 
Q 1056 1369 1301 889 
Q 1547 409 2034 409 
Q 2525 409 2770 889 
Q 3016 1369 3016 2328 
Q 3016 3291 2770 3770 
Q 2525 4250 2034 4250 
z
M 2034 4750 
Q 2819 4750 3233 4129 
Q 3647 3509 3647 2328 
Q 3647 1150 3233 529 
Q 2819 -91 2034 -91 
Q 1250 -91 836 529 
Q 422 1150 422 2328 
Q 422 3509 836 4129 
Q 1250 4750 2034 4750 
z
" transform="scale(0.015625)"/>
        <path id="DejaVuSans-2e" d="M 684 794 
L 1344 794 
L 1344 0 
L 684 0 
L 684 794 
z
" transform="scale(0.015625)"/>
        <path id="DejaVuSans-31" d="M 794 531 
L 1825 531 
L 1825 4091 
L 703 3866 
L 703 4441 
L 1819 4666 
L 2450 4666 
L 2450 531 
L 3481 531 
L 3481 0 
L 794 0 
L 794 531 
z
" transform="scale(0.015625)"/>
        <path id="DejaVuSans-37" d="M 525 4666 
L 3525 4666 
L 3525 4397 
L 1831 0 
L 1172 0 
L 2766 4134 
L 525 4134 
L 525 4666 
z
" transform="scale(0.015625)"/>
       </defs>
       <use xlink:href="#DejaVuSans-30"/>
       <use xlink:href="#DejaVuSans-2e" x="63.623047"/>
       <use xlink:href="#DejaVuSans-31" x="95.410156"/>
       <use xlink:href="#DejaVuSans-37" x="159.033203"/>
      </g>
     </g>
    </g>
    <g id="xtick_2">
     <g id="line2d_3">
      <path d="M 132.771526 384.48 
L 132.771526 51.84 
" clip-path="url(#pea45682898)" style="fill: none; stroke: #b0b0b0; stroke-width: 0.8; stroke-linecap: square"/>
     </g>
     <g id="line2d_4">
      <g>
       <use xlink:href="#m8cb9ed61a3" x="132.771526" y="384.48" style="stroke: #000000; stroke-width: 0.8"/>
      </g>
     </g>
     <g id="text_2">
      <!-- 6.83 -->
      <g transform="translate(121.638713 399.078438) scale(0.1 -0.1)">
       <defs>
        <path id="DejaVuSans-36" d="M 2113 2584 
Q 1688 2584 1439 2293 
Q 1191 2003 1191 1497 
Q 1191 994 1439 701 
Q 1688 409 2113 409 
Q 2538 409 2786 701 
Q 3034 994 3034 1497 
Q 3034 2003 2786 2293 
Q 2538 2584 2113 2584 
z
M 3366 4563 
L 3366 3988 
Q 3128 4100 2886 4159 
Q 2644 4219 2406 4219 
Q 1781 4219 1451 3797 
Q 1122 3375 1075 2522 
Q 1259 2794 1537 2939 
Q 1816 3084 2150 3084 
Q 2853 3084 3261 2657 
Q 3669 2231 3669 1497 
Q 3669 778 3244 343 
Q 2819 -91 2113 -91 
Q 1303 -91 875 529 
Q 447 1150 447 2328 
Q 447 3434 972 4092 
Q 1497 4750 2381 4750 
Q 2619 4750 2861 4703 
Q 3103 4656 3366 4563 
z
" transform="scale(0.015625)"/>
        <path id="DejaVuSans-38" d="M 2034 2216 
Q 1584 2216 1326 1975 
Q 1069 1734 1069 1313 
Q 1069 891 1326 650 
Q 1584 409 2034 409 
Q 2484 409 2743 651 
Q 3003 894 3003 1313 
Q 3003 1734 2745 1975 
Q 2488 2216 2034 2216 
z
M 1403 2484 
Q 997 2584 770 2862 
Q 544 3141 544 3541 
Q 544 4100 942 4425 
Q 1341 4750 2034 4750 
Q 2731 4750 3128 4425 
Q 3525 4100 3525 3541 
Q 3525 3141 3298 2862 
Q 3072 2584 2669 2484 
Q 3125 2378 3379 2068 
Q 3634 1759 3634 1313 
Q 3634 634 3220 271 
Q 2806 -91 2034 -91 
Q 1263 -91 848 271 
Q 434 634 434 1313 
Q 434 1759 690 2068 
Q 947 2378 1403 2484 
z
M 1172 3481 
Q 1172 3119 1398 2916 
Q 1625 2713 2034 2713 
Q 2441 2713 2670 2916 
Q 2900 3119 2900 3481 
Q 2900 3844 2670 4047 
Q 2441 4250 2034 4250 
Q 1625 4250 1398 4047 
Q 1172 3844 1172 3481 
z
" transform="scale(0.015625)"/>
        <path id="DejaVuSans-33" d="M 2597 2516 
Q 3050 2419 3304 2112 
Q 3559 1806 3559 1356 
Q 3559 666 3084 287 
Q 2609 -91 1734 -91 
Q 1441 -91 1130 -33 
Q 819 25 488 141 
L 488 750 
Q 750 597 1062 519 
Q 1375 441 1716 441 
Q 2309 441 2620 675 
Q 2931 909 2931 1356 
Q 2931 1769 2642 2001 
Q 2353 2234 1838 2234 
L 1294 2234 
L 1294 2753 
L 1863 2753 
Q 2328 2753 2575 2939 
Q 2822 3125 2822 3475 
Q 2822 3834 2567 4026 
Q 2313 4219 1838 4219 
Q 1578 4219 1281 4162 
Q 984 4106 628 3988 
L 628 4550 
Q 988 4650 1302 4700 
Q 1616 4750 1894 4750 
Q 2613 4750 3031 4423 
Q 3450 4097 3450 3541 
Q 3450 3153 3228 2886 
Q 3006 2619 2597 2516 
z
" transform="scale(0.015625)"/>
       </defs>
       <use xlink:href="#DejaVuSans-36"/>
       <use xlink:href="#DejaVuSans-2e" x="63.623047"/>
       <use xlink:href="#DejaVuSans-38" x="95.410156"/>
       <use xlink:href="#DejaVuSans-33" x="159.033203"/>
      </g>
     </g>
    </g>
    <g id="xtick_3">
     <g id="line2d_5">
      <path d="M 173.252142 384.48 
L 173.252142 51.84 
" clip-path="url(#pea45682898)" style="fill: none; stroke: #b0b0b0; stroke-width: 0.8; stroke-linecap: square"/>
     </g>
     <g id="line2d_6">
      <g>
       <use xlink:href="#m8cb9ed61a3" x="173.252142" y="384.48" style="stroke: #000000; stroke-width: 0.8"/>
      </g>
     </g>
     <g id="text_3">
      <!-- 13.5 -->
      <g transform="translate(162.11933 399.078438) scale(0.1 -0.1)">
       <defs>
        <path id="DejaVuSans-35" d="M 691 4666 
L 3169 4666 
L 3169 4134 
L 1269 4134 
L 1269 2991 
Q 1406 3038 1543 3061 
Q 1681 3084 1819 3084 
Q 2600 3084 3056 2656 
Q 3513 2228 3513 1497 
Q 3513 744 3044 326 
Q 2575 -91 1722 -91 
Q 1428 -91 1123 -41 
Q 819 9 494 109 
L 494 744 
Q 775 591 1075 516 
Q 1375 441 1709 441 
Q 2250 441 2565 725 
Q 2881 1009 2881 1497 
Q 2881 1984 2565 2268 
Q 2250 2553 1709 2553 
Q 1456 2553 1204 2497 
Q 953 2441 691 2322 
L 691 4666 
z
" transform="scale(0.015625)"/>
       </defs>
       <use xlink:href="#DejaVuSans-31"/>
       <use xlink:href="#DejaVuSans-33" x="63.623047"/>
       <use xlink:href="#DejaVuSans-2e" x="127.246094"/>
       <use xlink:href="#DejaVuSans-35" x="159.033203"/>
      </g>
     </g>
    </g>
    <g id="xtick_4">
     <g id="line2d_7">
      <path d="M 213.732759 384.48 
L 213.732759 51.84 
" clip-path="url(#pea45682898)" style="fill: none; stroke: #b0b0b0; stroke-width: 0.8; stroke-linecap: square"/>
     </g>
     <g id="line2d_8">
      <g>
       <use xlink:href="#m8cb9ed61a3" x="213.732759" y="384.48" style="stroke: #000000; stroke-width: 0.8"/>
      </g>
     </g>
     <g id="text_4">
      <!-- 20.17 -->
      <g transform="translate(199.418697 399.078438) scale(0.1 -0.1)">
       <defs>
        <path id="DejaVuSans-32" d="M 1228 531 
L 3431 531 
L 3431 0 
L 469 0 
L 469 531 
Q 828 903 1448 1529 
Q 2069 2156 2228 2338 
Q 2531 2678 2651 2914 
Q 2772 3150 2772 3378 
Q 2772 3750 2511 3984 
Q 2250 4219 1831 4219 
Q 1534 4219 1204 4116 
Q 875 4013 500 3803 
L 500 4441 
Q 881 4594 1212 4672 
Q 1544 4750 1819 4750 
Q 2544 4750 2975 4387 
Q 3406 4025 3406 3419 
Q 3406 3131 3298 2873 
Q 3191 2616 2906 2266 
Q 2828 2175 2409 1742 
Q 1991 1309 1228 531 
z
" transform="scale(0.015625)"/>
       </defs>
       <use xlink:href="#DejaVuSans-32"/>
       <use xlink:href="#DejaVuSans-30" x="63.623047"/>
       <use xlink:href="#DejaVuSans-2e" x="127.246094"/>
       <use xlink:href="#DejaVuSans-31" x="159.033203"/>
       <use xlink:href="#DejaVuSans-37" x="222.65625"/>
      </g>
     </g>
    </g>
    <g id="xtick_5">
     <g id="line2d_9">
      <path d="M 254.213376 384.48 
L 254.213376 51.84 
" clip-path="url(#pea45682898)" style="fill: none; stroke: #b0b0b0; stroke-width: 0.8; stroke-linecap: square"/>
     </g>
     <g id="line2d_10">
      <g>
       <use xlink:href="#m8cb9ed61a3" x="254.213376" y="384.48" style="stroke: #000000; stroke-width: 0.8"/>
      </g>
     </g>
     <g id="text_5">
      <!-- 26.83 -->
      <g transform="translate(239.899313 399.078438) scale(0.1 -0.1)">
       <use xlink:href="#DejaVuSans-32"/>
       <use xlink:href="#DejaVuSans-36" x="63.623047"/>
       <use xlink:href="#DejaVuSans-2e" x="127.246094"/>
       <use xlink:href="#DejaVuSans-38" x="159.033203"/>
       <use xlink:href="#DejaVuSans-33" x="222.65625"/>
      </g>
     </g>
    </g>
    <g id="xtick_6">
     <g id="line2d_11">
      <path d="M 294.693992 384.48 
L 294.693992 51.84 
" clip-path="url(#pea45682898)" style="fill: none; stroke: #b0b0b0; stroke-width: 0.8; stroke-linecap: square"/>
     </g>
     <g id="line2d_12">
      <g>
       <use xlink:href="#m8cb9ed61a3" x="294.693992" y="384.48" style="stroke: #000000; stroke-width: 0.8"/>
      </g>
     </g>
     <g id="text_6">
      <!-- 33.5 -->
      <g transform="translate(283.56118 399.078438) scale(0.1 -0.1)">
       <use xlink:href="#DejaVuSans-33"/>
       <use xlink:href="#DejaVuSans-33" x="63.623047"/>
       <use xlink:href="#DejaVuSans-2e" x="127.246094"/>
       <use xlink:href="#DejaVuSans-35" x="159.033203"/>
      </g>
     </g>
    </g>
    <g id="xtick_7">
     <g id="line2d_13">
      <path d="M 335.174609 384.48 
L 335.174609 51.84 
" clip-path="url(#pea45682898)" style="fill: none; stroke: #b0b0b0; stroke-width: 0.8; stroke-linecap: square"/>
     </g>
     <g id="line2d_14">
      <g>
       <use xlink:href="#m8cb9ed61a3" x="335.174609" y="384.48" style="stroke: #000000; stroke-width: 0.8"/>
      </g>
     </g>
     <g id="text_7">
      <!-- 40.17 -->
      <g transform="translate(320.860546 399.078438) scale(0.1 -0.1)">
       <defs>
        <path id="DejaVuSans-34" d="M 2419 4116 
L 825 1625 
L 2419 1625 
L 2419 4116 
z
M 2253 4666 
L 3047 4666 
L 3047 1625 
L 3713 1625 
L 3713 1100 
L 3047 1100 
L 3047 0 
L 2419 0 
L 2419 1100 
L 313 1100 
L 313 1709 
L 2253 4666 
z
" transform="scale(0.015625)"/>
       </defs>
       <use xlink:href="#DejaVuSans-34"/>
       <use xlink:href="#DejaVuSans-30" x="63.623047"/>
       <use xlink:href="#DejaVuSans-2e" x="127.246094"/>
       <use xlink:href="#DejaVuSans-31" x="159.033203"/>
       <use xlink:href="#DejaVuSans-37" x="222.65625"/>
      </g>
     </g>
    </g>
    <g id="xtick_8">
     <g id="line2d_15">
      <path d="M 375.655226 384.48 
L 375.655226 51.84 
" clip-path="url(#pea45682898)" style="fill: none; stroke: #b0b0b0; stroke-width: 0.8; stroke-linecap: square"/>
     </g>
     <g id="line2d_16">
      <g>
       <use xlink:href="#m8cb9ed61a3" x="375.655226" y="384.48" style="stroke: #000000; stroke-width: 0.8"/>
      </g>
     </g>
     <g id="text_8">
      <!-- 46.83 -->
      <g transform="translate(361.341163 399.078438) scale(0.1 -0.1)">
       <use xlink:href="#DejaVuSans-34"/>
       <use xlink:href="#DejaVuSans-36" x="63.623047"/>
       <use xlink:href="#DejaVuSans-2e" x="127.246094"/>
       <use xlink:href="#DejaVuSans-38" x="159.033203"/>
       <use xlink:href="#DejaVuSans-33" x="222.65625"/>
      </g>
     </g>
    </g>
    <g id="xtick_9">
     <g id="line2d_17">
      <path d="M 416.135842 384.48 
L 416.135842 51.84 
" clip-path="url(#pea45682898)" style="fill: none; stroke: #b0b0b0; stroke-width: 0.8; stroke-linecap: square"/>
     </g>
     <g id="line2d_18">
      <g>
       <use xlink:href="#m8cb9ed61a3" x="416.135842" y="384.48" style="stroke: #000000; stroke-width: 0.8"/>
      </g>
     </g>
     <g id="text_9">
      <!-- 53.5 -->
      <g transform="translate(405.00303 399.078438) scale(0.1 -0.1)">
       <use xlink:href="#DejaVuSans-35"/>
       <use xlink:href="#DejaVuSans-33" x="63.623047"/>
       <use xlink:href="#DejaVuSans-2e" x="127.246094"/>
       <use xlink:href="#DejaVuSans-35" x="159.033203"/>
      </g>
     </g>
    </g>
    <g id="xtick_10">
     <g id="line2d_19">
      <path d="M 456.616459 384.48 
L 456.616459 51.84 
" clip-path="url(#pea45682898)" style="fill: none; stroke: #b0b0b0; stroke-width: 0.8; stroke-linecap: square"/>
     </g>
     <g id="line2d_20">
      <g>
       <use xlink:href="#m8cb9ed61a3" x="456.616459" y="384.48" style="stroke: #000000; stroke-width: 0.8"/>
      </g>
     </g>
     <g id="text_10">
      <!-- 60.17 -->
      <g transform="translate(442.302396 399.078438) scale(0.1 -0.1)">
       <use xlink:href="#DejaVuSans-36"/>
       <use xlink:href="#DejaVuSans-30" x="63.623047"/>
       <use xlink:href="#DejaVuSans-2e" x="127.246094"/>
       <use xlink:href="#DejaVuSans-31" x="159.033203"/>
       <use xlink:href="#DejaVuSans-37" x="222.65625"/>
      </g>
     </g>
    </g>
    <g id="xtick_11">
     <g id="line2d_21">
      <path d="M 497.097075 384.48 
L 497.097075 51.84 
" clip-path="url(#pea45682898)" style="fill: none; stroke: #b0b0b0; stroke-width: 0.8; stroke-linecap: square"/>
     </g>
     <g id="line2d_22">
      <g>
       <use xlink:href="#m8cb9ed61a3" x="497.097075" y="384.48" style="stroke: #000000; stroke-width: 0.8"/>
      </g>
     </g>
     <g id="text_11">
      <!-- 66.83 -->
      <g transform="translate(482.783013 399.078438) scale(0.1 -0.1)">
       <use xlink:href="#DejaVuSans-36"/>
       <use xlink:href="#DejaVuSans-36" x="63.623047"/>
       <use xlink:href="#DejaVuSans-2e" x="127.246094"/>
       <use xlink:href="#DejaVuSans-38" x="159.033203"/>
       <use xlink:href="#DejaVuSans-33" x="222.65625"/>
      </g>
     </g>
    </g>
    <g id="text_12">
     <!-- time in hours [h] -->
     <g transform="translate(253.451562 412.756563) scale(0.1 -0.1)">
      <defs>
       <path id="DejaVuSans-74" d="M 1172 4494 
L 1172 3500 
L 2356 3500 
L 2356 3053 
L 1172 3053 
L 1172 1153 
Q 1172 725 1289 603 
Q 1406 481 1766 481 
L 2356 481 
L 2356 0 
L 1766 0 
Q 1100 0 847 248 
Q 594 497 594 1153 
L 594 3053 
L 172 3053 
L 172 3500 
L 594 3500 
L 594 4494 
L 1172 4494 
z
" transform="scale(0.015625)"/>
       <path id="DejaVuSans-69" d="M 603 3500 
L 1178 3500 
L 1178 0 
L 603 0 
L 603 3500 
z
M 603 4863 
L 1178 4863 
L 1178 4134 
L 603 4134 
L 603 4863 
z
" transform="scale(0.015625)"/>
       <path id="DejaVuSans-6d" d="M 3328 2828 
Q 3544 3216 3844 3400 
Q 4144 3584 4550 3584 
Q 5097 3584 5394 3201 
Q 5691 2819 5691 2113 
L 5691 0 
L 5113 0 
L 5113 2094 
Q 5113 2597 4934 2840 
Q 4756 3084 4391 3084 
Q 3944 3084 3684 2787 
Q 3425 2491 3425 1978 
L 3425 0 
L 2847 0 
L 2847 2094 
Q 2847 2600 2669 2842 
Q 2491 3084 2119 3084 
Q 1678 3084 1418 2786 
Q 1159 2488 1159 1978 
L 1159 0 
L 581 0 
L 581 3500 
L 1159 3500 
L 1159 2956 
Q 1356 3278 1631 3431 
Q 1906 3584 2284 3584 
Q 2666 3584 2933 3390 
Q 3200 3197 3328 2828 
z
" transform="scale(0.015625)"/>
       <path id="DejaVuSans-65" d="M 3597 1894 
L 3597 1613 
L 953 1613 
Q 991 1019 1311 708 
Q 1631 397 2203 397 
Q 2534 397 2845 478 
Q 3156 559 3463 722 
L 3463 178 
Q 3153 47 2828 -22 
Q 2503 -91 2169 -91 
Q 1331 -91 842 396 
Q 353 884 353 1716 
Q 353 2575 817 3079 
Q 1281 3584 2069 3584 
Q 2775 3584 3186 3129 
Q 3597 2675 3597 1894 
z
M 3022 2063 
Q 3016 2534 2758 2815 
Q 2500 3097 2075 3097 
Q 1594 3097 1305 2825 
Q 1016 2553 972 2059 
L 3022 2063 
z
" transform="scale(0.015625)"/>
       <path id="DejaVuSans-20" transform="scale(0.015625)"/>
       <path id="DejaVuSans-6e" d="M 3513 2113 
L 3513 0 
L 2938 0 
L 2938 2094 
Q 2938 2591 2744 2837 
Q 2550 3084 2163 3084 
Q 1697 3084 1428 2787 
Q 1159 2491 1159 1978 
L 1159 0 
L 581 0 
L 581 3500 
L 1159 3500 
L 1159 2956 
Q 1366 3272 1645 3428 
Q 1925 3584 2291 3584 
Q 2894 3584 3203 3211 
Q 3513 2838 3513 2113 
z
" transform="scale(0.015625)"/>
       <path id="DejaVuSans-68" d="M 3513 2113 
L 3513 0 
L 2938 0 
L 2938 2094 
Q 2938 2591 2744 2837 
Q 2550 3084 2163 3084 
Q 1697 3084 1428 2787 
Q 1159 2491 1159 1978 
L 1159 0 
L 581 0 
L 581 4863 
L 1159 4863 
L 1159 2956 
Q 1366 3272 1645 3428 
Q 1925 3584 2291 3584 
Q 2894 3584 3203 3211 
Q 3513 2838 3513 2113 
z
" transform="scale(0.015625)"/>
       <path id="DejaVuSans-6f" d="M 1959 3097 
Q 1497 3097 1228 2736 
Q 959 2375 959 1747 
Q 959 1119 1226 758 
Q 1494 397 1959 397 
Q 2419 397 2687 759 
Q 2956 1122 2956 1747 
Q 2956 2369 2687 2733 
Q 2419 3097 1959 3097 
z
M 1959 3584 
Q 2709 3584 3137 3096 
Q 3566 2609 3566 1747 
Q 3566 888 3137 398 
Q 2709 -91 1959 -91 
Q 1206 -91 779 398 
Q 353 888 353 1747 
Q 353 2609 779 3096 
Q 1206 3584 1959 3584 
z
" transform="scale(0.015625)"/>
       <path id="DejaVuSans-75" d="M 544 1381 
L 544 3500 
L 1119 3500 
L 1119 1403 
Q 1119 906 1312 657 
Q 1506 409 1894 409 
Q 2359 409 2629 706 
Q 2900 1003 2900 1516 
L 2900 3500 
L 3475 3500 
L 3475 0 
L 2900 0 
L 2900 538 
Q 2691 219 2414 64 
Q 2138 -91 1772 -91 
Q 1169 -91 856 284 
Q 544 659 544 1381 
z
M 1991 3584 
L 1991 3584 
z
" transform="scale(0.015625)"/>
       <path id="DejaVuSans-72" d="M 2631 2963 
Q 2534 3019 2420 3045 
Q 2306 3072 2169 3072 
Q 1681 3072 1420 2755 
Q 1159 2438 1159 1844 
L 1159 0 
L 581 0 
L 581 3500 
L 1159 3500 
L 1159 2956 
Q 1341 3275 1631 3429 
Q 1922 3584 2338 3584 
Q 2397 3584 2469 3576 
Q 2541 3569 2628 3553 
L 2631 2963 
z
" transform="scale(0.015625)"/>
       <path id="DejaVuSans-73" d="M 2834 3397 
L 2834 2853 
Q 2591 2978 2328 3040 
Q 2066 3103 1784 3103 
Q 1356 3103 1142 2972 
Q 928 2841 928 2578 
Q 928 2378 1081 2264 
Q 1234 2150 1697 2047 
L 1894 2003 
Q 2506 1872 2764 1633 
Q 3022 1394 3022 966 
Q 3022 478 2636 193 
Q 2250 -91 1575 -91 
Q 1294 -91 989 -36 
Q 684 19 347 128 
L 347 722 
Q 666 556 975 473 
Q 1284 391 1588 391 
Q 1994 391 2212 530 
Q 2431 669 2431 922 
Q 2431 1156 2273 1281 
Q 2116 1406 1581 1522 
L 1381 1569 
Q 847 1681 609 1914 
Q 372 2147 372 2553 
Q 372 3047 722 3315 
Q 1072 3584 1716 3584 
Q 2034 3584 2315 3537 
Q 2597 3491 2834 3397 
z
" transform="scale(0.015625)"/>
       <path id="DejaVuSans-5b" d="M 550 4863 
L 1875 4863 
L 1875 4416 
L 1125 4416 
L 1125 -397 
L 1875 -397 
L 1875 -844 
L 550 -844 
L 550 4863 
z
" transform="scale(0.015625)"/>
       <path id="DejaVuSans-5d" d="M 1947 4863 
L 1947 -844 
L 622 -844 
L 622 -397 
L 1369 -397 
L 1369 4416 
L 622 4416 
L 622 4863 
L 1947 4863 
z
" transform="scale(0.015625)"/>
      </defs>
      <use xlink:href="#DejaVuSans-74"/>
      <use xlink:href="#DejaVuSans-69" x="39.208984"/>
      <use xlink:href="#DejaVuSans-6d" x="66.992188"/>
      <use xlink:href="#DejaVuSans-65" x="164.404297"/>
      <use xlink:href="#DejaVuSans-20" x="225.927734"/>
      <use xlink:href="#DejaVuSans-69" x="257.714844"/>
      <use xlink:href="#DejaVuSans-6e" x="285.498047"/>
      <use xlink:href="#DejaVuSans-20" x="348.876953"/>
      <use xlink:href="#DejaVuSans-68" x="380.664062"/>
      <use xlink:href="#DejaVuSans-6f" x="444.042969"/>
      <use xlink:href="#DejaVuSans-75" x="505.224609"/>
      <use xlink:href="#DejaVuSans-72" x="568.603516"/>
      <use xlink:href="#DejaVuSans-73" x="609.716797"/>
      <use xlink:href="#DejaVuSans-20" x="661.816406"/>
      <use xlink:href="#DejaVuSans-5b" x="693.603516"/>
      <use xlink:href="#DejaVuSans-68" x="732.617188"/>
      <use xlink:href="#DejaVuSans-5d" x="795.996094"/>
     </g>
    </g>
   </g>
   <g id="matplotlib.axis_2">
    <g id="ytick_1">
     <g id="line2d_23">
      <path d="M 72 363.69 
L 518.4 363.69 
" clip-path="url(#pea45682898)" style="fill: none; stroke: #b0b0b0; stroke-width: 0.8; stroke-linecap: square"/>
     </g>
     <g id="line2d_24">
      <defs>
       <path id="mb1c4d045bb" d="M 0 0 
L -3.5 0 
" style="stroke: #000000; stroke-width: 0.8"/>
      </defs>
      <g>
       <use xlink:href="#mb1c4d045bb" x="72" y="363.69" style="stroke: #000000; stroke-width: 0.8"/>
      </g>
     </g>
     <g id="text_13">
      <!-- 0.0 -->
      <g transform="translate(49.096875 367.489219) scale(0.1 -0.1)">
       <use xlink:href="#DejaVuSans-30"/>
       <use xlink:href="#DejaVuSans-2e" x="63.623047"/>
       <use xlink:href="#DejaVuSans-30" x="95.410156"/>
      </g>
     </g>
    </g>
    <g id="ytick_2">
     <g id="line2d_25">
      <path d="M 72 311.715 
L 518.4 311.715 
" clip-path="url(#pea45682898)" style="fill: none; stroke: #b0b0b0; stroke-width: 0.8; stroke-linecap: square"/>
     </g>
     <g id="line2d_26">
      <g>
       <use xlink:href="#mb1c4d045bb" x="72" y="311.715" style="stroke: #000000; stroke-width: 0.8"/>
      </g>
     </g>
     <g id="text_14">
      <!-- 0.5 -->
      <g transform="translate(49.096875 315.514219) scale(0.1 -0.1)">
       <use xlink:href="#DejaVuSans-30"/>
       <use xlink:href="#DejaVuSans-2e" x="63.623047"/>
       <use xlink:href="#DejaVuSans-35" x="95.410156"/>
      </g>
     </g>
    </g>
    <g id="ytick_3">
     <g id="line2d_27">
      <path d="M 72 259.74 
L 518.4 259.74 
" clip-path="url(#pea45682898)" style="fill: none; stroke: #b0b0b0; stroke-width: 0.8; stroke-linecap: square"/>
     </g>
     <g id="line2d_28">
      <g>
       <use xlink:href="#mb1c4d045bb" x="72" y="259.74" style="stroke: #000000; stroke-width: 0.8"/>
      </g>
     </g>
     <g id="text_15">
      <!-- 1.0 -->
      <g transform="translate(49.096875 263.539219) scale(0.1 -0.1)">
       <use xlink:href="#DejaVuSans-31"/>
       <use xlink:href="#DejaVuSans-2e" x="63.623047"/>
       <use xlink:href="#DejaVuSans-30" x="95.410156"/>
      </g>
     </g>
    </g>
    <g id="ytick_4">
     <g id="line2d_29">
      <path d="M 72 207.765 
L 518.4 207.765 
" clip-path="url(#pea45682898)" style="fill: none; stroke: #b0b0b0; stroke-width: 0.8; stroke-linecap: square"/>
     </g>
     <g id="line2d_30">
      <g>
       <use xlink:href="#mb1c4d045bb" x="72" y="207.765" style="stroke: #000000; stroke-width: 0.8"/>
      </g>
     </g>
     <g id="text_16">
      <!-- 1.5 -->
      <g transform="translate(49.096875 211.564219) scale(0.1 -0.1)">
       <use xlink:href="#DejaVuSans-31"/>
       <use xlink:href="#DejaVuSans-2e" x="63.623047"/>
       <use xlink:href="#DejaVuSans-35" x="95.410156"/>
      </g>
     </g>
    </g>
    <g id="ytick_5">
     <g id="line2d_31">
      <path d="M 72 155.79 
L 518.4 155.79 
" clip-path="url(#pea45682898)" style="fill: none; stroke: #b0b0b0; stroke-width: 0.8; stroke-linecap: square"/>
     </g>
     <g id="line2d_32">
      <g>
       <use xlink:href="#mb1c4d045bb" x="72" y="155.79" style="stroke: #000000; stroke-width: 0.8"/>
      </g>
     </g>
     <g id="text_17">
      <!-- 2.0 -->
      <g transform="translate(49.096875 159.589219) scale(0.1 -0.1)">
       <use xlink:href="#DejaVuSans-32"/>
       <use xlink:href="#DejaVuSans-2e" x="63.623047"/>
       <use xlink:href="#DejaVuSans-30" x="95.410156"/>
      </g>
     </g>
    </g>
    <g id="ytick_6">
     <g id="line2d_33">
      <path d="M 72 103.815 
L 518.4 103.815 
" clip-path="url(#pea45682898)" style="fill: none; stroke: #b0b0b0; stroke-width: 0.8; stroke-linecap: square"/>
     </g>
     <g id="line2d_34">
      <g>
       <use xlink:href="#mb1c4d045bb" x="72" y="103.815" style="stroke: #000000; stroke-width: 0.8"/>
      </g>
     </g>
     <g id="text_18">
      <!-- 2.5 -->
      <g transform="translate(49.096875 107.614219) scale(0.1 -0.1)">
       <use xlink:href="#DejaVuSans-32"/>
       <use xlink:href="#DejaVuSans-2e" x="63.623047"/>
       <use xlink:href="#DejaVuSans-35" x="95.410156"/>
      </g>
     </g>
    </g>
    <g id="ytick_7">
     <g id="line2d_35">
      <path d="M 72 51.84 
L 518.4 51.84 
" clip-path="url(#pea45682898)" style="fill: none; stroke: #b0b0b0; stroke-width: 0.8; stroke-linecap: square"/>
     </g>
     <g id="line2d_36">
      <g>
       <use xlink:href="#mb1c4d045bb" x="72" y="51.84" style="stroke: #000000; stroke-width: 0.8"/>
      </g>
     </g>
     <g id="text_19">
      <!-- 3.0 -->
      <g transform="translate(49.096875 55.639219) scale(0.1 -0.1)">
       <use xlink:href="#DejaVuSans-33"/>
       <use xlink:href="#DejaVuSans-2e" x="63.623047"/>
       <use xlink:href="#DejaVuSans-30" x="95.410156"/>
      </g>
     </g>
    </g>
    <g id="text_20">
     <!-- blank corrected OD600 -->
     <g transform="translate(43.017187 276.115469) rotate(-90) scale(0.1 -0.1)">
      <defs>
       <path id="DejaVuSans-62" d="M 3116 1747 
Q 3116 2381 2855 2742 
Q 2594 3103 2138 3103 
Q 1681 3103 1420 2742 
Q 1159 2381 1159 1747 
Q 1159 1113 1420 752 
Q 1681 391 2138 391 
Q 2594 391 2855 752 
Q 3116 1113 3116 1747 
z
M 1159 2969 
Q 1341 3281 1617 3432 
Q 1894 3584 2278 3584 
Q 2916 3584 3314 3078 
Q 3713 2572 3713 1747 
Q 3713 922 3314 415 
Q 2916 -91 2278 -91 
Q 1894 -91 1617 61 
Q 1341 213 1159 525 
L 1159 0 
L 581 0 
L 581 4863 
L 1159 4863 
L 1159 2969 
z
" transform="scale(0.015625)"/>
       <path id="DejaVuSans-6c" d="M 603 4863 
L 1178 4863 
L 1178 0 
L 603 0 
L 603 4863 
z
" transform="scale(0.015625)"/>
       <path id="DejaVuSans-61" d="M 2194 1759 
Q 1497 1759 1228 1600 
Q 959 1441 959 1056 
Q 959 750 1161 570 
Q 1363 391 1709 391 
Q 2188 391 2477 730 
Q 2766 1069 2766 1631 
L 2766 1759 
L 2194 1759 
z
M 3341 1997 
L 3341 0 
L 2766 0 
L 2766 531 
Q 2569 213 2275 61 
Q 1981 -91 1556 -91 
Q 1019 -91 701 211 
Q 384 513 384 1019 
Q 384 1609 779 1909 
Q 1175 2209 1959 2209 
L 2766 2209 
L 2766 2266 
Q 2766 2663 2505 2880 
Q 2244 3097 1772 3097 
Q 1472 3097 1187 3025 
Q 903 2953 641 2809 
L 641 3341 
Q 956 3463 1253 3523 
Q 1550 3584 1831 3584 
Q 2591 3584 2966 3190 
Q 3341 2797 3341 1997 
z
" transform="scale(0.015625)"/>
       <path id="DejaVuSans-6b" d="M 581 4863 
L 1159 4863 
L 1159 1991 
L 2875 3500 
L 3609 3500 
L 1753 1863 
L 3688 0 
L 2938 0 
L 1159 1709 
L 1159 0 
L 581 0 
L 581 4863 
z
" transform="scale(0.015625)"/>
       <path id="DejaVuSans-63" d="M 3122 3366 
L 3122 2828 
Q 2878 2963 2633 3030 
Q 2388 3097 2138 3097 
Q 1578 3097 1268 2742 
Q 959 2388 959 1747 
Q 959 1106 1268 751 
Q 1578 397 2138 397 
Q 2388 397 2633 464 
Q 2878 531 3122 666 
L 3122 134 
Q 2881 22 2623 -34 
Q 2366 -91 2075 -91 
Q 1284 -91 818 406 
Q 353 903 353 1747 
Q 353 2603 823 3093 
Q 1294 3584 2113 3584 
Q 2378 3584 2631 3529 
Q 2884 3475 3122 3366 
z
" transform="scale(0.015625)"/>
       <path id="DejaVuSans-64" d="M 2906 2969 
L 2906 4863 
L 3481 4863 
L 3481 0 
L 2906 0 
L 2906 525 
Q 2725 213 2448 61 
Q 2172 -91 1784 -91 
Q 1150 -91 751 415 
Q 353 922 353 1747 
Q 353 2572 751 3078 
Q 1150 3584 1784 3584 
Q 2172 3584 2448 3432 
Q 2725 3281 2906 2969 
z
M 947 1747 
Q 947 1113 1208 752 
Q 1469 391 1925 391 
Q 2381 391 2643 752 
Q 2906 1113 2906 1747 
Q 2906 2381 2643 2742 
Q 2381 3103 1925 3103 
Q 1469 3103 1208 2742 
Q 947 2381 947 1747 
z
" transform="scale(0.015625)"/>
       <path id="DejaVuSans-4f" d="M 2522 4238 
Q 1834 4238 1429 3725 
Q 1025 3213 1025 2328 
Q 1025 1447 1429 934 
Q 1834 422 2522 422 
Q 3209 422 3611 934 
Q 4013 1447 4013 2328 
Q 4013 3213 3611 3725 
Q 3209 4238 2522 4238 
z
M 2522 4750 
Q 3503 4750 4090 4092 
Q 4678 3434 4678 2328 
Q 4678 1225 4090 567 
Q 3503 -91 2522 -91 
Q 1538 -91 948 565 
Q 359 1222 359 2328 
Q 359 3434 948 4092 
Q 1538 4750 2522 4750 
z
" transform="scale(0.015625)"/>
       <path id="DejaVuSans-44" d="M 1259 4147 
L 1259 519 
L 2022 519 
Q 2988 519 3436 956 
Q 3884 1394 3884 2338 
Q 3884 3275 3436 3711 
Q 2988 4147 2022 4147 
L 1259 4147 
z
M 628 4666 
L 1925 4666 
Q 3281 4666 3915 4102 
Q 4550 3538 4550 2338 
Q 4550 1131 3912 565 
Q 3275 0 1925 0 
L 628 0 
L 628 4666 
z
" transform="scale(0.015625)"/>
      </defs>
      <use xlink:href="#DejaVuSans-62"/>
      <use xlink:href="#DejaVuSans-6c" x="63.476562"/>
      <use xlink:href="#DejaVuSans-61" x="91.259766"/>
      <use xlink:href="#DejaVuSans-6e" x="152.539062"/>
      <use xlink:href="#DejaVuSans-6b" x="215.917969"/>
      <use xlink:href="#DejaVuSans-20" x="273.828125"/>
      <use xlink:href="#DejaVuSans-63" x="305.615234"/>
      <use xlink:href="#DejaVuSans-6f" x="360.595703"/>
      <use xlink:href="#DejaVuSans-72" x="421.777344"/>
      <use xlink:href="#DejaVuSans-72" x="461.140625"/>
      <use xlink:href="#DejaVuSans-65" x="500.003906"/>
      <use xlink:href="#DejaVuSans-63" x="561.527344"/>
      <use xlink:href="#DejaVuSans-74" x="616.507812"/>
      <use xlink:href="#DejaVuSans-65" x="655.716797"/>
      <use xlink:href="#DejaVuSans-64" x="717.240234"/>
      <use xlink:href="#DejaVuSans-20" x="780.716797"/>
      <use xlink:href="#DejaVuSans-4f" x="812.503906"/>
      <use xlink:href="#DejaVuSans-44" x="891.214844"/>
      <use xlink:href="#DejaVuSans-36" x="968.216797"/>
      <use xlink:href="#DejaVuSans-30" x="1031.839844"/>
      <use xlink:href="#DejaVuSans-30" x="1095.462891"/>
     </g>
    </g>
   </g>
   <g id="line2d_37">
    <path d="M 92.290909 358.045515 
L 93.302925 367.089165 
L 94.31494 367.297065 
L 95.326955 366.881265 
L 99.375017 367.193115 
L 101.399048 367.297065 
L 102.411063 366.881265 
L 103.423079 365.737815 
L 105.447109 366.673365 
L 106.459125 366.985215 
L 107.47114 367.920765 
L 108.483156 367.712865 
L 109.495171 368.128665 
L 110.507187 368.024715 
L 111.519202 365.633865 
L 112.531217 367.920765 
L 113.543233 367.712865 
L 114.555248 368.128665 
L 115.567264 368.336565 
L 117.591294 367.608915 
L 118.60331 368.024715 
L 119.615325 367.297065 
L 120.627341 368.544465 
L 121.639356 369.168165 
L 122.651372 369.272115 
L 123.663387 368.440515 
L 124.675402 368.336565 
L 125.687418 368.856315 
L 126.699433 366.985215 
L 127.711449 367.297065 
L 128.723464 368.128665 
L 129.735479 366.465465 
L 130.747495 366.153615 
L 131.75951 366.569415 
L 132.771526 367.816815 
L 133.783541 365.322015 
L 134.795557 365.425965 
L 135.807572 365.737815 
L 137.831603 364.698315 
L 138.843618 365.010165 
L 139.855634 365.010165 
L 140.867649 364.386465 
L 141.879664 365.425965 
L 142.89168 364.282515 
L 145.927726 363.762765 
L 146.939742 363.658815 
L 148.963772 362.515365 
L 149.975788 362.307465 
L 150.987803 361.787715 
L 151.999819 360.956115 
L 154.023849 360.436365 
L 155.035865 360.020565 
L 156.04788 359.292915 
L 157.059896 358.981065 
L 158.071911 358.253415 
L 159.083927 357.941565 
L 160.095942 357.006015 
L 161.107957 356.486265 
L 162.119973 355.758615 
L 163.131988 355.446765 
L 164.144004 354.511215 
L 167.18005 352.951965 
L 168.192065 352.640115 
L 169.204081 351.600615 
L 170.216096 351.080865 
L 172.240127 349.521615 
L 176.288189 347.338665 
L 183.372297 342.141165 
L 184.384312 341.725365 
L 185.396327 340.477965 
L 186.408343 339.646365 
L 187.420358 338.398965 
L 189.444389 336.839715 
L 190.456404 335.800215 
L 191.46842 335.488365 
L 192.480435 334.240965 
L 193.492451 333.305415 
L 194.504466 332.058015 
L 195.516482 331.122465 
L 196.528497 329.043465 
L 197.540512 328.731615 
L 198.552528 328.211865 
L 199.564543 326.652615 
L 200.576559 325.509165 
L 201.588574 324.677565 
L 202.600589 323.118315 
L 205.636636 320.415615 
L 207.660667 317.297115 
L 208.672682 316.569465 
L 209.684697 315.010215 
L 211.708728 312.411465 
L 212.720744 311.475915 
L 214.744774 308.669265 
L 215.75679 307.733715 
L 216.768805 306.486315 
L 217.780821 305.446815 
L 218.792836 303.679665 
L 219.804852 302.536215 
L 220.816867 301.704615 
L 221.828882 299.937465 
L 222.840898 298.482165 
L 224.864929 296.507115 
L 225.876944 295.987365 
L 226.888959 294.843915 
L 227.900975 293.492565 
L 228.91299 292.557015 
L 229.925006 291.205665 
L 230.937021 290.789865 
L 231.949036 289.438515 
L 232.961052 289.126665 
L 233.973067 287.983215 
L 235.997098 286.216065 
L 237.009114 285.280515 
L 238.021129 284.760765 
L 239.033144 283.617315 
L 240.04516 282.889665 
L 241.057175 281.954115 
L 242.069191 280.498815 
L 243.081206 280.290915 
L 244.093221 278.939565 
L 245.105237 278.211915 
L 246.117252 277.276365 
L 247.129268 276.548715 
L 248.141283 275.301315 
L 249.153299 274.781565 
L 250.165314 273.534165 
L 251.177329 272.494665 
L 252.189345 271.767015 
L 255.225391 268.440615 
L 256.237406 266.985315 
L 258.261437 265.633965 
L 259.273453 264.282615 
L 260.285468 263.451015 
L 261.297484 262.203615 
L 262.309499 261.268065 
L 263.321514 260.540415 
L 264.33353 259.293015 
L 265.345545 258.773265 
L 267.369576 257.421915 
L 268.381591 257.214015 
L 270.405622 256.070565 
L 271.417638 255.135015 
L 273.441669 254.927115 
L 274.453684 253.887615 
L 275.465699 253.991565 
L 276.477715 253.263915 
L 277.48973 253.159965 
L 280.525776 252.224415 
L 281.537792 251.080965 
L 282.549807 251.080965 
L 283.561823 250.353315 
L 284.573838 250.977015 
L 285.585854 249.729615 
L 286.597869 249.937515 
L 287.609884 249.937515 
L 288.6219 249.521715 
L 289.633915 248.482215 
L 290.645931 248.378265 
L 293.681977 247.234815 
L 294.693992 247.026915 
L 295.706008 246.507165 
L 296.718023 246.715065 
L 298.742054 245.571615 
L 299.754069 245.467665 
L 300.766085 245.155815 
L 301.7781 244.428165 
L 302.790116 244.636065 
L 303.802131 244.012365 
L 304.814146 244.116315 
L 305.826162 243.596565 
L 306.838177 243.284715 
L 307.850193 242.557065 
L 309.874224 241.725465 
L 310.886239 241.829415 
L 311.898254 241.413615 
L 312.91027 240.582015 
L 313.922285 239.958315 
L 314.934301 240.166215 
L 315.946316 239.438565 
L 316.958331 239.542515 
L 317.970347 238.814865 
L 318.982362 238.606965 
L 319.994378 238.710915 
L 321.006393 237.775365 
L 322.018409 237.151665 
L 323.030424 237.567465 
L 324.042439 236.943765 
L 326.06647 236.839815 
L 327.078486 235.904265 
L 328.090501 235.488465 
L 329.102516 235.280565 
L 330.114532 235.384515 
L 331.126547 234.760815 
L 332.138563 234.345015 
L 333.150578 234.552915 
L 336.186624 233.097615 
L 337.19864 232.993665 
L 338.210655 232.681815 
L 339.222671 232.162065 
L 340.234686 232.058115 
L 341.246701 232.162065 
L 343.270732 231.850215 
L 344.282748 230.914665 
L 345.294763 231.018615 
L 346.306779 230.914665 
L 347.318794 230.602815 
L 348.330809 230.706765 
L 349.342825 230.394915 
L 350.35484 229.667265 
L 351.366856 229.875165 
L 352.378871 229.355415 
L 353.390886 229.563315 
L 354.402902 228.835665 
L 356.426933 228.627765 
L 357.438948 228.004065 
L 358.450964 228.523815 
L 359.462979 228.108015 
L 360.474994 227.380365 
L 361.48701 227.588265 
L 362.499025 227.588265 
L 363.511041 227.068515 
L 365.535071 226.548765 
L 366.547087 226.340865 
L 368.571118 225.613215 
L 370.595148 225.509265 
L 371.607164 225.717165 
L 372.619179 224.781615 
L 373.631195 224.885565 
L 374.64321 224.261865 
L 375.655226 225.093465 
L 376.667241 224.677665 
L 377.679256 223.950015 
L 378.691272 223.950015 
L 379.703287 223.326315 
L 380.715303 223.014465 
L 381.727318 222.494715 
L 382.739333 222.286815 
L 383.751349 222.494715 
L 384.763364 221.767065 
L 385.77538 222.390765 
L 386.787395 221.663115 
L 387.799411 221.143365 
L 388.811426 221.559165 
L 389.823441 221.455215 
L 391.847472 220.103865 
L 392.859488 219.688065 
L 393.871503 219.792015 
L 395.895534 218.856465 
L 396.907549 219.376215 
L 397.919565 219.272265 
L 399.943596 218.128815 
L 400.955611 217.920915 
L 401.967626 218.024865 
L 402.979642 217.505115 
L 403.991657 217.609065 
L 405.003673 216.985365 
L 407.027703 216.465615 
L 408.039719 216.569565 
L 409.051734 216.361665 
L 410.06375 215.530065 
L 411.075765 215.530065 
L 413.099796 214.906365 
L 414.111811 214.282665 
L 415.123827 214.178715 
L 416.135842 214.594515 
L 417.147858 213.347115 
L 418.159873 211.579965 
L 419.171888 213.139215 
L 420.183904 213.762915 
L 421.195919 214.802415 
L 422.207935 215.322165 
L 423.21995 216.257715 
L 424.231966 216.465615 
L 425.243981 217.816965 
L 426.255996 217.816965 
L 427.268012 218.752515 
L 428.280027 220.727565 
L 429.292043 221.039415 
L 430.304058 221.559165 
L 432.328089 223.534215 
L 434.35212 224.989515 
L 435.364135 224.261865 
L 436.376151 226.548765 
L 437.388166 227.276415 
L 438.400181 227.588265 
L 439.412197 229.147515 
L 440.424212 229.667265 
L 441.436228 231.018615 
L 442.448243 231.122565 
L 444.472274 232.889715 
L 445.484289 233.097615 
L 446.496305 234.656865 
L 447.50832 234.448965 
L 448.520336 234.968715 
L 449.532351 236.424015 
L 451.556382 237.255615 
L 452.568397 238.191165 
L 453.580413 238.503015 
L 454.592428 239.334615 
L 455.604443 239.958315 
L 456.616459 240.374115 
L 457.628474 240.997815 
L 458.64049 240.789915 
L 459.652505 242.453115 
L 460.664521 241.413615 
L 461.676536 242.868915 
L 463.700567 243.596565 
L 464.712582 244.532115 
L 465.724598 244.636065 
L 467.748628 246.195315 
L 468.760644 245.571615 
L 470.784675 246.922965 
L 471.79669 246.922965 
L 472.808706 247.546665 
L 473.820721 247.338765 
L 475.844752 248.690115 
L 476.856767 248.066415 
L 477.868783 248.274315 
L 478.880798 249.001965 
L 479.892813 248.794065 
L 480.904829 249.625665 
L 481.916844 249.313815 
L 483.940875 250.873065 
L 484.952891 250.249365 
L 485.964906 251.288865 
L 486.976921 250.769115 
L 487.988937 251.080965 
L 489.000952 251.600715 
L 491.024983 251.912565 
L 495.073045 252.848115 
L 496.08506 252.224415 
L 497.097075 253.159965 
L 498.109091 252.640215 
L 498.109091 252.640215 
" clip-path="url(#pea45682898)" style="fill: none; stroke: #0000ff; stroke-opacity: 0.5; stroke-width: 1.5; stroke-linecap: square"/>
   </g>
   <g id="line2d_38">
    <path d="M 92.290909 358.357365 
L 93.302925 368.752365 
L 94.31494 367.920765 
L 95.326955 367.608915 
L 96.338971 367.608915 
L 97.350986 368.336565 
L 98.363002 368.648415 
L 99.375017 367.401015 
L 101.399048 368.024715 
L 103.423079 367.504965 
L 104.435094 366.569415 
L 105.447109 366.049665 
L 107.47114 366.049665 
L 108.483156 366.361515 
L 109.495171 367.401015 
L 110.507187 367.297065 
L 111.519202 367.712865 
L 112.531217 367.920765 
L 113.543233 367.401015 
L 114.555248 367.193115 
L 115.567264 367.193115 
L 116.579279 367.712865 
L 118.60331 367.608915 
L 119.615325 367.504965 
L 120.627341 367.089165 
L 122.651372 368.336565 
L 123.663387 367.608915 
L 124.675402 367.504965 
L 125.687418 367.089165 
L 126.699433 366.257565 
L 127.711449 365.737815 
L 128.723464 365.529915 
L 129.735479 364.906215 
L 130.747495 365.322015 
L 131.75951 365.010165 
L 132.771526 365.737815 
L 133.783541 364.386465 
L 134.795557 364.802265 
L 135.807572 363.658815 
L 136.819587 363.243015 
L 138.843618 363.554865 
L 139.855634 363.035115 
L 142.89168 362.827215 
L 143.903695 361.995615 
L 144.915711 361.579815 
L 145.927726 361.683765 
L 146.939742 359.916615 
L 147.951757 361.060065 
L 148.963772 360.228465 
L 149.975788 359.188965 
L 151.999819 358.565265 
L 153.011834 358.565265 
L 154.023849 357.629715 
L 155.035865 357.525765 
L 156.04788 357.006015 
L 158.071911 355.654665 
L 159.083927 355.446765 
L 161.107957 353.887515 
L 162.119973 353.367765 
L 163.131988 352.640115 
L 164.144004 352.536165 
L 165.156019 351.808515 
L 166.168034 351.496665 
L 170.216096 348.897915 
L 171.228112 348.586065 
L 172.240127 347.650515 
L 174.264158 346.611015 
L 175.276173 345.571515 
L 176.288189 345.155715 
L 179.324235 342.764865 
L 180.33625 342.245115 
L 181.348266 340.789815 
L 183.372297 339.126615 
L 184.384312 338.606865 
L 185.396327 336.943665 
L 186.408343 336.735765 
L 187.420358 334.864665 
L 188.432374 334.448865 
L 189.444389 333.097515 
L 190.456404 332.577765 
L 192.480435 330.602715 
L 193.492451 329.147415 
L 194.504466 328.211865 
L 197.540512 324.781515 
L 198.552528 323.949915 
L 199.564543 322.182765 
L 200.576559 321.455115 
L 202.600589 319.584015 
L 203.612605 317.816865 
L 204.62462 316.465515 
L 206.648651 314.074665 
L 209.684697 310.436415 
L 210.696713 308.669265 
L 212.720744 306.486315 
L 213.732759 305.342865 
L 214.744774 303.783615 
L 215.75679 302.432265 
L 216.768805 301.288815 
L 218.792836 298.378215 
L 219.804852 297.442665 
L 223.852913 292.349115 
L 224.864929 291.413565 
L 225.876944 290.270115 
L 226.888959 289.334565 
L 227.900975 287.775315 
L 229.925006 285.592365 
L 232.961052 283.513365 
L 233.973067 282.058065 
L 234.985083 281.226465 
L 235.997098 280.602765 
L 239.033144 277.692165 
L 241.057175 275.613165 
L 242.069191 274.053915 
L 245.105237 271.455165 
L 246.117252 270.311715 
L 249.153299 267.505065 
L 250.165314 266.153715 
L 251.177329 265.010265 
L 252.189345 263.554965 
L 253.20136 261.475965 
L 254.213376 260.228565 
L 255.225391 258.669315 
L 256.237406 257.837715 
L 257.249422 257.629815 
L 258.261437 257.941665 
L 260.285468 257.214015 
L 261.297484 256.278465 
L 262.309499 256.070565 
L 263.321514 255.654765 
L 264.33353 255.031065 
L 266.357561 254.199465 
L 267.369576 252.952065 
L 268.381591 253.159965 
L 271.417638 251.184915 
L 272.429653 251.080965 
L 273.441669 249.937515 
L 274.453684 250.041465 
L 276.477715 249.209865 
L 277.48973 249.105915 
L 278.501746 248.066415 
L 279.513761 247.442715 
L 280.525776 246.507165 
L 281.537792 245.363715 
L 282.549807 243.492615 
L 283.561823 243.388665 
L 284.573838 242.661015 
L 287.609884 241.933365 
L 288.6219 242.557065 
L 289.633915 242.453115 
L 290.645931 241.933365 
L 291.657946 241.829415 
L 292.669961 241.933365 
L 293.681977 241.621515 
L 294.693992 240.997815 
L 296.718023 240.582015 
L 297.730039 239.854365 
L 298.742054 239.542515 
L 299.754069 238.814865 
L 302.790116 238.087215 
L 303.802131 237.359565 
L 304.814146 236.943765 
L 306.838177 235.592415 
L 308.862208 233.201565 
L 309.874224 232.577865 
L 310.886239 231.434415 
L 311.898254 230.498865 
L 312.91027 230.083065 
L 313.922285 230.187015 
L 315.946316 229.459365 
L 316.958331 230.290965 
L 319.994378 230.187015 
L 321.006393 229.771215 
L 322.018409 230.083065 
L 323.030424 230.187015 
L 325.054455 229.251465 
L 326.06647 228.835665 
L 327.078486 228.731715 
L 328.090501 228.211965 
L 329.102516 227.276415 
L 330.114532 227.900115 
L 331.126547 227.588265 
L 332.138563 226.236915 
L 333.150578 226.652715 
L 334.162594 226.132965 
L 335.174609 226.029015 
L 338.210655 224.989515 
L 339.222671 225.405315 
L 340.234686 224.781615 
L 341.246701 223.950015 
L 342.258717 224.469765 
L 343.270732 224.365815 
L 344.282748 223.638165 
L 345.294763 222.182865 
L 346.306779 221.143365 
L 347.318794 220.311765 
L 348.330809 219.792015 
L 349.342825 218.544615 
L 352.378871 217.297215 
L 353.390886 217.297215 
L 354.402902 217.609065 
L 355.414917 217.505115 
L 356.426933 217.089315 
L 357.438948 217.816965 
L 358.450964 218.024865 
L 359.462979 218.440665 
L 360.474994 218.336715 
L 361.48701 217.920915 
L 362.499025 218.128815 
L 364.523056 218.024865 
L 366.547087 217.089315 
L 367.559102 216.257715 
L 368.571118 216.569565 
L 369.583133 216.465615 
L 370.595148 215.426115 
L 371.607164 215.218215 
L 372.619179 214.802415 
L 373.631195 214.802415 
L 374.64321 213.243165 
L 375.655226 212.203665 
L 376.667241 211.476015 
L 377.679256 210.124665 
L 378.691272 209.189115 
L 379.703287 208.981215 
L 380.715303 208.565415 
L 382.739333 207.421965 
L 383.751349 207.629865 
L 385.77538 207.110115 
L 386.787395 208.253565 
L 387.799411 208.045665 
L 388.811426 208.461465 
L 389.823441 209.085165 
L 390.835457 208.565415 
L 391.847472 209.189115 
L 392.859488 208.045665 
L 393.871503 208.669365 
L 394.883518 208.773315 
L 397.919565 207.941715 
L 398.93158 207.941715 
L 399.943596 207.421965 
L 400.955611 206.694315 
L 401.967626 206.590365 
L 402.979642 207.006165 
L 403.991657 207.941715 
L 405.003673 207.629865 
L 406.015688 209.500965 
L 407.027703 208.565415 
L 408.039719 209.604915 
L 409.051734 210.020715 
L 410.06375 209.916765 
L 411.075765 209.293065 
L 412.087781 210.228615 
L 413.099796 211.372065 
L 414.111811 212.307615 
L 415.123827 213.451065 
L 416.135842 213.970815 
L 417.147858 213.970815 
L 418.159873 213.762915 
L 419.171888 214.490565 
L 420.183904 216.569565 
L 421.195919 216.257715 
L 422.207935 217.089315 
L 423.21995 218.128815 
L 424.231966 219.584115 
L 425.243981 220.831515 
L 429.292043 226.964565 
L 430.304058 227.484315 
L 432.328089 229.667265 
L 433.340104 231.122565 
L 434.35212 231.954165 
L 435.364135 232.473915 
L 436.376151 233.305515 
L 437.388166 233.617365 
L 438.400181 235.072665 
L 439.412197 235.800315 
L 440.424212 237.151665 
L 441.436228 237.151665 
L 442.448243 237.359565 
L 443.460258 237.983265 
L 444.472274 239.126715 
L 445.484289 239.542515 
L 446.496305 240.789915 
L 447.50832 240.893865 
L 448.520336 241.621515 
L 449.532351 241.205715 
L 450.544366 242.245215 
L 451.556382 243.076815 
L 452.568397 242.972865 
L 453.580413 243.908415 
L 454.592428 243.596565 
L 455.604443 244.532115 
L 456.616459 244.843965 
L 457.628474 245.363715 
L 458.64049 244.843965 
L 459.652505 246.611115 
L 460.664521 245.987415 
L 461.676536 246.611115 
L 462.688551 246.715065 
L 463.700567 247.130865 
L 464.712582 247.962465 
L 465.724598 247.858515 
L 466.736613 248.586165 
L 467.748628 248.690115 
L 468.760644 248.586165 
L 469.772659 249.521715 
L 470.784675 249.521715 
L 472.808706 249.937515 
L 473.820721 250.353315 
L 474.832736 250.353315 
L 476.856767 250.873065 
L 477.868783 250.873065 
L 478.880798 251.288865 
L 479.892813 250.977015 
L 480.904829 251.184915 
L 482.92886 252.744165 
L 483.940875 252.328365 
L 485.964906 252.848115 
L 486.976921 253.471815 
L 487.988937 252.744165 
L 489.000952 253.471815 
L 490.012968 253.367865 
L 491.024983 253.887615 
L 492.036998 253.887615 
L 493.049014 253.575765 
L 494.061029 254.199465 
L 495.073045 254.511315 
L 496.08506 255.031065 
L 497.097075 254.615265 
L 498.109091 255.550815 
L 498.109091 255.550815 
" clip-path="url(#pea45682898)" style="fill: none; stroke: #0000ff; stroke-opacity: 0.5; stroke-width: 1.5; stroke-linecap: square"/>
   </g>
   <g id="line2d_39">
    <path d="M 92.290909 362.099565 
L 93.302925 366.673365 
L 94.31494 367.608915 
L 96.338971 367.712865 
L 97.350986 367.089165 
L 98.363002 367.193115 
L 99.375017 366.777315 
L 100.387032 367.297065 
L 101.399048 367.504965 
L 102.411063 367.089165 
L 103.423079 367.816815 
L 104.435094 368.024715 
L 106.459125 367.089165 
L 108.483156 365.529915 
L 110.507187 365.114115 
L 112.531217 365.841765 
L 114.555248 366.361515 
L 115.567264 366.153615 
L 116.579279 366.153615 
L 118.60331 365.322015 
L 119.615325 365.945715 
L 122.651372 365.322015 
L 124.675402 364.490415 
L 125.687418 363.658815 
L 126.699433 364.594365 
L 127.711449 364.906215 
L 128.723464 363.450915 
L 129.735479 364.074615 
L 131.75951 363.450915 
L 132.771526 363.554865 
L 133.783541 364.490415 
L 134.795557 363.450915 
L 135.807572 362.931165 
L 137.831603 362.619315 
L 138.843618 363.243015 
L 139.855634 362.307465 
L 140.867649 362.723265 
L 141.879664 362.203515 
L 142.89168 361.891665 
L 144.915711 360.436365 
L 145.927726 360.020565 
L 146.939742 359.085015 
L 147.951757 359.292915 
L 148.963772 358.357365 
L 149.975788 357.733665 
L 155.035865 355.758615 
L 156.04788 354.823065 
L 157.059896 354.511215 
L 160.095942 351.704565 
L 161.107957 350.561115 
L 162.119973 349.833465 
L 163.131988 348.793965 
L 164.144004 348.274215 
L 165.156019 347.546565 
L 166.168034 347.026815 
L 168.192065 347.442615 
L 169.204081 347.026815 
L 171.228112 345.467565 
L 172.240127 344.739915 
L 173.252142 343.596465 
L 174.264158 343.284615 
L 175.276173 342.764865 
L 176.288189 341.621415 
L 177.300204 340.893765 
L 178.312219 340.477965 
L 179.324235 339.230565 
L 180.33625 338.191065 
L 181.348266 337.567365 
L 182.360281 336.527865 
L 183.372297 335.800215 
L 186.408343 332.473815 
L 188.432374 330.498765 
L 189.444389 329.563215 
L 190.456404 328.315815 
L 191.46842 327.276315 
L 192.480435 325.717065 
L 194.504466 323.949915 
L 195.516482 322.286715 
L 196.528497 320.935365 
L 197.540512 319.895865 
L 200.576559 316.257615 
L 201.588574 314.698365 
L 202.600589 313.762815 
L 203.612605 312.619365 
L 204.62462 311.268015 
L 205.636636 309.292965 
L 208.672682 306.070515 
L 209.684697 304.511265 
L 210.696713 303.159915 
L 211.708728 302.224365 
L 212.720744 300.353265 
L 214.744774 297.442665 
L 216.768805 295.051815 
L 218.792836 292.349115 
L 219.804852 290.685915 
L 222.840898 287.567415 
L 224.864929 284.033115 
L 227.900975 279.979065 
L 228.91299 278.315865 
L 229.925006 277.172415 
L 230.937021 276.548715 
L 231.949036 275.405265 
L 232.961052 274.053915 
L 233.973067 273.846015 
L 234.985083 273.118365 
L 235.997098 273.118365 
L 237.009114 272.390715 
L 238.021129 271.455165 
L 240.04516 269.895915 
L 241.057175 268.856415 
L 242.069191 267.401115 
L 243.081206 266.777415 
L 244.093221 265.945815 
L 247.129268 262.411515 
L 249.153299 260.644365 
L 250.165314 258.877215 
L 251.177329 258.253515 
L 252.189345 256.070565 
L 253.20136 255.446865 
L 254.213376 253.887615 
L 255.225391 252.848115 
L 256.237406 252.224415 
L 257.249422 251.912565 
L 258.261437 250.977015 
L 259.273453 250.249365 
L 260.285468 250.249365 
L 261.297484 249.833565 
L 263.321514 250.353315 
L 264.33353 250.457265 
L 265.345545 249.001965 
L 266.357561 249.417765 
L 267.369576 248.794065 
L 268.381591 247.650615 
L 269.393607 247.650615 
L 272.429653 245.571615 
L 273.441669 245.363715 
L 274.453684 244.428165 
L 275.465699 243.908415 
L 276.477715 244.220265 
L 277.48973 243.700515 
L 279.513761 242.037315 
L 280.525776 240.893865 
L 281.537792 239.334615 
L 282.549807 237.983265 
L 283.561823 237.671415 
L 284.573838 236.839815 
L 285.585854 235.800315 
L 286.597869 235.488465 
L 287.609884 234.760815 
L 288.6219 234.968715 
L 290.645931 234.033165 
L 291.657946 234.033165 
L 292.669961 233.617365 
L 293.681977 234.345015 
L 294.693992 233.929215 
L 295.706008 234.552915 
L 296.718023 234.656865 
L 297.730039 234.033165 
L 298.742054 233.617365 
L 299.754069 232.993665 
L 300.766085 232.889715 
L 302.790116 231.850215 
L 303.802131 231.122565 
L 304.814146 230.914665 
L 305.826162 229.875165 
L 306.838177 229.979115 
L 307.850193 229.043565 
L 308.862208 227.484315 
L 309.874224 226.548765 
L 310.886239 226.029015 
L 311.898254 224.885565 
L 312.91027 224.157915 
L 314.934301 223.742115 
L 315.946316 223.118415 
L 316.958331 223.014465 
L 317.970347 222.182865 
L 318.982362 222.910515 
L 322.018409 222.806565 
L 323.030424 223.534215 
L 324.042439 223.326315 
L 326.06647 222.598665 
L 329.102516 222.182865 
L 330.114532 221.767065 
L 331.126547 221.871015 
L 333.150578 220.935465 
L 334.162594 220.519665 
L 335.174609 220.415715 
L 336.186624 219.688065 
L 337.19864 219.792015 
L 338.210655 219.584115 
L 339.222671 218.960415 
L 340.234686 218.752515 
L 341.246701 218.752515 
L 343.270732 218.024865 
L 344.282748 217.920915 
L 345.294763 216.569565 
L 346.306779 216.049815 
L 347.318794 214.594515 
L 348.330809 213.555015 
L 349.342825 213.139215 
L 351.366856 211.891815 
L 353.390886 211.579965 
L 354.402902 211.372065 
L 355.414917 211.476015 
L 356.426933 210.956265 
L 357.438948 210.124665 
L 358.450964 210.956265 
L 359.462979 210.332565 
L 361.48701 209.708865 
L 362.499025 210.748365 
L 363.511041 210.228615 
L 364.523056 210.540465 
L 365.535071 210.332565 
L 366.547087 210.748365 
L 367.559102 210.540465 
L 368.571118 210.124665 
L 369.583133 210.020715 
L 370.595148 209.604915 
L 371.607164 209.397015 
L 372.619179 207.733815 
L 373.631195 207.941715 
L 374.64321 207.006165 
L 375.655226 205.550865 
L 376.667241 205.550865 
L 377.679256 204.511365 
L 378.691272 203.679765 
L 379.703287 202.536315 
L 380.715303 201.808665 
L 381.727318 201.288915 
L 385.77538 199.937565 
L 386.787395 199.313865 
L 388.811426 199.833615 
L 389.823441 199.729665 
L 390.835457 199.417815 
L 391.847472 199.833615 
L 392.859488 199.625715 
L 393.871503 198.794115 
L 395.895534 202.328415 
L 397.919565 204.615315 
L 398.93158 205.446915 
L 399.943596 206.798265 
L 400.955611 207.525915 
L 401.967626 208.981215 
L 402.979642 209.604915 
L 405.003673 211.372065 
L 406.015688 212.203665 
L 407.027703 212.203665 
L 408.039719 212.619465 
L 409.051734 212.723415 
L 410.06375 213.658965 
L 411.075765 213.658965 
L 412.087781 214.490565 
L 413.099796 216.361665 
L 414.111811 217.193265 
L 415.123827 217.297215 
L 417.147858 218.648565 
L 418.159873 219.064365 
L 419.171888 219.688065 
L 421.195919 221.663115 
L 422.207935 221.559165 
L 423.21995 222.702615 
L 425.243981 223.846065 
L 426.255996 224.781615 
L 427.268012 226.132965 
L 428.280027 227.172465 
L 429.292043 227.276415 
L 430.304058 229.043565 
L 431.316073 230.498865 
L 432.328089 231.746265 
L 433.340104 232.785765 
L 434.35212 234.241065 
L 435.364135 235.488465 
L 437.388166 236.735865 
L 438.400181 236.527965 
L 439.412197 237.879315 
L 442.448243 239.334615 
L 443.460258 240.166215 
L 444.472274 240.685965 
L 445.484289 240.685965 
L 446.496305 241.725465 
L 447.50832 241.517565 
L 449.532351 242.868915 
L 450.544366 242.972865 
L 452.568397 243.700515 
L 453.580413 243.908415 
L 454.592428 243.492615 
L 455.604443 244.843965 
L 456.616459 244.947915 
L 457.628474 244.740015 
L 461.676536 246.715065 
L 462.688551 246.611115 
L 463.700567 247.026915 
L 465.724598 247.546665 
L 466.736613 248.066415 
L 468.760644 248.482215 
L 470.784675 249.209865 
L 471.79669 249.417765 
L 472.808706 249.313815 
L 474.832736 250.145415 
L 475.844752 250.353315 
L 476.856767 249.937515 
L 477.868783 250.977015 
L 478.880798 251.080965 
L 479.892813 251.600715 
L 480.904829 251.808615 
L 482.92886 251.912565 
L 484.952891 252.952065 
L 485.964906 252.432315 
L 486.976921 253.159965 
L 487.988937 253.367865 
L 489.000952 253.263915 
L 490.012968 253.471815 
L 491.024983 254.303415 
L 492.036998 253.575765 
L 493.049014 254.303415 
L 494.061029 254.303415 
L 495.073045 253.575765 
L 497.097075 255.031065 
L 498.109091 254.719215 
L 498.109091 254.719215 
" clip-path="url(#pea45682898)" style="fill: none; stroke: #0000ff; stroke-opacity: 0.5; stroke-width: 1.5; stroke-linecap: square"/>
   </g>
   <g id="line2d_40">
    <path d="M 92.290909 365.114115 
L 93.302925 368.336565 
L 94.31494 368.544465 
L 95.326955 368.440515 
L 96.338971 367.816815 
L 97.350986 367.920765 
L 99.375017 368.648415 
L 100.387032 368.544465 
L 101.399048 367.920765 
L 102.411063 368.024715 
L 103.423079 367.297065 
L 104.435094 367.608915 
L 105.447109 367.712865 
L 106.459125 366.153615 
L 109.495171 366.569415 
L 110.507187 365.737815 
L 111.519202 366.777315 
L 112.531217 367.297065 
L 113.543233 366.985215 
L 114.555248 367.193115 
L 115.567264 366.361515 
L 117.591294 366.569415 
L 119.615325 366.257565 
L 120.627341 365.633865 
L 121.639356 366.257565 
L 122.651372 365.529915 
L 123.663387 365.945715 
L 124.675402 365.425965 
L 126.699433 364.906215 
L 127.711449 365.010165 
L 128.723464 364.282515 
L 129.735479 363.866715 
L 130.747495 364.906215 
L 131.75951 364.282515 
L 132.771526 364.074615 
L 133.783541 362.931165 
L 134.795557 363.866715 
L 135.807572 363.450915 
L 137.831603 363.243015 
L 138.843618 362.203515 
L 139.855634 362.515365 
L 140.867649 362.515365 
L 141.879664 361.787715 
L 143.903695 361.475865 
L 144.915711 360.852165 
L 145.927726 360.644265 
L 146.939742 359.292915 
L 148.963772 358.981065 
L 149.975788 358.357365 
L 151.999819 357.837615 
L 154.023849 356.902065 
L 156.04788 355.550715 
L 157.059896 355.238865 
L 158.071911 354.615165 
L 159.083927 353.783565 
L 161.107957 351.808515 
L 164.144004 349.625565 
L 165.156019 349.209765 
L 167.18005 349.313715 
L 169.204081 348.170265 
L 171.228112 346.818915 
L 172.240127 346.091265 
L 173.252142 345.675465 
L 175.276173 343.700415 
L 177.300204 342.764865 
L 178.312219 341.517465 
L 179.324235 340.477965 
L 181.348266 339.126615 
L 183.372297 336.943665 
L 184.384312 336.216015 
L 185.396327 335.072565 
L 186.408343 334.448865 
L 187.420358 333.097515 
L 188.432374 332.161965 
L 189.444389 330.914565 
L 190.456404 329.875065 
L 191.46842 329.043465 
L 192.480435 327.484215 
L 193.492451 326.652615 
L 194.504466 325.405215 
L 195.516482 324.365715 
L 196.528497 322.806465 
L 197.540512 321.663015 
L 198.552528 320.831415 
L 199.564543 319.272165 
L 206.648651 310.644315 
L 207.660667 308.981115 
L 209.684697 306.798165 
L 210.696713 305.134965 
L 216.768805 297.026865 
L 217.780821 295.883415 
L 219.804852 293.076765 
L 220.816867 292.349115 
L 221.828882 290.581965 
L 222.840898 289.438515 
L 223.852913 287.775315 
L 224.864929 286.527915 
L 225.876944 284.864715 
L 226.888959 283.513365 
L 227.900975 282.577815 
L 230.937021 278.835615 
L 231.949036 278.004015 
L 232.961052 277.484265 
L 233.973067 276.756615 
L 234.985083 276.548715 
L 235.997098 275.613165 
L 237.009114 275.093415 
L 238.021129 274.261815 
L 239.033144 273.014415 
L 240.04516 272.078865 
L 241.057175 270.935415 
L 242.069191 269.999865 
L 243.081206 269.272215 
L 244.093221 267.920865 
L 246.117252 265.945815 
L 247.129268 264.490515 
L 248.141283 263.762865 
L 249.153299 262.723365 
L 251.177329 260.228565 
L 253.20136 257.006115 
L 255.225391 255.031065 
L 258.261437 253.367865 
L 259.273453 252.744165 
L 260.285468 252.432315 
L 261.297484 252.328365 
L 262.309499 252.744165 
L 263.321514 252.640215 
L 264.33353 252.016515 
L 265.345545 251.704665 
L 266.357561 251.184915 
L 267.369576 250.353315 
L 270.405622 249.105915 
L 271.417638 248.378265 
L 272.429653 247.858515 
L 273.441669 247.650615 
L 274.453684 247.234815 
L 276.477715 245.779515 
L 277.48973 245.363715 
L 278.501746 245.259765 
L 279.513761 243.700515 
L 280.525776 242.764965 
L 281.537792 241.413615 
L 282.549807 240.478065 
L 283.561823 239.854365 
L 284.573838 239.022765 
L 287.609884 237.255615 
L 288.6219 237.359565 
L 290.645931 236.631915 
L 291.657946 236.943765 
L 292.669961 236.943765 
L 293.681977 237.151665 
L 294.693992 236.943765 
L 295.706008 237.151665 
L 296.718023 236.839815 
L 297.730039 236.008215 
L 300.766085 234.760815 
L 301.7781 234.760815 
L 302.790116 234.033165 
L 303.802131 233.513415 
L 304.814146 233.201565 
L 306.838177 232.058115 
L 307.850193 230.290965 
L 308.862208 229.459365 
L 309.874224 228.419865 
L 310.886239 227.900115 
L 311.898254 226.964565 
L 312.91027 226.860615 
L 313.922285 226.444815 
L 314.934301 225.717165 
L 315.946316 226.132965 
L 316.958331 225.821115 
L 317.970347 226.132965 
L 318.982362 225.717165 
L 319.994378 226.340865 
L 321.006393 225.405315 
L 322.018409 225.613215 
L 323.030424 225.509265 
L 324.042439 225.613215 
L 325.054455 224.677665 
L 326.06647 224.573715 
L 328.090501 223.638165 
L 329.102516 223.222365 
L 331.126547 222.910515 
L 332.138563 222.702615 
L 333.150578 222.286815 
L 334.162594 222.182865 
L 335.174609 221.455215 
L 336.186624 221.455215 
L 337.19864 220.935465 
L 338.210655 220.935465 
L 340.234686 220.415715 
L 341.246701 219.584115 
L 343.270732 219.688065 
L 344.282748 218.960415 
L 346.306779 216.985365 
L 347.318794 216.049815 
L 348.330809 215.841915 
L 349.342825 215.114265 
L 350.35484 214.698465 
L 351.366856 214.698465 
L 352.378871 213.866865 
L 353.390886 213.347115 
L 354.402902 213.243165 
L 355.414917 212.827365 
L 356.426933 212.619465 
L 357.438948 212.827365 
L 358.450964 212.619465 
L 359.462979 213.658965 
L 360.474994 213.555015 
L 361.48701 213.035265 
L 362.499025 213.658965 
L 363.511041 213.139215 
L 364.523056 213.243165 
L 365.535071 212.515515 
L 367.559102 211.787865 
L 368.571118 211.787865 
L 369.583133 211.268115 
L 370.595148 210.956265 
L 371.607164 210.228615 
L 374.64321 208.773315 
L 375.655226 207.733815 
L 376.667241 207.110115 
L 377.679256 205.654815 
L 378.691272 204.719265 
L 379.703287 204.615315 
L 380.715303 203.575815 
L 382.739333 202.848165 
L 383.751349 202.744215 
L 384.763364 202.328415 
L 385.77538 202.640265 
L 386.787395 201.912615 
L 387.799411 202.224465 
L 388.811426 202.328415 
L 389.823441 202.016565 
L 390.835457 202.432365 
L 391.847472 204.407415 
L 393.871503 206.798265 
L 394.883518 207.733815 
L 395.895534 209.293065 
L 396.907549 209.916765 
L 397.919565 210.956265 
L 398.93158 212.203665 
L 399.943596 213.139215 
L 400.955611 214.282665 
L 401.967626 214.906365 
L 403.991657 216.881415 
L 405.003673 217.193265 
L 406.015688 218.128815 
L 407.027703 217.920915 
L 408.039719 218.440665 
L 409.051734 219.376215 
L 410.06375 219.272265 
L 412.087781 221.351265 
L 413.099796 222.182865 
L 414.111811 222.494715 
L 415.123827 223.222365 
L 416.135842 223.326315 
L 418.159873 225.301365 
L 419.171888 226.029015 
L 420.183904 226.444815 
L 422.207935 226.548765 
L 423.21995 228.315915 
L 424.231966 229.043565 
L 425.243981 230.290965 
L 426.255996 230.810715 
L 427.268012 231.954165 
L 428.280027 233.305515 
L 429.292043 234.241065 
L 430.304058 236.112165 
L 431.316073 236.320065 
L 432.328089 237.983265 
L 433.340104 238.399065 
L 434.35212 239.334615 
L 435.364135 239.334615 
L 436.376151 240.685965 
L 437.388166 241.205715 
L 440.424212 241.413615 
L 441.436228 242.661015 
L 442.448243 242.972865 
L 443.460258 243.596565 
L 444.472274 243.700515 
L 445.484289 244.324215 
L 446.496305 244.532115 
L 447.50832 244.532115 
L 448.520336 245.259765 
L 449.532351 244.740015 
L 450.544366 245.883465 
L 451.556382 246.195315 
L 452.568397 245.883465 
L 454.592428 246.611115 
L 455.604443 246.922965 
L 456.616459 247.026915 
L 457.628474 247.754565 
L 458.64049 247.858515 
L 459.652505 248.586165 
L 460.664521 248.690115 
L 461.676536 247.962465 
L 462.688551 248.690115 
L 464.712582 249.625665 
L 465.724598 249.729615 
L 466.736613 250.249365 
L 467.748628 249.833565 
L 468.760644 250.457265 
L 469.772659 250.665165 
L 470.784675 250.561215 
L 471.79669 251.392815 
L 472.808706 252.016515 
L 473.820721 251.808615 
L 474.832736 252.016515 
L 475.844752 252.536265 
L 476.856767 252.640215 
L 477.868783 252.016515 
L 478.880798 252.952065 
L 479.892813 253.471815 
L 480.904829 253.679715 
L 481.916844 253.367865 
L 483.940875 254.407365 
L 484.952891 254.511315 
L 486.976921 255.031065 
L 487.988937 254.823165 
L 489.000952 254.407365 
L 490.012968 255.966615 
L 491.024983 255.550815 
L 492.036998 255.550815 
L 493.049014 255.862665 
L 494.061029 255.862665 
L 495.073045 256.486365 
L 496.08506 256.902165 
L 497.097075 257.110065 
L 498.109091 257.525865 
L 498.109091 257.525865 
" clip-path="url(#pea45682898)" style="fill: none; stroke: #0000ff; stroke-opacity: 0.5; stroke-width: 1.5; stroke-linecap: square"/>
   </g>
   <g id="LineCollection_1">
    <path d="M 92.290909 364.261258 
L 92.290909 357.547022 
" clip-path="url(#pea45682898)" style="fill: none; stroke: #ff0000; stroke-width: 1.5"/>
    <path d="M 132.771526 367.217229 
L 132.771526 363.374826 
" clip-path="url(#pea45682898)" style="fill: none; stroke: #ff0000; stroke-width: 1.5"/>
    <path d="M 173.252142 348.637252 
L 173.252142 344.065028 
" clip-path="url(#pea45682898)" style="fill: none; stroke: #ff0000; stroke-width: 1.5"/>
    <path d="M 213.732759 308.751374 
L 213.732759 298.919806 
" clip-path="url(#pea45682898)" style="fill: none; stroke: #ff0000; stroke-width: 1.5"/>
    <path d="M 254.213376 266.813545 
L 254.213376 253.019885 
" clip-path="url(#pea45682898)" style="fill: none; stroke: #ff0000; stroke-width: 1.5"/>
    <path d="M 294.693992 245.389067 
L 294.693992 234.059788 
" clip-path="url(#pea45682898)" style="fill: none; stroke: #ff0000; stroke-width: 1.5"/>
    <path d="M 335.174609 231.388306 
L 335.174609 219.370349 
" clip-path="url(#pea45682898)" style="fill: none; stroke: #ff0000; stroke-width: 1.5"/>
    <path d="M 375.655226 221.393891 
L 375.655226 203.897014 
" clip-path="url(#pea45682898)" style="fill: none; stroke: #ff0000; stroke-width: 1.5"/>
    <path d="M 416.135842 221.765411 
L 416.135842 213.192844 
" clip-path="url(#pea45682898)" style="fill: none; stroke: #ff0000; stroke-width: 1.5"/>
    <path d="M 456.616459 247.100864 
L 456.616459 241.495591 
" clip-path="url(#pea45682898)" style="fill: none; stroke: #ff0000; stroke-width: 1.5"/>
    <path d="M 497.097075 256.610586 
L 497.097075 253.347594 
" clip-path="url(#pea45682898)" style="fill: none; stroke: #ff0000; stroke-width: 1.5"/>
   </g>
   <g id="line2d_41">
    <defs>
     <path id="md21a9a019e" d="M 5 0 
L -5 -0 
" style="stroke: #ff0000"/>
    </defs>
    <g clip-path="url(#pea45682898)">
     <use xlink:href="#md21a9a019e" x="92.290909" y="364.261258" style="fill: #ff0000; stroke: #ff0000"/>
     <use xlink:href="#md21a9a019e" x="132.771526" y="367.217229" style="fill: #ff0000; stroke: #ff0000"/>
     <use xlink:href="#md21a9a019e" x="173.252142" y="348.637252" style="fill: #ff0000; stroke: #ff0000"/>
     <use xlink:href="#md21a9a019e" x="213.732759" y="308.751374" style="fill: #ff0000; stroke: #ff0000"/>
     <use xlink:href="#md21a9a019e" x="254.213376" y="266.813545" style="fill: #ff0000; stroke: #ff0000"/>
     <use xlink:href="#md21a9a019e" x="294.693992" y="245.389067" style="fill: #ff0000; stroke: #ff0000"/>
     <use xlink:href="#md21a9a019e" x="335.174609" y="231.388306" style="fill: #ff0000; stroke: #ff0000"/>
     <use xlink:href="#md21a9a019e" x="375.655226" y="221.393891" style="fill: #ff0000; stroke: #ff0000"/>
     <use xlink:href="#md21a9a019e" x="416.135842" y="221.765411" style="fill: #ff0000; stroke: #ff0000"/>
     <use xlink:href="#md21a9a019e" x="456.616459" y="247.100864" style="fill: #ff0000; stroke: #ff0000"/>
     <use xlink:href="#md21a9a019e" x="497.097075" y="256.610586" style="fill: #ff0000; stroke: #ff0000"/>
    </g>
   </g>
   <g id="line2d_42">
    <g clip-path="url(#pea45682898)">
     <use xlink:href="#md21a9a019e" x="92.290909" y="357.547022" style="fill: #ff0000; stroke: #ff0000"/>
     <use xlink:href="#md21a9a019e" x="132.771526" y="363.374826" style="fill: #ff0000; stroke: #ff0000"/>
     <use xlink:href="#md21a9a019e" x="173.252142" y="344.065028" style="fill: #ff0000; stroke: #ff0000"/>
     <use xlink:href="#md21a9a019e" x="213.732759" y="298.919806" style="fill: #ff0000; stroke: #ff0000"/>
     <use xlink:href="#md21a9a019e" x="254.213376" y="253.019885" style="fill: #ff0000; stroke: #ff0000"/>
     <use xlink:href="#md21a9a019e" x="294.693992" y="234.059788" style="fill: #ff0000; stroke: #ff0000"/>
     <use xlink:href="#md21a9a019e" x="335.174609" y="219.370349" style="fill: #ff0000; stroke: #ff0000"/>
     <use xlink:href="#md21a9a019e" x="375.655226" y="203.897014" style="fill: #ff0000; stroke: #ff0000"/>
     <use xlink:href="#md21a9a019e" x="416.135842" y="213.192844" style="fill: #ff0000; stroke: #ff0000"/>
     <use xlink:href="#md21a9a019e" x="456.616459" y="241.495591" style="fill: #ff0000; stroke: #ff0000"/>
     <use xlink:href="#md21a9a019e" x="497.097075" y="253.347594" style="fill: #ff0000; stroke: #ff0000"/>
    </g>
   </g>
   <g id="line2d_43">
    <path d="M 92.290909 360.90414 
L 132.771526 365.296027 
L 173.252142 346.35114 
L 213.732759 303.83559 
L 254.213376 259.916715 
L 294.693992 239.724427 
L 335.174609 225.379327 
L 375.655226 212.645452 
L 416.135842 217.479127 
L 456.616459 244.298227 
L 497.097075 254.97909 
" clip-path="url(#pea45682898)" style="fill: none; stroke: #ff0000; stroke-width: 1.5; stroke-linecap: square"/>
   </g>
   <g id="patch_3">
    <path d="M 72 384.48 
L 72 51.84 
" style="fill: none; stroke: #000000; stroke-width: 0.8; stroke-linejoin: miter; stroke-linecap: square"/>
   </g>
   <g id="patch_4">
    <path d="M 518.4 384.48 
L 518.4 51.84 
" style="fill: none; stroke: #000000; stroke-width: 0.8; stroke-linejoin: miter; stroke-linecap: square"/>
   </g>
   <g id="patch_5">
    <path d="M 72 384.48 
L 518.4 384.48 
" style="fill: none; stroke: #000000; stroke-width: 0.8; stroke-linejoin: miter; stroke-linecap: square"/>
   </g>
   <g id="patch_6">
    <path d="M 72 51.84 
L 518.4 51.84 
" style="fill: none; stroke: #000000; stroke-width: 0.8; stroke-linejoin: miter; stroke-linecap: square"/>
   </g>
   <g id="text_21">
    <!-- M29: Isoleucin; Threonin; Tryptophan; Phenylalanin; Methionin; Histidin; Arginin -->
    <g transform="translate(96.171094 45.84) scale(0.1 -0.1)">
     <defs>
      <path id="DejaVuSans-4d" d="M 628 4666 
L 1569 4666 
L 2759 1491 
L 3956 4666 
L 4897 4666 
L 4897 0 
L 4281 0 
L 4281 4097 
L 3078 897 
L 2444 897 
L 1241 4097 
L 1241 0 
L 628 0 
L 628 4666 
z
" transform="scale(0.015625)"/>
      <path id="DejaVuSans-39" d="M 703 97 
L 703 672 
Q 941 559 1184 500 
Q 1428 441 1663 441 
Q 2288 441 2617 861 
Q 2947 1281 2994 2138 
Q 2813 1869 2534 1725 
Q 2256 1581 1919 1581 
Q 1219 1581 811 2004 
Q 403 2428 403 3163 
Q 403 3881 828 4315 
Q 1253 4750 1959 4750 
Q 2769 4750 3195 4129 
Q 3622 3509 3622 2328 
Q 3622 1225 3098 567 
Q 2575 -91 1691 -91 
Q 1453 -91 1209 -44 
Q 966 3 703 97 
z
M 1959 2075 
Q 2384 2075 2632 2365 
Q 2881 2656 2881 3163 
Q 2881 3666 2632 3958 
Q 2384 4250 1959 4250 
Q 1534 4250 1286 3958 
Q 1038 3666 1038 3163 
Q 1038 2656 1286 2365 
Q 1534 2075 1959 2075 
z
" transform="scale(0.015625)"/>
      <path id="DejaVuSans-3a" d="M 750 794 
L 1409 794 
L 1409 0 
L 750 0 
L 750 794 
z
M 750 3309 
L 1409 3309 
L 1409 2516 
L 750 2516 
L 750 3309 
z
" transform="scale(0.015625)"/>
      <path id="DejaVuSans-49" d="M 628 4666 
L 1259 4666 
L 1259 0 
L 628 0 
L 628 4666 
z
" transform="scale(0.015625)"/>
      <path id="DejaVuSans-3b" d="M 750 3309 
L 1409 3309 
L 1409 2516 
L 750 2516 
L 750 3309 
z
M 750 794 
L 1409 794 
L 1409 256 
L 897 -744 
L 494 -744 
L 750 256 
L 750 794 
z
" transform="scale(0.015625)"/>
      <path id="DejaVuSans-54" d="M -19 4666 
L 3928 4666 
L 3928 4134 
L 2272 4134 
L 2272 0 
L 1638 0 
L 1638 4134 
L -19 4134 
L -19 4666 
z
" transform="scale(0.015625)"/>
      <path id="DejaVuSans-79" d="M 2059 -325 
Q 1816 -950 1584 -1140 
Q 1353 -1331 966 -1331 
L 506 -1331 
L 506 -850 
L 844 -850 
Q 1081 -850 1212 -737 
Q 1344 -625 1503 -206 
L 1606 56 
L 191 3500 
L 800 3500 
L 1894 763 
L 2988 3500 
L 3597 3500 
L 2059 -325 
z
" transform="scale(0.015625)"/>
      <path id="DejaVuSans-70" d="M 1159 525 
L 1159 -1331 
L 581 -1331 
L 581 3500 
L 1159 3500 
L 1159 2969 
Q 1341 3281 1617 3432 
Q 1894 3584 2278 3584 
Q 2916 3584 3314 3078 
Q 3713 2572 3713 1747 
Q 3713 922 3314 415 
Q 2916 -91 2278 -91 
Q 1894 -91 1617 61 
Q 1341 213 1159 525 
z
M 3116 1747 
Q 3116 2381 2855 2742 
Q 2594 3103 2138 3103 
Q 1681 3103 1420 2742 
Q 1159 2381 1159 1747 
Q 1159 1113 1420 752 
Q 1681 391 2138 391 
Q 2594 391 2855 752 
Q 3116 1113 3116 1747 
z
" transform="scale(0.015625)"/>
      <path id="DejaVuSans-50" d="M 1259 4147 
L 1259 2394 
L 2053 2394 
Q 2494 2394 2734 2622 
Q 2975 2850 2975 3272 
Q 2975 3691 2734 3919 
Q 2494 4147 2053 4147 
L 1259 4147 
z
M 628 4666 
L 2053 4666 
Q 2838 4666 3239 4311 
Q 3641 3956 3641 3272 
Q 3641 2581 3239 2228 
Q 2838 1875 2053 1875 
L 1259 1875 
L 1259 0 
L 628 0 
L 628 4666 
z
" transform="scale(0.015625)"/>
      <path id="DejaVuSans-48" d="M 628 4666 
L 1259 4666 
L 1259 2753 
L 3553 2753 
L 3553 4666 
L 4184 4666 
L 4184 0 
L 3553 0 
L 3553 2222 
L 1259 2222 
L 1259 0 
L 628 0 
L 628 4666 
z
" transform="scale(0.015625)"/>
      <path id="DejaVuSans-41" d="M 2188 4044 
L 1331 1722 
L 3047 1722 
L 2188 4044 
z
M 1831 4666 
L 2547 4666 
L 4325 0 
L 3669 0 
L 3244 1197 
L 1141 1197 
L 716 0 
L 50 0 
L 1831 4666 
z
" transform="scale(0.015625)"/>
      <path id="DejaVuSans-67" d="M 2906 1791 
Q 2906 2416 2648 2759 
Q 2391 3103 1925 3103 
Q 1463 3103 1205 2759 
Q 947 2416 947 1791 
Q 947 1169 1205 825 
Q 1463 481 1925 481 
Q 2391 481 2648 825 
Q 2906 1169 2906 1791 
z
M 3481 434 
Q 3481 -459 3084 -895 
Q 2688 -1331 1869 -1331 
Q 1566 -1331 1297 -1286 
Q 1028 -1241 775 -1147 
L 775 -588 
Q 1028 -725 1275 -790 
Q 1522 -856 1778 -856 
Q 2344 -856 2625 -561 
Q 2906 -266 2906 331 
L 2906 616 
Q 2728 306 2450 153 
Q 2172 0 1784 0 
Q 1141 0 747 490 
Q 353 981 353 1791 
Q 353 2603 747 3093 
Q 1141 3584 1784 3584 
Q 2172 3584 2450 3431 
Q 2728 3278 2906 2969 
L 2906 3500 
L 3481 3500 
L 3481 434 
z
" transform="scale(0.015625)"/>
     </defs>
     <use xlink:href="#DejaVuSans-4d"/>
     <use xlink:href="#DejaVuSans-32" x="86.279297"/>
     <use xlink:href="#DejaVuSans-39" x="149.902344"/>
     <use xlink:href="#DejaVuSans-3a" x="213.525391"/>
     <use xlink:href="#DejaVuSans-20" x="247.216797"/>
     <use xlink:href="#DejaVuSans-49" x="279.003906"/>
     <use xlink:href="#DejaVuSans-73" x="308.496094"/>
     <use xlink:href="#DejaVuSans-6f" x="360.595703"/>
     <use xlink:href="#DejaVuSans-6c" x="421.777344"/>
     <use xlink:href="#DejaVuSans-65" x="449.560547"/>
     <use xlink:href="#DejaVuSans-75" x="511.083984"/>
     <use xlink:href="#DejaVuSans-63" x="574.462891"/>
     <use xlink:href="#DejaVuSans-69" x="629.443359"/>
     <use xlink:href="#DejaVuSans-6e" x="657.226562"/>
     <use xlink:href="#DejaVuSans-3b" x="720.605469"/>
     <use xlink:href="#DejaVuSans-20" x="754.296875"/>
     <use xlink:href="#DejaVuSans-54" x="786.083984"/>
     <use xlink:href="#DejaVuSans-68" x="847.167969"/>
     <use xlink:href="#DejaVuSans-72" x="910.546875"/>
     <use xlink:href="#DejaVuSans-65" x="949.410156"/>
     <use xlink:href="#DejaVuSans-6f" x="1010.933594"/>
     <use xlink:href="#DejaVuSans-6e" x="1072.115234"/>
     <use xlink:href="#DejaVuSans-69" x="1135.494141"/>
     <use xlink:href="#DejaVuSans-6e" x="1163.277344"/>
     <use xlink:href="#DejaVuSans-3b" x="1226.65625"/>
     <use xlink:href="#DejaVuSans-20" x="1260.347656"/>
     <use xlink:href="#DejaVuSans-54" x="1292.134766"/>
     <use xlink:href="#DejaVuSans-72" x="1338.46875"/>
     <use xlink:href="#DejaVuSans-79" x="1379.582031"/>
     <use xlink:href="#DejaVuSans-70" x="1438.761719"/>
     <use xlink:href="#DejaVuSans-74" x="1502.238281"/>
     <use xlink:href="#DejaVuSans-6f" x="1541.447266"/>
     <use xlink:href="#DejaVuSans-70" x="1602.628906"/>
     <use xlink:href="#DejaVuSans-68" x="1666.105469"/>
     <use xlink:href="#DejaVuSans-61" x="1729.484375"/>
     <use xlink:href="#DejaVuSans-6e" x="1790.763672"/>
     <use xlink:href="#DejaVuSans-3b" x="1854.142578"/>
     <use xlink:href="#DejaVuSans-20" x="1887.833984"/>
     <use xlink:href="#DejaVuSans-50" x="1919.621094"/>
     <use xlink:href="#DejaVuSans-68" x="1979.923828"/>
     <use xlink:href="#DejaVuSans-65" x="2043.302734"/>
     <use xlink:href="#DejaVuSans-6e" x="2104.826172"/>
     <use xlink:href="#DejaVuSans-79" x="2168.205078"/>
     <use xlink:href="#DejaVuSans-6c" x="2227.384766"/>
     <use xlink:href="#DejaVuSans-61" x="2255.167969"/>
     <use xlink:href="#DejaVuSans-6c" x="2316.447266"/>
     <use xlink:href="#DejaVuSans-61" x="2344.230469"/>
     <use xlink:href="#DejaVuSans-6e" x="2405.509766"/>
     <use xlink:href="#DejaVuSans-69" x="2468.888672"/>
     <use xlink:href="#DejaVuSans-6e" x="2496.671875"/>
     <use xlink:href="#DejaVuSans-3b" x="2560.050781"/>
     <use xlink:href="#DejaVuSans-20" x="2593.742188"/>
     <use xlink:href="#DejaVuSans-4d" x="2625.529297"/>
     <use xlink:href="#DejaVuSans-65" x="2711.808594"/>
     <use xlink:href="#DejaVuSans-74" x="2773.332031"/>
     <use xlink:href="#DejaVuSans-68" x="2812.541016"/>
     <use xlink:href="#DejaVuSans-69" x="2875.919922"/>
     <use xlink:href="#DejaVuSans-6f" x="2903.703125"/>
     <use xlink:href="#DejaVuSans-6e" x="2964.884766"/>
     <use xlink:href="#DejaVuSans-69" x="3028.263672"/>
     <use xlink:href="#DejaVuSans-6e" x="3056.046875"/>
     <use xlink:href="#DejaVuSans-3b" x="3119.425781"/>
     <use xlink:href="#DejaVuSans-20" x="3153.117188"/>
     <use xlink:href="#DejaVuSans-48" x="3184.904297"/>
     <use xlink:href="#DejaVuSans-69" x="3260.099609"/>
     <use xlink:href="#DejaVuSans-73" x="3287.882812"/>
     <use xlink:href="#DejaVuSans-74" x="3339.982422"/>
     <use xlink:href="#DejaVuSans-69" x="3379.191406"/>
     <use xlink:href="#DejaVuSans-64" x="3406.974609"/>
     <use xlink:href="#DejaVuSans-69" x="3470.451172"/>
     <use xlink:href="#DejaVuSans-6e" x="3498.234375"/>
     <use xlink:href="#DejaVuSans-3b" x="3561.613281"/>
     <use xlink:href="#DejaVuSans-20" x="3595.304688"/>
     <use xlink:href="#DejaVuSans-41" x="3627.091797"/>
     <use xlink:href="#DejaVuSans-72" x="3695.5"/>
     <use xlink:href="#DejaVuSans-67" x="3734.863281"/>
     <use xlink:href="#DejaVuSans-69" x="3798.339844"/>
     <use xlink:href="#DejaVuSans-6e" x="3826.123047"/>
     <use xlink:href="#DejaVuSans-69" x="3889.501953"/>
     <use xlink:href="#DejaVuSans-6e" x="3917.285156"/>
    </g>
   </g>
  </g>
 </g>
 <defs>
  <clipPath id="pea45682898">
   <rect x="72" y="51.84" width="446.4" height="332.64"/>
  </clipPath>
 </defs>
</svg>
