<?xml version="1.0" encoding="utf-8" standalone="no"?>
<!DOCTYPE svg PUBLIC "-//W3C//DTD SVG 1.1//EN"
  "http://www.w3.org/Graphics/SVG/1.1/DTD/svg11.dtd">
<svg xmlns:xlink="http://www.w3.org/1999/xlink" width="576pt" height="432pt" viewBox="0 0 576 432" xmlns="http://www.w3.org/2000/svg" version="1.1">
 <metadata>
  <rdf:RDF xmlns:dc="http://purl.org/dc/elements/1.1/" xmlns:cc="http://creativecommons.org/ns#" xmlns:rdf="http://www.w3.org/1999/02/22-rdf-syntax-ns#">
   <cc:Work>
    <dc:type rdf:resource="http://purl.org/dc/dcmitype/StillImage"/>
    <dc:date>2024-11-12T14:09:17.182063</dc:date>
    <dc:format>image/svg+xml</dc:format>
    <dc:creator>
     <cc:Agent>
      <dc:title>Matplotlib v3.7.5, https://matplotlib.org/</dc:title>
     </cc:Agent>
    </dc:creator>
   </cc:Work>
  </rdf:RDF>
 </metadata>
 <defs>
  <style type="text/css">*{stroke-linejoin: round; stroke-linecap: butt}</style>
 </defs>
 <g id="figure_1">
  <g id="patch_1">
   <path d="M 0 432 
L 576 432 
L 576 0 
L 0 0 
z
" style="fill: #ffffff"/>
  </g>
  <g id="axes_1">
   <g id="patch_2">
    <path d="M 72 384.48 
L 518.4 384.48 
L 518.4 51.84 
L 72 51.84 
z
" style="fill: #ffffff"/>
   </g>
   <g id="matplotlib.axis_1">
    <g id="xtick_1">
     <g id="line2d_1">
      <path d="M 92.290909 384.48 
L 92.290909 51.84 
" clip-path="url(#p1aeedb06ae)" style="fill: none; stroke: #b0b0b0; stroke-width: 0.8; stroke-linecap: square"/>
     </g>
     <g id="line2d_2">
      <defs>
       <path id="m1487373f7a" d="M 0 0 
L 0 3.5 
" style="stroke: #000000; stroke-width: 0.8"/>
      </defs>
      <g>
       <use xlink:href="#m1487373f7a" x="92.290909" y="384.48" style="stroke: #000000; stroke-width: 0.8"/>
      </g>
     </g>
     <g id="text_1">
      <!-- 0.17 -->
      <g transform="translate(81.158097 399.078438) scale(0.1 -0.1)">
       <defs>
        <path id="DejaVuSans-30" d="M 2034 4250 
Q 1547 4250 1301 3770 
Q 1056 3291 1056 2328 
Q 1056 1369 1301 889 
Q 1547 409 2034 409 
Q 2525 409 2770 889 
Q 3016 1369 3016 2328 
Q 3016 3291 2770 3770 
Q 2525 4250 2034 4250 
z
M 2034 4750 
Q 2819 4750 3233 4129 
Q 3647 3509 3647 2328 
Q 3647 1150 3233 529 
Q 2819 -91 2034 -91 
Q 1250 -91 836 529 
Q 422 1150 422 2328 
Q 422 3509 836 4129 
Q 1250 4750 2034 4750 
z
" transform="scale(0.015625)"/>
        <path id="DejaVuSans-2e" d="M 684 794 
L 1344 794 
L 1344 0 
L 684 0 
L 684 794 
z
" transform="scale(0.015625)"/>
        <path id="DejaVuSans-31" d="M 794 531 
L 1825 531 
L 1825 4091 
L 703 3866 
L 703 4441 
L 1819 4666 
L 2450 4666 
L 2450 531 
L 3481 531 
L 3481 0 
L 794 0 
L 794 531 
z
" transform="scale(0.015625)"/>
        <path id="DejaVuSans-37" d="M 525 4666 
L 3525 4666 
L 3525 4397 
L 1831 0 
L 1172 0 
L 2766 4134 
L 525 4134 
L 525 4666 
z
" transform="scale(0.015625)"/>
       </defs>
       <use xlink:href="#DejaVuSans-30"/>
       <use xlink:href="#DejaVuSans-2e" x="63.623047"/>
       <use xlink:href="#DejaVuSans-31" x="95.410156"/>
       <use xlink:href="#DejaVuSans-37" x="159.033203"/>
      </g>
     </g>
    </g>
    <g id="xtick_2">
     <g id="line2d_3">
      <path d="M 132.771526 384.48 
L 132.771526 51.84 
" clip-path="url(#p1aeedb06ae)" style="fill: none; stroke: #b0b0b0; stroke-width: 0.8; stroke-linecap: square"/>
     </g>
     <g id="line2d_4">
      <g>
       <use xlink:href="#m1487373f7a" x="132.771526" y="384.48" style="stroke: #000000; stroke-width: 0.8"/>
      </g>
     </g>
     <g id="text_2">
      <!-- 6.83 -->
      <g transform="translate(121.638713 399.078438) scale(0.1 -0.1)">
       <defs>
        <path id="DejaVuSans-36" d="M 2113 2584 
Q 1688 2584 1439 2293 
Q 1191 2003 1191 1497 
Q 1191 994 1439 701 
Q 1688 409 2113 409 
Q 2538 409 2786 701 
Q 3034 994 3034 1497 
Q 3034 2003 2786 2293 
Q 2538 2584 2113 2584 
z
M 3366 4563 
L 3366 3988 
Q 3128 4100 2886 4159 
Q 2644 4219 2406 4219 
Q 1781 4219 1451 3797 
Q 1122 3375 1075 2522 
Q 1259 2794 1537 2939 
Q 1816 3084 2150 3084 
Q 2853 3084 3261 2657 
Q 3669 2231 3669 1497 
Q 3669 778 3244 343 
Q 2819 -91 2113 -91 
Q 1303 -91 875 529 
Q 447 1150 447 2328 
Q 447 3434 972 4092 
Q 1497 4750 2381 4750 
Q 2619 4750 2861 4703 
Q 3103 4656 3366 4563 
z
" transform="scale(0.015625)"/>
        <path id="DejaVuSans-38" d="M 2034 2216 
Q 1584 2216 1326 1975 
Q 1069 1734 1069 1313 
Q 1069 891 1326 650 
Q 1584 409 2034 409 
Q 2484 409 2743 651 
Q 3003 894 3003 1313 
Q 3003 1734 2745 1975 
Q 2488 2216 2034 2216 
z
M 1403 2484 
Q 997 2584 770 2862 
Q 544 3141 544 3541 
Q 544 4100 942 4425 
Q 1341 4750 2034 4750 
Q 2731 4750 3128 4425 
Q 3525 4100 3525 3541 
Q 3525 3141 3298 2862 
Q 3072 2584 2669 2484 
Q 3125 2378 3379 2068 
Q 3634 1759 3634 1313 
Q 3634 634 3220 271 
Q 2806 -91 2034 -91 
Q 1263 -91 848 271 
Q 434 634 434 1313 
Q 434 1759 690 2068 
Q 947 2378 1403 2484 
z
M 1172 3481 
Q 1172 3119 1398 2916 
Q 1625 2713 2034 2713 
Q 2441 2713 2670 2916 
Q 2900 3119 2900 3481 
Q 2900 3844 2670 4047 
Q 2441 4250 2034 4250 
Q 1625 4250 1398 4047 
Q 1172 3844 1172 3481 
z
" transform="scale(0.015625)"/>
        <path id="DejaVuSans-33" d="M 2597 2516 
Q 3050 2419 3304 2112 
Q 3559 1806 3559 1356 
Q 3559 666 3084 287 
Q 2609 -91 1734 -91 
Q 1441 -91 1130 -33 
Q 819 25 488 141 
L 488 750 
Q 750 597 1062 519 
Q 1375 441 1716 441 
Q 2309 441 2620 675 
Q 2931 909 2931 1356 
Q 2931 1769 2642 2001 
Q 2353 2234 1838 2234 
L 1294 2234 
L 1294 2753 
L 1863 2753 
Q 2328 2753 2575 2939 
Q 2822 3125 2822 3475 
Q 2822 3834 2567 4026 
Q 2313 4219 1838 4219 
Q 1578 4219 1281 4162 
Q 984 4106 628 3988 
L 628 4550 
Q 988 4650 1302 4700 
Q 1616 4750 1894 4750 
Q 2613 4750 3031 4423 
Q 3450 4097 3450 3541 
Q 3450 3153 3228 2886 
Q 3006 2619 2597 2516 
z
" transform="scale(0.015625)"/>
       </defs>
       <use xlink:href="#DejaVuSans-36"/>
       <use xlink:href="#DejaVuSans-2e" x="63.623047"/>
       <use xlink:href="#DejaVuSans-38" x="95.410156"/>
       <use xlink:href="#DejaVuSans-33" x="159.033203"/>
      </g>
     </g>
    </g>
    <g id="xtick_3">
     <g id="line2d_5">
      <path d="M 173.252142 384.48 
L 173.252142 51.84 
" clip-path="url(#p1aeedb06ae)" style="fill: none; stroke: #b0b0b0; stroke-width: 0.8; stroke-linecap: square"/>
     </g>
     <g id="line2d_6">
      <g>
       <use xlink:href="#m1487373f7a" x="173.252142" y="384.48" style="stroke: #000000; stroke-width: 0.8"/>
      </g>
     </g>
     <g id="text_3">
      <!-- 13.5 -->
      <g transform="translate(162.11933 399.078438) scale(0.1 -0.1)">
       <defs>
        <path id="DejaVuSans-35" d="M 691 4666 
L 3169 4666 
L 3169 4134 
L 1269 4134 
L 1269 2991 
Q 1406 3038 1543 3061 
Q 1681 3084 1819 3084 
Q 2600 3084 3056 2656 
Q 3513 2228 3513 1497 
Q 3513 744 3044 326 
Q 2575 -91 1722 -91 
Q 1428 -91 1123 -41 
Q 819 9 494 109 
L 494 744 
Q 775 591 1075 516 
Q 1375 441 1709 441 
Q 2250 441 2565 725 
Q 2881 1009 2881 1497 
Q 2881 1984 2565 2268 
Q 2250 2553 1709 2553 
Q 1456 2553 1204 2497 
Q 953 2441 691 2322 
L 691 4666 
z
" transform="scale(0.015625)"/>
       </defs>
       <use xlink:href="#DejaVuSans-31"/>
       <use xlink:href="#DejaVuSans-33" x="63.623047"/>
       <use xlink:href="#DejaVuSans-2e" x="127.246094"/>
       <use xlink:href="#DejaVuSans-35" x="159.033203"/>
      </g>
     </g>
    </g>
    <g id="xtick_4">
     <g id="line2d_7">
      <path d="M 213.732759 384.48 
L 213.732759 51.84 
" clip-path="url(#p1aeedb06ae)" style="fill: none; stroke: #b0b0b0; stroke-width: 0.8; stroke-linecap: square"/>
     </g>
     <g id="line2d_8">
      <g>
       <use xlink:href="#m1487373f7a" x="213.732759" y="384.48" style="stroke: #000000; stroke-width: 0.8"/>
      </g>
     </g>
     <g id="text_4">
      <!-- 20.17 -->
      <g transform="translate(199.418697 399.078438) scale(0.1 -0.1)">
       <defs>
        <path id="DejaVuSans-32" d="M 1228 531 
L 3431 531 
L 3431 0 
L 469 0 
L 469 531 
Q 828 903 1448 1529 
Q 2069 2156 2228 2338 
Q 2531 2678 2651 2914 
Q 2772 3150 2772 3378 
Q 2772 3750 2511 3984 
Q 2250 4219 1831 4219 
Q 1534 4219 1204 4116 
Q 875 4013 500 3803 
L 500 4441 
Q 881 4594 1212 4672 
Q 1544 4750 1819 4750 
Q 2544 4750 2975 4387 
Q 3406 4025 3406 3419 
Q 3406 3131 3298 2873 
Q 3191 2616 2906 2266 
Q 2828 2175 2409 1742 
Q 1991 1309 1228 531 
z
" transform="scale(0.015625)"/>
       </defs>
       <use xlink:href="#DejaVuSans-32"/>
       <use xlink:href="#DejaVuSans-30" x="63.623047"/>
       <use xlink:href="#DejaVuSans-2e" x="127.246094"/>
       <use xlink:href="#DejaVuSans-31" x="159.033203"/>
       <use xlink:href="#DejaVuSans-37" x="222.65625"/>
      </g>
     </g>
    </g>
    <g id="xtick_5">
     <g id="line2d_9">
      <path d="M 254.213376 384.48 
L 254.213376 51.84 
" clip-path="url(#p1aeedb06ae)" style="fill: none; stroke: #b0b0b0; stroke-width: 0.8; stroke-linecap: square"/>
     </g>
     <g id="line2d_10">
      <g>
       <use xlink:href="#m1487373f7a" x="254.213376" y="384.48" style="stroke: #000000; stroke-width: 0.8"/>
      </g>
     </g>
     <g id="text_5">
      <!-- 26.83 -->
      <g transform="translate(239.899313 399.078438) scale(0.1 -0.1)">
       <use xlink:href="#DejaVuSans-32"/>
       <use xlink:href="#DejaVuSans-36" x="63.623047"/>
       <use xlink:href="#DejaVuSans-2e" x="127.246094"/>
       <use xlink:href="#DejaVuSans-38" x="159.033203"/>
       <use xlink:href="#DejaVuSans-33" x="222.65625"/>
      </g>
     </g>
    </g>
    <g id="xtick_6">
     <g id="line2d_11">
      <path d="M 294.693992 384.48 
L 294.693992 51.84 
" clip-path="url(#p1aeedb06ae)" style="fill: none; stroke: #b0b0b0; stroke-width: 0.8; stroke-linecap: square"/>
     </g>
     <g id="line2d_12">
      <g>
       <use xlink:href="#m1487373f7a" x="294.693992" y="384.48" style="stroke: #000000; stroke-width: 0.8"/>
      </g>
     </g>
     <g id="text_6">
      <!-- 33.5 -->
      <g transform="translate(283.56118 399.078438) scale(0.1 -0.1)">
       <use xlink:href="#DejaVuSans-33"/>
       <use xlink:href="#DejaVuSans-33" x="63.623047"/>
       <use xlink:href="#DejaVuSans-2e" x="127.246094"/>
       <use xlink:href="#DejaVuSans-35" x="159.033203"/>
      </g>
     </g>
    </g>
    <g id="xtick_7">
     <g id="line2d_13">
      <path d="M 335.174609 384.48 
L 335.174609 51.84 
" clip-path="url(#p1aeedb06ae)" style="fill: none; stroke: #b0b0b0; stroke-width: 0.8; stroke-linecap: square"/>
     </g>
     <g id="line2d_14">
      <g>
       <use xlink:href="#m1487373f7a" x="335.174609" y="384.48" style="stroke: #000000; stroke-width: 0.8"/>
      </g>
     </g>
     <g id="text_7">
      <!-- 40.17 -->
      <g transform="translate(320.860546 399.078438) scale(0.1 -0.1)">
       <defs>
        <path id="DejaVuSans-34" d="M 2419 4116 
L 825 1625 
L 2419 1625 
L 2419 4116 
z
M 2253 4666 
L 3047 4666 
L 3047 1625 
L 3713 1625 
L 3713 1100 
L 3047 1100 
L 3047 0 
L 2419 0 
L 2419 1100 
L 313 1100 
L 313 1709 
L 2253 4666 
z
" transform="scale(0.015625)"/>
       </defs>
       <use xlink:href="#DejaVuSans-34"/>
       <use xlink:href="#DejaVuSans-30" x="63.623047"/>
       <use xlink:href="#DejaVuSans-2e" x="127.246094"/>
       <use xlink:href="#DejaVuSans-31" x="159.033203"/>
       <use xlink:href="#DejaVuSans-37" x="222.65625"/>
      </g>
     </g>
    </g>
    <g id="xtick_8">
     <g id="line2d_15">
      <path d="M 375.655226 384.48 
L 375.655226 51.84 
" clip-path="url(#p1aeedb06ae)" style="fill: none; stroke: #b0b0b0; stroke-width: 0.8; stroke-linecap: square"/>
     </g>
     <g id="line2d_16">
      <g>
       <use xlink:href="#m1487373f7a" x="375.655226" y="384.48" style="stroke: #000000; stroke-width: 0.8"/>
      </g>
     </g>
     <g id="text_8">
      <!-- 46.83 -->
      <g transform="translate(361.341163 399.078438) scale(0.1 -0.1)">
       <use xlink:href="#DejaVuSans-34"/>
       <use xlink:href="#DejaVuSans-36" x="63.623047"/>
       <use xlink:href="#DejaVuSans-2e" x="127.246094"/>
       <use xlink:href="#DejaVuSans-38" x="159.033203"/>
       <use xlink:href="#DejaVuSans-33" x="222.65625"/>
      </g>
     </g>
    </g>
    <g id="xtick_9">
     <g id="line2d_17">
      <path d="M 416.135842 384.48 
L 416.135842 51.84 
" clip-path="url(#p1aeedb06ae)" style="fill: none; stroke: #b0b0b0; stroke-width: 0.8; stroke-linecap: square"/>
     </g>
     <g id="line2d_18">
      <g>
       <use xlink:href="#m1487373f7a" x="416.135842" y="384.48" style="stroke: #000000; stroke-width: 0.8"/>
      </g>
     </g>
     <g id="text_9">
      <!-- 53.5 -->
      <g transform="translate(405.00303 399.078438) scale(0.1 -0.1)">
       <use xlink:href="#DejaVuSans-35"/>
       <use xlink:href="#DejaVuSans-33" x="63.623047"/>
       <use xlink:href="#DejaVuSans-2e" x="127.246094"/>
       <use xlink:href="#DejaVuSans-35" x="159.033203"/>
      </g>
     </g>
    </g>
    <g id="xtick_10">
     <g id="line2d_19">
      <path d="M 456.616459 384.48 
L 456.616459 51.84 
" clip-path="url(#p1aeedb06ae)" style="fill: none; stroke: #b0b0b0; stroke-width: 0.8; stroke-linecap: square"/>
     </g>
     <g id="line2d_20">
      <g>
       <use xlink:href="#m1487373f7a" x="456.616459" y="384.48" style="stroke: #000000; stroke-width: 0.8"/>
      </g>
     </g>
     <g id="text_10">
      <!-- 60.17 -->
      <g transform="translate(442.302396 399.078438) scale(0.1 -0.1)">
       <use xlink:href="#DejaVuSans-36"/>
       <use xlink:href="#DejaVuSans-30" x="63.623047"/>
       <use xlink:href="#DejaVuSans-2e" x="127.246094"/>
       <use xlink:href="#DejaVuSans-31" x="159.033203"/>
       <use xlink:href="#DejaVuSans-37" x="222.65625"/>
      </g>
     </g>
    </g>
    <g id="xtick_11">
     <g id="line2d_21">
      <path d="M 497.097075 384.48 
L 497.097075 51.84 
" clip-path="url(#p1aeedb06ae)" style="fill: none; stroke: #b0b0b0; stroke-width: 0.8; stroke-linecap: square"/>
     </g>
     <g id="line2d_22">
      <g>
       <use xlink:href="#m1487373f7a" x="497.097075" y="384.48" style="stroke: #000000; stroke-width: 0.8"/>
      </g>
     </g>
     <g id="text_11">
      <!-- 66.83 -->
      <g transform="translate(482.783013 399.078438) scale(0.1 -0.1)">
       <use xlink:href="#DejaVuSans-36"/>
       <use xlink:href="#DejaVuSans-36" x="63.623047"/>
       <use xlink:href="#DejaVuSans-2e" x="127.246094"/>
       <use xlink:href="#DejaVuSans-38" x="159.033203"/>
       <use xlink:href="#DejaVuSans-33" x="222.65625"/>
      </g>
     </g>
    </g>
    <g id="text_12">
     <!-- time in hours [h] -->
     <g transform="translate(253.451562 412.756563) scale(0.1 -0.1)">
      <defs>
       <path id="DejaVuSans-74" d="M 1172 4494 
L 1172 3500 
L 2356 3500 
L 2356 3053 
L 1172 3053 
L 1172 1153 
Q 1172 725 1289 603 
Q 1406 481 1766 481 
L 2356 481 
L 2356 0 
L 1766 0 
Q 1100 0 847 248 
Q 594 497 594 1153 
L 594 3053 
L 172 3053 
L 172 3500 
L 594 3500 
L 594 4494 
L 1172 4494 
z
" transform="scale(0.015625)"/>
       <path id="DejaVuSans-69" d="M 603 3500 
L 1178 3500 
L 1178 0 
L 603 0 
L 603 3500 
z
M 603 4863 
L 1178 4863 
L 1178 4134 
L 603 4134 
L 603 4863 
z
" transform="scale(0.015625)"/>
       <path id="DejaVuSans-6d" d="M 3328 2828 
Q 3544 3216 3844 3400 
Q 4144 3584 4550 3584 
Q 5097 3584 5394 3201 
Q 5691 2819 5691 2113 
L 5691 0 
L 5113 0 
L 5113 2094 
Q 5113 2597 4934 2840 
Q 4756 3084 4391 3084 
Q 3944 3084 3684 2787 
Q 3425 2491 3425 1978 
L 3425 0 
L 2847 0 
L 2847 2094 
Q 2847 2600 2669 2842 
Q 2491 3084 2119 3084 
Q 1678 3084 1418 2786 
Q 1159 2488 1159 1978 
L 1159 0 
L 581 0 
L 581 3500 
L 1159 3500 
L 1159 2956 
Q 1356 3278 1631 3431 
Q 1906 3584 2284 3584 
Q 2666 3584 2933 3390 
Q 3200 3197 3328 2828 
z
" transform="scale(0.015625)"/>
       <path id="DejaVuSans-65" d="M 3597 1894 
L 3597 1613 
L 953 1613 
Q 991 1019 1311 708 
Q 1631 397 2203 397 
Q 2534 397 2845 478 
Q 3156 559 3463 722 
L 3463 178 
Q 3153 47 2828 -22 
Q 2503 -91 2169 -91 
Q 1331 -91 842 396 
Q 353 884 353 1716 
Q 353 2575 817 3079 
Q 1281 3584 2069 3584 
Q 2775 3584 3186 3129 
Q 3597 2675 3597 1894 
z
M 3022 2063 
Q 3016 2534 2758 2815 
Q 2500 3097 2075 3097 
Q 1594 3097 1305 2825 
Q 1016 2553 972 2059 
L 3022 2063 
z
" transform="scale(0.015625)"/>
       <path id="DejaVuSans-20" transform="scale(0.015625)"/>
       <path id="DejaVuSans-6e" d="M 3513 2113 
L 3513 0 
L 2938 0 
L 2938 2094 
Q 2938 2591 2744 2837 
Q 2550 3084 2163 3084 
Q 1697 3084 1428 2787 
Q 1159 2491 1159 1978 
L 1159 0 
L 581 0 
L 581 3500 
L 1159 3500 
L 1159 2956 
Q 1366 3272 1645 3428 
Q 1925 3584 2291 3584 
Q 2894 3584 3203 3211 
Q 3513 2838 3513 2113 
z
" transform="scale(0.015625)"/>
       <path id="DejaVuSans-68" d="M 3513 2113 
L 3513 0 
L 2938 0 
L 2938 2094 
Q 2938 2591 2744 2837 
Q 2550 3084 2163 3084 
Q 1697 3084 1428 2787 
Q 1159 2491 1159 1978 
L 1159 0 
L 581 0 
L 581 4863 
L 1159 4863 
L 1159 2956 
Q 1366 3272 1645 3428 
Q 1925 3584 2291 3584 
Q 2894 3584 3203 3211 
Q 3513 2838 3513 2113 
z
" transform="scale(0.015625)"/>
       <path id="DejaVuSans-6f" d="M 1959 3097 
Q 1497 3097 1228 2736 
Q 959 2375 959 1747 
Q 959 1119 1226 758 
Q 1494 397 1959 397 
Q 2419 397 2687 759 
Q 2956 1122 2956 1747 
Q 2956 2369 2687 2733 
Q 2419 3097 1959 3097 
z
M 1959 3584 
Q 2709 3584 3137 3096 
Q 3566 2609 3566 1747 
Q 3566 888 3137 398 
Q 2709 -91 1959 -91 
Q 1206 -91 779 398 
Q 353 888 353 1747 
Q 353 2609 779 3096 
Q 1206 3584 1959 3584 
z
" transform="scale(0.015625)"/>
       <path id="DejaVuSans-75" d="M 544 1381 
L 544 3500 
L 1119 3500 
L 1119 1403 
Q 1119 906 1312 657 
Q 1506 409 1894 409 
Q 2359 409 2629 706 
Q 2900 1003 2900 1516 
L 2900 3500 
L 3475 3500 
L 3475 0 
L 2900 0 
L 2900 538 
Q 2691 219 2414 64 
Q 2138 -91 1772 -91 
Q 1169 -91 856 284 
Q 544 659 544 1381 
z
M 1991 3584 
L 1991 3584 
z
" transform="scale(0.015625)"/>
       <path id="DejaVuSans-72" d="M 2631 2963 
Q 2534 3019 2420 3045 
Q 2306 3072 2169 3072 
Q 1681 3072 1420 2755 
Q 1159 2438 1159 1844 
L 1159 0 
L 581 0 
L 581 3500 
L 1159 3500 
L 1159 2956 
Q 1341 3275 1631 3429 
Q 1922 3584 2338 3584 
Q 2397 3584 2469 3576 
Q 2541 3569 2628 3553 
L 2631 2963 
z
" transform="scale(0.015625)"/>
       <path id="DejaVuSans-73" d="M 2834 3397 
L 2834 2853 
Q 2591 2978 2328 3040 
Q 2066 3103 1784 3103 
Q 1356 3103 1142 2972 
Q 928 2841 928 2578 
Q 928 2378 1081 2264 
Q 1234 2150 1697 2047 
L 1894 2003 
Q 2506 1872 2764 1633 
Q 3022 1394 3022 966 
Q 3022 478 2636 193 
Q 2250 -91 1575 -91 
Q 1294 -91 989 -36 
Q 684 19 347 128 
L 347 722 
Q 666 556 975 473 
Q 1284 391 1588 391 
Q 1994 391 2212 530 
Q 2431 669 2431 922 
Q 2431 1156 2273 1281 
Q 2116 1406 1581 1522 
L 1381 1569 
Q 847 1681 609 1914 
Q 372 2147 372 2553 
Q 372 3047 722 3315 
Q 1072 3584 1716 3584 
Q 2034 3584 2315 3537 
Q 2597 3491 2834 3397 
z
" transform="scale(0.015625)"/>
       <path id="DejaVuSans-5b" d="M 550 4863 
L 1875 4863 
L 1875 4416 
L 1125 4416 
L 1125 -397 
L 1875 -397 
L 1875 -844 
L 550 -844 
L 550 4863 
z
" transform="scale(0.015625)"/>
       <path id="DejaVuSans-5d" d="M 1947 4863 
L 1947 -844 
L 622 -844 
L 622 -397 
L 1369 -397 
L 1369 4416 
L 622 4416 
L 622 4863 
L 1947 4863 
z
" transform="scale(0.015625)"/>
      </defs>
      <use xlink:href="#DejaVuSans-74"/>
      <use xlink:href="#DejaVuSans-69" x="39.208984"/>
      <use xlink:href="#DejaVuSans-6d" x="66.992188"/>
      <use xlink:href="#DejaVuSans-65" x="164.404297"/>
      <use xlink:href="#DejaVuSans-20" x="225.927734"/>
      <use xlink:href="#DejaVuSans-69" x="257.714844"/>
      <use xlink:href="#DejaVuSans-6e" x="285.498047"/>
      <use xlink:href="#DejaVuSans-20" x="348.876953"/>
      <use xlink:href="#DejaVuSans-68" x="380.664062"/>
      <use xlink:href="#DejaVuSans-6f" x="444.042969"/>
      <use xlink:href="#DejaVuSans-75" x="505.224609"/>
      <use xlink:href="#DejaVuSans-72" x="568.603516"/>
      <use xlink:href="#DejaVuSans-73" x="609.716797"/>
      <use xlink:href="#DejaVuSans-20" x="661.816406"/>
      <use xlink:href="#DejaVuSans-5b" x="693.603516"/>
      <use xlink:href="#DejaVuSans-68" x="732.617188"/>
      <use xlink:href="#DejaVuSans-5d" x="795.996094"/>
     </g>
    </g>
   </g>
   <g id="matplotlib.axis_2">
    <g id="ytick_1">
     <g id="line2d_23">
      <path d="M 72 383.050995 
L 518.4 383.050995 
" clip-path="url(#p1aeedb06ae)" style="fill: none; stroke: #b0b0b0; stroke-width: 0.8; stroke-linecap: square"/>
     </g>
     <g id="line2d_24">
      <defs>
       <path id="m5611ed3069" d="M 0 0 
L -3.5 0 
" style="stroke: #000000; stroke-width: 0.8"/>
      </defs>
      <g>
       <use xlink:href="#m5611ed3069" x="72" y="383.050995" style="stroke: #000000; stroke-width: 0.8"/>
      </g>
     </g>
     <g id="text_13">
      <!-- 0 -->
      <g transform="translate(58.6375 386.850214) scale(0.1 -0.1)">
       <use xlink:href="#DejaVuSans-30"/>
      </g>
     </g>
    </g>
    <g id="ytick_2">
     <g id="line2d_25">
      <path d="M 72 337.165723 
L 518.4 337.165723 
" clip-path="url(#p1aeedb06ae)" style="fill: none; stroke: #b0b0b0; stroke-width: 0.8; stroke-linecap: square"/>
     </g>
     <g id="line2d_26">
      <g>
       <use xlink:href="#m5611ed3069" x="72" y="337.165723" style="stroke: #000000; stroke-width: 0.8"/>
      </g>
     </g>
     <g id="text_14">
      <!-- 20000 -->
      <g transform="translate(33.1875 340.964942) scale(0.1 -0.1)">
       <use xlink:href="#DejaVuSans-32"/>
       <use xlink:href="#DejaVuSans-30" x="63.623047"/>
       <use xlink:href="#DejaVuSans-30" x="127.246094"/>
       <use xlink:href="#DejaVuSans-30" x="190.869141"/>
       <use xlink:href="#DejaVuSans-30" x="254.492188"/>
      </g>
     </g>
    </g>
    <g id="ytick_3">
     <g id="line2d_27">
      <path d="M 72 291.280452 
L 518.4 291.280452 
" clip-path="url(#p1aeedb06ae)" style="fill: none; stroke: #b0b0b0; stroke-width: 0.8; stroke-linecap: square"/>
     </g>
     <g id="line2d_28">
      <g>
       <use xlink:href="#m5611ed3069" x="72" y="291.280452" style="stroke: #000000; stroke-width: 0.8"/>
      </g>
     </g>
     <g id="text_15">
      <!-- 40000 -->
      <g transform="translate(33.1875 295.07967) scale(0.1 -0.1)">
       <use xlink:href="#DejaVuSans-34"/>
       <use xlink:href="#DejaVuSans-30" x="63.623047"/>
       <use xlink:href="#DejaVuSans-30" x="127.246094"/>
       <use xlink:href="#DejaVuSans-30" x="190.869141"/>
       <use xlink:href="#DejaVuSans-30" x="254.492188"/>
      </g>
     </g>
    </g>
    <g id="ytick_4">
     <g id="line2d_29">
      <path d="M 72 245.39518 
L 518.4 245.39518 
" clip-path="url(#p1aeedb06ae)" style="fill: none; stroke: #b0b0b0; stroke-width: 0.8; stroke-linecap: square"/>
     </g>
     <g id="line2d_30">
      <g>
       <use xlink:href="#m5611ed3069" x="72" y="245.39518" style="stroke: #000000; stroke-width: 0.8"/>
      </g>
     </g>
     <g id="text_16">
      <!-- 60000 -->
      <g transform="translate(33.1875 249.194399) scale(0.1 -0.1)">
       <use xlink:href="#DejaVuSans-36"/>
       <use xlink:href="#DejaVuSans-30" x="63.623047"/>
       <use xlink:href="#DejaVuSans-30" x="127.246094"/>
       <use xlink:href="#DejaVuSans-30" x="190.869141"/>
       <use xlink:href="#DejaVuSans-30" x="254.492188"/>
      </g>
     </g>
    </g>
    <g id="ytick_5">
     <g id="line2d_31">
      <path d="M 72 199.509908 
L 518.4 199.509908 
" clip-path="url(#p1aeedb06ae)" style="fill: none; stroke: #b0b0b0; stroke-width: 0.8; stroke-linecap: square"/>
     </g>
     <g id="line2d_32">
      <g>
       <use xlink:href="#m5611ed3069" x="72" y="199.509908" style="stroke: #000000; stroke-width: 0.8"/>
      </g>
     </g>
     <g id="text_17">
      <!-- 80000 -->
      <g transform="translate(33.1875 203.309127) scale(0.1 -0.1)">
       <use xlink:href="#DejaVuSans-38"/>
       <use xlink:href="#DejaVuSans-30" x="63.623047"/>
       <use xlink:href="#DejaVuSans-30" x="127.246094"/>
       <use xlink:href="#DejaVuSans-30" x="190.869141"/>
       <use xlink:href="#DejaVuSans-30" x="254.492188"/>
      </g>
     </g>
    </g>
    <g id="ytick_6">
     <g id="line2d_33">
      <path d="M 72 153.624637 
L 518.4 153.624637 
" clip-path="url(#p1aeedb06ae)" style="fill: none; stroke: #b0b0b0; stroke-width: 0.8; stroke-linecap: square"/>
     </g>
     <g id="line2d_34">
      <g>
       <use xlink:href="#m5611ed3069" x="72" y="153.624637" style="stroke: #000000; stroke-width: 0.8"/>
      </g>
     </g>
     <g id="text_18">
      <!-- 100000 -->
      <g transform="translate(26.825 157.423855) scale(0.1 -0.1)">
       <use xlink:href="#DejaVuSans-31"/>
       <use xlink:href="#DejaVuSans-30" x="63.623047"/>
       <use xlink:href="#DejaVuSans-30" x="127.246094"/>
       <use xlink:href="#DejaVuSans-30" x="190.869141"/>
       <use xlink:href="#DejaVuSans-30" x="254.492188"/>
       <use xlink:href="#DejaVuSans-30" x="318.115234"/>
      </g>
     </g>
    </g>
    <g id="ytick_7">
     <g id="line2d_35">
      <path d="M 72 107.739365 
L 518.4 107.739365 
" clip-path="url(#p1aeedb06ae)" style="fill: none; stroke: #b0b0b0; stroke-width: 0.8; stroke-linecap: square"/>
     </g>
     <g id="line2d_36">
      <g>
       <use xlink:href="#m5611ed3069" x="72" y="107.739365" style="stroke: #000000; stroke-width: 0.8"/>
      </g>
     </g>
     <g id="text_19">
      <!-- 120000 -->
      <g transform="translate(26.825 111.538584) scale(0.1 -0.1)">
       <use xlink:href="#DejaVuSans-31"/>
       <use xlink:href="#DejaVuSans-32" x="63.623047"/>
       <use xlink:href="#DejaVuSans-30" x="127.246094"/>
       <use xlink:href="#DejaVuSans-30" x="190.869141"/>
       <use xlink:href="#DejaVuSans-30" x="254.492188"/>
       <use xlink:href="#DejaVuSans-30" x="318.115234"/>
      </g>
     </g>
    </g>
    <g id="ytick_8">
     <g id="line2d_37">
      <path d="M 72 61.854093 
L 518.4 61.854093 
" clip-path="url(#p1aeedb06ae)" style="fill: none; stroke: #b0b0b0; stroke-width: 0.8; stroke-linecap: square"/>
     </g>
     <g id="line2d_38">
      <g>
       <use xlink:href="#m5611ed3069" x="72" y="61.854093" style="stroke: #000000; stroke-width: 0.8"/>
      </g>
     </g>
     <g id="text_20">
      <!-- 140000 -->
      <g transform="translate(26.825 65.653312) scale(0.1 -0.1)">
       <use xlink:href="#DejaVuSans-31"/>
       <use xlink:href="#DejaVuSans-34" x="63.623047"/>
       <use xlink:href="#DejaVuSans-30" x="127.246094"/>
       <use xlink:href="#DejaVuSans-30" x="190.869141"/>
       <use xlink:href="#DejaVuSans-30" x="254.492188"/>
       <use xlink:href="#DejaVuSans-30" x="318.115234"/>
      </g>
     </g>
    </g>
    <g id="text_21">
     <!-- blank corrected GFP RFU -->
     <g transform="translate(20.745312 280.149062) rotate(-90) scale(0.1 -0.1)">
      <defs>
       <path id="DejaVuSans-62" d="M 3116 1747 
Q 3116 2381 2855 2742 
Q 2594 3103 2138 3103 
Q 1681 3103 1420 2742 
Q 1159 2381 1159 1747 
Q 1159 1113 1420 752 
Q 1681 391 2138 391 
Q 2594 391 2855 752 
Q 3116 1113 3116 1747 
z
M 1159 2969 
Q 1341 3281 1617 3432 
Q 1894 3584 2278 3584 
Q 2916 3584 3314 3078 
Q 3713 2572 3713 1747 
Q 3713 922 3314 415 
Q 2916 -91 2278 -91 
Q 1894 -91 1617 61 
Q 1341 213 1159 525 
L 1159 0 
L 581 0 
L 581 4863 
L 1159 4863 
L 1159 2969 
z
" transform="scale(0.015625)"/>
       <path id="DejaVuSans-6c" d="M 603 4863 
L 1178 4863 
L 1178 0 
L 603 0 
L 603 4863 
z
" transform="scale(0.015625)"/>
       <path id="DejaVuSans-61" d="M 2194 1759 
Q 1497 1759 1228 1600 
Q 959 1441 959 1056 
Q 959 750 1161 570 
Q 1363 391 1709 391 
Q 2188 391 2477 730 
Q 2766 1069 2766 1631 
L 2766 1759 
L 2194 1759 
z
M 3341 1997 
L 3341 0 
L 2766 0 
L 2766 531 
Q 2569 213 2275 61 
Q 1981 -91 1556 -91 
Q 1019 -91 701 211 
Q 384 513 384 1019 
Q 384 1609 779 1909 
Q 1175 2209 1959 2209 
L 2766 2209 
L 2766 2266 
Q 2766 2663 2505 2880 
Q 2244 3097 1772 3097 
Q 1472 3097 1187 3025 
Q 903 2953 641 2809 
L 641 3341 
Q 956 3463 1253 3523 
Q 1550 3584 1831 3584 
Q 2591 3584 2966 3190 
Q 3341 2797 3341 1997 
z
" transform="scale(0.015625)"/>
       <path id="DejaVuSans-6b" d="M 581 4863 
L 1159 4863 
L 1159 1991 
L 2875 3500 
L 3609 3500 
L 1753 1863 
L 3688 0 
L 2938 0 
L 1159 1709 
L 1159 0 
L 581 0 
L 581 4863 
z
" transform="scale(0.015625)"/>
       <path id="DejaVuSans-63" d="M 3122 3366 
L 3122 2828 
Q 2878 2963 2633 3030 
Q 2388 3097 2138 3097 
Q 1578 3097 1268 2742 
Q 959 2388 959 1747 
Q 959 1106 1268 751 
Q 1578 397 2138 397 
Q 2388 397 2633 464 
Q 2878 531 3122 666 
L 3122 134 
Q 2881 22 2623 -34 
Q 2366 -91 2075 -91 
Q 1284 -91 818 406 
Q 353 903 353 1747 
Q 353 2603 823 3093 
Q 1294 3584 2113 3584 
Q 2378 3584 2631 3529 
Q 2884 3475 3122 3366 
z
" transform="scale(0.015625)"/>
       <path id="DejaVuSans-64" d="M 2906 2969 
L 2906 4863 
L 3481 4863 
L 3481 0 
L 2906 0 
L 2906 525 
Q 2725 213 2448 61 
Q 2172 -91 1784 -91 
Q 1150 -91 751 415 
Q 353 922 353 1747 
Q 353 2572 751 3078 
Q 1150 3584 1784 3584 
Q 2172 3584 2448 3432 
Q 2725 3281 2906 2969 
z
M 947 1747 
Q 947 1113 1208 752 
Q 1469 391 1925 391 
Q 2381 391 2643 752 
Q 2906 1113 2906 1747 
Q 2906 2381 2643 2742 
Q 2381 3103 1925 3103 
Q 1469 3103 1208 2742 
Q 947 2381 947 1747 
z
" transform="scale(0.015625)"/>
       <path id="DejaVuSans-47" d="M 3809 666 
L 3809 1919 
L 2778 1919 
L 2778 2438 
L 4434 2438 
L 4434 434 
Q 4069 175 3628 42 
Q 3188 -91 2688 -91 
Q 1594 -91 976 548 
Q 359 1188 359 2328 
Q 359 3472 976 4111 
Q 1594 4750 2688 4750 
Q 3144 4750 3555 4637 
Q 3966 4525 4313 4306 
L 4313 3634 
Q 3963 3931 3569 4081 
Q 3175 4231 2741 4231 
Q 1884 4231 1454 3753 
Q 1025 3275 1025 2328 
Q 1025 1384 1454 906 
Q 1884 428 2741 428 
Q 3075 428 3337 486 
Q 3600 544 3809 666 
z
" transform="scale(0.015625)"/>
       <path id="DejaVuSans-46" d="M 628 4666 
L 3309 4666 
L 3309 4134 
L 1259 4134 
L 1259 2759 
L 3109 2759 
L 3109 2228 
L 1259 2228 
L 1259 0 
L 628 0 
L 628 4666 
z
" transform="scale(0.015625)"/>
       <path id="DejaVuSans-50" d="M 1259 4147 
L 1259 2394 
L 2053 2394 
Q 2494 2394 2734 2622 
Q 2975 2850 2975 3272 
Q 2975 3691 2734 3919 
Q 2494 4147 2053 4147 
L 1259 4147 
z
M 628 4666 
L 2053 4666 
Q 2838 4666 3239 4311 
Q 3641 3956 3641 3272 
Q 3641 2581 3239 2228 
Q 2838 1875 2053 1875 
L 1259 1875 
L 1259 0 
L 628 0 
L 628 4666 
z
" transform="scale(0.015625)"/>
       <path id="DejaVuSans-52" d="M 2841 2188 
Q 3044 2119 3236 1894 
Q 3428 1669 3622 1275 
L 4263 0 
L 3584 0 
L 2988 1197 
Q 2756 1666 2539 1819 
Q 2322 1972 1947 1972 
L 1259 1972 
L 1259 0 
L 628 0 
L 628 4666 
L 2053 4666 
Q 2853 4666 3247 4331 
Q 3641 3997 3641 3322 
Q 3641 2881 3436 2590 
Q 3231 2300 2841 2188 
z
M 1259 4147 
L 1259 2491 
L 2053 2491 
Q 2509 2491 2742 2702 
Q 2975 2913 2975 3322 
Q 2975 3731 2742 3939 
Q 2509 4147 2053 4147 
L 1259 4147 
z
" transform="scale(0.015625)"/>
       <path id="DejaVuSans-55" d="M 556 4666 
L 1191 4666 
L 1191 1831 
Q 1191 1081 1462 751 
Q 1734 422 2344 422 
Q 2950 422 3222 751 
Q 3494 1081 3494 1831 
L 3494 4666 
L 4128 4666 
L 4128 1753 
Q 4128 841 3676 375 
Q 3225 -91 2344 -91 
Q 1459 -91 1007 375 
Q 556 841 556 1753 
L 556 4666 
z
" transform="scale(0.015625)"/>
      </defs>
      <use xlink:href="#DejaVuSans-62"/>
      <use xlink:href="#DejaVuSans-6c" x="63.476562"/>
      <use xlink:href="#DejaVuSans-61" x="91.259766"/>
      <use xlink:href="#DejaVuSans-6e" x="152.539062"/>
      <use xlink:href="#DejaVuSans-6b" x="215.917969"/>
      <use xlink:href="#DejaVuSans-20" x="273.828125"/>
      <use xlink:href="#DejaVuSans-63" x="305.615234"/>
      <use xlink:href="#DejaVuSans-6f" x="360.595703"/>
      <use xlink:href="#DejaVuSans-72" x="421.777344"/>
      <use xlink:href="#DejaVuSans-72" x="461.140625"/>
      <use xlink:href="#DejaVuSans-65" x="500.003906"/>
      <use xlink:href="#DejaVuSans-63" x="561.527344"/>
      <use xlink:href="#DejaVuSans-74" x="616.507812"/>
      <use xlink:href="#DejaVuSans-65" x="655.716797"/>
      <use xlink:href="#DejaVuSans-64" x="717.240234"/>
      <use xlink:href="#DejaVuSans-20" x="780.716797"/>
      <use xlink:href="#DejaVuSans-47" x="812.503906"/>
      <use xlink:href="#DejaVuSans-46" x="889.994141"/>
      <use xlink:href="#DejaVuSans-50" x="947.513672"/>
      <use xlink:href="#DejaVuSans-20" x="1007.816406"/>
      <use xlink:href="#DejaVuSans-52" x="1039.603516"/>
      <use xlink:href="#DejaVuSans-46" x="1109.085938"/>
      <use xlink:href="#DejaVuSans-55" x="1166.605469"/>
     </g>
    </g>
   </g>
   <g id="line2d_39">
    <path d="M 92.290909 366.363692 
L 93.302925 368.568479 
L 94.31494 369.34394 
L 95.326955 369.36 
L 96.338971 369.18793 
L 97.350986 369.245287 
L 99.375017 368.910324 
L 100.387032 368.986035 
L 101.399048 368.598304 
L 102.411063 368.710723 
L 105.447109 367.836609 
L 107.47114 367.375462 
L 108.483156 366.801896 
L 109.495171 366.629826 
L 111.519202 365.606585 
L 112.531217 365.202794 
L 113.543233 365.049079 
L 114.555248 364.459453 
L 115.567264 363.7207 
L 116.579279 363.449977 
L 119.615325 362.048182 
L 120.627341 361.077708 
L 121.639356 360.802397 
L 122.651372 360.162297 
L 123.663387 359.705739 
L 124.675402 359.377659 
L 125.687418 358.622846 
L 126.699433 358.12958 
L 127.711449 357.434418 
L 128.723464 357.188932 
L 130.747495 355.915615 
L 131.75951 355.60589 
L 132.771526 354.674419 
L 133.783541 354.100853 
L 134.795557 353.226738 
L 135.807572 352.820654 
L 137.831603 351.503747 
L 139.855634 349.349433 
L 140.867649 348.702451 
L 141.879664 347.766391 
L 142.89168 347.273124 
L 143.903695 346.341653 
L 144.915711 345.589135 
L 145.927726 344.520008 
L 146.939742 343.87532 
L 147.951757 342.728188 
L 148.963772 341.895371 
L 150.987803 339.663052 
L 151.999819 339.201905 
L 153.011834 337.820759 
L 154.023849 336.96041 
L 155.035865 335.923403 
L 156.04788 335.063054 
L 159.083927 331.958915 
L 160.095942 330.300163 
L 161.107957 329.51323 
L 162.119973 328.506048 
L 163.131988 326.900064 
L 164.144004 326.14984 
L 167.18005 322.724504 
L 168.192065 321.104754 
L 169.204081 320.398121 
L 171.228112 316.995728 
L 172.240127 315.408098 
L 173.252142 314.433036 
L 174.264158 313.279021 
L 175.276173 311.70745 
L 176.288189 309.615082 
L 177.300204 308.123811 
L 179.324235 305.694186 
L 181.348266 302.000421 
L 182.360281 300.646806 
L 183.372297 299.040821 
L 184.384312 297.088403 
L 185.396327 295.530598 
L 186.408343 293.729601 
L 187.420358 292.65818 
L 188.432374 290.689702 
L 189.444389 288.393144 
L 190.456404 286.972995 
L 191.46842 285.029754 
L 192.480435 283.331998 
L 193.492451 280.66377 
L 195.516482 277.447212 
L 196.528497 274.678036 
L 197.540512 273.663972 
L 198.552528 271.686317 
L 199.564543 269.364522 
L 201.588574 265.627166 
L 202.600589 264.133601 
L 203.612605 261.486021 
L 204.62462 259.416595 
L 205.636636 256.780486 
L 206.648651 255.241035 
L 207.660667 252.67146 
L 208.672682 251.251311 
L 209.684697 248.271062 
L 210.696713 246.708669 
L 211.708728 243.879842 
L 212.720744 241.58099 
L 213.732759 238.759046 
L 214.744774 237.566029 
L 215.75679 234.718847 
L 216.768805 232.348873 
L 218.792836 228.340795 
L 219.804852 225.931818 
L 220.816867 222.703789 
L 222.840898 217.892718 
L 223.852913 214.712869 
L 224.864929 213.361548 
L 225.876944 209.933918 
L 227.900975 205.72165 
L 228.91299 202.548683 
L 229.925006 200.146589 
L 230.937021 198.235468 
L 231.949036 195.427289 
L 232.961052 193.270682 
L 233.973067 191.39168 
L 234.985083 188.955172 
L 237.009114 186.43607 
L 238.021129 183.678365 
L 239.033144 181.744301 
L 240.04516 180.207145 
L 241.057175 177.779814 
L 243.081206 174.726149 
L 244.093221 172.521362 
L 245.105237 172.50989 
L 247.129268 167.9466 
L 249.153299 165.48715 
L 250.165314 163.151589 
L 251.177329 162.766153 
L 253.20136 158.549296 
L 254.213376 157.076379 
L 255.225391 157.113087 
L 256.237406 154.236081 
L 257.249422 153.18072 
L 259.273453 150.551494 
L 260.285468 148.84915 
L 261.297484 147.883265 
L 262.309499 147.185809 
L 263.321514 144.919077 
L 264.33353 144.152792 
L 265.345545 143.202967 
L 266.357561 141.601571 
L 267.369576 141.078479 
L 268.381591 139.004465 
L 269.393607 138.33454 
L 270.405622 137.015338 
L 271.417638 135.010152 
L 272.429653 133.670302 
L 273.441669 131.82342 
L 274.453684 131.717884 
L 275.465699 131.064019 
L 276.477715 128.778932 
L 277.48973 127.189008 
L 278.501746 126.698035 
L 279.513761 125.443073 
L 280.525776 124.791502 
L 282.549807 120.414047 
L 283.561823 119.48487 
L 284.573838 117.259435 
L 285.585854 117.833001 
L 286.597869 115.960882 
L 287.609884 115.020234 
L 288.6219 113.866219 
L 289.633915 111.922978 
L 290.645931 111.932155 
L 291.657946 110.920385 
L 292.669961 109.162979 
L 293.681977 108.398989 
L 294.693992 108.139737 
L 295.706008 106.570461 
L 297.730039 103.980237 
L 298.742054 103.177245 
L 299.754069 102.764277 
L 300.766085 100.109815 
L 301.7781 100.674203 
L 302.790116 99.270114 
L 303.802131 98.97186 
L 304.814146 97.969267 
L 305.826162 96.129267 
L 306.838177 94.621936 
L 307.850193 94.342036 
L 308.862208 92.387323 
L 309.874224 90.946526 
L 310.886239 90.164182 
L 311.898254 88.75321 
L 312.91027 88.500841 
L 313.922285 88.055754 
L 314.934301 85.359994 
L 315.946316 85.520592 
L 316.958331 84.387226 
L 317.970347 83.561291 
L 318.982362 82.962488 
L 319.994378 80.603986 
L 321.006393 81.386329 
L 322.018409 80.461741 
L 324.042439 79.039298 
L 325.054455 78.048176 
L 326.06647 78.958999 
L 327.078486 76.903338 
L 329.102516 75.82274 
L 330.114532 77.731568 
L 331.126547 74.459948 
L 332.138563 75.024336 
L 333.150578 74.464536 
L 334.162594 74.476007 
L 335.174609 74.258052 
L 336.186624 73.845085 
L 337.19864 72.117505 
L 338.210655 72.888377 
L 339.222671 72.686482 
L 340.234686 71.321395 
L 341.246701 71.358103 
L 342.258717 71.282393 
L 343.270732 71.332866 
L 344.282748 70.467929 
L 345.294763 69.983839 
L 346.306779 69.325386 
L 347.318794 68.432917 
L 348.330809 68.205785 
L 349.342825 68.169077 
L 351.366856 69.332269 
L 352.378871 67.613865 
L 353.390886 66.96 
L 355.414917 67.783641 
L 356.426933 68.341147 
L 357.438948 68.306733 
L 358.450964 67.962593 
L 359.462979 68.325087 
L 360.474994 67.811172 
L 361.48701 68.031421 
L 362.499025 67.806583 
L 363.511041 68.088778 
L 364.523056 67.811172 
L 365.535071 68.412269 
L 366.547087 68.247082 
L 367.559102 67.728578 
L 368.571118 68.015361 
L 369.583133 68.047481 
L 370.595148 68.226433 
L 371.607164 70.105435 
L 372.619179 70.353216 
L 373.631195 69.355211 
L 374.64321 69.552518 
L 375.655226 68.453566 
L 376.667241 68.756408 
L 377.679256 68.572867 
L 378.691272 68.130074 
L 379.703287 69.417156 
L 380.715303 68.013067 
L 381.727318 69.437805 
L 382.739333 68.430623 
L 383.751349 69.109725 
L 384.763364 68.414563 
L 385.77538 69.719999 
L 386.787395 69.866832 
L 387.799411 70.332567 
L 388.811426 69.490573 
L 389.823441 69.699351 
L 390.835457 69.602992 
L 391.847472 69.995311 
L 392.859488 71.548527 
L 393.871503 70.740946 
L 394.883518 72.58324 
L 395.895534 72.213864 
L 397.919565 72.028028 
L 399.943596 73.466532 
L 400.955611 73.585833 
L 401.967626 74.329175 
L 402.979642 73.929973 
L 403.991657 75.68279 
L 405.003673 74.010272 
L 406.015688 74.049274 
L 407.027703 74.446182 
L 409.051734 74.836207 
L 410.06375 76.171468 
L 411.075765 74.749025 
L 412.087781 75.932865 
L 413.099796 75.776855 
L 414.111811 74.792616 
L 415.123827 76.547728 
L 416.135842 75.113813 
L 417.147858 76.660146 
L 418.159873 85.181041 
L 419.171888 85.405879 
L 420.183904 86.417649 
L 421.195919 85.330169 
L 422.207935 85.961091 
L 423.21995 85.807375 
L 424.231966 84.713012 
L 425.243981 84.267924 
L 426.255996 85.298049 
L 427.268012 85.603186 
L 428.280027 86.399295 
L 429.292043 86.179046 
L 430.304058 86.135455 
L 431.316073 86.848971 
L 432.328089 85.928971 
L 434.35212 88.342537 
L 435.364135 88.755504 
L 436.376151 86.722786 
L 437.388166 87.388123 
L 438.400181 86.860442 
L 439.412197 86.819146 
L 440.424212 87.383534 
L 441.436228 87.378946 
L 442.448243 87.723085 
L 443.460258 87.406477 
L 444.472274 87.897449 
L 445.484289 87.610667 
L 446.496305 87.060043 
L 447.50832 88.760093 
L 448.520336 90.896052 
L 449.532351 88.854157 
L 450.544366 87.502836 
L 451.556382 88.998696 
L 452.568397 88.216352 
L 453.580413 88.934457 
L 454.592428 88.966576 
L 455.604443 87.154108 
L 456.616459 88.420542 
L 457.628474 88.98493 
L 458.64049 88.822038 
L 459.652505 89.4369 
L 460.664521 89.615853 
L 461.676536 90.189419 
L 462.688551 89.200591 
L 463.700567 87.97316 
L 464.712582 89.599793 
L 465.724598 88.998696 
L 466.736613 89.026227 
L 467.748628 90.584032 
L 468.760644 87.702437 
L 469.772659 88.780741 
L 470.784675 88.516901 
L 471.79669 90.675803 
L 473.820721 89.120292 
L 474.832736 89.992112 
L 475.844752 90.102237 
L 476.856767 94.245677 
L 477.868783 90.30872 
L 478.880798 91.210366 
L 479.892813 92.97236 
L 480.904829 91.513209 
L 481.916844 93.171961 
L 482.92886 91.134655 
L 483.940875 93.025129 
L 484.952891 93.325677 
L 485.964906 93.812061 
L 486.976921 94.773357 
L 487.988937 93.945128 
L 489.000952 93.465627 
L 490.012968 95.601587 
L 491.024983 94.085078 
L 492.036998 94.96837 
L 493.049014 96.886374 
L 494.061029 94.81236 
L 495.073045 97.397995 
L 496.08506 98.572658 
L 497.097075 96.656948 
L 498.109091 98.212459 
L 498.109091 98.212459 
" clip-path="url(#p1aeedb06ae)" style="fill: none; stroke: #008000; stroke-width: 1.5; stroke-linecap: square"/>
   </g>
   <g id="line2d_40">
    <path d="M 92.290909 364.909129 
L 93.302925 367.467233 
L 94.31494 368.008679 
L 95.326955 368.281696 
L 96.338971 368.290873 
L 97.350986 368.008679 
L 99.375017 367.850375 
L 100.387032 367.907731 
L 101.399048 367.501646 
L 102.411063 367.249278 
L 104.435094 367.035911 
L 105.447109 366.762894 
L 106.459125 366.226036 
L 107.47114 366.019552 
L 109.495171 364.90454 
L 110.507187 364.663642 
L 111.519202 364.067134 
L 112.531217 363.76888 
L 114.555248 362.731873 
L 115.567264 362.121598 
L 117.591294 361.444791 
L 118.60331 360.641798 
L 119.615325 360.37337 
L 120.627341 359.522198 
L 122.651372 358.326886 
L 123.663387 357.67761 
L 124.675402 357.165989 
L 126.699433 355.491177 
L 127.711449 355.13786 
L 128.723464 354.474818 
L 130.747495 353.756713 
L 131.75951 352.827537 
L 132.771526 352.058958 
L 133.783541 351.623048 
L 134.795557 350.257961 
L 136.819587 348.757513 
L 137.831603 348.264246 
L 138.843618 347.578262 
L 141.879664 344.547539 
L 142.89168 343.838612 
L 143.903695 342.833724 
L 144.915711 341.443401 
L 145.927726 340.739062 
L 146.939742 339.642404 
L 147.951757 339.027541 
L 148.963772 337.95612 
L 149.975788 337.267841 
L 150.987803 336.283602 
L 151.999819 335.482904 
L 153.011834 334.379363 
L 154.023849 333.707144 
L 156.04788 330.903554 
L 157.059896 330.226746 
L 158.071911 328.836422 
L 159.083927 327.758118 
L 160.095942 326.886298 
L 161.107957 325.411087 
L 162.119973 324.300663 
L 163.131988 322.5662 
L 164.144004 321.162111 
L 165.156019 319.964505 
L 166.168034 318.376875 
L 167.18005 317.234331 
L 168.192065 315.518222 
L 169.204081 314.17149 
L 170.216096 312.515031 
L 172.240127 309.82386 
L 173.252142 307.869147 
L 174.264158 306.841317 
L 175.276173 305.317926 
L 176.288189 303.523812 
L 178.312219 301.185958 
L 179.324235 298.377779 
L 180.33625 297.063166 
L 183.372297 292.22227 
L 184.384312 289.907358 
L 185.396327 288.909353 
L 186.408343 286.523319 
L 187.420358 285.557434 
L 189.444389 280.558234 
L 190.456404 279.177087 
L 191.46842 277.39215 
L 194.504466 270.830556 
L 195.516482 269.052502 
L 196.528497 267.655295 
L 198.552528 263.564623 
L 199.564543 260.779387 
L 202.600589 254.683529 
L 203.612605 252.196547 
L 205.636636 248.220589 
L 206.648651 246.600838 
L 208.672682 240.830766 
L 210.696713 236.572612 
L 213.732759 229.212615 
L 214.744774 227.407029 
L 216.768805 221.747081 
L 217.780821 219.556059 
L 218.792836 217.640349 
L 219.804852 215.334614 
L 220.816867 212.196062 
L 221.828882 210.060102 
L 222.840898 206.891724 
L 224.864929 202.966239 
L 225.876944 201.816813 
L 226.888959 198.568136 
L 227.900975 196.831379 
L 228.91299 195.608536 
L 229.925006 193.41522 
L 230.937021 188.982703 
L 231.949036 185.906095 
L 232.961052 183.710485 
L 233.973067 180.53293 
L 234.985083 179.190786 
L 235.997098 176.8254 
L 237.009114 175.646149 
L 238.021129 173.732733 
L 239.033144 172.140514 
L 240.04516 169.323158 
L 241.057175 168.797772 
L 242.069191 167.207847 
L 243.081206 164.376726 
L 244.093221 162.610143 
L 245.105237 161.937924 
L 247.129268 157.998673 
L 248.141283 156.369746 
L 249.153299 155.78012 
L 250.165314 154.451742 
L 251.177329 152.460321 
L 252.189345 157.216329 
L 253.20136 158.730543 
L 254.213376 163.307599 
L 255.225391 161.593784 
L 256.237406 156.303212 
L 258.261437 144.886957 
L 259.273453 143.108903 
L 260.285468 139.091647 
L 261.297484 138.270301 
L 262.309499 135.576835 
L 263.321514 133.853843 
L 265.345545 132.933844 
L 266.357561 130.669405 
L 267.369576 130.944717 
L 269.393607 127.595092 
L 270.405622 126.909107 
L 271.417638 126.672798 
L 272.429653 123.50442 
L 273.441669 122.903323 
L 274.453684 122.802376 
L 275.465699 121.16886 
L 277.48973 118.844771 
L 278.501746 119.06502 
L 279.513761 120.150207 
L 281.537792 131.37145 
L 282.549807 134.152098 
L 283.561823 132.807659 
L 284.573838 132.58741 
L 285.585854 132.495639 
L 286.597869 128.845466 
L 287.609884 124.243173 
L 288.6219 119.060432 
L 289.633915 111.68208 
L 290.645931 107.729064 
L 291.657946 104.393205 
L 292.669961 102.144826 
L 293.681977 101.05964 
L 294.693992 99.476598 
L 295.706008 97.526474 
L 296.718023 97.56777 
L 297.730039 97.255751 
L 298.742054 96.682185 
L 299.754069 95.523582 
L 300.766085 94.018545 
L 301.7781 92.781937 
L 302.790116 92.173957 
L 303.802131 91.923882 
L 304.814146 91.299842 
L 305.826162 89.76498 
L 306.838177 90.072411 
L 307.850193 99.460538 
L 309.874224 110.07839 
L 310.886239 113.356892 
L 311.898254 112.918688 
L 312.91027 113.980932 
L 313.922285 113.148114 
L 319.994378 83.412164 
L 322.018409 78.851168 
L 323.030424 77.19471 
L 324.042439 76.625732 
L 325.054455 75.69885 
L 326.06647 77.258949 
L 327.078486 75.618551 
L 328.090501 74.806381 
L 329.102516 74.214461 
L 330.114532 74.831618 
L 331.126547 74.448476 
L 332.138563 73.652367 
L 333.150578 73.870322 
L 334.162594 73.801494 
L 335.174609 75.960396 
L 336.186624 73.310522 
L 337.19864 73.012267 
L 338.210655 74.785733 
L 339.222671 73.037504 
L 340.234686 72.929674 
L 341.246701 73.723489 
L 342.258717 73.975858 
L 343.270732 74.097454 
L 344.282748 74.677903 
L 347.318794 97.115801 
L 348.330809 100.444777 
L 349.342825 102.968467 
L 350.35484 104.347319 
L 351.366856 108.08238 
L 352.378871 106.334152 
L 353.390886 103.232307 
L 354.402902 102.02323 
L 355.414917 98.164279 
L 356.426933 95.257447 
L 357.438948 91.779343 
L 358.450964 86.419944 
L 359.462979 81.992015 
L 360.474994 80.920594 
L 361.48701 79.188425 
L 362.499025 76.194411 
L 363.511041 75.265234 
L 364.523056 74.604486 
L 365.535071 76.233413 
L 366.547087 75.285883 
L 367.559102 74.673314 
L 368.571118 74.352117 
L 370.595148 76.637204 
L 371.607164 76.818451 
L 372.619179 80.301143 
L 373.631195 80.532863 
L 374.64321 86.796203 
L 375.655226 95.209267 
L 377.679256 106.611757 
L 378.691272 111.576544 
L 379.703287 115.42173 
L 380.715303 118.468512 
L 381.727318 120.737538 
L 382.739333 119.468811 
L 383.751349 118.711704 
L 384.763364 115.786518 
L 385.77538 113.411955 
L 386.787395 110.032504 
L 389.823441 92.763583 
L 390.835457 89.87281 
L 391.847472 85.906029 
L 392.859488 85.405879 
L 393.871503 83.558997 
L 394.883518 82.66194 
L 396.907549 84.022438 
L 397.919565 84.098149 
L 398.93158 83.978847 
L 399.943596 84.478997 
L 400.955611 92.981538 
L 401.967626 92.268022 
L 402.979642 91.96059 
L 405.003673 94.438395 
L 406.015688 97.285576 
L 407.027703 109.842081 
L 409.051734 121.460231 
L 410.06375 125.342125 
L 411.075765 126.961875 
L 413.099796 132.068906 
L 414.111811 131.566462 
L 415.123827 134.429703 
L 416.135842 134.872496 
L 417.147858 136.756087 
L 418.159873 138.300126 
L 419.171888 141.973242 
L 420.183904 140.908704 
L 421.195919 140.615038 
L 422.207935 140.853641 
L 423.21995 140.335138 
L 424.231966 135.82691 
L 425.243981 133.085265 
L 426.255996 128.51968 
L 427.268012 122.758785 
L 428.280027 115.293251 
L 429.292043 108.841782 
L 430.304058 104.953005 
L 431.316073 102.238891 
L 434.35212 92.290964 
L 435.364135 90.370666 
L 437.388166 91.58892 
L 438.400181 89.599793 
L 439.412197 88.551315 
L 440.424212 88.762387 
L 441.436228 87.507425 
L 442.448243 87.727674 
L 443.460258 89.113409 
L 444.472274 88.124582 
L 445.484289 88.358596 
L 446.496305 86.220343 
L 447.50832 88.374656 
L 448.520336 86.318996 
L 449.532351 87.452362 
L 450.544366 84.740543 
L 451.556382 86.133161 
L 452.568397 86.640193 
L 453.580413 84.878199 
L 454.592428 86.429121 
L 455.604443 82.590818 
L 456.616459 82.944134 
L 457.628474 83.604882 
L 458.64049 84.059146 
L 459.652505 84.18992 
L 460.664521 83.643885 
L 461.676536 82.781242 
L 462.688551 84.306927 
L 463.700567 85.247575 
L 464.712582 82.870718 
L 465.724598 84.244982 
L 466.736613 83.476404 
L 467.748628 84.258747 
L 468.760644 84.196802 
L 469.772659 84.355106 
L 470.784675 83.942139 
L 471.79669 84.384932 
L 473.820721 84.554707 
L 474.832736 83.990319 
L 475.844752 85.60548 
L 476.856767 86.101041 
L 477.868783 85.44947 
L 478.880798 87.275704 
L 479.892813 87.70932 
L 480.904829 86.718198 
L 481.916844 88.085579 
L 482.92886 87.27341 
L 483.940875 89.558496 
L 484.952891 89.491963 
L 485.964906 88.959693 
L 486.976921 89.64109 
L 487.988937 90.829518 
L 489.000952 89.358895 
L 490.012968 90.244481 
L 491.024983 89.696152 
L 492.036998 93.42433 
L 493.049014 91.146127 
L 494.061029 91.735752 
L 495.073045 93.993308 
L 496.08506 92.350615 
L 497.097075 91.504032 
L 498.109091 92.894356 
L 498.109091 92.894356 
" clip-path="url(#p1aeedb06ae)" style="fill: none; stroke: #008000; stroke-width: 1.5; stroke-linecap: square"/>
   </g>
   <g id="line2d_41">
    <path d="M 92.290909 365.117907 
L 93.302925 366.687183 
L 95.326955 366.877607 
L 96.338971 367.194215 
L 101.399048 366.510525 
L 103.423079 366.102146 
L 107.47114 364.659054 
L 109.495171 363.800999 
L 110.507187 363.679403 
L 111.519202 362.883294 
L 113.543233 361.94494 
L 114.555248 361.603095 
L 115.567264 360.797808 
L 116.579279 360.361898 
L 117.591294 359.696562 
L 118.60331 359.180352 
L 119.615325 358.480602 
L 123.663387 356.294169 
L 124.675402 355.569182 
L 125.687418 355.378758 
L 126.699433 354.511526 
L 127.711449 353.366689 
L 128.723464 352.937661 
L 131.75951 350.271727 
L 132.771526 349.760106 
L 133.783541 348.973174 
L 134.795557 348.466142 
L 135.807572 347.312127 
L 136.819587 346.605494 
L 137.831603 345.550133 
L 138.843618 344.871031 
L 139.855634 344.010682 
L 143.903695 340.050783 
L 145.927726 337.433028 
L 146.939742 337.038415 
L 147.951757 335.927991 
L 148.963772 335.262655 
L 150.987803 333.475423 
L 153.011834 331.185748 
L 154.023849 330.210686 
L 156.04788 327.90954 
L 157.059896 326.748642 
L 158.071911 325.904353 
L 159.083927 325.959416 
L 160.095942 325.654279 
L 161.107957 325.025651 
L 162.119973 323.949641 
L 163.131988 323.589442 
L 165.156019 320.937273 
L 166.168034 318.397523 
L 168.192065 312.246602 
L 169.204081 309.991341 
L 170.216096 308.481716 
L 171.228112 306.478824 
L 172.240127 304.996729 
L 173.252142 302.794236 
L 175.276173 300.18107 
L 176.288189 298.2493 
L 180.33625 291.669352 
L 181.348266 289.613692 
L 182.360281 288.397732 
L 183.372297 285.903868 
L 184.384312 283.981275 
L 185.396327 282.964916 
L 186.408343 280.149855 
L 188.432374 276.754345 
L 189.444389 274.40043 
L 190.456404 273.166117 
L 192.480435 268.582178 
L 193.492451 267.019784 
L 195.516482 261.956345 
L 196.528497 260.125522 
L 197.540512 257.959737 
L 198.552528 256.057793 
L 201.588574 248.755152 
L 202.600589 246.846325 
L 204.62462 242.675354 
L 205.636636 240.080541 
L 206.648651 237.949171 
L 210.696713 228.065483 
L 211.708728 226.060297 
L 213.732759 220.434762 
L 214.744774 219.069676 
L 215.75679 215.135013 
L 216.768805 213.159653 
L 218.792836 208.463295 
L 220.816867 202.429382 
L 221.828882 200.733921 
L 222.840898 198.02669 
L 223.852913 199.703797 
L 224.864929 199.639557 
L 225.876944 200.447138 
L 226.888959 200.408136 
L 227.900975 199.63038 
L 228.91299 199.125642 
L 229.925006 197.74679 
L 231.949036 194.046143 
L 232.961052 191.575221 
L 233.973067 187.406544 
L 234.985083 181.59288 
L 235.997098 177.26131 
L 238.021129 164.980117 
L 240.04516 160.276877 
L 243.081206 156.287153 
L 244.093221 153.77264 
L 245.105237 153.015533 
L 246.117252 151.599972 
L 247.129268 149.406656 
L 248.141283 149.19329 
L 249.153299 147.146806 
L 250.165314 146.107505 
L 251.177329 146.525061 
L 252.189345 151.365957 
L 253.20136 154.649048 
L 254.213376 159.689545 
L 256.237406 157.90002 
L 258.261437 154.249847 
L 259.273453 153.832291 
L 261.297484 144.944313 
L 263.321514 129.113895 
L 264.33353 125.075991 
L 265.345545 122.965268 
L 266.357561 122.703722 
L 267.369576 121.974146 
L 268.381591 120.285568 
L 269.393607 120.260332 
L 270.405622 119.126965 
L 271.417638 117.330557 
L 272.429653 116.500034 
L 273.441669 115.219834 
L 274.453684 114.710508 
L 275.465699 113.806568 
L 276.477715 111.840384 
L 277.48973 111.097043 
L 278.501746 111.982629 
L 279.513761 114.703625 
L 280.525776 120.854546 
L 281.537792 125.782624 
L 282.549807 129.194194 
L 283.561823 129.641575 
L 284.573838 132.348806 
L 285.585854 132.874193 
L 286.597869 132.548407 
L 287.609884 131.745415 
L 288.6219 129.942124 
L 290.645931 125.257238 
L 291.657946 122.020032 
L 292.669961 116.76158 
L 293.681977 108.83031 
L 294.693992 102.91111 
L 295.706008 99.419241 
L 296.718023 92.951712 
L 297.730039 89.558496 
L 298.742054 88.902337 
L 299.754069 88.741738 
L 300.766085 86.302936 
L 301.7781 86.998098 
L 302.790116 85.582537 
L 303.802131 84.729071 
L 304.814146 84.662538 
L 305.826162 84.410169 
L 306.838177 84.802488 
L 307.850193 95.14044 
L 308.862208 100.635201 
L 309.874224 103.544327 
L 311.898254 108.28657 
L 312.91027 109.559886 
L 313.922285 110.245871 
L 314.934301 109.006969 
L 315.946316 108.424226 
L 316.958331 108.107617 
L 317.970347 107.492755 
L 318.982362 103.608566 
L 322.018409 90.503733 
L 323.030424 83.65765 
L 325.054455 76.467428 
L 326.06647 78.532266 
L 327.078486 75.265234 
L 329.102516 70.910722 
L 330.114532 73.370172 
L 331.126547 71.252567 
L 334.162594 74.262641 
L 335.174609 74.680197 
L 336.186624 73.551419 
L 337.19864 72.892966 
L 338.210655 74.707728 
L 339.222671 73.560596 
L 340.234686 74.18693 
L 341.246701 73.87491 
L 342.258717 74.03092 
L 343.270732 74.462242 
L 344.282748 74.393414 
L 345.294763 81.964484 
L 346.306779 88.500841 
L 347.318794 96.372459 
L 348.330809 99.871211 
L 349.342825 102.259539 
L 350.35484 103.652157 
L 351.366856 108.187917 
L 352.378871 107.033902 
L 353.390886 107.132555 
L 355.414917 108.525173 
L 356.426933 108.557293 
L 357.438948 108.105323 
L 358.450964 105.478391 
L 360.474994 101.016049 
L 361.48701 101.128468 
L 362.499025 96.888668 
L 365.535071 86.624133 
L 367.559102 77.8784 
L 368.571118 78.084884 
L 369.583133 77.141942 
L 370.595148 78.059647 
L 371.607164 77.667328 
L 372.619179 82.434808 
L 373.631195 86.640193 
L 374.64321 92.655752 
L 375.655226 99.614254 
L 376.667241 103.074003 
L 377.679256 108.694949 
L 378.691272 113.262828 
L 379.703287 116.958886 
L 380.715303 119.663823 
L 381.727318 121.430406 
L 382.739333 121.100032 
L 383.751349 124.275293 
L 384.763364 123.022625 
L 385.77538 123.499832 
L 387.799411 123.495243 
L 389.823441 119.677589 
L 390.835457 116.348612 
L 391.847472 112.365771 
L 392.859488 109.908614 
L 393.871503 109.387816 
L 394.883518 101.149116 
L 395.895534 97.588419 
L 396.907549 93.598694 
L 397.919565 90.189419 
L 398.93158 89.028521 
L 399.943596 88.766975 
L 400.955611 88.126876 
L 401.967626 86.032213 
L 402.979642 86.156103 
L 403.991657 87.982337 
L 405.003673 86.424532 
L 406.015688 89.824631 
L 407.027703 98.698842 
L 408.039719 103.93894 
L 410.06375 112.659436 
L 411.075765 112.514898 
L 412.087781 115.859934 
L 413.099796 117.344323 
L 414.111811 116.717989 
L 416.135842 119.452751 
L 418.159873 123.408061 
L 419.171888 124.00457 
L 420.183904 126.560379 
L 421.195919 126.993995 
L 422.207935 125.12417 
L 423.21995 125.429307 
L 424.231966 125.29624 
L 425.243981 127.528559 
L 426.255996 122.724371 
L 427.268012 121.55659 
L 428.280027 117.408562 
L 429.292043 114.841281 
L 430.304058 110.835497 
L 431.316073 107.607468 
L 433.340104 94.777946 
L 434.35212 87.103634 
L 435.364135 83.049671 
L 436.376151 81.088075 
L 437.388166 82.253561 
L 438.400181 79.571567 
L 439.412197 78.878699 
L 440.424212 77.534261 
L 441.436228 76.928575 
L 442.448243 78.121592 
L 443.460258 76.89875 
L 444.472274 76.428426 
L 446.496305 76.159997 
L 448.520336 77.004286 
L 449.532351 76.921692 
L 450.544366 75.841094 
L 451.556382 77.185533 
L 452.568397 77.098351 
L 453.580413 77.403488 
L 454.592428 82.292564 
L 455.604443 76.767977 
L 457.628474 78.312016 
L 459.652505 79.346729 
L 460.664521 79.401791 
L 461.676536 78.367079 
L 462.688551 79.429323 
L 463.700567 79.452265 
L 464.712582 79.681692 
L 465.724598 80.319497 
L 466.736613 79.475208 
L 467.748628 81.15002 
L 468.760644 80.468624 
L 469.772659 80.57416 
L 470.784675 81.475806 
L 471.79669 83.595705 
L 472.808706 82.001192 
L 473.820721 82.274209 
L 474.832736 82.804184 
L 475.844752 83.118498 
L 476.856767 83.187326 
L 477.868783 82.602289 
L 478.880798 83.283685 
L 479.892813 84.715306 
L 481.916844 85.091565 
L 482.92886 84.320693 
L 483.940875 86.468123 
L 484.952891 87.062338 
L 485.964906 85.220044 
L 486.976921 85.564183 
L 487.988937 89.239594 
L 489.000952 86.35341 
L 490.012968 88.679793 
L 491.024983 85.942737 
L 492.036998 90.350017 
L 493.049014 90.152711 
L 494.061029 88.452661 
L 495.073045 91.084182 
L 496.08506 89.228122 
L 497.097075 89.627324 
L 498.109091 90.347723 
L 498.109091 90.347723 
" clip-path="url(#p1aeedb06ae)" style="fill: none; stroke: #008000; stroke-width: 1.5; stroke-linecap: square"/>
   </g>
   <g id="line2d_42">
    <path d="M 92.290909 365.21656 
L 93.302925 366.767482 
L 95.326955 367.432819 
L 97.350986 367.368579 
L 98.363002 367.210275 
L 99.375017 367.187332 
L 101.399048 366.689477 
L 102.411063 366.611472 
L 103.423079 366.099851 
L 105.447109 365.719004 
L 106.459125 365.294565 
L 108.483156 364.776061 
L 109.495171 364.046486 
L 110.507187 363.713817 
L 112.531217 362.720401 
L 113.543233 362.559803 
L 115.567264 361.277309 
L 117.591294 360.400901 
L 118.60331 360.098058 
L 120.627341 359.077111 
L 123.663387 357.014568 
L 124.675402 356.697959 
L 125.687418 356.00968 
L 126.699433 354.933671 
L 127.711449 354.589531 
L 129.735479 353.492873 
L 130.747495 352.292973 
L 131.75951 352.03831 
L 132.771526 350.923298 
L 133.783541 350.198311 
L 134.795557 349.237014 
L 135.807572 348.482201 
L 136.819587 347.91093 
L 137.831603 347.034521 
L 138.843618 345.869035 
L 139.855634 345.203699 
L 140.867649 344.074921 
L 141.879664 343.269635 
L 142.89168 341.938962 
L 144.915711 340.110434 
L 145.927726 338.447092 
L 150.987803 334.826745 
L 151.999819 334.104052 
L 153.011834 332.378765 
L 154.023849 331.534476 
L 155.035865 330.36899 
L 156.04788 328.95343 
L 157.059896 328.29727 
L 158.071911 327.393331 
L 159.083927 326.854179 
L 160.095942 325.954827 
L 161.107957 325.335376 
L 162.119973 324.181362 
L 163.131988 323.304953 
L 164.144004 322.199118 
L 165.156019 320.421064 
L 166.168034 318.145154 
L 168.192065 312.696278 
L 169.204081 311.677625 
L 173.252142 305.26057 
L 175.276173 302.500571 
L 176.288189 300.364611 
L 177.300204 299.295484 
L 178.312219 297.604612 
L 179.324235 295.248403 
L 181.348266 292.22227 
L 182.360281 290.203318 
L 183.372297 288.776286 
L 184.384312 286.422371 
L 185.396327 285.233943 
L 186.408343 282.758433 
L 187.420358 281.349755 
L 189.444389 277.004419 
L 191.46842 273.099583 
L 193.492451 269.587065 
L 194.504466 266.765121 
L 195.516482 264.785172 
L 196.528497 263.059885 
L 199.564543 256.170212 
L 200.576559 254.738591 
L 202.600589 249.702683 
L 203.612605 247.362534 
L 204.62462 245.488121 
L 205.636636 242.966725 
L 206.648651 240.773409 
L 207.660667 238.057001 
L 208.672682 237.09341 
L 209.684697 233.532713 
L 210.696713 231.366928 
L 211.708728 228.203139 
L 212.720744 226.360845 
L 213.732759 223.52743 
L 214.744774 221.67137 
L 215.75679 218.739302 
L 216.768805 216.575811 
L 217.780821 213.389079 
L 218.792836 211.457309 
L 220.816867 205.811126 
L 221.828882 203.498509 
L 222.840898 200.752275 
L 223.852913 201.665392 
L 224.864929 199.800156 
L 225.876944 200.775218 
L 226.888959 199.765742 
L 227.900975 199.249532 
L 228.91299 198.051927 
L 229.925006 197.627488 
L 231.949036 192.219909 
L 232.961052 188.739511 
L 234.985083 177.075475 
L 238.021129 166.141015 
L 241.057175 161.40336 
L 242.069191 160.226403 
L 243.081206 158.189097 
L 244.093221 155.84436 
L 245.105237 155.03219 
L 246.117252 153.951592 
L 247.129268 151.875284 
L 248.141283 150.556082 
L 249.153299 149.503015 
L 250.165314 147.883265 
L 251.177329 147.562068 
L 252.189345 151.866107 
L 253.20136 155.034485 
L 254.213376 157.253038 
L 255.225391 156.881367 
L 256.237406 156.163262 
L 257.249422 153.263313 
L 259.273453 150.037579 
L 260.285468 146.548004 
L 261.297484 140.507208 
L 262.309499 132.062023 
L 263.321514 127.393197 
L 264.33353 125.922574 
L 265.345545 125.01634 
L 266.357561 123.747612 
L 267.369576 122.784021 
L 268.381591 123.004271 
L 270.405622 119.943723 
L 271.417638 119.739534 
L 272.429653 117.030008 
L 273.441669 116.940532 
L 275.465699 113.811157 
L 276.477715 113.035696 
L 277.48973 111.760085 
L 278.501746 111.631606 
L 279.513761 116.135246 
L 280.525776 121.161977 
L 281.537792 124.90851 
L 282.549807 127.907112 
L 283.561823 128.345316 
L 284.573838 129.480977 
L 285.585854 130.102722 
L 286.597869 129.930653 
L 288.6219 127.028409 
L 289.633915 122.297638 
L 290.645931 119.156791 
L 291.657946 113.246768 
L 292.669961 108.213153 
L 293.681977 100.047869 
L 294.693992 95.530464 
L 295.706008 92.375852 
L 298.742054 88.250766 
L 299.754069 88.516901 
L 300.766085 86.830617 
L 301.7781 87.046278 
L 302.790116 85.252164 
L 303.802131 84.98144 
L 304.814146 84.047675 
L 305.826162 82.652763 
L 306.838177 83.942139 
L 307.850193 90.714805 
L 308.862208 95.418045 
L 309.874224 99.508717 
L 310.886239 102.167769 
L 311.898254 103.638392 
L 312.91027 104.75111 
L 313.922285 104.618042 
L 314.934301 102.190712 
L 315.946316 101.371659 
L 316.958331 96.154504 
L 317.970347 93.66064 
L 319.994378 79.557801 
L 321.006393 76.281593 
L 322.018409 73.45506 
L 323.030424 71.41546 
L 324.042439 70.816657 
L 325.054455 69.816358 
L 326.06647 71.266333 
L 327.078486 70.617056 
L 328.090501 70.272917 
L 329.102516 68.969775 
L 330.114532 71.422343 
L 331.126547 69.497456 
L 333.150578 71.293864 
L 334.162594 70.754712 
L 335.174609 70.940547 
L 336.186624 72.145036 
L 337.19864 69.933366 
L 338.210655 71.078203 
L 339.222671 70.977256 
L 340.234686 70.750123 
L 341.246701 71.238802 
L 342.258717 71.468228 
L 343.270732 71.862841 
L 344.282748 71.559998 
L 345.294763 78.213363 
L 346.306779 83.453461 
L 347.318794 89.514905 
L 348.330809 90.733159 
L 349.342825 93.750116 
L 350.35484 94.855951 
L 351.366856 98.506124 
L 352.378871 97.386524 
L 353.390886 98.460239 
L 354.402902 97.111212 
L 355.414917 97.469117 
L 356.426933 95.899841 
L 357.438948 93.461039 
L 358.450964 87.41336 
L 359.462979 82.216853 
L 360.474994 78.729572 
L 361.48701 79.888175 
L 362.499025 72.796607 
L 363.511041 72.532766 
L 364.523056 72.434113 
L 365.535071 74.565484 
L 366.547087 73.707429 
L 367.559102 73.289873 
L 369.583133 73.712018 
L 370.595148 74.560895 
L 371.607164 74.758202 
L 372.619179 79.220545 
L 373.631195 81.503337 
L 374.64321 87.491365 
L 375.655226 91.953707 
L 376.667241 94.929367 
L 377.679256 101.86722 
L 378.691272 104.693753 
L 379.703287 108.472405 
L 380.715303 111.528364 
L 381.727318 113.609261 
L 383.751349 113.916693 
L 384.763364 112.38183 
L 385.77538 113.421132 
L 386.787395 112.966868 
L 387.799411 109.043677 
L 388.811426 105.854651 
L 389.823441 107.29086 
L 390.835457 97.04009 
L 391.847472 91.203483 
L 392.859488 88.945928 
L 393.871503 86.206577 
L 394.883518 85.327874 
L 395.895534 84.935555 
L 396.907549 84.352812 
L 397.919565 83.302039 
L 398.93158 82.005781 
L 399.943596 80.17037 
L 400.955611 81.611167 
L 401.967626 81.055955 
L 402.979642 81.709821 
L 403.991657 81.606579 
L 405.003673 87.167874 
L 406.015688 88.136053 
L 407.027703 96.842783 
L 408.039719 101.456547 
L 409.051734 105.269613 
L 410.06375 108.307218 
L 411.075765 108.619238 
L 412.087781 110.427118 
L 413.099796 113.758389 
L 414.111811 112.007865 
L 415.123827 112.714499 
L 416.135842 112.471307 
L 417.147858 115.871405 
L 418.159873 118.030307 
L 419.171888 121.022027 
L 420.183904 120.384222 
L 421.195919 121.017439 
L 422.207935 119.783125 
L 423.21995 120.895843 
L 424.231966 119.757888 
L 426.255996 114.845869 
L 427.268012 110.645073 
L 428.280027 104.537743 
L 431.316073 89.326776 
L 432.328089 83.760892 
L 433.340104 80.135956 
L 434.35212 76.962989 
L 435.364135 75.811269 
L 436.376151 74.845384 
L 437.388166 76.60279 
L 438.400181 74.152516 
L 439.412197 75.311119 
L 440.424212 74.664137 
L 441.436228 75.779149 
L 442.448243 74.464536 
L 443.460258 76.260945 
L 444.472274 74.51501 
L 445.484289 74.753613 
L 446.496305 74.154811 
L 447.50832 76.318301 
L 448.520336 75.437304 
L 449.532351 75.097753 
L 450.544366 75.517603 
L 451.556382 76.896456 
L 452.568397 75.96269 
L 453.580413 76.988226 
L 454.592428 78.890171 
L 455.604443 76.10264 
L 456.616459 76.972166 
L 457.628474 78.078001 
L 458.64049 77.81875 
L 459.652505 78.20648 
L 460.664521 76.708326 
L 461.676536 77.004286 
L 462.688551 77.938051 
L 463.700567 77.793513 
L 464.712582 79.704634 
L 465.724598 79.638101 
L 466.736613 78.963587 
L 467.748628 80.103836 
L 469.772659 79.895058 
L 472.808706 79.236604 
L 473.820721 81.808474 
L 474.832736 81.005482 
L 475.844752 81.04219 
L 477.868783 82.090668 
L 478.880798 83.852663 
L 479.892813 83.295157 
L 480.904829 82.232913 
L 481.916844 83.815955 
L 482.92886 84.084383 
L 483.940875 83.373162 
L 484.952891 83.717301 
L 485.964906 83.611765 
L 486.976921 84.300044 
L 487.988937 85.575655 
L 489.000952 85.288872 
L 490.012968 86.130866 
L 491.024983 84.719894 
L 492.036998 85.460942 
L 493.049014 88.62932 
L 494.061029 86.876502 
L 495.073045 86.908622 
L 496.08506 87.360592 
L 497.097075 86.24558 
L 498.109091 85.981739 
L 498.109091 85.981739 
" clip-path="url(#p1aeedb06ae)" style="fill: none; stroke: #008000; stroke-width: 1.5; stroke-linecap: square"/>
   </g>
   <g id="patch_3">
    <path d="M 72 384.48 
L 72 51.84 
" style="fill: none; stroke: #000000; stroke-width: 0.8; stroke-linejoin: miter; stroke-linecap: square"/>
   </g>
   <g id="patch_4">
    <path d="M 518.4 384.48 
L 518.4 51.84 
" style="fill: none; stroke: #000000; stroke-width: 0.8; stroke-linejoin: miter; stroke-linecap: square"/>
   </g>
   <g id="patch_5">
    <path d="M 72 384.48 
L 518.4 384.48 
" style="fill: none; stroke: #000000; stroke-width: 0.8; stroke-linejoin: miter; stroke-linecap: square"/>
   </g>
   <g id="patch_6">
    <path d="M 72 51.84 
L 518.4 51.84 
" style="fill: none; stroke: #000000; stroke-width: 0.8; stroke-linejoin: miter; stroke-linecap: square"/>
   </g>
   <g id="text_22">
    <!-- M29: Isoleucin; Threonin; Tryptophan; Phenylalanin; Methionin; Histidin; Arginin -->
    <g transform="translate(96.171094 45.84) scale(0.1 -0.1)">
     <defs>
      <path id="DejaVuSans-4d" d="M 628 4666 
L 1569 4666 
L 2759 1491 
L 3956 4666 
L 4897 4666 
L 4897 0 
L 4281 0 
L 4281 4097 
L 3078 897 
L 2444 897 
L 1241 4097 
L 1241 0 
L 628 0 
L 628 4666 
z
" transform="scale(0.015625)"/>
      <path id="DejaVuSans-39" d="M 703 97 
L 703 672 
Q 941 559 1184 500 
Q 1428 441 1663 441 
Q 2288 441 2617 861 
Q 2947 1281 2994 2138 
Q 2813 1869 2534 1725 
Q 2256 1581 1919 1581 
Q 1219 1581 811 2004 
Q 403 2428 403 3163 
Q 403 3881 828 4315 
Q 1253 4750 1959 4750 
Q 2769 4750 3195 4129 
Q 3622 3509 3622 2328 
Q 3622 1225 3098 567 
Q 2575 -91 1691 -91 
Q 1453 -91 1209 -44 
Q 966 3 703 97 
z
M 1959 2075 
Q 2384 2075 2632 2365 
Q 2881 2656 2881 3163 
Q 2881 3666 2632 3958 
Q 2384 4250 1959 4250 
Q 1534 4250 1286 3958 
Q 1038 3666 1038 3163 
Q 1038 2656 1286 2365 
Q 1534 2075 1959 2075 
z
" transform="scale(0.015625)"/>
      <path id="DejaVuSans-3a" d="M 750 794 
L 1409 794 
L 1409 0 
L 750 0 
L 750 794 
z
M 750 3309 
L 1409 3309 
L 1409 2516 
L 750 2516 
L 750 3309 
z
" transform="scale(0.015625)"/>
      <path id="DejaVuSans-49" d="M 628 4666 
L 1259 4666 
L 1259 0 
L 628 0 
L 628 4666 
z
" transform="scale(0.015625)"/>
      <path id="DejaVuSans-3b" d="M 750 3309 
L 1409 3309 
L 1409 2516 
L 750 2516 
L 750 3309 
z
M 750 794 
L 1409 794 
L 1409 256 
L 897 -744 
L 494 -744 
L 750 256 
L 750 794 
z
" transform="scale(0.015625)"/>
      <path id="DejaVuSans-54" d="M -19 4666 
L 3928 4666 
L 3928 4134 
L 2272 4134 
L 2272 0 
L 1638 0 
L 1638 4134 
L -19 4134 
L -19 4666 
z
" transform="scale(0.015625)"/>
      <path id="DejaVuSans-79" d="M 2059 -325 
Q 1816 -950 1584 -1140 
Q 1353 -1331 966 -1331 
L 506 -1331 
L 506 -850 
L 844 -850 
Q 1081 -850 1212 -737 
Q 1344 -625 1503 -206 
L 1606 56 
L 191 3500 
L 800 3500 
L 1894 763 
L 2988 3500 
L 3597 3500 
L 2059 -325 
z
" transform="scale(0.015625)"/>
      <path id="DejaVuSans-70" d="M 1159 525 
L 1159 -1331 
L 581 -1331 
L 581 3500 
L 1159 3500 
L 1159 2969 
Q 1341 3281 1617 3432 
Q 1894 3584 2278 3584 
Q 2916 3584 3314 3078 
Q 3713 2572 3713 1747 
Q 3713 922 3314 415 
Q 2916 -91 2278 -91 
Q 1894 -91 1617 61 
Q 1341 213 1159 525 
z
M 3116 1747 
Q 3116 2381 2855 2742 
Q 2594 3103 2138 3103 
Q 1681 3103 1420 2742 
Q 1159 2381 1159 1747 
Q 1159 1113 1420 752 
Q 1681 391 2138 391 
Q 2594 391 2855 752 
Q 3116 1113 3116 1747 
z
" transform="scale(0.015625)"/>
      <path id="DejaVuSans-48" d="M 628 4666 
L 1259 4666 
L 1259 2753 
L 3553 2753 
L 3553 4666 
L 4184 4666 
L 4184 0 
L 3553 0 
L 3553 2222 
L 1259 2222 
L 1259 0 
L 628 0 
L 628 4666 
z
" transform="scale(0.015625)"/>
      <path id="DejaVuSans-41" d="M 2188 4044 
L 1331 1722 
L 3047 1722 
L 2188 4044 
z
M 1831 4666 
L 2547 4666 
L 4325 0 
L 3669 0 
L 3244 1197 
L 1141 1197 
L 716 0 
L 50 0 
L 1831 4666 
z
" transform="scale(0.015625)"/>
      <path id="DejaVuSans-67" d="M 2906 1791 
Q 2906 2416 2648 2759 
Q 2391 3103 1925 3103 
Q 1463 3103 1205 2759 
Q 947 2416 947 1791 
Q 947 1169 1205 825 
Q 1463 481 1925 481 
Q 2391 481 2648 825 
Q 2906 1169 2906 1791 
z
M 3481 434 
Q 3481 -459 3084 -895 
Q 2688 -1331 1869 -1331 
Q 1566 -1331 1297 -1286 
Q 1028 -1241 775 -1147 
L 775 -588 
Q 1028 -725 1275 -790 
Q 1522 -856 1778 -856 
Q 2344 -856 2625 -561 
Q 2906 -266 2906 331 
L 2906 616 
Q 2728 306 2450 153 
Q 2172 0 1784 0 
Q 1141 0 747 490 
Q 353 981 353 1791 
Q 353 2603 747 3093 
Q 1141 3584 1784 3584 
Q 2172 3584 2450 3431 
Q 2728 3278 2906 2969 
L 2906 3500 
L 3481 3500 
L 3481 434 
z
" transform="scale(0.015625)"/>
     </defs>
     <use xlink:href="#DejaVuSans-4d"/>
     <use xlink:href="#DejaVuSans-32" x="86.279297"/>
     <use xlink:href="#DejaVuSans-39" x="149.902344"/>
     <use xlink:href="#DejaVuSans-3a" x="213.525391"/>
     <use xlink:href="#DejaVuSans-20" x="247.216797"/>
     <use xlink:href="#DejaVuSans-49" x="279.003906"/>
     <use xlink:href="#DejaVuSans-73" x="308.496094"/>
     <use xlink:href="#DejaVuSans-6f" x="360.595703"/>
     <use xlink:href="#DejaVuSans-6c" x="421.777344"/>
     <use xlink:href="#DejaVuSans-65" x="449.560547"/>
     <use xlink:href="#DejaVuSans-75" x="511.083984"/>
     <use xlink:href="#DejaVuSans-63" x="574.462891"/>
     <use xlink:href="#DejaVuSans-69" x="629.443359"/>
     <use xlink:href="#DejaVuSans-6e" x="657.226562"/>
     <use xlink:href="#DejaVuSans-3b" x="720.605469"/>
     <use xlink:href="#DejaVuSans-20" x="754.296875"/>
     <use xlink:href="#DejaVuSans-54" x="786.083984"/>
     <use xlink:href="#DejaVuSans-68" x="847.167969"/>
     <use xlink:href="#DejaVuSans-72" x="910.546875"/>
     <use xlink:href="#DejaVuSans-65" x="949.410156"/>
     <use xlink:href="#DejaVuSans-6f" x="1010.933594"/>
     <use xlink:href="#DejaVuSans-6e" x="1072.115234"/>
     <use xlink:href="#DejaVuSans-69" x="1135.494141"/>
     <use xlink:href="#DejaVuSans-6e" x="1163.277344"/>
     <use xlink:href="#DejaVuSans-3b" x="1226.65625"/>
     <use xlink:href="#DejaVuSans-20" x="1260.347656"/>
     <use xlink:href="#DejaVuSans-54" x="1292.134766"/>
     <use xlink:href="#DejaVuSans-72" x="1338.46875"/>
     <use xlink:href="#DejaVuSans-79" x="1379.582031"/>
     <use xlink:href="#DejaVuSans-70" x="1438.761719"/>
     <use xlink:href="#DejaVuSans-74" x="1502.238281"/>
     <use xlink:href="#DejaVuSans-6f" x="1541.447266"/>
     <use xlink:href="#DejaVuSans-70" x="1602.628906"/>
     <use xlink:href="#DejaVuSans-68" x="1666.105469"/>
     <use xlink:href="#DejaVuSans-61" x="1729.484375"/>
     <use xlink:href="#DejaVuSans-6e" x="1790.763672"/>
     <use xlink:href="#DejaVuSans-3b" x="1854.142578"/>
     <use xlink:href="#DejaVuSans-20" x="1887.833984"/>
     <use xlink:href="#DejaVuSans-50" x="1919.621094"/>
     <use xlink:href="#DejaVuSans-68" x="1979.923828"/>
     <use xlink:href="#DejaVuSans-65" x="2043.302734"/>
     <use xlink:href="#DejaVuSans-6e" x="2104.826172"/>
     <use xlink:href="#DejaVuSans-79" x="2168.205078"/>
     <use xlink:href="#DejaVuSans-6c" x="2227.384766"/>
     <use xlink:href="#DejaVuSans-61" x="2255.167969"/>
     <use xlink:href="#DejaVuSans-6c" x="2316.447266"/>
     <use xlink:href="#DejaVuSans-61" x="2344.230469"/>
     <use xlink:href="#DejaVuSans-6e" x="2405.509766"/>
     <use xlink:href="#DejaVuSans-69" x="2468.888672"/>
     <use xlink:href="#DejaVuSans-6e" x="2496.671875"/>
     <use xlink:href="#DejaVuSans-3b" x="2560.050781"/>
     <use xlink:href="#DejaVuSans-20" x="2593.742188"/>
     <use xlink:href="#DejaVuSans-4d" x="2625.529297"/>
     <use xlink:href="#DejaVuSans-65" x="2711.808594"/>
     <use xlink:href="#DejaVuSans-74" x="2773.332031"/>
     <use xlink:href="#DejaVuSans-68" x="2812.541016"/>
     <use xlink:href="#DejaVuSans-69" x="2875.919922"/>
     <use xlink:href="#DejaVuSans-6f" x="2903.703125"/>
     <use xlink:href="#DejaVuSans-6e" x="2964.884766"/>
     <use xlink:href="#DejaVuSans-69" x="3028.263672"/>
     <use xlink:href="#DejaVuSans-6e" x="3056.046875"/>
     <use xlink:href="#DejaVuSans-3b" x="3119.425781"/>
     <use xlink:href="#DejaVuSans-20" x="3153.117188"/>
     <use xlink:href="#DejaVuSans-48" x="3184.904297"/>
     <use xlink:href="#DejaVuSans-69" x="3260.099609"/>
     <use xlink:href="#DejaVuSans-73" x="3287.882812"/>
     <use xlink:href="#DejaVuSans-74" x="3339.982422"/>
     <use xlink:href="#DejaVuSans-69" x="3379.191406"/>
     <use xlink:href="#DejaVuSans-64" x="3406.974609"/>
     <use xlink:href="#DejaVuSans-69" x="3470.451172"/>
     <use xlink:href="#DejaVuSans-6e" x="3498.234375"/>
     <use xlink:href="#DejaVuSans-3b" x="3561.613281"/>
     <use xlink:href="#DejaVuSans-20" x="3595.304688"/>
     <use xlink:href="#DejaVuSans-41" x="3627.091797"/>
     <use xlink:href="#DejaVuSans-72" x="3695.5"/>
     <use xlink:href="#DejaVuSans-67" x="3734.863281"/>
     <use xlink:href="#DejaVuSans-69" x="3798.339844"/>
     <use xlink:href="#DejaVuSans-6e" x="3826.123047"/>
     <use xlink:href="#DejaVuSans-69" x="3889.501953"/>
     <use xlink:href="#DejaVuSans-6e" x="3917.285156"/>
    </g>
   </g>
  </g>
 </g>
 <defs>
  <clipPath id="p1aeedb06ae">
   <rect x="72" y="51.84" width="446.4" height="332.64"/>
  </clipPath>
 </defs>
</svg>
