<?xml version="1.0" encoding="utf-8" standalone="no"?>
<!DOCTYPE svg PUBLIC "-//W3C//DTD SVG 1.1//EN"
  "http://www.w3.org/Graphics/SVG/1.1/DTD/svg11.dtd">
<svg xmlns:xlink="http://www.w3.org/1999/xlink" width="864pt" height="576pt" viewBox="0 0 864 576" xmlns="http://www.w3.org/2000/svg" version="1.1">
 <metadata>
  <rdf:RDF xmlns:dc="http://purl.org/dc/elements/1.1/" xmlns:cc="http://creativecommons.org/ns#" xmlns:rdf="http://www.w3.org/1999/02/22-rdf-syntax-ns#">
   <cc:Work>
    <dc:type rdf:resource="http://purl.org/dc/dcmitype/StillImage"/>
    <dc:date>2025-02-18T16:53:06.412876</dc:date>
    <dc:format>image/svg+xml</dc:format>
    <dc:creator>
     <cc:Agent>
      <dc:title>Matplotlib v3.7.5, https://matplotlib.org/</dc:title>
     </cc:Agent>
    </dc:creator>
   </cc:Work>
  </rdf:RDF>
 </metadata>
 <defs>
  <style type="text/css">*{stroke-linejoin: round; stroke-linecap: butt}</style>
 </defs>
 <g id="figure_1">
  <g id="patch_1">
   <path d="M 0 576 
L 864 576 
L 864 0 
L 0 0 
z
" style="fill: #ffffff"/>
  </g>
  <g id="axes_1">
   <g id="patch_2">
    <path d="M 107.35 416.64 
L 853.2 416.64 
L 853.2 10.8 
L 107.35 10.8 
z
" style="fill: #ffffff"/>
   </g>
   <g id="matplotlib.axis_1">
    <g id="xtick_1"/>
    <g id="xtick_2"/>
    <g id="xtick_3"/>
    <g id="xtick_4"/>
    <g id="xtick_5"/>
    <g id="xtick_6"/>
    <g id="xtick_7"/>
    <g id="xtick_8"/>
    <g id="xtick_9"/>
    <g id="xtick_10"/>
    <g id="xtick_11"/>
    <g id="xtick_12"/>
    <g id="xtick_13"/>
    <g id="xtick_14"/>
    <g id="xtick_15"/>
    <g id="xtick_16"/>
    <g id="xtick_17"/>
   </g>
   <g id="matplotlib.axis_2">
    <g id="ytick_1">
     <g id="line2d_1">
      <defs>
       <path id="mcfe0865ce3" d="M 0 0 
L -3.5 0 
" style="stroke: #000000; stroke-width: 0.8"/>
      </defs>
      <g>
       <use xlink:href="#mcfe0865ce3" x="107.35" y="398.192727" style="stroke: #000000; stroke-width: 0.8"/>
      </g>
     </g>
     <g id="text_1">
      <!-- 0 -->
      <g transform="translate(90.17 404.271477) scale(0.16 -0.16)">
       <defs>
        <path id="DejaVuSans-30" d="M 2034 4250 
Q 1547 4250 1301 3770 
Q 1056 3291 1056 2328 
Q 1056 1369 1301 889 
Q 1547 409 2034 409 
Q 2525 409 2770 889 
Q 3016 1369 3016 2328 
Q 3016 3291 2770 3770 
Q 2525 4250 2034 4250 
z
M 2034 4750 
Q 2819 4750 3233 4129 
Q 3647 3509 3647 2328 
Q 3647 1150 3233 529 
Q 2819 -91 2034 -91 
Q 1250 -91 836 529 
Q 422 1150 422 2328 
Q 422 3509 836 4129 
Q 1250 4750 2034 4750 
z
" transform="scale(0.015625)"/>
       </defs>
       <use xlink:href="#DejaVuSans-30"/>
      </g>
     </g>
    </g>
    <g id="ytick_2">
     <g id="line2d_2">
      <g>
       <use xlink:href="#mcfe0865ce3" x="107.35" y="290.941142" style="stroke: #000000; stroke-width: 0.8"/>
      </g>
     </g>
     <g id="text_2">
      <!-- 2 -->
      <g transform="translate(90.17 297.019892) scale(0.16 -0.16)">
       <defs>
        <path id="DejaVuSans-32" d="M 1228 531 
L 3431 531 
L 3431 0 
L 469 0 
L 469 531 
Q 828 903 1448 1529 
Q 2069 2156 2228 2338 
Q 2531 2678 2651 2914 
Q 2772 3150 2772 3378 
Q 2772 3750 2511 3984 
Q 2250 4219 1831 4219 
Q 1534 4219 1204 4116 
Q 875 4013 500 3803 
L 500 4441 
Q 881 4594 1212 4672 
Q 1544 4750 1819 4750 
Q 2544 4750 2975 4387 
Q 3406 4025 3406 3419 
Q 3406 3131 3298 2873 
Q 3191 2616 2906 2266 
Q 2828 2175 2409 1742 
Q 1991 1309 1228 531 
z
" transform="scale(0.015625)"/>
       </defs>
       <use xlink:href="#DejaVuSans-32"/>
      </g>
     </g>
    </g>
    <g id="ytick_3">
     <g id="line2d_3">
      <g>
       <use xlink:href="#mcfe0865ce3" x="107.35" y="183.689556" style="stroke: #000000; stroke-width: 0.8"/>
      </g>
     </g>
     <g id="text_3">
      <!-- 4 -->
      <g transform="translate(90.17 189.768306) scale(0.16 -0.16)">
       <defs>
        <path id="DejaVuSans-34" d="M 2419 4116 
L 825 1625 
L 2419 1625 
L 2419 4116 
z
M 2253 4666 
L 3047 4666 
L 3047 1625 
L 3713 1625 
L 3713 1100 
L 3047 1100 
L 3047 0 
L 2419 0 
L 2419 1100 
L 313 1100 
L 313 1709 
L 2253 4666 
z
" transform="scale(0.015625)"/>
       </defs>
       <use xlink:href="#DejaVuSans-34"/>
      </g>
     </g>
    </g>
    <g id="ytick_4">
     <g id="line2d_4">
      <g>
       <use xlink:href="#mcfe0865ce3" x="107.35" y="76.43797" style="stroke: #000000; stroke-width: 0.8"/>
      </g>
     </g>
     <g id="text_4">
      <!-- 6 -->
      <g transform="translate(90.17 82.51672) scale(0.16 -0.16)">
       <defs>
        <path id="DejaVuSans-36" d="M 2113 2584 
Q 1688 2584 1439 2293 
Q 1191 2003 1191 1497 
Q 1191 994 1439 701 
Q 1688 409 2113 409 
Q 2538 409 2786 701 
Q 3034 994 3034 1497 
Q 3034 2003 2786 2293 
Q 2538 2584 2113 2584 
z
M 3366 4563 
L 3366 3988 
Q 3128 4100 2886 4159 
Q 2644 4219 2406 4219 
Q 1781 4219 1451 3797 
Q 1122 3375 1075 2522 
Q 1259 2794 1537 2939 
Q 1816 3084 2150 3084 
Q 2853 3084 3261 2657 
Q 3669 2231 3669 1497 
Q 3669 778 3244 343 
Q 2819 -91 2113 -91 
Q 1303 -91 875 529 
Q 447 1150 447 2328 
Q 447 3434 972 4092 
Q 1497 4750 2381 4750 
Q 2619 4750 2861 4703 
Q 3103 4656 3366 4563 
z
" transform="scale(0.015625)"/>
       </defs>
       <use xlink:href="#DejaVuSans-36"/>
      </g>
     </g>
    </g>
    <g id="text_5">
     <!-- Generation time in hours -->
     <g transform="translate(76.8425 313.83375) rotate(-90) scale(0.16 -0.16)">
      <defs>
       <path id="DejaVuSans-47" d="M 3809 666 
L 3809 1919 
L 2778 1919 
L 2778 2438 
L 4434 2438 
L 4434 434 
Q 4069 175 3628 42 
Q 3188 -91 2688 -91 
Q 1594 -91 976 548 
Q 359 1188 359 2328 
Q 359 3472 976 4111 
Q 1594 4750 2688 4750 
Q 3144 4750 3555 4637 
Q 3966 4525 4313 4306 
L 4313 3634 
Q 3963 3931 3569 4081 
Q 3175 4231 2741 4231 
Q 1884 4231 1454 3753 
Q 1025 3275 1025 2328 
Q 1025 1384 1454 906 
Q 1884 428 2741 428 
Q 3075 428 3337 486 
Q 3600 544 3809 666 
z
" transform="scale(0.015625)"/>
       <path id="DejaVuSans-65" d="M 3597 1894 
L 3597 1613 
L 953 1613 
Q 991 1019 1311 708 
Q 1631 397 2203 397 
Q 2534 397 2845 478 
Q 3156 559 3463 722 
L 3463 178 
Q 3153 47 2828 -22 
Q 2503 -91 2169 -91 
Q 1331 -91 842 396 
Q 353 884 353 1716 
Q 353 2575 817 3079 
Q 1281 3584 2069 3584 
Q 2775 3584 3186 3129 
Q 3597 2675 3597 1894 
z
M 3022 2063 
Q 3016 2534 2758 2815 
Q 2500 3097 2075 3097 
Q 1594 3097 1305 2825 
Q 1016 2553 972 2059 
L 3022 2063 
z
" transform="scale(0.015625)"/>
       <path id="DejaVuSans-6e" d="M 3513 2113 
L 3513 0 
L 2938 0 
L 2938 2094 
Q 2938 2591 2744 2837 
Q 2550 3084 2163 3084 
Q 1697 3084 1428 2787 
Q 1159 2491 1159 1978 
L 1159 0 
L 581 0 
L 581 3500 
L 1159 3500 
L 1159 2956 
Q 1366 3272 1645 3428 
Q 1925 3584 2291 3584 
Q 2894 3584 3203 3211 
Q 3513 2838 3513 2113 
z
" transform="scale(0.015625)"/>
       <path id="DejaVuSans-72" d="M 2631 2963 
Q 2534 3019 2420 3045 
Q 2306 3072 2169 3072 
Q 1681 3072 1420 2755 
Q 1159 2438 1159 1844 
L 1159 0 
L 581 0 
L 581 3500 
L 1159 3500 
L 1159 2956 
Q 1341 3275 1631 3429 
Q 1922 3584 2338 3584 
Q 2397 3584 2469 3576 
Q 2541 3569 2628 3553 
L 2631 2963 
z
" transform="scale(0.015625)"/>
       <path id="DejaVuSans-61" d="M 2194 1759 
Q 1497 1759 1228 1600 
Q 959 1441 959 1056 
Q 959 750 1161 570 
Q 1363 391 1709 391 
Q 2188 391 2477 730 
Q 2766 1069 2766 1631 
L 2766 1759 
L 2194 1759 
z
M 3341 1997 
L 3341 0 
L 2766 0 
L 2766 531 
Q 2569 213 2275 61 
Q 1981 -91 1556 -91 
Q 1019 -91 701 211 
Q 384 513 384 1019 
Q 384 1609 779 1909 
Q 1175 2209 1959 2209 
L 2766 2209 
L 2766 2266 
Q 2766 2663 2505 2880 
Q 2244 3097 1772 3097 
Q 1472 3097 1187 3025 
Q 903 2953 641 2809 
L 641 3341 
Q 956 3463 1253 3523 
Q 1550 3584 1831 3584 
Q 2591 3584 2966 3190 
Q 3341 2797 3341 1997 
z
" transform="scale(0.015625)"/>
       <path id="DejaVuSans-74" d="M 1172 4494 
L 1172 3500 
L 2356 3500 
L 2356 3053 
L 1172 3053 
L 1172 1153 
Q 1172 725 1289 603 
Q 1406 481 1766 481 
L 2356 481 
L 2356 0 
L 1766 0 
Q 1100 0 847 248 
Q 594 497 594 1153 
L 594 3053 
L 172 3053 
L 172 3500 
L 594 3500 
L 594 4494 
L 1172 4494 
z
" transform="scale(0.015625)"/>
       <path id="DejaVuSans-69" d="M 603 3500 
L 1178 3500 
L 1178 0 
L 603 0 
L 603 3500 
z
M 603 4863 
L 1178 4863 
L 1178 4134 
L 603 4134 
L 603 4863 
z
" transform="scale(0.015625)"/>
       <path id="DejaVuSans-6f" d="M 1959 3097 
Q 1497 3097 1228 2736 
Q 959 2375 959 1747 
Q 959 1119 1226 758 
Q 1494 397 1959 397 
Q 2419 397 2687 759 
Q 2956 1122 2956 1747 
Q 2956 2369 2687 2733 
Q 2419 3097 1959 3097 
z
M 1959 3584 
Q 2709 3584 3137 3096 
Q 3566 2609 3566 1747 
Q 3566 888 3137 398 
Q 2709 -91 1959 -91 
Q 1206 -91 779 398 
Q 353 888 353 1747 
Q 353 2609 779 3096 
Q 1206 3584 1959 3584 
z
" transform="scale(0.015625)"/>
       <path id="DejaVuSans-20" transform="scale(0.015625)"/>
       <path id="DejaVuSans-6d" d="M 3328 2828 
Q 3544 3216 3844 3400 
Q 4144 3584 4550 3584 
Q 5097 3584 5394 3201 
Q 5691 2819 5691 2113 
L 5691 0 
L 5113 0 
L 5113 2094 
Q 5113 2597 4934 2840 
Q 4756 3084 4391 3084 
Q 3944 3084 3684 2787 
Q 3425 2491 3425 1978 
L 3425 0 
L 2847 0 
L 2847 2094 
Q 2847 2600 2669 2842 
Q 2491 3084 2119 3084 
Q 1678 3084 1418 2786 
Q 1159 2488 1159 1978 
L 1159 0 
L 581 0 
L 581 3500 
L 1159 3500 
L 1159 2956 
Q 1356 3278 1631 3431 
Q 1906 3584 2284 3584 
Q 2666 3584 2933 3390 
Q 3200 3197 3328 2828 
z
" transform="scale(0.015625)"/>
       <path id="DejaVuSans-68" d="M 3513 2113 
L 3513 0 
L 2938 0 
L 2938 2094 
Q 2938 2591 2744 2837 
Q 2550 3084 2163 3084 
Q 1697 3084 1428 2787 
Q 1159 2491 1159 1978 
L 1159 0 
L 581 0 
L 581 4863 
L 1159 4863 
L 1159 2956 
Q 1366 3272 1645 3428 
Q 1925 3584 2291 3584 
Q 2894 3584 3203 3211 
Q 3513 2838 3513 2113 
z
" transform="scale(0.015625)"/>
       <path id="DejaVuSans-75" d="M 544 1381 
L 544 3500 
L 1119 3500 
L 1119 1403 
Q 1119 906 1312 657 
Q 1506 409 1894 409 
Q 2359 409 2629 706 
Q 2900 1003 2900 1516 
L 2900 3500 
L 3475 3500 
L 3475 0 
L 2900 0 
L 2900 538 
Q 2691 219 2414 64 
Q 2138 -91 1772 -91 
Q 1169 -91 856 284 
Q 544 659 544 1381 
z
M 1991 3584 
L 1991 3584 
z
" transform="scale(0.015625)"/>
       <path id="DejaVuSans-73" d="M 2834 3397 
L 2834 2853 
Q 2591 2978 2328 3040 
Q 2066 3103 1784 3103 
Q 1356 3103 1142 2972 
Q 928 2841 928 2578 
Q 928 2378 1081 2264 
Q 1234 2150 1697 2047 
L 1894 2003 
Q 2506 1872 2764 1633 
Q 3022 1394 3022 966 
Q 3022 478 2636 193 
Q 2250 -91 1575 -91 
Q 1294 -91 989 -36 
Q 684 19 347 128 
L 347 722 
Q 666 556 975 473 
Q 1284 391 1588 391 
Q 1994 391 2212 530 
Q 2431 669 2431 922 
Q 2431 1156 2273 1281 
Q 2116 1406 1581 1522 
L 1381 1569 
Q 847 1681 609 1914 
Q 372 2147 372 2553 
Q 372 3047 722 3315 
Q 1072 3584 1716 3584 
Q 2034 3584 2315 3537 
Q 2597 3491 2834 3397 
z
" transform="scale(0.015625)"/>
      </defs>
      <use xlink:href="#DejaVuSans-47"/>
      <use xlink:href="#DejaVuSans-65" x="77.490234"/>
      <use xlink:href="#DejaVuSans-6e" x="139.013672"/>
      <use xlink:href="#DejaVuSans-65" x="202.392578"/>
      <use xlink:href="#DejaVuSans-72" x="263.916016"/>
      <use xlink:href="#DejaVuSans-61" x="305.029297"/>
      <use xlink:href="#DejaVuSans-74" x="366.308594"/>
      <use xlink:href="#DejaVuSans-69" x="405.517578"/>
      <use xlink:href="#DejaVuSans-6f" x="433.300781"/>
      <use xlink:href="#DejaVuSans-6e" x="494.482422"/>
      <use xlink:href="#DejaVuSans-20" x="557.861328"/>
      <use xlink:href="#DejaVuSans-74" x="589.648438"/>
      <use xlink:href="#DejaVuSans-69" x="628.857422"/>
      <use xlink:href="#DejaVuSans-6d" x="656.640625"/>
      <use xlink:href="#DejaVuSans-65" x="754.052734"/>
      <use xlink:href="#DejaVuSans-20" x="815.576172"/>
      <use xlink:href="#DejaVuSans-69" x="847.363281"/>
      <use xlink:href="#DejaVuSans-6e" x="875.146484"/>
      <use xlink:href="#DejaVuSans-20" x="938.525391"/>
      <use xlink:href="#DejaVuSans-68" x="970.3125"/>
      <use xlink:href="#DejaVuSans-6f" x="1033.691406"/>
      <use xlink:href="#DejaVuSans-75" x="1094.873047"/>
      <use xlink:href="#DejaVuSans-72" x="1158.251953"/>
      <use xlink:href="#DejaVuSans-73" x="1199.365234"/>
     </g>
    </g>
   </g>
   <g id="line2d_5">
    <path d="M 118.318382 128.857183 
L 140.255147 128.857183 
L 140.255147 110.22222 
L 118.318382 110.22222 
L 118.318382 128.857183 
" clip-path="url(#p1fc8e3945c)" style="fill: none; stroke: #000000; stroke-linecap: square"/>
   </g>
   <g id="line2d_6">
    <path d="M 129.286765 128.857183 
L 129.286765 150.977822 
" clip-path="url(#p1fc8e3945c)" style="fill: none; stroke: #000000; stroke-linecap: square"/>
   </g>
   <g id="line2d_7">
    <path d="M 129.286765 110.22222 
L 129.286765 87.699387 
" clip-path="url(#p1fc8e3945c)" style="fill: none; stroke: #000000; stroke-linecap: square"/>
   </g>
   <g id="line2d_8">
    <path d="M 123.802574 150.977822 
L 134.770956 150.977822 
" clip-path="url(#p1fc8e3945c)" style="fill: none; stroke: #000000; stroke-linecap: square"/>
   </g>
   <g id="line2d_9">
    <path d="M 123.802574 87.699387 
L 134.770956 87.699387 
" clip-path="url(#p1fc8e3945c)" style="fill: none; stroke: #000000; stroke-linecap: square"/>
   </g>
   <g id="line2d_10"/>
   <g id="line2d_11">
    <path d="M 162.191912 166.931496 
L 184.128676 166.931496 
L 184.128676 136.096665 
L 162.191912 136.096665 
L 162.191912 166.931496 
" clip-path="url(#p1fc8e3945c)" style="fill: none; stroke: #000000; stroke-linecap: square"/>
   </g>
   <g id="line2d_12">
    <path d="M 173.160294 166.931496 
L 173.160294 189.052135 
" clip-path="url(#p1fc8e3945c)" style="fill: none; stroke: #000000; stroke-linecap: square"/>
   </g>
   <g id="line2d_13">
    <path d="M 173.160294 136.096665 
L 173.160294 98.424545 
" clip-path="url(#p1fc8e3945c)" style="fill: none; stroke: #000000; stroke-linecap: square"/>
   </g>
   <g id="line2d_14">
    <path d="M 167.676103 189.052135 
L 178.644485 189.052135 
" clip-path="url(#p1fc8e3945c)" style="fill: none; stroke: #000000; stroke-linecap: square"/>
   </g>
   <g id="line2d_15">
    <path d="M 167.676103 98.424545 
L 178.644485 98.424545 
" clip-path="url(#p1fc8e3945c)" style="fill: none; stroke: #000000; stroke-linecap: square"/>
   </g>
   <g id="line2d_16"/>
   <g id="line2d_17">
    <path d="M 206.065441 218.546321 
L 228.002206 218.546321 
L 228.002206 137.035116 
L 206.065441 137.035116 
L 206.065441 218.546321 
" clip-path="url(#p1fc8e3945c)" style="fill: none; stroke: #000000; stroke-linecap: square"/>
   </g>
   <g id="line2d_18">
    <path d="M 217.033824 218.546321 
L 217.033824 221.227611 
" clip-path="url(#p1fc8e3945c)" style="fill: none; stroke: #000000; stroke-linecap: square"/>
   </g>
   <g id="line2d_19">
    <path d="M 217.033824 137.035116 
L 217.033824 93.061966 
" clip-path="url(#p1fc8e3945c)" style="fill: none; stroke: #000000; stroke-linecap: square"/>
   </g>
   <g id="line2d_20">
    <path d="M 211.549632 221.227611 
L 222.518015 221.227611 
" clip-path="url(#p1fc8e3945c)" style="fill: none; stroke: #000000; stroke-linecap: square"/>
   </g>
   <g id="line2d_21">
    <path d="M 211.549632 93.061966 
L 222.518015 93.061966 
" clip-path="url(#p1fc8e3945c)" style="fill: none; stroke: #000000; stroke-linecap: square"/>
   </g>
   <g id="line2d_22"/>
   <g id="line2d_23">
    <path d="M 249.938971 203.128906 
L 271.875735 203.128906 
L 271.875735 197.766327 
L 249.938971 197.766327 
L 249.938971 203.128906 
" clip-path="url(#p1fc8e3945c)" style="fill: none; stroke: #000000; stroke-linecap: square"/>
   </g>
   <g id="line2d_24">
    <path d="M 260.907353 203.128906 
L 260.907353 203.531099 
" clip-path="url(#p1fc8e3945c)" style="fill: none; stroke: #000000; stroke-linecap: square"/>
   </g>
   <g id="line2d_25">
    <path d="M 260.907353 197.766327 
L 260.907353 193.878457 
" clip-path="url(#p1fc8e3945c)" style="fill: none; stroke: #000000; stroke-linecap: square"/>
   </g>
   <g id="line2d_26">
    <path d="M 255.423162 203.531099 
L 266.391544 203.531099 
" clip-path="url(#p1fc8e3945c)" style="fill: none; stroke: #000000; stroke-linecap: square"/>
   </g>
   <g id="line2d_27">
    <path d="M 255.423162 193.878457 
L 266.391544 193.878457 
" clip-path="url(#p1fc8e3945c)" style="fill: none; stroke: #000000; stroke-linecap: square"/>
   </g>
   <g id="line2d_28"/>
   <g id="line2d_29">
    <path d="M 293.8125 201.252003 
L 315.749265 201.252003 
L 315.749265 123.09241 
L 293.8125 123.09241 
L 293.8125 201.252003 
" clip-path="url(#p1fc8e3945c)" style="fill: none; stroke: #000000; stroke-linecap: square"/>
   </g>
   <g id="line2d_30">
    <path d="M 304.780882 201.252003 
L 304.780882 206.212389 
" clip-path="url(#p1fc8e3945c)" style="fill: none; stroke: #000000; stroke-linecap: square"/>
   </g>
   <g id="line2d_31">
    <path d="M 304.780882 123.09241 
L 304.780882 75.365455 
" clip-path="url(#p1fc8e3945c)" style="fill: none; stroke: #000000; stroke-linecap: square"/>
   </g>
   <g id="line2d_32">
    <path d="M 299.296691 206.212389 
L 310.265074 206.212389 
" clip-path="url(#p1fc8e3945c)" style="fill: none; stroke: #000000; stroke-linecap: square"/>
   </g>
   <g id="line2d_33">
    <path d="M 299.296691 75.365455 
L 310.265074 75.365455 
" clip-path="url(#p1fc8e3945c)" style="fill: none; stroke: #000000; stroke-linecap: square"/>
   </g>
   <g id="line2d_34"/>
   <g id="line2d_35">
    <path d="M 337.686029 37.023013 
L 359.622794 37.023013 
L 359.622794 31.660433 
L 337.686029 31.660433 
L 337.686029 37.023013 
" clip-path="url(#p1fc8e3945c)" style="fill: none; stroke: #000000; stroke-linecap: square"/>
   </g>
   <g id="line2d_36">
    <path d="M 348.654412 37.023013 
L 348.654412 42.653721 
" clip-path="url(#p1fc8e3945c)" style="fill: none; stroke: #000000; stroke-linecap: square"/>
   </g>
   <g id="line2d_37">
    <path d="M 348.654412 31.660433 
L 348.654412 29.247273 
" clip-path="url(#p1fc8e3945c)" style="fill: none; stroke: #000000; stroke-linecap: square"/>
   </g>
   <g id="line2d_38">
    <path d="M 343.170221 42.653721 
L 354.138603 42.653721 
" clip-path="url(#p1fc8e3945c)" style="fill: none; stroke: #000000; stroke-linecap: square"/>
   </g>
   <g id="line2d_39">
    <path d="M 343.170221 29.247273 
L 354.138603 29.247273 
" clip-path="url(#p1fc8e3945c)" style="fill: none; stroke: #000000; stroke-linecap: square"/>
   </g>
   <g id="line2d_40"/>
   <g id="line2d_41">
    <path d="M 381.559559 159.960143 
L 403.496324 159.960143 
L 403.496324 156.340402 
L 381.559559 156.340402 
L 381.559559 159.960143 
" clip-path="url(#p1fc8e3945c)" style="fill: none; stroke: #000000; stroke-linecap: square"/>
   </g>
   <g id="line2d_42">
    <path d="M 392.527941 159.960143 
L 392.527941 161.166723 
" clip-path="url(#p1fc8e3945c)" style="fill: none; stroke: #000000; stroke-linecap: square"/>
   </g>
   <g id="line2d_43">
    <path d="M 392.527941 156.340402 
L 392.527941 154.731628 
" clip-path="url(#p1fc8e3945c)" style="fill: none; stroke: #000000; stroke-linecap: square"/>
   </g>
   <g id="line2d_44">
    <path d="M 387.04375 161.166723 
L 398.012132 161.166723 
" clip-path="url(#p1fc8e3945c)" style="fill: none; stroke: #000000; stroke-linecap: square"/>
   </g>
   <g id="line2d_45">
    <path d="M 387.04375 154.731628 
L 398.012132 154.731628 
" clip-path="url(#p1fc8e3945c)" style="fill: none; stroke: #000000; stroke-linecap: square"/>
   </g>
   <g id="line2d_46"/>
   <g id="line2d_47">
    <path d="M 425.433088 398.192727 
L 447.369853 398.192727 
L 447.369853 398.192727 
L 425.433088 398.192727 
L 425.433088 398.192727 
" clip-path="url(#p1fc8e3945c)" style="fill: none; stroke: #000000; stroke-linecap: square"/>
   </g>
   <g id="line2d_48">
    <path d="M 436.401471 398.192727 
L 436.401471 398.192727 
" clip-path="url(#p1fc8e3945c)" style="fill: none; stroke: #000000; stroke-linecap: square"/>
   </g>
   <g id="line2d_49">
    <path d="M 436.401471 398.192727 
L 436.401471 398.192727 
" clip-path="url(#p1fc8e3945c)" style="fill: none; stroke: #000000; stroke-linecap: square"/>
   </g>
   <g id="line2d_50">
    <path d="M 430.917279 398.192727 
L 441.885662 398.192727 
" clip-path="url(#p1fc8e3945c)" style="fill: none; stroke: #000000; stroke-linecap: square"/>
   </g>
   <g id="line2d_51">
    <path d="M 430.917279 398.192727 
L 441.885662 398.192727 
" clip-path="url(#p1fc8e3945c)" style="fill: none; stroke: #000000; stroke-linecap: square"/>
   </g>
   <g id="line2d_52"/>
   <g id="line2d_53">
    <path d="M 469.306618 160.898594 
L 491.243382 160.898594 
L 491.243382 157.949175 
L 469.306618 157.949175 
L 469.306618 160.898594 
" clip-path="url(#p1fc8e3945c)" style="fill: none; stroke: #000000; stroke-linecap: square"/>
   </g>
   <g id="line2d_54">
    <path d="M 480.275 160.898594 
L 480.275 161.702981 
" clip-path="url(#p1fc8e3945c)" style="fill: none; stroke: #000000; stroke-linecap: square"/>
   </g>
   <g id="line2d_55">
    <path d="M 480.275 157.949175 
L 480.275 155.804144 
" clip-path="url(#p1fc8e3945c)" style="fill: none; stroke: #000000; stroke-linecap: square"/>
   </g>
   <g id="line2d_56">
    <path d="M 474.790809 161.702981 
L 485.759191 161.702981 
" clip-path="url(#p1fc8e3945c)" style="fill: none; stroke: #000000; stroke-linecap: square"/>
   </g>
   <g id="line2d_57">
    <path d="M 474.790809 155.804144 
L 485.759191 155.804144 
" clip-path="url(#p1fc8e3945c)" style="fill: none; stroke: #000000; stroke-linecap: square"/>
   </g>
   <g id="line2d_58"/>
   <g id="line2d_59">
    <path d="M 513.180147 145.883372 
L 535.116912 145.883372 
L 535.116912 142.53176 
L 513.180147 142.53176 
L 513.180147 145.883372 
" clip-path="url(#p1fc8e3945c)" style="fill: none; stroke: #000000; stroke-linecap: square"/>
   </g>
   <g id="line2d_60">
    <path d="M 524.148529 145.883372 
L 524.148529 146.687759 
" clip-path="url(#p1fc8e3945c)" style="fill: none; stroke: #000000; stroke-linecap: square"/>
   </g>
   <g id="line2d_61">
    <path d="M 524.148529 142.53176 
L 524.148529 138.107632 
" clip-path="url(#p1fc8e3945c)" style="fill: none; stroke: #000000; stroke-linecap: square"/>
   </g>
   <g id="line2d_62">
    <path d="M 518.664338 146.687759 
L 529.632721 146.687759 
" clip-path="url(#p1fc8e3945c)" style="fill: none; stroke: #000000; stroke-linecap: square"/>
   </g>
   <g id="line2d_63">
    <path d="M 518.664338 138.107632 
L 529.632721 138.107632 
" clip-path="url(#p1fc8e3945c)" style="fill: none; stroke: #000000; stroke-linecap: square"/>
   </g>
   <g id="line2d_64"/>
   <g id="line2d_65">
    <path d="M 557.053676 398.192727 
L 578.990441 398.192727 
L 578.990441 398.192727 
L 557.053676 398.192727 
L 557.053676 398.192727 
" clip-path="url(#p1fc8e3945c)" style="fill: none; stroke: #000000; stroke-linecap: square"/>
   </g>
   <g id="line2d_66">
    <path d="M 568.022059 398.192727 
L 568.022059 398.192727 
" clip-path="url(#p1fc8e3945c)" style="fill: none; stroke: #000000; stroke-linecap: square"/>
   </g>
   <g id="line2d_67">
    <path d="M 568.022059 398.192727 
L 568.022059 398.192727 
" clip-path="url(#p1fc8e3945c)" style="fill: none; stroke: #000000; stroke-linecap: square"/>
   </g>
   <g id="line2d_68">
    <path d="M 562.537868 398.192727 
L 573.50625 398.192727 
" clip-path="url(#p1fc8e3945c)" style="fill: none; stroke: #000000; stroke-linecap: square"/>
   </g>
   <g id="line2d_69">
    <path d="M 562.537868 398.192727 
L 573.50625 398.192727 
" clip-path="url(#p1fc8e3945c)" style="fill: none; stroke: #000000; stroke-linecap: square"/>
   </g>
   <g id="line2d_70"/>
   <g id="line2d_71">
    <path d="M 600.927206 398.192727 
L 622.863971 398.192727 
L 622.863971 398.192727 
L 600.927206 398.192727 
L 600.927206 398.192727 
" clip-path="url(#p1fc8e3945c)" style="fill: none; stroke: #000000; stroke-linecap: square"/>
   </g>
   <g id="line2d_72">
    <path d="M 611.895588 398.192727 
L 611.895588 398.192727 
" clip-path="url(#p1fc8e3945c)" style="fill: none; stroke: #000000; stroke-linecap: square"/>
   </g>
   <g id="line2d_73">
    <path d="M 611.895588 398.192727 
L 611.895588 398.192727 
" clip-path="url(#p1fc8e3945c)" style="fill: none; stroke: #000000; stroke-linecap: square"/>
   </g>
   <g id="line2d_74">
    <path d="M 606.411397 398.192727 
L 617.379779 398.192727 
" clip-path="url(#p1fc8e3945c)" style="fill: none; stroke: #000000; stroke-linecap: square"/>
   </g>
   <g id="line2d_75">
    <path d="M 606.411397 398.192727 
L 617.379779 398.192727 
" clip-path="url(#p1fc8e3945c)" style="fill: none; stroke: #000000; stroke-linecap: square"/>
   </g>
   <g id="line2d_76"/>
   <g id="line2d_77">
    <path d="M 644.800735 398.192727 
L 666.7375 398.192727 
L 666.7375 398.192727 
L 644.800735 398.192727 
L 644.800735 398.192727 
" clip-path="url(#p1fc8e3945c)" style="fill: none; stroke: #000000; stroke-linecap: square"/>
   </g>
   <g id="line2d_78">
    <path d="M 655.769118 398.192727 
L 655.769118 398.192727 
" clip-path="url(#p1fc8e3945c)" style="fill: none; stroke: #000000; stroke-linecap: square"/>
   </g>
   <g id="line2d_79">
    <path d="M 655.769118 398.192727 
L 655.769118 398.192727 
" clip-path="url(#p1fc8e3945c)" style="fill: none; stroke: #000000; stroke-linecap: square"/>
   </g>
   <g id="line2d_80">
    <path d="M 650.284926 398.192727 
L 661.253309 398.192727 
" clip-path="url(#p1fc8e3945c)" style="fill: none; stroke: #000000; stroke-linecap: square"/>
   </g>
   <g id="line2d_81">
    <path d="M 650.284926 398.192727 
L 661.253309 398.192727 
" clip-path="url(#p1fc8e3945c)" style="fill: none; stroke: #000000; stroke-linecap: square"/>
   </g>
   <g id="line2d_82"/>
   <g id="line2d_83">
    <path d="M 688.674265 398.192727 
L 710.611029 398.192727 
L 710.611029 398.192727 
L 688.674265 398.192727 
L 688.674265 398.192727 
" clip-path="url(#p1fc8e3945c)" style="fill: none; stroke: #000000; stroke-linecap: square"/>
   </g>
   <g id="line2d_84">
    <path d="M 699.642647 398.192727 
L 699.642647 398.192727 
" clip-path="url(#p1fc8e3945c)" style="fill: none; stroke: #000000; stroke-linecap: square"/>
   </g>
   <g id="line2d_85">
    <path d="M 699.642647 398.192727 
L 699.642647 398.192727 
" clip-path="url(#p1fc8e3945c)" style="fill: none; stroke: #000000; stroke-linecap: square"/>
   </g>
   <g id="line2d_86">
    <path d="M 694.158456 398.192727 
L 705.126838 398.192727 
" clip-path="url(#p1fc8e3945c)" style="fill: none; stroke: #000000; stroke-linecap: square"/>
   </g>
   <g id="line2d_87">
    <path d="M 694.158456 398.192727 
L 705.126838 398.192727 
" clip-path="url(#p1fc8e3945c)" style="fill: none; stroke: #000000; stroke-linecap: square"/>
   </g>
   <g id="line2d_88"/>
   <g id="line2d_89">
    <path d="M 732.547794 157.278853 
L 754.484559 157.278853 
L 754.484559 155.670079 
L 732.547794 155.670079 
L 732.547794 157.278853 
" clip-path="url(#p1fc8e3945c)" style="fill: none; stroke: #000000; stroke-linecap: square"/>
   </g>
   <g id="line2d_90">
    <path d="M 743.516176 157.278853 
L 743.516176 158.485433 
" clip-path="url(#p1fc8e3945c)" style="fill: none; stroke: #000000; stroke-linecap: square"/>
   </g>
   <g id="line2d_91">
    <path d="M 743.516176 155.670079 
L 743.516176 155.267886 
" clip-path="url(#p1fc8e3945c)" style="fill: none; stroke: #000000; stroke-linecap: square"/>
   </g>
   <g id="line2d_92">
    <path d="M 738.031985 158.485433 
L 749.000368 158.485433 
" clip-path="url(#p1fc8e3945c)" style="fill: none; stroke: #000000; stroke-linecap: square"/>
   </g>
   <g id="line2d_93">
    <path d="M 738.031985 155.267886 
L 749.000368 155.267886 
" clip-path="url(#p1fc8e3945c)" style="fill: none; stroke: #000000; stroke-linecap: square"/>
   </g>
   <g id="line2d_94">
    <defs>
     <path id="m27a5b50db7" d="M 0 3 
C 0.795609 3 1.55874 2.683901 2.12132 2.12132 
C 2.683901 1.55874 3 0.795609 3 0 
C 3 -0.795609 2.683901 -1.55874 2.12132 -2.12132 
C 1.55874 -2.683901 0.795609 -3 0 -3 
C -0.795609 -3 -1.55874 -2.683901 -2.12132 -2.12132 
C -2.683901 -1.55874 -3 -0.795609 -3 0 
C -3 0.795609 -2.683901 1.55874 -2.12132 2.12132 
C -1.55874 2.683901 -0.795609 3 0 3 
z
" style="stroke: #000000"/>
    </defs>
    <g clip-path="url(#p1fc8e3945c)">
     <use xlink:href="#m27a5b50db7" x="743.516176" y="150.441564" style="fill-opacity: 0; stroke: #000000"/>
    </g>
   </g>
   <g id="line2d_95">
    <path d="M 776.421324 398.192727 
L 798.358088 398.192727 
L 798.358088 398.192727 
L 776.421324 398.192727 
L 776.421324 398.192727 
" clip-path="url(#p1fc8e3945c)" style="fill: none; stroke: #000000; stroke-linecap: square"/>
   </g>
   <g id="line2d_96">
    <path d="M 787.389706 398.192727 
L 787.389706 398.192727 
" clip-path="url(#p1fc8e3945c)" style="fill: none; stroke: #000000; stroke-linecap: square"/>
   </g>
   <g id="line2d_97">
    <path d="M 787.389706 398.192727 
L 787.389706 398.192727 
" clip-path="url(#p1fc8e3945c)" style="fill: none; stroke: #000000; stroke-linecap: square"/>
   </g>
   <g id="line2d_98">
    <path d="M 781.905515 398.192727 
L 792.873897 398.192727 
" clip-path="url(#p1fc8e3945c)" style="fill: none; stroke: #000000; stroke-linecap: square"/>
   </g>
   <g id="line2d_99">
    <path d="M 781.905515 398.192727 
L 792.873897 398.192727 
" clip-path="url(#p1fc8e3945c)" style="fill: none; stroke: #000000; stroke-linecap: square"/>
   </g>
   <g id="line2d_100"/>
   <g id="line2d_101">
    <path d="M 820.294853 398.192727 
L 842.231618 398.192727 
L 842.231618 398.192727 
L 820.294853 398.192727 
L 820.294853 398.192727 
" clip-path="url(#p1fc8e3945c)" style="fill: none; stroke: #000000; stroke-linecap: square"/>
   </g>
   <g id="line2d_102">
    <path d="M 831.263235 398.192727 
L 831.263235 398.192727 
" clip-path="url(#p1fc8e3945c)" style="fill: none; stroke: #000000; stroke-linecap: square"/>
   </g>
   <g id="line2d_103">
    <path d="M 831.263235 398.192727 
L 831.263235 398.192727 
" clip-path="url(#p1fc8e3945c)" style="fill: none; stroke: #000000; stroke-linecap: square"/>
   </g>
   <g id="line2d_104">
    <path d="M 825.779044 398.192727 
L 836.747426 398.192727 
" clip-path="url(#p1fc8e3945c)" style="fill: none; stroke: #000000; stroke-linecap: square"/>
   </g>
   <g id="line2d_105">
    <path d="M 825.779044 398.192727 
L 836.747426 398.192727 
" clip-path="url(#p1fc8e3945c)" style="fill: none; stroke: #000000; stroke-linecap: square"/>
   </g>
   <g id="line2d_106"/>
   <g id="LineCollection_1">
    <path d="M 107.35 128.18686 
L 865 128.18686 
" clip-path="url(#p1fc8e3945c)" style="fill: none; stroke-dasharray: 5.55,2.4; stroke-dashoffset: 0; stroke: #000000; stroke-width: 1.5"/>
   </g>
   <g id="line2d_107">
    <path d="M 118.318382 128.18686 
L 140.255147 128.18686 
" clip-path="url(#p1fc8e3945c)" style="fill: none; stroke: #000000; stroke-width: 2; stroke-linecap: square"/>
   </g>
   <g id="line2d_108">
    <path d="M 162.191912 146.687759 
L 184.128676 146.687759 
" clip-path="url(#p1fc8e3945c)" style="fill: none; stroke: #000000; stroke-width: 2; stroke-linecap: square"/>
   </g>
   <g id="line2d_109">
    <path d="M 206.065441 215.596903 
L 228.002206 215.596903 
" clip-path="url(#p1fc8e3945c)" style="fill: none; stroke: #000000; stroke-width: 2; stroke-linecap: square"/>
   </g>
   <g id="line2d_110">
    <path d="M 249.938971 201.654197 
L 271.875735 201.654197 
" clip-path="url(#p1fc8e3945c)" style="fill: none; stroke: #000000; stroke-width: 2; stroke-linecap: square"/>
   </g>
   <g id="line2d_111">
    <path d="M 293.8125 199.777294 
L 315.749265 199.777294 
" clip-path="url(#p1fc8e3945c)" style="fill: none; stroke: #000000; stroke-width: 2; stroke-linecap: square"/>
   </g>
   <g id="line2d_112">
    <path d="M 337.686029 33.805465 
L 359.622794 33.805465 
" clip-path="url(#p1fc8e3945c)" style="fill: none; stroke: #000000; stroke-width: 2; stroke-linecap: square"/>
   </g>
   <g id="line2d_113">
    <path d="M 381.559559 158.217304 
L 403.496324 158.217304 
" clip-path="url(#p1fc8e3945c)" style="fill: none; stroke: #000000; stroke-width: 2; stroke-linecap: square"/>
   </g>
   <g id="line2d_114">
    <path d="M 425.433088 398.192727 
L 447.369853 398.192727 
" clip-path="url(#p1fc8e3945c)" style="fill: none; stroke: #000000; stroke-width: 2; stroke-linecap: square"/>
   </g>
   <g id="line2d_115">
    <path d="M 469.306618 159.826078 
L 491.243382 159.826078 
" clip-path="url(#p1fc8e3945c)" style="fill: none; stroke: #000000; stroke-width: 2; stroke-linecap: square"/>
   </g>
   <g id="line2d_116">
    <path d="M 513.180147 144.810856 
L 535.116912 144.810856 
" clip-path="url(#p1fc8e3945c)" style="fill: none; stroke: #000000; stroke-width: 2; stroke-linecap: square"/>
   </g>
   <g id="line2d_117">
    <path d="M 557.053676 398.192727 
L 578.990441 398.192727 
" clip-path="url(#p1fc8e3945c)" style="fill: none; stroke: #000000; stroke-width: 2; stroke-linecap: square"/>
   </g>
   <g id="line2d_118">
    <path d="M 600.927206 398.192727 
L 622.863971 398.192727 
" clip-path="url(#p1fc8e3945c)" style="fill: none; stroke: #000000; stroke-width: 2; stroke-linecap: square"/>
   </g>
   <g id="line2d_119">
    <path d="M 644.800735 398.192727 
L 666.7375 398.192727 
" clip-path="url(#p1fc8e3945c)" style="fill: none; stroke: #000000; stroke-width: 2; stroke-linecap: square"/>
   </g>
   <g id="line2d_120">
    <path d="M 688.674265 398.192727 
L 710.611029 398.192727 
" clip-path="url(#p1fc8e3945c)" style="fill: none; stroke: #000000; stroke-width: 2; stroke-linecap: square"/>
   </g>
   <g id="line2d_121">
    <path d="M 732.547794 156.87666 
L 754.484559 156.87666 
" clip-path="url(#p1fc8e3945c)" style="fill: none; stroke: #000000; stroke-width: 2; stroke-linecap: square"/>
   </g>
   <g id="line2d_122">
    <path d="M 776.421324 398.192727 
L 798.358088 398.192727 
" clip-path="url(#p1fc8e3945c)" style="fill: none; stroke: #000000; stroke-width: 2; stroke-linecap: square"/>
   </g>
   <g id="line2d_123">
    <path d="M 820.294853 398.192727 
L 842.231618 398.192727 
" clip-path="url(#p1fc8e3945c)" style="fill: none; stroke: #000000; stroke-width: 2; stroke-linecap: square"/>
   </g>
   <g id="patch_3">
    <path d="M 107.35 416.64 
L 107.35 10.8 
" style="fill: none; stroke: #000000; stroke-width: 0.8; stroke-linejoin: miter; stroke-linecap: square"/>
   </g>
   <g id="patch_4">
    <path d="M 853.2 416.64 
L 853.2 10.8 
" style="fill: none; stroke: #000000; stroke-width: 0.8; stroke-linejoin: miter; stroke-linecap: square"/>
   </g>
   <g id="patch_5">
    <path d="M 107.35 416.64 
L 853.2 416.64 
" style="fill: none; stroke: #000000; stroke-width: 0.8; stroke-linejoin: miter; stroke-linecap: square"/>
   </g>
   <g id="patch_6">
    <path d="M 107.35 10.8 
L 853.2 10.8 
" style="fill: none; stroke: #000000; stroke-width: 0.8; stroke-linejoin: miter; stroke-linecap: square"/>
   </g>
  </g>
  <g id="axes_2">
   <g id="patch_7">
    <path d="M 107.35 563.96 
L 853.2 563.96 
L 853.2 428.68 
L 107.35 428.68 
z
" style="fill: #ffffff"/>
   </g>
   <g id="QuadMesh_1">
    <path d="M 107.35 428.68 
L 151.223529 428.68 
L 151.223529 443.711111 
L 107.35 443.711111 
L 107.35 428.68 
" clip-path="url(#pde98b8d614)" style="fill: #008000; stroke: #000000; stroke-width: 0.5"/>
    <path d="M 151.223529 428.68 
L 195.097059 428.68 
L 195.097059 443.711111 
L 151.223529 443.711111 
L 151.223529 428.68 
" clip-path="url(#pde98b8d614)" style="fill: #ffffff; stroke: #000000; stroke-width: 0.5"/>
    <path d="M 195.097059 428.68 
L 238.970588 428.68 
L 238.970588 443.711111 
L 195.097059 443.711111 
L 195.097059 428.68 
" clip-path="url(#pde98b8d614)" style="fill: #008000; stroke: #000000; stroke-width: 0.5"/>
    <path d="M 238.970588 428.68 
L 282.844118 428.68 
L 282.844118 443.711111 
L 238.970588 443.711111 
L 238.970588 428.68 
" clip-path="url(#pde98b8d614)" style="fill: #008000; stroke: #000000; stroke-width: 0.5"/>
    <path d="M 282.844118 428.68 
L 326.717647 428.68 
L 326.717647 443.711111 
L 282.844118 443.711111 
L 282.844118 428.68 
" clip-path="url(#pde98b8d614)" style="fill: #008000; stroke: #000000; stroke-width: 0.5"/>
    <path d="M 326.717647 428.68 
L 370.591176 428.68 
L 370.591176 443.711111 
L 326.717647 443.711111 
L 326.717647 428.68 
" clip-path="url(#pde98b8d614)" style="fill: #008000; stroke: #000000; stroke-width: 0.5"/>
    <path d="M 370.591176 428.68 
L 414.464706 428.68 
L 414.464706 443.711111 
L 370.591176 443.711111 
L 370.591176 428.68 
" clip-path="url(#pde98b8d614)" style="fill: #008000; stroke: #000000; stroke-width: 0.5"/>
    <path d="M 414.464706 428.68 
L 458.338235 428.68 
L 458.338235 443.711111 
L 414.464706 443.711111 
L 414.464706 428.68 
" clip-path="url(#pde98b8d614)" style="fill: #008000; stroke: #000000; stroke-width: 0.5"/>
    <path d="M 458.338235 428.68 
L 502.211765 428.68 
L 502.211765 443.711111 
L 458.338235 443.711111 
L 458.338235 428.68 
" clip-path="url(#pde98b8d614)" style="fill: #008000; stroke: #000000; stroke-width: 0.5"/>
    <path d="M 502.211765 428.68 
L 546.085294 428.68 
L 546.085294 443.711111 
L 502.211765 443.711111 
L 502.211765 428.68 
" clip-path="url(#pde98b8d614)" style="fill: #008000; stroke: #000000; stroke-width: 0.5"/>
    <path d="M 546.085294 428.68 
L 589.958824 428.68 
L 589.958824 443.711111 
L 546.085294 443.711111 
L 546.085294 428.68 
" clip-path="url(#pde98b8d614)" style="fill: #008000; stroke: #000000; stroke-width: 0.5"/>
    <path d="M 589.958824 428.68 
L 633.832353 428.68 
L 633.832353 443.711111 
L 589.958824 443.711111 
L 589.958824 428.68 
" clip-path="url(#pde98b8d614)" style="fill: #ffffff; stroke: #000000; stroke-width: 0.5"/>
    <path d="M 633.832353 428.68 
L 677.705882 428.68 
L 677.705882 443.711111 
L 633.832353 443.711111 
L 633.832353 428.68 
" clip-path="url(#pde98b8d614)" style="fill: #ffffff; stroke: #000000; stroke-width: 0.5"/>
    <path d="M 677.705882 428.68 
L 721.579412 428.68 
L 721.579412 443.711111 
L 677.705882 443.711111 
L 677.705882 428.68 
" clip-path="url(#pde98b8d614)" style="fill: #ffffff; stroke: #000000; stroke-width: 0.5"/>
    <path d="M 721.579412 428.68 
L 765.452941 428.68 
L 765.452941 443.711111 
L 721.579412 443.711111 
L 721.579412 428.68 
" clip-path="url(#pde98b8d614)" style="fill: #ffffff; stroke: #000000; stroke-width: 0.5"/>
    <path d="M 765.452941 428.68 
L 809.326471 428.68 
L 809.326471 443.711111 
L 765.452941 443.711111 
L 765.452941 428.68 
" clip-path="url(#pde98b8d614)" style="fill: #ffffff; stroke: #000000; stroke-width: 0.5"/>
    <path d="M 809.326471 428.68 
L 853.2 428.68 
L 853.2 443.711111 
L 809.326471 443.711111 
L 809.326471 428.68 
" clip-path="url(#pde98b8d614)" style="fill: #ffffff; stroke: #000000; stroke-width: 0.5"/>
    <path d="M 107.35 443.711111 
L 151.223529 443.711111 
L 151.223529 458.742222 
L 107.35 458.742222 
L 107.35 443.711111 
" clip-path="url(#pde98b8d614)" style="fill: #008000; stroke: #000000; stroke-width: 0.5"/>
    <path d="M 151.223529 443.711111 
L 195.097059 443.711111 
L 195.097059 458.742222 
L 151.223529 458.742222 
L 151.223529 443.711111 
" clip-path="url(#pde98b8d614)" style="fill: #008000; stroke: #000000; stroke-width: 0.5"/>
    <path d="M 195.097059 443.711111 
L 238.970588 443.711111 
L 238.970588 458.742222 
L 195.097059 458.742222 
L 195.097059 443.711111 
" clip-path="url(#pde98b8d614)" style="fill: #ffffff; stroke: #000000; stroke-width: 0.5"/>
    <path d="M 238.970588 443.711111 
L 282.844118 443.711111 
L 282.844118 458.742222 
L 238.970588 458.742222 
L 238.970588 443.711111 
" clip-path="url(#pde98b8d614)" style="fill: #008000; stroke: #000000; stroke-width: 0.5"/>
    <path d="M 282.844118 443.711111 
L 326.717647 443.711111 
L 326.717647 458.742222 
L 282.844118 458.742222 
L 282.844118 443.711111 
" clip-path="url(#pde98b8d614)" style="fill: #008000; stroke: #000000; stroke-width: 0.5"/>
    <path d="M 326.717647 443.711111 
L 370.591176 443.711111 
L 370.591176 458.742222 
L 326.717647 458.742222 
L 326.717647 443.711111 
" clip-path="url(#pde98b8d614)" style="fill: #008000; stroke: #000000; stroke-width: 0.5"/>
    <path d="M 370.591176 443.711111 
L 414.464706 443.711111 
L 414.464706 458.742222 
L 370.591176 458.742222 
L 370.591176 443.711111 
" clip-path="url(#pde98b8d614)" style="fill: #008000; stroke: #000000; stroke-width: 0.5"/>
    <path d="M 414.464706 443.711111 
L 458.338235 443.711111 
L 458.338235 458.742222 
L 414.464706 458.742222 
L 414.464706 443.711111 
" clip-path="url(#pde98b8d614)" style="fill: #008000; stroke: #000000; stroke-width: 0.5"/>
    <path d="M 458.338235 443.711111 
L 502.211765 443.711111 
L 502.211765 458.742222 
L 458.338235 458.742222 
L 458.338235 443.711111 
" clip-path="url(#pde98b8d614)" style="fill: #008000; stroke: #000000; stroke-width: 0.5"/>
    <path d="M 502.211765 443.711111 
L 546.085294 443.711111 
L 546.085294 458.742222 
L 502.211765 458.742222 
L 502.211765 443.711111 
" clip-path="url(#pde98b8d614)" style="fill: #008000; stroke: #000000; stroke-width: 0.5"/>
    <path d="M 546.085294 443.711111 
L 589.958824 443.711111 
L 589.958824 458.742222 
L 546.085294 458.742222 
L 546.085294 443.711111 
" clip-path="url(#pde98b8d614)" style="fill: #ffffff; stroke: #000000; stroke-width: 0.5"/>
    <path d="M 589.958824 443.711111 
L 633.832353 443.711111 
L 633.832353 458.742222 
L 589.958824 458.742222 
L 589.958824 443.711111 
" clip-path="url(#pde98b8d614)" style="fill: #008000; stroke: #000000; stroke-width: 0.5"/>
    <path d="M 633.832353 443.711111 
L 677.705882 443.711111 
L 677.705882 458.742222 
L 633.832353 458.742222 
L 633.832353 443.711111 
" clip-path="url(#pde98b8d614)" style="fill: #ffffff; stroke: #000000; stroke-width: 0.5"/>
    <path d="M 677.705882 443.711111 
L 721.579412 443.711111 
L 721.579412 458.742222 
L 677.705882 458.742222 
L 677.705882 443.711111 
" clip-path="url(#pde98b8d614)" style="fill: #ffffff; stroke: #000000; stroke-width: 0.5"/>
    <path d="M 721.579412 443.711111 
L 765.452941 443.711111 
L 765.452941 458.742222 
L 721.579412 458.742222 
L 721.579412 443.711111 
" clip-path="url(#pde98b8d614)" style="fill: #ffffff; stroke: #000000; stroke-width: 0.5"/>
    <path d="M 765.452941 443.711111 
L 809.326471 443.711111 
L 809.326471 458.742222 
L 765.452941 458.742222 
L 765.452941 443.711111 
" clip-path="url(#pde98b8d614)" style="fill: #ffffff; stroke: #000000; stroke-width: 0.5"/>
    <path d="M 809.326471 443.711111 
L 853.2 443.711111 
L 853.2 458.742222 
L 809.326471 458.742222 
L 809.326471 443.711111 
" clip-path="url(#pde98b8d614)" style="fill: #ffffff; stroke: #000000; stroke-width: 0.5"/>
    <path d="M 107.35 458.742222 
L 151.223529 458.742222 
L 151.223529 473.773333 
L 107.35 473.773333 
L 107.35 458.742222 
" clip-path="url(#pde98b8d614)" style="fill: #008000; stroke: #000000; stroke-width: 0.5"/>
    <path d="M 151.223529 458.742222 
L 195.097059 458.742222 
L 195.097059 473.773333 
L 151.223529 473.773333 
L 151.223529 458.742222 
" clip-path="url(#pde98b8d614)" style="fill: #008000; stroke: #000000; stroke-width: 0.5"/>
    <path d="M 195.097059 458.742222 
L 238.970588 458.742222 
L 238.970588 473.773333 
L 195.097059 473.773333 
L 195.097059 458.742222 
" clip-path="url(#pde98b8d614)" style="fill: #008000; stroke: #000000; stroke-width: 0.5"/>
    <path d="M 238.970588 458.742222 
L 282.844118 458.742222 
L 282.844118 473.773333 
L 238.970588 473.773333 
L 238.970588 458.742222 
" clip-path="url(#pde98b8d614)" style="fill: #ffffff; stroke: #000000; stroke-width: 0.5"/>
    <path d="M 282.844118 458.742222 
L 326.717647 458.742222 
L 326.717647 473.773333 
L 282.844118 473.773333 
L 282.844118 458.742222 
" clip-path="url(#pde98b8d614)" style="fill: #008000; stroke: #000000; stroke-width: 0.5"/>
    <path d="M 326.717647 458.742222 
L 370.591176 458.742222 
L 370.591176 473.773333 
L 326.717647 473.773333 
L 326.717647 458.742222 
" clip-path="url(#pde98b8d614)" style="fill: #008000; stroke: #000000; stroke-width: 0.5"/>
    <path d="M 370.591176 458.742222 
L 414.464706 458.742222 
L 414.464706 473.773333 
L 370.591176 473.773333 
L 370.591176 458.742222 
" clip-path="url(#pde98b8d614)" style="fill: #008000; stroke: #000000; stroke-width: 0.5"/>
    <path d="M 414.464706 458.742222 
L 458.338235 458.742222 
L 458.338235 473.773333 
L 414.464706 473.773333 
L 414.464706 458.742222 
" clip-path="url(#pde98b8d614)" style="fill: #008000; stroke: #000000; stroke-width: 0.5"/>
    <path d="M 458.338235 458.742222 
L 502.211765 458.742222 
L 502.211765 473.773333 
L 458.338235 473.773333 
L 458.338235 458.742222 
" clip-path="url(#pde98b8d614)" style="fill: #008000; stroke: #000000; stroke-width: 0.5"/>
    <path d="M 502.211765 458.742222 
L 546.085294 458.742222 
L 546.085294 473.773333 
L 502.211765 473.773333 
L 502.211765 458.742222 
" clip-path="url(#pde98b8d614)" style="fill: #008000; stroke: #000000; stroke-width: 0.5"/>
    <path d="M 546.085294 458.742222 
L 589.958824 458.742222 
L 589.958824 473.773333 
L 546.085294 473.773333 
L 546.085294 458.742222 
" clip-path="url(#pde98b8d614)" style="fill: #ffffff; stroke: #000000; stroke-width: 0.5"/>
    <path d="M 589.958824 458.742222 
L 633.832353 458.742222 
L 633.832353 473.773333 
L 589.958824 473.773333 
L 589.958824 458.742222 
" clip-path="url(#pde98b8d614)" style="fill: #ffffff; stroke: #000000; stroke-width: 0.5"/>
    <path d="M 633.832353 458.742222 
L 677.705882 458.742222 
L 677.705882 473.773333 
L 633.832353 473.773333 
L 633.832353 458.742222 
" clip-path="url(#pde98b8d614)" style="fill: #008000; stroke: #000000; stroke-width: 0.5"/>
    <path d="M 677.705882 458.742222 
L 721.579412 458.742222 
L 721.579412 473.773333 
L 677.705882 473.773333 
L 677.705882 458.742222 
" clip-path="url(#pde98b8d614)" style="fill: #ffffff; stroke: #000000; stroke-width: 0.5"/>
    <path d="M 721.579412 458.742222 
L 765.452941 458.742222 
L 765.452941 473.773333 
L 721.579412 473.773333 
L 721.579412 458.742222 
" clip-path="url(#pde98b8d614)" style="fill: #ffffff; stroke: #000000; stroke-width: 0.5"/>
    <path d="M 765.452941 458.742222 
L 809.326471 458.742222 
L 809.326471 473.773333 
L 765.452941 473.773333 
L 765.452941 458.742222 
" clip-path="url(#pde98b8d614)" style="fill: #ffffff; stroke: #000000; stroke-width: 0.5"/>
    <path d="M 809.326471 458.742222 
L 853.2 458.742222 
L 853.2 473.773333 
L 809.326471 473.773333 
L 809.326471 458.742222 
" clip-path="url(#pde98b8d614)" style="fill: #ffffff; stroke: #000000; stroke-width: 0.5"/>
    <path d="M 107.35 473.773333 
L 151.223529 473.773333 
L 151.223529 488.804444 
L 107.35 488.804444 
L 107.35 473.773333 
" clip-path="url(#pde98b8d614)" style="fill: #008000; stroke: #000000; stroke-width: 0.5"/>
    <path d="M 151.223529 473.773333 
L 195.097059 473.773333 
L 195.097059 488.804444 
L 151.223529 488.804444 
L 151.223529 473.773333 
" clip-path="url(#pde98b8d614)" style="fill: #008000; stroke: #000000; stroke-width: 0.5"/>
    <path d="M 195.097059 473.773333 
L 238.970588 473.773333 
L 238.970588 488.804444 
L 195.097059 488.804444 
L 195.097059 473.773333 
" clip-path="url(#pde98b8d614)" style="fill: #008000; stroke: #000000; stroke-width: 0.5"/>
    <path d="M 238.970588 473.773333 
L 282.844118 473.773333 
L 282.844118 488.804444 
L 238.970588 488.804444 
L 238.970588 473.773333 
" clip-path="url(#pde98b8d614)" style="fill: #008000; stroke: #000000; stroke-width: 0.5"/>
    <path d="M 282.844118 473.773333 
L 326.717647 473.773333 
L 326.717647 488.804444 
L 282.844118 488.804444 
L 282.844118 473.773333 
" clip-path="url(#pde98b8d614)" style="fill: #ffffff; stroke: #000000; stroke-width: 0.5"/>
    <path d="M 326.717647 473.773333 
L 370.591176 473.773333 
L 370.591176 488.804444 
L 326.717647 488.804444 
L 326.717647 473.773333 
" clip-path="url(#pde98b8d614)" style="fill: #008000; stroke: #000000; stroke-width: 0.5"/>
    <path d="M 370.591176 473.773333 
L 414.464706 473.773333 
L 414.464706 488.804444 
L 370.591176 488.804444 
L 370.591176 473.773333 
" clip-path="url(#pde98b8d614)" style="fill: #008000; stroke: #000000; stroke-width: 0.5"/>
    <path d="M 414.464706 473.773333 
L 458.338235 473.773333 
L 458.338235 488.804444 
L 414.464706 488.804444 
L 414.464706 473.773333 
" clip-path="url(#pde98b8d614)" style="fill: #008000; stroke: #000000; stroke-width: 0.5"/>
    <path d="M 458.338235 473.773333 
L 502.211765 473.773333 
L 502.211765 488.804444 
L 458.338235 488.804444 
L 458.338235 473.773333 
" clip-path="url(#pde98b8d614)" style="fill: #008000; stroke: #000000; stroke-width: 0.5"/>
    <path d="M 502.211765 473.773333 
L 546.085294 473.773333 
L 546.085294 488.804444 
L 502.211765 488.804444 
L 502.211765 473.773333 
" clip-path="url(#pde98b8d614)" style="fill: #008000; stroke: #000000; stroke-width: 0.5"/>
    <path d="M 546.085294 473.773333 
L 589.958824 473.773333 
L 589.958824 488.804444 
L 546.085294 488.804444 
L 546.085294 473.773333 
" clip-path="url(#pde98b8d614)" style="fill: #ffffff; stroke: #000000; stroke-width: 0.5"/>
    <path d="M 589.958824 473.773333 
L 633.832353 473.773333 
L 633.832353 488.804444 
L 589.958824 488.804444 
L 589.958824 473.773333 
" clip-path="url(#pde98b8d614)" style="fill: #ffffff; stroke: #000000; stroke-width: 0.5"/>
    <path d="M 633.832353 473.773333 
L 677.705882 473.773333 
L 677.705882 488.804444 
L 633.832353 488.804444 
L 633.832353 473.773333 
" clip-path="url(#pde98b8d614)" style="fill: #ffffff; stroke: #000000; stroke-width: 0.5"/>
    <path d="M 677.705882 473.773333 
L 721.579412 473.773333 
L 721.579412 488.804444 
L 677.705882 488.804444 
L 677.705882 473.773333 
" clip-path="url(#pde98b8d614)" style="fill: #ffffff; stroke: #000000; stroke-width: 0.5"/>
    <path d="M 721.579412 473.773333 
L 765.452941 473.773333 
L 765.452941 488.804444 
L 721.579412 488.804444 
L 721.579412 473.773333 
" clip-path="url(#pde98b8d614)" style="fill: #ffffff; stroke: #000000; stroke-width: 0.5"/>
    <path d="M 765.452941 473.773333 
L 809.326471 473.773333 
L 809.326471 488.804444 
L 765.452941 488.804444 
L 765.452941 473.773333 
" clip-path="url(#pde98b8d614)" style="fill: #ffffff; stroke: #000000; stroke-width: 0.5"/>
    <path d="M 809.326471 473.773333 
L 853.2 473.773333 
L 853.2 488.804444 
L 809.326471 488.804444 
L 809.326471 473.773333 
" clip-path="url(#pde98b8d614)" style="fill: #ffffff; stroke: #000000; stroke-width: 0.5"/>
    <path d="M 107.35 488.804444 
L 151.223529 488.804444 
L 151.223529 503.835556 
L 107.35 503.835556 
L 107.35 488.804444 
" clip-path="url(#pde98b8d614)" style="fill: #008000; stroke: #000000; stroke-width: 0.5"/>
    <path d="M 151.223529 488.804444 
L 195.097059 488.804444 
L 195.097059 503.835556 
L 151.223529 503.835556 
L 151.223529 488.804444 
" clip-path="url(#pde98b8d614)" style="fill: #008000; stroke: #000000; stroke-width: 0.5"/>
    <path d="M 195.097059 488.804444 
L 238.970588 488.804444 
L 238.970588 503.835556 
L 195.097059 503.835556 
L 195.097059 488.804444 
" clip-path="url(#pde98b8d614)" style="fill: #008000; stroke: #000000; stroke-width: 0.5"/>
    <path d="M 238.970588 488.804444 
L 282.844118 488.804444 
L 282.844118 503.835556 
L 238.970588 503.835556 
L 238.970588 488.804444 
" clip-path="url(#pde98b8d614)" style="fill: #008000; stroke: #000000; stroke-width: 0.5"/>
    <path d="M 282.844118 488.804444 
L 326.717647 488.804444 
L 326.717647 503.835556 
L 282.844118 503.835556 
L 282.844118 488.804444 
" clip-path="url(#pde98b8d614)" style="fill: #008000; stroke: #000000; stroke-width: 0.5"/>
    <path d="M 326.717647 488.804444 
L 370.591176 488.804444 
L 370.591176 503.835556 
L 326.717647 503.835556 
L 326.717647 488.804444 
" clip-path="url(#pde98b8d614)" style="fill: #ffffff; stroke: #000000; stroke-width: 0.5"/>
    <path d="M 370.591176 488.804444 
L 414.464706 488.804444 
L 414.464706 503.835556 
L 370.591176 503.835556 
L 370.591176 488.804444 
" clip-path="url(#pde98b8d614)" style="fill: #008000; stroke: #000000; stroke-width: 0.5"/>
    <path d="M 414.464706 488.804444 
L 458.338235 488.804444 
L 458.338235 503.835556 
L 414.464706 503.835556 
L 414.464706 488.804444 
" clip-path="url(#pde98b8d614)" style="fill: #008000; stroke: #000000; stroke-width: 0.5"/>
    <path d="M 458.338235 488.804444 
L 502.211765 488.804444 
L 502.211765 503.835556 
L 458.338235 503.835556 
L 458.338235 488.804444 
" clip-path="url(#pde98b8d614)" style="fill: #008000; stroke: #000000; stroke-width: 0.5"/>
    <path d="M 502.211765 488.804444 
L 546.085294 488.804444 
L 546.085294 503.835556 
L 502.211765 503.835556 
L 502.211765 488.804444 
" clip-path="url(#pde98b8d614)" style="fill: #008000; stroke: #000000; stroke-width: 0.5"/>
    <path d="M 546.085294 488.804444 
L 589.958824 488.804444 
L 589.958824 503.835556 
L 546.085294 503.835556 
L 546.085294 488.804444 
" clip-path="url(#pde98b8d614)" style="fill: #ffffff; stroke: #000000; stroke-width: 0.5"/>
    <path d="M 589.958824 488.804444 
L 633.832353 488.804444 
L 633.832353 503.835556 
L 589.958824 503.835556 
L 589.958824 488.804444 
" clip-path="url(#pde98b8d614)" style="fill: #ffffff; stroke: #000000; stroke-width: 0.5"/>
    <path d="M 633.832353 488.804444 
L 677.705882 488.804444 
L 677.705882 503.835556 
L 633.832353 503.835556 
L 633.832353 488.804444 
" clip-path="url(#pde98b8d614)" style="fill: #ffffff; stroke: #000000; stroke-width: 0.5"/>
    <path d="M 677.705882 488.804444 
L 721.579412 488.804444 
L 721.579412 503.835556 
L 677.705882 503.835556 
L 677.705882 488.804444 
" clip-path="url(#pde98b8d614)" style="fill: #008000; stroke: #000000; stroke-width: 0.5"/>
    <path d="M 721.579412 488.804444 
L 765.452941 488.804444 
L 765.452941 503.835556 
L 721.579412 503.835556 
L 721.579412 488.804444 
" clip-path="url(#pde98b8d614)" style="fill: #ffffff; stroke: #000000; stroke-width: 0.5"/>
    <path d="M 765.452941 488.804444 
L 809.326471 488.804444 
L 809.326471 503.835556 
L 765.452941 503.835556 
L 765.452941 488.804444 
" clip-path="url(#pde98b8d614)" style="fill: #ffffff; stroke: #000000; stroke-width: 0.5"/>
    <path d="M 809.326471 488.804444 
L 853.2 488.804444 
L 853.2 503.835556 
L 809.326471 503.835556 
L 809.326471 488.804444 
" clip-path="url(#pde98b8d614)" style="fill: #ffffff; stroke: #000000; stroke-width: 0.5"/>
    <path d="M 107.35 503.835556 
L 151.223529 503.835556 
L 151.223529 518.866667 
L 107.35 518.866667 
L 107.35 503.835556 
" clip-path="url(#pde98b8d614)" style="fill: #008000; stroke: #000000; stroke-width: 0.5"/>
    <path d="M 151.223529 503.835556 
L 195.097059 503.835556 
L 195.097059 518.866667 
L 151.223529 518.866667 
L 151.223529 503.835556 
" clip-path="url(#pde98b8d614)" style="fill: #008000; stroke: #000000; stroke-width: 0.5"/>
    <path d="M 195.097059 503.835556 
L 238.970588 503.835556 
L 238.970588 518.866667 
L 195.097059 518.866667 
L 195.097059 503.835556 
" clip-path="url(#pde98b8d614)" style="fill: #008000; stroke: #000000; stroke-width: 0.5"/>
    <path d="M 238.970588 503.835556 
L 282.844118 503.835556 
L 282.844118 518.866667 
L 238.970588 518.866667 
L 238.970588 503.835556 
" clip-path="url(#pde98b8d614)" style="fill: #008000; stroke: #000000; stroke-width: 0.5"/>
    <path d="M 282.844118 503.835556 
L 326.717647 503.835556 
L 326.717647 518.866667 
L 282.844118 518.866667 
L 282.844118 503.835556 
" clip-path="url(#pde98b8d614)" style="fill: #008000; stroke: #000000; stroke-width: 0.5"/>
    <path d="M 326.717647 503.835556 
L 370.591176 503.835556 
L 370.591176 518.866667 
L 326.717647 518.866667 
L 326.717647 503.835556 
" clip-path="url(#pde98b8d614)" style="fill: #008000; stroke: #000000; stroke-width: 0.5"/>
    <path d="M 370.591176 503.835556 
L 414.464706 503.835556 
L 414.464706 518.866667 
L 370.591176 518.866667 
L 370.591176 503.835556 
" clip-path="url(#pde98b8d614)" style="fill: #ffffff; stroke: #000000; stroke-width: 0.5"/>
    <path d="M 414.464706 503.835556 
L 458.338235 503.835556 
L 458.338235 518.866667 
L 414.464706 518.866667 
L 414.464706 503.835556 
" clip-path="url(#pde98b8d614)" style="fill: #008000; stroke: #000000; stroke-width: 0.5"/>
    <path d="M 458.338235 503.835556 
L 502.211765 503.835556 
L 502.211765 518.866667 
L 458.338235 518.866667 
L 458.338235 503.835556 
" clip-path="url(#pde98b8d614)" style="fill: #008000; stroke: #000000; stroke-width: 0.5"/>
    <path d="M 502.211765 503.835556 
L 546.085294 503.835556 
L 546.085294 518.866667 
L 502.211765 518.866667 
L 502.211765 503.835556 
" clip-path="url(#pde98b8d614)" style="fill: #008000; stroke: #000000; stroke-width: 0.5"/>
    <path d="M 546.085294 503.835556 
L 589.958824 503.835556 
L 589.958824 518.866667 
L 546.085294 518.866667 
L 546.085294 503.835556 
" clip-path="url(#pde98b8d614)" style="fill: #ffffff; stroke: #000000; stroke-width: 0.5"/>
    <path d="M 589.958824 503.835556 
L 633.832353 503.835556 
L 633.832353 518.866667 
L 589.958824 518.866667 
L 589.958824 503.835556 
" clip-path="url(#pde98b8d614)" style="fill: #ffffff; stroke: #000000; stroke-width: 0.5"/>
    <path d="M 633.832353 503.835556 
L 677.705882 503.835556 
L 677.705882 518.866667 
L 633.832353 518.866667 
L 633.832353 503.835556 
" clip-path="url(#pde98b8d614)" style="fill: #ffffff; stroke: #000000; stroke-width: 0.5"/>
    <path d="M 677.705882 503.835556 
L 721.579412 503.835556 
L 721.579412 518.866667 
L 677.705882 518.866667 
L 677.705882 503.835556 
" clip-path="url(#pde98b8d614)" style="fill: #ffffff; stroke: #000000; stroke-width: 0.5"/>
    <path d="M 721.579412 503.835556 
L 765.452941 503.835556 
L 765.452941 518.866667 
L 721.579412 518.866667 
L 721.579412 503.835556 
" clip-path="url(#pde98b8d614)" style="fill: #ffffff; stroke: #000000; stroke-width: 0.5"/>
    <path d="M 765.452941 503.835556 
L 809.326471 503.835556 
L 809.326471 518.866667 
L 765.452941 518.866667 
L 765.452941 503.835556 
" clip-path="url(#pde98b8d614)" style="fill: #ffffff; stroke: #000000; stroke-width: 0.5"/>
    <path d="M 809.326471 503.835556 
L 853.2 503.835556 
L 853.2 518.866667 
L 809.326471 518.866667 
L 809.326471 503.835556 
" clip-path="url(#pde98b8d614)" style="fill: #ffffff; stroke: #000000; stroke-width: 0.5"/>
    <path d="M 107.35 518.866667 
L 151.223529 518.866667 
L 151.223529 533.897778 
L 107.35 533.897778 
L 107.35 518.866667 
" clip-path="url(#pde98b8d614)" style="fill: #008000; stroke: #000000; stroke-width: 0.5"/>
    <path d="M 151.223529 518.866667 
L 195.097059 518.866667 
L 195.097059 533.897778 
L 151.223529 533.897778 
L 151.223529 518.866667 
" clip-path="url(#pde98b8d614)" style="fill: #008000; stroke: #000000; stroke-width: 0.5"/>
    <path d="M 195.097059 518.866667 
L 238.970588 518.866667 
L 238.970588 533.897778 
L 195.097059 533.897778 
L 195.097059 518.866667 
" clip-path="url(#pde98b8d614)" style="fill: #008000; stroke: #000000; stroke-width: 0.5"/>
    <path d="M 238.970588 518.866667 
L 282.844118 518.866667 
L 282.844118 533.897778 
L 238.970588 533.897778 
L 238.970588 518.866667 
" clip-path="url(#pde98b8d614)" style="fill: #008000; stroke: #000000; stroke-width: 0.5"/>
    <path d="M 282.844118 518.866667 
L 326.717647 518.866667 
L 326.717647 533.897778 
L 282.844118 533.897778 
L 282.844118 518.866667 
" clip-path="url(#pde98b8d614)" style="fill: #008000; stroke: #000000; stroke-width: 0.5"/>
    <path d="M 326.717647 518.866667 
L 370.591176 518.866667 
L 370.591176 533.897778 
L 326.717647 533.897778 
L 326.717647 518.866667 
" clip-path="url(#pde98b8d614)" style="fill: #008000; stroke: #000000; stroke-width: 0.5"/>
    <path d="M 370.591176 518.866667 
L 414.464706 518.866667 
L 414.464706 533.897778 
L 370.591176 533.897778 
L 370.591176 518.866667 
" clip-path="url(#pde98b8d614)" style="fill: #008000; stroke: #000000; stroke-width: 0.5"/>
    <path d="M 414.464706 518.866667 
L 458.338235 518.866667 
L 458.338235 533.897778 
L 414.464706 533.897778 
L 414.464706 518.866667 
" clip-path="url(#pde98b8d614)" style="fill: #ffffff; stroke: #000000; stroke-width: 0.5"/>
    <path d="M 458.338235 518.866667 
L 502.211765 518.866667 
L 502.211765 533.897778 
L 458.338235 533.897778 
L 458.338235 518.866667 
" clip-path="url(#pde98b8d614)" style="fill: #008000; stroke: #000000; stroke-width: 0.5"/>
    <path d="M 502.211765 518.866667 
L 546.085294 518.866667 
L 546.085294 533.897778 
L 502.211765 533.897778 
L 502.211765 518.866667 
" clip-path="url(#pde98b8d614)" style="fill: #008000; stroke: #000000; stroke-width: 0.5"/>
    <path d="M 546.085294 518.866667 
L 589.958824 518.866667 
L 589.958824 533.897778 
L 546.085294 533.897778 
L 546.085294 518.866667 
" clip-path="url(#pde98b8d614)" style="fill: #ffffff; stroke: #000000; stroke-width: 0.5"/>
    <path d="M 589.958824 518.866667 
L 633.832353 518.866667 
L 633.832353 533.897778 
L 589.958824 533.897778 
L 589.958824 518.866667 
" clip-path="url(#pde98b8d614)" style="fill: #ffffff; stroke: #000000; stroke-width: 0.5"/>
    <path d="M 633.832353 518.866667 
L 677.705882 518.866667 
L 677.705882 533.897778 
L 633.832353 533.897778 
L 633.832353 518.866667 
" clip-path="url(#pde98b8d614)" style="fill: #ffffff; stroke: #000000; stroke-width: 0.5"/>
    <path d="M 677.705882 518.866667 
L 721.579412 518.866667 
L 721.579412 533.897778 
L 677.705882 533.897778 
L 677.705882 518.866667 
" clip-path="url(#pde98b8d614)" style="fill: #ffffff; stroke: #000000; stroke-width: 0.5"/>
    <path d="M 721.579412 518.866667 
L 765.452941 518.866667 
L 765.452941 533.897778 
L 721.579412 533.897778 
L 721.579412 518.866667 
" clip-path="url(#pde98b8d614)" style="fill: #008000; stroke: #000000; stroke-width: 0.5"/>
    <path d="M 765.452941 518.866667 
L 809.326471 518.866667 
L 809.326471 533.897778 
L 765.452941 533.897778 
L 765.452941 518.866667 
" clip-path="url(#pde98b8d614)" style="fill: #ffffff; stroke: #000000; stroke-width: 0.5"/>
    <path d="M 809.326471 518.866667 
L 853.2 518.866667 
L 853.2 533.897778 
L 809.326471 533.897778 
L 809.326471 518.866667 
" clip-path="url(#pde98b8d614)" style="fill: #ffffff; stroke: #000000; stroke-width: 0.5"/>
    <path d="M 107.35 533.897778 
L 151.223529 533.897778 
L 151.223529 548.928889 
L 107.35 548.928889 
L 107.35 533.897778 
" clip-path="url(#pde98b8d614)" style="fill: #008000; stroke: #000000; stroke-width: 0.5"/>
    <path d="M 151.223529 533.897778 
L 195.097059 533.897778 
L 195.097059 548.928889 
L 151.223529 548.928889 
L 151.223529 533.897778 
" clip-path="url(#pde98b8d614)" style="fill: #008000; stroke: #000000; stroke-width: 0.5"/>
    <path d="M 195.097059 533.897778 
L 238.970588 533.897778 
L 238.970588 548.928889 
L 195.097059 548.928889 
L 195.097059 533.897778 
" clip-path="url(#pde98b8d614)" style="fill: #008000; stroke: #000000; stroke-width: 0.5"/>
    <path d="M 238.970588 533.897778 
L 282.844118 533.897778 
L 282.844118 548.928889 
L 238.970588 548.928889 
L 238.970588 533.897778 
" clip-path="url(#pde98b8d614)" style="fill: #008000; stroke: #000000; stroke-width: 0.5"/>
    <path d="M 282.844118 533.897778 
L 326.717647 533.897778 
L 326.717647 548.928889 
L 282.844118 548.928889 
L 282.844118 533.897778 
" clip-path="url(#pde98b8d614)" style="fill: #008000; stroke: #000000; stroke-width: 0.5"/>
    <path d="M 326.717647 533.897778 
L 370.591176 533.897778 
L 370.591176 548.928889 
L 326.717647 548.928889 
L 326.717647 533.897778 
" clip-path="url(#pde98b8d614)" style="fill: #008000; stroke: #000000; stroke-width: 0.5"/>
    <path d="M 370.591176 533.897778 
L 414.464706 533.897778 
L 414.464706 548.928889 
L 370.591176 548.928889 
L 370.591176 533.897778 
" clip-path="url(#pde98b8d614)" style="fill: #008000; stroke: #000000; stroke-width: 0.5"/>
    <path d="M 414.464706 533.897778 
L 458.338235 533.897778 
L 458.338235 548.928889 
L 414.464706 548.928889 
L 414.464706 533.897778 
" clip-path="url(#pde98b8d614)" style="fill: #008000; stroke: #000000; stroke-width: 0.5"/>
    <path d="M 458.338235 533.897778 
L 502.211765 533.897778 
L 502.211765 548.928889 
L 458.338235 548.928889 
L 458.338235 533.897778 
" clip-path="url(#pde98b8d614)" style="fill: #ffffff; stroke: #000000; stroke-width: 0.5"/>
    <path d="M 502.211765 533.897778 
L 546.085294 533.897778 
L 546.085294 548.928889 
L 502.211765 548.928889 
L 502.211765 533.897778 
" clip-path="url(#pde98b8d614)" style="fill: #008000; stroke: #000000; stroke-width: 0.5"/>
    <path d="M 546.085294 533.897778 
L 589.958824 533.897778 
L 589.958824 548.928889 
L 546.085294 548.928889 
L 546.085294 533.897778 
" clip-path="url(#pde98b8d614)" style="fill: #ffffff; stroke: #000000; stroke-width: 0.5"/>
    <path d="M 589.958824 533.897778 
L 633.832353 533.897778 
L 633.832353 548.928889 
L 589.958824 548.928889 
L 589.958824 533.897778 
" clip-path="url(#pde98b8d614)" style="fill: #ffffff; stroke: #000000; stroke-width: 0.5"/>
    <path d="M 633.832353 533.897778 
L 677.705882 533.897778 
L 677.705882 548.928889 
L 633.832353 548.928889 
L 633.832353 533.897778 
" clip-path="url(#pde98b8d614)" style="fill: #ffffff; stroke: #000000; stroke-width: 0.5"/>
    <path d="M 677.705882 533.897778 
L 721.579412 533.897778 
L 721.579412 548.928889 
L 677.705882 548.928889 
L 677.705882 533.897778 
" clip-path="url(#pde98b8d614)" style="fill: #ffffff; stroke: #000000; stroke-width: 0.5"/>
    <path d="M 721.579412 533.897778 
L 765.452941 533.897778 
L 765.452941 548.928889 
L 721.579412 548.928889 
L 721.579412 533.897778 
" clip-path="url(#pde98b8d614)" style="fill: #ffffff; stroke: #000000; stroke-width: 0.5"/>
    <path d="M 765.452941 533.897778 
L 809.326471 533.897778 
L 809.326471 548.928889 
L 765.452941 548.928889 
L 765.452941 533.897778 
" clip-path="url(#pde98b8d614)" style="fill: #008000; stroke: #000000; stroke-width: 0.5"/>
    <path d="M 809.326471 533.897778 
L 853.2 533.897778 
L 853.2 548.928889 
L 809.326471 548.928889 
L 809.326471 533.897778 
" clip-path="url(#pde98b8d614)" style="fill: #ffffff; stroke: #000000; stroke-width: 0.5"/>
    <path d="M 107.35 548.928889 
L 151.223529 548.928889 
L 151.223529 563.96 
L 107.35 563.96 
L 107.35 548.928889 
" clip-path="url(#pde98b8d614)" style="fill: #008000; stroke: #000000; stroke-width: 0.5"/>
    <path d="M 151.223529 548.928889 
L 195.097059 548.928889 
L 195.097059 563.96 
L 151.223529 563.96 
L 151.223529 548.928889 
" clip-path="url(#pde98b8d614)" style="fill: #008000; stroke: #000000; stroke-width: 0.5"/>
    <path d="M 195.097059 548.928889 
L 238.970588 548.928889 
L 238.970588 563.96 
L 195.097059 563.96 
L 195.097059 548.928889 
" clip-path="url(#pde98b8d614)" style="fill: #008000; stroke: #000000; stroke-width: 0.5"/>
    <path d="M 238.970588 548.928889 
L 282.844118 548.928889 
L 282.844118 563.96 
L 238.970588 563.96 
L 238.970588 548.928889 
" clip-path="url(#pde98b8d614)" style="fill: #008000; stroke: #000000; stroke-width: 0.5"/>
    <path d="M 282.844118 548.928889 
L 326.717647 548.928889 
L 326.717647 563.96 
L 282.844118 563.96 
L 282.844118 548.928889 
" clip-path="url(#pde98b8d614)" style="fill: #008000; stroke: #000000; stroke-width: 0.5"/>
    <path d="M 326.717647 548.928889 
L 370.591176 548.928889 
L 370.591176 563.96 
L 326.717647 563.96 
L 326.717647 548.928889 
" clip-path="url(#pde98b8d614)" style="fill: #008000; stroke: #000000; stroke-width: 0.5"/>
    <path d="M 370.591176 548.928889 
L 414.464706 548.928889 
L 414.464706 563.96 
L 370.591176 563.96 
L 370.591176 548.928889 
" clip-path="url(#pde98b8d614)" style="fill: #008000; stroke: #000000; stroke-width: 0.5"/>
    <path d="M 414.464706 548.928889 
L 458.338235 548.928889 
L 458.338235 563.96 
L 414.464706 563.96 
L 414.464706 548.928889 
" clip-path="url(#pde98b8d614)" style="fill: #008000; stroke: #000000; stroke-width: 0.5"/>
    <path d="M 458.338235 548.928889 
L 502.211765 548.928889 
L 502.211765 563.96 
L 458.338235 563.96 
L 458.338235 548.928889 
" clip-path="url(#pde98b8d614)" style="fill: #008000; stroke: #000000; stroke-width: 0.5"/>
    <path d="M 502.211765 548.928889 
L 546.085294 548.928889 
L 546.085294 563.96 
L 502.211765 563.96 
L 502.211765 548.928889 
" clip-path="url(#pde98b8d614)" style="fill: #ffffff; stroke: #000000; stroke-width: 0.5"/>
    <path d="M 546.085294 548.928889 
L 589.958824 548.928889 
L 589.958824 563.96 
L 546.085294 563.96 
L 546.085294 548.928889 
" clip-path="url(#pde98b8d614)" style="fill: #ffffff; stroke: #000000; stroke-width: 0.5"/>
    <path d="M 589.958824 548.928889 
L 633.832353 548.928889 
L 633.832353 563.96 
L 589.958824 563.96 
L 589.958824 548.928889 
" clip-path="url(#pde98b8d614)" style="fill: #ffffff; stroke: #000000; stroke-width: 0.5"/>
    <path d="M 633.832353 548.928889 
L 677.705882 548.928889 
L 677.705882 563.96 
L 633.832353 563.96 
L 633.832353 548.928889 
" clip-path="url(#pde98b8d614)" style="fill: #ffffff; stroke: #000000; stroke-width: 0.5"/>
    <path d="M 677.705882 548.928889 
L 721.579412 548.928889 
L 721.579412 563.96 
L 677.705882 563.96 
L 677.705882 548.928889 
" clip-path="url(#pde98b8d614)" style="fill: #ffffff; stroke: #000000; stroke-width: 0.5"/>
    <path d="M 721.579412 548.928889 
L 765.452941 548.928889 
L 765.452941 563.96 
L 721.579412 563.96 
L 721.579412 548.928889 
" clip-path="url(#pde98b8d614)" style="fill: #ffffff; stroke: #000000; stroke-width: 0.5"/>
    <path d="M 765.452941 548.928889 
L 809.326471 548.928889 
L 809.326471 563.96 
L 765.452941 563.96 
L 765.452941 548.928889 
" clip-path="url(#pde98b8d614)" style="fill: #ffffff; stroke: #000000; stroke-width: 0.5"/>
    <path d="M 809.326471 548.928889 
L 853.2 548.928889 
L 853.2 563.96 
L 809.326471 563.96 
L 809.326471 548.928889 
" clip-path="url(#pde98b8d614)" style="fill: #ffffff; stroke: #000000; stroke-width: 0.5"/>
   </g>
   <g id="matplotlib.axis_3">
    <g id="xtick_18"/>
    <g id="xtick_19"/>
    <g id="xtick_20"/>
    <g id="xtick_21"/>
    <g id="xtick_22"/>
    <g id="xtick_23"/>
    <g id="xtick_24"/>
    <g id="xtick_25"/>
    <g id="xtick_26"/>
    <g id="xtick_27"/>
    <g id="xtick_28"/>
    <g id="xtick_29"/>
    <g id="xtick_30"/>
    <g id="xtick_31"/>
    <g id="xtick_32"/>
    <g id="xtick_33"/>
    <g id="xtick_34"/>
   </g>
   <g id="matplotlib.axis_4">
    <g id="ytick_5">
     <g id="line2d_124">
      <g>
       <use xlink:href="#mcfe0865ce3" x="107.35" y="436.195556" style="stroke: #000000; stroke-width: 0.8"/>
      </g>
     </g>
     <g id="text_6">
      <!-- Aspartat -->
      <g transform="translate(40.70125 440.058681) scale(0.14 -0.14)">
       <defs>
        <path id="DejaVuSans-41" d="M 2188 4044 
L 1331 1722 
L 3047 1722 
L 2188 4044 
z
M 1831 4666 
L 2547 4666 
L 4325 0 
L 3669 0 
L 3244 1197 
L 1141 1197 
L 716 0 
L 50 0 
L 1831 4666 
z
" transform="scale(0.015625)"/>
        <path id="DejaVuSans-70" d="M 1159 525 
L 1159 -1331 
L 581 -1331 
L 581 3500 
L 1159 3500 
L 1159 2969 
Q 1341 3281 1617 3432 
Q 1894 3584 2278 3584 
Q 2916 3584 3314 3078 
Q 3713 2572 3713 1747 
Q 3713 922 3314 415 
Q 2916 -91 2278 -91 
Q 1894 -91 1617 61 
Q 1341 213 1159 525 
z
M 3116 1747 
Q 3116 2381 2855 2742 
Q 2594 3103 2138 3103 
Q 1681 3103 1420 2742 
Q 1159 2381 1159 1747 
Q 1159 1113 1420 752 
Q 1681 391 2138 391 
Q 2594 391 2855 752 
Q 3116 1113 3116 1747 
z
" transform="scale(0.015625)"/>
       </defs>
       <use xlink:href="#DejaVuSans-41"/>
       <use xlink:href="#DejaVuSans-73" x="68.408203"/>
       <use xlink:href="#DejaVuSans-70" x="120.507812"/>
       <use xlink:href="#DejaVuSans-61" x="183.984375"/>
       <use xlink:href="#DejaVuSans-72" x="245.263672"/>
       <use xlink:href="#DejaVuSans-74" x="286.376953"/>
       <use xlink:href="#DejaVuSans-61" x="325.585938"/>
       <use xlink:href="#DejaVuSans-74" x="386.865234"/>
      </g>
     </g>
    </g>
    <g id="ytick_6">
     <g id="line2d_125">
      <g>
       <use xlink:href="#mcfe0865ce3" x="107.35" y="451.226667" style="stroke: #000000; stroke-width: 0.8"/>
      </g>
     </g>
     <g id="text_7">
      <!-- Asparagin -->
      <g transform="translate(30.028437 455.089792) scale(0.14 -0.14)">
       <defs>
        <path id="DejaVuSans-67" d="M 2906 1791 
Q 2906 2416 2648 2759 
Q 2391 3103 1925 3103 
Q 1463 3103 1205 2759 
Q 947 2416 947 1791 
Q 947 1169 1205 825 
Q 1463 481 1925 481 
Q 2391 481 2648 825 
Q 2906 1169 2906 1791 
z
M 3481 434 
Q 3481 -459 3084 -895 
Q 2688 -1331 1869 -1331 
Q 1566 -1331 1297 -1286 
Q 1028 -1241 775 -1147 
L 775 -588 
Q 1028 -725 1275 -790 
Q 1522 -856 1778 -856 
Q 2344 -856 2625 -561 
Q 2906 -266 2906 331 
L 2906 616 
Q 2728 306 2450 153 
Q 2172 0 1784 0 
Q 1141 0 747 490 
Q 353 981 353 1791 
Q 353 2603 747 3093 
Q 1141 3584 1784 3584 
Q 2172 3584 2450 3431 
Q 2728 3278 2906 2969 
L 2906 3500 
L 3481 3500 
L 3481 434 
z
" transform="scale(0.015625)"/>
       </defs>
       <use xlink:href="#DejaVuSans-41"/>
       <use xlink:href="#DejaVuSans-73" x="68.408203"/>
       <use xlink:href="#DejaVuSans-70" x="120.507812"/>
       <use xlink:href="#DejaVuSans-61" x="183.984375"/>
       <use xlink:href="#DejaVuSans-72" x="245.263672"/>
       <use xlink:href="#DejaVuSans-61" x="286.376953"/>
       <use xlink:href="#DejaVuSans-67" x="347.65625"/>
       <use xlink:href="#DejaVuSans-69" x="411.132812"/>
       <use xlink:href="#DejaVuSans-6e" x="438.916016"/>
      </g>
     </g>
    </g>
    <g id="ytick_7">
     <g id="line2d_126">
      <g>
       <use xlink:href="#mcfe0865ce3" x="107.35" y="466.257778" style="stroke: #000000; stroke-width: 0.8"/>
      </g>
     </g>
     <g id="text_8">
      <!-- Isoleucin -->
      <g transform="translate(38.524687 470.120903) scale(0.14 -0.14)">
       <defs>
        <path id="DejaVuSans-49" d="M 628 4666 
L 1259 4666 
L 1259 0 
L 628 0 
L 628 4666 
z
" transform="scale(0.015625)"/>
        <path id="DejaVuSans-6c" d="M 603 4863 
L 1178 4863 
L 1178 0 
L 603 0 
L 603 4863 
z
" transform="scale(0.015625)"/>
        <path id="DejaVuSans-63" d="M 3122 3366 
L 3122 2828 
Q 2878 2963 2633 3030 
Q 2388 3097 2138 3097 
Q 1578 3097 1268 2742 
Q 959 2388 959 1747 
Q 959 1106 1268 751 
Q 1578 397 2138 397 
Q 2388 397 2633 464 
Q 2878 531 3122 666 
L 3122 134 
Q 2881 22 2623 -34 
Q 2366 -91 2075 -91 
Q 1284 -91 818 406 
Q 353 903 353 1747 
Q 353 2603 823 3093 
Q 1294 3584 2113 3584 
Q 2378 3584 2631 3529 
Q 2884 3475 3122 3366 
z
" transform="scale(0.015625)"/>
       </defs>
       <use xlink:href="#DejaVuSans-49"/>
       <use xlink:href="#DejaVuSans-73" x="29.492188"/>
       <use xlink:href="#DejaVuSans-6f" x="81.591797"/>
       <use xlink:href="#DejaVuSans-6c" x="142.773438"/>
       <use xlink:href="#DejaVuSans-65" x="170.556641"/>
       <use xlink:href="#DejaVuSans-75" x="232.080078"/>
       <use xlink:href="#DejaVuSans-63" x="295.458984"/>
       <use xlink:href="#DejaVuSans-69" x="350.439453"/>
       <use xlink:href="#DejaVuSans-6e" x="378.222656"/>
      </g>
     </g>
    </g>
    <g id="ytick_8">
     <g id="line2d_127">
      <g>
       <use xlink:href="#mcfe0865ce3" x="107.35" y="481.288889" style="stroke: #000000; stroke-width: 0.8"/>
      </g>
     </g>
     <g id="text_9">
      <!-- Threonin -->
      <g transform="translate(38.67125 485.152014) scale(0.14 -0.14)">
       <defs>
        <path id="DejaVuSans-54" d="M -19 4666 
L 3928 4666 
L 3928 4134 
L 2272 4134 
L 2272 0 
L 1638 0 
L 1638 4134 
L -19 4134 
L -19 4666 
z
" transform="scale(0.015625)"/>
       </defs>
       <use xlink:href="#DejaVuSans-54"/>
       <use xlink:href="#DejaVuSans-68" x="61.083984"/>
       <use xlink:href="#DejaVuSans-72" x="124.462891"/>
       <use xlink:href="#DejaVuSans-65" x="163.326172"/>
       <use xlink:href="#DejaVuSans-6f" x="224.849609"/>
       <use xlink:href="#DejaVuSans-6e" x="286.03125"/>
       <use xlink:href="#DejaVuSans-69" x="349.410156"/>
       <use xlink:href="#DejaVuSans-6e" x="377.193359"/>
      </g>
     </g>
    </g>
    <g id="ytick_9">
     <g id="line2d_128">
      <g>
       <use xlink:href="#mcfe0865ce3" x="107.35" y="496.32" style="stroke: #000000; stroke-width: 0.8"/>
      </g>
     </g>
     <g id="text_10">
      <!-- Tryptophan -->
      <g transform="translate(21.667812 500.183125) scale(0.14 -0.14)">
       <defs>
        <path id="DejaVuSans-79" d="M 2059 -325 
Q 1816 -950 1584 -1140 
Q 1353 -1331 966 -1331 
L 506 -1331 
L 506 -850 
L 844 -850 
Q 1081 -850 1212 -737 
Q 1344 -625 1503 -206 
L 1606 56 
L 191 3500 
L 800 3500 
L 1894 763 
L 2988 3500 
L 3597 3500 
L 2059 -325 
z
" transform="scale(0.015625)"/>
       </defs>
       <use xlink:href="#DejaVuSans-54"/>
       <use xlink:href="#DejaVuSans-72" x="46.333984"/>
       <use xlink:href="#DejaVuSans-79" x="87.447266"/>
       <use xlink:href="#DejaVuSans-70" x="146.626953"/>
       <use xlink:href="#DejaVuSans-74" x="210.103516"/>
       <use xlink:href="#DejaVuSans-6f" x="249.3125"/>
       <use xlink:href="#DejaVuSans-70" x="310.494141"/>
       <use xlink:href="#DejaVuSans-68" x="373.970703"/>
       <use xlink:href="#DejaVuSans-61" x="437.349609"/>
       <use xlink:href="#DejaVuSans-6e" x="498.628906"/>
      </g>
     </g>
    </g>
    <g id="ytick_10">
     <g id="line2d_129">
      <g>
       <use xlink:href="#mcfe0865ce3" x="107.35" y="511.351111" style="stroke: #000000; stroke-width: 0.8"/>
      </g>
     </g>
     <g id="text_11">
      <!-- Phenylalanin -->
      <g transform="translate(10.690937 515.214236) scale(0.14 -0.14)">
       <defs>
        <path id="DejaVuSans-50" d="M 1259 4147 
L 1259 2394 
L 2053 2394 
Q 2494 2394 2734 2622 
Q 2975 2850 2975 3272 
Q 2975 3691 2734 3919 
Q 2494 4147 2053 4147 
L 1259 4147 
z
M 628 4666 
L 2053 4666 
Q 2838 4666 3239 4311 
Q 3641 3956 3641 3272 
Q 3641 2581 3239 2228 
Q 2838 1875 2053 1875 
L 1259 1875 
L 1259 0 
L 628 0 
L 628 4666 
z
" transform="scale(0.015625)"/>
       </defs>
       <use xlink:href="#DejaVuSans-50"/>
       <use xlink:href="#DejaVuSans-68" x="60.302734"/>
       <use xlink:href="#DejaVuSans-65" x="123.681641"/>
       <use xlink:href="#DejaVuSans-6e" x="185.205078"/>
       <use xlink:href="#DejaVuSans-79" x="248.583984"/>
       <use xlink:href="#DejaVuSans-6c" x="307.763672"/>
       <use xlink:href="#DejaVuSans-61" x="335.546875"/>
       <use xlink:href="#DejaVuSans-6c" x="396.826172"/>
       <use xlink:href="#DejaVuSans-61" x="424.609375"/>
       <use xlink:href="#DejaVuSans-6e" x="485.888672"/>
       <use xlink:href="#DejaVuSans-69" x="549.267578"/>
       <use xlink:href="#DejaVuSans-6e" x="577.050781"/>
      </g>
     </g>
    </g>
    <g id="ytick_11">
     <g id="line2d_130">
      <g>
       <use xlink:href="#mcfe0865ce3" x="107.35" y="526.382222" style="stroke: #000000; stroke-width: 0.8"/>
      </g>
     </g>
     <g id="text_12">
      <!-- Methionin -->
      <g transform="translate(31.205312 530.245347) scale(0.14 -0.14)">
       <defs>
        <path id="DejaVuSans-4d" d="M 628 4666 
L 1569 4666 
L 2759 1491 
L 3956 4666 
L 4897 4666 
L 4897 0 
L 4281 0 
L 4281 4097 
L 3078 897 
L 2444 897 
L 1241 4097 
L 1241 0 
L 628 0 
L 628 4666 
z
" transform="scale(0.015625)"/>
       </defs>
       <use xlink:href="#DejaVuSans-4d"/>
       <use xlink:href="#DejaVuSans-65" x="86.279297"/>
       <use xlink:href="#DejaVuSans-74" x="147.802734"/>
       <use xlink:href="#DejaVuSans-68" x="187.011719"/>
       <use xlink:href="#DejaVuSans-69" x="250.390625"/>
       <use xlink:href="#DejaVuSans-6f" x="278.173828"/>
       <use xlink:href="#DejaVuSans-6e" x="339.355469"/>
       <use xlink:href="#DejaVuSans-69" x="402.734375"/>
       <use xlink:href="#DejaVuSans-6e" x="430.517578"/>
      </g>
     </g>
    </g>
    <g id="ytick_12">
     <g id="line2d_131">
      <g>
       <use xlink:href="#mcfe0865ce3" x="107.35" y="541.413333" style="stroke: #000000; stroke-width: 0.8"/>
      </g>
     </g>
     <g id="text_13">
      <!-- Histidin -->
      <g transform="translate(47.611562 545.276458) scale(0.14 -0.14)">
       <defs>
        <path id="DejaVuSans-48" d="M 628 4666 
L 1259 4666 
L 1259 2753 
L 3553 2753 
L 3553 4666 
L 4184 4666 
L 4184 0 
L 3553 0 
L 3553 2222 
L 1259 2222 
L 1259 0 
L 628 0 
L 628 4666 
z
" transform="scale(0.015625)"/>
        <path id="DejaVuSans-64" d="M 2906 2969 
L 2906 4863 
L 3481 4863 
L 3481 0 
L 2906 0 
L 2906 525 
Q 2725 213 2448 61 
Q 2172 -91 1784 -91 
Q 1150 -91 751 415 
Q 353 922 353 1747 
Q 353 2572 751 3078 
Q 1150 3584 1784 3584 
Q 2172 3584 2448 3432 
Q 2725 3281 2906 2969 
z
M 947 1747 
Q 947 1113 1208 752 
Q 1469 391 1925 391 
Q 2381 391 2643 752 
Q 2906 1113 2906 1747 
Q 2906 2381 2643 2742 
Q 2381 3103 1925 3103 
Q 1469 3103 1208 2742 
Q 947 2381 947 1747 
z
" transform="scale(0.015625)"/>
       </defs>
       <use xlink:href="#DejaVuSans-48"/>
       <use xlink:href="#DejaVuSans-69" x="75.195312"/>
       <use xlink:href="#DejaVuSans-73" x="102.978516"/>
       <use xlink:href="#DejaVuSans-74" x="155.078125"/>
       <use xlink:href="#DejaVuSans-69" x="194.287109"/>
       <use xlink:href="#DejaVuSans-64" x="222.070312"/>
       <use xlink:href="#DejaVuSans-69" x="285.546875"/>
       <use xlink:href="#DejaVuSans-6e" x="313.330078"/>
      </g>
     </g>
    </g>
    <g id="ytick_13">
     <g id="line2d_132">
      <g>
       <use xlink:href="#mcfe0865ce3" x="107.35" y="556.444444" style="stroke: #000000; stroke-width: 0.8"/>
      </g>
     </g>
     <g id="text_14">
      <!-- Arginin -->
      <g transform="translate(50.85125 560.307569) scale(0.14 -0.14)">
       <use xlink:href="#DejaVuSans-41"/>
       <use xlink:href="#DejaVuSans-72" x="68.408203"/>
       <use xlink:href="#DejaVuSans-67" x="107.771484"/>
       <use xlink:href="#DejaVuSans-69" x="171.248047"/>
       <use xlink:href="#DejaVuSans-6e" x="199.03125"/>
       <use xlink:href="#DejaVuSans-69" x="262.410156"/>
       <use xlink:href="#DejaVuSans-6e" x="290.193359"/>
      </g>
     </g>
    </g>
   </g>
   <g id="patch_8">
    <path d="M 853.2 563.96 
L 853.2 428.68 
" style="fill: none; stroke: #000000; stroke-width: 0.8; stroke-linejoin: miter; stroke-linecap: square"/>
   </g>
   <g id="patch_9">
    <path d="M 107.35 563.96 
L 853.2 563.96 
" style="fill: none; stroke: #000000; stroke-linejoin: miter; stroke-linecap: square"/>
   </g>
  </g>
 </g>
 <defs>
  <clipPath id="p1fc8e3945c">
   <rect x="107.35" y="10.8" width="745.85" height="405.84"/>
  </clipPath>
  <clipPath id="pde98b8d614">
   <rect x="107.35" y="428.68" width="745.85" height="135.28"/>
  </clipPath>
 </defs>
</svg>
