<?xml version="1.0" encoding="utf-8" standalone="no"?>
<!DOCTYPE svg PUBLIC "-//W3C//DTD SVG 1.1//EN"
  "http://www.w3.org/Graphics/SVG/1.1/DTD/svg11.dtd">
<svg xmlns:xlink="http://www.w3.org/1999/xlink" width="576pt" height="432pt" viewBox="0 0 576 432" xmlns="http://www.w3.org/2000/svg" version="1.1">
 <metadata>
  <rdf:RDF xmlns:dc="http://purl.org/dc/elements/1.1/" xmlns:cc="http://creativecommons.org/ns#" xmlns:rdf="http://www.w3.org/1999/02/22-rdf-syntax-ns#">
   <cc:Work>
    <dc:type rdf:resource="http://purl.org/dc/dcmitype/StillImage"/>
    <dc:date>2024-11-12T14:08:59.950017</dc:date>
    <dc:format>image/svg+xml</dc:format>
    <dc:creator>
     <cc:Agent>
      <dc:title>Matplotlib v3.7.5, https://matplotlib.org/</dc:title>
     </cc:Agent>
    </dc:creator>
   </cc:Work>
  </rdf:RDF>
 </metadata>
 <defs>
  <style type="text/css">*{stroke-linejoin: round; stroke-linecap: butt}</style>
 </defs>
 <g id="figure_1">
  <g id="patch_1">
   <path d="M 0 432 
L 576 432 
L 576 0 
L 0 0 
z
" style="fill: #ffffff"/>
  </g>
  <g id="axes_1">
   <g id="patch_2">
    <path d="M 72 384.48 
L 518.4 384.48 
L 518.4 51.84 
L 72 51.84 
z
" style="fill: #ffffff"/>
   </g>
   <g id="matplotlib.axis_1">
    <g id="xtick_1">
     <g id="line2d_1">
      <path d="M 92.290909 384.48 
L 92.290909 51.84 
" clip-path="url(#p5ec83793ad)" style="fill: none; stroke: #b0b0b0; stroke-width: 0.8; stroke-linecap: square"/>
     </g>
     <g id="line2d_2">
      <defs>
       <path id="meb24e97d65" d="M 0 0 
L 0 3.5 
" style="stroke: #000000; stroke-width: 0.8"/>
      </defs>
      <g>
       <use xlink:href="#meb24e97d65" x="92.290909" y="384.48" style="stroke: #000000; stroke-width: 0.8"/>
      </g>
     </g>
     <g id="text_1">
      <!-- 0.17 -->
      <g transform="translate(81.158097 399.078438) scale(0.1 -0.1)">
       <defs>
        <path id="DejaVuSans-30" d="M 2034 4250 
Q 1547 4250 1301 3770 
Q 1056 3291 1056 2328 
Q 1056 1369 1301 889 
Q 1547 409 2034 409 
Q 2525 409 2770 889 
Q 3016 1369 3016 2328 
Q 3016 3291 2770 3770 
Q 2525 4250 2034 4250 
z
M 2034 4750 
Q 2819 4750 3233 4129 
Q 3647 3509 3647 2328 
Q 3647 1150 3233 529 
Q 2819 -91 2034 -91 
Q 1250 -91 836 529 
Q 422 1150 422 2328 
Q 422 3509 836 4129 
Q 1250 4750 2034 4750 
z
" transform="scale(0.015625)"/>
        <path id="DejaVuSans-2e" d="M 684 794 
L 1344 794 
L 1344 0 
L 684 0 
L 684 794 
z
" transform="scale(0.015625)"/>
        <path id="DejaVuSans-31" d="M 794 531 
L 1825 531 
L 1825 4091 
L 703 3866 
L 703 4441 
L 1819 4666 
L 2450 4666 
L 2450 531 
L 3481 531 
L 3481 0 
L 794 0 
L 794 531 
z
" transform="scale(0.015625)"/>
        <path id="DejaVuSans-37" d="M 525 4666 
L 3525 4666 
L 3525 4397 
L 1831 0 
L 1172 0 
L 2766 4134 
L 525 4134 
L 525 4666 
z
" transform="scale(0.015625)"/>
       </defs>
       <use xlink:href="#DejaVuSans-30"/>
       <use xlink:href="#DejaVuSans-2e" x="63.623047"/>
       <use xlink:href="#DejaVuSans-31" x="95.410156"/>
       <use xlink:href="#DejaVuSans-37" x="159.033203"/>
      </g>
     </g>
    </g>
    <g id="xtick_2">
     <g id="line2d_3">
      <path d="M 158.010453 384.48 
L 158.010453 51.84 
" clip-path="url(#p5ec83793ad)" style="fill: none; stroke: #b0b0b0; stroke-width: 0.8; stroke-linecap: square"/>
     </g>
     <g id="line2d_4">
      <g>
       <use xlink:href="#meb24e97d65" x="158.010453" y="384.48" style="stroke: #000000; stroke-width: 0.8"/>
      </g>
     </g>
     <g id="text_2">
      <!-- 6.83 -->
      <g transform="translate(146.87764 399.078438) scale(0.1 -0.1)">
       <defs>
        <path id="DejaVuSans-36" d="M 2113 2584 
Q 1688 2584 1439 2293 
Q 1191 2003 1191 1497 
Q 1191 994 1439 701 
Q 1688 409 2113 409 
Q 2538 409 2786 701 
Q 3034 994 3034 1497 
Q 3034 2003 2786 2293 
Q 2538 2584 2113 2584 
z
M 3366 4563 
L 3366 3988 
Q 3128 4100 2886 4159 
Q 2644 4219 2406 4219 
Q 1781 4219 1451 3797 
Q 1122 3375 1075 2522 
Q 1259 2794 1537 2939 
Q 1816 3084 2150 3084 
Q 2853 3084 3261 2657 
Q 3669 2231 3669 1497 
Q 3669 778 3244 343 
Q 2819 -91 2113 -91 
Q 1303 -91 875 529 
Q 447 1150 447 2328 
Q 447 3434 972 4092 
Q 1497 4750 2381 4750 
Q 2619 4750 2861 4703 
Q 3103 4656 3366 4563 
z
" transform="scale(0.015625)"/>
        <path id="DejaVuSans-38" d="M 2034 2216 
Q 1584 2216 1326 1975 
Q 1069 1734 1069 1313 
Q 1069 891 1326 650 
Q 1584 409 2034 409 
Q 2484 409 2743 651 
Q 3003 894 3003 1313 
Q 3003 1734 2745 1975 
Q 2488 2216 2034 2216 
z
M 1403 2484 
Q 997 2584 770 2862 
Q 544 3141 544 3541 
Q 544 4100 942 4425 
Q 1341 4750 2034 4750 
Q 2731 4750 3128 4425 
Q 3525 4100 3525 3541 
Q 3525 3141 3298 2862 
Q 3072 2584 2669 2484 
Q 3125 2378 3379 2068 
Q 3634 1759 3634 1313 
Q 3634 634 3220 271 
Q 2806 -91 2034 -91 
Q 1263 -91 848 271 
Q 434 634 434 1313 
Q 434 1759 690 2068 
Q 947 2378 1403 2484 
z
M 1172 3481 
Q 1172 3119 1398 2916 
Q 1625 2713 2034 2713 
Q 2441 2713 2670 2916 
Q 2900 3119 2900 3481 
Q 2900 3844 2670 4047 
Q 2441 4250 2034 4250 
Q 1625 4250 1398 4047 
Q 1172 3844 1172 3481 
z
" transform="scale(0.015625)"/>
        <path id="DejaVuSans-33" d="M 2597 2516 
Q 3050 2419 3304 2112 
Q 3559 1806 3559 1356 
Q 3559 666 3084 287 
Q 2609 -91 1734 -91 
Q 1441 -91 1130 -33 
Q 819 25 488 141 
L 488 750 
Q 750 597 1062 519 
Q 1375 441 1716 441 
Q 2309 441 2620 675 
Q 2931 909 2931 1356 
Q 2931 1769 2642 2001 
Q 2353 2234 1838 2234 
L 1294 2234 
L 1294 2753 
L 1863 2753 
Q 2328 2753 2575 2939 
Q 2822 3125 2822 3475 
Q 2822 3834 2567 4026 
Q 2313 4219 1838 4219 
Q 1578 4219 1281 4162 
Q 984 4106 628 3988 
L 628 4550 
Q 988 4650 1302 4700 
Q 1616 4750 1894 4750 
Q 2613 4750 3031 4423 
Q 3450 4097 3450 3541 
Q 3450 3153 3228 2886 
Q 3006 2619 2597 2516 
z
" transform="scale(0.015625)"/>
       </defs>
       <use xlink:href="#DejaVuSans-36"/>
       <use xlink:href="#DejaVuSans-2e" x="63.623047"/>
       <use xlink:href="#DejaVuSans-38" x="95.410156"/>
       <use xlink:href="#DejaVuSans-33" x="159.033203"/>
      </g>
     </g>
    </g>
    <g id="xtick_3">
     <g id="line2d_5">
      <path d="M 223.729996 384.48 
L 223.729996 51.84 
" clip-path="url(#p5ec83793ad)" style="fill: none; stroke: #b0b0b0; stroke-width: 0.8; stroke-linecap: square"/>
     </g>
     <g id="line2d_6">
      <g>
       <use xlink:href="#meb24e97d65" x="223.729996" y="384.48" style="stroke: #000000; stroke-width: 0.8"/>
      </g>
     </g>
     <g id="text_3">
      <!-- 13.5 -->
      <g transform="translate(212.597184 399.078438) scale(0.1 -0.1)">
       <defs>
        <path id="DejaVuSans-35" d="M 691 4666 
L 3169 4666 
L 3169 4134 
L 1269 4134 
L 1269 2991 
Q 1406 3038 1543 3061 
Q 1681 3084 1819 3084 
Q 2600 3084 3056 2656 
Q 3513 2228 3513 1497 
Q 3513 744 3044 326 
Q 2575 -91 1722 -91 
Q 1428 -91 1123 -41 
Q 819 9 494 109 
L 494 744 
Q 775 591 1075 516 
Q 1375 441 1709 441 
Q 2250 441 2565 725 
Q 2881 1009 2881 1497 
Q 2881 1984 2565 2268 
Q 2250 2553 1709 2553 
Q 1456 2553 1204 2497 
Q 953 2441 691 2322 
L 691 4666 
z
" transform="scale(0.015625)"/>
       </defs>
       <use xlink:href="#DejaVuSans-31"/>
       <use xlink:href="#DejaVuSans-33" x="63.623047"/>
       <use xlink:href="#DejaVuSans-2e" x="127.246094"/>
       <use xlink:href="#DejaVuSans-35" x="159.033203"/>
      </g>
     </g>
    </g>
    <g id="xtick_4">
     <g id="line2d_7">
      <path d="M 289.44954 384.48 
L 289.44954 51.84 
" clip-path="url(#p5ec83793ad)" style="fill: none; stroke: #b0b0b0; stroke-width: 0.8; stroke-linecap: square"/>
     </g>
     <g id="line2d_8">
      <g>
       <use xlink:href="#meb24e97d65" x="289.44954" y="384.48" style="stroke: #000000; stroke-width: 0.8"/>
      </g>
     </g>
     <g id="text_4">
      <!-- 20.17 -->
      <g transform="translate(275.135477 399.078438) scale(0.1 -0.1)">
       <defs>
        <path id="DejaVuSans-32" d="M 1228 531 
L 3431 531 
L 3431 0 
L 469 0 
L 469 531 
Q 828 903 1448 1529 
Q 2069 2156 2228 2338 
Q 2531 2678 2651 2914 
Q 2772 3150 2772 3378 
Q 2772 3750 2511 3984 
Q 2250 4219 1831 4219 
Q 1534 4219 1204 4116 
Q 875 4013 500 3803 
L 500 4441 
Q 881 4594 1212 4672 
Q 1544 4750 1819 4750 
Q 2544 4750 2975 4387 
Q 3406 4025 3406 3419 
Q 3406 3131 3298 2873 
Q 3191 2616 2906 2266 
Q 2828 2175 2409 1742 
Q 1991 1309 1228 531 
z
" transform="scale(0.015625)"/>
       </defs>
       <use xlink:href="#DejaVuSans-32"/>
       <use xlink:href="#DejaVuSans-30" x="63.623047"/>
       <use xlink:href="#DejaVuSans-2e" x="127.246094"/>
       <use xlink:href="#DejaVuSans-31" x="159.033203"/>
       <use xlink:href="#DejaVuSans-37" x="222.65625"/>
      </g>
     </g>
    </g>
    <g id="xtick_5">
     <g id="line2d_9">
      <path d="M 355.169084 384.48 
L 355.169084 51.84 
" clip-path="url(#p5ec83793ad)" style="fill: none; stroke: #b0b0b0; stroke-width: 0.8; stroke-linecap: square"/>
     </g>
     <g id="line2d_10">
      <g>
       <use xlink:href="#meb24e97d65" x="355.169084" y="384.48" style="stroke: #000000; stroke-width: 0.8"/>
      </g>
     </g>
     <g id="text_5">
      <!-- 26.83 -->
      <g transform="translate(340.855021 399.078438) scale(0.1 -0.1)">
       <use xlink:href="#DejaVuSans-32"/>
       <use xlink:href="#DejaVuSans-36" x="63.623047"/>
       <use xlink:href="#DejaVuSans-2e" x="127.246094"/>
       <use xlink:href="#DejaVuSans-38" x="159.033203"/>
       <use xlink:href="#DejaVuSans-33" x="222.65625"/>
      </g>
     </g>
    </g>
    <g id="xtick_6">
     <g id="line2d_11">
      <path d="M 420.888627 384.48 
L 420.888627 51.84 
" clip-path="url(#p5ec83793ad)" style="fill: none; stroke: #b0b0b0; stroke-width: 0.8; stroke-linecap: square"/>
     </g>
     <g id="line2d_12">
      <g>
       <use xlink:href="#meb24e97d65" x="420.888627" y="384.48" style="stroke: #000000; stroke-width: 0.8"/>
      </g>
     </g>
     <g id="text_6">
      <!-- 33.5 -->
      <g transform="translate(409.755815 399.078438) scale(0.1 -0.1)">
       <use xlink:href="#DejaVuSans-33"/>
       <use xlink:href="#DejaVuSans-33" x="63.623047"/>
       <use xlink:href="#DejaVuSans-2e" x="127.246094"/>
       <use xlink:href="#DejaVuSans-35" x="159.033203"/>
      </g>
     </g>
    </g>
    <g id="xtick_7">
     <g id="line2d_13">
      <path d="M 486.608171 384.48 
L 486.608171 51.84 
" clip-path="url(#p5ec83793ad)" style="fill: none; stroke: #b0b0b0; stroke-width: 0.8; stroke-linecap: square"/>
     </g>
     <g id="line2d_14">
      <g>
       <use xlink:href="#meb24e97d65" x="486.608171" y="384.48" style="stroke: #000000; stroke-width: 0.8"/>
      </g>
     </g>
     <g id="text_7">
      <!-- 40.17 -->
      <g transform="translate(472.294108 399.078438) scale(0.1 -0.1)">
       <defs>
        <path id="DejaVuSans-34" d="M 2419 4116 
L 825 1625 
L 2419 1625 
L 2419 4116 
z
M 2253 4666 
L 3047 4666 
L 3047 1625 
L 3713 1625 
L 3713 1100 
L 3047 1100 
L 3047 0 
L 2419 0 
L 2419 1100 
L 313 1100 
L 313 1709 
L 2253 4666 
z
" transform="scale(0.015625)"/>
       </defs>
       <use xlink:href="#DejaVuSans-34"/>
       <use xlink:href="#DejaVuSans-30" x="63.623047"/>
       <use xlink:href="#DejaVuSans-2e" x="127.246094"/>
       <use xlink:href="#DejaVuSans-31" x="159.033203"/>
       <use xlink:href="#DejaVuSans-37" x="222.65625"/>
      </g>
     </g>
    </g>
    <g id="text_8">
     <!-- time in hours [h] -->
     <g transform="translate(253.451562 412.756563) scale(0.1 -0.1)">
      <defs>
       <path id="DejaVuSans-74" d="M 1172 4494 
L 1172 3500 
L 2356 3500 
L 2356 3053 
L 1172 3053 
L 1172 1153 
Q 1172 725 1289 603 
Q 1406 481 1766 481 
L 2356 481 
L 2356 0 
L 1766 0 
Q 1100 0 847 248 
Q 594 497 594 1153 
L 594 3053 
L 172 3053 
L 172 3500 
L 594 3500 
L 594 4494 
L 1172 4494 
z
" transform="scale(0.015625)"/>
       <path id="DejaVuSans-69" d="M 603 3500 
L 1178 3500 
L 1178 0 
L 603 0 
L 603 3500 
z
M 603 4863 
L 1178 4863 
L 1178 4134 
L 603 4134 
L 603 4863 
z
" transform="scale(0.015625)"/>
       <path id="DejaVuSans-6d" d="M 3328 2828 
Q 3544 3216 3844 3400 
Q 4144 3584 4550 3584 
Q 5097 3584 5394 3201 
Q 5691 2819 5691 2113 
L 5691 0 
L 5113 0 
L 5113 2094 
Q 5113 2597 4934 2840 
Q 4756 3084 4391 3084 
Q 3944 3084 3684 2787 
Q 3425 2491 3425 1978 
L 3425 0 
L 2847 0 
L 2847 2094 
Q 2847 2600 2669 2842 
Q 2491 3084 2119 3084 
Q 1678 3084 1418 2786 
Q 1159 2488 1159 1978 
L 1159 0 
L 581 0 
L 581 3500 
L 1159 3500 
L 1159 2956 
Q 1356 3278 1631 3431 
Q 1906 3584 2284 3584 
Q 2666 3584 2933 3390 
Q 3200 3197 3328 2828 
z
" transform="scale(0.015625)"/>
       <path id="DejaVuSans-65" d="M 3597 1894 
L 3597 1613 
L 953 1613 
Q 991 1019 1311 708 
Q 1631 397 2203 397 
Q 2534 397 2845 478 
Q 3156 559 3463 722 
L 3463 178 
Q 3153 47 2828 -22 
Q 2503 -91 2169 -91 
Q 1331 -91 842 396 
Q 353 884 353 1716 
Q 353 2575 817 3079 
Q 1281 3584 2069 3584 
Q 2775 3584 3186 3129 
Q 3597 2675 3597 1894 
z
M 3022 2063 
Q 3016 2534 2758 2815 
Q 2500 3097 2075 3097 
Q 1594 3097 1305 2825 
Q 1016 2553 972 2059 
L 3022 2063 
z
" transform="scale(0.015625)"/>
       <path id="DejaVuSans-20" transform="scale(0.015625)"/>
       <path id="DejaVuSans-6e" d="M 3513 2113 
L 3513 0 
L 2938 0 
L 2938 2094 
Q 2938 2591 2744 2837 
Q 2550 3084 2163 3084 
Q 1697 3084 1428 2787 
Q 1159 2491 1159 1978 
L 1159 0 
L 581 0 
L 581 3500 
L 1159 3500 
L 1159 2956 
Q 1366 3272 1645 3428 
Q 1925 3584 2291 3584 
Q 2894 3584 3203 3211 
Q 3513 2838 3513 2113 
z
" transform="scale(0.015625)"/>
       <path id="DejaVuSans-68" d="M 3513 2113 
L 3513 0 
L 2938 0 
L 2938 2094 
Q 2938 2591 2744 2837 
Q 2550 3084 2163 3084 
Q 1697 3084 1428 2787 
Q 1159 2491 1159 1978 
L 1159 0 
L 581 0 
L 581 4863 
L 1159 4863 
L 1159 2956 
Q 1366 3272 1645 3428 
Q 1925 3584 2291 3584 
Q 2894 3584 3203 3211 
Q 3513 2838 3513 2113 
z
" transform="scale(0.015625)"/>
       <path id="DejaVuSans-6f" d="M 1959 3097 
Q 1497 3097 1228 2736 
Q 959 2375 959 1747 
Q 959 1119 1226 758 
Q 1494 397 1959 397 
Q 2419 397 2687 759 
Q 2956 1122 2956 1747 
Q 2956 2369 2687 2733 
Q 2419 3097 1959 3097 
z
M 1959 3584 
Q 2709 3584 3137 3096 
Q 3566 2609 3566 1747 
Q 3566 888 3137 398 
Q 2709 -91 1959 -91 
Q 1206 -91 779 398 
Q 353 888 353 1747 
Q 353 2609 779 3096 
Q 1206 3584 1959 3584 
z
" transform="scale(0.015625)"/>
       <path id="DejaVuSans-75" d="M 544 1381 
L 544 3500 
L 1119 3500 
L 1119 1403 
Q 1119 906 1312 657 
Q 1506 409 1894 409 
Q 2359 409 2629 706 
Q 2900 1003 2900 1516 
L 2900 3500 
L 3475 3500 
L 3475 0 
L 2900 0 
L 2900 538 
Q 2691 219 2414 64 
Q 2138 -91 1772 -91 
Q 1169 -91 856 284 
Q 544 659 544 1381 
z
M 1991 3584 
L 1991 3584 
z
" transform="scale(0.015625)"/>
       <path id="DejaVuSans-72" d="M 2631 2963 
Q 2534 3019 2420 3045 
Q 2306 3072 2169 3072 
Q 1681 3072 1420 2755 
Q 1159 2438 1159 1844 
L 1159 0 
L 581 0 
L 581 3500 
L 1159 3500 
L 1159 2956 
Q 1341 3275 1631 3429 
Q 1922 3584 2338 3584 
Q 2397 3584 2469 3576 
Q 2541 3569 2628 3553 
L 2631 2963 
z
" transform="scale(0.015625)"/>
       <path id="DejaVuSans-73" d="M 2834 3397 
L 2834 2853 
Q 2591 2978 2328 3040 
Q 2066 3103 1784 3103 
Q 1356 3103 1142 2972 
Q 928 2841 928 2578 
Q 928 2378 1081 2264 
Q 1234 2150 1697 2047 
L 1894 2003 
Q 2506 1872 2764 1633 
Q 3022 1394 3022 966 
Q 3022 478 2636 193 
Q 2250 -91 1575 -91 
Q 1294 -91 989 -36 
Q 684 19 347 128 
L 347 722 
Q 666 556 975 473 
Q 1284 391 1588 391 
Q 1994 391 2212 530 
Q 2431 669 2431 922 
Q 2431 1156 2273 1281 
Q 2116 1406 1581 1522 
L 1381 1569 
Q 847 1681 609 1914 
Q 372 2147 372 2553 
Q 372 3047 722 3315 
Q 1072 3584 1716 3584 
Q 2034 3584 2315 3537 
Q 2597 3491 2834 3397 
z
" transform="scale(0.015625)"/>
       <path id="DejaVuSans-5b" d="M 550 4863 
L 1875 4863 
L 1875 4416 
L 1125 4416 
L 1125 -397 
L 1875 -397 
L 1875 -844 
L 550 -844 
L 550 4863 
z
" transform="scale(0.015625)"/>
       <path id="DejaVuSans-5d" d="M 1947 4863 
L 1947 -844 
L 622 -844 
L 622 -397 
L 1369 -397 
L 1369 4416 
L 622 4416 
L 622 4863 
L 1947 4863 
z
" transform="scale(0.015625)"/>
      </defs>
      <use xlink:href="#DejaVuSans-74"/>
      <use xlink:href="#DejaVuSans-69" x="39.208984"/>
      <use xlink:href="#DejaVuSans-6d" x="66.992188"/>
      <use xlink:href="#DejaVuSans-65" x="164.404297"/>
      <use xlink:href="#DejaVuSans-20" x="225.927734"/>
      <use xlink:href="#DejaVuSans-69" x="257.714844"/>
      <use xlink:href="#DejaVuSans-6e" x="285.498047"/>
      <use xlink:href="#DejaVuSans-20" x="348.876953"/>
      <use xlink:href="#DejaVuSans-68" x="380.664062"/>
      <use xlink:href="#DejaVuSans-6f" x="444.042969"/>
      <use xlink:href="#DejaVuSans-75" x="505.224609"/>
      <use xlink:href="#DejaVuSans-72" x="568.603516"/>
      <use xlink:href="#DejaVuSans-73" x="609.716797"/>
      <use xlink:href="#DejaVuSans-20" x="661.816406"/>
      <use xlink:href="#DejaVuSans-5b" x="693.603516"/>
      <use xlink:href="#DejaVuSans-68" x="732.617188"/>
      <use xlink:href="#DejaVuSans-5d" x="795.996094"/>
     </g>
    </g>
   </g>
   <g id="matplotlib.axis_2">
    <g id="ytick_1">
     <g id="line2d_15">
      <path d="M 72 363.69 
L 518.4 363.69 
" clip-path="url(#p5ec83793ad)" style="fill: none; stroke: #b0b0b0; stroke-width: 0.8; stroke-linecap: square"/>
     </g>
     <g id="line2d_16">
      <defs>
       <path id="m484e9ac9de" d="M 0 0 
L -3.5 0 
" style="stroke: #000000; stroke-width: 0.8"/>
      </defs>
      <g>
       <use xlink:href="#m484e9ac9de" x="72" y="363.69" style="stroke: #000000; stroke-width: 0.8"/>
      </g>
     </g>
     <g id="text_9">
      <!-- 0.0 -->
      <g transform="translate(49.096875 367.489219) scale(0.1 -0.1)">
       <use xlink:href="#DejaVuSans-30"/>
       <use xlink:href="#DejaVuSans-2e" x="63.623047"/>
       <use xlink:href="#DejaVuSans-30" x="95.410156"/>
      </g>
     </g>
    </g>
    <g id="ytick_2">
     <g id="line2d_17">
      <path d="M 72 311.715 
L 518.4 311.715 
" clip-path="url(#p5ec83793ad)" style="fill: none; stroke: #b0b0b0; stroke-width: 0.8; stroke-linecap: square"/>
     </g>
     <g id="line2d_18">
      <g>
       <use xlink:href="#m484e9ac9de" x="72" y="311.715" style="stroke: #000000; stroke-width: 0.8"/>
      </g>
     </g>
     <g id="text_10">
      <!-- 0.5 -->
      <g transform="translate(49.096875 315.514219) scale(0.1 -0.1)">
       <use xlink:href="#DejaVuSans-30"/>
       <use xlink:href="#DejaVuSans-2e" x="63.623047"/>
       <use xlink:href="#DejaVuSans-35" x="95.410156"/>
      </g>
     </g>
    </g>
    <g id="ytick_3">
     <g id="line2d_19">
      <path d="M 72 259.74 
L 518.4 259.74 
" clip-path="url(#p5ec83793ad)" style="fill: none; stroke: #b0b0b0; stroke-width: 0.8; stroke-linecap: square"/>
     </g>
     <g id="line2d_20">
      <g>
       <use xlink:href="#m484e9ac9de" x="72" y="259.74" style="stroke: #000000; stroke-width: 0.8"/>
      </g>
     </g>
     <g id="text_11">
      <!-- 1.0 -->
      <g transform="translate(49.096875 263.539219) scale(0.1 -0.1)">
       <use xlink:href="#DejaVuSans-31"/>
       <use xlink:href="#DejaVuSans-2e" x="63.623047"/>
       <use xlink:href="#DejaVuSans-30" x="95.410156"/>
      </g>
     </g>
    </g>
    <g id="ytick_4">
     <g id="line2d_21">
      <path d="M 72 207.765 
L 518.4 207.765 
" clip-path="url(#p5ec83793ad)" style="fill: none; stroke: #b0b0b0; stroke-width: 0.8; stroke-linecap: square"/>
     </g>
     <g id="line2d_22">
      <g>
       <use xlink:href="#m484e9ac9de" x="72" y="207.765" style="stroke: #000000; stroke-width: 0.8"/>
      </g>
     </g>
     <g id="text_12">
      <!-- 1.5 -->
      <g transform="translate(49.096875 211.564219) scale(0.1 -0.1)">
       <use xlink:href="#DejaVuSans-31"/>
       <use xlink:href="#DejaVuSans-2e" x="63.623047"/>
       <use xlink:href="#DejaVuSans-35" x="95.410156"/>
      </g>
     </g>
    </g>
    <g id="ytick_5">
     <g id="line2d_23">
      <path d="M 72 155.79 
L 518.4 155.79 
" clip-path="url(#p5ec83793ad)" style="fill: none; stroke: #b0b0b0; stroke-width: 0.8; stroke-linecap: square"/>
     </g>
     <g id="line2d_24">
      <g>
       <use xlink:href="#m484e9ac9de" x="72" y="155.79" style="stroke: #000000; stroke-width: 0.8"/>
      </g>
     </g>
     <g id="text_13">
      <!-- 2.0 -->
      <g transform="translate(49.096875 159.589219) scale(0.1 -0.1)">
       <use xlink:href="#DejaVuSans-32"/>
       <use xlink:href="#DejaVuSans-2e" x="63.623047"/>
       <use xlink:href="#DejaVuSans-30" x="95.410156"/>
      </g>
     </g>
    </g>
    <g id="ytick_6">
     <g id="line2d_25">
      <path d="M 72 103.815 
L 518.4 103.815 
" clip-path="url(#p5ec83793ad)" style="fill: none; stroke: #b0b0b0; stroke-width: 0.8; stroke-linecap: square"/>
     </g>
     <g id="line2d_26">
      <g>
       <use xlink:href="#m484e9ac9de" x="72" y="103.815" style="stroke: #000000; stroke-width: 0.8"/>
      </g>
     </g>
     <g id="text_14">
      <!-- 2.5 -->
      <g transform="translate(49.096875 107.614219) scale(0.1 -0.1)">
       <use xlink:href="#DejaVuSans-32"/>
       <use xlink:href="#DejaVuSans-2e" x="63.623047"/>
       <use xlink:href="#DejaVuSans-35" x="95.410156"/>
      </g>
     </g>
    </g>
    <g id="ytick_7">
     <g id="line2d_27">
      <path d="M 72 51.84 
L 518.4 51.84 
" clip-path="url(#p5ec83793ad)" style="fill: none; stroke: #b0b0b0; stroke-width: 0.8; stroke-linecap: square"/>
     </g>
     <g id="line2d_28">
      <g>
       <use xlink:href="#m484e9ac9de" x="72" y="51.84" style="stroke: #000000; stroke-width: 0.8"/>
      </g>
     </g>
     <g id="text_15">
      <!-- 3.0 -->
      <g transform="translate(49.096875 55.639219) scale(0.1 -0.1)">
       <use xlink:href="#DejaVuSans-33"/>
       <use xlink:href="#DejaVuSans-2e" x="63.623047"/>
       <use xlink:href="#DejaVuSans-30" x="95.410156"/>
      </g>
     </g>
    </g>
    <g id="text_16">
     <!-- blank corrected OD600 -->
     <g transform="translate(43.017187 276.115469) rotate(-90) scale(0.1 -0.1)">
      <defs>
       <path id="DejaVuSans-62" d="M 3116 1747 
Q 3116 2381 2855 2742 
Q 2594 3103 2138 3103 
Q 1681 3103 1420 2742 
Q 1159 2381 1159 1747 
Q 1159 1113 1420 752 
Q 1681 391 2138 391 
Q 2594 391 2855 752 
Q 3116 1113 3116 1747 
z
M 1159 2969 
Q 1341 3281 1617 3432 
Q 1894 3584 2278 3584 
Q 2916 3584 3314 3078 
Q 3713 2572 3713 1747 
Q 3713 922 3314 415 
Q 2916 -91 2278 -91 
Q 1894 -91 1617 61 
Q 1341 213 1159 525 
L 1159 0 
L 581 0 
L 581 4863 
L 1159 4863 
L 1159 2969 
z
" transform="scale(0.015625)"/>
       <path id="DejaVuSans-6c" d="M 603 4863 
L 1178 4863 
L 1178 0 
L 603 0 
L 603 4863 
z
" transform="scale(0.015625)"/>
       <path id="DejaVuSans-61" d="M 2194 1759 
Q 1497 1759 1228 1600 
Q 959 1441 959 1056 
Q 959 750 1161 570 
Q 1363 391 1709 391 
Q 2188 391 2477 730 
Q 2766 1069 2766 1631 
L 2766 1759 
L 2194 1759 
z
M 3341 1997 
L 3341 0 
L 2766 0 
L 2766 531 
Q 2569 213 2275 61 
Q 1981 -91 1556 -91 
Q 1019 -91 701 211 
Q 384 513 384 1019 
Q 384 1609 779 1909 
Q 1175 2209 1959 2209 
L 2766 2209 
L 2766 2266 
Q 2766 2663 2505 2880 
Q 2244 3097 1772 3097 
Q 1472 3097 1187 3025 
Q 903 2953 641 2809 
L 641 3341 
Q 956 3463 1253 3523 
Q 1550 3584 1831 3584 
Q 2591 3584 2966 3190 
Q 3341 2797 3341 1997 
z
" transform="scale(0.015625)"/>
       <path id="DejaVuSans-6b" d="M 581 4863 
L 1159 4863 
L 1159 1991 
L 2875 3500 
L 3609 3500 
L 1753 1863 
L 3688 0 
L 2938 0 
L 1159 1709 
L 1159 0 
L 581 0 
L 581 4863 
z
" transform="scale(0.015625)"/>
       <path id="DejaVuSans-63" d="M 3122 3366 
L 3122 2828 
Q 2878 2963 2633 3030 
Q 2388 3097 2138 3097 
Q 1578 3097 1268 2742 
Q 959 2388 959 1747 
Q 959 1106 1268 751 
Q 1578 397 2138 397 
Q 2388 397 2633 464 
Q 2878 531 3122 666 
L 3122 134 
Q 2881 22 2623 -34 
Q 2366 -91 2075 -91 
Q 1284 -91 818 406 
Q 353 903 353 1747 
Q 353 2603 823 3093 
Q 1294 3584 2113 3584 
Q 2378 3584 2631 3529 
Q 2884 3475 3122 3366 
z
" transform="scale(0.015625)"/>
       <path id="DejaVuSans-64" d="M 2906 2969 
L 2906 4863 
L 3481 4863 
L 3481 0 
L 2906 0 
L 2906 525 
Q 2725 213 2448 61 
Q 2172 -91 1784 -91 
Q 1150 -91 751 415 
Q 353 922 353 1747 
Q 353 2572 751 3078 
Q 1150 3584 1784 3584 
Q 2172 3584 2448 3432 
Q 2725 3281 2906 2969 
z
M 947 1747 
Q 947 1113 1208 752 
Q 1469 391 1925 391 
Q 2381 391 2643 752 
Q 2906 1113 2906 1747 
Q 2906 2381 2643 2742 
Q 2381 3103 1925 3103 
Q 1469 3103 1208 2742 
Q 947 2381 947 1747 
z
" transform="scale(0.015625)"/>
       <path id="DejaVuSans-4f" d="M 2522 4238 
Q 1834 4238 1429 3725 
Q 1025 3213 1025 2328 
Q 1025 1447 1429 934 
Q 1834 422 2522 422 
Q 3209 422 3611 934 
Q 4013 1447 4013 2328 
Q 4013 3213 3611 3725 
Q 3209 4238 2522 4238 
z
M 2522 4750 
Q 3503 4750 4090 4092 
Q 4678 3434 4678 2328 
Q 4678 1225 4090 567 
Q 3503 -91 2522 -91 
Q 1538 -91 948 565 
Q 359 1222 359 2328 
Q 359 3434 948 4092 
Q 1538 4750 2522 4750 
z
" transform="scale(0.015625)"/>
       <path id="DejaVuSans-44" d="M 1259 4147 
L 1259 519 
L 2022 519 
Q 2988 519 3436 956 
Q 3884 1394 3884 2338 
Q 3884 3275 3436 3711 
Q 2988 4147 2022 4147 
L 1259 4147 
z
M 628 4666 
L 1925 4666 
Q 3281 4666 3915 4102 
Q 4550 3538 4550 2338 
Q 4550 1131 3912 565 
Q 3275 0 1925 0 
L 628 0 
L 628 4666 
z
" transform="scale(0.015625)"/>
      </defs>
      <use xlink:href="#DejaVuSans-62"/>
      <use xlink:href="#DejaVuSans-6c" x="63.476562"/>
      <use xlink:href="#DejaVuSans-61" x="91.259766"/>
      <use xlink:href="#DejaVuSans-6e" x="152.539062"/>
      <use xlink:href="#DejaVuSans-6b" x="215.917969"/>
      <use xlink:href="#DejaVuSans-20" x="273.828125"/>
      <use xlink:href="#DejaVuSans-63" x="305.615234"/>
      <use xlink:href="#DejaVuSans-6f" x="360.595703"/>
      <use xlink:href="#DejaVuSans-72" x="421.777344"/>
      <use xlink:href="#DejaVuSans-72" x="461.140625"/>
      <use xlink:href="#DejaVuSans-65" x="500.003906"/>
      <use xlink:href="#DejaVuSans-63" x="561.527344"/>
      <use xlink:href="#DejaVuSans-74" x="616.507812"/>
      <use xlink:href="#DejaVuSans-65" x="655.716797"/>
      <use xlink:href="#DejaVuSans-64" x="717.240234"/>
      <use xlink:href="#DejaVuSans-20" x="780.716797"/>
      <use xlink:href="#DejaVuSans-4f" x="812.503906"/>
      <use xlink:href="#DejaVuSans-44" x="891.214844"/>
      <use xlink:href="#DejaVuSans-36" x="968.216797"/>
      <use xlink:href="#DejaVuSans-30" x="1031.839844"/>
      <use xlink:href="#DejaVuSans-30" x="1095.462891"/>
     </g>
    </g>
   </g>
   <g id="line2d_29">
    <path d="M 92.290909 366.572534 
L 95.576886 367.715983 
L 97.219875 366.468584 
L 100.505852 366.364634 
L 102.148841 366.988334 
L 103.791829 367.819933 
L 105.434818 367.819933 
L 107.077806 368.547583 
L 108.720795 368.859434 
L 112.006772 369.171284 
L 113.649761 369.483134 
L 116.935738 369.379184 
L 118.578727 369.691034 
L 120.221715 369.379184 
L 123.507692 369.691034 
L 125.150681 369.587084 
L 126.793669 369.898933 
L 128.436658 369.691034 
L 131.722635 369.691034 
L 133.365624 369.898933 
L 135.008612 369.898933 
L 138.29459 369.275234 
L 139.937578 370.002883 
L 141.580567 369.587084 
L 143.223555 369.898933 
L 144.866544 370.002883 
L 146.509533 369.794984 
L 149.79551 369.898933 
L 153.081487 369.794984 
L 154.724476 369.691034 
L 156.367464 369.794984 
L 158.010453 369.587084 
L 166.225396 369.483134 
L 169.511373 369.275234 
L 171.154361 369.379184 
L 176.083327 369.067334 
L 177.726316 369.171284 
L 179.369304 369.067334 
L 181.012293 369.171284 
L 184.29827 369.067334 
L 189.227236 368.963384 
L 192.513213 368.859434 
L 194.156202 368.963384 
L 195.79919 368.859434 
L 199.085167 368.963384 
L 200.728156 368.651533 
L 205.657122 368.755484 
L 207.30011 368.963384 
L 208.943099 368.755484 
L 210.586088 368.755484 
L 212.229076 368.443633 
L 213.872065 368.755484 
L 215.515053 368.235733 
L 217.158042 368.755484 
L 218.801031 368.443633 
L 222.087008 368.547583 
L 225.372985 368.443633 
L 227.015974 368.443633 
L 228.658962 368.755484 
L 230.301951 368.443633 
L 231.944939 368.547583 
L 233.587928 368.859434 
L 235.230916 368.443633 
L 236.873905 368.547583 
L 238.516894 368.339683 
L 240.159882 368.443633 
L 241.802871 368.339683 
L 243.445859 368.443633 
L 245.088848 368.339683 
L 246.731837 368.443633 
L 248.374825 368.235733 
L 250.017814 368.235733 
L 251.660802 368.027833 
L 253.303791 368.235733 
L 263.161722 368.339683 
L 264.804711 368.027833 
L 268.090688 368.235733 
L 269.733677 368.027833 
L 271.376665 368.131783 
L 273.019654 367.923883 
L 284.520574 367.923883 
L 286.163563 367.715983 
L 289.44954 367.819933 
L 292.735517 367.715983 
L 294.378506 367.508083 
L 296.021494 367.612033 
L 300.95046 367.404134 
L 302.593449 367.508083 
L 304.236437 367.196234 
L 305.879426 367.300184 
L 307.522414 367.092284 
L 314.094369 367.092284 
L 315.737357 366.884384 
L 319.023335 366.884384 
L 320.666323 367.092284 
L 323.9523 366.780434 
L 327.238278 366.572534 
L 330.524255 366.676484 
L 332.167243 366.364634 
L 333.810232 366.260683 
L 335.45322 366.364634 
L 337.096209 366.260683 
L 338.739198 366.572534 
L 346.954141 365.636983 
L 348.597129 365.740933 
L 353.526095 365.117233 
L 355.169084 364.701434 
L 358.455061 364.909334 
L 363.384026 364.389584 
L 365.027015 363.142183 
L 366.670004 363.973783 
L 368.312992 363.765883 
L 369.955981 362.206634 
L 371.598969 363.142183 
L 373.241958 362.934283 
L 374.884947 363.246133 
L 376.527935 361.998734 
L 378.170924 362.206634 
L 379.813912 361.790834 
L 381.456901 361.582934 
L 383.09989 360.959233 
L 384.742878 361.686884 
L 386.385867 359.919734 
L 388.028855 360.127634 
L 391.314833 359.711834 
L 394.60081 358.984183 
L 396.243798 359.503934 
L 397.886787 359.192083 
L 401.172764 359.088133 
L 402.815753 358.464433 
L 404.458741 358.672333 
L 406.10173 358.672333 
L 407.744718 358.880233 
L 409.387707 358.360483 
L 411.030696 358.568383 
L 412.673684 358.360483 
L 414.316673 357.736784 
L 417.60265 357.217034 
L 425.817593 355.553833 
L 427.460582 355.034084 
L 429.10357 355.034084 
L 430.746559 354.410383 
L 434.032536 353.786683 
L 435.675524 353.162983 
L 437.318513 353.162983 
L 438.961502 352.955084 
L 440.60449 352.227434 
L 443.890467 351.291883 
L 445.533456 350.460284 
L 448.819433 349.316833 
L 452.10541 347.965484 
L 453.748399 347.757584 
L 455.391388 347.237833 
L 463.606331 343.599583 
L 465.249319 343.079834 
L 470.178285 339.753433 
L 471.821273 338.921833 
L 473.464262 338.402084 
L 476.750239 336.427033 
L 481.679205 332.892733 
L 483.322194 331.229534 
L 484.965182 330.397933 
L 486.608171 328.630784 
L 491.537137 324.472783 
L 493.180125 322.497733 
L 496.466102 319.379233 
L 498.109091 317.196283 
L 498.109091 317.196283 
" clip-path="url(#p5ec83793ad)" style="fill: none; stroke: #0000ff; stroke-opacity: 0.5; stroke-width: 1.5; stroke-linecap: square"/>
   </g>
   <g id="line2d_30">
    <path d="M 92.290909 368.547583 
L 93.933898 364.597484 
L 95.576886 365.740933 
L 97.219875 365.013284 
L 98.862863 366.052783 
L 100.505852 366.260683 
L 102.148841 366.260683 
L 103.791829 367.612033 
L 105.434818 367.196234 
L 108.720795 368.027833 
L 110.363784 367.923883 
L 113.649761 368.547583 
L 125.150681 368.547583 
L 126.793669 368.859434 
L 131.722635 368.651533 
L 133.365624 368.859434 
L 135.008612 368.859434 
L 136.651601 368.547583 
L 138.29459 368.443633 
L 139.937578 368.859434 
L 141.580567 368.755484 
L 144.866544 368.963384 
L 148.152521 368.859434 
L 154.724476 368.755484 
L 159.653441 368.443633 
L 161.29643 368.651533 
L 162.939418 368.547583 
L 166.225396 368.651533 
L 167.868384 368.339683 
L 169.511373 368.443633 
L 171.154361 368.339683 
L 172.79735 368.547583 
L 176.083327 368.235733 
L 177.726316 368.443633 
L 182.655282 368.235733 
L 199.085167 368.235733 
L 200.728156 367.923883 
L 202.371145 368.131783 
L 204.014133 367.923883 
L 205.657122 368.027833 
L 207.30011 368.339683 
L 210.586088 367.612033 
L 212.229076 368.027833 
L 217.158042 367.923883 
L 218.801031 367.715983 
L 220.444019 368.027833 
L 222.087008 367.715983 
L 223.729996 367.819933 
L 227.015974 367.715983 
L 228.658962 368.027833 
L 230.301951 367.612033 
L 233.587928 368.027833 
L 235.230916 367.715983 
L 236.873905 367.819933 
L 238.516894 367.612033 
L 240.159882 367.715983 
L 243.445859 367.612033 
L 248.374825 367.612033 
L 250.017814 367.300184 
L 251.660802 367.404134 
L 253.303791 367.300184 
L 254.94678 367.508083 
L 256.589768 367.508083 
L 258.232757 367.300184 
L 261.518734 367.404134 
L 269.733677 367.300184 
L 273.019654 367.092284 
L 274.662643 367.300184 
L 279.591608 367.092284 
L 281.234597 367.196234 
L 282.877586 366.780434 
L 284.520574 366.988334 
L 286.163563 366.988334 
L 287.806551 366.780434 
L 289.44954 366.780434 
L 291.092529 367.300184 
L 292.735517 366.884384 
L 294.378506 366.988334 
L 296.021494 366.780434 
L 305.879426 366.676484 
L 307.522414 366.364634 
L 309.165403 366.676484 
L 310.808392 366.676484 
L 312.45138 366.364634 
L 314.094369 366.260683 
L 315.737357 366.364634 
L 317.380346 366.156733 
L 320.666323 366.572534 
L 322.309312 366.156733 
L 327.238278 365.740933 
L 330.524255 366.156733 
L 332.167243 366.156733 
L 333.810232 365.844883 
L 335.45322 365.948833 
L 337.096209 365.636983 
L 338.739198 365.636983 
L 340.382186 365.844883 
L 345.311152 365.117233 
L 348.597129 364.389584 
L 353.526095 365.013284 
L 355.169084 364.597484 
L 358.455061 364.701434 
L 360.098049 364.805384 
L 361.741038 363.765883 
L 363.384026 364.285634 
L 365.027015 363.142183 
L 368.312992 362.934283 
L 369.955981 361.686884 
L 371.598969 361.894784 
L 373.241958 362.414534 
L 374.884947 361.063183 
L 376.527935 362.102684 
L 378.170924 361.271083 
L 381.456901 360.959233 
L 383.09989 360.855283 
L 384.742878 360.335533 
L 386.385867 360.231583 
L 388.028855 359.503934 
L 389.671844 360.127634 
L 392.957821 359.088133 
L 394.60081 358.984183 
L 399.529775 357.944683 
L 401.172764 358.048633 
L 402.815753 357.424934 
L 406.10173 357.320984 
L 407.744718 357.632834 
L 409.387707 356.905184 
L 412.673684 357.424934 
L 414.316673 356.697283 
L 417.60265 356.177533 
L 427.460582 354.202483 
L 430.746559 353.266933 
L 432.389547 353.370883 
L 437.318513 351.915583 
L 438.961502 351.915583 
L 440.60449 351.187933 
L 442.247479 350.980033 
L 445.533456 349.836584 
L 447.176445 349.316833 
L 448.819433 348.277333 
L 450.462422 347.965484 
L 452.10541 347.445734 
L 453.748399 346.406233 
L 455.391388 346.614133 
L 457.034376 345.782533 
L 458.677365 345.262784 
L 463.606331 342.352183 
L 465.249319 341.728483 
L 470.178285 338.817883 
L 471.821273 337.778384 
L 473.464262 337.258633 
L 475.107251 336.219133 
L 476.750239 336.219133 
L 478.393228 334.867783 
L 480.036216 333.308534 
L 481.679205 332.269033 
L 483.322194 330.917684 
L 484.965182 329.878183 
L 486.608171 328.526834 
L 489.894148 325.408333 
L 491.537137 324.160933 
L 493.180125 322.081933 
L 494.823114 320.938483 
L 496.466102 319.275284 
L 498.109091 317.300233 
L 498.109091 317.300233 
" clip-path="url(#p5ec83793ad)" style="fill: none; stroke: #0000ff; stroke-opacity: 0.5; stroke-width: 1.5; stroke-linecap: square"/>
   </g>
   <g id="line2d_31">
    <path d="M 92.290909 370.210783 
L 93.933898 364.909334 
L 95.576886 365.221183 
L 97.219875 364.805384 
L 98.862863 367.092284 
L 100.505852 366.468584 
L 102.148841 366.676484 
L 103.791829 367.404134 
L 105.434818 367.404134 
L 107.077806 367.612033 
L 108.720795 368.027833 
L 110.363784 367.923883 
L 112.006772 368.443633 
L 115.292749 368.547583 
L 116.935738 368.235733 
L 118.578727 368.651533 
L 120.221715 368.235733 
L 121.864704 368.651533 
L 123.507692 368.755484 
L 125.150681 368.547583 
L 126.793669 368.755484 
L 130.079647 368.651533 
L 131.722635 368.963384 
L 133.365624 368.755484 
L 136.651601 368.651533 
L 138.29459 368.339683 
L 139.937578 368.963384 
L 141.580567 368.651533 
L 144.866544 368.755484 
L 148.152521 368.651533 
L 153.081487 368.547583 
L 156.367464 368.339683 
L 158.010453 368.443633 
L 159.653441 368.235733 
L 161.29643 368.547583 
L 162.939418 368.339683 
L 166.225396 368.339683 
L 167.868384 368.131783 
L 177.726316 368.027833 
L 179.369304 367.923883 
L 182.655282 368.027833 
L 184.29827 367.923883 
L 185.941259 368.131783 
L 192.513213 367.715983 
L 194.156202 368.027833 
L 195.79919 367.923883 
L 199.085167 368.027833 
L 202.371145 367.923883 
L 205.657122 367.715983 
L 207.30011 368.027833 
L 208.943099 367.715983 
L 212.229076 367.508083 
L 213.872065 367.715983 
L 215.515053 367.612033 
L 217.158042 367.923883 
L 220.444019 367.508083 
L 241.802871 367.508083 
L 243.445859 367.300184 
L 253.303791 367.196234 
L 254.94678 367.092284 
L 256.589768 367.196234 
L 261.518734 366.988334 
L 264.804711 366.988334 
L 266.4477 367.300184 
L 273.019654 366.988334 
L 276.305631 366.988334 
L 279.591608 366.676484 
L 281.234597 366.884384 
L 282.877586 366.780434 
L 284.520574 366.988334 
L 287.806551 366.884384 
L 289.44954 366.676484 
L 291.092529 366.884384 
L 292.735517 366.572534 
L 296.021494 366.468584 
L 299.307471 366.260683 
L 302.593449 366.676484 
L 304.236437 366.364634 
L 305.879426 366.468584 
L 307.522414 366.260683 
L 310.808392 366.468584 
L 312.45138 366.052783 
L 319.023335 365.740933 
L 320.666323 365.844883 
L 322.309312 365.636983 
L 325.595289 365.740933 
L 327.238278 365.429083 
L 328.881266 365.844883 
L 330.524255 365.533033 
L 333.810232 365.221183 
L 335.45322 365.636983 
L 337.096209 365.117233 
L 342.025175 365.013284 
L 348.597129 364.701434 
L 351.883106 364.805384 
L 355.169084 363.038233 
L 356.812072 363.765883 
L 358.455061 363.557983 
L 360.098049 363.765883 
L 361.741038 363.454033 
L 363.384026 363.557983 
L 365.027015 363.350083 
L 366.670004 361.790834 
L 368.312992 363.038233 
L 369.955981 360.855283 
L 371.598969 361.271083 
L 373.241958 361.894784 
L 374.884947 360.855283 
L 378.170924 360.543433 
L 379.813912 359.607884 
L 381.456901 360.647383 
L 384.742878 359.711834 
L 386.385867 359.088133 
L 388.028855 359.711834 
L 389.671844 359.088133 
L 391.314833 358.256533 
L 392.957821 358.256533 
L 394.60081 358.672333 
L 396.243798 357.736784 
L 399.529775 358.048633 
L 401.172764 358.048633 
L 402.815753 357.320984 
L 409.387707 357.217034 
L 412.673684 356.801234 
L 414.316673 356.073583 
L 415.959661 356.073583 
L 417.60265 355.865683 
L 420.888627 354.826184 
L 422.531616 354.618284 
L 424.174604 354.098533 
L 425.817593 354.202483 
L 429.10357 353.266933 
L 430.746559 352.851134 
L 437.318513 351.915583 
L 438.961502 351.603733 
L 440.60449 350.460284 
L 442.247479 350.148434 
L 443.890467 349.524733 
L 445.533456 348.173383 
L 447.176445 348.277333 
L 448.819433 347.029933 
L 450.462422 346.614133 
L 453.748399 344.950934 
L 455.391388 344.431183 
L 457.034376 343.183784 
L 458.677365 342.767984 
L 463.606331 340.065283 
L 466.892308 338.713933 
L 471.821273 335.387534 
L 473.464262 334.659883 
L 475.107251 333.412484 
L 476.750239 332.684833 
L 478.393228 331.333483 
L 480.036216 330.293983 
L 481.679205 328.838684 
L 484.965182 326.655733 
L 486.608171 324.680683 
L 488.251159 323.329333 
L 489.894148 321.458234 
L 491.537137 320.210833 
L 493.180125 318.651584 
L 494.823114 316.468634 
L 496.466102 315.117283 
L 498.109091 312.310633 
L 498.109091 312.310633 
" clip-path="url(#p5ec83793ad)" style="fill: none; stroke: #0000ff; stroke-opacity: 0.5; stroke-width: 1.5; stroke-linecap: square"/>
   </g>
   <g id="line2d_32">
    <path d="M 92.290909 370.418683 
L 93.933898 366.468584 
L 97.219875 366.676484 
L 98.862863 367.508083 
L 100.505852 366.780434 
L 102.148841 367.300184 
L 107.077806 368.027833 
L 108.720795 368.339683 
L 110.363784 368.235733 
L 113.649761 368.859434 
L 115.292749 368.859434 
L 116.935738 368.651533 
L 118.578727 368.963384 
L 120.221715 368.651533 
L 121.864704 368.755484 
L 123.507692 369.067334 
L 125.150681 368.963384 
L 126.793669 369.067334 
L 128.436658 368.859434 
L 130.079647 368.963384 
L 131.722635 369.275234 
L 135.008612 369.171284 
L 138.29459 368.651533 
L 139.937578 369.379184 
L 141.580567 368.859434 
L 143.223555 369.067334 
L 146.509533 368.859434 
L 148.152521 368.963384 
L 151.438498 368.755484 
L 153.081487 368.963384 
L 156.367464 368.755484 
L 158.010453 368.443633 
L 161.29643 368.651533 
L 162.939418 368.547583 
L 164.582407 368.755484 
L 167.868384 368.547583 
L 169.511373 368.651533 
L 176.083327 368.235733 
L 177.726316 368.339683 
L 179.369304 368.235733 
L 181.012293 368.547583 
L 182.655282 368.131783 
L 184.29827 368.131783 
L 185.941259 368.339683 
L 187.584247 368.235733 
L 189.227236 368.339683 
L 190.870225 368.131783 
L 194.156202 368.235733 
L 195.79919 368.027833 
L 199.085167 368.443633 
L 202.371145 367.923883 
L 204.014133 368.235733 
L 205.657122 367.923883 
L 207.30011 368.339683 
L 210.586088 367.819933 
L 212.229076 367.715983 
L 213.872065 368.131783 
L 215.515053 367.819933 
L 217.158042 368.235733 
L 220.444019 367.819933 
L 235.230916 367.819933 
L 236.873905 367.508083 
L 238.516894 367.404134 
L 240.159882 367.612033 
L 243.445859 367.612033 
L 245.088848 367.404134 
L 246.731837 367.612033 
L 248.374825 367.196234 
L 250.017814 367.404134 
L 256.589768 367.508083 
L 258.232757 367.092284 
L 259.875745 367.300184 
L 261.518734 367.300184 
L 263.161722 366.988334 
L 266.4477 367.404134 
L 268.090688 367.404134 
L 269.733677 367.092284 
L 273.019654 367.404134 
L 274.662643 366.884384 
L 276.305631 367.092284 
L 287.806551 367.092284 
L 289.44954 366.884384 
L 292.735517 366.988334 
L 294.378506 366.676484 
L 296.021494 366.780434 
L 297.664483 366.676484 
L 299.307471 366.780434 
L 302.593449 366.676484 
L 305.879426 366.572534 
L 307.522414 366.260683 
L 310.808392 366.780434 
L 312.45138 366.468584 
L 315.737357 366.156733 
L 317.380346 366.364634 
L 319.023335 365.948833 
L 320.666323 366.156733 
L 325.595289 366.052783 
L 328.881266 365.740933 
L 330.524255 365.533033 
L 332.167243 365.740933 
L 333.810232 365.740933 
L 335.45322 366.052783 
L 337.096209 364.909334 
L 340.382186 364.701434 
L 342.025175 365.013284 
L 343.668163 365.117233 
L 345.311152 364.909334 
L 346.954141 365.013284 
L 348.597129 363.869833 
L 351.883106 364.493534 
L 353.526095 363.869833 
L 355.169084 364.181684 
L 358.455061 363.765883 
L 360.098049 364.181684 
L 361.741038 364.077734 
L 363.384026 363.350083 
L 365.027015 363.142183 
L 366.670004 362.726383 
L 368.312992 361.686884 
L 369.955981 361.998734 
L 371.598969 361.998734 
L 373.241958 362.206634 
L 374.884947 362.102684 
L 376.527935 361.063183 
L 378.170924 361.167133 
L 379.813912 360.855283 
L 381.456901 360.335533 
L 383.09989 360.023684 
L 386.385867 359.919734 
L 388.028855 359.192083 
L 391.314833 359.088133 
L 392.957821 358.672333 
L 394.60081 358.048633 
L 396.243798 358.048633 
L 397.886787 357.320984 
L 399.529775 358.152583 
L 401.172764 358.152583 
L 402.815753 357.424934 
L 404.458741 357.424934 
L 409.387707 356.697283 
L 411.030696 356.801234 
L 414.316673 356.489383 
L 415.959661 356.281483 
L 419.245639 355.345934 
L 420.888627 355.034084 
L 424.174604 353.890633 
L 425.817593 353.994583 
L 427.460582 353.474833 
L 429.10357 353.266933 
L 432.389547 352.331384 
L 435.675524 351.499783 
L 437.318513 351.707683 
L 438.961502 351.395833 
L 440.60449 350.460284 
L 442.247479 349.940534 
L 443.890467 349.732634 
L 445.533456 348.381283 
L 447.176445 348.381283 
L 448.819433 347.237833 
L 450.462422 347.029933 
L 452.10541 346.094383 
L 453.748399 346.614133 
L 455.391388 345.366734 
L 457.034376 344.327233 
L 458.677365 344.327233 
L 460.320353 342.767984 
L 461.963342 342.352183 
L 466.892308 340.065283 
L 470.178285 338.506034 
L 471.821273 337.258633 
L 473.464262 336.427033 
L 476.750239 334.348033 
L 480.036216 332.684833 
L 481.679205 331.645333 
L 486.608171 327.279433 
L 488.251159 325.408333 
L 489.894148 324.680683 
L 491.537137 322.497733 
L 493.180125 321.458234 
L 494.823114 319.171334 
L 496.466102 317.923933 
L 498.109091 316.052834 
L 498.109091 316.052834 
" clip-path="url(#p5ec83793ad)" style="fill: none; stroke: #0000ff; stroke-opacity: 0.5; stroke-width: 1.5; stroke-linecap: square"/>
   </g>
   <g id="line2d_33">
    <path d="M 92.290909 368.859434 
L 93.933898 368.027833 
L 95.576886 366.052783 
L 97.219875 367.196234 
L 98.862863 367.819933 
L 100.505852 366.468584 
L 102.148841 365.948833 
L 103.791829 366.572534 
L 107.077806 366.988334 
L 108.720795 367.508083 
L 110.363784 367.404134 
L 112.006772 368.027833 
L 113.649761 368.443633 
L 115.292749 368.443633 
L 116.935738 368.235733 
L 118.578727 368.651533 
L 120.221715 368.235733 
L 123.507692 368.547583 
L 125.150681 368.651533 
L 126.793669 368.963384 
L 128.436658 368.651533 
L 130.079647 368.963384 
L 135.008612 368.755484 
L 136.651601 368.963384 
L 138.29459 368.443633 
L 139.937578 369.171284 
L 141.580567 368.651533 
L 143.223555 368.859434 
L 144.866544 368.859434 
L 146.509533 368.651533 
L 148.152521 368.859434 
L 154.724476 368.755484 
L 156.367464 368.651533 
L 158.010453 368.339683 
L 161.29643 368.651533 
L 162.939418 368.443633 
L 164.582407 368.651533 
L 167.868384 368.235733 
L 171.154361 368.443633 
L 174.440339 368.131783 
L 176.083327 367.923883 
L 177.726316 368.235733 
L 179.369304 368.027833 
L 181.012293 368.131783 
L 182.655282 367.819933 
L 184.29827 368.027833 
L 195.79919 367.923883 
L 197.442179 367.819933 
L 200.728156 368.339683 
L 202.371145 368.131783 
L 204.014133 367.612033 
L 207.30011 368.027833 
L 208.943099 367.715983 
L 212.229076 367.612033 
L 213.872065 368.235733 
L 215.515053 367.508083 
L 217.158042 368.027833 
L 218.801031 367.612033 
L 220.444019 367.819933 
L 222.087008 367.404134 
L 223.729996 367.612033 
L 225.372985 367.404134 
L 227.015974 367.404134 
L 228.658962 367.612033 
L 231.944939 367.508083 
L 236.873905 367.404134 
L 238.516894 367.300184 
L 240.159882 367.508083 
L 241.802871 367.196234 
L 245.088848 367.404134 
L 246.731837 367.196234 
L 248.374825 367.196234 
L 250.017814 366.988334 
L 253.303791 366.988334 
L 254.94678 367.196234 
L 256.589768 367.092284 
L 259.875745 367.196234 
L 264.804711 366.988334 
L 266.4477 366.988334 
L 268.090688 367.196234 
L 271.376665 366.884384 
L 273.019654 367.092284 
L 274.662643 366.780434 
L 276.305631 366.884384 
L 281.234597 366.468584 
L 282.877586 366.988334 
L 284.520574 366.676484 
L 286.163563 366.676484 
L 287.806551 366.468584 
L 289.44954 366.468584 
L 292.735517 366.780434 
L 294.378506 366.052783 
L 296.021494 366.468584 
L 297.664483 366.676484 
L 299.307471 366.156733 
L 300.95046 366.260683 
L 302.593449 366.156733 
L 304.236437 365.844883 
L 305.879426 366.052783 
L 307.522414 365.636983 
L 310.808392 366.052783 
L 315.737357 365.636983 
L 317.380346 365.844883 
L 319.023335 365.636983 
L 320.666323 365.844883 
L 322.309312 365.636983 
L 330.524255 365.636983 
L 332.167243 366.052783 
L 333.810232 365.636983 
L 335.45322 365.948833 
L 337.096209 365.533033 
L 338.739198 365.325133 
L 340.382186 365.325133 
L 342.025175 364.805384 
L 343.668163 364.701434 
L 345.311152 364.389584 
L 346.954141 364.597484 
L 348.597129 363.973783 
L 350.240118 364.389584 
L 353.526095 364.389584 
L 356.812072 363.973783 
L 358.455061 364.077734 
L 360.098049 364.493534 
L 363.384026 363.142183 
L 365.027015 363.350083 
L 366.670004 362.102684 
L 368.312992 361.582934 
L 369.955981 362.102684 
L 371.598969 361.998734 
L 373.241958 362.310584 
L 374.884947 361.998734 
L 376.527935 360.751333 
L 378.170924 360.855283 
L 379.813912 360.439483 
L 381.456901 359.399984 
L 383.09989 360.231583 
L 384.742878 359.815784 
L 386.385867 359.919734 
L 388.028855 359.503934 
L 391.314833 358.360483 
L 392.957821 358.152583 
L 394.60081 357.320984 
L 396.243798 357.840733 
L 397.886787 357.528884 
L 399.529775 356.905184 
L 401.172764 357.736784 
L 402.815753 357.217034 
L 404.458741 357.424934 
L 406.10173 356.801234 
L 407.744718 357.113084 
L 409.387707 356.489383 
L 412.673684 356.593333 
L 414.316673 355.449883 
L 415.959661 355.553833 
L 420.888627 354.410383 
L 422.531616 354.202483 
L 424.174604 353.578783 
L 425.817593 353.370883 
L 427.460582 352.851134 
L 429.10357 353.059033 
L 430.746559 352.227434 
L 432.389547 352.123484 
L 434.032536 352.227434 
L 435.675524 351.291883 
L 437.318513 351.187933 
L 438.961502 351.291883 
L 440.60449 350.564234 
L 442.247479 349.628684 
L 443.890467 349.420783 
L 445.533456 347.965484 
L 447.176445 347.861534 
L 448.819433 347.029933 
L 450.462422 346.614133 
L 452.10541 345.678584 
L 453.748399 346.094383 
L 457.034376 344.119333 
L 458.677365 343.911433 
L 460.320353 342.248233 
L 463.606331 340.688984 
L 468.535296 337.466533 
L 470.178285 336.842833 
L 471.821273 335.699384 
L 473.464262 334.348033 
L 475.107251 333.516434 
L 476.750239 332.165083 
L 478.393228 331.125584 
L 480.036216 329.878183 
L 481.679205 328.838684 
L 483.322194 327.175483 
L 484.965182 326.343884 
L 486.608171 324.680683 
L 488.251159 322.809583 
L 491.537137 319.587133 
L 493.180125 317.923933 
L 494.823114 315.533083 
L 496.466102 314.493583 
L 498.109091 311.998784 
L 498.109091 311.998784 
" clip-path="url(#p5ec83793ad)" style="fill: none; stroke: #0000ff; stroke-opacity: 0.5; stroke-width: 1.5; stroke-linecap: square"/>
   </g>
   <g id="line2d_34">
    <path d="M 92.290909 369.587084 
L 93.933898 366.468584 
L 95.576886 366.468584 
L 97.219875 366.884384 
L 98.862863 367.923883 
L 100.505852 366.052783 
L 102.148841 365.117233 
L 105.434818 365.429083 
L 107.077806 365.533033 
L 108.720795 366.052783 
L 110.363784 366.156733 
L 112.006772 367.300184 
L 113.649761 366.676484 
L 115.292749 367.196234 
L 116.935738 366.988334 
L 118.578727 368.027833 
L 120.221715 366.988334 
L 123.507692 367.923883 
L 126.793669 368.235733 
L 128.436658 367.923883 
L 130.079647 368.547583 
L 131.722635 368.755484 
L 133.365624 367.923883 
L 135.008612 367.715983 
L 136.651601 368.547583 
L 138.29459 367.819933 
L 139.937578 368.755484 
L 141.580567 368.339683 
L 143.223555 368.443633 
L 144.866544 368.131783 
L 146.509533 368.131783 
L 149.79551 368.443633 
L 151.438498 368.131783 
L 153.081487 368.443633 
L 156.367464 368.131783 
L 158.010453 368.235733 
L 159.653441 368.131783 
L 161.29643 368.339683 
L 162.939418 368.235733 
L 164.582407 368.547583 
L 166.225396 368.131783 
L 167.868384 368.131783 
L 169.511373 368.547583 
L 171.154361 368.235733 
L 172.79735 368.443633 
L 174.440339 368.131783 
L 179.369304 368.339683 
L 181.012293 368.027833 
L 184.29827 368.131783 
L 185.941259 368.235733 
L 187.584247 368.131783 
L 189.227236 368.339683 
L 192.513213 367.819933 
L 195.79919 367.923883 
L 197.442179 367.819933 
L 199.085167 368.131783 
L 200.728156 367.819933 
L 202.371145 367.923883 
L 204.014133 367.508083 
L 205.657122 367.715983 
L 207.30011 368.131783 
L 208.943099 367.508083 
L 210.586088 367.715983 
L 212.229076 367.612033 
L 213.872065 367.819933 
L 215.515053 367.508083 
L 217.158042 367.819933 
L 218.801031 367.508083 
L 220.444019 367.819933 
L 222.087008 367.404134 
L 223.729996 367.508083 
L 227.015974 367.404134 
L 230.301951 367.508083 
L 241.802871 367.508083 
L 243.445859 367.196234 
L 245.088848 367.404134 
L 246.731837 367.196234 
L 250.017814 367.092284 
L 251.660802 366.780434 
L 256.589768 367.092284 
L 258.232757 366.884384 
L 259.875745 367.196234 
L 261.518734 367.196234 
L 263.161722 366.884384 
L 264.804711 366.884384 
L 268.090688 367.300184 
L 269.733677 366.988334 
L 271.376665 367.196234 
L 273.019654 367.092284 
L 274.662643 366.676484 
L 277.94862 366.884384 
L 279.591608 366.572534 
L 281.234597 367.092284 
L 282.877586 366.988334 
L 284.520574 367.196234 
L 286.163563 366.988334 
L 287.806551 366.572534 
L 289.44954 366.572534 
L 291.092529 366.884384 
L 292.735517 366.780434 
L 294.378506 366.468584 
L 296.021494 366.780434 
L 297.664483 366.468584 
L 300.95046 366.572534 
L 304.236437 366.156733 
L 305.879426 366.572534 
L 307.522414 366.052783 
L 309.165403 366.468584 
L 310.808392 366.468584 
L 312.45138 366.260683 
L 315.737357 366.156733 
L 317.380346 365.948833 
L 319.023335 366.260683 
L 320.666323 366.364634 
L 323.9523 366.052783 
L 325.595289 365.325133 
L 327.238278 365.740933 
L 328.881266 365.740933 
L 330.524255 365.533033 
L 332.167243 365.844883 
L 333.810232 365.221183 
L 335.45322 365.948833 
L 337.096209 364.805384 
L 338.739198 364.597484 
L 340.382186 365.013284 
L 342.025175 364.493534 
L 343.668163 364.285634 
L 345.311152 364.389584 
L 346.954141 364.701434 
L 348.597129 363.869833 
L 350.240118 364.181684 
L 351.883106 363.869833 
L 353.526095 363.765883 
L 355.169084 363.142183 
L 358.455061 363.350083 
L 360.098049 363.765883 
L 361.741038 363.454033 
L 363.384026 363.557983 
L 365.027015 362.622433 
L 366.670004 362.622433 
L 368.312992 363.038233 
L 369.955981 361.790834 
L 371.598969 361.582934 
L 373.241958 362.102684 
L 374.884947 360.751333 
L 376.527935 361.271083 
L 378.170924 361.167133 
L 379.813912 360.023684 
L 381.456901 360.335533 
L 383.09989 360.231583 
L 386.385867 359.296034 
L 388.028855 359.711834 
L 392.957821 358.048633 
L 396.243798 358.360483 
L 397.886787 358.256533 
L 399.529775 357.632834 
L 401.172764 358.256533 
L 402.815753 357.944683 
L 404.458741 357.944683 
L 406.10173 356.697283 
L 407.744718 357.424934 
L 409.387707 356.489383 
L 411.030696 356.385433 
L 412.673684 356.905184 
L 414.316673 355.138034 
L 415.959661 355.449883 
L 417.60265 355.138034 
L 419.245639 355.241984 
L 420.888627 354.514334 
L 422.531616 354.722234 
L 424.174604 353.890633 
L 427.460582 353.578783 
L 429.10357 353.474833 
L 430.746559 352.643234 
L 432.389547 352.851134 
L 434.032536 352.539284 
L 435.675524 351.811633 
L 437.318513 351.707683 
L 438.961502 351.083983 
L 440.60449 350.252384 
L 443.890467 349.004983 
L 445.533456 348.173383 
L 447.176445 347.653634 
L 448.819433 345.574634 
L 450.462422 346.094383 
L 452.10541 344.846984 
L 453.748399 344.639083 
L 455.391388 343.599583 
L 457.034376 342.248233 
L 458.677365 341.832433 
L 460.320353 340.585034 
L 463.606331 338.817883 
L 465.249319 338.090234 
L 466.892308 337.778384 
L 468.535296 336.115184 
L 470.178285 335.699384 
L 471.821273 334.763833 
L 473.464262 333.412484 
L 475.107251 332.372983 
L 476.750239 330.917684 
L 478.393228 329.670283 
L 480.036216 328.214984 
L 481.679205 327.175483 
L 483.322194 323.641184 
L 484.965182 324.472783 
L 486.608171 322.081933 
L 488.251159 320.834533 
L 489.894148 319.275284 
L 491.537137 316.988383 
L 493.180125 315.533083 
L 496.466102 312.102733 
L 498.109091 309.711883 
L 498.109091 309.711883 
" clip-path="url(#p5ec83793ad)" style="fill: none; stroke: #0000ff; stroke-opacity: 0.5; stroke-width: 1.5; stroke-linecap: square"/>
   </g>
   <g id="line2d_35">
    <path d="M 92.290909 368.131783 
L 93.933898 366.260683 
L 98.862863 367.300184 
L 100.505852 365.429083 
L 102.148841 363.869833 
L 105.434818 363.765883 
L 108.720795 366.780434 
L 110.363784 366.156733 
L 112.006772 367.923883 
L 115.292749 368.443633 
L 116.935738 367.612033 
L 118.578727 367.300184 
L 120.221715 366.468584 
L 123.507692 367.612033 
L 125.150681 366.988334 
L 126.793669 368.443633 
L 128.436658 369.275234 
L 130.079647 368.755484 
L 131.722635 367.923883 
L 133.365624 367.819933 
L 135.008612 366.468584 
L 136.651601 365.636983 
L 138.29459 364.493534 
L 139.937578 368.339683 
L 141.580567 367.612033 
L 143.223555 368.027833 
L 144.866544 368.131783 
L 146.509533 367.404134 
L 148.152521 369.483134 
L 149.79551 366.988334 
L 151.438498 368.651533 
L 153.081487 366.468584 
L 154.724476 368.963384 
L 156.367464 368.963384 
L 158.010453 368.339683 
L 159.653441 368.235733 
L 161.29643 368.443633 
L 162.939418 368.131783 
L 164.582407 368.235733 
L 166.225396 367.715983 
L 167.868384 367.715983 
L 169.511373 368.235733 
L 171.154361 368.027833 
L 172.79735 368.027833 
L 176.083327 367.508083 
L 179.369304 367.819933 
L 181.012293 367.092284 
L 182.655282 367.404134 
L 184.29827 367.923883 
L 185.941259 367.300184 
L 187.584247 367.715983 
L 189.227236 367.715983 
L 190.870225 367.508083 
L 192.513213 367.612033 
L 195.79919 366.988334 
L 197.442179 367.715983 
L 199.085167 367.508083 
L 200.728156 367.612033 
L 204.014133 367.300184 
L 205.657122 366.156733 
L 207.30011 367.092284 
L 208.943099 367.196234 
L 210.586088 365.948833 
L 212.229076 367.404134 
L 213.872065 367.508083 
L 215.515053 367.819933 
L 217.158042 367.508083 
L 218.801031 367.923883 
L 220.444019 367.923883 
L 222.087008 368.859434 
L 223.729996 368.755484 
L 227.015974 368.859434 
L 228.658962 369.379184 
L 230.301951 367.923883 
L 231.944939 367.923883 
L 233.587928 367.612033 
L 235.230916 367.923883 
L 236.873905 367.715983 
L 238.516894 369.067334 
L 240.159882 367.300184 
L 241.802871 367.404134 
L 243.445859 368.027833 
L 246.731837 368.027833 
L 250.017814 368.859434 
L 251.660802 368.443633 
L 254.94678 368.027833 
L 256.589768 368.027833 
L 258.232757 367.404134 
L 259.875745 368.339683 
L 261.518734 368.339683 
L 263.161722 367.715983 
L 264.804711 368.755484 
L 266.4477 368.339683 
L 268.090688 366.988334 
L 269.733677 368.443633 
L 271.376665 368.443633 
L 273.019654 367.715983 
L 274.662643 368.027833 
L 276.305631 367.819933 
L 277.94862 368.235733 
L 279.591608 367.819933 
L 281.234597 365.948833 
L 282.877586 367.923883 
L 286.163563 367.404134 
L 289.44954 367.508083 
L 291.092529 367.819933 
L 292.735517 367.508083 
L 294.378506 366.988334 
L 296.021494 367.300184 
L 299.307471 366.988334 
L 300.95046 367.196234 
L 302.593449 366.364634 
L 304.236437 366.156733 
L 305.879426 366.676484 
L 307.522414 366.052783 
L 309.165403 366.260683 
L 310.808392 365.533033 
L 312.45138 365.740933 
L 314.094369 366.156733 
L 315.737357 366.156733 
L 317.380346 365.844883 
L 320.666323 366.156733 
L 322.309312 365.325133 
L 323.9523 365.740933 
L 325.595289 365.221183 
L 328.881266 365.429083 
L 330.524255 365.117233 
L 332.167243 365.221183 
L 333.810232 365.013284 
L 335.45322 365.429083 
L 337.096209 364.701434 
L 338.739198 364.597484 
L 340.382186 364.805384 
L 343.668163 364.493534 
L 345.311152 364.701434 
L 346.954141 364.701434 
L 348.597129 364.285634 
L 351.883106 364.181684 
L 353.526095 364.597484 
L 356.812072 364.077734 
L 358.455061 363.765883 
L 360.098049 364.181684 
L 361.741038 363.765883 
L 363.384026 364.077734 
L 365.027015 363.557983 
L 366.670004 363.350083 
L 368.312992 363.557983 
L 369.955981 363.246133 
L 371.598969 363.350083 
L 376.527935 363.038233 
L 378.170924 363.142183 
L 379.813912 362.830333 
L 381.456901 362.830333 
L 383.09989 362.414534 
L 386.385867 362.726383 
L 388.028855 362.310584 
L 391.314833 361.894784 
L 392.957821 361.271083 
L 394.60081 361.686884 
L 396.243798 361.582934 
L 397.886787 361.998734 
L 399.529775 361.375033 
L 401.172764 361.894784 
L 404.458741 360.959233 
L 407.744718 360.959233 
L 409.387707 360.751333 
L 411.030696 360.959233 
L 412.673684 360.439483 
L 414.316673 360.127634 
L 415.959661 360.439483 
L 417.60265 360.543433 
L 419.245639 359.815784 
L 420.888627 359.607884 
L 422.531616 359.711834 
L 424.174604 359.088133 
L 427.460582 358.984183 
L 429.10357 358.360483 
L 430.746559 357.944683 
L 432.389547 357.944683 
L 435.675524 357.424934 
L 437.318513 357.113084 
L 438.961502 356.489383 
L 440.60449 356.073583 
L 442.247479 356.177533 
L 443.890467 355.138034 
L 445.533456 354.722234 
L 447.176445 354.930134 
L 450.462422 353.578783 
L 452.10541 353.162983 
L 453.748399 352.539284 
L 455.391388 352.955084 
L 457.034376 352.019533 
L 460.320353 351.083983 
L 461.963342 348.901033 
L 463.606331 347.965484 
L 465.249319 348.277333 
L 466.892308 348.381283 
L 470.178285 346.510183 
L 471.821273 346.614133 
L 473.464262 345.886483 
L 475.107251 345.574634 
L 476.750239 345.782533 
L 478.393228 346.198333 
L 480.036216 345.886483 
L 481.679205 346.198333 
L 483.322194 346.302283 
L 484.965182 345.782533 
L 486.608171 345.574634 
L 488.251159 345.054884 
L 489.894148 344.846984 
L 491.537137 344.119333 
L 493.180125 344.743034 
L 494.823114 343.807483 
L 496.466102 344.223283 
L 498.109091 343.183784 
L 498.109091 343.183784 
" clip-path="url(#p5ec83793ad)" style="fill: none; stroke: #0000ff; stroke-opacity: 0.5; stroke-width: 1.5; stroke-linecap: square"/>
   </g>
   <g id="line2d_36">
    <path d="M 92.290909 369.171284 
L 93.933898 366.364634 
L 95.576886 365.740933 
L 97.219875 366.572534 
L 100.505852 365.533033 
L 103.791829 363.765883 
L 105.434818 363.350083 
L 107.077806 365.948833 
L 108.720795 366.988334 
L 110.363784 366.260683 
L 112.006772 367.612033 
L 113.649761 367.923883 
L 115.292749 367.923883 
L 116.935738 367.092284 
L 118.578727 366.676484 
L 121.864704 367.196234 
L 125.150681 366.676484 
L 126.793669 368.443633 
L 128.436658 367.923883 
L 131.722635 368.339683 
L 133.365624 367.092284 
L 135.008612 366.780434 
L 136.651601 365.325133 
L 138.29459 364.493534 
L 139.937578 368.235733 
L 141.580567 365.948833 
L 143.223555 366.364634 
L 146.509533 366.468584 
L 148.152521 365.636983 
L 149.79551 364.597484 
L 151.438498 366.572534 
L 153.081487 365.221183 
L 154.724476 367.923883 
L 156.367464 367.715983 
L 158.010453 367.092284 
L 159.653441 367.819933 
L 161.29643 364.701434 
L 162.939418 366.780434 
L 164.582407 365.636983 
L 166.225396 364.181684 
L 167.868384 367.715983 
L 169.511373 367.404134 
L 171.154361 365.325133 
L 172.79735 367.196234 
L 174.440339 366.052783 
L 176.083327 367.923883 
L 177.726316 364.493534 
L 179.369304 367.508083 
L 182.655282 365.325133 
L 184.29827 366.156733 
L 185.941259 365.636983 
L 187.584247 366.052783 
L 190.870225 365.117233 
L 192.513213 366.884384 
L 194.156202 364.805384 
L 195.79919 366.364634 
L 197.442179 368.235733 
L 199.085167 366.884384 
L 200.728156 367.300184 
L 204.014133 367.715983 
L 205.657122 366.468584 
L 207.30011 366.572534 
L 208.943099 367.404134 
L 210.586088 365.636983 
L 212.229076 367.612033 
L 217.158042 367.300184 
L 220.444019 367.612033 
L 222.087008 367.196234 
L 223.729996 367.404134 
L 225.372985 367.196234 
L 227.015974 367.300184 
L 228.658962 366.468584 
L 230.301951 366.988334 
L 231.944939 366.676484 
L 233.587928 366.676484 
L 235.230916 367.092284 
L 236.873905 366.156733 
L 238.516894 367.196234 
L 240.159882 366.468584 
L 241.802871 367.300184 
L 243.445859 366.884384 
L 245.088848 367.300184 
L 246.731837 366.988334 
L 251.660802 367.196234 
L 254.94678 366.676484 
L 256.589768 366.988334 
L 258.232757 366.468584 
L 259.875745 367.196234 
L 263.161722 366.468584 
L 266.4477 366.988334 
L 268.090688 367.196234 
L 269.733677 366.676484 
L 271.376665 366.572534 
L 273.019654 366.676484 
L 274.662643 366.260683 
L 277.94862 366.156733 
L 279.591608 366.052783 
L 281.234597 366.884384 
L 282.877586 366.156733 
L 284.520574 365.948833 
L 286.163563 366.260683 
L 287.806551 365.948833 
L 289.44954 365.844883 
L 291.092529 366.052783 
L 294.378506 365.948833 
L 296.021494 366.052783 
L 299.307471 365.740933 
L 300.95046 366.052783 
L 302.593449 365.740933 
L 305.879426 365.844883 
L 307.522414 365.844883 
L 309.165403 366.364634 
L 310.808392 366.364634 
L 312.45138 366.052783 
L 314.094369 366.052783 
L 315.737357 365.844883 
L 317.380346 365.844883 
L 319.023335 365.533033 
L 320.666323 365.740933 
L 323.9523 365.844883 
L 327.238278 365.117233 
L 328.881266 365.429083 
L 330.524255 365.013284 
L 332.167243 365.013284 
L 335.45322 365.636983 
L 337.096209 365.013284 
L 338.739198 365.117233 
L 340.382186 365.636983 
L 342.025175 365.013284 
L 346.954141 365.117233 
L 348.597129 364.285634 
L 351.883106 365.013284 
L 353.526095 364.909334 
L 355.169084 364.493534 
L 356.812072 364.389584 
L 358.455061 364.805384 
L 360.098049 364.805384 
L 361.741038 364.389584 
L 363.384026 364.805384 
L 366.670004 363.557983 
L 368.312992 363.765883 
L 373.241958 363.661933 
L 374.884947 363.350083 
L 376.527935 363.246133 
L 378.170924 363.350083 
L 379.813912 363.142183 
L 381.456901 362.726383 
L 383.09989 362.622433 
L 384.742878 362.934283 
L 388.028855 362.518484 
L 389.671844 361.998734 
L 391.314833 362.310584 
L 392.957821 362.102684 
L 394.60081 361.478983 
L 396.243798 361.686884 
L 397.886787 361.686884 
L 399.529775 361.478983 
L 401.172764 361.686884 
L 402.815753 360.959233 
L 404.458741 360.647383 
L 407.744718 360.543433 
L 409.387707 360.335533 
L 411.030696 360.751333 
L 412.673684 359.711834 
L 414.316673 359.296034 
L 415.959661 360.127634 
L 417.60265 359.607884 
L 419.245639 359.503934 
L 420.888627 358.256533 
L 422.531616 358.152583 
L 424.174604 357.320984 
L 425.817593 356.905184 
L 427.460582 357.320984 
L 429.10357 356.489383 
L 437.318513 355.034084 
L 438.961502 354.930134 
L 440.60449 353.890633 
L 442.247479 353.786683 
L 445.533456 352.019533 
L 447.176445 352.539284 
L 448.819433 351.291883 
L 450.462422 350.772133 
L 458.677365 349.316833 
L 460.320353 347.861534 
L 461.963342 346.718083 
L 463.606331 347.133883 
L 465.249319 347.133883 
L 466.892308 346.718083 
L 468.535296 347.133883 
L 470.178285 346.510183 
L 471.821273 346.510183 
L 473.464262 346.198333 
L 475.107251 345.262784 
L 478.393228 344.950934 
L 480.036216 345.262784 
L 481.679205 344.535133 
L 483.322194 345.158834 
L 486.608171 344.015383 
L 488.251159 343.807483 
L 489.894148 343.807483 
L 493.180125 343.287734 
L 494.823114 342.560084 
L 496.466102 343.495633 
L 498.109091 342.664034 
L 498.109091 342.664034 
" clip-path="url(#p5ec83793ad)" style="fill: none; stroke: #0000ff; stroke-opacity: 0.5; stroke-width: 1.5; stroke-linecap: square"/>
   </g>
   <g id="LineCollection_1">
    <path d="M 92.290909 370.173296 
L 92.290909 367.701496 
" clip-path="url(#p5ec83793ad)" style="fill: none; stroke: #ff0000; stroke-width: 1.5"/>
    <path d="M 158.010453 369.069899 
L 158.010453 367.713418 
" clip-path="url(#p5ec83793ad)" style="fill: none; stroke: #ff0000; stroke-width: 1.5"/>
    <path d="M 223.729996 368.346286 
L 223.729996 367.371544 
" clip-path="url(#p5ec83793ad)" style="fill: none; stroke: #ff0000; stroke-width: 1.5"/>
    <path d="M 289.44954 367.432978 
L 289.44954 366.205852 
" clip-path="url(#p5ec83793ad)" style="fill: none; stroke: #ff0000; stroke-width: 1.5"/>
    <path d="M 355.169084 364.734972 
L 355.169084 363.446483 
" clip-path="url(#p5ec83793ad)" style="fill: none; stroke: #ff0000; stroke-width: 1.5"/>
    <path d="M 420.888627 358.030063 
L 420.888627 354.195067 
" clip-path="url(#p5ec83793ad)" style="fill: none; stroke: #ff0000; stroke-width: 1.5"/>
    <path d="M 486.608171 339.675793 
L 486.608171 321.691799 
" clip-path="url(#p5ec83793ad)" style="fill: none; stroke: #ff0000; stroke-width: 1.5"/>
   </g>
   <g id="line2d_37">
    <defs>
     <path id="mbbc7b7e16a" d="M 5 0 
L -5 -0 
" style="stroke: #ff0000"/>
    </defs>
    <g clip-path="url(#p5ec83793ad)">
     <use xlink:href="#mbbc7b7e16a" x="92.290909" y="370.173296" style="fill: #ff0000; stroke: #ff0000"/>
     <use xlink:href="#mbbc7b7e16a" x="158.010453" y="369.069899" style="fill: #ff0000; stroke: #ff0000"/>
     <use xlink:href="#mbbc7b7e16a" x="223.729996" y="368.346286" style="fill: #ff0000; stroke: #ff0000"/>
     <use xlink:href="#mbbc7b7e16a" x="289.44954" y="367.432978" style="fill: #ff0000; stroke: #ff0000"/>
     <use xlink:href="#mbbc7b7e16a" x="355.169084" y="364.734972" style="fill: #ff0000; stroke: #ff0000"/>
     <use xlink:href="#mbbc7b7e16a" x="420.888627" y="358.030063" style="fill: #ff0000; stroke: #ff0000"/>
     <use xlink:href="#mbbc7b7e16a" x="486.608171" y="339.675793" style="fill: #ff0000; stroke: #ff0000"/>
    </g>
   </g>
   <g id="line2d_38">
    <g clip-path="url(#p5ec83793ad)">
     <use xlink:href="#mbbc7b7e16a" x="92.290909" y="367.701496" style="fill: #ff0000; stroke: #ff0000"/>
     <use xlink:href="#mbbc7b7e16a" x="158.010453" y="367.713418" style="fill: #ff0000; stroke: #ff0000"/>
     <use xlink:href="#mbbc7b7e16a" x="223.729996" y="367.371544" style="fill: #ff0000; stroke: #ff0000"/>
     <use xlink:href="#mbbc7b7e16a" x="289.44954" y="366.205852" style="fill: #ff0000; stroke: #ff0000"/>
     <use xlink:href="#mbbc7b7e16a" x="355.169084" y="363.446483" style="fill: #ff0000; stroke: #ff0000"/>
     <use xlink:href="#mbbc7b7e16a" x="420.888627" y="354.195067" style="fill: #ff0000; stroke: #ff0000"/>
     <use xlink:href="#mbbc7b7e16a" x="486.608171" y="321.691799" style="fill: #ff0000; stroke: #ff0000"/>
    </g>
   </g>
   <g id="line2d_39">
    <path d="M 92.290909 368.937396 
L 158.010453 368.391659 
L 223.729996 367.858915 
L 289.44954 366.819415 
L 355.169084 364.090727 
L 420.888627 356.112565 
L 486.608171 330.683796 
" clip-path="url(#p5ec83793ad)" style="fill: none; stroke: #ff0000; stroke-width: 1.5; stroke-linecap: square"/>
   </g>
   <g id="patch_3">
    <path d="M 72 384.48 
L 72 51.84 
" style="fill: none; stroke: #000000; stroke-width: 0.8; stroke-linejoin: miter; stroke-linecap: square"/>
   </g>
   <g id="patch_4">
    <path d="M 518.4 384.48 
L 518.4 51.84 
" style="fill: none; stroke: #000000; stroke-width: 0.8; stroke-linejoin: miter; stroke-linecap: square"/>
   </g>
   <g id="patch_5">
    <path d="M 72 384.48 
L 518.4 384.48 
" style="fill: none; stroke: #000000; stroke-width: 0.8; stroke-linejoin: miter; stroke-linecap: square"/>
   </g>
   <g id="patch_6">
    <path d="M 72 51.84 
L 518.4 51.84 
" style="fill: none; stroke: #000000; stroke-width: 0.8; stroke-linejoin: miter; stroke-linecap: square"/>
   </g>
   <g id="text_17">
    <!-- M1: Asparagin; Isoleucin; Threonin; Tryptophan; Phenylalanin; Methionin; Histidin; Arginin -->
    <g transform="translate(70.964062 45.84) scale(0.1 -0.1)">
     <defs>
      <path id="DejaVuSans-4d" d="M 628 4666 
L 1569 4666 
L 2759 1491 
L 3956 4666 
L 4897 4666 
L 4897 0 
L 4281 0 
L 4281 4097 
L 3078 897 
L 2444 897 
L 1241 4097 
L 1241 0 
L 628 0 
L 628 4666 
z
" transform="scale(0.015625)"/>
      <path id="DejaVuSans-3a" d="M 750 794 
L 1409 794 
L 1409 0 
L 750 0 
L 750 794 
z
M 750 3309 
L 1409 3309 
L 1409 2516 
L 750 2516 
L 750 3309 
z
" transform="scale(0.015625)"/>
      <path id="DejaVuSans-41" d="M 2188 4044 
L 1331 1722 
L 3047 1722 
L 2188 4044 
z
M 1831 4666 
L 2547 4666 
L 4325 0 
L 3669 0 
L 3244 1197 
L 1141 1197 
L 716 0 
L 50 0 
L 1831 4666 
z
" transform="scale(0.015625)"/>
      <path id="DejaVuSans-70" d="M 1159 525 
L 1159 -1331 
L 581 -1331 
L 581 3500 
L 1159 3500 
L 1159 2969 
Q 1341 3281 1617 3432 
Q 1894 3584 2278 3584 
Q 2916 3584 3314 3078 
Q 3713 2572 3713 1747 
Q 3713 922 3314 415 
Q 2916 -91 2278 -91 
Q 1894 -91 1617 61 
Q 1341 213 1159 525 
z
M 3116 1747 
Q 3116 2381 2855 2742 
Q 2594 3103 2138 3103 
Q 1681 3103 1420 2742 
Q 1159 2381 1159 1747 
Q 1159 1113 1420 752 
Q 1681 391 2138 391 
Q 2594 391 2855 752 
Q 3116 1113 3116 1747 
z
" transform="scale(0.015625)"/>
      <path id="DejaVuSans-67" d="M 2906 1791 
Q 2906 2416 2648 2759 
Q 2391 3103 1925 3103 
Q 1463 3103 1205 2759 
Q 947 2416 947 1791 
Q 947 1169 1205 825 
Q 1463 481 1925 481 
Q 2391 481 2648 825 
Q 2906 1169 2906 1791 
z
M 3481 434 
Q 3481 -459 3084 -895 
Q 2688 -1331 1869 -1331 
Q 1566 -1331 1297 -1286 
Q 1028 -1241 775 -1147 
L 775 -588 
Q 1028 -725 1275 -790 
Q 1522 -856 1778 -856 
Q 2344 -856 2625 -561 
Q 2906 -266 2906 331 
L 2906 616 
Q 2728 306 2450 153 
Q 2172 0 1784 0 
Q 1141 0 747 490 
Q 353 981 353 1791 
Q 353 2603 747 3093 
Q 1141 3584 1784 3584 
Q 2172 3584 2450 3431 
Q 2728 3278 2906 2969 
L 2906 3500 
L 3481 3500 
L 3481 434 
z
" transform="scale(0.015625)"/>
      <path id="DejaVuSans-3b" d="M 750 3309 
L 1409 3309 
L 1409 2516 
L 750 2516 
L 750 3309 
z
M 750 794 
L 1409 794 
L 1409 256 
L 897 -744 
L 494 -744 
L 750 256 
L 750 794 
z
" transform="scale(0.015625)"/>
      <path id="DejaVuSans-49" d="M 628 4666 
L 1259 4666 
L 1259 0 
L 628 0 
L 628 4666 
z
" transform="scale(0.015625)"/>
      <path id="DejaVuSans-54" d="M -19 4666 
L 3928 4666 
L 3928 4134 
L 2272 4134 
L 2272 0 
L 1638 0 
L 1638 4134 
L -19 4134 
L -19 4666 
z
" transform="scale(0.015625)"/>
      <path id="DejaVuSans-79" d="M 2059 -325 
Q 1816 -950 1584 -1140 
Q 1353 -1331 966 -1331 
L 506 -1331 
L 506 -850 
L 844 -850 
Q 1081 -850 1212 -737 
Q 1344 -625 1503 -206 
L 1606 56 
L 191 3500 
L 800 3500 
L 1894 763 
L 2988 3500 
L 3597 3500 
L 2059 -325 
z
" transform="scale(0.015625)"/>
      <path id="DejaVuSans-50" d="M 1259 4147 
L 1259 2394 
L 2053 2394 
Q 2494 2394 2734 2622 
Q 2975 2850 2975 3272 
Q 2975 3691 2734 3919 
Q 2494 4147 2053 4147 
L 1259 4147 
z
M 628 4666 
L 2053 4666 
Q 2838 4666 3239 4311 
Q 3641 3956 3641 3272 
Q 3641 2581 3239 2228 
Q 2838 1875 2053 1875 
L 1259 1875 
L 1259 0 
L 628 0 
L 628 4666 
z
" transform="scale(0.015625)"/>
      <path id="DejaVuSans-48" d="M 628 4666 
L 1259 4666 
L 1259 2753 
L 3553 2753 
L 3553 4666 
L 4184 4666 
L 4184 0 
L 3553 0 
L 3553 2222 
L 1259 2222 
L 1259 0 
L 628 0 
L 628 4666 
z
" transform="scale(0.015625)"/>
     </defs>
     <use xlink:href="#DejaVuSans-4d"/>
     <use xlink:href="#DejaVuSans-31" x="86.279297"/>
     <use xlink:href="#DejaVuSans-3a" x="149.902344"/>
     <use xlink:href="#DejaVuSans-20" x="183.59375"/>
     <use xlink:href="#DejaVuSans-41" x="215.380859"/>
     <use xlink:href="#DejaVuSans-73" x="283.789062"/>
     <use xlink:href="#DejaVuSans-70" x="335.888672"/>
     <use xlink:href="#DejaVuSans-61" x="399.365234"/>
     <use xlink:href="#DejaVuSans-72" x="460.644531"/>
     <use xlink:href="#DejaVuSans-61" x="501.757812"/>
     <use xlink:href="#DejaVuSans-67" x="563.037109"/>
     <use xlink:href="#DejaVuSans-69" x="626.513672"/>
     <use xlink:href="#DejaVuSans-6e" x="654.296875"/>
     <use xlink:href="#DejaVuSans-3b" x="717.675781"/>
     <use xlink:href="#DejaVuSans-20" x="751.367188"/>
     <use xlink:href="#DejaVuSans-49" x="783.154297"/>
     <use xlink:href="#DejaVuSans-73" x="812.646484"/>
     <use xlink:href="#DejaVuSans-6f" x="864.746094"/>
     <use xlink:href="#DejaVuSans-6c" x="925.927734"/>
     <use xlink:href="#DejaVuSans-65" x="953.710938"/>
     <use xlink:href="#DejaVuSans-75" x="1015.234375"/>
     <use xlink:href="#DejaVuSans-63" x="1078.613281"/>
     <use xlink:href="#DejaVuSans-69" x="1133.59375"/>
     <use xlink:href="#DejaVuSans-6e" x="1161.376953"/>
     <use xlink:href="#DejaVuSans-3b" x="1224.755859"/>
     <use xlink:href="#DejaVuSans-20" x="1258.447266"/>
     <use xlink:href="#DejaVuSans-54" x="1290.234375"/>
     <use xlink:href="#DejaVuSans-68" x="1351.318359"/>
     <use xlink:href="#DejaVuSans-72" x="1414.697266"/>
     <use xlink:href="#DejaVuSans-65" x="1453.560547"/>
     <use xlink:href="#DejaVuSans-6f" x="1515.083984"/>
     <use xlink:href="#DejaVuSans-6e" x="1576.265625"/>
     <use xlink:href="#DejaVuSans-69" x="1639.644531"/>
     <use xlink:href="#DejaVuSans-6e" x="1667.427734"/>
     <use xlink:href="#DejaVuSans-3b" x="1730.806641"/>
     <use xlink:href="#DejaVuSans-20" x="1764.498047"/>
     <use xlink:href="#DejaVuSans-54" x="1796.285156"/>
     <use xlink:href="#DejaVuSans-72" x="1842.619141"/>
     <use xlink:href="#DejaVuSans-79" x="1883.732422"/>
     <use xlink:href="#DejaVuSans-70" x="1942.912109"/>
     <use xlink:href="#DejaVuSans-74" x="2006.388672"/>
     <use xlink:href="#DejaVuSans-6f" x="2045.597656"/>
     <use xlink:href="#DejaVuSans-70" x="2106.779297"/>
     <use xlink:href="#DejaVuSans-68" x="2170.255859"/>
     <use xlink:href="#DejaVuSans-61" x="2233.634766"/>
     <use xlink:href="#DejaVuSans-6e" x="2294.914062"/>
     <use xlink:href="#DejaVuSans-3b" x="2358.292969"/>
     <use xlink:href="#DejaVuSans-20" x="2391.984375"/>
     <use xlink:href="#DejaVuSans-50" x="2423.771484"/>
     <use xlink:href="#DejaVuSans-68" x="2484.074219"/>
     <use xlink:href="#DejaVuSans-65" x="2547.453125"/>
     <use xlink:href="#DejaVuSans-6e" x="2608.976562"/>
     <use xlink:href="#DejaVuSans-79" x="2672.355469"/>
     <use xlink:href="#DejaVuSans-6c" x="2731.535156"/>
     <use xlink:href="#DejaVuSans-61" x="2759.318359"/>
     <use xlink:href="#DejaVuSans-6c" x="2820.597656"/>
     <use xlink:href="#DejaVuSans-61" x="2848.380859"/>
     <use xlink:href="#DejaVuSans-6e" x="2909.660156"/>
     <use xlink:href="#DejaVuSans-69" x="2973.039062"/>
     <use xlink:href="#DejaVuSans-6e" x="3000.822266"/>
     <use xlink:href="#DejaVuSans-3b" x="3064.201172"/>
     <use xlink:href="#DejaVuSans-20" x="3097.892578"/>
     <use xlink:href="#DejaVuSans-4d" x="3129.679688"/>
     <use xlink:href="#DejaVuSans-65" x="3215.958984"/>
     <use xlink:href="#DejaVuSans-74" x="3277.482422"/>
     <use xlink:href="#DejaVuSans-68" x="3316.691406"/>
     <use xlink:href="#DejaVuSans-69" x="3380.070312"/>
     <use xlink:href="#DejaVuSans-6f" x="3407.853516"/>
     <use xlink:href="#DejaVuSans-6e" x="3469.035156"/>
     <use xlink:href="#DejaVuSans-69" x="3532.414062"/>
     <use xlink:href="#DejaVuSans-6e" x="3560.197266"/>
     <use xlink:href="#DejaVuSans-3b" x="3623.576172"/>
     <use xlink:href="#DejaVuSans-20" x="3657.267578"/>
     <use xlink:href="#DejaVuSans-48" x="3689.054688"/>
     <use xlink:href="#DejaVuSans-69" x="3764.25"/>
     <use xlink:href="#DejaVuSans-73" x="3792.033203"/>
     <use xlink:href="#DejaVuSans-74" x="3844.132812"/>
     <use xlink:href="#DejaVuSans-69" x="3883.341797"/>
     <use xlink:href="#DejaVuSans-64" x="3911.125"/>
     <use xlink:href="#DejaVuSans-69" x="3974.601562"/>
     <use xlink:href="#DejaVuSans-6e" x="4002.384766"/>
     <use xlink:href="#DejaVuSans-3b" x="4065.763672"/>
     <use xlink:href="#DejaVuSans-20" x="4099.455078"/>
     <use xlink:href="#DejaVuSans-41" x="4131.242188"/>
     <use xlink:href="#DejaVuSans-72" x="4199.650391"/>
     <use xlink:href="#DejaVuSans-67" x="4239.013672"/>
     <use xlink:href="#DejaVuSans-69" x="4302.490234"/>
     <use xlink:href="#DejaVuSans-6e" x="4330.273438"/>
     <use xlink:href="#DejaVuSans-69" x="4393.652344"/>
     <use xlink:href="#DejaVuSans-6e" x="4421.435547"/>
    </g>
   </g>
  </g>
 </g>
 <defs>
  <clipPath id="p5ec83793ad">
   <rect x="72" y="51.84" width="446.4" height="332.64"/>
  </clipPath>
 </defs>
</svg>
