<?xml version="1.0" encoding="utf-8" standalone="no"?>
<!DOCTYPE svg PUBLIC "-//W3C//DTD SVG 1.1//EN"
  "http://www.w3.org/Graphics/SVG/1.1/DTD/svg11.dtd">
<svg xmlns:xlink="http://www.w3.org/1999/xlink" width="576pt" height="432pt" viewBox="0 0 576 432" xmlns="http://www.w3.org/2000/svg" version="1.1">
 <metadata>
  <rdf:RDF xmlns:dc="http://purl.org/dc/elements/1.1/" xmlns:cc="http://creativecommons.org/ns#" xmlns:rdf="http://www.w3.org/1999/02/22-rdf-syntax-ns#">
   <cc:Work>
    <dc:type rdf:resource="http://purl.org/dc/dcmitype/StillImage"/>
    <dc:date>2024-11-12T14:09:00.241106</dc:date>
    <dc:format>image/svg+xml</dc:format>
    <dc:creator>
     <cc:Agent>
      <dc:title>Matplotlib v3.7.5, https://matplotlib.org/</dc:title>
     </cc:Agent>
    </dc:creator>
   </cc:Work>
  </rdf:RDF>
 </metadata>
 <defs>
  <style type="text/css">*{stroke-linejoin: round; stroke-linecap: butt}</style>
 </defs>
 <g id="figure_1">
  <g id="patch_1">
   <path d="M 0 432 
L 576 432 
L 576 0 
L 0 0 
z
" style="fill: #ffffff"/>
  </g>
  <g id="axes_1">
   <g id="patch_2">
    <path d="M 72 384.48 
L 518.4 384.48 
L 518.4 51.84 
L 72 51.84 
z
" style="fill: #ffffff"/>
   </g>
   <g id="matplotlib.axis_1">
    <g id="xtick_1">
     <g id="line2d_1">
      <path d="M 92.290909 384.48 
L 92.290909 51.84 
" clip-path="url(#p3d7b602598)" style="fill: none; stroke: #b0b0b0; stroke-width: 0.8; stroke-linecap: square"/>
     </g>
     <g id="line2d_2">
      <defs>
       <path id="mcd9ed68a28" d="M 0 0 
L 0 3.5 
" style="stroke: #000000; stroke-width: 0.8"/>
      </defs>
      <g>
       <use xlink:href="#mcd9ed68a28" x="92.290909" y="384.48" style="stroke: #000000; stroke-width: 0.8"/>
      </g>
     </g>
     <g id="text_1">
      <!-- 0.17 -->
      <g transform="translate(81.158097 399.078438) scale(0.1 -0.1)">
       <defs>
        <path id="DejaVuSans-30" d="M 2034 4250 
Q 1547 4250 1301 3770 
Q 1056 3291 1056 2328 
Q 1056 1369 1301 889 
Q 1547 409 2034 409 
Q 2525 409 2770 889 
Q 3016 1369 3016 2328 
Q 3016 3291 2770 3770 
Q 2525 4250 2034 4250 
z
M 2034 4750 
Q 2819 4750 3233 4129 
Q 3647 3509 3647 2328 
Q 3647 1150 3233 529 
Q 2819 -91 2034 -91 
Q 1250 -91 836 529 
Q 422 1150 422 2328 
Q 422 3509 836 4129 
Q 1250 4750 2034 4750 
z
" transform="scale(0.015625)"/>
        <path id="DejaVuSans-2e" d="M 684 794 
L 1344 794 
L 1344 0 
L 684 0 
L 684 794 
z
" transform="scale(0.015625)"/>
        <path id="DejaVuSans-31" d="M 794 531 
L 1825 531 
L 1825 4091 
L 703 3866 
L 703 4441 
L 1819 4666 
L 2450 4666 
L 2450 531 
L 3481 531 
L 3481 0 
L 794 0 
L 794 531 
z
" transform="scale(0.015625)"/>
        <path id="DejaVuSans-37" d="M 525 4666 
L 3525 4666 
L 3525 4397 
L 1831 0 
L 1172 0 
L 2766 4134 
L 525 4134 
L 525 4666 
z
" transform="scale(0.015625)"/>
       </defs>
       <use xlink:href="#DejaVuSans-30"/>
       <use xlink:href="#DejaVuSans-2e" x="63.623047"/>
       <use xlink:href="#DejaVuSans-31" x="95.410156"/>
       <use xlink:href="#DejaVuSans-37" x="159.033203"/>
      </g>
     </g>
    </g>
    <g id="xtick_2">
     <g id="line2d_3">
      <path d="M 158.010453 384.48 
L 158.010453 51.84 
" clip-path="url(#p3d7b602598)" style="fill: none; stroke: #b0b0b0; stroke-width: 0.8; stroke-linecap: square"/>
     </g>
     <g id="line2d_4">
      <g>
       <use xlink:href="#mcd9ed68a28" x="158.010453" y="384.48" style="stroke: #000000; stroke-width: 0.8"/>
      </g>
     </g>
     <g id="text_2">
      <!-- 6.83 -->
      <g transform="translate(146.87764 399.078438) scale(0.1 -0.1)">
       <defs>
        <path id="DejaVuSans-36" d="M 2113 2584 
Q 1688 2584 1439 2293 
Q 1191 2003 1191 1497 
Q 1191 994 1439 701 
Q 1688 409 2113 409 
Q 2538 409 2786 701 
Q 3034 994 3034 1497 
Q 3034 2003 2786 2293 
Q 2538 2584 2113 2584 
z
M 3366 4563 
L 3366 3988 
Q 3128 4100 2886 4159 
Q 2644 4219 2406 4219 
Q 1781 4219 1451 3797 
Q 1122 3375 1075 2522 
Q 1259 2794 1537 2939 
Q 1816 3084 2150 3084 
Q 2853 3084 3261 2657 
Q 3669 2231 3669 1497 
Q 3669 778 3244 343 
Q 2819 -91 2113 -91 
Q 1303 -91 875 529 
Q 447 1150 447 2328 
Q 447 3434 972 4092 
Q 1497 4750 2381 4750 
Q 2619 4750 2861 4703 
Q 3103 4656 3366 4563 
z
" transform="scale(0.015625)"/>
        <path id="DejaVuSans-38" d="M 2034 2216 
Q 1584 2216 1326 1975 
Q 1069 1734 1069 1313 
Q 1069 891 1326 650 
Q 1584 409 2034 409 
Q 2484 409 2743 651 
Q 3003 894 3003 1313 
Q 3003 1734 2745 1975 
Q 2488 2216 2034 2216 
z
M 1403 2484 
Q 997 2584 770 2862 
Q 544 3141 544 3541 
Q 544 4100 942 4425 
Q 1341 4750 2034 4750 
Q 2731 4750 3128 4425 
Q 3525 4100 3525 3541 
Q 3525 3141 3298 2862 
Q 3072 2584 2669 2484 
Q 3125 2378 3379 2068 
Q 3634 1759 3634 1313 
Q 3634 634 3220 271 
Q 2806 -91 2034 -91 
Q 1263 -91 848 271 
Q 434 634 434 1313 
Q 434 1759 690 2068 
Q 947 2378 1403 2484 
z
M 1172 3481 
Q 1172 3119 1398 2916 
Q 1625 2713 2034 2713 
Q 2441 2713 2670 2916 
Q 2900 3119 2900 3481 
Q 2900 3844 2670 4047 
Q 2441 4250 2034 4250 
Q 1625 4250 1398 4047 
Q 1172 3844 1172 3481 
z
" transform="scale(0.015625)"/>
        <path id="DejaVuSans-33" d="M 2597 2516 
Q 3050 2419 3304 2112 
Q 3559 1806 3559 1356 
Q 3559 666 3084 287 
Q 2609 -91 1734 -91 
Q 1441 -91 1130 -33 
Q 819 25 488 141 
L 488 750 
Q 750 597 1062 519 
Q 1375 441 1716 441 
Q 2309 441 2620 675 
Q 2931 909 2931 1356 
Q 2931 1769 2642 2001 
Q 2353 2234 1838 2234 
L 1294 2234 
L 1294 2753 
L 1863 2753 
Q 2328 2753 2575 2939 
Q 2822 3125 2822 3475 
Q 2822 3834 2567 4026 
Q 2313 4219 1838 4219 
Q 1578 4219 1281 4162 
Q 984 4106 628 3988 
L 628 4550 
Q 988 4650 1302 4700 
Q 1616 4750 1894 4750 
Q 2613 4750 3031 4423 
Q 3450 4097 3450 3541 
Q 3450 3153 3228 2886 
Q 3006 2619 2597 2516 
z
" transform="scale(0.015625)"/>
       </defs>
       <use xlink:href="#DejaVuSans-36"/>
       <use xlink:href="#DejaVuSans-2e" x="63.623047"/>
       <use xlink:href="#DejaVuSans-38" x="95.410156"/>
       <use xlink:href="#DejaVuSans-33" x="159.033203"/>
      </g>
     </g>
    </g>
    <g id="xtick_3">
     <g id="line2d_5">
      <path d="M 223.729996 384.48 
L 223.729996 51.84 
" clip-path="url(#p3d7b602598)" style="fill: none; stroke: #b0b0b0; stroke-width: 0.8; stroke-linecap: square"/>
     </g>
     <g id="line2d_6">
      <g>
       <use xlink:href="#mcd9ed68a28" x="223.729996" y="384.48" style="stroke: #000000; stroke-width: 0.8"/>
      </g>
     </g>
     <g id="text_3">
      <!-- 13.5 -->
      <g transform="translate(212.597184 399.078438) scale(0.1 -0.1)">
       <defs>
        <path id="DejaVuSans-35" d="M 691 4666 
L 3169 4666 
L 3169 4134 
L 1269 4134 
L 1269 2991 
Q 1406 3038 1543 3061 
Q 1681 3084 1819 3084 
Q 2600 3084 3056 2656 
Q 3513 2228 3513 1497 
Q 3513 744 3044 326 
Q 2575 -91 1722 -91 
Q 1428 -91 1123 -41 
Q 819 9 494 109 
L 494 744 
Q 775 591 1075 516 
Q 1375 441 1709 441 
Q 2250 441 2565 725 
Q 2881 1009 2881 1497 
Q 2881 1984 2565 2268 
Q 2250 2553 1709 2553 
Q 1456 2553 1204 2497 
Q 953 2441 691 2322 
L 691 4666 
z
" transform="scale(0.015625)"/>
       </defs>
       <use xlink:href="#DejaVuSans-31"/>
       <use xlink:href="#DejaVuSans-33" x="63.623047"/>
       <use xlink:href="#DejaVuSans-2e" x="127.246094"/>
       <use xlink:href="#DejaVuSans-35" x="159.033203"/>
      </g>
     </g>
    </g>
    <g id="xtick_4">
     <g id="line2d_7">
      <path d="M 289.44954 384.48 
L 289.44954 51.84 
" clip-path="url(#p3d7b602598)" style="fill: none; stroke: #b0b0b0; stroke-width: 0.8; stroke-linecap: square"/>
     </g>
     <g id="line2d_8">
      <g>
       <use xlink:href="#mcd9ed68a28" x="289.44954" y="384.48" style="stroke: #000000; stroke-width: 0.8"/>
      </g>
     </g>
     <g id="text_4">
      <!-- 20.17 -->
      <g transform="translate(275.135477 399.078438) scale(0.1 -0.1)">
       <defs>
        <path id="DejaVuSans-32" d="M 1228 531 
L 3431 531 
L 3431 0 
L 469 0 
L 469 531 
Q 828 903 1448 1529 
Q 2069 2156 2228 2338 
Q 2531 2678 2651 2914 
Q 2772 3150 2772 3378 
Q 2772 3750 2511 3984 
Q 2250 4219 1831 4219 
Q 1534 4219 1204 4116 
Q 875 4013 500 3803 
L 500 4441 
Q 881 4594 1212 4672 
Q 1544 4750 1819 4750 
Q 2544 4750 2975 4387 
Q 3406 4025 3406 3419 
Q 3406 3131 3298 2873 
Q 3191 2616 2906 2266 
Q 2828 2175 2409 1742 
Q 1991 1309 1228 531 
z
" transform="scale(0.015625)"/>
       </defs>
       <use xlink:href="#DejaVuSans-32"/>
       <use xlink:href="#DejaVuSans-30" x="63.623047"/>
       <use xlink:href="#DejaVuSans-2e" x="127.246094"/>
       <use xlink:href="#DejaVuSans-31" x="159.033203"/>
       <use xlink:href="#DejaVuSans-37" x="222.65625"/>
      </g>
     </g>
    </g>
    <g id="xtick_5">
     <g id="line2d_9">
      <path d="M 355.169084 384.48 
L 355.169084 51.84 
" clip-path="url(#p3d7b602598)" style="fill: none; stroke: #b0b0b0; stroke-width: 0.8; stroke-linecap: square"/>
     </g>
     <g id="line2d_10">
      <g>
       <use xlink:href="#mcd9ed68a28" x="355.169084" y="384.48" style="stroke: #000000; stroke-width: 0.8"/>
      </g>
     </g>
     <g id="text_5">
      <!-- 26.83 -->
      <g transform="translate(340.855021 399.078438) scale(0.1 -0.1)">
       <use xlink:href="#DejaVuSans-32"/>
       <use xlink:href="#DejaVuSans-36" x="63.623047"/>
       <use xlink:href="#DejaVuSans-2e" x="127.246094"/>
       <use xlink:href="#DejaVuSans-38" x="159.033203"/>
       <use xlink:href="#DejaVuSans-33" x="222.65625"/>
      </g>
     </g>
    </g>
    <g id="xtick_6">
     <g id="line2d_11">
      <path d="M 420.888627 384.48 
L 420.888627 51.84 
" clip-path="url(#p3d7b602598)" style="fill: none; stroke: #b0b0b0; stroke-width: 0.8; stroke-linecap: square"/>
     </g>
     <g id="line2d_12">
      <g>
       <use xlink:href="#mcd9ed68a28" x="420.888627" y="384.48" style="stroke: #000000; stroke-width: 0.8"/>
      </g>
     </g>
     <g id="text_6">
      <!-- 33.5 -->
      <g transform="translate(409.755815 399.078438) scale(0.1 -0.1)">
       <use xlink:href="#DejaVuSans-33"/>
       <use xlink:href="#DejaVuSans-33" x="63.623047"/>
       <use xlink:href="#DejaVuSans-2e" x="127.246094"/>
       <use xlink:href="#DejaVuSans-35" x="159.033203"/>
      </g>
     </g>
    </g>
    <g id="xtick_7">
     <g id="line2d_13">
      <path d="M 486.608171 384.48 
L 486.608171 51.84 
" clip-path="url(#p3d7b602598)" style="fill: none; stroke: #b0b0b0; stroke-width: 0.8; stroke-linecap: square"/>
     </g>
     <g id="line2d_14">
      <g>
       <use xlink:href="#mcd9ed68a28" x="486.608171" y="384.48" style="stroke: #000000; stroke-width: 0.8"/>
      </g>
     </g>
     <g id="text_7">
      <!-- 40.17 -->
      <g transform="translate(472.294108 399.078438) scale(0.1 -0.1)">
       <defs>
        <path id="DejaVuSans-34" d="M 2419 4116 
L 825 1625 
L 2419 1625 
L 2419 4116 
z
M 2253 4666 
L 3047 4666 
L 3047 1625 
L 3713 1625 
L 3713 1100 
L 3047 1100 
L 3047 0 
L 2419 0 
L 2419 1100 
L 313 1100 
L 313 1709 
L 2253 4666 
z
" transform="scale(0.015625)"/>
       </defs>
       <use xlink:href="#DejaVuSans-34"/>
       <use xlink:href="#DejaVuSans-30" x="63.623047"/>
       <use xlink:href="#DejaVuSans-2e" x="127.246094"/>
       <use xlink:href="#DejaVuSans-31" x="159.033203"/>
       <use xlink:href="#DejaVuSans-37" x="222.65625"/>
      </g>
     </g>
    </g>
    <g id="text_8">
     <!-- time in hours [h] -->
     <g transform="translate(253.451562 412.756563) scale(0.1 -0.1)">
      <defs>
       <path id="DejaVuSans-74" d="M 1172 4494 
L 1172 3500 
L 2356 3500 
L 2356 3053 
L 1172 3053 
L 1172 1153 
Q 1172 725 1289 603 
Q 1406 481 1766 481 
L 2356 481 
L 2356 0 
L 1766 0 
Q 1100 0 847 248 
Q 594 497 594 1153 
L 594 3053 
L 172 3053 
L 172 3500 
L 594 3500 
L 594 4494 
L 1172 4494 
z
" transform="scale(0.015625)"/>
       <path id="DejaVuSans-69" d="M 603 3500 
L 1178 3500 
L 1178 0 
L 603 0 
L 603 3500 
z
M 603 4863 
L 1178 4863 
L 1178 4134 
L 603 4134 
L 603 4863 
z
" transform="scale(0.015625)"/>
       <path id="DejaVuSans-6d" d="M 3328 2828 
Q 3544 3216 3844 3400 
Q 4144 3584 4550 3584 
Q 5097 3584 5394 3201 
Q 5691 2819 5691 2113 
L 5691 0 
L 5113 0 
L 5113 2094 
Q 5113 2597 4934 2840 
Q 4756 3084 4391 3084 
Q 3944 3084 3684 2787 
Q 3425 2491 3425 1978 
L 3425 0 
L 2847 0 
L 2847 2094 
Q 2847 2600 2669 2842 
Q 2491 3084 2119 3084 
Q 1678 3084 1418 2786 
Q 1159 2488 1159 1978 
L 1159 0 
L 581 0 
L 581 3500 
L 1159 3500 
L 1159 2956 
Q 1356 3278 1631 3431 
Q 1906 3584 2284 3584 
Q 2666 3584 2933 3390 
Q 3200 3197 3328 2828 
z
" transform="scale(0.015625)"/>
       <path id="DejaVuSans-65" d="M 3597 1894 
L 3597 1613 
L 953 1613 
Q 991 1019 1311 708 
Q 1631 397 2203 397 
Q 2534 397 2845 478 
Q 3156 559 3463 722 
L 3463 178 
Q 3153 47 2828 -22 
Q 2503 -91 2169 -91 
Q 1331 -91 842 396 
Q 353 884 353 1716 
Q 353 2575 817 3079 
Q 1281 3584 2069 3584 
Q 2775 3584 3186 3129 
Q 3597 2675 3597 1894 
z
M 3022 2063 
Q 3016 2534 2758 2815 
Q 2500 3097 2075 3097 
Q 1594 3097 1305 2825 
Q 1016 2553 972 2059 
L 3022 2063 
z
" transform="scale(0.015625)"/>
       <path id="DejaVuSans-20" transform="scale(0.015625)"/>
       <path id="DejaVuSans-6e" d="M 3513 2113 
L 3513 0 
L 2938 0 
L 2938 2094 
Q 2938 2591 2744 2837 
Q 2550 3084 2163 3084 
Q 1697 3084 1428 2787 
Q 1159 2491 1159 1978 
L 1159 0 
L 581 0 
L 581 3500 
L 1159 3500 
L 1159 2956 
Q 1366 3272 1645 3428 
Q 1925 3584 2291 3584 
Q 2894 3584 3203 3211 
Q 3513 2838 3513 2113 
z
" transform="scale(0.015625)"/>
       <path id="DejaVuSans-68" d="M 3513 2113 
L 3513 0 
L 2938 0 
L 2938 2094 
Q 2938 2591 2744 2837 
Q 2550 3084 2163 3084 
Q 1697 3084 1428 2787 
Q 1159 2491 1159 1978 
L 1159 0 
L 581 0 
L 581 4863 
L 1159 4863 
L 1159 2956 
Q 1366 3272 1645 3428 
Q 1925 3584 2291 3584 
Q 2894 3584 3203 3211 
Q 3513 2838 3513 2113 
z
" transform="scale(0.015625)"/>
       <path id="DejaVuSans-6f" d="M 1959 3097 
Q 1497 3097 1228 2736 
Q 959 2375 959 1747 
Q 959 1119 1226 758 
Q 1494 397 1959 397 
Q 2419 397 2687 759 
Q 2956 1122 2956 1747 
Q 2956 2369 2687 2733 
Q 2419 3097 1959 3097 
z
M 1959 3584 
Q 2709 3584 3137 3096 
Q 3566 2609 3566 1747 
Q 3566 888 3137 398 
Q 2709 -91 1959 -91 
Q 1206 -91 779 398 
Q 353 888 353 1747 
Q 353 2609 779 3096 
Q 1206 3584 1959 3584 
z
" transform="scale(0.015625)"/>
       <path id="DejaVuSans-75" d="M 544 1381 
L 544 3500 
L 1119 3500 
L 1119 1403 
Q 1119 906 1312 657 
Q 1506 409 1894 409 
Q 2359 409 2629 706 
Q 2900 1003 2900 1516 
L 2900 3500 
L 3475 3500 
L 3475 0 
L 2900 0 
L 2900 538 
Q 2691 219 2414 64 
Q 2138 -91 1772 -91 
Q 1169 -91 856 284 
Q 544 659 544 1381 
z
M 1991 3584 
L 1991 3584 
z
" transform="scale(0.015625)"/>
       <path id="DejaVuSans-72" d="M 2631 2963 
Q 2534 3019 2420 3045 
Q 2306 3072 2169 3072 
Q 1681 3072 1420 2755 
Q 1159 2438 1159 1844 
L 1159 0 
L 581 0 
L 581 3500 
L 1159 3500 
L 1159 2956 
Q 1341 3275 1631 3429 
Q 1922 3584 2338 3584 
Q 2397 3584 2469 3576 
Q 2541 3569 2628 3553 
L 2631 2963 
z
" transform="scale(0.015625)"/>
       <path id="DejaVuSans-73" d="M 2834 3397 
L 2834 2853 
Q 2591 2978 2328 3040 
Q 2066 3103 1784 3103 
Q 1356 3103 1142 2972 
Q 928 2841 928 2578 
Q 928 2378 1081 2264 
Q 1234 2150 1697 2047 
L 1894 2003 
Q 2506 1872 2764 1633 
Q 3022 1394 3022 966 
Q 3022 478 2636 193 
Q 2250 -91 1575 -91 
Q 1294 -91 989 -36 
Q 684 19 347 128 
L 347 722 
Q 666 556 975 473 
Q 1284 391 1588 391 
Q 1994 391 2212 530 
Q 2431 669 2431 922 
Q 2431 1156 2273 1281 
Q 2116 1406 1581 1522 
L 1381 1569 
Q 847 1681 609 1914 
Q 372 2147 372 2553 
Q 372 3047 722 3315 
Q 1072 3584 1716 3584 
Q 2034 3584 2315 3537 
Q 2597 3491 2834 3397 
z
" transform="scale(0.015625)"/>
       <path id="DejaVuSans-5b" d="M 550 4863 
L 1875 4863 
L 1875 4416 
L 1125 4416 
L 1125 -397 
L 1875 -397 
L 1875 -844 
L 550 -844 
L 550 4863 
z
" transform="scale(0.015625)"/>
       <path id="DejaVuSans-5d" d="M 1947 4863 
L 1947 -844 
L 622 -844 
L 622 -397 
L 1369 -397 
L 1369 4416 
L 622 4416 
L 622 4863 
L 1947 4863 
z
" transform="scale(0.015625)"/>
      </defs>
      <use xlink:href="#DejaVuSans-74"/>
      <use xlink:href="#DejaVuSans-69" x="39.208984"/>
      <use xlink:href="#DejaVuSans-6d" x="66.992188"/>
      <use xlink:href="#DejaVuSans-65" x="164.404297"/>
      <use xlink:href="#DejaVuSans-20" x="225.927734"/>
      <use xlink:href="#DejaVuSans-69" x="257.714844"/>
      <use xlink:href="#DejaVuSans-6e" x="285.498047"/>
      <use xlink:href="#DejaVuSans-20" x="348.876953"/>
      <use xlink:href="#DejaVuSans-68" x="380.664062"/>
      <use xlink:href="#DejaVuSans-6f" x="444.042969"/>
      <use xlink:href="#DejaVuSans-75" x="505.224609"/>
      <use xlink:href="#DejaVuSans-72" x="568.603516"/>
      <use xlink:href="#DejaVuSans-73" x="609.716797"/>
      <use xlink:href="#DejaVuSans-20" x="661.816406"/>
      <use xlink:href="#DejaVuSans-5b" x="693.603516"/>
      <use xlink:href="#DejaVuSans-68" x="732.617188"/>
      <use xlink:href="#DejaVuSans-5d" x="795.996094"/>
     </g>
    </g>
   </g>
   <g id="matplotlib.axis_2">
    <g id="ytick_1">
     <g id="line2d_15">
      <path d="M 72 355.100317 
L 518.4 355.100317 
" clip-path="url(#p3d7b602598)" style="fill: none; stroke: #b0b0b0; stroke-width: 0.8; stroke-linecap: square"/>
     </g>
     <g id="line2d_16">
      <defs>
       <path id="mf11121a5fe" d="M 0 0 
L -3.5 0 
" style="stroke: #000000; stroke-width: 0.8"/>
      </defs>
      <g>
       <use xlink:href="#mf11121a5fe" x="72" y="355.100317" style="stroke: #000000; stroke-width: 0.8"/>
      </g>
     </g>
     <g id="text_9">
      <!-- 20000 -->
      <g transform="translate(33.1875 358.899536) scale(0.1 -0.1)">
       <use xlink:href="#DejaVuSans-32"/>
       <use xlink:href="#DejaVuSans-30" x="63.623047"/>
       <use xlink:href="#DejaVuSans-30" x="127.246094"/>
       <use xlink:href="#DejaVuSans-30" x="190.869141"/>
       <use xlink:href="#DejaVuSans-30" x="254.492188"/>
      </g>
     </g>
    </g>
    <g id="ytick_2">
     <g id="line2d_17">
      <path d="M 72 306.55242 
L 518.4 306.55242 
" clip-path="url(#p3d7b602598)" style="fill: none; stroke: #b0b0b0; stroke-width: 0.8; stroke-linecap: square"/>
     </g>
     <g id="line2d_18">
      <g>
       <use xlink:href="#mf11121a5fe" x="72" y="306.55242" style="stroke: #000000; stroke-width: 0.8"/>
      </g>
     </g>
     <g id="text_10">
      <!-- 40000 -->
      <g transform="translate(33.1875 310.351638) scale(0.1 -0.1)">
       <use xlink:href="#DejaVuSans-34"/>
       <use xlink:href="#DejaVuSans-30" x="63.623047"/>
       <use xlink:href="#DejaVuSans-30" x="127.246094"/>
       <use xlink:href="#DejaVuSans-30" x="190.869141"/>
       <use xlink:href="#DejaVuSans-30" x="254.492188"/>
      </g>
     </g>
    </g>
    <g id="ytick_3">
     <g id="line2d_19">
      <path d="M 72 258.004522 
L 518.4 258.004522 
" clip-path="url(#p3d7b602598)" style="fill: none; stroke: #b0b0b0; stroke-width: 0.8; stroke-linecap: square"/>
     </g>
     <g id="line2d_20">
      <g>
       <use xlink:href="#mf11121a5fe" x="72" y="258.004522" style="stroke: #000000; stroke-width: 0.8"/>
      </g>
     </g>
     <g id="text_11">
      <!-- 60000 -->
      <g transform="translate(33.1875 261.803741) scale(0.1 -0.1)">
       <use xlink:href="#DejaVuSans-36"/>
       <use xlink:href="#DejaVuSans-30" x="63.623047"/>
       <use xlink:href="#DejaVuSans-30" x="127.246094"/>
       <use xlink:href="#DejaVuSans-30" x="190.869141"/>
       <use xlink:href="#DejaVuSans-30" x="254.492188"/>
      </g>
     </g>
    </g>
    <g id="ytick_4">
     <g id="line2d_21">
      <path d="M 72 209.456624 
L 518.4 209.456624 
" clip-path="url(#p3d7b602598)" style="fill: none; stroke: #b0b0b0; stroke-width: 0.8; stroke-linecap: square"/>
     </g>
     <g id="line2d_22">
      <g>
       <use xlink:href="#mf11121a5fe" x="72" y="209.456624" style="stroke: #000000; stroke-width: 0.8"/>
      </g>
     </g>
     <g id="text_12">
      <!-- 80000 -->
      <g transform="translate(33.1875 213.255843) scale(0.1 -0.1)">
       <use xlink:href="#DejaVuSans-38"/>
       <use xlink:href="#DejaVuSans-30" x="63.623047"/>
       <use xlink:href="#DejaVuSans-30" x="127.246094"/>
       <use xlink:href="#DejaVuSans-30" x="190.869141"/>
       <use xlink:href="#DejaVuSans-30" x="254.492188"/>
      </g>
     </g>
    </g>
    <g id="ytick_5">
     <g id="line2d_23">
      <path d="M 72 160.908726 
L 518.4 160.908726 
" clip-path="url(#p3d7b602598)" style="fill: none; stroke: #b0b0b0; stroke-width: 0.8; stroke-linecap: square"/>
     </g>
     <g id="line2d_24">
      <g>
       <use xlink:href="#mf11121a5fe" x="72" y="160.908726" style="stroke: #000000; stroke-width: 0.8"/>
      </g>
     </g>
     <g id="text_13">
      <!-- 100000 -->
      <g transform="translate(26.825 164.707945) scale(0.1 -0.1)">
       <use xlink:href="#DejaVuSans-31"/>
       <use xlink:href="#DejaVuSans-30" x="63.623047"/>
       <use xlink:href="#DejaVuSans-30" x="127.246094"/>
       <use xlink:href="#DejaVuSans-30" x="190.869141"/>
       <use xlink:href="#DejaVuSans-30" x="254.492188"/>
       <use xlink:href="#DejaVuSans-30" x="318.115234"/>
      </g>
     </g>
    </g>
    <g id="ytick_6">
     <g id="line2d_25">
      <path d="M 72 112.360829 
L 518.4 112.360829 
" clip-path="url(#p3d7b602598)" style="fill: none; stroke: #b0b0b0; stroke-width: 0.8; stroke-linecap: square"/>
     </g>
     <g id="line2d_26">
      <g>
       <use xlink:href="#mf11121a5fe" x="72" y="112.360829" style="stroke: #000000; stroke-width: 0.8"/>
      </g>
     </g>
     <g id="text_14">
      <!-- 120000 -->
      <g transform="translate(26.825 116.160048) scale(0.1 -0.1)">
       <use xlink:href="#DejaVuSans-31"/>
       <use xlink:href="#DejaVuSans-32" x="63.623047"/>
       <use xlink:href="#DejaVuSans-30" x="127.246094"/>
       <use xlink:href="#DejaVuSans-30" x="190.869141"/>
       <use xlink:href="#DejaVuSans-30" x="254.492188"/>
       <use xlink:href="#DejaVuSans-30" x="318.115234"/>
      </g>
     </g>
    </g>
    <g id="ytick_7">
     <g id="line2d_27">
      <path d="M 72 63.812931 
L 518.4 63.812931 
" clip-path="url(#p3d7b602598)" style="fill: none; stroke: #b0b0b0; stroke-width: 0.8; stroke-linecap: square"/>
     </g>
     <g id="line2d_28">
      <g>
       <use xlink:href="#mf11121a5fe" x="72" y="63.812931" style="stroke: #000000; stroke-width: 0.8"/>
      </g>
     </g>
     <g id="text_15">
      <!-- 140000 -->
      <g transform="translate(26.825 67.61215) scale(0.1 -0.1)">
       <use xlink:href="#DejaVuSans-31"/>
       <use xlink:href="#DejaVuSans-34" x="63.623047"/>
       <use xlink:href="#DejaVuSans-30" x="127.246094"/>
       <use xlink:href="#DejaVuSans-30" x="190.869141"/>
       <use xlink:href="#DejaVuSans-30" x="254.492188"/>
       <use xlink:href="#DejaVuSans-30" x="318.115234"/>
      </g>
     </g>
    </g>
    <g id="text_16">
     <!-- blank corrected GFP RFU -->
     <g transform="translate(20.745312 280.149062) rotate(-90) scale(0.1 -0.1)">
      <defs>
       <path id="DejaVuSans-62" d="M 3116 1747 
Q 3116 2381 2855 2742 
Q 2594 3103 2138 3103 
Q 1681 3103 1420 2742 
Q 1159 2381 1159 1747 
Q 1159 1113 1420 752 
Q 1681 391 2138 391 
Q 2594 391 2855 752 
Q 3116 1113 3116 1747 
z
M 1159 2969 
Q 1341 3281 1617 3432 
Q 1894 3584 2278 3584 
Q 2916 3584 3314 3078 
Q 3713 2572 3713 1747 
Q 3713 922 3314 415 
Q 2916 -91 2278 -91 
Q 1894 -91 1617 61 
Q 1341 213 1159 525 
L 1159 0 
L 581 0 
L 581 4863 
L 1159 4863 
L 1159 2969 
z
" transform="scale(0.015625)"/>
       <path id="DejaVuSans-6c" d="M 603 4863 
L 1178 4863 
L 1178 0 
L 603 0 
L 603 4863 
z
" transform="scale(0.015625)"/>
       <path id="DejaVuSans-61" d="M 2194 1759 
Q 1497 1759 1228 1600 
Q 959 1441 959 1056 
Q 959 750 1161 570 
Q 1363 391 1709 391 
Q 2188 391 2477 730 
Q 2766 1069 2766 1631 
L 2766 1759 
L 2194 1759 
z
M 3341 1997 
L 3341 0 
L 2766 0 
L 2766 531 
Q 2569 213 2275 61 
Q 1981 -91 1556 -91 
Q 1019 -91 701 211 
Q 384 513 384 1019 
Q 384 1609 779 1909 
Q 1175 2209 1959 2209 
L 2766 2209 
L 2766 2266 
Q 2766 2663 2505 2880 
Q 2244 3097 1772 3097 
Q 1472 3097 1187 3025 
Q 903 2953 641 2809 
L 641 3341 
Q 956 3463 1253 3523 
Q 1550 3584 1831 3584 
Q 2591 3584 2966 3190 
Q 3341 2797 3341 1997 
z
" transform="scale(0.015625)"/>
       <path id="DejaVuSans-6b" d="M 581 4863 
L 1159 4863 
L 1159 1991 
L 2875 3500 
L 3609 3500 
L 1753 1863 
L 3688 0 
L 2938 0 
L 1159 1709 
L 1159 0 
L 581 0 
L 581 4863 
z
" transform="scale(0.015625)"/>
       <path id="DejaVuSans-63" d="M 3122 3366 
L 3122 2828 
Q 2878 2963 2633 3030 
Q 2388 3097 2138 3097 
Q 1578 3097 1268 2742 
Q 959 2388 959 1747 
Q 959 1106 1268 751 
Q 1578 397 2138 397 
Q 2388 397 2633 464 
Q 2878 531 3122 666 
L 3122 134 
Q 2881 22 2623 -34 
Q 2366 -91 2075 -91 
Q 1284 -91 818 406 
Q 353 903 353 1747 
Q 353 2603 823 3093 
Q 1294 3584 2113 3584 
Q 2378 3584 2631 3529 
Q 2884 3475 3122 3366 
z
" transform="scale(0.015625)"/>
       <path id="DejaVuSans-64" d="M 2906 2969 
L 2906 4863 
L 3481 4863 
L 3481 0 
L 2906 0 
L 2906 525 
Q 2725 213 2448 61 
Q 2172 -91 1784 -91 
Q 1150 -91 751 415 
Q 353 922 353 1747 
Q 353 2572 751 3078 
Q 1150 3584 1784 3584 
Q 2172 3584 2448 3432 
Q 2725 3281 2906 2969 
z
M 947 1747 
Q 947 1113 1208 752 
Q 1469 391 1925 391 
Q 2381 391 2643 752 
Q 2906 1113 2906 1747 
Q 2906 2381 2643 2742 
Q 2381 3103 1925 3103 
Q 1469 3103 1208 2742 
Q 947 2381 947 1747 
z
" transform="scale(0.015625)"/>
       <path id="DejaVuSans-47" d="M 3809 666 
L 3809 1919 
L 2778 1919 
L 2778 2438 
L 4434 2438 
L 4434 434 
Q 4069 175 3628 42 
Q 3188 -91 2688 -91 
Q 1594 -91 976 548 
Q 359 1188 359 2328 
Q 359 3472 976 4111 
Q 1594 4750 2688 4750 
Q 3144 4750 3555 4637 
Q 3966 4525 4313 4306 
L 4313 3634 
Q 3963 3931 3569 4081 
Q 3175 4231 2741 4231 
Q 1884 4231 1454 3753 
Q 1025 3275 1025 2328 
Q 1025 1384 1454 906 
Q 1884 428 2741 428 
Q 3075 428 3337 486 
Q 3600 544 3809 666 
z
" transform="scale(0.015625)"/>
       <path id="DejaVuSans-46" d="M 628 4666 
L 3309 4666 
L 3309 4134 
L 1259 4134 
L 1259 2759 
L 3109 2759 
L 3109 2228 
L 1259 2228 
L 1259 0 
L 628 0 
L 628 4666 
z
" transform="scale(0.015625)"/>
       <path id="DejaVuSans-50" d="M 1259 4147 
L 1259 2394 
L 2053 2394 
Q 2494 2394 2734 2622 
Q 2975 2850 2975 3272 
Q 2975 3691 2734 3919 
Q 2494 4147 2053 4147 
L 1259 4147 
z
M 628 4666 
L 2053 4666 
Q 2838 4666 3239 4311 
Q 3641 3956 3641 3272 
Q 3641 2581 3239 2228 
Q 2838 1875 2053 1875 
L 1259 1875 
L 1259 0 
L 628 0 
L 628 4666 
z
" transform="scale(0.015625)"/>
       <path id="DejaVuSans-52" d="M 2841 2188 
Q 3044 2119 3236 1894 
Q 3428 1669 3622 1275 
L 4263 0 
L 3584 0 
L 2988 1197 
Q 2756 1666 2539 1819 
Q 2322 1972 1947 1972 
L 1259 1972 
L 1259 0 
L 628 0 
L 628 4666 
L 2053 4666 
Q 2853 4666 3247 4331 
Q 3641 3997 3641 3322 
Q 3641 2881 3436 2590 
Q 3231 2300 2841 2188 
z
M 1259 4147 
L 1259 2491 
L 2053 2491 
Q 2509 2491 2742 2702 
Q 2975 2913 2975 3322 
Q 2975 3731 2742 3939 
Q 2509 4147 2053 4147 
L 1259 4147 
z
" transform="scale(0.015625)"/>
       <path id="DejaVuSans-55" d="M 556 4666 
L 1191 4666 
L 1191 1831 
Q 1191 1081 1462 751 
Q 1734 422 2344 422 
Q 2950 422 3222 751 
Q 3494 1081 3494 1831 
L 3494 4666 
L 4128 4666 
L 4128 1753 
Q 4128 841 3676 375 
Q 3225 -91 2344 -91 
Q 1459 -91 1007 375 
Q 556 841 556 1753 
L 556 4666 
z
" transform="scale(0.015625)"/>
      </defs>
      <use xlink:href="#DejaVuSans-62"/>
      <use xlink:href="#DejaVuSans-6c" x="63.476562"/>
      <use xlink:href="#DejaVuSans-61" x="91.259766"/>
      <use xlink:href="#DejaVuSans-6e" x="152.539062"/>
      <use xlink:href="#DejaVuSans-6b" x="215.917969"/>
      <use xlink:href="#DejaVuSans-20" x="273.828125"/>
      <use xlink:href="#DejaVuSans-63" x="305.615234"/>
      <use xlink:href="#DejaVuSans-6f" x="360.595703"/>
      <use xlink:href="#DejaVuSans-72" x="421.777344"/>
      <use xlink:href="#DejaVuSans-72" x="461.140625"/>
      <use xlink:href="#DejaVuSans-65" x="500.003906"/>
      <use xlink:href="#DejaVuSans-63" x="561.527344"/>
      <use xlink:href="#DejaVuSans-74" x="616.507812"/>
      <use xlink:href="#DejaVuSans-65" x="655.716797"/>
      <use xlink:href="#DejaVuSans-64" x="717.240234"/>
      <use xlink:href="#DejaVuSans-20" x="780.716797"/>
      <use xlink:href="#DejaVuSans-47" x="812.503906"/>
      <use xlink:href="#DejaVuSans-46" x="889.994141"/>
      <use xlink:href="#DejaVuSans-50" x="947.513672"/>
      <use xlink:href="#DejaVuSans-20" x="1007.816406"/>
      <use xlink:href="#DejaVuSans-52" x="1039.603516"/>
      <use xlink:href="#DejaVuSans-46" x="1109.085938"/>
      <use xlink:href="#DejaVuSans-55" x="1166.605469"/>
     </g>
    </g>
   </g>
   <g id="line2d_29">
    <path d="M 92.290909 366.952024 
L 93.933898 368.898795 
L 95.576886 369.36 
L 97.219875 369.010455 
L 98.862863 369.078422 
L 102.148841 367.551591 
L 103.791829 367.442358 
L 105.434818 366.646173 
L 107.077806 366.129137 
L 108.720795 365.767456 
L 110.363784 364.369276 
L 112.006772 363.905644 
L 113.649761 363.099749 
L 118.578727 360.288825 
L 120.221715 359.810629 
L 121.864704 358.868799 
L 123.507692 357.465765 
L 125.150681 356.354018 
L 126.793669 355.009241 
L 130.079647 353.186268 
L 131.722635 351.2929 
L 133.365624 350.159306 
L 138.29459 345.787568 
L 139.937578 344.076255 
L 141.580567 342.585834 
L 143.223555 341.282323 
L 146.509533 337.942228 
L 148.152521 336.323156 
L 153.081487 330.650334 
L 154.724476 329.240017 
L 156.367464 326.955839 
L 159.653441 323.57205 
L 161.29643 321.317 
L 162.939418 319.923676 
L 164.582407 318.190516 
L 166.225396 315.770403 
L 167.868384 313.918301 
L 169.511373 311.680243 
L 171.154361 309.731045 
L 172.79735 306.796324 
L 174.440339 304.834989 
L 176.083327 302.565375 
L 177.726316 300.572484 
L 181.012293 296.115787 
L 182.655282 293.297581 
L 184.29827 290.90417 
L 185.941259 288.100529 
L 189.227236 283.507898 
L 190.870225 280.099835 
L 192.513213 277.429701 
L 197.442179 268.83915 
L 199.085167 267.322029 
L 200.728156 263.139627 
L 202.371145 260.838457 
L 204.014133 258.243572 
L 205.657122 255.029701 
L 207.30011 252.91544 
L 208.943099 250.165202 
L 212.229076 246.259523 
L 213.872065 243.6258 
L 215.515053 240.763901 
L 217.158042 236.600919 
L 218.801031 232.751071 
L 223.729996 222.704083 
L 225.372985 218.73772 
L 227.015974 216.499662 
L 228.658962 212.436203 
L 230.301951 209.943268 
L 231.944939 205.3385 
L 233.587928 202.699922 
L 236.873905 196.527057 
L 238.516894 193.995284 
L 241.802871 190.640624 
L 243.445859 188.504517 
L 245.088848 185.509111 
L 246.731837 182.756446 
L 248.374825 178.916307 
L 250.017814 176.508331 
L 251.660802 173.197365 
L 253.303791 167.847386 
L 254.94678 163.847039 
L 256.589768 158.603866 
L 258.232757 155.258916 
L 261.518734 146.765462 
L 266.4477 135.01687 
L 268.090688 130.725236 
L 269.733677 125.938414 
L 271.376665 122.739107 
L 273.019654 120.185488 
L 276.305631 111.52697 
L 277.94862 108.6942 
L 279.591608 105.574998 
L 281.234597 102.700962 
L 282.877586 101.43629 
L 286.163563 92.797191 
L 287.806551 90.787308 
L 289.44954 87.828314 
L 291.092529 85.83785 
L 292.735517 84.976125 
L 294.378506 83.264811 
L 296.021494 81.72827 
L 297.664483 81.9613 
L 299.307471 80.339801 
L 300.95046 81.16997 
L 302.593449 79.2499 
L 304.236437 78.385748 
L 305.879426 79.499922 
L 307.522414 78.502263 
L 309.165403 80.055795 
L 310.808392 79.363988 
L 312.45138 79.412536 
L 314.094369 79.82762 
L 315.737357 80.830134 
L 317.380346 80.997625 
L 319.023335 80.548557 
L 320.666323 81.483104 
L 322.309312 83.225973 
L 323.9523 84.405687 
L 325.595289 86.311192 
L 327.238278 87.5613 
L 328.881266 87.801612 
L 330.524255 88.527404 
L 332.167243 91.061604 
L 333.810232 91.136853 
L 335.45322 93.154018 
L 337.096209 94.938153 
L 338.739198 95.744049 
L 340.382186 97.193203 
L 342.025175 97.477208 
L 343.668163 99.035596 
L 345.311152 100.3828 
L 346.954141 99.538067 
L 348.597129 100.407074 
L 350.240118 100.78332 
L 351.883106 102.094114 
L 353.526095 102.375691 
L 355.169084 103.375778 
L 356.812072 104.878336 
L 358.455061 105.395371 
L 360.098049 106.397885 
L 361.741038 106.922202 
L 363.384026 106.300789 
L 365.027015 107.123676 
L 366.670004 109.415137 
L 369.955981 110.32541 
L 373.241958 113.048947 
L 376.527935 112.767369 
L 378.170924 112.779506 
L 381.456901 114.155839 
L 383.09989 113.485878 
L 384.742878 113.42762 
L 386.385867 113.663078 
L 388.028855 114.541795 
L 389.671844 114.502956 
L 391.314833 114.087872 
L 392.957821 115.100095 
L 394.60081 114.558786 
L 396.243798 114.439844 
L 397.886787 115.884144 
L 399.529775 113.869406 
L 401.172764 115.121942 
L 404.458741 115.750637 
L 406.10173 115.872007 
L 407.744718 114.718994 
L 409.387707 115.493333 
L 411.030696 114.789389 
L 412.673684 115.231175 
L 414.316673 113.655795 
L 415.959661 115.041838 
L 417.60265 112.575605 
L 419.245639 112.862037 
L 420.888627 112.728531 
L 422.531616 112.325583 
L 424.174604 112.415397 
L 425.817593 112.631435 
L 427.460582 111.866805 
L 429.10357 111.842531 
L 430.746559 111.665332 
L 432.389547 111.051201 
L 434.032536 110.988088 
L 435.675524 110.473481 
L 437.318513 110.48319 
L 438.961502 110.886138 
L 440.60449 108.628661 
L 442.247479 110.211322 
L 443.890467 108.305817 
L 445.533456 107.529051 
L 447.176445 107.400399 
L 448.819433 106.735293 
L 450.462422 107.876168 
L 452.10541 105.409935 
L 453.748399 105.397798 
L 455.391388 103.761734 
L 457.034376 102.938847 
L 458.677365 102.416957 
L 460.320353 103.050507 
L 461.963342 101.611062 
L 463.606331 103.4486 
L 465.249319 100.819731 
L 466.892308 101.047906 
L 468.535296 100.098795 
L 470.178285 99.601179 
L 471.821273 99.987135 
L 473.464262 99.045306 
L 475.107251 98.351071 
L 480.036216 98.331651 
L 483.322194 94.622592 
L 484.965182 95.525583 
L 486.608171 95.076515 
L 488.251159 95.838717 
L 489.894148 94.350724 
L 491.537137 94.343442 
L 493.180125 93.46958 
L 494.823114 92.780199 
L 496.466102 93.270533 
L 498.109091 91.729137 
L 498.109091 91.729137 
" clip-path="url(#p3d7b602598)" style="fill: none; stroke: #008000; stroke-width: 1.5; stroke-linecap: square"/>
   </g>
   <g id="line2d_30">
    <path d="M 92.290909 366.884057 
L 93.933898 368.940061 
L 95.576886 368.668192 
L 98.862863 368.413316 
L 100.505852 367.85987 
L 103.791829 367.083104 
L 107.077806 365.784447 
L 108.720795 365.709198 
L 110.363784 364.264898 
L 112.006772 363.866805 
L 113.649761 363.330351 
L 116.935738 361.653021 
L 118.578727 361.077729 
L 120.221715 360.036376 
L 121.864704 359.196498 
L 123.507692 357.783754 
L 125.150681 357.186615 
L 128.436658 354.33928 
L 130.079647 353.467846 
L 133.365624 350.421465 
L 135.008612 348.99173 
L 136.651601 347.906684 
L 138.29459 346.345869 
L 141.580567 343.816524 
L 143.223555 342.954798 
L 144.866544 341.551764 
L 146.509533 339.990949 
L 148.152521 338.141274 
L 149.79551 337.03681 
L 151.438498 335.002653 
L 154.724476 330.111452 
L 156.367464 327.601526 
L 158.010453 326.429094 
L 159.653441 324.84886 
L 161.29643 322.253975 
L 164.582407 318.600746 
L 166.225396 316.35055 
L 169.511373 312.406034 
L 171.154361 311.396238 
L 174.440339 308.891166 
L 176.083327 307.505124 
L 177.726316 306.517174 
L 179.369304 304.813143 
L 181.012293 302.378466 
L 182.655282 301.023979 
L 185.941259 297.091599 
L 189.227236 290.923589 
L 190.870225 287.056749 
L 192.513213 283.723936 
L 194.156202 278.898275 
L 195.79919 274.468279 
L 197.442179 271.198578 
L 199.085167 268.814876 
L 200.728156 265.258743 
L 204.014133 260.954972 
L 205.657122 259.998578 
L 208.943099 256.787135 
L 210.586088 256.597798 
L 212.229076 254.566068 
L 213.872065 253.658223 
L 215.515053 250.582713 
L 217.158042 248.502436 
L 218.801031 245.307984 
L 220.444019 242.506771 
L 222.087008 239.244352 
L 223.729996 236.610629 
L 225.372985 232.202479 
L 227.015974 228.481283 
L 228.658962 222.898275 
L 230.301951 218.055622 
L 231.944939 214.120815 
L 233.587928 209.593723 
L 235.230916 208.299922 
L 238.516894 204.299575 
L 240.159882 204.102956 
L 241.802871 203.668453 
L 243.445859 201.782367 
L 245.088848 200.745869 
L 246.731837 198.786961 
L 250.017814 195.631348 
L 251.660802 192.64808 
L 253.303791 190.480416 
L 254.94678 187.004387 
L 256.589768 184.56 
L 258.232757 179.984361 
L 259.875745 176.64912 
L 261.518734 172.068626 
L 263.161722 167.959046 
L 264.804711 162.344482 
L 266.4477 157.438717 
L 268.090688 154.241838 
L 269.733677 149.010802 
L 271.376665 146.22658 
L 273.019654 145.211929 
L 274.662643 142.98358 
L 276.305631 141.53928 
L 277.94862 139.296368 
L 279.591608 137.757399 
L 281.234597 138.247733 
L 282.877586 137.106857 
L 286.163563 133.135639 
L 287.806551 130.778639 
L 289.44954 129.115873 
L 291.092529 127.072007 
L 294.378506 121.722029 
L 296.021494 118.486311 
L 297.664483 116.029788 
L 299.307471 113.917954 
L 300.95046 113.864551 
L 302.593449 113.209155 
L 305.879426 115.430221 
L 307.522414 116.580806 
L 309.165403 120.166068 
L 310.808392 121.518127 
L 312.45138 123.955232 
L 314.094369 126.098622 
L 317.380346 129.501829 
L 319.023335 130.972831 
L 320.666323 132.215657 
L 322.309312 132.973004 
L 323.9523 133.261864 
L 325.595289 134.601786 
L 327.238278 134.133299 
L 328.881266 133.266719 
L 330.524255 131.244699 
L 332.167243 130.142661 
L 333.810232 130.317434 
L 335.45322 129.618344 
L 337.096209 130.669406 
L 338.739198 131.33694 
L 340.382186 133.487612 
L 342.025175 134.482844 
L 343.668163 136.92723 
L 345.311152 140.189649 
L 346.954141 141.706771 
L 348.597129 144.444872 
L 350.240118 147.809241 
L 351.883106 150.515787 
L 353.526095 151.77075 
L 355.169084 154.035509 
L 356.812072 155.130264 
L 358.455061 155.984707 
L 360.098049 157.351331 
L 361.741038 157.807681 
L 363.384026 157.079463 
L 365.027015 157.4727 
L 366.670004 158.327143 
L 368.312992 157.327057 
L 369.955981 155.904603 
L 371.598969 157.064898 
L 373.241958 157.212969 
L 374.884947 157.475128 
L 378.170924 159.715613 
L 379.813912 161.589562 
L 381.456901 162.694027 
L 383.09989 163.526623 
L 384.742878 165.536506 
L 386.385867 167.026927 
L 388.028855 166.859436 
L 389.671844 167.556099 
L 391.314833 165.813229 
L 392.957821 166.575431 
L 394.60081 165.335033 
L 396.243798 164.441751 
L 397.886787 164.478162 
L 399.529775 163.121248 
L 401.172764 161.28371 
L 402.815753 160.633169 
L 404.458741 159.56026 
L 406.10173 157.880503 
L 407.744718 156.780893 
L 409.387707 157.696021 
L 411.030696 157.720295 
L 414.316673 160.065158 
L 415.959661 161.718214 
L 417.60265 162.941621 
L 420.888627 166.228314 
L 422.531616 166.623979 
L 425.817593 166.257443 
L 427.460582 165.172397 
L 429.10357 166.364248 
L 430.746559 164.898101 
L 432.389547 162.240104 
L 434.032536 160.470533 
L 435.675524 159.705904 
L 437.318513 158.312579 
L 438.961502 157.074608 
L 440.60449 155.025886 
L 442.247479 156.977512 
L 443.890467 155.241925 
L 445.533456 156.962948 
L 447.176445 157.358613 
L 448.819433 160.145262 
L 452.10541 162.21583 
L 453.748399 163.927143 
L 455.391388 164.097061 
L 457.034376 165.422419 
L 458.677365 165.713706 
L 460.320353 164.655362 
L 461.963342 164.19173 
L 463.606331 164.123762 
L 465.249319 162.759567 
L 466.892308 162.842098 
L 468.535296 162.27166 
L 470.178285 161.58228 
L 471.821273 159.921942 
L 473.464262 157.919341 
L 475.107251 155.695847 
L 476.750239 154.292813 
L 478.393228 155.132692 
L 480.036216 154.778292 
L 481.679205 154.596238 
L 483.322194 154.904517 
L 484.965182 156.042965 
L 486.608171 158.533472 
L 488.251159 160.475388 
L 493.180125 164.274261 
L 494.823114 164.155319 
L 498.109091 163.456229 
L 498.109091 163.456229 
" clip-path="url(#p3d7b602598)" style="fill: none; stroke: #008000; stroke-width: 1.5; stroke-linecap: square"/>
   </g>
   <g id="line2d_31">
    <path d="M 92.290909 367.202046 
L 93.933898 368.891513 
L 95.576886 368.075908 
L 97.219875 368.31622 
L 100.505852 367.896281 
L 102.148841 367.864725 
L 103.791829 367.672961 
L 105.434818 367.051547 
L 107.077806 367.185054 
L 108.720795 366.573351 
L 110.363784 365.842705 
L 112.006772 366.06117 
L 115.292749 364.349857 
L 118.578727 363.485704 
L 120.221715 362.347256 
L 121.864704 361.764681 
L 125.150681 359.61401 
L 126.793669 358.609068 
L 128.436658 358.016784 
L 131.722635 355.089345 
L 133.365624 354.193637 
L 135.008612 352.404647 
L 136.651601 350.841404 
L 138.29459 349.705384 
L 139.937578 347.491599 
L 141.580567 346.620165 
L 143.223555 345.117607 
L 144.866544 344.58358 
L 146.509533 342.22658 
L 149.79551 338.752978 
L 151.438498 336.364421 
L 153.081487 334.517174 
L 154.724476 333.070446 
L 156.367464 330.473134 
L 159.653441 326.863598 
L 162.939418 322.880243 
L 169.511373 313.94743 
L 171.154361 312.537113 
L 172.79735 310.306337 
L 174.440339 309.745609 
L 176.083327 308.806207 
L 179.369304 305.276775 
L 181.012293 303.184361 
L 184.29827 298.1815 
L 187.584247 289.991469 
L 189.227236 287.26065 
L 190.870225 283.721508 
L 195.79919 275.507204 
L 197.442179 272.985141 
L 200.728156 266.999185 
L 202.371145 265.003866 
L 204.014133 261.976905 
L 205.657122 261.188002 
L 207.30011 260.93798 
L 208.943099 260.219471 
L 210.586088 260.168496 
L 212.229076 257.964421 
L 213.872065 256.680329 
L 215.515053 254.199532 
L 217.158042 249.893333 
L 218.801031 244.599185 
L 220.444019 239.809935 
L 222.087008 232.954972 
L 225.372985 223.23811 
L 227.015974 221.213663 
L 228.658962 218.179419 
L 230.301951 214.829614 
L 231.944939 211.164248 
L 236.873905 204.581153 
L 238.516894 203.078596 
L 241.802871 204.365115 
L 245.088848 202.760607 
L 246.731837 200.524976 
L 248.374825 199.835596 
L 250.017814 198.226233 
L 251.660802 194.667672 
L 253.303791 191.611582 
L 254.94678 187.424326 
L 258.232757 172.774998 
L 259.875745 164.024239 
L 261.518734 157.819818 
L 264.804711 147.901482 
L 266.4477 143.908418 
L 268.090688 140.427534 
L 269.733677 137.247646 
L 271.376665 138.191903 
L 273.019654 136.30339 
L 274.662643 135.20378 
L 276.305631 135.810629 
L 277.94862 134.138153 
L 279.591608 133.417217 
L 281.234597 135.01687 
L 282.877586 132.502089 
L 284.520574 130.887872 
L 286.163563 127.22736 
L 287.806551 122.719688 
L 289.44954 119.017911 
L 291.092529 110.053541 
L 292.735517 101.997018 
L 294.378506 96.093593 
L 296.021494 92.372397 
L 297.664483 90.675648 
L 299.307471 90.355232 
L 300.95046 90.673221 
L 302.593449 90.185314 
L 304.236437 92.836029 
L 305.879426 99.1157 
L 309.165403 106.191556 
L 310.808392 109.381153 
L 314.094369 116.374478 
L 315.737357 118.340668 
L 317.380346 120.967109 
L 319.023335 121.185574 
L 320.666323 121.629788 
L 322.309312 120.996238 
L 323.9523 119.253368 
L 325.595289 113.82814 
L 327.238278 111.597365 
L 328.881266 105.11622 
L 330.524255 100.309978 
L 332.167243 99.030741 
L 335.45322 100.83915 
L 337.096209 102.836896 
L 338.739198 104.24964 
L 340.382186 109.274348 
L 343.668163 117.833342 
L 345.311152 124.064465 
L 348.597129 131.341795 
L 351.883106 138.755059 
L 353.526095 141.31596 
L 355.169084 143.340407 
L 356.812072 143.879289 
L 358.455061 143.995804 
L 360.098049 145.049293 
L 361.741038 143.765202 
L 365.027015 138.293853 
L 366.670004 134.164855 
L 368.312992 129.14743 
L 369.955981 126.275821 
L 371.598969 125.33642 
L 373.241958 125.533039 
L 374.884947 126.970056 
L 376.527935 130.929137 
L 378.170924 135.37127 
L 379.813912 139.301222 
L 381.456901 142.590342 
L 383.09989 145.340581 
L 384.742878 149.224413 
L 386.385867 149.993897 
L 388.028855 151.091079 
L 389.671844 151.428487 
L 391.314833 150.67114 
L 392.957821 148.857876 
L 394.60081 146.301829 
L 396.243798 140.391123 
L 397.886787 140.090126 
L 399.529775 133.538587 
L 401.172764 130.790776 
L 402.815753 128.96052 
L 404.458741 129.336766 
L 406.10173 128.443485 
L 407.744718 127.86091 
L 409.387707 130.989822 
L 411.030696 131.902523 
L 412.673684 137.250074 
L 414.316673 141.247993 
L 415.959661 146.209588 
L 417.60265 149.947776 
L 419.245639 153.358266 
L 422.531616 156.601266 
L 424.174604 156.375518 
L 425.817593 156.540581 
L 427.460582 155.280763 
L 429.10357 155.868192 
L 430.746559 153.977252 
L 432.389547 151.030394 
L 434.032536 145.260477 
L 437.318513 135.473221 
L 438.961502 132.463251 
L 440.60449 127.41427 
L 442.247479 128.640104 
L 443.890467 131.817564 
L 445.533456 134.436723 
L 447.176445 137.771964 
L 448.819433 142.954452 
L 450.462422 146.901396 
L 452.10541 147.952458 
L 453.748399 152.457703 
L 455.391388 153.319428 
L 457.034376 153.350984 
L 458.677365 154.020945 
L 460.320353 152.51596 
L 461.963342 153.266025 
L 463.606331 154.766155 
L 465.249319 151.018257 
L 466.892308 151.171183 
L 468.535296 149.156446 
L 470.178285 146.797018 
L 471.821273 140.568322 
L 473.464262 136.036376 
L 475.107251 128.797885 
L 476.750239 126.790429 
L 478.393228 124.552371 
L 480.036216 124.200399 
L 481.679205 127.761387 
L 483.322194 130.395111 
L 484.965182 135.174651 
L 486.608171 137.670013 
L 488.251159 140.546476 
L 489.894148 144.619645 
L 491.537137 145.988695 
L 493.180125 147.954885 
L 494.823114 147.964595 
L 496.466102 147.20482 
L 498.109091 145.58332 
L 498.109091 145.58332 
" clip-path="url(#p3d7b602598)" style="fill: none; stroke: #008000; stroke-width: 1.5; stroke-linecap: square"/>
   </g>
   <g id="line2d_32">
    <path d="M 92.290909 366.990863 
L 93.933898 368.495847 
L 95.576886 368.476428 
L 97.219875 368.641491 
L 98.862863 368.925496 
L 100.505852 368.398752 
L 102.148841 368.03707 
L 103.791829 367.503043 
L 105.434818 367.345262 
L 107.077806 366.393723 
L 108.720795 366.138847 
L 110.363784 365.085358 
L 112.006772 364.684837 
L 113.649761 363.597365 
L 115.292749 362.900702 
L 118.578727 361.053455 
L 120.221715 360.514573 
L 123.507692 358.184274 
L 125.150681 357.422072 
L 126.793669 355.485011 
L 128.436658 354.538327 
L 130.079647 354.0043 
L 131.722635 352.198318 
L 135.008612 349.518474 
L 138.29459 346.107984 
L 139.937578 345.073914 
L 141.580567 343.289779 
L 143.223555 342.00326 
L 144.866544 340.425453 
L 146.509533 338.505384 
L 148.152521 337.369363 
L 149.79551 335.036636 
L 151.438498 333.305904 
L 153.081487 331.786355 
L 154.724476 329.897841 
L 156.367464 327.73746 
L 159.653441 325.246953 
L 161.29643 322.37049 
L 162.939418 320.821812 
L 164.582407 319.120208 
L 166.225396 316.600572 
L 167.868384 314.442618 
L 169.511373 312.920642 
L 171.154361 310.607334 
L 172.79735 308.099835 
L 174.440339 307.002653 
L 177.726316 303.589736 
L 179.369304 300.93902 
L 181.012293 298.790776 
L 182.655282 296.365808 
L 185.941259 288.887005 
L 187.584247 287.161127 
L 189.227236 284.262818 
L 190.870225 282.422852 
L 194.156202 276.519428 
L 195.79919 274.497408 
L 197.442179 270.599012 
L 199.085167 268.729918 
L 200.728156 266.118041 
L 202.371145 264.096021 
L 204.014133 260.272874 
L 205.657122 259.117434 
L 207.30011 258.175605 
L 208.943099 255.27244 
L 210.586088 253.488305 
L 212.229076 250.577859 
L 213.872065 248.383494 
L 215.515053 243.684057 
L 217.158042 238.613229 
L 218.801031 234.622592 
L 220.444019 231.277642 
L 222.087008 228.359913 
L 223.729996 225.956792 
L 225.372985 222.500182 
L 227.015974 219.980546 
L 228.658962 216.237503 
L 230.301951 213.822245 
L 233.587928 206.940581 
L 235.230916 204.372397 
L 236.873905 201.168236 
L 238.516894 199.384101 
L 240.159882 199.420511 
L 241.802871 197.14847 
L 243.445859 196.456662 
L 245.088848 194.844872 
L 246.731837 193.053455 
L 248.374825 189.509458 
L 250.017814 187.710759 
L 251.660802 182.152024 
L 253.303791 175.042185 
L 254.94678 168.847473 
L 256.589768 163.965982 
L 258.232757 159.963208 
L 259.875745 157.295501 
L 261.518734 152.802393 
L 263.161722 149.219558 
L 264.804711 146.464465 
L 266.4477 142.345176 
L 268.090688 140.267326 
L 269.733677 135.208635 
L 271.376665 134.385748 
L 273.019654 129.783407 
L 274.662643 127.273481 
L 276.305631 123.753758 
L 277.94862 122.731825 
L 279.591608 121.438023 
L 281.234597 121.042358 
L 282.877586 118.653801 
L 286.163563 108.143182 
L 287.806551 103.305384 
L 289.44954 96.605774 
L 291.092529 93.80456 
L 292.735517 92.920988 
L 294.378506 91.318908 
L 296.021494 89.911019 
L 297.664483 88.879376 
L 299.307471 87.621985 
L 300.95046 88.580806 
L 302.593449 87.966675 
L 304.236437 88.046779 
L 305.879426 92.073827 
L 307.522414 92.998665 
L 309.165403 96.690733 
L 310.808392 98.115613 
L 312.45138 100.725063 
L 314.094369 105.412362 
L 315.737357 106.206121 
L 317.380346 107.478075 
L 320.666323 103.735033 
L 322.309312 99.011322 
L 323.9523 96.098448 
L 325.595289 92.384534 
L 327.238278 92.636983 
L 328.881266 93.879809 
L 330.524255 93.476862 
L 332.167243 96.023199 
L 333.810232 97.567022 
L 335.45322 96.695587 
L 338.739198 100.596411 
L 340.382186 102.319861 
L 342.025175 105.235163 
L 343.668163 111.000225 
L 345.311152 114.726277 
L 348.597129 119.476688 
L 350.240118 123.47218 
L 351.883106 126.368062 
L 353.526095 126.404473 
L 355.169084 127.217651 
L 356.812072 126.324369 
L 358.455061 124.557226 
L 360.098049 121.391903 
L 361.741038 117.175518 
L 363.384026 114.019905 
L 365.027015 113.044092 
L 366.670004 113.422765 
L 368.312992 112.483364 
L 369.955981 114.529658 
L 371.598969 116.015223 
L 373.241958 116.105037 
L 374.884947 118.127057 
L 376.527935 118.673221 
L 378.170924 123.241578 
L 379.813912 125.989389 
L 381.456901 129.142575 
L 383.09989 129.899922 
L 384.742878 134.463424 
L 386.385867 136.145609 
L 388.028855 135.189215 
L 389.671844 132.703563 
L 392.957821 126.496714 
L 394.60081 122.729397 
L 396.243798 120.811756 
L 397.886787 123.163901 
L 399.529775 120.549597 
L 401.172764 121.331218 
L 402.815753 121.306944 
L 404.458741 123.066805 
L 406.10173 122.173524 
L 407.744718 122.275475 
L 409.387707 125.195631 
L 411.030696 123.246433 
L 412.673684 125.348557 
L 414.316673 130.368409 
L 415.959661 136.254842 
L 417.60265 137.944309 
L 419.245639 142.330611 
L 420.888627 142.381586 
L 422.531616 143.063684 
L 424.174604 142.447126 
L 425.817593 141.607248 
L 427.460582 138.30599 
L 429.10357 134.577512 
L 430.746559 129.647473 
L 432.389547 124.304777 
L 434.032536 120.335986 
L 435.675524 120.942835 
L 437.318513 120.217044 
L 438.961502 120.590863 
L 440.60449 119.612622 
L 442.247479 120.318994 
L 443.890467 122.217217 
L 445.533456 123.865418 
L 447.176445 127.164248 
L 448.819433 131.089345 
L 450.462422 135.400399 
L 452.10541 137.759827 
L 453.748399 142.464118 
L 457.034376 143.03941 
L 458.677365 142.539367 
L 460.320353 142.507811 
L 461.963342 140.247906 
L 463.606331 140.386268 
L 465.249319 135.575171 
L 466.892308 127.741968 
L 468.535296 123.265852 
L 470.178285 119.962167 
L 471.821273 113.459176 
L 473.464262 111.141014 
L 475.107251 110.133645 
L 476.750239 110.255015 
L 478.393228 110.505037 
L 480.036216 109.000052 
L 481.679205 111.883797 
L 483.322194 114.449554 
L 484.965182 117.886745 
L 486.608171 122.21479 
L 489.894148 129.674174 
L 491.537137 129.084317 
L 493.180125 130.538327 
L 494.823114 127.907031 
L 496.466102 127.530785 
L 498.109091 123.059523 
L 498.109091 123.059523 
" clip-path="url(#p3d7b602598)" style="fill: none; stroke: #008000; stroke-width: 1.5; stroke-linecap: square"/>
   </g>
   <g id="line2d_33">
    <path d="M 92.290909 366.959306 
L 93.933898 368.231261 
L 95.576886 367.872007 
L 97.219875 367.908418 
L 98.862863 369.160954 
L 100.505852 368.505557 
L 102.148841 368.49342 
L 103.791829 367.588002 
L 105.434818 367.585574 
L 107.077806 367.155925 
L 108.720795 366.488392 
L 110.363784 365.456749 
L 112.006772 364.98098 
L 115.292749 363.679896 
L 118.578727 361.827794 
L 120.221715 361.000052 
L 123.507692 358.941621 
L 125.150681 358.10417 
L 128.436658 355.239844 
L 130.079647 354.159653 
L 131.722635 353.278509 
L 133.365624 351.817217 
L 135.008612 349.868019 
L 136.651601 349.018431 
L 138.29459 347.144482 
L 139.937578 345.855535 
L 141.580567 343.996151 
L 143.223555 342.697495 
L 146.509533 339.301569 
L 148.152521 337.917954 
L 151.438498 333.917607 
L 153.081487 332.563121 
L 154.724476 331.368843 
L 156.367464 328.703563 
L 158.010453 327.375778 
L 159.653441 325.574651 
L 161.29643 323.501656 
L 162.939418 321.834036 
L 167.868384 315.729137 
L 169.511373 313.338153 
L 171.154361 311.478769 
L 172.79735 308.779506 
L 176.083327 304.456316 
L 177.726316 302.5144 
L 179.369304 299.419471 
L 181.012293 297.293073 
L 182.655282 295.613316 
L 185.941259 289.678336 
L 189.227236 285.920728 
L 190.870225 283.464205 
L 192.513213 280.041578 
L 194.156202 277.903043 
L 195.79919 275.310585 
L 197.442179 272.49238 
L 199.085167 270.69368 
L 200.728156 267.547776 
L 202.371145 264.656749 
L 204.014133 261.496281 
L 205.657122 259.483971 
L 207.30011 256.801699 
L 208.943099 252.976125 
L 210.586088 251.320642 
L 212.229076 247.6043 
L 213.872065 244.286051 
L 215.515053 241.691166 
L 217.158042 238.256402 
L 218.801031 235.117781 
L 220.444019 232.260737 
L 222.087008 230.775171 
L 223.729996 227.041838 
L 227.015974 220.730611 
L 228.658962 218.143008 
L 230.301951 214.426667 
L 231.944939 211.356012 
L 233.587928 208.035336 
L 235.230916 206.234209 
L 236.873905 202.911105 
L 238.516894 199.041838 
L 240.159882 196.631435 
L 243.445859 190.181847 
L 245.088848 187.924369 
L 248.374825 179.850854 
L 250.017814 177.760867 
L 251.660802 173.935293 
L 253.303791 171.532172 
L 256.589768 164.143182 
L 258.232757 161.531305 
L 261.518734 155.783234 
L 263.161722 151.991643 
L 264.804711 147.656316 
L 266.4477 144.532258 
L 268.090688 141.058656 
L 269.733677 136.919948 
L 271.376665 133.320121 
L 273.019654 129.365895 
L 274.662643 124.775691 
L 276.305631 120.862731 
L 277.94862 118.486311 
L 279.591608 113.364508 
L 281.234597 112.614443 
L 282.877586 107.32515 
L 284.520574 104.290906 
L 286.163563 100.693507 
L 287.806551 100.254148 
L 289.44954 97.321855 
L 291.092529 95.30469 
L 292.735517 92.996238 
L 294.378506 91.72671 
L 297.664483 89.935293 
L 299.307471 88.520121 
L 300.95046 88.711886 
L 302.593449 86.886485 
L 304.236437 86.495674 
L 305.879426 88.755579 
L 307.522414 86.566068 
L 309.165403 88.248253 
L 310.808392 87.469059 
L 312.45138 88.051634 
L 314.094369 91.059176 
L 315.737357 88.84782 
L 317.380346 88.881803 
L 319.023335 86.685011 
L 320.666323 87.779766 
L 322.309312 87.699662 
L 323.9523 89.612449 
L 325.595289 88.964335 
L 327.238278 91.513099 
L 328.881266 91.348036 
L 330.524255 92.447646 
L 332.167243 94.554625 
L 333.810232 95.125063 
L 335.45322 94.841058 
L 337.096209 96.040191 
L 338.739198 97.564595 
L 340.382186 99.496801 
L 342.025175 98.579246 
L 343.668163 102.446086 
L 345.311152 104.453541 
L 346.954141 106.655189 
L 348.597129 104.885618 
L 350.240118 108.808288 
L 351.883106 108.808288 
L 353.526095 106.703736 
L 355.169084 107.157659 
L 356.812072 105.274001 
L 358.455061 105.642965 
L 360.098049 106.778986 
L 363.384026 106.274088 
L 365.027015 107.351851 
L 366.670004 108.155319 
L 368.312992 109.512232 
L 369.955981 108.752458 
L 371.598969 111.597365 
L 373.241958 112.50521 
L 374.884947 112.820772 
L 376.527935 113.612102 
L 378.170924 116.20456 
L 379.813912 115.641404 
L 381.456901 117.296888 
L 383.09989 115.893853 
L 384.742878 119.263078 
L 388.028855 116.639064 
L 389.671844 115.289432 
L 391.314833 115.299142 
L 392.957821 115.976385 
L 394.60081 114.447126 
L 396.243798 115.855015 
L 397.886787 117.809068 
L 399.529775 115.818604 
L 401.172764 115.90599 
L 402.815753 117.685271 
L 404.458741 117.299315 
L 406.10173 116.386615 
L 407.744718 117.29446 
L 409.387707 119.323762 
L 411.030696 117.449814 
L 412.673684 119.44756 
L 414.316673 121.906511 
L 415.959661 129.574651 
L 417.60265 129.914486 
L 419.245639 132.521508 
L 422.531616 130.256749 
L 424.174604 125.732085 
L 425.817593 119.750984 
L 427.460582 116.233689 
L 429.10357 115.97153 
L 430.746559 115.299142 
L 432.389547 115.750637 
L 434.032536 113.442185 
L 435.675524 114.371877 
L 437.318513 115.864725 
L 438.961502 115.262731 
L 440.60449 115.952111 
L 442.247479 113.864551 
L 443.890467 115.563728 
L 445.533456 114.493247 
L 447.176445 118.335813 
L 448.819433 123.532865 
L 452.10541 129.414443 
L 453.748399 133.22788 
L 455.391388 133.8056 
L 457.034376 132.553065 
L 458.677365 129.487265 
L 460.320353 123.052241 
L 461.963342 119.348036 
L 465.249319 107.388262 
L 466.892308 106.883364 
L 468.535296 105.897841 
L 470.178285 105.429354 
L 473.464262 105.189042 
L 475.107251 102.555319 
L 476.750239 104.281196 
L 480.036216 102.494634 
L 481.679205 103.531131 
L 484.965182 103.582107 
L 486.608171 109.711279 
L 488.251159 112.823199 
L 489.894148 115.638977 
L 493.180125 111.153151 
L 494.823114 104.968149 
L 496.466102 100.700789 
L 498.109091 97.537893 
L 498.109091 97.537893 
" clip-path="url(#p3d7b602598)" style="fill: none; stroke: #008000; stroke-width: 1.5; stroke-linecap: square"/>
   </g>
   <g id="line2d_34">
    <path d="M 92.290909 366.740841 
L 93.933898 368.296801 
L 95.576886 367.789476 
L 97.219875 367.97153 
L 98.862863 368.876948 
L 100.505852 368.554105 
L 102.148841 368.527404 
L 103.791829 368.379332 
L 108.720795 367.371964 
L 110.363784 366.493247 
L 112.006772 365.90339 
L 113.649761 365.490733 
L 116.935738 363.876515 
L 118.578727 362.611842 
L 120.221715 362.051114 
L 125.150681 359.332432 
L 126.793669 358.210975 
L 128.436658 356.953585 
L 131.722635 354.691253 
L 133.365624 353.41687 
L 135.008612 351.433689 
L 136.651601 349.952978 
L 138.29459 348.829094 
L 139.937578 346.884751 
L 141.580567 345.333645 
L 143.223555 343.954885 
L 144.866544 342.044525 
L 146.509533 340.308938 
L 148.152521 339.345262 
L 149.79551 336.645999 
L 151.438498 335.323069 
L 153.081487 333.44912 
L 154.724476 331.800919 
L 156.367464 329.46091 
L 158.010453 327.633082 
L 159.653441 326.448513 
L 161.29643 324.263858 
L 162.939418 322.703043 
L 164.582407 320.464985 
L 167.868384 316.479202 
L 172.79735 309.531998 
L 174.440339 307.354625 
L 176.083327 304.701482 
L 177.726316 302.276515 
L 179.369304 300.25935 
L 181.012293 297.215397 
L 184.29827 293.43837 
L 185.941259 290.384707 
L 189.227236 286.479029 
L 190.870225 283.238457 
L 192.513213 281.206727 
L 194.156202 278.352111 
L 195.79919 276.427187 
L 197.442179 273.196324 
L 199.085167 271.373351 
L 200.728156 267.91674 
L 202.371145 266.19329 
L 204.014133 261.921075 
L 205.657122 259.173264 
L 207.30011 256.697321 
L 208.943099 252.847473 
L 210.586088 250.920121 
L 212.229076 247.363988 
L 213.872065 245.46091 
L 215.515053 242.732518 
L 217.158042 240.506597 
L 218.801031 235.484317 
L 220.444019 233.97205 
L 222.087008 231.168409 
L 223.729996 227.651114 
L 225.372985 224.796498 
L 227.015974 221.609328 
L 228.658962 218.730438 
L 230.301951 216.451114 
L 231.944939 212.547863 
L 233.587928 209.246606 
L 235.230916 206.353151 
L 236.873905 204.107811 
L 238.516894 199.40352 
L 240.159882 196.034296 
L 241.802871 193.740407 
L 243.445859 190.237677 
L 245.088848 187.130611 
L 246.731837 184.397365 
L 248.374825 180.892206 
L 250.017814 178.527924 
L 251.660802 174.168322 
L 253.303791 171.755492 
L 254.94678 168.488218 
L 256.589768 164.956359 
L 258.232757 162.655189 
L 261.518734 156.763901 
L 263.161722 152.428574 
L 264.804711 149.188002 
L 266.4477 145.41583 
L 268.090688 142.209241 
L 269.733677 137.485531 
L 271.376665 133.948817 
L 273.019654 129.931478 
L 274.662643 125.164075 
L 276.305631 122.156532 
L 277.94862 118.275128 
L 279.591608 113.973784 
L 281.234597 111.009935 
L 282.877586 107.71596 
L 284.520574 105.754625 
L 286.163563 100.943528 
L 287.806551 100.113359 
L 289.44954 96.234382 
L 291.092529 94.26091 
L 292.735517 91.984014 
L 294.378506 90.401352 
L 296.021494 89.469233 
L 297.664483 87.86958 
L 299.307471 86.573351 
L 300.95046 87.823459 
L 302.593449 85.510152 
L 304.236437 85.849987 
L 305.879426 84.354712 
L 307.522414 84.660564 
L 309.165403 84.575605 
L 310.808392 83.177425 
L 312.45138 84.252761 
L 314.094369 83.211409 
L 315.737357 82.585141 
L 317.380346 82.861864 
L 319.023335 83.633775 
L 320.666323 85.160607 
L 322.309312 85.354798 
L 323.9523 86.051461 
L 325.595289 86.01505 
L 327.238278 88.442445 
L 328.881266 89.556619 
L 330.524255 88.0929 
L 332.167243 89.634296 
L 333.810232 90.364941 
L 335.45322 90.141621 
L 337.096209 93.127317 
L 338.739198 92.561734 
L 340.382186 93.527837 
L 342.025175 93.620078 
L 343.668163 94.377425 
L 345.311152 95.620251 
L 348.597129 95.231868 
L 350.240118 97.013576 
L 351.883106 96.496541 
L 353.526095 96.894634 
L 355.169084 97.928704 
L 356.812072 98.785574 
L 358.455061 99.482237 
L 360.098049 100.822159 
L 361.741038 101.242098 
L 363.384026 101.064898 
L 365.027015 101.967889 
L 366.670004 102.057703 
L 368.312992 102.999532 
L 369.955981 103.358786 
L 371.598969 103.516567 
L 373.241958 104.922029 
L 374.884947 105.710932 
L 376.527935 106.227967 
L 378.170924 106.356619 
L 379.813912 106.155145 
L 381.456901 106.805687 
L 384.742878 106.582367 
L 386.385867 107.587308 
L 388.028855 108.784014 
L 389.671844 108.684491 
L 391.314833 108.041231 
L 392.957821 108.145609 
L 394.60081 107.30573 
L 396.243798 107.266892 
L 397.886787 109.856922 
L 399.529775 108.252414 
L 401.172764 108.919948 
L 402.815753 110.208895 
L 404.458741 109.288912 
L 406.10173 108.919948 
L 407.744718 109.769536 
L 409.387707 110.238023 
L 411.030696 108.791296 
L 412.673684 110.951678 
L 414.316673 109.415137 
L 415.959661 112.541621 
L 417.60265 108.223286 
L 419.245639 110.352111 
L 420.888627 108.52671 
L 422.531616 107.157659 
L 424.174604 106.579939 
L 427.460582 107.30573 
L 429.10357 106.820251 
L 430.746559 108.007248 
L 432.389547 107.050854 
L 434.032536 105.176905 
L 435.675524 106.565375 
L 437.318513 105.919688 
L 438.961502 105.987655 
L 440.60449 105.868713 
L 442.247479 104.764248 
L 443.890467 103.487438 
L 445.533456 103.079636 
L 448.819433 102.599012 
L 450.462422 105.446346 
L 452.10541 103.254408 
L 453.748399 103.419471 
L 455.391388 102.285878 
L 457.034376 100.916827 
L 458.677365 98.169016 
L 460.320353 99.576905 
L 461.963342 99.161821 
L 463.606331 99.118127 
L 465.249319 96.710152 
L 466.892308 96.948036 
L 468.535296 96.375171 
L 470.178285 96.952891 
L 471.821273 94.675995 
L 473.464262 94.457529 
L 475.107251 94.690559 
L 476.750239 95.122635 
L 478.393228 93.904083 
L 480.036216 93.714746 
L 481.679205 92.396671 
L 483.322194 90.634382 
L 484.965182 91.772831 
L 486.608171 91.979159 
L 488.251159 91.030048 
L 489.894148 90.68293 
L 491.537137 89.088132 
L 493.180125 89.364855 
L 494.823114 88.410889 
L 496.466102 88.879376 
L 498.109091 86.905904 
L 498.109091 86.905904 
" clip-path="url(#p3d7b602598)" style="fill: none; stroke: #008000; stroke-width: 1.5; stroke-linecap: square"/>
   </g>
   <g id="line2d_35">
    <path d="M 92.290909 366.177685 
L 93.933898 368.415743 
L 95.576886 368.367195 
L 98.862863 368.634209 
L 100.505852 367.864725 
L 102.148841 367.634122 
L 103.791829 367.719081 
L 107.077806 366.835509 
L 108.720795 366.544222 
L 110.363784 366.133992 
L 112.006772 365.102349 
L 113.649761 364.687265 
L 115.292749 363.454148 
L 116.935738 362.830308 
L 118.578727 361.432128 
L 120.221715 361.298622 
L 121.864704 360.383494 
L 125.150681 358.907638 
L 126.793669 357.511886 
L 130.079647 355.436463 
L 131.722635 354.118388 
L 133.365624 352.996931 
L 135.008612 351.334166 
L 136.651601 350.652068 
L 141.580567 345.991469 
L 143.223555 344.942835 
L 144.866544 342.826147 
L 146.509533 341.003173 
L 148.152521 340.884231 
L 149.79551 338.231088 
L 151.438498 335.915353 
L 153.081487 334.665245 
L 154.724476 333.097148 
L 158.010453 328.83707 
L 159.653441 327.890386 
L 161.29643 325.70573 
L 162.939418 324.860997 
L 164.582407 322.164161 
L 167.868384 318.486658 
L 171.154361 314.05909 
L 172.79735 311.541881 
L 174.440339 308.79407 
L 176.083327 307.29394 
L 177.726316 304.915093 
L 179.369304 301.9828 
L 184.29827 295.625453 
L 185.941259 292.244092 
L 187.584247 290.518214 
L 190.870225 285.48137 
L 192.513213 282.901049 
L 194.156202 280.565895 
L 195.79919 277.74769 
L 197.442179 274.475561 
L 199.085167 272.698708 
L 200.728156 269.683884 
L 202.371145 267.853628 
L 204.014133 264.41401 
L 205.657122 261.58124 
L 207.30011 258.391643 
L 208.943099 254.879202 
L 210.586088 252.332865 
L 213.872065 246.742575 
L 215.515053 242.783494 
L 217.158042 241.458136 
L 218.801031 237.246606 
L 220.444019 235.006121 
L 222.087008 231.588349 
L 223.729996 228.806554 
L 225.372985 225.180026 
L 230.301951 217.560433 
L 231.944939 212.586701 
L 233.587928 210.219991 
L 235.230916 207.37023 
L 236.873905 204.08111 
L 238.516894 200.510412 
L 240.159882 197.301396 
L 241.802871 195.789129 
L 243.445859 191.713533 
L 248.374825 181.55003 
L 250.017814 179.195457 
L 253.303791 172.26039 
L 254.94678 169.534426 
L 256.589768 166.160347 
L 258.232757 163.143095 
L 259.875745 160.458396 
L 261.518734 157.246953 
L 264.804711 150.44782 
L 266.4477 147.362601 
L 268.090688 143.811322 
L 269.733677 138.541448 
L 271.376665 134.878509 
L 273.019654 130.081977 
L 276.305631 123.639671 
L 277.94862 118.923242 
L 279.591608 114.575778 
L 281.234597 112.03915 
L 282.877586 108.009675 
L 284.520574 105.827447 
L 286.163563 100.950811 
L 287.806551 99.727404 
L 289.44954 96.41401 
L 291.092529 94.44782 
L 292.735517 91.700009 
L 296.021494 88.495847 
L 297.664483 88.228834 
L 299.307471 85.155752 
L 300.95046 85.646086 
L 304.236437 83.189562 
L 305.879426 82.167629 
L 307.522414 82.490472 
L 309.165403 82.051114 
L 310.808392 80.211149 
L 312.45138 81.509805 
L 314.094369 80.021812 
L 317.380346 80.429614 
L 319.023335 79.465938 
L 320.666323 82.344829 
L 322.309312 81.609328 
L 323.9523 82.196758 
L 325.595289 83.728444 
L 327.238278 83.208981 
L 328.881266 86.454408 
L 330.524255 84.243052 
L 332.167243 86.740841 
L 333.810232 87.838023 
L 335.45322 86.211669 
L 337.096209 88.459436 
L 338.739198 88.913359 
L 340.382186 91.532518 
L 342.025175 89.884317 
L 343.668163 90.911105 
L 345.311152 92.226753 
L 346.954141 91.085878 
L 348.597129 90.510585 
L 350.240118 92.115093 
L 351.883106 92.576298 
L 353.526095 92.887005 
L 355.169084 93.746303 
L 356.812072 94.287612 
L 358.455061 95.188175 
L 360.098049 95.54743 
L 361.741038 96.86065 
L 363.384026 96.018344 
L 365.027015 97.375258 
L 366.670004 97.166502 
L 368.312992 97.991816 
L 369.955981 97.957833 
L 371.598969 98.962774 
L 373.241958 100.911972 
L 374.884947 99.098708 
L 376.527935 101.062471 
L 378.170924 99.819645 
L 379.813912 101.6499 
L 383.09989 101.001786 
L 384.742878 101.980026 
L 388.028855 102.392683 
L 389.671844 101.606207 
L 391.314833 103.56026 
L 394.60081 101.975171 
L 396.243798 102.230048 
L 397.886787 103.647646 
L 399.529775 102.557746 
L 401.172764 103.397625 
L 402.815753 103.293247 
L 404.458741 104.028747 
L 406.10173 103.79329 
L 407.744718 104.227794 
L 409.387707 104.004473 
L 411.030696 103.295674 
L 412.673684 104.434122 
L 414.316673 102.183927 
L 415.959661 102.776212 
L 417.60265 100.931391 
L 419.245639 103.191296 
L 420.888627 101.730004 
L 422.531616 101.329484 
L 424.174604 102.06984 
L 425.817593 100.659523 
L 427.460582 101.278509 
L 429.10357 100.562427 
L 430.746559 100.90469 
L 432.389547 99.958006 
L 434.032536 100.348817 
L 437.318513 100.229874 
L 438.961502 100.353671 
L 440.60449 99.482237 
L 442.247479 98.989476 
L 443.890467 97.96026 
L 445.533456 97.190776 
L 447.176445 97.241751 
L 448.819433 96.605774 
L 450.462422 97.03785 
L 452.10541 93.845826 
L 453.748399 94.37257 
L 455.391388 93.020511 
L 457.034376 93.343355 
L 458.677365 92.755925 
L 460.320353 92.59329 
L 461.963342 91.809241 
L 463.606331 94.527924 
L 465.249319 90.333385 
L 466.892308 90.22658 
L 468.535296 90.816437 
L 470.178285 90.28241 
L 471.821273 88.020078 
L 473.464262 88.396324 
L 476.750239 88.454582 
L 478.393228 86.702003 
L 480.036216 87.607421 
L 481.679205 87.245739 
L 483.322194 84.63629 
L 484.965182 85.432475 
L 486.608171 84.252761 
L 488.251159 84.439671 
L 489.894148 83.393463 
L 491.537137 81.716134 
L 493.180125 82.495327 
L 494.823114 81.007334 
L 496.466102 82.332692 
L 498.109091 80.160173 
L 498.109091 80.160173 
" clip-path="url(#p3d7b602598)" style="fill: none; stroke: #008000; stroke-width: 1.5; stroke-linecap: square"/>
   </g>
   <g id="line2d_36">
    <path d="M 92.290909 366.76026 
L 93.933898 368.694894 
L 95.576886 368.677902 
L 97.219875 369.029874 
L 98.862863 369.056576 
L 100.505852 368.408461 
L 102.148841 368.272527 
L 103.791829 367.862297 
L 105.434818 367.694807 
L 107.077806 367.238457 
L 108.720795 366.454408 
L 112.006772 365.529571 
L 113.649761 364.175085 
L 115.292749 363.456576 
L 116.935738 362.954105 
L 118.578727 362.085098 
L 120.221715 361.837503 
L 121.864704 360.689345 
L 123.507692 359.968409 
L 126.793669 357.873567 
L 128.436658 356.244785 
L 130.079647 354.846606 
L 131.722635 353.615917 
L 133.365624 352.977512 
L 135.008612 351.489519 
L 136.651601 350.23941 
L 139.937578 347.098362 
L 141.580567 346.006034 
L 143.223555 344.685531 
L 144.866544 342.406207 
L 146.509533 341.772657 
L 148.152521 340.61479 
L 149.79551 337.966502 
L 151.438498 335.560954 
L 153.081487 333.791383 
L 154.724476 333.57049 
L 156.367464 330.834816 
L 158.010453 330.463424 
L 159.653441 329.223026 
L 161.29643 326.33928 
L 162.939418 325.965462 
L 164.582407 321.8486 
L 166.225396 320.035336 
L 167.868384 318.520642 
L 169.511373 316.806901 
L 171.154361 313.794504 
L 172.79735 311.087958 
L 181.012293 300.055449 
L 182.655282 297.261517 
L 184.29827 295.1157 
L 185.941259 292.178552 
L 187.584247 290.411409 
L 189.227236 288.170923 
L 190.870225 286.389215 
L 192.513213 283.665678 
L 194.156202 281.391209 
L 195.79919 277.912752 
L 197.442179 274.90521 
L 199.085167 272.854062 
L 200.728156 270.123242 
L 202.371145 267.754105 
L 204.014133 264.353325 
L 205.657122 261.644352 
L 207.30011 257.364855 
L 208.943099 255.359827 
L 210.586088 252.480936 
L 212.229076 249.133559 
L 213.872065 247.220772 
L 215.515053 244.045739 
L 217.158042 241.14743 
L 218.801031 237.217477 
L 220.444019 235.447906 
L 223.729996 230.119775 
L 225.372985 226.235943 
L 228.658962 221.16997 
L 230.301951 217.970663 
L 231.944939 213.530958 
L 233.587928 211.754105 
L 236.873905 205.651634 
L 238.516894 201.542055 
L 240.159882 198.318474 
L 241.802871 196.507638 
L 243.445859 192.19173 
L 245.088848 189.443919 
L 246.731837 185.205687 
L 250.017814 180.547516 
L 251.660802 176.503476 
L 253.303791 173.677989 
L 254.94678 170.056316 
L 256.589768 167.393463 
L 258.232757 163.783927 
L 259.875745 161.519168 
L 261.518734 156.863424 
L 263.161722 154.698188 
L 264.804711 151.006121 
L 266.4477 146.687785 
L 268.090688 144.495847 
L 269.733677 139.740581 
L 271.376665 135.565462 
L 273.019654 131.846693 
L 274.662643 126.950637 
L 276.305631 123.967369 
L 279.591608 114.850074 
L 281.234597 112.192076 
L 282.877586 108.830134 
L 284.520574 106.210975 
L 286.163563 99.987135 
L 287.806551 99.737113 
L 289.44954 95.676081 
L 291.092529 94.802219 
L 292.735517 91.10287 
L 294.378506 88.597798 
L 296.021494 87.306424 
L 297.664483 86.748123 
L 299.307471 84.128964 
L 300.95046 84.886311 
L 302.593449 81.019471 
L 304.236437 80.762167 
L 305.879426 79.992683 
L 307.522414 77.999792 
L 309.165403 80.199012 
L 310.808392 78.694027 
L 312.45138 79.385834 
L 314.094369 76.951157 
L 315.737357 77.52645 
L 317.380346 77.633255 
L 319.023335 76.844352 
L 320.666323 77.511886 
L 322.309312 77.290993 
L 325.595289 79.536333 
L 327.238278 80.043658 
L 328.881266 81.359306 
L 330.524255 80.475735 
L 332.167243 81.968583 
L 333.810232 81.813229 
L 335.45322 81.490386 
L 337.096209 82.403086 
L 338.739198 82.932258 
L 340.382186 84.451808 
L 342.025175 82.471053 
L 343.668163 84.852328 
L 345.311152 84.784361 
L 346.954141 85.121769 
L 348.597129 84.963988 
L 350.240118 85.255275 
L 351.883106 86.029614 
L 353.526095 86.347603 
L 356.812072 87.721508 
L 358.455061 87.842878 
L 360.098049 89.090559 
L 361.741038 89.660997 
L 363.384026 89.039584 
L 365.027015 89.716827 
L 366.670004 91.178119 
L 368.312992 90.483884 
L 369.955981 90.937807 
L 371.598969 91.976732 
L 373.241958 92.571443 
L 374.884947 93.039931 
L 376.527935 94.120121 
L 378.170924 93.23655 
L 379.813912 94.472094 
L 381.456901 94.137113 
L 383.09989 92.962254 
L 384.742878 94.013316 
L 386.385867 94.705124 
L 388.028855 94.651721 
L 389.671844 95.18332 
L 391.314833 93.792423 
L 392.957821 94.945436 
L 394.60081 94.389562 
L 396.243798 93.056922 
L 397.886787 96.610629 
L 399.529775 94.411409 
L 401.172764 94.989129 
L 402.815753 96.052328 
L 404.458741 95.24886 
L 406.10173 96.86065 
L 407.744718 94.884751 
L 409.387707 95.916394 
L 411.030696 94.537633 
L 412.673684 95.523156 
L 414.316673 94.408981 
L 415.959661 95.656662 
L 417.60265 92.65883 
L 419.245639 93.078769 
L 420.888627 92.860303 
L 422.531616 92.275301 
L 424.174604 92.573871 
L 425.817593 91.226667 
L 427.460582 91.986441 
L 429.10357 91.367456 
L 430.746559 91.801959 
L 432.389547 90.908678 
L 434.032536 89.675561 
L 435.675524 90.020251 
L 437.318513 91.877208 
L 438.961502 91.165982 
L 440.60449 89.500789 
L 442.247479 89.117261 
L 443.890467 87.721508 
L 445.533456 87.983667 
L 447.176445 86.299055 
L 448.819433 86.012622 
L 450.462422 86.432562 
L 452.10541 85.349944 
L 453.748399 85.60482 
L 455.391388 83.051201 
L 457.034376 83.716307 
L 458.677365 81.752544 
L 460.320353 81.665158 
L 461.963342 82.046259 
L 463.606331 81.182107 
L 465.249319 78.900355 
L 468.535296 78.805687 
L 470.178285 78.645479 
L 471.821273 77.88085 
L 475.107251 76.094287 
L 476.750239 77.339541 
L 478.393228 73.751851 
L 480.036216 74.970403 
L 481.679205 74.152371 
L 483.322194 72.324543 
L 484.965182 72.717781 
L 486.608171 72.603693 
L 488.251159 71.941014 
L 489.894148 71.737113 
L 491.537137 69.151938 
L 493.180125 70.712752 
L 494.823114 69.234469 
L 496.466102 68.178552 
L 498.109091 66.96 
L 498.109091 66.96 
" clip-path="url(#p3d7b602598)" style="fill: none; stroke: #008000; stroke-width: 1.5; stroke-linecap: square"/>
   </g>
   <g id="patch_3">
    <path d="M 72 384.48 
L 72 51.84 
" style="fill: none; stroke: #000000; stroke-width: 0.8; stroke-linejoin: miter; stroke-linecap: square"/>
   </g>
   <g id="patch_4">
    <path d="M 518.4 384.48 
L 518.4 51.84 
" style="fill: none; stroke: #000000; stroke-width: 0.8; stroke-linejoin: miter; stroke-linecap: square"/>
   </g>
   <g id="patch_5">
    <path d="M 72 384.48 
L 518.4 384.48 
" style="fill: none; stroke: #000000; stroke-width: 0.8; stroke-linejoin: miter; stroke-linecap: square"/>
   </g>
   <g id="patch_6">
    <path d="M 72 51.84 
L 518.4 51.84 
" style="fill: none; stroke: #000000; stroke-width: 0.8; stroke-linejoin: miter; stroke-linecap: square"/>
   </g>
   <g id="text_17">
    <!-- M2: Aspartat; Asparagin; Isoleucin; Threonin; Tryptophan; Phenylalanin; Methionin; Histidin; Arginin -->
    <g transform="translate(46.3875 45.84) scale(0.1 -0.1)">
     <defs>
      <path id="DejaVuSans-4d" d="M 628 4666 
L 1569 4666 
L 2759 1491 
L 3956 4666 
L 4897 4666 
L 4897 0 
L 4281 0 
L 4281 4097 
L 3078 897 
L 2444 897 
L 1241 4097 
L 1241 0 
L 628 0 
L 628 4666 
z
" transform="scale(0.015625)"/>
      <path id="DejaVuSans-3a" d="M 750 794 
L 1409 794 
L 1409 0 
L 750 0 
L 750 794 
z
M 750 3309 
L 1409 3309 
L 1409 2516 
L 750 2516 
L 750 3309 
z
" transform="scale(0.015625)"/>
      <path id="DejaVuSans-41" d="M 2188 4044 
L 1331 1722 
L 3047 1722 
L 2188 4044 
z
M 1831 4666 
L 2547 4666 
L 4325 0 
L 3669 0 
L 3244 1197 
L 1141 1197 
L 716 0 
L 50 0 
L 1831 4666 
z
" transform="scale(0.015625)"/>
      <path id="DejaVuSans-70" d="M 1159 525 
L 1159 -1331 
L 581 -1331 
L 581 3500 
L 1159 3500 
L 1159 2969 
Q 1341 3281 1617 3432 
Q 1894 3584 2278 3584 
Q 2916 3584 3314 3078 
Q 3713 2572 3713 1747 
Q 3713 922 3314 415 
Q 2916 -91 2278 -91 
Q 1894 -91 1617 61 
Q 1341 213 1159 525 
z
M 3116 1747 
Q 3116 2381 2855 2742 
Q 2594 3103 2138 3103 
Q 1681 3103 1420 2742 
Q 1159 2381 1159 1747 
Q 1159 1113 1420 752 
Q 1681 391 2138 391 
Q 2594 391 2855 752 
Q 3116 1113 3116 1747 
z
" transform="scale(0.015625)"/>
      <path id="DejaVuSans-3b" d="M 750 3309 
L 1409 3309 
L 1409 2516 
L 750 2516 
L 750 3309 
z
M 750 794 
L 1409 794 
L 1409 256 
L 897 -744 
L 494 -744 
L 750 256 
L 750 794 
z
" transform="scale(0.015625)"/>
      <path id="DejaVuSans-67" d="M 2906 1791 
Q 2906 2416 2648 2759 
Q 2391 3103 1925 3103 
Q 1463 3103 1205 2759 
Q 947 2416 947 1791 
Q 947 1169 1205 825 
Q 1463 481 1925 481 
Q 2391 481 2648 825 
Q 2906 1169 2906 1791 
z
M 3481 434 
Q 3481 -459 3084 -895 
Q 2688 -1331 1869 -1331 
Q 1566 -1331 1297 -1286 
Q 1028 -1241 775 -1147 
L 775 -588 
Q 1028 -725 1275 -790 
Q 1522 -856 1778 -856 
Q 2344 -856 2625 -561 
Q 2906 -266 2906 331 
L 2906 616 
Q 2728 306 2450 153 
Q 2172 0 1784 0 
Q 1141 0 747 490 
Q 353 981 353 1791 
Q 353 2603 747 3093 
Q 1141 3584 1784 3584 
Q 2172 3584 2450 3431 
Q 2728 3278 2906 2969 
L 2906 3500 
L 3481 3500 
L 3481 434 
z
" transform="scale(0.015625)"/>
      <path id="DejaVuSans-49" d="M 628 4666 
L 1259 4666 
L 1259 0 
L 628 0 
L 628 4666 
z
" transform="scale(0.015625)"/>
      <path id="DejaVuSans-54" d="M -19 4666 
L 3928 4666 
L 3928 4134 
L 2272 4134 
L 2272 0 
L 1638 0 
L 1638 4134 
L -19 4134 
L -19 4666 
z
" transform="scale(0.015625)"/>
      <path id="DejaVuSans-79" d="M 2059 -325 
Q 1816 -950 1584 -1140 
Q 1353 -1331 966 -1331 
L 506 -1331 
L 506 -850 
L 844 -850 
Q 1081 -850 1212 -737 
Q 1344 -625 1503 -206 
L 1606 56 
L 191 3500 
L 800 3500 
L 1894 763 
L 2988 3500 
L 3597 3500 
L 2059 -325 
z
" transform="scale(0.015625)"/>
      <path id="DejaVuSans-48" d="M 628 4666 
L 1259 4666 
L 1259 2753 
L 3553 2753 
L 3553 4666 
L 4184 4666 
L 4184 0 
L 3553 0 
L 3553 2222 
L 1259 2222 
L 1259 0 
L 628 0 
L 628 4666 
z
" transform="scale(0.015625)"/>
     </defs>
     <use xlink:href="#DejaVuSans-4d"/>
     <use xlink:href="#DejaVuSans-32" x="86.279297"/>
     <use xlink:href="#DejaVuSans-3a" x="149.902344"/>
     <use xlink:href="#DejaVuSans-20" x="183.59375"/>
     <use xlink:href="#DejaVuSans-41" x="215.380859"/>
     <use xlink:href="#DejaVuSans-73" x="283.789062"/>
     <use xlink:href="#DejaVuSans-70" x="335.888672"/>
     <use xlink:href="#DejaVuSans-61" x="399.365234"/>
     <use xlink:href="#DejaVuSans-72" x="460.644531"/>
     <use xlink:href="#DejaVuSans-74" x="501.757812"/>
     <use xlink:href="#DejaVuSans-61" x="540.966797"/>
     <use xlink:href="#DejaVuSans-74" x="602.246094"/>
     <use xlink:href="#DejaVuSans-3b" x="641.455078"/>
     <use xlink:href="#DejaVuSans-20" x="675.146484"/>
     <use xlink:href="#DejaVuSans-41" x="706.933594"/>
     <use xlink:href="#DejaVuSans-73" x="775.341797"/>
     <use xlink:href="#DejaVuSans-70" x="827.441406"/>
     <use xlink:href="#DejaVuSans-61" x="890.917969"/>
     <use xlink:href="#DejaVuSans-72" x="952.197266"/>
     <use xlink:href="#DejaVuSans-61" x="993.310547"/>
     <use xlink:href="#DejaVuSans-67" x="1054.589844"/>
     <use xlink:href="#DejaVuSans-69" x="1118.066406"/>
     <use xlink:href="#DejaVuSans-6e" x="1145.849609"/>
     <use xlink:href="#DejaVuSans-3b" x="1209.228516"/>
     <use xlink:href="#DejaVuSans-20" x="1242.919922"/>
     <use xlink:href="#DejaVuSans-49" x="1274.707031"/>
     <use xlink:href="#DejaVuSans-73" x="1304.199219"/>
     <use xlink:href="#DejaVuSans-6f" x="1356.298828"/>
     <use xlink:href="#DejaVuSans-6c" x="1417.480469"/>
     <use xlink:href="#DejaVuSans-65" x="1445.263672"/>
     <use xlink:href="#DejaVuSans-75" x="1506.787109"/>
     <use xlink:href="#DejaVuSans-63" x="1570.166016"/>
     <use xlink:href="#DejaVuSans-69" x="1625.146484"/>
     <use xlink:href="#DejaVuSans-6e" x="1652.929688"/>
     <use xlink:href="#DejaVuSans-3b" x="1716.308594"/>
     <use xlink:href="#DejaVuSans-20" x="1750"/>
     <use xlink:href="#DejaVuSans-54" x="1781.787109"/>
     <use xlink:href="#DejaVuSans-68" x="1842.871094"/>
     <use xlink:href="#DejaVuSans-72" x="1906.25"/>
     <use xlink:href="#DejaVuSans-65" x="1945.113281"/>
     <use xlink:href="#DejaVuSans-6f" x="2006.636719"/>
     <use xlink:href="#DejaVuSans-6e" x="2067.818359"/>
     <use xlink:href="#DejaVuSans-69" x="2131.197266"/>
     <use xlink:href="#DejaVuSans-6e" x="2158.980469"/>
     <use xlink:href="#DejaVuSans-3b" x="2222.359375"/>
     <use xlink:href="#DejaVuSans-20" x="2256.050781"/>
     <use xlink:href="#DejaVuSans-54" x="2287.837891"/>
     <use xlink:href="#DejaVuSans-72" x="2334.171875"/>
     <use xlink:href="#DejaVuSans-79" x="2375.285156"/>
     <use xlink:href="#DejaVuSans-70" x="2434.464844"/>
     <use xlink:href="#DejaVuSans-74" x="2497.941406"/>
     <use xlink:href="#DejaVuSans-6f" x="2537.150391"/>
     <use xlink:href="#DejaVuSans-70" x="2598.332031"/>
     <use xlink:href="#DejaVuSans-68" x="2661.808594"/>
     <use xlink:href="#DejaVuSans-61" x="2725.1875"/>
     <use xlink:href="#DejaVuSans-6e" x="2786.466797"/>
     <use xlink:href="#DejaVuSans-3b" x="2849.845703"/>
     <use xlink:href="#DejaVuSans-20" x="2883.537109"/>
     <use xlink:href="#DejaVuSans-50" x="2915.324219"/>
     <use xlink:href="#DejaVuSans-68" x="2975.626953"/>
     <use xlink:href="#DejaVuSans-65" x="3039.005859"/>
     <use xlink:href="#DejaVuSans-6e" x="3100.529297"/>
     <use xlink:href="#DejaVuSans-79" x="3163.908203"/>
     <use xlink:href="#DejaVuSans-6c" x="3223.087891"/>
     <use xlink:href="#DejaVuSans-61" x="3250.871094"/>
     <use xlink:href="#DejaVuSans-6c" x="3312.150391"/>
     <use xlink:href="#DejaVuSans-61" x="3339.933594"/>
     <use xlink:href="#DejaVuSans-6e" x="3401.212891"/>
     <use xlink:href="#DejaVuSans-69" x="3464.591797"/>
     <use xlink:href="#DejaVuSans-6e" x="3492.375"/>
     <use xlink:href="#DejaVuSans-3b" x="3555.753906"/>
     <use xlink:href="#DejaVuSans-20" x="3589.445312"/>
     <use xlink:href="#DejaVuSans-4d" x="3621.232422"/>
     <use xlink:href="#DejaVuSans-65" x="3707.511719"/>
     <use xlink:href="#DejaVuSans-74" x="3769.035156"/>
     <use xlink:href="#DejaVuSans-68" x="3808.244141"/>
     <use xlink:href="#DejaVuSans-69" x="3871.623047"/>
     <use xlink:href="#DejaVuSans-6f" x="3899.40625"/>
     <use xlink:href="#DejaVuSans-6e" x="3960.587891"/>
     <use xlink:href="#DejaVuSans-69" x="4023.966797"/>
     <use xlink:href="#DejaVuSans-6e" x="4051.75"/>
     <use xlink:href="#DejaVuSans-3b" x="4115.128906"/>
     <use xlink:href="#DejaVuSans-20" x="4148.820312"/>
     <use xlink:href="#DejaVuSans-48" x="4180.607422"/>
     <use xlink:href="#DejaVuSans-69" x="4255.802734"/>
     <use xlink:href="#DejaVuSans-73" x="4283.585938"/>
     <use xlink:href="#DejaVuSans-74" x="4335.685547"/>
     <use xlink:href="#DejaVuSans-69" x="4374.894531"/>
     <use xlink:href="#DejaVuSans-64" x="4402.677734"/>
     <use xlink:href="#DejaVuSans-69" x="4466.154297"/>
     <use xlink:href="#DejaVuSans-6e" x="4493.9375"/>
     <use xlink:href="#DejaVuSans-3b" x="4557.316406"/>
     <use xlink:href="#DejaVuSans-20" x="4591.007812"/>
     <use xlink:href="#DejaVuSans-41" x="4622.794922"/>
     <use xlink:href="#DejaVuSans-72" x="4691.203125"/>
     <use xlink:href="#DejaVuSans-67" x="4730.566406"/>
     <use xlink:href="#DejaVuSans-69" x="4794.042969"/>
     <use xlink:href="#DejaVuSans-6e" x="4821.826172"/>
     <use xlink:href="#DejaVuSans-69" x="4885.205078"/>
     <use xlink:href="#DejaVuSans-6e" x="4912.988281"/>
    </g>
   </g>
  </g>
 </g>
 <defs>
  <clipPath id="p3d7b602598">
   <rect x="72" y="51.84" width="446.4" height="332.64"/>
  </clipPath>
 </defs>
</svg>
