<?xml version="1.0" encoding="utf-8" standalone="no"?>
<!DOCTYPE svg PUBLIC "-//W3C//DTD SVG 1.1//EN"
  "http://www.w3.org/Graphics/SVG/1.1/DTD/svg11.dtd">
<svg xmlns:xlink="http://www.w3.org/1999/xlink" width="576pt" height="432pt" viewBox="0 0 576 432" xmlns="http://www.w3.org/2000/svg" version="1.1">
 <metadata>
  <rdf:RDF xmlns:dc="http://purl.org/dc/elements/1.1/" xmlns:cc="http://creativecommons.org/ns#" xmlns:rdf="http://www.w3.org/1999/02/22-rdf-syntax-ns#">
   <cc:Work>
    <dc:type rdf:resource="http://purl.org/dc/dcmitype/StillImage"/>
    <dc:date>2024-11-12T14:09:00.340324</dc:date>
    <dc:format>image/svg+xml</dc:format>
    <dc:creator>
     <cc:Agent>
      <dc:title>Matplotlib v3.7.5, https://matplotlib.org/</dc:title>
     </cc:Agent>
    </dc:creator>
   </cc:Work>
  </rdf:RDF>
 </metadata>
 <defs>
  <style type="text/css">*{stroke-linejoin: round; stroke-linecap: butt}</style>
 </defs>
 <g id="figure_1">
  <g id="patch_1">
   <path d="M 0 432 
L 576 432 
L 576 0 
L 0 0 
z
" style="fill: #ffffff"/>
  </g>
  <g id="axes_1">
   <g id="patch_2">
    <path d="M 72 384.48 
L 518.4 384.48 
L 518.4 51.84 
L 72 51.84 
z
" style="fill: #ffffff"/>
   </g>
   <g id="matplotlib.axis_1">
    <g id="xtick_1">
     <g id="line2d_1">
      <path d="M 92.290909 384.48 
L 92.290909 51.84 
" clip-path="url(#p1684f404ef)" style="fill: none; stroke: #b0b0b0; stroke-width: 0.8; stroke-linecap: square"/>
     </g>
     <g id="line2d_2">
      <defs>
       <path id="mb379d1b7fb" d="M 0 0 
L 0 3.5 
" style="stroke: #000000; stroke-width: 0.8"/>
      </defs>
      <g>
       <use xlink:href="#mb379d1b7fb" x="92.290909" y="384.48" style="stroke: #000000; stroke-width: 0.8"/>
      </g>
     </g>
     <g id="text_1">
      <!-- 0.17 -->
      <g transform="translate(81.158097 399.078438) scale(0.1 -0.1)">
       <defs>
        <path id="DejaVuSans-30" d="M 2034 4250 
Q 1547 4250 1301 3770 
Q 1056 3291 1056 2328 
Q 1056 1369 1301 889 
Q 1547 409 2034 409 
Q 2525 409 2770 889 
Q 3016 1369 3016 2328 
Q 3016 3291 2770 3770 
Q 2525 4250 2034 4250 
z
M 2034 4750 
Q 2819 4750 3233 4129 
Q 3647 3509 3647 2328 
Q 3647 1150 3233 529 
Q 2819 -91 2034 -91 
Q 1250 -91 836 529 
Q 422 1150 422 2328 
Q 422 3509 836 4129 
Q 1250 4750 2034 4750 
z
" transform="scale(0.015625)"/>
        <path id="DejaVuSans-2e" d="M 684 794 
L 1344 794 
L 1344 0 
L 684 0 
L 684 794 
z
" transform="scale(0.015625)"/>
        <path id="DejaVuSans-31" d="M 794 531 
L 1825 531 
L 1825 4091 
L 703 3866 
L 703 4441 
L 1819 4666 
L 2450 4666 
L 2450 531 
L 3481 531 
L 3481 0 
L 794 0 
L 794 531 
z
" transform="scale(0.015625)"/>
        <path id="DejaVuSans-37" d="M 525 4666 
L 3525 4666 
L 3525 4397 
L 1831 0 
L 1172 0 
L 2766 4134 
L 525 4134 
L 525 4666 
z
" transform="scale(0.015625)"/>
       </defs>
       <use xlink:href="#DejaVuSans-30"/>
       <use xlink:href="#DejaVuSans-2e" x="63.623047"/>
       <use xlink:href="#DejaVuSans-31" x="95.410156"/>
       <use xlink:href="#DejaVuSans-37" x="159.033203"/>
      </g>
     </g>
    </g>
    <g id="xtick_2">
     <g id="line2d_3">
      <path d="M 158.010453 384.48 
L 158.010453 51.84 
" clip-path="url(#p1684f404ef)" style="fill: none; stroke: #b0b0b0; stroke-width: 0.8; stroke-linecap: square"/>
     </g>
     <g id="line2d_4">
      <g>
       <use xlink:href="#mb379d1b7fb" x="158.010453" y="384.48" style="stroke: #000000; stroke-width: 0.8"/>
      </g>
     </g>
     <g id="text_2">
      <!-- 6.83 -->
      <g transform="translate(146.87764 399.078438) scale(0.1 -0.1)">
       <defs>
        <path id="DejaVuSans-36" d="M 2113 2584 
Q 1688 2584 1439 2293 
Q 1191 2003 1191 1497 
Q 1191 994 1439 701 
Q 1688 409 2113 409 
Q 2538 409 2786 701 
Q 3034 994 3034 1497 
Q 3034 2003 2786 2293 
Q 2538 2584 2113 2584 
z
M 3366 4563 
L 3366 3988 
Q 3128 4100 2886 4159 
Q 2644 4219 2406 4219 
Q 1781 4219 1451 3797 
Q 1122 3375 1075 2522 
Q 1259 2794 1537 2939 
Q 1816 3084 2150 3084 
Q 2853 3084 3261 2657 
Q 3669 2231 3669 1497 
Q 3669 778 3244 343 
Q 2819 -91 2113 -91 
Q 1303 -91 875 529 
Q 447 1150 447 2328 
Q 447 3434 972 4092 
Q 1497 4750 2381 4750 
Q 2619 4750 2861 4703 
Q 3103 4656 3366 4563 
z
" transform="scale(0.015625)"/>
        <path id="DejaVuSans-38" d="M 2034 2216 
Q 1584 2216 1326 1975 
Q 1069 1734 1069 1313 
Q 1069 891 1326 650 
Q 1584 409 2034 409 
Q 2484 409 2743 651 
Q 3003 894 3003 1313 
Q 3003 1734 2745 1975 
Q 2488 2216 2034 2216 
z
M 1403 2484 
Q 997 2584 770 2862 
Q 544 3141 544 3541 
Q 544 4100 942 4425 
Q 1341 4750 2034 4750 
Q 2731 4750 3128 4425 
Q 3525 4100 3525 3541 
Q 3525 3141 3298 2862 
Q 3072 2584 2669 2484 
Q 3125 2378 3379 2068 
Q 3634 1759 3634 1313 
Q 3634 634 3220 271 
Q 2806 -91 2034 -91 
Q 1263 -91 848 271 
Q 434 634 434 1313 
Q 434 1759 690 2068 
Q 947 2378 1403 2484 
z
M 1172 3481 
Q 1172 3119 1398 2916 
Q 1625 2713 2034 2713 
Q 2441 2713 2670 2916 
Q 2900 3119 2900 3481 
Q 2900 3844 2670 4047 
Q 2441 4250 2034 4250 
Q 1625 4250 1398 4047 
Q 1172 3844 1172 3481 
z
" transform="scale(0.015625)"/>
        <path id="DejaVuSans-33" d="M 2597 2516 
Q 3050 2419 3304 2112 
Q 3559 1806 3559 1356 
Q 3559 666 3084 287 
Q 2609 -91 1734 -91 
Q 1441 -91 1130 -33 
Q 819 25 488 141 
L 488 750 
Q 750 597 1062 519 
Q 1375 441 1716 441 
Q 2309 441 2620 675 
Q 2931 909 2931 1356 
Q 2931 1769 2642 2001 
Q 2353 2234 1838 2234 
L 1294 2234 
L 1294 2753 
L 1863 2753 
Q 2328 2753 2575 2939 
Q 2822 3125 2822 3475 
Q 2822 3834 2567 4026 
Q 2313 4219 1838 4219 
Q 1578 4219 1281 4162 
Q 984 4106 628 3988 
L 628 4550 
Q 988 4650 1302 4700 
Q 1616 4750 1894 4750 
Q 2613 4750 3031 4423 
Q 3450 4097 3450 3541 
Q 3450 3153 3228 2886 
Q 3006 2619 2597 2516 
z
" transform="scale(0.015625)"/>
       </defs>
       <use xlink:href="#DejaVuSans-36"/>
       <use xlink:href="#DejaVuSans-2e" x="63.623047"/>
       <use xlink:href="#DejaVuSans-38" x="95.410156"/>
       <use xlink:href="#DejaVuSans-33" x="159.033203"/>
      </g>
     </g>
    </g>
    <g id="xtick_3">
     <g id="line2d_5">
      <path d="M 223.729996 384.48 
L 223.729996 51.84 
" clip-path="url(#p1684f404ef)" style="fill: none; stroke: #b0b0b0; stroke-width: 0.8; stroke-linecap: square"/>
     </g>
     <g id="line2d_6">
      <g>
       <use xlink:href="#mb379d1b7fb" x="223.729996" y="384.48" style="stroke: #000000; stroke-width: 0.8"/>
      </g>
     </g>
     <g id="text_3">
      <!-- 13.5 -->
      <g transform="translate(212.597184 399.078438) scale(0.1 -0.1)">
       <defs>
        <path id="DejaVuSans-35" d="M 691 4666 
L 3169 4666 
L 3169 4134 
L 1269 4134 
L 1269 2991 
Q 1406 3038 1543 3061 
Q 1681 3084 1819 3084 
Q 2600 3084 3056 2656 
Q 3513 2228 3513 1497 
Q 3513 744 3044 326 
Q 2575 -91 1722 -91 
Q 1428 -91 1123 -41 
Q 819 9 494 109 
L 494 744 
Q 775 591 1075 516 
Q 1375 441 1709 441 
Q 2250 441 2565 725 
Q 2881 1009 2881 1497 
Q 2881 1984 2565 2268 
Q 2250 2553 1709 2553 
Q 1456 2553 1204 2497 
Q 953 2441 691 2322 
L 691 4666 
z
" transform="scale(0.015625)"/>
       </defs>
       <use xlink:href="#DejaVuSans-31"/>
       <use xlink:href="#DejaVuSans-33" x="63.623047"/>
       <use xlink:href="#DejaVuSans-2e" x="127.246094"/>
       <use xlink:href="#DejaVuSans-35" x="159.033203"/>
      </g>
     </g>
    </g>
    <g id="xtick_4">
     <g id="line2d_7">
      <path d="M 289.44954 384.48 
L 289.44954 51.84 
" clip-path="url(#p1684f404ef)" style="fill: none; stroke: #b0b0b0; stroke-width: 0.8; stroke-linecap: square"/>
     </g>
     <g id="line2d_8">
      <g>
       <use xlink:href="#mb379d1b7fb" x="289.44954" y="384.48" style="stroke: #000000; stroke-width: 0.8"/>
      </g>
     </g>
     <g id="text_4">
      <!-- 20.17 -->
      <g transform="translate(275.135477 399.078438) scale(0.1 -0.1)">
       <defs>
        <path id="DejaVuSans-32" d="M 1228 531 
L 3431 531 
L 3431 0 
L 469 0 
L 469 531 
Q 828 903 1448 1529 
Q 2069 2156 2228 2338 
Q 2531 2678 2651 2914 
Q 2772 3150 2772 3378 
Q 2772 3750 2511 3984 
Q 2250 4219 1831 4219 
Q 1534 4219 1204 4116 
Q 875 4013 500 3803 
L 500 4441 
Q 881 4594 1212 4672 
Q 1544 4750 1819 4750 
Q 2544 4750 2975 4387 
Q 3406 4025 3406 3419 
Q 3406 3131 3298 2873 
Q 3191 2616 2906 2266 
Q 2828 2175 2409 1742 
Q 1991 1309 1228 531 
z
" transform="scale(0.015625)"/>
       </defs>
       <use xlink:href="#DejaVuSans-32"/>
       <use xlink:href="#DejaVuSans-30" x="63.623047"/>
       <use xlink:href="#DejaVuSans-2e" x="127.246094"/>
       <use xlink:href="#DejaVuSans-31" x="159.033203"/>
       <use xlink:href="#DejaVuSans-37" x="222.65625"/>
      </g>
     </g>
    </g>
    <g id="xtick_5">
     <g id="line2d_9">
      <path d="M 355.169084 384.48 
L 355.169084 51.84 
" clip-path="url(#p1684f404ef)" style="fill: none; stroke: #b0b0b0; stroke-width: 0.8; stroke-linecap: square"/>
     </g>
     <g id="line2d_10">
      <g>
       <use xlink:href="#mb379d1b7fb" x="355.169084" y="384.48" style="stroke: #000000; stroke-width: 0.8"/>
      </g>
     </g>
     <g id="text_5">
      <!-- 26.83 -->
      <g transform="translate(340.855021 399.078438) scale(0.1 -0.1)">
       <use xlink:href="#DejaVuSans-32"/>
       <use xlink:href="#DejaVuSans-36" x="63.623047"/>
       <use xlink:href="#DejaVuSans-2e" x="127.246094"/>
       <use xlink:href="#DejaVuSans-38" x="159.033203"/>
       <use xlink:href="#DejaVuSans-33" x="222.65625"/>
      </g>
     </g>
    </g>
    <g id="xtick_6">
     <g id="line2d_11">
      <path d="M 420.888627 384.48 
L 420.888627 51.84 
" clip-path="url(#p1684f404ef)" style="fill: none; stroke: #b0b0b0; stroke-width: 0.8; stroke-linecap: square"/>
     </g>
     <g id="line2d_12">
      <g>
       <use xlink:href="#mb379d1b7fb" x="420.888627" y="384.48" style="stroke: #000000; stroke-width: 0.8"/>
      </g>
     </g>
     <g id="text_6">
      <!-- 33.5 -->
      <g transform="translate(409.755815 399.078438) scale(0.1 -0.1)">
       <use xlink:href="#DejaVuSans-33"/>
       <use xlink:href="#DejaVuSans-33" x="63.623047"/>
       <use xlink:href="#DejaVuSans-2e" x="127.246094"/>
       <use xlink:href="#DejaVuSans-35" x="159.033203"/>
      </g>
     </g>
    </g>
    <g id="xtick_7">
     <g id="line2d_13">
      <path d="M 486.608171 384.48 
L 486.608171 51.84 
" clip-path="url(#p1684f404ef)" style="fill: none; stroke: #b0b0b0; stroke-width: 0.8; stroke-linecap: square"/>
     </g>
     <g id="line2d_14">
      <g>
       <use xlink:href="#mb379d1b7fb" x="486.608171" y="384.48" style="stroke: #000000; stroke-width: 0.8"/>
      </g>
     </g>
     <g id="text_7">
      <!-- 40.17 -->
      <g transform="translate(472.294108 399.078438) scale(0.1 -0.1)">
       <defs>
        <path id="DejaVuSans-34" d="M 2419 4116 
L 825 1625 
L 2419 1625 
L 2419 4116 
z
M 2253 4666 
L 3047 4666 
L 3047 1625 
L 3713 1625 
L 3713 1100 
L 3047 1100 
L 3047 0 
L 2419 0 
L 2419 1100 
L 313 1100 
L 313 1709 
L 2253 4666 
z
" transform="scale(0.015625)"/>
       </defs>
       <use xlink:href="#DejaVuSans-34"/>
       <use xlink:href="#DejaVuSans-30" x="63.623047"/>
       <use xlink:href="#DejaVuSans-2e" x="127.246094"/>
       <use xlink:href="#DejaVuSans-31" x="159.033203"/>
       <use xlink:href="#DejaVuSans-37" x="222.65625"/>
      </g>
     </g>
    </g>
    <g id="text_8">
     <!-- time in hours [h] -->
     <g transform="translate(253.451562 412.756563) scale(0.1 -0.1)">
      <defs>
       <path id="DejaVuSans-74" d="M 1172 4494 
L 1172 3500 
L 2356 3500 
L 2356 3053 
L 1172 3053 
L 1172 1153 
Q 1172 725 1289 603 
Q 1406 481 1766 481 
L 2356 481 
L 2356 0 
L 1766 0 
Q 1100 0 847 248 
Q 594 497 594 1153 
L 594 3053 
L 172 3053 
L 172 3500 
L 594 3500 
L 594 4494 
L 1172 4494 
z
" transform="scale(0.015625)"/>
       <path id="DejaVuSans-69" d="M 603 3500 
L 1178 3500 
L 1178 0 
L 603 0 
L 603 3500 
z
M 603 4863 
L 1178 4863 
L 1178 4134 
L 603 4134 
L 603 4863 
z
" transform="scale(0.015625)"/>
       <path id="DejaVuSans-6d" d="M 3328 2828 
Q 3544 3216 3844 3400 
Q 4144 3584 4550 3584 
Q 5097 3584 5394 3201 
Q 5691 2819 5691 2113 
L 5691 0 
L 5113 0 
L 5113 2094 
Q 5113 2597 4934 2840 
Q 4756 3084 4391 3084 
Q 3944 3084 3684 2787 
Q 3425 2491 3425 1978 
L 3425 0 
L 2847 0 
L 2847 2094 
Q 2847 2600 2669 2842 
Q 2491 3084 2119 3084 
Q 1678 3084 1418 2786 
Q 1159 2488 1159 1978 
L 1159 0 
L 581 0 
L 581 3500 
L 1159 3500 
L 1159 2956 
Q 1356 3278 1631 3431 
Q 1906 3584 2284 3584 
Q 2666 3584 2933 3390 
Q 3200 3197 3328 2828 
z
" transform="scale(0.015625)"/>
       <path id="DejaVuSans-65" d="M 3597 1894 
L 3597 1613 
L 953 1613 
Q 991 1019 1311 708 
Q 1631 397 2203 397 
Q 2534 397 2845 478 
Q 3156 559 3463 722 
L 3463 178 
Q 3153 47 2828 -22 
Q 2503 -91 2169 -91 
Q 1331 -91 842 396 
Q 353 884 353 1716 
Q 353 2575 817 3079 
Q 1281 3584 2069 3584 
Q 2775 3584 3186 3129 
Q 3597 2675 3597 1894 
z
M 3022 2063 
Q 3016 2534 2758 2815 
Q 2500 3097 2075 3097 
Q 1594 3097 1305 2825 
Q 1016 2553 972 2059 
L 3022 2063 
z
" transform="scale(0.015625)"/>
       <path id="DejaVuSans-20" transform="scale(0.015625)"/>
       <path id="DejaVuSans-6e" d="M 3513 2113 
L 3513 0 
L 2938 0 
L 2938 2094 
Q 2938 2591 2744 2837 
Q 2550 3084 2163 3084 
Q 1697 3084 1428 2787 
Q 1159 2491 1159 1978 
L 1159 0 
L 581 0 
L 581 3500 
L 1159 3500 
L 1159 2956 
Q 1366 3272 1645 3428 
Q 1925 3584 2291 3584 
Q 2894 3584 3203 3211 
Q 3513 2838 3513 2113 
z
" transform="scale(0.015625)"/>
       <path id="DejaVuSans-68" d="M 3513 2113 
L 3513 0 
L 2938 0 
L 2938 2094 
Q 2938 2591 2744 2837 
Q 2550 3084 2163 3084 
Q 1697 3084 1428 2787 
Q 1159 2491 1159 1978 
L 1159 0 
L 581 0 
L 581 4863 
L 1159 4863 
L 1159 2956 
Q 1366 3272 1645 3428 
Q 1925 3584 2291 3584 
Q 2894 3584 3203 3211 
Q 3513 2838 3513 2113 
z
" transform="scale(0.015625)"/>
       <path id="DejaVuSans-6f" d="M 1959 3097 
Q 1497 3097 1228 2736 
Q 959 2375 959 1747 
Q 959 1119 1226 758 
Q 1494 397 1959 397 
Q 2419 397 2687 759 
Q 2956 1122 2956 1747 
Q 2956 2369 2687 2733 
Q 2419 3097 1959 3097 
z
M 1959 3584 
Q 2709 3584 3137 3096 
Q 3566 2609 3566 1747 
Q 3566 888 3137 398 
Q 2709 -91 1959 -91 
Q 1206 -91 779 398 
Q 353 888 353 1747 
Q 353 2609 779 3096 
Q 1206 3584 1959 3584 
z
" transform="scale(0.015625)"/>
       <path id="DejaVuSans-75" d="M 544 1381 
L 544 3500 
L 1119 3500 
L 1119 1403 
Q 1119 906 1312 657 
Q 1506 409 1894 409 
Q 2359 409 2629 706 
Q 2900 1003 2900 1516 
L 2900 3500 
L 3475 3500 
L 3475 0 
L 2900 0 
L 2900 538 
Q 2691 219 2414 64 
Q 2138 -91 1772 -91 
Q 1169 -91 856 284 
Q 544 659 544 1381 
z
M 1991 3584 
L 1991 3584 
z
" transform="scale(0.015625)"/>
       <path id="DejaVuSans-72" d="M 2631 2963 
Q 2534 3019 2420 3045 
Q 2306 3072 2169 3072 
Q 1681 3072 1420 2755 
Q 1159 2438 1159 1844 
L 1159 0 
L 581 0 
L 581 3500 
L 1159 3500 
L 1159 2956 
Q 1341 3275 1631 3429 
Q 1922 3584 2338 3584 
Q 2397 3584 2469 3576 
Q 2541 3569 2628 3553 
L 2631 2963 
z
" transform="scale(0.015625)"/>
       <path id="DejaVuSans-73" d="M 2834 3397 
L 2834 2853 
Q 2591 2978 2328 3040 
Q 2066 3103 1784 3103 
Q 1356 3103 1142 2972 
Q 928 2841 928 2578 
Q 928 2378 1081 2264 
Q 1234 2150 1697 2047 
L 1894 2003 
Q 2506 1872 2764 1633 
Q 3022 1394 3022 966 
Q 3022 478 2636 193 
Q 2250 -91 1575 -91 
Q 1294 -91 989 -36 
Q 684 19 347 128 
L 347 722 
Q 666 556 975 473 
Q 1284 391 1588 391 
Q 1994 391 2212 530 
Q 2431 669 2431 922 
Q 2431 1156 2273 1281 
Q 2116 1406 1581 1522 
L 1381 1569 
Q 847 1681 609 1914 
Q 372 2147 372 2553 
Q 372 3047 722 3315 
Q 1072 3584 1716 3584 
Q 2034 3584 2315 3537 
Q 2597 3491 2834 3397 
z
" transform="scale(0.015625)"/>
       <path id="DejaVuSans-5b" d="M 550 4863 
L 1875 4863 
L 1875 4416 
L 1125 4416 
L 1125 -397 
L 1875 -397 
L 1875 -844 
L 550 -844 
L 550 4863 
z
" transform="scale(0.015625)"/>
       <path id="DejaVuSans-5d" d="M 1947 4863 
L 1947 -844 
L 622 -844 
L 622 -397 
L 1369 -397 
L 1369 4416 
L 622 4416 
L 622 4863 
L 1947 4863 
z
" transform="scale(0.015625)"/>
      </defs>
      <use xlink:href="#DejaVuSans-74"/>
      <use xlink:href="#DejaVuSans-69" x="39.208984"/>
      <use xlink:href="#DejaVuSans-6d" x="66.992188"/>
      <use xlink:href="#DejaVuSans-65" x="164.404297"/>
      <use xlink:href="#DejaVuSans-20" x="225.927734"/>
      <use xlink:href="#DejaVuSans-69" x="257.714844"/>
      <use xlink:href="#DejaVuSans-6e" x="285.498047"/>
      <use xlink:href="#DejaVuSans-20" x="348.876953"/>
      <use xlink:href="#DejaVuSans-68" x="380.664062"/>
      <use xlink:href="#DejaVuSans-6f" x="444.042969"/>
      <use xlink:href="#DejaVuSans-75" x="505.224609"/>
      <use xlink:href="#DejaVuSans-72" x="568.603516"/>
      <use xlink:href="#DejaVuSans-73" x="609.716797"/>
      <use xlink:href="#DejaVuSans-20" x="661.816406"/>
      <use xlink:href="#DejaVuSans-5b" x="693.603516"/>
      <use xlink:href="#DejaVuSans-68" x="732.617188"/>
      <use xlink:href="#DejaVuSans-5d" x="795.996094"/>
     </g>
    </g>
   </g>
   <g id="matplotlib.axis_2">
    <g id="ytick_1">
     <g id="line2d_15">
      <path d="M 72 363.69 
L 518.4 363.69 
" clip-path="url(#p1684f404ef)" style="fill: none; stroke: #b0b0b0; stroke-width: 0.8; stroke-linecap: square"/>
     </g>
     <g id="line2d_16">
      <defs>
       <path id="m57c1c0833c" d="M 0 0 
L -3.5 0 
" style="stroke: #000000; stroke-width: 0.8"/>
      </defs>
      <g>
       <use xlink:href="#m57c1c0833c" x="72" y="363.69" style="stroke: #000000; stroke-width: 0.8"/>
      </g>
     </g>
     <g id="text_9">
      <!-- 0.0 -->
      <g transform="translate(49.096875 367.489219) scale(0.1 -0.1)">
       <use xlink:href="#DejaVuSans-30"/>
       <use xlink:href="#DejaVuSans-2e" x="63.623047"/>
       <use xlink:href="#DejaVuSans-30" x="95.410156"/>
      </g>
     </g>
    </g>
    <g id="ytick_2">
     <g id="line2d_17">
      <path d="M 72 311.715 
L 518.4 311.715 
" clip-path="url(#p1684f404ef)" style="fill: none; stroke: #b0b0b0; stroke-width: 0.8; stroke-linecap: square"/>
     </g>
     <g id="line2d_18">
      <g>
       <use xlink:href="#m57c1c0833c" x="72" y="311.715" style="stroke: #000000; stroke-width: 0.8"/>
      </g>
     </g>
     <g id="text_10">
      <!-- 0.5 -->
      <g transform="translate(49.096875 315.514219) scale(0.1 -0.1)">
       <use xlink:href="#DejaVuSans-30"/>
       <use xlink:href="#DejaVuSans-2e" x="63.623047"/>
       <use xlink:href="#DejaVuSans-35" x="95.410156"/>
      </g>
     </g>
    </g>
    <g id="ytick_3">
     <g id="line2d_19">
      <path d="M 72 259.74 
L 518.4 259.74 
" clip-path="url(#p1684f404ef)" style="fill: none; stroke: #b0b0b0; stroke-width: 0.8; stroke-linecap: square"/>
     </g>
     <g id="line2d_20">
      <g>
       <use xlink:href="#m57c1c0833c" x="72" y="259.74" style="stroke: #000000; stroke-width: 0.8"/>
      </g>
     </g>
     <g id="text_11">
      <!-- 1.0 -->
      <g transform="translate(49.096875 263.539219) scale(0.1 -0.1)">
       <use xlink:href="#DejaVuSans-31"/>
       <use xlink:href="#DejaVuSans-2e" x="63.623047"/>
       <use xlink:href="#DejaVuSans-30" x="95.410156"/>
      </g>
     </g>
    </g>
    <g id="ytick_4">
     <g id="line2d_21">
      <path d="M 72 207.765 
L 518.4 207.765 
" clip-path="url(#p1684f404ef)" style="fill: none; stroke: #b0b0b0; stroke-width: 0.8; stroke-linecap: square"/>
     </g>
     <g id="line2d_22">
      <g>
       <use xlink:href="#m57c1c0833c" x="72" y="207.765" style="stroke: #000000; stroke-width: 0.8"/>
      </g>
     </g>
     <g id="text_12">
      <!-- 1.5 -->
      <g transform="translate(49.096875 211.564219) scale(0.1 -0.1)">
       <use xlink:href="#DejaVuSans-31"/>
       <use xlink:href="#DejaVuSans-2e" x="63.623047"/>
       <use xlink:href="#DejaVuSans-35" x="95.410156"/>
      </g>
     </g>
    </g>
    <g id="ytick_5">
     <g id="line2d_23">
      <path d="M 72 155.79 
L 518.4 155.79 
" clip-path="url(#p1684f404ef)" style="fill: none; stroke: #b0b0b0; stroke-width: 0.8; stroke-linecap: square"/>
     </g>
     <g id="line2d_24">
      <g>
       <use xlink:href="#m57c1c0833c" x="72" y="155.79" style="stroke: #000000; stroke-width: 0.8"/>
      </g>
     </g>
     <g id="text_13">
      <!-- 2.0 -->
      <g transform="translate(49.096875 159.589219) scale(0.1 -0.1)">
       <use xlink:href="#DejaVuSans-32"/>
       <use xlink:href="#DejaVuSans-2e" x="63.623047"/>
       <use xlink:href="#DejaVuSans-30" x="95.410156"/>
      </g>
     </g>
    </g>
    <g id="ytick_6">
     <g id="line2d_25">
      <path d="M 72 103.815 
L 518.4 103.815 
" clip-path="url(#p1684f404ef)" style="fill: none; stroke: #b0b0b0; stroke-width: 0.8; stroke-linecap: square"/>
     </g>
     <g id="line2d_26">
      <g>
       <use xlink:href="#m57c1c0833c" x="72" y="103.815" style="stroke: #000000; stroke-width: 0.8"/>
      </g>
     </g>
     <g id="text_14">
      <!-- 2.5 -->
      <g transform="translate(49.096875 107.614219) scale(0.1 -0.1)">
       <use xlink:href="#DejaVuSans-32"/>
       <use xlink:href="#DejaVuSans-2e" x="63.623047"/>
       <use xlink:href="#DejaVuSans-35" x="95.410156"/>
      </g>
     </g>
    </g>
    <g id="ytick_7">
     <g id="line2d_27">
      <path d="M 72 51.84 
L 518.4 51.84 
" clip-path="url(#p1684f404ef)" style="fill: none; stroke: #b0b0b0; stroke-width: 0.8; stroke-linecap: square"/>
     </g>
     <g id="line2d_28">
      <g>
       <use xlink:href="#m57c1c0833c" x="72" y="51.84" style="stroke: #000000; stroke-width: 0.8"/>
      </g>
     </g>
     <g id="text_15">
      <!-- 3.0 -->
      <g transform="translate(49.096875 55.639219) scale(0.1 -0.1)">
       <use xlink:href="#DejaVuSans-33"/>
       <use xlink:href="#DejaVuSans-2e" x="63.623047"/>
       <use xlink:href="#DejaVuSans-30" x="95.410156"/>
      </g>
     </g>
    </g>
    <g id="text_16">
     <!-- blank corrected OD600 -->
     <g transform="translate(43.017187 276.115469) rotate(-90) scale(0.1 -0.1)">
      <defs>
       <path id="DejaVuSans-62" d="M 3116 1747 
Q 3116 2381 2855 2742 
Q 2594 3103 2138 3103 
Q 1681 3103 1420 2742 
Q 1159 2381 1159 1747 
Q 1159 1113 1420 752 
Q 1681 391 2138 391 
Q 2594 391 2855 752 
Q 3116 1113 3116 1747 
z
M 1159 2969 
Q 1341 3281 1617 3432 
Q 1894 3584 2278 3584 
Q 2916 3584 3314 3078 
Q 3713 2572 3713 1747 
Q 3713 922 3314 415 
Q 2916 -91 2278 -91 
Q 1894 -91 1617 61 
Q 1341 213 1159 525 
L 1159 0 
L 581 0 
L 581 4863 
L 1159 4863 
L 1159 2969 
z
" transform="scale(0.015625)"/>
       <path id="DejaVuSans-6c" d="M 603 4863 
L 1178 4863 
L 1178 0 
L 603 0 
L 603 4863 
z
" transform="scale(0.015625)"/>
       <path id="DejaVuSans-61" d="M 2194 1759 
Q 1497 1759 1228 1600 
Q 959 1441 959 1056 
Q 959 750 1161 570 
Q 1363 391 1709 391 
Q 2188 391 2477 730 
Q 2766 1069 2766 1631 
L 2766 1759 
L 2194 1759 
z
M 3341 1997 
L 3341 0 
L 2766 0 
L 2766 531 
Q 2569 213 2275 61 
Q 1981 -91 1556 -91 
Q 1019 -91 701 211 
Q 384 513 384 1019 
Q 384 1609 779 1909 
Q 1175 2209 1959 2209 
L 2766 2209 
L 2766 2266 
Q 2766 2663 2505 2880 
Q 2244 3097 1772 3097 
Q 1472 3097 1187 3025 
Q 903 2953 641 2809 
L 641 3341 
Q 956 3463 1253 3523 
Q 1550 3584 1831 3584 
Q 2591 3584 2966 3190 
Q 3341 2797 3341 1997 
z
" transform="scale(0.015625)"/>
       <path id="DejaVuSans-6b" d="M 581 4863 
L 1159 4863 
L 1159 1991 
L 2875 3500 
L 3609 3500 
L 1753 1863 
L 3688 0 
L 2938 0 
L 1159 1709 
L 1159 0 
L 581 0 
L 581 4863 
z
" transform="scale(0.015625)"/>
       <path id="DejaVuSans-63" d="M 3122 3366 
L 3122 2828 
Q 2878 2963 2633 3030 
Q 2388 3097 2138 3097 
Q 1578 3097 1268 2742 
Q 959 2388 959 1747 
Q 959 1106 1268 751 
Q 1578 397 2138 397 
Q 2388 397 2633 464 
Q 2878 531 3122 666 
L 3122 134 
Q 2881 22 2623 -34 
Q 2366 -91 2075 -91 
Q 1284 -91 818 406 
Q 353 903 353 1747 
Q 353 2603 823 3093 
Q 1294 3584 2113 3584 
Q 2378 3584 2631 3529 
Q 2884 3475 3122 3366 
z
" transform="scale(0.015625)"/>
       <path id="DejaVuSans-64" d="M 2906 2969 
L 2906 4863 
L 3481 4863 
L 3481 0 
L 2906 0 
L 2906 525 
Q 2725 213 2448 61 
Q 2172 -91 1784 -91 
Q 1150 -91 751 415 
Q 353 922 353 1747 
Q 353 2572 751 3078 
Q 1150 3584 1784 3584 
Q 2172 3584 2448 3432 
Q 2725 3281 2906 2969 
z
M 947 1747 
Q 947 1113 1208 752 
Q 1469 391 1925 391 
Q 2381 391 2643 752 
Q 2906 1113 2906 1747 
Q 2906 2381 2643 2742 
Q 2381 3103 1925 3103 
Q 1469 3103 1208 2742 
Q 947 2381 947 1747 
z
" transform="scale(0.015625)"/>
       <path id="DejaVuSans-4f" d="M 2522 4238 
Q 1834 4238 1429 3725 
Q 1025 3213 1025 2328 
Q 1025 1447 1429 934 
Q 1834 422 2522 422 
Q 3209 422 3611 934 
Q 4013 1447 4013 2328 
Q 4013 3213 3611 3725 
Q 3209 4238 2522 4238 
z
M 2522 4750 
Q 3503 4750 4090 4092 
Q 4678 3434 4678 2328 
Q 4678 1225 4090 567 
Q 3503 -91 2522 -91 
Q 1538 -91 948 565 
Q 359 1222 359 2328 
Q 359 3434 948 4092 
Q 1538 4750 2522 4750 
z
" transform="scale(0.015625)"/>
       <path id="DejaVuSans-44" d="M 1259 4147 
L 1259 519 
L 2022 519 
Q 2988 519 3436 956 
Q 3884 1394 3884 2338 
Q 3884 3275 3436 3711 
Q 2988 4147 2022 4147 
L 1259 4147 
z
M 628 4666 
L 1925 4666 
Q 3281 4666 3915 4102 
Q 4550 3538 4550 2338 
Q 4550 1131 3912 565 
Q 3275 0 1925 0 
L 628 0 
L 628 4666 
z
" transform="scale(0.015625)"/>
      </defs>
      <use xlink:href="#DejaVuSans-62"/>
      <use xlink:href="#DejaVuSans-6c" x="63.476562"/>
      <use xlink:href="#DejaVuSans-61" x="91.259766"/>
      <use xlink:href="#DejaVuSans-6e" x="152.539062"/>
      <use xlink:href="#DejaVuSans-6b" x="215.917969"/>
      <use xlink:href="#DejaVuSans-20" x="273.828125"/>
      <use xlink:href="#DejaVuSans-63" x="305.615234"/>
      <use xlink:href="#DejaVuSans-6f" x="360.595703"/>
      <use xlink:href="#DejaVuSans-72" x="421.777344"/>
      <use xlink:href="#DejaVuSans-72" x="461.140625"/>
      <use xlink:href="#DejaVuSans-65" x="500.003906"/>
      <use xlink:href="#DejaVuSans-63" x="561.527344"/>
      <use xlink:href="#DejaVuSans-74" x="616.507812"/>
      <use xlink:href="#DejaVuSans-65" x="655.716797"/>
      <use xlink:href="#DejaVuSans-64" x="717.240234"/>
      <use xlink:href="#DejaVuSans-20" x="780.716797"/>
      <use xlink:href="#DejaVuSans-4f" x="812.503906"/>
      <use xlink:href="#DejaVuSans-44" x="891.214844"/>
      <use xlink:href="#DejaVuSans-36" x="968.216797"/>
      <use xlink:href="#DejaVuSans-30" x="1031.839844"/>
      <use xlink:href="#DejaVuSans-30" x="1095.462891"/>
     </g>
    </g>
   </g>
   <g id="line2d_29">
    <path d="M 92.290909 368.76276 
L 93.933898 365.74821 
L 97.219875 366.37191 
L 98.862863 366.89166 
L 100.505852 367.09956 
L 102.148841 366.78771 
L 103.791829 366.99561 
L 105.434818 366.16401 
L 107.077806 366.37191 
L 110.363784 366.47586 
L 112.006772 366.16401 
L 113.649761 365.54031 
L 115.292749 365.22846 
L 116.935738 365.22846 
L 118.578727 365.43636 
L 120.221715 364.70871 
L 121.864704 364.81266 
L 125.150681 363.66921 
L 126.793669 364.18896 
L 128.436658 363.77316 
L 130.079647 362.94156 
L 131.722635 361.48626 
L 133.365624 361.38231 
L 135.008612 362.94156 
L 136.651601 361.69416 
L 138.29459 360.86256 
L 139.937578 360.44676 
L 143.223555 361.79811 
L 144.866544 359.51121 
L 146.509533 360.23886 
L 148.152521 359.71911 
L 149.79551 358.26381 
L 151.438498 358.47171 
L 153.081487 359.71911 
L 154.724476 358.88751 
L 156.367464 359.09541 
L 159.653441 358.47171 
L 161.29643 358.67961 
L 162.939418 358.57566 
L 164.582407 357.84801 
L 166.225396 357.95196 
L 167.868384 357.84801 
L 169.511373 358.05591 
L 172.79735 357.84801 
L 174.440339 357.53616 
L 177.726316 357.32826 
L 189.227236 354.41766 
L 190.870225 353.69001 
L 199.085167 350.98731 
L 202.371145 349.53201 
L 204.014133 349.01226 
L 205.657122 348.07671 
L 207.30011 347.45301 
L 210.586088 345.37401 
L 215.515053 343.39896 
L 217.158042 342.67131 
L 218.801031 342.25551 
L 220.444019 341.31996 
L 223.729996 339.96861 
L 227.015974 338.40936 
L 230.301951 336.85011 
L 233.587928 335.39481 
L 235.230916 334.25136 
L 236.873905 333.83556 
L 238.516894 332.48421 
L 241.802871 330.30126 
L 243.445859 329.36571 
L 245.088848 328.22226 
L 248.374825 326.35116 
L 250.017814 325.10376 
L 253.303791 323.12871 
L 258.232757 320.11416 
L 259.875745 318.24306 
L 261.518734 316.99566 
L 263.161722 316.37196 
L 266.4477 314.18901 
L 268.090688 312.52581 
L 273.019654 309.61521 
L 276.305631 307.32831 
L 279.591608 305.97696 
L 282.877586 304.10586 
L 284.520574 304.00191 
L 286.163563 303.48216 
L 287.806551 302.44266 
L 289.44954 302.44266 
L 291.092529 301.81896 
L 292.735517 301.40316 
L 294.378506 301.19526 
L 300.95046 299.63601 
L 302.593449 299.73996 
L 304.236437 299.22021 
L 307.522414 298.59651 
L 309.165403 298.49256 
L 310.808392 297.76491 
L 312.45138 297.45306 
L 314.094369 297.45306 
L 315.737357 296.82936 
L 319.023335 295.99776 
L 322.309312 295.47801 
L 323.9523 294.95826 
L 325.595289 294.95826 
L 327.238278 294.23061 
L 328.881266 293.71086 
L 330.524255 293.39901 
L 332.167243 292.87926 
L 333.810232 292.77531 
L 335.45322 291.94371 
L 338.739198 291.00816 
L 340.382186 290.07261 
L 343.668163 289.13706 
L 345.311152 288.61731 
L 346.954141 287.88966 
L 348.597129 287.36991 
L 350.240118 287.05806 
L 351.883106 286.22646 
L 353.526095 285.70671 
L 356.812072 284.04351 
L 358.455061 284.04351 
L 360.098049 283.21191 
L 361.741038 282.79611 
L 365.027015 281.34081 
L 369.955981 279.78156 
L 371.598969 279.67761 
L 373.241958 278.63811 
L 376.527935 277.91046 
L 378.170924 276.97491 
L 379.813912 276.66306 
L 381.456901 275.83146 
L 384.742878 275.20776 
L 386.385867 274.58406 
L 388.028855 273.75246 
L 391.314833 273.44061 
L 392.957821 272.71296 
L 394.60081 272.40111 
L 396.243798 271.67346 
L 399.529775 270.94581 
L 401.172764 270.63396 
L 402.815753 270.01026 
L 404.458741 269.90631 
L 406.10173 268.86681 
L 409.387707 267.93126 
L 411.030696 267.41151 
L 412.673684 267.30756 
L 415.959661 266.26806 
L 417.60265 265.54041 
L 419.245639 265.43646 
L 420.888627 265.02066 
L 424.174604 263.56536 
L 425.817593 263.35746 
L 427.460582 262.73376 
L 429.10357 262.52586 
L 430.746559 261.90216 
L 432.389547 261.48636 
L 434.032536 260.75871 
L 435.675524 260.34291 
L 438.961502 259.09551 
L 440.60449 258.67971 
L 442.247479 257.84811 
L 443.890467 257.64021 
L 447.176445 256.08096 
L 452.10541 254.83356 
L 453.748399 253.89801 
L 455.391388 253.37826 
L 457.034376 252.33876 
L 458.677365 252.13086 
L 460.320353 251.61111 
L 461.963342 251.29926 
L 463.606331 250.36371 
L 465.249319 250.36371 
L 466.892308 249.74001 
L 470.178285 249.22026 
L 471.821273 248.59656 
L 473.464262 247.76496 
L 475.107251 247.34916 
L 476.750239 247.14126 
L 478.393228 246.51756 
L 483.322194 245.78991 
L 484.965182 245.37411 
L 486.608171 244.64646 
L 489.894148 244.33461 
L 493.180125 243.39906 
L 494.823114 243.08721 
L 498.109091 242.98326 
L 498.109091 242.98326 
" clip-path="url(#p1684f404ef)" style="fill: none; stroke: #0000ff; stroke-opacity: 0.5; stroke-width: 1.5; stroke-linecap: square"/>
   </g>
   <g id="line2d_30">
    <path d="M 92.290909 369.17856 
L 93.933898 365.33241 
L 95.576886 365.54031 
L 97.219875 365.33241 
L 98.862863 364.60476 
L 100.505852 365.33241 
L 105.434818 365.33241 
L 110.363784 364.70871 
L 112.006772 364.08501 
L 113.649761 364.60476 
L 115.292749 363.77316 
L 118.578727 364.29291 
L 120.221715 364.29291 
L 121.864704 363.87711 
L 123.507692 364.50081 
L 125.150681 364.29291 
L 126.793669 364.81266 
L 130.079647 363.77316 
L 131.722635 364.39686 
L 135.008612 363.77316 
L 136.651601 362.83761 
L 138.29459 363.66921 
L 139.937578 363.66921 
L 141.580567 363.04551 
L 143.223555 363.46131 
L 148.152521 362.00601 
L 149.79551 361.90206 
L 151.438498 362.10996 
L 153.081487 361.90206 
L 154.724476 360.86256 
L 156.367464 361.17441 
L 158.010453 361.07046 
L 159.653441 360.55071 
L 161.29643 360.75861 
L 162.939418 360.13491 
L 171.154361 359.19936 
L 176.083327 357.64011 
L 179.369304 357.01641 
L 181.012293 356.39271 
L 182.655282 355.56111 
L 184.29827 355.14531 
L 185.941259 354.93741 
L 187.584247 354.93741 
L 192.513213 354.31371 
L 195.79919 353.37816 
L 199.085167 352.44261 
L 202.371145 351.40311 
L 208.943099 348.38856 
L 212.229076 346.72536 
L 213.872065 346.51746 
L 215.515053 345.89376 
L 217.158042 344.54241 
L 218.801031 344.33451 
L 220.444019 343.91871 
L 222.087008 343.19106 
L 223.729996 342.87921 
L 225.372985 342.77526 
L 227.015974 342.04761 
L 228.658962 341.63181 
L 230.301951 340.59231 
L 231.944939 340.17651 
L 233.587928 339.24096 
L 235.230916 337.99356 
L 236.873905 337.57776 
L 238.516894 335.70666 
L 240.159882 334.66716 
L 241.802871 333.41976 
L 245.088848 331.44471 
L 246.731837 330.19731 
L 248.374825 329.46966 
L 250.017814 328.01436 
L 253.303791 326.24721 
L 254.94678 324.99981 
L 256.589768 324.48006 
L 258.232757 323.64846 
L 259.875745 322.29711 
L 263.161722 321.46551 
L 264.804711 320.73786 
L 266.4477 319.69836 
L 268.090688 318.45096 
L 269.733677 317.41146 
L 273.019654 314.70876 
L 274.662643 313.66926 
L 276.305631 311.90211 
L 277.94862 310.65471 
L 279.591608 309.61521 
L 281.234597 308.26386 
L 282.877586 307.32831 
L 286.163563 305.97696 
L 287.806551 305.04141 
L 289.44954 304.83351 
L 291.092529 304.10586 
L 292.735517 303.89796 
L 294.378506 304.41771 
L 296.021494 304.52166 
L 297.664483 304.41771 
L 299.307471 304.00191 
L 300.95046 303.79401 
L 304.236437 302.85846 
L 305.879426 301.92291 
L 307.522414 301.61106 
L 309.165403 300.88341 
L 310.808392 299.94786 
L 315.737357 298.49256 
L 322.309312 297.66096 
L 323.9523 297.14121 
L 327.238278 297.86886 
L 328.881266 297.76491 
L 330.524255 298.38861 
L 332.167243 298.38861 
L 333.810232 297.97281 
L 335.45322 297.24516 
L 337.096209 297.24516 
L 338.739198 296.51751 
L 343.668163 293.81481 
L 345.311152 293.39901 
L 346.954141 292.56741 
L 348.597129 292.04766 
L 350.240118 290.69631 
L 351.883106 290.07261 
L 353.526095 289.24101 
L 355.169084 288.82521 
L 358.455061 287.47386 
L 360.098049 286.22646 
L 361.741038 286.53831 
L 363.384026 285.91461 
L 365.027015 286.01856 
L 366.670004 285.91461 
L 368.312992 286.01856 
L 369.955981 285.49881 
L 371.598969 285.91461 
L 374.884947 284.14746 
L 376.527935 283.93956 
L 378.170924 282.69216 
L 381.456901 280.71711 
L 383.09989 280.40526 
L 384.742878 279.88551 
L 386.385867 278.74206 
L 388.028855 277.80651 
L 389.671844 277.91046 
L 392.957821 277.39071 
L 394.60081 277.59861 
L 401.172764 276.87096 
L 406.10173 274.99986 
L 407.744718 274.99986 
L 411.030696 273.23271 
L 415.959661 270.94581 
L 419.245639 268.97076 
L 420.888627 268.65891 
L 422.531616 267.72336 
L 424.174604 267.82731 
L 425.817593 267.30756 
L 427.460582 266.47596 
L 429.10357 266.78781 
L 432.389547 267.09966 
L 434.032536 266.78781 
L 435.675524 266.68386 
L 437.318513 265.95621 
L 438.961502 265.64436 
L 440.60449 265.02066 
L 442.247479 264.60486 
L 447.176445 261.79821 
L 448.819433 260.55081 
L 450.462422 260.13501 
L 453.748399 258.05601 
L 455.391388 257.64021 
L 457.034376 255.97701 
L 460.320353 255.66516 
L 461.963342 255.14541 
L 463.606331 254.31381 
L 465.249319 254.20986 
L 466.892308 254.31381 
L 468.535296 253.69011 
L 470.178285 253.89801 
L 471.821273 253.89801 
L 473.464262 253.37826 
L 476.750239 252.65061 
L 480.036216 251.50716 
L 483.322194 249.53211 
L 484.965182 249.01236 
L 486.608171 248.07681 
L 488.251159 246.93336 
L 489.894148 245.99781 
L 491.537137 245.78991 
L 494.823114 244.85436 
L 496.466102 244.33461 
L 498.109091 244.12671 
L 498.109091 244.12671 
" clip-path="url(#p1684f404ef)" style="fill: none; stroke: #0000ff; stroke-opacity: 0.5; stroke-width: 1.5; stroke-linecap: square"/>
   </g>
   <g id="line2d_31">
    <path d="M 92.290909 368.97066 
L 93.933898 365.33241 
L 95.576886 365.54031 
L 97.219875 365.43636 
L 98.862863 364.60476 
L 103.791829 364.50081 
L 105.434818 364.18896 
L 107.077806 364.39686 
L 110.363784 364.08501 
L 112.006772 363.87711 
L 113.649761 364.39686 
L 115.292749 363.56526 
L 116.935738 363.56526 
L 118.578727 363.98106 
L 120.221715 363.87711 
L 121.864704 362.62971 
L 123.507692 363.25341 
L 125.150681 362.94156 
L 126.793669 363.04551 
L 128.436658 362.94156 
L 131.722635 362.42181 
L 133.365624 362.62971 
L 135.008612 362.00601 
L 136.651601 360.86256 
L 138.29459 360.86256 
L 139.937578 361.17441 
L 141.580567 360.96651 
L 143.223555 361.17441 
L 144.866544 361.07046 
L 148.152521 359.92701 
L 149.79551 360.03096 
L 151.438498 359.82306 
L 153.081487 359.82306 
L 154.724476 359.09541 
L 156.367464 359.30331 
L 161.29643 359.30331 
L 162.939418 358.57566 
L 166.225396 358.67961 
L 169.511373 357.84801 
L 171.154361 357.95196 
L 174.440339 357.01641 
L 176.083327 356.28876 
L 177.726316 355.97691 
L 179.369304 356.08086 
L 181.012293 355.35321 
L 182.655282 355.24926 
L 184.29827 354.41766 
L 185.941259 354.62556 
L 187.584247 354.52161 
L 189.227236 354.20976 
L 190.870225 353.58606 
L 195.79919 352.23471 
L 200.728156 350.46756 
L 202.371145 350.05176 
L 207.30011 347.66091 
L 208.943099 346.93326 
L 210.586088 345.99771 
L 215.515053 344.33451 
L 217.158042 343.39896 
L 218.801031 343.29501 
L 220.444019 342.67131 
L 222.087008 342.67131 
L 223.729996 341.63181 
L 225.372985 341.21601 
L 228.658962 339.55281 
L 230.301951 338.51331 
L 231.944939 337.99356 
L 235.230916 336.01851 
L 236.873905 335.39481 
L 238.516894 333.83556 
L 240.159882 332.58816 
L 241.802871 331.75656 
L 243.445859 330.30126 
L 245.088848 329.05386 
L 248.374825 327.07881 
L 250.017814 325.62351 
L 253.303791 323.85636 
L 254.94678 322.60896 
L 256.589768 322.40106 
L 258.232757 321.77736 
L 268.090688 315.43641 
L 269.733677 314.29296 
L 271.376665 312.62976 
L 274.662643 310.65471 
L 277.94862 307.84806 
L 281.234597 305.87301 
L 282.877586 304.83351 
L 284.520574 304.41771 
L 286.163563 303.69006 
L 287.806551 303.17031 
L 292.735517 303.06636 
L 294.378506 303.37821 
L 296.021494 302.65056 
L 297.664483 302.23476 
L 299.307471 301.61106 
L 302.593449 301.40316 
L 304.236437 300.98736 
L 305.879426 300.25971 
L 307.522414 300.05181 
L 309.165403 299.42811 
L 310.808392 298.59651 
L 312.45138 297.97281 
L 317.380346 297.34911 
L 319.023335 296.30961 
L 320.666323 296.41356 
L 323.9523 296.10171 
L 325.595289 296.20566 
L 327.238278 296.82936 
L 328.881266 297.03726 
L 332.167243 295.99776 
L 333.810232 295.99776 
L 335.45322 294.75036 
L 337.096209 294.95826 
L 338.739198 294.33456 
L 340.382186 293.29506 
L 342.025175 292.87926 
L 343.668163 291.83976 
L 345.311152 291.21606 
L 346.954141 290.28051 
L 348.597129 289.76076 
L 350.240118 288.51336 
L 351.883106 287.99361 
L 353.526095 286.95411 
L 356.812072 285.81066 
L 358.455061 285.60276 
L 360.098049 284.66721 
L 361.741038 284.56326 
L 363.384026 284.14746 
L 365.027015 284.66721 
L 366.670004 284.45931 
L 368.312992 284.56326 
L 369.955981 283.62771 
L 371.598969 283.62771 
L 373.241958 282.17241 
L 374.884947 281.65266 
L 376.527935 281.34081 
L 378.170924 280.30131 
L 379.813912 279.46971 
L 381.456901 278.32626 
L 383.09989 277.91046 
L 384.742878 277.28676 
L 388.028855 275.41566 
L 391.314833 274.99986 
L 392.957821 274.37616 
L 394.60081 274.58406 
L 396.243798 274.27221 
L 397.886787 274.58406 
L 399.529775 274.48011 
L 406.10173 272.40111 
L 407.744718 272.08926 
L 419.245639 266.89176 
L 420.888627 266.89176 
L 422.531616 265.33251 
L 424.174604 265.22856 
L 425.817593 264.60486 
L 429.10357 264.08511 
L 430.746559 263.66931 
L 432.389547 264.08511 
L 435.675524 264.39696 
L 437.318513 263.87721 
L 438.961502 262.83771 
L 443.890467 260.86266 
L 445.533456 259.92711 
L 447.176445 259.19946 
L 448.819433 258.05601 
L 453.748399 255.35331 
L 455.391388 255.04146 
L 457.034376 253.58616 
L 458.677365 253.48221 
L 461.963342 252.75456 
L 463.606331 251.71506 
L 465.249319 251.29926 
L 471.821273 251.81901 
L 473.464262 251.29926 
L 476.750239 250.57161 
L 478.393228 249.42816 
L 480.036216 249.53211 
L 481.679205 248.49261 
L 483.322194 247.76496 
L 484.965182 247.24521 
L 486.608171 246.10176 
L 488.251159 245.37411 
L 489.894148 244.33461 
L 491.537137 243.71091 
L 493.180125 243.81486 
L 494.823114 242.98326 
L 496.466102 242.35956 
L 498.109091 241.94376 
L 498.109091 241.94376 
" clip-path="url(#p1684f404ef)" style="fill: none; stroke: #0000ff; stroke-opacity: 0.5; stroke-width: 1.5; stroke-linecap: square"/>
   </g>
   <g id="line2d_32">
    <path d="M 92.290909 366.16401 
L 93.933898 364.70871 
L 95.576886 365.43636 
L 97.219875 365.02056 
L 98.862863 364.08501 
L 103.791829 363.87711 
L 107.077806 363.87711 
L 108.720795 363.66921 
L 110.363784 363.98106 
L 112.006772 363.46131 
L 113.649761 363.66921 
L 115.292749 362.83761 
L 118.578727 363.46131 
L 120.221715 363.04551 
L 121.864704 362.10996 
L 123.507692 362.83761 
L 125.150681 362.10996 
L 126.793669 362.42181 
L 130.079647 361.90206 
L 131.722635 362.10996 
L 133.365624 361.69416 
L 135.008612 361.69416 
L 136.651601 360.75861 
L 138.29459 360.75861 
L 139.937578 361.07046 
L 141.580567 360.65466 
L 144.866544 360.44676 
L 146.509533 359.92701 
L 149.79551 359.51121 
L 151.438498 359.51121 
L 154.724476 358.78356 
L 156.367464 358.78356 
L 158.010453 358.57566 
L 159.653441 358.67961 
L 161.29643 358.57566 
L 162.939418 358.26381 
L 164.582407 358.26381 
L 167.868384 357.74406 
L 169.511373 357.12036 
L 171.154361 357.32826 
L 172.79735 356.91246 
L 174.440339 356.28876 
L 176.083327 355.45716 
L 177.726316 355.14531 
L 179.369304 355.04136 
L 181.012293 354.52161 
L 182.655282 354.20976 
L 184.29827 353.69001 
L 185.941259 354.10581 
L 189.227236 353.37816 
L 190.870225 352.65051 
L 200.728156 349.53201 
L 205.657122 347.34906 
L 210.586088 344.64636 
L 213.872065 343.91871 
L 217.158042 342.25551 
L 218.801031 342.87921 
L 220.444019 342.04761 
L 222.087008 341.63181 
L 223.729996 340.59231 
L 230.301951 337.57776 
L 235.230916 334.87506 
L 236.873905 334.14741 
L 238.516894 332.58816 
L 240.159882 331.34076 
L 241.802871 330.50916 
L 245.088848 327.70251 
L 251.660802 323.23266 
L 253.303791 322.50501 
L 256.589768 321.77736 
L 258.232757 320.42601 
L 269.733677 312.52581 
L 271.376665 310.96656 
L 276.305631 307.74411 
L 277.94862 306.28881 
L 282.877586 303.58611 
L 286.163563 302.44266 
L 287.806551 302.75451 
L 289.44954 303.27426 
L 291.092529 302.23476 
L 292.735517 302.02686 
L 294.378506 302.02686 
L 296.021494 301.50711 
L 297.664483 301.19526 
L 299.307471 300.57156 
L 302.593449 300.25971 
L 304.236437 300.25971 
L 305.879426 299.11626 
L 307.522414 299.22021 
L 310.808392 297.66096 
L 314.094369 296.51751 
L 315.737357 296.62146 
L 317.380346 296.10171 
L 319.023335 295.27011 
L 320.666323 295.47801 
L 322.309312 295.27011 
L 323.9523 295.78986 
L 325.595289 296.51751 
L 327.238278 295.78986 
L 330.524255 295.27011 
L 332.167243 294.85431 
L 333.810232 294.75036 
L 335.45322 293.60691 
L 337.096209 293.71086 
L 338.739198 293.19111 
L 340.382186 291.94371 
L 342.025175 291.42396 
L 346.954141 288.82521 
L 348.597129 288.40941 
L 350.240118 287.26596 
L 351.883106 286.74621 
L 353.526095 285.91461 
L 355.169084 285.39486 
L 356.812072 284.56326 
L 358.455061 284.35536 
L 360.098049 283.62771 
L 361.741038 284.04351 
L 363.384026 283.93956 
L 365.027015 284.25141 
L 366.670004 283.52376 
L 368.312992 283.31586 
L 369.955981 282.17241 
L 371.598969 282.38031 
L 373.241958 281.02896 
L 376.527935 279.88551 
L 378.170924 278.63811 
L 379.813912 278.22231 
L 381.456901 276.76701 
L 384.742878 276.03936 
L 388.028855 273.85641 
L 389.671844 273.75246 
L 391.314833 274.06431 
L 392.957821 273.44061 
L 394.60081 273.75246 
L 396.243798 273.54456 
L 397.886787 273.54456 
L 401.172764 272.81691 
L 402.815753 271.98531 
L 406.10173 271.46556 
L 409.387707 270.42606 
L 411.030696 269.49051 
L 414.316673 268.13916 
L 415.959661 267.51546 
L 417.60265 266.26806 
L 419.245639 265.43646 
L 420.888627 265.64436 
L 422.531616 264.08511 
L 424.174604 263.98116 
L 429.10357 262.94166 
L 432.389547 263.56536 
L 435.675524 263.35746 
L 437.318513 262.52586 
L 438.961502 262.00611 
L 440.60449 261.07056 
L 443.890467 260.03106 
L 445.533456 258.99156 
L 447.176445 258.47181 
L 448.819433 256.91256 
L 450.462422 255.97701 
L 452.10541 255.35331 
L 453.748399 254.10591 
L 455.391388 253.69011 
L 457.034376 252.54666 
L 458.677365 252.33876 
L 460.320353 251.61111 
L 461.963342 251.09136 
L 463.606331 250.88346 
L 465.249319 250.46766 
L 468.535296 251.09136 
L 470.178285 250.98741 
L 471.821273 250.36371 
L 473.464262 250.05186 
L 475.107251 249.42816 
L 476.750239 249.22026 
L 478.393228 248.59656 
L 480.036216 248.18076 
L 481.679205 247.55706 
L 483.322194 246.51756 
L 484.965182 245.89386 
L 486.608171 244.95831 
L 489.894148 243.60696 
L 491.537137 242.77536 
L 493.180125 242.35956 
L 494.823114 241.73586 
L 498.109091 241.63191 
L 498.109091 241.63191 
" clip-path="url(#p1684f404ef)" style="fill: none; stroke: #0000ff; stroke-opacity: 0.5; stroke-width: 1.5; stroke-linecap: square"/>
   </g>
   <g id="line2d_33">
    <path d="M 92.290909 369.38646 
L 93.933898 366.99561 
L 97.219875 365.85216 
L 98.862863 365.12451 
L 100.505852 365.33241 
L 102.148841 364.50081 
L 103.791829 364.18896 
L 105.434818 364.39686 
L 108.720795 364.18896 
L 110.363784 364.50081 
L 112.006772 364.60476 
L 113.649761 365.33241 
L 115.292749 364.70871 
L 116.935738 365.02056 
L 118.578727 365.85216 
L 120.221715 364.60476 
L 121.864704 363.56526 
L 123.507692 365.12451 
L 125.150681 365.12451 
L 126.793669 365.33241 
L 130.079647 364.18896 
L 131.722635 363.87711 
L 133.365624 364.50081 
L 135.008612 364.50081 
L 136.651601 362.62971 
L 138.29459 363.25341 
L 139.937578 363.25341 
L 141.580567 362.62971 
L 143.223555 362.52576 
L 144.866544 360.34281 
L 146.509533 362.10996 
L 148.152521 361.48626 
L 149.79551 361.90206 
L 151.438498 360.75861 
L 153.081487 360.96651 
L 154.724476 360.23886 
L 156.367464 360.75861 
L 158.010453 360.03096 
L 159.653441 359.92701 
L 161.29643 360.34281 
L 162.939418 359.30331 
L 164.582407 358.88751 
L 166.225396 359.19936 
L 167.868384 359.09541 
L 169.511373 358.36776 
L 171.154361 358.47171 
L 172.79735 357.32826 
L 177.726316 355.76901 
L 179.369304 355.76901 
L 181.012293 355.24926 
L 185.941259 355.35321 
L 187.584247 354.83346 
L 189.227236 354.72951 
L 190.870225 354.10581 
L 192.513213 353.79396 
L 194.156202 353.17026 
L 197.442179 352.23471 
L 199.085167 351.61101 
L 200.728156 351.29916 
L 204.014133 349.94781 
L 208.943099 347.34906 
L 210.586088 346.30956 
L 213.872065 345.58191 
L 215.515053 345.37401 
L 217.158042 344.95821 
L 218.801031 344.75031 
L 220.444019 344.02266 
L 222.087008 343.60686 
L 223.729996 342.67131 
L 228.658962 340.48836 
L 230.301951 339.55281 
L 231.944939 338.92911 
L 233.587928 338.09751 
L 235.230916 337.05801 
L 236.873905 336.74616 
L 238.516894 335.29086 
L 240.159882 334.25136 
L 241.802871 333.00396 
L 243.445859 332.06841 
L 246.731837 329.26176 
L 248.374825 328.43016 
L 250.017814 327.39066 
L 251.660802 326.66301 
L 253.303791 326.76696 
L 254.94678 326.24721 
L 259.875745 322.50501 
L 263.161722 320.63391 
L 269.733677 316.06011 
L 271.376665 314.60481 
L 273.019654 313.87716 
L 274.662643 312.42186 
L 276.305631 311.27841 
L 277.94862 309.82311 
L 279.591608 308.57571 
L 281.234597 307.64016 
L 282.877586 306.91251 
L 284.520574 305.97696 
L 286.163563 305.56116 
L 287.806551 306.08091 
L 289.44954 306.18486 
L 291.092529 305.04141 
L 292.735517 304.62561 
L 294.378506 304.41771 
L 296.021494 303.79401 
L 297.664483 303.79401 
L 299.307471 302.85846 
L 300.95046 302.54661 
L 302.593449 302.54661 
L 304.236437 302.02686 
L 305.879426 301.19526 
L 307.522414 300.77946 
L 309.165403 300.57156 
L 310.808392 300.05181 
L 312.45138 299.73996 
L 314.094369 299.11626 
L 317.380346 298.59651 
L 319.023335 298.38861 
L 320.666323 298.49256 
L 322.309312 299.11626 
L 323.9523 299.01231 
L 325.595289 299.11626 
L 328.881266 298.38861 
L 330.524255 298.18071 
L 332.167243 298.18071 
L 333.810232 297.66096 
L 335.45322 296.72541 
L 337.096209 297.14121 
L 338.739198 296.51751 
L 340.382186 295.27011 
L 342.025175 294.43851 
L 343.668163 294.02271 
L 346.954141 292.25556 
L 348.597129 291.63186 
L 350.240118 290.59236 
L 351.883106 290.17656 
L 356.812072 288.20151 
L 358.455061 288.30546 
L 360.098049 287.99361 
L 361.741038 288.51336 
L 363.384026 288.40941 
L 366.670004 287.05806 
L 368.312992 286.85016 
L 369.955981 285.81066 
L 371.598969 286.22646 
L 373.241958 284.66721 
L 374.884947 284.45931 
L 376.527935 284.04351 
L 378.170924 282.58821 
L 379.813912 281.96451 
L 381.456901 280.50921 
L 383.09989 280.40526 
L 384.742878 279.98946 
L 386.385867 278.74206 
L 389.671844 277.80651 
L 391.314833 278.43021 
L 392.957821 278.22231 
L 394.60081 278.74206 
L 396.243798 277.59861 
L 399.529775 276.55911 
L 401.172764 276.76701 
L 404.458741 275.31171 
L 409.387707 273.96036 
L 411.030696 273.02481 
L 412.673684 272.60901 
L 414.316673 271.67346 
L 415.959661 270.42606 
L 419.245639 268.55496 
L 420.888627 268.76286 
L 422.531616 267.51546 
L 425.817593 266.57991 
L 429.10357 266.47596 
L 430.746559 266.68386 
L 432.389547 267.61941 
L 434.032536 266.89176 
L 435.675524 266.89176 
L 437.318513 266.16411 
L 440.60449 265.02066 
L 443.890467 263.77326 
L 447.176445 261.69426 
L 448.819433 260.23896 
L 450.462422 260.13501 
L 452.10541 259.19946 
L 453.748399 258.05601 
L 455.391388 257.64021 
L 457.034376 256.28886 
L 460.320353 255.24936 
L 461.963342 255.14541 
L 463.606331 254.31381 
L 465.249319 254.52171 
L 466.892308 255.04146 
L 470.178285 255.04146 
L 471.821273 254.52171 
L 473.464262 253.69011 
L 475.107251 253.37826 
L 476.750239 252.65061 
L 478.393228 251.71506 
L 480.036216 251.71506 
L 481.679205 250.77951 
L 483.322194 249.53211 
L 484.965182 249.22026 
L 486.608171 248.07681 
L 488.251159 247.34916 
L 489.894148 246.30966 
L 491.537137 245.89386 
L 494.823114 244.64646 
L 496.466102 244.43856 
L 498.109091 244.54251 
L 498.109091 244.54251 
" clip-path="url(#p1684f404ef)" style="fill: none; stroke: #0000ff; stroke-opacity: 0.5; stroke-width: 1.5; stroke-linecap: square"/>
   </g>
   <g id="line2d_34">
    <path d="M 92.290909 367.30746 
L 93.933898 366.78771 
L 95.576886 365.54031 
L 97.219875 365.64426 
L 98.862863 364.81266 
L 100.505852 365.54031 
L 102.148841 365.12451 
L 103.791829 365.54031 
L 105.434818 365.64426 
L 107.077806 365.33241 
L 108.720795 364.81266 
L 110.363784 363.87711 
L 112.006772 363.66921 
L 113.649761 363.66921 
L 115.292749 363.87711 
L 116.935738 362.21391 
L 118.578727 363.04551 
L 120.221715 361.38231 
L 121.864704 362.42181 
L 123.507692 363.66921 
L 125.150681 362.62971 
L 126.793669 364.50081 
L 128.436658 363.77316 
L 130.079647 364.08501 
L 131.722635 362.42181 
L 133.365624 364.70871 
L 135.008612 364.50081 
L 136.651601 363.25341 
L 138.29459 362.62971 
L 139.937578 363.98106 
L 141.580567 362.52576 
L 143.223555 362.52576 
L 144.866544 361.27836 
L 146.509533 361.17441 
L 148.152521 361.38231 
L 149.79551 359.30331 
L 151.438498 361.27836 
L 153.081487 359.40726 
L 154.724476 360.55071 
L 156.367464 359.09541 
L 159.653441 357.95196 
L 161.29643 358.99146 
L 162.939418 358.15986 
L 164.582407 358.26381 
L 166.225396 357.64011 
L 167.868384 358.05591 
L 169.511373 357.84801 
L 171.154361 356.18481 
L 172.79735 356.91246 
L 174.440339 356.28876 
L 176.083327 357.12036 
L 177.726316 356.39271 
L 179.369304 355.87296 
L 184.29827 355.56111 
L 189.227236 354.31371 
L 200.728156 349.84386 
L 202.371145 348.90831 
L 204.014133 348.59646 
L 205.657122 347.66091 
L 207.30011 346.51746 
L 210.586088 345.06216 
L 212.229076 343.91871 
L 213.872065 343.71081 
L 215.515053 343.81476 
L 217.158042 343.50291 
L 218.801031 342.87921 
L 220.444019 341.94366 
L 222.087008 341.52786 
L 223.729996 340.59231 
L 228.658962 338.51331 
L 230.301951 337.47381 
L 233.587928 335.91456 
L 236.873905 334.56321 
L 238.516894 333.00396 
L 240.159882 331.96446 
L 241.802871 331.23681 
L 243.445859 329.57361 
L 245.088848 328.11831 
L 246.731837 326.87091 
L 248.374825 326.03931 
L 250.017814 325.41561 
L 251.660802 324.58401 
L 253.303791 324.27216 
L 259.875745 319.38651 
L 261.518734 318.55491 
L 266.4477 315.22851 
L 268.090688 313.77321 
L 269.733677 312.73371 
L 271.376665 310.96656 
L 273.019654 310.34286 
L 274.662643 309.40731 
L 276.305631 308.26386 
L 277.94862 306.70461 
L 281.234597 304.31376 
L 282.877586 303.69006 
L 284.520574 303.48216 
L 286.163563 303.69006 
L 287.806551 303.27426 
L 289.44954 303.27426 
L 291.092529 302.33871 
L 294.378506 301.61106 
L 297.664483 301.19526 
L 299.307471 300.67551 
L 302.593449 300.36366 
L 304.236437 299.73996 
L 305.879426 298.90836 
L 309.165403 298.90836 
L 310.808392 298.38861 
L 312.45138 297.55701 
L 314.094369 297.45306 
L 315.737357 296.82936 
L 317.380346 296.72541 
L 319.023335 297.03726 
L 320.666323 297.55701 
L 322.309312 297.55701 
L 323.9523 297.14121 
L 325.595289 296.51751 
L 327.238278 296.41356 
L 333.810232 295.06221 
L 335.45322 294.54246 
L 338.739198 294.23061 
L 340.382186 292.56741 
L 343.668163 291.21606 
L 345.311152 290.07261 
L 346.954141 289.13706 
L 348.597129 288.92916 
L 350.240118 287.26596 
L 353.526095 286.33041 
L 355.169084 286.22646 
L 356.812072 285.49881 
L 358.455061 286.01856 
L 360.098049 285.81066 
L 361.741038 286.12251 
L 365.027015 284.66721 
L 368.312992 283.83561 
L 369.955981 282.90006 
L 371.598969 282.79611 
L 373.241958 282.06846 
L 374.884947 280.82106 
L 376.527935 281.23686 
L 378.170924 279.57366 
L 379.813912 278.74206 
L 381.456901 277.59861 
L 383.09989 277.39071 
L 384.742878 276.66306 
L 386.385867 275.41566 
L 388.028855 274.99986 
L 391.314833 276.14331 
L 392.957821 275.62356 
L 394.60081 275.41566 
L 396.243798 274.58406 
L 397.886787 273.96036 
L 399.529775 273.54456 
L 402.815753 273.02481 
L 404.458741 272.50506 
L 406.10173 271.36161 
L 407.744718 271.67346 
L 409.387707 270.63396 
L 412.673684 269.59446 
L 414.316673 268.24311 
L 415.959661 267.41151 
L 419.245639 265.33251 
L 420.888627 265.33251 
L 422.531616 263.87721 
L 424.174604 264.18906 
L 425.817593 263.35746 
L 427.460582 263.56536 
L 429.10357 264.50091 
L 430.746559 264.60486 
L 432.389547 264.91671 
L 434.032536 263.77326 
L 435.675524 263.66931 
L 437.318513 262.73376 
L 442.247479 261.27846 
L 443.890467 260.13501 
L 445.533456 259.19946 
L 448.819433 256.80861 
L 450.462422 256.08096 
L 452.10541 254.83356 
L 453.748399 253.79406 
L 455.391388 253.06641 
L 457.034376 252.02691 
L 458.677365 251.61111 
L 460.320353 250.57161 
L 461.963342 251.29926 
L 463.606331 250.88346 
L 465.249319 250.88346 
L 466.892308 252.13086 
L 468.535296 251.71506 
L 470.178285 251.81901 
L 478.393228 249.11631 
L 480.036216 248.90841 
L 483.322194 246.72546 
L 484.965182 246.51756 
L 488.251159 243.81486 
L 491.537137 242.35956 
L 494.823114 241.83981 
L 496.466102 241.52796 
L 498.109091 242.56746 
L 498.109091 242.56746 
" clip-path="url(#p1684f404ef)" style="fill: none; stroke: #0000ff; stroke-opacity: 0.5; stroke-width: 1.5; stroke-linecap: square"/>
   </g>
   <g id="line2d_35">
    <path d="M 92.290909 363.35736 
L 93.933898 365.85216 
L 95.576886 365.33241 
L 97.219875 366.06006 
L 100.505852 366.16401 
L 102.148841 364.50081 
L 103.791829 364.08501 
L 105.434818 364.18896 
L 110.363784 363.77316 
L 112.006772 363.98106 
L 113.649761 364.50081 
L 115.292749 363.35736 
L 116.935738 363.35736 
L 118.578727 364.70871 
L 120.221715 364.08501 
L 121.864704 363.66921 
L 123.507692 364.39686 
L 125.150681 363.98106 
L 126.793669 365.33241 
L 128.436658 363.25341 
L 130.079647 363.25341 
L 131.722635 364.60476 
L 135.008612 364.50081 
L 136.651601 363.77316 
L 138.29459 363.25341 
L 139.937578 364.08501 
L 141.580567 362.21391 
L 143.223555 363.66921 
L 144.866544 363.66921 
L 146.509533 361.90206 
L 148.152521 360.75861 
L 149.79551 362.21391 
L 151.438498 361.38231 
L 153.081487 362.21391 
L 154.724476 361.17441 
L 156.367464 361.79811 
L 158.010453 359.61516 
L 159.653441 360.44676 
L 161.29643 360.75861 
L 162.939418 359.51121 
L 164.582407 359.09541 
L 167.868384 359.19936 
L 169.511373 358.15986 
L 171.154361 357.95196 
L 172.79735 358.78356 
L 176.083327 358.99146 
L 177.726316 358.47171 
L 179.369304 358.67961 
L 181.012293 357.32826 
L 182.655282 356.60061 
L 184.29827 356.18481 
L 192.513213 355.04136 
L 197.442179 353.69001 
L 199.085167 353.06631 
L 204.014133 351.71496 
L 207.30011 350.36361 
L 210.586088 349.42806 
L 212.229076 348.90831 
L 213.872065 348.70041 
L 217.158042 347.14116 
L 218.801031 346.72536 
L 220.444019 345.99771 
L 222.087008 345.58191 
L 223.729996 344.33451 
L 225.372985 343.91871 
L 227.015974 343.29501 
L 228.658962 342.87921 
L 230.301951 341.94366 
L 231.944939 341.63181 
L 233.587928 340.90416 
L 235.230916 339.86466 
L 236.873905 339.55281 
L 240.159882 337.26591 
L 241.802871 336.95406 
L 245.088848 334.35531 
L 246.731837 333.73161 
L 248.374825 333.31581 
L 250.017814 332.69211 
L 251.660802 331.44471 
L 253.303791 330.71706 
L 254.94678 329.67756 
L 256.589768 328.84596 
L 258.232757 327.70251 
L 259.875745 326.24721 
L 261.518734 325.62351 
L 264.804711 323.54451 
L 266.4477 322.81686 
L 268.090688 321.46551 
L 269.733677 320.42601 
L 271.376665 319.07466 
L 273.019654 318.13911 
L 274.662643 317.41146 
L 276.305631 316.26801 
L 277.94862 314.81271 
L 279.591608 313.77321 
L 281.234597 312.94161 
L 282.877586 312.42186 
L 286.163563 311.07051 
L 287.806551 310.03101 
L 289.44954 309.82311 
L 291.092529 308.57571 
L 292.735517 307.74411 
L 294.378506 307.53621 
L 297.664483 306.28881 
L 300.95046 305.66511 
L 305.879426 304.00191 
L 307.522414 304.20981 
L 309.165403 304.20981 
L 312.45138 302.96241 
L 314.094369 302.65056 
L 315.737357 303.06636 
L 317.380346 302.54661 
L 319.023335 302.96241 
L 320.666323 302.96241 
L 322.309312 302.65056 
L 323.9523 302.02686 
L 330.524255 301.29921 
L 332.167243 301.40316 
L 335.45322 300.46761 
L 337.096209 300.46761 
L 338.739198 300.25971 
L 342.025175 298.90836 
L 343.668163 298.38861 
L 345.311152 297.24516 
L 346.954141 296.62146 
L 348.597129 296.72541 
L 350.240118 294.75036 
L 351.883106 295.06221 
L 353.526095 294.43851 
L 355.169084 294.85431 
L 356.812072 294.64641 
L 358.455061 294.64641 
L 360.098049 293.60691 
L 361.741038 293.71086 
L 363.384026 293.08716 
L 365.027015 292.15161 
L 368.312992 291.83976 
L 369.955981 290.59236 
L 371.598969 290.59236 
L 374.884947 288.82521 
L 376.527935 288.92916 
L 378.170924 287.47386 
L 379.813912 287.16201 
L 381.456901 286.12251 
L 383.09989 286.12251 
L 384.742878 285.39486 
L 386.385867 284.25141 
L 388.028855 284.56326 
L 389.671844 284.66721 
L 391.314833 284.45931 
L 392.957821 283.62771 
L 394.60081 283.41981 
L 396.243798 282.38031 
L 397.886787 282.27636 
L 401.172764 281.54871 
L 402.815753 280.82106 
L 404.458741 279.88551 
L 406.10173 279.88551 
L 407.744718 279.57366 
L 409.387707 278.63811 
L 414.316673 276.97491 
L 415.959661 275.51961 
L 417.60265 274.89591 
L 419.245639 273.64851 
L 420.888627 274.06431 
L 422.531616 272.29716 
L 425.817593 272.92086 
L 427.460582 273.02481 
L 429.10357 273.33666 
L 430.746559 273.12876 
L 432.389547 273.12876 
L 434.032536 271.88136 
L 435.675524 272.19321 
L 437.318513 271.04976 
L 438.961502 271.04976 
L 440.60449 270.01026 
L 442.247479 269.69841 
L 443.890467 268.55496 
L 445.533456 268.34706 
L 448.819433 265.64436 
L 450.462422 265.12461 
L 453.748399 263.14956 
L 455.391388 262.52586 
L 457.034376 261.27846 
L 458.677365 260.65476 
L 460.320353 261.27846 
L 461.963342 260.96661 
L 463.606331 260.96661 
L 465.249319 261.17451 
L 466.892308 261.59031 
L 468.535296 260.75871 
L 470.178285 260.44686 
L 471.821273 259.51131 
L 475.107251 258.57576 
L 476.750239 257.84811 
L 478.393228 257.53626 
L 480.036216 256.91256 
L 481.679205 255.35331 
L 483.322194 255.24936 
L 484.965182 254.62566 
L 486.608171 253.27431 
L 493.180125 249.01236 
L 494.823114 249.84396 
L 496.466102 250.36371 
L 498.109091 250.36371 
L 498.109091 250.36371 
" clip-path="url(#p1684f404ef)" style="fill: none; stroke: #0000ff; stroke-opacity: 0.5; stroke-width: 1.5; stroke-linecap: square"/>
   </g>
   <g id="line2d_36">
    <path d="M 92.290909 368.03511 
L 93.933898 365.22846 
L 95.576886 364.91661 
L 97.219875 366.37191 
L 98.862863 365.12451 
L 100.505852 365.02056 
L 102.148841 363.98106 
L 103.791829 363.77316 
L 105.434818 364.29291 
L 107.077806 364.29291 
L 108.720795 364.08501 
L 112.006772 364.18896 
L 113.649761 365.43636 
L 116.935738 364.08501 
L 118.578727 364.60476 
L 120.221715 363.25341 
L 121.864704 362.21391 
L 123.507692 364.81266 
L 125.150681 364.91661 
L 126.793669 366.06006 
L 128.436658 365.02056 
L 130.079647 364.91661 
L 131.722635 363.56526 
L 133.365624 363.77316 
L 135.008612 364.70871 
L 136.651601 363.77316 
L 138.29459 364.18896 
L 139.937578 365.95611 
L 141.580567 363.77316 
L 143.223555 363.46131 
L 144.866544 362.62971 
L 146.509533 363.46131 
L 148.152521 363.14946 
L 149.79551 362.21391 
L 151.438498 361.69416 
L 153.081487 362.62971 
L 154.724476 361.48626 
L 156.367464 361.07046 
L 158.010453 361.27836 
L 159.653441 360.55071 
L 161.29643 361.90206 
L 162.939418 360.86256 
L 164.582407 360.34281 
L 167.868384 360.13491 
L 169.511373 359.61516 
L 171.154361 359.30331 
L 174.440339 359.19936 
L 182.655282 356.49666 
L 184.29827 356.28876 
L 185.941259 355.76901 
L 189.227236 355.66506 
L 190.870225 355.24926 
L 192.513213 355.04136 
L 194.156202 354.52161 
L 195.79919 354.20976 
L 204.014133 351.61101 
L 207.30011 350.88336 
L 212.229076 349.01226 
L 213.872065 349.01226 
L 215.515053 348.28461 
L 217.158042 347.03721 
L 218.801031 346.82931 
L 220.444019 345.89376 
L 222.087008 345.78981 
L 223.729996 344.75031 
L 225.372985 343.91871 
L 228.658962 342.98316 
L 230.301951 341.94366 
L 233.587928 341.00811 
L 235.230916 339.96861 
L 236.873905 339.65676 
L 238.516894 338.82516 
L 240.159882 337.68171 
L 243.445859 336.33036 
L 250.017814 332.69211 
L 253.303791 330.92496 
L 256.589768 329.05386 
L 259.875745 326.55906 
L 261.518734 325.72746 
L 264.804711 323.44056 
L 266.4477 322.81686 
L 268.090688 321.36156 
L 271.376665 319.38651 
L 274.662643 317.20356 
L 276.305631 316.57986 
L 277.94862 315.43641 
L 279.591608 314.08506 
L 286.163563 310.86261 
L 289.44954 309.61521 
L 291.092529 308.47176 
L 292.735517 307.74411 
L 296.021494 307.22436 
L 297.664483 306.18486 
L 305.879426 304.20981 
L 307.522414 304.10586 
L 309.165403 304.20981 
L 310.808392 303.58611 
L 312.45138 303.37821 
L 314.094369 302.96241 
L 315.737357 303.17031 
L 317.380346 303.06636 
L 319.023335 302.54661 
L 320.666323 302.54661 
L 325.595289 301.50711 
L 327.238278 300.98736 
L 328.881266 301.09131 
L 330.524255 300.98736 
L 332.167243 301.09131 
L 333.810232 300.88341 
L 335.45322 299.84391 
L 337.096209 300.05181 
L 338.739198 300.05181 
L 340.382186 299.11626 
L 342.025175 298.70046 
L 343.668163 298.59651 
L 345.311152 297.97281 
L 346.954141 297.14121 
L 348.597129 297.34911 
L 350.240118 296.10171 
L 351.883106 296.30961 
L 353.526095 295.58196 
L 355.169084 295.37406 
L 356.812072 294.54246 
L 358.455061 294.43851 
L 360.098049 293.39901 
L 361.741038 293.50296 
L 366.670004 291.52791 
L 368.312992 291.42396 
L 369.955981 290.38446 
L 371.598969 290.59236 
L 373.241958 289.03311 
L 374.884947 288.61731 
L 376.527935 288.72126 
L 378.170924 287.36991 
L 379.813912 287.36991 
L 381.456901 285.91461 
L 383.09989 286.43436 
L 384.742878 286.33041 
L 386.385867 284.97906 
L 388.028855 284.77116 
L 389.671844 283.83561 
L 391.314833 284.14746 
L 392.957821 283.21191 
L 394.60081 282.79611 
L 396.243798 281.96451 
L 397.886787 281.86056 
L 399.529775 281.23686 
L 401.172764 281.44476 
L 402.815753 280.09341 
L 404.458741 279.98946 
L 406.10173 279.36576 
L 409.387707 278.63811 
L 412.673684 277.28676 
L 414.316673 277.18281 
L 415.959661 276.55911 
L 417.60265 275.72751 
L 419.245639 275.51961 
L 420.888627 275.72751 
L 422.531616 274.48011 
L 425.817593 274.06431 
L 429.10357 272.81691 
L 430.746559 272.81691 
L 432.389547 272.40111 
L 434.032536 271.25766 
L 435.675524 271.77741 
L 437.318513 270.94581 
L 438.961502 270.42606 
L 440.60449 269.28261 
L 442.247479 269.17866 
L 443.890467 268.76286 
L 445.533456 268.55496 
L 447.176445 267.72336 
L 448.819433 266.47596 
L 450.462422 266.16411 
L 452.10541 265.54041 
L 453.748399 264.70881 
L 455.391388 264.70881 
L 457.034376 263.87721 
L 460.320353 263.25351 
L 463.606331 261.90216 
L 465.249319 261.79821 
L 466.892308 260.75871 
L 468.535296 260.55081 
L 470.178285 259.82316 
L 473.464262 258.78366 
L 475.107251 258.67971 
L 476.750239 257.53626 
L 478.393228 257.01651 
L 480.036216 256.70466 
L 483.322194 255.04146 
L 484.965182 254.93751 
L 486.608171 253.79406 
L 489.894148 253.27431 
L 491.537137 252.54666 
L 493.180125 252.13086 
L 494.823114 251.40321 
L 496.466102 251.40321 
L 498.109091 251.19531 
L 498.109091 251.19531 
" clip-path="url(#p1684f404ef)" style="fill: none; stroke: #0000ff; stroke-opacity: 0.5; stroke-width: 1.5; stroke-linecap: square"/>
   </g>
   <g id="LineCollection_1">
    <path d="M 92.290909 369.688913 
L 92.290909 365.601682 
" clip-path="url(#p1684f404ef)" style="fill: none; stroke: #ff0000; stroke-width: 1.5"/>
    <path d="M 158.010453 360.72535 
L 158.010453 358.556945 
" clip-path="url(#p1684f404ef)" style="fill: none; stroke: #ff0000; stroke-width: 1.5"/>
    <path d="M 223.729996 343.958836 
L 223.729996 340.396259 
" clip-path="url(#p1684f404ef)" style="fill: none; stroke: #ff0000; stroke-width: 1.5"/>
    <path d="M 289.44954 308.27882 
L 289.44954 302.375725 
" clip-path="url(#p1684f404ef)" style="fill: none; stroke: #ff0000; stroke-width: 1.5"/>
    <path d="M 355.169084 293.002011 
L 355.169084 284.752359 
" clip-path="url(#p1684f404ef)" style="fill: none; stroke: #ff0000; stroke-width: 1.5"/>
    <path d="M 420.888627 272.826988 
L 420.888627 264.698732 
" clip-path="url(#p1684f404ef)" style="fill: none; stroke: #ff0000; stroke-width: 1.5"/>
    <path d="M 486.608171 251.667208 
L 486.608171 244.356474 
" clip-path="url(#p1684f404ef)" style="fill: none; stroke: #ff0000; stroke-width: 1.5"/>
   </g>
   <g id="line2d_37">
    <defs>
     <path id="md6c96618a3" d="M 5 0 
L -5 -0 
" style="stroke: #ff0000"/>
    </defs>
    <g clip-path="url(#p1684f404ef)">
     <use xlink:href="#md6c96618a3" x="92.290909" y="369.688913" style="fill: #ff0000; stroke: #ff0000"/>
     <use xlink:href="#md6c96618a3" x="158.010453" y="360.72535" style="fill: #ff0000; stroke: #ff0000"/>
     <use xlink:href="#md6c96618a3" x="223.729996" y="343.958836" style="fill: #ff0000; stroke: #ff0000"/>
     <use xlink:href="#md6c96618a3" x="289.44954" y="308.27882" style="fill: #ff0000; stroke: #ff0000"/>
     <use xlink:href="#md6c96618a3" x="355.169084" y="293.002011" style="fill: #ff0000; stroke: #ff0000"/>
     <use xlink:href="#md6c96618a3" x="420.888627" y="272.826988" style="fill: #ff0000; stroke: #ff0000"/>
     <use xlink:href="#md6c96618a3" x="486.608171" y="251.667208" style="fill: #ff0000; stroke: #ff0000"/>
    </g>
   </g>
   <g id="line2d_38">
    <g clip-path="url(#p1684f404ef)">
     <use xlink:href="#md6c96618a3" x="92.290909" y="365.601682" style="fill: #ff0000; stroke: #ff0000"/>
     <use xlink:href="#md6c96618a3" x="158.010453" y="358.556945" style="fill: #ff0000; stroke: #ff0000"/>
     <use xlink:href="#md6c96618a3" x="223.729996" y="340.396259" style="fill: #ff0000; stroke: #ff0000"/>
     <use xlink:href="#md6c96618a3" x="289.44954" y="302.375725" style="fill: #ff0000; stroke: #ff0000"/>
     <use xlink:href="#md6c96618a3" x="355.169084" y="284.752359" style="fill: #ff0000; stroke: #ff0000"/>
     <use xlink:href="#md6c96618a3" x="420.888627" y="264.698732" style="fill: #ff0000; stroke: #ff0000"/>
     <use xlink:href="#md6c96618a3" x="486.608171" y="244.356474" style="fill: #ff0000; stroke: #ff0000"/>
    </g>
   </g>
   <g id="line2d_39">
    <path d="M 92.290909 367.645297 
L 158.010453 359.641147 
L 223.729996 342.177548 
L 289.44954 305.327272 
L 355.169084 288.877185 
L 420.888627 268.76286 
L 486.608171 248.011841 
" clip-path="url(#p1684f404ef)" style="fill: none; stroke: #ff0000; stroke-width: 1.5; stroke-linecap: square"/>
   </g>
   <g id="patch_3">
    <path d="M 72 384.48 
L 72 51.84 
" style="fill: none; stroke: #000000; stroke-width: 0.8; stroke-linejoin: miter; stroke-linecap: square"/>
   </g>
   <g id="patch_4">
    <path d="M 518.4 384.48 
L 518.4 51.84 
" style="fill: none; stroke: #000000; stroke-width: 0.8; stroke-linejoin: miter; stroke-linecap: square"/>
   </g>
   <g id="patch_5">
    <path d="M 72 384.48 
L 518.4 384.48 
" style="fill: none; stroke: #000000; stroke-width: 0.8; stroke-linejoin: miter; stroke-linecap: square"/>
   </g>
   <g id="patch_6">
    <path d="M 72 51.84 
L 518.4 51.84 
" style="fill: none; stroke: #000000; stroke-width: 0.8; stroke-linejoin: miter; stroke-linecap: square"/>
   </g>
   <g id="text_17">
    <!-- M3: Methionin; Aspartat; Threonin -->
    <g transform="translate(209.858594 45.84) scale(0.1 -0.1)">
     <defs>
      <path id="DejaVuSans-4d" d="M 628 4666 
L 1569 4666 
L 2759 1491 
L 3956 4666 
L 4897 4666 
L 4897 0 
L 4281 0 
L 4281 4097 
L 3078 897 
L 2444 897 
L 1241 4097 
L 1241 0 
L 628 0 
L 628 4666 
z
" transform="scale(0.015625)"/>
      <path id="DejaVuSans-3a" d="M 750 794 
L 1409 794 
L 1409 0 
L 750 0 
L 750 794 
z
M 750 3309 
L 1409 3309 
L 1409 2516 
L 750 2516 
L 750 3309 
z
" transform="scale(0.015625)"/>
      <path id="DejaVuSans-3b" d="M 750 3309 
L 1409 3309 
L 1409 2516 
L 750 2516 
L 750 3309 
z
M 750 794 
L 1409 794 
L 1409 256 
L 897 -744 
L 494 -744 
L 750 256 
L 750 794 
z
" transform="scale(0.015625)"/>
      <path id="DejaVuSans-41" d="M 2188 4044 
L 1331 1722 
L 3047 1722 
L 2188 4044 
z
M 1831 4666 
L 2547 4666 
L 4325 0 
L 3669 0 
L 3244 1197 
L 1141 1197 
L 716 0 
L 50 0 
L 1831 4666 
z
" transform="scale(0.015625)"/>
      <path id="DejaVuSans-70" d="M 1159 525 
L 1159 -1331 
L 581 -1331 
L 581 3500 
L 1159 3500 
L 1159 2969 
Q 1341 3281 1617 3432 
Q 1894 3584 2278 3584 
Q 2916 3584 3314 3078 
Q 3713 2572 3713 1747 
Q 3713 922 3314 415 
Q 2916 -91 2278 -91 
Q 1894 -91 1617 61 
Q 1341 213 1159 525 
z
M 3116 1747 
Q 3116 2381 2855 2742 
Q 2594 3103 2138 3103 
Q 1681 3103 1420 2742 
Q 1159 2381 1159 1747 
Q 1159 1113 1420 752 
Q 1681 391 2138 391 
Q 2594 391 2855 752 
Q 3116 1113 3116 1747 
z
" transform="scale(0.015625)"/>
      <path id="DejaVuSans-54" d="M -19 4666 
L 3928 4666 
L 3928 4134 
L 2272 4134 
L 2272 0 
L 1638 0 
L 1638 4134 
L -19 4134 
L -19 4666 
z
" transform="scale(0.015625)"/>
     </defs>
     <use xlink:href="#DejaVuSans-4d"/>
     <use xlink:href="#DejaVuSans-33" x="86.279297"/>
     <use xlink:href="#DejaVuSans-3a" x="149.902344"/>
     <use xlink:href="#DejaVuSans-20" x="183.59375"/>
     <use xlink:href="#DejaVuSans-4d" x="215.380859"/>
     <use xlink:href="#DejaVuSans-65" x="301.660156"/>
     <use xlink:href="#DejaVuSans-74" x="363.183594"/>
     <use xlink:href="#DejaVuSans-68" x="402.392578"/>
     <use xlink:href="#DejaVuSans-69" x="465.771484"/>
     <use xlink:href="#DejaVuSans-6f" x="493.554688"/>
     <use xlink:href="#DejaVuSans-6e" x="554.736328"/>
     <use xlink:href="#DejaVuSans-69" x="618.115234"/>
     <use xlink:href="#DejaVuSans-6e" x="645.898438"/>
     <use xlink:href="#DejaVuSans-3b" x="709.277344"/>
     <use xlink:href="#DejaVuSans-20" x="742.96875"/>
     <use xlink:href="#DejaVuSans-41" x="774.755859"/>
     <use xlink:href="#DejaVuSans-73" x="843.164062"/>
     <use xlink:href="#DejaVuSans-70" x="895.263672"/>
     <use xlink:href="#DejaVuSans-61" x="958.740234"/>
     <use xlink:href="#DejaVuSans-72" x="1020.019531"/>
     <use xlink:href="#DejaVuSans-74" x="1061.132812"/>
     <use xlink:href="#DejaVuSans-61" x="1100.341797"/>
     <use xlink:href="#DejaVuSans-74" x="1161.621094"/>
     <use xlink:href="#DejaVuSans-3b" x="1200.830078"/>
     <use xlink:href="#DejaVuSans-20" x="1234.521484"/>
     <use xlink:href="#DejaVuSans-54" x="1266.308594"/>
     <use xlink:href="#DejaVuSans-68" x="1327.392578"/>
     <use xlink:href="#DejaVuSans-72" x="1390.771484"/>
     <use xlink:href="#DejaVuSans-65" x="1429.634766"/>
     <use xlink:href="#DejaVuSans-6f" x="1491.158203"/>
     <use xlink:href="#DejaVuSans-6e" x="1552.339844"/>
     <use xlink:href="#DejaVuSans-69" x="1615.71875"/>
     <use xlink:href="#DejaVuSans-6e" x="1643.501953"/>
    </g>
   </g>
  </g>
 </g>
 <defs>
  <clipPath id="p1684f404ef">
   <rect x="72" y="51.84" width="446.4" height="332.64"/>
  </clipPath>
 </defs>
</svg>
