<?xml version="1.0" encoding="utf-8" standalone="no"?>
<!DOCTYPE svg PUBLIC "-//W3C//DTD SVG 1.1//EN"
  "http://www.w3.org/Graphics/SVG/1.1/DTD/svg11.dtd">
<svg xmlns:xlink="http://www.w3.org/1999/xlink" width="576pt" height="432pt" viewBox="0 0 576 432" xmlns="http://www.w3.org/2000/svg" version="1.1">
 <metadata>
  <rdf:RDF xmlns:dc="http://purl.org/dc/elements/1.1/" xmlns:cc="http://creativecommons.org/ns#" xmlns:rdf="http://www.w3.org/1999/02/22-rdf-syntax-ns#">
   <cc:Work>
    <dc:type rdf:resource="http://purl.org/dc/dcmitype/StillImage"/>
    <dc:date>2024-11-12T14:09:05.257320</dc:date>
    <dc:format>image/svg+xml</dc:format>
    <dc:creator>
     <cc:Agent>
      <dc:title>Matplotlib v3.7.5, https://matplotlib.org/</dc:title>
     </cc:Agent>
    </dc:creator>
   </cc:Work>
  </rdf:RDF>
 </metadata>
 <defs>
  <style type="text/css">*{stroke-linejoin: round; stroke-linecap: butt}</style>
 </defs>
 <g id="figure_1">
  <g id="patch_1">
   <path d="M 0 432 
L 576 432 
L 576 0 
L 0 0 
z
" style="fill: #ffffff"/>
  </g>
  <g id="axes_1">
   <g id="patch_2">
    <path d="M 72 384.48 
L 518.4 384.48 
L 518.4 51.84 
L 72 51.84 
z
" style="fill: #ffffff"/>
   </g>
   <g id="matplotlib.axis_1">
    <g id="xtick_1">
     <g id="line2d_1">
      <path d="M 92.290909 384.48 
L 92.290909 51.84 
" clip-path="url(#p31a27227d8)" style="fill: none; stroke: #b0b0b0; stroke-width: 0.8; stroke-linecap: square"/>
     </g>
     <g id="line2d_2">
      <defs>
       <path id="m7a67bbfc49" d="M 0 0 
L 0 3.5 
" style="stroke: #000000; stroke-width: 0.8"/>
      </defs>
      <g>
       <use xlink:href="#m7a67bbfc49" x="92.290909" y="384.48" style="stroke: #000000; stroke-width: 0.8"/>
      </g>
     </g>
     <g id="text_1">
      <!-- 0.17 -->
      <g transform="translate(81.158097 399.078438) scale(0.1 -0.1)">
       <defs>
        <path id="DejaVuSans-30" d="M 2034 4250 
Q 1547 4250 1301 3770 
Q 1056 3291 1056 2328 
Q 1056 1369 1301 889 
Q 1547 409 2034 409 
Q 2525 409 2770 889 
Q 3016 1369 3016 2328 
Q 3016 3291 2770 3770 
Q 2525 4250 2034 4250 
z
M 2034 4750 
Q 2819 4750 3233 4129 
Q 3647 3509 3647 2328 
Q 3647 1150 3233 529 
Q 2819 -91 2034 -91 
Q 1250 -91 836 529 
Q 422 1150 422 2328 
Q 422 3509 836 4129 
Q 1250 4750 2034 4750 
z
" transform="scale(0.015625)"/>
        <path id="DejaVuSans-2e" d="M 684 794 
L 1344 794 
L 1344 0 
L 684 0 
L 684 794 
z
" transform="scale(0.015625)"/>
        <path id="DejaVuSans-31" d="M 794 531 
L 1825 531 
L 1825 4091 
L 703 3866 
L 703 4441 
L 1819 4666 
L 2450 4666 
L 2450 531 
L 3481 531 
L 3481 0 
L 794 0 
L 794 531 
z
" transform="scale(0.015625)"/>
        <path id="DejaVuSans-37" d="M 525 4666 
L 3525 4666 
L 3525 4397 
L 1831 0 
L 1172 0 
L 2766 4134 
L 525 4134 
L 525 4666 
z
" transform="scale(0.015625)"/>
       </defs>
       <use xlink:href="#DejaVuSans-30"/>
       <use xlink:href="#DejaVuSans-2e" x="63.623047"/>
       <use xlink:href="#DejaVuSans-31" x="95.410156"/>
       <use xlink:href="#DejaVuSans-37" x="159.033203"/>
      </g>
     </g>
    </g>
    <g id="xtick_2">
     <g id="line2d_3">
      <path d="M 122.861017 384.48 
L 122.861017 51.84 
" clip-path="url(#p31a27227d8)" style="fill: none; stroke: #b0b0b0; stroke-width: 0.8; stroke-linecap: square"/>
     </g>
     <g id="line2d_4">
      <g>
       <use xlink:href="#m7a67bbfc49" x="122.861017" y="384.48" style="stroke: #000000; stroke-width: 0.8"/>
      </g>
     </g>
     <g id="text_2">
      <!-- 6.83 -->
      <g transform="translate(111.728204 399.078438) scale(0.1 -0.1)">
       <defs>
        <path id="DejaVuSans-36" d="M 2113 2584 
Q 1688 2584 1439 2293 
Q 1191 2003 1191 1497 
Q 1191 994 1439 701 
Q 1688 409 2113 409 
Q 2538 409 2786 701 
Q 3034 994 3034 1497 
Q 3034 2003 2786 2293 
Q 2538 2584 2113 2584 
z
M 3366 4563 
L 3366 3988 
Q 3128 4100 2886 4159 
Q 2644 4219 2406 4219 
Q 1781 4219 1451 3797 
Q 1122 3375 1075 2522 
Q 1259 2794 1537 2939 
Q 1816 3084 2150 3084 
Q 2853 3084 3261 2657 
Q 3669 2231 3669 1497 
Q 3669 778 3244 343 
Q 2819 -91 2113 -91 
Q 1303 -91 875 529 
Q 447 1150 447 2328 
Q 447 3434 972 4092 
Q 1497 4750 2381 4750 
Q 2619 4750 2861 4703 
Q 3103 4656 3366 4563 
z
" transform="scale(0.015625)"/>
        <path id="DejaVuSans-38" d="M 2034 2216 
Q 1584 2216 1326 1975 
Q 1069 1734 1069 1313 
Q 1069 891 1326 650 
Q 1584 409 2034 409 
Q 2484 409 2743 651 
Q 3003 894 3003 1313 
Q 3003 1734 2745 1975 
Q 2488 2216 2034 2216 
z
M 1403 2484 
Q 997 2584 770 2862 
Q 544 3141 544 3541 
Q 544 4100 942 4425 
Q 1341 4750 2034 4750 
Q 2731 4750 3128 4425 
Q 3525 4100 3525 3541 
Q 3525 3141 3298 2862 
Q 3072 2584 2669 2484 
Q 3125 2378 3379 2068 
Q 3634 1759 3634 1313 
Q 3634 634 3220 271 
Q 2806 -91 2034 -91 
Q 1263 -91 848 271 
Q 434 634 434 1313 
Q 434 1759 690 2068 
Q 947 2378 1403 2484 
z
M 1172 3481 
Q 1172 3119 1398 2916 
Q 1625 2713 2034 2713 
Q 2441 2713 2670 2916 
Q 2900 3119 2900 3481 
Q 2900 3844 2670 4047 
Q 2441 4250 2034 4250 
Q 1625 4250 1398 4047 
Q 1172 3844 1172 3481 
z
" transform="scale(0.015625)"/>
        <path id="DejaVuSans-33" d="M 2597 2516 
Q 3050 2419 3304 2112 
Q 3559 1806 3559 1356 
Q 3559 666 3084 287 
Q 2609 -91 1734 -91 
Q 1441 -91 1130 -33 
Q 819 25 488 141 
L 488 750 
Q 750 597 1062 519 
Q 1375 441 1716 441 
Q 2309 441 2620 675 
Q 2931 909 2931 1356 
Q 2931 1769 2642 2001 
Q 2353 2234 1838 2234 
L 1294 2234 
L 1294 2753 
L 1863 2753 
Q 2328 2753 2575 2939 
Q 2822 3125 2822 3475 
Q 2822 3834 2567 4026 
Q 2313 4219 1838 4219 
Q 1578 4219 1281 4162 
Q 984 4106 628 3988 
L 628 4550 
Q 988 4650 1302 4700 
Q 1616 4750 1894 4750 
Q 2613 4750 3031 4423 
Q 3450 4097 3450 3541 
Q 3450 3153 3228 2886 
Q 3006 2619 2597 2516 
z
" transform="scale(0.015625)"/>
       </defs>
       <use xlink:href="#DejaVuSans-36"/>
       <use xlink:href="#DejaVuSans-2e" x="63.623047"/>
       <use xlink:href="#DejaVuSans-38" x="95.410156"/>
       <use xlink:href="#DejaVuSans-33" x="159.033203"/>
      </g>
     </g>
    </g>
    <g id="xtick_3">
     <g id="line2d_5">
      <path d="M 153.431125 384.48 
L 153.431125 51.84 
" clip-path="url(#p31a27227d8)" style="fill: none; stroke: #b0b0b0; stroke-width: 0.8; stroke-linecap: square"/>
     </g>
     <g id="line2d_6">
      <g>
       <use xlink:href="#m7a67bbfc49" x="153.431125" y="384.48" style="stroke: #000000; stroke-width: 0.8"/>
      </g>
     </g>
     <g id="text_3">
      <!-- 13.5 -->
      <g transform="translate(142.298312 399.078438) scale(0.1 -0.1)">
       <defs>
        <path id="DejaVuSans-35" d="M 691 4666 
L 3169 4666 
L 3169 4134 
L 1269 4134 
L 1269 2991 
Q 1406 3038 1543 3061 
Q 1681 3084 1819 3084 
Q 2600 3084 3056 2656 
Q 3513 2228 3513 1497 
Q 3513 744 3044 326 
Q 2575 -91 1722 -91 
Q 1428 -91 1123 -41 
Q 819 9 494 109 
L 494 744 
Q 775 591 1075 516 
Q 1375 441 1709 441 
Q 2250 441 2565 725 
Q 2881 1009 2881 1497 
Q 2881 1984 2565 2268 
Q 2250 2553 1709 2553 
Q 1456 2553 1204 2497 
Q 953 2441 691 2322 
L 691 4666 
z
" transform="scale(0.015625)"/>
       </defs>
       <use xlink:href="#DejaVuSans-31"/>
       <use xlink:href="#DejaVuSans-33" x="63.623047"/>
       <use xlink:href="#DejaVuSans-2e" x="127.246094"/>
       <use xlink:href="#DejaVuSans-35" x="159.033203"/>
      </g>
     </g>
    </g>
    <g id="xtick_4">
     <g id="line2d_7">
      <path d="M 184.001233 384.48 
L 184.001233 51.84 
" clip-path="url(#p31a27227d8)" style="fill: none; stroke: #b0b0b0; stroke-width: 0.8; stroke-linecap: square"/>
     </g>
     <g id="line2d_8">
      <g>
       <use xlink:href="#m7a67bbfc49" x="184.001233" y="384.48" style="stroke: #000000; stroke-width: 0.8"/>
      </g>
     </g>
     <g id="text_4">
      <!-- 20.17 -->
      <g transform="translate(169.68717 399.078438) scale(0.1 -0.1)">
       <defs>
        <path id="DejaVuSans-32" d="M 1228 531 
L 3431 531 
L 3431 0 
L 469 0 
L 469 531 
Q 828 903 1448 1529 
Q 2069 2156 2228 2338 
Q 2531 2678 2651 2914 
Q 2772 3150 2772 3378 
Q 2772 3750 2511 3984 
Q 2250 4219 1831 4219 
Q 1534 4219 1204 4116 
Q 875 4013 500 3803 
L 500 4441 
Q 881 4594 1212 4672 
Q 1544 4750 1819 4750 
Q 2544 4750 2975 4387 
Q 3406 4025 3406 3419 
Q 3406 3131 3298 2873 
Q 3191 2616 2906 2266 
Q 2828 2175 2409 1742 
Q 1991 1309 1228 531 
z
" transform="scale(0.015625)"/>
       </defs>
       <use xlink:href="#DejaVuSans-32"/>
       <use xlink:href="#DejaVuSans-30" x="63.623047"/>
       <use xlink:href="#DejaVuSans-2e" x="127.246094"/>
       <use xlink:href="#DejaVuSans-31" x="159.033203"/>
       <use xlink:href="#DejaVuSans-37" x="222.65625"/>
      </g>
     </g>
    </g>
    <g id="xtick_5">
     <g id="line2d_9">
      <path d="M 214.571341 384.48 
L 214.571341 51.84 
" clip-path="url(#p31a27227d8)" style="fill: none; stroke: #b0b0b0; stroke-width: 0.8; stroke-linecap: square"/>
     </g>
     <g id="line2d_10">
      <g>
       <use xlink:href="#m7a67bbfc49" x="214.571341" y="384.48" style="stroke: #000000; stroke-width: 0.8"/>
      </g>
     </g>
     <g id="text_5">
      <!-- 26.83 -->
      <g transform="translate(200.257278 399.078438) scale(0.1 -0.1)">
       <use xlink:href="#DejaVuSans-32"/>
       <use xlink:href="#DejaVuSans-36" x="63.623047"/>
       <use xlink:href="#DejaVuSans-2e" x="127.246094"/>
       <use xlink:href="#DejaVuSans-38" x="159.033203"/>
       <use xlink:href="#DejaVuSans-33" x="222.65625"/>
      </g>
     </g>
    </g>
    <g id="xtick_6">
     <g id="line2d_11">
      <path d="M 245.141448 384.48 
L 245.141448 51.84 
" clip-path="url(#p31a27227d8)" style="fill: none; stroke: #b0b0b0; stroke-width: 0.8; stroke-linecap: square"/>
     </g>
     <g id="line2d_12">
      <g>
       <use xlink:href="#m7a67bbfc49" x="245.141448" y="384.48" style="stroke: #000000; stroke-width: 0.8"/>
      </g>
     </g>
     <g id="text_6">
      <!-- 33.5 -->
      <g transform="translate(234.008636 399.078438) scale(0.1 -0.1)">
       <use xlink:href="#DejaVuSans-33"/>
       <use xlink:href="#DejaVuSans-33" x="63.623047"/>
       <use xlink:href="#DejaVuSans-2e" x="127.246094"/>
       <use xlink:href="#DejaVuSans-35" x="159.033203"/>
      </g>
     </g>
    </g>
    <g id="xtick_7">
     <g id="line2d_13">
      <path d="M 275.711556 384.48 
L 275.711556 51.84 
" clip-path="url(#p31a27227d8)" style="fill: none; stroke: #b0b0b0; stroke-width: 0.8; stroke-linecap: square"/>
     </g>
     <g id="line2d_14">
      <g>
       <use xlink:href="#m7a67bbfc49" x="275.711556" y="384.48" style="stroke: #000000; stroke-width: 0.8"/>
      </g>
     </g>
     <g id="text_7">
      <!-- 40.17 -->
      <g transform="translate(261.397494 399.078438) scale(0.1 -0.1)">
       <defs>
        <path id="DejaVuSans-34" d="M 2419 4116 
L 825 1625 
L 2419 1625 
L 2419 4116 
z
M 2253 4666 
L 3047 4666 
L 3047 1625 
L 3713 1625 
L 3713 1100 
L 3047 1100 
L 3047 0 
L 2419 0 
L 2419 1100 
L 313 1100 
L 313 1709 
L 2253 4666 
z
" transform="scale(0.015625)"/>
       </defs>
       <use xlink:href="#DejaVuSans-34"/>
       <use xlink:href="#DejaVuSans-30" x="63.623047"/>
       <use xlink:href="#DejaVuSans-2e" x="127.246094"/>
       <use xlink:href="#DejaVuSans-31" x="159.033203"/>
       <use xlink:href="#DejaVuSans-37" x="222.65625"/>
      </g>
     </g>
    </g>
    <g id="xtick_8">
     <g id="line2d_15">
      <path d="M 306.281664 384.48 
L 306.281664 51.84 
" clip-path="url(#p31a27227d8)" style="fill: none; stroke: #b0b0b0; stroke-width: 0.8; stroke-linecap: square"/>
     </g>
     <g id="line2d_16">
      <g>
       <use xlink:href="#m7a67bbfc49" x="306.281664" y="384.48" style="stroke: #000000; stroke-width: 0.8"/>
      </g>
     </g>
     <g id="text_8">
      <!-- 46.83 -->
      <g transform="translate(291.967602 399.078438) scale(0.1 -0.1)">
       <use xlink:href="#DejaVuSans-34"/>
       <use xlink:href="#DejaVuSans-36" x="63.623047"/>
       <use xlink:href="#DejaVuSans-2e" x="127.246094"/>
       <use xlink:href="#DejaVuSans-38" x="159.033203"/>
       <use xlink:href="#DejaVuSans-33" x="222.65625"/>
      </g>
     </g>
    </g>
    <g id="xtick_9">
     <g id="line2d_17">
      <path d="M 336.851772 384.48 
L 336.851772 51.84 
" clip-path="url(#p31a27227d8)" style="fill: none; stroke: #b0b0b0; stroke-width: 0.8; stroke-linecap: square"/>
     </g>
     <g id="line2d_18">
      <g>
       <use xlink:href="#m7a67bbfc49" x="336.851772" y="384.48" style="stroke: #000000; stroke-width: 0.8"/>
      </g>
     </g>
     <g id="text_9">
      <!-- 53.5 -->
      <g transform="translate(325.718959 399.078438) scale(0.1 -0.1)">
       <use xlink:href="#DejaVuSans-35"/>
       <use xlink:href="#DejaVuSans-33" x="63.623047"/>
       <use xlink:href="#DejaVuSans-2e" x="127.246094"/>
       <use xlink:href="#DejaVuSans-35" x="159.033203"/>
      </g>
     </g>
    </g>
    <g id="xtick_10">
     <g id="line2d_19">
      <path d="M 367.42188 384.48 
L 367.42188 51.84 
" clip-path="url(#p31a27227d8)" style="fill: none; stroke: #b0b0b0; stroke-width: 0.8; stroke-linecap: square"/>
     </g>
     <g id="line2d_20">
      <g>
       <use xlink:href="#m7a67bbfc49" x="367.42188" y="384.48" style="stroke: #000000; stroke-width: 0.8"/>
      </g>
     </g>
     <g id="text_10">
      <!-- 60.17 -->
      <g transform="translate(353.107817 399.078438) scale(0.1 -0.1)">
       <use xlink:href="#DejaVuSans-36"/>
       <use xlink:href="#DejaVuSans-30" x="63.623047"/>
       <use xlink:href="#DejaVuSans-2e" x="127.246094"/>
       <use xlink:href="#DejaVuSans-31" x="159.033203"/>
       <use xlink:href="#DejaVuSans-37" x="222.65625"/>
      </g>
     </g>
    </g>
    <g id="xtick_11">
     <g id="line2d_21">
      <path d="M 397.991988 384.48 
L 397.991988 51.84 
" clip-path="url(#p31a27227d8)" style="fill: none; stroke: #b0b0b0; stroke-width: 0.8; stroke-linecap: square"/>
     </g>
     <g id="line2d_22">
      <g>
       <use xlink:href="#m7a67bbfc49" x="397.991988" y="384.48" style="stroke: #000000; stroke-width: 0.8"/>
      </g>
     </g>
     <g id="text_11">
      <!-- 66.83 -->
      <g transform="translate(383.677925 399.078438) scale(0.1 -0.1)">
       <use xlink:href="#DejaVuSans-36"/>
       <use xlink:href="#DejaVuSans-36" x="63.623047"/>
       <use xlink:href="#DejaVuSans-2e" x="127.246094"/>
       <use xlink:href="#DejaVuSans-38" x="159.033203"/>
       <use xlink:href="#DejaVuSans-33" x="222.65625"/>
      </g>
     </g>
    </g>
    <g id="xtick_12">
     <g id="line2d_23">
      <path d="M 428.562096 384.48 
L 428.562096 51.84 
" clip-path="url(#p31a27227d8)" style="fill: none; stroke: #b0b0b0; stroke-width: 0.8; stroke-linecap: square"/>
     </g>
     <g id="line2d_24">
      <g>
       <use xlink:href="#m7a67bbfc49" x="428.562096" y="384.48" style="stroke: #000000; stroke-width: 0.8"/>
      </g>
     </g>
     <g id="text_12">
      <!-- 73.5 -->
      <g transform="translate(417.429283 399.078438) scale(0.1 -0.1)">
       <use xlink:href="#DejaVuSans-37"/>
       <use xlink:href="#DejaVuSans-33" x="63.623047"/>
       <use xlink:href="#DejaVuSans-2e" x="127.246094"/>
       <use xlink:href="#DejaVuSans-35" x="159.033203"/>
      </g>
     </g>
    </g>
    <g id="xtick_13">
     <g id="line2d_25">
      <path d="M 459.132203 384.48 
L 459.132203 51.84 
" clip-path="url(#p31a27227d8)" style="fill: none; stroke: #b0b0b0; stroke-width: 0.8; stroke-linecap: square"/>
     </g>
     <g id="line2d_26">
      <g>
       <use xlink:href="#m7a67bbfc49" x="459.132203" y="384.48" style="stroke: #000000; stroke-width: 0.8"/>
      </g>
     </g>
     <g id="text_13">
      <!-- 80.17 -->
      <g transform="translate(444.818141 399.078438) scale(0.1 -0.1)">
       <use xlink:href="#DejaVuSans-38"/>
       <use xlink:href="#DejaVuSans-30" x="63.623047"/>
       <use xlink:href="#DejaVuSans-2e" x="127.246094"/>
       <use xlink:href="#DejaVuSans-31" x="159.033203"/>
       <use xlink:href="#DejaVuSans-37" x="222.65625"/>
      </g>
     </g>
    </g>
    <g id="xtick_14">
     <g id="line2d_27">
      <path d="M 489.702311 384.48 
L 489.702311 51.84 
" clip-path="url(#p31a27227d8)" style="fill: none; stroke: #b0b0b0; stroke-width: 0.8; stroke-linecap: square"/>
     </g>
     <g id="line2d_28">
      <g>
       <use xlink:href="#m7a67bbfc49" x="489.702311" y="384.48" style="stroke: #000000; stroke-width: 0.8"/>
      </g>
     </g>
     <g id="text_14">
      <!-- 86.83 -->
      <g transform="translate(475.388249 399.078438) scale(0.1 -0.1)">
       <use xlink:href="#DejaVuSans-38"/>
       <use xlink:href="#DejaVuSans-36" x="63.623047"/>
       <use xlink:href="#DejaVuSans-2e" x="127.246094"/>
       <use xlink:href="#DejaVuSans-38" x="159.033203"/>
       <use xlink:href="#DejaVuSans-33" x="222.65625"/>
      </g>
     </g>
    </g>
    <g id="text_15">
     <!-- time in hours [h] -->
     <g transform="translate(253.451562 412.756563) scale(0.1 -0.1)">
      <defs>
       <path id="DejaVuSans-74" d="M 1172 4494 
L 1172 3500 
L 2356 3500 
L 2356 3053 
L 1172 3053 
L 1172 1153 
Q 1172 725 1289 603 
Q 1406 481 1766 481 
L 2356 481 
L 2356 0 
L 1766 0 
Q 1100 0 847 248 
Q 594 497 594 1153 
L 594 3053 
L 172 3053 
L 172 3500 
L 594 3500 
L 594 4494 
L 1172 4494 
z
" transform="scale(0.015625)"/>
       <path id="DejaVuSans-69" d="M 603 3500 
L 1178 3500 
L 1178 0 
L 603 0 
L 603 3500 
z
M 603 4863 
L 1178 4863 
L 1178 4134 
L 603 4134 
L 603 4863 
z
" transform="scale(0.015625)"/>
       <path id="DejaVuSans-6d" d="M 3328 2828 
Q 3544 3216 3844 3400 
Q 4144 3584 4550 3584 
Q 5097 3584 5394 3201 
Q 5691 2819 5691 2113 
L 5691 0 
L 5113 0 
L 5113 2094 
Q 5113 2597 4934 2840 
Q 4756 3084 4391 3084 
Q 3944 3084 3684 2787 
Q 3425 2491 3425 1978 
L 3425 0 
L 2847 0 
L 2847 2094 
Q 2847 2600 2669 2842 
Q 2491 3084 2119 3084 
Q 1678 3084 1418 2786 
Q 1159 2488 1159 1978 
L 1159 0 
L 581 0 
L 581 3500 
L 1159 3500 
L 1159 2956 
Q 1356 3278 1631 3431 
Q 1906 3584 2284 3584 
Q 2666 3584 2933 3390 
Q 3200 3197 3328 2828 
z
" transform="scale(0.015625)"/>
       <path id="DejaVuSans-65" d="M 3597 1894 
L 3597 1613 
L 953 1613 
Q 991 1019 1311 708 
Q 1631 397 2203 397 
Q 2534 397 2845 478 
Q 3156 559 3463 722 
L 3463 178 
Q 3153 47 2828 -22 
Q 2503 -91 2169 -91 
Q 1331 -91 842 396 
Q 353 884 353 1716 
Q 353 2575 817 3079 
Q 1281 3584 2069 3584 
Q 2775 3584 3186 3129 
Q 3597 2675 3597 1894 
z
M 3022 2063 
Q 3016 2534 2758 2815 
Q 2500 3097 2075 3097 
Q 1594 3097 1305 2825 
Q 1016 2553 972 2059 
L 3022 2063 
z
" transform="scale(0.015625)"/>
       <path id="DejaVuSans-20" transform="scale(0.015625)"/>
       <path id="DejaVuSans-6e" d="M 3513 2113 
L 3513 0 
L 2938 0 
L 2938 2094 
Q 2938 2591 2744 2837 
Q 2550 3084 2163 3084 
Q 1697 3084 1428 2787 
Q 1159 2491 1159 1978 
L 1159 0 
L 581 0 
L 581 3500 
L 1159 3500 
L 1159 2956 
Q 1366 3272 1645 3428 
Q 1925 3584 2291 3584 
Q 2894 3584 3203 3211 
Q 3513 2838 3513 2113 
z
" transform="scale(0.015625)"/>
       <path id="DejaVuSans-68" d="M 3513 2113 
L 3513 0 
L 2938 0 
L 2938 2094 
Q 2938 2591 2744 2837 
Q 2550 3084 2163 3084 
Q 1697 3084 1428 2787 
Q 1159 2491 1159 1978 
L 1159 0 
L 581 0 
L 581 4863 
L 1159 4863 
L 1159 2956 
Q 1366 3272 1645 3428 
Q 1925 3584 2291 3584 
Q 2894 3584 3203 3211 
Q 3513 2838 3513 2113 
z
" transform="scale(0.015625)"/>
       <path id="DejaVuSans-6f" d="M 1959 3097 
Q 1497 3097 1228 2736 
Q 959 2375 959 1747 
Q 959 1119 1226 758 
Q 1494 397 1959 397 
Q 2419 397 2687 759 
Q 2956 1122 2956 1747 
Q 2956 2369 2687 2733 
Q 2419 3097 1959 3097 
z
M 1959 3584 
Q 2709 3584 3137 3096 
Q 3566 2609 3566 1747 
Q 3566 888 3137 398 
Q 2709 -91 1959 -91 
Q 1206 -91 779 398 
Q 353 888 353 1747 
Q 353 2609 779 3096 
Q 1206 3584 1959 3584 
z
" transform="scale(0.015625)"/>
       <path id="DejaVuSans-75" d="M 544 1381 
L 544 3500 
L 1119 3500 
L 1119 1403 
Q 1119 906 1312 657 
Q 1506 409 1894 409 
Q 2359 409 2629 706 
Q 2900 1003 2900 1516 
L 2900 3500 
L 3475 3500 
L 3475 0 
L 2900 0 
L 2900 538 
Q 2691 219 2414 64 
Q 2138 -91 1772 -91 
Q 1169 -91 856 284 
Q 544 659 544 1381 
z
M 1991 3584 
L 1991 3584 
z
" transform="scale(0.015625)"/>
       <path id="DejaVuSans-72" d="M 2631 2963 
Q 2534 3019 2420 3045 
Q 2306 3072 2169 3072 
Q 1681 3072 1420 2755 
Q 1159 2438 1159 1844 
L 1159 0 
L 581 0 
L 581 3500 
L 1159 3500 
L 1159 2956 
Q 1341 3275 1631 3429 
Q 1922 3584 2338 3584 
Q 2397 3584 2469 3576 
Q 2541 3569 2628 3553 
L 2631 2963 
z
" transform="scale(0.015625)"/>
       <path id="DejaVuSans-73" d="M 2834 3397 
L 2834 2853 
Q 2591 2978 2328 3040 
Q 2066 3103 1784 3103 
Q 1356 3103 1142 2972 
Q 928 2841 928 2578 
Q 928 2378 1081 2264 
Q 1234 2150 1697 2047 
L 1894 2003 
Q 2506 1872 2764 1633 
Q 3022 1394 3022 966 
Q 3022 478 2636 193 
Q 2250 -91 1575 -91 
Q 1294 -91 989 -36 
Q 684 19 347 128 
L 347 722 
Q 666 556 975 473 
Q 1284 391 1588 391 
Q 1994 391 2212 530 
Q 2431 669 2431 922 
Q 2431 1156 2273 1281 
Q 2116 1406 1581 1522 
L 1381 1569 
Q 847 1681 609 1914 
Q 372 2147 372 2553 
Q 372 3047 722 3315 
Q 1072 3584 1716 3584 
Q 2034 3584 2315 3537 
Q 2597 3491 2834 3397 
z
" transform="scale(0.015625)"/>
       <path id="DejaVuSans-5b" d="M 550 4863 
L 1875 4863 
L 1875 4416 
L 1125 4416 
L 1125 -397 
L 1875 -397 
L 1875 -844 
L 550 -844 
L 550 4863 
z
" transform="scale(0.015625)"/>
       <path id="DejaVuSans-5d" d="M 1947 4863 
L 1947 -844 
L 622 -844 
L 622 -397 
L 1369 -397 
L 1369 4416 
L 622 4416 
L 622 4863 
L 1947 4863 
z
" transform="scale(0.015625)"/>
      </defs>
      <use xlink:href="#DejaVuSans-74"/>
      <use xlink:href="#DejaVuSans-69" x="39.208984"/>
      <use xlink:href="#DejaVuSans-6d" x="66.992188"/>
      <use xlink:href="#DejaVuSans-65" x="164.404297"/>
      <use xlink:href="#DejaVuSans-20" x="225.927734"/>
      <use xlink:href="#DejaVuSans-69" x="257.714844"/>
      <use xlink:href="#DejaVuSans-6e" x="285.498047"/>
      <use xlink:href="#DejaVuSans-20" x="348.876953"/>
      <use xlink:href="#DejaVuSans-68" x="380.664062"/>
      <use xlink:href="#DejaVuSans-6f" x="444.042969"/>
      <use xlink:href="#DejaVuSans-75" x="505.224609"/>
      <use xlink:href="#DejaVuSans-72" x="568.603516"/>
      <use xlink:href="#DejaVuSans-73" x="609.716797"/>
      <use xlink:href="#DejaVuSans-20" x="661.816406"/>
      <use xlink:href="#DejaVuSans-5b" x="693.603516"/>
      <use xlink:href="#DejaVuSans-68" x="732.617188"/>
      <use xlink:href="#DejaVuSans-5d" x="795.996094"/>
     </g>
    </g>
   </g>
   <g id="matplotlib.axis_2">
    <g id="ytick_1">
     <g id="line2d_29">
      <path d="M 72 363.69 
L 518.4 363.69 
" clip-path="url(#p31a27227d8)" style="fill: none; stroke: #b0b0b0; stroke-width: 0.8; stroke-linecap: square"/>
     </g>
     <g id="line2d_30">
      <defs>
       <path id="m7cf8435df4" d="M 0 0 
L -3.5 0 
" style="stroke: #000000; stroke-width: 0.8"/>
      </defs>
      <g>
       <use xlink:href="#m7cf8435df4" x="72" y="363.69" style="stroke: #000000; stroke-width: 0.8"/>
      </g>
     </g>
     <g id="text_16">
      <!-- 0.0 -->
      <g transform="translate(49.096875 367.489219) scale(0.1 -0.1)">
       <use xlink:href="#DejaVuSans-30"/>
       <use xlink:href="#DejaVuSans-2e" x="63.623047"/>
       <use xlink:href="#DejaVuSans-30" x="95.410156"/>
      </g>
     </g>
    </g>
    <g id="ytick_2">
     <g id="line2d_31">
      <path d="M 72 311.715 
L 518.4 311.715 
" clip-path="url(#p31a27227d8)" style="fill: none; stroke: #b0b0b0; stroke-width: 0.8; stroke-linecap: square"/>
     </g>
     <g id="line2d_32">
      <g>
       <use xlink:href="#m7cf8435df4" x="72" y="311.715" style="stroke: #000000; stroke-width: 0.8"/>
      </g>
     </g>
     <g id="text_17">
      <!-- 0.5 -->
      <g transform="translate(49.096875 315.514219) scale(0.1 -0.1)">
       <use xlink:href="#DejaVuSans-30"/>
       <use xlink:href="#DejaVuSans-2e" x="63.623047"/>
       <use xlink:href="#DejaVuSans-35" x="95.410156"/>
      </g>
     </g>
    </g>
    <g id="ytick_3">
     <g id="line2d_33">
      <path d="M 72 259.74 
L 518.4 259.74 
" clip-path="url(#p31a27227d8)" style="fill: none; stroke: #b0b0b0; stroke-width: 0.8; stroke-linecap: square"/>
     </g>
     <g id="line2d_34">
      <g>
       <use xlink:href="#m7cf8435df4" x="72" y="259.74" style="stroke: #000000; stroke-width: 0.8"/>
      </g>
     </g>
     <g id="text_18">
      <!-- 1.0 -->
      <g transform="translate(49.096875 263.539219) scale(0.1 -0.1)">
       <use xlink:href="#DejaVuSans-31"/>
       <use xlink:href="#DejaVuSans-2e" x="63.623047"/>
       <use xlink:href="#DejaVuSans-30" x="95.410156"/>
      </g>
     </g>
    </g>
    <g id="ytick_4">
     <g id="line2d_35">
      <path d="M 72 207.765 
L 518.4 207.765 
" clip-path="url(#p31a27227d8)" style="fill: none; stroke: #b0b0b0; stroke-width: 0.8; stroke-linecap: square"/>
     </g>
     <g id="line2d_36">
      <g>
       <use xlink:href="#m7cf8435df4" x="72" y="207.765" style="stroke: #000000; stroke-width: 0.8"/>
      </g>
     </g>
     <g id="text_19">
      <!-- 1.5 -->
      <g transform="translate(49.096875 211.564219) scale(0.1 -0.1)">
       <use xlink:href="#DejaVuSans-31"/>
       <use xlink:href="#DejaVuSans-2e" x="63.623047"/>
       <use xlink:href="#DejaVuSans-35" x="95.410156"/>
      </g>
     </g>
    </g>
    <g id="ytick_5">
     <g id="line2d_37">
      <path d="M 72 155.79 
L 518.4 155.79 
" clip-path="url(#p31a27227d8)" style="fill: none; stroke: #b0b0b0; stroke-width: 0.8; stroke-linecap: square"/>
     </g>
     <g id="line2d_38">
      <g>
       <use xlink:href="#m7cf8435df4" x="72" y="155.79" style="stroke: #000000; stroke-width: 0.8"/>
      </g>
     </g>
     <g id="text_20">
      <!-- 2.0 -->
      <g transform="translate(49.096875 159.589219) scale(0.1 -0.1)">
       <use xlink:href="#DejaVuSans-32"/>
       <use xlink:href="#DejaVuSans-2e" x="63.623047"/>
       <use xlink:href="#DejaVuSans-30" x="95.410156"/>
      </g>
     </g>
    </g>
    <g id="ytick_6">
     <g id="line2d_39">
      <path d="M 72 103.815 
L 518.4 103.815 
" clip-path="url(#p31a27227d8)" style="fill: none; stroke: #b0b0b0; stroke-width: 0.8; stroke-linecap: square"/>
     </g>
     <g id="line2d_40">
      <g>
       <use xlink:href="#m7cf8435df4" x="72" y="103.815" style="stroke: #000000; stroke-width: 0.8"/>
      </g>
     </g>
     <g id="text_21">
      <!-- 2.5 -->
      <g transform="translate(49.096875 107.614219) scale(0.1 -0.1)">
       <use xlink:href="#DejaVuSans-32"/>
       <use xlink:href="#DejaVuSans-2e" x="63.623047"/>
       <use xlink:href="#DejaVuSans-35" x="95.410156"/>
      </g>
     </g>
    </g>
    <g id="ytick_7">
     <g id="line2d_41">
      <path d="M 72 51.84 
L 518.4 51.84 
" clip-path="url(#p31a27227d8)" style="fill: none; stroke: #b0b0b0; stroke-width: 0.8; stroke-linecap: square"/>
     </g>
     <g id="line2d_42">
      <g>
       <use xlink:href="#m7cf8435df4" x="72" y="51.84" style="stroke: #000000; stroke-width: 0.8"/>
      </g>
     </g>
     <g id="text_22">
      <!-- 3.0 -->
      <g transform="translate(49.096875 55.639219) scale(0.1 -0.1)">
       <use xlink:href="#DejaVuSans-33"/>
       <use xlink:href="#DejaVuSans-2e" x="63.623047"/>
       <use xlink:href="#DejaVuSans-30" x="95.410156"/>
      </g>
     </g>
    </g>
    <g id="text_23">
     <!-- blank corrected OD600 -->
     <g transform="translate(43.017187 276.115469) rotate(-90) scale(0.1 -0.1)">
      <defs>
       <path id="DejaVuSans-62" d="M 3116 1747 
Q 3116 2381 2855 2742 
Q 2594 3103 2138 3103 
Q 1681 3103 1420 2742 
Q 1159 2381 1159 1747 
Q 1159 1113 1420 752 
Q 1681 391 2138 391 
Q 2594 391 2855 752 
Q 3116 1113 3116 1747 
z
M 1159 2969 
Q 1341 3281 1617 3432 
Q 1894 3584 2278 3584 
Q 2916 3584 3314 3078 
Q 3713 2572 3713 1747 
Q 3713 922 3314 415 
Q 2916 -91 2278 -91 
Q 1894 -91 1617 61 
Q 1341 213 1159 525 
L 1159 0 
L 581 0 
L 581 4863 
L 1159 4863 
L 1159 2969 
z
" transform="scale(0.015625)"/>
       <path id="DejaVuSans-6c" d="M 603 4863 
L 1178 4863 
L 1178 0 
L 603 0 
L 603 4863 
z
" transform="scale(0.015625)"/>
       <path id="DejaVuSans-61" d="M 2194 1759 
Q 1497 1759 1228 1600 
Q 959 1441 959 1056 
Q 959 750 1161 570 
Q 1363 391 1709 391 
Q 2188 391 2477 730 
Q 2766 1069 2766 1631 
L 2766 1759 
L 2194 1759 
z
M 3341 1997 
L 3341 0 
L 2766 0 
L 2766 531 
Q 2569 213 2275 61 
Q 1981 -91 1556 -91 
Q 1019 -91 701 211 
Q 384 513 384 1019 
Q 384 1609 779 1909 
Q 1175 2209 1959 2209 
L 2766 2209 
L 2766 2266 
Q 2766 2663 2505 2880 
Q 2244 3097 1772 3097 
Q 1472 3097 1187 3025 
Q 903 2953 641 2809 
L 641 3341 
Q 956 3463 1253 3523 
Q 1550 3584 1831 3584 
Q 2591 3584 2966 3190 
Q 3341 2797 3341 1997 
z
" transform="scale(0.015625)"/>
       <path id="DejaVuSans-6b" d="M 581 4863 
L 1159 4863 
L 1159 1991 
L 2875 3500 
L 3609 3500 
L 1753 1863 
L 3688 0 
L 2938 0 
L 1159 1709 
L 1159 0 
L 581 0 
L 581 4863 
z
" transform="scale(0.015625)"/>
       <path id="DejaVuSans-63" d="M 3122 3366 
L 3122 2828 
Q 2878 2963 2633 3030 
Q 2388 3097 2138 3097 
Q 1578 3097 1268 2742 
Q 959 2388 959 1747 
Q 959 1106 1268 751 
Q 1578 397 2138 397 
Q 2388 397 2633 464 
Q 2878 531 3122 666 
L 3122 134 
Q 2881 22 2623 -34 
Q 2366 -91 2075 -91 
Q 1284 -91 818 406 
Q 353 903 353 1747 
Q 353 2603 823 3093 
Q 1294 3584 2113 3584 
Q 2378 3584 2631 3529 
Q 2884 3475 3122 3366 
z
" transform="scale(0.015625)"/>
       <path id="DejaVuSans-64" d="M 2906 2969 
L 2906 4863 
L 3481 4863 
L 3481 0 
L 2906 0 
L 2906 525 
Q 2725 213 2448 61 
Q 2172 -91 1784 -91 
Q 1150 -91 751 415 
Q 353 922 353 1747 
Q 353 2572 751 3078 
Q 1150 3584 1784 3584 
Q 2172 3584 2448 3432 
Q 2725 3281 2906 2969 
z
M 947 1747 
Q 947 1113 1208 752 
Q 1469 391 1925 391 
Q 2381 391 2643 752 
Q 2906 1113 2906 1747 
Q 2906 2381 2643 2742 
Q 2381 3103 1925 3103 
Q 1469 3103 1208 2742 
Q 947 2381 947 1747 
z
" transform="scale(0.015625)"/>
       <path id="DejaVuSans-4f" d="M 2522 4238 
Q 1834 4238 1429 3725 
Q 1025 3213 1025 2328 
Q 1025 1447 1429 934 
Q 1834 422 2522 422 
Q 3209 422 3611 934 
Q 4013 1447 4013 2328 
Q 4013 3213 3611 3725 
Q 3209 4238 2522 4238 
z
M 2522 4750 
Q 3503 4750 4090 4092 
Q 4678 3434 4678 2328 
Q 4678 1225 4090 567 
Q 3503 -91 2522 -91 
Q 1538 -91 948 565 
Q 359 1222 359 2328 
Q 359 3434 948 4092 
Q 1538 4750 2522 4750 
z
" transform="scale(0.015625)"/>
       <path id="DejaVuSans-44" d="M 1259 4147 
L 1259 519 
L 2022 519 
Q 2988 519 3436 956 
Q 3884 1394 3884 2338 
Q 3884 3275 3436 3711 
Q 2988 4147 2022 4147 
L 1259 4147 
z
M 628 4666 
L 1925 4666 
Q 3281 4666 3915 4102 
Q 4550 3538 4550 2338 
Q 4550 1131 3912 565 
Q 3275 0 1925 0 
L 628 0 
L 628 4666 
z
" transform="scale(0.015625)"/>
      </defs>
      <use xlink:href="#DejaVuSans-62"/>
      <use xlink:href="#DejaVuSans-6c" x="63.476562"/>
      <use xlink:href="#DejaVuSans-61" x="91.259766"/>
      <use xlink:href="#DejaVuSans-6e" x="152.539062"/>
      <use xlink:href="#DejaVuSans-6b" x="215.917969"/>
      <use xlink:href="#DejaVuSans-20" x="273.828125"/>
      <use xlink:href="#DejaVuSans-63" x="305.615234"/>
      <use xlink:href="#DejaVuSans-6f" x="360.595703"/>
      <use xlink:href="#DejaVuSans-72" x="421.777344"/>
      <use xlink:href="#DejaVuSans-72" x="461.140625"/>
      <use xlink:href="#DejaVuSans-65" x="500.003906"/>
      <use xlink:href="#DejaVuSans-63" x="561.527344"/>
      <use xlink:href="#DejaVuSans-74" x="616.507812"/>
      <use xlink:href="#DejaVuSans-65" x="655.716797"/>
      <use xlink:href="#DejaVuSans-64" x="717.240234"/>
      <use xlink:href="#DejaVuSans-20" x="780.716797"/>
      <use xlink:href="#DejaVuSans-4f" x="812.503906"/>
      <use xlink:href="#DejaVuSans-44" x="891.214844"/>
      <use xlink:href="#DejaVuSans-36" x="968.216797"/>
      <use xlink:href="#DejaVuSans-30" x="1031.839844"/>
      <use xlink:href="#DejaVuSans-30" x="1095.462891"/>
     </g>
    </g>
   </g>
   <g id="line2d_43">
    <path d="M 92.290909 355.9977 
L 93.055162 355.374 
L 93.819414 355.68585 
L 94.583667 355.5819 
L 95.34792 355.06215 
L 96.876425 354.64635 
L 97.640678 354.23055 
L 98.404931 354.1266 
L 99.169183 353.5029 
L 99.933436 353.295 
L 101.461941 352.56735 
L 102.226194 352.35945 
L 102.990447 351.73575 
L 106.047458 350.07255 
L 106.81171 349.9686 
L 107.575963 349.24095 
L 109.868721 347.57775 
L 110.632974 346.95405 
L 111.397227 346.53825 
L 112.161479 345.91455 
L 112.925732 344.979 
L 115.982743 342.38025 
L 116.746995 341.0289 
L 118.275501 339.26175 
L 119.039753 339.1578 
L 119.804006 338.5341 
L 121.332512 336.8709 
L 122.861017 334.89585 
L 125.918028 331.15365 
L 126.68228 329.69835 
L 127.446533 328.7628 
L 128.975039 326.268 
L 129.739291 324.70875 
L 131.267797 322.00605 
L 132.032049 320.4468 
L 132.796302 319.30335 
L 133.560555 317.5362 
L 134.324807 317.5362 
L 136.617565 313.27425 
L 138.146071 310.15575 
L 138.910324 308.49255 
L 140.438829 305.6859 
L 141.203082 304.12665 
L 141.967334 302.25555 
L 142.731587 301.1121 
L 143.49584 298.8252 
L 144.260092 296.1225 
L 147.317103 288.11835 
L 148.081356 286.1433 
L 149.609861 283.54455 
L 151.138367 280.7379 
L 151.902619 278.55495 
L 152.666872 276.7878 
L 153.431125 274.5009 
L 154.195378 272.73375 
L 158.780894 260.3637 
L 159.545146 257.661 
L 160.309399 256.10175 
L 161.073652 254.02275 
L 163.36641 249.7608 
L 164.130663 249.65685 
L 164.894915 247.8897 
L 165.659168 246.53835 
L 167.187673 242.79615 
L 167.951926 241.8606 
L 172.537442 229.28265 
L 173.301695 226.8918 
L 174.065948 225.2286 
L 174.8302 223.25355 
L 175.594453 221.6943 
L 176.358706 221.0706 
L 177.122958 218.3679 
L 177.887211 217.64025 
L 178.651464 216.081 
L 180.944222 209.6361 
L 181.708475 208.3887 
L 183.23698 203.29515 
L 184.001233 202.04775 
L 186.293991 194.6673 
L 187.058243 193.212 
L 187.822496 192.06855 
L 188.586749 189.57375 
L 189.351002 188.8461 
L 190.115254 187.8066 
L 190.879507 187.70265 
L 191.64376 188.2224 
L 192.408012 186.975 
L 194.70077 184.79205 
L 196.229276 182.50515 
L 196.993529 181.67355 
L 197.757781 180.01035 
L 198.522034 179.6985 
L 199.286287 177.09975 
L 200.050539 176.1642 
L 200.814792 175.5405 
L 201.579045 174.39705 
L 202.343297 173.98125 
L 203.10755 174.0852 
L 203.871803 173.4615 
L 204.636055 173.4615 
L 205.400308 171.7983 
L 206.164561 171.69435 
L 206.928814 170.9667 
L 207.693066 169.61535 
L 208.457319 169.19955 
L 209.221572 168.36795 
L 209.985824 167.32845 
L 210.750077 167.4324 
L 211.51433 166.91265 
L 212.278582 165.1455 
L 213.807088 162.4428 
L 214.571341 161.71515 
L 215.335593 160.7796 
L 216.099846 160.7796 
L 217.628351 161.4033 
L 218.392604 161.29935 
L 219.156857 159.948 
L 219.921109 159.7401 
L 220.685362 159.948 
L 222.213867 158.2848 
L 224.506626 156.51765 
L 225.270878 156.30975 
L 226.035131 155.27025 
L 226.799384 153.9189 
L 227.563636 154.02285 
L 228.327889 152.77545 
L 229.092142 152.15175 
L 229.856394 152.15175 
L 230.620647 153.5031 
L 231.3849 153.0873 
L 232.149153 151.94385 
L 233.677658 151.2162 
L 234.441911 150.48855 
L 235.206163 150.28065 
L 235.970416 150.5925 
L 236.734669 150.07275 
L 237.498921 150.07275 
L 238.263174 149.65695 
L 239.027427 149.7609 
L 239.79168 148.3056 
L 240.555932 147.37005 
L 242.84869 147.0582 
L 243.612943 147.78585 
L 245.141448 147.474 
L 245.905701 147.37005 
L 246.669954 146.95425 
L 247.434206 146.95425 
L 248.198459 145.91475 
L 248.962712 146.33055 
L 249.726965 146.2266 
L 250.491217 145.49895 
L 251.25547 145.70685 
L 252.019723 145.29105 
L 252.783975 145.1871 
L 253.548228 144.45945 
L 254.312481 143.5239 
L 255.076733 144.04365 
L 255.840986 142.4844 
L 256.605239 142.79625 
L 257.369492 143.5239 
L 258.133744 144.04365 
L 258.897997 144.7713 
L 259.66225 143.5239 
L 260.426502 143.5239 
L 261.190755 143.83575 
L 261.955008 143.9397 
L 262.71926 143.5239 
L 263.483513 142.9002 
L 265.012018 142.17255 
L 265.776271 141.54885 
L 266.540524 141.8607 
L 267.304777 141.75675 
L 268.069029 139.05405 
L 268.833282 139.5738 
L 269.597535 138.84615 
L 270.361787 139.7817 
L 271.12604 140.30145 
L 271.890293 140.30145 
L 272.654545 140.50935 
L 273.418798 139.26195 
L 274.183051 139.46985 
L 274.947304 140.50935 
L 275.711556 139.26195 
L 276.475809 139.158 
L 277.240062 138.84615 
L 278.768567 136.8711 
L 279.53282 137.18295 
L 280.297072 137.80665 
L 281.061325 136.76715 
L 281.825578 136.76715 
L 282.589831 135.51975 
L 283.354083 135.4158 
L 284.118336 135.72765 
L 284.882589 135.72765 
L 285.646841 136.2474 
L 286.411094 135.51975 
L 287.175347 135.72765 
L 287.939599 134.3763 
L 288.703852 134.48025 
L 289.468105 133.64865 
L 290.232357 134.5842 
L 290.99661 133.5447 
L 291.760863 133.02495 
L 292.525116 131.98545 
L 293.289368 131.98545 
L 294.053621 131.15385 
L 294.817874 131.2578 
L 295.582126 130.2183 
L 296.346379 130.53015 
L 297.110632 130.4262 
L 297.874884 129.5946 
L 298.639137 129.5946 
L 299.40339 130.73805 
L 300.167643 129.69855 
L 300.931895 128.86695 
L 301.696148 129.07485 
L 302.460401 129.5946 
L 303.224653 128.9709 
L 304.753159 128.1393 
L 305.517411 127.20375 
L 306.281664 127.41165 
L 307.045917 126.2682 
L 307.810169 125.6445 
L 308.574422 126.16425 
L 309.338675 124.91685 
L 310.102928 124.3971 
L 310.86718 124.91685 
L 311.631433 124.605 
L 312.395686 124.08525 
L 313.159938 123.3576 
L 313.924191 123.5655 
L 314.688444 120.8628 
L 315.452696 122.1102 
L 316.216949 122.526 
L 316.981202 121.4865 
L 317.745455 121.0707 
L 318.509707 120.0312 
L 319.27396 119.92725 
L 320.038213 120.0312 
L 320.802465 119.30355 
L 321.566718 117.3285 
L 322.330971 118.67985 
L 323.095223 115.2495 
L 323.859476 116.0811 
L 324.623729 116.289 
L 325.387982 115.6653 
L 326.152234 115.4574 
L 326.916487 113.1705 
L 328.444992 113.89815 
L 329.209245 112.44285 
L 329.973498 112.44285 
L 330.73775 113.1705 
L 332.266256 110.4678 
L 333.794761 109.11645 
L 334.559014 109.11645 
L 335.323267 107.66115 
L 336.087519 107.03745 
L 336.851772 106.9335 
L 337.616025 104.12685 
L 338.380277 104.95845 
L 339.14453 106.1019 
L 339.908783 106.1019 
L 340.673035 105.58215 
L 341.437288 104.54265 
L 342.201541 104.0229 
L 342.965794 104.4387 
L 345.258552 100.38465 
L 346.022804 100.0728 
L 346.787057 100.59255 
L 347.55131 99.8649 
L 348.315562 97.578 
L 349.079815 96.9543 
L 349.844068 95.7069 
L 350.60832 96.9543 
L 352.136826 94.56345 
L 352.901079 94.77135 
L 353.665331 94.6674 
L 354.429584 94.35555 
L 355.193837 92.5884 
L 355.958089 94.56345 
L 357.486595 91.86075 
L 358.250847 91.341 
L 359.0151 91.02915 
L 359.779353 89.57385 
L 360.543606 89.6778 
L 361.307858 88.8462 
L 362.072111 88.95015 
L 362.836364 88.11855 
L 363.600616 87.5988 
L 364.364869 87.28695 
L 365.129122 85.7277 
L 365.893374 87.49485 
L 366.657627 86.1435 
L 367.42188 87.07905 
L 368.186133 87.183 
L 369.714638 84.4803 
L 370.478891 86.3514 
L 371.243143 86.66325 
L 372.007396 88.11855 
L 372.771649 86.1435 
L 373.535901 85.5198 
L 374.300154 85.9356 
L 375.064407 85.62375 
L 375.828659 82.6092 
L 376.592912 85.00005 
L 377.357165 84.79215 
L 378.121418 84.0645 
L 378.88567 82.71315 
L 379.649923 85.3119 
L 380.414176 83.75265 
L 381.942681 84.4803 
L 382.706934 83.4408 
L 383.471186 86.1435 
L 384.235439 82.71315 
L 384.999692 84.37635 
L 385.763945 84.4803 
L 386.528197 80.5302 
L 387.29245 84.0645 
L 388.820955 82.71315 
L 389.585208 82.29735 
L 390.349461 83.75265 
L 391.113713 83.33685 
L 391.877966 82.4013 
L 392.642219 84.58425 
L 393.406471 83.8566 
L 394.170724 82.8171 
L 394.934977 82.08945 
L 395.69923 83.54475 
L 396.463482 83.33685 
L 397.227735 82.50525 
L 397.991988 83.33685 
L 398.75624 82.1934 
L 399.520493 82.4013 
L 400.284746 83.33685 
L 401.048998 84.8961 
L 401.813251 85.00005 
L 402.577504 83.75265 
L 403.341757 84.16845 
L 404.106009 83.8566 
L 404.870262 82.8171 
L 405.634515 83.4408 
L 406.398767 82.1934 
L 407.16302 80.63415 
L 407.927273 84.16845 
L 408.691525 82.4013 
L 409.455778 84.79215 
L 410.220031 84.37635 
L 410.984284 84.2724 
L 411.748536 83.75265 
L 412.512789 86.1435 
L 413.277042 83.75265 
L 414.041294 83.8566 
L 414.805547 84.58425 
L 415.5698 81.3618 
L 416.334052 84.6882 
L 417.098305 84.8961 
L 417.862558 85.9356 
L 418.62681 84.79215 
L 419.391063 84.6882 
L 420.155316 82.8171 
L 420.919569 84.79215 
L 421.683821 84.16845 
L 422.448074 84.79215 
L 423.212327 84.2724 
L 423.976579 81.9855 
L 424.740832 85.104 
L 425.505085 83.6487 
L 426.269337 86.5593 
L 427.03359 84.8961 
L 427.797843 83.54475 
L 428.562096 84.37635 
L 429.326348 86.7672 
L 430.090601 85.00005 
L 430.854854 86.45535 
L 431.619106 83.025 
L 432.383359 83.8566 
L 433.147612 81.46575 
L 433.911864 85.104 
L 434.676117 83.12895 
L 435.44037 85.62375 
L 436.968875 86.3514 
L 437.733128 85.104 
L 438.497381 84.37635 
L 439.261633 83.33685 
L 440.025886 86.66325 
L 441.554391 84.8961 
L 442.318644 86.1435 
L 443.082897 86.03955 
L 443.847149 85.62375 
L 444.611402 86.3514 
L 445.375655 84.0645 
L 446.139908 84.8961 
L 446.90416 85.00005 
L 447.668413 83.6487 
L 448.432666 86.1435 
L 449.196918 88.0146 
L 449.961171 85.5198 
L 450.725424 88.11855 
L 451.489676 86.1435 
L 452.253929 86.3514 
L 453.018182 87.70275 
L 453.782435 86.3514 
L 454.546687 87.49485 
L 455.31094 84.8961 
L 456.075193 86.24745 
L 456.839445 88.0146 
L 457.603698 84.8961 
L 458.367951 85.3119 
L 459.132203 85.9356 
L 460.660709 85.20795 
L 461.424961 86.03955 
L 462.189214 86.1435 
L 462.953467 85.00005 
L 463.71772 87.8067 
L 464.481972 85.9356 
L 465.246225 86.7672 
L 466.010478 85.00005 
L 466.77473 85.3119 
L 468.303236 88.0146 
L 469.067488 87.28695 
L 469.831741 88.74225 
L 470.595994 86.5593 
L 471.360247 86.5593 
L 472.124499 89.15805 
L 472.888752 86.7672 
L 473.653005 86.87115 
L 474.417257 85.5198 
L 475.18151 87.28695 
L 475.945763 88.53435 
L 476.710015 89.36595 
L 477.474268 88.74225 
L 478.238521 87.3909 
L 479.002773 87.3909 
L 479.767026 89.4699 
L 480.531279 88.74225 
L 481.295532 89.8857 
L 482.059784 88.4304 
L 482.824037 89.4699 
L 483.58829 88.0146 
L 484.352542 88.0146 
L 485.116795 88.2225 
L 485.881048 89.262 
L 486.6453 87.70275 
L 487.409553 88.53435 
L 488.173806 88.8462 
L 488.938059 87.49485 
L 489.702311 88.2225 
L 490.466564 88.11855 
L 491.230817 90.40545 
L 491.995069 88.32645 
L 492.759322 88.32645 
L 493.523575 89.8857 
L 494.287827 89.36595 
L 495.05208 90.3015 
L 495.816333 89.98965 
L 496.580586 88.32645 
L 497.344838 89.36595 
L 498.109091 87.5988 
L 498.109091 87.5988 
" clip-path="url(#p31a27227d8)" style="fill: none; stroke: #0000ff; stroke-opacity: 0.5; stroke-width: 1.5; stroke-linecap: square"/>
   </g>
   <g id="line2d_44">
    <path d="M 92.290909 355.9977 
L 93.055162 355.374 
L 93.819414 355.68585 
L 102.226194 352.15155 
L 107.575963 349.137 
L 108.340216 348.3054 
L 109.104468 347.99355 
L 111.397227 346.33035 
L 112.925732 344.979 
L 113.689985 344.45925 
L 114.454237 343.62765 
L 115.21849 343.00395 
L 115.982743 342.17235 
L 116.746995 340.821 
L 117.511248 339.7815 
L 118.275501 338.9499 
L 119.039753 338.63805 
L 119.804006 338.5341 
L 121.332512 336.35115 
L 122.096764 335.6235 
L 125.153775 331.77735 
L 125.918028 330.73785 
L 126.68228 329.3865 
L 128.210786 327.41145 
L 128.975039 325.95615 
L 129.739291 324.8127 
L 131.267797 321.0705 
L 132.032049 319.51125 
L 132.796302 318.3678 
L 135.08906 315.56115 
L 135.853313 314.4177 
L 137.381818 311.2992 
L 138.910324 308.28465 
L 140.438829 305.6859 
L 141.967334 302.04765 
L 142.731587 300.6963 
L 145.024345 293.52375 
L 146.552851 289.4697 
L 148.845609 284.58405 
L 149.609861 283.33665 
L 151.138367 280.01025 
L 151.902619 277.72335 
L 153.431125 273.98115 
L 154.195378 271.90215 
L 154.95963 270.3429 
L 155.723883 268.056 
L 156.488136 266.1849 
L 158.780894 259.3242 
L 161.073652 253.503 
L 161.837904 251.94375 
L 162.602157 250.90425 
L 163.36641 250.69635 
L 164.894915 247.266 
L 165.659168 245.91465 
L 166.423421 243.83565 
L 167.187673 242.17245 
L 167.951926 241.13295 
L 171.008937 232.0893 
L 172.537442 227.3076 
L 174.065948 224.6049 
L 174.8302 222.00615 
L 175.594453 221.4864 
L 176.358706 220.34295 
L 177.122958 218.5758 
L 178.651464 213.48225 
L 179.415716 212.5467 
L 180.179969 210.36375 
L 180.944222 209.2203 
L 183.23698 202.3596 
L 184.001233 200.80035 
L 185.529738 197.05815 
L 186.293991 193.73175 
L 187.058243 192.48435 
L 187.822496 191.86065 
L 188.586749 190.0935 
L 190.115254 188.32635 
L 190.879507 188.53425 
L 191.64376 188.53425 
L 192.408012 188.0145 
L 193.936518 186.03945 
L 194.70077 185.41575 
L 195.465023 184.4802 
L 196.229276 182.92095 
L 196.993529 182.4012 
L 197.757781 180.63405 
L 198.522034 180.42615 
L 199.286287 178.0353 
L 200.814792 176.26815 
L 202.343297 175.1247 
L 203.10755 175.5405 
L 203.871803 174.9168 
L 204.636055 173.6694 
L 205.400308 173.0457 
L 206.164561 172.8378 
L 206.928814 171.69435 
L 207.693066 170.7588 
L 209.221572 169.61535 
L 209.985824 168.6798 
L 210.750077 168.57585 
L 212.278582 166.28895 
L 213.042835 164.83365 
L 213.807088 164.62575 
L 214.571341 162.75465 
L 215.335593 161.6112 
L 216.864099 162.75465 
L 218.392604 161.8191 
L 219.156857 160.7796 
L 220.685362 160.3638 
L 221.449615 159.5322 
L 222.213867 159.1164 
L 222.97812 158.4927 
L 223.742373 158.2848 
L 224.506626 157.2453 
L 225.270878 157.14135 
L 226.799384 155.1663 
L 227.563636 155.06235 
L 228.327889 153.81495 
L 229.092142 153.5031 
L 229.856394 153.5031 
L 230.620647 153.9189 
L 231.3849 153.60705 
L 232.149153 152.8794 
L 233.677658 152.77545 
L 234.441911 151.94385 
L 235.206163 151.632 
L 235.970416 152.2557 
L 236.734669 151.11225 
L 237.498921 150.28065 
L 238.263174 150.3846 
L 239.79168 149.7609 
L 240.555932 148.9293 
L 241.320185 148.9293 
L 242.084438 148.5135 
L 242.84869 148.3056 
L 243.612943 148.82535 
L 244.377196 147.78585 
L 245.141448 148.40955 
L 245.905701 147.99375 
L 246.669954 147.8898 
L 247.434206 147.99375 
L 248.198459 146.6424 
L 248.962712 146.74635 
L 250.491217 145.8108 
L 251.25547 146.0187 
L 252.019723 146.4345 
L 253.548228 144.66735 
L 254.312481 144.87525 
L 255.840986 143.316 
L 256.605239 143.9397 
L 257.369492 144.3555 
L 258.133744 143.83575 
L 258.897997 144.87525 
L 259.66225 143.7318 
L 261.190755 144.04365 
L 261.955008 143.41995 
L 262.71926 143.316 
L 263.483513 142.79625 
L 265.012018 143.1081 
L 265.776271 141.6528 
L 266.540524 141.75675 
L 267.304777 141.34095 
L 268.069029 140.6133 
L 268.833282 139.5738 
L 269.597535 139.26195 
L 271.12604 141.0291 
L 271.890293 141.237 
L 272.654545 140.8212 
L 273.418798 140.09355 
L 274.183051 140.8212 
L 274.947304 140.50935 
L 276.475809 139.3659 
L 277.240062 139.26195 
L 278.004314 138.9501 
L 278.768567 138.3264 
L 279.53282 138.01455 
L 280.297072 137.2869 
L 281.061325 136.76715 
L 281.825578 137.18295 
L 282.589831 137.079 
L 283.354083 135.4158 
L 284.118336 136.14345 
L 284.882589 135.93555 
L 285.646841 135.93555 
L 286.411094 135.10395 
L 287.175347 135.2079 
L 288.703852 133.64865 
L 289.468105 133.02495 
L 290.232357 134.7921 
L 290.99661 133.44075 
L 291.760863 132.921 
L 293.289368 132.5052 
L 294.053621 131.77755 
L 294.817874 131.56965 
L 295.582126 130.842 
L 296.346379 130.73805 
L 297.110632 130.842 
L 297.874884 130.11435 
L 298.639137 130.94595 
L 299.40339 130.0104 
L 300.167643 130.11435 
L 300.931895 129.1788 
L 301.696148 128.5551 
L 302.460401 129.69855 
L 303.224653 129.8025 
L 303.988906 128.65905 
L 304.753159 128.24325 
L 306.281664 128.03535 
L 307.045917 126.58005 
L 307.810169 126.4761 
L 308.574422 126.16425 
L 310.102928 124.50105 
L 310.86718 125.54055 
L 311.631433 125.4366 
L 312.395686 124.70895 
L 313.159938 123.7734 
L 313.924191 123.5655 
L 314.688444 122.21415 
L 316.216949 123.04575 
L 316.981202 121.9023 
L 317.745455 121.38255 
L 318.509707 119.92725 
L 319.27396 120.0312 
L 320.038213 119.71935 
L 320.802465 118.5759 
L 321.566718 118.88775 
L 322.330971 118.368 
L 323.095223 116.289 
L 323.859476 116.7048 
L 324.623729 115.76925 
L 325.387982 116.4969 
L 326.152234 115.56135 
L 327.68074 114.21 
L 328.444992 114.10605 
L 329.973498 112.23495 
L 330.73775 112.65075 
L 331.502003 112.131 
L 332.266256 111.0915 
L 333.030508 108.90855 
L 333.794761 110.98755 
L 334.559014 109.94805 
L 335.323267 108.70065 
L 336.087519 107.7651 
L 336.851772 106.62165 
L 337.616025 106.5177 
L 338.380277 105.58215 
L 339.14453 105.4782 
L 339.908783 105.99795 
L 340.673035 104.8545 
L 341.437288 104.8545 
L 342.201541 104.12685 
L 342.965794 103.1913 
L 343.730046 102.67155 
L 344.494299 103.50315 
L 345.258552 101.9439 
L 346.022804 101.42415 
L 347.55131 101.21625 
L 348.315562 98.8254 
L 349.079815 98.51355 
L 349.844068 97.47405 
L 350.60832 98.6175 
L 352.136826 95.60295 
L 352.901079 97.578 
L 353.665331 94.77135 
L 354.429584 95.18715 
L 355.193837 92.06865 
L 355.958089 93.0042 
L 356.722342 92.48445 
L 357.486595 93.8358 
L 358.250847 92.06865 
L 359.0151 91.86075 
L 359.779353 90.9252 
L 360.543606 89.36595 
L 361.307858 88.8462 
L 362.072111 87.07905 
L 362.836364 88.2225 
L 363.600616 88.74225 
L 364.364869 88.32645 
L 365.129122 88.11855 
L 365.893374 86.87115 
L 366.657627 87.8067 
L 367.42188 87.49485 
L 368.186133 87.70275 
L 368.950385 86.5593 
L 369.714638 85.83165 
L 370.478891 84.6882 
L 371.243143 87.70275 
L 372.007396 87.28695 
L 372.771649 85.41585 
L 373.535901 85.5198 
L 374.300154 85.20795 
L 375.064407 83.2329 
L 375.828659 83.4408 
L 377.357165 85.00005 
L 378.121418 83.12895 
L 378.88567 82.71315 
L 379.649923 84.79215 
L 380.414176 83.33685 
L 381.178428 85.00005 
L 381.942681 85.3119 
L 382.706934 83.33685 
L 383.471186 85.9356 
L 384.235439 82.71315 
L 384.999692 84.8961 
L 385.763945 82.8171 
L 386.528197 84.2724 
L 387.29245 85.104 
L 388.056703 83.54475 
L 388.820955 82.92105 
L 389.585208 85.9356 
L 390.349461 85.7277 
L 391.113713 83.8566 
L 391.877966 81.25785 
L 392.642219 83.54475 
L 394.170724 84.0645 
L 394.934977 84.4803 
L 395.69923 82.71315 
L 396.463482 83.025 
L 397.227735 84.16845 
L 397.991988 85.104 
L 398.75624 82.92105 
L 399.520493 83.4408 
L 401.048998 83.75265 
L 401.813251 84.6882 
L 402.577504 83.96055 
L 403.341757 83.75265 
L 404.106009 83.75265 
L 404.870262 82.50525 
L 405.634515 83.4408 
L 406.398767 81.9855 
L 407.16302 84.16845 
L 407.927273 84.0645 
L 408.691525 82.8171 
L 409.455778 85.7277 
L 410.220031 83.4408 
L 410.984284 84.6882 
L 411.748536 84.2724 
L 412.512789 86.24745 
L 414.041294 85.62375 
L 414.805547 85.104 
L 415.5698 82.71315 
L 416.334052 84.58425 
L 417.098305 85.104 
L 418.62681 84.4803 
L 419.391063 83.4408 
L 420.155316 83.54475 
L 420.919569 84.58425 
L 421.683821 86.1435 
L 422.448074 86.03955 
L 423.976579 83.33685 
L 424.740832 84.0645 
L 425.505085 85.83165 
L 426.269337 86.1435 
L 427.03359 87.28695 
L 427.797843 86.03955 
L 428.562096 85.9356 
L 429.326348 88.53435 
L 430.090601 86.24745 
L 430.854854 87.49485 
L 431.619106 85.41585 
L 432.383359 84.16845 
L 433.147612 83.6487 
L 433.911864 86.03955 
L 434.676117 84.16845 
L 435.44037 87.07905 
L 436.968875 87.8067 
L 437.733128 86.87115 
L 438.497381 84.8961 
L 439.261633 86.03955 
L 440.025886 87.8067 
L 441.554391 86.66325 
L 442.318644 87.8067 
L 443.082897 86.45535 
L 443.847149 87.49485 
L 444.611402 85.7277 
L 446.139908 84.79215 
L 446.90416 87.28695 
L 447.668413 84.8961 
L 449.196918 88.0146 
L 449.961171 86.24745 
L 450.725424 88.95015 
L 451.489676 86.9751 
L 452.253929 87.28695 
L 453.018182 87.28695 
L 453.782435 88.11855 
L 454.546687 88.74225 
L 455.31094 87.183 
L 456.075193 87.07905 
L 456.839445 89.4699 
L 457.603698 86.3514 
L 458.367951 87.91065 
L 459.132203 85.7277 
L 459.896456 86.66325 
L 461.424961 86.9751 
L 462.189214 87.70275 
L 462.953467 87.183 
L 463.71772 88.2225 
L 464.481972 87.8067 
L 465.246225 87.91065 
L 466.010478 88.53435 
L 466.77473 87.8067 
L 467.538983 88.6383 
L 468.303236 88.53435 
L 469.067488 89.262 
L 469.831741 88.11855 
L 470.595994 88.8462 
L 471.360247 88.95015 
L 472.124499 88.74225 
L 472.888752 88.0146 
L 473.653005 85.83165 
L 474.417257 87.28695 
L 475.18151 86.87115 
L 475.945763 89.15805 
L 476.710015 90.0936 
L 477.474268 89.262 
L 478.238521 87.91065 
L 479.002773 89.15805 
L 479.767026 88.95015 
L 481.295532 89.98965 
L 482.059784 87.49485 
L 482.824037 89.98965 
L 483.58829 89.8857 
L 484.352542 90.3015 
L 485.116795 88.11855 
L 485.881048 90.0936 
L 486.6453 89.262 
L 487.409553 88.95015 
L 488.173806 89.0541 
L 488.938059 87.70275 
L 489.702311 89.78175 
L 490.466564 88.0146 
L 491.230817 90.82125 
L 491.995069 88.8462 
L 492.759322 88.11855 
L 493.523575 91.02915 
L 494.287827 90.0936 
L 495.05208 89.4699 
L 495.816333 90.19755 
L 496.580586 89.15805 
L 497.344838 90.61335 
L 498.109091 90.7173 
L 498.109091 90.7173 
" clip-path="url(#p31a27227d8)" style="fill: none; stroke: #0000ff; stroke-opacity: 0.5; stroke-width: 1.5; stroke-linecap: square"/>
   </g>
   <g id="line2d_45">
    <path d="M 92.290909 355.68585 
L 93.055162 355.374 
L 93.819414 355.68585 
L 94.583667 355.5819 
L 96.112173 354.7503 
L 96.876425 354.7503 
L 97.640678 354.1266 
L 98.404931 354.02265 
L 99.169183 353.5029 
L 99.933436 353.295 
L 106.047458 350.07255 
L 106.81171 349.7607 
L 107.575963 349.03305 
L 111.397227 346.33035 
L 113.689985 344.3553 
L 114.454237 343.62765 
L 115.21849 343.1079 
L 115.982743 342.17235 
L 118.275501 338.84595 
L 119.804006 338.3262 
L 122.096764 335.72745 
L 122.861017 334.584 
L 123.62527 333.85635 
L 127.446533 328.5549 
L 128.210786 327.41145 
L 128.975039 325.8522 
L 129.739291 325.0206 
L 131.267797 321.17445 
L 132.032049 319.4073 
L 132.796302 318.47175 
L 133.560555 317.3283 
L 134.324807 317.1204 
L 135.853313 314.52165 
L 138.910324 308.28465 
L 140.438829 305.58195 
L 141.203082 304.0227 
L 141.967334 302.04765 
L 142.731587 300.6963 
L 143.49584 297.68175 
L 145.024345 292.7961 
L 147.317103 286.45515 
L 148.081356 284.4801 
L 150.374114 279.59445 
L 152.666872 276.06015 
L 153.431125 273.35745 
L 154.195378 271.69425 
L 156.488136 265.5612 
L 158.016641 260.5716 
L 159.545146 255.68595 
L 160.309399 254.23065 
L 161.073652 252.2556 
L 162.602157 248.9292 
L 163.36641 248.20155 
L 164.130663 247.99365 
L 164.894915 246.12255 
L 165.659168 244.5633 
L 167.187673 240.71715 
L 167.951926 240.1974 
L 169.480431 235.51965 
L 170.244684 233.9604 
L 171.008937 231.4656 
L 172.537442 227.20365 
L 174.065948 222.318 
L 175.594453 218.7837 
L 176.358706 218.88765 
L 177.122958 216.80865 
L 178.651464 213.69015 
L 179.415716 211.61115 
L 180.179969 210.77955 
L 180.944222 207.86895 
L 181.708475 207.3492 
L 182.472727 202.5675 
L 183.23698 201.7359 
L 184.001233 199.0332 
L 184.765485 197.37 
L 185.529738 195.18705 
L 186.293991 191.133 
L 187.058243 189.6777 
L 187.822496 190.0935 
L 188.586749 188.4303 
L 189.351002 187.1829 
L 190.115254 186.7671 
L 190.879507 187.07895 
L 191.64376 187.07895 
L 192.408012 186.24735 
L 193.172265 185.9355 
L 193.936518 185.20785 
L 194.70077 184.0644 
L 195.465023 183.2328 
L 196.993529 182.29725 
L 197.757781 180.01035 
L 198.522034 178.76295 
L 200.050539 175.64445 
L 200.814792 173.0457 
L 201.579045 172.8378 
L 202.343297 172.8378 
L 203.10755 173.8773 
L 203.871803 174.18915 
L 204.636055 174.18915 
L 205.400308 172.73385 
L 206.164561 172.94175 
L 206.928814 171.7983 
L 207.693066 170.9667 
L 208.457319 170.44695 
L 209.221572 169.5114 
L 210.750077 168.4719 
L 211.51433 167.4324 
L 212.278582 166.08105 
L 213.042835 164.41785 
L 215.335593 161.6112 
L 216.864099 161.92305 
L 217.628351 162.54675 
L 218.392604 161.6112 
L 219.156857 160.1559 
L 220.685362 159.84405 
L 221.449615 158.4927 
L 222.213867 158.59665 
L 222.97812 158.18085 
L 223.742373 156.8295 
L 224.506626 157.34925 
L 225.270878 156.4137 
L 226.035131 156.10185 
L 226.799384 154.9584 
L 227.563636 154.64655 
L 228.327889 152.77545 
L 229.856394 152.8794 
L 230.620647 153.9189 
L 231.3849 153.39915 
L 232.149153 152.4636 
L 232.913405 152.56755 
L 233.677658 153.0873 
L 234.441911 151.0083 
L 235.206163 151.52805 
L 235.970416 151.73595 
L 236.734669 151.11225 
L 237.498921 150.8004 
L 238.263174 149.9688 
L 239.027427 150.90435 
L 239.79168 149.03325 
L 240.555932 148.5135 
L 241.320185 148.20165 
L 242.084438 148.82535 
L 242.84869 147.99375 
L 243.612943 149.7609 
L 244.377196 148.40955 
L 245.141448 148.61745 
L 245.905701 148.3056 
L 246.669954 148.20165 
L 247.434206 147.8898 
L 248.198459 147.37005 
L 248.962712 147.474 
L 250.491217 145.49895 
L 251.25547 146.6424 
L 252.019723 145.91475 
L 252.783975 145.8108 
L 253.548228 144.66735 
L 254.312481 144.1476 
L 255.076733 144.3555 
L 255.840986 142.6923 
L 257.369492 143.83575 
L 258.133744 144.7713 
L 258.897997 145.08315 
L 259.66225 143.5239 
L 261.190755 144.1476 
L 261.955008 143.21205 
L 262.71926 143.83575 
L 263.483513 142.9002 
L 264.247766 143.83575 
L 265.012018 142.9002 
L 265.776271 142.2765 
L 266.540524 141.4449 
L 267.304777 142.17255 
L 268.069029 140.4054 
L 268.833282 140.09355 
L 269.597535 138.84615 
L 270.361787 139.05405 
L 271.12604 140.92515 
L 271.890293 141.4449 
L 272.654545 141.237 
L 273.418798 140.30145 
L 274.183051 139.9896 
L 274.947304 140.1975 
L 275.711556 139.5738 
L 276.475809 138.5343 
L 277.240062 139.158 
L 278.004314 138.43035 
L 278.768567 138.1185 
L 279.53282 137.079 
L 280.297072 137.18295 
L 281.061325 136.76715 
L 281.825578 136.8711 
L 282.589831 135.51975 
L 283.354083 135.2079 
L 284.118336 136.6632 
L 284.882589 135.8316 
L 285.646841 135.51975 
L 286.411094 135.8316 
L 287.175347 134.7921 
L 287.939599 135 
L 288.703852 134.06445 
L 289.468105 134.3763 
L 290.232357 134.48025 
L 290.99661 133.9605 
L 291.760863 133.02495 
L 292.525116 133.02495 
L 293.289368 132.81705 
L 294.817874 131.0499 
L 296.346379 130.11435 
L 297.110632 130.4262 
L 297.874884 130.11435 
L 298.639137 130.6341 
L 299.40339 130.32225 
L 300.167643 128.86695 
L 300.931895 129.28275 
L 301.696148 128.65905 
L 302.460401 129.90645 
L 303.224653 128.3472 
L 303.988906 127.61955 
L 304.753159 127.61955 
L 306.281664 126.78795 
L 307.045917 126.78795 
L 307.810169 124.91685 
L 309.338675 123.87735 
L 310.102928 122.526 
L 310.86718 122.62995 
L 311.631433 123.87735 
L 312.395686 123.04575 
L 313.159938 122.7339 
L 313.924191 123.3576 
L 314.688444 120.75885 
L 315.452696 121.4865 
L 316.216949 121.2786 
L 316.981202 120.0312 
L 317.745455 120.0312 
L 318.509707 118.26405 
L 319.27396 118.5759 
L 320.038213 117.9522 
L 320.802465 117.01665 
L 321.566718 116.9127 
L 322.330971 116.60085 
L 323.095223 114.52185 
L 323.859476 113.89815 
L 324.623729 113.7942 
L 325.387982 114.31395 
L 326.152234 112.9626 
L 326.916487 112.9626 
L 327.68074 111.19545 
L 328.444992 112.5468 
L 329.209245 111.40335 
L 329.973498 109.0125 
L 330.73775 110.57175 
L 331.502003 109.4283 
L 332.266256 107.45325 
L 333.030508 106.7256 
L 333.794761 108.5967 
L 334.559014 105.4782 
L 335.323267 104.95845 
L 336.087519 106.62165 
L 336.851772 103.91895 
L 337.616025 103.71105 
L 339.14453 103.815 
L 339.908783 105.0624 
L 340.673035 103.6071 
L 341.437288 101.63205 
L 342.201541 101.736 
L 342.965794 101.1123 
L 343.730046 99.34515 
L 344.494299 100.4886 
L 345.258552 98.4096 
L 346.022804 98.30565 
L 346.787057 98.72145 
L 347.55131 97.26615 
L 348.315562 96.22665 
L 349.079815 94.8753 
L 349.844068 94.35555 
L 350.60832 94.8753 
L 351.372573 93.42 
L 352.136826 93.6279 
L 352.901079 92.48445 
L 353.665331 92.7963 
L 354.429584 91.9647 
L 355.958089 91.5489 
L 357.486595 91.86075 
L 358.250847 90.9252 
L 359.0151 87.8067 
L 359.779353 88.95015 
L 360.543606 88.4304 
L 361.307858 90.3015 
L 362.072111 88.2225 
L 362.836364 86.5593 
L 363.600616 88.0146 
L 364.364869 87.07905 
L 365.129122 84.0645 
L 365.893374 85.5198 
L 366.657627 85.104 
L 368.186133 87.07905 
L 368.950385 86.3514 
L 369.714638 83.54475 
L 370.478891 85.83165 
L 371.243143 86.87115 
L 372.007396 86.03955 
L 372.771649 86.1435 
L 373.535901 85.104 
L 374.300154 84.4803 
L 375.064407 84.16845 
L 375.828659 83.12895 
L 376.592912 85.20795 
L 377.357165 84.16845 
L 378.121418 83.54475 
L 378.88567 81.3618 
L 379.649923 82.8171 
L 380.414176 83.96055 
L 381.178428 83.75265 
L 381.942681 85.7277 
L 382.706934 84.37635 
L 383.471186 85.20795 
L 384.235439 83.75265 
L 384.999692 85.104 
L 385.763945 84.0645 
L 386.528197 84.37635 
L 387.29245 83.8566 
L 388.056703 84.58425 
L 388.820955 82.8171 
L 389.585208 84.6882 
L 391.113713 83.12895 
L 391.877966 81.04995 
L 393.406471 84.6882 
L 394.170724 83.33685 
L 395.69923 82.71315 
L 396.463482 83.2329 
L 397.227735 81.9855 
L 397.991988 83.6487 
L 398.75624 82.71315 
L 399.520493 81.5697 
L 400.284746 83.96055 
L 401.813251 83.025 
L 402.577504 82.08945 
L 403.341757 85.83165 
L 404.106009 85.104 
L 404.870262 83.54475 
L 405.634515 83.6487 
L 407.16302 81.7776 
L 407.927273 82.4013 
L 408.691525 83.33685 
L 409.455778 85.3119 
L 410.220031 84.16845 
L 410.984284 84.2724 
L 411.748536 85.104 
L 412.512789 85.62375 
L 413.277042 85.104 
L 414.041294 83.4408 
L 414.805547 85.00005 
L 415.5698 82.92105 
L 416.334052 85.9356 
L 417.098305 84.6882 
L 417.862558 86.45535 
L 418.62681 84.2724 
L 419.391063 85.20795 
L 420.155316 83.025 
L 420.919569 85.3119 
L 421.683821 85.83165 
L 422.448074 85.104 
L 423.212327 85.41585 
L 423.976579 83.33685 
L 424.740832 84.6882 
L 425.505085 84.0645 
L 426.269337 87.91065 
L 427.03359 85.41585 
L 427.797843 85.83165 
L 428.562096 85.83165 
L 429.326348 85.5198 
L 430.090601 86.87115 
L 430.854854 85.9356 
L 431.619106 85.41585 
L 432.383359 84.0645 
L 433.147612 83.75265 
L 433.911864 84.79215 
L 434.676117 85.00005 
L 435.44037 84.58425 
L 436.204622 87.07905 
L 436.968875 86.7672 
L 437.733128 85.41585 
L 438.497381 86.24745 
L 439.261633 85.41585 
L 440.025886 88.0146 
L 441.554391 84.4803 
L 442.318644 86.3514 
L 443.082897 85.104 
L 443.847149 87.28695 
L 444.611402 87.5988 
L 446.139908 85.104 
L 446.90416 86.24745 
L 447.668413 85.20795 
L 448.432666 85.83165 
L 449.196918 87.49485 
L 449.961171 86.5593 
L 450.725424 88.32645 
L 451.489676 88.53435 
L 452.253929 88.95015 
L 453.018182 87.91065 
L 453.782435 88.4304 
L 454.546687 87.8067 
L 455.31094 88.32645 
L 456.075193 87.183 
L 456.839445 86.87115 
L 457.603698 85.9356 
L 458.367951 86.03955 
L 459.132203 85.62375 
L 459.896456 87.28695 
L 460.660709 86.66325 
L 461.424961 86.87115 
L 462.189214 88.32645 
L 462.953467 87.49485 
L 463.71772 89.4699 
L 464.481972 87.8067 
L 465.246225 88.53435 
L 466.010478 87.91065 
L 466.77473 87.07905 
L 467.538983 88.2225 
L 468.303236 89.0541 
L 469.831741 89.78175 
L 470.595994 89.262 
L 471.360247 89.36595 
L 472.124499 89.78175 
L 472.888752 86.9751 
L 473.653005 86.66325 
L 474.417257 87.8067 
L 475.18151 86.66325 
L 475.945763 87.28695 
L 476.710015 89.6778 
L 477.474268 90.19755 
L 478.238521 87.70275 
L 479.767026 90.40545 
L 480.531279 89.0541 
L 481.295532 89.262 
L 482.059784 88.4304 
L 482.824037 90.0936 
L 483.58829 90.3015 
L 485.116795 88.95015 
L 485.881048 90.9252 
L 486.6453 89.0541 
L 487.409553 89.6778 
L 488.173806 89.78175 
L 488.938059 87.5988 
L 489.702311 88.11855 
L 490.466564 86.1435 
L 491.230817 89.15805 
L 491.995069 89.6778 
L 492.759322 88.4304 
L 493.523575 90.7173 
L 494.287827 91.86075 
L 495.05208 89.4699 
L 495.816333 91.341 
L 496.580586 89.36595 
L 497.344838 90.82125 
L 498.109091 90.3015 
L 498.109091 90.3015 
" clip-path="url(#p31a27227d8)" style="fill: none; stroke: #0000ff; stroke-opacity: 0.5; stroke-width: 1.5; stroke-linecap: square"/>
   </g>
   <g id="line2d_46">
    <path d="M 92.290909 356.6214 
L 93.055162 355.47795 
L 93.819414 356.2056 
L 96.112173 355.47795 
L 96.876425 355.1661 
L 97.640678 354.64635 
L 98.404931 354.64635 
L 101.461941 353.0871 
L 102.226194 352.8792 
L 107.575963 349.86465 
L 110.632974 347.6817 
L 111.397227 347.4738 
L 114.454237 344.66715 
L 115.21849 344.1474 
L 115.982743 343.41975 
L 116.746995 342.4842 
L 118.275501 340.92495 
L 119.039753 340.50915 
L 122.096764 337.0788 
L 122.861017 336.0393 
L 123.62527 335.31165 
L 124.389522 334.3761 
L 125.153775 333.23265 
L 126.68228 331.4655 
L 129.739291 326.78775 
L 130.503544 324.6048 
L 132.032049 321.6942 
L 132.796302 320.96655 
L 133.560555 320.6547 
L 135.853313 316.80855 
L 137.381818 313.69005 
L 142.731587 303.29505 
L 144.260092 297.9936 
L 145.788598 293.31585 
L 147.317103 289.57365 
L 148.081356 288.94995 
L 148.845609 287.70255 
L 151.138367 283.2327 
L 151.902619 281.1537 
L 152.666872 279.59445 
L 154.195378 275.43645 
L 154.95963 273.77325 
L 155.723883 271.48635 
L 156.488136 269.61525 
L 157.252388 266.8086 
L 159.545146 260.1558 
L 161.837904 255.9978 
L 162.602157 255.3741 
L 163.36641 254.43855 
L 164.130663 252.8793 
L 164.894915 251.0082 
L 165.659168 249.65685 
L 167.187673 246.2265 
L 167.951926 245.29095 
L 168.716179 243.00405 
L 169.480431 241.2369 
L 170.244684 238.7421 
L 171.008937 236.97495 
L 171.77319 234.68805 
L 172.537442 232.9209 
L 173.301695 229.90635 
L 174.065948 229.07475 
L 174.8302 228.65895 
L 175.594453 226.37205 
L 176.358706 225.0207 
L 177.122958 222.9417 
L 177.887211 221.79825 
L 178.651464 219.51135 
L 180.179969 216.18495 
L 180.944222 212.85855 
L 181.708475 212.3388 
L 182.472727 208.3887 
L 183.23698 207.3492 
L 184.001233 205.37415 
L 185.529738 199.76085 
L 186.293991 197.68185 
L 187.822496 194.77125 
L 188.586749 192.7962 
L 189.351002 192.27645 
L 190.115254 192.5883 
L 190.879507 193.4199 
L 191.64376 192.27645 
L 192.408012 190.40535 
L 193.172265 190.19745 
L 194.70077 188.53425 
L 195.465023 187.3908 
L 196.229276 186.45525 
L 197.757781 184.16835 
L 198.522034 183.8565 
L 199.286287 181.46565 
L 200.050539 180.3222 
L 200.814792 179.59455 
L 201.579045 178.659 
L 202.343297 178.34715 
L 203.10755 178.97085 
L 204.636055 177.6195 
L 205.400308 176.68395 
L 206.164561 176.58 
L 206.928814 175.7484 
L 207.693066 174.501 
L 208.457319 174.0852 
L 209.221572 172.94175 
L 209.985824 172.2141 
L 210.750077 172.11015 
L 211.51433 170.5509 
L 212.278582 169.5114 
L 213.042835 168.16005 
L 213.807088 167.32845 
L 214.571341 165.66525 
L 215.335593 165.1455 
L 216.099846 166.185 
L 216.864099 166.3929 
L 217.628351 166.3929 
L 218.392604 165.9771 
L 219.156857 165.04155 
L 220.685362 164.7297 
L 221.449615 163.0665 
L 222.213867 163.0665 
L 222.97812 162.54675 
L 223.742373 161.71515 
L 224.506626 161.4033 
L 225.270878 161.6112 
L 226.035131 160.05195 
L 226.799384 158.0769 
L 227.563636 158.0769 
L 228.327889 156.72555 
L 229.092142 157.14135 
L 229.856394 158.0769 
L 230.620647 157.97295 
L 231.3849 157.2453 
L 232.149153 156.72555 
L 233.677658 156.10185 
L 234.441911 155.9979 
L 235.206163 154.9584 
L 235.970416 155.1663 
L 236.734669 154.5426 
L 237.498921 153.39915 
L 238.263174 154.23075 
L 239.027427 154.1268 
L 239.79168 152.77545 
L 240.555932 151.8399 
L 241.320185 151.632 
L 242.084438 152.0478 
L 242.84869 150.8004 
L 243.612943 152.35965 
L 244.377196 151.32015 
L 245.141448 150.8004 
L 245.905701 151.0083 
L 246.669954 150.48855 
L 247.434206 150.48855 
L 248.198459 148.9293 
L 248.962712 149.65695 
L 249.726965 148.7214 
L 250.491217 148.82535 
L 251.25547 149.1372 
L 252.019723 148.9293 
L 252.783975 148.3056 
L 253.548228 146.4345 
L 254.312481 146.53845 
L 255.076733 146.0187 
L 255.840986 144.7713 
L 256.605239 146.12265 
L 257.369492 146.95425 
L 258.133744 146.6424 
L 258.897997 147.16215 
L 259.66225 146.8503 
L 260.426502 146.0187 
L 261.955008 145.91475 
L 262.71926 146.2266 
L 263.483513 145.6029 
L 264.247766 146.0187 
L 265.012018 145.70685 
L 265.776271 144.3555 
L 267.304777 144.1476 
L 268.069029 142.6923 
L 268.833282 143.00415 
L 269.597535 141.34095 
L 270.361787 142.2765 
L 271.12604 143.7318 
L 271.890293 143.21205 
L 273.418798 142.58835 
L 274.947304 142.6923 
L 275.711556 141.96465 
L 276.475809 141.4449 
L 277.240062 142.0686 
L 278.768567 140.30145 
L 279.53282 139.7817 
L 280.297072 139.88565 
L 281.061325 138.9501 
L 281.825578 138.9501 
L 282.589831 138.43035 
L 283.354083 138.63825 
L 284.118336 139.26195 
L 284.882589 138.9501 
L 285.646841 138.43035 
L 286.411094 138.43035 
L 287.939599 138.01455 
L 288.703852 137.2869 
L 289.468105 137.079 
L 290.232357 137.39085 
L 290.99661 136.6632 
L 291.760863 136.2474 
L 292.525116 136.35135 
L 293.289368 135.8316 
L 294.053621 135.8316 
L 294.817874 134.5842 
L 295.582126 133.9605 
L 296.346379 133.1289 
L 297.110632 133.85655 
L 297.874884 133.64865 
L 298.639137 133.23285 
L 299.40339 133.64865 
L 300.931895 131.98545 
L 301.696148 131.6736 
L 302.460401 133.23285 
L 303.224653 132.5052 
L 303.988906 130.94595 
L 304.753159 131.36175 
L 305.517411 129.49065 
L 306.281664 130.2183 
L 307.810169 127.7235 
L 308.574422 128.3472 
L 309.338675 127.82745 
L 310.102928 126.4761 
L 310.86718 127.3077 
L 312.395686 126.684 
L 313.159938 125.8524 
L 313.924191 125.4366 
L 314.688444 123.7734 
L 315.452696 124.50105 
L 316.216949 124.605 
L 316.981202 123.9813 
L 317.745455 122.526 
L 318.509707 122.1102 
L 319.27396 121.4865 
L 320.038213 121.59045 
L 320.802465 120.55095 
L 322.330971 119.1996 
L 323.095223 117.1206 
L 323.859476 117.22455 
L 325.387982 116.0811 
L 326.152234 117.9522 
L 326.916487 115.35345 
L 327.68074 115.14555 
L 328.444992 115.35345 
L 329.209245 114.10605 
L 329.973498 113.1705 
L 330.73775 113.69025 
L 331.502003 113.1705 
L 332.266256 112.44285 
L 333.030508 110.2599 
L 333.794761 111.61125 
L 334.559014 108.8046 
L 335.323267 109.74015 
L 336.087519 109.53225 
L 336.851772 107.03745 
L 337.616025 108.28485 
L 338.380277 108.90855 
L 339.14453 108.3888 
L 339.908783 108.07695 
L 341.437288 105.2703 
L 342.965794 104.95845 
L 343.730046 103.3992 
L 344.494299 103.71105 
L 345.258552 101.83995 
L 346.022804 101.9439 
L 346.787057 102.46365 
L 347.55131 103.1913 
L 348.315562 100.6965 
L 349.079815 96.5385 
L 349.844068 98.4096 
L 351.372573 96.5385 
L 352.901079 98.8254 
L 353.665331 96.5385 
L 354.429584 95.7069 
L 355.193837 95.2911 
L 355.958089 96.3306 
L 356.722342 93.42 
L 357.486595 95.18715 
L 358.250847 94.6674 
L 359.0151 92.3805 
L 359.779353 93.73185 
L 360.543606 91.86075 
L 361.307858 92.48445 
L 362.072111 91.9647 
L 362.836364 91.23705 
L 363.600616 89.98965 
L 364.364869 89.15805 
L 365.129122 87.8067 
L 366.657627 90.3015 
L 367.42188 89.6778 
L 368.186133 91.9647 
L 368.950385 89.0541 
L 369.714638 89.262 
L 370.478891 88.11855 
L 371.243143 90.61335 
L 372.007396 90.3015 
L 372.771649 89.57385 
L 373.535901 89.15805 
L 374.300154 89.15805 
L 375.064407 88.2225 
L 375.828659 87.07905 
L 376.592912 89.78175 
L 377.357165 88.6383 
L 378.121418 86.7672 
L 378.88567 85.83165 
L 379.649923 87.70275 
L 380.414176 87.49485 
L 381.178428 87.5988 
L 381.942681 88.11855 
L 382.706934 88.4304 
L 383.471186 87.5988 
L 384.235439 89.8857 
L 384.999692 87.183 
L 385.763945 88.8462 
L 386.528197 89.4699 
L 387.29245 88.0146 
L 388.056703 88.4304 
L 388.820955 85.9356 
L 389.585208 88.32645 
L 391.877966 85.9356 
L 392.642219 87.8067 
L 393.406471 87.183 
L 394.170724 87.91065 
L 394.934977 87.5988 
L 395.69923 86.7672 
L 396.463482 87.5988 
L 397.227735 87.28695 
L 397.991988 88.32645 
L 398.75624 88.95015 
L 399.520493 87.49485 
L 400.284746 88.8462 
L 401.048998 87.3909 
L 401.813251 87.91065 
L 402.577504 86.66325 
L 403.341757 89.0541 
L 404.106009 87.91065 
L 404.870262 88.0146 
L 405.634515 86.24745 
L 406.398767 86.5593 
L 407.16302 86.24745 
L 407.927273 86.87115 
L 408.691525 88.53435 
L 409.455778 89.57385 
L 410.220031 88.95015 
L 410.984284 88.53435 
L 411.748536 88.95015 
L 412.512789 90.19755 
L 413.277042 89.57385 
L 414.041294 90.3015 
L 414.805547 89.262 
L 415.5698 86.87115 
L 416.334052 89.4699 
L 417.098305 87.91065 
L 417.862558 89.78175 
L 418.62681 88.32645 
L 419.391063 87.91065 
L 420.155316 86.3514 
L 420.919569 88.53435 
L 421.683821 87.8067 
L 422.448074 90.9252 
L 423.212327 88.4304 
L 423.976579 87.07905 
L 424.740832 89.6778 
L 425.505085 88.6383 
L 426.269337 89.98965 
L 427.03359 92.69235 
L 427.797843 90.5094 
L 428.562096 89.78175 
L 429.326348 91.1331 
L 430.090601 89.262 
L 430.854854 91.02915 
L 431.619106 88.0146 
L 432.383359 88.2225 
L 433.147612 87.91065 
L 433.911864 88.0146 
L 434.676117 87.70275 
L 435.44037 89.262 
L 436.204622 91.5489 
L 436.968875 91.5489 
L 437.733128 91.1331 
L 438.497381 90.40545 
L 439.261633 91.65285 
L 440.025886 91.02915 
L 440.790139 91.5489 
L 441.554391 90.9252 
L 442.318644 91.5489 
L 443.082897 91.1331 
L 443.847149 90.3015 
L 444.611402 90.9252 
L 445.375655 90.61335 
L 446.139908 89.36595 
L 446.90416 90.19755 
L 447.668413 89.36595 
L 448.432666 89.98965 
L 449.196918 91.23705 
L 449.961171 89.78175 
L 450.725424 93.10815 
L 451.489676 93.52395 
L 452.253929 92.48445 
L 453.018182 91.65285 
L 453.782435 91.65285 
L 454.546687 93.52395 
L 455.31094 92.27655 
L 456.075193 90.5094 
L 456.839445 93.31605 
L 457.603698 90.5094 
L 458.367951 91.02915 
L 459.132203 88.95015 
L 459.896456 89.6778 
L 460.660709 90.19755 
L 461.424961 89.78175 
L 462.189214 92.69235 
L 462.953467 91.341 
L 463.71772 92.27655 
L 465.246225 92.3805 
L 466.010478 92.7963 
L 466.77473 91.86075 
L 467.538983 91.341 
L 469.067488 92.48445 
L 469.831741 92.7963 
L 470.595994 90.82125 
L 471.360247 91.86075 
L 472.124499 91.65285 
L 472.888752 91.23705 
L 473.653005 90.3015 
L 474.417257 91.5489 
L 475.18151 90.3015 
L 475.945763 93.0042 
L 476.710015 92.90025 
L 477.474268 94.77135 
L 478.238521 90.19755 
L 479.002773 93.6279 
L 479.767026 93.52395 
L 480.531279 92.27655 
L 481.295532 94.6674 
L 482.059784 94.6674 
L 482.824037 93.8358 
L 483.58829 94.56345 
L 485.116795 92.90025 
L 485.881048 95.81085 
L 486.6453 93.8358 
L 487.409553 92.69235 
L 488.173806 92.06865 
L 488.938059 88.74225 
L 489.702311 91.9647 
L 490.466564 93.10815 
L 491.230817 92.27655 
L 491.995069 92.5884 
L 492.759322 91.86075 
L 493.523575 94.0437 
L 494.287827 95.2911 
L 495.05208 94.0437 
L 495.816333 94.35555 
L 496.580586 94.0437 
L 497.344838 95.39505 
L 498.109091 94.4595 
L 498.109091 94.4595 
" clip-path="url(#p31a27227d8)" style="fill: none; stroke: #0000ff; stroke-opacity: 0.5; stroke-width: 1.5; stroke-linecap: square"/>
   </g>
   <g id="line2d_47">
    <path d="M 92.290909 354.1266 
L 93.819414 355.374 
L 94.583667 355.1661 
L 95.34792 354.64635 
L 96.112173 354.5424 
L 96.876425 354.23055 
L 97.640678 353.7108 
L 98.404931 353.7108 
L 99.169183 353.19105 
L 99.933436 352.98315 
L 100.697689 352.35945 
L 102.226194 351.8397 
L 104.518952 350.3844 
L 107.575963 348.82515 
L 108.340216 348.0975 
L 109.104468 347.6817 
L 110.632974 346.4343 
L 111.397227 346.0185 
L 112.161479 345.29085 
L 112.925732 344.7711 
L 114.454237 343.1079 
L 115.21849 342.79605 
L 117.511248 340.1973 
L 118.275501 339.67755 
L 119.804006 338.01435 
L 120.568259 336.97485 
L 122.096764 335.4156 
L 123.62527 333.44055 
L 125.153775 331.4655 
L 125.918028 330.6339 
L 129.739291 324.6048 
L 131.267797 322.21395 
L 133.560555 318.1599 
L 134.324807 317.1204 
L 135.853313 314.2098 
L 138.910324 308.1807 
L 139.674576 306.62145 
L 140.438829 305.37405 
L 141.967334 301.9437 
L 142.731587 300.59235 
L 144.260092 296.1225 
L 145.024345 294.97905 
L 147.317103 289.57365 
L 149.609861 283.6485 
L 151.138367 280.1142 
L 151.902619 277.93125 
L 152.666872 276.26805 
L 157.252388 264.00195 
L 158.016641 262.54665 
L 163.36641 250.1766 
L 165.659168 245.6028 
L 166.423421 243.5238 
L 167.187673 241.8606 
L 167.951926 240.8211 
L 168.716179 238.63815 
L 170.244684 235.6236 
L 171.008937 232.713 
L 171.77319 231.4656 
L 174.065948 226.2681 
L 174.8302 224.70885 
L 175.594453 221.79825 
L 176.358706 220.75875 
L 178.651464 215.35335 
L 179.415716 213.89805 
L 180.179969 211.2993 
L 180.944222 210.2598 
L 181.708475 207.86895 
L 182.472727 205.0623 
L 183.23698 204.54255 
L 184.001233 203.3991 
L 184.765485 201.3201 
L 185.529738 199.76085 
L 186.293991 197.5779 
L 187.822496 195.18705 
L 188.586749 194.4594 
L 189.351002 192.90015 
L 190.115254 191.9646 
L 190.879507 190.7172 
L 191.64376 190.19745 
L 192.408012 188.32635 
L 193.172265 187.5987 
L 193.936518 186.3513 
L 194.70077 186.1434 
L 195.465023 184.4802 
L 196.229276 184.2723 
L 196.993529 183.54465 
L 197.757781 181.9854 
L 198.522034 181.88145 
L 200.050539 179.9064 
L 200.814792 179.38665 
L 201.579045 178.659 
L 202.343297 177.4116 
L 203.10755 176.68395 
L 203.871803 175.7484 
L 204.636055 175.43655 
L 205.400308 174.501 
L 206.164561 174.18915 
L 207.693066 172.6299 
L 208.457319 172.2141 
L 209.221572 171.5904 
L 209.985824 170.1351 
L 210.750077 170.1351 
L 211.51433 168.78375 
L 212.278582 168.6798 
L 213.042835 168.36795 
L 213.807088 167.2245 
L 215.335593 165.5613 
L 216.099846 165.3534 
L 216.864099 164.62575 
L 218.392604 163.8981 
L 219.921109 162.33885 
L 220.685362 162.2349 
L 221.449615 161.29935 
L 222.97812 160.67565 
L 223.742373 159.3243 
L 224.506626 159.3243 
L 225.270878 158.80455 
L 226.035131 159.01245 
L 226.799384 157.6611 
L 227.563636 156.93345 
L 228.327889 156.93345 
L 229.856394 155.5821 
L 230.620647 156.30975 
L 231.3849 155.47815 
L 232.149153 154.43865 
L 232.913405 154.43865 
L 233.677658 153.81495 
L 234.441911 153.5031 
L 235.206163 152.8794 
L 236.734669 153.19125 
L 238.263174 152.2557 
L 239.027427 152.2557 
L 240.555932 151.32015 
L 241.320185 151.52805 
L 242.084438 151.2162 
L 242.84869 149.86485 
L 243.612943 150.48855 
L 244.377196 149.553 
L 245.141448 150.28065 
L 245.905701 149.24115 
L 247.434206 148.9293 
L 248.962712 147.99375 
L 249.726965 148.0977 
L 250.491217 147.6819 
L 251.25547 147.57795 
L 252.019723 147.16215 
L 252.783975 147.78585 
L 253.548228 147.16215 
L 254.312481 147.2661 
L 255.076733 146.95425 
L 255.840986 144.87525 
L 256.605239 146.33055 
L 257.369492 146.2266 
L 258.133744 145.91475 
L 258.897997 145.8108 
L 259.66225 145.1871 
L 260.426502 145.08315 
L 261.190755 144.66735 
L 261.955008 145.08315 
L 262.71926 145.1871 
L 263.483513 144.3555 
L 264.247766 144.66735 
L 266.540524 143.5239 
L 267.304777 143.7318 
L 268.069029 142.58835 
L 268.833282 143.21205 
L 269.597535 142.0686 
L 270.361787 141.8607 
L 271.12604 142.58835 
L 271.890293 142.2765 
L 272.654545 142.2765 
L 273.418798 142.0686 
L 274.183051 141.54885 
L 274.947304 141.8607 
L 275.711556 141.54885 
L 276.475809 141.0291 
L 277.240062 141.13305 
L 278.004314 140.6133 
L 278.768567 139.7817 
L 279.53282 139.3659 
L 280.297072 139.3659 
L 281.061325 138.5343 
L 281.825578 139.3659 
L 283.354083 138.22245 
L 284.118336 138.9501 
L 285.646841 138.22245 
L 286.411094 137.80665 
L 287.175347 137.80665 
L 287.939599 137.18295 
L 288.703852 136.2474 
L 289.468105 136.97505 
L 290.232357 136.76715 
L 290.99661 136.76715 
L 291.760863 135.93555 
L 292.525116 136.0395 
L 293.289368 135.10395 
L 294.053621 134.3763 
L 294.817874 133.44075 
L 295.582126 133.7526 
L 296.346379 133.1289 
L 297.110632 133.5447 
L 297.874884 133.1289 
L 298.639137 133.23285 
L 299.40339 132.60915 
L 300.167643 131.6736 
L 300.931895 130.94595 
L 301.696148 131.15385 
L 302.460401 131.6736 
L 303.224653 131.77755 
L 303.988906 130.842 
L 304.753159 130.842 
L 305.517411 130.2183 
L 306.281664 130.53015 
L 307.810169 127.9314 
L 308.574422 127.5156 
L 309.338675 127.9314 
L 310.102928 127.5156 
L 310.86718 127.7235 
L 312.395686 127.41165 
L 313.159938 125.8524 
L 313.924191 125.74845 
L 314.688444 123.7734 
L 315.452696 124.605 
L 316.216949 124.8129 
L 316.981202 124.08525 
L 317.745455 123.5655 
L 318.509707 121.9023 
L 319.27396 122.00625 
L 320.038213 122.42205 
L 320.802465 121.6944 
L 321.566718 122.00625 
L 322.330971 120.96675 
L 323.095223 119.51145 
L 323.859476 118.7838 
L 324.623729 119.30355 
L 325.387982 118.5759 
L 326.152234 117.22455 
L 326.916487 116.39295 
L 327.68074 117.7443 
L 329.209245 115.35345 
L 329.973498 113.5863 
L 330.73775 115.0416 
L 331.502003 115.2495 
L 332.266256 113.48235 
L 333.030508 112.02705 
L 333.794761 112.85865 
L 334.559014 112.02705 
L 336.087519 110.77965 
L 336.851772 110.36385 
L 337.616025 109.0125 
L 338.380277 108.49275 
L 339.14453 107.7651 
L 339.908783 109.4283 
L 340.673035 108.1809 
L 341.437288 107.24535 
L 342.201541 107.3493 
L 342.965794 106.41375 
L 343.730046 103.91895 
L 344.494299 105.0624 
L 345.258552 104.12685 
L 346.022804 102.9834 
L 346.787057 103.1913 
L 347.55131 102.87945 
L 348.315562 101.9439 
L 349.079815 99.34515 
L 349.844068 99.34515 
L 350.60832 99.0333 
L 351.372573 99.2412 
L 352.136826 97.578 
L 352.901079 97.47405 
L 353.665331 97.1622 
L 354.429584 96.22665 
L 355.193837 94.97925 
L 355.958089 95.7069 
L 356.722342 95.2911 
L 357.486595 95.2911 
L 358.250847 93.6279 
L 359.0151 91.44495 
L 359.779353 92.1726 
L 360.543606 91.341 
L 361.307858 92.1726 
L 362.072111 89.6778 
L 362.836364 90.7173 
L 363.600616 89.6778 
L 364.364869 89.0541 
L 365.129122 87.91065 
L 365.893374 88.0146 
L 366.657627 87.91065 
L 367.42188 89.0541 
L 368.186133 89.262 
L 368.950385 85.20795 
L 370.478891 85.7277 
L 371.243143 88.6383 
L 372.007396 86.3514 
L 372.771649 87.07905 
L 373.535901 86.9751 
L 374.300154 86.03955 
L 375.064407 85.9356 
L 375.828659 84.0645 
L 376.592912 86.7672 
L 377.357165 85.3119 
L 378.121418 84.6882 
L 378.88567 82.1934 
L 379.649923 87.8067 
L 380.414176 86.24745 
L 381.178428 86.24745 
L 381.942681 86.5593 
L 382.706934 85.41585 
L 383.471186 84.58425 
L 384.235439 85.3119 
L 384.999692 83.33685 
L 385.763945 84.4803 
L 386.528197 84.79215 
L 387.29245 84.4803 
L 388.056703 86.1435 
L 388.820955 82.50525 
L 389.585208 84.8961 
L 390.349461 84.16845 
L 391.113713 82.50525 
L 391.877966 84.37635 
L 392.642219 85.00005 
L 393.406471 83.4408 
L 394.170724 84.6882 
L 394.934977 82.08945 
L 395.69923 82.50525 
L 396.463482 83.33685 
L 397.991988 83.6487 
L 398.75624 84.6882 
L 399.520493 81.67365 
L 400.284746 82.8171 
L 401.048998 82.8171 
L 401.813251 84.6882 
L 402.577504 83.54475 
L 403.341757 84.37635 
L 404.106009 84.0645 
L 404.870262 83.025 
L 407.16302 83.025 
L 407.927273 85.62375 
L 408.691525 82.50525 
L 409.455778 85.00005 
L 410.220031 82.92105 
L 410.984284 82.1934 
L 411.748536 82.4013 
L 412.512789 85.9356 
L 413.277042 85.9356 
L 414.041294 84.2724 
L 414.805547 84.16845 
L 415.5698 82.6092 
L 416.334052 85.104 
L 417.098305 85.7277 
L 417.862558 83.8566 
L 418.62681 84.37635 
L 419.391063 85.5198 
L 420.155316 84.6882 
L 420.919569 85.62375 
L 421.683821 84.37635 
L 422.448074 85.83165 
L 423.976579 83.96055 
L 424.740832 85.83165 
L 425.505085 83.4408 
L 426.269337 83.2329 
L 427.03359 84.8961 
L 427.797843 80.1144 
L 428.562096 78.76305 
L 429.326348 83.54475 
L 430.090601 82.29735 
L 430.854854 83.12895 
L 431.619106 79.59465 
L 432.383359 83.025 
L 433.147612 82.6092 
L 433.911864 83.33685 
L 434.676117 82.29735 
L 435.44037 82.1934 
L 436.204622 82.71315 
L 436.968875 84.58425 
L 437.733128 81.04995 
L 438.497381 82.29735 
L 439.261633 81.1539 
L 440.025886 83.96055 
L 440.790139 83.12895 
L 441.554391 82.71315 
L 442.318644 81.3618 
L 443.082897 83.2329 
L 443.847149 82.71315 
L 444.611402 82.92105 
L 446.139908 81.9855 
L 446.90416 83.54475 
L 448.432666 81.25785 
L 449.196918 82.8171 
L 449.961171 81.3618 
L 450.725424 83.12895 
L 451.489676 83.54475 
L 452.253929 81.9855 
L 453.018182 82.29735 
L 453.782435 83.6487 
L 454.546687 83.75265 
L 455.31094 83.2329 
L 456.839445 82.71315 
L 457.603698 79.6986 
L 458.367951 81.25785 
L 459.132203 81.1539 
L 459.896456 82.50525 
L 460.660709 83.54475 
L 461.424961 82.6092 
L 462.189214 83.33685 
L 462.953467 81.7776 
L 463.71772 83.33685 
L 464.481972 83.54475 
L 465.246225 81.9855 
L 466.010478 81.7776 
L 466.77473 80.42625 
L 467.538983 82.08945 
L 468.303236 82.71315 
L 469.067488 82.1934 
L 469.831741 83.4408 
L 470.595994 81.88155 
L 471.360247 81.25785 
L 472.124499 82.8171 
L 472.888752 82.1934 
L 473.653005 82.50525 
L 474.417257 81.88155 
L 475.18151 81.5697 
L 475.945763 81.9855 
L 476.710015 83.2329 
L 477.474268 85.00005 
L 478.238521 80.01045 
L 479.002773 83.4408 
L 479.767026 84.2724 
L 480.531279 83.12895 
L 481.295532 84.16845 
L 482.059784 83.6487 
L 482.824037 82.71315 
L 483.58829 84.2724 
L 484.352542 82.08945 
L 485.116795 83.4408 
L 485.881048 84.2724 
L 486.6453 81.1539 
L 487.409553 83.75265 
L 488.173806 83.75265 
L 488.938059 82.4013 
L 489.702311 84.37635 
L 491.230817 83.75265 
L 491.995069 82.92105 
L 492.759322 80.5302 
L 493.523575 84.16845 
L 495.05208 82.92105 
L 495.816333 83.6487 
L 496.580586 83.4408 
L 498.109091 84.16845 
L 498.109091 84.16845 
" clip-path="url(#p31a27227d8)" style="fill: none; stroke: #0000ff; stroke-opacity: 0.5; stroke-width: 1.5; stroke-linecap: square"/>
   </g>
   <g id="LineCollection_1">
    <path d="M 92.290909 356.6214 
L 92.290909 354.7503 
" clip-path="url(#p31a27227d8)" style="fill: none; stroke: #ff0000; stroke-width: 1.5"/>
    <path d="M 122.861017 335.572291 
L 122.861017 334.302569 
" clip-path="url(#p31a27227d8)" style="fill: none; stroke: #ff0000; stroke-width: 1.5"/>
    <path d="M 153.431125 276.266887 
L 153.431125 273.109133 
" clip-path="url(#p31a27227d8)" style="fill: none; stroke: #ff0000; stroke-width: 1.5"/>
    <path d="M 184.001233 204.554751 
L 184.001233 199.707069 
" clip-path="url(#p31a27227d8)" style="fill: none; stroke: #ff0000; stroke-width: 1.5"/>
    <path d="M 214.571341 165.884812 
L 214.571341 161.703488 
" clip-path="url(#p31a27227d8)" style="fill: none; stroke: #ff0000; stroke-width: 1.5"/>
    <path d="M 245.141448 150.498202 
L 245.141448 147.734618 
" clip-path="url(#p31a27227d8)" style="fill: none; stroke: #ff0000; stroke-width: 1.5"/>
    <path d="M 275.711556 141.681361 
L 275.711556 139.254179 
" clip-path="url(#p31a27227d8)" style="fill: none; stroke: #ff0000; stroke-width: 1.5"/>
    <path d="M 306.281664 130.281825 
L 306.281664 126.911535 
" clip-path="url(#p31a27227d8)" style="fill: none; stroke: #ff0000; stroke-width: 1.5"/>
    <path d="M 336.851772 109.263869 
L 336.851772 104.686291 
" clip-path="url(#p31a27227d8)" style="fill: none; stroke: #ff0000; stroke-width: 1.5"/>
    <path d="M 367.42188 89.351223 
L 367.42188 86.386917 
" clip-path="url(#p31a27227d8)" style="fill: none; stroke: #ff0000; stroke-width: 1.5"/>
    <path d="M 397.991988 86.893758 
L 397.991988 82.732122 
" clip-path="url(#p31a27227d8)" style="fill: none; stroke: #ff0000; stroke-width: 1.5"/>
    <path d="M 428.562096 88.928331 
L 428.562096 80.947029 
" clip-path="url(#p31a27227d8)" style="fill: none; stroke: #ff0000; stroke-width: 1.5"/>
    <path d="M 459.132203 88.264196 
L 459.132203 82.692244 
" clip-path="url(#p31a27227d8)" style="fill: none; stroke: #ff0000; stroke-width: 1.5"/>
    <path d="M 489.702311 91.270978 
L 489.702311 85.714562 
" clip-path="url(#p31a27227d8)" style="fill: none; stroke: #ff0000; stroke-width: 1.5"/>
   </g>
   <g id="line2d_48">
    <defs>
     <path id="m5c49dfce8d" d="M 5 0 
L -5 -0 
" style="stroke: #ff0000"/>
    </defs>
    <g clip-path="url(#p31a27227d8)">
     <use xlink:href="#m5c49dfce8d" x="92.290909" y="356.6214" style="fill: #ff0000; stroke: #ff0000"/>
     <use xlink:href="#m5c49dfce8d" x="122.861017" y="335.572291" style="fill: #ff0000; stroke: #ff0000"/>
     <use xlink:href="#m5c49dfce8d" x="153.431125" y="276.266887" style="fill: #ff0000; stroke: #ff0000"/>
     <use xlink:href="#m5c49dfce8d" x="184.001233" y="204.554751" style="fill: #ff0000; stroke: #ff0000"/>
     <use xlink:href="#m5c49dfce8d" x="214.571341" y="165.884812" style="fill: #ff0000; stroke: #ff0000"/>
     <use xlink:href="#m5c49dfce8d" x="245.141448" y="150.498202" style="fill: #ff0000; stroke: #ff0000"/>
     <use xlink:href="#m5c49dfce8d" x="275.711556" y="141.681361" style="fill: #ff0000; stroke: #ff0000"/>
     <use xlink:href="#m5c49dfce8d" x="306.281664" y="130.281825" style="fill: #ff0000; stroke: #ff0000"/>
     <use xlink:href="#m5c49dfce8d" x="336.851772" y="109.263869" style="fill: #ff0000; stroke: #ff0000"/>
     <use xlink:href="#m5c49dfce8d" x="367.42188" y="89.351223" style="fill: #ff0000; stroke: #ff0000"/>
     <use xlink:href="#m5c49dfce8d" x="397.991988" y="86.893758" style="fill: #ff0000; stroke: #ff0000"/>
     <use xlink:href="#m5c49dfce8d" x="428.562096" y="88.928331" style="fill: #ff0000; stroke: #ff0000"/>
     <use xlink:href="#m5c49dfce8d" x="459.132203" y="88.264196" style="fill: #ff0000; stroke: #ff0000"/>
     <use xlink:href="#m5c49dfce8d" x="489.702311" y="91.270978" style="fill: #ff0000; stroke: #ff0000"/>
    </g>
   </g>
   <g id="line2d_49">
    <g clip-path="url(#p31a27227d8)">
     <use xlink:href="#m5c49dfce8d" x="92.290909" y="354.7503" style="fill: #ff0000; stroke: #ff0000"/>
     <use xlink:href="#m5c49dfce8d" x="122.861017" y="334.302569" style="fill: #ff0000; stroke: #ff0000"/>
     <use xlink:href="#m5c49dfce8d" x="153.431125" y="273.109133" style="fill: #ff0000; stroke: #ff0000"/>
     <use xlink:href="#m5c49dfce8d" x="184.001233" y="199.707069" style="fill: #ff0000; stroke: #ff0000"/>
     <use xlink:href="#m5c49dfce8d" x="214.571341" y="161.703488" style="fill: #ff0000; stroke: #ff0000"/>
     <use xlink:href="#m5c49dfce8d" x="245.141448" y="147.734618" style="fill: #ff0000; stroke: #ff0000"/>
     <use xlink:href="#m5c49dfce8d" x="275.711556" y="139.254179" style="fill: #ff0000; stroke: #ff0000"/>
     <use xlink:href="#m5c49dfce8d" x="306.281664" y="126.911535" style="fill: #ff0000; stroke: #ff0000"/>
     <use xlink:href="#m5c49dfce8d" x="336.851772" y="104.686291" style="fill: #ff0000; stroke: #ff0000"/>
     <use xlink:href="#m5c49dfce8d" x="367.42188" y="86.386917" style="fill: #ff0000; stroke: #ff0000"/>
     <use xlink:href="#m5c49dfce8d" x="397.991988" y="82.732122" style="fill: #ff0000; stroke: #ff0000"/>
     <use xlink:href="#m5c49dfce8d" x="428.562096" y="80.947029" style="fill: #ff0000; stroke: #ff0000"/>
     <use xlink:href="#m5c49dfce8d" x="459.132203" y="82.692244" style="fill: #ff0000; stroke: #ff0000"/>
     <use xlink:href="#m5c49dfce8d" x="489.702311" y="85.714562" style="fill: #ff0000; stroke: #ff0000"/>
    </g>
   </g>
   <g id="line2d_50">
    <path d="M 92.290909 355.68585 
L 122.861017 334.93743 
L 153.431125 274.68801 
L 184.001233 202.13091 
L 214.571341 163.79415 
L 245.141448 149.11641 
L 275.711556 140.46777 
L 306.281664 128.59668 
L 336.851772 106.97508 
L 367.42188 87.86907 
L 397.991988 84.81294 
L 428.562096 84.93768 
L 459.132203 85.47822 
L 489.702311 88.49277 
" clip-path="url(#p31a27227d8)" style="fill: none; stroke: #ff0000; stroke-width: 1.5; stroke-linecap: square"/>
   </g>
   <g id="patch_3">
    <path d="M 72 384.48 
L 72 51.84 
" style="fill: none; stroke: #000000; stroke-width: 0.8; stroke-linejoin: miter; stroke-linecap: square"/>
   </g>
   <g id="patch_4">
    <path d="M 518.4 384.48 
L 518.4 51.84 
" style="fill: none; stroke: #000000; stroke-width: 0.8; stroke-linejoin: miter; stroke-linecap: square"/>
   </g>
   <g id="patch_5">
    <path d="M 72 384.48 
L 518.4 384.48 
" style="fill: none; stroke: #000000; stroke-width: 0.8; stroke-linejoin: miter; stroke-linecap: square"/>
   </g>
   <g id="patch_6">
    <path d="M 72 51.84 
L 518.4 51.84 
" style="fill: none; stroke: #000000; stroke-width: 0.8; stroke-linejoin: miter; stroke-linecap: square"/>
   </g>
   <g id="text_24">
    <!-- M10: Methionin; Aspartat -->
    <g transform="translate(231.978906 45.84) scale(0.1 -0.1)">
     <defs>
      <path id="DejaVuSans-4d" d="M 628 4666 
L 1569 4666 
L 2759 1491 
L 3956 4666 
L 4897 4666 
L 4897 0 
L 4281 0 
L 4281 4097 
L 3078 897 
L 2444 897 
L 1241 4097 
L 1241 0 
L 628 0 
L 628 4666 
z
" transform="scale(0.015625)"/>
      <path id="DejaVuSans-3a" d="M 750 794 
L 1409 794 
L 1409 0 
L 750 0 
L 750 794 
z
M 750 3309 
L 1409 3309 
L 1409 2516 
L 750 2516 
L 750 3309 
z
" transform="scale(0.015625)"/>
      <path id="DejaVuSans-3b" d="M 750 3309 
L 1409 3309 
L 1409 2516 
L 750 2516 
L 750 3309 
z
M 750 794 
L 1409 794 
L 1409 256 
L 897 -744 
L 494 -744 
L 750 256 
L 750 794 
z
" transform="scale(0.015625)"/>
      <path id="DejaVuSans-41" d="M 2188 4044 
L 1331 1722 
L 3047 1722 
L 2188 4044 
z
M 1831 4666 
L 2547 4666 
L 4325 0 
L 3669 0 
L 3244 1197 
L 1141 1197 
L 716 0 
L 50 0 
L 1831 4666 
z
" transform="scale(0.015625)"/>
      <path id="DejaVuSans-70" d="M 1159 525 
L 1159 -1331 
L 581 -1331 
L 581 3500 
L 1159 3500 
L 1159 2969 
Q 1341 3281 1617 3432 
Q 1894 3584 2278 3584 
Q 2916 3584 3314 3078 
Q 3713 2572 3713 1747 
Q 3713 922 3314 415 
Q 2916 -91 2278 -91 
Q 1894 -91 1617 61 
Q 1341 213 1159 525 
z
M 3116 1747 
Q 3116 2381 2855 2742 
Q 2594 3103 2138 3103 
Q 1681 3103 1420 2742 
Q 1159 2381 1159 1747 
Q 1159 1113 1420 752 
Q 1681 391 2138 391 
Q 2594 391 2855 752 
Q 3116 1113 3116 1747 
z
" transform="scale(0.015625)"/>
     </defs>
     <use xlink:href="#DejaVuSans-4d"/>
     <use xlink:href="#DejaVuSans-31" x="86.279297"/>
     <use xlink:href="#DejaVuSans-30" x="149.902344"/>
     <use xlink:href="#DejaVuSans-3a" x="213.525391"/>
     <use xlink:href="#DejaVuSans-20" x="247.216797"/>
     <use xlink:href="#DejaVuSans-4d" x="279.003906"/>
     <use xlink:href="#DejaVuSans-65" x="365.283203"/>
     <use xlink:href="#DejaVuSans-74" x="426.806641"/>
     <use xlink:href="#DejaVuSans-68" x="466.015625"/>
     <use xlink:href="#DejaVuSans-69" x="529.394531"/>
     <use xlink:href="#DejaVuSans-6f" x="557.177734"/>
     <use xlink:href="#DejaVuSans-6e" x="618.359375"/>
     <use xlink:href="#DejaVuSans-69" x="681.738281"/>
     <use xlink:href="#DejaVuSans-6e" x="709.521484"/>
     <use xlink:href="#DejaVuSans-3b" x="772.900391"/>
     <use xlink:href="#DejaVuSans-20" x="806.591797"/>
     <use xlink:href="#DejaVuSans-41" x="838.378906"/>
     <use xlink:href="#DejaVuSans-73" x="906.787109"/>
     <use xlink:href="#DejaVuSans-70" x="958.886719"/>
     <use xlink:href="#DejaVuSans-61" x="1022.363281"/>
     <use xlink:href="#DejaVuSans-72" x="1083.642578"/>
     <use xlink:href="#DejaVuSans-74" x="1124.755859"/>
     <use xlink:href="#DejaVuSans-61" x="1163.964844"/>
     <use xlink:href="#DejaVuSans-74" x="1225.244141"/>
    </g>
   </g>
  </g>
 </g>
 <defs>
  <clipPath id="p31a27227d8">
   <rect x="72" y="51.84" width="446.4" height="332.64"/>
  </clipPath>
 </defs>
</svg>
