<?xml version="1.0" encoding="utf-8" standalone="no"?>
<!DOCTYPE svg PUBLIC "-//W3C//DTD SVG 1.1//EN"
  "http://www.w3.org/Graphics/SVG/1.1/DTD/svg11.dtd">
<svg xmlns:xlink="http://www.w3.org/1999/xlink" width="576pt" height="432pt" viewBox="0 0 576 432" xmlns="http://www.w3.org/2000/svg" version="1.1">
 <metadata>
  <rdf:RDF xmlns:dc="http://purl.org/dc/elements/1.1/" xmlns:cc="http://creativecommons.org/ns#" xmlns:rdf="http://www.w3.org/1999/02/22-rdf-syntax-ns#">
   <cc:Work>
    <dc:type rdf:resource="http://purl.org/dc/dcmitype/StillImage"/>
    <dc:date>2024-11-12T14:09:05.373266</dc:date>
    <dc:format>image/svg+xml</dc:format>
    <dc:creator>
     <cc:Agent>
      <dc:title>Matplotlib v3.7.5, https://matplotlib.org/</dc:title>
     </cc:Agent>
    </dc:creator>
   </cc:Work>
  </rdf:RDF>
 </metadata>
 <defs>
  <style type="text/css">*{stroke-linejoin: round; stroke-linecap: butt}</style>
 </defs>
 <g id="figure_1">
  <g id="patch_1">
   <path d="M 0 432 
L 576 432 
L 576 0 
L 0 0 
z
" style="fill: #ffffff"/>
  </g>
  <g id="axes_1">
   <g id="patch_2">
    <path d="M 72 384.48 
L 518.4 384.48 
L 518.4 51.84 
L 72 51.84 
z
" style="fill: #ffffff"/>
   </g>
   <g id="matplotlib.axis_1">
    <g id="xtick_1">
     <g id="line2d_1">
      <path d="M 92.290909 384.48 
L 92.290909 51.84 
" clip-path="url(#pe6393567fe)" style="fill: none; stroke: #b0b0b0; stroke-width: 0.8; stroke-linecap: square"/>
     </g>
     <g id="line2d_2">
      <defs>
       <path id="m8256aef875" d="M 0 0 
L 0 3.5 
" style="stroke: #000000; stroke-width: 0.8"/>
      </defs>
      <g>
       <use xlink:href="#m8256aef875" x="92.290909" y="384.48" style="stroke: #000000; stroke-width: 0.8"/>
      </g>
     </g>
     <g id="text_1">
      <!-- 0.17 -->
      <g transform="translate(81.158097 399.078438) scale(0.1 -0.1)">
       <defs>
        <path id="DejaVuSans-30" d="M 2034 4250 
Q 1547 4250 1301 3770 
Q 1056 3291 1056 2328 
Q 1056 1369 1301 889 
Q 1547 409 2034 409 
Q 2525 409 2770 889 
Q 3016 1369 3016 2328 
Q 3016 3291 2770 3770 
Q 2525 4250 2034 4250 
z
M 2034 4750 
Q 2819 4750 3233 4129 
Q 3647 3509 3647 2328 
Q 3647 1150 3233 529 
Q 2819 -91 2034 -91 
Q 1250 -91 836 529 
Q 422 1150 422 2328 
Q 422 3509 836 4129 
Q 1250 4750 2034 4750 
z
" transform="scale(0.015625)"/>
        <path id="DejaVuSans-2e" d="M 684 794 
L 1344 794 
L 1344 0 
L 684 0 
L 684 794 
z
" transform="scale(0.015625)"/>
        <path id="DejaVuSans-31" d="M 794 531 
L 1825 531 
L 1825 4091 
L 703 3866 
L 703 4441 
L 1819 4666 
L 2450 4666 
L 2450 531 
L 3481 531 
L 3481 0 
L 794 0 
L 794 531 
z
" transform="scale(0.015625)"/>
        <path id="DejaVuSans-37" d="M 525 4666 
L 3525 4666 
L 3525 4397 
L 1831 0 
L 1172 0 
L 2766 4134 
L 525 4134 
L 525 4666 
z
" transform="scale(0.015625)"/>
       </defs>
       <use xlink:href="#DejaVuSans-30"/>
       <use xlink:href="#DejaVuSans-2e" x="63.623047"/>
       <use xlink:href="#DejaVuSans-31" x="95.410156"/>
       <use xlink:href="#DejaVuSans-37" x="159.033203"/>
      </g>
     </g>
    </g>
    <g id="xtick_2">
     <g id="line2d_3">
      <path d="M 122.861017 384.48 
L 122.861017 51.84 
" clip-path="url(#pe6393567fe)" style="fill: none; stroke: #b0b0b0; stroke-width: 0.8; stroke-linecap: square"/>
     </g>
     <g id="line2d_4">
      <g>
       <use xlink:href="#m8256aef875" x="122.861017" y="384.48" style="stroke: #000000; stroke-width: 0.8"/>
      </g>
     </g>
     <g id="text_2">
      <!-- 6.83 -->
      <g transform="translate(111.728204 399.078438) scale(0.1 -0.1)">
       <defs>
        <path id="DejaVuSans-36" d="M 2113 2584 
Q 1688 2584 1439 2293 
Q 1191 2003 1191 1497 
Q 1191 994 1439 701 
Q 1688 409 2113 409 
Q 2538 409 2786 701 
Q 3034 994 3034 1497 
Q 3034 2003 2786 2293 
Q 2538 2584 2113 2584 
z
M 3366 4563 
L 3366 3988 
Q 3128 4100 2886 4159 
Q 2644 4219 2406 4219 
Q 1781 4219 1451 3797 
Q 1122 3375 1075 2522 
Q 1259 2794 1537 2939 
Q 1816 3084 2150 3084 
Q 2853 3084 3261 2657 
Q 3669 2231 3669 1497 
Q 3669 778 3244 343 
Q 2819 -91 2113 -91 
Q 1303 -91 875 529 
Q 447 1150 447 2328 
Q 447 3434 972 4092 
Q 1497 4750 2381 4750 
Q 2619 4750 2861 4703 
Q 3103 4656 3366 4563 
z
" transform="scale(0.015625)"/>
        <path id="DejaVuSans-38" d="M 2034 2216 
Q 1584 2216 1326 1975 
Q 1069 1734 1069 1313 
Q 1069 891 1326 650 
Q 1584 409 2034 409 
Q 2484 409 2743 651 
Q 3003 894 3003 1313 
Q 3003 1734 2745 1975 
Q 2488 2216 2034 2216 
z
M 1403 2484 
Q 997 2584 770 2862 
Q 544 3141 544 3541 
Q 544 4100 942 4425 
Q 1341 4750 2034 4750 
Q 2731 4750 3128 4425 
Q 3525 4100 3525 3541 
Q 3525 3141 3298 2862 
Q 3072 2584 2669 2484 
Q 3125 2378 3379 2068 
Q 3634 1759 3634 1313 
Q 3634 634 3220 271 
Q 2806 -91 2034 -91 
Q 1263 -91 848 271 
Q 434 634 434 1313 
Q 434 1759 690 2068 
Q 947 2378 1403 2484 
z
M 1172 3481 
Q 1172 3119 1398 2916 
Q 1625 2713 2034 2713 
Q 2441 2713 2670 2916 
Q 2900 3119 2900 3481 
Q 2900 3844 2670 4047 
Q 2441 4250 2034 4250 
Q 1625 4250 1398 4047 
Q 1172 3844 1172 3481 
z
" transform="scale(0.015625)"/>
        <path id="DejaVuSans-33" d="M 2597 2516 
Q 3050 2419 3304 2112 
Q 3559 1806 3559 1356 
Q 3559 666 3084 287 
Q 2609 -91 1734 -91 
Q 1441 -91 1130 -33 
Q 819 25 488 141 
L 488 750 
Q 750 597 1062 519 
Q 1375 441 1716 441 
Q 2309 441 2620 675 
Q 2931 909 2931 1356 
Q 2931 1769 2642 2001 
Q 2353 2234 1838 2234 
L 1294 2234 
L 1294 2753 
L 1863 2753 
Q 2328 2753 2575 2939 
Q 2822 3125 2822 3475 
Q 2822 3834 2567 4026 
Q 2313 4219 1838 4219 
Q 1578 4219 1281 4162 
Q 984 4106 628 3988 
L 628 4550 
Q 988 4650 1302 4700 
Q 1616 4750 1894 4750 
Q 2613 4750 3031 4423 
Q 3450 4097 3450 3541 
Q 3450 3153 3228 2886 
Q 3006 2619 2597 2516 
z
" transform="scale(0.015625)"/>
       </defs>
       <use xlink:href="#DejaVuSans-36"/>
       <use xlink:href="#DejaVuSans-2e" x="63.623047"/>
       <use xlink:href="#DejaVuSans-38" x="95.410156"/>
       <use xlink:href="#DejaVuSans-33" x="159.033203"/>
      </g>
     </g>
    </g>
    <g id="xtick_3">
     <g id="line2d_5">
      <path d="M 153.431125 384.48 
L 153.431125 51.84 
" clip-path="url(#pe6393567fe)" style="fill: none; stroke: #b0b0b0; stroke-width: 0.8; stroke-linecap: square"/>
     </g>
     <g id="line2d_6">
      <g>
       <use xlink:href="#m8256aef875" x="153.431125" y="384.48" style="stroke: #000000; stroke-width: 0.8"/>
      </g>
     </g>
     <g id="text_3">
      <!-- 13.5 -->
      <g transform="translate(142.298312 399.078438) scale(0.1 -0.1)">
       <defs>
        <path id="DejaVuSans-35" d="M 691 4666 
L 3169 4666 
L 3169 4134 
L 1269 4134 
L 1269 2991 
Q 1406 3038 1543 3061 
Q 1681 3084 1819 3084 
Q 2600 3084 3056 2656 
Q 3513 2228 3513 1497 
Q 3513 744 3044 326 
Q 2575 -91 1722 -91 
Q 1428 -91 1123 -41 
Q 819 9 494 109 
L 494 744 
Q 775 591 1075 516 
Q 1375 441 1709 441 
Q 2250 441 2565 725 
Q 2881 1009 2881 1497 
Q 2881 1984 2565 2268 
Q 2250 2553 1709 2553 
Q 1456 2553 1204 2497 
Q 953 2441 691 2322 
L 691 4666 
z
" transform="scale(0.015625)"/>
       </defs>
       <use xlink:href="#DejaVuSans-31"/>
       <use xlink:href="#DejaVuSans-33" x="63.623047"/>
       <use xlink:href="#DejaVuSans-2e" x="127.246094"/>
       <use xlink:href="#DejaVuSans-35" x="159.033203"/>
      </g>
     </g>
    </g>
    <g id="xtick_4">
     <g id="line2d_7">
      <path d="M 184.001233 384.48 
L 184.001233 51.84 
" clip-path="url(#pe6393567fe)" style="fill: none; stroke: #b0b0b0; stroke-width: 0.8; stroke-linecap: square"/>
     </g>
     <g id="line2d_8">
      <g>
       <use xlink:href="#m8256aef875" x="184.001233" y="384.48" style="stroke: #000000; stroke-width: 0.8"/>
      </g>
     </g>
     <g id="text_4">
      <!-- 20.17 -->
      <g transform="translate(169.68717 399.078438) scale(0.1 -0.1)">
       <defs>
        <path id="DejaVuSans-32" d="M 1228 531 
L 3431 531 
L 3431 0 
L 469 0 
L 469 531 
Q 828 903 1448 1529 
Q 2069 2156 2228 2338 
Q 2531 2678 2651 2914 
Q 2772 3150 2772 3378 
Q 2772 3750 2511 3984 
Q 2250 4219 1831 4219 
Q 1534 4219 1204 4116 
Q 875 4013 500 3803 
L 500 4441 
Q 881 4594 1212 4672 
Q 1544 4750 1819 4750 
Q 2544 4750 2975 4387 
Q 3406 4025 3406 3419 
Q 3406 3131 3298 2873 
Q 3191 2616 2906 2266 
Q 2828 2175 2409 1742 
Q 1991 1309 1228 531 
z
" transform="scale(0.015625)"/>
       </defs>
       <use xlink:href="#DejaVuSans-32"/>
       <use xlink:href="#DejaVuSans-30" x="63.623047"/>
       <use xlink:href="#DejaVuSans-2e" x="127.246094"/>
       <use xlink:href="#DejaVuSans-31" x="159.033203"/>
       <use xlink:href="#DejaVuSans-37" x="222.65625"/>
      </g>
     </g>
    </g>
    <g id="xtick_5">
     <g id="line2d_9">
      <path d="M 214.571341 384.48 
L 214.571341 51.84 
" clip-path="url(#pe6393567fe)" style="fill: none; stroke: #b0b0b0; stroke-width: 0.8; stroke-linecap: square"/>
     </g>
     <g id="line2d_10">
      <g>
       <use xlink:href="#m8256aef875" x="214.571341" y="384.48" style="stroke: #000000; stroke-width: 0.8"/>
      </g>
     </g>
     <g id="text_5">
      <!-- 26.83 -->
      <g transform="translate(200.257278 399.078438) scale(0.1 -0.1)">
       <use xlink:href="#DejaVuSans-32"/>
       <use xlink:href="#DejaVuSans-36" x="63.623047"/>
       <use xlink:href="#DejaVuSans-2e" x="127.246094"/>
       <use xlink:href="#DejaVuSans-38" x="159.033203"/>
       <use xlink:href="#DejaVuSans-33" x="222.65625"/>
      </g>
     </g>
    </g>
    <g id="xtick_6">
     <g id="line2d_11">
      <path d="M 245.141448 384.48 
L 245.141448 51.84 
" clip-path="url(#pe6393567fe)" style="fill: none; stroke: #b0b0b0; stroke-width: 0.8; stroke-linecap: square"/>
     </g>
     <g id="line2d_12">
      <g>
       <use xlink:href="#m8256aef875" x="245.141448" y="384.48" style="stroke: #000000; stroke-width: 0.8"/>
      </g>
     </g>
     <g id="text_6">
      <!-- 33.5 -->
      <g transform="translate(234.008636 399.078438) scale(0.1 -0.1)">
       <use xlink:href="#DejaVuSans-33"/>
       <use xlink:href="#DejaVuSans-33" x="63.623047"/>
       <use xlink:href="#DejaVuSans-2e" x="127.246094"/>
       <use xlink:href="#DejaVuSans-35" x="159.033203"/>
      </g>
     </g>
    </g>
    <g id="xtick_7">
     <g id="line2d_13">
      <path d="M 275.711556 384.48 
L 275.711556 51.84 
" clip-path="url(#pe6393567fe)" style="fill: none; stroke: #b0b0b0; stroke-width: 0.8; stroke-linecap: square"/>
     </g>
     <g id="line2d_14">
      <g>
       <use xlink:href="#m8256aef875" x="275.711556" y="384.48" style="stroke: #000000; stroke-width: 0.8"/>
      </g>
     </g>
     <g id="text_7">
      <!-- 40.17 -->
      <g transform="translate(261.397494 399.078438) scale(0.1 -0.1)">
       <defs>
        <path id="DejaVuSans-34" d="M 2419 4116 
L 825 1625 
L 2419 1625 
L 2419 4116 
z
M 2253 4666 
L 3047 4666 
L 3047 1625 
L 3713 1625 
L 3713 1100 
L 3047 1100 
L 3047 0 
L 2419 0 
L 2419 1100 
L 313 1100 
L 313 1709 
L 2253 4666 
z
" transform="scale(0.015625)"/>
       </defs>
       <use xlink:href="#DejaVuSans-34"/>
       <use xlink:href="#DejaVuSans-30" x="63.623047"/>
       <use xlink:href="#DejaVuSans-2e" x="127.246094"/>
       <use xlink:href="#DejaVuSans-31" x="159.033203"/>
       <use xlink:href="#DejaVuSans-37" x="222.65625"/>
      </g>
     </g>
    </g>
    <g id="xtick_8">
     <g id="line2d_15">
      <path d="M 306.281664 384.48 
L 306.281664 51.84 
" clip-path="url(#pe6393567fe)" style="fill: none; stroke: #b0b0b0; stroke-width: 0.8; stroke-linecap: square"/>
     </g>
     <g id="line2d_16">
      <g>
       <use xlink:href="#m8256aef875" x="306.281664" y="384.48" style="stroke: #000000; stroke-width: 0.8"/>
      </g>
     </g>
     <g id="text_8">
      <!-- 46.83 -->
      <g transform="translate(291.967602 399.078438) scale(0.1 -0.1)">
       <use xlink:href="#DejaVuSans-34"/>
       <use xlink:href="#DejaVuSans-36" x="63.623047"/>
       <use xlink:href="#DejaVuSans-2e" x="127.246094"/>
       <use xlink:href="#DejaVuSans-38" x="159.033203"/>
       <use xlink:href="#DejaVuSans-33" x="222.65625"/>
      </g>
     </g>
    </g>
    <g id="xtick_9">
     <g id="line2d_17">
      <path d="M 336.851772 384.48 
L 336.851772 51.84 
" clip-path="url(#pe6393567fe)" style="fill: none; stroke: #b0b0b0; stroke-width: 0.8; stroke-linecap: square"/>
     </g>
     <g id="line2d_18">
      <g>
       <use xlink:href="#m8256aef875" x="336.851772" y="384.48" style="stroke: #000000; stroke-width: 0.8"/>
      </g>
     </g>
     <g id="text_9">
      <!-- 53.5 -->
      <g transform="translate(325.718959 399.078438) scale(0.1 -0.1)">
       <use xlink:href="#DejaVuSans-35"/>
       <use xlink:href="#DejaVuSans-33" x="63.623047"/>
       <use xlink:href="#DejaVuSans-2e" x="127.246094"/>
       <use xlink:href="#DejaVuSans-35" x="159.033203"/>
      </g>
     </g>
    </g>
    <g id="xtick_10">
     <g id="line2d_19">
      <path d="M 367.42188 384.48 
L 367.42188 51.84 
" clip-path="url(#pe6393567fe)" style="fill: none; stroke: #b0b0b0; stroke-width: 0.8; stroke-linecap: square"/>
     </g>
     <g id="line2d_20">
      <g>
       <use xlink:href="#m8256aef875" x="367.42188" y="384.48" style="stroke: #000000; stroke-width: 0.8"/>
      </g>
     </g>
     <g id="text_10">
      <!-- 60.17 -->
      <g transform="translate(353.107817 399.078438) scale(0.1 -0.1)">
       <use xlink:href="#DejaVuSans-36"/>
       <use xlink:href="#DejaVuSans-30" x="63.623047"/>
       <use xlink:href="#DejaVuSans-2e" x="127.246094"/>
       <use xlink:href="#DejaVuSans-31" x="159.033203"/>
       <use xlink:href="#DejaVuSans-37" x="222.65625"/>
      </g>
     </g>
    </g>
    <g id="xtick_11">
     <g id="line2d_21">
      <path d="M 397.991988 384.48 
L 397.991988 51.84 
" clip-path="url(#pe6393567fe)" style="fill: none; stroke: #b0b0b0; stroke-width: 0.8; stroke-linecap: square"/>
     </g>
     <g id="line2d_22">
      <g>
       <use xlink:href="#m8256aef875" x="397.991988" y="384.48" style="stroke: #000000; stroke-width: 0.8"/>
      </g>
     </g>
     <g id="text_11">
      <!-- 66.83 -->
      <g transform="translate(383.677925 399.078438) scale(0.1 -0.1)">
       <use xlink:href="#DejaVuSans-36"/>
       <use xlink:href="#DejaVuSans-36" x="63.623047"/>
       <use xlink:href="#DejaVuSans-2e" x="127.246094"/>
       <use xlink:href="#DejaVuSans-38" x="159.033203"/>
       <use xlink:href="#DejaVuSans-33" x="222.65625"/>
      </g>
     </g>
    </g>
    <g id="xtick_12">
     <g id="line2d_23">
      <path d="M 428.562096 384.48 
L 428.562096 51.84 
" clip-path="url(#pe6393567fe)" style="fill: none; stroke: #b0b0b0; stroke-width: 0.8; stroke-linecap: square"/>
     </g>
     <g id="line2d_24">
      <g>
       <use xlink:href="#m8256aef875" x="428.562096" y="384.48" style="stroke: #000000; stroke-width: 0.8"/>
      </g>
     </g>
     <g id="text_12">
      <!-- 73.5 -->
      <g transform="translate(417.429283 399.078438) scale(0.1 -0.1)">
       <use xlink:href="#DejaVuSans-37"/>
       <use xlink:href="#DejaVuSans-33" x="63.623047"/>
       <use xlink:href="#DejaVuSans-2e" x="127.246094"/>
       <use xlink:href="#DejaVuSans-35" x="159.033203"/>
      </g>
     </g>
    </g>
    <g id="xtick_13">
     <g id="line2d_25">
      <path d="M 459.132203 384.48 
L 459.132203 51.84 
" clip-path="url(#pe6393567fe)" style="fill: none; stroke: #b0b0b0; stroke-width: 0.8; stroke-linecap: square"/>
     </g>
     <g id="line2d_26">
      <g>
       <use xlink:href="#m8256aef875" x="459.132203" y="384.48" style="stroke: #000000; stroke-width: 0.8"/>
      </g>
     </g>
     <g id="text_13">
      <!-- 80.17 -->
      <g transform="translate(444.818141 399.078438) scale(0.1 -0.1)">
       <use xlink:href="#DejaVuSans-38"/>
       <use xlink:href="#DejaVuSans-30" x="63.623047"/>
       <use xlink:href="#DejaVuSans-2e" x="127.246094"/>
       <use xlink:href="#DejaVuSans-31" x="159.033203"/>
       <use xlink:href="#DejaVuSans-37" x="222.65625"/>
      </g>
     </g>
    </g>
    <g id="xtick_14">
     <g id="line2d_27">
      <path d="M 489.702311 384.48 
L 489.702311 51.84 
" clip-path="url(#pe6393567fe)" style="fill: none; stroke: #b0b0b0; stroke-width: 0.8; stroke-linecap: square"/>
     </g>
     <g id="line2d_28">
      <g>
       <use xlink:href="#m8256aef875" x="489.702311" y="384.48" style="stroke: #000000; stroke-width: 0.8"/>
      </g>
     </g>
     <g id="text_14">
      <!-- 86.83 -->
      <g transform="translate(475.388249 399.078438) scale(0.1 -0.1)">
       <use xlink:href="#DejaVuSans-38"/>
       <use xlink:href="#DejaVuSans-36" x="63.623047"/>
       <use xlink:href="#DejaVuSans-2e" x="127.246094"/>
       <use xlink:href="#DejaVuSans-38" x="159.033203"/>
       <use xlink:href="#DejaVuSans-33" x="222.65625"/>
      </g>
     </g>
    </g>
    <g id="text_15">
     <!-- time in hours [h] -->
     <g transform="translate(253.451562 412.756563) scale(0.1 -0.1)">
      <defs>
       <path id="DejaVuSans-74" d="M 1172 4494 
L 1172 3500 
L 2356 3500 
L 2356 3053 
L 1172 3053 
L 1172 1153 
Q 1172 725 1289 603 
Q 1406 481 1766 481 
L 2356 481 
L 2356 0 
L 1766 0 
Q 1100 0 847 248 
Q 594 497 594 1153 
L 594 3053 
L 172 3053 
L 172 3500 
L 594 3500 
L 594 4494 
L 1172 4494 
z
" transform="scale(0.015625)"/>
       <path id="DejaVuSans-69" d="M 603 3500 
L 1178 3500 
L 1178 0 
L 603 0 
L 603 3500 
z
M 603 4863 
L 1178 4863 
L 1178 4134 
L 603 4134 
L 603 4863 
z
" transform="scale(0.015625)"/>
       <path id="DejaVuSans-6d" d="M 3328 2828 
Q 3544 3216 3844 3400 
Q 4144 3584 4550 3584 
Q 5097 3584 5394 3201 
Q 5691 2819 5691 2113 
L 5691 0 
L 5113 0 
L 5113 2094 
Q 5113 2597 4934 2840 
Q 4756 3084 4391 3084 
Q 3944 3084 3684 2787 
Q 3425 2491 3425 1978 
L 3425 0 
L 2847 0 
L 2847 2094 
Q 2847 2600 2669 2842 
Q 2491 3084 2119 3084 
Q 1678 3084 1418 2786 
Q 1159 2488 1159 1978 
L 1159 0 
L 581 0 
L 581 3500 
L 1159 3500 
L 1159 2956 
Q 1356 3278 1631 3431 
Q 1906 3584 2284 3584 
Q 2666 3584 2933 3390 
Q 3200 3197 3328 2828 
z
" transform="scale(0.015625)"/>
       <path id="DejaVuSans-65" d="M 3597 1894 
L 3597 1613 
L 953 1613 
Q 991 1019 1311 708 
Q 1631 397 2203 397 
Q 2534 397 2845 478 
Q 3156 559 3463 722 
L 3463 178 
Q 3153 47 2828 -22 
Q 2503 -91 2169 -91 
Q 1331 -91 842 396 
Q 353 884 353 1716 
Q 353 2575 817 3079 
Q 1281 3584 2069 3584 
Q 2775 3584 3186 3129 
Q 3597 2675 3597 1894 
z
M 3022 2063 
Q 3016 2534 2758 2815 
Q 2500 3097 2075 3097 
Q 1594 3097 1305 2825 
Q 1016 2553 972 2059 
L 3022 2063 
z
" transform="scale(0.015625)"/>
       <path id="DejaVuSans-20" transform="scale(0.015625)"/>
       <path id="DejaVuSans-6e" d="M 3513 2113 
L 3513 0 
L 2938 0 
L 2938 2094 
Q 2938 2591 2744 2837 
Q 2550 3084 2163 3084 
Q 1697 3084 1428 2787 
Q 1159 2491 1159 1978 
L 1159 0 
L 581 0 
L 581 3500 
L 1159 3500 
L 1159 2956 
Q 1366 3272 1645 3428 
Q 1925 3584 2291 3584 
Q 2894 3584 3203 3211 
Q 3513 2838 3513 2113 
z
" transform="scale(0.015625)"/>
       <path id="DejaVuSans-68" d="M 3513 2113 
L 3513 0 
L 2938 0 
L 2938 2094 
Q 2938 2591 2744 2837 
Q 2550 3084 2163 3084 
Q 1697 3084 1428 2787 
Q 1159 2491 1159 1978 
L 1159 0 
L 581 0 
L 581 4863 
L 1159 4863 
L 1159 2956 
Q 1366 3272 1645 3428 
Q 1925 3584 2291 3584 
Q 2894 3584 3203 3211 
Q 3513 2838 3513 2113 
z
" transform="scale(0.015625)"/>
       <path id="DejaVuSans-6f" d="M 1959 3097 
Q 1497 3097 1228 2736 
Q 959 2375 959 1747 
Q 959 1119 1226 758 
Q 1494 397 1959 397 
Q 2419 397 2687 759 
Q 2956 1122 2956 1747 
Q 2956 2369 2687 2733 
Q 2419 3097 1959 3097 
z
M 1959 3584 
Q 2709 3584 3137 3096 
Q 3566 2609 3566 1747 
Q 3566 888 3137 398 
Q 2709 -91 1959 -91 
Q 1206 -91 779 398 
Q 353 888 353 1747 
Q 353 2609 779 3096 
Q 1206 3584 1959 3584 
z
" transform="scale(0.015625)"/>
       <path id="DejaVuSans-75" d="M 544 1381 
L 544 3500 
L 1119 3500 
L 1119 1403 
Q 1119 906 1312 657 
Q 1506 409 1894 409 
Q 2359 409 2629 706 
Q 2900 1003 2900 1516 
L 2900 3500 
L 3475 3500 
L 3475 0 
L 2900 0 
L 2900 538 
Q 2691 219 2414 64 
Q 2138 -91 1772 -91 
Q 1169 -91 856 284 
Q 544 659 544 1381 
z
M 1991 3584 
L 1991 3584 
z
" transform="scale(0.015625)"/>
       <path id="DejaVuSans-72" d="M 2631 2963 
Q 2534 3019 2420 3045 
Q 2306 3072 2169 3072 
Q 1681 3072 1420 2755 
Q 1159 2438 1159 1844 
L 1159 0 
L 581 0 
L 581 3500 
L 1159 3500 
L 1159 2956 
Q 1341 3275 1631 3429 
Q 1922 3584 2338 3584 
Q 2397 3584 2469 3576 
Q 2541 3569 2628 3553 
L 2631 2963 
z
" transform="scale(0.015625)"/>
       <path id="DejaVuSans-73" d="M 2834 3397 
L 2834 2853 
Q 2591 2978 2328 3040 
Q 2066 3103 1784 3103 
Q 1356 3103 1142 2972 
Q 928 2841 928 2578 
Q 928 2378 1081 2264 
Q 1234 2150 1697 2047 
L 1894 2003 
Q 2506 1872 2764 1633 
Q 3022 1394 3022 966 
Q 3022 478 2636 193 
Q 2250 -91 1575 -91 
Q 1294 -91 989 -36 
Q 684 19 347 128 
L 347 722 
Q 666 556 975 473 
Q 1284 391 1588 391 
Q 1994 391 2212 530 
Q 2431 669 2431 922 
Q 2431 1156 2273 1281 
Q 2116 1406 1581 1522 
L 1381 1569 
Q 847 1681 609 1914 
Q 372 2147 372 2553 
Q 372 3047 722 3315 
Q 1072 3584 1716 3584 
Q 2034 3584 2315 3537 
Q 2597 3491 2834 3397 
z
" transform="scale(0.015625)"/>
       <path id="DejaVuSans-5b" d="M 550 4863 
L 1875 4863 
L 1875 4416 
L 1125 4416 
L 1125 -397 
L 1875 -397 
L 1875 -844 
L 550 -844 
L 550 4863 
z
" transform="scale(0.015625)"/>
       <path id="DejaVuSans-5d" d="M 1947 4863 
L 1947 -844 
L 622 -844 
L 622 -397 
L 1369 -397 
L 1369 4416 
L 622 4416 
L 622 4863 
L 1947 4863 
z
" transform="scale(0.015625)"/>
      </defs>
      <use xlink:href="#DejaVuSans-74"/>
      <use xlink:href="#DejaVuSans-69" x="39.208984"/>
      <use xlink:href="#DejaVuSans-6d" x="66.992188"/>
      <use xlink:href="#DejaVuSans-65" x="164.404297"/>
      <use xlink:href="#DejaVuSans-20" x="225.927734"/>
      <use xlink:href="#DejaVuSans-69" x="257.714844"/>
      <use xlink:href="#DejaVuSans-6e" x="285.498047"/>
      <use xlink:href="#DejaVuSans-20" x="348.876953"/>
      <use xlink:href="#DejaVuSans-68" x="380.664062"/>
      <use xlink:href="#DejaVuSans-6f" x="444.042969"/>
      <use xlink:href="#DejaVuSans-75" x="505.224609"/>
      <use xlink:href="#DejaVuSans-72" x="568.603516"/>
      <use xlink:href="#DejaVuSans-73" x="609.716797"/>
      <use xlink:href="#DejaVuSans-20" x="661.816406"/>
      <use xlink:href="#DejaVuSans-5b" x="693.603516"/>
      <use xlink:href="#DejaVuSans-68" x="732.617188"/>
      <use xlink:href="#DejaVuSans-5d" x="795.996094"/>
     </g>
    </g>
   </g>
   <g id="matplotlib.axis_2">
    <g id="ytick_1">
     <g id="line2d_29">
      <path d="M 72 331.018065 
L 518.4 331.018065 
" clip-path="url(#pe6393567fe)" style="fill: none; stroke: #b0b0b0; stroke-width: 0.8; stroke-linecap: square"/>
     </g>
     <g id="line2d_30">
      <defs>
       <path id="md43d842684" d="M 0 0 
L -3.5 0 
" style="stroke: #000000; stroke-width: 0.8"/>
      </defs>
      <g>
       <use xlink:href="#md43d842684" x="72" y="331.018065" style="stroke: #000000; stroke-width: 0.8"/>
      </g>
     </g>
     <g id="text_16">
      <!-- 20000 -->
      <g transform="translate(33.1875 334.817283) scale(0.1 -0.1)">
       <use xlink:href="#DejaVuSans-32"/>
       <use xlink:href="#DejaVuSans-30" x="63.623047"/>
       <use xlink:href="#DejaVuSans-30" x="127.246094"/>
       <use xlink:href="#DejaVuSans-30" x="190.869141"/>
       <use xlink:href="#DejaVuSans-30" x="254.492188"/>
      </g>
     </g>
    </g>
    <g id="ytick_2">
     <g id="line2d_31">
      <path d="M 72 270.028804 
L 518.4 270.028804 
" clip-path="url(#pe6393567fe)" style="fill: none; stroke: #b0b0b0; stroke-width: 0.8; stroke-linecap: square"/>
     </g>
     <g id="line2d_32">
      <g>
       <use xlink:href="#md43d842684" x="72" y="270.028804" style="stroke: #000000; stroke-width: 0.8"/>
      </g>
     </g>
     <g id="text_17">
      <!-- 40000 -->
      <g transform="translate(33.1875 273.828023) scale(0.1 -0.1)">
       <use xlink:href="#DejaVuSans-34"/>
       <use xlink:href="#DejaVuSans-30" x="63.623047"/>
       <use xlink:href="#DejaVuSans-30" x="127.246094"/>
       <use xlink:href="#DejaVuSans-30" x="190.869141"/>
       <use xlink:href="#DejaVuSans-30" x="254.492188"/>
      </g>
     </g>
    </g>
    <g id="ytick_3">
     <g id="line2d_33">
      <path d="M 72 209.039544 
L 518.4 209.039544 
" clip-path="url(#pe6393567fe)" style="fill: none; stroke: #b0b0b0; stroke-width: 0.8; stroke-linecap: square"/>
     </g>
     <g id="line2d_34">
      <g>
       <use xlink:href="#md43d842684" x="72" y="209.039544" style="stroke: #000000; stroke-width: 0.8"/>
      </g>
     </g>
     <g id="text_18">
      <!-- 60000 -->
      <g transform="translate(33.1875 212.838763) scale(0.1 -0.1)">
       <use xlink:href="#DejaVuSans-36"/>
       <use xlink:href="#DejaVuSans-30" x="63.623047"/>
       <use xlink:href="#DejaVuSans-30" x="127.246094"/>
       <use xlink:href="#DejaVuSans-30" x="190.869141"/>
       <use xlink:href="#DejaVuSans-30" x="254.492188"/>
      </g>
     </g>
    </g>
    <g id="ytick_4">
     <g id="line2d_35">
      <path d="M 72 148.050284 
L 518.4 148.050284 
" clip-path="url(#pe6393567fe)" style="fill: none; stroke: #b0b0b0; stroke-width: 0.8; stroke-linecap: square"/>
     </g>
     <g id="line2d_36">
      <g>
       <use xlink:href="#md43d842684" x="72" y="148.050284" style="stroke: #000000; stroke-width: 0.8"/>
      </g>
     </g>
     <g id="text_19">
      <!-- 80000 -->
      <g transform="translate(33.1875 151.849502) scale(0.1 -0.1)">
       <use xlink:href="#DejaVuSans-38"/>
       <use xlink:href="#DejaVuSans-30" x="63.623047"/>
       <use xlink:href="#DejaVuSans-30" x="127.246094"/>
       <use xlink:href="#DejaVuSans-30" x="190.869141"/>
       <use xlink:href="#DejaVuSans-30" x="254.492188"/>
      </g>
     </g>
    </g>
    <g id="ytick_5">
     <g id="line2d_37">
      <path d="M 72 87.061023 
L 518.4 87.061023 
" clip-path="url(#pe6393567fe)" style="fill: none; stroke: #b0b0b0; stroke-width: 0.8; stroke-linecap: square"/>
     </g>
     <g id="line2d_38">
      <g>
       <use xlink:href="#md43d842684" x="72" y="87.061023" style="stroke: #000000; stroke-width: 0.8"/>
      </g>
     </g>
     <g id="text_20">
      <!-- 100000 -->
      <g transform="translate(26.825 90.860242) scale(0.1 -0.1)">
       <use xlink:href="#DejaVuSans-31"/>
       <use xlink:href="#DejaVuSans-30" x="63.623047"/>
       <use xlink:href="#DejaVuSans-30" x="127.246094"/>
       <use xlink:href="#DejaVuSans-30" x="190.869141"/>
       <use xlink:href="#DejaVuSans-30" x="254.492188"/>
       <use xlink:href="#DejaVuSans-30" x="318.115234"/>
      </g>
     </g>
    </g>
    <g id="text_21">
     <!-- blank corrected GFP RFU -->
     <g transform="translate(20.745312 280.149062) rotate(-90) scale(0.1 -0.1)">
      <defs>
       <path id="DejaVuSans-62" d="M 3116 1747 
Q 3116 2381 2855 2742 
Q 2594 3103 2138 3103 
Q 1681 3103 1420 2742 
Q 1159 2381 1159 1747 
Q 1159 1113 1420 752 
Q 1681 391 2138 391 
Q 2594 391 2855 752 
Q 3116 1113 3116 1747 
z
M 1159 2969 
Q 1341 3281 1617 3432 
Q 1894 3584 2278 3584 
Q 2916 3584 3314 3078 
Q 3713 2572 3713 1747 
Q 3713 922 3314 415 
Q 2916 -91 2278 -91 
Q 1894 -91 1617 61 
Q 1341 213 1159 525 
L 1159 0 
L 581 0 
L 581 4863 
L 1159 4863 
L 1159 2969 
z
" transform="scale(0.015625)"/>
       <path id="DejaVuSans-6c" d="M 603 4863 
L 1178 4863 
L 1178 0 
L 603 0 
L 603 4863 
z
" transform="scale(0.015625)"/>
       <path id="DejaVuSans-61" d="M 2194 1759 
Q 1497 1759 1228 1600 
Q 959 1441 959 1056 
Q 959 750 1161 570 
Q 1363 391 1709 391 
Q 2188 391 2477 730 
Q 2766 1069 2766 1631 
L 2766 1759 
L 2194 1759 
z
M 3341 1997 
L 3341 0 
L 2766 0 
L 2766 531 
Q 2569 213 2275 61 
Q 1981 -91 1556 -91 
Q 1019 -91 701 211 
Q 384 513 384 1019 
Q 384 1609 779 1909 
Q 1175 2209 1959 2209 
L 2766 2209 
L 2766 2266 
Q 2766 2663 2505 2880 
Q 2244 3097 1772 3097 
Q 1472 3097 1187 3025 
Q 903 2953 641 2809 
L 641 3341 
Q 956 3463 1253 3523 
Q 1550 3584 1831 3584 
Q 2591 3584 2966 3190 
Q 3341 2797 3341 1997 
z
" transform="scale(0.015625)"/>
       <path id="DejaVuSans-6b" d="M 581 4863 
L 1159 4863 
L 1159 1991 
L 2875 3500 
L 3609 3500 
L 1753 1863 
L 3688 0 
L 2938 0 
L 1159 1709 
L 1159 0 
L 581 0 
L 581 4863 
z
" transform="scale(0.015625)"/>
       <path id="DejaVuSans-63" d="M 3122 3366 
L 3122 2828 
Q 2878 2963 2633 3030 
Q 2388 3097 2138 3097 
Q 1578 3097 1268 2742 
Q 959 2388 959 1747 
Q 959 1106 1268 751 
Q 1578 397 2138 397 
Q 2388 397 2633 464 
Q 2878 531 3122 666 
L 3122 134 
Q 2881 22 2623 -34 
Q 2366 -91 2075 -91 
Q 1284 -91 818 406 
Q 353 903 353 1747 
Q 353 2603 823 3093 
Q 1294 3584 2113 3584 
Q 2378 3584 2631 3529 
Q 2884 3475 3122 3366 
z
" transform="scale(0.015625)"/>
       <path id="DejaVuSans-64" d="M 2906 2969 
L 2906 4863 
L 3481 4863 
L 3481 0 
L 2906 0 
L 2906 525 
Q 2725 213 2448 61 
Q 2172 -91 1784 -91 
Q 1150 -91 751 415 
Q 353 922 353 1747 
Q 353 2572 751 3078 
Q 1150 3584 1784 3584 
Q 2172 3584 2448 3432 
Q 2725 3281 2906 2969 
z
M 947 1747 
Q 947 1113 1208 752 
Q 1469 391 1925 391 
Q 2381 391 2643 752 
Q 2906 1113 2906 1747 
Q 2906 2381 2643 2742 
Q 2381 3103 1925 3103 
Q 1469 3103 1208 2742 
Q 947 2381 947 1747 
z
" transform="scale(0.015625)"/>
       <path id="DejaVuSans-47" d="M 3809 666 
L 3809 1919 
L 2778 1919 
L 2778 2438 
L 4434 2438 
L 4434 434 
Q 4069 175 3628 42 
Q 3188 -91 2688 -91 
Q 1594 -91 976 548 
Q 359 1188 359 2328 
Q 359 3472 976 4111 
Q 1594 4750 2688 4750 
Q 3144 4750 3555 4637 
Q 3966 4525 4313 4306 
L 4313 3634 
Q 3963 3931 3569 4081 
Q 3175 4231 2741 4231 
Q 1884 4231 1454 3753 
Q 1025 3275 1025 2328 
Q 1025 1384 1454 906 
Q 1884 428 2741 428 
Q 3075 428 3337 486 
Q 3600 544 3809 666 
z
" transform="scale(0.015625)"/>
       <path id="DejaVuSans-46" d="M 628 4666 
L 3309 4666 
L 3309 4134 
L 1259 4134 
L 1259 2759 
L 3109 2759 
L 3109 2228 
L 1259 2228 
L 1259 0 
L 628 0 
L 628 4666 
z
" transform="scale(0.015625)"/>
       <path id="DejaVuSans-50" d="M 1259 4147 
L 1259 2394 
L 2053 2394 
Q 2494 2394 2734 2622 
Q 2975 2850 2975 3272 
Q 2975 3691 2734 3919 
Q 2494 4147 2053 4147 
L 1259 4147 
z
M 628 4666 
L 2053 4666 
Q 2838 4666 3239 4311 
Q 3641 3956 3641 3272 
Q 3641 2581 3239 2228 
Q 2838 1875 2053 1875 
L 1259 1875 
L 1259 0 
L 628 0 
L 628 4666 
z
" transform="scale(0.015625)"/>
       <path id="DejaVuSans-52" d="M 2841 2188 
Q 3044 2119 3236 1894 
Q 3428 1669 3622 1275 
L 4263 0 
L 3584 0 
L 2988 1197 
Q 2756 1666 2539 1819 
Q 2322 1972 1947 1972 
L 1259 1972 
L 1259 0 
L 628 0 
L 628 4666 
L 2053 4666 
Q 2853 4666 3247 4331 
Q 3641 3997 3641 3322 
Q 3641 2881 3436 2590 
Q 3231 2300 2841 2188 
z
M 1259 4147 
L 1259 2491 
L 2053 2491 
Q 2509 2491 2742 2702 
Q 2975 2913 2975 3322 
Q 2975 3731 2742 3939 
Q 2509 4147 2053 4147 
L 1259 4147 
z
" transform="scale(0.015625)"/>
       <path id="DejaVuSans-55" d="M 556 4666 
L 1191 4666 
L 1191 1831 
Q 1191 1081 1462 751 
Q 1734 422 2344 422 
Q 2950 422 3222 751 
Q 3494 1081 3494 1831 
L 3494 4666 
L 4128 4666 
L 4128 1753 
Q 4128 841 3676 375 
Q 3225 -91 2344 -91 
Q 1459 -91 1007 375 
Q 556 841 556 1753 
L 556 4666 
z
" transform="scale(0.015625)"/>
      </defs>
      <use xlink:href="#DejaVuSans-62"/>
      <use xlink:href="#DejaVuSans-6c" x="63.476562"/>
      <use xlink:href="#DejaVuSans-61" x="91.259766"/>
      <use xlink:href="#DejaVuSans-6e" x="152.539062"/>
      <use xlink:href="#DejaVuSans-6b" x="215.917969"/>
      <use xlink:href="#DejaVuSans-20" x="273.828125"/>
      <use xlink:href="#DejaVuSans-63" x="305.615234"/>
      <use xlink:href="#DejaVuSans-6f" x="360.595703"/>
      <use xlink:href="#DejaVuSans-72" x="421.777344"/>
      <use xlink:href="#DejaVuSans-72" x="461.140625"/>
      <use xlink:href="#DejaVuSans-65" x="500.003906"/>
      <use xlink:href="#DejaVuSans-63" x="561.527344"/>
      <use xlink:href="#DejaVuSans-74" x="616.507812"/>
      <use xlink:href="#DejaVuSans-65" x="655.716797"/>
      <use xlink:href="#DejaVuSans-64" x="717.240234"/>
      <use xlink:href="#DejaVuSans-20" x="780.716797"/>
      <use xlink:href="#DejaVuSans-47" x="812.503906"/>
      <use xlink:href="#DejaVuSans-46" x="889.994141"/>
      <use xlink:href="#DejaVuSans-50" x="947.513672"/>
      <use xlink:href="#DejaVuSans-20" x="1007.816406"/>
      <use xlink:href="#DejaVuSans-52" x="1039.603516"/>
      <use xlink:href="#DejaVuSans-46" x="1109.085938"/>
      <use xlink:href="#DejaVuSans-55" x="1166.605469"/>
     </g>
    </g>
   </g>
   <g id="line2d_39">
    <path d="M 92.290909 337.38638 
L 93.055162 338.819628 
L 93.819414 337.490062 
L 94.583667 337.087533 
L 95.34792 337.078385 
L 96.112173 336.108655 
L 97.640678 335.096234 
L 98.404931 334.193592 
L 99.933436 332.925016 
L 100.697689 332.214491 
L 101.461941 330.74465 
L 102.226194 329.628546 
L 102.990447 328.966813 
L 103.7547 327.96354 
L 104.518952 326.292434 
L 105.283205 324.993363 
L 106.047458 323.218575 
L 107.575963 321.080902 
L 108.340216 319.257323 
L 109.104468 318.055834 
L 109.868721 315.970002 
L 111.397227 312.746719 
L 112.161479 311.066465 
L 113.689985 307.074718 
L 115.21849 303.54039 
L 115.982743 300.600708 
L 116.746995 300.42079 
L 118.275501 296.892561 
L 119.804006 289.988577 
L 120.568259 288.274778 
L 125.918028 270.633635 
L 126.68228 267.727497 
L 128.210786 263.256984 
L 129.739291 258.649245 
L 130.503544 257.386768 
L 131.267797 254.770328 
L 132.032049 253.022986 
L 133.560555 246.777686 
L 134.324807 239.135731 
L 135.08906 235.717283 
L 135.853313 231.6493 
L 136.617565 228.590688 
L 137.381818 226.160266 
L 138.910324 219.792987 
L 141.967334 205.933178 
L 142.731587 201.883491 
L 143.49584 201.907887 
L 144.260092 202.642807 
L 145.024345 203.020941 
L 145.788598 200.98085 
L 146.552851 198.318669 
L 147.317103 194.933765 
L 148.081356 186.212301 
L 148.845609 180.485409 
L 150.374114 170.577704 
L 151.138367 162.774128 
L 152.666872 154.043515 
L 153.431125 150.506138 
L 154.195378 147.776869 
L 154.95963 143.147784 
L 156.488136 136.222453 
L 157.252388 137.146441 
L 158.016641 139.000514 
L 158.780894 138.107022 
L 159.545146 138.100923 
L 160.309399 136.646329 
L 161.073652 133.532827 
L 162.602157 125.649965 
L 163.36641 118.840514 
L 164.130663 101.199371 
L 164.894915 97.378394 
L 165.659168 95.63715 
L 166.423421 92.200405 
L 167.187673 89.907209 
L 168.716179 83.738146 
L 169.480431 82.890395 
L 170.244684 84.082735 
L 171.77319 91.047708 
L 172.537442 93.292113 
L 173.301695 93.87761 
L 174.065948 92.197356 
L 174.8302 92.035734 
L 175.594453 82.981879 
L 176.358706 70.421141 
L 177.122958 67.899235 
L 177.887211 68.179785 
L 178.651464 66.96 
L 179.415716 67.267996 
L 180.179969 69.609983 
L 180.944222 75.175253 
L 181.708475 68.716491 
L 182.472727 74.083546 
L 183.23698 86.04354 
L 184.001233 87.257226 
L 186.293991 106.420051 
L 187.058243 109.060886 
L 187.822496 112.174388 
L 188.586749 114.403546 
L 189.351002 114.681047 
L 190.115254 111.2565 
L 190.879507 102.193496 
L 191.64376 90.382925 
L 192.408012 90.190809 
L 193.936518 96.930123 
L 195.465023 99.988734 
L 196.229276 102.815586 
L 196.993529 103.843255 
L 197.757781 109.243854 
L 198.522034 109.743966 
L 199.286287 124.155728 
L 200.050539 127.735798 
L 200.814792 133.133347 
L 201.579045 136.655477 
L 202.343297 134.517804 
L 203.10755 126.973432 
L 203.871803 125.45175 
L 204.636055 128.842753 
L 206.164561 131.690951 
L 207.693066 136.393223 
L 208.457319 137.911856 
L 209.221572 141.69624 
L 209.985824 144.24864 
L 211.51433 147.569505 
L 212.278582 156.202535 
L 213.042835 160.499229 
L 214.571341 172.873949 
L 215.335593 172.898345 
L 216.099846 172.379936 
L 216.864099 166.037053 
L 217.628351 164.57941 
L 218.392604 166.747578 
L 219.156857 169.275583 
L 220.685362 173.117907 
L 222.213867 177.887267 
L 222.97812 180.070682 
L 223.742373 181.372803 
L 224.506626 184.989466 
L 225.270878 187.706538 
L 226.799384 198.166196 
L 227.563636 203.609487 
L 228.327889 205.167763 
L 229.092142 206.070404 
L 229.856394 207.262744 
L 230.620647 202.837973 
L 231.3849 204.04556 
L 232.149153 207.064529 
L 232.913405 209.424813 
L 233.677658 212.581007 
L 234.441911 214.340548 
L 235.206163 216.703881 
L 235.970416 219.802136 
L 236.734669 222.046541 
L 237.498921 224.858146 
L 240.555932 240.873925 
L 241.320185 243.874597 
L 242.084438 246.216584 
L 242.84869 246.658757 
L 243.612943 245.939083 
L 245.141448 250.976796 
L 245.905701 254.355601 
L 246.669954 256.737232 
L 247.434206 259.890377 
L 248.198459 261.409009 
L 248.962712 265.269629 
L 251.25547 272.899386 
L 252.019723 276.192806 
L 252.783975 281.517168 
L 253.548228 284.225092 
L 254.312481 289.250607 
L 255.076733 292.318366 
L 255.840986 295.962475 
L 256.605239 296.974896 
L 257.369492 295.800853 
L 258.133744 296.27352 
L 258.897997 298.981443 
L 261.190755 305.485948 
L 262.71926 310.047944 
L 266.540524 320.220953 
L 268.069029 326.377819 
L 269.597535 330.052422 
L 270.361787 330.323824 
L 271.12604 329.171127 
L 271.890293 330.543385 
L 272.654545 332.193145 
L 276.475809 338.148746 
L 277.240062 338.901963 
L 280.297072 342.918106 
L 281.061325 343.561543 
L 281.825578 345.39732 
L 283.354083 347.846038 
L 284.118336 346.915952 
L 284.882589 346.717737 
L 285.646841 347.284937 
L 286.411094 348.169282 
L 287.175347 348.394942 
L 289.468105 350.041652 
L 290.99661 350.767424 
L 293.289368 351.950616 
L 294.053621 352.737377 
L 294.817874 352.898999 
L 296.346379 354.829309 
L 297.110632 354.887249 
L 298.639137 354.612797 
L 299.40339 355.039722 
L 300.167643 355.268431 
L 300.931895 356.079589 
L 302.460401 356.918191 
L 303.224653 357.287176 
L 304.753159 358.214213 
L 306.281664 359.049766 
L 307.045917 359.498037 
L 307.810169 360.107929 
L 308.574422 360.473865 
L 309.338675 361.102054 
L 310.102928 361.891865 
L 310.86718 361.159994 
L 313.159938 362.410274 
L 316.216949 363.288519 
L 318.509707 364.218605 
L 319.27396 364.294842 
L 323.095223 365.773831 
L 323.859476 365.776881 
L 324.623729 365.356055 
L 325.387982 365.606111 
L 326.916487 365.700644 
L 327.68074 366.054382 
L 328.444992 365.871414 
L 329.973498 366.188558 
L 330.73775 366.078778 
L 331.502003 366.645978 
L 332.266256 366.46301 
L 333.794761 366.676473 
L 334.559014 366.932627 
L 335.323267 367.359552 
L 336.087519 367.298563 
L 336.851772 367.539471 
L 337.616025 367.588262 
L 338.380277 367.152189 
L 339.14453 367.051556 
L 339.908783 366.609384 
L 340.673035 366.969221 
L 342.201541 366.624632 
L 342.965794 367.048507 
L 345.258552 366.966172 
L 346.022804 367.124744 
L 346.787057 367.079002 
L 349.079815 367.451036 
L 349.844068 367.887109 
L 351.372573 367.957247 
L 352.901079 367.027161 
L 353.665331 367.368701 
L 355.193837 367.109496 
L 355.958089 366.969221 
L 356.722342 367.136941 
L 357.486595 367.045458 
L 358.250847 367.179634 
L 359.0151 367.14304 
L 359.779353 367.280266 
L 361.307858 367.231475 
L 362.072111 367.069853 
L 362.836364 367.691944 
L 364.364869 368.445161 
L 365.129122 367.929802 
L 365.893374 367.786477 
L 366.657627 367.103397 
L 367.42188 367.304662 
L 368.950385 367.133892 
L 369.714638 367.243673 
L 370.478891 366.966172 
L 371.243143 367.127793 
L 372.771649 367.121694 
L 374.300154 367.054606 
L 375.064407 367.356503 
L 377.357165 367.347354 
L 378.121418 367.627905 
L 378.88567 367.691944 
L 379.649923 367.133892 
L 380.414176 366.908232 
L 381.178428 366.841144 
L 381.942681 367.063754 
L 383.471186 366.85944 
L 384.235439 367.124744 
L 384.999692 367.216227 
L 385.763945 367.188782 
L 386.528197 367.298563 
L 388.056703 366.813698 
L 388.820955 366.758808 
L 389.585208 367.149139 
L 390.349461 367.277217 
L 391.113713 367.560817 
L 391.877966 367.698043 
L 392.642219 367.505926 
L 393.406471 366.984468 
L 394.934977 366.780154 
L 395.69923 366.877737 
L 397.227735 366.609384 
L 398.75624 366.987518 
L 400.284746 366.764907 
L 401.048998 366.926529 
L 401.813251 366.645978 
L 402.577504 366.810649 
L 403.341757 366.694769 
L 404.106009 366.97532 
L 404.870262 367.475432 
L 406.398767 367.588262 
L 407.16302 366.670374 
L 408.691525 366.807599 
L 409.455778 366.645978 
L 410.220031 366.664275 
L 410.984284 366.456911 
L 412.512789 366.713066 
L 413.277042 366.484356 
L 414.041294 366.621582 
L 414.805547 366.441664 
L 415.5698 366.545346 
L 416.334052 366.374576 
L 417.098305 366.670374 
L 417.862558 366.530098 
L 418.62681 367.493729 
L 419.391063 367.451036 
L 420.919569 366.932627 
L 421.683821 366.29529 
L 422.448074 366.420318 
L 423.212327 366.057432 
L 423.976579 366.429466 
L 424.740832 366.414219 
L 425.505085 366.255647 
L 428.562096 366.316636 
L 429.326348 366.280042 
L 430.090601 366.5179 
L 431.619106 366.774055 
L 432.383359 367.191832 
L 433.147612 367.191832 
L 433.911864 367.383948 
L 434.676117 367.115595 
L 435.44037 366.313586 
L 436.204622 366.100124 
L 436.968875 366.206855 
L 437.733128 366.078778 
L 438.497381 365.786029 
L 439.261633 366.069629 
L 440.790139 366.148915 
L 441.554391 366.158064 
L 442.318644 366.319685 
L 444.611402 366.216004 
L 445.375655 366.807599 
L 446.139908 367.234524 
L 447.668413 367.585213 
L 448.432666 367.289415 
L 449.196918 366.155014 
L 449.961171 365.908008 
L 451.489676 366.020838 
L 453.018182 366.005591 
L 453.782435 366.197707 
L 454.546687 366.155014 
L 455.31094 365.975096 
L 456.075193 366.209905 
L 456.839445 365.929354 
L 457.603698 365.999492 
L 459.132203 366.334933 
L 459.896456 366.267845 
L 461.424961 366.813698 
L 462.189214 366.148915 
L 462.953467 365.813475 
L 464.481972 365.999492 
L 467.538983 365.850068 
L 468.303236 365.993393 
L 470.595994 365.926305 
L 471.360247 365.761634 
L 472.124499 365.758584 
L 472.888752 366.255647 
L 473.653005 366.273943 
L 475.18151 366.68867 
L 475.945763 365.703694 
L 480.531279 365.752485 
L 481.295532 365.578666 
L 482.059784 365.917156 
L 482.824037 365.450588 
L 483.58829 365.737238 
L 484.352542 365.828722 
L 485.116795 365.578666 
L 486.6453 366.075728 
L 487.409553 366.029986 
L 488.938059 366.831995 
L 489.702311 365.767733 
L 490.466564 365.292016 
L 491.230817 365.505479 
L 491.995069 365.465836 
L 493.523575 365.731139 
L 494.287827 365.584765 
L 495.05208 365.584765 
L 495.816333 365.331659 
L 496.580586 365.340808 
L 497.344838 365.600012 
L 498.109091 365.587814 
L 498.109091 365.587814 
" clip-path="url(#pe6393567fe)" style="fill: none; stroke: #008000; stroke-width: 1.5; stroke-linecap: square"/>
   </g>
   <g id="line2d_40">
    <path d="M 92.290909 336.993 
L 93.055162 338.508583 
L 93.819414 336.925911 
L 94.583667 336.846625 
L 96.112173 335.611593 
L 96.876425 335.416427 
L 98.404931 334.26678 
L 99.169183 333.062242 
L 99.933436 332.623119 
L 100.697689 331.180723 
L 101.461941 330.162202 
L 102.226194 329.534013 
L 102.990447 328.664916 
L 103.7547 327.542714 
L 104.518952 325.819767 
L 105.283205 324.413965 
L 106.81171 322.096373 
L 107.575963 320.278893 
L 109.104468 317.543524 
L 109.868721 316.082832 
L 112.161479 310.630392 
L 112.925732 308.404284 
L 113.689985 306.897849 
L 114.454237 304.683939 
L 115.21849 302.960992 
L 115.982743 300.725736 
L 116.746995 300.808071 
L 117.511248 299.481555 
L 118.275501 297.624432 
L 119.804006 289.91539 
L 122.096764 283.054098 
L 122.861017 280.31568 
L 123.62527 278.174957 
L 126.68228 268.294697 
L 127.446533 264.940287 
L 128.210786 262.811762 
L 128.975039 260.244114 
L 129.739291 257.066574 
L 130.503544 257.673417 
L 131.267797 255.16066 
L 132.032049 254.02016 
L 132.796302 249.5344 
L 133.560555 245.78966 
L 134.324807 238.40691 
L 136.617565 229.157888 
L 138.910324 219.173946 
L 139.674576 216.057395 
L 141.203082 209.171708 
L 141.967334 206.192382 
L 142.731587 202.221982 
L 143.49584 201.011345 
L 144.260092 203.109375 
L 145.024345 202.990446 
L 145.788598 201.358984 
L 146.552851 198.757792 
L 147.317103 192.74425 
L 148.081356 181.632007 
L 149.609861 172.669635 
L 150.374114 168.44308 
L 151.138367 161.834893 
L 153.431125 150.594573 
L 154.195378 148.136705 
L 154.95963 143.239268 
L 156.488136 136.283443 
L 157.252388 136.972621 
L 158.016641 138.869387 
L 158.780894 138.933426 
L 159.545146 139.781177 
L 160.309399 137.509327 
L 161.073652 134.447666 
L 161.837904 127.979755 
L 163.36641 106.505436 
L 164.130663 99.78137 
L 164.894915 96.844738 
L 165.659168 94.493602 
L 166.423421 91.20628 
L 167.187673 89.547373 
L 167.951926 86.290546 
L 168.716179 84.482214 
L 169.480431 84.067488 
L 170.244684 85.232382 
L 171.008937 90.30059 
L 171.77319 96.161658 
L 172.537442 96.076273 
L 173.301695 97.488174 
L 174.065948 95.722535 
L 174.8302 94.877834 
L 175.594453 82.167672 
L 176.358706 74.040853 
L 177.122958 73.007085 
L 177.887211 78.77362 
L 178.651464 82.582399 
L 179.415716 75.751602 
L 180.179969 79.008428 
L 180.944222 73.37607 
L 181.708475 77.623972 
L 182.472727 82.734872 
L 183.23698 92.511451 
L 184.001233 92.703567 
L 184.765485 101.217668 
L 185.529738 106.627415 
L 186.293991 116.068552 
L 187.058243 118.788673 
L 188.586749 118.69414 
L 189.351002 118.001912 
L 190.115254 114.20838 
L 190.879507 101.437229 
L 191.64376 93.289064 
L 193.172265 96.442208 
L 193.936518 100.083267 
L 194.70077 102.065418 
L 195.465023 103.273006 
L 196.229276 106.563376 
L 196.993529 108.829127 
L 197.757781 113.13192 
L 198.522034 115.202505 
L 199.286287 125.418206 
L 200.814792 133.715795 
L 201.579045 134.676376 
L 202.343297 131.694001 
L 203.10755 126.637991 
L 203.871803 128.598796 
L 204.636055 131.815979 
L 205.400308 133.578569 
L 206.164561 135.941903 
L 206.928814 138.68337 
L 207.693066 140.33008 
L 208.457319 142.287835 
L 209.985824 148.554482 
L 210.750077 150.21339 
L 211.51433 153.424474 
L 212.278582 159.913732 
L 214.571341 175.054316 
L 215.335593 175.65201 
L 216.099846 172.489717 
L 216.864099 165.982163 
L 219.156857 172.477519 
L 219.921109 174.331593 
L 220.685362 176.67358 
L 221.449615 179.753538 
L 222.213867 181.833272 
L 222.97812 184.254545 
L 223.742373 185.959195 
L 225.270878 191.079244 
L 226.799384 199.934884 
L 227.563636 206.405845 
L 228.327889 208.156237 
L 229.856394 206.256421 
L 230.620647 206.698593 
L 232.149153 210.681192 
L 232.913405 213.794694 
L 233.677658 215.29198 
L 235.206163 221.168295 
L 235.970416 222.936984 
L 236.734669 225.730292 
L 237.498921 227.874064 
L 238.263174 233.186229 
L 239.027427 236.138109 
L 239.79168 240.639117 
L 242.084438 247.896839 
L 242.84869 247.707772 
L 243.612943 249.53745 
L 245.141448 255.056978 
L 246.669954 259.798893 
L 247.434206 263.263083 
L 248.962712 268.081234 
L 249.726965 271.478336 
L 251.25547 276.854539 
L 252.019723 280.013783 
L 252.783975 284.319625 
L 253.548228 285.999879 
L 254.312481 290.720448 
L 255.840986 297.035886 
L 256.605239 297.502453 
L 257.369492 296.249124 
L 258.133744 299.133916 
L 258.897997 301.183155 
L 260.426502 306.101939 
L 262.71926 312.179519 
L 263.483513 314.38733 
L 265.012018 317.949103 
L 266.540524 321.721289 
L 267.304777 325.048253 
L 268.833282 329.887751 
L 269.597535 331.42773 
L 270.361787 331.659489 
L 271.12604 330.491544 
L 271.890293 332.339519 
L 272.654545 333.693481 
L 273.418798 334.507687 
L 276.475809 339.286196 
L 277.240062 340.155293 
L 279.53282 343.250498 
L 280.297072 343.909182 
L 281.061325 344.839268 
L 281.825578 346.821419 
L 283.354083 348.254666 
L 284.118336 347.129415 
L 284.882589 348.144886 
L 287.175347 349.349424 
L 287.939599 349.556787 
L 288.703852 350.39234 
L 289.468105 350.9016 
L 291.760863 351.904874 
L 294.053621 353.502792 
L 294.817874 353.420457 
L 295.582126 354.560956 
L 296.346379 355.417855 
L 297.110632 355.579477 
L 298.639137 354.893347 
L 299.40339 355.634367 
L 300.167643 356.067391 
L 300.931895 356.369288 
L 301.696148 356.92429 
L 302.460401 357.622617 
L 303.224653 357.817782 
L 303.988906 358.323993 
L 304.753159 358.503912 
L 306.281664 359.458394 
L 307.045917 360.129275 
L 308.574422 361.156944 
L 310.102928 362.60239 
L 310.86718 361.882717 
L 311.631433 361.907112 
L 312.395686 362.483461 
L 313.159938 362.452966 
L 313.924191 362.736566 
L 314.688444 363.233629 
L 316.216949 363.672751 
L 317.745455 364.117973 
L 319.27396 364.557096 
L 320.038213 364.566244 
L 320.802465 365.060257 
L 321.566718 365.038911 
L 322.330971 365.850068 
L 323.859476 366.337982 
L 324.623729 365.798227 
L 328.444992 366.40812 
L 329.209245 366.200756 
L 335.323267 367.329058 
L 336.087519 367.383948 
L 336.851772 367.566916 
L 338.380277 366.987518 
L 339.14453 367.225376 
L 339.908783 367.289415 
L 342.201541 367.069853 
L 342.965794 367.368701 
L 343.730046 367.164387 
L 344.494299 367.493729 
L 345.258552 367.179634 
L 346.022804 367.14304 
L 346.787057 367.341255 
L 347.55131 367.237574 
L 348.315562 367.630954 
L 349.079815 367.441888 
L 349.844068 367.896258 
L 350.60832 367.905406 
L 351.372573 367.755982 
L 352.901079 367.14304 
L 353.665331 367.405294 
L 355.958089 367.451036 
L 356.722342 367.725488 
L 357.486595 367.618757 
L 358.250847 367.640103 
L 359.0151 367.48763 
L 359.779353 367.704142 
L 360.543606 367.679746 
L 361.307858 367.783428 
L 362.072111 367.624856 
L 364.364869 368.585436 
L 365.129122 368.076176 
L 365.893374 367.856615 
L 367.42188 367.615707 
L 368.186133 367.499828 
L 368.950385 367.158288 
L 369.714638 367.710241 
L 371.243143 367.667548 
L 372.007396 367.396146 
L 373.535901 367.682795 
L 374.300154 367.59741 
L 375.828659 367.630954 
L 376.592912 367.914555 
L 377.357165 367.783428 
L 378.121418 368.298787 
L 378.88567 368.100572 
L 380.414176 367.359552 
L 381.178428 367.451036 
L 381.942681 367.31686 
L 382.706934 367.508976 
L 383.471186 367.447987 
L 384.235439 367.621806 
L 384.999692 367.332107 
L 385.763945 367.466283 
L 386.528197 367.20403 
L 388.056703 367.268068 
L 391.113713 367.37175 
L 391.877966 367.691944 
L 392.642219 367.496778 
L 393.406471 367.124744 
L 396.463482 366.969221 
L 397.227735 366.700868 
L 397.991988 366.807599 
L 398.75624 367.057655 
L 400.284746 367.057655 
L 401.048998 366.630731 
L 401.813251 366.774055 
L 403.341757 366.801501 
L 404.106009 367.362602 
L 405.634515 367.82917 
L 406.398767 367.710241 
L 407.927273 366.630731 
L 408.691525 366.822847 
L 409.455778 366.703918 
L 410.220031 366.755759 
L 411.748536 366.719165 
L 412.512789 366.835045 
L 415.5698 366.496554 
L 416.334052 366.652077 
L 417.098305 366.935677 
L 417.862558 366.810649 
L 418.62681 367.698043 
L 419.391063 367.527273 
L 420.919569 366.957023 
L 421.683821 366.374576 
L 422.448074 366.673423 
L 423.976579 366.371526 
L 424.740832 366.551445 
L 426.269337 366.35018 
L 427.797843 366.661225 
L 429.326348 366.261746 
L 430.090601 366.438614 
L 430.854854 366.97227 
L 431.619106 366.685621 
L 432.383359 367.42664 
L 433.147612 367.694993 
L 434.676117 367.173535 
L 435.44037 366.539247 
L 436.204622 366.286141 
L 436.968875 366.584989 
L 438.497381 366.554494 
L 439.261633 366.505703 
L 440.025886 366.29224 
L 441.554391 366.200756 
L 442.318644 366.337982 
L 443.847149 366.298339 
L 444.611402 366.481307 
L 446.139908 367.533372 
L 446.90416 367.277217 
L 447.668413 367.649251 
L 448.432666 367.301612 
L 449.196918 366.316636 
L 449.961171 366.188558 
L 455.31094 366.228201 
L 457.603698 366.130619 
L 459.132203 366.600236 
L 459.896456 366.566692 
L 460.660709 366.673423 
L 461.424961 366.896034 
L 463.71772 365.908008 
L 464.481972 366.283092 
L 465.246225 366.103173 
L 466.010478 366.106223 
L 466.77473 365.978146 
L 468.303236 365.984244 
L 469.067488 366.12147 
L 471.360247 366.039135 
L 472.124499 366.118421 
L 472.888752 366.356279 
L 473.653005 366.716116 
L 474.417257 366.771006 
L 475.18151 366.990567 
L 475.945763 366.569741 
L 476.710015 365.847019 
L 477.474268 365.984244 
L 478.238521 365.83787 
L 479.002773 365.9507 
L 479.767026 365.801277 
L 480.531279 366.020838 
L 481.295532 365.813475 
L 484.352542 365.822623 
L 485.116795 365.978146 
L 485.881048 365.764683 
L 488.938059 367.082051 
L 490.466564 365.758584 
L 491.995069 365.600012 
L 493.523575 365.868365 
L 494.287827 365.621358 
L 495.05208 365.886662 
L 495.816333 365.792128 
L 496.580586 365.55732 
L 497.344838 365.822623 
L 498.109091 365.834821 
L 498.109091 365.834821 
" clip-path="url(#pe6393567fe)" style="fill: none; stroke: #008000; stroke-width: 1.5; stroke-linecap: square"/>
   </g>
   <g id="line2d_41">
    <path d="M 92.290909 337.081434 
L 93.055162 338.224983 
L 93.819414 336.669756 
L 94.583667 336.48069 
L 95.34792 335.79761 
L 96.112173 335.5689 
L 96.876425 335.462169 
L 97.640678 334.498539 
L 99.933436 332.455399 
L 101.461941 330.34517 
L 102.226194 328.732004 
L 102.990447 328.314228 
L 106.047458 322.764205 
L 107.575963 320.254497 
L 109.104468 317.415447 
L 110.632974 313.673756 
L 111.397227 312.249657 
L 113.689985 306.403836 
L 115.21849 302.555414 
L 115.982743 300.155486 
L 116.746995 299.929826 
L 117.511248 298.722239 
L 118.275501 297.798251 
L 119.039753 294.016917 
L 119.804006 289.491514 
L 121.332512 285.377789 
L 122.861017 280.462054 
L 124.389522 275.250522 
L 125.153775 273.460487 
L 126.68228 267.020021 
L 127.446533 264.623143 
L 128.975039 260.844859 
L 129.739291 257.31663 
L 130.503544 257.902127 
L 131.267797 257.249542 
L 132.032049 255.154561 
L 133.560555 247.289995 
L 134.324807 238.370316 
L 136.617565 228.685222 
L 142.731587 202.880666 
L 143.49584 204.740838 
L 144.260092 207.061479 
L 145.024345 208.549617 
L 146.552851 205.530649 
L 147.317103 201.426072 
L 148.081356 193.753623 
L 148.845609 189.447781 
L 149.609861 186.120817 
L 151.138367 174.654836 
L 151.902619 160.511426 
L 152.666872 154.799782 
L 153.431125 150.457347 
L 154.195378 148.658164 
L 156.488136 136.704269 
L 157.252388 137.860015 
L 158.016641 142.821491 
L 158.780894 144.19375 
L 159.545146 146.322275 
L 160.309399 143.760726 
L 161.837904 137.097649 
L 162.602157 129.291024 
L 163.36641 118.047654 
L 164.130663 102.800339 
L 164.894915 100.644368 
L 165.659168 99.192824 
L 166.423421 96.616028 
L 167.187673 94.594234 
L 167.951926 91.282517 
L 168.716179 88.940529 
L 170.244684 89.196684 
L 171.77319 99.967388 
L 172.537442 99.67159 
L 174.065948 108.880968 
L 174.8302 104.873974 
L 175.594453 95.542617 
L 176.358706 77.489796 
L 177.122958 78.029551 
L 177.887211 78.852906 
L 178.651464 78.953538 
L 179.415716 79.648816 
L 180.179969 71.759855 
L 180.944222 82.926988 
L 181.708475 76.367593 
L 182.472727 86.89129 
L 183.23698 92.74321 
L 184.001233 104.023173 
L 184.765485 110.420947 
L 185.529738 120.081646 
L 186.293991 131.18779 
L 187.058243 129.727097 
L 187.822496 126.888047 
L 188.586749 126.842305 
L 189.351002 126.671535 
L 190.115254 124.122184 
L 190.879507 111.619386 
L 191.64376 96.497099 
L 192.408012 106.014473 
L 193.172265 104.691006 
L 193.936518 104.89532 
L 194.70077 107.90209 
L 195.465023 109.872044 
L 196.229276 112.418345 
L 196.993529 119.386368 
L 197.757781 118.742931 
L 198.522034 122.737728 
L 199.286287 138.363177 
L 200.050539 139.116394 
L 200.814792 152.753592 
L 201.579045 150.585424 
L 202.343297 149.990779 
L 203.10755 145.995982 
L 203.871803 137.414794 
L 204.636055 138.985267 
L 205.400308 140.012936 
L 206.164561 144.144958 
L 206.928814 146.569282 
L 207.693066 148.161101 
L 208.457319 150.015175 
L 209.221572 152.213838 
L 209.985824 156.065309 
L 210.750077 157.718118 
L 211.51433 159.733813 
L 213.042835 174.910991 
L 213.807088 178.640484 
L 214.571341 183.568416 
L 215.335593 187.078348 
L 216.099846 185.190731 
L 216.864099 176.850449 
L 217.628351 174.810358 
L 218.392604 176.944983 
L 219.156857 178.408725 
L 220.685362 182.668825 
L 221.449615 186.245845 
L 222.213867 185.199879 
L 222.97812 188.194452 
L 223.742373 189.871656 
L 224.506626 192.091665 
L 225.270878 196.232836 
L 226.035131 201.20956 
L 226.799384 204.640206 
L 227.563636 210.278663 
L 228.327889 212.455979 
L 229.092142 212.828014 
L 229.856394 212.157132 
L 230.620647 209.525445 
L 231.3849 212.651145 
L 232.149153 213.346423 
L 232.913405 216.70998 
L 233.677658 218.942187 
L 234.441911 222.686928 
L 235.206163 223.565173 
L 235.970416 226.270047 
L 236.734669 228.471759 
L 237.498921 231.423639 
L 238.263174 236.998058 
L 239.027427 238.06232 
L 239.79168 245.356636 
L 240.555932 247.854146 
L 242.084438 253.812797 
L 242.84869 253.16936 
L 243.612943 251.870289 
L 245.905701 259.713508 
L 247.434206 264.806111 
L 249.726965 272.984771 
L 250.491217 275.268819 
L 251.25547 278.04383 
L 252.783975 286.884223 
L 253.548228 289.656185 
L 254.312481 294.221231 
L 255.840986 300.981891 
L 256.605239 301.969917 
L 257.369492 300.893456 
L 258.133744 300.161585 
L 259.66225 304.342399 
L 260.426502 306.864305 
L 261.190755 308.584202 
L 261.955008 311.1488 
L 262.71926 312.886994 
L 263.483513 315.479038 
L 264.247766 316.381679 
L 265.776271 320.800351 
L 267.304777 325.838064 
L 268.069029 329.021703 
L 268.833282 331.037398 
L 269.597535 332.208392 
L 270.361787 333.056143 
L 271.12604 330.982508 
L 271.890293 332.507239 
L 272.654545 333.351941 
L 274.183051 335.992776 
L 274.947304 336.996049 
L 275.711556 338.188389 
L 276.475809 339.048338 
L 277.240062 340.28642 
L 278.768567 342.003267 
L 279.53282 342.646704 
L 280.297072 344.421491 
L 281.061325 344.845367 
L 281.825578 346.894606 
L 283.354083 348.773075 
L 284.118336 347.870434 
L 284.882589 347.272739 
L 285.646841 347.864335 
L 286.411094 348.696839 
L 287.175347 349.248791 
L 288.703852 350.093493 
L 289.468105 350.682039 
L 290.232357 350.892452 
L 290.99661 351.313278 
L 291.760863 351.865231 
L 292.525116 352.133583 
L 293.289368 352.55136 
L 294.053621 353.850431 
L 294.817874 353.908371 
L 295.582126 355.326371 
L 296.346379 356.408931 
L 297.874884 356.875498 
L 298.639137 356.515662 
L 300.167643 357.20789 
L 300.931895 357.927563 
L 302.460401 358.677731 
L 303.224653 359.437047 
L 304.753159 360.025594 
L 307.045917 361.403951 
L 308.574422 362.980523 
L 309.338675 363.413547 
L 310.102928 364.157616 
L 310.86718 364.523552 
L 311.631433 363.483685 
L 313.159938 363.995995 
L 313.924191 364.005143 
L 314.688444 364.483909 
L 315.452696 364.691272 
L 316.981202 364.919982 
L 317.745455 365.288967 
L 318.509707 365.316412 
L 320.038213 365.661001 
L 320.802465 365.630507 
L 321.566718 366.270894 
L 322.330971 367.103397 
L 323.859476 367.603509 
L 324.623729 367.182683 
L 326.152234 366.679522 
L 326.916487 366.609384 
L 328.444992 367.024111 
L 329.973498 366.774055 
L 330.73775 367.237574 
L 331.502003 367.344305 
L 332.266256 367.304662 
L 333.030508 367.139991 
L 334.559014 367.984692 
L 335.323267 368.05178 
L 336.087519 368.314034 
L 336.851772 368.954421 
L 337.616025 368.707415 
L 338.380277 368.243897 
L 339.14453 367.932851 
L 339.908783 367.438838 
L 341.437288 367.478481 
L 342.201541 367.338206 
L 342.965794 367.496778 
L 343.730046 367.368701 
L 344.494299 367.71329 
L 345.258552 367.451036 
L 346.787057 367.731587 
L 347.55131 367.560817 
L 348.315562 367.731587 
L 349.079815 368.045681 
L 349.844068 368.61898 
L 350.60832 368.664722 
L 351.372573 368.856839 
L 354.429584 367.3748 
L 355.193837 367.783428 
L 357.486595 367.606559 
L 358.250847 367.789527 
L 359.0151 367.734636 
L 359.779353 367.820021 
L 361.307858 367.679746 
L 362.072111 367.786477 
L 362.836364 368.161561 
L 364.364869 369.326456 
L 365.129122 369.36 
L 365.893374 368.978817 
L 366.657627 368.106671 
L 367.42188 367.472382 
L 368.186133 367.740735 
L 368.950385 367.816972 
L 369.714638 367.54252 
L 370.478891 367.393096 
L 371.243143 367.682795 
L 372.007396 367.283316 
L 374.300154 367.673647 
L 375.064407 367.573015 
L 375.828659 367.932851 
L 377.357165 368.344529 
L 378.121418 369.030658 
L 378.88567 369.170933 
L 380.414176 369.085548 
L 381.178428 367.493729 
L 383.471186 367.414443 
L 384.999692 367.396146 
L 385.763945 367.109496 
L 386.528197 367.359552 
L 388.056703 367.25892 
L 388.820955 367.411393 
L 389.585208 367.393096 
L 390.349461 367.798675 
L 391.113713 368.442112 
L 391.877966 368.561041 
L 392.642219 368.832443 
L 394.170724 367.069853 
L 394.934977 367.243673 
L 395.69923 367.246722 
L 396.463482 366.981419 
L 397.991988 367.164387 
L 398.75624 367.063754 
L 399.520493 367.228425 
L 401.048998 367.042408 
L 401.813251 367.197931 
L 402.577504 366.987518 
L 404.106009 367.743785 
L 404.870262 368.002989 
L 406.398767 368.670821 
L 408.691525 367.14609 
L 410.984284 366.889935 
L 412.512789 366.953974 
L 414.041294 366.856391 
L 415.5698 367.188782 
L 416.334052 366.758808 
L 417.862558 367.749884 
L 418.62681 368.399419 
L 419.391063 368.62203 
L 420.919569 368.353677 
L 421.683821 367.911505 
L 422.448074 366.880787 
L 423.212327 366.743561 
L 424.740832 366.935677 
L 425.505085 366.621582 
L 426.269337 366.91738 
L 427.03359 366.481307 
L 427.797843 366.838094 
L 429.326348 366.697819 
L 430.090601 366.697819 
L 430.854854 367.475432 
L 431.619106 367.515075 
L 432.383359 368.121918 
L 433.147612 368.387221 
L 433.911864 368.5092 
L 434.676117 368.515299 
L 435.44037 368.256094 
L 436.204622 366.996666 
L 436.968875 366.63378 
L 437.733128 366.728313 
L 438.497381 366.551445 
L 439.261633 366.728313 
L 440.025886 366.670374 
L 440.790139 366.423367 
L 441.554391 366.673423 
L 442.318644 366.767956 
L 443.082897 366.655126 
L 443.847149 366.737462 
L 444.611402 366.97227 
L 446.90416 368.22255 
L 447.668413 368.356727 
L 448.432666 368.063978 
L 449.196918 367.136941 
L 449.961171 366.594137 
L 450.725424 366.490455 
L 451.489676 366.527049 
L 452.253929 366.374576 
L 453.018182 366.472159 
L 455.31094 366.40507 
L 456.075193 366.496554 
L 457.603698 366.368477 
L 459.132203 367.243673 
L 459.896456 367.344305 
L 460.660709 367.652301 
L 461.424961 368.173759 
L 462.953467 367.582163 
L 463.71772 366.280042 
L 464.481972 366.493505 
L 465.246225 366.40507 
L 466.010478 365.975096 
L 466.77473 366.206855 
L 469.067488 366.40812 
L 470.595994 366.090976 
L 472.888752 366.841144 
L 473.653005 367.640103 
L 475.18151 367.914555 
L 475.945763 368.088374 
L 476.710015 367.292464 
L 478.238521 366.206855 
L 479.002773 366.411169 
L 479.767026 366.005591 
L 480.531279 366.151965 
L 482.824037 366.148915 
L 483.58829 366.139767 
L 484.352542 366.344081 
L 485.116795 366.276993 
L 485.881048 366.420318 
L 486.6453 366.682571 
L 487.409553 367.164387 
L 488.173806 367.798675 
L 488.938059 368.213402 
L 489.702311 367.972494 
L 490.466564 367.255871 
L 491.230817 367.347354 
L 491.995069 366.591088 
L 492.759322 366.06658 
L 493.523575 366.246498 
L 494.287827 365.843969 
L 496.580586 365.938502 
L 498.109091 365.856167 
L 498.109091 365.856167 
" clip-path="url(#pe6393567fe)" style="fill: none; stroke: #008000; stroke-width: 1.5; stroke-linecap: square"/>
   </g>
   <g id="line2d_42">
    <path d="M 92.290909 338.615314 
L 93.055162 341.19516 
L 93.819414 339.615538 
L 94.583667 339.267899 
L 95.34792 338.075559 
L 96.112173 337.816355 
L 96.876425 337.288797 
L 97.640678 336.959455 
L 99.169183 335.696978 
L 99.933436 334.678457 
L 100.697689 333.8673 
L 102.226194 331.31185 
L 102.990447 330.647067 
L 103.7547 329.274809 
L 104.518952 328.271535 
L 105.283205 326.524193 
L 106.047458 325.124489 
L 106.81171 324.362124 
L 108.340216 321.038209 
L 109.104468 319.78488 
L 109.868721 317.903361 
L 111.397227 314.829502 
L 112.925732 311.231136 
L 113.689985 308.876951 
L 116.746995 301.744257 
L 117.511248 299.268093 
L 118.275501 298.011714 
L 119.039753 295.175713 
L 120.568259 291.007097 
L 121.332512 288.030821 
L 125.918028 274.219803 
L 127.446533 268.10563 
L 128.210786 265.858176 
L 129.739291 260.506368 
L 130.503544 262.915444 
L 132.032049 258.258914 
L 132.796302 252.428341 
L 133.560555 244.975453 
L 134.324807 242.843878 
L 137.381818 230.103222 
L 138.146071 227.355656 
L 138.910324 223.592618 
L 139.674576 220.845052 
L 140.438829 216.816712 
L 141.967334 210.208525 
L 142.731587 207.543295 
L 143.49584 208.714288 
L 144.260092 211.992461 
L 145.024345 213.108565 
L 145.788598 211.54419 
L 146.552851 209.680968 
L 147.317103 205.332434 
L 148.081356 190.444955 
L 148.845609 185.047406 
L 150.374114 176.271051 
L 151.138367 167.991759 
L 151.902619 163.530395 
L 152.666872 159.919831 
L 153.431125 157.105176 
L 154.195378 153.741619 
L 154.95963 149.807811 
L 155.723883 145.236666 
L 156.488136 142.287835 
L 157.252388 145.349496 
L 158.016641 147.468873 
L 159.545146 148.73745 
L 160.309399 144.745703 
L 161.073652 139.576863 
L 161.837904 131.218285 
L 162.602157 117.032183 
L 163.36641 110.527678 
L 164.894915 102.67836 
L 165.659168 100.836485 
L 166.423421 98.424359 
L 167.951926 92.325433 
L 168.716179 89.300366 
L 169.480431 88.794155 
L 170.244684 93.072552 
L 171.008937 93.871511 
L 171.77319 97.372295 
L 172.537442 98.470101 
L 173.301695 102.016627 
L 174.065948 100.226592 
L 174.8302 82.490915 
L 175.594453 80.8747 
L 176.358706 78.688235 
L 177.122958 76.916497 
L 177.887211 76.904299 
L 178.651464 78.688235 
L 179.415716 77.40746 
L 180.179969 78.450377 
L 180.944222 82.899543 
L 181.708475 79.145654 
L 182.472727 90.995867 
L 183.23698 95.304759 
L 184.001233 100.894424 
L 184.765485 113.049584 
L 185.529738 121.783246 
L 186.293991 123.454352 
L 187.058243 126.455023 
L 187.822496 126.677634 
L 188.586749 127.104559 
L 189.351002 121.64602 
L 190.879507 98.521942 
L 191.64376 101.150579 
L 192.408012 101.88245 
L 193.172265 102.855229 
L 194.70077 110.256276 
L 195.465023 110.948504 
L 196.229276 111.99142 
L 196.993529 115.702617 
L 197.757781 121.289233 
L 198.522034 123.192098 
L 199.286287 132.252053 
L 200.050539 138.280841 
L 200.814792 141.549865 
L 201.579045 145.874004 
L 202.343297 142.88858 
L 203.10755 133.865219 
L 203.871803 135.514978 
L 204.636055 140.580136 
L 205.400308 141.275414 
L 206.164561 141.315057 
L 206.928814 145.218369 
L 207.693066 145.934993 
L 208.457319 150.067016 
L 209.985824 155.973825 
L 211.51433 166.198675 
L 212.278582 169.287781 
L 213.042835 176.182617 
L 213.807088 179.265624 
L 214.571341 184.650976 
L 215.335593 186.270241 
L 216.099846 178.103779 
L 216.864099 172.98373 
L 218.392604 175.505636 
L 219.921109 180.659229 
L 220.685362 181.775332 
L 221.449615 185.087049 
L 222.213867 185.98664 
L 222.97812 188.981213 
L 223.742373 190.085119 
L 224.506626 192.725954 
L 225.270878 194.607472 
L 226.035131 204.835371 
L 227.563636 212.754827 
L 228.327889 212.520018 
L 229.092142 211.99856 
L 229.856394 209.068026 
L 230.620647 210.604955 
L 231.3849 212.834113 
L 232.149153 214.432031 
L 233.677658 220.058291 
L 234.441911 222.000799 
L 235.206163 224.803255 
L 237.498921 232.027433 
L 238.263174 236.741903 
L 239.027427 237.897649 
L 239.79168 244.59427 
L 240.555932 247.930383 
L 241.320185 248.573819 
L 242.084438 248.460989 
L 242.84869 248.958052 
L 247.434206 264.705479 
L 248.198459 266.51686 
L 248.962712 269.618164 
L 252.019723 279.986338 
L 252.783975 286.027324 
L 253.548228 289.180469 
L 254.312481 293.513756 
L 255.840986 298.661249 
L 256.605239 297.29509 
L 257.369492 295.215356 
L 258.897997 300.338454 
L 261.190755 306.528864 
L 266.540524 320.684471 
L 267.304777 324.115117 
L 268.833282 329.448628 
L 269.597535 330.592177 
L 270.361787 330.805639 
L 271.12604 329.116237 
L 271.890293 330.866628 
L 277.240062 339.164217 
L 278.768567 341.167714 
L 279.53282 341.789805 
L 280.297072 343.653027 
L 281.061325 345.019186 
L 281.825578 347.031832 
L 282.589831 347.586834 
L 283.354083 348.468129 
L 284.118336 346.620154 
L 285.646841 347.888731 
L 286.411094 348.373596 
L 287.175347 349.108516 
L 287.939599 349.352473 
L 289.468105 350.797919 
L 290.232357 351.24314 
L 290.99661 351.380366 
L 291.760863 351.92317 
L 292.525116 352.761773 
L 293.289368 353.051472 
L 294.053621 354.0273 
L 294.817874 354.338345 
L 295.582126 355.579477 
L 296.346379 356.543107 
L 297.110632 356.774866 
L 297.874884 356.460771 
L 298.639137 356.537008 
L 301.696148 358.659434 
L 303.224653 359.388256 
L 303.988906 360.107929 
L 304.753159 360.236007 
L 306.281664 361.449693 
L 307.045917 361.821727 
L 307.810169 362.538351 
L 308.574422 362.803655 
L 309.338675 362.88599 
L 310.102928 363.904511 
L 310.86718 363.526377 
L 311.631433 363.465388 
L 312.395686 363.730691 
L 313.159938 364.374128 
L 313.924191 364.221655 
L 316.981202 365.298115 
L 318.509707 365.761634 
L 319.27396 365.761634 
L 320.038213 365.874464 
L 320.802465 366.145866 
L 321.566718 366.551445 
L 322.330971 367.609608 
L 323.095223 367.789527 
L 323.859476 368.231699 
L 324.623729 367.835268 
L 325.387982 367.71329 
L 326.152234 366.868589 
L 328.444992 367.332107 
L 329.973498 367.121694 
L 330.73775 367.335157 
L 331.502003 367.326008 
L 332.266256 367.505926 
L 333.030508 367.368701 
L 335.323267 368.576288 
L 336.851772 368.801948 
L 337.616025 368.05483 
L 338.380277 367.664499 
L 339.14453 367.508976 
L 339.908783 367.752933 
L 340.673035 367.524223 
L 342.201541 367.746834 
L 342.965794 367.60046 
L 343.730046 367.594361 
L 344.494299 367.841367 
L 345.258552 367.679746 
L 346.022804 367.887109 
L 346.787057 367.731587 
L 347.55131 367.804774 
L 348.315562 368.070077 
L 349.079815 368.179858 
L 349.844068 369.137389 
L 350.60832 369.012361 
L 351.372573 368.625079 
L 352.136826 368.097522 
L 352.901079 367.865763 
L 353.665331 367.777329 
L 354.429584 367.88406 
L 355.958089 367.801724 
L 356.722342 367.93895 
L 357.486595 367.749884 
L 358.250847 367.902357 
L 359.0151 367.707191 
L 359.779353 367.987742 
L 362.072111 367.807823 
L 364.364869 369.341703 
L 366.657627 367.795625 
L 368.186133 367.667548 
L 368.950385 367.536421 
L 369.714638 367.890159 
L 371.243143 367.762081 
L 372.771649 367.731587 
L 375.064407 367.762081 
L 375.828659 368.079226 
L 376.592912 368.640327 
L 377.357165 368.253045 
L 378.121418 368.853789 
L 378.88567 369.015411 
L 379.649923 368.841591 
L 380.414176 368.39332 
L 381.178428 367.59741 
L 381.942681 367.594361 
L 382.706934 367.380899 
L 383.471186 367.411393 
L 384.235439 367.566916 
L 384.999692 367.48763 
L 385.763945 367.609608 
L 387.29245 367.283316 
L 388.056703 367.457135 
L 388.820955 367.304662 
L 389.585208 367.603509 
L 390.349461 368.2256 
L 391.113713 368.615931 
L 391.877966 368.725712 
L 392.642219 368.497002 
L 393.406471 367.972494 
L 394.170724 367.179634 
L 394.934977 367.338206 
L 395.69923 367.249772 
L 396.463482 367.402245 
L 397.227735 367.136941 
L 397.991988 367.103397 
L 398.75624 367.249772 
L 401.813251 367.118645 
L 402.577504 367.353453 
L 403.341757 367.139991 
L 404.106009 367.685845 
L 404.870262 367.746834 
L 405.634515 368.85074 
L 406.398767 369.055054 
L 407.16302 368.954421 
L 407.927273 368.512249 
L 408.691525 366.984468 
L 413.277042 367.130843 
L 414.041294 366.886885 
L 414.805547 366.929578 
L 415.5698 366.847242 
L 416.334052 367.121694 
L 417.098305 367.094249 
L 417.862558 367.447987 
L 418.62681 368.487854 
L 420.155316 368.603733 
L 420.919569 368.131066 
L 421.683821 367.231475 
L 423.212327 366.700868 
L 423.976579 366.743561 
L 424.740832 366.987518 
L 425.505085 366.777105 
L 426.269337 366.74966 
L 427.03359 366.841144 
L 427.797843 366.740511 
L 428.562096 366.816748 
L 429.326348 366.777105 
L 430.090601 367.018012 
L 430.854854 367.670597 
L 431.619106 367.82917 
L 433.147612 368.78975 
L 433.911864 368.975768 
L 434.676117 368.487854 
L 435.44037 368.341479 
L 436.204622 366.667324 
L 436.968875 366.606335 
L 437.733128 366.728313 
L 439.261633 366.700868 
L 440.025886 366.716116 
L 441.554391 366.52095 
L 442.318644 366.725264 
L 443.082897 366.398971 
L 444.611402 366.969221 
L 446.139908 368.189006 
L 446.90416 368.262193 
L 447.668413 368.698267 
L 448.432666 368.271342 
L 449.196918 366.612434 
L 449.961171 366.710017 
L 453.018182 366.514851 
L 453.782435 366.645978 
L 454.546687 366.423367 
L 455.31094 366.545346 
L 456.839445 366.539247 
L 458.367951 366.777105 
L 459.132203 367.225376 
L 459.896456 366.758808 
L 460.660709 367.698043 
L 461.424961 367.975544 
L 462.953467 366.447763 
L 464.481972 366.420318 
L 465.246225 366.569741 
L 466.010478 366.35018 
L 467.538983 366.286141 
L 468.303236 366.289191 
L 469.067488 366.423367 
L 470.595994 366.206855 
L 471.360247 366.469109 
L 472.124499 366.554494 
L 472.888752 367.149139 
L 473.653005 367.466283 
L 474.417257 368.039583 
L 475.18151 368.121918 
L 475.945763 368.006038 
L 476.710015 366.886885 
L 477.474268 366.289191 
L 478.238521 366.094025 
L 479.002773 366.161113 
L 479.767026 366.094025 
L 480.531279 365.883612 
L 481.295532 366.023887 
L 482.059784 366.337982 
L 482.824037 366.170262 
L 483.58829 366.264795 
L 484.352542 366.12147 
L 485.116795 366.46301 
L 485.881048 366.963122 
L 486.6453 366.780154 
L 487.409553 367.444937 
L 488.173806 367.82917 
L 488.938059 368.387221 
L 489.702311 367.99689 
L 490.466564 366.566692 
L 491.230817 366.484356 
L 491.995069 366.106223 
L 492.759322 366.057432 
L 493.523575 366.29529 
L 494.287827 365.972047 
L 495.05208 365.822623 
L 495.816333 365.883612 
L 496.580586 366.18246 
L 497.344838 366.023887 
L 498.109091 366.078778 
L 498.109091 366.078778 
" clip-path="url(#pe6393567fe)" style="fill: none; stroke: #008000; stroke-width: 1.5; stroke-linecap: square"/>
   </g>
   <g id="line2d_43">
    <path d="M 92.290909 336.181842 
L 93.055162 338.109103 
L 93.819414 336.59352 
L 95.34792 335.529257 
L 96.112173 334.641864 
L 96.876425 334.986453 
L 97.640678 333.821558 
L 98.404931 332.970758 
L 99.933436 331.625945 
L 104.518952 324.737208 
L 105.283205 322.999014 
L 106.81171 320.766807 
L 107.575963 319.037761 
L 109.104468 316.592092 
L 109.868721 314.10373 
L 110.632974 312.234409 
L 111.397227 311.508637 
L 112.161479 309.175798 
L 112.925732 307.504692 
L 113.689985 305.153556 
L 115.21849 301.335628 
L 115.982743 299.027185 
L 118.275501 293.306392 
L 121.332512 283.694485 
L 122.861017 279.251417 
L 123.62527 276.45506 
L 125.918028 269.605966 
L 127.446533 263.943113 
L 128.975039 258.79257 
L 129.739291 254.953296 
L 130.503544 252.617407 
L 132.032049 246.600817 
L 132.796302 244.08501 
L 133.560555 240.038372 
L 135.08906 234.311481 
L 135.853313 230.987566 
L 136.617565 227.078155 
L 137.381818 225.00147 
L 141.203082 208.613656 
L 142.731587 201.066235 
L 143.49584 196.592673 
L 145.788598 186.803897 
L 146.552851 182.626132 
L 147.317103 179.268673 
L 148.081356 174.026646 
L 148.845609 170.455725 
L 149.609861 168.78157 
L 150.374114 165.299083 
L 151.138367 160.438239 
L 151.902619 157.699822 
L 153.431125 150.137153 
L 154.195378 147.112086 
L 155.723883 138.918179 
L 158.016641 126.939888 
L 158.780894 123.524489 
L 159.545146 120.673242 
L 161.073652 112.287218 
L 161.837904 109.963527 
L 162.602157 106.453596 
L 163.36641 103.577952 
L 164.130663 98.93057 
L 164.894915 95.371847 
L 166.423421 89.980396 
L 167.187673 87.330413 
L 168.716179 81.066816 
L 169.480431 79.343869 
L 170.244684 77.026277 
L 171.008937 77.556884 
L 172.537442 73.644423 
L 173.301695 72.110543 
L 174.065948 70.265618 
L 174.8302 71.711063 
L 175.594453 72.784474 
L 176.358706 70.186332 
L 177.122958 70.174134 
L 177.887211 69.875287 
L 178.651464 73.101619 
L 179.415716 69.597786 
L 180.179969 73.537692 
L 180.944222 71.052379 
L 181.708475 73.684066 
L 182.472727 79.813487 
L 183.23698 75.910174 
L 184.001233 75.068522 
L 184.765485 76.331 
L 185.529738 79.462798 
L 186.293991 82.094485 
L 187.822496 83.762541 
L 188.586749 84.003449 
L 189.351002 87.675002 
L 190.115254 88.781957 
L 190.879507 91.54782 
L 191.64376 95.820118 
L 192.408012 96.673968 
L 193.172265 103.76092 
L 193.936518 107.883794 
L 194.70077 108.987699 
L 195.465023 108.847424 
L 196.229276 112.985545 
L 196.993529 113.089227 
L 198.522034 118.645349 
L 200.050539 123.619023 
L 200.814792 124.823561 
L 201.579045 128.97083 
L 202.343297 131.184741 
L 203.10755 131.886117 
L 204.636055 138.314385 
L 205.400308 139.506725 
L 206.164561 142.983113 
L 206.928814 145.178726 
L 207.693066 146.898624 
L 208.457319 149.386985 
L 209.221572 151.46367 
L 211.51433 159.151366 
L 212.278582 161.508601 
L 213.042835 162.277065 
L 214.571341 166.933596 
L 215.335593 168.83951 
L 216.099846 171.465098 
L 218.392604 177.249929 
L 219.921109 182.723715 
L 220.685362 184.507651 
L 221.449615 187.221673 
L 222.213867 188.252391 
L 222.97812 191.423833 
L 223.742373 193.055296 
L 225.270878 196.793937 
L 226.035131 199.867796 
L 226.799384 201.935332 
L 227.563636 205.091526 
L 228.327889 207.445712 
L 229.092142 209.025334 
L 229.856394 211.004435 
L 234.441911 225.318614 
L 235.206163 227.27332 
L 235.970416 230.05443 
L 236.734669 232.201252 
L 238.263174 238.132458 
L 239.027427 240.032273 
L 241.320185 247.747415 
L 242.084438 249.753962 
L 242.84869 252.870513 
L 243.612943 255.218599 
L 245.141448 260.881452 
L 245.905701 262.942889 
L 247.434206 268.569148 
L 248.198459 270.749514 
L 249.726965 276.269043 
L 251.25547 280.907276 
L 252.019723 284.060421 
L 252.783975 285.548558 
L 253.548228 288.296125 
L 254.312481 290.235583 
L 255.076733 292.812379 
L 255.840986 295.822199 
L 256.605239 297.279843 
L 261.190755 310.545007 
L 261.955008 311.981304 
L 262.71926 313.945158 
L 263.483513 316.399976 
L 264.247766 318.116823 
L 267.304777 323.990089 
L 268.069029 326.060675 
L 269.597535 329.161979 
L 270.361787 329.689536 
L 271.890293 332.763394 
L 273.418798 334.898018 
L 274.183051 336.636212 
L 274.947304 337.395529 
L 275.711556 338.658006 
L 278.768567 342.738188 
L 279.53282 343.262696 
L 280.297072 343.924429 
L 281.061325 344.994791 
L 284.118336 347.461806 
L 284.882589 347.849088 
L 285.646841 348.532168 
L 286.411094 348.895054 
L 287.175347 349.721458 
L 287.939599 350.355746 
L 288.703852 350.712534 
L 289.468105 351.346822 
L 290.232357 351.459652 
L 290.99661 352.130534 
L 292.525116 353.014878 
L 294.817874 353.850431 
L 295.582126 354.335296 
L 296.346379 354.573154 
L 297.874884 355.588625 
L 298.639137 355.372113 
L 300.931895 356.726075 
L 301.696148 357.049318 
L 303.224653 358.110531 
L 303.988906 358.256905 
L 304.753159 358.924738 
L 305.517411 359.049766 
L 306.281664 359.662708 
L 307.045917 359.955456 
L 307.810169 360.098781 
L 308.574422 360.492162 
L 309.338675 361.031917 
L 310.86718 361.714996 
L 311.631433 361.894915 
L 316.216949 363.822175 
L 317.745455 364.239952 
L 318.509707 364.30399 
L 319.27396 364.791904 
L 321.566718 364.962674 
L 326.152234 365.990343 
L 326.916487 366.039135 
L 327.68074 366.438614 
L 329.973498 366.337982 
L 332.266256 366.877737 
L 333.030508 366.716116 
L 334.559014 366.731363 
L 335.323267 366.929578 
L 336.087519 366.932627 
L 336.851772 367.057655 
L 338.380277 366.871638 
L 339.908783 367.347354 
L 341.437288 367.149139 
L 342.965794 367.20098 
L 343.730046 367.20098 
L 344.494299 367.478481 
L 345.258552 367.326008 
L 346.022804 367.505926 
L 347.55131 367.405294 
L 349.844068 367.521174 
L 350.60832 367.277217 
L 351.372573 367.472382 
L 352.136826 367.524223 
L 352.901079 367.402245 
L 353.665331 367.588262 
L 354.429584 367.54557 
L 355.193837 367.277217 
L 356.722342 367.554718 
L 357.486595 367.508976 
L 358.250847 367.707191 
L 359.0151 367.512025 
L 359.779353 367.496778 
L 360.543606 367.673647 
L 361.307858 367.719389 
L 362.072111 367.298563 
L 362.836364 367.234524 
L 363.600616 367.728537 
L 365.129122 367.435789 
L 365.893374 367.664499 
L 367.42188 367.447987 
L 368.950385 367.447987 
L 371.243143 367.441888 
L 372.771649 367.490679 
L 373.535901 367.359552 
L 375.064407 367.71329 
L 376.592912 367.298563 
L 378.121418 367.277217 
L 379.649923 367.139991 
L 380.414176 367.417492 
L 381.178428 367.139991 
L 381.942681 367.512025 
L 382.706934 367.231475 
L 383.471186 367.20098 
L 384.999692 367.499828 
L 385.763945 367.121694 
L 386.528197 367.289415 
L 387.29245 367.085101 
L 388.056703 367.155238 
L 388.820955 367.112546 
L 389.585208 367.261969 
L 390.349461 366.969221 
L 391.113713 367.197931 
L 391.877966 366.911281 
L 392.642219 367.115595 
L 393.406471 366.926529 
L 394.934977 366.97227 
L 395.69923 366.795402 
L 396.463482 366.923479 
L 397.991988 366.831995 
L 398.75624 367.130843 
L 399.520493 366.969221 
L 400.284746 367.005815 
L 401.048998 366.813698 
L 401.813251 366.786253 
L 402.577504 366.984468 
L 403.341757 366.774055 
L 404.870262 366.902133 
L 405.634515 366.963122 
L 406.398767 366.774055 
L 407.16302 366.886885 
L 408.691525 366.652077 
L 410.220031 367.051556 
L 410.984284 366.545346 
L 411.748536 366.755759 
L 412.512789 366.783204 
L 413.277042 366.938726 
L 414.041294 366.792352 
L 414.805547 366.813698 
L 416.334052 366.475208 
L 417.098305 366.828946 
L 417.862558 366.645978 
L 418.62681 366.758808 
L 419.391063 366.63378 
L 420.155316 366.658176 
L 420.919569 366.807599 
L 421.683821 366.761858 
L 422.448074 366.450812 
L 423.212327 366.777105 
L 423.976579 366.581939 
L 424.740832 366.600236 
L 425.505085 366.353229 
L 427.03359 366.621582 
L 427.797843 366.652077 
L 428.562096 366.46301 
L 429.326348 366.545346 
L 430.090601 366.447763 
L 430.854854 366.566692 
L 433.147612 366.359328 
L 433.911864 366.52095 
L 435.44037 366.155014 
L 436.204622 366.496554 
L 437.733128 366.283092 
L 439.261633 366.310537 
L 440.025886 366.328834 
L 440.790139 366.606335 
L 442.318644 366.307488 
L 443.082897 366.319685 
L 443.847149 366.46301 
L 446.90416 366.164163 
L 449.196918 366.347131 
L 449.961171 366.441664 
L 450.725424 366.216004 
L 451.489676 366.115371 
L 453.018182 366.280042 
L 453.782435 366.325784 
L 454.546687 365.990343 
L 455.31094 366.411169 
L 456.075193 366.286141 
L 456.839445 365.981195 
L 457.603698 366.18246 
L 459.132203 366.072679 
L 459.896456 366.136718 
L 460.660709 366.06353 
L 462.189214 366.188558 
L 462.953467 366.051333 
L 463.71772 366.112322 
L 464.481972 366.054382 
L 465.246225 366.185509 
L 466.010478 366.17941 
L 466.77473 365.981195 
L 467.538983 366.051333 
L 468.303236 365.923255 
L 469.067488 366.090976 
L 469.831741 366.12147 
L 471.360247 365.850068 
L 472.888752 366.289191 
L 473.653005 365.679298 
L 474.417257 365.938502 
L 475.18151 365.993393 
L 475.945763 365.908008 
L 477.474268 365.904958 
L 478.238521 365.871414 
L 479.002773 366.06658 
L 479.767026 366.017789 
L 480.531279 365.703694 
L 484.352542 365.883612 
L 485.116795 365.807376 
L 485.881048 365.996442 
L 486.6453 365.813475 
L 487.409553 366.00864 
L 488.173806 365.770782 
L 488.938059 365.908008 
L 489.702311 365.648804 
L 491.230817 365.923255 
L 491.995069 365.761634 
L 492.759322 365.914107 
L 493.523575 365.688447 
L 494.287827 365.718941 
L 495.05208 365.593913 
L 495.816333 365.746386 
L 496.580586 365.731139 
L 497.344838 365.834821 
L 498.109091 365.478034 
L 498.109091 365.478034 
" clip-path="url(#pe6393567fe)" style="fill: none; stroke: #008000; stroke-width: 1.5; stroke-linecap: square"/>
   </g>
   <g id="patch_3">
    <path d="M 72 384.48 
L 72 51.84 
" style="fill: none; stroke: #000000; stroke-width: 0.8; stroke-linejoin: miter; stroke-linecap: square"/>
   </g>
   <g id="patch_4">
    <path d="M 518.4 384.48 
L 518.4 51.84 
" style="fill: none; stroke: #000000; stroke-width: 0.8; stroke-linejoin: miter; stroke-linecap: square"/>
   </g>
   <g id="patch_5">
    <path d="M 72 384.48 
L 518.4 384.48 
" style="fill: none; stroke: #000000; stroke-width: 0.8; stroke-linejoin: miter; stroke-linecap: square"/>
   </g>
   <g id="patch_6">
    <path d="M 72 51.84 
L 518.4 51.84 
" style="fill: none; stroke: #000000; stroke-width: 0.8; stroke-linejoin: miter; stroke-linecap: square"/>
   </g>
   <g id="text_22">
    <!-- M10: Methionin; Aspartat -->
    <g transform="translate(231.978906 45.84) scale(0.1 -0.1)">
     <defs>
      <path id="DejaVuSans-4d" d="M 628 4666 
L 1569 4666 
L 2759 1491 
L 3956 4666 
L 4897 4666 
L 4897 0 
L 4281 0 
L 4281 4097 
L 3078 897 
L 2444 897 
L 1241 4097 
L 1241 0 
L 628 0 
L 628 4666 
z
" transform="scale(0.015625)"/>
      <path id="DejaVuSans-3a" d="M 750 794 
L 1409 794 
L 1409 0 
L 750 0 
L 750 794 
z
M 750 3309 
L 1409 3309 
L 1409 2516 
L 750 2516 
L 750 3309 
z
" transform="scale(0.015625)"/>
      <path id="DejaVuSans-3b" d="M 750 3309 
L 1409 3309 
L 1409 2516 
L 750 2516 
L 750 3309 
z
M 750 794 
L 1409 794 
L 1409 256 
L 897 -744 
L 494 -744 
L 750 256 
L 750 794 
z
" transform="scale(0.015625)"/>
      <path id="DejaVuSans-41" d="M 2188 4044 
L 1331 1722 
L 3047 1722 
L 2188 4044 
z
M 1831 4666 
L 2547 4666 
L 4325 0 
L 3669 0 
L 3244 1197 
L 1141 1197 
L 716 0 
L 50 0 
L 1831 4666 
z
" transform="scale(0.015625)"/>
      <path id="DejaVuSans-70" d="M 1159 525 
L 1159 -1331 
L 581 -1331 
L 581 3500 
L 1159 3500 
L 1159 2969 
Q 1341 3281 1617 3432 
Q 1894 3584 2278 3584 
Q 2916 3584 3314 3078 
Q 3713 2572 3713 1747 
Q 3713 922 3314 415 
Q 2916 -91 2278 -91 
Q 1894 -91 1617 61 
Q 1341 213 1159 525 
z
M 3116 1747 
Q 3116 2381 2855 2742 
Q 2594 3103 2138 3103 
Q 1681 3103 1420 2742 
Q 1159 2381 1159 1747 
Q 1159 1113 1420 752 
Q 1681 391 2138 391 
Q 2594 391 2855 752 
Q 3116 1113 3116 1747 
z
" transform="scale(0.015625)"/>
     </defs>
     <use xlink:href="#DejaVuSans-4d"/>
     <use xlink:href="#DejaVuSans-31" x="86.279297"/>
     <use xlink:href="#DejaVuSans-30" x="149.902344"/>
     <use xlink:href="#DejaVuSans-3a" x="213.525391"/>
     <use xlink:href="#DejaVuSans-20" x="247.216797"/>
     <use xlink:href="#DejaVuSans-4d" x="279.003906"/>
     <use xlink:href="#DejaVuSans-65" x="365.283203"/>
     <use xlink:href="#DejaVuSans-74" x="426.806641"/>
     <use xlink:href="#DejaVuSans-68" x="466.015625"/>
     <use xlink:href="#DejaVuSans-69" x="529.394531"/>
     <use xlink:href="#DejaVuSans-6f" x="557.177734"/>
     <use xlink:href="#DejaVuSans-6e" x="618.359375"/>
     <use xlink:href="#DejaVuSans-69" x="681.738281"/>
     <use xlink:href="#DejaVuSans-6e" x="709.521484"/>
     <use xlink:href="#DejaVuSans-3b" x="772.900391"/>
     <use xlink:href="#DejaVuSans-20" x="806.591797"/>
     <use xlink:href="#DejaVuSans-41" x="838.378906"/>
     <use xlink:href="#DejaVuSans-73" x="906.787109"/>
     <use xlink:href="#DejaVuSans-70" x="958.886719"/>
     <use xlink:href="#DejaVuSans-61" x="1022.363281"/>
     <use xlink:href="#DejaVuSans-72" x="1083.642578"/>
     <use xlink:href="#DejaVuSans-74" x="1124.755859"/>
     <use xlink:href="#DejaVuSans-61" x="1163.964844"/>
     <use xlink:href="#DejaVuSans-74" x="1225.244141"/>
    </g>
   </g>
  </g>
 </g>
 <defs>
  <clipPath id="pe6393567fe">
   <rect x="72" y="51.84" width="446.4" height="332.64"/>
  </clipPath>
 </defs>
</svg>
