<?xml version="1.0" encoding="utf-8" standalone="no"?>
<!DOCTYPE svg PUBLIC "-//W3C//DTD SVG 1.1//EN"
  "http://www.w3.org/Graphics/SVG/1.1/DTD/svg11.dtd">
<svg xmlns:xlink="http://www.w3.org/1999/xlink" width="576pt" height="432pt" viewBox="0 0 576 432" xmlns="http://www.w3.org/2000/svg" version="1.1">
 <metadata>
  <rdf:RDF xmlns:dc="http://purl.org/dc/elements/1.1/" xmlns:cc="http://creativecommons.org/ns#" xmlns:rdf="http://www.w3.org/1999/02/22-rdf-syntax-ns#">
   <cc:Work>
    <dc:type rdf:resource="http://purl.org/dc/dcmitype/StillImage"/>
    <dc:date>2024-11-12T14:09:04.589678</dc:date>
    <dc:format>image/svg+xml</dc:format>
    <dc:creator>
     <cc:Agent>
      <dc:title>Matplotlib v3.7.5, https://matplotlib.org/</dc:title>
     </cc:Agent>
    </dc:creator>
   </cc:Work>
  </rdf:RDF>
 </metadata>
 <defs>
  <style type="text/css">*{stroke-linejoin: round; stroke-linecap: butt}</style>
 </defs>
 <g id="figure_1">
  <g id="patch_1">
   <path d="M 0 432 
L 576 432 
L 576 0 
L 0 0 
z
" style="fill: #ffffff"/>
  </g>
  <g id="axes_1">
   <g id="patch_2">
    <path d="M 72 384.48 
L 518.4 384.48 
L 518.4 51.84 
L 72 51.84 
z
" style="fill: #ffffff"/>
   </g>
   <g id="matplotlib.axis_1">
    <g id="xtick_1">
     <g id="line2d_1">
      <path d="M 92.290909 384.48 
L 92.290909 51.84 
" clip-path="url(#pe484ce7cc7)" style="fill: none; stroke: #b0b0b0; stroke-width: 0.8; stroke-linecap: square"/>
     </g>
     <g id="line2d_2">
      <defs>
       <path id="m67d4897a37" d="M 0 0 
L 0 3.5 
" style="stroke: #000000; stroke-width: 0.8"/>
      </defs>
      <g>
       <use xlink:href="#m67d4897a37" x="92.290909" y="384.48" style="stroke: #000000; stroke-width: 0.8"/>
      </g>
     </g>
     <g id="text_1">
      <!-- 0.17 -->
      <g transform="translate(81.158097 399.078438) scale(0.1 -0.1)">
       <defs>
        <path id="DejaVuSans-30" d="M 2034 4250 
Q 1547 4250 1301 3770 
Q 1056 3291 1056 2328 
Q 1056 1369 1301 889 
Q 1547 409 2034 409 
Q 2525 409 2770 889 
Q 3016 1369 3016 2328 
Q 3016 3291 2770 3770 
Q 2525 4250 2034 4250 
z
M 2034 4750 
Q 2819 4750 3233 4129 
Q 3647 3509 3647 2328 
Q 3647 1150 3233 529 
Q 2819 -91 2034 -91 
Q 1250 -91 836 529 
Q 422 1150 422 2328 
Q 422 3509 836 4129 
Q 1250 4750 2034 4750 
z
" transform="scale(0.015625)"/>
        <path id="DejaVuSans-2e" d="M 684 794 
L 1344 794 
L 1344 0 
L 684 0 
L 684 794 
z
" transform="scale(0.015625)"/>
        <path id="DejaVuSans-31" d="M 794 531 
L 1825 531 
L 1825 4091 
L 703 3866 
L 703 4441 
L 1819 4666 
L 2450 4666 
L 2450 531 
L 3481 531 
L 3481 0 
L 794 0 
L 794 531 
z
" transform="scale(0.015625)"/>
        <path id="DejaVuSans-37" d="M 525 4666 
L 3525 4666 
L 3525 4397 
L 1831 0 
L 1172 0 
L 2766 4134 
L 525 4134 
L 525 4666 
z
" transform="scale(0.015625)"/>
       </defs>
       <use xlink:href="#DejaVuSans-30"/>
       <use xlink:href="#DejaVuSans-2e" x="63.623047"/>
       <use xlink:href="#DejaVuSans-31" x="95.410156"/>
       <use xlink:href="#DejaVuSans-37" x="159.033203"/>
      </g>
     </g>
    </g>
    <g id="xtick_2">
     <g id="line2d_3">
      <path d="M 122.861017 384.48 
L 122.861017 51.84 
" clip-path="url(#pe484ce7cc7)" style="fill: none; stroke: #b0b0b0; stroke-width: 0.8; stroke-linecap: square"/>
     </g>
     <g id="line2d_4">
      <g>
       <use xlink:href="#m67d4897a37" x="122.861017" y="384.48" style="stroke: #000000; stroke-width: 0.8"/>
      </g>
     </g>
     <g id="text_2">
      <!-- 6.83 -->
      <g transform="translate(111.728204 399.078438) scale(0.1 -0.1)">
       <defs>
        <path id="DejaVuSans-36" d="M 2113 2584 
Q 1688 2584 1439 2293 
Q 1191 2003 1191 1497 
Q 1191 994 1439 701 
Q 1688 409 2113 409 
Q 2538 409 2786 701 
Q 3034 994 3034 1497 
Q 3034 2003 2786 2293 
Q 2538 2584 2113 2584 
z
M 3366 4563 
L 3366 3988 
Q 3128 4100 2886 4159 
Q 2644 4219 2406 4219 
Q 1781 4219 1451 3797 
Q 1122 3375 1075 2522 
Q 1259 2794 1537 2939 
Q 1816 3084 2150 3084 
Q 2853 3084 3261 2657 
Q 3669 2231 3669 1497 
Q 3669 778 3244 343 
Q 2819 -91 2113 -91 
Q 1303 -91 875 529 
Q 447 1150 447 2328 
Q 447 3434 972 4092 
Q 1497 4750 2381 4750 
Q 2619 4750 2861 4703 
Q 3103 4656 3366 4563 
z
" transform="scale(0.015625)"/>
        <path id="DejaVuSans-38" d="M 2034 2216 
Q 1584 2216 1326 1975 
Q 1069 1734 1069 1313 
Q 1069 891 1326 650 
Q 1584 409 2034 409 
Q 2484 409 2743 651 
Q 3003 894 3003 1313 
Q 3003 1734 2745 1975 
Q 2488 2216 2034 2216 
z
M 1403 2484 
Q 997 2584 770 2862 
Q 544 3141 544 3541 
Q 544 4100 942 4425 
Q 1341 4750 2034 4750 
Q 2731 4750 3128 4425 
Q 3525 4100 3525 3541 
Q 3525 3141 3298 2862 
Q 3072 2584 2669 2484 
Q 3125 2378 3379 2068 
Q 3634 1759 3634 1313 
Q 3634 634 3220 271 
Q 2806 -91 2034 -91 
Q 1263 -91 848 271 
Q 434 634 434 1313 
Q 434 1759 690 2068 
Q 947 2378 1403 2484 
z
M 1172 3481 
Q 1172 3119 1398 2916 
Q 1625 2713 2034 2713 
Q 2441 2713 2670 2916 
Q 2900 3119 2900 3481 
Q 2900 3844 2670 4047 
Q 2441 4250 2034 4250 
Q 1625 4250 1398 4047 
Q 1172 3844 1172 3481 
z
" transform="scale(0.015625)"/>
        <path id="DejaVuSans-33" d="M 2597 2516 
Q 3050 2419 3304 2112 
Q 3559 1806 3559 1356 
Q 3559 666 3084 287 
Q 2609 -91 1734 -91 
Q 1441 -91 1130 -33 
Q 819 25 488 141 
L 488 750 
Q 750 597 1062 519 
Q 1375 441 1716 441 
Q 2309 441 2620 675 
Q 2931 909 2931 1356 
Q 2931 1769 2642 2001 
Q 2353 2234 1838 2234 
L 1294 2234 
L 1294 2753 
L 1863 2753 
Q 2328 2753 2575 2939 
Q 2822 3125 2822 3475 
Q 2822 3834 2567 4026 
Q 2313 4219 1838 4219 
Q 1578 4219 1281 4162 
Q 984 4106 628 3988 
L 628 4550 
Q 988 4650 1302 4700 
Q 1616 4750 1894 4750 
Q 2613 4750 3031 4423 
Q 3450 4097 3450 3541 
Q 3450 3153 3228 2886 
Q 3006 2619 2597 2516 
z
" transform="scale(0.015625)"/>
       </defs>
       <use xlink:href="#DejaVuSans-36"/>
       <use xlink:href="#DejaVuSans-2e" x="63.623047"/>
       <use xlink:href="#DejaVuSans-38" x="95.410156"/>
       <use xlink:href="#DejaVuSans-33" x="159.033203"/>
      </g>
     </g>
    </g>
    <g id="xtick_3">
     <g id="line2d_5">
      <path d="M 153.431125 384.48 
L 153.431125 51.84 
" clip-path="url(#pe484ce7cc7)" style="fill: none; stroke: #b0b0b0; stroke-width: 0.8; stroke-linecap: square"/>
     </g>
     <g id="line2d_6">
      <g>
       <use xlink:href="#m67d4897a37" x="153.431125" y="384.48" style="stroke: #000000; stroke-width: 0.8"/>
      </g>
     </g>
     <g id="text_3">
      <!-- 13.5 -->
      <g transform="translate(142.298312 399.078438) scale(0.1 -0.1)">
       <defs>
        <path id="DejaVuSans-35" d="M 691 4666 
L 3169 4666 
L 3169 4134 
L 1269 4134 
L 1269 2991 
Q 1406 3038 1543 3061 
Q 1681 3084 1819 3084 
Q 2600 3084 3056 2656 
Q 3513 2228 3513 1497 
Q 3513 744 3044 326 
Q 2575 -91 1722 -91 
Q 1428 -91 1123 -41 
Q 819 9 494 109 
L 494 744 
Q 775 591 1075 516 
Q 1375 441 1709 441 
Q 2250 441 2565 725 
Q 2881 1009 2881 1497 
Q 2881 1984 2565 2268 
Q 2250 2553 1709 2553 
Q 1456 2553 1204 2497 
Q 953 2441 691 2322 
L 691 4666 
z
" transform="scale(0.015625)"/>
       </defs>
       <use xlink:href="#DejaVuSans-31"/>
       <use xlink:href="#DejaVuSans-33" x="63.623047"/>
       <use xlink:href="#DejaVuSans-2e" x="127.246094"/>
       <use xlink:href="#DejaVuSans-35" x="159.033203"/>
      </g>
     </g>
    </g>
    <g id="xtick_4">
     <g id="line2d_7">
      <path d="M 184.001233 384.48 
L 184.001233 51.84 
" clip-path="url(#pe484ce7cc7)" style="fill: none; stroke: #b0b0b0; stroke-width: 0.8; stroke-linecap: square"/>
     </g>
     <g id="line2d_8">
      <g>
       <use xlink:href="#m67d4897a37" x="184.001233" y="384.48" style="stroke: #000000; stroke-width: 0.8"/>
      </g>
     </g>
     <g id="text_4">
      <!-- 20.17 -->
      <g transform="translate(169.68717 399.078438) scale(0.1 -0.1)">
       <defs>
        <path id="DejaVuSans-32" d="M 1228 531 
L 3431 531 
L 3431 0 
L 469 0 
L 469 531 
Q 828 903 1448 1529 
Q 2069 2156 2228 2338 
Q 2531 2678 2651 2914 
Q 2772 3150 2772 3378 
Q 2772 3750 2511 3984 
Q 2250 4219 1831 4219 
Q 1534 4219 1204 4116 
Q 875 4013 500 3803 
L 500 4441 
Q 881 4594 1212 4672 
Q 1544 4750 1819 4750 
Q 2544 4750 2975 4387 
Q 3406 4025 3406 3419 
Q 3406 3131 3298 2873 
Q 3191 2616 2906 2266 
Q 2828 2175 2409 1742 
Q 1991 1309 1228 531 
z
" transform="scale(0.015625)"/>
       </defs>
       <use xlink:href="#DejaVuSans-32"/>
       <use xlink:href="#DejaVuSans-30" x="63.623047"/>
       <use xlink:href="#DejaVuSans-2e" x="127.246094"/>
       <use xlink:href="#DejaVuSans-31" x="159.033203"/>
       <use xlink:href="#DejaVuSans-37" x="222.65625"/>
      </g>
     </g>
    </g>
    <g id="xtick_5">
     <g id="line2d_9">
      <path d="M 214.571341 384.48 
L 214.571341 51.84 
" clip-path="url(#pe484ce7cc7)" style="fill: none; stroke: #b0b0b0; stroke-width: 0.8; stroke-linecap: square"/>
     </g>
     <g id="line2d_10">
      <g>
       <use xlink:href="#m67d4897a37" x="214.571341" y="384.48" style="stroke: #000000; stroke-width: 0.8"/>
      </g>
     </g>
     <g id="text_5">
      <!-- 26.83 -->
      <g transform="translate(200.257278 399.078438) scale(0.1 -0.1)">
       <use xlink:href="#DejaVuSans-32"/>
       <use xlink:href="#DejaVuSans-36" x="63.623047"/>
       <use xlink:href="#DejaVuSans-2e" x="127.246094"/>
       <use xlink:href="#DejaVuSans-38" x="159.033203"/>
       <use xlink:href="#DejaVuSans-33" x="222.65625"/>
      </g>
     </g>
    </g>
    <g id="xtick_6">
     <g id="line2d_11">
      <path d="M 245.141448 384.48 
L 245.141448 51.84 
" clip-path="url(#pe484ce7cc7)" style="fill: none; stroke: #b0b0b0; stroke-width: 0.8; stroke-linecap: square"/>
     </g>
     <g id="line2d_12">
      <g>
       <use xlink:href="#m67d4897a37" x="245.141448" y="384.48" style="stroke: #000000; stroke-width: 0.8"/>
      </g>
     </g>
     <g id="text_6">
      <!-- 33.5 -->
      <g transform="translate(234.008636 399.078438) scale(0.1 -0.1)">
       <use xlink:href="#DejaVuSans-33"/>
       <use xlink:href="#DejaVuSans-33" x="63.623047"/>
       <use xlink:href="#DejaVuSans-2e" x="127.246094"/>
       <use xlink:href="#DejaVuSans-35" x="159.033203"/>
      </g>
     </g>
    </g>
    <g id="xtick_7">
     <g id="line2d_13">
      <path d="M 275.711556 384.48 
L 275.711556 51.84 
" clip-path="url(#pe484ce7cc7)" style="fill: none; stroke: #b0b0b0; stroke-width: 0.8; stroke-linecap: square"/>
     </g>
     <g id="line2d_14">
      <g>
       <use xlink:href="#m67d4897a37" x="275.711556" y="384.48" style="stroke: #000000; stroke-width: 0.8"/>
      </g>
     </g>
     <g id="text_7">
      <!-- 40.17 -->
      <g transform="translate(261.397494 399.078438) scale(0.1 -0.1)">
       <defs>
        <path id="DejaVuSans-34" d="M 2419 4116 
L 825 1625 
L 2419 1625 
L 2419 4116 
z
M 2253 4666 
L 3047 4666 
L 3047 1625 
L 3713 1625 
L 3713 1100 
L 3047 1100 
L 3047 0 
L 2419 0 
L 2419 1100 
L 313 1100 
L 313 1709 
L 2253 4666 
z
" transform="scale(0.015625)"/>
       </defs>
       <use xlink:href="#DejaVuSans-34"/>
       <use xlink:href="#DejaVuSans-30" x="63.623047"/>
       <use xlink:href="#DejaVuSans-2e" x="127.246094"/>
       <use xlink:href="#DejaVuSans-31" x="159.033203"/>
       <use xlink:href="#DejaVuSans-37" x="222.65625"/>
      </g>
     </g>
    </g>
    <g id="xtick_8">
     <g id="line2d_15">
      <path d="M 306.281664 384.48 
L 306.281664 51.84 
" clip-path="url(#pe484ce7cc7)" style="fill: none; stroke: #b0b0b0; stroke-width: 0.8; stroke-linecap: square"/>
     </g>
     <g id="line2d_16">
      <g>
       <use xlink:href="#m67d4897a37" x="306.281664" y="384.48" style="stroke: #000000; stroke-width: 0.8"/>
      </g>
     </g>
     <g id="text_8">
      <!-- 46.83 -->
      <g transform="translate(291.967602 399.078438) scale(0.1 -0.1)">
       <use xlink:href="#DejaVuSans-34"/>
       <use xlink:href="#DejaVuSans-36" x="63.623047"/>
       <use xlink:href="#DejaVuSans-2e" x="127.246094"/>
       <use xlink:href="#DejaVuSans-38" x="159.033203"/>
       <use xlink:href="#DejaVuSans-33" x="222.65625"/>
      </g>
     </g>
    </g>
    <g id="xtick_9">
     <g id="line2d_17">
      <path d="M 336.851772 384.48 
L 336.851772 51.84 
" clip-path="url(#pe484ce7cc7)" style="fill: none; stroke: #b0b0b0; stroke-width: 0.8; stroke-linecap: square"/>
     </g>
     <g id="line2d_18">
      <g>
       <use xlink:href="#m67d4897a37" x="336.851772" y="384.48" style="stroke: #000000; stroke-width: 0.8"/>
      </g>
     </g>
     <g id="text_9">
      <!-- 53.5 -->
      <g transform="translate(325.718959 399.078438) scale(0.1 -0.1)">
       <use xlink:href="#DejaVuSans-35"/>
       <use xlink:href="#DejaVuSans-33" x="63.623047"/>
       <use xlink:href="#DejaVuSans-2e" x="127.246094"/>
       <use xlink:href="#DejaVuSans-35" x="159.033203"/>
      </g>
     </g>
    </g>
    <g id="xtick_10">
     <g id="line2d_19">
      <path d="M 367.42188 384.48 
L 367.42188 51.84 
" clip-path="url(#pe484ce7cc7)" style="fill: none; stroke: #b0b0b0; stroke-width: 0.8; stroke-linecap: square"/>
     </g>
     <g id="line2d_20">
      <g>
       <use xlink:href="#m67d4897a37" x="367.42188" y="384.48" style="stroke: #000000; stroke-width: 0.8"/>
      </g>
     </g>
     <g id="text_10">
      <!-- 60.17 -->
      <g transform="translate(353.107817 399.078438) scale(0.1 -0.1)">
       <use xlink:href="#DejaVuSans-36"/>
       <use xlink:href="#DejaVuSans-30" x="63.623047"/>
       <use xlink:href="#DejaVuSans-2e" x="127.246094"/>
       <use xlink:href="#DejaVuSans-31" x="159.033203"/>
       <use xlink:href="#DejaVuSans-37" x="222.65625"/>
      </g>
     </g>
    </g>
    <g id="xtick_11">
     <g id="line2d_21">
      <path d="M 397.991988 384.48 
L 397.991988 51.84 
" clip-path="url(#pe484ce7cc7)" style="fill: none; stroke: #b0b0b0; stroke-width: 0.8; stroke-linecap: square"/>
     </g>
     <g id="line2d_22">
      <g>
       <use xlink:href="#m67d4897a37" x="397.991988" y="384.48" style="stroke: #000000; stroke-width: 0.8"/>
      </g>
     </g>
     <g id="text_11">
      <!-- 66.83 -->
      <g transform="translate(383.677925 399.078438) scale(0.1 -0.1)">
       <use xlink:href="#DejaVuSans-36"/>
       <use xlink:href="#DejaVuSans-36" x="63.623047"/>
       <use xlink:href="#DejaVuSans-2e" x="127.246094"/>
       <use xlink:href="#DejaVuSans-38" x="159.033203"/>
       <use xlink:href="#DejaVuSans-33" x="222.65625"/>
      </g>
     </g>
    </g>
    <g id="xtick_12">
     <g id="line2d_23">
      <path d="M 428.562096 384.48 
L 428.562096 51.84 
" clip-path="url(#pe484ce7cc7)" style="fill: none; stroke: #b0b0b0; stroke-width: 0.8; stroke-linecap: square"/>
     </g>
     <g id="line2d_24">
      <g>
       <use xlink:href="#m67d4897a37" x="428.562096" y="384.48" style="stroke: #000000; stroke-width: 0.8"/>
      </g>
     </g>
     <g id="text_12">
      <!-- 73.5 -->
      <g transform="translate(417.429283 399.078438) scale(0.1 -0.1)">
       <use xlink:href="#DejaVuSans-37"/>
       <use xlink:href="#DejaVuSans-33" x="63.623047"/>
       <use xlink:href="#DejaVuSans-2e" x="127.246094"/>
       <use xlink:href="#DejaVuSans-35" x="159.033203"/>
      </g>
     </g>
    </g>
    <g id="xtick_13">
     <g id="line2d_25">
      <path d="M 459.132203 384.48 
L 459.132203 51.84 
" clip-path="url(#pe484ce7cc7)" style="fill: none; stroke: #b0b0b0; stroke-width: 0.8; stroke-linecap: square"/>
     </g>
     <g id="line2d_26">
      <g>
       <use xlink:href="#m67d4897a37" x="459.132203" y="384.48" style="stroke: #000000; stroke-width: 0.8"/>
      </g>
     </g>
     <g id="text_13">
      <!-- 80.17 -->
      <g transform="translate(444.818141 399.078438) scale(0.1 -0.1)">
       <use xlink:href="#DejaVuSans-38"/>
       <use xlink:href="#DejaVuSans-30" x="63.623047"/>
       <use xlink:href="#DejaVuSans-2e" x="127.246094"/>
       <use xlink:href="#DejaVuSans-31" x="159.033203"/>
       <use xlink:href="#DejaVuSans-37" x="222.65625"/>
      </g>
     </g>
    </g>
    <g id="xtick_14">
     <g id="line2d_27">
      <path d="M 489.702311 384.48 
L 489.702311 51.84 
" clip-path="url(#pe484ce7cc7)" style="fill: none; stroke: #b0b0b0; stroke-width: 0.8; stroke-linecap: square"/>
     </g>
     <g id="line2d_28">
      <g>
       <use xlink:href="#m67d4897a37" x="489.702311" y="384.48" style="stroke: #000000; stroke-width: 0.8"/>
      </g>
     </g>
     <g id="text_14">
      <!-- 86.83 -->
      <g transform="translate(475.388249 399.078438) scale(0.1 -0.1)">
       <use xlink:href="#DejaVuSans-38"/>
       <use xlink:href="#DejaVuSans-36" x="63.623047"/>
       <use xlink:href="#DejaVuSans-2e" x="127.246094"/>
       <use xlink:href="#DejaVuSans-38" x="159.033203"/>
       <use xlink:href="#DejaVuSans-33" x="222.65625"/>
      </g>
     </g>
    </g>
    <g id="text_15">
     <!-- time in hours [h] -->
     <g transform="translate(253.451562 412.756563) scale(0.1 -0.1)">
      <defs>
       <path id="DejaVuSans-74" d="M 1172 4494 
L 1172 3500 
L 2356 3500 
L 2356 3053 
L 1172 3053 
L 1172 1153 
Q 1172 725 1289 603 
Q 1406 481 1766 481 
L 2356 481 
L 2356 0 
L 1766 0 
Q 1100 0 847 248 
Q 594 497 594 1153 
L 594 3053 
L 172 3053 
L 172 3500 
L 594 3500 
L 594 4494 
L 1172 4494 
z
" transform="scale(0.015625)"/>
       <path id="DejaVuSans-69" d="M 603 3500 
L 1178 3500 
L 1178 0 
L 603 0 
L 603 3500 
z
M 603 4863 
L 1178 4863 
L 1178 4134 
L 603 4134 
L 603 4863 
z
" transform="scale(0.015625)"/>
       <path id="DejaVuSans-6d" d="M 3328 2828 
Q 3544 3216 3844 3400 
Q 4144 3584 4550 3584 
Q 5097 3584 5394 3201 
Q 5691 2819 5691 2113 
L 5691 0 
L 5113 0 
L 5113 2094 
Q 5113 2597 4934 2840 
Q 4756 3084 4391 3084 
Q 3944 3084 3684 2787 
Q 3425 2491 3425 1978 
L 3425 0 
L 2847 0 
L 2847 2094 
Q 2847 2600 2669 2842 
Q 2491 3084 2119 3084 
Q 1678 3084 1418 2786 
Q 1159 2488 1159 1978 
L 1159 0 
L 581 0 
L 581 3500 
L 1159 3500 
L 1159 2956 
Q 1356 3278 1631 3431 
Q 1906 3584 2284 3584 
Q 2666 3584 2933 3390 
Q 3200 3197 3328 2828 
z
" transform="scale(0.015625)"/>
       <path id="DejaVuSans-65" d="M 3597 1894 
L 3597 1613 
L 953 1613 
Q 991 1019 1311 708 
Q 1631 397 2203 397 
Q 2534 397 2845 478 
Q 3156 559 3463 722 
L 3463 178 
Q 3153 47 2828 -22 
Q 2503 -91 2169 -91 
Q 1331 -91 842 396 
Q 353 884 353 1716 
Q 353 2575 817 3079 
Q 1281 3584 2069 3584 
Q 2775 3584 3186 3129 
Q 3597 2675 3597 1894 
z
M 3022 2063 
Q 3016 2534 2758 2815 
Q 2500 3097 2075 3097 
Q 1594 3097 1305 2825 
Q 1016 2553 972 2059 
L 3022 2063 
z
" transform="scale(0.015625)"/>
       <path id="DejaVuSans-20" transform="scale(0.015625)"/>
       <path id="DejaVuSans-6e" d="M 3513 2113 
L 3513 0 
L 2938 0 
L 2938 2094 
Q 2938 2591 2744 2837 
Q 2550 3084 2163 3084 
Q 1697 3084 1428 2787 
Q 1159 2491 1159 1978 
L 1159 0 
L 581 0 
L 581 3500 
L 1159 3500 
L 1159 2956 
Q 1366 3272 1645 3428 
Q 1925 3584 2291 3584 
Q 2894 3584 3203 3211 
Q 3513 2838 3513 2113 
z
" transform="scale(0.015625)"/>
       <path id="DejaVuSans-68" d="M 3513 2113 
L 3513 0 
L 2938 0 
L 2938 2094 
Q 2938 2591 2744 2837 
Q 2550 3084 2163 3084 
Q 1697 3084 1428 2787 
Q 1159 2491 1159 1978 
L 1159 0 
L 581 0 
L 581 4863 
L 1159 4863 
L 1159 2956 
Q 1366 3272 1645 3428 
Q 1925 3584 2291 3584 
Q 2894 3584 3203 3211 
Q 3513 2838 3513 2113 
z
" transform="scale(0.015625)"/>
       <path id="DejaVuSans-6f" d="M 1959 3097 
Q 1497 3097 1228 2736 
Q 959 2375 959 1747 
Q 959 1119 1226 758 
Q 1494 397 1959 397 
Q 2419 397 2687 759 
Q 2956 1122 2956 1747 
Q 2956 2369 2687 2733 
Q 2419 3097 1959 3097 
z
M 1959 3584 
Q 2709 3584 3137 3096 
Q 3566 2609 3566 1747 
Q 3566 888 3137 398 
Q 2709 -91 1959 -91 
Q 1206 -91 779 398 
Q 353 888 353 1747 
Q 353 2609 779 3096 
Q 1206 3584 1959 3584 
z
" transform="scale(0.015625)"/>
       <path id="DejaVuSans-75" d="M 544 1381 
L 544 3500 
L 1119 3500 
L 1119 1403 
Q 1119 906 1312 657 
Q 1506 409 1894 409 
Q 2359 409 2629 706 
Q 2900 1003 2900 1516 
L 2900 3500 
L 3475 3500 
L 3475 0 
L 2900 0 
L 2900 538 
Q 2691 219 2414 64 
Q 2138 -91 1772 -91 
Q 1169 -91 856 284 
Q 544 659 544 1381 
z
M 1991 3584 
L 1991 3584 
z
" transform="scale(0.015625)"/>
       <path id="DejaVuSans-72" d="M 2631 2963 
Q 2534 3019 2420 3045 
Q 2306 3072 2169 3072 
Q 1681 3072 1420 2755 
Q 1159 2438 1159 1844 
L 1159 0 
L 581 0 
L 581 3500 
L 1159 3500 
L 1159 2956 
Q 1341 3275 1631 3429 
Q 1922 3584 2338 3584 
Q 2397 3584 2469 3576 
Q 2541 3569 2628 3553 
L 2631 2963 
z
" transform="scale(0.015625)"/>
       <path id="DejaVuSans-73" d="M 2834 3397 
L 2834 2853 
Q 2591 2978 2328 3040 
Q 2066 3103 1784 3103 
Q 1356 3103 1142 2972 
Q 928 2841 928 2578 
Q 928 2378 1081 2264 
Q 1234 2150 1697 2047 
L 1894 2003 
Q 2506 1872 2764 1633 
Q 3022 1394 3022 966 
Q 3022 478 2636 193 
Q 2250 -91 1575 -91 
Q 1294 -91 989 -36 
Q 684 19 347 128 
L 347 722 
Q 666 556 975 473 
Q 1284 391 1588 391 
Q 1994 391 2212 530 
Q 2431 669 2431 922 
Q 2431 1156 2273 1281 
Q 2116 1406 1581 1522 
L 1381 1569 
Q 847 1681 609 1914 
Q 372 2147 372 2553 
Q 372 3047 722 3315 
Q 1072 3584 1716 3584 
Q 2034 3584 2315 3537 
Q 2597 3491 2834 3397 
z
" transform="scale(0.015625)"/>
       <path id="DejaVuSans-5b" d="M 550 4863 
L 1875 4863 
L 1875 4416 
L 1125 4416 
L 1125 -397 
L 1875 -397 
L 1875 -844 
L 550 -844 
L 550 4863 
z
" transform="scale(0.015625)"/>
       <path id="DejaVuSans-5d" d="M 1947 4863 
L 1947 -844 
L 622 -844 
L 622 -397 
L 1369 -397 
L 1369 4416 
L 622 4416 
L 622 4863 
L 1947 4863 
z
" transform="scale(0.015625)"/>
      </defs>
      <use xlink:href="#DejaVuSans-74"/>
      <use xlink:href="#DejaVuSans-69" x="39.208984"/>
      <use xlink:href="#DejaVuSans-6d" x="66.992188"/>
      <use xlink:href="#DejaVuSans-65" x="164.404297"/>
      <use xlink:href="#DejaVuSans-20" x="225.927734"/>
      <use xlink:href="#DejaVuSans-69" x="257.714844"/>
      <use xlink:href="#DejaVuSans-6e" x="285.498047"/>
      <use xlink:href="#DejaVuSans-20" x="348.876953"/>
      <use xlink:href="#DejaVuSans-68" x="380.664062"/>
      <use xlink:href="#DejaVuSans-6f" x="444.042969"/>
      <use xlink:href="#DejaVuSans-75" x="505.224609"/>
      <use xlink:href="#DejaVuSans-72" x="568.603516"/>
      <use xlink:href="#DejaVuSans-73" x="609.716797"/>
      <use xlink:href="#DejaVuSans-20" x="661.816406"/>
      <use xlink:href="#DejaVuSans-5b" x="693.603516"/>
      <use xlink:href="#DejaVuSans-68" x="732.617188"/>
      <use xlink:href="#DejaVuSans-5d" x="795.996094"/>
     </g>
    </g>
   </g>
   <g id="matplotlib.axis_2">
    <g id="ytick_1">
     <g id="line2d_29">
      <path d="M 72 363.69 
L 518.4 363.69 
" clip-path="url(#pe484ce7cc7)" style="fill: none; stroke: #b0b0b0; stroke-width: 0.8; stroke-linecap: square"/>
     </g>
     <g id="line2d_30">
      <defs>
       <path id="m44295588e5" d="M 0 0 
L -3.5 0 
" style="stroke: #000000; stroke-width: 0.8"/>
      </defs>
      <g>
       <use xlink:href="#m44295588e5" x="72" y="363.69" style="stroke: #000000; stroke-width: 0.8"/>
      </g>
     </g>
     <g id="text_16">
      <!-- 0.0 -->
      <g transform="translate(49.096875 367.489219) scale(0.1 -0.1)">
       <use xlink:href="#DejaVuSans-30"/>
       <use xlink:href="#DejaVuSans-2e" x="63.623047"/>
       <use xlink:href="#DejaVuSans-30" x="95.410156"/>
      </g>
     </g>
    </g>
    <g id="ytick_2">
     <g id="line2d_31">
      <path d="M 72 311.715 
L 518.4 311.715 
" clip-path="url(#pe484ce7cc7)" style="fill: none; stroke: #b0b0b0; stroke-width: 0.8; stroke-linecap: square"/>
     </g>
     <g id="line2d_32">
      <g>
       <use xlink:href="#m44295588e5" x="72" y="311.715" style="stroke: #000000; stroke-width: 0.8"/>
      </g>
     </g>
     <g id="text_17">
      <!-- 0.5 -->
      <g transform="translate(49.096875 315.514219) scale(0.1 -0.1)">
       <use xlink:href="#DejaVuSans-30"/>
       <use xlink:href="#DejaVuSans-2e" x="63.623047"/>
       <use xlink:href="#DejaVuSans-35" x="95.410156"/>
      </g>
     </g>
    </g>
    <g id="ytick_3">
     <g id="line2d_33">
      <path d="M 72 259.74 
L 518.4 259.74 
" clip-path="url(#pe484ce7cc7)" style="fill: none; stroke: #b0b0b0; stroke-width: 0.8; stroke-linecap: square"/>
     </g>
     <g id="line2d_34">
      <g>
       <use xlink:href="#m44295588e5" x="72" y="259.74" style="stroke: #000000; stroke-width: 0.8"/>
      </g>
     </g>
     <g id="text_18">
      <!-- 1.0 -->
      <g transform="translate(49.096875 263.539219) scale(0.1 -0.1)">
       <use xlink:href="#DejaVuSans-31"/>
       <use xlink:href="#DejaVuSans-2e" x="63.623047"/>
       <use xlink:href="#DejaVuSans-30" x="95.410156"/>
      </g>
     </g>
    </g>
    <g id="ytick_4">
     <g id="line2d_35">
      <path d="M 72 207.765 
L 518.4 207.765 
" clip-path="url(#pe484ce7cc7)" style="fill: none; stroke: #b0b0b0; stroke-width: 0.8; stroke-linecap: square"/>
     </g>
     <g id="line2d_36">
      <g>
       <use xlink:href="#m44295588e5" x="72" y="207.765" style="stroke: #000000; stroke-width: 0.8"/>
      </g>
     </g>
     <g id="text_19">
      <!-- 1.5 -->
      <g transform="translate(49.096875 211.564219) scale(0.1 -0.1)">
       <use xlink:href="#DejaVuSans-31"/>
       <use xlink:href="#DejaVuSans-2e" x="63.623047"/>
       <use xlink:href="#DejaVuSans-35" x="95.410156"/>
      </g>
     </g>
    </g>
    <g id="ytick_5">
     <g id="line2d_37">
      <path d="M 72 155.79 
L 518.4 155.79 
" clip-path="url(#pe484ce7cc7)" style="fill: none; stroke: #b0b0b0; stroke-width: 0.8; stroke-linecap: square"/>
     </g>
     <g id="line2d_38">
      <g>
       <use xlink:href="#m44295588e5" x="72" y="155.79" style="stroke: #000000; stroke-width: 0.8"/>
      </g>
     </g>
     <g id="text_20">
      <!-- 2.0 -->
      <g transform="translate(49.096875 159.589219) scale(0.1 -0.1)">
       <use xlink:href="#DejaVuSans-32"/>
       <use xlink:href="#DejaVuSans-2e" x="63.623047"/>
       <use xlink:href="#DejaVuSans-30" x="95.410156"/>
      </g>
     </g>
    </g>
    <g id="ytick_6">
     <g id="line2d_39">
      <path d="M 72 103.815 
L 518.4 103.815 
" clip-path="url(#pe484ce7cc7)" style="fill: none; stroke: #b0b0b0; stroke-width: 0.8; stroke-linecap: square"/>
     </g>
     <g id="line2d_40">
      <g>
       <use xlink:href="#m44295588e5" x="72" y="103.815" style="stroke: #000000; stroke-width: 0.8"/>
      </g>
     </g>
     <g id="text_21">
      <!-- 2.5 -->
      <g transform="translate(49.096875 107.614219) scale(0.1 -0.1)">
       <use xlink:href="#DejaVuSans-32"/>
       <use xlink:href="#DejaVuSans-2e" x="63.623047"/>
       <use xlink:href="#DejaVuSans-35" x="95.410156"/>
      </g>
     </g>
    </g>
    <g id="ytick_7">
     <g id="line2d_41">
      <path d="M 72 51.84 
L 518.4 51.84 
" clip-path="url(#pe484ce7cc7)" style="fill: none; stroke: #b0b0b0; stroke-width: 0.8; stroke-linecap: square"/>
     </g>
     <g id="line2d_42">
      <g>
       <use xlink:href="#m44295588e5" x="72" y="51.84" style="stroke: #000000; stroke-width: 0.8"/>
      </g>
     </g>
     <g id="text_22">
      <!-- 3.0 -->
      <g transform="translate(49.096875 55.639219) scale(0.1 -0.1)">
       <use xlink:href="#DejaVuSans-33"/>
       <use xlink:href="#DejaVuSans-2e" x="63.623047"/>
       <use xlink:href="#DejaVuSans-30" x="95.410156"/>
      </g>
     </g>
    </g>
    <g id="text_23">
     <!-- blank corrected OD600 -->
     <g transform="translate(43.017187 276.115469) rotate(-90) scale(0.1 -0.1)">
      <defs>
       <path id="DejaVuSans-62" d="M 3116 1747 
Q 3116 2381 2855 2742 
Q 2594 3103 2138 3103 
Q 1681 3103 1420 2742 
Q 1159 2381 1159 1747 
Q 1159 1113 1420 752 
Q 1681 391 2138 391 
Q 2594 391 2855 752 
Q 3116 1113 3116 1747 
z
M 1159 2969 
Q 1341 3281 1617 3432 
Q 1894 3584 2278 3584 
Q 2916 3584 3314 3078 
Q 3713 2572 3713 1747 
Q 3713 922 3314 415 
Q 2916 -91 2278 -91 
Q 1894 -91 1617 61 
Q 1341 213 1159 525 
L 1159 0 
L 581 0 
L 581 4863 
L 1159 4863 
L 1159 2969 
z
" transform="scale(0.015625)"/>
       <path id="DejaVuSans-6c" d="M 603 4863 
L 1178 4863 
L 1178 0 
L 603 0 
L 603 4863 
z
" transform="scale(0.015625)"/>
       <path id="DejaVuSans-61" d="M 2194 1759 
Q 1497 1759 1228 1600 
Q 959 1441 959 1056 
Q 959 750 1161 570 
Q 1363 391 1709 391 
Q 2188 391 2477 730 
Q 2766 1069 2766 1631 
L 2766 1759 
L 2194 1759 
z
M 3341 1997 
L 3341 0 
L 2766 0 
L 2766 531 
Q 2569 213 2275 61 
Q 1981 -91 1556 -91 
Q 1019 -91 701 211 
Q 384 513 384 1019 
Q 384 1609 779 1909 
Q 1175 2209 1959 2209 
L 2766 2209 
L 2766 2266 
Q 2766 2663 2505 2880 
Q 2244 3097 1772 3097 
Q 1472 3097 1187 3025 
Q 903 2953 641 2809 
L 641 3341 
Q 956 3463 1253 3523 
Q 1550 3584 1831 3584 
Q 2591 3584 2966 3190 
Q 3341 2797 3341 1997 
z
" transform="scale(0.015625)"/>
       <path id="DejaVuSans-6b" d="M 581 4863 
L 1159 4863 
L 1159 1991 
L 2875 3500 
L 3609 3500 
L 1753 1863 
L 3688 0 
L 2938 0 
L 1159 1709 
L 1159 0 
L 581 0 
L 581 4863 
z
" transform="scale(0.015625)"/>
       <path id="DejaVuSans-63" d="M 3122 3366 
L 3122 2828 
Q 2878 2963 2633 3030 
Q 2388 3097 2138 3097 
Q 1578 3097 1268 2742 
Q 959 2388 959 1747 
Q 959 1106 1268 751 
Q 1578 397 2138 397 
Q 2388 397 2633 464 
Q 2878 531 3122 666 
L 3122 134 
Q 2881 22 2623 -34 
Q 2366 -91 2075 -91 
Q 1284 -91 818 406 
Q 353 903 353 1747 
Q 353 2603 823 3093 
Q 1294 3584 2113 3584 
Q 2378 3584 2631 3529 
Q 2884 3475 3122 3366 
z
" transform="scale(0.015625)"/>
       <path id="DejaVuSans-64" d="M 2906 2969 
L 2906 4863 
L 3481 4863 
L 3481 0 
L 2906 0 
L 2906 525 
Q 2725 213 2448 61 
Q 2172 -91 1784 -91 
Q 1150 -91 751 415 
Q 353 922 353 1747 
Q 353 2572 751 3078 
Q 1150 3584 1784 3584 
Q 2172 3584 2448 3432 
Q 2725 3281 2906 2969 
z
M 947 1747 
Q 947 1113 1208 752 
Q 1469 391 1925 391 
Q 2381 391 2643 752 
Q 2906 1113 2906 1747 
Q 2906 2381 2643 2742 
Q 2381 3103 1925 3103 
Q 1469 3103 1208 2742 
Q 947 2381 947 1747 
z
" transform="scale(0.015625)"/>
       <path id="DejaVuSans-4f" d="M 2522 4238 
Q 1834 4238 1429 3725 
Q 1025 3213 1025 2328 
Q 1025 1447 1429 934 
Q 1834 422 2522 422 
Q 3209 422 3611 934 
Q 4013 1447 4013 2328 
Q 4013 3213 3611 3725 
Q 3209 4238 2522 4238 
z
M 2522 4750 
Q 3503 4750 4090 4092 
Q 4678 3434 4678 2328 
Q 4678 1225 4090 567 
Q 3503 -91 2522 -91 
Q 1538 -91 948 565 
Q 359 1222 359 2328 
Q 359 3434 948 4092 
Q 1538 4750 2522 4750 
z
" transform="scale(0.015625)"/>
       <path id="DejaVuSans-44" d="M 1259 4147 
L 1259 519 
L 2022 519 
Q 2988 519 3436 956 
Q 3884 1394 3884 2338 
Q 3884 3275 3436 3711 
Q 2988 4147 2022 4147 
L 1259 4147 
z
M 628 4666 
L 1925 4666 
Q 3281 4666 3915 4102 
Q 4550 3538 4550 2338 
Q 4550 1131 3912 565 
Q 3275 0 1925 0 
L 628 0 
L 628 4666 
z
" transform="scale(0.015625)"/>
      </defs>
      <use xlink:href="#DejaVuSans-62"/>
      <use xlink:href="#DejaVuSans-6c" x="63.476562"/>
      <use xlink:href="#DejaVuSans-61" x="91.259766"/>
      <use xlink:href="#DejaVuSans-6e" x="152.539062"/>
      <use xlink:href="#DejaVuSans-6b" x="215.917969"/>
      <use xlink:href="#DejaVuSans-20" x="273.828125"/>
      <use xlink:href="#DejaVuSans-63" x="305.615234"/>
      <use xlink:href="#DejaVuSans-6f" x="360.595703"/>
      <use xlink:href="#DejaVuSans-72" x="421.777344"/>
      <use xlink:href="#DejaVuSans-72" x="461.140625"/>
      <use xlink:href="#DejaVuSans-65" x="500.003906"/>
      <use xlink:href="#DejaVuSans-63" x="561.527344"/>
      <use xlink:href="#DejaVuSans-74" x="616.507812"/>
      <use xlink:href="#DejaVuSans-65" x="655.716797"/>
      <use xlink:href="#DejaVuSans-64" x="717.240234"/>
      <use xlink:href="#DejaVuSans-20" x="780.716797"/>
      <use xlink:href="#DejaVuSans-4f" x="812.503906"/>
      <use xlink:href="#DejaVuSans-44" x="891.214844"/>
      <use xlink:href="#DejaVuSans-36" x="968.216797"/>
      <use xlink:href="#DejaVuSans-30" x="1031.839844"/>
      <use xlink:href="#DejaVuSans-30" x="1095.462891"/>
     </g>
    </g>
   </g>
   <g id="line2d_43">
    <path d="M 92.290909 354.769011 
L 93.055162 355.704561 
L 93.819414 355.704561 
L 96.112173 354.976911 
L 96.876425 354.561111 
L 98.404931 354.145311 
L 99.169183 353.417661 
L 100.697689 352.793961 
L 101.461941 352.793961 
L 103.7547 351.338661 
L 104.518952 350.403111 
L 106.047458 350.091261 
L 106.81171 349.051761 
L 107.575963 349.363611 
L 108.340216 348.635961 
L 109.104468 347.700411 
L 110.632974 347.180661 
L 111.397227 346.453011 
L 112.925732 344.685861 
L 113.689985 344.166111 
L 114.454237 343.230561 
L 115.982743 341.879211 
L 116.746995 340.319961 
L 118.275501 338.448861 
L 119.804006 337.513311 
L 120.568259 337.097511 
L 121.332512 336.265911 
L 122.096764 334.914561 
L 122.861017 334.082961 
L 123.62527 333.043461 
L 124.389522 332.315811 
L 125.153775 330.860511 
L 125.918028 330.028911 
L 126.68228 328.573611 
L 127.446533 327.742011 
L 128.210786 326.182761 
L 128.975039 324.935361 
L 129.739291 323.376111 
L 130.503544 321.401061 
L 131.267797 320.673411 
L 132.032049 319.426011 
L 132.796302 317.658861 
L 133.560555 316.307511 
L 136.617565 312.253461 
L 137.381818 310.694211 
L 138.146071 308.823111 
L 139.674576 305.912511 
L 141.203082 302.066361 
L 141.967334 300.611061 
L 142.731587 298.739961 
L 143.49584 295.309611 
L 145.788598 287.825211 
L 148.081356 280.548711 
L 149.609861 277.430211 
L 150.374114 274.311711 
L 151.138367 272.232711 
L 151.902619 270.569511 
L 155.723883 263.708811 
L 157.252388 259.446861 
L 158.016641 256.536261 
L 158.780894 254.769111 
L 159.545146 251.962461 
L 160.309399 249.675561 
L 161.073652 248.324211 
L 162.602157 244.582011 
L 163.36641 242.399061 
L 164.130663 240.631911 
L 166.423421 236.681811 
L 167.187673 234.290961 
L 169.480431 229.197411 
L 171.77319 221.609061 
L 172.537442 219.634011 
L 173.301695 217.139211 
L 176.358706 209.135061 
L 177.122958 208.303461 
L 177.887211 207.160011 
L 178.651464 205.392861 
L 180.179969 202.690161 
L 180.944222 200.091411 
L 181.708475 198.740061 
L 182.472727 196.037361 
L 183.23698 194.062311 
L 184.001233 192.814911 
L 184.765485 190.631961 
L 185.529738 188.864811 
L 186.293991 187.721361 
L 187.822496 183.979161 
L 188.586749 182.835711 
L 189.351002 182.523861 
L 190.115254 180.548811 
L 190.879507 180.652761 
L 191.64376 179.717211 
L 192.408012 179.405361 
L 193.172265 179.509311 
L 193.936518 178.781661 
L 195.465023 178.469811 
L 196.229276 176.598711 
L 196.993529 176.286861 
L 197.757781 174.415761 
L 198.522034 173.480211 
L 199.286287 172.232811 
L 200.814792 169.010361 
L 201.579045 168.802461 
L 202.343297 167.970861 
L 203.10755 167.659011 
L 203.871803 166.723461 
L 204.636055 165.580011 
L 206.164561 165.683961 
L 206.928814 164.748411 
L 207.693066 164.852361 
L 208.457319 163.812861 
L 209.221572 162.461511 
L 209.985824 162.253611 
L 210.750077 160.902261 
L 213.042835 157.783761 
L 214.571341 155.081061 
L 215.335593 155.081061 
L 216.099846 154.769211 
L 216.864099 153.209961 
L 217.628351 153.521811 
L 218.392604 154.561311 
L 219.156857 153.313911 
L 219.921109 153.521811 
L 220.685362 153.002061 
L 221.449615 153.106011 
L 222.213867 152.690211 
L 222.97812 152.482311 
L 223.742373 151.027011 
L 224.506626 151.338861 
L 225.270878 150.715161 
L 226.035131 149.675661 
L 226.799384 148.220361 
L 229.092142 145.517661 
L 229.856394 145.517661 
L 230.620647 144.686061 
L 231.3849 144.582111 
L 232.149153 145.309761 
L 232.913405 145.621611 
L 233.677658 145.309761 
L 234.441911 144.790011 
L 235.206163 144.686061 
L 235.970416 144.893961 
L 236.734669 143.438661 
L 237.498921 143.542611 
L 238.263174 143.230761 
L 239.027427 142.295211 
L 240.555932 138.656961 
L 241.320185 139.696461 
L 242.084438 138.449061 
L 242.84869 138.760911 
L 243.612943 138.345111 
L 244.377196 136.889811 
L 245.141448 138.656961 
L 245.905701 137.929311 
L 246.669954 138.137211 
L 248.198459 137.409561 
L 248.962712 137.617461 
L 249.726965 136.993761 
L 250.491217 135.850311 
L 251.25547 136.993761 
L 252.019723 134.914761 
L 252.783975 134.291061 
L 253.548228 133.147611 
L 254.312481 132.627861 
L 255.076733 131.172561 
L 255.840986 130.548861 
L 257.369492 130.548861 
L 258.133744 130.756761 
L 258.897997 129.301461 
L 259.66225 130.029111 
L 260.426502 129.925161 
L 261.190755 130.444911 
L 261.955008 129.925161 
L 262.71926 128.677761 
L 263.483513 128.885661 
L 265.012018 126.286911 
L 265.776271 126.702711 
L 266.540524 124.727661 
L 267.304777 124.415811 
L 268.069029 122.336811 
L 268.833282 122.336811 
L 269.597535 120.673611 
L 270.361787 120.049911 
L 271.12604 121.193361 
L 271.890293 121.297311 
L 272.654545 120.673611 
L 273.418798 119.738061 
L 274.947304 121.193361 
L 275.711556 119.945961 
L 276.475809 119.426211 
L 277.240062 120.049911 
L 278.004314 117.866961 
L 278.768567 117.659061 
L 279.53282 117.243261 
L 280.297072 117.970911 
L 281.061325 115.372161 
L 281.825578 114.124761 
L 282.589831 113.189211 
L 283.354083 112.877361 
L 284.118336 113.189211 
L 285.646841 112.149711 
L 286.411094 113.085261 
L 287.175347 112.253661 
L 287.939599 111.941811 
L 288.703852 110.590461 
L 289.468105 110.278611 
L 290.232357 111.006261 
L 290.99661 110.694411 
L 292.525116 109.758861 
L 293.289368 108.511461 
L 294.053621 106.640361 
L 294.817874 104.457411 
L 295.582126 103.937661 
L 296.346379 104.873211 
L 297.110632 102.794211 
L 297.874884 102.898161 
L 298.639137 102.482361 
L 299.40339 100.819161 
L 300.167643 102.586311 
L 300.931895 100.403361 
L 301.696148 99.571761 
L 302.460401 100.715211 
L 303.224653 99.987561 
L 303.988906 99.987561 
L 305.517411 97.804611 
L 306.281664 98.116461 
L 307.045917 96.869061 
L 307.810169 94.374261 
L 308.574422 95.517711 
L 309.338675 96.141411 
L 310.102928 92.087361 
L 310.86718 94.790061 
L 311.631433 93.022911 
L 312.395686 94.478211 
L 313.159938 94.478211 
L 313.924191 93.958461 
L 314.688444 93.022911 
L 315.452696 94.062411 
L 316.216949 94.062411 
L 316.981202 92.815011 
L 317.745455 92.503161 
L 318.509707 90.632061 
L 319.27396 91.567611 
L 320.038213 90.528111 
L 320.802465 90.528111 
L 321.566718 91.151811 
L 322.330971 89.384661 
L 323.095223 86.993811 
L 323.859476 86.993811 
L 324.623729 88.137261 
L 325.387982 87.305661 
L 326.152234 86.266161 
L 326.916487 86.266161 
L 327.68074 87.617511 
L 328.444992 87.825411 
L 329.209245 88.241211 
L 329.973498 85.226661 
L 330.73775 86.889861 
L 331.502003 85.954311 
L 332.266256 86.058261 
L 333.030508 83.875311 
L 333.794761 85.954311 
L 334.559014 84.602961 
L 335.323267 84.602961 
L 336.087519 85.018761 
L 336.851772 83.147661 
L 337.616025 82.420011 
L 338.380277 81.484461 
L 339.14453 83.771361 
L 339.908783 83.043711 
L 340.673035 83.355561 
L 341.437288 85.226661 
L 342.201541 84.706911 
L 342.965794 83.147661 
L 343.730046 83.667411 
L 344.494299 85.434561 
L 345.258552 83.979261 
L 346.022804 83.043711 
L 346.787057 84.187161 
L 347.55131 84.083211 
L 348.315562 83.251611 
L 349.079815 83.459511 
L 349.844068 80.133111 
L 350.60832 81.692361 
L 351.372573 80.964711 
L 352.136826 81.692361 
L 352.901079 82.835811 
L 353.665331 81.796311 
L 354.429584 80.548911 
L 355.193837 81.484461 
L 355.958089 83.875311 
L 356.722342 83.251611 
L 357.486595 83.459511 
L 358.250847 82.316061 
L 359.0151 83.771361 
L 359.779353 82.939761 
L 360.543606 82.731861 
L 361.307858 83.355561 
L 362.072111 80.964711 
L 362.836364 81.900261 
L 363.600616 82.212111 
L 364.364869 81.380511 
L 365.129122 80.341011 
L 365.893374 80.964711 
L 366.657627 78.989661 
L 367.42188 83.459511 
L 368.950385 81.900261 
L 369.714638 82.627911 
L 370.478891 80.964711 
L 371.243143 84.291111 
L 372.007396 83.563461 
L 372.771649 81.068661 
L 373.535901 80.964711 
L 374.300154 82.108161 
L 375.064407 82.939761 
L 375.828659 80.133111 
L 376.592912 82.316061 
L 377.357165 80.341011 
L 378.121418 80.548911 
L 378.88567 78.885711 
L 379.649923 81.692361 
L 380.414176 81.588411 
L 381.178428 81.796311 
L 382.706934 83.251611 
L 383.471186 82.835811 
L 384.235439 83.043711 
L 384.999692 82.108161 
L 385.763945 84.187161 
L 386.528197 82.523961 
L 387.29245 84.083211 
L 388.056703 83.043711 
L 388.820955 83.251611 
L 389.585208 83.771361 
L 390.349461 83.251611 
L 391.113713 83.771361 
L 391.877966 81.484461 
L 392.642219 83.147661 
L 393.406471 82.939761 
L 394.170724 82.108161 
L 394.934977 84.499011 
L 395.69923 82.212111 
L 396.463482 85.330611 
L 397.227735 85.018761 
L 397.991988 85.746411 
L 398.75624 84.706911 
L 399.520493 83.459511 
L 400.284746 83.355561 
L 401.048998 84.395061 
L 401.813251 83.459511 
L 402.577504 84.083211 
L 403.341757 84.291111 
L 404.106009 83.355561 
L 404.870262 82.939761 
L 405.634515 83.147661 
L 406.398767 85.226661 
L 407.16302 82.420011 
L 407.927273 84.291111 
L 408.691525 82.835811 
L 409.455778 85.226661 
L 410.220031 85.330611 
L 410.984284 84.914811 
L 411.748536 87.097761 
L 412.512789 87.825411 
L 413.277042 85.330611 
L 414.041294 84.187161 
L 414.805547 86.474061 
L 415.5698 85.954311 
L 416.334052 86.681961 
L 417.098305 87.097761 
L 417.862558 85.642461 
L 418.62681 87.409611 
L 420.155316 84.602961 
L 420.919569 84.810861 
L 421.683821 83.875311 
L 422.448074 86.993811 
L 423.212327 87.721461 
L 423.976579 87.305661 
L 424.740832 88.033311 
L 425.505085 84.499011 
L 426.269337 87.513561 
L 427.03359 86.993811 
L 427.797843 86.266161 
L 428.562096 87.617511 
L 429.326348 86.162211 
L 430.090601 87.513561 
L 430.854854 86.681961 
L 431.619106 84.810861 
L 432.383359 86.370111 
L 433.147612 85.746411 
L 433.911864 86.993811 
L 434.676117 85.746411 
L 435.44037 88.657011 
L 436.204622 89.384661 
L 436.968875 89.488611 
L 437.733128 89.384661 
L 438.497381 88.657011 
L 439.261633 87.097761 
L 440.025886 90.320211 
L 440.790139 89.800461 
L 441.554391 88.345161 
L 442.318644 89.904411 
L 443.082897 89.072811 
L 443.847149 90.632061 
L 444.611402 89.280711 
L 445.375655 89.696511 
L 446.139908 87.721461 
L 446.90416 89.280711 
L 447.668413 88.137261 
L 448.432666 88.553061 
L 449.196918 88.657011 
L 449.961171 88.033311 
L 450.725424 90.736011 
L 451.489676 91.151811 
L 452.253929 90.736011 
L 453.018182 90.943911 
L 453.782435 90.528111 
L 454.546687 91.047861 
L 455.31094 89.488611 
L 456.075193 90.424161 
L 456.839445 91.775511 
L 457.603698 90.424161 
L 458.367951 89.904411 
L 459.132203 87.721461 
L 459.896456 89.280711 
L 460.660709 89.384661 
L 461.424961 88.553061 
L 462.189214 91.983411 
L 462.953467 90.112311 
L 463.71772 90.320211 
L 464.481972 90.736011 
L 465.246225 90.528111 
L 466.010478 91.879461 
L 466.77473 91.151811 
L 467.538983 92.295261 
L 468.303236 92.815011 
L 469.067488 93.750561 
L 469.831741 92.503161 
L 470.595994 89.904411 
L 471.360247 91.463661 
L 472.124499 92.399211 
L 472.888752 90.320211 
L 473.653005 90.943911 
L 475.18151 89.176761 
L 475.945763 89.280711 
L 476.710015 92.815011 
L 477.474268 92.295261 
L 478.238521 89.696511 
L 479.002773 92.087361 
L 479.767026 91.255761 
L 480.531279 94.374261 
L 482.059784 92.191311 
L 482.824037 93.334761 
L 483.58829 93.542661 
L 484.352542 91.359711 
L 485.116795 93.438711 
L 485.881048 93.230811 
L 486.6453 92.295261 
L 487.409553 93.542661 
L 488.173806 92.503161 
L 488.938059 91.047861 
L 489.702311 90.528111 
L 490.466564 91.463661 
L 491.230817 91.879461 
L 491.995069 90.943911 
L 493.523575 93.230811 
L 494.287827 93.022911 
L 495.05208 94.166361 
L 495.816333 94.478211 
L 496.580586 91.775511 
L 497.344838 94.478211 
L 498.109091 94.374261 
L 498.109091 94.374261 
" clip-path="url(#pe484ce7cc7)" style="fill: none; stroke: #0000ff; stroke-opacity: 0.5; stroke-width: 1.5; stroke-linecap: square"/>
   </g>
   <g id="line2d_44">
    <path d="M 92.290909 354.249261 
L 93.055162 356.224311 
L 94.583667 356.016411 
L 96.876425 354.872961 
L 98.404931 354.457161 
L 99.933436 353.625561 
L 100.697689 353.521611 
L 102.226194 352.690011 
L 102.990447 352.482111 
L 103.7547 351.962361 
L 104.518952 350.714961 
L 105.283205 350.922861 
L 106.047458 350.714961 
L 106.81171 349.779411 
L 107.575963 349.675461 
L 109.104468 348.532011 
L 109.868721 348.220161 
L 111.397227 347.076711 
L 112.925732 345.517461 
L 113.689985 345.101661 
L 114.454237 344.062161 
L 115.21849 343.646361 
L 115.982743 342.710811 
L 116.746995 341.463411 
L 117.511248 341.047611 
L 118.275501 340.112061 
L 119.039753 339.592311 
L 121.332512 337.409361 
L 122.096764 336.161961 
L 125.153775 332.523711 
L 125.918028 330.964461 
L 126.68228 330.236811 
L 128.210786 328.053861 
L 128.975039 327.014361 
L 129.739291 325.663011 
L 130.503544 323.376111 
L 131.267797 322.856361 
L 132.032049 321.297111 
L 132.796302 320.049711 
L 133.560555 317.658861 
L 134.324807 317.970711 
L 139.674576 307.783611 
L 141.203082 304.041411 
L 141.967334 302.482161 
L 142.731587 300.403161 
L 143.49584 296.764911 
L 145.788598 289.696311 
L 146.552851 286.785711 
L 147.317103 285.018561 
L 148.081356 282.731661 
L 148.845609 281.796111 
L 149.609861 279.925011 
L 150.374114 277.014411 
L 151.138367 276.702561 
L 151.902619 274.207761 
L 152.666872 273.480111 
L 153.431125 272.336661 
L 154.95963 268.906311 
L 155.723883 267.451011 
L 157.252388 263.189061 
L 158.016641 259.966611 
L 161.073652 251.754561 
L 161.837904 250.819011 
L 163.36641 248.012361 
L 164.130663 246.141261 
L 165.659168 243.438561 
L 166.423421 242.087211 
L 167.187673 239.696361 
L 167.951926 237.929211 
L 168.716179 236.473911 
L 170.244684 231.692211 
L 171.008937 229.925061 
L 171.77319 226.598661 
L 172.537442 224.727561 
L 173.301695 222.336711 
L 174.8302 219.010311 
L 175.594453 217.762911 
L 176.358706 216.203661 
L 177.122958 215.476011 
L 179.415716 209.342961 
L 180.179969 207.991611 
L 180.944222 205.184961 
L 181.708475 203.625711 
L 182.472727 201.442761 
L 183.23698 198.844011 
L 184.001233 197.284761 
L 184.765485 194.582061 
L 186.293991 191.879361 
L 187.058243 189.592461 
L 187.822496 188.241111 
L 188.586749 187.825311 
L 189.351002 187.201611 
L 190.115254 185.538411 
L 190.879507 186.473961 
L 191.64376 185.538411 
L 193.172265 185.330511 
L 194.70077 183.771261 
L 195.465023 183.459411 
L 196.229276 181.796211 
L 196.993529 181.172511 
L 197.757781 178.365861 
L 198.522034 178.365861 
L 199.286287 176.702661 
L 200.050539 175.559211 
L 200.814792 173.584161 
L 201.579045 173.064411 
L 203.10755 172.648611 
L 204.636055 171.401211 
L 205.400308 171.089361 
L 206.164561 171.297261 
L 206.928814 169.738011 
L 207.693066 169.114311 
L 208.457319 168.282711 
L 209.221572 166.827411 
L 209.985824 166.203711 
L 210.750077 165.060261 
L 212.278582 163.501011 
L 213.042835 162.253611 
L 214.571341 159.343011 
L 215.335593 159.654861 
L 216.099846 159.654861 
L 216.864099 158.511411 
L 217.628351 158.719311 
L 218.392604 159.343011 
L 219.156857 158.095611 
L 219.921109 157.783761 
L 220.685362 156.328461 
L 222.213867 156.640311 
L 222.97812 155.912661 
L 223.742373 154.769211 
L 225.270878 153.002061 
L 226.035131 151.858611 
L 226.799384 150.507261 
L 227.563636 150.507261 
L 228.327889 149.363811 
L 229.856394 149.259861 
L 230.620647 150.091461 
L 231.3849 149.363811 
L 232.149153 149.363811 
L 232.913405 148.220361 
L 233.677658 148.636161 
L 234.441911 147.492711 
L 235.206163 147.388761 
L 235.970416 146.765061 
L 236.734669 146.557161 
L 237.498921 145.309761 
L 239.027427 145.205811 
L 239.79168 143.022861 
L 240.555932 141.775461 
L 241.320185 142.191261 
L 242.084438 141.567561 
L 242.84869 141.671511 
L 243.612943 142.295211 
L 244.377196 140.943861 
L 245.141448 141.567561 
L 245.905701 141.463611 
L 246.669954 141.151761 
L 247.434206 140.008311 
L 248.198459 139.384611 
L 248.962712 139.904361 
L 249.726965 139.488561 
L 250.491217 137.929311 
L 251.25547 138.760911 
L 252.019723 137.097711 
L 252.783975 136.577961 
L 253.548228 135.642411 
L 254.312481 135.642411 
L 255.076733 133.459461 
L 255.840986 132.731811 
L 256.605239 133.355511 
L 257.369492 133.667361 
L 258.133744 133.251561 
L 258.897997 133.355511 
L 259.66225 132.523911 
L 260.426502 132.939711 
L 261.190755 131.484411 
L 261.955008 131.692311 
L 262.71926 131.484411 
L 264.247766 128.989611 
L 265.012018 129.509361 
L 265.776271 128.677761 
L 266.540524 127.014561 
L 267.304777 126.286911 
L 268.069029 124.519761 
L 268.833282 124.519761 
L 270.361787 122.856561 
L 271.12604 122.544711 
L 271.890293 124.415811 
L 272.654545 124.311861 
L 273.418798 123.376311 
L 274.183051 123.376311 
L 274.947304 122.752611 
L 275.711556 122.544711 
L 276.475809 120.361761 
L 278.004314 119.218311 
L 278.768567 120.777561 
L 279.53282 118.594611 
L 280.297072 118.698561 
L 281.061325 116.515611 
L 281.825578 117.035361 
L 282.589831 116.307711 
L 283.354083 115.372161 
L 284.118336 116.203761 
L 284.882589 114.644511 
L 285.646841 114.852411 
L 286.411094 115.372161 
L 287.175347 114.436611 
L 287.939599 113.812911 
L 288.703852 112.669461 
L 289.468105 112.357611 
L 290.232357 112.669461 
L 290.99661 112.565511 
L 292.525116 110.486511 
L 293.289368 111.318111 
L 294.053621 109.031211 
L 294.817874 107.264061 
L 295.582126 107.471961 
L 297.110632 105.081111 
L 297.874884 106.016661 
L 298.639137 106.120611 
L 299.40339 103.729761 
L 300.167643 103.210011 
L 301.696148 103.210011 
L 302.460401 101.442861 
L 303.224653 101.754711 
L 303.988906 100.611261 
L 305.517411 97.700661 
L 306.281664 98.428311 
L 307.045917 97.908561 
L 307.810169 96.141411 
L 308.574422 97.284861 
L 309.338675 97.076961 
L 310.102928 94.582161 
L 310.86718 95.621661 
L 311.631433 96.453261 
L 312.395686 96.765111 
L 313.159938 95.101911 
L 313.924191 94.582161 
L 314.688444 93.126861 
L 315.452696 94.374261 
L 316.216949 92.607111 
L 317.745455 93.126861 
L 318.509707 90.839961 
L 319.27396 91.879461 
L 320.038213 91.879461 
L 320.802465 90.320211 
L 321.566718 90.528111 
L 322.330971 90.528111 
L 323.095223 87.721461 
L 323.859476 88.864911 
L 324.623729 87.305661 
L 325.387982 89.176761 
L 326.152234 87.201711 
L 326.916487 87.617511 
L 327.68074 89.072811 
L 328.444992 88.968861 
L 329.209245 89.696511 
L 329.973498 86.889861 
L 330.73775 89.072811 
L 331.502003 86.370111 
L 332.266256 85.226661 
L 333.030508 85.850361 
L 333.794761 85.434561 
L 334.559014 84.291111 
L 335.323267 83.979261 
L 336.087519 85.122711 
L 336.851772 84.810861 
L 337.616025 85.122711 
L 338.380277 84.395061 
L 339.14453 84.810861 
L 339.908783 86.785911 
L 340.673035 84.602961 
L 342.201541 86.162211 
L 342.965794 84.706911 
L 343.730046 83.979261 
L 344.494299 84.499011 
L 346.022804 83.771361 
L 346.787057 84.914811 
L 347.55131 85.226661 
L 348.315562 83.459511 
L 349.079815 83.355561 
L 349.844068 81.484461 
L 350.60832 81.588411 
L 351.372573 82.731861 
L 352.136826 82.731861 
L 352.901079 83.355561 
L 354.429584 83.563461 
L 356.722342 82.731861 
L 357.486595 84.602961 
L 358.250847 82.731861 
L 359.0151 83.667411 
L 359.779353 84.291111 
L 360.543606 82.316061 
L 362.072111 81.484461 
L 362.836364 82.420011 
L 363.600616 81.172611 
L 365.129122 81.068661 
L 365.893374 82.212111 
L 366.657627 80.444961 
L 368.186133 83.043711 
L 369.714638 80.444961 
L 370.478891 81.588411 
L 371.243143 83.459511 
L 372.007396 83.147661 
L 372.771649 83.043711 
L 373.535901 83.563461 
L 374.300154 82.627911 
L 375.064407 84.187161 
L 375.828659 81.796311 
L 376.592912 80.964711 
L 377.357165 81.276561 
L 378.121418 80.237061 
L 378.88567 81.900261 
L 380.414176 82.835811 
L 381.178428 81.900261 
L 381.942681 83.355561 
L 383.471186 83.043711 
L 384.235439 81.276561 
L 384.999692 82.627911 
L 385.763945 83.563461 
L 386.528197 83.875311 
L 387.29245 83.875311 
L 388.820955 82.731861 
L 389.585208 83.043711 
L 390.349461 84.187161 
L 391.877966 81.796311 
L 392.642219 82.523961 
L 393.406471 83.875311 
L 394.170724 84.291111 
L 394.934977 83.043711 
L 395.69923 82.212111 
L 396.463482 83.251611 
L 397.227735 83.251611 
L 397.991988 85.850361 
L 398.75624 84.602961 
L 399.520493 83.771361 
L 400.284746 83.771361 
L 401.048998 84.499011 
L 401.813251 82.212111 
L 403.341757 85.122711 
L 404.106009 82.523961 
L 404.870262 85.122711 
L 405.634515 83.771361 
L 407.16302 83.667411 
L 407.927273 86.162211 
L 408.691525 84.291111 
L 409.455778 86.578011 
L 410.220031 84.187161 
L 410.984284 86.993811 
L 411.748536 86.993811 
L 412.512789 86.370111 
L 413.277042 86.058261 
L 414.041294 86.058261 
L 414.805547 87.513561 
L 415.5698 86.370111 
L 416.334052 88.033311 
L 417.098305 86.370111 
L 417.862558 86.681961 
L 418.62681 86.681961 
L 419.391063 86.370111 
L 420.155316 85.122711 
L 421.683821 84.395061 
L 423.212327 88.657011 
L 423.976579 85.538511 
L 424.740832 86.889861 
L 425.505085 85.122711 
L 426.269337 88.553061 
L 427.03359 87.825411 
L 427.797843 86.681961 
L 428.562096 86.370111 
L 429.326348 87.825411 
L 430.090601 87.097761 
L 430.854854 86.889861 
L 431.619106 84.499011 
L 432.383359 87.617511 
L 433.147612 85.954311 
L 433.911864 88.760961 
L 434.676117 86.785911 
L 435.44037 87.929361 
L 436.204622 88.241211 
L 436.968875 89.280711 
L 437.733128 87.929361 
L 438.497381 89.176761 
L 439.261633 88.760961 
L 440.025886 89.592561 
L 440.790139 88.033311 
L 441.554391 86.889861 
L 442.318644 89.488611 
L 443.082897 89.280711 
L 443.847149 90.112311 
L 444.611402 89.384661 
L 445.375655 87.513561 
L 446.139908 88.033311 
L 446.90416 87.201711 
L 447.668413 88.033311 
L 448.432666 88.033311 
L 449.196918 89.592561 
L 449.961171 88.033311 
L 450.725424 89.176761 
L 451.489676 91.463661 
L 452.253929 88.345161 
L 453.018182 90.320211 
L 453.782435 89.696511 
L 454.546687 89.280711 
L 455.31094 89.696511 
L 456.075193 89.904411 
L 456.839445 90.320211 
L 457.603698 88.241211 
L 458.367951 90.216261 
L 459.132203 87.617511 
L 459.896456 88.449111 
L 460.660709 88.241211 
L 461.424961 90.008361 
L 462.189214 89.696511 
L 462.953467 89.696511 
L 463.71772 90.736011 
L 464.481972 90.112311 
L 465.246225 89.176761 
L 466.010478 89.696511 
L 466.77473 90.943911 
L 467.538983 90.839961 
L 468.303236 91.359711 
L 469.067488 91.463661 
L 469.831741 90.528111 
L 471.360247 90.839961 
L 472.124499 90.424161 
L 472.888752 90.216261 
L 473.653005 89.592561 
L 474.417257 89.488611 
L 475.18151 89.800461 
L 475.945763 88.657011 
L 476.710015 91.983411 
L 477.474268 92.295261 
L 478.238521 90.736011 
L 479.002773 90.839961 
L 479.767026 91.463661 
L 480.531279 92.815011 
L 481.295532 92.711061 
L 482.059784 91.983411 
L 482.824037 92.295261 
L 483.58829 93.542661 
L 484.352542 90.736011 
L 485.116795 92.191311 
L 485.881048 92.191311 
L 487.409553 91.463661 
L 488.173806 90.320211 
L 488.938059 91.255761 
L 489.702311 91.463661 
L 490.466564 89.800461 
L 491.230817 90.528111 
L 491.995069 90.632061 
L 492.759322 90.424161 
L 493.523575 93.022911 
L 494.287827 92.711061 
L 495.05208 92.087361 
L 495.816333 93.230811 
L 496.580586 92.399211 
L 497.344838 93.438711 
L 498.109091 92.711061 
L 498.109091 92.711061 
" clip-path="url(#pe484ce7cc7)" style="fill: none; stroke: #0000ff; stroke-opacity: 0.5; stroke-width: 1.5; stroke-linecap: square"/>
   </g>
   <g id="line2d_45">
    <path d="M 92.290909 353.521611 
L 93.055162 355.704561 
L 93.819414 355.912461 
L 97.640678 354.457161 
L 98.404931 354.353211 
L 99.169183 353.521611 
L 101.461941 352.897911 
L 102.226194 351.754461 
L 102.990447 351.962361 
L 103.7547 351.650511 
L 104.518952 350.091261 
L 105.283205 350.507061 
L 106.047458 350.299161 
L 106.81171 349.571511 
L 107.575963 349.259661 
L 109.104468 348.116211 
L 109.868721 347.908311 
L 110.632974 347.076711 
L 111.397227 346.764861 
L 112.925732 345.205611 
L 113.689985 344.789811 
L 114.454237 343.646361 
L 115.21849 343.230561 
L 116.746995 341.151561 
L 117.511248 340.839711 
L 118.275501 339.800211 
L 119.039753 339.384411 
L 121.332512 336.889611 
L 122.096764 335.538261 
L 123.62527 333.979011 
L 124.389522 332.939511 
L 125.153775 331.484211 
L 126.68228 329.717061 
L 127.446533 328.573611 
L 128.210786 327.222261 
L 128.975039 327.222261 
L 130.503544 322.752411 
L 131.267797 322.024761 
L 133.560555 318.490461 
L 134.324807 317.658861 
L 135.853313 315.164061 
L 136.617565 313.916661 
L 137.381818 312.045561 
L 138.146071 310.694211 
L 142.731587 300.922911 
L 143.49584 297.492561 
L 145.024345 291.775311 
L 145.788598 290.112111 
L 146.552851 286.785711 
L 147.317103 285.330411 
L 148.081356 283.147461 
L 148.845609 282.211911 
L 149.609861 280.340811 
L 150.374114 277.534161 
L 152.666872 273.999861 
L 153.431125 272.960361 
L 154.195378 271.193211 
L 154.95963 268.386561 
L 155.723883 267.451011 
L 157.252388 262.981161 
L 158.016641 259.446861 
L 158.780894 257.471811 
L 159.545146 254.665161 
L 160.309399 253.105911 
L 161.073652 251.130861 
L 162.602157 248.843961 
L 163.36641 246.972861 
L 164.130663 246.037311 
L 164.894915 244.374111 
L 166.423421 242.087211 
L 167.187673 239.696361 
L 167.951926 238.345011 
L 169.480431 234.810711 
L 170.244684 231.380361 
L 171.008937 229.301361 
L 171.77319 226.182861 
L 172.537442 224.103861 
L 173.301695 221.609061 
L 174.065948 220.153761 
L 174.8302 218.386611 
L 177.887211 213.293061 
L 178.651464 210.902211 
L 179.415716 208.927161 
L 180.179969 207.679761 
L 180.944222 204.977061 
L 181.708475 203.833611 
L 183.23698 198.532161 
L 184.765485 194.789961 
L 186.293991 190.943811 
L 187.058243 188.968761 
L 187.822496 187.513461 
L 188.586749 187.201611 
L 190.115254 185.226561 
L 190.879507 186.370011 
L 191.64376 185.954211 
L 192.408012 185.850261 
L 193.172265 185.538411 
L 193.936518 184.706811 
L 194.70077 183.667311 
L 195.465023 183.147561 
L 196.993529 181.484361 
L 197.757781 178.365861 
L 198.522034 178.157961 
L 200.050539 175.455261 
L 200.814792 173.480211 
L 201.579045 173.272311 
L 202.343297 172.544661 
L 203.10755 172.648611 
L 203.871803 172.128861 
L 204.636055 171.817011 
L 205.400308 171.817011 
L 206.164561 171.297261 
L 206.928814 170.153811 
L 208.457319 168.490611 
L 209.985824 166.099761 
L 210.750077 165.683961 
L 211.51433 165.060261 
L 212.278582 163.293111 
L 213.042835 162.565461 
L 213.807088 161.110161 
L 214.571341 159.031161 
L 215.335593 159.343011 
L 216.099846 160.070661 
L 216.864099 158.719311 
L 217.628351 159.550911 
L 218.392604 159.758811 
L 219.156857 158.615361 
L 219.921109 158.095611 
L 220.685362 157.367961 
L 221.449615 157.575861 
L 222.213867 156.952161 
L 222.97812 157.056111 
L 223.742373 154.769211 
L 224.506626 154.873161 
L 225.270878 153.833661 
L 226.035131 153.417861 
L 226.799384 150.923061 
L 227.563636 150.715161 
L 228.327889 150.091461 
L 229.092142 150.299361 
L 229.856394 149.779611 
L 230.620647 150.923061 
L 231.3849 150.403311 
L 232.149153 150.195411 
L 232.913405 148.948011 
L 233.677658 149.467761 
L 234.441911 148.116411 
L 235.970416 147.596661 
L 237.498921 146.453211 
L 238.263174 146.453211 
L 239.027427 145.517661 
L 239.79168 143.854461 
L 240.555932 142.814961 
L 241.320185 143.126811 
L 242.084438 141.567561 
L 242.84869 142.399161 
L 243.612943 142.711011 
L 244.377196 142.399161 
L 245.141448 142.503111 
L 245.905701 141.879411 
L 246.669954 142.191261 
L 247.434206 140.735961 
L 248.198459 140.943861 
L 248.962712 139.280661 
L 249.726965 140.216211 
L 250.491217 138.968811 
L 251.25547 139.592511 
L 252.019723 137.825361 
L 252.783975 136.474011 
L 253.548228 136.993761 
L 254.312481 135.746361 
L 255.840986 134.291061 
L 256.605239 133.979211 
L 257.369492 134.706861 
L 258.133744 134.291061 
L 258.897997 134.291061 
L 259.66225 134.602911 
L 260.426502 135.226611 
L 261.190755 132.627861 
L 261.955008 132.316011 
L 262.71926 132.627861 
L 263.483513 131.276511 
L 267.304777 128.261961 
L 269.597535 124.415811 
L 270.361787 125.039511 
L 271.12604 126.390861 
L 271.890293 125.559261 
L 272.654545 125.767161 
L 273.418798 125.767161 
L 274.183051 125.039511 
L 274.947304 125.975061 
L 275.711556 124.935561 
L 277.240062 122.336811 
L 278.004314 121.713111 
L 278.768567 121.609161 
L 279.53282 122.024961 
L 280.297072 122.128911 
L 281.061325 119.738061 
L 281.825578 118.906461 
L 282.589831 118.594611 
L 283.354083 119.322261 
L 284.118336 118.490661 
L 284.882589 118.594611 
L 285.646841 118.282761 
L 287.175347 116.931411 
L 287.939599 116.827461 
L 288.703852 116.515611 
L 289.468105 115.995861 
L 290.232357 116.203761 
L 290.99661 115.580061 
L 291.760863 113.189211 
L 292.525116 115.787961 
L 293.289368 114.124761 
L 294.053621 111.837861 
L 294.817874 110.902311 
L 295.582126 111.941811 
L 296.346379 109.758861 
L 297.110632 108.927261 
L 298.639137 109.031211 
L 299.40339 108.927261 
L 300.167643 109.343061 
L 300.931895 107.679861 
L 302.460401 106.120611 
L 303.224653 107.160111 
L 303.988906 106.016661 
L 304.753159 104.561361 
L 305.517411 103.833711 
L 306.281664 103.417911 
L 307.045917 101.858661 
L 307.810169 99.363861 
L 308.574422 100.299411 
L 309.338675 99.779661 
L 310.102928 98.116461 
L 310.86718 99.571761 
L 311.631433 99.779661 
L 312.395686 98.636211 
L 313.159938 99.052011 
L 313.924191 98.428311 
L 314.688444 97.076961 
L 315.452696 98.116461 
L 316.216949 96.141411 
L 316.981202 97.284861 
L 317.745455 96.557211 
L 318.509707 93.646611 
L 320.038213 93.542661 
L 320.802465 93.230811 
L 321.566718 93.334761 
L 322.330971 92.295261 
L 323.095223 90.320211 
L 323.859476 91.047861 
L 324.623729 91.151811 
L 325.387982 91.567611 
L 326.916487 90.216261 
L 327.68074 92.295261 
L 328.444992 91.567611 
L 329.209245 93.438711 
L 329.973498 89.384661 
L 330.73775 90.528111 
L 331.502003 90.216261 
L 332.266256 88.137261 
L 333.030508 86.785911 
L 333.794761 86.681961 
L 334.559014 88.241211 
L 335.323267 87.617511 
L 336.087519 87.513561 
L 336.851772 84.499011 
L 338.380277 87.097761 
L 339.14453 86.474061 
L 339.908783 87.097761 
L 340.673035 87.201711 
L 341.437288 89.592561 
L 342.201541 88.345161 
L 342.965794 86.578011 
L 343.730046 87.305661 
L 344.494299 90.008361 
L 346.022804 84.914811 
L 346.787057 87.929361 
L 347.55131 88.657011 
L 348.315562 85.538511 
L 349.079815 83.667411 
L 350.60832 84.187161 
L 351.372573 82.627911 
L 352.136826 86.370111 
L 352.901079 85.018761 
L 353.665331 85.538511 
L 355.958089 84.706911 
L 356.722342 86.474061 
L 357.486595 85.018761 
L 358.250847 85.434561 
L 359.0151 86.474061 
L 359.779353 85.434561 
L 360.543606 84.810861 
L 361.307858 85.434561 
L 362.836364 83.563461 
L 363.600616 84.395061 
L 364.364869 84.914811 
L 365.129122 82.731861 
L 365.893374 84.706911 
L 366.657627 83.043711 
L 367.42188 83.563461 
L 368.186133 86.370111 
L 368.950385 83.251611 
L 369.714638 84.187161 
L 370.478891 83.875311 
L 371.243143 87.305661 
L 372.007396 85.954311 
L 372.771649 83.875311 
L 373.535901 85.746411 
L 374.300154 84.291111 
L 375.064407 85.018761 
L 375.828659 83.979261 
L 376.592912 85.434561 
L 377.357165 84.291111 
L 378.121418 84.706911 
L 378.88567 82.939761 
L 379.649923 84.810861 
L 380.414176 83.667411 
L 381.178428 85.538511 
L 381.942681 83.771361 
L 382.706934 86.578011 
L 383.471186 85.434561 
L 384.235439 84.706911 
L 384.999692 84.706911 
L 385.763945 86.474061 
L 386.528197 86.474061 
L 387.29245 86.681961 
L 388.056703 83.771361 
L 388.820955 85.226661 
L 389.585208 85.746411 
L 390.349461 86.474061 
L 391.113713 85.330611 
L 391.877966 83.355561 
L 392.642219 85.538511 
L 393.406471 85.538511 
L 394.934977 85.122711 
L 395.69923 83.771361 
L 396.463482 85.850361 
L 397.227735 84.187161 
L 397.991988 86.785911 
L 398.75624 85.746411 
L 399.520493 86.058261 
L 400.284746 85.538511 
L 401.048998 86.889861 
L 401.813251 85.850361 
L 402.577504 85.746411 
L 404.106009 86.681961 
L 404.870262 85.642461 
L 405.634515 85.642461 
L 406.398767 85.018761 
L 407.16302 83.563461 
L 407.927273 87.825411 
L 408.691525 86.370111 
L 409.455778 89.904411 
L 410.220031 86.266161 
L 410.984284 85.538511 
L 411.748536 87.305661 
L 412.512789 87.201711 
L 413.277042 87.513561 
L 414.041294 86.889861 
L 414.805547 88.449111 
L 415.5698 87.513561 
L 416.334052 87.929361 
L 417.098305 88.553061 
L 417.862558 87.929361 
L 418.62681 87.721461 
L 419.391063 86.889861 
L 420.155316 88.241211 
L 420.919569 86.889861 
L 421.683821 87.929361 
L 422.448074 89.696511 
L 423.212327 87.721461 
L 423.976579 86.993811 
L 424.740832 88.968861 
L 425.505085 86.681961 
L 426.269337 89.176761 
L 427.03359 88.760961 
L 427.797843 89.072811 
L 428.562096 88.760961 
L 429.326348 89.488611 
L 430.090601 89.176761 
L 430.854854 86.058261 
L 432.383359 88.760961 
L 433.147612 88.449111 
L 433.911864 87.617511 
L 434.676117 87.305661 
L 436.968875 91.567611 
L 437.733128 89.592561 
L 438.497381 89.384661 
L 439.261633 90.112311 
L 440.025886 91.151811 
L 440.790139 90.320211 
L 441.554391 88.760961 
L 442.318644 90.008361 
L 443.082897 90.216261 
L 443.847149 88.864911 
L 444.611402 88.345161 
L 445.375655 88.033311 
L 446.139908 88.033311 
L 446.90416 89.592561 
L 447.668413 87.721461 
L 448.432666 88.345161 
L 449.196918 90.008361 
L 449.961171 89.800461 
L 450.725424 90.112311 
L 451.489676 92.087361 
L 452.253929 88.657011 
L 453.018182 91.671561 
L 453.782435 92.711061 
L 454.546687 91.567611 
L 455.31094 89.488611 
L 456.075193 89.072811 
L 456.839445 92.087361 
L 457.603698 90.008361 
L 458.367951 90.528111 
L 459.132203 88.137261 
L 459.896456 88.968861 
L 460.660709 89.488611 
L 461.424961 88.968861 
L 462.189214 91.879461 
L 462.953467 90.320211 
L 463.71772 91.671561 
L 464.481972 91.463661 
L 465.246225 91.047861 
L 466.010478 91.983411 
L 466.77473 91.879461 
L 467.538983 93.126861 
L 468.303236 92.711061 
L 469.067488 93.126861 
L 469.831741 92.918961 
L 470.595994 93.438711 
L 471.360247 92.087361 
L 472.124499 91.463661 
L 472.888752 90.632061 
L 473.653005 91.151811 
L 474.417257 91.255761 
L 475.18151 90.528111 
L 475.945763 89.280711 
L 476.710015 92.399211 
L 477.474268 94.270311 
L 479.002773 91.047861 
L 479.767026 93.022911 
L 480.531279 93.542661 
L 481.295532 92.815011 
L 482.059784 93.542661 
L 482.824037 91.775511 
L 483.58829 93.334761 
L 484.352542 91.879461 
L 485.116795 93.958461 
L 485.881048 93.750561 
L 486.6453 91.671561 
L 487.409553 92.191311 
L 488.173806 91.879461 
L 488.938059 90.839961 
L 489.702311 91.463661 
L 490.466564 91.567611 
L 491.230817 92.191311 
L 491.995069 93.022911 
L 492.759322 91.983411 
L 493.523575 92.815011 
L 494.287827 94.270311 
L 495.05208 93.646611 
L 495.816333 93.750561 
L 496.580586 92.815011 
L 497.344838 94.894011 
L 498.109091 91.255761 
L 498.109091 91.255761 
" clip-path="url(#pe484ce7cc7)" style="fill: none; stroke: #0000ff; stroke-opacity: 0.5; stroke-width: 1.5; stroke-linecap: square"/>
   </g>
   <g id="line2d_46">
    <path d="M 92.290909 353.209761 
L 93.055162 356.016411 
L 93.819414 356.016411 
L 94.583667 355.600611 
L 95.34792 355.600611 
L 96.876425 354.976911 
L 98.404931 354.769011 
L 99.169183 353.833461 
L 99.933436 353.625561 
L 100.697689 353.105811 
L 102.226194 352.586061 
L 102.990447 352.066311 
L 103.7547 351.754461 
L 104.518952 349.883361 
L 105.283205 350.611011 
L 106.047458 350.611011 
L 106.81171 349.883361 
L 108.340216 349.051761 
L 109.868721 347.908311 
L 110.632974 347.596461 
L 112.161479 346.037211 
L 112.925732 345.621411 
L 115.21849 343.126611 
L 115.982743 342.502911 
L 116.746995 341.255511 
L 117.511248 340.631811 
L 118.275501 339.592311 
L 119.039753 339.800211 
L 119.804006 338.760711 
L 121.332512 337.513311 
L 122.096764 335.746161 
L 122.861017 335.434311 
L 123.62527 334.290861 
L 124.389522 333.771111 
L 125.153775 332.315811 
L 125.918028 331.484211 
L 126.68228 330.236811 
L 127.446533 329.613111 
L 128.210786 327.949911 
L 128.975039 327.326211 
L 129.739291 325.351161 
L 130.503544 322.960311 
L 131.267797 322.336611 
L 132.032049 320.985261 
L 132.796302 320.257611 
L 134.324807 318.490461 
L 135.08906 316.723311 
L 135.853313 315.787761 
L 136.617565 314.540361 
L 138.146071 310.902111 
L 138.910324 309.238911 
L 139.674576 307.991511 
L 141.203082 305.080911 
L 141.967334 303.625611 
L 142.731587 301.650561 
L 143.49584 298.012311 
L 145.024345 292.814811 
L 145.788598 291.047661 
L 146.552851 287.513361 
L 147.317103 286.681761 
L 148.081356 284.810661 
L 148.845609 283.667211 
L 149.609861 281.796111 
L 150.374114 278.989461 
L 151.138367 277.118361 
L 151.902619 276.078861 
L 153.431125 274.311711 
L 154.195378 271.920861 
L 154.95963 270.569511 
L 156.488136 267.139161 
L 157.252388 264.540411 
L 158.016641 260.486361 
L 158.780894 258.719211 
L 159.545146 256.016511 
L 161.837904 251.338761 
L 162.602157 250.715061 
L 163.36641 248.324211 
L 164.130663 248.012361 
L 165.659168 245.101761 
L 166.423421 244.062261 
L 167.187673 241.775361 
L 167.951926 240.631911 
L 168.716179 238.137111 
L 169.480431 236.681811 
L 170.244684 232.419861 
L 171.008937 230.964561 
L 171.77319 227.950011 
L 172.537442 225.974961 
L 173.301695 223.688061 
L 174.8302 220.153761 
L 175.594453 218.802411 
L 177.122958 216.827361 
L 177.887211 216.099711 
L 178.651464 213.293061 
L 179.415716 211.629861 
L 180.179969 209.550861 
L 180.944222 207.056061 
L 181.708475 205.704711 
L 183.23698 200.195361 
L 187.822496 188.033211 
L 188.586749 188.033211 
L 189.351002 187.513461 
L 190.115254 185.954211 
L 190.879507 187.097661 
L 191.64376 186.681861 
L 193.172265 186.785811 
L 193.936518 185.122611 
L 194.70077 185.122611 
L 195.465023 183.979161 
L 196.229276 183.355461 
L 196.993529 182.108061 
L 197.757781 179.821161 
L 198.522034 179.509311 
L 199.286287 176.910561 
L 200.050539 177.014511 
L 200.814792 174.207861 
L 201.579045 174.415761 
L 203.10755 174.207861 
L 203.871803 173.896011 
L 204.636055 173.376261 
L 206.164561 173.168361 
L 207.693066 170.985411 
L 208.457319 169.841961 
L 209.221572 169.010361 
L 209.985824 167.866911 
L 210.750077 167.762961 
L 211.51433 165.995811 
L 213.042835 164.228661 
L 213.807088 163.085211 
L 214.571341 161.110161 
L 215.335593 160.902261 
L 216.099846 160.902261 
L 216.864099 160.278561 
L 217.628351 160.486461 
L 218.392604 161.837811 
L 219.156857 160.278561 
L 219.921109 159.862761 
L 220.685362 159.135111 
L 222.213867 158.303511 
L 222.97812 158.511411 
L 223.742373 156.536361 
L 225.270878 155.392911 
L 226.035131 155.288961 
L 226.799384 152.898111 
L 228.327889 151.027011 
L 229.092142 151.962561 
L 229.856394 151.130961 
L 230.620647 151.858611 
L 231.3849 151.130961 
L 232.149153 152.066511 
L 232.913405 150.819111 
L 233.677658 151.338861 
L 234.441911 149.883561 
L 235.206163 149.051961 
L 235.970416 149.675661 
L 236.734669 148.636161 
L 238.263174 146.972961 
L 239.027427 147.180861 
L 239.79168 145.517661 
L 240.555932 144.582111 
L 241.320185 144.062361 
L 242.084438 143.230761 
L 242.84869 143.438661 
L 243.612943 144.062361 
L 244.377196 143.438661 
L 245.141448 143.854461 
L 245.905701 143.750511 
L 247.434206 143.126811 
L 248.198459 141.879411 
L 248.962712 141.567561 
L 249.726965 141.567561 
L 250.491217 140.424111 
L 251.25547 140.735961 
L 252.019723 139.072761 
L 252.783975 138.553011 
L 253.548228 137.825361 
L 254.312481 137.409561 
L 255.076733 135.746361 
L 255.840986 134.914761 
L 256.605239 135.122661 
L 257.369492 135.538461 
L 258.133744 136.474011 
L 258.897997 136.058211 
L 259.66225 136.474011 
L 260.426502 136.370061 
L 261.190755 134.810811 
L 261.955008 134.810811 
L 262.71926 134.395011 
L 263.483513 132.939711 
L 264.247766 133.355511 
L 265.012018 132.419961 
L 265.776271 131.900211 
L 266.540524 131.692311 
L 268.069029 127.950111 
L 268.833282 128.573811 
L 269.597535 127.950111 
L 270.361787 126.598761 
L 271.12604 126.806661 
L 271.890293 128.158011 
L 273.418798 128.261961 
L 274.183051 127.846161 
L 274.947304 128.573811 
L 275.711556 127.742211 
L 276.475809 126.079011 
L 277.240062 126.182961 
L 278.004314 125.767161 
L 278.768567 125.143461 
L 279.53282 125.559261 
L 280.297072 125.143461 
L 281.061325 123.792111 
L 281.825578 121.921011 
L 283.354083 121.089411 
L 284.118336 120.881511 
L 284.882589 121.505211 
L 285.646841 121.505211 
L 286.411094 120.361761 
L 287.175347 119.530161 
L 287.939599 119.530161 
L 288.703852 119.114361 
L 289.468105 119.114361 
L 290.232357 119.426211 
L 290.99661 119.322261 
L 291.760863 118.594611 
L 292.525116 116.827461 
L 293.289368 117.763011 
L 294.053621 115.995861 
L 294.817874 114.748461 
L 295.582126 115.580061 
L 296.346379 113.501061 
L 297.110632 113.501061 
L 297.874884 113.812911 
L 298.639137 113.812911 
L 299.40339 113.501061 
L 300.167643 112.045761 
L 300.931895 112.877361 
L 301.696148 112.045761 
L 303.224653 111.422061 
L 303.988906 110.902311 
L 304.753159 109.758861 
L 305.517411 109.758861 
L 306.281664 109.135161 
L 307.045917 108.303561 
L 307.810169 105.392961 
L 308.574422 106.224561 
L 309.338675 104.041611 
L 310.102928 102.378411 
L 310.86718 102.170511 
L 311.631433 102.170511 
L 312.395686 101.338911 
L 313.159938 102.170511 
L 313.924191 101.962611 
L 314.688444 99.259911 
L 315.452696 102.378411 
L 316.216949 99.155961 
L 316.981202 100.299411 
L 317.745455 99.779661 
L 318.509707 97.180911 
L 319.27396 97.804611 
L 320.038213 97.700661 
L 320.802465 95.309811 
L 321.566718 96.453261 
L 322.330971 96.141411 
L 323.095223 93.958461 
L 323.859476 94.478211 
L 324.623729 94.790061 
L 325.387982 93.854511 
L 326.152234 93.126861 
L 326.916487 92.711061 
L 327.68074 93.854511 
L 328.444992 93.750561 
L 329.973498 91.151811 
L 330.73775 92.191311 
L 331.502003 91.463661 
L 332.266256 89.384661 
L 333.030508 88.657011 
L 333.794761 88.241211 
L 334.559014 89.696511 
L 335.323267 87.721461 
L 336.087519 88.449111 
L 336.851772 87.305661 
L 337.616025 84.914811 
L 338.380277 87.513561 
L 339.14453 86.889861 
L 339.908783 85.538511 
L 340.673035 88.137261 
L 341.437288 88.033311 
L 342.201541 86.681961 
L 342.965794 87.721461 
L 343.730046 86.058261 
L 344.494299 86.785911 
L 345.258552 86.785911 
L 346.022804 85.330611 
L 346.787057 86.162211 
L 347.55131 87.721461 
L 348.315562 84.499011 
L 349.079815 84.291111 
L 349.844068 83.251611 
L 350.60832 84.395061 
L 351.372573 82.835811 
L 352.136826 83.459511 
L 352.901079 84.291111 
L 353.665331 84.187161 
L 354.429584 84.706911 
L 355.193837 84.810861 
L 355.958089 84.083211 
L 356.722342 84.187161 
L 357.486595 83.563461 
L 358.250847 84.499011 
L 359.0151 85.746411 
L 359.779353 83.875311 
L 361.307858 84.810861 
L 362.072111 82.835811 
L 362.836364 82.316061 
L 363.600616 83.355561 
L 364.364869 82.523961 
L 365.129122 80.652861 
L 365.893374 83.043711 
L 366.657627 80.964711 
L 367.42188 81.796311 
L 368.186133 84.810861 
L 368.950385 83.355561 
L 369.714638 82.212111 
L 370.478891 83.355561 
L 371.243143 82.212111 
L 372.007396 84.395061 
L 372.771649 83.459511 
L 373.535901 84.706911 
L 374.300154 83.979261 
L 375.064407 85.954311 
L 375.828659 81.900261 
L 376.592912 84.499011 
L 377.357165 82.108161 
L 378.121418 81.172611 
L 378.88567 80.964711 
L 379.649923 82.627911 
L 380.414176 83.459511 
L 381.178428 82.939761 
L 381.942681 82.939761 
L 382.706934 83.771361 
L 383.471186 84.083211 
L 384.235439 82.523961 
L 384.999692 82.939761 
L 385.763945 84.810861 
L 386.528197 82.627911 
L 387.29245 84.602961 
L 388.056703 82.731861 
L 388.820955 83.667411 
L 389.585208 84.187161 
L 390.349461 83.459511 
L 391.113713 81.172611 
L 391.877966 81.692361 
L 392.642219 83.043711 
L 393.406471 83.771361 
L 394.170724 85.226661 
L 394.934977 84.083211 
L 395.69923 82.004211 
L 396.463482 82.420011 
L 397.227735 82.316061 
L 397.991988 86.058261 
L 398.75624 83.147661 
L 399.520493 83.563461 
L 400.284746 84.914811 
L 401.048998 83.875311 
L 401.813251 84.083211 
L 402.577504 82.004211 
L 403.341757 85.538511 
L 404.106009 84.291111 
L 404.870262 85.018761 
L 405.634515 81.588411 
L 406.398767 82.627911 
L 407.16302 81.588411 
L 407.927273 85.954311 
L 408.691525 83.979261 
L 409.455778 85.434561 
L 410.220031 84.395061 
L 410.984284 85.018761 
L 411.748536 84.914811 
L 412.512789 86.162211 
L 413.277042 85.850361 
L 414.041294 84.810861 
L 414.805547 86.681961 
L 415.5698 83.251611 
L 416.334052 85.538511 
L 417.098305 86.681961 
L 417.862558 85.538511 
L 418.62681 85.330611 
L 419.391063 86.370111 
L 420.155316 85.954311 
L 420.919569 83.771361 
L 421.683821 82.523961 
L 422.448074 86.785911 
L 423.212327 85.330611 
L 423.976579 84.602961 
L 425.505085 84.602961 
L 426.269337 86.266161 
L 427.03359 85.746411 
L 427.797843 86.370111 
L 428.562096 85.954311 
L 429.326348 86.578011 
L 430.090601 85.122711 
L 430.854854 84.187161 
L 431.619106 84.395061 
L 432.383359 85.434561 
L 433.147612 83.875311 
L 433.911864 84.395061 
L 434.676117 83.979261 
L 435.44037 85.226661 
L 436.204622 87.305661 
L 436.968875 88.449111 
L 437.733128 87.721461 
L 438.497381 86.058261 
L 439.261633 84.810861 
L 440.025886 88.137261 
L 440.790139 87.201711 
L 441.554391 86.474061 
L 442.318644 87.097761 
L 443.082897 87.409611 
L 443.847149 86.474061 
L 444.611402 86.578011 
L 445.375655 85.330611 
L 446.139908 85.018761 
L 446.90416 86.993811 
L 447.668413 84.291111 
L 449.196918 87.617511 
L 449.961171 85.850361 
L 450.725424 87.513561 
L 451.489676 89.904411 
L 452.253929 87.929361 
L 453.018182 88.864911 
L 453.782435 89.488611 
L 454.546687 86.162211 
L 455.31094 88.345161 
L 456.075193 85.538511 
L 456.839445 87.825411 
L 457.603698 86.474061 
L 458.367951 86.578011 
L 459.132203 85.434561 
L 459.896456 85.746411 
L 460.660709 87.097761 
L 461.424961 85.122711 
L 462.189214 87.305661 
L 462.953467 87.305661 
L 463.71772 88.864911 
L 464.481972 88.449111 
L 465.246225 87.513561 
L 466.010478 88.033311 
L 466.77473 88.968861 
L 467.538983 87.721461 
L 468.303236 90.424161 
L 469.067488 89.800461 
L 469.831741 88.864911 
L 470.595994 88.449111 
L 471.360247 89.696511 
L 472.124499 89.072811 
L 472.888752 86.785911 
L 473.653005 88.553061 
L 474.417257 88.449111 
L 475.18151 86.058261 
L 475.945763 85.746411 
L 476.710015 89.072811 
L 477.474268 90.320211 
L 478.238521 88.657011 
L 479.002773 89.384661 
L 479.767026 88.968861 
L 480.531279 90.112311 
L 481.295532 90.632061 
L 482.059784 89.592561 
L 482.824037 88.968861 
L 483.58829 91.463661 
L 484.352542 88.968861 
L 485.116795 89.280711 
L 485.881048 89.384661 
L 486.6453 88.137261 
L 487.409553 89.280711 
L 488.173806 86.370111 
L 488.938059 85.850361 
L 489.702311 86.058261 
L 490.466564 88.241211 
L 491.230817 87.825411 
L 491.995069 87.721461 
L 492.759322 89.592561 
L 493.523575 90.112311 
L 494.287827 89.280711 
L 495.05208 88.760961 
L 495.816333 91.359711 
L 496.580586 88.657011 
L 497.344838 91.775511 
L 498.109091 90.736011 
L 498.109091 90.736011 
" clip-path="url(#pe484ce7cc7)" style="fill: none; stroke: #0000ff; stroke-opacity: 0.5; stroke-width: 1.5; stroke-linecap: square"/>
   </g>
   <g id="line2d_47">
    <path d="M 92.290909 353.313711 
L 93.055162 356.120361 
L 93.819414 355.392711 
L 94.583667 355.600611 
L 95.34792 355.288761 
L 96.112173 354.665061 
L 97.640678 354.665061 
L 98.404931 354.249261 
L 99.169183 353.625561 
L 100.697689 352.690011 
L 101.461941 352.690011 
L 102.990447 351.338661 
L 103.7547 351.442611 
L 105.283205 350.091261 
L 106.047458 350.299161 
L 106.81171 349.155711 
L 108.340216 348.843861 
L 109.104468 347.908311 
L 111.397227 346.660911 
L 112.161479 345.621411 
L 112.925732 345.517461 
L 113.689985 344.166111 
L 114.454237 343.126611 
L 115.21849 343.022661 
L 115.982743 342.191061 
L 116.746995 340.735761 
L 117.511248 340.319961 
L 119.039753 339.072561 
L 119.804006 337.929111 
L 120.568259 337.201461 
L 121.332512 335.746161 
L 122.861017 334.706661 
L 123.62527 333.667161 
L 124.389522 333.251361 
L 125.153775 331.276311 
L 125.918028 331.172361 
L 126.68228 328.989411 
L 127.446533 328.469661 
L 128.210786 327.014361 
L 128.975039 326.286711 
L 129.739291 325.143261 
L 130.503544 323.168211 
L 131.267797 322.752411 
L 132.032049 321.712911 
L 133.560555 318.802311 
L 134.324807 317.450961 
L 135.08906 315.579861 
L 136.617565 313.500861 
L 138.146071 309.862611 
L 140.438829 305.600661 
L 141.203082 303.937461 
L 141.967334 302.690061 
L 142.731587 300.403161 
L 144.260092 295.205661 
L 145.024345 293.438511 
L 145.788598 292.191111 
L 146.552851 289.696311 
L 147.317103 288.033111 
L 148.081356 285.954111 
L 148.845609 285.122511 
L 149.609861 282.939561 
L 151.138367 277.742061 
L 151.902619 276.702561 
L 152.666872 274.623561 
L 153.431125 273.064311 
L 154.195378 270.569511 
L 154.95963 269.114211 
L 156.488136 265.579911 
L 157.252388 263.396961 
L 158.016641 260.382411 
L 158.780894 259.446861 
L 159.545146 256.432311 
L 160.309399 255.496761 
L 161.073652 254.353311 
L 161.837904 252.794061 
L 162.602157 251.858511 
L 163.36641 249.259761 
L 164.130663 248.116311 
L 166.423421 242.295111 
L 167.187673 239.904261 
L 169.480431 235.018611 
L 170.244684 231.692211 
L 171.008937 230.029011 
L 171.77319 227.430261 
L 173.301695 224.727561 
L 174.065948 222.752511 
L 174.8302 221.816961 
L 176.358706 217.970811 
L 177.122958 215.787861 
L 177.887211 214.748361 
L 178.651464 211.629861 
L 180.179969 208.407411 
L 180.944222 205.912611 
L 181.708475 204.145461 
L 183.23698 199.779561 
L 184.001233 198.012411 
L 184.765485 196.868961 
L 185.529738 194.686011 
L 187.058243 191.879361 
L 187.822496 189.488511 
L 188.586749 190.112211 
L 190.879507 188.656911 
L 192.408012 186.577911 
L 193.172265 185.850261 
L 193.936518 183.667311 
L 194.70077 183.875211 
L 195.465023 182.419911 
L 196.229276 181.484361 
L 196.993529 181.484361 
L 197.757781 179.925111 
L 198.522034 178.989561 
L 199.286287 177.430311 
L 200.050539 176.494761 
L 200.814792 175.351311 
L 201.579045 175.039461 
L 202.343297 176.182911 
L 204.636055 172.648611 
L 205.400308 172.544661 
L 206.164561 171.193311 
L 206.928814 170.465661 
L 207.693066 169.530111 
L 209.221572 168.386661 
L 209.985824 166.827411 
L 211.51433 165.891861 
L 212.278582 165.372111 
L 213.042835 163.916811 
L 213.807088 163.604961 
L 214.571341 162.981261 
L 215.335593 163.189161 
L 216.099846 162.981261 
L 216.864099 160.694361 
L 217.628351 160.070661 
L 218.392604 160.590411 
L 219.156857 159.239061 
L 219.921109 158.511411 
L 220.685362 156.952161 
L 221.449615 156.848211 
L 222.213867 157.367961 
L 222.97812 156.640311 
L 223.742373 154.977111 
L 224.506626 154.457361 
L 225.270878 154.873161 
L 226.799384 152.586261 
L 229.092142 151.546761 
L 229.856394 151.027011 
L 230.620647 150.923061 
L 231.3849 150.195411 
L 232.149153 150.923061 
L 232.913405 149.259861 
L 233.677658 149.467761 
L 234.441911 148.740111 
L 235.206163 148.428261 
L 235.970416 147.804561 
L 236.734669 146.245311 
L 237.498921 146.557161 
L 238.263174 146.245311 
L 239.027427 146.349261 
L 239.79168 144.374211 
L 240.555932 144.374211 
L 241.320185 144.166311 
L 242.084438 143.438661 
L 242.84869 143.230761 
L 243.612943 143.958411 
L 244.377196 141.983361 
L 245.141448 142.399161 
L 245.905701 142.295211 
L 246.669954 141.151761 
L 248.198459 140.216211 
L 248.962712 140.008311 
L 249.726965 140.008311 
L 250.491217 138.553011 
L 251.25547 139.280661 
L 252.019723 138.449061 
L 252.783975 137.929311 
L 253.548228 137.097711 
L 255.076733 137.201661 
L 255.840986 135.850311 
L 256.605239 136.266111 
L 257.369492 135.642411 
L 258.133744 135.642411 
L 259.66225 133.667361 
L 260.426502 134.395011 
L 261.190755 132.835761 
L 261.955008 134.083161 
L 262.71926 132.731811 
L 263.483513 131.692311 
L 264.247766 130.860711 
L 265.012018 131.484411 
L 266.540524 129.925161 
L 267.304777 128.989611 
L 268.069029 128.989611 
L 268.833282 130.133061 
L 269.597535 128.573811 
L 270.361787 127.430361 
L 271.12604 128.158011 
L 272.654545 127.534311 
L 273.418798 128.677761 
L 274.183051 126.390861 
L 274.947304 126.390861 
L 275.711556 126.182961 
L 276.475809 124.623711 
L 277.240062 124.311861 
L 278.004314 123.480261 
L 278.768567 124.519761 
L 279.53282 123.480261 
L 280.297072 123.272361 
L 281.061325 123.376311 
L 281.825578 122.128911 
L 282.589831 121.297311 
L 283.354083 120.985461 
L 284.118336 120.881511 
L 284.882589 121.193361 
L 285.646841 119.426211 
L 286.411094 118.282761 
L 287.175347 119.634111 
L 287.939599 118.282761 
L 288.703852 117.866961 
L 289.468105 117.139311 
L 290.99661 117.866961 
L 291.760863 116.411661 
L 292.525116 115.684011 
L 293.289368 116.619561 
L 294.053621 116.827461 
L 294.817874 114.020811 
L 295.582126 115.684011 
L 296.346379 113.501061 
L 297.110632 112.981311 
L 297.874884 113.189211 
L 298.639137 112.669461 
L 299.40339 111.941811 
L 300.167643 110.694411 
L 300.931895 110.278611 
L 301.696148 110.694411 
L 302.460401 110.590461 
L 303.224653 109.654911 
L 303.988906 109.343061 
L 304.753159 107.056161 
L 305.517411 107.264061 
L 307.045917 106.120611 
L 307.810169 103.210011 
L 308.574422 104.977161 
L 309.338675 103.937661 
L 310.102928 102.690261 
L 310.86718 104.353461 
L 311.631433 102.378411 
L 312.395686 101.858661 
L 313.924191 100.091511 
L 314.688444 98.116461 
L 315.452696 100.507311 
L 316.216949 99.052011 
L 316.981202 99.571761 
L 317.745455 99.052011 
L 318.509707 97.284861 
L 319.27396 96.557211 
L 320.038213 97.180911 
L 320.802465 95.101911 
L 321.566718 96.765111 
L 322.330971 95.725611 
L 323.095223 94.270311 
L 323.859476 95.725611 
L 324.623729 95.621661 
L 325.387982 94.270311 
L 326.152234 94.997961 
L 326.916487 92.191311 
L 327.68074 93.750561 
L 328.444992 92.191311 
L 329.209245 92.503161 
L 329.973498 90.320211 
L 330.73775 91.775511 
L 331.502003 90.736011 
L 332.266256 88.657011 
L 333.030508 88.553061 
L 333.794761 90.008361 
L 334.559014 88.449111 
L 335.323267 89.384661 
L 336.087519 88.657011 
L 336.851772 88.760961 
L 337.616025 86.578011 
L 338.380277 88.033311 
L 339.14453 88.553061 
L 339.908783 87.929361 
L 340.673035 87.617511 
L 341.437288 87.617511 
L 342.201541 86.993811 
L 342.965794 88.968861 
L 343.730046 86.681961 
L 344.494299 87.201711 
L 346.022804 85.226661 
L 346.787057 85.850361 
L 347.55131 86.162211 
L 348.315562 84.810861 
L 349.079815 84.914811 
L 349.844068 84.395061 
L 350.60832 85.018761 
L 351.372573 85.850361 
L 352.136826 85.850361 
L 352.901079 86.681961 
L 353.665331 85.850361 
L 354.429584 85.538511 
L 355.193837 85.018761 
L 355.958089 85.018761 
L 356.722342 84.291111 
L 357.486595 84.602961 
L 358.250847 84.083211 
L 359.0151 84.395061 
L 359.779353 82.523961 
L 360.543606 84.083211 
L 361.307858 83.563461 
L 362.072111 83.251611 
L 362.836364 82.316061 
L 363.600616 83.251611 
L 364.364869 84.602961 
L 365.129122 82.420011 
L 365.893374 85.434561 
L 366.657627 82.108161 
L 367.42188 82.212111 
L 368.186133 83.459511 
L 368.950385 82.108161 
L 369.714638 82.212111 
L 370.478891 84.810861 
L 371.243143 83.251611 
L 372.007396 83.147661 
L 372.771649 83.355561 
L 373.535901 84.706911 
L 374.300154 84.499011 
L 375.064407 83.771361 
L 377.357165 82.523961 
L 378.121418 82.731861 
L 379.649923 84.395061 
L 380.414176 84.810861 
L 381.942681 82.835811 
L 382.706934 83.771361 
L 383.471186 84.187161 
L 384.235439 82.316061 
L 384.999692 82.523961 
L 385.763945 85.122711 
L 386.528197 84.706911 
L 387.29245 83.147661 
L 388.056703 82.004211 
L 388.820955 83.147661 
L 389.585208 84.602961 
L 390.349461 85.642461 
L 391.113713 82.731861 
L 391.877966 85.122711 
L 392.642219 83.251611 
L 393.406471 84.083211 
L 394.170724 84.187161 
L 394.934977 83.147661 
L 395.69923 85.122711 
L 396.463482 83.771361 
L 397.227735 84.187161 
L 397.991988 84.810861 
L 398.75624 84.602961 
L 399.520493 83.459511 
L 400.284746 83.563461 
L 401.048998 85.122711 
L 401.813251 84.499011 
L 402.577504 82.523961 
L 404.106009 85.226661 
L 404.870262 84.914811 
L 405.634515 85.226661 
L 406.398767 85.018761 
L 407.16302 82.835811 
L 407.927273 84.810861 
L 408.691525 84.291111 
L 409.455778 85.642461 
L 410.220031 83.875311 
L 410.984284 82.939761 
L 411.748536 84.395061 
L 412.512789 86.474061 
L 413.277042 85.330611 
L 414.041294 86.370111 
L 414.805547 86.889861 
L 415.5698 83.979261 
L 416.334052 85.538511 
L 417.098305 85.954311 
L 417.862558 86.889861 
L 418.62681 85.850361 
L 419.391063 87.409611 
L 420.155316 87.929361 
L 420.919569 85.642461 
L 421.683821 85.330611 
L 422.448074 87.617511 
L 423.212327 86.058261 
L 423.976579 85.746411 
L 425.505085 84.187161 
L 426.269337 86.993811 
L 427.797843 85.122711 
L 428.562096 85.954311 
L 429.326348 85.434561 
L 430.090601 86.785911 
L 431.619106 87.305661 
L 433.147612 85.850361 
L 433.911864 87.409611 
L 434.676117 87.513561 
L 435.44037 88.553061 
L 436.204622 86.993811 
L 436.968875 87.409611 
L 437.733128 88.241211 
L 438.497381 87.825411 
L 439.261633 86.266161 
L 440.025886 88.345161 
L 440.790139 88.033311 
L 441.554391 86.474061 
L 442.318644 88.137261 
L 443.082897 87.513561 
L 443.847149 88.345161 
L 444.611402 86.785911 
L 445.375655 86.474061 
L 446.139908 86.370111 
L 446.90416 88.033311 
L 447.668413 87.721461 
L 448.432666 87.721461 
L 449.196918 87.097761 
L 449.961171 86.889861 
L 450.725424 87.617511 
L 451.489676 89.488611 
L 452.253929 88.241211 
L 453.018182 87.617511 
L 453.782435 90.112311 
L 454.546687 88.345161 
L 455.31094 88.241211 
L 456.075193 86.889861 
L 456.839445 88.241211 
L 457.603698 87.201711 
L 458.367951 88.137261 
L 459.132203 87.929361 
L 459.896456 90.424161 
L 460.660709 87.305661 
L 461.424961 88.968861 
L 462.189214 88.657011 
L 462.953467 87.305661 
L 463.71772 88.760961 
L 464.481972 89.488611 
L 465.246225 87.825411 
L 466.010478 90.632061 
L 466.77473 90.216261 
L 467.538983 88.449111 
L 468.303236 91.463661 
L 469.067488 90.528111 
L 469.831741 90.528111 
L 470.595994 89.800461 
L 471.360247 89.696511 
L 472.124499 90.008361 
L 472.888752 87.929361 
L 473.653005 88.345161 
L 475.18151 91.359711 
L 475.945763 90.424161 
L 476.710015 91.567611 
L 477.474268 91.983411 
L 478.238521 88.760961 
L 481.295532 91.567611 
L 482.059784 91.463661 
L 482.824037 88.760961 
L 483.58829 92.295261 
L 484.352542 89.072811 
L 485.116795 91.359711 
L 485.881048 91.983411 
L 486.6453 90.632061 
L 487.409553 91.255761 
L 488.173806 90.216261 
L 488.938059 90.008361 
L 489.702311 90.216261 
L 490.466564 91.151811 
L 491.230817 89.592561 
L 491.995069 90.528111 
L 492.759322 89.696511 
L 493.523575 90.943911 
L 494.287827 91.463661 
L 495.05208 89.696511 
L 495.816333 91.359711 
L 496.580586 91.151811 
L 497.344838 92.918961 
L 498.109091 91.047861 
L 498.109091 91.047861 
" clip-path="url(#pe484ce7cc7)" style="fill: none; stroke: #0000ff; stroke-opacity: 0.5; stroke-width: 1.5; stroke-linecap: square"/>
   </g>
   <g id="LineCollection_1">
    <path d="M 92.290909 354.483934 
L 92.290909 353.141408 
" clip-path="url(#pe484ce7cc7)" style="fill: none; stroke: #ff0000; stroke-width: 1.5"/>
    <path d="M 122.861017 335.37505 
L 122.861017 334.329332 
" clip-path="url(#pe484ce7cc7)" style="fill: none; stroke: #ff0000; stroke-width: 1.5"/>
    <path d="M 153.431125 274.608477 
L 153.431125 269.565885 
" clip-path="url(#pe484ce7cc7)" style="fill: none; stroke: #ff0000; stroke-width: 1.5"/>
    <path d="M 184.001233 198.784856 
L 184.001233 194.412526 
" clip-path="url(#pe484ce7cc7)" style="fill: none; stroke: #ff0000; stroke-width: 1.5"/>
    <path d="M 214.571341 162.445436 
L 214.571341 156.573226 
" clip-path="url(#pe484ce7cc7)" style="fill: none; stroke: #ff0000; stroke-width: 1.5"/>
    <path d="M 245.141448 143.733183 
L 245.141448 139.859319 
" clip-path="url(#pe484ce7cc7)" style="fill: none; stroke: #ff0000; stroke-width: 1.5"/>
    <path d="M 275.711556 127.345691 
L 275.711556 121.194871 
" clip-path="url(#pe484ce7cc7)" style="fill: none; stroke: #ff0000; stroke-width: 1.5"/>
    <path d="M 306.281664 108.039148 
L 306.281664 98.256134 
" clip-path="url(#pe484ce7cc7)" style="fill: none; stroke: #ff0000; stroke-width: 1.5"/>
    <path d="M 336.851772 87.979413 
L 336.851772 83.430249 
" clip-path="url(#pe484ce7cc7)" style="fill: none; stroke: #ff0000; stroke-width: 1.5"/>
    <path d="M 367.42188 83.449176 
L 367.42188 81.640326 
" clip-path="url(#pe484ce7cc7)" style="fill: none; stroke: #ff0000; stroke-width: 1.5"/>
    <path d="M 397.991988 86.559205 
L 397.991988 85.141517 
" clip-path="url(#pe484ce7cc7)" style="fill: none; stroke: #ff0000; stroke-width: 1.5"/>
    <path d="M 428.562096 88.160515 
L 428.562096 85.702367 
" clip-path="url(#pe484ce7cc7)" style="fill: none; stroke: #ff0000; stroke-width: 1.5"/>
    <path d="M 459.132203 88.467152 
L 459.132203 86.26891 
" clip-path="url(#pe484ce7cc7)" style="fill: none; stroke: #ff0000; stroke-width: 1.5"/>
    <path d="M 489.702311 92.189482 
L 489.702311 87.7025 
" clip-path="url(#pe484ce7cc7)" style="fill: none; stroke: #ff0000; stroke-width: 1.5"/>
   </g>
   <g id="line2d_48">
    <defs>
     <path id="mfb185954b4" d="M 5 0 
L -5 -0 
" style="stroke: #ff0000"/>
    </defs>
    <g clip-path="url(#pe484ce7cc7)">
     <use xlink:href="#mfb185954b4" x="92.290909" y="354.483934" style="fill: #ff0000; stroke: #ff0000"/>
     <use xlink:href="#mfb185954b4" x="122.861017" y="335.37505" style="fill: #ff0000; stroke: #ff0000"/>
     <use xlink:href="#mfb185954b4" x="153.431125" y="274.608477" style="fill: #ff0000; stroke: #ff0000"/>
     <use xlink:href="#mfb185954b4" x="184.001233" y="198.784856" style="fill: #ff0000; stroke: #ff0000"/>
     <use xlink:href="#mfb185954b4" x="214.571341" y="162.445436" style="fill: #ff0000; stroke: #ff0000"/>
     <use xlink:href="#mfb185954b4" x="245.141448" y="143.733183" style="fill: #ff0000; stroke: #ff0000"/>
     <use xlink:href="#mfb185954b4" x="275.711556" y="127.345691" style="fill: #ff0000; stroke: #ff0000"/>
     <use xlink:href="#mfb185954b4" x="306.281664" y="108.039148" style="fill: #ff0000; stroke: #ff0000"/>
     <use xlink:href="#mfb185954b4" x="336.851772" y="87.979413" style="fill: #ff0000; stroke: #ff0000"/>
     <use xlink:href="#mfb185954b4" x="367.42188" y="83.449176" style="fill: #ff0000; stroke: #ff0000"/>
     <use xlink:href="#mfb185954b4" x="397.991988" y="86.559205" style="fill: #ff0000; stroke: #ff0000"/>
     <use xlink:href="#mfb185954b4" x="428.562096" y="88.160515" style="fill: #ff0000; stroke: #ff0000"/>
     <use xlink:href="#mfb185954b4" x="459.132203" y="88.467152" style="fill: #ff0000; stroke: #ff0000"/>
     <use xlink:href="#mfb185954b4" x="489.702311" y="92.189482" style="fill: #ff0000; stroke: #ff0000"/>
    </g>
   </g>
   <g id="line2d_49">
    <g clip-path="url(#pe484ce7cc7)">
     <use xlink:href="#mfb185954b4" x="92.290909" y="353.141408" style="fill: #ff0000; stroke: #ff0000"/>
     <use xlink:href="#mfb185954b4" x="122.861017" y="334.329332" style="fill: #ff0000; stroke: #ff0000"/>
     <use xlink:href="#mfb185954b4" x="153.431125" y="269.565885" style="fill: #ff0000; stroke: #ff0000"/>
     <use xlink:href="#mfb185954b4" x="184.001233" y="194.412526" style="fill: #ff0000; stroke: #ff0000"/>
     <use xlink:href="#mfb185954b4" x="214.571341" y="156.573226" style="fill: #ff0000; stroke: #ff0000"/>
     <use xlink:href="#mfb185954b4" x="245.141448" y="139.859319" style="fill: #ff0000; stroke: #ff0000"/>
     <use xlink:href="#mfb185954b4" x="275.711556" y="121.194871" style="fill: #ff0000; stroke: #ff0000"/>
     <use xlink:href="#mfb185954b4" x="306.281664" y="98.256134" style="fill: #ff0000; stroke: #ff0000"/>
     <use xlink:href="#mfb185954b4" x="336.851772" y="83.430249" style="fill: #ff0000; stroke: #ff0000"/>
     <use xlink:href="#mfb185954b4" x="367.42188" y="81.640326" style="fill: #ff0000; stroke: #ff0000"/>
     <use xlink:href="#mfb185954b4" x="397.991988" y="85.141517" style="fill: #ff0000; stroke: #ff0000"/>
     <use xlink:href="#mfb185954b4" x="428.562096" y="85.702367" style="fill: #ff0000; stroke: #ff0000"/>
     <use xlink:href="#mfb185954b4" x="459.132203" y="86.26891" style="fill: #ff0000; stroke: #ff0000"/>
     <use xlink:href="#mfb185954b4" x="489.702311" y="87.7025" style="fill: #ff0000; stroke: #ff0000"/>
    </g>
   </g>
   <g id="line2d_50">
    <path d="M 92.290909 353.812671 
L 122.861017 334.852191 
L 153.431125 272.087181 
L 184.001233 196.598691 
L 214.571341 159.509331 
L 245.141448 141.796251 
L 275.711556 124.270281 
L 306.281664 103.147641 
L 336.851772 85.704831 
L 367.42188 82.544751 
L 397.991988 85.850361 
L 428.562096 86.931441 
L 459.132203 87.368031 
L 489.702311 89.945991 
" clip-path="url(#pe484ce7cc7)" style="fill: none; stroke: #ff0000; stroke-width: 1.5; stroke-linecap: square"/>
   </g>
   <g id="patch_3">
    <path d="M 72 384.48 
L 72 51.84 
" style="fill: none; stroke: #000000; stroke-width: 0.8; stroke-linejoin: miter; stroke-linecap: square"/>
   </g>
   <g id="patch_4">
    <path d="M 518.4 384.48 
L 518.4 51.84 
" style="fill: none; stroke: #000000; stroke-width: 0.8; stroke-linejoin: miter; stroke-linecap: square"/>
   </g>
   <g id="patch_5">
    <path d="M 72 384.48 
L 518.4 384.48 
" style="fill: none; stroke: #000000; stroke-width: 0.8; stroke-linejoin: miter; stroke-linecap: square"/>
   </g>
   <g id="patch_6">
    <path d="M 72 51.84 
L 518.4 51.84 
" style="fill: none; stroke: #000000; stroke-width: 0.8; stroke-linejoin: miter; stroke-linecap: square"/>
   </g>
   <g id="text_24">
    <!-- M7: Methionin; Threonin -->
    <g transform="translate(234.435156 45.84) scale(0.1 -0.1)">
     <defs>
      <path id="DejaVuSans-4d" d="M 628 4666 
L 1569 4666 
L 2759 1491 
L 3956 4666 
L 4897 4666 
L 4897 0 
L 4281 0 
L 4281 4097 
L 3078 897 
L 2444 897 
L 1241 4097 
L 1241 0 
L 628 0 
L 628 4666 
z
" transform="scale(0.015625)"/>
      <path id="DejaVuSans-3a" d="M 750 794 
L 1409 794 
L 1409 0 
L 750 0 
L 750 794 
z
M 750 3309 
L 1409 3309 
L 1409 2516 
L 750 2516 
L 750 3309 
z
" transform="scale(0.015625)"/>
      <path id="DejaVuSans-3b" d="M 750 3309 
L 1409 3309 
L 1409 2516 
L 750 2516 
L 750 3309 
z
M 750 794 
L 1409 794 
L 1409 256 
L 897 -744 
L 494 -744 
L 750 256 
L 750 794 
z
" transform="scale(0.015625)"/>
      <path id="DejaVuSans-54" d="M -19 4666 
L 3928 4666 
L 3928 4134 
L 2272 4134 
L 2272 0 
L 1638 0 
L 1638 4134 
L -19 4134 
L -19 4666 
z
" transform="scale(0.015625)"/>
     </defs>
     <use xlink:href="#DejaVuSans-4d"/>
     <use xlink:href="#DejaVuSans-37" x="86.279297"/>
     <use xlink:href="#DejaVuSans-3a" x="149.902344"/>
     <use xlink:href="#DejaVuSans-20" x="183.59375"/>
     <use xlink:href="#DejaVuSans-4d" x="215.380859"/>
     <use xlink:href="#DejaVuSans-65" x="301.660156"/>
     <use xlink:href="#DejaVuSans-74" x="363.183594"/>
     <use xlink:href="#DejaVuSans-68" x="402.392578"/>
     <use xlink:href="#DejaVuSans-69" x="465.771484"/>
     <use xlink:href="#DejaVuSans-6f" x="493.554688"/>
     <use xlink:href="#DejaVuSans-6e" x="554.736328"/>
     <use xlink:href="#DejaVuSans-69" x="618.115234"/>
     <use xlink:href="#DejaVuSans-6e" x="645.898438"/>
     <use xlink:href="#DejaVuSans-3b" x="709.277344"/>
     <use xlink:href="#DejaVuSans-20" x="742.96875"/>
     <use xlink:href="#DejaVuSans-54" x="774.755859"/>
     <use xlink:href="#DejaVuSans-68" x="835.839844"/>
     <use xlink:href="#DejaVuSans-72" x="899.21875"/>
     <use xlink:href="#DejaVuSans-65" x="938.082031"/>
     <use xlink:href="#DejaVuSans-6f" x="999.605469"/>
     <use xlink:href="#DejaVuSans-6e" x="1060.787109"/>
     <use xlink:href="#DejaVuSans-69" x="1124.166016"/>
     <use xlink:href="#DejaVuSans-6e" x="1151.949219"/>
    </g>
   </g>
  </g>
 </g>
 <defs>
  <clipPath id="pe484ce7cc7">
   <rect x="72" y="51.84" width="446.4" height="332.64"/>
  </clipPath>
 </defs>
</svg>
