<?xml version="1.0" encoding="utf-8" standalone="no"?>
<!DOCTYPE svg PUBLIC "-//W3C//DTD SVG 1.1//EN"
  "http://www.w3.org/Graphics/SVG/1.1/DTD/svg11.dtd">
<svg xmlns:xlink="http://www.w3.org/1999/xlink" width="576pt" height="432pt" viewBox="0 0 576 432" xmlns="http://www.w3.org/2000/svg" version="1.1">
 <metadata>
  <rdf:RDF xmlns:dc="http://purl.org/dc/elements/1.1/" xmlns:cc="http://creativecommons.org/ns#" xmlns:rdf="http://www.w3.org/1999/02/22-rdf-syntax-ns#">
   <cc:Work>
    <dc:type rdf:resource="http://purl.org/dc/dcmitype/StillImage"/>
    <dc:date>2024-11-12T14:09:04.934652</dc:date>
    <dc:format>image/svg+xml</dc:format>
    <dc:creator>
     <cc:Agent>
      <dc:title>Matplotlib v3.7.5, https://matplotlib.org/</dc:title>
     </cc:Agent>
    </dc:creator>
   </cc:Work>
  </rdf:RDF>
 </metadata>
 <defs>
  <style type="text/css">*{stroke-linejoin: round; stroke-linecap: butt}</style>
 </defs>
 <g id="figure_1">
  <g id="patch_1">
   <path d="M 0 432 
L 576 432 
L 576 0 
L 0 0 
z
" style="fill: #ffffff"/>
  </g>
  <g id="axes_1">
   <g id="patch_2">
    <path d="M 72 384.48 
L 518.4 384.48 
L 518.4 51.84 
L 72 51.84 
z
" style="fill: #ffffff"/>
   </g>
   <g id="matplotlib.axis_1">
    <g id="xtick_1">
     <g id="line2d_1">
      <path d="M 92.290909 384.48 
L 92.290909 51.84 
" clip-path="url(#p648c19ea86)" style="fill: none; stroke: #b0b0b0; stroke-width: 0.8; stroke-linecap: square"/>
     </g>
     <g id="line2d_2">
      <defs>
       <path id="md134aa4135" d="M 0 0 
L 0 3.5 
" style="stroke: #000000; stroke-width: 0.8"/>
      </defs>
      <g>
       <use xlink:href="#md134aa4135" x="92.290909" y="384.48" style="stroke: #000000; stroke-width: 0.8"/>
      </g>
     </g>
     <g id="text_1">
      <!-- 0.17 -->
      <g transform="translate(81.158097 399.078438) scale(0.1 -0.1)">
       <defs>
        <path id="DejaVuSans-30" d="M 2034 4250 
Q 1547 4250 1301 3770 
Q 1056 3291 1056 2328 
Q 1056 1369 1301 889 
Q 1547 409 2034 409 
Q 2525 409 2770 889 
Q 3016 1369 3016 2328 
Q 3016 3291 2770 3770 
Q 2525 4250 2034 4250 
z
M 2034 4750 
Q 2819 4750 3233 4129 
Q 3647 3509 3647 2328 
Q 3647 1150 3233 529 
Q 2819 -91 2034 -91 
Q 1250 -91 836 529 
Q 422 1150 422 2328 
Q 422 3509 836 4129 
Q 1250 4750 2034 4750 
z
" transform="scale(0.015625)"/>
        <path id="DejaVuSans-2e" d="M 684 794 
L 1344 794 
L 1344 0 
L 684 0 
L 684 794 
z
" transform="scale(0.015625)"/>
        <path id="DejaVuSans-31" d="M 794 531 
L 1825 531 
L 1825 4091 
L 703 3866 
L 703 4441 
L 1819 4666 
L 2450 4666 
L 2450 531 
L 3481 531 
L 3481 0 
L 794 0 
L 794 531 
z
" transform="scale(0.015625)"/>
        <path id="DejaVuSans-37" d="M 525 4666 
L 3525 4666 
L 3525 4397 
L 1831 0 
L 1172 0 
L 2766 4134 
L 525 4134 
L 525 4666 
z
" transform="scale(0.015625)"/>
       </defs>
       <use xlink:href="#DejaVuSans-30"/>
       <use xlink:href="#DejaVuSans-2e" x="63.623047"/>
       <use xlink:href="#DejaVuSans-31" x="95.410156"/>
       <use xlink:href="#DejaVuSans-37" x="159.033203"/>
      </g>
     </g>
    </g>
    <g id="xtick_2">
     <g id="line2d_3">
      <path d="M 122.861017 384.48 
L 122.861017 51.84 
" clip-path="url(#p648c19ea86)" style="fill: none; stroke: #b0b0b0; stroke-width: 0.8; stroke-linecap: square"/>
     </g>
     <g id="line2d_4">
      <g>
       <use xlink:href="#md134aa4135" x="122.861017" y="384.48" style="stroke: #000000; stroke-width: 0.8"/>
      </g>
     </g>
     <g id="text_2">
      <!-- 6.83 -->
      <g transform="translate(111.728204 399.078438) scale(0.1 -0.1)">
       <defs>
        <path id="DejaVuSans-36" d="M 2113 2584 
Q 1688 2584 1439 2293 
Q 1191 2003 1191 1497 
Q 1191 994 1439 701 
Q 1688 409 2113 409 
Q 2538 409 2786 701 
Q 3034 994 3034 1497 
Q 3034 2003 2786 2293 
Q 2538 2584 2113 2584 
z
M 3366 4563 
L 3366 3988 
Q 3128 4100 2886 4159 
Q 2644 4219 2406 4219 
Q 1781 4219 1451 3797 
Q 1122 3375 1075 2522 
Q 1259 2794 1537 2939 
Q 1816 3084 2150 3084 
Q 2853 3084 3261 2657 
Q 3669 2231 3669 1497 
Q 3669 778 3244 343 
Q 2819 -91 2113 -91 
Q 1303 -91 875 529 
Q 447 1150 447 2328 
Q 447 3434 972 4092 
Q 1497 4750 2381 4750 
Q 2619 4750 2861 4703 
Q 3103 4656 3366 4563 
z
" transform="scale(0.015625)"/>
        <path id="DejaVuSans-38" d="M 2034 2216 
Q 1584 2216 1326 1975 
Q 1069 1734 1069 1313 
Q 1069 891 1326 650 
Q 1584 409 2034 409 
Q 2484 409 2743 651 
Q 3003 894 3003 1313 
Q 3003 1734 2745 1975 
Q 2488 2216 2034 2216 
z
M 1403 2484 
Q 997 2584 770 2862 
Q 544 3141 544 3541 
Q 544 4100 942 4425 
Q 1341 4750 2034 4750 
Q 2731 4750 3128 4425 
Q 3525 4100 3525 3541 
Q 3525 3141 3298 2862 
Q 3072 2584 2669 2484 
Q 3125 2378 3379 2068 
Q 3634 1759 3634 1313 
Q 3634 634 3220 271 
Q 2806 -91 2034 -91 
Q 1263 -91 848 271 
Q 434 634 434 1313 
Q 434 1759 690 2068 
Q 947 2378 1403 2484 
z
M 1172 3481 
Q 1172 3119 1398 2916 
Q 1625 2713 2034 2713 
Q 2441 2713 2670 2916 
Q 2900 3119 2900 3481 
Q 2900 3844 2670 4047 
Q 2441 4250 2034 4250 
Q 1625 4250 1398 4047 
Q 1172 3844 1172 3481 
z
" transform="scale(0.015625)"/>
        <path id="DejaVuSans-33" d="M 2597 2516 
Q 3050 2419 3304 2112 
Q 3559 1806 3559 1356 
Q 3559 666 3084 287 
Q 2609 -91 1734 -91 
Q 1441 -91 1130 -33 
Q 819 25 488 141 
L 488 750 
Q 750 597 1062 519 
Q 1375 441 1716 441 
Q 2309 441 2620 675 
Q 2931 909 2931 1356 
Q 2931 1769 2642 2001 
Q 2353 2234 1838 2234 
L 1294 2234 
L 1294 2753 
L 1863 2753 
Q 2328 2753 2575 2939 
Q 2822 3125 2822 3475 
Q 2822 3834 2567 4026 
Q 2313 4219 1838 4219 
Q 1578 4219 1281 4162 
Q 984 4106 628 3988 
L 628 4550 
Q 988 4650 1302 4700 
Q 1616 4750 1894 4750 
Q 2613 4750 3031 4423 
Q 3450 4097 3450 3541 
Q 3450 3153 3228 2886 
Q 3006 2619 2597 2516 
z
" transform="scale(0.015625)"/>
       </defs>
       <use xlink:href="#DejaVuSans-36"/>
       <use xlink:href="#DejaVuSans-2e" x="63.623047"/>
       <use xlink:href="#DejaVuSans-38" x="95.410156"/>
       <use xlink:href="#DejaVuSans-33" x="159.033203"/>
      </g>
     </g>
    </g>
    <g id="xtick_3">
     <g id="line2d_5">
      <path d="M 153.431125 384.48 
L 153.431125 51.84 
" clip-path="url(#p648c19ea86)" style="fill: none; stroke: #b0b0b0; stroke-width: 0.8; stroke-linecap: square"/>
     </g>
     <g id="line2d_6">
      <g>
       <use xlink:href="#md134aa4135" x="153.431125" y="384.48" style="stroke: #000000; stroke-width: 0.8"/>
      </g>
     </g>
     <g id="text_3">
      <!-- 13.5 -->
      <g transform="translate(142.298312 399.078438) scale(0.1 -0.1)">
       <defs>
        <path id="DejaVuSans-35" d="M 691 4666 
L 3169 4666 
L 3169 4134 
L 1269 4134 
L 1269 2991 
Q 1406 3038 1543 3061 
Q 1681 3084 1819 3084 
Q 2600 3084 3056 2656 
Q 3513 2228 3513 1497 
Q 3513 744 3044 326 
Q 2575 -91 1722 -91 
Q 1428 -91 1123 -41 
Q 819 9 494 109 
L 494 744 
Q 775 591 1075 516 
Q 1375 441 1709 441 
Q 2250 441 2565 725 
Q 2881 1009 2881 1497 
Q 2881 1984 2565 2268 
Q 2250 2553 1709 2553 
Q 1456 2553 1204 2497 
Q 953 2441 691 2322 
L 691 4666 
z
" transform="scale(0.015625)"/>
       </defs>
       <use xlink:href="#DejaVuSans-31"/>
       <use xlink:href="#DejaVuSans-33" x="63.623047"/>
       <use xlink:href="#DejaVuSans-2e" x="127.246094"/>
       <use xlink:href="#DejaVuSans-35" x="159.033203"/>
      </g>
     </g>
    </g>
    <g id="xtick_4">
     <g id="line2d_7">
      <path d="M 184.001233 384.48 
L 184.001233 51.84 
" clip-path="url(#p648c19ea86)" style="fill: none; stroke: #b0b0b0; stroke-width: 0.8; stroke-linecap: square"/>
     </g>
     <g id="line2d_8">
      <g>
       <use xlink:href="#md134aa4135" x="184.001233" y="384.48" style="stroke: #000000; stroke-width: 0.8"/>
      </g>
     </g>
     <g id="text_4">
      <!-- 20.17 -->
      <g transform="translate(169.68717 399.078438) scale(0.1 -0.1)">
       <defs>
        <path id="DejaVuSans-32" d="M 1228 531 
L 3431 531 
L 3431 0 
L 469 0 
L 469 531 
Q 828 903 1448 1529 
Q 2069 2156 2228 2338 
Q 2531 2678 2651 2914 
Q 2772 3150 2772 3378 
Q 2772 3750 2511 3984 
Q 2250 4219 1831 4219 
Q 1534 4219 1204 4116 
Q 875 4013 500 3803 
L 500 4441 
Q 881 4594 1212 4672 
Q 1544 4750 1819 4750 
Q 2544 4750 2975 4387 
Q 3406 4025 3406 3419 
Q 3406 3131 3298 2873 
Q 3191 2616 2906 2266 
Q 2828 2175 2409 1742 
Q 1991 1309 1228 531 
z
" transform="scale(0.015625)"/>
       </defs>
       <use xlink:href="#DejaVuSans-32"/>
       <use xlink:href="#DejaVuSans-30" x="63.623047"/>
       <use xlink:href="#DejaVuSans-2e" x="127.246094"/>
       <use xlink:href="#DejaVuSans-31" x="159.033203"/>
       <use xlink:href="#DejaVuSans-37" x="222.65625"/>
      </g>
     </g>
    </g>
    <g id="xtick_5">
     <g id="line2d_9">
      <path d="M 214.571341 384.48 
L 214.571341 51.84 
" clip-path="url(#p648c19ea86)" style="fill: none; stroke: #b0b0b0; stroke-width: 0.8; stroke-linecap: square"/>
     </g>
     <g id="line2d_10">
      <g>
       <use xlink:href="#md134aa4135" x="214.571341" y="384.48" style="stroke: #000000; stroke-width: 0.8"/>
      </g>
     </g>
     <g id="text_5">
      <!-- 26.83 -->
      <g transform="translate(200.257278 399.078438) scale(0.1 -0.1)">
       <use xlink:href="#DejaVuSans-32"/>
       <use xlink:href="#DejaVuSans-36" x="63.623047"/>
       <use xlink:href="#DejaVuSans-2e" x="127.246094"/>
       <use xlink:href="#DejaVuSans-38" x="159.033203"/>
       <use xlink:href="#DejaVuSans-33" x="222.65625"/>
      </g>
     </g>
    </g>
    <g id="xtick_6">
     <g id="line2d_11">
      <path d="M 245.141448 384.48 
L 245.141448 51.84 
" clip-path="url(#p648c19ea86)" style="fill: none; stroke: #b0b0b0; stroke-width: 0.8; stroke-linecap: square"/>
     </g>
     <g id="line2d_12">
      <g>
       <use xlink:href="#md134aa4135" x="245.141448" y="384.48" style="stroke: #000000; stroke-width: 0.8"/>
      </g>
     </g>
     <g id="text_6">
      <!-- 33.5 -->
      <g transform="translate(234.008636 399.078438) scale(0.1 -0.1)">
       <use xlink:href="#DejaVuSans-33"/>
       <use xlink:href="#DejaVuSans-33" x="63.623047"/>
       <use xlink:href="#DejaVuSans-2e" x="127.246094"/>
       <use xlink:href="#DejaVuSans-35" x="159.033203"/>
      </g>
     </g>
    </g>
    <g id="xtick_7">
     <g id="line2d_13">
      <path d="M 275.711556 384.48 
L 275.711556 51.84 
" clip-path="url(#p648c19ea86)" style="fill: none; stroke: #b0b0b0; stroke-width: 0.8; stroke-linecap: square"/>
     </g>
     <g id="line2d_14">
      <g>
       <use xlink:href="#md134aa4135" x="275.711556" y="384.48" style="stroke: #000000; stroke-width: 0.8"/>
      </g>
     </g>
     <g id="text_7">
      <!-- 40.17 -->
      <g transform="translate(261.397494 399.078438) scale(0.1 -0.1)">
       <defs>
        <path id="DejaVuSans-34" d="M 2419 4116 
L 825 1625 
L 2419 1625 
L 2419 4116 
z
M 2253 4666 
L 3047 4666 
L 3047 1625 
L 3713 1625 
L 3713 1100 
L 3047 1100 
L 3047 0 
L 2419 0 
L 2419 1100 
L 313 1100 
L 313 1709 
L 2253 4666 
z
" transform="scale(0.015625)"/>
       </defs>
       <use xlink:href="#DejaVuSans-34"/>
       <use xlink:href="#DejaVuSans-30" x="63.623047"/>
       <use xlink:href="#DejaVuSans-2e" x="127.246094"/>
       <use xlink:href="#DejaVuSans-31" x="159.033203"/>
       <use xlink:href="#DejaVuSans-37" x="222.65625"/>
      </g>
     </g>
    </g>
    <g id="xtick_8">
     <g id="line2d_15">
      <path d="M 306.281664 384.48 
L 306.281664 51.84 
" clip-path="url(#p648c19ea86)" style="fill: none; stroke: #b0b0b0; stroke-width: 0.8; stroke-linecap: square"/>
     </g>
     <g id="line2d_16">
      <g>
       <use xlink:href="#md134aa4135" x="306.281664" y="384.48" style="stroke: #000000; stroke-width: 0.8"/>
      </g>
     </g>
     <g id="text_8">
      <!-- 46.83 -->
      <g transform="translate(291.967602 399.078438) scale(0.1 -0.1)">
       <use xlink:href="#DejaVuSans-34"/>
       <use xlink:href="#DejaVuSans-36" x="63.623047"/>
       <use xlink:href="#DejaVuSans-2e" x="127.246094"/>
       <use xlink:href="#DejaVuSans-38" x="159.033203"/>
       <use xlink:href="#DejaVuSans-33" x="222.65625"/>
      </g>
     </g>
    </g>
    <g id="xtick_9">
     <g id="line2d_17">
      <path d="M 336.851772 384.48 
L 336.851772 51.84 
" clip-path="url(#p648c19ea86)" style="fill: none; stroke: #b0b0b0; stroke-width: 0.8; stroke-linecap: square"/>
     </g>
     <g id="line2d_18">
      <g>
       <use xlink:href="#md134aa4135" x="336.851772" y="384.48" style="stroke: #000000; stroke-width: 0.8"/>
      </g>
     </g>
     <g id="text_9">
      <!-- 53.5 -->
      <g transform="translate(325.718959 399.078438) scale(0.1 -0.1)">
       <use xlink:href="#DejaVuSans-35"/>
       <use xlink:href="#DejaVuSans-33" x="63.623047"/>
       <use xlink:href="#DejaVuSans-2e" x="127.246094"/>
       <use xlink:href="#DejaVuSans-35" x="159.033203"/>
      </g>
     </g>
    </g>
    <g id="xtick_10">
     <g id="line2d_19">
      <path d="M 367.42188 384.48 
L 367.42188 51.84 
" clip-path="url(#p648c19ea86)" style="fill: none; stroke: #b0b0b0; stroke-width: 0.8; stroke-linecap: square"/>
     </g>
     <g id="line2d_20">
      <g>
       <use xlink:href="#md134aa4135" x="367.42188" y="384.48" style="stroke: #000000; stroke-width: 0.8"/>
      </g>
     </g>
     <g id="text_10">
      <!-- 60.17 -->
      <g transform="translate(353.107817 399.078438) scale(0.1 -0.1)">
       <use xlink:href="#DejaVuSans-36"/>
       <use xlink:href="#DejaVuSans-30" x="63.623047"/>
       <use xlink:href="#DejaVuSans-2e" x="127.246094"/>
       <use xlink:href="#DejaVuSans-31" x="159.033203"/>
       <use xlink:href="#DejaVuSans-37" x="222.65625"/>
      </g>
     </g>
    </g>
    <g id="xtick_11">
     <g id="line2d_21">
      <path d="M 397.991988 384.48 
L 397.991988 51.84 
" clip-path="url(#p648c19ea86)" style="fill: none; stroke: #b0b0b0; stroke-width: 0.8; stroke-linecap: square"/>
     </g>
     <g id="line2d_22">
      <g>
       <use xlink:href="#md134aa4135" x="397.991988" y="384.48" style="stroke: #000000; stroke-width: 0.8"/>
      </g>
     </g>
     <g id="text_11">
      <!-- 66.83 -->
      <g transform="translate(383.677925 399.078438) scale(0.1 -0.1)">
       <use xlink:href="#DejaVuSans-36"/>
       <use xlink:href="#DejaVuSans-36" x="63.623047"/>
       <use xlink:href="#DejaVuSans-2e" x="127.246094"/>
       <use xlink:href="#DejaVuSans-38" x="159.033203"/>
       <use xlink:href="#DejaVuSans-33" x="222.65625"/>
      </g>
     </g>
    </g>
    <g id="xtick_12">
     <g id="line2d_23">
      <path d="M 428.562096 384.48 
L 428.562096 51.84 
" clip-path="url(#p648c19ea86)" style="fill: none; stroke: #b0b0b0; stroke-width: 0.8; stroke-linecap: square"/>
     </g>
     <g id="line2d_24">
      <g>
       <use xlink:href="#md134aa4135" x="428.562096" y="384.48" style="stroke: #000000; stroke-width: 0.8"/>
      </g>
     </g>
     <g id="text_12">
      <!-- 73.5 -->
      <g transform="translate(417.429283 399.078438) scale(0.1 -0.1)">
       <use xlink:href="#DejaVuSans-37"/>
       <use xlink:href="#DejaVuSans-33" x="63.623047"/>
       <use xlink:href="#DejaVuSans-2e" x="127.246094"/>
       <use xlink:href="#DejaVuSans-35" x="159.033203"/>
      </g>
     </g>
    </g>
    <g id="xtick_13">
     <g id="line2d_25">
      <path d="M 459.132203 384.48 
L 459.132203 51.84 
" clip-path="url(#p648c19ea86)" style="fill: none; stroke: #b0b0b0; stroke-width: 0.8; stroke-linecap: square"/>
     </g>
     <g id="line2d_26">
      <g>
       <use xlink:href="#md134aa4135" x="459.132203" y="384.48" style="stroke: #000000; stroke-width: 0.8"/>
      </g>
     </g>
     <g id="text_13">
      <!-- 80.17 -->
      <g transform="translate(444.818141 399.078438) scale(0.1 -0.1)">
       <use xlink:href="#DejaVuSans-38"/>
       <use xlink:href="#DejaVuSans-30" x="63.623047"/>
       <use xlink:href="#DejaVuSans-2e" x="127.246094"/>
       <use xlink:href="#DejaVuSans-31" x="159.033203"/>
       <use xlink:href="#DejaVuSans-37" x="222.65625"/>
      </g>
     </g>
    </g>
    <g id="xtick_14">
     <g id="line2d_27">
      <path d="M 489.702311 384.48 
L 489.702311 51.84 
" clip-path="url(#p648c19ea86)" style="fill: none; stroke: #b0b0b0; stroke-width: 0.8; stroke-linecap: square"/>
     </g>
     <g id="line2d_28">
      <g>
       <use xlink:href="#md134aa4135" x="489.702311" y="384.48" style="stroke: #000000; stroke-width: 0.8"/>
      </g>
     </g>
     <g id="text_14">
      <!-- 86.83 -->
      <g transform="translate(475.388249 399.078438) scale(0.1 -0.1)">
       <use xlink:href="#DejaVuSans-38"/>
       <use xlink:href="#DejaVuSans-36" x="63.623047"/>
       <use xlink:href="#DejaVuSans-2e" x="127.246094"/>
       <use xlink:href="#DejaVuSans-38" x="159.033203"/>
       <use xlink:href="#DejaVuSans-33" x="222.65625"/>
      </g>
     </g>
    </g>
    <g id="text_15">
     <!-- time in hours [h] -->
     <g transform="translate(253.451562 412.756563) scale(0.1 -0.1)">
      <defs>
       <path id="DejaVuSans-74" d="M 1172 4494 
L 1172 3500 
L 2356 3500 
L 2356 3053 
L 1172 3053 
L 1172 1153 
Q 1172 725 1289 603 
Q 1406 481 1766 481 
L 2356 481 
L 2356 0 
L 1766 0 
Q 1100 0 847 248 
Q 594 497 594 1153 
L 594 3053 
L 172 3053 
L 172 3500 
L 594 3500 
L 594 4494 
L 1172 4494 
z
" transform="scale(0.015625)"/>
       <path id="DejaVuSans-69" d="M 603 3500 
L 1178 3500 
L 1178 0 
L 603 0 
L 603 3500 
z
M 603 4863 
L 1178 4863 
L 1178 4134 
L 603 4134 
L 603 4863 
z
" transform="scale(0.015625)"/>
       <path id="DejaVuSans-6d" d="M 3328 2828 
Q 3544 3216 3844 3400 
Q 4144 3584 4550 3584 
Q 5097 3584 5394 3201 
Q 5691 2819 5691 2113 
L 5691 0 
L 5113 0 
L 5113 2094 
Q 5113 2597 4934 2840 
Q 4756 3084 4391 3084 
Q 3944 3084 3684 2787 
Q 3425 2491 3425 1978 
L 3425 0 
L 2847 0 
L 2847 2094 
Q 2847 2600 2669 2842 
Q 2491 3084 2119 3084 
Q 1678 3084 1418 2786 
Q 1159 2488 1159 1978 
L 1159 0 
L 581 0 
L 581 3500 
L 1159 3500 
L 1159 2956 
Q 1356 3278 1631 3431 
Q 1906 3584 2284 3584 
Q 2666 3584 2933 3390 
Q 3200 3197 3328 2828 
z
" transform="scale(0.015625)"/>
       <path id="DejaVuSans-65" d="M 3597 1894 
L 3597 1613 
L 953 1613 
Q 991 1019 1311 708 
Q 1631 397 2203 397 
Q 2534 397 2845 478 
Q 3156 559 3463 722 
L 3463 178 
Q 3153 47 2828 -22 
Q 2503 -91 2169 -91 
Q 1331 -91 842 396 
Q 353 884 353 1716 
Q 353 2575 817 3079 
Q 1281 3584 2069 3584 
Q 2775 3584 3186 3129 
Q 3597 2675 3597 1894 
z
M 3022 2063 
Q 3016 2534 2758 2815 
Q 2500 3097 2075 3097 
Q 1594 3097 1305 2825 
Q 1016 2553 972 2059 
L 3022 2063 
z
" transform="scale(0.015625)"/>
       <path id="DejaVuSans-20" transform="scale(0.015625)"/>
       <path id="DejaVuSans-6e" d="M 3513 2113 
L 3513 0 
L 2938 0 
L 2938 2094 
Q 2938 2591 2744 2837 
Q 2550 3084 2163 3084 
Q 1697 3084 1428 2787 
Q 1159 2491 1159 1978 
L 1159 0 
L 581 0 
L 581 3500 
L 1159 3500 
L 1159 2956 
Q 1366 3272 1645 3428 
Q 1925 3584 2291 3584 
Q 2894 3584 3203 3211 
Q 3513 2838 3513 2113 
z
" transform="scale(0.015625)"/>
       <path id="DejaVuSans-68" d="M 3513 2113 
L 3513 0 
L 2938 0 
L 2938 2094 
Q 2938 2591 2744 2837 
Q 2550 3084 2163 3084 
Q 1697 3084 1428 2787 
Q 1159 2491 1159 1978 
L 1159 0 
L 581 0 
L 581 4863 
L 1159 4863 
L 1159 2956 
Q 1366 3272 1645 3428 
Q 1925 3584 2291 3584 
Q 2894 3584 3203 3211 
Q 3513 2838 3513 2113 
z
" transform="scale(0.015625)"/>
       <path id="DejaVuSans-6f" d="M 1959 3097 
Q 1497 3097 1228 2736 
Q 959 2375 959 1747 
Q 959 1119 1226 758 
Q 1494 397 1959 397 
Q 2419 397 2687 759 
Q 2956 1122 2956 1747 
Q 2956 2369 2687 2733 
Q 2419 3097 1959 3097 
z
M 1959 3584 
Q 2709 3584 3137 3096 
Q 3566 2609 3566 1747 
Q 3566 888 3137 398 
Q 2709 -91 1959 -91 
Q 1206 -91 779 398 
Q 353 888 353 1747 
Q 353 2609 779 3096 
Q 1206 3584 1959 3584 
z
" transform="scale(0.015625)"/>
       <path id="DejaVuSans-75" d="M 544 1381 
L 544 3500 
L 1119 3500 
L 1119 1403 
Q 1119 906 1312 657 
Q 1506 409 1894 409 
Q 2359 409 2629 706 
Q 2900 1003 2900 1516 
L 2900 3500 
L 3475 3500 
L 3475 0 
L 2900 0 
L 2900 538 
Q 2691 219 2414 64 
Q 2138 -91 1772 -91 
Q 1169 -91 856 284 
Q 544 659 544 1381 
z
M 1991 3584 
L 1991 3584 
z
" transform="scale(0.015625)"/>
       <path id="DejaVuSans-72" d="M 2631 2963 
Q 2534 3019 2420 3045 
Q 2306 3072 2169 3072 
Q 1681 3072 1420 2755 
Q 1159 2438 1159 1844 
L 1159 0 
L 581 0 
L 581 3500 
L 1159 3500 
L 1159 2956 
Q 1341 3275 1631 3429 
Q 1922 3584 2338 3584 
Q 2397 3584 2469 3576 
Q 2541 3569 2628 3553 
L 2631 2963 
z
" transform="scale(0.015625)"/>
       <path id="DejaVuSans-73" d="M 2834 3397 
L 2834 2853 
Q 2591 2978 2328 3040 
Q 2066 3103 1784 3103 
Q 1356 3103 1142 2972 
Q 928 2841 928 2578 
Q 928 2378 1081 2264 
Q 1234 2150 1697 2047 
L 1894 2003 
Q 2506 1872 2764 1633 
Q 3022 1394 3022 966 
Q 3022 478 2636 193 
Q 2250 -91 1575 -91 
Q 1294 -91 989 -36 
Q 684 19 347 128 
L 347 722 
Q 666 556 975 473 
Q 1284 391 1588 391 
Q 1994 391 2212 530 
Q 2431 669 2431 922 
Q 2431 1156 2273 1281 
Q 2116 1406 1581 1522 
L 1381 1569 
Q 847 1681 609 1914 
Q 372 2147 372 2553 
Q 372 3047 722 3315 
Q 1072 3584 1716 3584 
Q 2034 3584 2315 3537 
Q 2597 3491 2834 3397 
z
" transform="scale(0.015625)"/>
       <path id="DejaVuSans-5b" d="M 550 4863 
L 1875 4863 
L 1875 4416 
L 1125 4416 
L 1125 -397 
L 1875 -397 
L 1875 -844 
L 550 -844 
L 550 4863 
z
" transform="scale(0.015625)"/>
       <path id="DejaVuSans-5d" d="M 1947 4863 
L 1947 -844 
L 622 -844 
L 622 -397 
L 1369 -397 
L 1369 4416 
L 622 4416 
L 622 4863 
L 1947 4863 
z
" transform="scale(0.015625)"/>
      </defs>
      <use xlink:href="#DejaVuSans-74"/>
      <use xlink:href="#DejaVuSans-69" x="39.208984"/>
      <use xlink:href="#DejaVuSans-6d" x="66.992188"/>
      <use xlink:href="#DejaVuSans-65" x="164.404297"/>
      <use xlink:href="#DejaVuSans-20" x="225.927734"/>
      <use xlink:href="#DejaVuSans-69" x="257.714844"/>
      <use xlink:href="#DejaVuSans-6e" x="285.498047"/>
      <use xlink:href="#DejaVuSans-20" x="348.876953"/>
      <use xlink:href="#DejaVuSans-68" x="380.664062"/>
      <use xlink:href="#DejaVuSans-6f" x="444.042969"/>
      <use xlink:href="#DejaVuSans-75" x="505.224609"/>
      <use xlink:href="#DejaVuSans-72" x="568.603516"/>
      <use xlink:href="#DejaVuSans-73" x="609.716797"/>
      <use xlink:href="#DejaVuSans-20" x="661.816406"/>
      <use xlink:href="#DejaVuSans-5b" x="693.603516"/>
      <use xlink:href="#DejaVuSans-68" x="732.617188"/>
      <use xlink:href="#DejaVuSans-5d" x="795.996094"/>
     </g>
    </g>
   </g>
   <g id="matplotlib.axis_2">
    <g id="ytick_1">
     <g id="line2d_29">
      <path d="M 72 330.908532 
L 518.4 330.908532 
" clip-path="url(#p648c19ea86)" style="fill: none; stroke: #b0b0b0; stroke-width: 0.8; stroke-linecap: square"/>
     </g>
     <g id="line2d_30">
      <defs>
       <path id="mfb5e01abb0" d="M 0 0 
L -3.5 0 
" style="stroke: #000000; stroke-width: 0.8"/>
      </defs>
      <g>
       <use xlink:href="#mfb5e01abb0" x="72" y="330.908532" style="stroke: #000000; stroke-width: 0.8"/>
      </g>
     </g>
     <g id="text_16">
      <!-- 20000 -->
      <g transform="translate(33.1875 334.70775) scale(0.1 -0.1)">
       <use xlink:href="#DejaVuSans-32"/>
       <use xlink:href="#DejaVuSans-30" x="63.623047"/>
       <use xlink:href="#DejaVuSans-30" x="127.246094"/>
       <use xlink:href="#DejaVuSans-30" x="190.869141"/>
       <use xlink:href="#DejaVuSans-30" x="254.492188"/>
      </g>
     </g>
    </g>
    <g id="ytick_2">
     <g id="line2d_31">
      <path d="M 72 270.511879 
L 518.4 270.511879 
" clip-path="url(#p648c19ea86)" style="fill: none; stroke: #b0b0b0; stroke-width: 0.8; stroke-linecap: square"/>
     </g>
     <g id="line2d_32">
      <g>
       <use xlink:href="#mfb5e01abb0" x="72" y="270.511879" style="stroke: #000000; stroke-width: 0.8"/>
      </g>
     </g>
     <g id="text_17">
      <!-- 40000 -->
      <g transform="translate(33.1875 274.311098) scale(0.1 -0.1)">
       <use xlink:href="#DejaVuSans-34"/>
       <use xlink:href="#DejaVuSans-30" x="63.623047"/>
       <use xlink:href="#DejaVuSans-30" x="127.246094"/>
       <use xlink:href="#DejaVuSans-30" x="190.869141"/>
       <use xlink:href="#DejaVuSans-30" x="254.492188"/>
      </g>
     </g>
    </g>
    <g id="ytick_3">
     <g id="line2d_33">
      <path d="M 72 210.115226 
L 518.4 210.115226 
" clip-path="url(#p648c19ea86)" style="fill: none; stroke: #b0b0b0; stroke-width: 0.8; stroke-linecap: square"/>
     </g>
     <g id="line2d_34">
      <g>
       <use xlink:href="#mfb5e01abb0" x="72" y="210.115226" style="stroke: #000000; stroke-width: 0.8"/>
      </g>
     </g>
     <g id="text_18">
      <!-- 60000 -->
      <g transform="translate(33.1875 213.914445) scale(0.1 -0.1)">
       <use xlink:href="#DejaVuSans-36"/>
       <use xlink:href="#DejaVuSans-30" x="63.623047"/>
       <use xlink:href="#DejaVuSans-30" x="127.246094"/>
       <use xlink:href="#DejaVuSans-30" x="190.869141"/>
       <use xlink:href="#DejaVuSans-30" x="254.492188"/>
      </g>
     </g>
    </g>
    <g id="ytick_4">
     <g id="line2d_35">
      <path d="M 72 149.718574 
L 518.4 149.718574 
" clip-path="url(#p648c19ea86)" style="fill: none; stroke: #b0b0b0; stroke-width: 0.8; stroke-linecap: square"/>
     </g>
     <g id="line2d_36">
      <g>
       <use xlink:href="#mfb5e01abb0" x="72" y="149.718574" style="stroke: #000000; stroke-width: 0.8"/>
      </g>
     </g>
     <g id="text_19">
      <!-- 80000 -->
      <g transform="translate(33.1875 153.517792) scale(0.1 -0.1)">
       <use xlink:href="#DejaVuSans-38"/>
       <use xlink:href="#DejaVuSans-30" x="63.623047"/>
       <use xlink:href="#DejaVuSans-30" x="127.246094"/>
       <use xlink:href="#DejaVuSans-30" x="190.869141"/>
       <use xlink:href="#DejaVuSans-30" x="254.492188"/>
      </g>
     </g>
    </g>
    <g id="ytick_5">
     <g id="line2d_37">
      <path d="M 72 89.321921 
L 518.4 89.321921 
" clip-path="url(#p648c19ea86)" style="fill: none; stroke: #b0b0b0; stroke-width: 0.8; stroke-linecap: square"/>
     </g>
     <g id="line2d_38">
      <g>
       <use xlink:href="#mfb5e01abb0" x="72" y="89.321921" style="stroke: #000000; stroke-width: 0.8"/>
      </g>
     </g>
     <g id="text_20">
      <!-- 100000 -->
      <g transform="translate(26.825 93.12114) scale(0.1 -0.1)">
       <use xlink:href="#DejaVuSans-31"/>
       <use xlink:href="#DejaVuSans-30" x="63.623047"/>
       <use xlink:href="#DejaVuSans-30" x="127.246094"/>
       <use xlink:href="#DejaVuSans-30" x="190.869141"/>
       <use xlink:href="#DejaVuSans-30" x="254.492188"/>
       <use xlink:href="#DejaVuSans-30" x="318.115234"/>
      </g>
     </g>
    </g>
    <g id="text_21">
     <!-- blank corrected GFP RFU -->
     <g transform="translate(20.745312 280.149062) rotate(-90) scale(0.1 -0.1)">
      <defs>
       <path id="DejaVuSans-62" d="M 3116 1747 
Q 3116 2381 2855 2742 
Q 2594 3103 2138 3103 
Q 1681 3103 1420 2742 
Q 1159 2381 1159 1747 
Q 1159 1113 1420 752 
Q 1681 391 2138 391 
Q 2594 391 2855 752 
Q 3116 1113 3116 1747 
z
M 1159 2969 
Q 1341 3281 1617 3432 
Q 1894 3584 2278 3584 
Q 2916 3584 3314 3078 
Q 3713 2572 3713 1747 
Q 3713 922 3314 415 
Q 2916 -91 2278 -91 
Q 1894 -91 1617 61 
Q 1341 213 1159 525 
L 1159 0 
L 581 0 
L 581 4863 
L 1159 4863 
L 1159 2969 
z
" transform="scale(0.015625)"/>
       <path id="DejaVuSans-6c" d="M 603 4863 
L 1178 4863 
L 1178 0 
L 603 0 
L 603 4863 
z
" transform="scale(0.015625)"/>
       <path id="DejaVuSans-61" d="M 2194 1759 
Q 1497 1759 1228 1600 
Q 959 1441 959 1056 
Q 959 750 1161 570 
Q 1363 391 1709 391 
Q 2188 391 2477 730 
Q 2766 1069 2766 1631 
L 2766 1759 
L 2194 1759 
z
M 3341 1997 
L 3341 0 
L 2766 0 
L 2766 531 
Q 2569 213 2275 61 
Q 1981 -91 1556 -91 
Q 1019 -91 701 211 
Q 384 513 384 1019 
Q 384 1609 779 1909 
Q 1175 2209 1959 2209 
L 2766 2209 
L 2766 2266 
Q 2766 2663 2505 2880 
Q 2244 3097 1772 3097 
Q 1472 3097 1187 3025 
Q 903 2953 641 2809 
L 641 3341 
Q 956 3463 1253 3523 
Q 1550 3584 1831 3584 
Q 2591 3584 2966 3190 
Q 3341 2797 3341 1997 
z
" transform="scale(0.015625)"/>
       <path id="DejaVuSans-6b" d="M 581 4863 
L 1159 4863 
L 1159 1991 
L 2875 3500 
L 3609 3500 
L 1753 1863 
L 3688 0 
L 2938 0 
L 1159 1709 
L 1159 0 
L 581 0 
L 581 4863 
z
" transform="scale(0.015625)"/>
       <path id="DejaVuSans-63" d="M 3122 3366 
L 3122 2828 
Q 2878 2963 2633 3030 
Q 2388 3097 2138 3097 
Q 1578 3097 1268 2742 
Q 959 2388 959 1747 
Q 959 1106 1268 751 
Q 1578 397 2138 397 
Q 2388 397 2633 464 
Q 2878 531 3122 666 
L 3122 134 
Q 2881 22 2623 -34 
Q 2366 -91 2075 -91 
Q 1284 -91 818 406 
Q 353 903 353 1747 
Q 353 2603 823 3093 
Q 1294 3584 2113 3584 
Q 2378 3584 2631 3529 
Q 2884 3475 3122 3366 
z
" transform="scale(0.015625)"/>
       <path id="DejaVuSans-64" d="M 2906 2969 
L 2906 4863 
L 3481 4863 
L 3481 0 
L 2906 0 
L 2906 525 
Q 2725 213 2448 61 
Q 2172 -91 1784 -91 
Q 1150 -91 751 415 
Q 353 922 353 1747 
Q 353 2572 751 3078 
Q 1150 3584 1784 3584 
Q 2172 3584 2448 3432 
Q 2725 3281 2906 2969 
z
M 947 1747 
Q 947 1113 1208 752 
Q 1469 391 1925 391 
Q 2381 391 2643 752 
Q 2906 1113 2906 1747 
Q 2906 2381 2643 2742 
Q 2381 3103 1925 3103 
Q 1469 3103 1208 2742 
Q 947 2381 947 1747 
z
" transform="scale(0.015625)"/>
       <path id="DejaVuSans-47" d="M 3809 666 
L 3809 1919 
L 2778 1919 
L 2778 2438 
L 4434 2438 
L 4434 434 
Q 4069 175 3628 42 
Q 3188 -91 2688 -91 
Q 1594 -91 976 548 
Q 359 1188 359 2328 
Q 359 3472 976 4111 
Q 1594 4750 2688 4750 
Q 3144 4750 3555 4637 
Q 3966 4525 4313 4306 
L 4313 3634 
Q 3963 3931 3569 4081 
Q 3175 4231 2741 4231 
Q 1884 4231 1454 3753 
Q 1025 3275 1025 2328 
Q 1025 1384 1454 906 
Q 1884 428 2741 428 
Q 3075 428 3337 486 
Q 3600 544 3809 666 
z
" transform="scale(0.015625)"/>
       <path id="DejaVuSans-46" d="M 628 4666 
L 3309 4666 
L 3309 4134 
L 1259 4134 
L 1259 2759 
L 3109 2759 
L 3109 2228 
L 1259 2228 
L 1259 0 
L 628 0 
L 628 4666 
z
" transform="scale(0.015625)"/>
       <path id="DejaVuSans-50" d="M 1259 4147 
L 1259 2394 
L 2053 2394 
Q 2494 2394 2734 2622 
Q 2975 2850 2975 3272 
Q 2975 3691 2734 3919 
Q 2494 4147 2053 4147 
L 1259 4147 
z
M 628 4666 
L 2053 4666 
Q 2838 4666 3239 4311 
Q 3641 3956 3641 3272 
Q 3641 2581 3239 2228 
Q 2838 1875 2053 1875 
L 1259 1875 
L 1259 0 
L 628 0 
L 628 4666 
z
" transform="scale(0.015625)"/>
       <path id="DejaVuSans-52" d="M 2841 2188 
Q 3044 2119 3236 1894 
Q 3428 1669 3622 1275 
L 4263 0 
L 3584 0 
L 2988 1197 
Q 2756 1666 2539 1819 
Q 2322 1972 1947 1972 
L 1259 1972 
L 1259 0 
L 628 0 
L 628 4666 
L 2053 4666 
Q 2853 4666 3247 4331 
Q 3641 3997 3641 3322 
Q 3641 2881 3436 2590 
Q 3231 2300 2841 2188 
z
M 1259 4147 
L 1259 2491 
L 2053 2491 
Q 2509 2491 2742 2702 
Q 2975 2913 2975 3322 
Q 2975 3731 2742 3939 
Q 2509 4147 2053 4147 
L 1259 4147 
z
" transform="scale(0.015625)"/>
       <path id="DejaVuSans-55" d="M 556 4666 
L 1191 4666 
L 1191 1831 
Q 1191 1081 1462 751 
Q 1734 422 2344 422 
Q 2950 422 3222 751 
Q 3494 1081 3494 1831 
L 3494 4666 
L 4128 4666 
L 4128 1753 
Q 4128 841 3676 375 
Q 3225 -91 2344 -91 
Q 1459 -91 1007 375 
Q 556 841 556 1753 
L 556 4666 
z
" transform="scale(0.015625)"/>
      </defs>
      <use xlink:href="#DejaVuSans-62"/>
      <use xlink:href="#DejaVuSans-6c" x="63.476562"/>
      <use xlink:href="#DejaVuSans-61" x="91.259766"/>
      <use xlink:href="#DejaVuSans-6e" x="152.539062"/>
      <use xlink:href="#DejaVuSans-6b" x="215.917969"/>
      <use xlink:href="#DejaVuSans-20" x="273.828125"/>
      <use xlink:href="#DejaVuSans-63" x="305.615234"/>
      <use xlink:href="#DejaVuSans-6f" x="360.595703"/>
      <use xlink:href="#DejaVuSans-72" x="421.777344"/>
      <use xlink:href="#DejaVuSans-72" x="461.140625"/>
      <use xlink:href="#DejaVuSans-65" x="500.003906"/>
      <use xlink:href="#DejaVuSans-63" x="561.527344"/>
      <use xlink:href="#DejaVuSans-74" x="616.507812"/>
      <use xlink:href="#DejaVuSans-65" x="655.716797"/>
      <use xlink:href="#DejaVuSans-64" x="717.240234"/>
      <use xlink:href="#DejaVuSans-20" x="780.716797"/>
      <use xlink:href="#DejaVuSans-47" x="812.503906"/>
      <use xlink:href="#DejaVuSans-46" x="889.994141"/>
      <use xlink:href="#DejaVuSans-50" x="947.513672"/>
      <use xlink:href="#DejaVuSans-20" x="1007.816406"/>
      <use xlink:href="#DejaVuSans-52" x="1039.603516"/>
      <use xlink:href="#DejaVuSans-46" x="1109.085938"/>
      <use xlink:href="#DejaVuSans-55" x="1166.605469"/>
     </g>
    </g>
   </g>
   <g id="line2d_39">
    <path d="M 92.290909 338.87177 
L 93.055162 340.079703 
L 93.819414 338.790234 
L 94.583667 338.524489 
L 95.34792 337.826908 
L 96.876425 337.201802 
L 97.640678 336.549518 
L 98.404931 335.746243 
L 99.169183 335.238911 
L 101.461941 332.312693 
L 102.226194 331.328228 
L 102.990447 330.681984 
L 103.7547 328.719092 
L 104.518952 327.565516 
L 105.283205 326.140155 
L 106.047458 325.194948 
L 108.340216 320.870547 
L 109.104468 319.617317 
L 109.868721 317.642346 
L 112.161479 312.831753 
L 114.454237 306.635056 
L 115.21849 305.270092 
L 115.982743 303.530668 
L 116.746995 304.146714 
L 117.511248 303.337399 
L 118.275501 301.362429 
L 119.039753 298.563044 
L 119.804006 293.670915 
L 120.568259 290.125631 
L 122.096764 285.795191 
L 124.389522 278.577791 
L 125.153775 276.207223 
L 125.918028 273.133033 
L 128.210786 266.117962 
L 128.975039 265.752562 
L 129.739291 264.16413 
L 131.267797 261.654649 
L 132.032049 261.114099 
L 132.796302 258.426448 
L 134.324807 253.685311 
L 135.08906 248.28283 
L 135.853313 244.456703 
L 136.617565 235.379086 
L 137.381818 230.870476 
L 138.910324 224.598283 
L 139.674576 222.212615 
L 140.438829 217.329546 
L 142.731587 209.260553 
L 143.49584 211.763994 
L 144.260092 213.313169 
L 145.024345 213.455101 
L 145.788598 212.57029 
L 146.552851 212.153553 
L 147.317103 208.855896 
L 148.081356 204.948232 
L 151.138367 196.649732 
L 152.666872 190.141993 
L 153.431125 186.666165 
L 154.95963 176.018236 
L 156.488136 168.486773 
L 157.252388 166.674873 
L 158.016641 166.236998 
L 158.780894 167.306018 
L 159.545146 167.378494 
L 160.309399 165.753825 
L 161.073652 162.918202 
L 161.837904 160.60199 
L 162.602157 158.883705 
L 163.36641 155.084756 
L 164.130663 153.411769 
L 164.894915 149.356133 
L 165.659168 146.3514 
L 166.423421 144.159001 
L 167.187673 140.127525 
L 167.951926 138.22201 
L 168.716179 135.812184 
L 169.480431 133.888551 
L 170.244684 130.183216 
L 171.008937 129.724201 
L 171.77319 132.417892 
L 172.537442 133.924789 
L 173.301695 134.287169 
L 174.065948 134.812619 
L 174.8302 134.039542 
L 175.594453 132.46319 
L 176.358706 131.164662 
L 177.122958 130.304009 
L 177.887211 129.186671 
L 178.651464 123.805329 
L 180.179969 117.4818 
L 180.944222 117.258332 
L 182.472727 119.332957 
L 183.23698 122.681952 
L 184.001233 124.87737 
L 184.765485 133.049037 
L 185.529738 137.074474 
L 186.293991 142.709482 
L 187.822496 149.452768 
L 188.586749 151.442838 
L 189.351002 154.529107 
L 190.115254 155.18743 
L 191.64376 158.488107 
L 192.408012 160.179213 
L 193.172265 160.749962 
L 194.70077 160.982489 
L 195.465023 159.113213 
L 196.229276 159.327621 
L 196.993529 161.32071 
L 201.579045 180.288279 
L 203.10755 183.561778 
L 203.871803 184.77575 
L 204.636055 187.48454 
L 205.400308 187.717067 
L 206.164561 187.762365 
L 206.928814 187.952614 
L 207.693066 185.572986 
L 208.457319 186.028981 
L 209.221572 187.104041 
L 209.985824 189.009556 
L 210.750077 191.739484 
L 212.278582 198.697179 
L 213.807088 205.842103 
L 214.571341 209.994373 
L 215.335593 212.609548 
L 216.099846 214.361051 
L 216.864099 216.508152 
L 217.628351 217.559053 
L 218.392604 216.955087 
L 219.156857 215.843788 
L 219.921109 216.487013 
L 220.685362 215.668638 
L 221.449615 214.321793 
L 222.213867 213.325248 
L 222.97812 212.944749 
L 223.742373 212.866233 
L 224.506626 216.275624 
L 225.270878 221.348943 
L 226.035131 225.504233 
L 227.563636 235.853199 
L 229.092142 243.200452 
L 230.620647 248.062383 
L 231.3849 249.979976 
L 232.149153 250.737954 
L 232.913405 248.732786 
L 233.677658 248.895857 
L 234.441911 249.614577 
L 235.206163 251.157711 
L 235.970416 255.168049 
L 236.734669 258.384171 
L 238.263174 265.994149 
L 240.555932 279.942756 
L 242.084438 287.857737 
L 243.612943 293.441408 
L 244.377196 295.893512 
L 245.141448 296.8357 
L 245.905701 295.908611 
L 246.669954 298.318437 
L 247.434206 301.564757 
L 248.962712 307.332638 
L 249.726965 310.618216 
L 251.25547 315.105687 
L 253.548228 326.188473 
L 254.312481 329.727717 
L 256.605239 337.222941 
L 257.369492 338.853651 
L 258.133744 339.868315 
L 258.897997 340.384706 
L 259.66225 340.514559 
L 261.190755 343.407558 
L 261.955008 345.101684 
L 262.71926 346.385113 
L 265.776271 352.442898 
L 266.540524 353.84108 
L 267.304777 355.81907 
L 268.833282 358.70905 
L 270.361787 360.303522 
L 271.12604 360.925607 
L 272.654545 361.493336 
L 273.418798 360.807834 
L 274.183051 360.421295 
L 274.947304 360.88635 
L 275.711556 361.511455 
L 276.475809 361.876855 
L 277.240062 361.940271 
L 280.297072 363.471326 
L 282.589831 365.39194 
L 283.354083 365.863034 
L 284.118336 365.666745 
L 284.882589 365.847935 
L 285.646841 365.693923 
L 286.411094 364.769854 
L 287.175347 365.105056 
L 287.939599 364.978223 
L 288.703852 365.105056 
L 289.468105 365.059758 
L 290.232357 365.585209 
L 290.99661 365.555011 
L 291.760863 365.660705 
L 292.525116 365.615408 
L 294.053621 366.681408 
L 294.817874 366.823341 
L 296.346379 367.668894 
L 297.874884 367.813846 
L 298.639137 368.118849 
L 299.40339 368.031274 
L 300.931895 366.361306 
L 303.224653 366.518337 
L 303.988906 366.28883 
L 304.753159 366.530417 
L 307.045917 366.488139 
L 307.810169 366.983392 
L 308.574422 367.167602 
L 310.102928 367.964837 
L 310.86718 368.067512 
L 312.395686 367.868203 
L 314.688444 366.720666 
L 316.216949 366.349227 
L 316.981202 366.681408 
L 319.27396 366.322048 
L 320.038213 366.738785 
L 320.802465 366.621012 
L 321.566718 366.971312 
L 322.330971 367.539041 
L 323.095223 367.762509 
L 323.859476 367.868203 
L 324.623729 367.822905 
L 325.387982 368.049393 
L 326.152234 367.970877 
L 326.916487 367.267256 
L 327.68074 366.892797 
L 328.444992 366.29185 
L 329.209245 366.527397 
L 329.973498 366.47002 
L 330.73775 366.228434 
L 331.502003 366.617992 
L 332.266256 366.382445 
L 333.030508 366.352247 
L 334.559014 366.633091 
L 336.087519 367.545081 
L 338.380277 367.995036 
L 339.14453 368.067512 
L 339.908783 367.995036 
L 340.673035 367.611517 
L 341.437288 366.463981 
L 342.201541 366.29487 
L 342.965794 366.349227 
L 346.022804 365.947589 
L 346.787057 366.219374 
L 347.55131 366.255612 
L 348.315562 366.125759 
L 349.079815 366.992451 
L 349.844068 367.104185 
L 350.60832 367.484684 
L 351.372573 367.699092 
L 352.901079 367.5632 
L 354.429584 367.19176 
L 355.193837 366.542496 
L 355.958089 365.712042 
L 357.486595 365.811697 
L 358.250847 365.687884 
L 359.0151 366.098581 
L 359.779353 365.844915 
L 361.307858 365.971748 
L 362.072111 365.853974 
L 363.600616 366.929035 
L 364.364869 367.155522 
L 366.657627 367.231018 
L 367.42188 367.155522 
L 368.950385 365.57011 
L 371.243143 365.672784 
L 372.007396 365.530852 
L 372.771649 365.709022 
L 373.535901 365.57917 
L 374.300154 365.636546 
L 375.828659 365.458376 
L 376.592912 365.693923 
L 377.357165 366.234473 
L 378.121418 366.548536 
L 379.649923 366.717646 
L 380.414176 366.953193 
L 381.942681 365.742241 
L 382.706934 365.159413 
L 385.763945 365.171492 
L 386.528197 364.911787 
L 387.29245 365.334563 
L 388.820955 364.996342 
L 389.585208 365.56407 
L 390.349461 365.630507 
L 391.877966 366.47606 
L 392.642219 366.575714 
L 393.406471 366.412643 
L 394.170724 366.373386 
L 396.463482 364.84233 
L 397.227735 365.056739 
L 397.991988 364.739656 
L 398.75624 364.899707 
L 399.520493 364.784954 
L 401.048998 364.957084 
L 402.577504 364.917826 
L 403.341757 365.017481 
L 405.634515 366.128779 
L 407.16302 366.282791 
L 408.691525 366.089521 
L 409.455778 364.908767 
L 410.220031 364.594704 
L 410.984284 364.67624 
L 411.748536 364.48297 
L 412.512789 364.751735 
L 413.277042 364.416534 
L 414.805547 364.476931 
L 415.5698 364.818172 
L 416.334052 364.498069 
L 417.098305 364.591684 
L 417.862558 365.123175 
L 418.62681 365.808677 
L 419.391063 365.950609 
L 420.919569 365.92947 
L 421.683821 366.143878 
L 422.448074 365.627487 
L 423.212327 364.180987 
L 423.976579 364.419554 
L 424.740832 364.180987 
L 425.505085 364.30782 
L 426.269337 364.262523 
L 427.797843 364.531288 
L 428.562096 364.259503 
L 430.090601 364.274602 
L 430.854854 364.884608 
L 433.147612 365.799617 
L 435.44037 366.053283 
L 436.204622 365.74828 
L 437.733128 364.138709 
L 438.497381 363.76425 
L 439.261633 364.039055 
L 440.025886 364.168908 
L 440.790139 364.002817 
L 441.554391 364.220245 
L 442.318644 363.984698 
L 443.082897 363.900143 
L 443.847149 364.162868 
L 444.611402 364.205146 
L 445.375655 364.709458 
L 446.139908 365.373821 
L 446.90416 365.606348 
L 448.432666 365.654665 
L 449.196918 365.687884 
L 449.961171 365.331543 
L 450.725424 364.259503 
L 451.489676 363.676675 
L 453.782435 363.891083 
L 454.546687 363.643457 
L 455.31094 363.740091 
L 456.839445 363.688754 
L 457.603698 363.894103 
L 458.367951 363.872964 
L 459.132203 364.341038 
L 459.896456 365.168472 
L 460.660709 365.044659 
L 461.424961 365.237928 
L 462.953467 365.346642 
L 463.71772 363.912222 
L 464.481972 363.516624 
L 465.246225 363.631377 
L 467.538983 363.444148 
L 468.303236 363.208601 
L 469.067488 363.365632 
L 469.831741 363.40187 
L 470.595994 363.598159 
L 471.360247 363.268998 
L 472.888752 364.259503 
L 474.417257 364.797033 
L 475.18151 364.923866 
L 475.945763 364.821192 
L 476.710015 364.875549 
L 477.474268 364.525248 
L 478.238521 363.779349 
L 479.002773 363.441128 
L 479.767026 363.474346 
L 480.531279 363.275037 
L 481.295532 363.392811 
L 483.58829 363.148204 
L 485.116795 363.208601 
L 485.881048 363.356573 
L 486.6453 363.746131 
L 488.173806 364.878568 
L 488.938059 365.195651 
L 489.702311 364.691339 
L 490.466564 364.374256 
L 491.230817 364.401435 
L 491.995069 364.051134 
L 492.759322 363.323355 
L 493.523575 363.127065 
L 494.287827 363.211621 
L 495.816333 362.963994 
L 496.580586 363.03949 
L 497.344838 363.000232 
L 498.109091 363.169343 
L 498.109091 363.169343 
" clip-path="url(#p648c19ea86)" style="fill: none; stroke: #008000; stroke-width: 1.5; stroke-linecap: square"/>
   </g>
   <g id="line2d_40">
    <path d="M 92.290909 336.818284 
L 93.055162 338.122851 
L 93.819414 336.954176 
L 94.583667 336.316991 
L 95.34792 336.166 
L 96.876425 335.323466 
L 97.640678 334.613806 
L 98.404931 334.124593 
L 99.169183 333.182405 
L 99.933436 332.73245 
L 100.697689 331.276891 
L 102.226194 329.510289 
L 102.990447 328.522803 
L 103.7547 327.052145 
L 104.518952 325.928767 
L 105.283205 323.769587 
L 106.047458 322.836458 
L 109.104468 316.775654 
L 109.868721 314.830882 
L 111.397227 312.152291 
L 112.161479 310.71485 
L 112.925732 308.105715 
L 113.689985 305.925396 
L 114.454237 304.566471 
L 115.21849 302.802889 
L 115.982743 300.725244 
L 116.746995 300.858117 
L 118.275501 298.227842 
L 119.039753 296.159257 
L 119.804006 290.391377 
L 120.568259 286.830994 
L 122.096764 283.161897 
L 128.210786 263.312537 
L 128.975039 261.349646 
L 129.739291 260.20513 
L 130.503544 259.646461 
L 131.267797 257.689609 
L 132.032049 257.055444 
L 133.560555 252.359605 
L 134.324807 248.10768 
L 135.08906 239.733684 
L 135.853313 236.058548 
L 136.617565 229.079715 
L 137.381818 227.346331 
L 138.146071 223.985257 
L 138.910324 221.478796 
L 139.674576 218.483122 
L 140.438829 214.478824 
L 142.731587 205.573338 
L 143.49584 208.05262 
L 144.260092 210.057789 
L 145.024345 211.205325 
L 145.788598 209.927936 
L 146.552851 209.964174 
L 147.317103 206.569882 
L 148.081356 203.794656 
L 148.845609 200.258432 
L 149.609861 198.724357 
L 150.374114 195.629029 
L 151.138367 194.484512 
L 152.666872 187.475481 
L 153.431125 182.80078 
L 154.195378 176.136009 
L 154.95963 168.17573 
L 155.723883 164.974708 
L 156.488136 160.749962 
L 157.252388 160.049361 
L 158.016641 162.836666 
L 158.780894 161.468682 
L 159.545146 162.607159 
L 160.309399 161.042886 
L 161.073652 160.167134 
L 161.837904 156.803041 
L 162.602157 155.214609 
L 164.894915 146.070555 
L 165.659168 143.576174 
L 167.187673 134.97569 
L 167.951926 132.300119 
L 168.716179 129.011521 
L 169.480431 126.994273 
L 171.008937 124.998163 
L 171.77319 127.655616 
L 172.537442 129.473555 
L 173.301695 130.337227 
L 175.594453 127.483486 
L 176.358706 125.913173 
L 177.887211 121.682387 
L 178.651464 114.356273 
L 179.415716 108.111259 
L 180.179969 106.036634 
L 180.944222 105.659155 
L 181.708475 106.64664 
L 182.472727 110.25534 
L 183.23698 115.416234 
L 184.001233 118.774288 
L 184.765485 127.734132 
L 186.293991 139.602074 
L 187.822496 147.378143 
L 188.586749 148.598155 
L 189.351002 152.424283 
L 190.115254 153.638256 
L 190.879507 155.356541 
L 191.64376 156.612791 
L 192.408012 159.279303 
L 193.172265 156.763783 
L 193.936518 155.199509 
L 194.70077 152.13136 
L 195.465023 148.525679 
L 196.229276 147.764682 
L 196.993529 150.699959 
L 198.522034 159.252125 
L 200.050539 170.220157 
L 200.814792 173.318505 
L 201.579045 177.268446 
L 202.343297 178.307269 
L 203.10755 179.989316 
L 203.871803 182.782661 
L 204.636055 182.541074 
L 205.400308 180.659718 
L 206.164561 179.877582 
L 206.928814 178.219694 
L 207.693066 175.468626 
L 208.457319 173.798659 
L 209.221572 175.843085 
L 210.750077 182.417261 
L 211.51433 186.234329 
L 212.278582 192.431026 
L 213.807088 200.974132 
L 214.571341 206.210522 
L 215.335593 207.817073 
L 216.099846 210.791608 
L 216.864099 212.700143 
L 217.628351 212.878313 
L 218.392604 211.815332 
L 219.156857 208.179453 
L 219.921109 206.530625 
L 220.685362 206.805429 
L 221.449615 206.917163 
L 222.213867 207.602665 
L 222.97812 209.559517 
L 223.742373 210.969779 
L 224.506626 219.153525 
L 226.035131 227.708711 
L 226.799384 233.3105 
L 227.563636 238.072776 
L 229.092142 244.725468 
L 229.856394 247.787578 
L 230.620647 250.339337 
L 231.3849 252.057621 
L 232.913405 247.39802 
L 233.677658 248.811301 
L 234.441911 251.788856 
L 235.970416 259.015316 
L 236.734669 262.500203 
L 237.498921 265.263349 
L 239.79168 280.570881 
L 240.555932 284.040669 
L 242.084438 292.517339 
L 242.84869 294.818451 
L 243.612943 297.55744 
L 244.377196 299.475033 
L 245.141448 299.160971 
L 245.905701 299.53845 
L 250.491217 316.374017 
L 252.019723 321.643625 
L 252.783975 326.176393 
L 253.548228 329.196226 
L 254.312481 332.865323 
L 255.076733 335.205693 
L 255.840986 338.104732 
L 256.605239 340.037425 
L 257.369492 341.354072 
L 258.133744 342.414033 
L 258.897997 342.65562 
L 259.66225 342.266062 
L 260.426502 343.942069 
L 261.190755 345.258716 
L 261.955008 347.001159 
L 263.483513 349.782425 
L 265.012018 352.94419 
L 265.776271 353.8441 
L 267.304777 357.108539 
L 268.069029 358.772467 
L 268.833282 359.98644 
L 271.12604 362.064084 
L 272.654545 362.260373 
L 273.418798 361.529574 
L 274.183051 361.517495 
L 274.947304 362.133541 
L 276.475809 362.846221 
L 277.240062 363.40187 
L 278.004314 363.087808 
L 278.768567 364.045095 
L 279.53282 363.866924 
L 281.061325 365.177532 
L 281.825578 366.143878 
L 282.589831 366.536456 
L 283.354083 366.696508 
L 284.882589 366.669329 
L 286.411094 365.603328 
L 287.939599 365.56709 
L 288.703852 365.805657 
L 291.760863 366.065363 
L 293.289368 366.557595 
L 294.053621 367.067947 
L 294.817874 367.36691 
L 295.582126 367.804786 
L 296.346379 368.112809 
L 298.639137 368.565784 
L 299.40339 367.940679 
L 300.167643 367.086066 
L 300.931895 366.705567 
L 302.460401 366.790122 
L 303.224653 366.509278 
L 303.988906 366.799182 
L 304.753159 366.608932 
L 307.045917 366.850519 
L 308.574422 367.665874 
L 309.338675 367.825925 
L 310.102928 368.263801 
L 310.86718 368.511427 
L 311.631433 368.420832 
L 313.159938 367.608497 
L 313.924191 366.898836 
L 315.452696 366.509278 
L 316.216949 366.805222 
L 316.981202 366.666309 
L 317.745455 366.877698 
L 318.509707 366.759924 
L 320.038213 367.080026 
L 320.802465 366.926015 
L 321.566718 367.167602 
L 322.330971 367.844044 
L 324.623729 368.432911 
L 325.387982 368.230583 
L 326.152234 367.847064 
L 326.916487 367.083046 
L 327.68074 366.775023 
L 329.209245 366.675369 
L 329.973498 366.569675 
L 332.266256 366.729726 
L 333.030508 366.575714 
L 333.794761 366.741805 
L 334.559014 367.055868 
L 335.323267 367.768548 
L 339.14453 368.472169 
L 339.908783 368.420832 
L 340.673035 367.898401 
L 341.437288 366.793142 
L 342.201541 366.436802 
L 342.965794 366.370366 
L 344.494299 366.512298 
L 345.258552 366.171057 
L 346.022804 366.216354 
L 346.787057 366.47606 
L 348.315562 366.509278 
L 349.079815 367.237058 
L 351.372573 367.976917 
L 352.136826 367.844044 
L 352.901079 368.076571 
L 353.665331 367.687013 
L 354.429584 367.119284 
L 355.193837 366.201255 
L 356.722342 365.908331 
L 357.486595 366.122739 
L 358.250847 365.950609 
L 359.0151 366.180116 
L 361.307858 366.168037 
L 362.072111 366.077442 
L 363.600616 367.122304 
L 364.364869 367.469585 
L 365.129122 367.575279 
L 366.657627 367.336712 
L 367.42188 367.312553 
L 368.186133 366.388485 
L 368.950385 365.693923 
L 369.714638 365.847935 
L 375.064407 365.853974 
L 377.357165 366.382445 
L 378.88567 367.288395 
L 379.649923 367.110225 
L 380.414176 367.110225 
L 381.178428 366.566655 
L 381.942681 366.316009 
L 382.706934 365.712042 
L 383.471186 365.473475 
L 384.235439 365.400999 
L 386.528197 365.512733 
L 387.29245 365.289266 
L 389.585208 365.687884 
L 390.349461 366.098581 
L 393.406471 366.784083 
L 394.170724 366.533437 
L 395.69923 365.551991 
L 396.463482 365.259067 
L 397.227735 365.449317 
L 398.75624 365.099016 
L 399.520493 365.337583 
L 400.284746 365.183571 
L 402.577504 365.053719 
L 403.341757 365.675804 
L 404.106009 365.533872 
L 404.870262 365.911351 
L 405.634515 366.494179 
L 407.16302 366.506258 
L 407.927273 366.784083 
L 408.691525 366.424723 
L 409.455778 365.295305 
L 410.220031 364.899707 
L 410.984284 364.794013 
L 411.748536 365.053719 
L 412.512789 365.099016 
L 413.277042 364.812132 
L 414.041294 365.017481 
L 415.5698 364.809112 
L 416.334052 364.839311 
L 417.098305 365.304365 
L 417.862558 365.39496 
L 418.62681 366.029125 
L 420.155316 366.47002 
L 420.919569 366.382445 
L 421.683821 366.412643 
L 423.212327 364.585645 
L 423.976579 364.715497 
L 424.740832 364.47995 
L 426.269337 364.803073 
L 428.562096 364.440693 
L 429.326348 364.564506 
L 430.090601 364.561486 
L 430.854854 365.343623 
L 431.619106 365.597289 
L 432.383359 366.168037 
L 434.676117 366.630071 
L 435.44037 366.309969 
L 436.204622 366.367346 
L 436.968875 365.678824 
L 437.733128 364.199106 
L 438.497381 364.48901 
L 439.261633 364.193066 
L 440.790139 364.440693 
L 441.554391 364.334999 
L 442.318644 364.570545 
L 443.082897 364.446732 
L 443.847149 364.48901 
L 444.611402 364.730597 
L 446.139908 366.017045 
L 446.90416 366.186156 
L 447.668413 366.186156 
L 448.432666 366.328088 
L 449.196918 366.134819 
L 451.489676 364.12361 
L 452.253929 364.347078 
L 453.018182 364.190047 
L 453.782435 364.277622 
L 454.546687 364.217225 
L 455.31094 363.975638 
L 456.075193 364.259503 
L 456.839445 364.072273 
L 457.603698 364.12361 
L 458.367951 364.334999 
L 459.132203 365.053719 
L 460.660709 365.778478 
L 462.189214 365.555011 
L 462.953467 365.769419 
L 463.71772 364.026976 
L 464.481972 363.860885 
L 465.246225 364.039055 
L 466.010478 363.927321 
L 466.77473 364.096432 
L 468.303236 363.734052 
L 469.067488 363.743111 
L 469.831741 363.95148 
L 470.595994 363.921281 
L 471.360247 363.685734 
L 472.124499 363.679695 
L 472.888752 364.555446 
L 474.417257 365.337583 
L 475.18151 365.431198 
L 475.945763 365.243968 
L 476.710015 365.243968 
L 477.474268 365.117135 
L 478.238521 363.728012 
L 479.002773 363.655536 
L 479.767026 363.897123 
L 480.531279 363.703853 
L 481.295532 363.806528 
L 482.059784 363.546822 
L 483.58829 363.634397 
L 484.352542 363.752171 
L 485.116795 363.740091 
L 485.881048 364.153809 
L 486.6453 364.283661 
L 488.173806 364.875549 
L 488.938059 365.292285 
L 489.702311 365.086937 
L 490.466564 364.334999 
L 491.995069 363.960539 
L 492.759322 363.498505 
L 493.523575 363.39885 
L 494.287827 363.501525 
L 495.05208 363.350533 
L 495.816333 363.537763 
L 496.580586 363.256918 
L 497.344838 363.244839 
L 498.109091 363.549842 
L 498.109091 363.549842 
" clip-path="url(#p648c19ea86)" style="fill: none; stroke: #008000; stroke-width: 1.5; stroke-linecap: square"/>
   </g>
   <g id="line2d_41">
    <path d="M 92.290909 337.310516 
L 93.055162 338.488251 
L 93.819414 337.144425 
L 95.34792 336.126742 
L 96.112173 335.462379 
L 96.876425 335.347625 
L 97.640678 335.045642 
L 98.404931 333.716915 
L 100.697689 331.612092 
L 102.226194 329.365337 
L 102.990447 328.444288 
L 104.518952 325.593566 
L 105.283205 324.107808 
L 106.047458 322.332146 
L 106.81171 321.501692 
L 109.104468 317.467196 
L 109.868721 315.2295 
L 110.632974 313.465918 
L 111.397227 312.215707 
L 112.161479 310.301133 
L 112.925732 307.852049 
L 114.454237 304.261468 
L 115.21849 302.334815 
L 115.982743 301.184259 
L 117.511248 300.25113 
L 118.275501 299.444835 
L 119.039753 297.291694 
L 119.804006 290.853411 
L 120.568259 286.770597 
L 121.332512 285.218403 
L 122.096764 282.609268 
L 122.861017 281.002717 
L 123.62527 278.900914 
L 125.153775 272.725356 
L 126.68228 268.470412 
L 128.210786 263.164566 
L 128.975039 262.919959 
L 129.739291 260.298745 
L 130.503544 260.129634 
L 131.267797 258.622737 
L 132.032049 258.38719 
L 132.796302 256.070979 
L 133.560555 254.41913 
L 134.324807 249.354871 
L 135.08906 240.337651 
L 135.853313 236.420928 
L 136.617565 229.771256 
L 137.381818 227.400688 
L 140.438829 215.106949 
L 141.203082 211.794193 
L 141.967334 209.426644 
L 142.731587 205.700171 
L 143.49584 210.100067 
L 144.260092 212.851134 
L 145.024345 213.500398 
L 145.788598 213.246732 
L 146.552851 213.243712 
L 147.317103 210.411109 
L 148.081356 206.572902 
L 148.845609 204.25971 
L 149.609861 202.333057 
L 150.374114 201.02245 
L 152.666872 190.594968 
L 153.431125 184.144605 
L 154.195378 176.431953 
L 154.95963 166.098085 
L 155.723883 162.993697 
L 156.488136 160.366443 
L 157.252388 160.535554 
L 158.016641 163.186967 
L 159.545146 164.044599 
L 160.309399 163.981183 
L 161.837904 160.23659 
L 162.602157 157.515721 
L 163.36641 155.401838 
L 164.130663 152.828941 
L 164.894915 149.803069 
L 166.423421 142.727601 
L 167.951926 132.807451 
L 168.716179 131.442486 
L 169.480431 127.549922 
L 170.244684 126.423524 
L 171.008937 126.378227 
L 171.77319 130.935154 
L 172.537442 131.822985 
L 173.301695 134.127117 
L 174.065948 134.423061 
L 174.8302 133.055077 
L 175.594453 132.387694 
L 176.358706 130.910996 
L 177.122958 128.643101 
L 177.887211 126.8614 
L 178.651464 117.898537 
L 179.415716 110.958961 
L 180.179969 108.253191 
L 180.944222 110.034893 
L 181.708475 110.659998 
L 182.472727 115.869209 
L 183.23698 122.395068 
L 184.001233 125.973569 
L 185.529738 141.142189 
L 186.293991 147.260369 
L 187.058243 151.168033 
L 187.822496 153.185281 
L 188.586749 157.065766 
L 189.351002 158.545484 
L 190.115254 159.665842 
L 190.879507 161.039866 
L 191.64376 162.857805 
L 192.408012 163.630882 
L 193.172265 161.006648 
L 193.936518 159.15247 
L 195.465023 152.560176 
L 196.229276 152.043784 
L 196.993529 157.485523 
L 198.522034 164.986787 
L 200.050539 174.928076 
L 200.814792 179.315893 
L 201.579045 182.891375 
L 203.10755 186.189032 
L 203.871803 187.245973 
L 204.636055 187.064783 
L 205.400308 186.152794 
L 206.164561 183.552718 
L 206.928814 182.25419 
L 207.693066 179.786987 
L 208.457319 177.884492 
L 209.221572 178.28613 
L 211.51433 191.177795 
L 213.042835 202.233403 
L 214.571341 211.495229 
L 216.099846 216.411517 
L 216.864099 219.464568 
L 217.628351 218.993474 
L 218.392604 218.715649 
L 219.156857 212.464596 
L 219.921109 210.921461 
L 220.685362 212.968908 
L 221.449615 211.902907 
L 222.213867 212.697123 
L 222.97812 214.336892 
L 223.742373 215.179425 
L 224.506626 221.21909 
L 225.270878 225.631066 
L 226.035131 230.716464 
L 226.799384 238.057677 
L 227.563636 242.472673 
L 229.092142 248.062383 
L 229.856394 250.955382 
L 231.3849 254.183583 
L 232.149153 250.668498 
L 232.913405 249.699132 
L 234.441911 254.911363 
L 237.498921 268.557987 
L 238.263174 274.691267 
L 239.79168 284.907361 
L 240.555932 288.401307 
L 242.084438 297.01085 
L 243.612943 301.108763 
L 244.377196 302.226101 
L 245.141448 301.869761 
L 245.905701 301.658372 
L 246.669954 305.064743 
L 248.198459 310.249796 
L 248.962712 313.42062 
L 249.726965 315.619058 
L 252.019723 324.261819 
L 252.783975 328.244979 
L 253.548228 331.144018 
L 254.312481 334.912769 
L 255.076733 337.24408 
L 255.840986 340.052524 
L 256.605239 341.852345 
L 257.369492 343.319983 
L 258.133744 344.27425 
L 259.66225 344.026624 
L 261.190755 346.868287 
L 265.012018 354.149103 
L 265.776271 355.187925 
L 266.540524 356.876012 
L 267.304777 358.1685 
L 268.069029 360.004559 
L 268.833282 361.097738 
L 270.361787 362.353988 
L 271.12604 362.797904 
L 272.654545 362.562357 
L 273.418798 362.181858 
L 274.183051 362.206016 
L 275.711556 363.181422 
L 276.475809 363.531723 
L 277.240062 363.613259 
L 279.53282 364.621883 
L 280.297072 365.346642 
L 281.061325 365.844915 
L 281.825578 366.787103 
L 283.354083 367.451466 
L 284.882589 367.318593 
L 285.646841 366.847499 
L 286.411094 365.93551 
L 287.175347 365.808677 
L 287.939599 366.237493 
L 288.703852 366.044224 
L 289.468105 366.282791 
L 292.525116 366.497199 
L 294.817874 367.333692 
L 295.582126 367.961817 
L 296.346379 368.076571 
L 297.110632 368.496328 
L 297.874884 368.665438 
L 298.639137 368.674498 
L 299.40339 368.028254 
L 300.167643 367.043788 
L 300.931895 367.001511 
L 301.696148 367.083046 
L 302.460401 366.968293 
L 303.224653 367.113245 
L 303.988906 367.037749 
L 304.753159 367.20082 
L 305.517411 366.889777 
L 307.045917 367.348791 
L 308.574422 367.886322 
L 310.102928 368.746974 
L 310.86718 368.82549 
L 312.395686 368.583903 
L 313.159938 368.242662 
L 313.924191 367.418248 
L 314.688444 367.037749 
L 316.216949 367.034729 
L 316.981202 367.155522 
L 318.509707 366.995471 
L 320.038213 367.182701 
L 321.566718 367.55414 
L 322.330971 368.194345 
L 324.623729 368.82549 
L 325.387982 368.765093 
L 326.152234 368.393654 
L 326.916487 367.412208 
L 327.68074 366.892797 
L 328.444992 366.823341 
L 330.73775 367.122304 
L 331.502003 366.868638 
L 333.030508 366.747845 
L 333.794761 367.179681 
L 337.616025 368.487268 
L 338.380277 368.586923 
L 339.14453 368.381574 
L 339.908783 368.321178 
L 340.673035 367.545081 
L 341.437288 366.584774 
L 342.201541 366.590813 
L 342.965794 366.756904 
L 343.730046 366.611952 
L 344.494299 366.636111 
L 345.258552 366.448881 
L 348.315562 366.762944 
L 349.079815 367.629636 
L 349.844068 367.955778 
L 350.60832 367.985976 
L 351.372573 368.438951 
L 352.901079 368.396673 
L 354.429584 367.439386 
L 355.193837 366.394524 
L 355.958089 366.246553 
L 357.486595 366.29185 
L 359.0151 366.337148 
L 361.307858 366.340167 
L 362.072111 366.563635 
L 362.836364 366.621012 
L 363.600616 367.517902 
L 365.129122 367.777608 
L 366.657627 367.883302 
L 368.950385 366.074422 
L 369.714638 366.047244 
L 370.478891 366.246553 
L 371.243143 365.93853 
L 372.007396 366.056303 
L 372.771649 365.847935 
L 373.535901 365.802637 
L 374.300154 366.077442 
L 375.064407 365.93853 
L 376.592912 366.708587 
L 377.357165 366.862598 
L 378.88567 367.593398 
L 380.414176 367.72929 
L 381.178428 367.37295 
L 381.942681 366.614972 
L 382.706934 365.666745 
L 383.471186 365.841895 
L 384.235439 365.654665 
L 384.999692 365.799617 
L 385.763945 365.558031 
L 388.056703 365.645606 
L 388.820955 365.521793 
L 389.585208 366.382445 
L 390.349461 366.158977 
L 391.113713 366.394524 
L 391.877966 366.980372 
L 392.642219 367.046808 
L 394.170724 366.551556 
L 394.934977 366.122739 
L 395.69923 365.322484 
L 398.75624 365.349662 
L 399.520493 365.0356 
L 401.048998 365.57313 
L 401.813251 365.277186 
L 402.577504 365.256047 
L 403.341757 365.718082 
L 404.106009 365.875113 
L 404.870262 366.237493 
L 406.398767 367.19176 
L 407.16302 366.950174 
L 407.927273 367.116264 
L 408.691525 366.276751 
L 409.455778 365.222829 
L 410.220031 365.219809 
L 410.984284 364.954064 
L 412.512789 364.917826 
L 413.277042 365.21377 
L 414.041294 364.833271 
L 416.334052 365.011441 
L 417.098305 365.234909 
L 417.862558 365.627487 
L 418.62681 366.539476 
L 419.391063 366.415663 
L 420.919569 367.052848 
L 421.683821 366.753884 
L 422.448074 365.343623 
L 423.212327 364.963124 
L 423.976579 364.815152 
L 424.740832 364.932925 
L 427.797843 364.742676 
L 428.562096 364.920846 
L 429.326348 364.643021 
L 430.090601 364.860449 
L 430.854854 365.530852 
L 431.619106 366.001946 
L 432.383359 366.011006 
L 433.147612 366.778043 
L 433.911864 366.711607 
L 434.676117 366.880717 
L 435.44037 366.823341 
L 436.204622 366.548536 
L 436.968875 365.256047 
L 437.733128 364.419554 
L 438.497381 364.718517 
L 440.025886 364.262523 
L 440.790139 364.615843 
L 441.554391 364.377276 
L 442.318644 364.359157 
L 443.082897 364.510149 
L 443.847149 364.47995 
L 445.375655 365.690903 
L 446.139908 366.041204 
L 448.432666 366.593833 
L 449.196918 366.047244 
L 449.961171 365.298325 
L 450.725424 364.253463 
L 451.489676 364.153809 
L 452.253929 364.289701 
L 453.782435 364.247423 
L 454.546687 364.214205 
L 455.31094 363.969599 
L 456.075193 364.359157 
L 457.603698 364.389355 
L 458.367951 364.516188 
L 459.132203 365.074857 
L 460.660709 365.558031 
L 461.424961 366.041204 
L 462.953467 365.724122 
L 463.71772 364.259503 
L 464.481972 364.002817 
L 465.246225 364.069253 
L 466.010478 363.915242 
L 466.77473 364.298761 
L 467.538983 363.885043 
L 468.303236 364.144749 
L 469.067488 363.897123 
L 469.831741 363.966579 
L 470.595994 363.842766 
L 471.360247 364.105491 
L 472.124499 364.042075 
L 472.888752 364.993322 
L 474.417257 365.536892 
L 475.18151 365.959668 
L 476.710015 365.826796 
L 477.474268 365.539912 
L 478.238521 363.815587 
L 479.767026 363.640437 
L 480.531279 363.996777 
L 481.295532 363.604199 
L 482.059784 363.800488 
L 483.58829 363.76425 
L 484.352542 363.574001 
L 485.116795 363.740091 
L 485.881048 364.259503 
L 486.6453 364.455792 
L 487.409553 365.102036 
L 488.938059 365.872093 
L 489.702311 365.527832 
L 490.466564 364.935945 
L 491.230817 364.818172 
L 491.995069 364.238364 
L 492.759322 363.854845 
L 493.523575 363.697814 
L 495.05208 363.788409 
L 495.816333 363.601179 
L 498.109091 363.549842 
L 498.109091 363.549842 
" clip-path="url(#p648c19ea86)" style="fill: none; stroke: #008000; stroke-width: 1.5; stroke-linecap: square"/>
   </g>
   <g id="line2d_42">
    <path d="M 92.290909 337.470567 
L 93.055162 338.171169 
L 93.819414 336.88472 
L 95.34792 336.030107 
L 96.112173 335.710005 
L 97.640678 334.520191 
L 98.404931 333.230722 
L 99.169183 333.158246 
L 100.697689 331.424862 
L 101.461941 329.990442 
L 102.990447 327.909777 
L 103.7547 326.861895 
L 104.518952 325.207027 
L 106.047458 322.643189 
L 106.81171 321.72818 
L 107.575963 319.131124 
L 108.340216 318.176857 
L 109.104468 316.392136 
L 109.868721 315.018112 
L 110.632974 312.946507 
L 112.161479 310.234697 
L 114.454237 303.572946 
L 115.21849 302.256299 
L 115.982743 299.988405 
L 116.746995 300.402122 
L 118.275501 298.436211 
L 119.039753 296.032424 
L 119.804006 289.07171 
L 120.568259 286.882331 
L 122.096764 282.065698 
L 122.861017 280.320235 
L 123.62527 277.363819 
L 125.153775 273.18739 
L 125.918028 270.11924 
L 126.68228 268.050655 
L 128.210786 262.614956 
L 128.975039 262.72971 
L 129.739291 261.153357 
L 130.503544 261.331527 
L 131.267797 259.631362 
L 132.032049 259.47131 
L 132.796302 256.674945 
L 133.560555 254.545963 
L 134.324807 249.536061 
L 135.08906 238.229808 
L 135.853313 234.150014 
L 136.617565 229.312242 
L 138.910324 221.019782 
L 139.674576 216.952067 
L 141.203082 211.093592 
L 141.967334 207.551328 
L 142.731587 204.709665 
L 143.49584 210.296356 
L 144.260092 212.990047 
L 145.024345 213.914115 
L 146.552851 212.21395 
L 147.317103 209.973234 
L 148.081356 205.89948 
L 148.845609 204.311048 
L 149.609861 203.583268 
L 150.374114 201.904241 
L 151.138367 199.246788 
L 151.902619 196.033686 
L 152.666872 191.703246 
L 154.195378 176.963443 
L 154.95963 163.253403 
L 156.488136 157.953597 
L 157.252388 159.16757 
L 158.016641 161.441504 
L 158.780894 162.169283 
L 159.545146 163.790933 
L 160.309399 162.640377 
L 161.837904 159.384998 
L 162.602157 157.35869 
L 163.36641 154.83411 
L 164.130663 151.388481 
L 164.894915 148.86692 
L 165.659168 145.910504 
L 167.187673 138.58439 
L 167.951926 133.958007 
L 168.716179 131.212979 
L 169.480431 129.328603 
L 170.244684 126.432584 
L 171.008937 128.6582 
L 171.77319 132.209524 
L 173.301695 137.621064 
L 174.065948 138.862215 
L 174.8302 138.77162 
L 175.594453 135.060246 
L 176.358706 137.14091 
L 177.122958 135.129702 
L 177.887211 130.581834 
L 178.651464 116.618128 
L 179.415716 108.431362 
L 180.179969 104.840781 
L 180.944222 106.063813 
L 181.708475 106.28728 
L 182.472727 109.817465 
L 183.23698 118.112945 
L 184.001233 122.195759 
L 184.765485 132.028334 
L 185.529738 139.303111 
L 186.293991 145.294458 
L 187.822496 152.194776 
L 188.586749 154.477769 
L 189.351002 158.08345 
L 190.115254 158.282759 
L 190.879507 159.831933 
L 191.64376 162.090768 
L 192.408012 162.317255 
L 193.172265 160.517435 
L 193.936518 157.971716 
L 195.465023 148.099883 
L 196.229276 146.837593 
L 198.522034 159.901389 
L 199.286287 167.45701 
L 200.814792 177.636866 
L 201.579045 181.070416 
L 202.343297 182.326666 
L 203.10755 184.42243 
L 203.871803 186.189032 
L 204.636055 186.642007 
L 205.400308 184.805949 
L 206.164561 180.415112 
L 206.928814 178.609252 
L 207.693066 172.895729 
L 208.457319 172.340079 
L 209.221572 172.539388 
L 209.985824 176.770174 
L 210.750077 183.021228 
L 211.51433 188.221379 
L 212.278582 194.798575 
L 214.571341 210.305415 
L 216.099846 216.517211 
L 216.864099 217.365784 
L 217.628351 218.776046 
L 218.392604 217.725144 
L 219.921109 206.485327 
L 220.685362 207.137611 
L 221.449615 208.224751 
L 222.213867 211.289881 
L 222.97812 212.823956 
L 223.742373 216.333001 
L 224.506626 222.140139 
L 226.035131 232.404551 
L 226.799384 238.72506 
L 227.563636 243.931252 
L 229.092142 251.314742 
L 229.856394 253.117583 
L 230.620647 255.306961 
L 231.3849 255.802214 
L 232.149153 251.54425 
L 232.913405 251.209048 
L 234.441911 257.269852 
L 237.498921 270.508799 
L 238.263174 276.321976 
L 240.555932 290.823213 
L 241.320185 294.585924 
L 242.084438 299.012999 
L 242.84869 301.437924 
L 243.612943 303.183388 
L 244.377196 304.201071 
L 245.141448 303.412895 
L 245.905701 304.022901 
L 246.669954 306.336093 
L 247.434206 309.512957 
L 249.726965 317.684624 
L 252.019723 326.085798 
L 252.783975 330.056878 
L 255.076733 339.4093 
L 256.605239 343.809196 
L 257.369492 345.270795 
L 258.133744 346.379074 
L 258.897997 346.400213 
L 259.66225 345.237577 
L 261.955008 349.87604 
L 262.71926 350.920902 
L 263.483513 352.415719 
L 264.247766 353.321669 
L 265.012018 355.574464 
L 265.776271 356.537791 
L 268.833282 362.31473 
L 269.597535 363.087808 
L 270.361787 363.643457 
L 271.12604 363.76425 
L 271.890293 364.138709 
L 272.654545 363.957519 
L 273.418798 363.335434 
L 274.183051 362.979094 
L 274.947304 363.564941 
L 278.004314 364.697378 
L 278.768567 365.256047 
L 279.53282 365.105056 
L 280.297072 365.603328 
L 281.825578 367.511862 
L 282.589831 367.979936 
L 283.354083 368.27286 
L 284.118336 368.200384 
L 284.882589 368.381574 
L 285.646841 367.614537 
L 286.411094 366.316009 
L 287.175347 366.306949 
L 288.703852 366.64517 
L 290.99661 366.557595 
L 291.760863 366.856559 
L 293.289368 367.113245 
L 294.817874 367.726271 
L 295.582126 368.46311 
L 296.346379 368.777172 
L 297.110632 369.36 
L 298.639137 369.350941 
L 299.40339 368.904005 
L 300.167643 368.179245 
L 300.931895 367.064927 
L 302.460401 367.20082 
L 303.224653 366.883737 
L 304.753159 367.18874 
L 306.281664 367.140423 
L 307.045917 367.345772 
L 310.86718 369.257326 
L 311.631433 369.169751 
L 312.395686 369.257326 
L 313.159938 368.870787 
L 313.924191 367.982956 
L 314.688444 367.388049 
L 315.452696 367.137403 
L 316.216949 367.246117 
L 316.981202 367.083046 
L 318.509707 367.086066 
L 319.27396 367.058888 
L 320.802465 367.55716 
L 322.330971 368.577863 
L 323.859476 369.112374 
L 324.623729 369.148612 
L 325.387982 369.021779 
L 326.152234 369.218068 
L 327.68074 367.508843 
L 328.444992 366.910916 
L 329.209245 367.064927 
L 329.973498 367.073987 
L 330.73775 366.907896 
L 331.502003 366.980372 
L 332.266256 366.916955 
L 333.030508 367.070967 
L 333.794761 367.505823 
L 334.559014 367.759489 
L 335.323267 367.892361 
L 336.851772 368.6443 
L 337.616025 368.629201 
L 338.380277 368.81039 
L 339.14453 368.435931 
L 339.908783 368.363455 
L 340.673035 367.424287 
L 341.437288 366.868638 
L 342.201541 366.693488 
L 345.258552 366.781063 
L 346.022804 366.596853 
L 347.55131 366.711607 
L 348.315562 367.101165 
L 349.079815 367.859143 
L 350.60832 368.63524 
L 351.372573 368.831529 
L 352.136826 368.870787 
L 353.665331 368.683557 
L 355.193837 367.258196 
L 355.958089 366.358286 
L 356.722342 366.611952 
L 357.486595 366.503238 
L 359.0151 366.578734 
L 360.543606 366.316009 
L 361.307858 366.279771 
L 362.836364 367.267256 
L 363.600616 367.771568 
L 364.364869 368.070531 
L 365.129122 368.112809 
L 367.42188 367.656814 
L 368.186133 366.64517 
L 368.950385 366.198235 
L 371.243143 366.237493 
L 372.007396 365.992887 
L 373.535901 366.249572 
L 374.300154 366.007986 
L 375.064407 366.158977 
L 376.592912 367.101165 
L 377.357165 367.185721 
L 378.88567 368.185285 
L 379.649923 368.239642 
L 381.178428 368.040333 
L 381.942681 367.620576 
L 382.706934 366.134819 
L 383.471186 365.941549 
L 384.235439 366.101601 
L 384.999692 365.953629 
L 385.763945 366.089521 
L 386.528197 365.890212 
L 387.29245 365.838875 
L 388.056703 365.908331 
L 388.820955 365.669765 
L 389.585208 366.319029 
L 390.349461 366.548536 
L 391.113713 367.179681 
L 392.642219 367.442406 
L 393.406471 367.249137 
L 394.934977 366.388485 
L 395.69923 365.666745 
L 396.463482 365.814716 
L 397.227735 365.633527 
L 398.75624 365.739221 
L 399.520493 365.328523 
L 400.284746 365.733181 
L 401.048998 365.485555 
L 401.813251 365.591249 
L 402.577504 365.905311 
L 403.341757 365.835855 
L 404.106009 366.207295 
L 404.870262 366.784083 
L 406.398767 367.38201 
L 407.16302 367.520922 
L 407.927273 367.463545 
L 408.691525 366.971312 
L 409.455778 365.893232 
L 410.220031 365.346642 
L 411.748536 365.413079 
L 413.277042 365.162433 
L 414.041294 365.20471 
L 414.805547 365.428178 
L 415.5698 365.373821 
L 416.334052 365.126195 
L 417.098305 365.530852 
L 417.862558 366.219374 
L 418.62681 366.741805 
L 419.391063 366.781063 
L 420.155316 367.19478 
L 420.919569 367.158542 
L 421.683821 367.246117 
L 422.448074 365.92645 
L 423.212327 365.129214 
L 423.976579 365.162433 
L 424.740832 364.978223 
L 427.03359 365.177532 
L 427.797843 364.975203 
L 430.090601 365.099016 
L 431.619106 366.409624 
L 433.147612 367.070967 
L 433.911864 367.143443 
L 434.676117 367.481664 
L 435.44037 367.351811 
L 436.204622 366.977352 
L 436.968875 366.249572 
L 437.733128 365.005401 
L 438.497381 364.748716 
L 439.261633 364.908767 
L 440.025886 364.612823 
L 440.790139 364.534307 
L 441.554391 364.784954 
L 443.082897 364.763815 
L 443.847149 365.014461 
L 444.611402 365.077877 
L 445.375655 365.971748 
L 446.90416 366.772003 
L 447.668413 367.001511 
L 449.196918 366.681408 
L 449.961171 365.473475 
L 450.725424 364.833271 
L 451.489676 364.353117 
L 453.782435 364.66718 
L 454.546687 364.353117 
L 455.31094 364.567526 
L 456.075193 364.522228 
L 456.839445 364.655101 
L 457.603698 364.579605 
L 458.367951 364.66416 
L 459.132203 365.500654 
L 459.896456 365.633527 
L 460.660709 366.267691 
L 461.424961 366.430762 
L 462.189214 366.442842 
L 462.953467 366.174077 
L 463.71772 364.775894 
L 464.481972 364.325939 
L 465.246225 364.190047 
L 466.77473 364.374256 
L 467.538983 364.117571 
L 468.303236 364.156828 
L 469.067488 364.033015 
L 470.595994 364.464851 
L 471.360247 364.093412 
L 472.124499 364.470891 
L 473.653005 365.558031 
L 474.417257 365.850954 
L 475.18151 365.890212 
L 475.945763 366.125759 
L 476.710015 366.095561 
L 477.474268 365.582189 
L 478.238521 364.12361 
L 479.767026 364.168908 
L 480.531279 364.002817 
L 481.295532 364.033015 
L 482.059784 363.912222 
L 484.352542 363.984698 
L 485.881048 364.643021 
L 486.6453 365.20471 
L 488.173806 365.944569 
L 488.938059 366.590813 
L 489.702311 366.101601 
L 490.466564 366.029125 
L 491.230817 366.11066 
L 491.995069 366.053283 
L 492.759322 365.542932 
L 493.523575 364.045095 
L 494.287827 363.936381 
L 495.05208 363.709893 
L 495.816333 363.791429 
L 496.580586 363.718953 
L 497.344838 363.999797 
L 498.109091 363.679695 
L 498.109091 363.679695 
" clip-path="url(#p648c19ea86)" style="fill: none; stroke: #008000; stroke-width: 1.5; stroke-linecap: square"/>
   </g>
   <g id="line2d_43">
    <path d="M 92.290909 337.322596 
L 93.055162 338.618104 
L 93.819414 337.210862 
L 94.583667 336.510261 
L 96.112173 335.918373 
L 97.640678 334.604746 
L 98.404931 333.683697 
L 99.169183 332.54824 
L 99.933436 332.161702 
L 103.7547 327.018927 
L 104.518952 325.137571 
L 105.283205 323.588397 
L 106.81171 321.235947 
L 107.575963 319.140183 
L 108.340216 318.318789 
L 109.104468 316.428374 
L 109.868721 315.190242 
L 111.397227 311.421491 
L 112.161479 309.766623 
L 115.982743 299.861572 
L 116.746995 297.385309 
L 117.511248 295.479795 
L 119.804006 288.470763 
L 120.568259 286.628665 
L 121.332512 284.261116 
L 122.861017 280.268898 
L 123.62527 277.629564 
L 124.389522 274.537255 
L 125.153775 272.46565 
L 126.68228 267.211141 
L 127.446533 265.510976 
L 128.975039 260.066217 
L 129.739291 256.454498 
L 130.503544 255.267703 
L 131.267797 251.151671 
L 132.032049 248.684468 
L 132.796302 244.719428 
L 133.560555 241.9744 
L 134.324807 238.779417 
L 135.08906 236.366571 
L 135.853313 232.603859 
L 136.617565 229.786356 
L 137.381818 226.262211 
L 139.674576 217.513756 
L 140.438829 213.874857 
L 141.203082 210.873144 
L 142.731587 203.571189 
L 143.49584 204.030203 
L 144.260092 204.854617 
L 145.024345 204.459019 
L 145.788598 199.527633 
L 146.552851 195.345164 
L 147.317103 188.74985 
L 148.081356 179.699412 
L 148.845609 176.939285 
L 149.609861 175.40219 
L 151.138367 165.140798 
L 151.902619 162.23572 
L 152.666872 157.400967 
L 153.431125 154.042914 
L 154.95963 148.130081 
L 155.723883 143.718106 
L 156.488136 140.344953 
L 158.016641 142.670224 
L 158.780894 140.75565 
L 159.545146 139.345388 
L 161.837904 124.605585 
L 162.602157 118.318294 
L 163.36641 110.946882 
L 164.130663 106.794612 
L 164.894915 100.794205 
L 165.659168 99.027603 
L 166.423421 97.689817 
L 167.951926 91.49614 
L 168.716179 90.750241 
L 169.480431 86.739904 
L 170.244684 87.639814 
L 171.008937 87.627735 
L 171.77319 96.415447 
L 172.537442 88.79037 
L 173.301695 91.885699 
L 175.594453 72.667484 
L 176.358706 67.944465 
L 177.122958 66.96 
L 177.887211 67.14723 
L 179.415716 70.538502 
L 180.179969 70.852564 
L 181.708475 72.824515 
L 182.472727 77.952191 
L 183.23698 86.160096 
L 184.001233 91.900798 
L 184.765485 101.757531 
L 185.529738 108.014625 
L 186.293991 112.840317 
L 187.058243 112.157835 
L 187.822496 113.257054 
L 188.586749 110.533165 
L 189.351002 110.213063 
L 190.115254 107.652245 
L 190.879507 102.313181 
L 191.64376 103.210071 
L 192.408012 105.496084 
L 193.936518 110.853267 
L 194.70077 115.364897 
L 195.465023 117.859279 
L 196.993529 124.801874 
L 197.757781 127.118086 
L 199.286287 140.287576 
L 200.050539 144.406628 
L 200.814792 146.481253 
L 201.579045 147.701265 
L 202.343297 146.284964 
L 203.10755 145.493767 
L 203.871803 148.042506 
L 205.400308 154.172766 
L 206.928814 160.004063 
L 207.693066 161.353928 
L 208.457319 164.425098 
L 209.221572 167.982461 
L 209.985824 170.984175 
L 211.51433 175.541102 
L 212.278582 179.343071 
L 213.042835 185.693779 
L 213.807088 186.895673 
L 214.571341 189.963823 
L 215.335593 190.764078 
L 216.099846 191.244232 
L 216.864099 192.280034 
L 218.392604 196.969834 
L 219.156857 200.30071 
L 220.685362 205.123383 
L 221.449615 208.185493 
L 222.213867 210.710073 
L 223.742373 216.616866 
L 224.506626 219.141446 
L 225.270878 222.31227 
L 226.035131 226.416222 
L 226.799384 231.15132 
L 227.563636 234.838536 
L 228.327889 236.02533 
L 229.092142 236.475285 
L 229.856394 238.260006 
L 230.620647 241.781131 
L 233.677658 253.830263 
L 234.441911 257.426884 
L 235.970416 263.593382 
L 240.555932 282.654565 
L 241.320185 285.312018 
L 242.084438 288.842203 
L 242.84869 291.345644 
L 246.669954 306.671294 
L 247.434206 309.609592 
L 248.198459 312.088874 
L 248.962712 315.510345 
L 252.783975 328.335574 
L 254.312481 333.858848 
L 255.076733 335.537875 
L 255.840986 337.814828 
L 256.605239 338.735877 
L 258.133744 341.93388 
L 259.66225 345.36139 
L 261.955008 350.117626 
L 265.776271 356.703881 
L 266.540524 357.561514 
L 267.304777 358.787566 
L 268.069029 360.312581 
L 268.833282 361.215511 
L 269.597535 361.019222 
L 270.361787 361.230611 
L 271.12604 361.828537 
L 271.890293 362.15166 
L 273.418798 363.350533 
L 274.183051 363.287117 
L 275.711556 364.322919 
L 276.475809 364.658121 
L 277.240062 364.652081 
L 278.004314 364.866489 
L 278.768567 365.292285 
L 281.061325 365.823776 
L 281.825578 366.581754 
L 282.589831 366.234473 
L 283.354083 366.545516 
L 284.118336 366.11972 
L 284.882589 366.28883 
L 285.646841 366.174077 
L 287.175347 366.424723 
L 287.939599 366.415663 
L 288.703852 366.765964 
L 290.232357 366.675369 
L 290.99661 366.892797 
L 291.760863 366.793142 
L 295.582126 367.20082 
L 296.346379 367.520922 
L 297.110632 367.545081 
L 297.874884 367.089086 
L 299.40339 367.113245 
L 300.167643 366.998491 
L 303.224653 367.077007 
L 303.988906 367.058888 
L 304.753159 366.877698 
L 306.281664 367.089086 
L 307.045917 367.164582 
L 307.810169 367.409188 
L 308.574422 367.146463 
L 310.102928 367.493743 
L 310.86718 367.037749 
L 311.631433 367.001511 
L 312.395686 367.158542 
L 313.159938 366.862598 
L 313.924191 367.104185 
L 314.688444 367.143443 
L 315.452696 366.889777 
L 316.216949 366.880717 
L 317.745455 367.312553 
L 319.27396 366.932055 
L 320.802465 367.00755 
L 322.330971 367.533001 
L 323.095223 367.526962 
L 325.387982 367.049828 
L 327.68074 367.291415 
L 328.444992 366.980372 
L 329.209245 367.182701 
L 329.973498 366.8324 
L 330.73775 367.080026 
L 333.030508 366.965273 
L 333.794761 367.212899 
L 334.559014 367.249137 
L 335.323267 367.128344 
L 336.087519 367.566219 
L 336.851772 367.291415 
L 337.616025 366.735765 
L 338.380277 366.938094 
L 339.14453 366.66027 
L 339.908783 367.064927 
L 340.673035 366.904876 
L 341.437288 366.485119 
L 342.965794 366.545516 
L 343.730046 366.349227 
L 344.494299 366.617992 
L 345.258552 366.569675 
L 346.022804 366.391505 
L 346.787057 366.675369 
L 348.315562 366.47304 
L 349.079815 366.566655 
L 349.844068 367.058888 
L 350.60832 366.877698 
L 351.372573 366.901856 
L 352.136826 366.608932 
L 352.901079 366.666309 
L 354.429584 366.228434 
L 355.958089 366.246553 
L 356.722342 366.098581 
L 357.486595 366.316009 
L 362.072111 366.095561 
L 363.600616 366.82938 
L 364.364869 366.624032 
L 365.129122 366.222394 
L 365.893374 366.11972 
L 366.657627 365.902292 
L 368.186133 366.007986 
L 369.714638 365.947589 
L 370.478891 366.074422 
L 371.243143 365.887192 
L 373.535901 366.029125 
L 374.300154 366.059323 
L 375.064407 365.636546 
L 376.592912 366.189176 
L 377.357165 365.715062 
L 378.121418 366.433782 
L 378.88567 366.023085 
L 381.942681 365.633527 
L 383.471186 365.766399 
L 384.235439 365.561051 
L 384.999692 365.778478 
L 386.528197 365.533872 
L 387.29245 365.790558 
L 388.056703 365.488575 
L 389.585208 365.841895 
L 390.349461 365.718082 
L 391.877966 365.959668 
L 392.642219 365.373821 
L 393.406471 365.319464 
L 394.170724 365.600308 
L 394.934977 365.370801 
L 395.69923 365.364761 
L 396.463482 365.21377 
L 397.227735 365.310404 
L 397.991988 365.126195 
L 401.813251 365.346642 
L 402.577504 365.256047 
L 404.106009 365.660705 
L 404.870262 365.687884 
L 405.634515 366.041204 
L 407.927273 364.978223 
L 409.455778 365.062778 
L 410.220031 364.972183 
L 413.277042 365.256047 
L 414.041294 364.932925 
L 414.805547 364.821192 
L 415.5698 365.065798 
L 416.334052 364.84233 
L 417.098305 365.056739 
L 417.862558 365.404019 
L 418.62681 365.980807 
L 420.155316 365.346642 
L 420.919569 365.165452 
L 421.683821 364.809112 
L 423.212327 364.658121 
L 423.976579 364.908767 
L 424.740832 364.452772 
L 425.505085 364.66114 
L 427.797843 364.797033 
L 428.562096 364.49203 
L 429.326348 364.818172 
L 430.090601 364.576585 
L 430.854854 365.340603 
L 431.619106 365.114115 
L 432.383359 365.545951 
L 433.147612 365.561051 
L 433.911864 365.364761 
L 434.676117 364.905747 
L 436.204622 364.573565 
L 437.733128 364.567526 
L 440.025886 364.555446 
L 440.790139 364.30782 
L 441.554391 364.362177 
L 442.318644 364.612823 
L 443.082897 364.540347 
L 444.611402 364.818172 
L 445.375655 365.265107 
L 446.139908 365.120155 
L 446.90416 365.286246 
L 447.668413 364.969163 
L 448.432666 364.797033 
L 449.196918 364.31688 
L 449.961171 364.353117 
L 450.725424 364.023956 
L 453.782435 364.283661 
L 454.546687 364.187027 
L 455.31094 364.371236 
L 456.075193 364.171928 
L 457.603698 364.063214 
L 459.132203 364.331979 
L 459.896456 364.277622 
L 460.660709 364.84233 
L 461.424961 364.615843 
L 462.189214 363.888063 
L 462.953467 364.238364 
L 463.71772 363.957519 
L 464.481972 364.190047 
L 466.010478 363.685734 
L 466.77473 363.906182 
L 467.538983 363.59514 
L 469.067488 364.159848 
L 469.831741 363.776329 
L 471.360247 363.909202 
L 472.124499 363.879004 
L 474.417257 364.383316 
L 475.945763 364.322919 
L 476.710015 363.903162 
L 477.474268 363.664596 
L 478.238521 363.803508 
L 479.767026 363.749151 
L 482.824037 363.869944 
L 483.58829 363.743111 
L 484.352542 364.033015 
L 485.116795 363.691774 
L 486.6453 363.927321 
L 487.409553 364.401435 
L 488.173806 364.455792 
L 488.938059 364.630942 
L 490.466564 363.326374 
L 491.230817 363.776329 
L 491.995069 363.543802 
L 492.759322 363.513604 
L 493.523575 363.658556 
L 494.287827 363.601179 
L 495.05208 363.353553 
L 495.816333 363.531723 
L 496.580586 363.296176 
L 497.344838 363.694794 
L 498.109091 363.631377 
L 498.109091 363.631377 
" clip-path="url(#p648c19ea86)" style="fill: none; stroke: #008000; stroke-width: 1.5; stroke-linecap: square"/>
   </g>
   <g id="patch_3">
    <path d="M 72 384.48 
L 72 51.84 
" style="fill: none; stroke: #000000; stroke-width: 0.8; stroke-linejoin: miter; stroke-linecap: square"/>
   </g>
   <g id="patch_4">
    <path d="M 518.4 384.48 
L 518.4 51.84 
" style="fill: none; stroke: #000000; stroke-width: 0.8; stroke-linejoin: miter; stroke-linecap: square"/>
   </g>
   <g id="patch_5">
    <path d="M 72 384.48 
L 518.4 384.48 
" style="fill: none; stroke: #000000; stroke-width: 0.8; stroke-linejoin: miter; stroke-linecap: square"/>
   </g>
   <g id="patch_6">
    <path d="M 72 51.84 
L 518.4 51.84 
" style="fill: none; stroke: #000000; stroke-width: 0.8; stroke-linejoin: miter; stroke-linecap: square"/>
   </g>
   <g id="text_22">
    <!-- M8: Methionin; Threonin; Phenylalanin -->
    <g transform="translate(199.140625 45.84) scale(0.1 -0.1)">
     <defs>
      <path id="DejaVuSans-4d" d="M 628 4666 
L 1569 4666 
L 2759 1491 
L 3956 4666 
L 4897 4666 
L 4897 0 
L 4281 0 
L 4281 4097 
L 3078 897 
L 2444 897 
L 1241 4097 
L 1241 0 
L 628 0 
L 628 4666 
z
" transform="scale(0.015625)"/>
      <path id="DejaVuSans-3a" d="M 750 794 
L 1409 794 
L 1409 0 
L 750 0 
L 750 794 
z
M 750 3309 
L 1409 3309 
L 1409 2516 
L 750 2516 
L 750 3309 
z
" transform="scale(0.015625)"/>
      <path id="DejaVuSans-3b" d="M 750 3309 
L 1409 3309 
L 1409 2516 
L 750 2516 
L 750 3309 
z
M 750 794 
L 1409 794 
L 1409 256 
L 897 -744 
L 494 -744 
L 750 256 
L 750 794 
z
" transform="scale(0.015625)"/>
      <path id="DejaVuSans-54" d="M -19 4666 
L 3928 4666 
L 3928 4134 
L 2272 4134 
L 2272 0 
L 1638 0 
L 1638 4134 
L -19 4134 
L -19 4666 
z
" transform="scale(0.015625)"/>
      <path id="DejaVuSans-79" d="M 2059 -325 
Q 1816 -950 1584 -1140 
Q 1353 -1331 966 -1331 
L 506 -1331 
L 506 -850 
L 844 -850 
Q 1081 -850 1212 -737 
Q 1344 -625 1503 -206 
L 1606 56 
L 191 3500 
L 800 3500 
L 1894 763 
L 2988 3500 
L 3597 3500 
L 2059 -325 
z
" transform="scale(0.015625)"/>
     </defs>
     <use xlink:href="#DejaVuSans-4d"/>
     <use xlink:href="#DejaVuSans-38" x="86.279297"/>
     <use xlink:href="#DejaVuSans-3a" x="149.902344"/>
     <use xlink:href="#DejaVuSans-20" x="183.59375"/>
     <use xlink:href="#DejaVuSans-4d" x="215.380859"/>
     <use xlink:href="#DejaVuSans-65" x="301.660156"/>
     <use xlink:href="#DejaVuSans-74" x="363.183594"/>
     <use xlink:href="#DejaVuSans-68" x="402.392578"/>
     <use xlink:href="#DejaVuSans-69" x="465.771484"/>
     <use xlink:href="#DejaVuSans-6f" x="493.554688"/>
     <use xlink:href="#DejaVuSans-6e" x="554.736328"/>
     <use xlink:href="#DejaVuSans-69" x="618.115234"/>
     <use xlink:href="#DejaVuSans-6e" x="645.898438"/>
     <use xlink:href="#DejaVuSans-3b" x="709.277344"/>
     <use xlink:href="#DejaVuSans-20" x="742.96875"/>
     <use xlink:href="#DejaVuSans-54" x="774.755859"/>
     <use xlink:href="#DejaVuSans-68" x="835.839844"/>
     <use xlink:href="#DejaVuSans-72" x="899.21875"/>
     <use xlink:href="#DejaVuSans-65" x="938.082031"/>
     <use xlink:href="#DejaVuSans-6f" x="999.605469"/>
     <use xlink:href="#DejaVuSans-6e" x="1060.787109"/>
     <use xlink:href="#DejaVuSans-69" x="1124.166016"/>
     <use xlink:href="#DejaVuSans-6e" x="1151.949219"/>
     <use xlink:href="#DejaVuSans-3b" x="1215.328125"/>
     <use xlink:href="#DejaVuSans-20" x="1249.019531"/>
     <use xlink:href="#DejaVuSans-50" x="1280.806641"/>
     <use xlink:href="#DejaVuSans-68" x="1341.109375"/>
     <use xlink:href="#DejaVuSans-65" x="1404.488281"/>
     <use xlink:href="#DejaVuSans-6e" x="1466.011719"/>
     <use xlink:href="#DejaVuSans-79" x="1529.390625"/>
     <use xlink:href="#DejaVuSans-6c" x="1588.570312"/>
     <use xlink:href="#DejaVuSans-61" x="1616.353516"/>
     <use xlink:href="#DejaVuSans-6c" x="1677.632812"/>
     <use xlink:href="#DejaVuSans-61" x="1705.416016"/>
     <use xlink:href="#DejaVuSans-6e" x="1766.695312"/>
     <use xlink:href="#DejaVuSans-69" x="1830.074219"/>
     <use xlink:href="#DejaVuSans-6e" x="1857.857422"/>
    </g>
   </g>
  </g>
 </g>
 <defs>
  <clipPath id="p648c19ea86">
   <rect x="72" y="51.84" width="446.4" height="332.64"/>
  </clipPath>
 </defs>
</svg>
