<?xml version="1.0" encoding="utf-8" standalone="no"?>
<!DOCTYPE svg PUBLIC "-//W3C//DTD SVG 1.1//EN"
  "http://www.w3.org/Graphics/SVG/1.1/DTD/svg11.dtd">
<svg xmlns:xlink="http://www.w3.org/1999/xlink" width="576pt" height="432pt" viewBox="0 0 576 432" xmlns="http://www.w3.org/2000/svg" version="1.1">
 <metadata>
  <rdf:RDF xmlns:dc="http://purl.org/dc/elements/1.1/" xmlns:cc="http://creativecommons.org/ns#" xmlns:rdf="http://www.w3.org/1999/02/22-rdf-syntax-ns#">
   <cc:Work>
    <dc:type rdf:resource="http://purl.org/dc/dcmitype/StillImage"/>
    <dc:date>2024-11-12T14:09:05.156522</dc:date>
    <dc:format>image/svg+xml</dc:format>
    <dc:creator>
     <cc:Agent>
      <dc:title>Matplotlib v3.7.5, https://matplotlib.org/</dc:title>
     </cc:Agent>
    </dc:creator>
   </cc:Work>
  </rdf:RDF>
 </metadata>
 <defs>
  <style type="text/css">*{stroke-linejoin: round; stroke-linecap: butt}</style>
 </defs>
 <g id="figure_1">
  <g id="patch_1">
   <path d="M 0 432 
L 576 432 
L 576 0 
L 0 0 
z
" style="fill: #ffffff"/>
  </g>
  <g id="axes_1">
   <g id="patch_2">
    <path d="M 72 384.48 
L 518.4 384.48 
L 518.4 51.84 
L 72 51.84 
z
" style="fill: #ffffff"/>
   </g>
   <g id="matplotlib.axis_1">
    <g id="xtick_1">
     <g id="line2d_1">
      <path d="M 92.290909 384.48 
L 92.290909 51.84 
" clip-path="url(#p87ee93d8a0)" style="fill: none; stroke: #b0b0b0; stroke-width: 0.8; stroke-linecap: square"/>
     </g>
     <g id="line2d_2">
      <defs>
       <path id="mfc7069d4d3" d="M 0 0 
L 0 3.5 
" style="stroke: #000000; stroke-width: 0.8"/>
      </defs>
      <g>
       <use xlink:href="#mfc7069d4d3" x="92.290909" y="384.48" style="stroke: #000000; stroke-width: 0.8"/>
      </g>
     </g>
     <g id="text_1">
      <!-- 0.17 -->
      <g transform="translate(81.158097 399.078438) scale(0.1 -0.1)">
       <defs>
        <path id="DejaVuSans-30" d="M 2034 4250 
Q 1547 4250 1301 3770 
Q 1056 3291 1056 2328 
Q 1056 1369 1301 889 
Q 1547 409 2034 409 
Q 2525 409 2770 889 
Q 3016 1369 3016 2328 
Q 3016 3291 2770 3770 
Q 2525 4250 2034 4250 
z
M 2034 4750 
Q 2819 4750 3233 4129 
Q 3647 3509 3647 2328 
Q 3647 1150 3233 529 
Q 2819 -91 2034 -91 
Q 1250 -91 836 529 
Q 422 1150 422 2328 
Q 422 3509 836 4129 
Q 1250 4750 2034 4750 
z
" transform="scale(0.015625)"/>
        <path id="DejaVuSans-2e" d="M 684 794 
L 1344 794 
L 1344 0 
L 684 0 
L 684 794 
z
" transform="scale(0.015625)"/>
        <path id="DejaVuSans-31" d="M 794 531 
L 1825 531 
L 1825 4091 
L 703 3866 
L 703 4441 
L 1819 4666 
L 2450 4666 
L 2450 531 
L 3481 531 
L 3481 0 
L 794 0 
L 794 531 
z
" transform="scale(0.015625)"/>
        <path id="DejaVuSans-37" d="M 525 4666 
L 3525 4666 
L 3525 4397 
L 1831 0 
L 1172 0 
L 2766 4134 
L 525 4134 
L 525 4666 
z
" transform="scale(0.015625)"/>
       </defs>
       <use xlink:href="#DejaVuSans-30"/>
       <use xlink:href="#DejaVuSans-2e" x="63.623047"/>
       <use xlink:href="#DejaVuSans-31" x="95.410156"/>
       <use xlink:href="#DejaVuSans-37" x="159.033203"/>
      </g>
     </g>
    </g>
    <g id="xtick_2">
     <g id="line2d_3">
      <path d="M 122.861017 384.48 
L 122.861017 51.84 
" clip-path="url(#p87ee93d8a0)" style="fill: none; stroke: #b0b0b0; stroke-width: 0.8; stroke-linecap: square"/>
     </g>
     <g id="line2d_4">
      <g>
       <use xlink:href="#mfc7069d4d3" x="122.861017" y="384.48" style="stroke: #000000; stroke-width: 0.8"/>
      </g>
     </g>
     <g id="text_2">
      <!-- 6.83 -->
      <g transform="translate(111.728204 399.078438) scale(0.1 -0.1)">
       <defs>
        <path id="DejaVuSans-36" d="M 2113 2584 
Q 1688 2584 1439 2293 
Q 1191 2003 1191 1497 
Q 1191 994 1439 701 
Q 1688 409 2113 409 
Q 2538 409 2786 701 
Q 3034 994 3034 1497 
Q 3034 2003 2786 2293 
Q 2538 2584 2113 2584 
z
M 3366 4563 
L 3366 3988 
Q 3128 4100 2886 4159 
Q 2644 4219 2406 4219 
Q 1781 4219 1451 3797 
Q 1122 3375 1075 2522 
Q 1259 2794 1537 2939 
Q 1816 3084 2150 3084 
Q 2853 3084 3261 2657 
Q 3669 2231 3669 1497 
Q 3669 778 3244 343 
Q 2819 -91 2113 -91 
Q 1303 -91 875 529 
Q 447 1150 447 2328 
Q 447 3434 972 4092 
Q 1497 4750 2381 4750 
Q 2619 4750 2861 4703 
Q 3103 4656 3366 4563 
z
" transform="scale(0.015625)"/>
        <path id="DejaVuSans-38" d="M 2034 2216 
Q 1584 2216 1326 1975 
Q 1069 1734 1069 1313 
Q 1069 891 1326 650 
Q 1584 409 2034 409 
Q 2484 409 2743 651 
Q 3003 894 3003 1313 
Q 3003 1734 2745 1975 
Q 2488 2216 2034 2216 
z
M 1403 2484 
Q 997 2584 770 2862 
Q 544 3141 544 3541 
Q 544 4100 942 4425 
Q 1341 4750 2034 4750 
Q 2731 4750 3128 4425 
Q 3525 4100 3525 3541 
Q 3525 3141 3298 2862 
Q 3072 2584 2669 2484 
Q 3125 2378 3379 2068 
Q 3634 1759 3634 1313 
Q 3634 634 3220 271 
Q 2806 -91 2034 -91 
Q 1263 -91 848 271 
Q 434 634 434 1313 
Q 434 1759 690 2068 
Q 947 2378 1403 2484 
z
M 1172 3481 
Q 1172 3119 1398 2916 
Q 1625 2713 2034 2713 
Q 2441 2713 2670 2916 
Q 2900 3119 2900 3481 
Q 2900 3844 2670 4047 
Q 2441 4250 2034 4250 
Q 1625 4250 1398 4047 
Q 1172 3844 1172 3481 
z
" transform="scale(0.015625)"/>
        <path id="DejaVuSans-33" d="M 2597 2516 
Q 3050 2419 3304 2112 
Q 3559 1806 3559 1356 
Q 3559 666 3084 287 
Q 2609 -91 1734 -91 
Q 1441 -91 1130 -33 
Q 819 25 488 141 
L 488 750 
Q 750 597 1062 519 
Q 1375 441 1716 441 
Q 2309 441 2620 675 
Q 2931 909 2931 1356 
Q 2931 1769 2642 2001 
Q 2353 2234 1838 2234 
L 1294 2234 
L 1294 2753 
L 1863 2753 
Q 2328 2753 2575 2939 
Q 2822 3125 2822 3475 
Q 2822 3834 2567 4026 
Q 2313 4219 1838 4219 
Q 1578 4219 1281 4162 
Q 984 4106 628 3988 
L 628 4550 
Q 988 4650 1302 4700 
Q 1616 4750 1894 4750 
Q 2613 4750 3031 4423 
Q 3450 4097 3450 3541 
Q 3450 3153 3228 2886 
Q 3006 2619 2597 2516 
z
" transform="scale(0.015625)"/>
       </defs>
       <use xlink:href="#DejaVuSans-36"/>
       <use xlink:href="#DejaVuSans-2e" x="63.623047"/>
       <use xlink:href="#DejaVuSans-38" x="95.410156"/>
       <use xlink:href="#DejaVuSans-33" x="159.033203"/>
      </g>
     </g>
    </g>
    <g id="xtick_3">
     <g id="line2d_5">
      <path d="M 153.431125 384.48 
L 153.431125 51.84 
" clip-path="url(#p87ee93d8a0)" style="fill: none; stroke: #b0b0b0; stroke-width: 0.8; stroke-linecap: square"/>
     </g>
     <g id="line2d_6">
      <g>
       <use xlink:href="#mfc7069d4d3" x="153.431125" y="384.48" style="stroke: #000000; stroke-width: 0.8"/>
      </g>
     </g>
     <g id="text_3">
      <!-- 13.5 -->
      <g transform="translate(142.298312 399.078438) scale(0.1 -0.1)">
       <defs>
        <path id="DejaVuSans-35" d="M 691 4666 
L 3169 4666 
L 3169 4134 
L 1269 4134 
L 1269 2991 
Q 1406 3038 1543 3061 
Q 1681 3084 1819 3084 
Q 2600 3084 3056 2656 
Q 3513 2228 3513 1497 
Q 3513 744 3044 326 
Q 2575 -91 1722 -91 
Q 1428 -91 1123 -41 
Q 819 9 494 109 
L 494 744 
Q 775 591 1075 516 
Q 1375 441 1709 441 
Q 2250 441 2565 725 
Q 2881 1009 2881 1497 
Q 2881 1984 2565 2268 
Q 2250 2553 1709 2553 
Q 1456 2553 1204 2497 
Q 953 2441 691 2322 
L 691 4666 
z
" transform="scale(0.015625)"/>
       </defs>
       <use xlink:href="#DejaVuSans-31"/>
       <use xlink:href="#DejaVuSans-33" x="63.623047"/>
       <use xlink:href="#DejaVuSans-2e" x="127.246094"/>
       <use xlink:href="#DejaVuSans-35" x="159.033203"/>
      </g>
     </g>
    </g>
    <g id="xtick_4">
     <g id="line2d_7">
      <path d="M 184.001233 384.48 
L 184.001233 51.84 
" clip-path="url(#p87ee93d8a0)" style="fill: none; stroke: #b0b0b0; stroke-width: 0.8; stroke-linecap: square"/>
     </g>
     <g id="line2d_8">
      <g>
       <use xlink:href="#mfc7069d4d3" x="184.001233" y="384.48" style="stroke: #000000; stroke-width: 0.8"/>
      </g>
     </g>
     <g id="text_4">
      <!-- 20.17 -->
      <g transform="translate(169.68717 399.078438) scale(0.1 -0.1)">
       <defs>
        <path id="DejaVuSans-32" d="M 1228 531 
L 3431 531 
L 3431 0 
L 469 0 
L 469 531 
Q 828 903 1448 1529 
Q 2069 2156 2228 2338 
Q 2531 2678 2651 2914 
Q 2772 3150 2772 3378 
Q 2772 3750 2511 3984 
Q 2250 4219 1831 4219 
Q 1534 4219 1204 4116 
Q 875 4013 500 3803 
L 500 4441 
Q 881 4594 1212 4672 
Q 1544 4750 1819 4750 
Q 2544 4750 2975 4387 
Q 3406 4025 3406 3419 
Q 3406 3131 3298 2873 
Q 3191 2616 2906 2266 
Q 2828 2175 2409 1742 
Q 1991 1309 1228 531 
z
" transform="scale(0.015625)"/>
       </defs>
       <use xlink:href="#DejaVuSans-32"/>
       <use xlink:href="#DejaVuSans-30" x="63.623047"/>
       <use xlink:href="#DejaVuSans-2e" x="127.246094"/>
       <use xlink:href="#DejaVuSans-31" x="159.033203"/>
       <use xlink:href="#DejaVuSans-37" x="222.65625"/>
      </g>
     </g>
    </g>
    <g id="xtick_5">
     <g id="line2d_9">
      <path d="M 214.571341 384.48 
L 214.571341 51.84 
" clip-path="url(#p87ee93d8a0)" style="fill: none; stroke: #b0b0b0; stroke-width: 0.8; stroke-linecap: square"/>
     </g>
     <g id="line2d_10">
      <g>
       <use xlink:href="#mfc7069d4d3" x="214.571341" y="384.48" style="stroke: #000000; stroke-width: 0.8"/>
      </g>
     </g>
     <g id="text_5">
      <!-- 26.83 -->
      <g transform="translate(200.257278 399.078438) scale(0.1 -0.1)">
       <use xlink:href="#DejaVuSans-32"/>
       <use xlink:href="#DejaVuSans-36" x="63.623047"/>
       <use xlink:href="#DejaVuSans-2e" x="127.246094"/>
       <use xlink:href="#DejaVuSans-38" x="159.033203"/>
       <use xlink:href="#DejaVuSans-33" x="222.65625"/>
      </g>
     </g>
    </g>
    <g id="xtick_6">
     <g id="line2d_11">
      <path d="M 245.141448 384.48 
L 245.141448 51.84 
" clip-path="url(#p87ee93d8a0)" style="fill: none; stroke: #b0b0b0; stroke-width: 0.8; stroke-linecap: square"/>
     </g>
     <g id="line2d_12">
      <g>
       <use xlink:href="#mfc7069d4d3" x="245.141448" y="384.48" style="stroke: #000000; stroke-width: 0.8"/>
      </g>
     </g>
     <g id="text_6">
      <!-- 33.5 -->
      <g transform="translate(234.008636 399.078438) scale(0.1 -0.1)">
       <use xlink:href="#DejaVuSans-33"/>
       <use xlink:href="#DejaVuSans-33" x="63.623047"/>
       <use xlink:href="#DejaVuSans-2e" x="127.246094"/>
       <use xlink:href="#DejaVuSans-35" x="159.033203"/>
      </g>
     </g>
    </g>
    <g id="xtick_7">
     <g id="line2d_13">
      <path d="M 275.711556 384.48 
L 275.711556 51.84 
" clip-path="url(#p87ee93d8a0)" style="fill: none; stroke: #b0b0b0; stroke-width: 0.8; stroke-linecap: square"/>
     </g>
     <g id="line2d_14">
      <g>
       <use xlink:href="#mfc7069d4d3" x="275.711556" y="384.48" style="stroke: #000000; stroke-width: 0.8"/>
      </g>
     </g>
     <g id="text_7">
      <!-- 40.17 -->
      <g transform="translate(261.397494 399.078438) scale(0.1 -0.1)">
       <defs>
        <path id="DejaVuSans-34" d="M 2419 4116 
L 825 1625 
L 2419 1625 
L 2419 4116 
z
M 2253 4666 
L 3047 4666 
L 3047 1625 
L 3713 1625 
L 3713 1100 
L 3047 1100 
L 3047 0 
L 2419 0 
L 2419 1100 
L 313 1100 
L 313 1709 
L 2253 4666 
z
" transform="scale(0.015625)"/>
       </defs>
       <use xlink:href="#DejaVuSans-34"/>
       <use xlink:href="#DejaVuSans-30" x="63.623047"/>
       <use xlink:href="#DejaVuSans-2e" x="127.246094"/>
       <use xlink:href="#DejaVuSans-31" x="159.033203"/>
       <use xlink:href="#DejaVuSans-37" x="222.65625"/>
      </g>
     </g>
    </g>
    <g id="xtick_8">
     <g id="line2d_15">
      <path d="M 306.281664 384.48 
L 306.281664 51.84 
" clip-path="url(#p87ee93d8a0)" style="fill: none; stroke: #b0b0b0; stroke-width: 0.8; stroke-linecap: square"/>
     </g>
     <g id="line2d_16">
      <g>
       <use xlink:href="#mfc7069d4d3" x="306.281664" y="384.48" style="stroke: #000000; stroke-width: 0.8"/>
      </g>
     </g>
     <g id="text_8">
      <!-- 46.83 -->
      <g transform="translate(291.967602 399.078438) scale(0.1 -0.1)">
       <use xlink:href="#DejaVuSans-34"/>
       <use xlink:href="#DejaVuSans-36" x="63.623047"/>
       <use xlink:href="#DejaVuSans-2e" x="127.246094"/>
       <use xlink:href="#DejaVuSans-38" x="159.033203"/>
       <use xlink:href="#DejaVuSans-33" x="222.65625"/>
      </g>
     </g>
    </g>
    <g id="xtick_9">
     <g id="line2d_17">
      <path d="M 336.851772 384.48 
L 336.851772 51.84 
" clip-path="url(#p87ee93d8a0)" style="fill: none; stroke: #b0b0b0; stroke-width: 0.8; stroke-linecap: square"/>
     </g>
     <g id="line2d_18">
      <g>
       <use xlink:href="#mfc7069d4d3" x="336.851772" y="384.48" style="stroke: #000000; stroke-width: 0.8"/>
      </g>
     </g>
     <g id="text_9">
      <!-- 53.5 -->
      <g transform="translate(325.718959 399.078438) scale(0.1 -0.1)">
       <use xlink:href="#DejaVuSans-35"/>
       <use xlink:href="#DejaVuSans-33" x="63.623047"/>
       <use xlink:href="#DejaVuSans-2e" x="127.246094"/>
       <use xlink:href="#DejaVuSans-35" x="159.033203"/>
      </g>
     </g>
    </g>
    <g id="xtick_10">
     <g id="line2d_19">
      <path d="M 367.42188 384.48 
L 367.42188 51.84 
" clip-path="url(#p87ee93d8a0)" style="fill: none; stroke: #b0b0b0; stroke-width: 0.8; stroke-linecap: square"/>
     </g>
     <g id="line2d_20">
      <g>
       <use xlink:href="#mfc7069d4d3" x="367.42188" y="384.48" style="stroke: #000000; stroke-width: 0.8"/>
      </g>
     </g>
     <g id="text_10">
      <!-- 60.17 -->
      <g transform="translate(353.107817 399.078438) scale(0.1 -0.1)">
       <use xlink:href="#DejaVuSans-36"/>
       <use xlink:href="#DejaVuSans-30" x="63.623047"/>
       <use xlink:href="#DejaVuSans-2e" x="127.246094"/>
       <use xlink:href="#DejaVuSans-31" x="159.033203"/>
       <use xlink:href="#DejaVuSans-37" x="222.65625"/>
      </g>
     </g>
    </g>
    <g id="xtick_11">
     <g id="line2d_21">
      <path d="M 397.991988 384.48 
L 397.991988 51.84 
" clip-path="url(#p87ee93d8a0)" style="fill: none; stroke: #b0b0b0; stroke-width: 0.8; stroke-linecap: square"/>
     </g>
     <g id="line2d_22">
      <g>
       <use xlink:href="#mfc7069d4d3" x="397.991988" y="384.48" style="stroke: #000000; stroke-width: 0.8"/>
      </g>
     </g>
     <g id="text_11">
      <!-- 66.83 -->
      <g transform="translate(383.677925 399.078438) scale(0.1 -0.1)">
       <use xlink:href="#DejaVuSans-36"/>
       <use xlink:href="#DejaVuSans-36" x="63.623047"/>
       <use xlink:href="#DejaVuSans-2e" x="127.246094"/>
       <use xlink:href="#DejaVuSans-38" x="159.033203"/>
       <use xlink:href="#DejaVuSans-33" x="222.65625"/>
      </g>
     </g>
    </g>
    <g id="xtick_12">
     <g id="line2d_23">
      <path d="M 428.562096 384.48 
L 428.562096 51.84 
" clip-path="url(#p87ee93d8a0)" style="fill: none; stroke: #b0b0b0; stroke-width: 0.8; stroke-linecap: square"/>
     </g>
     <g id="line2d_24">
      <g>
       <use xlink:href="#mfc7069d4d3" x="428.562096" y="384.48" style="stroke: #000000; stroke-width: 0.8"/>
      </g>
     </g>
     <g id="text_12">
      <!-- 73.5 -->
      <g transform="translate(417.429283 399.078438) scale(0.1 -0.1)">
       <use xlink:href="#DejaVuSans-37"/>
       <use xlink:href="#DejaVuSans-33" x="63.623047"/>
       <use xlink:href="#DejaVuSans-2e" x="127.246094"/>
       <use xlink:href="#DejaVuSans-35" x="159.033203"/>
      </g>
     </g>
    </g>
    <g id="xtick_13">
     <g id="line2d_25">
      <path d="M 459.132203 384.48 
L 459.132203 51.84 
" clip-path="url(#p87ee93d8a0)" style="fill: none; stroke: #b0b0b0; stroke-width: 0.8; stroke-linecap: square"/>
     </g>
     <g id="line2d_26">
      <g>
       <use xlink:href="#mfc7069d4d3" x="459.132203" y="384.48" style="stroke: #000000; stroke-width: 0.8"/>
      </g>
     </g>
     <g id="text_13">
      <!-- 80.17 -->
      <g transform="translate(444.818141 399.078438) scale(0.1 -0.1)">
       <use xlink:href="#DejaVuSans-38"/>
       <use xlink:href="#DejaVuSans-30" x="63.623047"/>
       <use xlink:href="#DejaVuSans-2e" x="127.246094"/>
       <use xlink:href="#DejaVuSans-31" x="159.033203"/>
       <use xlink:href="#DejaVuSans-37" x="222.65625"/>
      </g>
     </g>
    </g>
    <g id="xtick_14">
     <g id="line2d_27">
      <path d="M 489.702311 384.48 
L 489.702311 51.84 
" clip-path="url(#p87ee93d8a0)" style="fill: none; stroke: #b0b0b0; stroke-width: 0.8; stroke-linecap: square"/>
     </g>
     <g id="line2d_28">
      <g>
       <use xlink:href="#mfc7069d4d3" x="489.702311" y="384.48" style="stroke: #000000; stroke-width: 0.8"/>
      </g>
     </g>
     <g id="text_14">
      <!-- 86.83 -->
      <g transform="translate(475.388249 399.078438) scale(0.1 -0.1)">
       <use xlink:href="#DejaVuSans-38"/>
       <use xlink:href="#DejaVuSans-36" x="63.623047"/>
       <use xlink:href="#DejaVuSans-2e" x="127.246094"/>
       <use xlink:href="#DejaVuSans-38" x="159.033203"/>
       <use xlink:href="#DejaVuSans-33" x="222.65625"/>
      </g>
     </g>
    </g>
    <g id="text_15">
     <!-- time in hours [h] -->
     <g transform="translate(253.451562 412.756563) scale(0.1 -0.1)">
      <defs>
       <path id="DejaVuSans-74" d="M 1172 4494 
L 1172 3500 
L 2356 3500 
L 2356 3053 
L 1172 3053 
L 1172 1153 
Q 1172 725 1289 603 
Q 1406 481 1766 481 
L 2356 481 
L 2356 0 
L 1766 0 
Q 1100 0 847 248 
Q 594 497 594 1153 
L 594 3053 
L 172 3053 
L 172 3500 
L 594 3500 
L 594 4494 
L 1172 4494 
z
" transform="scale(0.015625)"/>
       <path id="DejaVuSans-69" d="M 603 3500 
L 1178 3500 
L 1178 0 
L 603 0 
L 603 3500 
z
M 603 4863 
L 1178 4863 
L 1178 4134 
L 603 4134 
L 603 4863 
z
" transform="scale(0.015625)"/>
       <path id="DejaVuSans-6d" d="M 3328 2828 
Q 3544 3216 3844 3400 
Q 4144 3584 4550 3584 
Q 5097 3584 5394 3201 
Q 5691 2819 5691 2113 
L 5691 0 
L 5113 0 
L 5113 2094 
Q 5113 2597 4934 2840 
Q 4756 3084 4391 3084 
Q 3944 3084 3684 2787 
Q 3425 2491 3425 1978 
L 3425 0 
L 2847 0 
L 2847 2094 
Q 2847 2600 2669 2842 
Q 2491 3084 2119 3084 
Q 1678 3084 1418 2786 
Q 1159 2488 1159 1978 
L 1159 0 
L 581 0 
L 581 3500 
L 1159 3500 
L 1159 2956 
Q 1356 3278 1631 3431 
Q 1906 3584 2284 3584 
Q 2666 3584 2933 3390 
Q 3200 3197 3328 2828 
z
" transform="scale(0.015625)"/>
       <path id="DejaVuSans-65" d="M 3597 1894 
L 3597 1613 
L 953 1613 
Q 991 1019 1311 708 
Q 1631 397 2203 397 
Q 2534 397 2845 478 
Q 3156 559 3463 722 
L 3463 178 
Q 3153 47 2828 -22 
Q 2503 -91 2169 -91 
Q 1331 -91 842 396 
Q 353 884 353 1716 
Q 353 2575 817 3079 
Q 1281 3584 2069 3584 
Q 2775 3584 3186 3129 
Q 3597 2675 3597 1894 
z
M 3022 2063 
Q 3016 2534 2758 2815 
Q 2500 3097 2075 3097 
Q 1594 3097 1305 2825 
Q 1016 2553 972 2059 
L 3022 2063 
z
" transform="scale(0.015625)"/>
       <path id="DejaVuSans-20" transform="scale(0.015625)"/>
       <path id="DejaVuSans-6e" d="M 3513 2113 
L 3513 0 
L 2938 0 
L 2938 2094 
Q 2938 2591 2744 2837 
Q 2550 3084 2163 3084 
Q 1697 3084 1428 2787 
Q 1159 2491 1159 1978 
L 1159 0 
L 581 0 
L 581 3500 
L 1159 3500 
L 1159 2956 
Q 1366 3272 1645 3428 
Q 1925 3584 2291 3584 
Q 2894 3584 3203 3211 
Q 3513 2838 3513 2113 
z
" transform="scale(0.015625)"/>
       <path id="DejaVuSans-68" d="M 3513 2113 
L 3513 0 
L 2938 0 
L 2938 2094 
Q 2938 2591 2744 2837 
Q 2550 3084 2163 3084 
Q 1697 3084 1428 2787 
Q 1159 2491 1159 1978 
L 1159 0 
L 581 0 
L 581 4863 
L 1159 4863 
L 1159 2956 
Q 1366 3272 1645 3428 
Q 1925 3584 2291 3584 
Q 2894 3584 3203 3211 
Q 3513 2838 3513 2113 
z
" transform="scale(0.015625)"/>
       <path id="DejaVuSans-6f" d="M 1959 3097 
Q 1497 3097 1228 2736 
Q 959 2375 959 1747 
Q 959 1119 1226 758 
Q 1494 397 1959 397 
Q 2419 397 2687 759 
Q 2956 1122 2956 1747 
Q 2956 2369 2687 2733 
Q 2419 3097 1959 3097 
z
M 1959 3584 
Q 2709 3584 3137 3096 
Q 3566 2609 3566 1747 
Q 3566 888 3137 398 
Q 2709 -91 1959 -91 
Q 1206 -91 779 398 
Q 353 888 353 1747 
Q 353 2609 779 3096 
Q 1206 3584 1959 3584 
z
" transform="scale(0.015625)"/>
       <path id="DejaVuSans-75" d="M 544 1381 
L 544 3500 
L 1119 3500 
L 1119 1403 
Q 1119 906 1312 657 
Q 1506 409 1894 409 
Q 2359 409 2629 706 
Q 2900 1003 2900 1516 
L 2900 3500 
L 3475 3500 
L 3475 0 
L 2900 0 
L 2900 538 
Q 2691 219 2414 64 
Q 2138 -91 1772 -91 
Q 1169 -91 856 284 
Q 544 659 544 1381 
z
M 1991 3584 
L 1991 3584 
z
" transform="scale(0.015625)"/>
       <path id="DejaVuSans-72" d="M 2631 2963 
Q 2534 3019 2420 3045 
Q 2306 3072 2169 3072 
Q 1681 3072 1420 2755 
Q 1159 2438 1159 1844 
L 1159 0 
L 581 0 
L 581 3500 
L 1159 3500 
L 1159 2956 
Q 1341 3275 1631 3429 
Q 1922 3584 2338 3584 
Q 2397 3584 2469 3576 
Q 2541 3569 2628 3553 
L 2631 2963 
z
" transform="scale(0.015625)"/>
       <path id="DejaVuSans-73" d="M 2834 3397 
L 2834 2853 
Q 2591 2978 2328 3040 
Q 2066 3103 1784 3103 
Q 1356 3103 1142 2972 
Q 928 2841 928 2578 
Q 928 2378 1081 2264 
Q 1234 2150 1697 2047 
L 1894 2003 
Q 2506 1872 2764 1633 
Q 3022 1394 3022 966 
Q 3022 478 2636 193 
Q 2250 -91 1575 -91 
Q 1294 -91 989 -36 
Q 684 19 347 128 
L 347 722 
Q 666 556 975 473 
Q 1284 391 1588 391 
Q 1994 391 2212 530 
Q 2431 669 2431 922 
Q 2431 1156 2273 1281 
Q 2116 1406 1581 1522 
L 1381 1569 
Q 847 1681 609 1914 
Q 372 2147 372 2553 
Q 372 3047 722 3315 
Q 1072 3584 1716 3584 
Q 2034 3584 2315 3537 
Q 2597 3491 2834 3397 
z
" transform="scale(0.015625)"/>
       <path id="DejaVuSans-5b" d="M 550 4863 
L 1875 4863 
L 1875 4416 
L 1125 4416 
L 1125 -397 
L 1875 -397 
L 1875 -844 
L 550 -844 
L 550 4863 
z
" transform="scale(0.015625)"/>
       <path id="DejaVuSans-5d" d="M 1947 4863 
L 1947 -844 
L 622 -844 
L 622 -397 
L 1369 -397 
L 1369 4416 
L 622 4416 
L 622 4863 
L 1947 4863 
z
" transform="scale(0.015625)"/>
      </defs>
      <use xlink:href="#DejaVuSans-74"/>
      <use xlink:href="#DejaVuSans-69" x="39.208984"/>
      <use xlink:href="#DejaVuSans-6d" x="66.992188"/>
      <use xlink:href="#DejaVuSans-65" x="164.404297"/>
      <use xlink:href="#DejaVuSans-20" x="225.927734"/>
      <use xlink:href="#DejaVuSans-69" x="257.714844"/>
      <use xlink:href="#DejaVuSans-6e" x="285.498047"/>
      <use xlink:href="#DejaVuSans-20" x="348.876953"/>
      <use xlink:href="#DejaVuSans-68" x="380.664062"/>
      <use xlink:href="#DejaVuSans-6f" x="444.042969"/>
      <use xlink:href="#DejaVuSans-75" x="505.224609"/>
      <use xlink:href="#DejaVuSans-72" x="568.603516"/>
      <use xlink:href="#DejaVuSans-73" x="609.716797"/>
      <use xlink:href="#DejaVuSans-20" x="661.816406"/>
      <use xlink:href="#DejaVuSans-5b" x="693.603516"/>
      <use xlink:href="#DejaVuSans-68" x="732.617188"/>
      <use xlink:href="#DejaVuSans-5d" x="795.996094"/>
     </g>
    </g>
   </g>
   <g id="matplotlib.axis_2">
    <g id="ytick_1">
     <g id="line2d_29">
      <path d="M 72 333.625186 
L 518.4 333.625186 
" clip-path="url(#p87ee93d8a0)" style="fill: none; stroke: #b0b0b0; stroke-width: 0.8; stroke-linecap: square"/>
     </g>
     <g id="line2d_30">
      <defs>
       <path id="me04536fe13" d="M 0 0 
L -3.5 0 
" style="stroke: #000000; stroke-width: 0.8"/>
      </defs>
      <g>
       <use xlink:href="#me04536fe13" x="72" y="333.625186" style="stroke: #000000; stroke-width: 0.8"/>
      </g>
     </g>
     <g id="text_16">
      <!-- 20000 -->
      <g transform="translate(33.1875 337.424405) scale(0.1 -0.1)">
       <use xlink:href="#DejaVuSans-32"/>
       <use xlink:href="#DejaVuSans-30" x="63.623047"/>
       <use xlink:href="#DejaVuSans-30" x="127.246094"/>
       <use xlink:href="#DejaVuSans-30" x="190.869141"/>
       <use xlink:href="#DejaVuSans-30" x="254.492188"/>
      </g>
     </g>
    </g>
    <g id="ytick_2">
     <g id="line2d_31">
      <path d="M 72 276.013664 
L 518.4 276.013664 
" clip-path="url(#p87ee93d8a0)" style="fill: none; stroke: #b0b0b0; stroke-width: 0.8; stroke-linecap: square"/>
     </g>
     <g id="line2d_32">
      <g>
       <use xlink:href="#me04536fe13" x="72" y="276.013664" style="stroke: #000000; stroke-width: 0.8"/>
      </g>
     </g>
     <g id="text_17">
      <!-- 40000 -->
      <g transform="translate(33.1875 279.812882) scale(0.1 -0.1)">
       <use xlink:href="#DejaVuSans-34"/>
       <use xlink:href="#DejaVuSans-30" x="63.623047"/>
       <use xlink:href="#DejaVuSans-30" x="127.246094"/>
       <use xlink:href="#DejaVuSans-30" x="190.869141"/>
       <use xlink:href="#DejaVuSans-30" x="254.492188"/>
      </g>
     </g>
    </g>
    <g id="ytick_3">
     <g id="line2d_33">
      <path d="M 72 218.402141 
L 518.4 218.402141 
" clip-path="url(#p87ee93d8a0)" style="fill: none; stroke: #b0b0b0; stroke-width: 0.8; stroke-linecap: square"/>
     </g>
     <g id="line2d_34">
      <g>
       <use xlink:href="#me04536fe13" x="72" y="218.402141" style="stroke: #000000; stroke-width: 0.8"/>
      </g>
     </g>
     <g id="text_18">
      <!-- 60000 -->
      <g transform="translate(33.1875 222.20136) scale(0.1 -0.1)">
       <use xlink:href="#DejaVuSans-36"/>
       <use xlink:href="#DejaVuSans-30" x="63.623047"/>
       <use xlink:href="#DejaVuSans-30" x="127.246094"/>
       <use xlink:href="#DejaVuSans-30" x="190.869141"/>
       <use xlink:href="#DejaVuSans-30" x="254.492188"/>
      </g>
     </g>
    </g>
    <g id="ytick_4">
     <g id="line2d_35">
      <path d="M 72 160.790619 
L 518.4 160.790619 
" clip-path="url(#p87ee93d8a0)" style="fill: none; stroke: #b0b0b0; stroke-width: 0.8; stroke-linecap: square"/>
     </g>
     <g id="line2d_36">
      <g>
       <use xlink:href="#me04536fe13" x="72" y="160.790619" style="stroke: #000000; stroke-width: 0.8"/>
      </g>
     </g>
     <g id="text_19">
      <!-- 80000 -->
      <g transform="translate(33.1875 164.589838) scale(0.1 -0.1)">
       <use xlink:href="#DejaVuSans-38"/>
       <use xlink:href="#DejaVuSans-30" x="63.623047"/>
       <use xlink:href="#DejaVuSans-30" x="127.246094"/>
       <use xlink:href="#DejaVuSans-30" x="190.869141"/>
       <use xlink:href="#DejaVuSans-30" x="254.492188"/>
      </g>
     </g>
    </g>
    <g id="ytick_5">
     <g id="line2d_37">
      <path d="M 72 103.179097 
L 518.4 103.179097 
" clip-path="url(#p87ee93d8a0)" style="fill: none; stroke: #b0b0b0; stroke-width: 0.8; stroke-linecap: square"/>
     </g>
     <g id="line2d_38">
      <g>
       <use xlink:href="#me04536fe13" x="72" y="103.179097" style="stroke: #000000; stroke-width: 0.8"/>
      </g>
     </g>
     <g id="text_20">
      <!-- 100000 -->
      <g transform="translate(26.825 106.978315) scale(0.1 -0.1)">
       <use xlink:href="#DejaVuSans-31"/>
       <use xlink:href="#DejaVuSans-30" x="63.623047"/>
       <use xlink:href="#DejaVuSans-30" x="127.246094"/>
       <use xlink:href="#DejaVuSans-30" x="190.869141"/>
       <use xlink:href="#DejaVuSans-30" x="254.492188"/>
       <use xlink:href="#DejaVuSans-30" x="318.115234"/>
      </g>
     </g>
    </g>
    <g id="text_21">
     <!-- blank corrected GFP RFU -->
     <g transform="translate(20.745312 280.149062) rotate(-90) scale(0.1 -0.1)">
      <defs>
       <path id="DejaVuSans-62" d="M 3116 1747 
Q 3116 2381 2855 2742 
Q 2594 3103 2138 3103 
Q 1681 3103 1420 2742 
Q 1159 2381 1159 1747 
Q 1159 1113 1420 752 
Q 1681 391 2138 391 
Q 2594 391 2855 752 
Q 3116 1113 3116 1747 
z
M 1159 2969 
Q 1341 3281 1617 3432 
Q 1894 3584 2278 3584 
Q 2916 3584 3314 3078 
Q 3713 2572 3713 1747 
Q 3713 922 3314 415 
Q 2916 -91 2278 -91 
Q 1894 -91 1617 61 
Q 1341 213 1159 525 
L 1159 0 
L 581 0 
L 581 4863 
L 1159 4863 
L 1159 2969 
z
" transform="scale(0.015625)"/>
       <path id="DejaVuSans-6c" d="M 603 4863 
L 1178 4863 
L 1178 0 
L 603 0 
L 603 4863 
z
" transform="scale(0.015625)"/>
       <path id="DejaVuSans-61" d="M 2194 1759 
Q 1497 1759 1228 1600 
Q 959 1441 959 1056 
Q 959 750 1161 570 
Q 1363 391 1709 391 
Q 2188 391 2477 730 
Q 2766 1069 2766 1631 
L 2766 1759 
L 2194 1759 
z
M 3341 1997 
L 3341 0 
L 2766 0 
L 2766 531 
Q 2569 213 2275 61 
Q 1981 -91 1556 -91 
Q 1019 -91 701 211 
Q 384 513 384 1019 
Q 384 1609 779 1909 
Q 1175 2209 1959 2209 
L 2766 2209 
L 2766 2266 
Q 2766 2663 2505 2880 
Q 2244 3097 1772 3097 
Q 1472 3097 1187 3025 
Q 903 2953 641 2809 
L 641 3341 
Q 956 3463 1253 3523 
Q 1550 3584 1831 3584 
Q 2591 3584 2966 3190 
Q 3341 2797 3341 1997 
z
" transform="scale(0.015625)"/>
       <path id="DejaVuSans-6b" d="M 581 4863 
L 1159 4863 
L 1159 1991 
L 2875 3500 
L 3609 3500 
L 1753 1863 
L 3688 0 
L 2938 0 
L 1159 1709 
L 1159 0 
L 581 0 
L 581 4863 
z
" transform="scale(0.015625)"/>
       <path id="DejaVuSans-63" d="M 3122 3366 
L 3122 2828 
Q 2878 2963 2633 3030 
Q 2388 3097 2138 3097 
Q 1578 3097 1268 2742 
Q 959 2388 959 1747 
Q 959 1106 1268 751 
Q 1578 397 2138 397 
Q 2388 397 2633 464 
Q 2878 531 3122 666 
L 3122 134 
Q 2881 22 2623 -34 
Q 2366 -91 2075 -91 
Q 1284 -91 818 406 
Q 353 903 353 1747 
Q 353 2603 823 3093 
Q 1294 3584 2113 3584 
Q 2378 3584 2631 3529 
Q 2884 3475 3122 3366 
z
" transform="scale(0.015625)"/>
       <path id="DejaVuSans-64" d="M 2906 2969 
L 2906 4863 
L 3481 4863 
L 3481 0 
L 2906 0 
L 2906 525 
Q 2725 213 2448 61 
Q 2172 -91 1784 -91 
Q 1150 -91 751 415 
Q 353 922 353 1747 
Q 353 2572 751 3078 
Q 1150 3584 1784 3584 
Q 2172 3584 2448 3432 
Q 2725 3281 2906 2969 
z
M 947 1747 
Q 947 1113 1208 752 
Q 1469 391 1925 391 
Q 2381 391 2643 752 
Q 2906 1113 2906 1747 
Q 2906 2381 2643 2742 
Q 2381 3103 1925 3103 
Q 1469 3103 1208 2742 
Q 947 2381 947 1747 
z
" transform="scale(0.015625)"/>
       <path id="DejaVuSans-47" d="M 3809 666 
L 3809 1919 
L 2778 1919 
L 2778 2438 
L 4434 2438 
L 4434 434 
Q 4069 175 3628 42 
Q 3188 -91 2688 -91 
Q 1594 -91 976 548 
Q 359 1188 359 2328 
Q 359 3472 976 4111 
Q 1594 4750 2688 4750 
Q 3144 4750 3555 4637 
Q 3966 4525 4313 4306 
L 4313 3634 
Q 3963 3931 3569 4081 
Q 3175 4231 2741 4231 
Q 1884 4231 1454 3753 
Q 1025 3275 1025 2328 
Q 1025 1384 1454 906 
Q 1884 428 2741 428 
Q 3075 428 3337 486 
Q 3600 544 3809 666 
z
" transform="scale(0.015625)"/>
       <path id="DejaVuSans-46" d="M 628 4666 
L 3309 4666 
L 3309 4134 
L 1259 4134 
L 1259 2759 
L 3109 2759 
L 3109 2228 
L 1259 2228 
L 1259 0 
L 628 0 
L 628 4666 
z
" transform="scale(0.015625)"/>
       <path id="DejaVuSans-50" d="M 1259 4147 
L 1259 2394 
L 2053 2394 
Q 2494 2394 2734 2622 
Q 2975 2850 2975 3272 
Q 2975 3691 2734 3919 
Q 2494 4147 2053 4147 
L 1259 4147 
z
M 628 4666 
L 2053 4666 
Q 2838 4666 3239 4311 
Q 3641 3956 3641 3272 
Q 3641 2581 3239 2228 
Q 2838 1875 2053 1875 
L 1259 1875 
L 1259 0 
L 628 0 
L 628 4666 
z
" transform="scale(0.015625)"/>
       <path id="DejaVuSans-52" d="M 2841 2188 
Q 3044 2119 3236 1894 
Q 3428 1669 3622 1275 
L 4263 0 
L 3584 0 
L 2988 1197 
Q 2756 1666 2539 1819 
Q 2322 1972 1947 1972 
L 1259 1972 
L 1259 0 
L 628 0 
L 628 4666 
L 2053 4666 
Q 2853 4666 3247 4331 
Q 3641 3997 3641 3322 
Q 3641 2881 3436 2590 
Q 3231 2300 2841 2188 
z
M 1259 4147 
L 1259 2491 
L 2053 2491 
Q 2509 2491 2742 2702 
Q 2975 2913 2975 3322 
Q 2975 3731 2742 3939 
Q 2509 4147 2053 4147 
L 1259 4147 
z
" transform="scale(0.015625)"/>
       <path id="DejaVuSans-55" d="M 556 4666 
L 1191 4666 
L 1191 1831 
Q 1191 1081 1462 751 
Q 1734 422 2344 422 
Q 2950 422 3222 751 
Q 3494 1081 3494 1831 
L 3494 4666 
L 4128 4666 
L 4128 1753 
Q 4128 841 3676 375 
Q 3225 -91 2344 -91 
Q 1459 -91 1007 375 
Q 556 841 556 1753 
L 556 4666 
z
" transform="scale(0.015625)"/>
      </defs>
      <use xlink:href="#DejaVuSans-62"/>
      <use xlink:href="#DejaVuSans-6c" x="63.476562"/>
      <use xlink:href="#DejaVuSans-61" x="91.259766"/>
      <use xlink:href="#DejaVuSans-6e" x="152.539062"/>
      <use xlink:href="#DejaVuSans-6b" x="215.917969"/>
      <use xlink:href="#DejaVuSans-20" x="273.828125"/>
      <use xlink:href="#DejaVuSans-63" x="305.615234"/>
      <use xlink:href="#DejaVuSans-6f" x="360.595703"/>
      <use xlink:href="#DejaVuSans-72" x="421.777344"/>
      <use xlink:href="#DejaVuSans-72" x="461.140625"/>
      <use xlink:href="#DejaVuSans-65" x="500.003906"/>
      <use xlink:href="#DejaVuSans-63" x="561.527344"/>
      <use xlink:href="#DejaVuSans-74" x="616.507812"/>
      <use xlink:href="#DejaVuSans-65" x="655.716797"/>
      <use xlink:href="#DejaVuSans-64" x="717.240234"/>
      <use xlink:href="#DejaVuSans-20" x="780.716797"/>
      <use xlink:href="#DejaVuSans-47" x="812.503906"/>
      <use xlink:href="#DejaVuSans-46" x="889.994141"/>
      <use xlink:href="#DejaVuSans-50" x="947.513672"/>
      <use xlink:href="#DejaVuSans-20" x="1007.816406"/>
      <use xlink:href="#DejaVuSans-52" x="1039.603516"/>
      <use xlink:href="#DejaVuSans-46" x="1109.085938"/>
      <use xlink:href="#DejaVuSans-55" x="1166.605469"/>
     </g>
    </g>
   </g>
   <g id="line2d_39">
    <path d="M 92.290909 338.70779 
L 93.055162 340.36124 
L 93.819414 339.828334 
L 94.583667 338.9584 
L 96.112173 338.494627 
L 96.876425 337.639096 
L 97.640678 337.4605 
L 98.404931 337.057219 
L 99.169183 336.025973 
L 99.933436 335.377844 
L 100.697689 334.372523 
L 101.461941 333.727273 
L 102.226194 332.540476 
L 102.990447 331.797287 
L 103.7547 330.884145 
L 106.047458 326.744757 
L 106.81171 325.95836 
L 109.104468 321.116111 
L 109.868721 319.70751 
L 110.632974 318.039656 
L 111.397227 316.973843 
L 112.925732 313.131154 
L 113.689985 311.304869 
L 114.454237 310.00861 
L 115.21849 308.222653 
L 115.982743 306.024773 
L 116.746995 305.828894 
L 117.511248 304.198488 
L 119.039753 297.979324 
L 119.804006 296.020532 
L 121.332512 291.181164 
L 122.096764 289.187806 
L 125.918028 277.357279 
L 126.68228 273.822813 
L 127.446533 272.028214 
L 128.210786 269.885065 
L 128.975039 268.231614 
L 129.739291 265.924273 
L 130.503544 264.924713 
L 132.032049 261.090666 
L 132.796302 258.187045 
L 133.560555 254.436535 
L 135.08906 244.743397 
L 137.381818 235.240376 
L 138.146071 232.950318 
L 138.910324 229.070182 
L 139.674576 226.644737 
L 140.438829 222.513991 
L 142.731587 213.385445 
L 144.260092 213.575563 
L 145.024345 214.26114 
L 145.788598 213.169402 
L 146.552851 211.248058 
L 147.317103 207.964201 
L 148.081356 203.695187 
L 148.845609 200.612971 
L 149.609861 198.006049 
L 150.374114 194.166241 
L 151.902619 188.451178 
L 153.431125 171.536435 
L 154.195378 165.150198 
L 154.95963 155.7624 
L 155.723883 152.351798 
L 156.488136 150.00989 
L 157.252388 151.671982 
L 158.016641 151.896667 
L 158.780894 153.452178 
L 159.545146 152.553439 
L 160.309399 152.040696 
L 161.073652 148.598408 
L 161.837904 147.207089 
L 164.894915 130.620732 
L 166.423421 116.117031 
L 167.187673 107.305349 
L 167.951926 103.223573 
L 168.716179 98.124953 
L 169.480431 95.800328 
L 170.244684 98.139356 
L 171.008937 100.85862 
L 172.537442 108.85798 
L 173.301695 107.841136 
L 174.065948 108.587205 
L 174.8302 108.01109 
L 175.594453 105.902509 
L 176.358706 103.033455 
L 177.122958 95.336555 
L 177.887211 82.255859 
L 178.651464 71.571802 
L 179.415716 70.517512 
L 180.179969 71.050418 
L 180.944222 72.487826 
L 181.708475 74.924793 
L 182.472727 80.397888 
L 183.23698 88.420292 
L 184.001233 93.524673 
L 184.765485 101.512511 
L 187.058243 119.251098 
L 187.822496 120.967922 
L 188.586749 123.214771 
L 189.351002 125.06122 
L 190.115254 127.725753 
L 190.879507 129.416651 
L 191.64376 127.912991 
L 192.408012 123.039056 
L 193.172265 115.823213 
L 193.936518 110.95792 
L 194.70077 109.40817 
L 195.465023 109.840256 
L 196.229276 112.76116 
L 196.993529 117.652378 
L 198.522034 131.136355 
L 199.286287 133.864261 
L 200.050539 141.716711 
L 201.579045 147.932995 
L 202.343297 148.416931 
L 203.10755 149.096747 
L 203.871803 146.953599 
L 204.636055 144.384125 
L 205.400308 142.485825 
L 206.164561 144.752839 
L 206.928814 147.46058 
L 207.693066 149.430894 
L 210.750077 161.434255 
L 211.51433 165.982685 
L 212.278582 172.245057 
L 214.571341 185.922032 
L 215.335593 187.875063 
L 216.099846 189.46226 
L 216.864099 187.817451 
L 217.628351 183.646377 
L 218.392604 181.218052 
L 219.156857 181.768242 
L 219.921109 184.530714 
L 221.449615 188.551998 
L 223.742373 195.724633 
L 224.506626 197.31183 
L 225.270878 202.249138 
L 226.035131 205.498428 
L 226.799384 210.971522 
L 228.327889 217.945397 
L 229.092142 218.936315 
L 229.856394 221.044897 
L 230.620647 220.304589 
L 231.3849 220.307469 
L 232.149153 221.275343 
L 232.913405 223.954279 
L 233.677658 225.541476 
L 234.441911 228.779244 
L 235.206163 230.550798 
L 235.970416 233.615731 
L 236.734669 235.620612 
L 239.027427 246.128954 
L 239.79168 252.30779 
L 241.320185 258.757399 
L 242.084438 262.222733 
L 242.84869 263.602529 
L 243.612943 263.651498 
L 244.377196 264.423493 
L 245.141448 265.955959 
L 246.669954 271.682545 
L 247.434206 274.629374 
L 249.726965 281.753039 
L 250.491217 284.846777 
L 251.25547 286.966881 
L 252.019723 290.268022 
L 252.783975 295.150598 
L 253.548228 297.489626 
L 254.312481 300.983765 
L 255.840986 305.883625 
L 256.605239 307.156839 
L 257.369492 307.920192 
L 258.133744 309.023453 
L 261.190755 317.322392 
L 263.483513 322.504549 
L 265.776271 328.663221 
L 266.540524 330.019972 
L 267.304777 332.926473 
L 268.833282 336.446537 
L 270.361787 339.390486 
L 271.12604 340.012691 
L 271.890293 340.179764 
L 272.654545 340.649298 
L 273.418798 341.415531 
L 276.475809 345.687425 
L 278.004314 347.093147 
L 278.768567 348.205049 
L 280.297072 349.988126 
L 281.825578 352.387646 
L 282.589831 353.087626 
L 283.354083 354.170722 
L 285.646841 353.770322 
L 286.411094 354.26002 
L 287.939599 354.873583 
L 288.703852 355.441056 
L 289.468105 355.706069 
L 290.232357 355.746397 
L 290.99661 356.541436 
L 291.760863 356.904389 
L 294.817874 359.338476 
L 295.582126 360.219932 
L 296.346379 360.842136 
L 297.110632 361.121552 
L 297.874884 361.778324 
L 299.40339 361.173403 
L 300.167643 361.337596 
L 300.931895 361.982845 
L 301.696148 362.023173 
L 302.460401 362.314111 
L 303.224653 362.775003 
L 303.988906 362.694347 
L 304.753159 363.186925 
L 305.517411 363.51243 
L 306.281664 363.51243 
L 307.045917 364.16056 
L 307.810169 364.595527 
L 309.338675 365.20909 
L 310.102928 365.644057 
L 311.631433 365.517311 
L 312.395686 365.298388 
L 313.159938 365.36176 
L 313.924191 365.782324 
L 320.038213 366.355559 
L 320.802465 366.240336 
L 322.330971 367.20821 
L 323.859476 367.769922 
L 324.623729 367.954279 
L 325.387982 367.790086 
L 326.152234 367.118912 
L 326.916487 366.954719 
L 329.209245 366.995047 
L 329.973498 366.842376 
L 330.73775 366.986405 
L 332.266256 367.015211 
L 333.030508 366.825093 
L 333.794761 367.294627 
L 334.559014 367.453059 
L 337.616025 368.475663 
L 339.14453 367.985965 
L 339.908783 367.841936 
L 340.673035 367.271582 
L 341.437288 367.052659 
L 342.201541 366.995047 
L 342.965794 367.231254 
L 343.730046 367.176523 
L 344.494299 366.914391 
L 345.258552 366.779004 
L 346.022804 366.989286 
L 348.315562 366.825093 
L 349.844068 367.816011 
L 350.60832 367.60861 
L 351.372573 367.827534 
L 352.901079 367.473223 
L 354.429584 366.704109 
L 355.193837 366.882705 
L 356.722342 366.868302 
L 357.486595 366.712751 
L 358.250847 366.986405 
L 361.307858 366.583125 
L 362.072111 366.646497 
L 362.836364 367.124673 
L 363.600616 367.147718 
L 364.364869 367.85922 
L 365.893374 367.620132 
L 366.657627 366.937435 
L 368.186133 366.534155 
L 368.950385 366.513991 
L 370.478891 366.646497 
L 371.243143 366.65802 
L 372.007396 366.482304 
L 372.771649 366.781884 
L 374.300154 366.557199 
L 375.064407 366.519752 
L 376.592912 366.683945 
L 378.121418 367.317672 
L 378.88567 367.340716 
L 379.649923 367.525073 
L 380.414176 367.283105 
L 381.178428 366.600408 
L 381.942681 366.620572 
L 382.706934 366.465021 
L 383.471186 366.591766 
L 384.235439 366.842376 
L 384.999692 366.387245 
L 385.763945 366.562961 
L 386.528197 366.240336 
L 387.29245 366.35844 
L 388.056703 366.263381 
L 388.820955 366.369962 
L 389.585208 366.951838 
L 391.113713 366.767481 
L 391.877966 367.242777 
L 392.642219 367.257179 
L 393.406471 367.067061 
L 394.170724 366.655139 
L 396.463482 366.2605 
L 397.991988 366.404529 
L 398.75624 366.344037 
L 399.520493 366.10783 
L 400.284746 366.372843 
L 403.341757 366.295067 
L 404.870262 367.052659 
L 407.16302 366.776123 
L 407.927273 366.433335 
L 408.691525 366.45926 
L 409.455778 366.283545 
L 410.220031 366.292186 
L 410.984284 366.090546 
L 411.748536 366.06174 
L 412.512789 366.171202 
L 414.041294 366.064621 
L 414.805547 365.900428 
L 416.334052 366.11071 
L 417.098305 366.450618 
L 417.862558 366.194247 
L 418.62681 366.816451 
L 419.391063 366.997928 
L 420.155316 366.796287 
L 420.919569 366.364201 
L 422.448074 365.949398 
L 423.212327 365.857219 
L 423.976579 366.162561 
L 425.505085 365.65846 
L 427.03359 365.592206 
L 427.797843 365.592206 
L 428.562096 365.831294 
L 429.326348 365.638296 
L 430.090601 365.963801 
L 431.619106 366.297948 
L 432.383359 366.732915 
L 433.147612 366.528394 
L 434.676117 366.586005 
L 435.44037 366.332515 
L 436.204622 365.894667 
L 436.968875 366.038696 
L 437.733128 365.75928 
L 438.497381 365.618132 
L 440.025886 365.595087 
L 440.790139 365.396327 
L 443.847149 365.379044 
L 444.611402 365.534595 
L 445.375655 366.151038 
L 446.90416 366.35844 
L 447.668413 366.816451 
L 448.432666 366.562961 
L 449.196918 365.949398 
L 449.961171 365.514431 
L 450.725424 365.30991 
L 452.253929 365.307029 
L 454.546687 365.217732 
L 455.31094 364.981524 
L 456.839445 365.425133 
L 458.367951 365.747758 
L 459.132203 365.986845 
L 459.896456 366.079024 
L 460.660709 365.888906 
L 461.424961 365.880264 
L 462.953467 365.281104 
L 464.481972 365.044897 
L 465.246225 365.188926 
L 466.010478 365.090986 
L 466.77473 365.165881 
L 468.303236 364.641616 
L 469.831741 365.016091 
L 472.124499 364.874943 
L 472.888752 365.324313 
L 474.417257 365.831294 
L 475.18151 365.721832 
L 475.945763 365.831294 
L 476.710015 365.024733 
L 477.474268 364.995927 
L 479.002773 364.632975 
L 479.767026 364.66178 
L 480.531279 364.465901 
L 482.059784 364.719392 
L 482.824037 364.373723 
L 483.58829 364.653139 
L 485.116795 364.667542 
L 485.881048 364.526393 
L 486.6453 364.699228 
L 487.409553 365.197568 
L 488.938059 365.678624 
L 489.702311 365.229254 
L 490.466564 364.592647 
L 491.995069 364.393887 
L 494.287827 364.612811 
L 495.816333 364.307469 
L 498.109091 364.414051 
L 498.109091 364.414051 
" clip-path="url(#p87ee93d8a0)" style="fill: none; stroke: #008000; stroke-width: 1.5; stroke-linecap: square"/>
   </g>
   <g id="line2d_40">
    <path d="M 92.290909 339.499948 
L 93.055162 340.680984 
L 93.819414 340.05878 
L 94.583667 339.240696 
L 96.876425 338.226733 
L 98.404931 336.665461 
L 99.169183 336.224733 
L 99.933436 335.164681 
L 101.461941 333.606289 
L 102.226194 332.842937 
L 104.518952 329.103949 
L 107.575963 323.904509 
L 108.340216 322.855979 
L 109.104468 321.072903 
L 112.161479 315.153319 
L 112.925732 312.86038 
L 113.689985 311.290466 
L 115.982743 305.465941 
L 116.746995 306.399248 
L 117.511248 304.377083 
L 118.275501 302.913751 
L 119.039753 298.647618 
L 119.804006 295.31191 
L 122.096764 288.487826 
L 122.861017 286.445497 
L 124.389522 281.871142 
L 126.68228 274.347077 
L 127.446533 271.728634 
L 128.210786 269.804409 
L 128.975039 268.320912 
L 129.739291 265.889706 
L 130.503544 265.336635 
L 131.267797 263.504589 
L 132.032049 262.263061 
L 132.796302 258.682505 
L 133.560555 256.519192 
L 135.08906 243.90803 
L 138.146071 232.472142 
L 138.910324 228.540156 
L 139.674576 226.734035 
L 140.438829 221.845697 
L 142.731587 213.901068 
L 143.49584 214.096947 
L 144.260092 216.179604 
L 145.024345 216.675063 
L 145.788598 216.398528 
L 146.552851 215.753279 
L 147.317103 212.192887 
L 148.081356 207.944037 
L 148.845609 205.279504 
L 149.609861 203.150758 
L 150.374114 200.01093 
L 151.902619 195.10819 
L 152.666872 187.926913 
L 154.195378 168.799888 
L 154.95963 156.880064 
L 155.723883 153.486745 
L 156.488136 150.833735 
L 157.252388 152.999928 
L 158.780894 156.851258 
L 159.545146 156.741796 
L 160.309399 156.920392 
L 161.073652 152.61105 
L 161.837904 149.744877 
L 162.602157 146.164321 
L 163.36641 144.242977 
L 164.894915 134.469182 
L 166.423421 119.628454 
L 167.187673 106.795487 
L 168.716179 98.070222 
L 169.480431 97.85994 
L 170.244684 99.141796 
L 171.008937 100.812531 
L 171.77319 106.541996 
L 172.537442 110.015971 
L 173.301695 110.969442 
L 174.8302 109.776883 
L 175.594453 108.71107 
L 176.358706 105.4589 
L 177.122958 95.837776 
L 177.887211 79.922593 
L 178.651464 71.136835 
L 179.415716 66.96 
L 180.179969 69.172282 
L 180.944222 72.286185 
L 181.708475 72.692346 
L 183.23698 93.490106 
L 184.001233 96.693307 
L 184.765485 108.255939 
L 186.293991 120.653939 
L 188.586749 130.589046 
L 189.351002 131.784485 
L 190.115254 134.221452 
L 190.879507 134.973283 
L 191.64376 135.189326 
L 192.408012 131.994767 
L 193.172265 123.877303 
L 193.936518 113.26238 
L 194.70077 106.576563 
L 196.229276 111.052979 
L 196.993529 115.598528 
L 197.757781 125.568202 
L 198.522034 131.156519 
L 199.286287 139.178924 
L 200.050539 145.069702 
L 200.814792 149.981084 
L 201.579045 153.00857 
L 202.343297 154.218412 
L 203.10755 156.15992 
L 203.871803 155.595327 
L 205.400308 143.937636 
L 206.164561 143.46234 
L 207.693066 149.327193 
L 209.221572 154.250098 
L 209.985824 158.147518 
L 210.750077 163.845297 
L 211.51433 168.583845 
L 213.807088 185.867301 
L 214.571341 190.490626 
L 215.335593 193.086025 
L 216.099846 195.004489 
L 216.864099 195.577724 
L 217.628351 193.379844 
L 219.156857 182.606489 
L 219.921109 184.689146 
L 220.685362 186.181284 
L 221.449615 188.569282 
L 222.213867 191.933795 
L 223.742373 195.070742 
L 225.270878 203.865141 
L 226.035131 206.889746 
L 226.799384 213.103149 
L 227.563636 217.078344 
L 228.327889 220.192246 
L 229.092142 222.349798 
L 229.856394 224.16168 
L 230.620647 221.756399 
L 231.3849 221.514431 
L 232.149153 221.502909 
L 233.677658 226.146397 
L 235.206163 231.086585 
L 237.498921 239.204049 
L 238.263174 243.421212 
L 239.027427 245.702629 
L 239.79168 251.875703 
L 241.320185 257.927794 
L 242.084438 262.185285 
L 242.84869 263.006249 
L 243.612943 261.822332 
L 244.377196 262.853579 
L 245.905701 268.76164 
L 246.669954 271.763201 
L 247.434206 273.822813 
L 248.198459 276.896387 
L 249.726965 281.830814 
L 252.019723 290.164321 
L 252.783975 294.632094 
L 253.548228 298.01101 
L 254.312481 300.842617 
L 255.076733 304.538396 
L 256.605239 309.25966 
L 257.369492 309.328794 
L 258.133744 308.931274 
L 258.897997 310.71147 
L 260.426502 315.081304 
L 261.955008 318.624413 
L 265.012018 326.554639 
L 265.776271 329.152919 
L 266.540524 330.374283 
L 267.304777 333.25774 
L 268.069029 335.464261 
L 269.597535 338.704909 
L 270.361787 339.580604 
L 271.12604 340.076063 
L 271.890293 340.078944 
L 272.654545 340.237375 
L 273.418798 341.435695 
L 274.183051 342.345957 
L 277.240062 346.61209 
L 278.004314 347.450338 
L 278.768567 348.568002 
L 279.53282 349.273743 
L 280.297072 350.178244 
L 281.061325 351.75968 
L 281.825578 352.981044 
L 282.589831 353.804889 
L 283.354083 354.1592 
L 284.118336 354.332034 
L 284.882589 353.741516 
L 285.646841 353.787606 
L 286.411094 354.525033 
L 287.939599 354.90815 
L 288.703852 355.400728 
L 289.468105 356.120872 
L 290.232357 356.06038 
L 290.99661 356.702749 
L 291.760863 357.178044 
L 292.525116 357.371042 
L 294.053621 359.266461 
L 294.817874 359.332715 
L 297.110632 361.735115 
L 297.874884 362.003009 
L 298.639137 361.913711 
L 299.40339 361.153239 
L 300.167643 361.467221 
L 300.931895 361.547878 
L 301.696148 362.072142 
L 304.753159 363.149478 
L 305.517411 363.233015 
L 307.045917 363.935875 
L 307.810169 364.523513 
L 308.574422 364.918152 
L 310.102928 366.116471 
L 310.86718 366.007009 
L 311.631433 365.551878 
L 313.159938 365.20909 
L 313.924191 365.462581 
L 314.688444 365.353119 
L 315.452696 365.60949 
L 316.216949 365.721832 
L 316.981202 365.981084 
L 318.509707 365.995487 
L 319.27396 366.286425 
L 320.802465 366.349798 
L 321.566718 366.90863 
L 322.330971 367.147718 
L 323.095223 367.893787 
L 324.623729 367.991726 
L 325.387982 368.155919 
L 326.152234 367.262941 
L 326.916487 366.804929 
L 327.68074 367.015211 
L 328.444992 366.787646 
L 329.973498 367.038256 
L 331.502003 367.015211 
L 333.794761 367.228374 
L 334.559014 367.778564 
L 335.323267 368.138636 
L 336.087519 368.371962 
L 336.851772 368.395007 
L 337.616025 368.827093 
L 339.14453 368.752198 
L 339.908783 368.288426 
L 340.673035 367.340716 
L 341.437288 367.018092 
L 342.201541 367.213971 
L 343.730046 366.989286 
L 344.494299 367.049778 
L 345.258552 366.940316 
L 346.022804 367.136195 
L 346.787057 366.804929 
L 348.315562 367.113151 
L 349.844068 368.06086 
L 351.372573 368.101188 
L 352.901079 368.245217 
L 354.429584 366.637856 
L 356.722342 366.940316 
L 357.486595 366.755959 
L 361.307858 366.6609 
L 362.072111 366.885585 
L 362.836364 367.519312 
L 363.600616 367.481864 
L 364.364869 367.873623 
L 365.129122 368.020532 
L 365.893374 367.977323 
L 366.657627 366.874063 
L 367.42188 366.773243 
L 368.186133 366.346917 
L 372.007396 366.732915 
L 373.535901 366.398768 
L 374.300154 366.738676 
L 375.064407 366.467902 
L 375.828659 366.614811 
L 376.592912 366.902869 
L 377.357165 366.879824 
L 378.121418 367.450178 
L 378.88567 367.45882 
L 379.649923 367.326313 
L 380.414176 367.579804 
L 381.178428 366.418932 
L 381.942681 366.266261 
L 383.471186 366.485185 
L 384.235439 366.387245 
L 384.999692 366.551438 
L 386.528197 366.349798 
L 387.29245 366.565841 
L 388.056703 366.413171 
L 388.820955 366.404529 
L 389.585208 366.591766 
L 390.349461 366.969122 
L 391.113713 367.173643 
L 391.877966 367.231254 
L 392.642219 367.104509 
L 393.406471 367.536595 
L 394.934977 366.217291 
L 397.227735 366.344037 
L 399.520493 366.047337 
L 401.048998 366.283545 
L 401.813251 366.06174 
L 402.577504 366.119352 
L 403.341757 366.289306 
L 404.106009 366.295067 
L 404.870262 366.813571 
L 405.634515 367.015211 
L 406.398767 367.078584 
L 407.16302 366.923033 
L 407.927273 366.606169 
L 408.691525 366.116471 
L 409.455778 366.021412 
L 413.277042 366.142396 
L 415.5698 365.770802 
L 417.098305 366.225933 
L 417.862558 366.05886 
L 418.62681 366.787646 
L 420.155316 367.095867 
L 421.683821 366.272022 
L 422.448074 365.969562 
L 423.212327 365.837055 
L 423.976579 366.024293 
L 425.505085 365.583565 
L 426.269337 365.747758 
L 427.03359 365.750638 
L 427.797843 365.894667 
L 428.562096 365.753519 
L 430.090601 365.883145 
L 430.854854 366.753079 
L 431.619106 366.698348 
L 432.383359 367.199568 
L 433.147612 367.386805 
L 435.44037 366.894227 
L 436.204622 365.91195 
L 436.968875 365.626773 
L 437.733128 365.520192 
L 442.318644 365.66134 
L 443.082897 365.436655 
L 444.611402 365.756399 
L 445.375655 366.384365 
L 446.139908 366.827974 
L 448.432666 366.931674 
L 449.196918 366.153919 
L 449.961171 365.194687 
L 451.489676 365.116911 
L 452.253929 365.304149 
L 453.018182 365.177403 
L 453.782435 365.482745 
L 455.31094 365.16012 
L 456.075193 365.301268 
L 457.603698 365.165881 
L 460.660709 366.240336 
L 461.424961 366.381484 
L 462.189214 366.06174 
L 462.953467 365.618132 
L 463.71772 364.946957 
L 465.246225 365.042016 
L 466.77473 364.941196 
L 467.538983 365.165881 
L 468.303236 365.194687 
L 469.831741 365.036255 
L 470.595994 364.990166 
L 472.124499 365.188926 
L 472.888752 365.649818 
L 474.417257 366.156799 
L 475.18151 366.225933 
L 475.945763 366.179844 
L 476.710015 365.350238 
L 477.474268 364.941196 
L 478.238521 364.699228 
L 479.002773 364.949838 
L 479.767026 364.543677 
L 480.531279 364.618572 
L 481.295532 364.805809 
L 482.059784 364.80869 
L 482.824037 365.018972 
L 483.58829 364.946957 
L 484.352542 364.684825 
L 485.116795 364.85766 
L 485.881048 365.154359 
L 486.6453 364.995927 
L 487.409553 364.975763 
L 488.173806 365.655579 
L 488.938059 366.079024 
L 489.702311 365.690146 
L 490.466564 364.650258 
L 491.230817 364.40829 
L 491.995069 364.483185 
L 492.759322 364.753959 
L 493.523575 364.612811 
L 494.287827 364.653139 
L 495.05208 364.483185 
L 495.816333 364.632975 
L 497.344838 364.324753 
L 498.109091 364.402529 
L 498.109091 364.402529 
" clip-path="url(#p87ee93d8a0)" style="fill: none; stroke: #008000; stroke-width: 1.5; stroke-linecap: square"/>
   </g>
   <g id="line2d_41">
    <path d="M 92.290909 339.482665 
L 93.055162 340.871102 
L 93.819414 339.56044 
L 94.583667 339.272382 
L 95.34792 338.370762 
L 96.112173 338.154719 
L 96.876425 337.489306 
L 97.640678 337.400008 
L 98.404931 336.36012 
L 99.169183 336.017331 
L 99.933436 335.268382 
L 100.697689 334.041256 
L 101.461941 333.439216 
L 102.226194 331.702228 
L 102.990447 331.31047 
L 103.7547 329.936435 
L 104.518952 328.95992 
L 106.047458 326.352999 
L 106.81171 325.148918 
L 109.104468 320.50831 
L 109.868721 318.572563 
L 112.161479 313.854179 
L 112.925732 312.756679 
L 113.689985 310.40901 
L 115.21849 306.975363 
L 115.982743 304.878304 
L 116.746995 304.299308 
L 117.511248 303.173003 
L 118.275501 301.2603 
L 119.039753 297.61061 
L 119.804006 295.21109 
L 120.568259 292.402529 
L 121.332512 290.256499 
L 122.096764 287.583325 
L 122.861017 285.967321 
L 125.153775 278.276183 
L 125.918028 276.80997 
L 126.68228 273.603889 
L 127.446533 271.550038 
L 128.210786 268.781804 
L 128.975039 267.26086 
L 129.739291 264.146957 
L 130.503544 264.815251 
L 131.267797 263.395127 
L 132.032049 262.853579 
L 133.560555 257.469782 
L 134.324807 252.238656 
L 135.08906 243.334795 
L 135.853313 240.169042 
L 136.617565 237.530434 
L 137.381818 234.214891 
L 138.146071 232.296427 
L 138.910324 227.877624 
L 139.674576 225.763281 
L 140.438829 221.387686 
L 141.203082 219.192687 
L 141.967334 215.566041 
L 142.731587 212.803569 
L 143.49584 214.468542 
L 144.260092 217.098508 
L 145.024345 217.801368 
L 145.788598 216.003889 
L 146.552851 214.580884 
L 147.317103 211.976843 
L 148.081356 207.70783 
L 149.609861 203.297668 
L 150.374114 200.117512 
L 151.138367 198.031974 
L 151.902619 195.606529 
L 152.666872 187.16068 
L 154.195378 166.423413 
L 154.95963 155.186285 
L 155.723883 153.982204 
L 157.252388 152.46126 
L 158.016641 154.555439 
L 158.780894 156.21177 
L 159.545146 156.871422 
L 160.309399 156.698588 
L 161.073652 153.748878 
L 161.837904 152.893347 
L 164.130663 141.817532 
L 164.894915 137.398728 
L 165.659168 131.412891 
L 166.423421 123.499948 
L 167.187673 111.240216 
L 168.716179 102.206729 
L 169.480431 100.714591 
L 170.244684 101.990686 
L 171.008937 103.739196 
L 171.77319 109.46002 
L 172.537442 112.222492 
L 173.301695 114.117912 
L 174.065948 115.543797 
L 174.8302 114.719952 
L 175.594453 116.246657 
L 176.358706 114.518312 
L 177.122958 106.383565 
L 177.887211 90.036295 
L 178.651464 76.653139 
L 179.415716 75.731354 
L 180.179969 73.118672 
L 180.944222 81.907309 
L 181.708475 78.416051 
L 182.472727 88.944557 
L 183.23698 102.650338 
L 184.001233 105.323513 
L 184.765485 115.244217 
L 185.529738 123.476903 
L 186.293991 130.001408 
L 187.058243 132.455659 
L 187.822496 132.170482 
L 188.586749 133.921872 
L 189.351002 139.622533 
L 190.115254 142.80845 
L 190.879507 143.188686 
L 191.64376 150.963361 
L 193.172265 132.023573 
L 193.936518 129.963961 
L 194.70077 115.765601 
L 195.465023 115.414171 
L 196.229276 117.900108 
L 196.993529 122.667461 
L 197.757781 133.063461 
L 198.522034 136.056379 
L 199.286287 143.903069 
L 200.814792 152.850138 
L 201.579045 155.353359 
L 202.343297 158.576723 
L 203.10755 159.824013 
L 203.871803 159.835535 
L 205.400308 149.396327 
L 206.164561 151.133315 
L 206.928814 155.289986 
L 207.693066 157.885385 
L 208.457319 160.06022 
L 209.221572 159.446657 
L 209.985824 167.094587 
L 211.51433 178.622653 
L 213.042835 189.738796 
L 213.807088 193.624693 
L 215.335593 204.170482 
L 216.099846 204.30875 
L 216.864099 207.267101 
L 217.628351 205.60789 
L 218.392604 202.174243 
L 219.156857 194.327554 
L 219.921109 196.50815 
L 220.685362 198.239376 
L 221.449615 199.066101 
L 222.213867 200.529434 
L 222.97812 201.2611 
L 223.742373 203.893947 
L 225.270878 212.022933 
L 226.035131 214.866061 
L 226.799384 221.739116 
L 228.327889 226.301948 
L 229.092142 227.632775 
L 229.856394 230.087025 
L 230.620647 228.197367 
L 232.149153 226.339396 
L 233.677658 231.743357 
L 235.206163 236.703709 
L 235.970416 240.06246 
L 236.734669 241.839776 
L 237.498921 245.218692 
L 238.263174 250.850218 
L 239.027427 255.00977 
L 239.79168 260.013331 
L 240.555932 262.542476 
L 242.084438 269.035295 
L 242.84869 269.925393 
L 243.612943 269.847618 
L 244.377196 268.067421 
L 245.141448 268.467822 
L 246.669954 274.45942 
L 247.434206 277.106669 
L 248.962712 281.490906 
L 250.491217 287.205969 
L 252.019723 292.46014 
L 252.783975 297.676863 
L 254.312481 305.071302 
L 256.605239 313.286705 
L 257.369492 314.214251 
L 258.133744 313.638136 
L 258.897997 312.805649 
L 259.66225 314.770202 
L 260.426502 317.215811 
L 261.190755 318.523593 
L 261.955008 320.073343 
L 263.483513 324.500788 
L 264.247766 325.745197 
L 265.012018 327.715511 
L 265.776271 330.034375 
L 266.540524 331.50923 
L 268.069029 337.253099 
L 268.833282 338.964161 
L 270.361787 340.977684 
L 271.12604 341.098668 
L 271.890293 340.246017 
L 272.654545 341.524993 
L 276.475809 346.50839 
L 277.240062 347.490666 
L 278.004314 348.219452 
L 278.768567 349.426413 
L 279.53282 349.80953 
L 280.297072 350.754359 
L 281.061325 352.113991 
L 281.825578 353.205729 
L 283.354083 354.755479 
L 284.118336 354.222573 
L 284.882589 354.242737 
L 285.646841 354.51063 
L 286.411094 355.075223 
L 287.175347 355.328714 
L 287.939599 355.775203 
L 288.703852 356.092066 
L 290.232357 357.106029 
L 290.99661 357.339356 
L 291.760863 357.889546 
L 292.525116 358.096947 
L 294.053621 359.738876 
L 294.817874 359.813771 
L 295.582126 361.075463 
L 297.110632 362.247858 
L 298.639137 362.815331 
L 299.40339 361.640056 
L 300.167643 361.804249 
L 300.931895 362.380364 
L 302.460401 362.901748 
L 306.281664 364.272903 
L 308.574422 365.332955 
L 309.338675 366.145277 
L 310.102928 366.557199 
L 310.86718 366.830854 
L 311.631433 367.225493 
L 312.395686 366.456379 
L 313.159938 366.171202 
L 313.924191 365.721832 
L 314.688444 365.995487 
L 316.216949 366.283545 
L 317.745455 366.424693 
L 318.509707 366.490946 
L 319.27396 366.76172 
L 320.802465 367.092987 
L 322.330971 368.089666 
L 323.095223 368.279784 
L 323.859476 368.737796 
L 324.623729 368.501588 
L 325.387982 368.556319 
L 326.916487 367.490506 
L 329.209245 367.323433 
L 330.73775 367.383925 
L 331.502003 367.599968 
L 333.030508 367.490506 
L 333.794761 367.839056 
L 334.559014 367.968682 
L 336.087519 368.677303 
L 339.14453 369.190046 
L 339.908783 368.348918 
L 340.673035 367.801608 
L 341.437288 367.536595 
L 342.965794 367.542356 
L 343.730046 367.271582 
L 346.787057 367.401208 
L 348.315562 367.637415 
L 349.844068 368.452619 
L 350.60832 368.245217 
L 352.136826 368.590886 
L 352.901079 368.322993 
L 353.665331 367.464581 
L 355.193837 367.081464 
L 355.958089 367.265821 
L 356.722342 367.0613 
L 359.0151 367.104509 
L 359.779353 366.995047 
L 360.543606 367.153479 
L 361.307858 367.05842 
L 362.072111 367.124673 
L 362.836364 367.502028 
L 363.600616 368.052218 
L 364.364869 368.337395 
L 365.893374 368.351798 
L 366.657627 368.101188 
L 368.186133 366.989286 
L 369.714638 366.76172 
L 370.478891 367.052659 
L 371.243143 366.732915 
L 372.007396 366.9576 
L 372.771649 366.842376 
L 375.064407 366.96048 
L 375.828659 366.992166 
L 376.592912 367.525073 
L 377.357165 367.294627 
L 378.88567 368.346037 
L 379.649923 368.115591 
L 380.414176 368.262501 
L 381.178428 367.107389 
L 382.706934 366.634975 
L 383.471186 366.652258 
L 384.235439 366.966241 
L 385.763945 366.6609 
L 388.820955 366.591766 
L 389.585208 366.966241 
L 391.113713 367.334955 
L 391.877966 367.484745 
L 392.642219 367.441536 
L 393.406471 367.280224 
L 394.170724 366.632094 
L 394.934977 366.646497 
L 395.69923 366.335395 
L 396.463482 366.465021 
L 397.227735 366.395887 
L 397.991988 366.683945 
L 399.520493 366.25762 
L 400.284746 366.381484 
L 401.048998 366.735795 
L 401.813251 366.436215 
L 402.577504 366.784765 
L 403.341757 366.937435 
L 404.106009 366.675303 
L 406.398767 368.037816 
L 407.927273 367.490506 
L 408.691525 366.753079 
L 409.455778 366.323873 
L 411.748536 366.214411 
L 413.277042 366.00989 
L 414.041294 366.153919 
L 415.5698 366.15968 
L 416.334052 366.084785 
L 417.098305 366.499588 
L 417.862558 366.531274 
L 418.62681 367.424253 
L 420.155316 367.193807 
L 420.919569 367.306149 
L 422.448074 366.087666 
L 423.212327 365.906189 
L 423.976579 366.197127 
L 424.740832 365.952278 
L 426.269337 365.825533 
L 427.03359 365.747758 
L 428.562096 366.032935 
L 429.326348 365.837055 
L 433.911864 367.499148 
L 435.44037 366.96048 
L 436.204622 366.012771 
L 437.733128 365.80825 
L 438.497381 366.024293 
L 439.261633 365.644057 
L 440.025886 365.655579 
L 440.790139 365.90907 
L 443.847149 365.782324 
L 444.611402 366.087666 
L 445.375655 366.698348 
L 446.139908 367.052659 
L 446.90416 367.165001 
L 447.668413 367.046897 
L 448.432666 367.300388 
L 449.961171 365.848578 
L 451.489676 365.597968 
L 452.253929 365.681504 
L 453.018182 365.574923 
L 453.782435 365.684385 
L 454.546687 365.445297 
L 455.31094 365.546117 
L 456.839445 365.485625 
L 458.367951 365.669982 
L 459.132203 366.303709 
L 459.896456 366.407409 
L 460.660709 366.825093 
L 462.189214 366.652258 
L 462.953467 365.865861 
L 463.71772 365.554759 
L 466.010478 365.06218 
L 466.77473 365.597968 
L 467.538983 365.505789 
L 469.067488 365.056419 
L 469.831741 365.344477 
L 471.360247 364.932555 
L 473.653005 366.516871 
L 475.18151 366.597528 
L 476.710015 366.269142 
L 477.474268 365.355999 
L 479.002773 365.171642 
L 479.767026 365.171642 
L 480.531279 365.292627 
L 481.295532 365.134195 
L 482.059784 365.11115 
L 482.824037 364.897988 
L 483.58829 365.056419 
L 485.881048 364.993047 
L 486.6453 365.606609 
L 487.409553 365.790966 
L 488.173806 366.329634 
L 488.938059 366.545677 
L 489.702311 366.390126 
L 490.466564 365.854339 
L 491.230817 365.664221 
L 492.759322 364.877824 
L 493.523575 364.837495 
L 494.287827 365.065061 
L 495.05208 364.817331 
L 495.816333 364.814451 
L 496.580586 364.975763 
L 497.344838 364.592647 
L 498.109091 364.791406 
L 498.109091 364.791406 
" clip-path="url(#p87ee93d8a0)" style="fill: none; stroke: #008000; stroke-width: 1.5; stroke-linecap: square"/>
   </g>
   <g id="line2d_42">
    <path d="M 92.290909 340.626253 
L 93.055162 342.426613 
L 94.583667 340.534075 
L 95.34792 340.237375 
L 96.112173 339.782244 
L 96.876425 339.687185 
L 97.640678 338.667461 
L 98.404931 338.151838 
L 99.169183 337.786005 
L 100.697689 335.677423 
L 101.461941 334.677864 
L 102.990447 332.975443 
L 104.518952 330.270582 
L 107.575963 325.252619 
L 108.340216 323.815211 
L 109.104468 322.095507 
L 112.161479 316.26234 
L 113.689985 312.612651 
L 114.454237 310.385965 
L 115.982743 307.073303 
L 116.746995 306.805409 
L 118.275501 302.415411 
L 119.039753 298.837736 
L 119.804006 297.040256 
L 122.861017 288.032695 
L 123.62527 286.336035 
L 124.389522 283.449698 
L 125.153775 281.156759 
L 125.918028 279.336235 
L 126.68228 276.133035 
L 128.210786 271.293667 
L 128.975039 269.271502 
L 129.739291 265.771602 
L 130.503544 267.589246 
L 131.267797 265.696707 
L 132.032049 265.255979 
L 133.560555 258.129434 
L 134.324807 249.11035 
L 135.08906 245.483705 
L 135.853313 243.038096 
L 136.617565 239.615971 
L 138.910324 230.933915 
L 142.731587 215.205969 
L 143.49584 217.167642 
L 144.260092 219.889786 
L 145.024345 219.598848 
L 145.788598 217.965561 
L 146.552851 217.40961 
L 147.317103 213.687906 
L 148.081356 207.854739 
L 148.845609 206.166721 
L 150.374114 201.431054 
L 151.138367 198.389166 
L 151.902619 191.648618 
L 153.431125 164.078624 
L 154.195378 161.817371 
L 154.95963 156.95784 
L 155.723883 158.032294 
L 156.488136 153.478104 
L 157.252388 154.682184 
L 158.016641 157.375523 
L 158.780894 160.884065 
L 160.309399 161.131794 
L 161.073652 158.182084 
L 161.837904 157.81049 
L 164.894915 142.871822 
L 166.423421 123.782244 
L 167.187673 108.048538 
L 168.716179 95.572763 
L 169.480431 96.05958 
L 170.244684 102.218252 
L 171.008937 104.125193 
L 171.77319 109.339036 
L 172.537442 113.665661 
L 173.301695 114.85822 
L 174.065948 116.828534 
L 174.8302 114.26194 
L 175.594453 112.118792 
L 176.358706 103.615331 
L 177.122958 90.638336 
L 177.887211 73.014971 
L 179.415716 71.272222 
L 180.179969 71.11091 
L 180.944222 76.120232 
L 181.708475 73.147477 
L 182.472727 86.138876 
L 183.23698 96.056699 
L 184.001233 102.944157 
L 184.765485 113.648378 
L 185.529738 121.382725 
L 186.293991 126.466941 
L 187.822496 133.518592 
L 188.586749 137.597487 
L 189.351002 137.951798 
L 190.115254 139.90771 
L 190.879507 139.521712 
L 191.64376 140.020052 
L 192.408012 132.686105 
L 193.936518 109.984285 
L 194.70077 109.097067 
L 195.465023 111.31223 
L 196.229276 115.16068 
L 196.993529 121.685185 
L 197.757781 129.206369 
L 198.522034 132.41245 
L 199.286287 142.667301 
L 200.050539 149.534595 
L 201.579045 159.325673 
L 202.343297 161.667582 
L 203.10755 161.739596 
L 203.871803 160.224413 
L 204.636055 151.343597 
L 205.400308 145.277103 
L 206.164561 148.123113 
L 206.928814 151.888026 
L 207.693066 152.749318 
L 208.457319 155.940996 
L 209.221572 158.035175 
L 209.985824 163.473703 
L 210.750077 171.01217 
L 212.278582 181.41105 
L 213.042835 186.887025 
L 213.807088 191.484425 
L 214.571341 196.865341 
L 215.335593 199.521232 
L 216.099846 201.580844 
L 216.864099 202.799328 
L 217.628351 199.777604 
L 218.392604 193.117712 
L 219.156857 187.984525 
L 219.921109 190.435895 
L 221.449615 194.434135 
L 222.213867 197.614291 
L 222.97812 199.391606 
L 223.742373 200.650418 
L 225.270878 207.644457 
L 226.035131 212.71139 
L 226.799384 220.820212 
L 227.563636 224.994167 
L 228.327889 227.868982 
L 229.092142 229.773043 
L 229.856394 232.051578 
L 230.620647 227.598208 
L 231.3849 225.855459 
L 232.149153 227.56076 
L 234.441911 234.652739 
L 235.970416 240.223773 
L 236.734669 242.456219 
L 237.498921 247.327273 
L 238.263174 251.167081 
L 240.555932 265.728394 
L 241.320185 267.595007 
L 242.084438 272.016691 
L 242.84869 273.819932 
L 243.612943 273.203489 
L 244.377196 269.234055 
L 245.141448 270.651298 
L 245.905701 273.943797 
L 248.198459 281.770322 
L 248.962712 284.06038 
L 250.491217 289.31167 
L 251.25547 291.446177 
L 252.019723 294.315231 
L 252.783975 300.456619 
L 253.548228 303.233495 
L 254.312481 307.666701 
L 255.840986 313.888746 
L 256.605239 315.386645 
L 257.369492 315.931074 
L 258.133744 314.202729 
L 258.897997 313.828254 
L 260.426502 318.149118 
L 261.190755 319.436735 
L 261.955008 321.623093 
L 265.012018 328.853339 
L 265.776271 330.990726 
L 266.540524 332.788206 
L 267.304777 334.914071 
L 268.833282 340.084705 
L 270.361787 342.481344 
L 271.12604 342.101108 
L 271.890293 341.182204 
L 272.654545 341.983005 
L 273.418798 343.35992 
L 274.183051 343.996527 
L 276.475809 347.147878 
L 277.240062 347.744157 
L 278.768567 349.423533 
L 279.53282 350.593047 
L 280.297072 351.267101 
L 281.825578 354.648898 
L 283.354083 356.045977 
L 284.118336 355.763681 
L 284.882589 354.919672 
L 285.646841 354.75836 
L 286.411094 355.086745 
L 287.175347 355.720472 
L 287.939599 355.942276 
L 288.703852 356.656659 
L 290.232357 357.437295 
L 290.99661 357.852098 
L 291.760863 358.624093 
L 292.525116 359.162761 
L 293.289368 359.50843 
L 294.053621 360.314991 
L 294.817874 360.554079 
L 296.346379 362.950718 
L 297.110632 363.405849 
L 297.874884 363.682384 
L 298.639137 363.673743 
L 299.40339 362.30835 
L 300.931895 362.90751 
L 302.460401 363.371282 
L 303.224653 363.731354 
L 305.517411 364.480304 
L 306.281664 364.2585 
L 308.574422 366.064621 
L 309.338675 366.372843 
L 310.102928 366.917271 
L 310.86718 367.188046 
L 311.631433 367.242777 
L 312.395686 365.937876 
L 313.924191 366.153919 
L 314.688444 366.055979 
L 315.452696 366.441976 
L 316.216949 366.586005 
L 317.745455 366.571602 
L 318.509707 366.796287 
L 319.27396 366.75884 
L 320.038213 367.098748 
L 322.330971 368.481424 
L 323.095223 368.662901 
L 324.623729 369.239016 
L 325.387982 369.152599 
L 326.152234 368.683065 
L 326.916487 367.415611 
L 327.68074 367.60861 
L 328.444992 367.502028 
L 329.209245 367.536595 
L 329.973498 367.375283 
L 330.73775 367.683505 
L 331.502003 367.605729 
L 332.266256 367.651818 
L 333.030508 367.525073 
L 333.794761 368.16168 
L 334.559014 368.567842 
L 335.323267 368.397888 
L 336.087519 368.665781 
L 337.616025 368.625453 
L 338.380277 368.403649 
L 339.14453 367.919712 
L 340.673035 367.332074 
L 342.201541 367.280224 
L 342.965794 367.631654 
L 343.730046 367.427133 
L 344.494299 367.346477 
L 345.258552 367.121792 
L 346.022804 367.527954 
L 346.787057 367.242777 
L 347.55131 367.435775 
L 348.315562 367.746877 
L 349.079815 368.219292 
L 349.844068 368.91063 
L 350.60832 368.994167 
L 351.372573 369.36 
L 352.136826 369.10939 
L 352.901079 369.00857 
L 353.665331 368.265381 
L 354.429584 367.199568 
L 356.722342 367.121792 
L 357.486595 366.891346 
L 359.0151 367.245657 
L 359.779353 367.334955 
L 360.543606 367.104509 
L 361.307858 367.317672 
L 362.836364 367.536595 
L 363.600616 368.423813 
L 364.364869 368.363321 
L 365.893374 367.954279 
L 366.657627 367.188046 
L 368.186133 366.951838 
L 369.714638 366.96048 
L 370.478891 366.876943 
L 371.243143 367.029614 
L 372.007396 366.891346 
L 373.535901 366.868302 
L 374.300154 367.090106 
L 375.064407 367.026733 
L 375.828659 367.634535 
L 377.357165 367.432895 
L 378.121418 368.066621 
L 378.88567 368.363321 
L 380.414176 368.688826 
L 381.942681 366.972002 
L 382.706934 366.70987 
L 384.999692 366.876943 
L 385.763945 366.96048 
L 386.528197 366.882705 
L 389.585208 367.107389 
L 391.113713 367.398328 
L 391.877966 367.856339 
L 392.642219 367.795847 
L 394.170724 366.61193 
L 394.934977 366.802048 
L 397.227735 366.672422 
L 398.75624 366.70987 
L 399.520493 366.681064 
L 400.284746 366.485185 
L 401.048998 366.701228 
L 401.813251 366.395887 
L 402.577504 366.773243 
L 403.341757 366.76172 
L 404.106009 367.285985 
L 404.870262 367.496267 
L 405.634515 368.274023 
L 406.398767 368.147277 
L 407.16302 368.30859 
L 407.927273 368.196247 
L 408.691525 366.995047 
L 409.455778 366.418932 
L 410.984284 366.617692 
L 411.748536 366.404529 
L 412.512789 366.548558 
L 413.277042 366.398768 
L 414.041294 366.516871 
L 414.805547 366.398768 
L 415.5698 366.488066 
L 416.334052 366.25762 
L 417.098305 366.995047 
L 417.862558 366.885585 
L 418.62681 367.833295 
L 419.391063 367.804489 
L 420.155316 367.565401 
L 420.919569 367.890906 
L 422.448074 366.237455 
L 423.212327 366.191366 
L 423.976579 366.266261 
L 424.740832 366.171202 
L 425.505085 366.390126 
L 426.269337 366.194247 
L 427.797843 366.064621 
L 428.562096 366.329634 
L 430.090601 366.31235 
L 430.854854 367.11027 
L 431.619106 367.190926 
L 433.911864 368.181844 
L 434.676117 368.086785 
L 435.44037 367.813131 
L 436.204622 366.934555 
L 436.968875 366.263381 
L 437.733128 366.122232 
L 438.497381 366.248978 
L 440.790139 366.133755 
L 442.318644 366.10783 
L 443.082897 366.182725 
L 443.847149 366.087666 
L 446.90416 367.718072 
L 447.668413 367.942757 
L 448.432666 367.939876 
L 449.196918 367.245657 
L 449.961171 366.035815 
L 450.725424 366.073263 
L 451.489676 365.891786 
L 452.253929 365.883145 
L 453.018182 366.076143 
L 454.546687 365.646937 
L 456.839445 365.753519 
L 458.367951 366.116471 
L 459.132203 366.580244 
L 459.896456 366.577363 
L 460.660709 366.925913 
L 461.424961 367.044017 
L 462.189214 366.819332 
L 462.953467 365.868742 
L 463.71772 365.61237 
L 465.246225 365.776563 
L 466.77473 365.566281 
L 469.067488 365.638296 
L 469.831741 365.805369 
L 470.595994 365.615251 
L 472.124499 365.756399 
L 472.888752 366.145277 
L 473.653005 366.871182 
L 474.417257 367.020972 
L 475.18151 367.576923 
L 475.945763 367.265821 
L 476.710015 366.352679 
L 477.474268 366.151038 
L 478.238521 365.644057 
L 479.002773 365.721832 
L 479.767026 365.583565 
L 482.824037 365.597968 
L 483.58829 365.332955 
L 484.352542 365.55764 
L 485.116795 365.376163 
L 485.881048 365.626773 
L 486.6453 366.387245 
L 487.409553 366.574483 
L 488.938059 367.723833 
L 489.702311 367.424253 
L 490.466564 366.989286 
L 491.230817 367.041136 
L 491.995069 366.534155 
L 492.759322 365.563401 
L 493.523575 365.131314 
L 494.287827 365.315671 
L 496.580586 365.06218 
L 497.344838 365.30991 
L 498.109091 365.226373 
L 498.109091 365.226373 
" clip-path="url(#p87ee93d8a0)" style="fill: none; stroke: #008000; stroke-width: 1.5; stroke-linecap: square"/>
   </g>
   <g id="line2d_43">
    <path d="M 92.290909 337.783125 
L 93.055162 340.574403 
L 93.819414 338.820132 
L 94.583667 338.462941 
L 95.34792 337.774483 
L 96.112173 337.665021 
L 96.876425 336.973683 
L 97.640678 335.844497 
L 98.404931 335.991406 
L 100.697689 333.272142 
L 101.461941 332.26106 
L 102.226194 330.956159 
L 102.990447 330.512551 
L 103.7547 328.424133 
L 104.518952 327.594527 
L 105.283205 326.157119 
L 106.047458 325.050978 
L 106.81171 324.146477 
L 108.340216 320.571682 
L 109.104468 319.338796 
L 109.868721 317.725673 
L 110.632974 315.818732 
L 111.397227 314.698188 
L 112.161479 313.113871 
L 115.21849 305.535075 
L 115.982743 303.077944 
L 116.746995 301.372643 
L 117.511248 298.944317 
L 119.804006 293.433775 
L 120.568259 290.518632 
L 121.332512 288.971762 
L 122.096764 286.773883 
L 122.861017 284.195767 
L 123.62527 282.222573 
L 124.389522 279.581084 
L 125.153775 277.731754 
L 126.68228 271.840976 
L 127.446533 269.899468 
L 128.210786 267.592126 
L 137.381818 232.195607 
L 138.146071 228.914631 
L 138.910324 226.549678 
L 139.674576 223.631654 
L 141.203082 216.251618 
L 141.967334 213.045537 
L 142.731587 209.202849 
L 143.49584 206.872462 
L 144.260092 203.271742 
L 145.788598 194.563761 
L 147.317103 187.255739 
L 148.081356 181.86042 
L 148.845609 178.639936 
L 149.609861 176.879904 
L 150.374114 172.216251 
L 151.138367 169.174363 
L 151.902619 166.901588 
L 152.666872 160.993527 
L 153.431125 157.830654 
L 154.195378 155.563641 
L 154.95963 150.50823 
L 155.723883 146.890226 
L 156.488136 142.517512 
L 158.016641 136.20905 
L 159.545146 129.304309 
L 161.073652 119.400888 
L 161.837904 116.854459 
L 162.602157 112.432775 
L 163.36641 109.278544 
L 164.130663 105.369602 
L 164.894915 102.296027 
L 165.659168 100.155759 
L 166.423421 99.291586 
L 167.187673 94.282264 
L 167.951926 91.4593 
L 169.480431 89.944117 
L 171.008937 82.077263 
L 171.77319 79.277343 
L 172.537442 77.534595 
L 173.301695 76.471662 
L 174.065948 74.56184 
L 174.8302 72.994807 
L 175.594453 72.029814 
L 176.358706 72.484945 
L 177.122958 70.915031 
L 177.887211 71.704309 
L 178.651464 68.331154 
L 179.415716 69.048418 
L 180.179969 74.328514 
L 180.944222 75.757279 
L 181.708475 73.418252 
L 182.472727 71.784965 
L 183.23698 75.313671 
L 184.001233 76.739556 
L 184.765485 85.16236 
L 185.529738 84.442216 
L 186.293991 86.104309 
L 187.058243 87.328554 
L 187.822496 85.133555 
L 188.586749 86.167682 
L 190.115254 95.71103 
L 191.64376 97.528674 
L 192.408012 102.114551 
L 193.172265 103.572122 
L 193.936518 112.715071 
L 194.70077 110.352999 
L 195.465023 112.939756 
L 196.229276 114.325313 
L 196.993529 117.951958 
L 198.522034 128.30763 
L 199.286287 131.804649 
L 200.050539 131.340876 
L 200.814792 139.671502 
L 201.579045 135.935395 
L 202.343297 139.271102 
L 203.10755 140.979284 
L 205.400308 148.367962 
L 206.164561 153.950518 
L 206.928814 154.564081 
L 207.693066 160.41165 
L 208.457319 160.313711 
L 209.221572 160.843737 
L 210.750077 166.296667 
L 211.51433 167.748478 
L 213.042835 173.875463 
L 213.807088 174.537996 
L 214.571341 177.107469 
L 215.335593 178.70907 
L 216.099846 179.434975 
L 216.864099 181.402408 
L 217.628351 183.937315 
L 220.685362 192.406209 
L 221.449615 195.785125 
L 222.213867 196.992086 
L 222.97812 200.466061 
L 223.742373 202.3586 
L 224.506626 203.675023 
L 226.799384 212.25914 
L 227.563636 213.978844 
L 228.327889 215.344237 
L 230.620647 222.770362 
L 231.3849 224.622573 
L 232.149153 228.102308 
L 232.913405 231.049138 
L 233.677658 232.872543 
L 234.441911 235.51115 
L 235.206163 237.619732 
L 235.970416 241.26078 
L 236.734669 243.138916 
L 237.498921 246.131834 
L 238.263174 248.145357 
L 239.027427 251.947718 
L 240.555932 255.655019 
L 241.320185 258.80925 
L 244.377196 269.689186 
L 245.141448 271.702709 
L 245.905701 275.205489 
L 246.669954 277.244937 
L 250.491217 289.599728 
L 251.25547 291.886905 
L 252.783975 297.239016 
L 254.312481 301.384165 
L 255.840986 305.828894 
L 256.605239 307.367121 
L 257.369492 310.002849 
L 258.133744 311.924193 
L 258.897997 314.277624 
L 261.190755 320.004209 
L 262.71926 323.00865 
L 263.483513 325.220932 
L 265.012018 328.066941 
L 265.776271 330.16112 
L 266.540524 331.114591 
L 267.304777 333.514111 
L 268.069029 334.579924 
L 271.890293 340.983445 
L 272.654545 341.729514 
L 273.418798 343.11219 
L 276.475809 347.119072 
L 277.240062 347.686545 
L 278.768567 349.512831 
L 279.53282 350.333795 
L 280.297072 350.869582 
L 281.061325 351.834575 
L 281.825578 352.203289 
L 283.354083 353.436175 
L 284.118336 353.61189 
L 284.882589 354.182244 
L 285.646841 354.980164 
L 286.411094 355.25958 
L 287.175347 355.345997 
L 287.939599 356.164081 
L 289.468105 357.054179 
L 290.99661 357.581324 
L 291.760863 357.921232 
L 292.525116 358.60969 
L 294.053621 359.217491 
L 295.582126 359.738876 
L 296.346379 360.245857 
L 297.110632 360.585765 
L 297.874884 360.61169 
L 298.639137 361.35776 
L 299.40339 361.472983 
L 300.931895 361.905069 
L 301.696148 362.389006 
L 303.224653 362.789406 
L 303.988906 363.322312 
L 304.753159 363.454819 
L 307.045917 364.373723 
L 307.810169 364.26138 
L 308.574422 364.681944 
L 309.338675 364.575363 
L 310.86718 365.047778 
L 312.395686 365.065061 
L 313.159938 365.390566 
L 314.688444 365.626773 
L 315.452696 365.621012 
L 316.216949 365.917712 
L 316.981202 365.822653 
L 318.509707 366.055979 
L 319.27396 366.136635 
L 320.038213 366.332515 
L 321.566718 366.326753 
L 322.330971 366.577363 
L 323.095223 366.675303 
L 323.859476 366.45926 
L 324.623729 366.804929 
L 327.68074 366.989286 
L 328.444992 366.787646 
L 329.973498 367.170762 
L 330.73775 366.977764 
L 332.266256 366.897107 
L 334.559014 367.285985 
L 335.323267 366.91151 
L 336.087519 367.277343 
L 338.380277 366.830854 
L 339.14453 367.098748 
L 339.908783 366.940316 
L 341.437288 367.141956 
L 342.201541 366.85966 
L 342.965794 367.069942 
L 343.730046 366.871182 
L 344.494299 366.920152 
L 345.258552 366.839496 
L 346.022804 366.963361 
L 347.55131 366.779004 
L 349.844068 367.116031 
L 350.60832 366.966241 
L 352.136826 366.914391 
L 352.901079 366.718512 
L 353.665331 366.816451 
L 355.193837 366.652258 
L 359.0151 366.980644 
L 359.779353 366.70987 
L 361.307858 366.940316 
L 362.072111 366.842376 
L 362.836364 366.983525 
L 363.600616 366.799168 
L 364.364869 366.940316 
L 365.129122 366.727153 
L 365.893374 366.943197 
L 366.657627 366.701228 
L 368.186133 366.516871 
L 369.714638 366.816451 
L 371.243143 366.516871 
L 372.771649 366.649378 
L 373.535901 366.571602 
L 375.064407 366.764601 
L 376.592912 366.453499 
L 377.357165 366.586005 
L 378.121418 366.390126 
L 378.88567 366.367081 
L 379.649923 366.580244 
L 380.414176 366.539916 
L 381.178428 366.318112 
L 381.942681 366.223053 
L 382.706934 366.505349 
L 383.471186 366.323873 
L 384.999692 366.565841 
L 388.056703 366.534155 
L 388.820955 366.297948 
L 389.585208 366.738676 
L 390.349461 366.404529 
L 391.877966 366.574483 
L 392.642219 366.240336 
L 393.406471 366.395887 
L 394.170724 366.395887 
L 394.934977 366.735795 
L 395.69923 366.323873 
L 396.463482 366.266261 
L 397.227735 366.502468 
L 397.991988 366.148158 
L 398.75624 366.482304 
L 400.284746 366.424693 
L 401.048998 366.280664 
L 404.870262 366.214411 
L 405.634515 366.479424 
L 406.398767 366.197127 
L 409.455778 366.064621 
L 410.220031 366.390126 
L 410.984284 366.041576 
L 411.748536 366.231694 
L 412.512789 366.093427 
L 413.277042 366.277784 
L 416.334052 365.96092 
L 417.098305 366.188486 
L 417.862558 366.050218 
L 418.62681 366.594647 
L 419.391063 365.989726 
L 420.155316 366.130874 
L 420.919569 366.015651 
L 423.212327 366.228814 
L 423.976579 366.018532 
L 424.740832 366.142396 
L 425.505085 365.934995 
L 427.03359 365.917712 
L 430.854854 365.848578 
L 431.619106 365.932114 
L 432.383359 365.819772 
L 433.147612 365.940756 
L 433.911864 365.727594 
L 436.204622 365.828414 
L 436.968875 365.669982 
L 438.497381 365.730474 
L 442.318644 365.664221 
L 443.082897 365.862981 
L 443.847149 365.566281 
L 445.375655 365.540356 
L 446.90416 365.736235 
L 447.668413 365.635415 
L 448.432666 365.35888 
L 449.196918 365.589326 
L 449.961171 365.26094 
L 450.725424 365.4597 
L 451.489676 365.252298 
L 452.253929 365.453939 
L 453.018182 365.491386 
L 453.782435 365.367522 
L 457.603698 365.367522 
L 458.367951 365.505789 
L 459.896456 365.347357 
L 460.660709 365.497147 
L 462.189214 365.20909 
L 462.953467 365.404969 
L 463.71772 365.214851 
L 464.481972 365.350238 
L 465.246225 365.30991 
L 466.010478 365.06218 
L 466.77473 365.301268 
L 467.538983 365.367522 
L 468.303236 365.157239 
L 469.067488 365.154359 
L 469.831741 364.96136 
L 470.595994 365.11115 
L 472.124499 365.154359 
L 473.653005 365.428014 
L 474.417257 365.085225 
L 475.18151 365.232134 
L 476.710015 364.921032 
L 479.002773 365.232134 
L 480.531279 364.897988 
L 481.295532 364.929674 
L 482.059784 365.465461 
L 482.824037 365.275343 
L 483.58829 364.828854 
L 484.352542 365.157239 
L 485.881048 365.067942 
L 486.6453 365.044897 
L 487.409553 365.151478 
L 488.173806 365.572042 
L 488.938059 365.255179 
L 489.702311 364.785645 
L 493.523575 364.866301 
L 494.287827 364.889346 
L 495.05208 364.604169 
L 495.816333 364.828854 
L 496.580586 364.730914 
L 498.109091 364.788526 
L 498.109091 364.788526 
" clip-path="url(#p87ee93d8a0)" style="fill: none; stroke: #008000; stroke-width: 1.5; stroke-linecap: square"/>
   </g>
   <g id="patch_3">
    <path d="M 72 384.48 
L 72 51.84 
" style="fill: none; stroke: #000000; stroke-width: 0.8; stroke-linejoin: miter; stroke-linecap: square"/>
   </g>
   <g id="patch_4">
    <path d="M 518.4 384.48 
L 518.4 51.84 
" style="fill: none; stroke: #000000; stroke-width: 0.8; stroke-linejoin: miter; stroke-linecap: square"/>
   </g>
   <g id="patch_5">
    <path d="M 72 384.48 
L 518.4 384.48 
" style="fill: none; stroke: #000000; stroke-width: 0.8; stroke-linejoin: miter; stroke-linecap: square"/>
   </g>
   <g id="patch_6">
    <path d="M 72 51.84 
L 518.4 51.84 
" style="fill: none; stroke: #000000; stroke-width: 0.8; stroke-linejoin: miter; stroke-linecap: square"/>
   </g>
   <g id="text_22">
    <!-- M9: Methionin; Histidin -->
    <g transform="translate(237.628125 45.84) scale(0.1 -0.1)">
     <defs>
      <path id="DejaVuSans-4d" d="M 628 4666 
L 1569 4666 
L 2759 1491 
L 3956 4666 
L 4897 4666 
L 4897 0 
L 4281 0 
L 4281 4097 
L 3078 897 
L 2444 897 
L 1241 4097 
L 1241 0 
L 628 0 
L 628 4666 
z
" transform="scale(0.015625)"/>
      <path id="DejaVuSans-39" d="M 703 97 
L 703 672 
Q 941 559 1184 500 
Q 1428 441 1663 441 
Q 2288 441 2617 861 
Q 2947 1281 2994 2138 
Q 2813 1869 2534 1725 
Q 2256 1581 1919 1581 
Q 1219 1581 811 2004 
Q 403 2428 403 3163 
Q 403 3881 828 4315 
Q 1253 4750 1959 4750 
Q 2769 4750 3195 4129 
Q 3622 3509 3622 2328 
Q 3622 1225 3098 567 
Q 2575 -91 1691 -91 
Q 1453 -91 1209 -44 
Q 966 3 703 97 
z
M 1959 2075 
Q 2384 2075 2632 2365 
Q 2881 2656 2881 3163 
Q 2881 3666 2632 3958 
Q 2384 4250 1959 4250 
Q 1534 4250 1286 3958 
Q 1038 3666 1038 3163 
Q 1038 2656 1286 2365 
Q 1534 2075 1959 2075 
z
" transform="scale(0.015625)"/>
      <path id="DejaVuSans-3a" d="M 750 794 
L 1409 794 
L 1409 0 
L 750 0 
L 750 794 
z
M 750 3309 
L 1409 3309 
L 1409 2516 
L 750 2516 
L 750 3309 
z
" transform="scale(0.015625)"/>
      <path id="DejaVuSans-3b" d="M 750 3309 
L 1409 3309 
L 1409 2516 
L 750 2516 
L 750 3309 
z
M 750 794 
L 1409 794 
L 1409 256 
L 897 -744 
L 494 -744 
L 750 256 
L 750 794 
z
" transform="scale(0.015625)"/>
      <path id="DejaVuSans-48" d="M 628 4666 
L 1259 4666 
L 1259 2753 
L 3553 2753 
L 3553 4666 
L 4184 4666 
L 4184 0 
L 3553 0 
L 3553 2222 
L 1259 2222 
L 1259 0 
L 628 0 
L 628 4666 
z
" transform="scale(0.015625)"/>
     </defs>
     <use xlink:href="#DejaVuSans-4d"/>
     <use xlink:href="#DejaVuSans-39" x="86.279297"/>
     <use xlink:href="#DejaVuSans-3a" x="149.902344"/>
     <use xlink:href="#DejaVuSans-20" x="183.59375"/>
     <use xlink:href="#DejaVuSans-4d" x="215.380859"/>
     <use xlink:href="#DejaVuSans-65" x="301.660156"/>
     <use xlink:href="#DejaVuSans-74" x="363.183594"/>
     <use xlink:href="#DejaVuSans-68" x="402.392578"/>
     <use xlink:href="#DejaVuSans-69" x="465.771484"/>
     <use xlink:href="#DejaVuSans-6f" x="493.554688"/>
     <use xlink:href="#DejaVuSans-6e" x="554.736328"/>
     <use xlink:href="#DejaVuSans-69" x="618.115234"/>
     <use xlink:href="#DejaVuSans-6e" x="645.898438"/>
     <use xlink:href="#DejaVuSans-3b" x="709.277344"/>
     <use xlink:href="#DejaVuSans-20" x="742.96875"/>
     <use xlink:href="#DejaVuSans-48" x="774.755859"/>
     <use xlink:href="#DejaVuSans-69" x="849.951172"/>
     <use xlink:href="#DejaVuSans-73" x="877.734375"/>
     <use xlink:href="#DejaVuSans-74" x="929.833984"/>
     <use xlink:href="#DejaVuSans-69" x="969.042969"/>
     <use xlink:href="#DejaVuSans-64" x="996.826172"/>
     <use xlink:href="#DejaVuSans-69" x="1060.302734"/>
     <use xlink:href="#DejaVuSans-6e" x="1088.085938"/>
    </g>
   </g>
  </g>
 </g>
 <defs>
  <clipPath id="p87ee93d8a0">
   <rect x="72" y="51.84" width="446.4" height="332.64"/>
  </clipPath>
 </defs>
</svg>
