<?xml version="1.0" encoding="utf-8" standalone="no"?>
<!DOCTYPE svg PUBLIC "-//W3C//DTD SVG 1.1//EN"
  "http://www.w3.org/Graphics/SVG/1.1/DTD/svg11.dtd">
<svg xmlns:xlink="http://www.w3.org/1999/xlink" width="576pt" height="432pt" viewBox="0 0 576 432" xmlns="http://www.w3.org/2000/svg" version="1.1">
 <metadata>
  <rdf:RDF xmlns:dc="http://purl.org/dc/elements/1.1/" xmlns:cc="http://creativecommons.org/ns#" xmlns:rdf="http://www.w3.org/1999/02/22-rdf-syntax-ns#">
   <cc:Work>
    <dc:type rdf:resource="http://purl.org/dc/dcmitype/StillImage"/>
    <dc:date>2024-11-12T14:09:06.185131</dc:date>
    <dc:format>image/svg+xml</dc:format>
    <dc:creator>
     <cc:Agent>
      <dc:title>Matplotlib v3.7.5, https://matplotlib.org/</dc:title>
     </cc:Agent>
    </dc:creator>
   </cc:Work>
  </rdf:RDF>
 </metadata>
 <defs>
  <style type="text/css">*{stroke-linejoin: round; stroke-linecap: butt}</style>
 </defs>
 <g id="figure_1">
  <g id="patch_1">
   <path d="M 0 432 
L 576 432 
L 576 0 
L 0 0 
z
" style="fill: #ffffff"/>
  </g>
  <g id="axes_1">
   <g id="patch_2">
    <path d="M 72 384.48 
L 518.4 384.48 
L 518.4 51.84 
L 72 51.84 
z
" style="fill: #ffffff"/>
   </g>
   <g id="matplotlib.axis_1">
    <g id="xtick_1">
     <g id="line2d_1">
      <path d="M 92.290909 384.48 
L 92.290909 51.84 
" clip-path="url(#pa6ffca6b69)" style="fill: none; stroke: #b0b0b0; stroke-width: 0.8; stroke-linecap: square"/>
     </g>
     <g id="line2d_2">
      <defs>
       <path id="m280dbc44e4" d="M 0 0 
L 0 3.5 
" style="stroke: #000000; stroke-width: 0.8"/>
      </defs>
      <g>
       <use xlink:href="#m280dbc44e4" x="92.290909" y="384.48" style="stroke: #000000; stroke-width: 0.8"/>
      </g>
     </g>
     <g id="text_1">
      <!-- 0.17 -->
      <g transform="translate(81.158097 399.078438) scale(0.1 -0.1)">
       <defs>
        <path id="DejaVuSans-30" d="M 2034 4250 
Q 1547 4250 1301 3770 
Q 1056 3291 1056 2328 
Q 1056 1369 1301 889 
Q 1547 409 2034 409 
Q 2525 409 2770 889 
Q 3016 1369 3016 2328 
Q 3016 3291 2770 3770 
Q 2525 4250 2034 4250 
z
M 2034 4750 
Q 2819 4750 3233 4129 
Q 3647 3509 3647 2328 
Q 3647 1150 3233 529 
Q 2819 -91 2034 -91 
Q 1250 -91 836 529 
Q 422 1150 422 2328 
Q 422 3509 836 4129 
Q 1250 4750 2034 4750 
z
" transform="scale(0.015625)"/>
        <path id="DejaVuSans-2e" d="M 684 794 
L 1344 794 
L 1344 0 
L 684 0 
L 684 794 
z
" transform="scale(0.015625)"/>
        <path id="DejaVuSans-31" d="M 794 531 
L 1825 531 
L 1825 4091 
L 703 3866 
L 703 4441 
L 1819 4666 
L 2450 4666 
L 2450 531 
L 3481 531 
L 3481 0 
L 794 0 
L 794 531 
z
" transform="scale(0.015625)"/>
        <path id="DejaVuSans-37" d="M 525 4666 
L 3525 4666 
L 3525 4397 
L 1831 0 
L 1172 0 
L 2766 4134 
L 525 4134 
L 525 4666 
z
" transform="scale(0.015625)"/>
       </defs>
       <use xlink:href="#DejaVuSans-30"/>
       <use xlink:href="#DejaVuSans-2e" x="63.623047"/>
       <use xlink:href="#DejaVuSans-31" x="95.410156"/>
       <use xlink:href="#DejaVuSans-37" x="159.033203"/>
      </g>
     </g>
    </g>
    <g id="xtick_2">
     <g id="line2d_3">
      <path d="M 121.751394 384.48 
L 121.751394 51.84 
" clip-path="url(#pa6ffca6b69)" style="fill: none; stroke: #b0b0b0; stroke-width: 0.8; stroke-linecap: square"/>
     </g>
     <g id="line2d_4">
      <g>
       <use xlink:href="#m280dbc44e4" x="121.751394" y="384.48" style="stroke: #000000; stroke-width: 0.8"/>
      </g>
     </g>
     <g id="text_2">
      <!-- 6.83 -->
      <g transform="translate(110.618582 399.078438) scale(0.1 -0.1)">
       <defs>
        <path id="DejaVuSans-36" d="M 2113 2584 
Q 1688 2584 1439 2293 
Q 1191 2003 1191 1497 
Q 1191 994 1439 701 
Q 1688 409 2113 409 
Q 2538 409 2786 701 
Q 3034 994 3034 1497 
Q 3034 2003 2786 2293 
Q 2538 2584 2113 2584 
z
M 3366 4563 
L 3366 3988 
Q 3128 4100 2886 4159 
Q 2644 4219 2406 4219 
Q 1781 4219 1451 3797 
Q 1122 3375 1075 2522 
Q 1259 2794 1537 2939 
Q 1816 3084 2150 3084 
Q 2853 3084 3261 2657 
Q 3669 2231 3669 1497 
Q 3669 778 3244 343 
Q 2819 -91 2113 -91 
Q 1303 -91 875 529 
Q 447 1150 447 2328 
Q 447 3434 972 4092 
Q 1497 4750 2381 4750 
Q 2619 4750 2861 4703 
Q 3103 4656 3366 4563 
z
" transform="scale(0.015625)"/>
        <path id="DejaVuSans-38" d="M 2034 2216 
Q 1584 2216 1326 1975 
Q 1069 1734 1069 1313 
Q 1069 891 1326 650 
Q 1584 409 2034 409 
Q 2484 409 2743 651 
Q 3003 894 3003 1313 
Q 3003 1734 2745 1975 
Q 2488 2216 2034 2216 
z
M 1403 2484 
Q 997 2584 770 2862 
Q 544 3141 544 3541 
Q 544 4100 942 4425 
Q 1341 4750 2034 4750 
Q 2731 4750 3128 4425 
Q 3525 4100 3525 3541 
Q 3525 3141 3298 2862 
Q 3072 2584 2669 2484 
Q 3125 2378 3379 2068 
Q 3634 1759 3634 1313 
Q 3634 634 3220 271 
Q 2806 -91 2034 -91 
Q 1263 -91 848 271 
Q 434 634 434 1313 
Q 434 1759 690 2068 
Q 947 2378 1403 2484 
z
M 1172 3481 
Q 1172 3119 1398 2916 
Q 1625 2713 2034 2713 
Q 2441 2713 2670 2916 
Q 2900 3119 2900 3481 
Q 2900 3844 2670 4047 
Q 2441 4250 2034 4250 
Q 1625 4250 1398 4047 
Q 1172 3844 1172 3481 
z
" transform="scale(0.015625)"/>
        <path id="DejaVuSans-33" d="M 2597 2516 
Q 3050 2419 3304 2112 
Q 3559 1806 3559 1356 
Q 3559 666 3084 287 
Q 2609 -91 1734 -91 
Q 1441 -91 1130 -33 
Q 819 25 488 141 
L 488 750 
Q 750 597 1062 519 
Q 1375 441 1716 441 
Q 2309 441 2620 675 
Q 2931 909 2931 1356 
Q 2931 1769 2642 2001 
Q 2353 2234 1838 2234 
L 1294 2234 
L 1294 2753 
L 1863 2753 
Q 2328 2753 2575 2939 
Q 2822 3125 2822 3475 
Q 2822 3834 2567 4026 
Q 2313 4219 1838 4219 
Q 1578 4219 1281 4162 
Q 984 4106 628 3988 
L 628 4550 
Q 988 4650 1302 4700 
Q 1616 4750 1894 4750 
Q 2613 4750 3031 4423 
Q 3450 4097 3450 3541 
Q 3450 3153 3228 2886 
Q 3006 2619 2597 2516 
z
" transform="scale(0.015625)"/>
       </defs>
       <use xlink:href="#DejaVuSans-36"/>
       <use xlink:href="#DejaVuSans-2e" x="63.623047"/>
       <use xlink:href="#DejaVuSans-38" x="95.410156"/>
       <use xlink:href="#DejaVuSans-33" x="159.033203"/>
      </g>
     </g>
    </g>
    <g id="xtick_3">
     <g id="line2d_5">
      <path d="M 151.211879 384.48 
L 151.211879 51.84 
" clip-path="url(#pa6ffca6b69)" style="fill: none; stroke: #b0b0b0; stroke-width: 0.8; stroke-linecap: square"/>
     </g>
     <g id="line2d_6">
      <g>
       <use xlink:href="#m280dbc44e4" x="151.211879" y="384.48" style="stroke: #000000; stroke-width: 0.8"/>
      </g>
     </g>
     <g id="text_3">
      <!-- 13.5 -->
      <g transform="translate(140.079067 399.078438) scale(0.1 -0.1)">
       <defs>
        <path id="DejaVuSans-35" d="M 691 4666 
L 3169 4666 
L 3169 4134 
L 1269 4134 
L 1269 2991 
Q 1406 3038 1543 3061 
Q 1681 3084 1819 3084 
Q 2600 3084 3056 2656 
Q 3513 2228 3513 1497 
Q 3513 744 3044 326 
Q 2575 -91 1722 -91 
Q 1428 -91 1123 -41 
Q 819 9 494 109 
L 494 744 
Q 775 591 1075 516 
Q 1375 441 1709 441 
Q 2250 441 2565 725 
Q 2881 1009 2881 1497 
Q 2881 1984 2565 2268 
Q 2250 2553 1709 2553 
Q 1456 2553 1204 2497 
Q 953 2441 691 2322 
L 691 4666 
z
" transform="scale(0.015625)"/>
       </defs>
       <use xlink:href="#DejaVuSans-31"/>
       <use xlink:href="#DejaVuSans-33" x="63.623047"/>
       <use xlink:href="#DejaVuSans-2e" x="127.246094"/>
       <use xlink:href="#DejaVuSans-35" x="159.033203"/>
      </g>
     </g>
    </g>
    <g id="xtick_4">
     <g id="line2d_7">
      <path d="M 180.672364 384.48 
L 180.672364 51.84 
" clip-path="url(#pa6ffca6b69)" style="fill: none; stroke: #b0b0b0; stroke-width: 0.8; stroke-linecap: square"/>
     </g>
     <g id="line2d_8">
      <g>
       <use xlink:href="#m280dbc44e4" x="180.672364" y="384.48" style="stroke: #000000; stroke-width: 0.8"/>
      </g>
     </g>
     <g id="text_4">
      <!-- 20.17 -->
      <g transform="translate(166.358302 399.078438) scale(0.1 -0.1)">
       <defs>
        <path id="DejaVuSans-32" d="M 1228 531 
L 3431 531 
L 3431 0 
L 469 0 
L 469 531 
Q 828 903 1448 1529 
Q 2069 2156 2228 2338 
Q 2531 2678 2651 2914 
Q 2772 3150 2772 3378 
Q 2772 3750 2511 3984 
Q 2250 4219 1831 4219 
Q 1534 4219 1204 4116 
Q 875 4013 500 3803 
L 500 4441 
Q 881 4594 1212 4672 
Q 1544 4750 1819 4750 
Q 2544 4750 2975 4387 
Q 3406 4025 3406 3419 
Q 3406 3131 3298 2873 
Q 3191 2616 2906 2266 
Q 2828 2175 2409 1742 
Q 1991 1309 1228 531 
z
" transform="scale(0.015625)"/>
       </defs>
       <use xlink:href="#DejaVuSans-32"/>
       <use xlink:href="#DejaVuSans-30" x="63.623047"/>
       <use xlink:href="#DejaVuSans-2e" x="127.246094"/>
       <use xlink:href="#DejaVuSans-31" x="159.033203"/>
       <use xlink:href="#DejaVuSans-37" x="222.65625"/>
      </g>
     </g>
    </g>
    <g id="xtick_5">
     <g id="line2d_9">
      <path d="M 210.132849 384.48 
L 210.132849 51.84 
" clip-path="url(#pa6ffca6b69)" style="fill: none; stroke: #b0b0b0; stroke-width: 0.8; stroke-linecap: square"/>
     </g>
     <g id="line2d_10">
      <g>
       <use xlink:href="#m280dbc44e4" x="210.132849" y="384.48" style="stroke: #000000; stroke-width: 0.8"/>
      </g>
     </g>
     <g id="text_5">
      <!-- 26.83 -->
      <g transform="translate(195.818787 399.078438) scale(0.1 -0.1)">
       <use xlink:href="#DejaVuSans-32"/>
       <use xlink:href="#DejaVuSans-36" x="63.623047"/>
       <use xlink:href="#DejaVuSans-2e" x="127.246094"/>
       <use xlink:href="#DejaVuSans-38" x="159.033203"/>
       <use xlink:href="#DejaVuSans-33" x="222.65625"/>
      </g>
     </g>
    </g>
    <g id="xtick_6">
     <g id="line2d_11">
      <path d="M 239.593334 384.48 
L 239.593334 51.84 
" clip-path="url(#pa6ffca6b69)" style="fill: none; stroke: #b0b0b0; stroke-width: 0.8; stroke-linecap: square"/>
     </g>
     <g id="line2d_12">
      <g>
       <use xlink:href="#m280dbc44e4" x="239.593334" y="384.48" style="stroke: #000000; stroke-width: 0.8"/>
      </g>
     </g>
     <g id="text_6">
      <!-- 33.5 -->
      <g transform="translate(228.460522 399.078438) scale(0.1 -0.1)">
       <use xlink:href="#DejaVuSans-33"/>
       <use xlink:href="#DejaVuSans-33" x="63.623047"/>
       <use xlink:href="#DejaVuSans-2e" x="127.246094"/>
       <use xlink:href="#DejaVuSans-35" x="159.033203"/>
      </g>
     </g>
    </g>
    <g id="xtick_7">
     <g id="line2d_13">
      <path d="M 269.05382 384.48 
L 269.05382 51.84 
" clip-path="url(#pa6ffca6b69)" style="fill: none; stroke: #b0b0b0; stroke-width: 0.8; stroke-linecap: square"/>
     </g>
     <g id="line2d_14">
      <g>
       <use xlink:href="#m280dbc44e4" x="269.05382" y="384.48" style="stroke: #000000; stroke-width: 0.8"/>
      </g>
     </g>
     <g id="text_7">
      <!-- 40.17 -->
      <g transform="translate(254.739757 399.078438) scale(0.1 -0.1)">
       <defs>
        <path id="DejaVuSans-34" d="M 2419 4116 
L 825 1625 
L 2419 1625 
L 2419 4116 
z
M 2253 4666 
L 3047 4666 
L 3047 1625 
L 3713 1625 
L 3713 1100 
L 3047 1100 
L 3047 0 
L 2419 0 
L 2419 1100 
L 313 1100 
L 313 1709 
L 2253 4666 
z
" transform="scale(0.015625)"/>
       </defs>
       <use xlink:href="#DejaVuSans-34"/>
       <use xlink:href="#DejaVuSans-30" x="63.623047"/>
       <use xlink:href="#DejaVuSans-2e" x="127.246094"/>
       <use xlink:href="#DejaVuSans-31" x="159.033203"/>
       <use xlink:href="#DejaVuSans-37" x="222.65625"/>
      </g>
     </g>
    </g>
    <g id="xtick_8">
     <g id="line2d_15">
      <path d="M 298.514305 384.48 
L 298.514305 51.84 
" clip-path="url(#pa6ffca6b69)" style="fill: none; stroke: #b0b0b0; stroke-width: 0.8; stroke-linecap: square"/>
     </g>
     <g id="line2d_16">
      <g>
       <use xlink:href="#m280dbc44e4" x="298.514305" y="384.48" style="stroke: #000000; stroke-width: 0.8"/>
      </g>
     </g>
     <g id="text_8">
      <!-- 46.83 -->
      <g transform="translate(284.200242 399.078438) scale(0.1 -0.1)">
       <use xlink:href="#DejaVuSans-34"/>
       <use xlink:href="#DejaVuSans-36" x="63.623047"/>
       <use xlink:href="#DejaVuSans-2e" x="127.246094"/>
       <use xlink:href="#DejaVuSans-38" x="159.033203"/>
       <use xlink:href="#DejaVuSans-33" x="222.65625"/>
      </g>
     </g>
    </g>
    <g id="xtick_9">
     <g id="line2d_17">
      <path d="M 327.97479 384.48 
L 327.97479 51.84 
" clip-path="url(#pa6ffca6b69)" style="fill: none; stroke: #b0b0b0; stroke-width: 0.8; stroke-linecap: square"/>
     </g>
     <g id="line2d_18">
      <g>
       <use xlink:href="#m280dbc44e4" x="327.97479" y="384.48" style="stroke: #000000; stroke-width: 0.8"/>
      </g>
     </g>
     <g id="text_9">
      <!-- 53.5 -->
      <g transform="translate(316.841977 399.078438) scale(0.1 -0.1)">
       <use xlink:href="#DejaVuSans-35"/>
       <use xlink:href="#DejaVuSans-33" x="63.623047"/>
       <use xlink:href="#DejaVuSans-2e" x="127.246094"/>
       <use xlink:href="#DejaVuSans-35" x="159.033203"/>
      </g>
     </g>
    </g>
    <g id="xtick_10">
     <g id="line2d_19">
      <path d="M 357.435275 384.48 
L 357.435275 51.84 
" clip-path="url(#pa6ffca6b69)" style="fill: none; stroke: #b0b0b0; stroke-width: 0.8; stroke-linecap: square"/>
     </g>
     <g id="line2d_20">
      <g>
       <use xlink:href="#m280dbc44e4" x="357.435275" y="384.48" style="stroke: #000000; stroke-width: 0.8"/>
      </g>
     </g>
     <g id="text_10">
      <!-- 60.17 -->
      <g transform="translate(343.121212 399.078438) scale(0.1 -0.1)">
       <use xlink:href="#DejaVuSans-36"/>
       <use xlink:href="#DejaVuSans-30" x="63.623047"/>
       <use xlink:href="#DejaVuSans-2e" x="127.246094"/>
       <use xlink:href="#DejaVuSans-31" x="159.033203"/>
       <use xlink:href="#DejaVuSans-37" x="222.65625"/>
      </g>
     </g>
    </g>
    <g id="xtick_11">
     <g id="line2d_21">
      <path d="M 386.89576 384.48 
L 386.89576 51.84 
" clip-path="url(#pa6ffca6b69)" style="fill: none; stroke: #b0b0b0; stroke-width: 0.8; stroke-linecap: square"/>
     </g>
     <g id="line2d_22">
      <g>
       <use xlink:href="#m280dbc44e4" x="386.89576" y="384.48" style="stroke: #000000; stroke-width: 0.8"/>
      </g>
     </g>
     <g id="text_11">
      <!-- 66.83 -->
      <g transform="translate(372.581697 399.078438) scale(0.1 -0.1)">
       <use xlink:href="#DejaVuSans-36"/>
       <use xlink:href="#DejaVuSans-36" x="63.623047"/>
       <use xlink:href="#DejaVuSans-2e" x="127.246094"/>
       <use xlink:href="#DejaVuSans-38" x="159.033203"/>
       <use xlink:href="#DejaVuSans-33" x="222.65625"/>
      </g>
     </g>
    </g>
    <g id="xtick_12">
     <g id="line2d_23">
      <path d="M 416.356245 384.48 
L 416.356245 51.84 
" clip-path="url(#pa6ffca6b69)" style="fill: none; stroke: #b0b0b0; stroke-width: 0.8; stroke-linecap: square"/>
     </g>
     <g id="line2d_24">
      <g>
       <use xlink:href="#m280dbc44e4" x="416.356245" y="384.48" style="stroke: #000000; stroke-width: 0.8"/>
      </g>
     </g>
     <g id="text_12">
      <!-- 73.5 -->
      <g transform="translate(405.223432 399.078438) scale(0.1 -0.1)">
       <use xlink:href="#DejaVuSans-37"/>
       <use xlink:href="#DejaVuSans-33" x="63.623047"/>
       <use xlink:href="#DejaVuSans-2e" x="127.246094"/>
       <use xlink:href="#DejaVuSans-35" x="159.033203"/>
      </g>
     </g>
    </g>
    <g id="xtick_13">
     <g id="line2d_25">
      <path d="M 445.81673 384.48 
L 445.81673 51.84 
" clip-path="url(#pa6ffca6b69)" style="fill: none; stroke: #b0b0b0; stroke-width: 0.8; stroke-linecap: square"/>
     </g>
     <g id="line2d_26">
      <g>
       <use xlink:href="#m280dbc44e4" x="445.81673" y="384.48" style="stroke: #000000; stroke-width: 0.8"/>
      </g>
     </g>
     <g id="text_13">
      <!-- 80.17 -->
      <g transform="translate(431.502667 399.078438) scale(0.1 -0.1)">
       <use xlink:href="#DejaVuSans-38"/>
       <use xlink:href="#DejaVuSans-30" x="63.623047"/>
       <use xlink:href="#DejaVuSans-2e" x="127.246094"/>
       <use xlink:href="#DejaVuSans-31" x="159.033203"/>
       <use xlink:href="#DejaVuSans-37" x="222.65625"/>
      </g>
     </g>
    </g>
    <g id="xtick_14">
     <g id="line2d_27">
      <path d="M 475.277215 384.48 
L 475.277215 51.84 
" clip-path="url(#pa6ffca6b69)" style="fill: none; stroke: #b0b0b0; stroke-width: 0.8; stroke-linecap: square"/>
     </g>
     <g id="line2d_28">
      <g>
       <use xlink:href="#m280dbc44e4" x="475.277215" y="384.48" style="stroke: #000000; stroke-width: 0.8"/>
      </g>
     </g>
     <g id="text_14">
      <!-- 86.83 -->
      <g transform="translate(460.963152 399.078438) scale(0.1 -0.1)">
       <use xlink:href="#DejaVuSans-38"/>
       <use xlink:href="#DejaVuSans-36" x="63.623047"/>
       <use xlink:href="#DejaVuSans-2e" x="127.246094"/>
       <use xlink:href="#DejaVuSans-38" x="159.033203"/>
       <use xlink:href="#DejaVuSans-33" x="222.65625"/>
      </g>
     </g>
    </g>
    <g id="text_15">
     <!-- time in hours [h] -->
     <g transform="translate(253.451562 412.756563) scale(0.1 -0.1)">
      <defs>
       <path id="DejaVuSans-74" d="M 1172 4494 
L 1172 3500 
L 2356 3500 
L 2356 3053 
L 1172 3053 
L 1172 1153 
Q 1172 725 1289 603 
Q 1406 481 1766 481 
L 2356 481 
L 2356 0 
L 1766 0 
Q 1100 0 847 248 
Q 594 497 594 1153 
L 594 3053 
L 172 3053 
L 172 3500 
L 594 3500 
L 594 4494 
L 1172 4494 
z
" transform="scale(0.015625)"/>
       <path id="DejaVuSans-69" d="M 603 3500 
L 1178 3500 
L 1178 0 
L 603 0 
L 603 3500 
z
M 603 4863 
L 1178 4863 
L 1178 4134 
L 603 4134 
L 603 4863 
z
" transform="scale(0.015625)"/>
       <path id="DejaVuSans-6d" d="M 3328 2828 
Q 3544 3216 3844 3400 
Q 4144 3584 4550 3584 
Q 5097 3584 5394 3201 
Q 5691 2819 5691 2113 
L 5691 0 
L 5113 0 
L 5113 2094 
Q 5113 2597 4934 2840 
Q 4756 3084 4391 3084 
Q 3944 3084 3684 2787 
Q 3425 2491 3425 1978 
L 3425 0 
L 2847 0 
L 2847 2094 
Q 2847 2600 2669 2842 
Q 2491 3084 2119 3084 
Q 1678 3084 1418 2786 
Q 1159 2488 1159 1978 
L 1159 0 
L 581 0 
L 581 3500 
L 1159 3500 
L 1159 2956 
Q 1356 3278 1631 3431 
Q 1906 3584 2284 3584 
Q 2666 3584 2933 3390 
Q 3200 3197 3328 2828 
z
" transform="scale(0.015625)"/>
       <path id="DejaVuSans-65" d="M 3597 1894 
L 3597 1613 
L 953 1613 
Q 991 1019 1311 708 
Q 1631 397 2203 397 
Q 2534 397 2845 478 
Q 3156 559 3463 722 
L 3463 178 
Q 3153 47 2828 -22 
Q 2503 -91 2169 -91 
Q 1331 -91 842 396 
Q 353 884 353 1716 
Q 353 2575 817 3079 
Q 1281 3584 2069 3584 
Q 2775 3584 3186 3129 
Q 3597 2675 3597 1894 
z
M 3022 2063 
Q 3016 2534 2758 2815 
Q 2500 3097 2075 3097 
Q 1594 3097 1305 2825 
Q 1016 2553 972 2059 
L 3022 2063 
z
" transform="scale(0.015625)"/>
       <path id="DejaVuSans-20" transform="scale(0.015625)"/>
       <path id="DejaVuSans-6e" d="M 3513 2113 
L 3513 0 
L 2938 0 
L 2938 2094 
Q 2938 2591 2744 2837 
Q 2550 3084 2163 3084 
Q 1697 3084 1428 2787 
Q 1159 2491 1159 1978 
L 1159 0 
L 581 0 
L 581 3500 
L 1159 3500 
L 1159 2956 
Q 1366 3272 1645 3428 
Q 1925 3584 2291 3584 
Q 2894 3584 3203 3211 
Q 3513 2838 3513 2113 
z
" transform="scale(0.015625)"/>
       <path id="DejaVuSans-68" d="M 3513 2113 
L 3513 0 
L 2938 0 
L 2938 2094 
Q 2938 2591 2744 2837 
Q 2550 3084 2163 3084 
Q 1697 3084 1428 2787 
Q 1159 2491 1159 1978 
L 1159 0 
L 581 0 
L 581 4863 
L 1159 4863 
L 1159 2956 
Q 1366 3272 1645 3428 
Q 1925 3584 2291 3584 
Q 2894 3584 3203 3211 
Q 3513 2838 3513 2113 
z
" transform="scale(0.015625)"/>
       <path id="DejaVuSans-6f" d="M 1959 3097 
Q 1497 3097 1228 2736 
Q 959 2375 959 1747 
Q 959 1119 1226 758 
Q 1494 397 1959 397 
Q 2419 397 2687 759 
Q 2956 1122 2956 1747 
Q 2956 2369 2687 2733 
Q 2419 3097 1959 3097 
z
M 1959 3584 
Q 2709 3584 3137 3096 
Q 3566 2609 3566 1747 
Q 3566 888 3137 398 
Q 2709 -91 1959 -91 
Q 1206 -91 779 398 
Q 353 888 353 1747 
Q 353 2609 779 3096 
Q 1206 3584 1959 3584 
z
" transform="scale(0.015625)"/>
       <path id="DejaVuSans-75" d="M 544 1381 
L 544 3500 
L 1119 3500 
L 1119 1403 
Q 1119 906 1312 657 
Q 1506 409 1894 409 
Q 2359 409 2629 706 
Q 2900 1003 2900 1516 
L 2900 3500 
L 3475 3500 
L 3475 0 
L 2900 0 
L 2900 538 
Q 2691 219 2414 64 
Q 2138 -91 1772 -91 
Q 1169 -91 856 284 
Q 544 659 544 1381 
z
M 1991 3584 
L 1991 3584 
z
" transform="scale(0.015625)"/>
       <path id="DejaVuSans-72" d="M 2631 2963 
Q 2534 3019 2420 3045 
Q 2306 3072 2169 3072 
Q 1681 3072 1420 2755 
Q 1159 2438 1159 1844 
L 1159 0 
L 581 0 
L 581 3500 
L 1159 3500 
L 1159 2956 
Q 1341 3275 1631 3429 
Q 1922 3584 2338 3584 
Q 2397 3584 2469 3576 
Q 2541 3569 2628 3553 
L 2631 2963 
z
" transform="scale(0.015625)"/>
       <path id="DejaVuSans-73" d="M 2834 3397 
L 2834 2853 
Q 2591 2978 2328 3040 
Q 2066 3103 1784 3103 
Q 1356 3103 1142 2972 
Q 928 2841 928 2578 
Q 928 2378 1081 2264 
Q 1234 2150 1697 2047 
L 1894 2003 
Q 2506 1872 2764 1633 
Q 3022 1394 3022 966 
Q 3022 478 2636 193 
Q 2250 -91 1575 -91 
Q 1294 -91 989 -36 
Q 684 19 347 128 
L 347 722 
Q 666 556 975 473 
Q 1284 391 1588 391 
Q 1994 391 2212 530 
Q 2431 669 2431 922 
Q 2431 1156 2273 1281 
Q 2116 1406 1581 1522 
L 1381 1569 
Q 847 1681 609 1914 
Q 372 2147 372 2553 
Q 372 3047 722 3315 
Q 1072 3584 1716 3584 
Q 2034 3584 2315 3537 
Q 2597 3491 2834 3397 
z
" transform="scale(0.015625)"/>
       <path id="DejaVuSans-5b" d="M 550 4863 
L 1875 4863 
L 1875 4416 
L 1125 4416 
L 1125 -397 
L 1875 -397 
L 1875 -844 
L 550 -844 
L 550 4863 
z
" transform="scale(0.015625)"/>
       <path id="DejaVuSans-5d" d="M 1947 4863 
L 1947 -844 
L 622 -844 
L 622 -397 
L 1369 -397 
L 1369 4416 
L 622 4416 
L 622 4863 
L 1947 4863 
z
" transform="scale(0.015625)"/>
      </defs>
      <use xlink:href="#DejaVuSans-74"/>
      <use xlink:href="#DejaVuSans-69" x="39.208984"/>
      <use xlink:href="#DejaVuSans-6d" x="66.992188"/>
      <use xlink:href="#DejaVuSans-65" x="164.404297"/>
      <use xlink:href="#DejaVuSans-20" x="225.927734"/>
      <use xlink:href="#DejaVuSans-69" x="257.714844"/>
      <use xlink:href="#DejaVuSans-6e" x="285.498047"/>
      <use xlink:href="#DejaVuSans-20" x="348.876953"/>
      <use xlink:href="#DejaVuSans-68" x="380.664062"/>
      <use xlink:href="#DejaVuSans-6f" x="444.042969"/>
      <use xlink:href="#DejaVuSans-75" x="505.224609"/>
      <use xlink:href="#DejaVuSans-72" x="568.603516"/>
      <use xlink:href="#DejaVuSans-73" x="609.716797"/>
      <use xlink:href="#DejaVuSans-20" x="661.816406"/>
      <use xlink:href="#DejaVuSans-5b" x="693.603516"/>
      <use xlink:href="#DejaVuSans-68" x="732.617188"/>
      <use xlink:href="#DejaVuSans-5d" x="795.996094"/>
     </g>
    </g>
   </g>
   <g id="matplotlib.axis_2">
    <g id="ytick_1">
     <g id="line2d_29">
      <path d="M 72 363.69 
L 518.4 363.69 
" clip-path="url(#pa6ffca6b69)" style="fill: none; stroke: #b0b0b0; stroke-width: 0.8; stroke-linecap: square"/>
     </g>
     <g id="line2d_30">
      <defs>
       <path id="mb404ec1083" d="M 0 0 
L -3.5 0 
" style="stroke: #000000; stroke-width: 0.8"/>
      </defs>
      <g>
       <use xlink:href="#mb404ec1083" x="72" y="363.69" style="stroke: #000000; stroke-width: 0.8"/>
      </g>
     </g>
     <g id="text_16">
      <!-- 0.0 -->
      <g transform="translate(49.096875 367.489219) scale(0.1 -0.1)">
       <use xlink:href="#DejaVuSans-30"/>
       <use xlink:href="#DejaVuSans-2e" x="63.623047"/>
       <use xlink:href="#DejaVuSans-30" x="95.410156"/>
      </g>
     </g>
    </g>
    <g id="ytick_2">
     <g id="line2d_31">
      <path d="M 72 311.715 
L 518.4 311.715 
" clip-path="url(#pa6ffca6b69)" style="fill: none; stroke: #b0b0b0; stroke-width: 0.8; stroke-linecap: square"/>
     </g>
     <g id="line2d_32">
      <g>
       <use xlink:href="#mb404ec1083" x="72" y="311.715" style="stroke: #000000; stroke-width: 0.8"/>
      </g>
     </g>
     <g id="text_17">
      <!-- 0.5 -->
      <g transform="translate(49.096875 315.514219) scale(0.1 -0.1)">
       <use xlink:href="#DejaVuSans-30"/>
       <use xlink:href="#DejaVuSans-2e" x="63.623047"/>
       <use xlink:href="#DejaVuSans-35" x="95.410156"/>
      </g>
     </g>
    </g>
    <g id="ytick_3">
     <g id="line2d_33">
      <path d="M 72 259.74 
L 518.4 259.74 
" clip-path="url(#pa6ffca6b69)" style="fill: none; stroke: #b0b0b0; stroke-width: 0.8; stroke-linecap: square"/>
     </g>
     <g id="line2d_34">
      <g>
       <use xlink:href="#mb404ec1083" x="72" y="259.74" style="stroke: #000000; stroke-width: 0.8"/>
      </g>
     </g>
     <g id="text_18">
      <!-- 1.0 -->
      <g transform="translate(49.096875 263.539219) scale(0.1 -0.1)">
       <use xlink:href="#DejaVuSans-31"/>
       <use xlink:href="#DejaVuSans-2e" x="63.623047"/>
       <use xlink:href="#DejaVuSans-30" x="95.410156"/>
      </g>
     </g>
    </g>
    <g id="ytick_4">
     <g id="line2d_35">
      <path d="M 72 207.765 
L 518.4 207.765 
" clip-path="url(#pa6ffca6b69)" style="fill: none; stroke: #b0b0b0; stroke-width: 0.8; stroke-linecap: square"/>
     </g>
     <g id="line2d_36">
      <g>
       <use xlink:href="#mb404ec1083" x="72" y="207.765" style="stroke: #000000; stroke-width: 0.8"/>
      </g>
     </g>
     <g id="text_19">
      <!-- 1.5 -->
      <g transform="translate(49.096875 211.564219) scale(0.1 -0.1)">
       <use xlink:href="#DejaVuSans-31"/>
       <use xlink:href="#DejaVuSans-2e" x="63.623047"/>
       <use xlink:href="#DejaVuSans-35" x="95.410156"/>
      </g>
     </g>
    </g>
    <g id="ytick_5">
     <g id="line2d_37">
      <path d="M 72 155.79 
L 518.4 155.79 
" clip-path="url(#pa6ffca6b69)" style="fill: none; stroke: #b0b0b0; stroke-width: 0.8; stroke-linecap: square"/>
     </g>
     <g id="line2d_38">
      <g>
       <use xlink:href="#mb404ec1083" x="72" y="155.79" style="stroke: #000000; stroke-width: 0.8"/>
      </g>
     </g>
     <g id="text_20">
      <!-- 2.0 -->
      <g transform="translate(49.096875 159.589219) scale(0.1 -0.1)">
       <use xlink:href="#DejaVuSans-32"/>
       <use xlink:href="#DejaVuSans-2e" x="63.623047"/>
       <use xlink:href="#DejaVuSans-30" x="95.410156"/>
      </g>
     </g>
    </g>
    <g id="ytick_6">
     <g id="line2d_39">
      <path d="M 72 103.815 
L 518.4 103.815 
" clip-path="url(#pa6ffca6b69)" style="fill: none; stroke: #b0b0b0; stroke-width: 0.8; stroke-linecap: square"/>
     </g>
     <g id="line2d_40">
      <g>
       <use xlink:href="#mb404ec1083" x="72" y="103.815" style="stroke: #000000; stroke-width: 0.8"/>
      </g>
     </g>
     <g id="text_21">
      <!-- 2.5 -->
      <g transform="translate(49.096875 107.614219) scale(0.1 -0.1)">
       <use xlink:href="#DejaVuSans-32"/>
       <use xlink:href="#DejaVuSans-2e" x="63.623047"/>
       <use xlink:href="#DejaVuSans-35" x="95.410156"/>
      </g>
     </g>
    </g>
    <g id="ytick_7">
     <g id="line2d_41">
      <path d="M 72 51.84 
L 518.4 51.84 
" clip-path="url(#pa6ffca6b69)" style="fill: none; stroke: #b0b0b0; stroke-width: 0.8; stroke-linecap: square"/>
     </g>
     <g id="line2d_42">
      <g>
       <use xlink:href="#mb404ec1083" x="72" y="51.84" style="stroke: #000000; stroke-width: 0.8"/>
      </g>
     </g>
     <g id="text_22">
      <!-- 3.0 -->
      <g transform="translate(49.096875 55.639219) scale(0.1 -0.1)">
       <use xlink:href="#DejaVuSans-33"/>
       <use xlink:href="#DejaVuSans-2e" x="63.623047"/>
       <use xlink:href="#DejaVuSans-30" x="95.410156"/>
      </g>
     </g>
    </g>
    <g id="text_23">
     <!-- blank corrected OD600 -->
     <g transform="translate(43.017187 276.115469) rotate(-90) scale(0.1 -0.1)">
      <defs>
       <path id="DejaVuSans-62" d="M 3116 1747 
Q 3116 2381 2855 2742 
Q 2594 3103 2138 3103 
Q 1681 3103 1420 2742 
Q 1159 2381 1159 1747 
Q 1159 1113 1420 752 
Q 1681 391 2138 391 
Q 2594 391 2855 752 
Q 3116 1113 3116 1747 
z
M 1159 2969 
Q 1341 3281 1617 3432 
Q 1894 3584 2278 3584 
Q 2916 3584 3314 3078 
Q 3713 2572 3713 1747 
Q 3713 922 3314 415 
Q 2916 -91 2278 -91 
Q 1894 -91 1617 61 
Q 1341 213 1159 525 
L 1159 0 
L 581 0 
L 581 4863 
L 1159 4863 
L 1159 2969 
z
" transform="scale(0.015625)"/>
       <path id="DejaVuSans-6c" d="M 603 4863 
L 1178 4863 
L 1178 0 
L 603 0 
L 603 4863 
z
" transform="scale(0.015625)"/>
       <path id="DejaVuSans-61" d="M 2194 1759 
Q 1497 1759 1228 1600 
Q 959 1441 959 1056 
Q 959 750 1161 570 
Q 1363 391 1709 391 
Q 2188 391 2477 730 
Q 2766 1069 2766 1631 
L 2766 1759 
L 2194 1759 
z
M 3341 1997 
L 3341 0 
L 2766 0 
L 2766 531 
Q 2569 213 2275 61 
Q 1981 -91 1556 -91 
Q 1019 -91 701 211 
Q 384 513 384 1019 
Q 384 1609 779 1909 
Q 1175 2209 1959 2209 
L 2766 2209 
L 2766 2266 
Q 2766 2663 2505 2880 
Q 2244 3097 1772 3097 
Q 1472 3097 1187 3025 
Q 903 2953 641 2809 
L 641 3341 
Q 956 3463 1253 3523 
Q 1550 3584 1831 3584 
Q 2591 3584 2966 3190 
Q 3341 2797 3341 1997 
z
" transform="scale(0.015625)"/>
       <path id="DejaVuSans-6b" d="M 581 4863 
L 1159 4863 
L 1159 1991 
L 2875 3500 
L 3609 3500 
L 1753 1863 
L 3688 0 
L 2938 0 
L 1159 1709 
L 1159 0 
L 581 0 
L 581 4863 
z
" transform="scale(0.015625)"/>
       <path id="DejaVuSans-63" d="M 3122 3366 
L 3122 2828 
Q 2878 2963 2633 3030 
Q 2388 3097 2138 3097 
Q 1578 3097 1268 2742 
Q 959 2388 959 1747 
Q 959 1106 1268 751 
Q 1578 397 2138 397 
Q 2388 397 2633 464 
Q 2878 531 3122 666 
L 3122 134 
Q 2881 22 2623 -34 
Q 2366 -91 2075 -91 
Q 1284 -91 818 406 
Q 353 903 353 1747 
Q 353 2603 823 3093 
Q 1294 3584 2113 3584 
Q 2378 3584 2631 3529 
Q 2884 3475 3122 3366 
z
" transform="scale(0.015625)"/>
       <path id="DejaVuSans-64" d="M 2906 2969 
L 2906 4863 
L 3481 4863 
L 3481 0 
L 2906 0 
L 2906 525 
Q 2725 213 2448 61 
Q 2172 -91 1784 -91 
Q 1150 -91 751 415 
Q 353 922 353 1747 
Q 353 2572 751 3078 
Q 1150 3584 1784 3584 
Q 2172 3584 2448 3432 
Q 2725 3281 2906 2969 
z
M 947 1747 
Q 947 1113 1208 752 
Q 1469 391 1925 391 
Q 2381 391 2643 752 
Q 2906 1113 2906 1747 
Q 2906 2381 2643 2742 
Q 2381 3103 1925 3103 
Q 1469 3103 1208 2742 
Q 947 2381 947 1747 
z
" transform="scale(0.015625)"/>
       <path id="DejaVuSans-4f" d="M 2522 4238 
Q 1834 4238 1429 3725 
Q 1025 3213 1025 2328 
Q 1025 1447 1429 934 
Q 1834 422 2522 422 
Q 3209 422 3611 934 
Q 4013 1447 4013 2328 
Q 4013 3213 3611 3725 
Q 3209 4238 2522 4238 
z
M 2522 4750 
Q 3503 4750 4090 4092 
Q 4678 3434 4678 2328 
Q 4678 1225 4090 567 
Q 3503 -91 2522 -91 
Q 1538 -91 948 565 
Q 359 1222 359 2328 
Q 359 3434 948 4092 
Q 1538 4750 2522 4750 
z
" transform="scale(0.015625)"/>
       <path id="DejaVuSans-44" d="M 1259 4147 
L 1259 519 
L 2022 519 
Q 2988 519 3436 956 
Q 3884 1394 3884 2338 
Q 3884 3275 3436 3711 
Q 2988 4147 2022 4147 
L 1259 4147 
z
M 628 4666 
L 1925 4666 
Q 3281 4666 3915 4102 
Q 4550 3538 4550 2338 
Q 4550 1131 3912 565 
Q 3275 0 1925 0 
L 628 0 
L 628 4666 
z
" transform="scale(0.015625)"/>
      </defs>
      <use xlink:href="#DejaVuSans-62"/>
      <use xlink:href="#DejaVuSans-6c" x="63.476562"/>
      <use xlink:href="#DejaVuSans-61" x="91.259766"/>
      <use xlink:href="#DejaVuSans-6e" x="152.539062"/>
      <use xlink:href="#DejaVuSans-6b" x="215.917969"/>
      <use xlink:href="#DejaVuSans-20" x="273.828125"/>
      <use xlink:href="#DejaVuSans-63" x="305.615234"/>
      <use xlink:href="#DejaVuSans-6f" x="360.595703"/>
      <use xlink:href="#DejaVuSans-72" x="421.777344"/>
      <use xlink:href="#DejaVuSans-72" x="461.140625"/>
      <use xlink:href="#DejaVuSans-65" x="500.003906"/>
      <use xlink:href="#DejaVuSans-63" x="561.527344"/>
      <use xlink:href="#DejaVuSans-74" x="616.507812"/>
      <use xlink:href="#DejaVuSans-65" x="655.716797"/>
      <use xlink:href="#DejaVuSans-64" x="717.240234"/>
      <use xlink:href="#DejaVuSans-20" x="780.716797"/>
      <use xlink:href="#DejaVuSans-4f" x="812.503906"/>
      <use xlink:href="#DejaVuSans-44" x="891.214844"/>
      <use xlink:href="#DejaVuSans-36" x="968.216797"/>
      <use xlink:href="#DejaVuSans-30" x="1031.839844"/>
      <use xlink:href="#DejaVuSans-30" x="1095.462891"/>
     </g>
    </g>
   </g>
   <g id="line2d_43">
    <path d="M 92.290909 360.989379 
L 93.027421 369.305379 
L 93.763933 369.305379 
L 94.500445 367.434279 
L 95.236958 364.939479 
L 95.97347 363.796029 
L 96.709982 364.627629 
L 97.446494 364.939479 
L 98.183006 363.380229 
L 98.919518 364.627629 
L 99.65603 364.107879 
L 100.392542 366.394779 
L 101.129055 364.731579 
L 101.865567 365.978979 
L 103.338591 366.602679 
L 104.075103 365.978979 
L 104.811615 366.290829 
L 105.548127 367.018479 
L 106.284639 367.122429 
L 107.021152 367.850079 
L 107.757664 366.602679 
L 108.494176 367.954029 
L 109.230688 368.577729 
L 109.9672 368.681679 
L 110.703712 369.513279 
L 111.440224 369.201429 
L 112.176737 368.681679 
L 112.913249 369.305379 
L 113.649761 368.993529 
L 114.386273 369.617229 
L 115.122785 368.785629 
L 115.859297 369.201429 
L 116.595809 369.201429 
L 117.332321 369.513279 
L 118.805346 369.825129 
L 119.541858 368.577729 
L 120.27837 369.721179 
L 121.014882 369.721179 
L 121.751394 370.240929 
L 122.487906 369.617229 
L 123.224418 370.136979 
L 123.960931 369.721179 
L 124.697443 369.721179 
L 125.433955 370.344879 
L 126.906979 370.448829 
L 127.643491 369.929079 
L 128.380003 370.344879 
L 129.853028 370.448829 
L 130.58954 369.721179 
L 131.326052 370.033029 
L 132.062564 369.929079 
L 132.799076 369.409329 
L 133.535588 369.097479 
L 135.008612 369.409329 
L 135.745125 368.265879 
L 136.481637 369.513279 
L 137.218149 369.305379 
L 137.954661 369.409329 
L 138.691173 368.681679 
L 139.427685 369.409329 
L 140.164197 369.305379 
L 140.900709 368.369829 
L 142.373734 368.889579 
L 143.110246 366.394779 
L 143.846758 365.978979 
L 144.58327 368.161929 
L 145.319782 367.538229 
L 146.056294 366.290829 
L 146.792806 367.018479 
L 147.529319 367.018479 
L 148.265831 363.380229 
L 149.002343 366.810579 
L 149.738855 364.731579 
L 150.475367 366.290829 
L 151.211879 363.796029 
L 151.948391 361.924929 
L 152.684903 360.989379 
L 153.421416 361.405179 
L 154.157928 363.899979 
L 154.89444 363.484179 
L 155.630952 361.924929 
L 156.367464 363.068379 
L 157.103976 362.236779 
L 157.840488 363.172329 
L 158.577 361.301229 
L 159.313513 363.068379 
L 160.050025 361.093329 
L 160.786537 366.290829 
L 161.523049 366.186879 
L 162.259561 363.276279 
L 162.996073 363.276279 
L 163.732585 362.964429 
L 164.469098 361.301229 
L 165.20561 361.717029 
L 165.942122 364.211829 
L 166.678634 360.885429 
L 167.415146 360.365679 
L 168.151658 361.405179 
L 168.88817 359.534079 
L 170.361195 360.469629 
L 171.097707 362.756529 
L 171.834219 361.613079 
L 172.570731 359.534079 
L 173.307243 361.717029 
L 174.043755 361.717029 
L 174.780267 360.469629 
L 175.516779 361.717029 
L 177.726316 361.820979 
L 178.462828 362.548629 
L 179.935852 362.444679 
L 180.672364 362.132829 
L 182.881901 361.924929 
L 183.618413 359.430129 
L 184.354925 361.301229 
L 185.827949 359.949879 
L 186.564461 359.326179 
L 187.300973 359.326179 
L 188.037486 358.494579 
L 188.773998 358.598529 
L 189.51051 356.415579 
L 190.247022 356.207679 
L 190.983534 356.727429 
L 191.720046 354.960279 
L 192.456558 355.168179 
L 193.19307 354.544479 
L 193.929583 352.777329 
L 194.666095 352.777329 
L 195.402607 351.633879 
L 198.348655 350.802279 
L 199.085167 350.906229 
L 199.82168 349.866729 
L 200.558192 349.450929 
L 201.294704 348.203529 
L 202.031216 348.099579 
L 202.767728 347.164029 
L 203.50424 347.267979 
L 204.977264 346.124529 
L 205.713777 345.292929 
L 206.450289 343.941579 
L 207.186801 344.253429 
L 207.923313 343.421829 
L 208.659825 341.550729 
L 209.396337 341.446779 
L 210.132849 341.862579 
L 210.869361 342.070479 
L 211.605874 341.966529 
L 212.342386 342.174429 
L 213.078898 341.862579 
L 213.81541 341.238879 
L 214.551922 341.134929 
L 215.288434 341.238879 
L 216.024946 340.511229 
L 216.761459 340.303329 
L 218.234483 339.367779 
L 218.970995 338.536179 
L 219.707507 337.496679 
L 220.444019 338.016429 
L 221.180531 337.496679 
L 221.917043 336.457179 
L 222.653556 336.041379 
L 223.390068 335.833479 
L 224.12658 335.313729 
L 224.863092 334.482129 
L 226.336116 333.962379 
L 227.072628 333.130779 
L 229.282165 331.467579 
L 230.018677 330.324129 
L 230.755189 330.220179 
L 231.491701 329.492529 
L 232.228213 328.349079 
L 233.701237 326.789829 
L 234.43775 325.438479 
L 235.174262 325.334529 
L 235.910774 324.191079 
L 236.647286 323.463429 
L 237.383798 322.423929 
L 238.12031 321.592329 
L 238.856822 320.448879 
L 240.329847 319.513329 
L 241.066359 317.642229 
L 241.802871 317.642229 
L 242.539383 316.498779 
L 243.275895 316.186929 
L 244.012407 315.043479 
L 244.748919 314.107929 
L 245.485431 312.860529 
L 246.221944 312.236829 
L 246.958456 311.197329 
L 247.694968 309.430179 
L 248.43148 309.014379 
L 249.904504 306.103779 
L 251.377528 304.128729 
L 252.114041 303.608979 
L 252.850553 301.945779 
L 253.587065 300.906279 
L 254.323577 300.490479 
L 255.796601 298.307529 
L 256.533113 297.579879 
L 257.269625 297.268029 
L 258.006138 296.332479 
L 258.74265 294.357429 
L 259.479162 293.629779 
L 260.215674 292.590279 
L 261.688698 289.991529 
L 262.42521 289.679679 
L 263.161722 288.952029 
L 263.898235 287.600679 
L 264.634747 287.184879 
L 265.371259 285.833529 
L 266.107771 284.897979 
L 266.844283 283.650579 
L 267.580795 282.922929 
L 268.317307 280.947879 
L 269.05382 281.051829 
L 270.526844 278.764929 
L 271.263356 278.764929 
L 272.73638 277.413579 
L 273.472892 276.374079 
L 274.209404 276.166179 
L 274.945917 275.126679 
L 275.682429 274.399029 
L 276.418941 273.151629 
L 277.155453 272.320029 
L 278.628477 270.344979 
L 280.101501 269.305479 
L 280.838014 268.265979 
L 282.311038 266.602779 
L 283.04755 265.043529 
L 283.784062 264.731679 
L 285.257086 263.172429 
L 285.993598 262.964529 
L 286.730111 261.509229 
L 287.466623 260.989479 
L 288.203135 259.118379 
L 288.939647 258.702579 
L 289.676159 257.767029 
L 290.412671 256.519629 
L 291.149183 255.584079 
L 293.35872 252.153729 
L 294.095232 251.426079 
L 294.831744 250.386579 
L 295.568256 249.658929 
L 296.304768 248.723379 
L 297.04128 248.307579 
L 297.777792 247.060179 
L 298.514305 246.436479 
L 299.250817 245.604879 
L 299.987329 244.461429 
L 300.723841 243.629829 
L 301.460353 242.590329 
L 302.196865 242.278479 
L 302.933377 241.135029 
L 303.669889 240.199479 
L 304.406402 238.744179 
L 305.142914 237.808629 
L 305.879426 236.665179 
L 307.35245 233.546679 
L 311.035011 227.309679 
L 311.771523 224.918829 
L 312.508035 225.334629 
L 314.717571 221.904279 
L 316.190596 219.409479 
L 317.66362 217.226529 
L 318.400132 215.355429 
L 319.136644 213.900129 
L 319.873156 213.068529 
L 320.609668 211.301379 
L 321.34618 209.222379 
L 322.082693 207.767079 
L 323.555717 203.816979 
L 324.292229 202.673529 
L 325.028741 199.762929 
L 325.765253 198.203679 
L 326.501765 196.332579 
L 329.447814 187.392879 
L 330.184326 184.482279 
L 330.920838 182.611179 
L 331.65735 179.284779 
L 333.130375 174.814929 
L 333.866887 174.399129 
L 335.339911 168.473979 
L 336.076423 167.642379 
L 336.812935 164.731779 
L 337.549447 163.276479 
L 338.285959 160.885629 
L 339.022472 159.222429 
L 340.495496 154.232829 
L 341.96852 150.698529 
L 342.705032 147.476079 
L 343.441544 146.644479 
L 344.178056 144.149679 
L 344.914569 142.382529 
L 345.651081 141.031179 
L 346.387593 137.600829 
L 347.124105 136.353429 
L 347.860617 132.715179 
L 348.597129 131.571729 
L 351.543178 122.112279 
L 352.27969 121.280679 
L 353.016202 118.266129 
L 353.752714 116.083179 
L 354.489226 114.419979 
L 355.225738 112.340979 
L 355.96225 111.717279 
L 356.698763 110.365929 
L 357.435275 107.663229 
L 358.171787 106.103979 
L 358.908299 102.881529 
L 359.644811 100.698579 
L 360.381323 99.555129 
L 361.117835 98.827479 
L 361.854347 96.332679 
L 362.59086 91.654929 
L 363.327372 90.511479 
L 364.063884 88.640379 
L 364.800396 85.417929 
L 365.536908 83.442879 
L 366.27342 82.299429 
L 367.009932 80.636229 
L 367.746444 78.453279 
L 368.482957 73.255779 
L 370.692493 67.434579 
L 371.429005 62.444979 
L 372.165517 61.509429 
L 372.902029 59.638329 
L 373.638541 53.193429 
L 374.375054 53.193429 
L 375.111566 49.867029 
L 375.848078 45.501129 
L 376.58459 47.580129 
L 377.321102 45.501129 
L 378.057614 36.457479 
L 378.794126 35.937729 
L 379.530639 38.952279 
L 380.267151 36.353529 
L 381.003663 41.551029 
L 381.740175 42.382629 
L 382.476687 41.966829 
L 383.213199 43.110279 
L 383.949711 46.124829 
L 384.686223 43.214229 
L 385.422736 47.788029 
L 386.159248 45.812979 
L 386.89576 49.555179 
L 388.368784 43.006329 
L 389.105296 49.763079 
L 389.841808 49.970979 
L 390.57832 44.877429 
L 391.314833 48.931479 
L 392.051345 46.956429 
L 393.524369 49.451229 
L 394.260881 44.669529 
L 394.997393 46.852479 
L 395.733905 49.970979 
L 396.470417 45.812979 
L 397.20693 48.203829 
L 397.943442 51.114429 
L 398.679954 51.114429 
L 399.416466 54.752679 
L 400.152978 51.426279 
L 400.88949 49.243329 
L 401.626002 53.609229 
L 402.362514 53.089479 
L 403.099027 55.584279 
L 403.835539 53.089479 
L 404.572051 56.831679 
L 405.308563 53.921079 
L 406.045075 54.856629 
L 406.781587 57.351429 
L 407.518099 55.376379 
L 408.254611 54.440829 
L 408.991124 59.742279 
L 409.727636 59.118579 
L 410.464148 55.792179 
L 411.20066 61.405479 
L 411.937172 60.781779 
L 412.673684 62.444979 
L 413.410196 59.222529 
L 414.146708 61.613379 
L 414.883221 63.068679 
L 415.619733 62.029179 
L 416.356245 61.301529 
L 417.092757 65.667429 
L 417.829269 65.147679 
L 418.565781 63.588429 
L 419.302293 65.147679 
L 420.038805 66.291129 
L 420.775318 63.380529 
L 421.51183 65.459529 
L 422.248342 65.459529 
L 422.984854 67.538529 
L 423.721366 66.914829 
L 424.457878 66.706929 
L 425.19439 65.771379 
L 425.930902 70.345179 
L 426.667415 70.968879 
L 427.403927 70.760979 
L 428.140439 72.424179 
L 428.876951 71.176779 
L 429.613463 71.488629 
L 430.349975 68.578029 
L 431.086487 74.918979 
L 431.823 73.151829 
L 432.559512 72.320229 
L 433.296024 73.983429 
L 434.032536 73.567629 
L 434.769048 74.815029 
L 435.50556 75.750579 
L 436.242072 75.022929 
L 436.978584 76.686129 
L 437.715097 78.037479 
L 438.451609 74.503179 
L 439.188121 75.126879 
L 439.924633 76.374279 
L 440.661145 77.101929 
L 441.397657 76.790079 
L 442.134169 79.388829 
L 442.870681 78.141429 
L 443.607194 80.428329 
L 444.343706 78.765129 
L 445.81673 81.467829 
L 446.553242 81.675729 
L 447.289754 83.027079 
L 448.026266 85.521879 
L 448.762778 83.650779 
L 449.499291 82.611279 
L 450.235803 82.507329 
L 450.972315 83.442879 
L 451.708827 83.027079 
L 452.445339 81.571779 
L 453.181851 82.403379 
L 453.918363 83.546829 
L 454.654875 85.625829 
L 455.391388 86.353479 
L 456.1279 84.794229 
L 456.864412 86.561379 
L 457.600924 86.873229 
L 458.337436 84.794229 
L 459.073948 86.145579 
L 459.81046 89.264079 
L 460.546972 88.120629 
L 461.283485 88.536429 
L 462.019997 88.744329 
L 462.756509 89.160129 
L 463.493021 92.070729 
L 464.229533 90.719379 
L 464.966045 90.303579 
L 465.702557 90.823329 
L 466.439069 92.070729 
L 467.175582 91.758879 
L 467.912094 92.486529 
L 468.648606 92.590479 
L 469.385118 94.253679 
L 470.12163 93.526029 
L 470.858142 92.070729 
L 471.594654 92.486529 
L 472.331166 96.748479 
L 473.067679 93.733929 
L 473.804191 95.812929 
L 474.540703 94.357629 
L 475.277215 96.748479 
L 476.013727 95.501079 
L 476.750239 96.228729 
L 477.486751 96.436629 
L 478.223263 97.268229 
L 478.959776 97.580079 
L 479.696288 96.228729 
L 480.4328 96.748479 
L 481.169312 99.451179 
L 481.905824 97.268229 
L 482.642336 97.787979 
L 483.378848 99.659079 
L 484.115361 97.580079 
L 484.851873 99.139329 
L 485.588385 99.035379 
L 487.061409 100.906479 
L 487.797921 99.555129 
L 488.534433 100.490679 
L 489.270945 101.218329 
L 490.007458 101.010429 
L 490.74397 101.530179 
L 491.480482 101.010429 
L 492.216994 103.921029 
L 492.953506 103.713129 
L 493.690018 101.738079 
L 494.42653 102.881529 
L 495.163042 102.361779 
L 496.636067 102.673629 
L 497.372579 103.297329 
L 498.109091 102.881529 
L 498.109091 102.881529 
" clip-path="url(#pa6ffca6b69)" style="fill: none; stroke: #0000ff; stroke-opacity: 0.5; stroke-width: 1.5; stroke-linecap: square"/>
   </g>
   <g id="line2d_44">
    <path d="M 92.290909 361.717029 
L 93.027421 367.226379 
L 93.763933 367.746129 
L 94.500445 369.097479 
L 95.236958 363.796029 
L 95.97347 361.924929 
L 96.709982 364.523679 
L 97.446494 364.419729 
L 98.183006 364.939479 
L 98.919518 364.211829 
L 99.65603 365.875029 
L 100.392542 364.835529 
L 101.129055 365.875029 
L 101.865567 364.523679 
L 102.602079 364.627629 
L 104.075103 367.018479 
L 104.811615 366.602679 
L 105.548127 365.667129 
L 106.284639 367.122429 
L 107.021152 367.330329 
L 107.757664 365.667129 
L 108.494176 366.186879 
L 109.230688 366.082929 
L 109.9672 367.538229 
L 110.703712 368.265879 
L 111.440224 368.473779 
L 112.913249 369.409329 
L 113.649761 368.161929 
L 114.386273 369.617229 
L 115.122785 369.097479 
L 116.595809 369.409329 
L 117.332321 369.721179 
L 119.541858 369.201429 
L 120.27837 369.409329 
L 123.224418 368.889579 
L 124.697443 369.305379 
L 125.433955 369.201429 
L 126.906979 369.513279 
L 127.643491 368.889579 
L 128.380003 369.513279 
L 129.116515 369.409329 
L 129.853028 369.721179 
L 130.58954 368.993529 
L 132.062564 369.097479 
L 132.799076 368.577729 
L 135.008612 368.785629 
L 135.745125 368.369829 
L 136.481637 369.201429 
L 137.218149 369.409329 
L 137.954661 369.409329 
L 138.691173 369.201429 
L 139.427685 369.617229 
L 140.164197 368.785629 
L 140.900709 368.889579 
L 141.637222 368.785629 
L 143.110246 369.097479 
L 143.846758 367.850079 
L 144.58327 368.473779 
L 145.319782 368.785629 
L 146.056294 368.473779 
L 146.792806 368.993529 
L 147.529319 368.993529 
L 148.265831 367.330329 
L 149.002343 368.057979 
L 149.738855 367.434279 
L 151.211879 365.459229 
L 152.684903 365.251329 
L 153.421416 365.355279 
L 154.157928 364.939479 
L 154.89444 364.107879 
L 155.630952 364.419729 
L 156.367464 365.875029 
L 157.103976 366.290829 
L 157.840488 365.043429 
L 158.577 366.290829 
L 159.313513 364.523679 
L 160.050025 365.355279 
L 160.786537 365.771079 
L 161.523049 365.978979 
L 162.259561 364.939479 
L 164.469098 364.003929 
L 165.20561 364.003929 
L 165.942122 365.459229 
L 166.678634 363.068379 
L 167.415146 361.924929 
L 169.624682 362.340729 
L 170.361195 363.276279 
L 171.097707 364.523679 
L 171.834219 363.172329 
L 172.570731 362.860479 
L 173.307243 363.380229 
L 174.043755 363.380229 
L 174.780267 362.444679 
L 176.253292 363.068379 
L 176.989804 362.964429 
L 177.726316 363.068379 
L 178.462828 362.964429 
L 179.19934 362.652579 
L 179.935852 362.860479 
L 180.672364 362.444679 
L 181.408876 362.444679 
L 182.145389 362.028879 
L 182.881901 362.756529 
L 183.618413 361.717029 
L 184.354925 362.236779 
L 185.091437 361.717029 
L 185.827949 360.989379 
L 186.564461 360.469629 
L 187.300973 360.469629 
L 188.037486 359.222229 
L 188.773998 359.222229 
L 190.247022 357.455079 
L 190.983534 357.143229 
L 191.720046 355.791879 
L 192.456558 355.376079 
L 193.929583 353.816829 
L 194.666095 352.569429 
L 195.402607 352.153629 
L 196.139119 352.049679 
L 196.875631 351.425979 
L 197.612143 351.425979 
L 198.348655 351.114129 
L 199.085167 350.490429 
L 199.82168 350.490429 
L 200.558192 349.970679 
L 201.294704 349.035129 
L 202.031216 348.723279 
L 204.977264 346.748229 
L 205.713777 345.396879 
L 206.450289 345.085029 
L 207.186801 345.085029 
L 207.923313 344.253429 
L 209.396337 343.109979 
L 210.132849 342.694179 
L 210.869361 342.486279 
L 211.605874 342.070479 
L 212.342386 342.590229 
L 213.078898 342.486279 
L 214.551922 341.134929 
L 216.024946 340.823079 
L 216.761459 341.134929 
L 217.497971 339.159879 
L 218.234483 339.887529 
L 218.970995 339.679629 
L 220.444019 338.120379 
L 221.917043 337.808529 
L 222.653556 336.872979 
L 223.390068 336.665079 
L 224.12658 335.833479 
L 226.336116 335.209779 
L 227.072628 334.690029 
L 227.80914 333.858429 
L 228.545653 333.234729 
L 229.282165 332.922879 
L 230.018677 332.299179 
L 230.755189 332.091279 
L 231.491701 331.155729 
L 232.228213 330.635979 
L 232.964725 329.596479 
L 233.701237 329.180679 
L 234.43775 328.245129 
L 235.174262 327.101679 
L 236.647286 325.334529 
L 237.383798 324.502929 
L 238.856822 323.255529 
L 239.593334 323.255529 
L 240.329847 322.319979 
L 241.066359 321.592329 
L 241.802871 320.344929 
L 242.539383 319.825179 
L 243.275895 318.993579 
L 244.012407 317.746179 
L 244.748919 317.642229 
L 245.485431 316.186929 
L 246.221944 315.147429 
L 247.694968 313.484229 
L 250.641016 308.390679 
L 251.377528 307.870929 
L 252.114041 307.143279 
L 252.850553 305.584029 
L 253.587065 305.272179 
L 254.323577 304.024779 
L 255.060089 303.816879 
L 255.796601 302.361579 
L 257.269625 301.426029 
L 259.479162 297.579879 
L 260.215674 296.748279 
L 261.688698 294.773229 
L 262.42521 293.006079 
L 263.161722 292.798179 
L 263.898235 291.446829 
L 264.634747 290.823129 
L 265.371259 289.471779 
L 266.107771 288.952029 
L 266.844283 288.120429 
L 267.580795 286.873029 
L 268.317307 285.937479 
L 269.05382 285.417729 
L 269.790332 284.378229 
L 270.526844 284.170329 
L 271.263356 280.636029 
L 271.999868 281.571579 
L 272.73638 280.324179 
L 273.472892 279.700479 
L 274.209404 280.116279 
L 274.945917 279.284679 
L 275.682429 278.660979 
L 276.418941 277.725429 
L 277.891965 275.542479 
L 278.628477 275.230629 
L 279.364989 274.606929 
L 280.101501 273.255579 
L 280.838014 272.320029 
L 281.574526 271.800279 
L 283.04755 268.785729 
L 283.784062 268.785729 
L 284.520574 267.538329 
L 285.257086 266.914629 
L 285.993598 266.602779 
L 286.730111 265.355379 
L 287.466623 264.939579 
L 288.939647 262.444779 
L 289.676159 262.132929 
L 290.412671 261.301329 
L 291.149183 260.261829 
L 291.885695 259.638129 
L 292.622208 258.182829 
L 293.35872 257.455179 
L 294.831744 254.648529 
L 296.304768 253.193229 
L 297.04128 252.049779 
L 297.777792 251.114229 
L 298.514305 250.698429 
L 299.250817 249.347079 
L 299.987329 248.619429 
L 300.723841 247.372029 
L 302.196865 245.604879 
L 302.933377 245.189079 
L 303.669889 243.214029 
L 304.406402 241.966629 
L 305.142914 241.550829 
L 306.615938 239.263929 
L 307.35245 236.873079 
L 308.088962 236.145429 
L 309.561986 233.338779 
L 310.298499 232.195329 
L 311.035011 230.220279 
L 311.771523 229.804479 
L 312.508035 227.725479 
L 313.244547 226.270179 
L 313.981059 225.438579 
L 314.717571 224.399079 
L 315.454083 222.631929 
L 316.927108 219.721329 
L 317.66362 218.577879 
L 318.400132 216.394929 
L 319.136644 215.563329 
L 320.609668 212.236929 
L 321.34618 210.573729 
L 322.082693 208.598679 
L 322.819205 207.143379 
L 323.555717 205.376229 
L 324.292229 203.297229 
L 325.028741 200.802429 
L 325.765253 198.723429 
L 326.501765 197.060229 
L 327.238278 194.981229 
L 327.97479 193.525929 
L 328.711302 191.031129 
L 329.447814 189.679779 
L 330.184326 187.496829 
L 331.65735 184.274379 
L 332.393862 181.779579 
L 333.130375 180.116379 
L 333.866887 178.141329 
L 334.603399 175.022829 
L 335.339911 173.879379 
L 336.076423 171.904329 
L 336.812935 169.201629 
L 337.549447 167.018679 
L 338.285959 165.563379 
L 339.758984 161.405379 
L 340.495496 158.390829 
L 341.232008 157.247379 
L 341.96852 154.336779 
L 343.441544 150.698529 
L 344.914569 145.397079 
L 345.651081 144.045729 
L 346.387593 142.174629 
L 347.860617 137.600829 
L 350.070153 129.076929 
L 350.806666 128.661129 
L 352.27969 123.359679 
L 353.016202 122.008329 
L 353.752714 119.929329 
L 354.489226 119.305629 
L 355.225738 118.058229 
L 356.698763 112.964679 
L 358.171787 110.365929 
L 358.908299 106.831629 
L 359.644811 106.103979 
L 360.381323 104.544729 
L 361.117835 101.842029 
L 362.59086 95.293179 
L 363.327372 93.526029 
L 364.063884 90.719379 
L 364.800396 89.368029 
L 366.27342 85.313979 
L 367.009932 82.091529 
L 367.746444 81.363879 
L 368.482957 77.413779 
L 369.219469 76.270329 
L 369.955981 74.399229 
L 370.692493 71.280729 
L 371.429005 66.499029 
L 372.165517 64.523979 
L 372.902029 64.523979 
L 373.638541 57.351429 
L 374.375054 57.559329 
L 375.111566 56.415879 
L 375.848078 49.139379 
L 376.58459 50.906529 
L 377.321102 47.891979 
L 378.057614 41.862879 
L 378.794126 45.605079 
L 379.530639 41.343129 
L 380.267151 40.095729 
L 381.003663 43.941879 
L 381.740175 43.837929 
L 382.476687 45.189279 
L 383.213199 44.253729 
L 383.949711 49.243329 
L 384.686223 47.788029 
L 385.422736 47.891979 
L 386.159248 49.970979 
L 386.89576 48.723579 
L 387.632272 46.748529 
L 388.368784 48.827529 
L 389.105296 49.035429 
L 389.841808 50.386779 
L 390.57832 48.411729 
L 392.051345 51.114429 
L 392.787857 50.698629 
L 393.524369 54.544779 
L 394.260881 49.763079 
L 394.997393 55.376379 
L 395.733905 53.505279 
L 396.470417 52.777629 
L 397.20693 55.168479 
L 397.943442 53.817129 
L 398.679954 53.609229 
L 399.416466 51.946029 
L 400.152978 57.247479 
L 400.88949 55.584279 
L 401.626002 56.519829 
L 402.362514 57.143529 
L 403.099027 56.415879 
L 403.835539 56.519829 
L 404.572051 60.158079 
L 405.308563 57.767229 
L 406.045075 57.767229 
L 407.518099 59.742279 
L 408.254611 58.079079 
L 408.991124 64.316079 
L 409.727636 57.351429 
L 410.464148 61.197579 
L 411.20066 62.341029 
L 411.937172 62.756829 
L 412.673684 62.444979 
L 413.410196 61.405479 
L 414.146708 64.108179 
L 414.883221 67.330629 
L 415.619733 65.459529 
L 416.356245 62.860779 
L 417.092757 65.875329 
L 417.829269 67.018779 
L 419.302293 63.692379 
L 420.038805 67.330629 
L 420.775318 65.771379 
L 422.248342 68.474079 
L 422.984854 69.825429 
L 423.721366 68.474079 
L 424.457878 68.578029 
L 425.19439 68.058279 
L 425.930902 71.176779 
L 426.667415 71.488629 
L 427.403927 71.488629 
L 428.140439 70.345179 
L 428.876951 73.151829 
L 429.613463 68.474079 
L 430.349975 69.721479 
L 431.086487 71.696529 
L 431.823 75.230829 
L 432.559512 72.216279 
L 433.296024 73.983429 
L 434.032536 76.270329 
L 434.769048 76.894029 
L 435.50556 76.166379 
L 436.242072 73.671579 
L 436.978584 78.661179 
L 437.715097 75.646629 
L 438.451609 76.270329 
L 439.924633 78.869079 
L 440.661145 79.804629 
L 441.397657 78.661179 
L 442.134169 78.557229 
L 442.870681 76.686129 
L 443.607194 79.284879 
L 444.343706 79.180929 
L 445.080218 81.883629 
L 445.81673 81.363879 
L 446.553242 80.428329 
L 447.289754 82.715229 
L 448.026266 83.650779 
L 448.762778 84.378429 
L 449.499291 82.507329 
L 450.235803 81.987579 
L 450.972315 82.507329 
L 451.708827 81.571779 
L 452.445339 82.715229 
L 453.181851 84.482379 
L 453.918363 82.403379 
L 454.654875 83.962629 
L 455.391388 84.586329 
L 456.1279 85.521879 
L 457.600924 84.378429 
L 458.337436 85.313979 
L 459.073948 85.729779 
L 459.81046 87.912729 
L 460.546972 88.744329 
L 462.019997 88.328529 
L 462.756509 88.848279 
L 463.493021 90.095679 
L 464.229533 89.160129 
L 464.966045 92.070729 
L 465.702557 88.640379 
L 466.439069 90.095679 
L 467.175582 89.679879 
L 467.912094 89.991729 
L 468.648606 91.031229 
L 469.385118 93.006279 
L 470.12163 92.486529 
L 470.858142 90.407529 
L 471.594654 90.719379 
L 472.331166 92.174679 
L 473.067679 92.382579 
L 473.804191 95.293179 
L 474.540703 94.565529 
L 475.277215 95.812929 
L 476.013727 93.318129 
L 476.750239 95.397129 
L 477.486751 95.189229 
L 478.223263 94.773429 
L 478.959776 96.020829 
L 480.4328 95.085279 
L 481.169312 96.956379 
L 481.905824 96.020829 
L 482.642336 96.124779 
L 483.378848 99.555129 
L 484.115361 95.397129 
L 484.851873 98.411679 
L 485.588385 99.451179 
L 486.324897 98.307729 
L 487.797921 98.411679 
L 488.534433 99.035379 
L 489.270945 99.035379 
L 490.007458 99.659079 
L 490.74397 99.347229 
L 491.480482 100.594629 
L 492.216994 101.010429 
L 492.953506 100.594629 
L 493.690018 100.386729 
L 494.42653 101.634129 
L 495.163042 102.153879 
L 495.899555 99.970929 
L 496.636067 100.906479 
L 498.109091 101.530179 
L 498.109091 101.530179 
" clip-path="url(#pa6ffca6b69)" style="fill: none; stroke: #0000ff; stroke-opacity: 0.5; stroke-width: 1.5; stroke-linecap: square"/>
   </g>
   <g id="line2d_45">
    <path d="M 92.290909 359.638029 
L 93.027421 368.577729 
L 93.763933 369.097479 
L 94.500445 365.667129 
L 95.236958 364.731579 
L 95.97347 365.043429 
L 96.709982 365.667129 
L 97.446494 365.875029 
L 98.183006 363.588129 
L 98.919518 363.276279 
L 99.65603 365.147379 
L 100.392542 365.147379 
L 101.129055 366.394779 
L 101.865567 365.043429 
L 102.602079 364.627629 
L 103.338591 366.914529 
L 104.811615 367.434279 
L 105.548127 366.914529 
L 106.284639 368.265879 
L 107.021152 368.473779 
L 107.757664 366.498729 
L 108.494176 367.642179 
L 109.230688 366.498729 
L 109.9672 368.265879 
L 110.703712 367.642179 
L 111.440224 368.577729 
L 112.176737 368.889579 
L 112.913249 369.409329 
L 113.649761 367.018479 
L 114.386273 369.825129 
L 115.122785 368.993529 
L 115.859297 368.993529 
L 116.595809 369.513279 
L 117.332321 370.344879 
L 118.068834 369.929079 
L 118.805346 370.033029 
L 119.541858 369.513279 
L 120.27837 369.929079 
L 121.014882 370.136979 
L 121.751394 370.033029 
L 122.487906 369.721179 
L 123.960931 369.721179 
L 125.433955 370.033029 
L 126.170467 369.617229 
L 126.906979 369.617229 
L 127.643491 369.305379 
L 128.380003 369.305379 
L 129.116515 369.721179 
L 129.853028 369.929079 
L 130.58954 369.201429 
L 131.326052 368.993529 
L 132.062564 369.097479 
L 132.799076 368.265879 
L 133.535588 369.097479 
L 134.2721 368.473779 
L 135.008612 369.201429 
L 135.745125 368.889579 
L 136.481637 367.122429 
L 137.954661 366.290829 
L 138.691173 367.642179 
L 139.427685 366.810579 
L 140.164197 366.186879 
L 140.900709 367.850079 
L 141.637222 363.380229 
L 142.373734 367.122429 
L 143.110246 366.082929 
L 143.846758 368.993529 
L 145.319782 367.226379 
L 146.056294 368.473779 
L 147.529319 366.706629 
L 148.265831 368.577729 
L 149.002343 368.785629 
L 149.738855 368.785629 
L 150.475367 367.850079 
L 151.211879 367.954029 
L 151.948391 367.226379 
L 152.684903 367.226379 
L 154.157928 368.369829 
L 156.367464 367.330329 
L 157.103976 366.810579 
L 157.840488 365.355279 
L 158.577 366.706629 
L 159.313513 366.082929 
L 160.050025 367.226379 
L 161.523049 365.667129 
L 162.259561 365.459229 
L 162.996073 367.538229 
L 163.732585 367.434279 
L 165.20561 366.290829 
L 165.942122 366.290829 
L 166.678634 365.563179 
L 167.415146 364.627629 
L 168.151658 365.355279 
L 171.097707 365.875029 
L 173.307243 364.939479 
L 174.780267 365.459229 
L 175.516779 365.667129 
L 176.253292 365.355279 
L 177.726316 365.459229 
L 178.462828 365.459229 
L 179.19934 365.147379 
L 179.935852 365.459229 
L 180.672364 364.939479 
L 181.408876 364.939479 
L 182.145389 364.211829 
L 182.881901 361.820979 
L 183.618413 363.276279 
L 185.091437 363.380229 
L 186.564461 361.093329 
L 187.300973 361.509129 
L 188.037486 359.949879 
L 188.773998 360.157779 
L 189.51051 359.118279 
L 190.983534 358.390629 
L 191.720046 357.143229 
L 192.456558 356.831379 
L 193.19307 355.064229 
L 193.929583 353.712879 
L 194.666095 352.673379 
L 195.402607 350.698329 
L 196.139119 353.816829 
L 196.875631 353.193129 
L 197.612143 352.985229 
L 198.348655 350.282529 
L 199.085167 351.529929 
L 200.558192 350.178579 
L 201.294704 349.035129 
L 202.031216 349.035129 
L 202.767728 348.411429 
L 203.50424 348.203529 
L 204.240752 347.683779 
L 204.977264 347.891679 
L 205.713777 344.357379 
L 206.450289 345.916629 
L 207.186801 345.604779 
L 207.923313 344.773179 
L 208.659825 344.149479 
L 209.396337 343.837629 
L 210.132849 343.317879 
L 211.605874 342.694179 
L 212.342386 342.590229 
L 213.078898 342.278379 
L 213.81541 341.654679 
L 214.551922 340.823079 
L 215.288434 340.719129 
L 216.761459 341.134929 
L 217.497971 339.679629 
L 218.234483 339.679629 
L 218.970995 339.263829 
L 219.707507 338.640129 
L 220.444019 338.640129 
L 221.180531 337.600629 
L 221.917043 337.288779 
L 222.653556 336.353229 
L 223.390068 336.561129 
L 225.599604 334.482129 
L 226.336116 334.586079 
L 227.072628 332.922879 
L 228.545653 331.155729 
L 229.282165 330.947829 
L 230.018677 330.324129 
L 230.755189 329.908329 
L 231.491701 328.868829 
L 232.228213 328.660929 
L 232.964725 326.997729 
L 233.701237 326.270079 
L 234.43775 325.958229 
L 235.174262 324.918729 
L 235.910774 324.398979 
L 236.647286 322.735779 
L 237.383798 321.488379 
L 238.856822 320.344929 
L 239.593334 320.137029 
L 240.329847 318.681729 
L 241.066359 317.746179 
L 245.485431 310.989429 
L 246.221944 310.053879 
L 246.958456 308.494629 
L 247.694968 307.766979 
L 248.43148 305.999829 
L 249.167992 305.272179 
L 249.904504 303.920829 
L 250.641016 302.881329 
L 251.377528 302.049729 
L 252.114041 301.737879 
L 252.850553 299.762829 
L 253.587065 299.450979 
L 254.323577 297.579879 
L 255.060089 297.371979 
L 255.796601 294.981129 
L 256.533113 294.149529 
L 257.269625 293.629779 
L 258.006138 292.486329 
L 258.74265 290.823129 
L 259.479162 289.991529 
L 260.215674 288.744129 
L 260.952186 288.120429 
L 262.42521 285.417729 
L 263.161722 284.586129 
L 263.898235 284.066379 
L 264.634747 283.026879 
L 265.371259 281.675529 
L 266.107771 280.739979 
L 266.844283 280.012329 
L 267.580795 278.868879 
L 268.317307 277.517529 
L 269.05382 277.517529 
L 269.790332 275.854329 
L 270.526844 275.646429 
L 271.263356 274.399029 
L 271.999868 273.671379 
L 272.73638 272.320029 
L 273.472892 271.904229 
L 274.209404 270.448929 
L 274.945917 269.721279 
L 275.682429 268.681779 
L 276.418941 268.369929 
L 277.155453 267.122529 
L 277.891965 266.498829 
L 278.628477 265.251429 
L 279.364989 264.315879 
L 280.101501 264.004029 
L 280.838014 263.380329 
L 281.574526 262.236879 
L 282.311038 261.717129 
L 283.04755 260.469729 
L 283.784062 259.742079 
L 284.520574 258.286779 
L 285.257086 257.663079 
L 286.730111 255.480129 
L 287.466623 254.752479 
L 288.203135 253.193229 
L 288.939647 252.257679 
L 290.412671 249.970779 
L 291.149183 249.451029 
L 291.885695 248.515479 
L 293.35872 245.916729 
L 294.095232 245.085129 
L 294.831744 243.110079 
L 295.568256 243.110079 
L 296.304768 241.758729 
L 297.04128 241.862679 
L 297.777792 240.095529 
L 299.987329 236.977029 
L 300.723841 235.105929 
L 301.460353 234.274329 
L 302.196865 232.715079 
L 302.933377 231.987429 
L 303.669889 230.947929 
L 304.406402 229.284729 
L 305.142914 228.037329 
L 305.879426 227.517579 
L 306.615938 225.230679 
L 307.35245 224.503029 
L 308.088962 223.359579 
L 309.561986 221.384529 
L 311.771523 216.810729 
L 312.508035 216.187029 
L 313.244547 214.939629 
L 314.717571 211.405329 
L 315.454083 208.910529 
L 316.190596 207.974979 
L 319.136644 201.634029 
L 319.873156 197.995779 
L 323.555717 190.095579 
L 324.292229 189.160029 
L 325.765253 182.611179 
L 326.501765 181.051929 
L 327.238278 177.621579 
L 327.97479 175.230729 
L 328.711302 171.488529 
L 329.447814 170.137179 
L 330.184326 167.122629 
L 330.920838 166.291029 
L 331.65735 164.419929 
L 332.393862 162.029079 
L 333.130375 160.885629 
L 334.603399 156.415779 
L 335.339911 153.713079 
L 336.076423 151.634079 
L 336.812935 150.178779 
L 337.549447 147.580029 
L 338.285959 147.580029 
L 339.022472 144.773379 
L 339.758984 143.006229 
L 340.495496 140.303529 
L 341.232008 139.367979 
L 341.96852 137.081079 
L 342.705032 134.378379 
L 343.441544 133.754679 
L 344.178056 129.700629 
L 344.914569 127.621629 
L 345.651081 127.413729 
L 347.124105 122.839929 
L 347.860617 120.760929 
L 348.597129 119.201679 
L 350.070153 113.796279 
L 350.806666 114.212079 
L 351.543178 109.638279 
L 352.27969 108.286929 
L 353.752714 102.881529 
L 354.489226 101.738079 
L 355.225738 99.451179 
L 355.96225 97.684029 
L 356.698763 94.045779 
L 357.435275 91.239129 
L 358.171787 90.719379 
L 358.908299 87.912729 
L 359.644811 85.729779 
L 360.381323 82.819179 
L 361.117835 79.076979 
L 361.854347 76.894029 
L 362.59086 77.101929 
L 363.327372 69.305679 
L 364.063884 70.137279 
L 364.800396 64.835829 
L 365.536908 64.523979 
L 366.27342 62.756829 
L 367.009932 57.039579 
L 367.746444 55.480329 
L 368.482957 51.738129 
L 369.955981 51.946029 
L 370.692493 47.476179 
L 371.429005 44.461629 
L 372.165517 40.927329 
L 372.902029 44.045829 
L 373.638541 42.486579 
L 374.375054 47.476179 
L 375.111566 46.956429 
L 375.848078 46.020879 
L 376.58459 49.867029 
L 377.321102 48.411729 
L 378.057614 47.684079 
L 378.794126 48.099879 
L 379.530639 48.099879 
L 380.267151 47.580129 
L 381.003663 51.738129 
L 381.740175 51.114429 
L 382.476687 51.218379 
L 383.213199 49.451229 
L 383.949711 53.609229 
L 384.686223 52.465779 
L 385.422736 49.867029 
L 386.159248 55.272429 
L 386.89576 55.376379 
L 387.632272 51.530229 
L 388.368784 53.921079 
L 389.105296 58.702779 
L 389.841808 58.702779 
L 390.57832 54.856629 
L 391.314833 54.648729 
L 392.051345 56.623779 
L 392.787857 55.064529 
L 393.524369 54.960579 
L 394.260881 57.767229 
L 395.733905 57.871179 
L 396.470417 58.079079 
L 397.20693 59.638329 
L 397.943442 60.573879 
L 398.679954 60.677829 
L 399.416466 58.702779 
L 400.152978 60.885729 
L 400.88949 60.989679 
L 401.626002 63.380529 
L 402.362514 66.499029 
L 403.099027 64.316079 
L 403.835539 65.251629 
L 404.572051 67.434579 
L 405.308563 64.316079 
L 406.045075 67.018779 
L 406.781587 65.667429 
L 407.518099 65.771379 
L 408.254611 67.122729 
L 408.991124 67.954329 
L 409.727636 70.137279 
L 410.464148 63.380529 
L 411.20066 71.488629 
L 411.937172 68.889879 
L 412.673684 69.305679 
L 413.410196 72.632079 
L 414.146708 70.137279 
L 414.883221 72.320229 
L 415.619733 72.736029 
L 416.356245 70.760979 
L 417.092757 74.295279 
L 417.829269 77.205879 
L 418.565781 72.528129 
L 419.302293 76.270329 
L 420.038805 74.918979 
L 420.775318 73.151829 
L 421.51183 73.879479 
L 422.248342 74.087379 
L 422.984854 77.205879 
L 423.721366 76.790079 
L 424.457878 75.334779 
L 425.19439 75.438729 
L 425.930902 78.557229 
L 426.667415 78.661179 
L 427.403927 78.037479 
L 428.140439 79.076979 
L 428.876951 79.596729 
L 429.613463 80.324379 
L 430.349975 80.532279 
L 431.086487 81.675729 
L 431.823 81.259929 
L 432.559512 79.492779 
L 433.296024 80.532279 
L 434.032536 81.779679 
L 434.769048 83.858679 
L 435.50556 83.338929 
L 436.242072 82.507329 
L 436.978584 85.521879 
L 437.715097 84.482379 
L 438.451609 85.521879 
L 439.188121 82.715229 
L 439.924633 85.313979 
L 440.661145 85.625829 
L 441.397657 84.690279 
L 442.134169 88.328529 
L 442.870681 86.041629 
L 443.607194 87.185079 
L 444.343706 87.808779 
L 445.080218 87.185079 
L 445.81673 88.952229 
L 446.553242 88.328529 
L 447.289754 88.536429 
L 448.026266 90.199629 
L 448.762778 91.447029 
L 449.499291 88.120629 
L 450.235803 87.600879 
L 450.972315 88.952229 
L 451.708827 90.615429 
L 452.445339 90.823329 
L 453.181851 91.343079 
L 453.918363 90.303579 
L 454.654875 90.407529 
L 455.391388 92.902329 
L 456.1279 90.823329 
L 456.864412 92.798379 
L 457.600924 93.526029 
L 458.337436 92.902329 
L 459.073948 92.902329 
L 459.81046 94.045779 
L 460.546972 94.045779 
L 461.283485 94.461579 
L 462.019997 93.837879 
L 462.756509 95.397129 
L 463.493021 98.099829 
L 464.966045 95.812929 
L 466.439069 98.827479 
L 467.175582 96.644529 
L 467.912094 96.436629 
L 468.648606 99.659079 
L 469.385118 98.931429 
L 470.12163 97.476129 
L 470.858142 98.515629 
L 471.594654 96.124779 
L 472.331166 99.763029 
L 473.067679 99.243279 
L 473.804191 100.178829 
L 474.540703 99.970929 
L 475.277215 101.218329 
L 476.013727 100.698579 
L 476.750239 99.866979 
L 477.486751 102.361779 
L 478.223263 101.114379 
L 478.959776 102.673629 
L 479.696288 101.945979 
L 480.4328 101.738079 
L 481.169312 104.024979 
L 481.905824 102.985479 
L 482.642336 103.713129 
L 483.378848 106.623729 
L 484.115361 101.322279 
L 484.851873 103.921029 
L 485.588385 103.297329 
L 486.324897 104.024979 
L 487.061409 104.024979 
L 487.797921 102.049929 
L 488.534433 103.505229 
L 489.270945 106.000029 
L 490.007458 104.336829 
L 491.480482 106.103979 
L 492.216994 106.727679 
L 492.953506 106.727679 
L 493.690018 105.376329 
L 494.42653 107.975079 
L 495.163042 104.128929 
L 495.899555 107.975079 
L 496.636067 107.351379 
L 497.372579 108.079029 
L 498.109091 107.039529 
L 498.109091 107.039529 
" clip-path="url(#pa6ffca6b69)" style="fill: none; stroke: #0000ff; stroke-opacity: 0.5; stroke-width: 1.5; stroke-linecap: square"/>
   </g>
   <g id="LineCollection_1">
    <path d="M 92.290909 361.836456 
L 92.290909 359.726502 
" clip-path="url(#pa6ffca6b69)" style="fill: none; stroke: #ff0000; stroke-width: 1.5"/>
    <path d="M 121.751394 370.351028 
L 121.751394 369.36853 
" clip-path="url(#pa6ffca6b69)" style="fill: none; stroke: #ff0000; stroke-width: 1.5"/>
    <path d="M 151.211879 367.829243 
L 151.211879 363.643615 
" clip-path="url(#pa6ffca6b69)" style="fill: none; stroke: #ff0000; stroke-width: 1.5"/>
    <path d="M 180.672364 364.710649 
L 180.672364 361.634009 
" clip-path="url(#pa6ffca6b69)" style="fill: none; stroke: #ff0000; stroke-width: 1.5"/>
    <path d="M 210.132849 343.355 
L 210.132849 341.894758 
" clip-path="url(#pa6ffca6b69)" style="fill: none; stroke: #ff0000; stroke-width: 1.5"/>
    <path d="M 239.593334 322.970613 
L 239.593334 319.243845 
" clip-path="url(#pa6ffca6b69)" style="fill: none; stroke: #ff0000; stroke-width: 1.5"/>
    <path d="M 269.05382 285.286417 
L 269.05382 277.371641 
" clip-path="url(#pa6ffca6b69)" style="fill: none; stroke: #ff0000; stroke-width: 1.5"/>
    <path d="M 298.514305 251.287377 
L 298.514305 239.506581 
" clip-path="url(#pa6ffca6b69)" style="fill: none; stroke: #ff0000; stroke-width: 1.5"/>
    <path d="M 327.97479 197.111127 
L 327.97479 176.773731 
" clip-path="url(#pa6ffca6b69)" style="fill: none; stroke: #ff0000; stroke-width: 1.5"/>
    <path d="M 357.435275 114.383779 
L 357.435275 92.695979 
" clip-path="url(#pa6ffca6b69)" style="fill: none; stroke: #ff0000; stroke-width: 1.5"/>
    <path d="M 386.89576 54.843239 
L 386.89576 47.593519 
" clip-path="url(#pa6ffca6b69)" style="fill: none; stroke: #ff0000; stroke-width: 1.5"/>
    <path d="M 416.356245 70.04601 
L 416.356245 59.902848 
" clip-path="url(#pa6ffca6b69)" style="fill: none; stroke: #ff0000; stroke-width: 1.5"/>
    <path d="M 445.81673 88.279418 
L 445.81673 79.57654 
" clip-path="url(#pa6ffca6b69)" style="fill: none; stroke: #ff0000; stroke-width: 1.5"/>
    <path d="M 475.277215 100.815442 
L 475.277215 95.037716 
" clip-path="url(#pa6ffca6b69)" style="fill: none; stroke: #ff0000; stroke-width: 1.5"/>
   </g>
   <g id="line2d_46">
    <defs>
     <path id="ma3646ffe0d" d="M 5 0 
L -5 -0 
" style="stroke: #ff0000"/>
    </defs>
    <g clip-path="url(#pa6ffca6b69)">
     <use xlink:href="#ma3646ffe0d" x="92.290909" y="361.836456" style="fill: #ff0000; stroke: #ff0000"/>
     <use xlink:href="#ma3646ffe0d" x="121.751394" y="370.351028" style="fill: #ff0000; stroke: #ff0000"/>
     <use xlink:href="#ma3646ffe0d" x="151.211879" y="367.829243" style="fill: #ff0000; stroke: #ff0000"/>
     <use xlink:href="#ma3646ffe0d" x="180.672364" y="364.710649" style="fill: #ff0000; stroke: #ff0000"/>
     <use xlink:href="#ma3646ffe0d" x="210.132849" y="343.355" style="fill: #ff0000; stroke: #ff0000"/>
     <use xlink:href="#ma3646ffe0d" x="239.593334" y="322.970613" style="fill: #ff0000; stroke: #ff0000"/>
     <use xlink:href="#ma3646ffe0d" x="269.05382" y="285.286417" style="fill: #ff0000; stroke: #ff0000"/>
     <use xlink:href="#ma3646ffe0d" x="298.514305" y="251.287377" style="fill: #ff0000; stroke: #ff0000"/>
     <use xlink:href="#ma3646ffe0d" x="327.97479" y="197.111127" style="fill: #ff0000; stroke: #ff0000"/>
     <use xlink:href="#ma3646ffe0d" x="357.435275" y="114.383779" style="fill: #ff0000; stroke: #ff0000"/>
     <use xlink:href="#ma3646ffe0d" x="386.89576" y="54.843239" style="fill: #ff0000; stroke: #ff0000"/>
     <use xlink:href="#ma3646ffe0d" x="416.356245" y="70.04601" style="fill: #ff0000; stroke: #ff0000"/>
     <use xlink:href="#ma3646ffe0d" x="445.81673" y="88.279418" style="fill: #ff0000; stroke: #ff0000"/>
     <use xlink:href="#ma3646ffe0d" x="475.277215" y="100.815442" style="fill: #ff0000; stroke: #ff0000"/>
    </g>
   </g>
   <g id="line2d_47">
    <g clip-path="url(#pa6ffca6b69)">
     <use xlink:href="#ma3646ffe0d" x="92.290909" y="359.726502" style="fill: #ff0000; stroke: #ff0000"/>
     <use xlink:href="#ma3646ffe0d" x="121.751394" y="369.36853" style="fill: #ff0000; stroke: #ff0000"/>
     <use xlink:href="#ma3646ffe0d" x="151.211879" y="363.643615" style="fill: #ff0000; stroke: #ff0000"/>
     <use xlink:href="#ma3646ffe0d" x="180.672364" y="361.634009" style="fill: #ff0000; stroke: #ff0000"/>
     <use xlink:href="#ma3646ffe0d" x="210.132849" y="341.894758" style="fill: #ff0000; stroke: #ff0000"/>
     <use xlink:href="#ma3646ffe0d" x="239.593334" y="319.243845" style="fill: #ff0000; stroke: #ff0000"/>
     <use xlink:href="#ma3646ffe0d" x="269.05382" y="277.371641" style="fill: #ff0000; stroke: #ff0000"/>
     <use xlink:href="#ma3646ffe0d" x="298.514305" y="239.506581" style="fill: #ff0000; stroke: #ff0000"/>
     <use xlink:href="#ma3646ffe0d" x="327.97479" y="176.773731" style="fill: #ff0000; stroke: #ff0000"/>
     <use xlink:href="#ma3646ffe0d" x="357.435275" y="92.695979" style="fill: #ff0000; stroke: #ff0000"/>
     <use xlink:href="#ma3646ffe0d" x="386.89576" y="47.593519" style="fill: #ff0000; stroke: #ff0000"/>
     <use xlink:href="#ma3646ffe0d" x="416.356245" y="59.902848" style="fill: #ff0000; stroke: #ff0000"/>
     <use xlink:href="#ma3646ffe0d" x="445.81673" y="79.57654" style="fill: #ff0000; stroke: #ff0000"/>
     <use xlink:href="#ma3646ffe0d" x="475.277215" y="95.037716" style="fill: #ff0000; stroke: #ff0000"/>
    </g>
   </g>
   <g id="line2d_48">
    <path d="M 92.290909 360.781479 
L 121.751394 369.859779 
L 151.211879 365.736429 
L 180.672364 363.172329 
L 210.132849 342.624879 
L 239.593334 321.107229 
L 269.05382 281.329029 
L 298.514305 245.396979 
L 327.97479 186.942429 
L 357.435275 103.539879 
L 386.89576 51.218379 
L 416.356245 64.974429 
L 445.81673 83.927979 
L 475.277215 97.926579 
" clip-path="url(#pa6ffca6b69)" style="fill: none; stroke: #ff0000; stroke-width: 1.5; stroke-linecap: square"/>
   </g>
   <g id="patch_3">
    <path d="M 72 384.48 
L 72 51.84 
" style="fill: none; stroke: #000000; stroke-width: 0.8; stroke-linejoin: miter; stroke-linecap: square"/>
   </g>
   <g id="patch_4">
    <path d="M 518.4 384.48 
L 518.4 51.84 
" style="fill: none; stroke: #000000; stroke-width: 0.8; stroke-linejoin: miter; stroke-linecap: square"/>
   </g>
   <g id="patch_5">
    <path d="M 72 384.48 
L 518.4 384.48 
" style="fill: none; stroke: #000000; stroke-width: 0.8; stroke-linejoin: miter; stroke-linecap: square"/>
   </g>
   <g id="patch_6">
    <path d="M 72 51.84 
L 518.4 51.84 
" style="fill: none; stroke: #000000; stroke-width: 0.8; stroke-linejoin: miter; stroke-linecap: square"/>
   </g>
   <g id="text_24">
    <!-- M6: Aspartat; Asparagin; Isoleucin; Threonin; Tryptophan; Phenylalanin; Histidin; Arginin -->
    <g transform="translate(74.355469 45.84) scale(0.1 -0.1)">
     <defs>
      <path id="DejaVuSans-4d" d="M 628 4666 
L 1569 4666 
L 2759 1491 
L 3956 4666 
L 4897 4666 
L 4897 0 
L 4281 0 
L 4281 4097 
L 3078 897 
L 2444 897 
L 1241 4097 
L 1241 0 
L 628 0 
L 628 4666 
z
" transform="scale(0.015625)"/>
      <path id="DejaVuSans-3a" d="M 750 794 
L 1409 794 
L 1409 0 
L 750 0 
L 750 794 
z
M 750 3309 
L 1409 3309 
L 1409 2516 
L 750 2516 
L 750 3309 
z
" transform="scale(0.015625)"/>
      <path id="DejaVuSans-41" d="M 2188 4044 
L 1331 1722 
L 3047 1722 
L 2188 4044 
z
M 1831 4666 
L 2547 4666 
L 4325 0 
L 3669 0 
L 3244 1197 
L 1141 1197 
L 716 0 
L 50 0 
L 1831 4666 
z
" transform="scale(0.015625)"/>
      <path id="DejaVuSans-70" d="M 1159 525 
L 1159 -1331 
L 581 -1331 
L 581 3500 
L 1159 3500 
L 1159 2969 
Q 1341 3281 1617 3432 
Q 1894 3584 2278 3584 
Q 2916 3584 3314 3078 
Q 3713 2572 3713 1747 
Q 3713 922 3314 415 
Q 2916 -91 2278 -91 
Q 1894 -91 1617 61 
Q 1341 213 1159 525 
z
M 3116 1747 
Q 3116 2381 2855 2742 
Q 2594 3103 2138 3103 
Q 1681 3103 1420 2742 
Q 1159 2381 1159 1747 
Q 1159 1113 1420 752 
Q 1681 391 2138 391 
Q 2594 391 2855 752 
Q 3116 1113 3116 1747 
z
" transform="scale(0.015625)"/>
      <path id="DejaVuSans-3b" d="M 750 3309 
L 1409 3309 
L 1409 2516 
L 750 2516 
L 750 3309 
z
M 750 794 
L 1409 794 
L 1409 256 
L 897 -744 
L 494 -744 
L 750 256 
L 750 794 
z
" transform="scale(0.015625)"/>
      <path id="DejaVuSans-67" d="M 2906 1791 
Q 2906 2416 2648 2759 
Q 2391 3103 1925 3103 
Q 1463 3103 1205 2759 
Q 947 2416 947 1791 
Q 947 1169 1205 825 
Q 1463 481 1925 481 
Q 2391 481 2648 825 
Q 2906 1169 2906 1791 
z
M 3481 434 
Q 3481 -459 3084 -895 
Q 2688 -1331 1869 -1331 
Q 1566 -1331 1297 -1286 
Q 1028 -1241 775 -1147 
L 775 -588 
Q 1028 -725 1275 -790 
Q 1522 -856 1778 -856 
Q 2344 -856 2625 -561 
Q 2906 -266 2906 331 
L 2906 616 
Q 2728 306 2450 153 
Q 2172 0 1784 0 
Q 1141 0 747 490 
Q 353 981 353 1791 
Q 353 2603 747 3093 
Q 1141 3584 1784 3584 
Q 2172 3584 2450 3431 
Q 2728 3278 2906 2969 
L 2906 3500 
L 3481 3500 
L 3481 434 
z
" transform="scale(0.015625)"/>
      <path id="DejaVuSans-49" d="M 628 4666 
L 1259 4666 
L 1259 0 
L 628 0 
L 628 4666 
z
" transform="scale(0.015625)"/>
      <path id="DejaVuSans-54" d="M -19 4666 
L 3928 4666 
L 3928 4134 
L 2272 4134 
L 2272 0 
L 1638 0 
L 1638 4134 
L -19 4134 
L -19 4666 
z
" transform="scale(0.015625)"/>
      <path id="DejaVuSans-79" d="M 2059 -325 
Q 1816 -950 1584 -1140 
Q 1353 -1331 966 -1331 
L 506 -1331 
L 506 -850 
L 844 -850 
Q 1081 -850 1212 -737 
Q 1344 -625 1503 -206 
L 1606 56 
L 191 3500 
L 800 3500 
L 1894 763 
L 2988 3500 
L 3597 3500 
L 2059 -325 
z
" transform="scale(0.015625)"/>
      <path id="DejaVuSans-50" d="M 1259 4147 
L 1259 2394 
L 2053 2394 
Q 2494 2394 2734 2622 
Q 2975 2850 2975 3272 
Q 2975 3691 2734 3919 
Q 2494 4147 2053 4147 
L 1259 4147 
z
M 628 4666 
L 2053 4666 
Q 2838 4666 3239 4311 
Q 3641 3956 3641 3272 
Q 3641 2581 3239 2228 
Q 2838 1875 2053 1875 
L 1259 1875 
L 1259 0 
L 628 0 
L 628 4666 
z
" transform="scale(0.015625)"/>
      <path id="DejaVuSans-48" d="M 628 4666 
L 1259 4666 
L 1259 2753 
L 3553 2753 
L 3553 4666 
L 4184 4666 
L 4184 0 
L 3553 0 
L 3553 2222 
L 1259 2222 
L 1259 0 
L 628 0 
L 628 4666 
z
" transform="scale(0.015625)"/>
     </defs>
     <use xlink:href="#DejaVuSans-4d"/>
     <use xlink:href="#DejaVuSans-36" x="86.279297"/>
     <use xlink:href="#DejaVuSans-3a" x="149.902344"/>
     <use xlink:href="#DejaVuSans-20" x="183.59375"/>
     <use xlink:href="#DejaVuSans-41" x="215.380859"/>
     <use xlink:href="#DejaVuSans-73" x="283.789062"/>
     <use xlink:href="#DejaVuSans-70" x="335.888672"/>
     <use xlink:href="#DejaVuSans-61" x="399.365234"/>
     <use xlink:href="#DejaVuSans-72" x="460.644531"/>
     <use xlink:href="#DejaVuSans-74" x="501.757812"/>
     <use xlink:href="#DejaVuSans-61" x="540.966797"/>
     <use xlink:href="#DejaVuSans-74" x="602.246094"/>
     <use xlink:href="#DejaVuSans-3b" x="641.455078"/>
     <use xlink:href="#DejaVuSans-20" x="675.146484"/>
     <use xlink:href="#DejaVuSans-41" x="706.933594"/>
     <use xlink:href="#DejaVuSans-73" x="775.341797"/>
     <use xlink:href="#DejaVuSans-70" x="827.441406"/>
     <use xlink:href="#DejaVuSans-61" x="890.917969"/>
     <use xlink:href="#DejaVuSans-72" x="952.197266"/>
     <use xlink:href="#DejaVuSans-61" x="993.310547"/>
     <use xlink:href="#DejaVuSans-67" x="1054.589844"/>
     <use xlink:href="#DejaVuSans-69" x="1118.066406"/>
     <use xlink:href="#DejaVuSans-6e" x="1145.849609"/>
     <use xlink:href="#DejaVuSans-3b" x="1209.228516"/>
     <use xlink:href="#DejaVuSans-20" x="1242.919922"/>
     <use xlink:href="#DejaVuSans-49" x="1274.707031"/>
     <use xlink:href="#DejaVuSans-73" x="1304.199219"/>
     <use xlink:href="#DejaVuSans-6f" x="1356.298828"/>
     <use xlink:href="#DejaVuSans-6c" x="1417.480469"/>
     <use xlink:href="#DejaVuSans-65" x="1445.263672"/>
     <use xlink:href="#DejaVuSans-75" x="1506.787109"/>
     <use xlink:href="#DejaVuSans-63" x="1570.166016"/>
     <use xlink:href="#DejaVuSans-69" x="1625.146484"/>
     <use xlink:href="#DejaVuSans-6e" x="1652.929688"/>
     <use xlink:href="#DejaVuSans-3b" x="1716.308594"/>
     <use xlink:href="#DejaVuSans-20" x="1750"/>
     <use xlink:href="#DejaVuSans-54" x="1781.787109"/>
     <use xlink:href="#DejaVuSans-68" x="1842.871094"/>
     <use xlink:href="#DejaVuSans-72" x="1906.25"/>
     <use xlink:href="#DejaVuSans-65" x="1945.113281"/>
     <use xlink:href="#DejaVuSans-6f" x="2006.636719"/>
     <use xlink:href="#DejaVuSans-6e" x="2067.818359"/>
     <use xlink:href="#DejaVuSans-69" x="2131.197266"/>
     <use xlink:href="#DejaVuSans-6e" x="2158.980469"/>
     <use xlink:href="#DejaVuSans-3b" x="2222.359375"/>
     <use xlink:href="#DejaVuSans-20" x="2256.050781"/>
     <use xlink:href="#DejaVuSans-54" x="2287.837891"/>
     <use xlink:href="#DejaVuSans-72" x="2334.171875"/>
     <use xlink:href="#DejaVuSans-79" x="2375.285156"/>
     <use xlink:href="#DejaVuSans-70" x="2434.464844"/>
     <use xlink:href="#DejaVuSans-74" x="2497.941406"/>
     <use xlink:href="#DejaVuSans-6f" x="2537.150391"/>
     <use xlink:href="#DejaVuSans-70" x="2598.332031"/>
     <use xlink:href="#DejaVuSans-68" x="2661.808594"/>
     <use xlink:href="#DejaVuSans-61" x="2725.1875"/>
     <use xlink:href="#DejaVuSans-6e" x="2786.466797"/>
     <use xlink:href="#DejaVuSans-3b" x="2849.845703"/>
     <use xlink:href="#DejaVuSans-20" x="2883.537109"/>
     <use xlink:href="#DejaVuSans-50" x="2915.324219"/>
     <use xlink:href="#DejaVuSans-68" x="2975.626953"/>
     <use xlink:href="#DejaVuSans-65" x="3039.005859"/>
     <use xlink:href="#DejaVuSans-6e" x="3100.529297"/>
     <use xlink:href="#DejaVuSans-79" x="3163.908203"/>
     <use xlink:href="#DejaVuSans-6c" x="3223.087891"/>
     <use xlink:href="#DejaVuSans-61" x="3250.871094"/>
     <use xlink:href="#DejaVuSans-6c" x="3312.150391"/>
     <use xlink:href="#DejaVuSans-61" x="3339.933594"/>
     <use xlink:href="#DejaVuSans-6e" x="3401.212891"/>
     <use xlink:href="#DejaVuSans-69" x="3464.591797"/>
     <use xlink:href="#DejaVuSans-6e" x="3492.375"/>
     <use xlink:href="#DejaVuSans-3b" x="3555.753906"/>
     <use xlink:href="#DejaVuSans-20" x="3589.445312"/>
     <use xlink:href="#DejaVuSans-48" x="3621.232422"/>
     <use xlink:href="#DejaVuSans-69" x="3696.427734"/>
     <use xlink:href="#DejaVuSans-73" x="3724.210938"/>
     <use xlink:href="#DejaVuSans-74" x="3776.310547"/>
     <use xlink:href="#DejaVuSans-69" x="3815.519531"/>
     <use xlink:href="#DejaVuSans-64" x="3843.302734"/>
     <use xlink:href="#DejaVuSans-69" x="3906.779297"/>
     <use xlink:href="#DejaVuSans-6e" x="3934.5625"/>
     <use xlink:href="#DejaVuSans-3b" x="3997.941406"/>
     <use xlink:href="#DejaVuSans-20" x="4031.632812"/>
     <use xlink:href="#DejaVuSans-41" x="4063.419922"/>
     <use xlink:href="#DejaVuSans-72" x="4131.828125"/>
     <use xlink:href="#DejaVuSans-67" x="4171.191406"/>
     <use xlink:href="#DejaVuSans-69" x="4234.667969"/>
     <use xlink:href="#DejaVuSans-6e" x="4262.451172"/>
     <use xlink:href="#DejaVuSans-69" x="4325.830078"/>
     <use xlink:href="#DejaVuSans-6e" x="4353.613281"/>
    </g>
   </g>
  </g>
 </g>
 <defs>
  <clipPath id="pa6ffca6b69">
   <rect x="72" y="51.84" width="446.4" height="332.64"/>
  </clipPath>
 </defs>
</svg>
