<?xml version="1.0" encoding="utf-8" standalone="no"?>
<!DOCTYPE svg PUBLIC "-//W3C//DTD SVG 1.1//EN"
  "http://www.w3.org/Graphics/SVG/1.1/DTD/svg11.dtd">
<svg xmlns:xlink="http://www.w3.org/1999/xlink" width="576pt" height="432pt" viewBox="0 0 576 432" xmlns="http://www.w3.org/2000/svg" version="1.1">
 <metadata>
  <rdf:RDF xmlns:dc="http://purl.org/dc/elements/1.1/" xmlns:cc="http://creativecommons.org/ns#" xmlns:rdf="http://www.w3.org/1999/02/22-rdf-syntax-ns#">
   <cc:Work>
    <dc:type rdf:resource="http://purl.org/dc/dcmitype/StillImage"/>
    <dc:date>2024-11-12T14:09:06.424244</dc:date>
    <dc:format>image/svg+xml</dc:format>
    <dc:creator>
     <cc:Agent>
      <dc:title>Matplotlib v3.7.5, https://matplotlib.org/</dc:title>
     </cc:Agent>
    </dc:creator>
   </cc:Work>
  </rdf:RDF>
 </metadata>
 <defs>
  <style type="text/css">*{stroke-linejoin: round; stroke-linecap: butt}</style>
 </defs>
 <g id="figure_1">
  <g id="patch_1">
   <path d="M 0 432 
L 576 432 
L 576 0 
L 0 0 
z
" style="fill: #ffffff"/>
  </g>
  <g id="axes_1">
   <g id="patch_2">
    <path d="M 72 384.48 
L 518.4 384.48 
L 518.4 51.84 
L 72 51.84 
z
" style="fill: #ffffff"/>
   </g>
   <g id="matplotlib.axis_1">
    <g id="xtick_1">
     <g id="line2d_1">
      <path d="M 92.290909 384.48 
L 92.290909 51.84 
" clip-path="url(#p5c50dba6f5)" style="fill: none; stroke: #b0b0b0; stroke-width: 0.8; stroke-linecap: square"/>
     </g>
     <g id="line2d_2">
      <defs>
       <path id="me9955ef249" d="M 0 0 
L 0 3.5 
" style="stroke: #000000; stroke-width: 0.8"/>
      </defs>
      <g>
       <use xlink:href="#me9955ef249" x="92.290909" y="384.48" style="stroke: #000000; stroke-width: 0.8"/>
      </g>
     </g>
     <g id="text_1">
      <!-- 0.17 -->
      <g transform="translate(81.158097 399.078438) scale(0.1 -0.1)">
       <defs>
        <path id="DejaVuSans-30" d="M 2034 4250 
Q 1547 4250 1301 3770 
Q 1056 3291 1056 2328 
Q 1056 1369 1301 889 
Q 1547 409 2034 409 
Q 2525 409 2770 889 
Q 3016 1369 3016 2328 
Q 3016 3291 2770 3770 
Q 2525 4250 2034 4250 
z
M 2034 4750 
Q 2819 4750 3233 4129 
Q 3647 3509 3647 2328 
Q 3647 1150 3233 529 
Q 2819 -91 2034 -91 
Q 1250 -91 836 529 
Q 422 1150 422 2328 
Q 422 3509 836 4129 
Q 1250 4750 2034 4750 
z
" transform="scale(0.015625)"/>
        <path id="DejaVuSans-2e" d="M 684 794 
L 1344 794 
L 1344 0 
L 684 0 
L 684 794 
z
" transform="scale(0.015625)"/>
        <path id="DejaVuSans-31" d="M 794 531 
L 1825 531 
L 1825 4091 
L 703 3866 
L 703 4441 
L 1819 4666 
L 2450 4666 
L 2450 531 
L 3481 531 
L 3481 0 
L 794 0 
L 794 531 
z
" transform="scale(0.015625)"/>
        <path id="DejaVuSans-37" d="M 525 4666 
L 3525 4666 
L 3525 4397 
L 1831 0 
L 1172 0 
L 2766 4134 
L 525 4134 
L 525 4666 
z
" transform="scale(0.015625)"/>
       </defs>
       <use xlink:href="#DejaVuSans-30"/>
       <use xlink:href="#DejaVuSans-2e" x="63.623047"/>
       <use xlink:href="#DejaVuSans-31" x="95.410156"/>
       <use xlink:href="#DejaVuSans-37" x="159.033203"/>
      </g>
     </g>
    </g>
    <g id="xtick_2">
     <g id="line2d_3">
      <path d="M 121.751394 384.48 
L 121.751394 51.84 
" clip-path="url(#p5c50dba6f5)" style="fill: none; stroke: #b0b0b0; stroke-width: 0.8; stroke-linecap: square"/>
     </g>
     <g id="line2d_4">
      <g>
       <use xlink:href="#me9955ef249" x="121.751394" y="384.48" style="stroke: #000000; stroke-width: 0.8"/>
      </g>
     </g>
     <g id="text_2">
      <!-- 6.83 -->
      <g transform="translate(110.618582 399.078438) scale(0.1 -0.1)">
       <defs>
        <path id="DejaVuSans-36" d="M 2113 2584 
Q 1688 2584 1439 2293 
Q 1191 2003 1191 1497 
Q 1191 994 1439 701 
Q 1688 409 2113 409 
Q 2538 409 2786 701 
Q 3034 994 3034 1497 
Q 3034 2003 2786 2293 
Q 2538 2584 2113 2584 
z
M 3366 4563 
L 3366 3988 
Q 3128 4100 2886 4159 
Q 2644 4219 2406 4219 
Q 1781 4219 1451 3797 
Q 1122 3375 1075 2522 
Q 1259 2794 1537 2939 
Q 1816 3084 2150 3084 
Q 2853 3084 3261 2657 
Q 3669 2231 3669 1497 
Q 3669 778 3244 343 
Q 2819 -91 2113 -91 
Q 1303 -91 875 529 
Q 447 1150 447 2328 
Q 447 3434 972 4092 
Q 1497 4750 2381 4750 
Q 2619 4750 2861 4703 
Q 3103 4656 3366 4563 
z
" transform="scale(0.015625)"/>
        <path id="DejaVuSans-38" d="M 2034 2216 
Q 1584 2216 1326 1975 
Q 1069 1734 1069 1313 
Q 1069 891 1326 650 
Q 1584 409 2034 409 
Q 2484 409 2743 651 
Q 3003 894 3003 1313 
Q 3003 1734 2745 1975 
Q 2488 2216 2034 2216 
z
M 1403 2484 
Q 997 2584 770 2862 
Q 544 3141 544 3541 
Q 544 4100 942 4425 
Q 1341 4750 2034 4750 
Q 2731 4750 3128 4425 
Q 3525 4100 3525 3541 
Q 3525 3141 3298 2862 
Q 3072 2584 2669 2484 
Q 3125 2378 3379 2068 
Q 3634 1759 3634 1313 
Q 3634 634 3220 271 
Q 2806 -91 2034 -91 
Q 1263 -91 848 271 
Q 434 634 434 1313 
Q 434 1759 690 2068 
Q 947 2378 1403 2484 
z
M 1172 3481 
Q 1172 3119 1398 2916 
Q 1625 2713 2034 2713 
Q 2441 2713 2670 2916 
Q 2900 3119 2900 3481 
Q 2900 3844 2670 4047 
Q 2441 4250 2034 4250 
Q 1625 4250 1398 4047 
Q 1172 3844 1172 3481 
z
" transform="scale(0.015625)"/>
        <path id="DejaVuSans-33" d="M 2597 2516 
Q 3050 2419 3304 2112 
Q 3559 1806 3559 1356 
Q 3559 666 3084 287 
Q 2609 -91 1734 -91 
Q 1441 -91 1130 -33 
Q 819 25 488 141 
L 488 750 
Q 750 597 1062 519 
Q 1375 441 1716 441 
Q 2309 441 2620 675 
Q 2931 909 2931 1356 
Q 2931 1769 2642 2001 
Q 2353 2234 1838 2234 
L 1294 2234 
L 1294 2753 
L 1863 2753 
Q 2328 2753 2575 2939 
Q 2822 3125 2822 3475 
Q 2822 3834 2567 4026 
Q 2313 4219 1838 4219 
Q 1578 4219 1281 4162 
Q 984 4106 628 3988 
L 628 4550 
Q 988 4650 1302 4700 
Q 1616 4750 1894 4750 
Q 2613 4750 3031 4423 
Q 3450 4097 3450 3541 
Q 3450 3153 3228 2886 
Q 3006 2619 2597 2516 
z
" transform="scale(0.015625)"/>
       </defs>
       <use xlink:href="#DejaVuSans-36"/>
       <use xlink:href="#DejaVuSans-2e" x="63.623047"/>
       <use xlink:href="#DejaVuSans-38" x="95.410156"/>
       <use xlink:href="#DejaVuSans-33" x="159.033203"/>
      </g>
     </g>
    </g>
    <g id="xtick_3">
     <g id="line2d_5">
      <path d="M 151.211879 384.48 
L 151.211879 51.84 
" clip-path="url(#p5c50dba6f5)" style="fill: none; stroke: #b0b0b0; stroke-width: 0.8; stroke-linecap: square"/>
     </g>
     <g id="line2d_6">
      <g>
       <use xlink:href="#me9955ef249" x="151.211879" y="384.48" style="stroke: #000000; stroke-width: 0.8"/>
      </g>
     </g>
     <g id="text_3">
      <!-- 13.5 -->
      <g transform="translate(140.079067 399.078438) scale(0.1 -0.1)">
       <defs>
        <path id="DejaVuSans-35" d="M 691 4666 
L 3169 4666 
L 3169 4134 
L 1269 4134 
L 1269 2991 
Q 1406 3038 1543 3061 
Q 1681 3084 1819 3084 
Q 2600 3084 3056 2656 
Q 3513 2228 3513 1497 
Q 3513 744 3044 326 
Q 2575 -91 1722 -91 
Q 1428 -91 1123 -41 
Q 819 9 494 109 
L 494 744 
Q 775 591 1075 516 
Q 1375 441 1709 441 
Q 2250 441 2565 725 
Q 2881 1009 2881 1497 
Q 2881 1984 2565 2268 
Q 2250 2553 1709 2553 
Q 1456 2553 1204 2497 
Q 953 2441 691 2322 
L 691 4666 
z
" transform="scale(0.015625)"/>
       </defs>
       <use xlink:href="#DejaVuSans-31"/>
       <use xlink:href="#DejaVuSans-33" x="63.623047"/>
       <use xlink:href="#DejaVuSans-2e" x="127.246094"/>
       <use xlink:href="#DejaVuSans-35" x="159.033203"/>
      </g>
     </g>
    </g>
    <g id="xtick_4">
     <g id="line2d_7">
      <path d="M 180.672364 384.48 
L 180.672364 51.84 
" clip-path="url(#p5c50dba6f5)" style="fill: none; stroke: #b0b0b0; stroke-width: 0.8; stroke-linecap: square"/>
     </g>
     <g id="line2d_8">
      <g>
       <use xlink:href="#me9955ef249" x="180.672364" y="384.48" style="stroke: #000000; stroke-width: 0.8"/>
      </g>
     </g>
     <g id="text_4">
      <!-- 20.17 -->
      <g transform="translate(166.358302 399.078438) scale(0.1 -0.1)">
       <defs>
        <path id="DejaVuSans-32" d="M 1228 531 
L 3431 531 
L 3431 0 
L 469 0 
L 469 531 
Q 828 903 1448 1529 
Q 2069 2156 2228 2338 
Q 2531 2678 2651 2914 
Q 2772 3150 2772 3378 
Q 2772 3750 2511 3984 
Q 2250 4219 1831 4219 
Q 1534 4219 1204 4116 
Q 875 4013 500 3803 
L 500 4441 
Q 881 4594 1212 4672 
Q 1544 4750 1819 4750 
Q 2544 4750 2975 4387 
Q 3406 4025 3406 3419 
Q 3406 3131 3298 2873 
Q 3191 2616 2906 2266 
Q 2828 2175 2409 1742 
Q 1991 1309 1228 531 
z
" transform="scale(0.015625)"/>
       </defs>
       <use xlink:href="#DejaVuSans-32"/>
       <use xlink:href="#DejaVuSans-30" x="63.623047"/>
       <use xlink:href="#DejaVuSans-2e" x="127.246094"/>
       <use xlink:href="#DejaVuSans-31" x="159.033203"/>
       <use xlink:href="#DejaVuSans-37" x="222.65625"/>
      </g>
     </g>
    </g>
    <g id="xtick_5">
     <g id="line2d_9">
      <path d="M 210.132849 384.48 
L 210.132849 51.84 
" clip-path="url(#p5c50dba6f5)" style="fill: none; stroke: #b0b0b0; stroke-width: 0.8; stroke-linecap: square"/>
     </g>
     <g id="line2d_10">
      <g>
       <use xlink:href="#me9955ef249" x="210.132849" y="384.48" style="stroke: #000000; stroke-width: 0.8"/>
      </g>
     </g>
     <g id="text_5">
      <!-- 26.83 -->
      <g transform="translate(195.818787 399.078438) scale(0.1 -0.1)">
       <use xlink:href="#DejaVuSans-32"/>
       <use xlink:href="#DejaVuSans-36" x="63.623047"/>
       <use xlink:href="#DejaVuSans-2e" x="127.246094"/>
       <use xlink:href="#DejaVuSans-38" x="159.033203"/>
       <use xlink:href="#DejaVuSans-33" x="222.65625"/>
      </g>
     </g>
    </g>
    <g id="xtick_6">
     <g id="line2d_11">
      <path d="M 239.593334 384.48 
L 239.593334 51.84 
" clip-path="url(#p5c50dba6f5)" style="fill: none; stroke: #b0b0b0; stroke-width: 0.8; stroke-linecap: square"/>
     </g>
     <g id="line2d_12">
      <g>
       <use xlink:href="#me9955ef249" x="239.593334" y="384.48" style="stroke: #000000; stroke-width: 0.8"/>
      </g>
     </g>
     <g id="text_6">
      <!-- 33.5 -->
      <g transform="translate(228.460522 399.078438) scale(0.1 -0.1)">
       <use xlink:href="#DejaVuSans-33"/>
       <use xlink:href="#DejaVuSans-33" x="63.623047"/>
       <use xlink:href="#DejaVuSans-2e" x="127.246094"/>
       <use xlink:href="#DejaVuSans-35" x="159.033203"/>
      </g>
     </g>
    </g>
    <g id="xtick_7">
     <g id="line2d_13">
      <path d="M 269.05382 384.48 
L 269.05382 51.84 
" clip-path="url(#p5c50dba6f5)" style="fill: none; stroke: #b0b0b0; stroke-width: 0.8; stroke-linecap: square"/>
     </g>
     <g id="line2d_14">
      <g>
       <use xlink:href="#me9955ef249" x="269.05382" y="384.48" style="stroke: #000000; stroke-width: 0.8"/>
      </g>
     </g>
     <g id="text_7">
      <!-- 40.17 -->
      <g transform="translate(254.739757 399.078438) scale(0.1 -0.1)">
       <defs>
        <path id="DejaVuSans-34" d="M 2419 4116 
L 825 1625 
L 2419 1625 
L 2419 4116 
z
M 2253 4666 
L 3047 4666 
L 3047 1625 
L 3713 1625 
L 3713 1100 
L 3047 1100 
L 3047 0 
L 2419 0 
L 2419 1100 
L 313 1100 
L 313 1709 
L 2253 4666 
z
" transform="scale(0.015625)"/>
       </defs>
       <use xlink:href="#DejaVuSans-34"/>
       <use xlink:href="#DejaVuSans-30" x="63.623047"/>
       <use xlink:href="#DejaVuSans-2e" x="127.246094"/>
       <use xlink:href="#DejaVuSans-31" x="159.033203"/>
       <use xlink:href="#DejaVuSans-37" x="222.65625"/>
      </g>
     </g>
    </g>
    <g id="xtick_8">
     <g id="line2d_15">
      <path d="M 298.514305 384.48 
L 298.514305 51.84 
" clip-path="url(#p5c50dba6f5)" style="fill: none; stroke: #b0b0b0; stroke-width: 0.8; stroke-linecap: square"/>
     </g>
     <g id="line2d_16">
      <g>
       <use xlink:href="#me9955ef249" x="298.514305" y="384.48" style="stroke: #000000; stroke-width: 0.8"/>
      </g>
     </g>
     <g id="text_8">
      <!-- 46.83 -->
      <g transform="translate(284.200242 399.078438) scale(0.1 -0.1)">
       <use xlink:href="#DejaVuSans-34"/>
       <use xlink:href="#DejaVuSans-36" x="63.623047"/>
       <use xlink:href="#DejaVuSans-2e" x="127.246094"/>
       <use xlink:href="#DejaVuSans-38" x="159.033203"/>
       <use xlink:href="#DejaVuSans-33" x="222.65625"/>
      </g>
     </g>
    </g>
    <g id="xtick_9">
     <g id="line2d_17">
      <path d="M 327.97479 384.48 
L 327.97479 51.84 
" clip-path="url(#p5c50dba6f5)" style="fill: none; stroke: #b0b0b0; stroke-width: 0.8; stroke-linecap: square"/>
     </g>
     <g id="line2d_18">
      <g>
       <use xlink:href="#me9955ef249" x="327.97479" y="384.48" style="stroke: #000000; stroke-width: 0.8"/>
      </g>
     </g>
     <g id="text_9">
      <!-- 53.5 -->
      <g transform="translate(316.841977 399.078438) scale(0.1 -0.1)">
       <use xlink:href="#DejaVuSans-35"/>
       <use xlink:href="#DejaVuSans-33" x="63.623047"/>
       <use xlink:href="#DejaVuSans-2e" x="127.246094"/>
       <use xlink:href="#DejaVuSans-35" x="159.033203"/>
      </g>
     </g>
    </g>
    <g id="xtick_10">
     <g id="line2d_19">
      <path d="M 357.435275 384.48 
L 357.435275 51.84 
" clip-path="url(#p5c50dba6f5)" style="fill: none; stroke: #b0b0b0; stroke-width: 0.8; stroke-linecap: square"/>
     </g>
     <g id="line2d_20">
      <g>
       <use xlink:href="#me9955ef249" x="357.435275" y="384.48" style="stroke: #000000; stroke-width: 0.8"/>
      </g>
     </g>
     <g id="text_10">
      <!-- 60.17 -->
      <g transform="translate(343.121212 399.078438) scale(0.1 -0.1)">
       <use xlink:href="#DejaVuSans-36"/>
       <use xlink:href="#DejaVuSans-30" x="63.623047"/>
       <use xlink:href="#DejaVuSans-2e" x="127.246094"/>
       <use xlink:href="#DejaVuSans-31" x="159.033203"/>
       <use xlink:href="#DejaVuSans-37" x="222.65625"/>
      </g>
     </g>
    </g>
    <g id="xtick_11">
     <g id="line2d_21">
      <path d="M 386.89576 384.48 
L 386.89576 51.84 
" clip-path="url(#p5c50dba6f5)" style="fill: none; stroke: #b0b0b0; stroke-width: 0.8; stroke-linecap: square"/>
     </g>
     <g id="line2d_22">
      <g>
       <use xlink:href="#me9955ef249" x="386.89576" y="384.48" style="stroke: #000000; stroke-width: 0.8"/>
      </g>
     </g>
     <g id="text_11">
      <!-- 66.83 -->
      <g transform="translate(372.581697 399.078438) scale(0.1 -0.1)">
       <use xlink:href="#DejaVuSans-36"/>
       <use xlink:href="#DejaVuSans-36" x="63.623047"/>
       <use xlink:href="#DejaVuSans-2e" x="127.246094"/>
       <use xlink:href="#DejaVuSans-38" x="159.033203"/>
       <use xlink:href="#DejaVuSans-33" x="222.65625"/>
      </g>
     </g>
    </g>
    <g id="xtick_12">
     <g id="line2d_23">
      <path d="M 416.356245 384.48 
L 416.356245 51.84 
" clip-path="url(#p5c50dba6f5)" style="fill: none; stroke: #b0b0b0; stroke-width: 0.8; stroke-linecap: square"/>
     </g>
     <g id="line2d_24">
      <g>
       <use xlink:href="#me9955ef249" x="416.356245" y="384.48" style="stroke: #000000; stroke-width: 0.8"/>
      </g>
     </g>
     <g id="text_12">
      <!-- 73.5 -->
      <g transform="translate(405.223432 399.078438) scale(0.1 -0.1)">
       <use xlink:href="#DejaVuSans-37"/>
       <use xlink:href="#DejaVuSans-33" x="63.623047"/>
       <use xlink:href="#DejaVuSans-2e" x="127.246094"/>
       <use xlink:href="#DejaVuSans-35" x="159.033203"/>
      </g>
     </g>
    </g>
    <g id="xtick_13">
     <g id="line2d_25">
      <path d="M 445.81673 384.48 
L 445.81673 51.84 
" clip-path="url(#p5c50dba6f5)" style="fill: none; stroke: #b0b0b0; stroke-width: 0.8; stroke-linecap: square"/>
     </g>
     <g id="line2d_26">
      <g>
       <use xlink:href="#me9955ef249" x="445.81673" y="384.48" style="stroke: #000000; stroke-width: 0.8"/>
      </g>
     </g>
     <g id="text_13">
      <!-- 80.17 -->
      <g transform="translate(431.502667 399.078438) scale(0.1 -0.1)">
       <use xlink:href="#DejaVuSans-38"/>
       <use xlink:href="#DejaVuSans-30" x="63.623047"/>
       <use xlink:href="#DejaVuSans-2e" x="127.246094"/>
       <use xlink:href="#DejaVuSans-31" x="159.033203"/>
       <use xlink:href="#DejaVuSans-37" x="222.65625"/>
      </g>
     </g>
    </g>
    <g id="xtick_14">
     <g id="line2d_27">
      <path d="M 475.277215 384.48 
L 475.277215 51.84 
" clip-path="url(#p5c50dba6f5)" style="fill: none; stroke: #b0b0b0; stroke-width: 0.8; stroke-linecap: square"/>
     </g>
     <g id="line2d_28">
      <g>
       <use xlink:href="#me9955ef249" x="475.277215" y="384.48" style="stroke: #000000; stroke-width: 0.8"/>
      </g>
     </g>
     <g id="text_14">
      <!-- 86.83 -->
      <g transform="translate(460.963152 399.078438) scale(0.1 -0.1)">
       <use xlink:href="#DejaVuSans-38"/>
       <use xlink:href="#DejaVuSans-36" x="63.623047"/>
       <use xlink:href="#DejaVuSans-2e" x="127.246094"/>
       <use xlink:href="#DejaVuSans-38" x="159.033203"/>
       <use xlink:href="#DejaVuSans-33" x="222.65625"/>
      </g>
     </g>
    </g>
    <g id="text_15">
     <!-- time in hours [h] -->
     <g transform="translate(253.451562 412.756563) scale(0.1 -0.1)">
      <defs>
       <path id="DejaVuSans-74" d="M 1172 4494 
L 1172 3500 
L 2356 3500 
L 2356 3053 
L 1172 3053 
L 1172 1153 
Q 1172 725 1289 603 
Q 1406 481 1766 481 
L 2356 481 
L 2356 0 
L 1766 0 
Q 1100 0 847 248 
Q 594 497 594 1153 
L 594 3053 
L 172 3053 
L 172 3500 
L 594 3500 
L 594 4494 
L 1172 4494 
z
" transform="scale(0.015625)"/>
       <path id="DejaVuSans-69" d="M 603 3500 
L 1178 3500 
L 1178 0 
L 603 0 
L 603 3500 
z
M 603 4863 
L 1178 4863 
L 1178 4134 
L 603 4134 
L 603 4863 
z
" transform="scale(0.015625)"/>
       <path id="DejaVuSans-6d" d="M 3328 2828 
Q 3544 3216 3844 3400 
Q 4144 3584 4550 3584 
Q 5097 3584 5394 3201 
Q 5691 2819 5691 2113 
L 5691 0 
L 5113 0 
L 5113 2094 
Q 5113 2597 4934 2840 
Q 4756 3084 4391 3084 
Q 3944 3084 3684 2787 
Q 3425 2491 3425 1978 
L 3425 0 
L 2847 0 
L 2847 2094 
Q 2847 2600 2669 2842 
Q 2491 3084 2119 3084 
Q 1678 3084 1418 2786 
Q 1159 2488 1159 1978 
L 1159 0 
L 581 0 
L 581 3500 
L 1159 3500 
L 1159 2956 
Q 1356 3278 1631 3431 
Q 1906 3584 2284 3584 
Q 2666 3584 2933 3390 
Q 3200 3197 3328 2828 
z
" transform="scale(0.015625)"/>
       <path id="DejaVuSans-65" d="M 3597 1894 
L 3597 1613 
L 953 1613 
Q 991 1019 1311 708 
Q 1631 397 2203 397 
Q 2534 397 2845 478 
Q 3156 559 3463 722 
L 3463 178 
Q 3153 47 2828 -22 
Q 2503 -91 2169 -91 
Q 1331 -91 842 396 
Q 353 884 353 1716 
Q 353 2575 817 3079 
Q 1281 3584 2069 3584 
Q 2775 3584 3186 3129 
Q 3597 2675 3597 1894 
z
M 3022 2063 
Q 3016 2534 2758 2815 
Q 2500 3097 2075 3097 
Q 1594 3097 1305 2825 
Q 1016 2553 972 2059 
L 3022 2063 
z
" transform="scale(0.015625)"/>
       <path id="DejaVuSans-20" transform="scale(0.015625)"/>
       <path id="DejaVuSans-6e" d="M 3513 2113 
L 3513 0 
L 2938 0 
L 2938 2094 
Q 2938 2591 2744 2837 
Q 2550 3084 2163 3084 
Q 1697 3084 1428 2787 
Q 1159 2491 1159 1978 
L 1159 0 
L 581 0 
L 581 3500 
L 1159 3500 
L 1159 2956 
Q 1366 3272 1645 3428 
Q 1925 3584 2291 3584 
Q 2894 3584 3203 3211 
Q 3513 2838 3513 2113 
z
" transform="scale(0.015625)"/>
       <path id="DejaVuSans-68" d="M 3513 2113 
L 3513 0 
L 2938 0 
L 2938 2094 
Q 2938 2591 2744 2837 
Q 2550 3084 2163 3084 
Q 1697 3084 1428 2787 
Q 1159 2491 1159 1978 
L 1159 0 
L 581 0 
L 581 4863 
L 1159 4863 
L 1159 2956 
Q 1366 3272 1645 3428 
Q 1925 3584 2291 3584 
Q 2894 3584 3203 3211 
Q 3513 2838 3513 2113 
z
" transform="scale(0.015625)"/>
       <path id="DejaVuSans-6f" d="M 1959 3097 
Q 1497 3097 1228 2736 
Q 959 2375 959 1747 
Q 959 1119 1226 758 
Q 1494 397 1959 397 
Q 2419 397 2687 759 
Q 2956 1122 2956 1747 
Q 2956 2369 2687 2733 
Q 2419 3097 1959 3097 
z
M 1959 3584 
Q 2709 3584 3137 3096 
Q 3566 2609 3566 1747 
Q 3566 888 3137 398 
Q 2709 -91 1959 -91 
Q 1206 -91 779 398 
Q 353 888 353 1747 
Q 353 2609 779 3096 
Q 1206 3584 1959 3584 
z
" transform="scale(0.015625)"/>
       <path id="DejaVuSans-75" d="M 544 1381 
L 544 3500 
L 1119 3500 
L 1119 1403 
Q 1119 906 1312 657 
Q 1506 409 1894 409 
Q 2359 409 2629 706 
Q 2900 1003 2900 1516 
L 2900 3500 
L 3475 3500 
L 3475 0 
L 2900 0 
L 2900 538 
Q 2691 219 2414 64 
Q 2138 -91 1772 -91 
Q 1169 -91 856 284 
Q 544 659 544 1381 
z
M 1991 3584 
L 1991 3584 
z
" transform="scale(0.015625)"/>
       <path id="DejaVuSans-72" d="M 2631 2963 
Q 2534 3019 2420 3045 
Q 2306 3072 2169 3072 
Q 1681 3072 1420 2755 
Q 1159 2438 1159 1844 
L 1159 0 
L 581 0 
L 581 3500 
L 1159 3500 
L 1159 2956 
Q 1341 3275 1631 3429 
Q 1922 3584 2338 3584 
Q 2397 3584 2469 3576 
Q 2541 3569 2628 3553 
L 2631 2963 
z
" transform="scale(0.015625)"/>
       <path id="DejaVuSans-73" d="M 2834 3397 
L 2834 2853 
Q 2591 2978 2328 3040 
Q 2066 3103 1784 3103 
Q 1356 3103 1142 2972 
Q 928 2841 928 2578 
Q 928 2378 1081 2264 
Q 1234 2150 1697 2047 
L 1894 2003 
Q 2506 1872 2764 1633 
Q 3022 1394 3022 966 
Q 3022 478 2636 193 
Q 2250 -91 1575 -91 
Q 1294 -91 989 -36 
Q 684 19 347 128 
L 347 722 
Q 666 556 975 473 
Q 1284 391 1588 391 
Q 1994 391 2212 530 
Q 2431 669 2431 922 
Q 2431 1156 2273 1281 
Q 2116 1406 1581 1522 
L 1381 1569 
Q 847 1681 609 1914 
Q 372 2147 372 2553 
Q 372 3047 722 3315 
Q 1072 3584 1716 3584 
Q 2034 3584 2315 3537 
Q 2597 3491 2834 3397 
z
" transform="scale(0.015625)"/>
       <path id="DejaVuSans-5b" d="M 550 4863 
L 1875 4863 
L 1875 4416 
L 1125 4416 
L 1125 -397 
L 1875 -397 
L 1875 -844 
L 550 -844 
L 550 4863 
z
" transform="scale(0.015625)"/>
       <path id="DejaVuSans-5d" d="M 1947 4863 
L 1947 -844 
L 622 -844 
L 622 -397 
L 1369 -397 
L 1369 4416 
L 622 4416 
L 622 4863 
L 1947 4863 
z
" transform="scale(0.015625)"/>
      </defs>
      <use xlink:href="#DejaVuSans-74"/>
      <use xlink:href="#DejaVuSans-69" x="39.208984"/>
      <use xlink:href="#DejaVuSans-6d" x="66.992188"/>
      <use xlink:href="#DejaVuSans-65" x="164.404297"/>
      <use xlink:href="#DejaVuSans-20" x="225.927734"/>
      <use xlink:href="#DejaVuSans-69" x="257.714844"/>
      <use xlink:href="#DejaVuSans-6e" x="285.498047"/>
      <use xlink:href="#DejaVuSans-20" x="348.876953"/>
      <use xlink:href="#DejaVuSans-68" x="380.664062"/>
      <use xlink:href="#DejaVuSans-6f" x="444.042969"/>
      <use xlink:href="#DejaVuSans-75" x="505.224609"/>
      <use xlink:href="#DejaVuSans-72" x="568.603516"/>
      <use xlink:href="#DejaVuSans-73" x="609.716797"/>
      <use xlink:href="#DejaVuSans-20" x="661.816406"/>
      <use xlink:href="#DejaVuSans-5b" x="693.603516"/>
      <use xlink:href="#DejaVuSans-68" x="732.617188"/>
      <use xlink:href="#DejaVuSans-5d" x="795.996094"/>
     </g>
    </g>
   </g>
   <g id="matplotlib.axis_2">
    <g id="ytick_1">
     <g id="line2d_29">
      <path d="M 72 363.69 
L 518.4 363.69 
" clip-path="url(#p5c50dba6f5)" style="fill: none; stroke: #b0b0b0; stroke-width: 0.8; stroke-linecap: square"/>
     </g>
     <g id="line2d_30">
      <defs>
       <path id="mb5ecbe08b2" d="M 0 0 
L -3.5 0 
" style="stroke: #000000; stroke-width: 0.8"/>
      </defs>
      <g>
       <use xlink:href="#mb5ecbe08b2" x="72" y="363.69" style="stroke: #000000; stroke-width: 0.8"/>
      </g>
     </g>
     <g id="text_16">
      <!-- 0.0 -->
      <g transform="translate(49.096875 367.489219) scale(0.1 -0.1)">
       <use xlink:href="#DejaVuSans-30"/>
       <use xlink:href="#DejaVuSans-2e" x="63.623047"/>
       <use xlink:href="#DejaVuSans-30" x="95.410156"/>
      </g>
     </g>
    </g>
    <g id="ytick_2">
     <g id="line2d_31">
      <path d="M 72 311.715 
L 518.4 311.715 
" clip-path="url(#p5c50dba6f5)" style="fill: none; stroke: #b0b0b0; stroke-width: 0.8; stroke-linecap: square"/>
     </g>
     <g id="line2d_32">
      <g>
       <use xlink:href="#mb5ecbe08b2" x="72" y="311.715" style="stroke: #000000; stroke-width: 0.8"/>
      </g>
     </g>
     <g id="text_17">
      <!-- 0.5 -->
      <g transform="translate(49.096875 315.514219) scale(0.1 -0.1)">
       <use xlink:href="#DejaVuSans-30"/>
       <use xlink:href="#DejaVuSans-2e" x="63.623047"/>
       <use xlink:href="#DejaVuSans-35" x="95.410156"/>
      </g>
     </g>
    </g>
    <g id="ytick_3">
     <g id="line2d_33">
      <path d="M 72 259.74 
L 518.4 259.74 
" clip-path="url(#p5c50dba6f5)" style="fill: none; stroke: #b0b0b0; stroke-width: 0.8; stroke-linecap: square"/>
     </g>
     <g id="line2d_34">
      <g>
       <use xlink:href="#mb5ecbe08b2" x="72" y="259.74" style="stroke: #000000; stroke-width: 0.8"/>
      </g>
     </g>
     <g id="text_18">
      <!-- 1.0 -->
      <g transform="translate(49.096875 263.539219) scale(0.1 -0.1)">
       <use xlink:href="#DejaVuSans-31"/>
       <use xlink:href="#DejaVuSans-2e" x="63.623047"/>
       <use xlink:href="#DejaVuSans-30" x="95.410156"/>
      </g>
     </g>
    </g>
    <g id="ytick_4">
     <g id="line2d_35">
      <path d="M 72 207.765 
L 518.4 207.765 
" clip-path="url(#p5c50dba6f5)" style="fill: none; stroke: #b0b0b0; stroke-width: 0.8; stroke-linecap: square"/>
     </g>
     <g id="line2d_36">
      <g>
       <use xlink:href="#mb5ecbe08b2" x="72" y="207.765" style="stroke: #000000; stroke-width: 0.8"/>
      </g>
     </g>
     <g id="text_19">
      <!-- 1.5 -->
      <g transform="translate(49.096875 211.564219) scale(0.1 -0.1)">
       <use xlink:href="#DejaVuSans-31"/>
       <use xlink:href="#DejaVuSans-2e" x="63.623047"/>
       <use xlink:href="#DejaVuSans-35" x="95.410156"/>
      </g>
     </g>
    </g>
    <g id="ytick_5">
     <g id="line2d_37">
      <path d="M 72 155.79 
L 518.4 155.79 
" clip-path="url(#p5c50dba6f5)" style="fill: none; stroke: #b0b0b0; stroke-width: 0.8; stroke-linecap: square"/>
     </g>
     <g id="line2d_38">
      <g>
       <use xlink:href="#mb5ecbe08b2" x="72" y="155.79" style="stroke: #000000; stroke-width: 0.8"/>
      </g>
     </g>
     <g id="text_20">
      <!-- 2.0 -->
      <g transform="translate(49.096875 159.589219) scale(0.1 -0.1)">
       <use xlink:href="#DejaVuSans-32"/>
       <use xlink:href="#DejaVuSans-2e" x="63.623047"/>
       <use xlink:href="#DejaVuSans-30" x="95.410156"/>
      </g>
     </g>
    </g>
    <g id="ytick_6">
     <g id="line2d_39">
      <path d="M 72 103.815 
L 518.4 103.815 
" clip-path="url(#p5c50dba6f5)" style="fill: none; stroke: #b0b0b0; stroke-width: 0.8; stroke-linecap: square"/>
     </g>
     <g id="line2d_40">
      <g>
       <use xlink:href="#mb5ecbe08b2" x="72" y="103.815" style="stroke: #000000; stroke-width: 0.8"/>
      </g>
     </g>
     <g id="text_21">
      <!-- 2.5 -->
      <g transform="translate(49.096875 107.614219) scale(0.1 -0.1)">
       <use xlink:href="#DejaVuSans-32"/>
       <use xlink:href="#DejaVuSans-2e" x="63.623047"/>
       <use xlink:href="#DejaVuSans-35" x="95.410156"/>
      </g>
     </g>
    </g>
    <g id="ytick_7">
     <g id="line2d_41">
      <path d="M 72 51.84 
L 518.4 51.84 
" clip-path="url(#p5c50dba6f5)" style="fill: none; stroke: #b0b0b0; stroke-width: 0.8; stroke-linecap: square"/>
     </g>
     <g id="line2d_42">
      <g>
       <use xlink:href="#mb5ecbe08b2" x="72" y="51.84" style="stroke: #000000; stroke-width: 0.8"/>
      </g>
     </g>
     <g id="text_22">
      <!-- 3.0 -->
      <g transform="translate(49.096875 55.639219) scale(0.1 -0.1)">
       <use xlink:href="#DejaVuSans-33"/>
       <use xlink:href="#DejaVuSans-2e" x="63.623047"/>
       <use xlink:href="#DejaVuSans-30" x="95.410156"/>
      </g>
     </g>
    </g>
    <g id="text_23">
     <!-- blank corrected OD600 -->
     <g transform="translate(43.017187 276.115469) rotate(-90) scale(0.1 -0.1)">
      <defs>
       <path id="DejaVuSans-62" d="M 3116 1747 
Q 3116 2381 2855 2742 
Q 2594 3103 2138 3103 
Q 1681 3103 1420 2742 
Q 1159 2381 1159 1747 
Q 1159 1113 1420 752 
Q 1681 391 2138 391 
Q 2594 391 2855 752 
Q 3116 1113 3116 1747 
z
M 1159 2969 
Q 1341 3281 1617 3432 
Q 1894 3584 2278 3584 
Q 2916 3584 3314 3078 
Q 3713 2572 3713 1747 
Q 3713 922 3314 415 
Q 2916 -91 2278 -91 
Q 1894 -91 1617 61 
Q 1341 213 1159 525 
L 1159 0 
L 581 0 
L 581 4863 
L 1159 4863 
L 1159 2969 
z
" transform="scale(0.015625)"/>
       <path id="DejaVuSans-6c" d="M 603 4863 
L 1178 4863 
L 1178 0 
L 603 0 
L 603 4863 
z
" transform="scale(0.015625)"/>
       <path id="DejaVuSans-61" d="M 2194 1759 
Q 1497 1759 1228 1600 
Q 959 1441 959 1056 
Q 959 750 1161 570 
Q 1363 391 1709 391 
Q 2188 391 2477 730 
Q 2766 1069 2766 1631 
L 2766 1759 
L 2194 1759 
z
M 3341 1997 
L 3341 0 
L 2766 0 
L 2766 531 
Q 2569 213 2275 61 
Q 1981 -91 1556 -91 
Q 1019 -91 701 211 
Q 384 513 384 1019 
Q 384 1609 779 1909 
Q 1175 2209 1959 2209 
L 2766 2209 
L 2766 2266 
Q 2766 2663 2505 2880 
Q 2244 3097 1772 3097 
Q 1472 3097 1187 3025 
Q 903 2953 641 2809 
L 641 3341 
Q 956 3463 1253 3523 
Q 1550 3584 1831 3584 
Q 2591 3584 2966 3190 
Q 3341 2797 3341 1997 
z
" transform="scale(0.015625)"/>
       <path id="DejaVuSans-6b" d="M 581 4863 
L 1159 4863 
L 1159 1991 
L 2875 3500 
L 3609 3500 
L 1753 1863 
L 3688 0 
L 2938 0 
L 1159 1709 
L 1159 0 
L 581 0 
L 581 4863 
z
" transform="scale(0.015625)"/>
       <path id="DejaVuSans-63" d="M 3122 3366 
L 3122 2828 
Q 2878 2963 2633 3030 
Q 2388 3097 2138 3097 
Q 1578 3097 1268 2742 
Q 959 2388 959 1747 
Q 959 1106 1268 751 
Q 1578 397 2138 397 
Q 2388 397 2633 464 
Q 2878 531 3122 666 
L 3122 134 
Q 2881 22 2623 -34 
Q 2366 -91 2075 -91 
Q 1284 -91 818 406 
Q 353 903 353 1747 
Q 353 2603 823 3093 
Q 1294 3584 2113 3584 
Q 2378 3584 2631 3529 
Q 2884 3475 3122 3366 
z
" transform="scale(0.015625)"/>
       <path id="DejaVuSans-64" d="M 2906 2969 
L 2906 4863 
L 3481 4863 
L 3481 0 
L 2906 0 
L 2906 525 
Q 2725 213 2448 61 
Q 2172 -91 1784 -91 
Q 1150 -91 751 415 
Q 353 922 353 1747 
Q 353 2572 751 3078 
Q 1150 3584 1784 3584 
Q 2172 3584 2448 3432 
Q 2725 3281 2906 2969 
z
M 947 1747 
Q 947 1113 1208 752 
Q 1469 391 1925 391 
Q 2381 391 2643 752 
Q 2906 1113 2906 1747 
Q 2906 2381 2643 2742 
Q 2381 3103 1925 3103 
Q 1469 3103 1208 2742 
Q 947 2381 947 1747 
z
" transform="scale(0.015625)"/>
       <path id="DejaVuSans-4f" d="M 2522 4238 
Q 1834 4238 1429 3725 
Q 1025 3213 1025 2328 
Q 1025 1447 1429 934 
Q 1834 422 2522 422 
Q 3209 422 3611 934 
Q 4013 1447 4013 2328 
Q 4013 3213 3611 3725 
Q 3209 4238 2522 4238 
z
M 2522 4750 
Q 3503 4750 4090 4092 
Q 4678 3434 4678 2328 
Q 4678 1225 4090 567 
Q 3503 -91 2522 -91 
Q 1538 -91 948 565 
Q 359 1222 359 2328 
Q 359 3434 948 4092 
Q 1538 4750 2522 4750 
z
" transform="scale(0.015625)"/>
       <path id="DejaVuSans-44" d="M 1259 4147 
L 1259 519 
L 2022 519 
Q 2988 519 3436 956 
Q 3884 1394 3884 2338 
Q 3884 3275 3436 3711 
Q 2988 4147 2022 4147 
L 1259 4147 
z
M 628 4666 
L 1925 4666 
Q 3281 4666 3915 4102 
Q 4550 3538 4550 2338 
Q 4550 1131 3912 565 
Q 3275 0 1925 0 
L 628 0 
L 628 4666 
z
" transform="scale(0.015625)"/>
      </defs>
      <use xlink:href="#DejaVuSans-62"/>
      <use xlink:href="#DejaVuSans-6c" x="63.476562"/>
      <use xlink:href="#DejaVuSans-61" x="91.259766"/>
      <use xlink:href="#DejaVuSans-6e" x="152.539062"/>
      <use xlink:href="#DejaVuSans-6b" x="215.917969"/>
      <use xlink:href="#DejaVuSans-20" x="273.828125"/>
      <use xlink:href="#DejaVuSans-63" x="305.615234"/>
      <use xlink:href="#DejaVuSans-6f" x="360.595703"/>
      <use xlink:href="#DejaVuSans-72" x="421.777344"/>
      <use xlink:href="#DejaVuSans-72" x="461.140625"/>
      <use xlink:href="#DejaVuSans-65" x="500.003906"/>
      <use xlink:href="#DejaVuSans-63" x="561.527344"/>
      <use xlink:href="#DejaVuSans-74" x="616.507812"/>
      <use xlink:href="#DejaVuSans-65" x="655.716797"/>
      <use xlink:href="#DejaVuSans-64" x="717.240234"/>
      <use xlink:href="#DejaVuSans-20" x="780.716797"/>
      <use xlink:href="#DejaVuSans-4f" x="812.503906"/>
      <use xlink:href="#DejaVuSans-44" x="891.214844"/>
      <use xlink:href="#DejaVuSans-36" x="968.216797"/>
      <use xlink:href="#DejaVuSans-30" x="1031.839844"/>
      <use xlink:href="#DejaVuSans-30" x="1095.462891"/>
     </g>
    </g>
   </g>
   <g id="line2d_43">
    <path d="M 92.290909 359.589173 
L 93.763933 370.296022 
L 94.500445 368.840723 
L 95.236958 367.801222 
L 95.97347 367.073573 
L 96.709982 368.320972 
L 97.446494 368.424922 
L 98.183006 367.593322 
L 98.919518 367.905172 
L 99.65603 367.177523 
L 100.392542 368.424922 
L 101.129055 368.632822 
L 101.865567 368.009122 
L 102.602079 366.865673 
L 103.338591 367.385423 
L 104.075103 367.281473 
L 104.811615 368.632822 
L 105.548127 368.320972 
L 106.284639 369.256523 
L 107.021152 368.632822 
L 107.757664 370.088122 
L 108.494176 370.399972 
L 109.230688 370.088122 
L 111.440224 369.776273 
L 112.176737 369.880223 
L 112.913249 369.360473 
L 113.649761 369.256523 
L 114.386273 368.736773 
L 115.122785 368.632822 
L 115.859297 367.281473 
L 116.595809 367.697272 
L 117.332321 367.385423 
L 118.068834 366.761723 
L 118.805346 367.281473 
L 121.014882 365.410372 
L 122.487906 365.514322 
L 123.224418 364.994573 
L 123.960931 366.553823 
L 124.697443 366.034072 
L 125.433955 365.826172 
L 126.170467 363.435322 
L 127.643491 363.643222 
L 128.380003 362.603723 
L 129.116515 363.435322 
L 129.853028 362.499773 
L 130.58954 361.876073 
L 131.326052 360.628672 
L 132.062564 360.212873 
L 132.799076 359.277323 
L 133.535588 359.173372 
L 134.2721 358.133872 
L 135.008612 358.341772 
L 135.745125 357.925973 
L 136.481637 357.718073 
L 137.218149 356.990423 
L 137.954661 356.886473 
L 138.691173 356.262772 
L 139.427685 355.846972 
L 140.900709 355.535122 
L 141.637222 355.743022 
L 142.373734 355.743022 
L 143.846758 354.911423 
L 145.319782 353.664022 
L 146.056294 352.728473 
L 147.529319 351.273172 
L 148.265831 350.129723 
L 149.002343 348.570472 
L 149.738855 347.738873 
L 150.475367 346.595422 
L 151.211879 344.932223 
L 151.948391 343.996672 
L 154.157928 340.462373 
L 154.89444 339.630772 
L 155.630952 338.383373 
L 156.367464 337.863623 
L 157.103976 336.824122 
L 157.840488 336.200423 
L 160.050025 333.393773 
L 160.786537 333.185873 
L 161.523049 332.250322 
L 162.259561 331.834522 
L 162.996073 330.795023 
L 164.469098 328.092323 
L 165.20561 327.052822 
L 165.942122 324.973822 
L 166.678634 323.622473 
L 167.415146 321.439523 
L 168.151658 320.607922 
L 168.88817 318.528923 
L 171.097707 314.266973 
L 171.834219 312.395872 
L 172.570731 310.836622 
L 173.307243 309.797123 
L 174.043755 307.718122 
L 174.780267 306.678622 
L 175.516779 305.223322 
L 176.253292 303.352222 
L 176.989804 301.896923 
L 177.726316 300.025823 
L 178.462828 298.778422 
L 179.19934 296.075722 
L 181.408876 291.605872 
L 182.145389 289.422923 
L 182.881901 287.655773 
L 183.618413 285.472823 
L 184.354925 284.433322 
L 185.091437 282.250372 
L 187.300973 278.404223 
L 188.037486 276.325222 
L 188.773998 275.597572 
L 189.51051 273.726472 
L 190.983534 268.736873 
L 191.720046 266.969722 
L 192.456558 263.539373 
L 193.19307 261.252472 
L 193.929583 259.381372 
L 194.666095 257.926072 
L 195.402607 254.703622 
L 197.612143 248.362672 
L 198.348655 245.348122 
L 199.085167 244.308622 
L 199.82168 241.709872 
L 200.558192 240.046672 
L 201.294704 237.447922 
L 202.031216 235.576822 
L 202.767728 232.250422 
L 203.50424 230.899072 
L 204.977264 224.766022 
L 205.713777 223.310722 
L 206.450289 221.439622 
L 209.396337 215.514472 
L 210.132849 215.202622 
L 210.869361 213.331522 
L 212.342386 210.420922 
L 213.078898 209.277472 
L 213.81541 209.069572 
L 214.551922 207.406372 
L 215.288434 206.470822 
L 216.024946 204.287872 
L 216.761459 203.248372 
L 218.234483 200.649622 
L 218.970995 198.570622 
L 219.707507 197.842972 
L 221.917043 192.229672 
L 222.653556 189.423022 
L 224.12658 187.344022 
L 224.863092 185.368972 
L 225.599604 185.265022 
L 226.336116 182.770222 
L 227.072628 181.522822 
L 227.80914 179.859622 
L 228.545653 178.820122 
L 229.282165 176.949022 
L 230.018677 175.701622 
L 230.755189 173.622622 
L 231.491701 172.998922 
L 232.228213 171.959422 
L 232.964725 169.776472 
L 233.701237 168.321172 
L 234.43775 167.905372 
L 235.174262 166.657972 
L 235.910774 164.267122 
L 236.647286 164.059222 
L 237.383798 161.876272 
L 238.12031 161.252572 
L 238.856822 159.485422 
L 240.329847 156.990622 
L 241.066359 155.327422 
L 241.802871 155.327422 
L 242.539383 153.456322 
L 243.275895 152.936572 
L 244.012407 152.208922 
L 244.748919 150.441772 
L 245.485431 150.753622 
L 246.221944 148.466722 
L 246.958456 147.739072 
L 247.694968 145.867973 
L 248.43148 144.412672 
L 249.167992 144.100822 
L 249.904504 142.853422 
L 250.641016 142.229722 
L 251.377528 141.190222 
L 252.114041 139.942822 
L 252.850553 139.215172 
L 253.587065 137.967772 
L 254.323577 138.071722 
L 255.060089 136.200623 
L 255.796601 134.953222 
L 256.533113 134.121622 
L 257.269625 133.913722 
L 258.006138 133.186072 
L 258.74265 132.770272 
L 259.479162 131.938672 
L 260.215674 130.587322 
L 260.952186 130.691272 
L 261.688698 129.132022 
L 262.42521 130.275472 
L 263.161722 128.612272 
L 263.898235 129.443872 
L 264.634747 128.404372 
L 265.371259 126.949072 
L 266.107771 126.013522 
L 267.580795 124.974022 
L 268.317307 122.895022 
L 269.05382 123.622672 
L 269.790332 123.518722 
L 270.526844 121.959472 
L 271.263356 120.816022 
L 271.999868 121.959472 
L 272.73638 119.776522 
L 273.472892 120.192322 
L 274.209404 118.529122 
L 274.945917 118.633072 
L 275.682429 118.944922 
L 276.418941 118.009372 
L 277.155453 118.425172 
L 277.891965 117.177772 
L 279.364989 116.242222 
L 280.101501 117.489622 
L 280.838014 114.579022 
L 282.311038 114.059272 
L 283.04755 113.331622 
L 283.784062 113.227672 
L 284.520574 111.772372 
L 285.257086 113.331622 
L 285.993598 113.019772 
L 286.730111 111.460522 
L 287.466623 111.876323 
L 288.203135 109.277572 
L 288.939647 110.317072 
L 289.676159 108.757822 
L 290.412671 109.693372 
L 291.149183 110.005222 
L 291.885695 108.757822 
L 293.35872 106.886723 
L 294.095232 107.510422 
L 294.831744 105.951172 
L 295.568256 107.614372 
L 297.04128 104.703772 
L 297.777792 104.807722 
L 298.514305 104.391923 
L 299.250817 104.703772 
L 299.987329 101.689222 
L 300.723841 99.922072 
L 301.460353 103.248472 
L 302.196865 103.248472 
L 302.933377 102.312922 
L 303.669889 102.416872 
L 304.406402 100.649722 
L 305.142914 102.520822 
L 305.879426 102.416872 
L 306.615938 99.818122 
L 307.35245 100.337872 
L 308.088962 97.843072 
L 308.825474 100.129972 
L 309.561986 98.570722 
L 311.035011 98.674672 
L 311.771523 98.570722 
L 312.508035 99.402322 
L 313.244547 97.843072 
L 314.717571 96.283822 
L 315.454083 95.036422 
L 316.927108 95.140372 
L 317.66362 96.699622 
L 318.400132 95.764072 
L 319.136644 94.308772 
L 319.873156 94.932472 
L 320.609668 93.165322 
L 321.34618 94.100872 
L 322.819205 92.957422 
L 324.292229 94.308772 
L 325.028741 91.710022 
L 325.765253 92.645572 
L 326.501765 91.294222 
L 327.97479 92.229772 
L 328.711302 90.566573 
L 329.447814 90.046822 
L 330.920838 90.774472 
L 331.65735 91.917922 
L 332.393862 88.799422 
L 333.130375 89.007322 
L 333.866887 89.942872 
L 334.603399 90.462622 
L 335.339911 89.527072 
L 336.076423 88.383623 
L 336.812935 88.487572 
L 337.549447 89.215222 
L 338.285959 90.150772 
L 339.022472 89.215222 
L 339.758984 90.670522 
L 340.495496 86.512522 
L 341.232008 89.734972 
L 341.96852 88.487572 
L 342.705032 88.071773 
L 343.441544 88.695472 
L 344.178056 85.161172 
L 344.914569 88.175722 
L 345.651081 87.759922 
L 346.387593 86.408572 
L 347.124105 86.824372 
L 347.860617 85.057223 
L 348.597129 85.992772 
L 349.333641 87.448072 
L 350.070153 88.383623 
L 350.806666 86.720422 
L 351.543178 86.720422 
L 352.27969 86.512522 
L 353.016202 85.369072 
L 353.752714 84.641422 
L 354.489226 85.576973 
L 355.225738 86.096722 
L 355.96225 84.017722 
L 356.698763 87.552023 
L 357.435275 85.576973 
L 358.171787 81.938722 
L 358.908299 85.265122 
L 359.644811 83.913772 
L 360.381323 84.641422 
L 361.117835 84.537472 
L 361.854347 84.745372 
L 362.59086 85.161172 
L 363.327372 84.225622 
L 364.063884 83.809822 
L 364.800396 83.913772 
L 365.536908 83.497972 
L 366.27342 85.473022 
L 367.009932 83.290072 
L 367.746444 85.992772 
L 368.482957 82.458472 
L 369.219469 83.394023 
L 369.955981 84.537472 
L 370.692493 80.587372 
L 371.429005 82.354522 
L 372.165517 79.651822 
L 372.902029 82.978222 
L 373.638541 81.003172 
L 374.375054 82.354522 
L 375.111566 82.978222 
L 375.848078 80.691322 
L 376.58459 81.730822 
L 377.321102 83.601923 
L 378.057614 81.418972 
L 378.794126 82.458472 
L 379.530639 82.042672 
L 380.267151 80.171572 
L 381.003663 82.666372 
L 381.740175 81.418972 
L 383.213199 82.458472 
L 383.949711 80.899223 
L 384.686223 82.666372 
L 385.422736 83.394023 
L 386.159248 81.730822 
L 386.89576 82.562422 
L 387.632272 80.899223 
L 388.368784 81.418972 
L 389.105296 81.730822 
L 389.841808 82.250572 
L 390.57832 81.003172 
L 391.314833 79.339972 
L 392.051345 81.834772 
L 392.787857 80.379472 
L 393.524369 81.107122 
L 394.260881 77.364922 
L 394.997393 80.171572 
L 395.733905 80.587372 
L 396.470417 80.067622 
L 397.20693 80.587372 
L 397.943442 79.547872 
L 398.679954 81.834772 
L 399.416466 81.522922 
L 400.88949 80.379472 
L 401.626002 79.859722 
L 402.362514 83.082173 
L 403.099027 81.834772 
L 403.835539 79.963672 
L 404.572051 79.859722 
L 405.308563 82.354522 
L 406.045075 80.691322 
L 406.781587 80.483422 
L 407.518099 80.899223 
L 408.254611 82.458472 
L 408.991124 82.354522 
L 409.727636 80.483422 
L 410.464148 77.572822 
L 411.20066 82.146622 
L 411.937172 81.211072 
L 412.673684 80.483422 
L 413.410196 82.458472 
L 414.146708 81.315022 
L 414.883221 82.874272 
L 415.619733 79.963672 
L 417.092757 84.433522 
L 417.829269 81.834772 
L 418.565781 80.483422 
L 419.302293 82.042672 
L 420.038805 79.028122 
L 420.775318 79.443922 
L 421.51183 79.236022 
L 422.248342 78.716272 
L 423.721366 82.562422 
L 424.457878 79.443922 
L 425.19439 79.547872 
L 425.930902 80.171572 
L 426.667415 80.379472 
L 427.403927 80.899223 
L 428.876951 80.379472 
L 429.613463 81.211072 
L 430.349975 78.924172 
L 431.086487 80.379472 
L 432.559512 80.171572 
L 434.032536 81.211072 
L 434.769048 80.691322 
L 435.50556 82.042672 
L 436.242072 80.275522 
L 436.978584 81.938722 
L 437.715097 79.132072 
L 439.188121 78.820222 
L 439.924633 80.483422 
L 440.661145 80.171572 
L 441.397657 77.572822 
L 442.134169 79.963672 
L 442.870681 81.003172 
L 443.607194 81.003172 
L 445.080218 80.691322 
L 445.81673 79.443922 
L 446.553242 79.651822 
L 447.289754 78.300472 
L 448.026266 80.379472 
L 448.762778 80.379472 
L 449.499291 79.859722 
L 450.235803 80.067622 
L 450.972315 81.938722 
L 451.708827 79.443922 
L 452.445339 78.404423 
L 453.181851 81.211072 
L 453.918363 78.924172 
L 454.654875 81.834772 
L 455.391388 79.443922 
L 456.1279 81.107122 
L 456.864412 80.379472 
L 457.600924 80.691322 
L 458.337436 77.988622 
L 459.073948 79.339972 
L 459.81046 82.458472 
L 460.546972 80.587372 
L 461.283485 80.067622 
L 462.019997 82.978222 
L 462.756509 80.691322 
L 463.493021 82.666372 
L 464.229533 82.458472 
L 464.966045 82.458472 
L 465.702557 81.003172 
L 466.439069 81.522922 
L 467.175582 82.458472 
L 467.912094 81.211072 
L 468.648606 81.834772 
L 469.385118 82.874272 
L 470.12163 81.211072 
L 470.858142 81.211072 
L 471.594654 80.067622 
L 472.331166 85.057223 
L 473.067679 81.315022 
L 473.804191 81.522922 
L 474.540703 81.211072 
L 475.277215 83.082173 
L 476.013727 81.418972 
L 476.750239 83.497972 
L 477.486751 82.146622 
L 479.696288 84.225622 
L 480.4328 81.418972 
L 481.169312 82.978222 
L 481.905824 83.394023 
L 482.642336 82.042672 
L 483.378848 83.601923 
L 484.115361 81.107122 
L 484.851873 83.290072 
L 486.324897 82.978222 
L 487.061409 82.354522 
L 487.797921 81.107122 
L 488.534433 81.626872 
L 489.270945 83.497972 
L 490.007458 83.913772 
L 490.74397 83.082173 
L 491.480482 84.745372 
L 492.216994 83.809822 
L 492.953506 85.369072 
L 493.690018 81.418972 
L 494.42653 83.705872 
L 495.163042 83.913772 
L 495.899555 82.562422 
L 497.372579 84.017722 
L 498.109091 82.042672 
L 498.109091 82.042672 
" clip-path="url(#p5c50dba6f5)" style="fill: none; stroke: #0000ff; stroke-opacity: 0.5; stroke-width: 1.5; stroke-linecap: square"/>
   </g>
   <g id="line2d_44">
    <path d="M 92.290909 358.757572 
L 93.027421 363.539272 
L 93.763933 371.127623 
L 94.500445 369.256523 
L 95.236958 367.073573 
L 95.97347 367.385423 
L 96.709982 366.969623 
L 97.446494 367.177523 
L 98.183006 366.969623 
L 98.919518 366.449873 
L 99.65603 366.657773 
L 101.865567 368.736773 
L 102.602079 369.048623 
L 103.338591 368.944673 
L 104.075103 368.528872 
L 104.811615 369.464423 
L 105.548127 369.672323 
L 106.284639 368.944673 
L 107.021152 368.528872 
L 107.757664 369.464423 
L 108.494176 368.736773 
L 109.230688 369.776273 
L 109.9672 369.464423 
L 110.703712 369.464423 
L 111.440224 370.088122 
L 112.913249 369.568373 
L 113.649761 369.152573 
L 114.386273 368.113072 
L 115.859297 367.905172 
L 116.595809 367.281473 
L 118.068834 364.994573 
L 118.805346 366.449873 
L 119.541858 366.034072 
L 120.27837 366.553823 
L 121.014882 365.826172 
L 121.751394 365.930122 
L 123.224418 365.618272 
L 123.960931 366.449873 
L 125.433955 365.098523 
L 126.170467 363.331372 
L 126.906979 363.955073 
L 127.643491 364.266923 
L 128.380003 363.643222 
L 129.116515 364.059023 
L 129.853028 362.499773 
L 130.58954 361.876073 
L 131.326052 360.732622 
L 132.799076 359.485223 
L 133.535588 359.381273 
L 134.2721 358.445722 
L 135.008612 358.237822 
L 137.954661 356.470672 
L 138.691173 355.950922 
L 139.427685 355.846972 
L 140.164197 356.054872 
L 140.900709 355.950922 
L 141.637222 356.158822 
L 142.373734 355.846972 
L 146.056294 352.624523 
L 146.792806 351.688972 
L 147.529319 351.065272 
L 151.948391 343.476923 
L 152.684903 341.397922 
L 153.421416 341.086073 
L 155.630952 338.071523 
L 156.367464 337.343872 
L 157.840488 335.472773 
L 158.577 334.953022 
L 160.050025 333.601673 
L 161.523049 332.770072 
L 162.259561 332.146372 
L 163.732585 329.755522 
L 164.469098 328.092323 
L 165.20561 326.948872 
L 167.415146 320.919773 
L 168.151658 319.984222 
L 169.624682 316.345973 
L 170.361195 315.098572 
L 173.307243 308.965523 
L 174.780267 306.054922 
L 176.253292 303.144322 
L 176.989804 301.792973 
L 177.726316 299.713973 
L 179.19934 296.179672 
L 183.618413 285.057023 
L 184.354925 283.705672 
L 185.091437 281.730622 
L 185.827949 280.275323 
L 186.564461 279.131872 
L 187.300973 278.196323 
L 188.037486 276.637072 
L 188.773998 275.909423 
L 189.51051 274.142272 
L 190.983534 268.736873 
L 193.19307 261.876172 
L 195.402607 254.599672 
L 196.139119 252.416722 
L 196.875631 249.714022 
L 197.612143 247.842922 
L 198.348655 245.140222 
L 199.085167 243.892822 
L 200.558192 239.526922 
L 201.294704 237.551873 
L 202.767728 232.042522 
L 203.50424 230.275372 
L 204.977264 224.973922 
L 206.450289 220.608022 
L 207.186801 219.568522 
L 207.923313 217.697422 
L 209.396337 214.994722 
L 210.132849 213.019672 
L 212.342386 210.005122 
L 213.078898 208.237972 
L 213.81541 207.614272 
L 214.551922 206.158972 
L 215.288434 205.015522 
L 216.761459 201.897022 
L 217.497971 200.753572 
L 218.234483 199.298272 
L 218.970995 197.427172 
L 219.707507 196.907422 
L 220.444019 194.204722 
L 221.180531 192.749422 
L 222.653556 188.903272 
L 223.390068 187.759822 
L 224.12658 185.888722 
L 224.863092 185.057122 
L 225.599604 183.913672 
L 226.336116 182.250472 
L 227.072628 180.899122 
L 227.80914 179.235922 
L 228.545653 177.988522 
L 229.282165 176.117422 
L 230.018677 175.285822 
L 232.228213 170.296222 
L 232.964725 169.360672 
L 233.701237 167.593522 
L 235.174262 165.306622 
L 235.910774 163.227622 
L 236.647286 162.603922 
L 237.383798 160.836772 
L 238.12031 159.901222 
L 238.856822 158.757772 
L 239.593334 158.030122 
L 240.329847 156.159022 
L 241.066359 155.119522 
L 241.802871 154.495822 
L 242.539383 153.040523 
L 244.012407 151.273372 
L 244.748919 150.545723 
L 246.221944 147.635122 
L 246.958456 145.660072 
L 247.694968 145.660072 
L 248.43148 144.308722 
L 249.167992 143.685022 
L 249.904504 142.437622 
L 250.641016 141.813922 
L 252.114041 138.071722 
L 252.850553 137.967772 
L 253.587065 136.824322 
L 254.323577 135.992722 
L 255.060089 136.200623 
L 255.796601 133.393972 
L 256.533113 134.225572 
L 257.269625 132.770272 
L 258.006138 132.770272 
L 258.74265 130.379423 
L 259.479162 130.795222 
L 260.215674 130.067572 
L 260.952186 128.508322 
L 261.688698 127.884623 
L 262.42521 128.820172 
L 263.161722 126.325372 
L 263.898235 127.780672 
L 264.634747 127.053022 
L 265.371259 125.181922 
L 266.107771 124.350322 
L 266.844283 124.766122 
L 268.317307 121.439722 
L 269.05382 122.375272 
L 269.790332 121.959472 
L 270.526844 121.127872 
L 271.263356 119.984422 
L 271.999868 119.880472 
L 272.73638 119.152822 
L 273.472892 118.113322 
L 274.209404 118.633072 
L 274.945917 117.281722 
L 275.682429 117.697522 
L 277.155453 117.489622 
L 277.891965 116.658022 
L 278.628477 114.994822 
L 279.364989 115.618522 
L 280.101501 115.930372 
L 280.838014 112.811872 
L 281.574526 113.851372 
L 282.311038 114.475072 
L 283.04755 113.747422 
L 283.784062 113.331622 
L 284.520574 112.500022 
L 285.257086 112.915822 
L 285.993598 111.460522 
L 286.730111 110.524972 
L 287.466623 109.901272 
L 288.939647 109.277572 
L 289.676159 107.926222 
L 291.149183 108.861772 
L 291.885695 108.342022 
L 292.622208 106.574872 
L 293.35872 106.782772 
L 294.095232 105.639322 
L 294.831744 105.015622 
L 295.568256 105.951172 
L 296.304768 104.599822 
L 297.04128 104.495872 
L 297.777792 105.743272 
L 298.514305 103.352422 
L 299.250817 103.976122 
L 299.987329 103.144522 
L 300.723841 101.377372 
L 301.460353 102.208972 
L 302.196865 102.832672 
L 302.933377 102.936622 
L 304.406402 100.337872 
L 305.142914 103.040572 
L 305.879426 100.649722 
L 306.615938 100.233923 
L 307.35245 99.090472 
L 308.088962 98.154922 
L 308.825474 100.129972 
L 309.561986 99.194422 
L 310.298499 98.882572 
L 311.035011 99.090472 
L 311.771523 98.778622 
L 312.508035 98.986522 
L 313.244547 96.907522 
L 313.981059 95.660122 
L 314.717571 96.387772 
L 315.454083 95.868022 
L 316.190596 95.140372 
L 316.927108 95.764072 
L 317.66362 96.075922 
L 318.400132 96.595672 
L 319.136644 94.516672 
L 319.873156 96.387772 
L 320.609668 94.932472 
L 321.34618 93.789022 
L 322.082693 93.892972 
L 322.819205 92.021872 
L 323.555717 95.971972 
L 324.292229 93.996922 
L 325.028741 93.373222 
L 325.765253 94.204822 
L 326.501765 91.917922 
L 327.238278 90.358672 
L 327.97479 90.982372 
L 328.711302 91.086322 
L 329.447814 90.358672 
L 330.184326 91.086322 
L 330.920838 92.021872 
L 333.130375 88.799422 
L 333.866887 89.319172 
L 334.603399 90.878422 
L 335.339911 90.982372 
L 336.076423 88.279672 
L 336.812935 89.734972 
L 337.549447 87.552023 
L 338.285959 89.215222 
L 339.022472 89.838922 
L 339.758984 89.215222 
L 340.495496 89.111272 
L 341.232008 88.487572 
L 341.96852 87.552023 
L 342.705032 89.111272 
L 343.441544 89.319172 
L 344.178056 88.591522 
L 344.914569 88.279672 
L 345.651081 86.096722 
L 346.387593 88.279672 
L 347.124105 87.240172 
L 348.597129 87.552023 
L 349.333641 86.408572 
L 350.070153 88.487572 
L 350.806666 88.591522 
L 351.543178 87.344122 
L 352.27969 89.007322 
L 353.016202 86.200672 
L 353.752714 87.032272 
L 354.489226 87.032272 
L 355.225738 87.448072 
L 355.96225 87.032272 
L 356.698763 85.265122 
L 357.435275 85.369072 
L 358.171787 86.928322 
L 358.908299 86.096722 
L 359.644811 85.888823 
L 360.381323 86.824372 
L 361.117835 86.720422 
L 361.854347 85.784872 
L 362.59086 86.512522 
L 363.327372 86.304622 
L 364.063884 86.616472 
L 364.800396 83.601923 
L 365.536908 85.576973 
L 366.27342 85.888823 
L 367.009932 84.641422 
L 367.746444 86.616472 
L 368.482957 83.082173 
L 369.219469 84.953272 
L 369.955981 86.512522 
L 370.692493 84.121672 
L 371.429005 82.874272 
L 372.165517 83.394023 
L 372.902029 84.121672 
L 373.638541 84.225622 
L 374.375054 83.601923 
L 375.111566 84.745372 
L 375.848078 84.641422 
L 376.58459 85.992772 
L 377.321102 85.057223 
L 378.057614 83.082173 
L 378.794126 84.849322 
L 379.530639 83.186122 
L 380.267151 82.666372 
L 381.003663 84.225622 
L 381.740175 84.017722 
L 382.476687 84.121672 
L 383.213199 83.394023 
L 383.949711 83.705872 
L 384.686223 84.745372 
L 385.422736 83.601923 
L 386.159248 85.369072 
L 387.632272 84.225622 
L 388.368784 82.354522 
L 389.105296 83.913772 
L 389.841808 84.225622 
L 390.57832 82.354522 
L 391.314833 83.394023 
L 392.051345 83.913772 
L 392.787857 83.601923 
L 394.260881 81.107122 
L 395.733905 82.666372 
L 396.470417 83.394023 
L 397.20693 82.874272 
L 397.943442 83.705872 
L 398.679954 82.562422 
L 399.416466 83.394023 
L 400.152978 85.057223 
L 400.88949 82.978222 
L 401.626002 83.601923 
L 402.362514 85.473022 
L 403.099027 84.121672 
L 403.835539 83.705872 
L 404.572051 82.978222 
L 405.308563 83.913772 
L 406.045075 81.626872 
L 406.781587 83.809822 
L 407.518099 82.146622 
L 408.991124 85.057223 
L 410.464148 81.938722 
L 411.20066 85.057223 
L 411.937172 82.770322 
L 412.673684 83.082173 
L 413.410196 84.537472 
L 414.146708 84.225622 
L 414.883221 84.641422 
L 415.619733 84.225622 
L 416.356245 82.458472 
L 417.092757 85.680922 
L 417.829269 85.680922 
L 418.565781 81.315022 
L 419.302293 85.161172 
L 420.038805 83.082173 
L 420.775318 83.601923 
L 421.51183 85.057223 
L 422.248342 82.562422 
L 422.984854 84.329572 
L 423.721366 83.913772 
L 424.457878 82.874272 
L 425.19439 83.394023 
L 425.930902 85.473022 
L 426.667415 83.809822 
L 427.403927 85.161172 
L 428.140439 85.784872 
L 428.876951 84.849322 
L 429.613463 84.433522 
L 430.349975 81.522922 
L 431.086487 84.641422 
L 431.823 84.537472 
L 432.559512 85.161172 
L 433.296024 85.473022 
L 434.032536 84.745372 
L 434.769048 84.745372 
L 435.50556 85.057223 
L 436.242072 84.225622 
L 436.978584 86.304622 
L 437.715097 84.537472 
L 438.451609 84.017722 
L 439.188121 84.537472 
L 439.924633 85.369072 
L 440.661145 84.433522 
L 441.397657 84.537472 
L 442.134169 84.953272 
L 442.870681 85.057223 
L 443.607194 85.992772 
L 444.343706 83.809822 
L 445.080218 84.745372 
L 445.81673 83.394023 
L 446.553242 83.913772 
L 447.289754 82.874272 
L 448.026266 85.784872 
L 448.762778 85.992772 
L 449.499291 86.512522 
L 450.235803 85.473022 
L 450.972315 87.032272 
L 451.708827 84.225622 
L 452.445339 84.329572 
L 453.181851 87.032272 
L 453.918363 86.096722 
L 454.654875 88.591522 
L 455.391388 84.641422 
L 456.1279 85.369072 
L 456.864412 84.329572 
L 457.600924 85.992772 
L 458.337436 83.290072 
L 459.073948 85.576973 
L 459.81046 86.408572 
L 460.546972 84.433522 
L 461.283485 86.512522 
L 462.019997 87.136222 
L 462.756509 87.032272 
L 463.493021 86.720422 
L 464.229533 88.071773 
L 464.966045 87.759922 
L 465.702557 86.096722 
L 466.439069 88.487572 
L 467.175582 85.888823 
L 467.912094 88.071773 
L 468.648606 86.200672 
L 469.385118 88.383623 
L 470.12163 86.512522 
L 470.858142 85.888823 
L 471.594654 86.720422 
L 472.331166 88.071773 
L 473.067679 86.512522 
L 473.804191 87.759922 
L 474.540703 86.096722 
L 475.277215 90.774472 
L 476.013727 87.655972 
L 476.750239 87.344122 
L 477.486751 87.863872 
L 478.223263 88.695472 
L 478.959776 88.383623 
L 479.696288 88.591522 
L 480.4328 86.928322 
L 481.169312 87.967822 
L 481.905824 87.967822 
L 482.642336 88.383623 
L 483.378848 90.254722 
L 484.115361 85.265122 
L 484.851873 88.903372 
L 485.588385 88.383623 
L 486.324897 90.046822 
L 487.061409 87.552023 
L 487.797921 85.784872 
L 488.534433 88.799422 
L 489.270945 89.527072 
L 490.74397 88.175722 
L 491.480482 89.527072 
L 492.216994 91.294222 
L 492.953506 90.670522 
L 493.690018 88.695472 
L 494.42653 88.799422 
L 495.163042 90.774472 
L 495.899555 88.903372 
L 496.636067 89.527072 
L 497.372579 89.942872 
L 498.109091 86.928322 
L 498.109091 86.928322 
" clip-path="url(#p5c50dba6f5)" style="fill: none; stroke: #0000ff; stroke-opacity: 0.5; stroke-width: 1.5; stroke-linecap: square"/>
   </g>
   <g id="line2d_45">
    <path d="M 92.290909 358.653622 
L 93.027421 364.266923 
L 93.763933 371.959223 
L 94.500445 368.736773 
L 95.236958 367.073573 
L 95.97347 367.489373 
L 96.709982 367.177523 
L 97.446494 367.281473 
L 98.183006 367.697272 
L 98.919518 368.320972 
L 99.65603 367.073573 
L 100.392542 367.801222 
L 101.129055 369.152573 
L 101.865567 369.256523 
L 102.602079 369.776273 
L 104.075103 369.464423 
L 104.811615 369.776273 
L 105.548127 369.568373 
L 106.284639 368.424922 
L 107.757664 369.984172 
L 108.494176 369.256523 
L 109.230688 370.296022 
L 109.9672 370.399972 
L 110.703712 369.984172 
L 112.176737 369.880223 
L 113.649761 369.776273 
L 114.386273 368.736773 
L 115.122785 368.320972 
L 115.859297 368.217022 
L 116.595809 367.385423 
L 117.332321 367.489373 
L 118.068834 367.073573 
L 118.805346 367.385423 
L 119.541858 366.553823 
L 120.27837 366.138022 
L 121.751394 367.177523 
L 122.487906 367.281473 
L 123.224418 366.345923 
L 123.960931 366.345923 
L 124.697443 365.202472 
L 125.433955 364.890623 
L 126.170467 363.851122 
L 126.906979 363.747172 
L 128.380003 364.266923 
L 129.116515 363.851122 
L 129.853028 363.227422 
L 130.58954 361.668173 
L 131.326052 361.772123 
L 132.062564 360.524722 
L 132.799076 360.316823 
L 133.535588 359.381273 
L 135.008612 357.925973 
L 135.745125 357.406223 
L 138.691173 356.574622 
L 140.164197 357.094373 
L 141.637222 355.950922 
L 143.846758 354.183772 
L 145.319782 352.312673 
L 146.056294 351.688972 
L 147.529319 350.025773 
L 148.265831 348.986272 
L 149.002343 348.154673 
L 152.684903 342.125572 
L 153.421416 341.501872 
L 154.157928 340.462373 
L 154.89444 339.734722 
L 155.630952 338.591273 
L 156.367464 338.175473 
L 157.103976 337.239922 
L 157.840488 336.720172 
L 158.577 336.408322 
L 159.313513 336.304372 
L 160.050025 335.888573 
L 160.786537 334.745122 
L 161.523049 333.809573 
L 162.259561 333.185873 
L 163.732585 330.275272 
L 164.469098 328.923923 
L 165.942122 325.389622 
L 167.415146 321.543473 
L 168.151658 320.192122 
L 169.624682 316.761773 
L 171.097707 314.059073 
L 171.834219 312.395872 
L 174.780267 306.990473 
L 175.516779 306.262822 
L 176.989804 303.664072 
L 177.726316 302.000873 
L 178.462828 300.961372 
L 179.19934 298.674472 
L 179.935852 297.115222 
L 180.672364 294.828323 
L 181.408876 293.061172 
L 182.145389 290.566372 
L 182.881901 289.318972 
L 184.354925 285.992572 
L 185.091437 285.057023 
L 185.827949 284.433322 
L 186.564461 284.329372 
L 187.300973 283.289873 
L 188.037486 281.002972 
L 188.773998 279.651623 
L 189.51051 277.780522 
L 191.720046 269.672422 
L 193.19307 265.618372 
L 194.666095 260.212972 
L 196.139119 255.535222 
L 196.875631 252.936472 
L 197.612143 250.857472 
L 198.348655 248.362672 
L 199.085167 247.115272 
L 199.82168 244.204672 
L 201.294704 240.150622 
L 203.50424 233.185972 
L 204.240752 230.379323 
L 207.186801 221.439622 
L 207.923313 220.400122 
L 208.659825 217.385572 
L 210.132849 216.034222 
L 210.869361 214.267072 
L 211.605874 213.123622 
L 213.078898 210.213022 
L 213.81541 209.901172 
L 214.551922 208.237972 
L 215.288434 207.614272 
L 216.024946 205.535272 
L 216.761459 204.079972 
L 217.497971 202.208872 
L 218.970995 199.610122 
L 219.707507 198.778522 
L 221.917043 193.269172 
L 222.653556 190.774372 
L 223.390068 189.630922 
L 224.12658 188.175622 
L 225.599604 186.200572 
L 226.336116 184.329472 
L 227.072628 183.082072 
L 227.80914 180.587272 
L 228.545653 180.067522 
L 230.755189 176.013472 
L 231.491701 174.350272 
L 232.228213 173.414722 
L 232.964725 171.127822 
L 233.701237 170.088322 
L 234.43775 169.984372 
L 235.174262 167.697472 
L 235.910774 166.034272 
L 236.647286 165.618472 
L 237.383798 163.435522 
L 238.12031 163.019723 
L 238.856822 161.148622 
L 241.066359 158.030122 
L 241.802871 156.782722 
L 242.539383 156.055072 
L 244.012407 153.664222 
L 244.748919 152.728672 
L 245.485431 151.585222 
L 246.221944 149.922022 
L 247.694968 148.986472 
L 248.43148 147.219323 
L 249.167992 146.699573 
L 249.904504 144.620572 
L 250.641016 144.412672 
L 251.377528 143.892922 
L 252.114041 142.229722 
L 252.850553 141.086272 
L 253.587065 140.358623 
L 254.323577 140.358623 
L 255.060089 138.071722 
L 255.796601 136.408522 
L 256.533113 136.824322 
L 257.269625 136.408522 
L 259.479162 133.186072 
L 260.215674 132.874223 
L 260.952186 131.938672 
L 261.688698 131.626822 
L 262.42521 131.834722 
L 263.161722 130.067572 
L 263.898235 130.587322 
L 264.634747 130.691272 
L 265.371259 129.028072 
L 266.107771 127.780672 
L 266.844283 128.092522 
L 267.580795 126.637222 
L 268.317307 125.805622 
L 269.05382 126.013522 
L 269.790332 125.701673 
L 270.526844 125.077972 
L 271.263356 123.934522 
L 271.999868 124.246372 
L 272.73638 122.583172 
L 273.472892 122.375272 
L 274.209404 122.583172 
L 274.945917 121.543673 
L 276.418941 121.231822 
L 277.155453 121.127872 
L 277.891965 119.672572 
L 278.628477 121.231822 
L 279.364989 119.464672 
L 280.101501 119.984422 
L 280.838014 118.113322 
L 281.574526 118.217273 
L 282.311038 118.633072 
L 283.04755 117.281722 
L 283.784062 116.242222 
L 284.520574 116.658022 
L 285.257086 115.618522 
L 285.993598 115.618522 
L 286.730111 114.579022 
L 287.466623 115.618522 
L 288.203135 113.643472 
L 288.939647 113.955322 
L 289.676159 112.707922 
L 290.412671 112.603972 
L 291.149183 113.955322 
L 291.885695 112.811872 
L 292.622208 112.707922 
L 293.35872 111.044723 
L 294.095232 110.732872 
L 294.831744 109.693372 
L 295.568256 110.524972 
L 296.304768 109.797322 
L 297.777792 109.173622 
L 298.514305 108.030172 
L 299.987329 108.342022 
L 300.723841 107.198572 
L 301.460353 107.302522 
L 302.196865 106.782772 
L 302.933377 106.990672 
L 303.669889 106.990672 
L 304.406402 105.639322 
L 305.142914 108.965722 
L 305.879426 106.886723 
L 306.615938 105.743272 
L 308.088962 104.391923 
L 308.825474 104.807722 
L 309.561986 104.599822 
L 310.298499 104.807722 
L 311.035011 104.391923 
L 311.771523 104.184022 
L 312.508035 104.391923 
L 313.244547 104.184022 
L 313.981059 102.312922 
L 314.717571 102.312922 
L 315.454083 101.897122 
L 316.190596 103.664272 
L 316.927108 101.585272 
L 317.66362 103.560322 
L 318.400132 103.560322 
L 319.136644 101.585272 
L 319.873156 102.001072 
L 320.609668 102.105022 
L 321.34618 101.065522 
L 322.082693 102.312922 
L 322.819205 99.922072 
L 323.555717 100.441822 
L 324.292229 99.298372 
L 325.028741 99.610222 
L 325.765253 99.610222 
L 326.501765 98.986522 
L 327.238278 99.090472 
L 327.97479 98.362822 
L 328.711302 97.011472 
L 329.447814 98.570722 
L 330.184326 97.219373 
L 331.65735 98.362822 
L 332.393862 97.947022 
L 333.866887 97.635172 
L 334.603399 98.258872 
L 335.339911 98.154922 
L 336.076423 96.699622 
L 336.812935 97.115422 
L 337.549447 96.283822 
L 338.285959 96.699622 
L 339.022472 95.348272 
L 339.758984 96.387772 
L 340.495496 95.660122 
L 341.232008 96.075922 
L 341.96852 96.907522 
L 342.705032 97.947022 
L 344.178056 96.387772 
L 344.914569 96.803572 
L 345.651081 96.595672 
L 346.387593 97.843072 
L 347.124105 96.387772 
L 347.860617 95.764072 
L 348.597129 95.660122 
L 349.333641 95.036422 
L 350.070153 95.764072 
L 350.806666 94.204822 
L 351.543178 96.387772 
L 352.27969 94.828522 
L 353.016202 94.204822 
L 353.752714 93.789022 
L 354.489226 95.556173 
L 355.225738 94.724573 
L 355.96225 94.932472 
L 356.698763 94.412722 
L 357.435275 95.971972 
L 358.171787 96.907522 
L 358.908299 96.179872 
L 359.644811 97.011472 
L 360.381323 96.179872 
L 361.117835 96.075922 
L 361.854347 95.244323 
L 362.59086 95.660122 
L 363.327372 95.140372 
L 364.063884 96.491722 
L 364.800396 93.789022 
L 365.536908 93.996922 
L 366.27342 95.556173 
L 367.009932 93.061373 
L 367.746444 95.660122 
L 368.482957 92.749522 
L 369.955981 95.244323 
L 370.692493 94.204822 
L 372.165517 93.996922 
L 372.902029 94.412722 
L 373.638541 94.412722 
L 374.375054 95.140372 
L 375.111566 93.892972 
L 375.848078 93.269272 
L 376.58459 93.165322 
L 377.321102 94.100872 
L 378.057614 92.853472 
L 378.794126 92.333722 
L 379.530639 93.685072 
L 380.267151 92.541622 
L 381.003663 93.373222 
L 381.740175 93.373222 
L 382.476687 92.125822 
L 383.213199 95.868022 
L 383.949711 95.244323 
L 384.686223 95.348272 
L 385.422736 94.204822 
L 386.159248 95.140372 
L 386.89576 94.204822 
L 387.632272 92.541622 
L 388.368784 92.333722 
L 389.105296 94.828522 
L 390.57832 91.710022 
L 391.314833 91.606072 
L 392.051345 92.437672 
L 392.787857 90.982372 
L 393.524369 91.606072 
L 394.260881 91.190272 
L 394.997393 93.789022 
L 395.733905 91.813972 
L 396.470417 94.308772 
L 397.20693 95.452222 
L 397.943442 94.308772 
L 398.679954 94.620622 
L 399.416466 94.308772 
L 400.152978 95.348272 
L 400.88949 93.892972 
L 401.626002 95.452222 
L 402.362514 95.971972 
L 403.099027 94.100872 
L 403.835539 93.581122 
L 404.572051 92.333722 
L 405.308563 94.828522 
L 406.045075 93.789022 
L 406.781587 93.685072 
L 407.518099 94.620622 
L 408.254611 94.100872 
L 408.991124 95.348272 
L 409.727636 94.724573 
L 410.464148 92.125822 
L 411.20066 95.140372 
L 411.937172 93.996922 
L 412.673684 95.452222 
L 413.410196 95.244323 
L 414.146708 94.516672 
L 414.883221 95.556173 
L 415.619733 93.789022 
L 416.356245 95.140372 
L 417.092757 94.620622 
L 417.829269 95.036422 
L 418.565781 93.061373 
L 419.302293 96.283822 
L 420.038805 95.244323 
L 420.775318 94.620622 
L 421.51183 95.660122 
L 422.248342 94.828522 
L 422.984854 94.932472 
L 423.721366 96.907522 
L 424.457878 94.516672 
L 425.19439 95.244323 
L 426.667415 95.660122 
L 427.403927 96.491722 
L 428.140439 94.828522 
L 428.876951 94.620622 
L 429.613463 95.556173 
L 430.349975 91.606072 
L 431.823 94.620622 
L 432.559512 94.828522 
L 433.296024 93.789022 
L 434.032536 96.699622 
L 434.769048 96.387772 
L 435.50556 95.348272 
L 436.242072 95.452222 
L 436.978584 97.323322 
L 437.715097 95.140372 
L 438.451609 94.412722 
L 439.188121 95.244323 
L 439.924633 96.283822 
L 441.397657 94.412722 
L 442.134169 94.308772 
L 442.870681 92.749522 
L 443.607194 94.620622 
L 444.343706 93.061373 
L 445.080218 94.308772 
L 445.81673 93.061373 
L 446.553242 94.204822 
L 447.289754 94.724573 
L 448.026266 95.556173 
L 448.762778 96.803572 
L 449.499291 95.556173 
L 450.235803 96.179872 
L 450.972315 94.724573 
L 451.708827 95.348272 
L 452.445339 93.996922 
L 453.181851 94.724573 
L 453.918363 94.204822 
L 454.654875 95.140372 
L 455.391388 94.620622 
L 456.1279 93.165322 
L 456.864412 92.333722 
L 459.073948 93.789022 
L 459.81046 96.491722 
L 460.546972 95.036422 
L 461.283485 97.219373 
L 462.019997 96.075922 
L 462.756509 97.739123 
L 463.493021 98.050973 
L 464.229533 96.283822 
L 464.966045 95.244323 
L 465.702557 96.283822 
L 466.439069 97.115422 
L 467.175582 97.531222 
L 467.912094 93.892972 
L 468.648606 95.244323 
L 470.12163 93.789022 
L 470.858142 94.828522 
L 471.594654 93.892972 
L 472.331166 94.412722 
L 473.067679 94.308772 
L 473.804191 95.971972 
L 474.540703 93.269272 
L 475.277215 98.570722 
L 476.013727 96.283822 
L 476.750239 98.050973 
L 477.486751 95.660122 
L 478.223263 97.219373 
L 478.959776 97.323322 
L 479.696288 96.387772 
L 480.4328 96.387772 
L 481.169312 95.660122 
L 481.905824 96.491722 
L 482.642336 96.075922 
L 483.378848 94.620622 
L 484.115361 94.308772 
L 484.851873 94.932472 
L 485.588385 95.036422 
L 486.324897 96.491722 
L 487.061409 95.036422 
L 487.797921 94.932472 
L 488.534433 95.244323 
L 489.270945 98.050973 
L 490.007458 96.699622 
L 490.74397 96.491722 
L 491.480482 97.011472 
L 492.216994 96.179872 
L 492.953506 96.179872 
L 493.690018 95.556173 
L 495.163042 95.660122 
L 495.899555 95.556173 
L 496.636067 96.595672 
L 497.372579 94.724573 
L 498.109091 93.892972 
L 498.109091 93.892972 
" clip-path="url(#p5c50dba6f5)" style="fill: none; stroke: #0000ff; stroke-opacity: 0.5; stroke-width: 1.5; stroke-linecap: square"/>
   </g>
   <g id="line2d_46">
    <path d="M 92.290909 358.133872 
L 93.027421 367.801222 
L 93.763933 370.503922 
L 94.500445 366.969623 
L 95.97347 366.657773 
L 96.709982 367.281473 
L 98.183006 366.761723 
L 98.919518 367.697272 
L 99.65603 366.657773 
L 100.392542 367.177523 
L 101.129055 368.840723 
L 101.865567 368.320972 
L 102.602079 369.360473 
L 104.075103 369.048623 
L 104.811615 369.464423 
L 105.548127 369.464423 
L 106.284639 368.217022 
L 107.021152 368.736773 
L 107.757664 369.464423 
L 108.494176 368.632822 
L 109.230688 369.256523 
L 110.703712 369.672323 
L 111.440224 369.360473 
L 112.176737 369.984172 
L 112.913249 369.568373 
L 113.649761 369.464423 
L 114.386273 368.320972 
L 115.859297 367.593322 
L 116.595809 368.217022 
L 117.332321 368.424922 
L 118.068834 367.801222 
L 118.805346 367.593322 
L 119.541858 367.073573 
L 120.27837 365.618272 
L 121.014882 366.657773 
L 121.751394 365.826172 
L 122.487906 366.034072 
L 123.224418 365.618272 
L 123.960931 366.865673 
L 124.697443 366.034072 
L 125.433955 364.890623 
L 126.170467 364.370873 
L 126.906979 364.890623 
L 127.643491 363.851122 
L 128.380003 363.435322 
L 129.116515 362.603723 
L 129.853028 363.123472 
L 130.58954 361.980023 
L 132.062564 361.148422 
L 132.799076 360.108923 
L 133.535588 360.212873 
L 134.2721 359.277323 
L 135.008612 358.861522 
L 135.745125 359.069422 
L 136.481637 359.901023 
L 137.954661 359.381273 
L 139.427685 358.029922 
L 140.900709 357.094373 
L 141.637222 356.366722 
L 142.373734 355.846972 
L 143.110246 355.015373 
L 143.846758 354.599573 
L 144.58327 353.871922 
L 145.319782 352.936373 
L 146.056294 352.312673 
L 146.792806 351.481072 
L 147.529319 350.337623 
L 149.002343 348.882322 
L 151.948391 343.996672 
L 152.684903 342.957173 
L 154.157928 341.397922 
L 154.89444 340.982123 
L 155.630952 340.358423 
L 156.367464 340.774223 
L 157.103976 340.150522 
L 158.577 338.383373 
L 159.313513 337.343872 
L 160.050025 336.512272 
L 160.786537 335.264873 
L 161.523049 334.537222 
L 162.996073 332.458222 
L 165.20561 328.508123 
L 165.942122 326.637023 
L 166.678634 325.077772 
L 167.415146 323.102722 
L 168.151658 321.855322 
L 168.88817 320.192122 
L 169.624682 319.152623 
L 170.361195 317.801272 
L 171.097707 317.177572 
L 171.834219 316.138073 
L 172.570731 315.306472 
L 173.307243 314.163023 
L 174.780267 311.044522 
L 177.726316 304.599623 
L 178.462828 302.832472 
L 179.19934 301.481122 
L 179.935852 299.610023 
L 181.408876 295.452022 
L 182.145389 293.580922 
L 182.881901 292.021672 
L 183.618413 291.605872 
L 185.091437 288.799222 
L 186.564461 285.680723 
L 187.300973 284.225422 
L 188.037486 281.834572 
L 188.773998 280.483223 
L 189.51051 278.820022 
L 190.247022 276.429172 
L 190.983534 273.414623 
L 192.456558 268.528973 
L 193.19307 266.553922 
L 195.402607 258.445822 
L 198.348655 250.649572 
L 199.085167 250.337722 
L 199.82168 248.778472 
L 200.558192 248.050822 
L 201.294704 246.283672 
L 202.031216 243.892822 
L 202.767728 240.878272 
L 204.240752 236.512372 
L 206.450289 226.845022 
L 207.186801 225.077872 
L 207.923313 223.830472 
L 208.659825 221.231722 
L 209.396337 219.984322 
L 210.132849 219.880372 
L 210.869361 217.593472 
L 211.605874 217.073722 
L 212.342386 216.034222 
L 213.078898 215.514472 
L 213.81541 215.722372 
L 214.551922 214.267072 
L 215.288434 214.059172 
L 216.024946 212.499922 
L 216.761459 211.564372 
L 217.497971 210.420922 
L 219.707507 206.158972 
L 221.180531 200.961472 
L 221.917043 199.194322 
L 222.653556 196.387672 
L 223.390068 194.828422 
L 224.12658 194.100772 
L 224.863092 192.853372 
L 225.599604 192.333622 
L 226.336116 191.398072 
L 227.80914 188.279572 
L 228.545653 187.967722 
L 229.282165 187.344022 
L 230.755189 184.017622 
L 232.228213 182.250472 
L 233.701237 178.612222 
L 234.43775 177.780622 
L 235.910774 172.894972 
L 236.647286 172.583122 
L 237.383798 171.647572 
L 238.856822 168.633022 
L 239.593334 168.840922 
L 240.329847 167.385622 
L 241.066359 166.969822 
L 241.802871 166.242172 
L 242.539383 165.098722 
L 243.275895 164.578972 
L 244.012407 163.851322 
L 244.748919 162.396022 
L 245.485431 161.460472 
L 246.221944 159.485422 
L 246.958456 158.445922 
L 247.694968 158.238022 
L 249.167992 155.327422 
L 249.904504 152.520773 
L 250.641016 152.416822 
L 252.114041 150.233872 
L 253.587065 147.531172 
L 254.323577 147.843022 
L 255.060089 147.635122 
L 255.796601 145.867973 
L 256.533113 147.115372 
L 257.269625 146.491672 
L 258.006138 145.036372 
L 258.74265 143.996872 
L 259.479162 144.204772 
L 260.952186 140.878373 
L 261.688698 141.606022 
L 262.42521 141.709972 
L 263.161722 139.734922 
L 263.898235 140.462572 
L 264.634747 139.319122 
L 265.371259 137.655922 
L 266.107771 136.720372 
L 266.844283 136.616422 
L 267.580795 134.225572 
L 268.317307 133.082122 
L 269.05382 133.601872 
L 269.790332 133.705823 
L 270.526844 132.770272 
L 271.263356 132.458422 
L 271.999868 132.978172 
L 272.73638 131.626822 
L 273.472892 131.938672 
L 274.209404 131.418922 
L 274.945917 130.587322 
L 275.682429 131.003122 
L 276.418941 130.587322 
L 277.155453 129.755722 
L 278.628477 129.028072 
L 279.364989 127.572772 
L 280.101501 129.028072 
L 280.838014 126.845122 
L 281.574526 126.637222 
L 282.311038 126.013522 
L 283.04755 124.142422 
L 283.784062 124.662172 
L 284.520574 123.310822 
L 285.257086 124.350322 
L 285.993598 123.830572 
L 286.730111 124.038473 
L 287.466623 124.038473 
L 288.203135 122.895022 
L 288.939647 123.310822 
L 289.676159 122.895022 
L 290.412671 121.959472 
L 291.149183 121.543673 
L 291.885695 122.063423 
L 292.622208 121.127872 
L 293.35872 119.776522 
L 294.095232 119.360722 
L 294.831744 117.593572 
L 295.568256 118.633072 
L 296.304768 118.529122 
L 297.04128 116.450122 
L 297.777792 117.489622 
L 298.514305 116.138272 
L 299.250817 117.593572 
L 299.987329 115.618522 
L 300.723841 116.034322 
L 301.460353 115.306672 
L 302.196865 115.202722 
L 302.933377 116.450122 
L 303.669889 115.306672 
L 304.406402 113.747422 
L 305.142914 114.579022 
L 305.879426 114.994822 
L 306.615938 113.227672 
L 307.35245 112.811872 
L 308.825474 112.707922 
L 309.561986 111.876323 
L 310.298499 111.668422 
L 311.035011 111.044723 
L 311.771523 112.084222 
L 312.508035 112.396073 
L 313.244547 111.668422 
L 313.981059 111.980272 
L 314.717571 110.421022 
L 315.454083 108.445972 
L 316.190596 110.109172 
L 316.927108 109.381522 
L 317.66362 110.524972 
L 318.400132 110.317072 
L 319.136644 108.653872 
L 319.873156 110.109172 
L 320.609668 108.653872 
L 321.34618 108.549923 
L 322.082693 108.030172 
L 323.555717 107.718322 
L 324.292229 107.822272 
L 325.028741 106.263022 
L 325.765253 106.055122 
L 326.501765 106.574872 
L 327.238278 105.223523 
L 327.97479 107.094622 
L 328.711302 105.951172 
L 330.184326 106.470922 
L 331.65735 105.327472 
L 332.393862 104.807722 
L 333.130375 105.327472 
L 333.866887 103.872172 
L 334.603399 104.184022 
L 335.339911 105.119572 
L 336.812935 102.208972 
L 337.549447 104.287972 
L 338.285959 103.144522 
L 339.022472 102.832672 
L 339.758984 102.832672 
L 340.495496 102.208972 
L 341.232008 104.080072 
L 341.96852 102.001072 
L 342.705032 101.793172 
L 343.441544 102.936622 
L 344.178056 101.273422 
L 344.914569 102.105022 
L 346.387593 99.818122 
L 347.124105 100.545772 
L 347.860617 100.753672 
L 348.597129 101.169472 
L 349.333641 100.129972 
L 350.070153 99.402322 
L 350.806666 100.026022 
L 351.543178 99.922072 
L 352.27969 100.961572 
L 353.016202 99.506272 
L 353.752714 100.857622 
L 354.489226 101.273422 
L 355.225738 99.714173 
L 355.96225 102.312922 
L 356.698763 98.674672 
L 357.435275 99.922072 
L 358.171787 100.026022 
L 358.908299 98.570722 
L 359.644811 100.649722 
L 360.381323 99.818122 
L 361.854347 98.882572 
L 362.59086 100.026022 
L 363.327372 98.466772 
L 364.063884 98.674672 
L 364.800396 96.907522 
L 365.536908 99.402322 
L 366.27342 99.194422 
L 367.009932 98.154922 
L 367.746444 98.986522 
L 368.482957 97.947022 
L 369.219469 98.050973 
L 369.955981 100.441822 
L 370.692493 97.843072 
L 371.429005 97.323322 
L 372.165517 97.739123 
L 372.902029 98.362822 
L 373.638541 96.387772 
L 374.375054 98.778622 
L 375.111566 97.947022 
L 376.58459 95.140372 
L 377.321102 97.115422 
L 378.057614 97.219373 
L 378.794126 96.803572 
L 379.530639 97.219373 
L 380.267151 96.491722 
L 381.003663 96.907522 
L 381.740175 98.674672 
L 382.476687 98.154922 
L 383.213199 96.803572 
L 383.949711 97.427272 
L 386.159248 96.803572 
L 386.89576 97.011472 
L 387.632272 96.283822 
L 388.368784 96.283822 
L 389.105296 97.635172 
L 389.841808 96.595672 
L 390.57832 96.283822 
L 391.314833 95.660122 
L 392.051345 95.244323 
L 392.787857 95.452222 
L 393.524369 96.595672 
L 394.260881 95.452222 
L 394.997393 95.244323 
L 395.733905 96.179872 
L 396.470417 96.179872 
L 397.20693 97.115422 
L 397.943442 95.244323 
L 398.679954 94.828522 
L 399.416466 96.595672 
L 400.152978 97.219373 
L 400.88949 94.516672 
L 401.626002 96.595672 
L 402.362514 97.219373 
L 403.099027 95.140372 
L 403.835539 96.699622 
L 404.572051 95.660122 
L 405.308563 97.115422 
L 406.045075 96.075922 
L 406.781587 94.620622 
L 407.518099 95.140372 
L 408.254611 94.724573 
L 408.991124 96.075922 
L 409.727636 96.699622 
L 410.464148 94.620622 
L 411.20066 96.907522 
L 411.937172 95.244323 
L 412.673684 96.595672 
L 413.410196 97.219373 
L 414.146708 95.556173 
L 414.883221 95.244323 
L 415.619733 95.452222 
L 416.356245 94.932472 
L 417.092757 96.283822 
L 417.829269 96.595672 
L 418.565781 94.204822 
L 419.302293 96.075922 
L 420.038805 93.996922 
L 421.51183 94.412722 
L 422.248342 95.036422 
L 422.984854 94.724573 
L 423.721366 95.868022 
L 424.457878 93.996922 
L 425.19439 94.516672 
L 425.930902 96.179872 
L 426.667415 93.477172 
L 427.403927 95.036422 
L 428.140439 94.516672 
L 428.876951 95.452222 
L 429.613463 94.412722 
L 430.349975 92.333722 
L 431.086487 94.516672 
L 431.823 94.204822 
L 432.559512 95.660122 
L 433.296024 95.660122 
L 434.032536 92.645572 
L 434.769048 95.036422 
L 435.50556 95.452222 
L 436.242072 94.308772 
L 436.978584 94.828522 
L 437.715097 93.165322 
L 438.451609 94.932472 
L 439.188121 91.606072 
L 439.924633 94.204822 
L 440.661145 93.996922 
L 442.134169 92.437672 
L 442.870681 92.645572 
L 443.607194 92.333722 
L 444.343706 93.581122 
L 445.080218 93.061373 
L 445.81673 92.021872 
L 446.553242 95.036422 
L 447.289754 93.373222 
L 448.026266 93.685072 
L 448.762778 95.348272 
L 449.499291 93.061373 
L 450.235803 92.957422 
L 450.972315 93.685072 
L 451.708827 93.477172 
L 452.445339 90.566573 
L 453.181851 94.100872 
L 454.654875 92.957422 
L 455.391388 92.021872 
L 456.1279 93.892972 
L 456.864412 91.606072 
L 457.600924 92.333722 
L 458.337436 91.086322 
L 459.81046 94.724573 
L 460.546972 93.477172 
L 461.283485 93.269272 
L 462.019997 94.620622 
L 462.756509 93.581122 
L 463.493021 94.308772 
L 464.229533 94.828522 
L 464.966045 93.996922 
L 465.702557 92.645572 
L 466.439069 94.412722 
L 467.175582 92.333722 
L 467.912094 92.125822 
L 468.648606 93.892972 
L 469.385118 93.061373 
L 470.12163 92.541622 
L 470.858142 92.229772 
L 471.594654 92.645572 
L 472.331166 94.828522 
L 473.067679 94.516672 
L 473.804191 95.348272 
L 474.540703 92.853472 
L 476.013727 93.061373 
L 476.750239 94.620622 
L 477.486751 94.100872 
L 478.959776 94.204822 
L 479.696288 92.853472 
L 480.4328 93.477172 
L 481.169312 92.541622 
L 481.905824 93.892972 
L 483.378848 93.789022 
L 484.115361 93.061373 
L 484.851873 93.892972 
L 485.588385 92.749522 
L 486.324897 93.892972 
L 487.061409 92.229772 
L 487.797921 91.606072 
L 488.534433 93.685072 
L 489.270945 94.932472 
L 490.007458 94.620622 
L 490.74397 92.021872 
L 491.480482 94.516672 
L 492.216994 94.620622 
L 492.953506 92.645572 
L 493.690018 91.813972 
L 494.42653 93.685072 
L 495.163042 92.645572 
L 495.899555 90.878422 
L 496.636067 91.502122 
L 497.372579 95.452222 
L 498.109091 90.774472 
L 498.109091 90.774472 
" clip-path="url(#p5c50dba6f5)" style="fill: none; stroke: #0000ff; stroke-opacity: 0.5; stroke-width: 1.5; stroke-linecap: square"/>
   </g>
   <g id="LineCollection_1">
    <path d="M 92.290909 359.385962 
L 92.290909 358.181158 
" clip-path="url(#p5c50dba6f5)" style="fill: none; stroke: #ff0000; stroke-width: 1.5"/>
    <path d="M 121.751394 366.844003 
L 121.751394 365.380067 
" clip-path="url(#p5c50dba6f5)" style="fill: none; stroke: #ff0000; stroke-width: 1.5"/>
    <path d="M 151.211879 344.996909 
L 151.211879 344.399761 
" clip-path="url(#p5c50dba6f5)" style="fill: none; stroke: #ff0000; stroke-width: 1.5"/>
    <path d="M 180.672364 296.668793 
L 180.672364 292.260202 
" clip-path="url(#p5c50dba6f5)" style="fill: none; stroke: #ff0000; stroke-width: 1.5"/>
    <path d="M 210.132849 218.896153 
L 210.132849 213.172292 
" clip-path="url(#p5c50dba6f5)" style="fill: none; stroke: #ff0000; stroke-width: 1.5"/>
    <path d="M 239.593334 166.415041 
L 239.593334 156.194054 
" clip-path="url(#p5c50dba6f5)" style="fill: none; stroke: #ff0000; stroke-width: 1.5"/>
    <path d="M 269.05382 131.434182 
L 269.05382 121.372488 
" clip-path="url(#p5c50dba6f5)" style="fill: none; stroke: #ff0000; stroke-width: 1.5"/>
    <path d="M 298.514305 113.776148 
L 298.514305 102.180247 
" clip-path="url(#p5c50dba6f5)" style="fill: none; stroke: #ff0000; stroke-width: 1.5"/>
    <path d="M 327.97479 104.529768 
L 327.97479 89.805027 
" clip-path="url(#p5c50dba6f5)" style="fill: none; stroke: #ff0000; stroke-width: 1.5"/>
    <path d="M 357.435275 99.090717 
L 357.435275 84.329328 
" clip-path="url(#p5c50dba6f5)" style="fill: none; stroke: #ff0000; stroke-width: 1.5"/>
    <path d="M 386.89576 96.685944 
L 386.89576 82.628076 
" clip-path="url(#p5c50dba6f5)" style="fill: none; stroke: #ff0000; stroke-width: 1.5"/>
    <path d="M 416.356245 96.022983 
L 416.356245 81.315987 
" clip-path="url(#p5c50dba6f5)" style="fill: none; stroke: #ff0000; stroke-width: 1.5"/>
    <path d="M 445.81673 93.614936 
L 445.81673 80.345659 
" clip-path="url(#p5c50dba6f5)" style="fill: none; stroke: #ff0000; stroke-width: 1.5"/>
    <path d="M 475.277215 97.760005 
L 475.277215 84.93239 
" clip-path="url(#p5c50dba6f5)" style="fill: none; stroke: #ff0000; stroke-width: 1.5"/>
   </g>
   <g id="line2d_47">
    <defs>
     <path id="m1d99609e5c" d="M 5 0 
L -5 -0 
" style="stroke: #ff0000"/>
    </defs>
    <g clip-path="url(#p5c50dba6f5)">
     <use xlink:href="#m1d99609e5c" x="92.290909" y="359.385962" style="fill: #ff0000; stroke: #ff0000"/>
     <use xlink:href="#m1d99609e5c" x="121.751394" y="366.844003" style="fill: #ff0000; stroke: #ff0000"/>
     <use xlink:href="#m1d99609e5c" x="151.211879" y="344.996909" style="fill: #ff0000; stroke: #ff0000"/>
     <use xlink:href="#m1d99609e5c" x="180.672364" y="296.668793" style="fill: #ff0000; stroke: #ff0000"/>
     <use xlink:href="#m1d99609e5c" x="210.132849" y="218.896153" style="fill: #ff0000; stroke: #ff0000"/>
     <use xlink:href="#m1d99609e5c" x="239.593334" y="166.415041" style="fill: #ff0000; stroke: #ff0000"/>
     <use xlink:href="#m1d99609e5c" x="269.05382" y="131.434182" style="fill: #ff0000; stroke: #ff0000"/>
     <use xlink:href="#m1d99609e5c" x="298.514305" y="113.776148" style="fill: #ff0000; stroke: #ff0000"/>
     <use xlink:href="#m1d99609e5c" x="327.97479" y="104.529768" style="fill: #ff0000; stroke: #ff0000"/>
     <use xlink:href="#m1d99609e5c" x="357.435275" y="99.090717" style="fill: #ff0000; stroke: #ff0000"/>
     <use xlink:href="#m1d99609e5c" x="386.89576" y="96.685944" style="fill: #ff0000; stroke: #ff0000"/>
     <use xlink:href="#m1d99609e5c" x="416.356245" y="96.022983" style="fill: #ff0000; stroke: #ff0000"/>
     <use xlink:href="#m1d99609e5c" x="445.81673" y="93.614936" style="fill: #ff0000; stroke: #ff0000"/>
     <use xlink:href="#m1d99609e5c" x="475.277215" y="97.760005" style="fill: #ff0000; stroke: #ff0000"/>
    </g>
   </g>
   <g id="line2d_48">
    <g clip-path="url(#p5c50dba6f5)">
     <use xlink:href="#m1d99609e5c" x="92.290909" y="358.181158" style="fill: #ff0000; stroke: #ff0000"/>
     <use xlink:href="#m1d99609e5c" x="121.751394" y="365.380067" style="fill: #ff0000; stroke: #ff0000"/>
     <use xlink:href="#m1d99609e5c" x="151.211879" y="344.399761" style="fill: #ff0000; stroke: #ff0000"/>
     <use xlink:href="#m1d99609e5c" x="180.672364" y="292.260202" style="fill: #ff0000; stroke: #ff0000"/>
     <use xlink:href="#m1d99609e5c" x="210.132849" y="213.172292" style="fill: #ff0000; stroke: #ff0000"/>
     <use xlink:href="#m1d99609e5c" x="239.593334" y="156.194054" style="fill: #ff0000; stroke: #ff0000"/>
     <use xlink:href="#m1d99609e5c" x="269.05382" y="121.372488" style="fill: #ff0000; stroke: #ff0000"/>
     <use xlink:href="#m1d99609e5c" x="298.514305" y="102.180247" style="fill: #ff0000; stroke: #ff0000"/>
     <use xlink:href="#m1d99609e5c" x="327.97479" y="89.805027" style="fill: #ff0000; stroke: #ff0000"/>
     <use xlink:href="#m1d99609e5c" x="357.435275" y="84.329328" style="fill: #ff0000; stroke: #ff0000"/>
     <use xlink:href="#m1d99609e5c" x="386.89576" y="82.628076" style="fill: #ff0000; stroke: #ff0000"/>
     <use xlink:href="#m1d99609e5c" x="416.356245" y="81.315987" style="fill: #ff0000; stroke: #ff0000"/>
     <use xlink:href="#m1d99609e5c" x="445.81673" y="80.345659" style="fill: #ff0000; stroke: #ff0000"/>
     <use xlink:href="#m1d99609e5c" x="475.277215" y="84.93239" style="fill: #ff0000; stroke: #ff0000"/>
    </g>
   </g>
   <g id="line2d_49">
    <path d="M 92.290909 358.78356 
L 121.751394 366.112035 
L 151.211879 344.698335 
L 180.672364 294.464497 
L 210.132849 216.034222 
L 239.593334 161.304547 
L 269.05382 126.403335 
L 298.514305 107.978197 
L 327.97479 97.167397 
L 357.435275 91.710022 
L 386.89576 89.65701 
L 416.356245 88.669485 
L 445.81673 86.980297 
L 475.277215 91.346197 
" clip-path="url(#p5c50dba6f5)" style="fill: none; stroke: #ff0000; stroke-width: 1.5; stroke-linecap: square"/>
   </g>
   <g id="patch_3">
    <path d="M 72 384.48 
L 72 51.84 
" style="fill: none; stroke: #000000; stroke-width: 0.8; stroke-linejoin: miter; stroke-linecap: square"/>
   </g>
   <g id="patch_4">
    <path d="M 518.4 384.48 
L 518.4 51.84 
" style="fill: none; stroke: #000000; stroke-width: 0.8; stroke-linejoin: miter; stroke-linecap: square"/>
   </g>
   <g id="patch_5">
    <path d="M 72 384.48 
L 518.4 384.48 
" style="fill: none; stroke: #000000; stroke-width: 0.8; stroke-linejoin: miter; stroke-linecap: square"/>
   </g>
   <g id="patch_6">
    <path d="M 72 51.84 
L 518.4 51.84 
" style="fill: none; stroke: #000000; stroke-width: 0.8; stroke-linejoin: miter; stroke-linecap: square"/>
   </g>
   <g id="text_24">
    <!-- M7: Methionin; Threonin -->
    <g transform="translate(234.435156 45.84) scale(0.1 -0.1)">
     <defs>
      <path id="DejaVuSans-4d" d="M 628 4666 
L 1569 4666 
L 2759 1491 
L 3956 4666 
L 4897 4666 
L 4897 0 
L 4281 0 
L 4281 4097 
L 3078 897 
L 2444 897 
L 1241 4097 
L 1241 0 
L 628 0 
L 628 4666 
z
" transform="scale(0.015625)"/>
      <path id="DejaVuSans-3a" d="M 750 794 
L 1409 794 
L 1409 0 
L 750 0 
L 750 794 
z
M 750 3309 
L 1409 3309 
L 1409 2516 
L 750 2516 
L 750 3309 
z
" transform="scale(0.015625)"/>
      <path id="DejaVuSans-3b" d="M 750 3309 
L 1409 3309 
L 1409 2516 
L 750 2516 
L 750 3309 
z
M 750 794 
L 1409 794 
L 1409 256 
L 897 -744 
L 494 -744 
L 750 256 
L 750 794 
z
" transform="scale(0.015625)"/>
      <path id="DejaVuSans-54" d="M -19 4666 
L 3928 4666 
L 3928 4134 
L 2272 4134 
L 2272 0 
L 1638 0 
L 1638 4134 
L -19 4134 
L -19 4666 
z
" transform="scale(0.015625)"/>
     </defs>
     <use xlink:href="#DejaVuSans-4d"/>
     <use xlink:href="#DejaVuSans-37" x="86.279297"/>
     <use xlink:href="#DejaVuSans-3a" x="149.902344"/>
     <use xlink:href="#DejaVuSans-20" x="183.59375"/>
     <use xlink:href="#DejaVuSans-4d" x="215.380859"/>
     <use xlink:href="#DejaVuSans-65" x="301.660156"/>
     <use xlink:href="#DejaVuSans-74" x="363.183594"/>
     <use xlink:href="#DejaVuSans-68" x="402.392578"/>
     <use xlink:href="#DejaVuSans-69" x="465.771484"/>
     <use xlink:href="#DejaVuSans-6f" x="493.554688"/>
     <use xlink:href="#DejaVuSans-6e" x="554.736328"/>
     <use xlink:href="#DejaVuSans-69" x="618.115234"/>
     <use xlink:href="#DejaVuSans-6e" x="645.898438"/>
     <use xlink:href="#DejaVuSans-3b" x="709.277344"/>
     <use xlink:href="#DejaVuSans-20" x="742.96875"/>
     <use xlink:href="#DejaVuSans-54" x="774.755859"/>
     <use xlink:href="#DejaVuSans-68" x="835.839844"/>
     <use xlink:href="#DejaVuSans-72" x="899.21875"/>
     <use xlink:href="#DejaVuSans-65" x="938.082031"/>
     <use xlink:href="#DejaVuSans-6f" x="999.605469"/>
     <use xlink:href="#DejaVuSans-6e" x="1060.787109"/>
     <use xlink:href="#DejaVuSans-69" x="1124.166016"/>
     <use xlink:href="#DejaVuSans-6e" x="1151.949219"/>
    </g>
   </g>
  </g>
 </g>
 <defs>
  <clipPath id="p5c50dba6f5">
   <rect x="72" y="51.84" width="446.4" height="332.64"/>
  </clipPath>
 </defs>
</svg>
