<?xml version="1.0" encoding="utf-8" standalone="no"?>
<!DOCTYPE svg PUBLIC "-//W3C//DTD SVG 1.1//EN"
  "http://www.w3.org/Graphics/SVG/1.1/DTD/svg11.dtd">
<svg xmlns:xlink="http://www.w3.org/1999/xlink" width="576pt" height="432pt" viewBox="0 0 576 432" xmlns="http://www.w3.org/2000/svg" version="1.1">
 <metadata>
  <rdf:RDF xmlns:dc="http://purl.org/dc/elements/1.1/" xmlns:cc="http://creativecommons.org/ns#" xmlns:rdf="http://www.w3.org/1999/02/22-rdf-syntax-ns#">
   <cc:Work>
    <dc:type rdf:resource="http://purl.org/dc/dcmitype/StillImage"/>
    <dc:date>2024-11-12T14:09:01.005010</dc:date>
    <dc:format>image/svg+xml</dc:format>
    <dc:creator>
     <cc:Agent>
      <dc:title>Matplotlib v3.7.5, https://matplotlib.org/</dc:title>
     </cc:Agent>
    </dc:creator>
   </cc:Work>
  </rdf:RDF>
 </metadata>
 <defs>
  <style type="text/css">*{stroke-linejoin: round; stroke-linecap: butt}</style>
 </defs>
 <g id="figure_1">
  <g id="patch_1">
   <path d="M 0 432 
L 576 432 
L 576 0 
L 0 0 
z
" style="fill: #ffffff"/>
  </g>
  <g id="axes_1">
   <g id="patch_2">
    <path d="M 72 384.48 
L 518.4 384.48 
L 518.4 51.84 
L 72 51.84 
z
" style="fill: #ffffff"/>
   </g>
   <g id="matplotlib.axis_1">
    <g id="xtick_1">
     <g id="line2d_1">
      <path d="M 92.290909 384.48 
L 92.290909 51.84 
" clip-path="url(#p02cfb62532)" style="fill: none; stroke: #b0b0b0; stroke-width: 0.8; stroke-linecap: square"/>
     </g>
     <g id="line2d_2">
      <defs>
       <path id="m1e0c67f140" d="M 0 0 
L 0 3.5 
" style="stroke: #000000; stroke-width: 0.8"/>
      </defs>
      <g>
       <use xlink:href="#m1e0c67f140" x="92.290909" y="384.48" style="stroke: #000000; stroke-width: 0.8"/>
      </g>
     </g>
     <g id="text_1">
      <!-- 0.17 -->
      <g transform="translate(81.158097 399.078438) scale(0.1 -0.1)">
       <defs>
        <path id="DejaVuSans-30" d="M 2034 4250 
Q 1547 4250 1301 3770 
Q 1056 3291 1056 2328 
Q 1056 1369 1301 889 
Q 1547 409 2034 409 
Q 2525 409 2770 889 
Q 3016 1369 3016 2328 
Q 3016 3291 2770 3770 
Q 2525 4250 2034 4250 
z
M 2034 4750 
Q 2819 4750 3233 4129 
Q 3647 3509 3647 2328 
Q 3647 1150 3233 529 
Q 2819 -91 2034 -91 
Q 1250 -91 836 529 
Q 422 1150 422 2328 
Q 422 3509 836 4129 
Q 1250 4750 2034 4750 
z
" transform="scale(0.015625)"/>
        <path id="DejaVuSans-2e" d="M 684 794 
L 1344 794 
L 1344 0 
L 684 0 
L 684 794 
z
" transform="scale(0.015625)"/>
        <path id="DejaVuSans-31" d="M 794 531 
L 1825 531 
L 1825 4091 
L 703 3866 
L 703 4441 
L 1819 4666 
L 2450 4666 
L 2450 531 
L 3481 531 
L 3481 0 
L 794 0 
L 794 531 
z
" transform="scale(0.015625)"/>
        <path id="DejaVuSans-37" d="M 525 4666 
L 3525 4666 
L 3525 4397 
L 1831 0 
L 1172 0 
L 2766 4134 
L 525 4134 
L 525 4666 
z
" transform="scale(0.015625)"/>
       </defs>
       <use xlink:href="#DejaVuSans-30"/>
       <use xlink:href="#DejaVuSans-2e" x="63.623047"/>
       <use xlink:href="#DejaVuSans-31" x="95.410156"/>
       <use xlink:href="#DejaVuSans-37" x="159.033203"/>
      </g>
     </g>
    </g>
    <g id="xtick_2">
     <g id="line2d_3">
      <path d="M 156.451886 384.48 
L 156.451886 51.84 
" clip-path="url(#p02cfb62532)" style="fill: none; stroke: #b0b0b0; stroke-width: 0.8; stroke-linecap: square"/>
     </g>
     <g id="line2d_4">
      <g>
       <use xlink:href="#m1e0c67f140" x="156.451886" y="384.48" style="stroke: #000000; stroke-width: 0.8"/>
      </g>
     </g>
     <g id="text_2">
      <!-- 6.83 -->
      <g transform="translate(145.319074 399.078438) scale(0.1 -0.1)">
       <defs>
        <path id="DejaVuSans-36" d="M 2113 2584 
Q 1688 2584 1439 2293 
Q 1191 2003 1191 1497 
Q 1191 994 1439 701 
Q 1688 409 2113 409 
Q 2538 409 2786 701 
Q 3034 994 3034 1497 
Q 3034 2003 2786 2293 
Q 2538 2584 2113 2584 
z
M 3366 4563 
L 3366 3988 
Q 3128 4100 2886 4159 
Q 2644 4219 2406 4219 
Q 1781 4219 1451 3797 
Q 1122 3375 1075 2522 
Q 1259 2794 1537 2939 
Q 1816 3084 2150 3084 
Q 2853 3084 3261 2657 
Q 3669 2231 3669 1497 
Q 3669 778 3244 343 
Q 2819 -91 2113 -91 
Q 1303 -91 875 529 
Q 447 1150 447 2328 
Q 447 3434 972 4092 
Q 1497 4750 2381 4750 
Q 2619 4750 2861 4703 
Q 3103 4656 3366 4563 
z
" transform="scale(0.015625)"/>
        <path id="DejaVuSans-38" d="M 2034 2216 
Q 1584 2216 1326 1975 
Q 1069 1734 1069 1313 
Q 1069 891 1326 650 
Q 1584 409 2034 409 
Q 2484 409 2743 651 
Q 3003 894 3003 1313 
Q 3003 1734 2745 1975 
Q 2488 2216 2034 2216 
z
M 1403 2484 
Q 997 2584 770 2862 
Q 544 3141 544 3541 
Q 544 4100 942 4425 
Q 1341 4750 2034 4750 
Q 2731 4750 3128 4425 
Q 3525 4100 3525 3541 
Q 3525 3141 3298 2862 
Q 3072 2584 2669 2484 
Q 3125 2378 3379 2068 
Q 3634 1759 3634 1313 
Q 3634 634 3220 271 
Q 2806 -91 2034 -91 
Q 1263 -91 848 271 
Q 434 634 434 1313 
Q 434 1759 690 2068 
Q 947 2378 1403 2484 
z
M 1172 3481 
Q 1172 3119 1398 2916 
Q 1625 2713 2034 2713 
Q 2441 2713 2670 2916 
Q 2900 3119 2900 3481 
Q 2900 3844 2670 4047 
Q 2441 4250 2034 4250 
Q 1625 4250 1398 4047 
Q 1172 3844 1172 3481 
z
" transform="scale(0.015625)"/>
        <path id="DejaVuSans-33" d="M 2597 2516 
Q 3050 2419 3304 2112 
Q 3559 1806 3559 1356 
Q 3559 666 3084 287 
Q 2609 -91 1734 -91 
Q 1441 -91 1130 -33 
Q 819 25 488 141 
L 488 750 
Q 750 597 1062 519 
Q 1375 441 1716 441 
Q 2309 441 2620 675 
Q 2931 909 2931 1356 
Q 2931 1769 2642 2001 
Q 2353 2234 1838 2234 
L 1294 2234 
L 1294 2753 
L 1863 2753 
Q 2328 2753 2575 2939 
Q 2822 3125 2822 3475 
Q 2822 3834 2567 4026 
Q 2313 4219 1838 4219 
Q 1578 4219 1281 4162 
Q 984 4106 628 3988 
L 628 4550 
Q 988 4650 1302 4700 
Q 1616 4750 1894 4750 
Q 2613 4750 3031 4423 
Q 3450 4097 3450 3541 
Q 3450 3153 3228 2886 
Q 3006 2619 2597 2516 
z
" transform="scale(0.015625)"/>
       </defs>
       <use xlink:href="#DejaVuSans-36"/>
       <use xlink:href="#DejaVuSans-2e" x="63.623047"/>
       <use xlink:href="#DejaVuSans-38" x="95.410156"/>
       <use xlink:href="#DejaVuSans-33" x="159.033203"/>
      </g>
     </g>
    </g>
    <g id="xtick_3">
     <g id="line2d_5">
      <path d="M 220.612864 384.48 
L 220.612864 51.84 
" clip-path="url(#p02cfb62532)" style="fill: none; stroke: #b0b0b0; stroke-width: 0.8; stroke-linecap: square"/>
     </g>
     <g id="line2d_6">
      <g>
       <use xlink:href="#m1e0c67f140" x="220.612864" y="384.48" style="stroke: #000000; stroke-width: 0.8"/>
      </g>
     </g>
     <g id="text_3">
      <!-- 13.5 -->
      <g transform="translate(209.480051 399.078438) scale(0.1 -0.1)">
       <defs>
        <path id="DejaVuSans-35" d="M 691 4666 
L 3169 4666 
L 3169 4134 
L 1269 4134 
L 1269 2991 
Q 1406 3038 1543 3061 
Q 1681 3084 1819 3084 
Q 2600 3084 3056 2656 
Q 3513 2228 3513 1497 
Q 3513 744 3044 326 
Q 2575 -91 1722 -91 
Q 1428 -91 1123 -41 
Q 819 9 494 109 
L 494 744 
Q 775 591 1075 516 
Q 1375 441 1709 441 
Q 2250 441 2565 725 
Q 2881 1009 2881 1497 
Q 2881 1984 2565 2268 
Q 2250 2553 1709 2553 
Q 1456 2553 1204 2497 
Q 953 2441 691 2322 
L 691 4666 
z
" transform="scale(0.015625)"/>
       </defs>
       <use xlink:href="#DejaVuSans-31"/>
       <use xlink:href="#DejaVuSans-33" x="63.623047"/>
       <use xlink:href="#DejaVuSans-2e" x="127.246094"/>
       <use xlink:href="#DejaVuSans-35" x="159.033203"/>
      </g>
     </g>
    </g>
    <g id="xtick_4">
     <g id="line2d_7">
      <path d="M 284.773841 384.48 
L 284.773841 51.84 
" clip-path="url(#p02cfb62532)" style="fill: none; stroke: #b0b0b0; stroke-width: 0.8; stroke-linecap: square"/>
     </g>
     <g id="line2d_8">
      <g>
       <use xlink:href="#m1e0c67f140" x="284.773841" y="384.48" style="stroke: #000000; stroke-width: 0.8"/>
      </g>
     </g>
     <g id="text_4">
      <!-- 20.17 -->
      <g transform="translate(270.459779 399.078438) scale(0.1 -0.1)">
       <defs>
        <path id="DejaVuSans-32" d="M 1228 531 
L 3431 531 
L 3431 0 
L 469 0 
L 469 531 
Q 828 903 1448 1529 
Q 2069 2156 2228 2338 
Q 2531 2678 2651 2914 
Q 2772 3150 2772 3378 
Q 2772 3750 2511 3984 
Q 2250 4219 1831 4219 
Q 1534 4219 1204 4116 
Q 875 4013 500 3803 
L 500 4441 
Q 881 4594 1212 4672 
Q 1544 4750 1819 4750 
Q 2544 4750 2975 4387 
Q 3406 4025 3406 3419 
Q 3406 3131 3298 2873 
Q 3191 2616 2906 2266 
Q 2828 2175 2409 1742 
Q 1991 1309 1228 531 
z
" transform="scale(0.015625)"/>
       </defs>
       <use xlink:href="#DejaVuSans-32"/>
       <use xlink:href="#DejaVuSans-30" x="63.623047"/>
       <use xlink:href="#DejaVuSans-2e" x="127.246094"/>
       <use xlink:href="#DejaVuSans-31" x="159.033203"/>
       <use xlink:href="#DejaVuSans-37" x="222.65625"/>
      </g>
     </g>
    </g>
    <g id="xtick_5">
     <g id="line2d_9">
      <path d="M 348.934819 384.48 
L 348.934819 51.84 
" clip-path="url(#p02cfb62532)" style="fill: none; stroke: #b0b0b0; stroke-width: 0.8; stroke-linecap: square"/>
     </g>
     <g id="line2d_10">
      <g>
       <use xlink:href="#m1e0c67f140" x="348.934819" y="384.48" style="stroke: #000000; stroke-width: 0.8"/>
      </g>
     </g>
     <g id="text_5">
      <!-- 26.83 -->
      <g transform="translate(334.620756 399.078438) scale(0.1 -0.1)">
       <use xlink:href="#DejaVuSans-32"/>
       <use xlink:href="#DejaVuSans-36" x="63.623047"/>
       <use xlink:href="#DejaVuSans-2e" x="127.246094"/>
       <use xlink:href="#DejaVuSans-38" x="159.033203"/>
       <use xlink:href="#DejaVuSans-33" x="222.65625"/>
      </g>
     </g>
    </g>
    <g id="xtick_6">
     <g id="line2d_11">
      <path d="M 413.095796 384.48 
L 413.095796 51.84 
" clip-path="url(#p02cfb62532)" style="fill: none; stroke: #b0b0b0; stroke-width: 0.8; stroke-linecap: square"/>
     </g>
     <g id="line2d_12">
      <g>
       <use xlink:href="#m1e0c67f140" x="413.095796" y="384.48" style="stroke: #000000; stroke-width: 0.8"/>
      </g>
     </g>
     <g id="text_6">
      <!-- 33.5 -->
      <g transform="translate(401.962983 399.078438) scale(0.1 -0.1)">
       <use xlink:href="#DejaVuSans-33"/>
       <use xlink:href="#DejaVuSans-33" x="63.623047"/>
       <use xlink:href="#DejaVuSans-2e" x="127.246094"/>
       <use xlink:href="#DejaVuSans-35" x="159.033203"/>
      </g>
     </g>
    </g>
    <g id="xtick_7">
     <g id="line2d_13">
      <path d="M 477.256773 384.48 
L 477.256773 51.84 
" clip-path="url(#p02cfb62532)" style="fill: none; stroke: #b0b0b0; stroke-width: 0.8; stroke-linecap: square"/>
     </g>
     <g id="line2d_14">
      <g>
       <use xlink:href="#m1e0c67f140" x="477.256773" y="384.48" style="stroke: #000000; stroke-width: 0.8"/>
      </g>
     </g>
     <g id="text_7">
      <!-- 40.17 -->
      <g transform="translate(462.942711 399.078438) scale(0.1 -0.1)">
       <defs>
        <path id="DejaVuSans-34" d="M 2419 4116 
L 825 1625 
L 2419 1625 
L 2419 4116 
z
M 2253 4666 
L 3047 4666 
L 3047 1625 
L 3713 1625 
L 3713 1100 
L 3047 1100 
L 3047 0 
L 2419 0 
L 2419 1100 
L 313 1100 
L 313 1709 
L 2253 4666 
z
" transform="scale(0.015625)"/>
       </defs>
       <use xlink:href="#DejaVuSans-34"/>
       <use xlink:href="#DejaVuSans-30" x="63.623047"/>
       <use xlink:href="#DejaVuSans-2e" x="127.246094"/>
       <use xlink:href="#DejaVuSans-31" x="159.033203"/>
       <use xlink:href="#DejaVuSans-37" x="222.65625"/>
      </g>
     </g>
    </g>
    <g id="text_8">
     <!-- time in hours [h] -->
     <g transform="translate(253.451562 412.756563) scale(0.1 -0.1)">
      <defs>
       <path id="DejaVuSans-74" d="M 1172 4494 
L 1172 3500 
L 2356 3500 
L 2356 3053 
L 1172 3053 
L 1172 1153 
Q 1172 725 1289 603 
Q 1406 481 1766 481 
L 2356 481 
L 2356 0 
L 1766 0 
Q 1100 0 847 248 
Q 594 497 594 1153 
L 594 3053 
L 172 3053 
L 172 3500 
L 594 3500 
L 594 4494 
L 1172 4494 
z
" transform="scale(0.015625)"/>
       <path id="DejaVuSans-69" d="M 603 3500 
L 1178 3500 
L 1178 0 
L 603 0 
L 603 3500 
z
M 603 4863 
L 1178 4863 
L 1178 4134 
L 603 4134 
L 603 4863 
z
" transform="scale(0.015625)"/>
       <path id="DejaVuSans-6d" d="M 3328 2828 
Q 3544 3216 3844 3400 
Q 4144 3584 4550 3584 
Q 5097 3584 5394 3201 
Q 5691 2819 5691 2113 
L 5691 0 
L 5113 0 
L 5113 2094 
Q 5113 2597 4934 2840 
Q 4756 3084 4391 3084 
Q 3944 3084 3684 2787 
Q 3425 2491 3425 1978 
L 3425 0 
L 2847 0 
L 2847 2094 
Q 2847 2600 2669 2842 
Q 2491 3084 2119 3084 
Q 1678 3084 1418 2786 
Q 1159 2488 1159 1978 
L 1159 0 
L 581 0 
L 581 3500 
L 1159 3500 
L 1159 2956 
Q 1356 3278 1631 3431 
Q 1906 3584 2284 3584 
Q 2666 3584 2933 3390 
Q 3200 3197 3328 2828 
z
" transform="scale(0.015625)"/>
       <path id="DejaVuSans-65" d="M 3597 1894 
L 3597 1613 
L 953 1613 
Q 991 1019 1311 708 
Q 1631 397 2203 397 
Q 2534 397 2845 478 
Q 3156 559 3463 722 
L 3463 178 
Q 3153 47 2828 -22 
Q 2503 -91 2169 -91 
Q 1331 -91 842 396 
Q 353 884 353 1716 
Q 353 2575 817 3079 
Q 1281 3584 2069 3584 
Q 2775 3584 3186 3129 
Q 3597 2675 3597 1894 
z
M 3022 2063 
Q 3016 2534 2758 2815 
Q 2500 3097 2075 3097 
Q 1594 3097 1305 2825 
Q 1016 2553 972 2059 
L 3022 2063 
z
" transform="scale(0.015625)"/>
       <path id="DejaVuSans-20" transform="scale(0.015625)"/>
       <path id="DejaVuSans-6e" d="M 3513 2113 
L 3513 0 
L 2938 0 
L 2938 2094 
Q 2938 2591 2744 2837 
Q 2550 3084 2163 3084 
Q 1697 3084 1428 2787 
Q 1159 2491 1159 1978 
L 1159 0 
L 581 0 
L 581 3500 
L 1159 3500 
L 1159 2956 
Q 1366 3272 1645 3428 
Q 1925 3584 2291 3584 
Q 2894 3584 3203 3211 
Q 3513 2838 3513 2113 
z
" transform="scale(0.015625)"/>
       <path id="DejaVuSans-68" d="M 3513 2113 
L 3513 0 
L 2938 0 
L 2938 2094 
Q 2938 2591 2744 2837 
Q 2550 3084 2163 3084 
Q 1697 3084 1428 2787 
Q 1159 2491 1159 1978 
L 1159 0 
L 581 0 
L 581 4863 
L 1159 4863 
L 1159 2956 
Q 1366 3272 1645 3428 
Q 1925 3584 2291 3584 
Q 2894 3584 3203 3211 
Q 3513 2838 3513 2113 
z
" transform="scale(0.015625)"/>
       <path id="DejaVuSans-6f" d="M 1959 3097 
Q 1497 3097 1228 2736 
Q 959 2375 959 1747 
Q 959 1119 1226 758 
Q 1494 397 1959 397 
Q 2419 397 2687 759 
Q 2956 1122 2956 1747 
Q 2956 2369 2687 2733 
Q 2419 3097 1959 3097 
z
M 1959 3584 
Q 2709 3584 3137 3096 
Q 3566 2609 3566 1747 
Q 3566 888 3137 398 
Q 2709 -91 1959 -91 
Q 1206 -91 779 398 
Q 353 888 353 1747 
Q 353 2609 779 3096 
Q 1206 3584 1959 3584 
z
" transform="scale(0.015625)"/>
       <path id="DejaVuSans-75" d="M 544 1381 
L 544 3500 
L 1119 3500 
L 1119 1403 
Q 1119 906 1312 657 
Q 1506 409 1894 409 
Q 2359 409 2629 706 
Q 2900 1003 2900 1516 
L 2900 3500 
L 3475 3500 
L 3475 0 
L 2900 0 
L 2900 538 
Q 2691 219 2414 64 
Q 2138 -91 1772 -91 
Q 1169 -91 856 284 
Q 544 659 544 1381 
z
M 1991 3584 
L 1991 3584 
z
" transform="scale(0.015625)"/>
       <path id="DejaVuSans-72" d="M 2631 2963 
Q 2534 3019 2420 3045 
Q 2306 3072 2169 3072 
Q 1681 3072 1420 2755 
Q 1159 2438 1159 1844 
L 1159 0 
L 581 0 
L 581 3500 
L 1159 3500 
L 1159 2956 
Q 1341 3275 1631 3429 
Q 1922 3584 2338 3584 
Q 2397 3584 2469 3576 
Q 2541 3569 2628 3553 
L 2631 2963 
z
" transform="scale(0.015625)"/>
       <path id="DejaVuSans-73" d="M 2834 3397 
L 2834 2853 
Q 2591 2978 2328 3040 
Q 2066 3103 1784 3103 
Q 1356 3103 1142 2972 
Q 928 2841 928 2578 
Q 928 2378 1081 2264 
Q 1234 2150 1697 2047 
L 1894 2003 
Q 2506 1872 2764 1633 
Q 3022 1394 3022 966 
Q 3022 478 2636 193 
Q 2250 -91 1575 -91 
Q 1294 -91 989 -36 
Q 684 19 347 128 
L 347 722 
Q 666 556 975 473 
Q 1284 391 1588 391 
Q 1994 391 2212 530 
Q 2431 669 2431 922 
Q 2431 1156 2273 1281 
Q 2116 1406 1581 1522 
L 1381 1569 
Q 847 1681 609 1914 
Q 372 2147 372 2553 
Q 372 3047 722 3315 
Q 1072 3584 1716 3584 
Q 2034 3584 2315 3537 
Q 2597 3491 2834 3397 
z
" transform="scale(0.015625)"/>
       <path id="DejaVuSans-5b" d="M 550 4863 
L 1875 4863 
L 1875 4416 
L 1125 4416 
L 1125 -397 
L 1875 -397 
L 1875 -844 
L 550 -844 
L 550 4863 
z
" transform="scale(0.015625)"/>
       <path id="DejaVuSans-5d" d="M 1947 4863 
L 1947 -844 
L 622 -844 
L 622 -397 
L 1369 -397 
L 1369 4416 
L 622 4416 
L 622 4863 
L 1947 4863 
z
" transform="scale(0.015625)"/>
      </defs>
      <use xlink:href="#DejaVuSans-74"/>
      <use xlink:href="#DejaVuSans-69" x="39.208984"/>
      <use xlink:href="#DejaVuSans-6d" x="66.992188"/>
      <use xlink:href="#DejaVuSans-65" x="164.404297"/>
      <use xlink:href="#DejaVuSans-20" x="225.927734"/>
      <use xlink:href="#DejaVuSans-69" x="257.714844"/>
      <use xlink:href="#DejaVuSans-6e" x="285.498047"/>
      <use xlink:href="#DejaVuSans-20" x="348.876953"/>
      <use xlink:href="#DejaVuSans-68" x="380.664062"/>
      <use xlink:href="#DejaVuSans-6f" x="444.042969"/>
      <use xlink:href="#DejaVuSans-75" x="505.224609"/>
      <use xlink:href="#DejaVuSans-72" x="568.603516"/>
      <use xlink:href="#DejaVuSans-73" x="609.716797"/>
      <use xlink:href="#DejaVuSans-20" x="661.816406"/>
      <use xlink:href="#DejaVuSans-5b" x="693.603516"/>
      <use xlink:href="#DejaVuSans-68" x="732.617188"/>
      <use xlink:href="#DejaVuSans-5d" x="795.996094"/>
     </g>
    </g>
   </g>
   <g id="matplotlib.axis_2">
    <g id="ytick_1">
     <g id="line2d_15">
      <path d="M 72 361.619049 
L 518.4 361.619049 
" clip-path="url(#p02cfb62532)" style="fill: none; stroke: #b0b0b0; stroke-width: 0.8; stroke-linecap: square"/>
     </g>
     <g id="line2d_16">
      <defs>
       <path id="md6b8f64001" d="M 0 0 
L -3.5 0 
" style="stroke: #000000; stroke-width: 0.8"/>
      </defs>
      <g>
       <use xlink:href="#md6b8f64001" x="72" y="361.619049" style="stroke: #000000; stroke-width: 0.8"/>
      </g>
     </g>
     <g id="text_9">
      <!-- 20000 -->
      <g transform="translate(33.1875 365.418268) scale(0.1 -0.1)">
       <use xlink:href="#DejaVuSans-32"/>
       <use xlink:href="#DejaVuSans-30" x="63.623047"/>
       <use xlink:href="#DejaVuSans-30" x="127.246094"/>
       <use xlink:href="#DejaVuSans-30" x="190.869141"/>
       <use xlink:href="#DejaVuSans-30" x="254.492188"/>
      </g>
     </g>
    </g>
    <g id="ytick_2">
     <g id="line2d_17">
      <path d="M 72 308.542673 
L 518.4 308.542673 
" clip-path="url(#p02cfb62532)" style="fill: none; stroke: #b0b0b0; stroke-width: 0.8; stroke-linecap: square"/>
     </g>
     <g id="line2d_18">
      <g>
       <use xlink:href="#md6b8f64001" x="72" y="308.542673" style="stroke: #000000; stroke-width: 0.8"/>
      </g>
     </g>
     <g id="text_10">
      <!-- 40000 -->
      <g transform="translate(33.1875 312.341892) scale(0.1 -0.1)">
       <use xlink:href="#DejaVuSans-34"/>
       <use xlink:href="#DejaVuSans-30" x="63.623047"/>
       <use xlink:href="#DejaVuSans-30" x="127.246094"/>
       <use xlink:href="#DejaVuSans-30" x="190.869141"/>
       <use xlink:href="#DejaVuSans-30" x="254.492188"/>
      </g>
     </g>
    </g>
    <g id="ytick_3">
     <g id="line2d_19">
      <path d="M 72 255.466297 
L 518.4 255.466297 
" clip-path="url(#p02cfb62532)" style="fill: none; stroke: #b0b0b0; stroke-width: 0.8; stroke-linecap: square"/>
     </g>
     <g id="line2d_20">
      <g>
       <use xlink:href="#md6b8f64001" x="72" y="255.466297" style="stroke: #000000; stroke-width: 0.8"/>
      </g>
     </g>
     <g id="text_11">
      <!-- 60000 -->
      <g transform="translate(33.1875 259.265516) scale(0.1 -0.1)">
       <use xlink:href="#DejaVuSans-36"/>
       <use xlink:href="#DejaVuSans-30" x="63.623047"/>
       <use xlink:href="#DejaVuSans-30" x="127.246094"/>
       <use xlink:href="#DejaVuSans-30" x="190.869141"/>
       <use xlink:href="#DejaVuSans-30" x="254.492188"/>
      </g>
     </g>
    </g>
    <g id="ytick_4">
     <g id="line2d_21">
      <path d="M 72 202.389921 
L 518.4 202.389921 
" clip-path="url(#p02cfb62532)" style="fill: none; stroke: #b0b0b0; stroke-width: 0.8; stroke-linecap: square"/>
     </g>
     <g id="line2d_22">
      <g>
       <use xlink:href="#md6b8f64001" x="72" y="202.389921" style="stroke: #000000; stroke-width: 0.8"/>
      </g>
     </g>
     <g id="text_12">
      <!-- 80000 -->
      <g transform="translate(33.1875 206.189139) scale(0.1 -0.1)">
       <use xlink:href="#DejaVuSans-38"/>
       <use xlink:href="#DejaVuSans-30" x="63.623047"/>
       <use xlink:href="#DejaVuSans-30" x="127.246094"/>
       <use xlink:href="#DejaVuSans-30" x="190.869141"/>
       <use xlink:href="#DejaVuSans-30" x="254.492188"/>
      </g>
     </g>
    </g>
    <g id="ytick_5">
     <g id="line2d_23">
      <path d="M 72 149.313544 
L 518.4 149.313544 
" clip-path="url(#p02cfb62532)" style="fill: none; stroke: #b0b0b0; stroke-width: 0.8; stroke-linecap: square"/>
     </g>
     <g id="line2d_24">
      <g>
       <use xlink:href="#md6b8f64001" x="72" y="149.313544" style="stroke: #000000; stroke-width: 0.8"/>
      </g>
     </g>
     <g id="text_13">
      <!-- 100000 -->
      <g transform="translate(26.825 153.112763) scale(0.1 -0.1)">
       <use xlink:href="#DejaVuSans-31"/>
       <use xlink:href="#DejaVuSans-30" x="63.623047"/>
       <use xlink:href="#DejaVuSans-30" x="127.246094"/>
       <use xlink:href="#DejaVuSans-30" x="190.869141"/>
       <use xlink:href="#DejaVuSans-30" x="254.492188"/>
       <use xlink:href="#DejaVuSans-30" x="318.115234"/>
      </g>
     </g>
    </g>
    <g id="ytick_6">
     <g id="line2d_25">
      <path d="M 72 96.237168 
L 518.4 96.237168 
" clip-path="url(#p02cfb62532)" style="fill: none; stroke: #b0b0b0; stroke-width: 0.8; stroke-linecap: square"/>
     </g>
     <g id="line2d_26">
      <g>
       <use xlink:href="#md6b8f64001" x="72" y="96.237168" style="stroke: #000000; stroke-width: 0.8"/>
      </g>
     </g>
     <g id="text_14">
      <!-- 120000 -->
      <g transform="translate(26.825 100.036387) scale(0.1 -0.1)">
       <use xlink:href="#DejaVuSans-31"/>
       <use xlink:href="#DejaVuSans-32" x="63.623047"/>
       <use xlink:href="#DejaVuSans-30" x="127.246094"/>
       <use xlink:href="#DejaVuSans-30" x="190.869141"/>
       <use xlink:href="#DejaVuSans-30" x="254.492188"/>
       <use xlink:href="#DejaVuSans-30" x="318.115234"/>
      </g>
     </g>
    </g>
    <g id="text_15">
     <!-- blank corrected GFP RFU -->
     <g transform="translate(20.745312 280.149062) rotate(-90) scale(0.1 -0.1)">
      <defs>
       <path id="DejaVuSans-62" d="M 3116 1747 
Q 3116 2381 2855 2742 
Q 2594 3103 2138 3103 
Q 1681 3103 1420 2742 
Q 1159 2381 1159 1747 
Q 1159 1113 1420 752 
Q 1681 391 2138 391 
Q 2594 391 2855 752 
Q 3116 1113 3116 1747 
z
M 1159 2969 
Q 1341 3281 1617 3432 
Q 1894 3584 2278 3584 
Q 2916 3584 3314 3078 
Q 3713 2572 3713 1747 
Q 3713 922 3314 415 
Q 2916 -91 2278 -91 
Q 1894 -91 1617 61 
Q 1341 213 1159 525 
L 1159 0 
L 581 0 
L 581 4863 
L 1159 4863 
L 1159 2969 
z
" transform="scale(0.015625)"/>
       <path id="DejaVuSans-6c" d="M 603 4863 
L 1178 4863 
L 1178 0 
L 603 0 
L 603 4863 
z
" transform="scale(0.015625)"/>
       <path id="DejaVuSans-61" d="M 2194 1759 
Q 1497 1759 1228 1600 
Q 959 1441 959 1056 
Q 959 750 1161 570 
Q 1363 391 1709 391 
Q 2188 391 2477 730 
Q 2766 1069 2766 1631 
L 2766 1759 
L 2194 1759 
z
M 3341 1997 
L 3341 0 
L 2766 0 
L 2766 531 
Q 2569 213 2275 61 
Q 1981 -91 1556 -91 
Q 1019 -91 701 211 
Q 384 513 384 1019 
Q 384 1609 779 1909 
Q 1175 2209 1959 2209 
L 2766 2209 
L 2766 2266 
Q 2766 2663 2505 2880 
Q 2244 3097 1772 3097 
Q 1472 3097 1187 3025 
Q 903 2953 641 2809 
L 641 3341 
Q 956 3463 1253 3523 
Q 1550 3584 1831 3584 
Q 2591 3584 2966 3190 
Q 3341 2797 3341 1997 
z
" transform="scale(0.015625)"/>
       <path id="DejaVuSans-6b" d="M 581 4863 
L 1159 4863 
L 1159 1991 
L 2875 3500 
L 3609 3500 
L 1753 1863 
L 3688 0 
L 2938 0 
L 1159 1709 
L 1159 0 
L 581 0 
L 581 4863 
z
" transform="scale(0.015625)"/>
       <path id="DejaVuSans-63" d="M 3122 3366 
L 3122 2828 
Q 2878 2963 2633 3030 
Q 2388 3097 2138 3097 
Q 1578 3097 1268 2742 
Q 959 2388 959 1747 
Q 959 1106 1268 751 
Q 1578 397 2138 397 
Q 2388 397 2633 464 
Q 2878 531 3122 666 
L 3122 134 
Q 2881 22 2623 -34 
Q 2366 -91 2075 -91 
Q 1284 -91 818 406 
Q 353 903 353 1747 
Q 353 2603 823 3093 
Q 1294 3584 2113 3584 
Q 2378 3584 2631 3529 
Q 2884 3475 3122 3366 
z
" transform="scale(0.015625)"/>
       <path id="DejaVuSans-64" d="M 2906 2969 
L 2906 4863 
L 3481 4863 
L 3481 0 
L 2906 0 
L 2906 525 
Q 2725 213 2448 61 
Q 2172 -91 1784 -91 
Q 1150 -91 751 415 
Q 353 922 353 1747 
Q 353 2572 751 3078 
Q 1150 3584 1784 3584 
Q 2172 3584 2448 3432 
Q 2725 3281 2906 2969 
z
M 947 1747 
Q 947 1113 1208 752 
Q 1469 391 1925 391 
Q 2381 391 2643 752 
Q 2906 1113 2906 1747 
Q 2906 2381 2643 2742 
Q 2381 3103 1925 3103 
Q 1469 3103 1208 2742 
Q 947 2381 947 1747 
z
" transform="scale(0.015625)"/>
       <path id="DejaVuSans-47" d="M 3809 666 
L 3809 1919 
L 2778 1919 
L 2778 2438 
L 4434 2438 
L 4434 434 
Q 4069 175 3628 42 
Q 3188 -91 2688 -91 
Q 1594 -91 976 548 
Q 359 1188 359 2328 
Q 359 3472 976 4111 
Q 1594 4750 2688 4750 
Q 3144 4750 3555 4637 
Q 3966 4525 4313 4306 
L 4313 3634 
Q 3963 3931 3569 4081 
Q 3175 4231 2741 4231 
Q 1884 4231 1454 3753 
Q 1025 3275 1025 2328 
Q 1025 1384 1454 906 
Q 1884 428 2741 428 
Q 3075 428 3337 486 
Q 3600 544 3809 666 
z
" transform="scale(0.015625)"/>
       <path id="DejaVuSans-46" d="M 628 4666 
L 3309 4666 
L 3309 4134 
L 1259 4134 
L 1259 2759 
L 3109 2759 
L 3109 2228 
L 1259 2228 
L 1259 0 
L 628 0 
L 628 4666 
z
" transform="scale(0.015625)"/>
       <path id="DejaVuSans-50" d="M 1259 4147 
L 1259 2394 
L 2053 2394 
Q 2494 2394 2734 2622 
Q 2975 2850 2975 3272 
Q 2975 3691 2734 3919 
Q 2494 4147 2053 4147 
L 1259 4147 
z
M 628 4666 
L 2053 4666 
Q 2838 4666 3239 4311 
Q 3641 3956 3641 3272 
Q 3641 2581 3239 2228 
Q 2838 1875 2053 1875 
L 1259 1875 
L 1259 0 
L 628 0 
L 628 4666 
z
" transform="scale(0.015625)"/>
       <path id="DejaVuSans-52" d="M 2841 2188 
Q 3044 2119 3236 1894 
Q 3428 1669 3622 1275 
L 4263 0 
L 3584 0 
L 2988 1197 
Q 2756 1666 2539 1819 
Q 2322 1972 1947 1972 
L 1259 1972 
L 1259 0 
L 628 0 
L 628 4666 
L 2053 4666 
Q 2853 4666 3247 4331 
Q 3641 3997 3641 3322 
Q 3641 2881 3436 2590 
Q 3231 2300 2841 2188 
z
M 1259 4147 
L 1259 2491 
L 2053 2491 
Q 2509 2491 2742 2702 
Q 2975 2913 2975 3322 
Q 2975 3731 2742 3939 
Q 2509 4147 2053 4147 
L 1259 4147 
z
" transform="scale(0.015625)"/>
       <path id="DejaVuSans-55" d="M 556 4666 
L 1191 4666 
L 1191 1831 
Q 1191 1081 1462 751 
Q 1734 422 2344 422 
Q 2950 422 3222 751 
Q 3494 1081 3494 1831 
L 3494 4666 
L 4128 4666 
L 4128 1753 
Q 4128 841 3676 375 
Q 3225 -91 2344 -91 
Q 1459 -91 1007 375 
Q 556 841 556 1753 
L 556 4666 
z
" transform="scale(0.015625)"/>
      </defs>
      <use xlink:href="#DejaVuSans-62"/>
      <use xlink:href="#DejaVuSans-6c" x="63.476562"/>
      <use xlink:href="#DejaVuSans-61" x="91.259766"/>
      <use xlink:href="#DejaVuSans-6e" x="152.539062"/>
      <use xlink:href="#DejaVuSans-6b" x="215.917969"/>
      <use xlink:href="#DejaVuSans-20" x="273.828125"/>
      <use xlink:href="#DejaVuSans-63" x="305.615234"/>
      <use xlink:href="#DejaVuSans-6f" x="360.595703"/>
      <use xlink:href="#DejaVuSans-72" x="421.777344"/>
      <use xlink:href="#DejaVuSans-72" x="461.140625"/>
      <use xlink:href="#DejaVuSans-65" x="500.003906"/>
      <use xlink:href="#DejaVuSans-63" x="561.527344"/>
      <use xlink:href="#DejaVuSans-74" x="616.507812"/>
      <use xlink:href="#DejaVuSans-65" x="655.716797"/>
      <use xlink:href="#DejaVuSans-64" x="717.240234"/>
      <use xlink:href="#DejaVuSans-20" x="780.716797"/>
      <use xlink:href="#DejaVuSans-47" x="812.503906"/>
      <use xlink:href="#DejaVuSans-46" x="889.994141"/>
      <use xlink:href="#DejaVuSans-50" x="947.513672"/>
      <use xlink:href="#DejaVuSans-20" x="1007.816406"/>
      <use xlink:href="#DejaVuSans-52" x="1039.603516"/>
      <use xlink:href="#DejaVuSans-46" x="1109.085938"/>
      <use xlink:href="#DejaVuSans-55" x="1166.605469"/>
     </g>
    </g>
   </g>
   <g id="line2d_27">
    <path d="M 92.290909 367.228983 
L 93.894934 367.603172 
L 97.102982 367.252868 
L 98.707007 366.825603 
L 100.311031 366.860103 
L 101.915056 366.02415 
L 103.51908 365.721614 
L 105.123105 365.228004 
L 106.727129 364.970584 
L 108.331153 363.948863 
L 109.935178 363.606521 
L 113.143227 362.223881 
L 114.747251 361.289737 
L 116.351276 361.011086 
L 117.9553 359.514332 
L 119.559324 358.272345 
L 121.163349 357.298393 
L 122.767373 355.9476 
L 125.975422 353.853737 
L 127.579447 352.211023 
L 129.183471 351.069881 
L 130.787496 349.46432 
L 132.39152 348.052489 
L 133.995544 346.277084 
L 137.203593 343.392383 
L 140.411642 340.064494 
L 142.015667 337.891017 
L 143.619691 336.229726 
L 145.223715 334.801971 
L 146.82774 332.275536 
L 148.431764 330.539938 
L 151.639813 326.445096 
L 153.243838 324.86342 
L 154.847862 321.925643 
L 158.055911 318.50487 
L 159.659935 316.294239 
L 161.26396 313.831495 
L 162.867984 311.8544 
L 164.472009 310.840641 
L 166.076033 309.150159 
L 167.680057 307.95594 
L 169.284082 306.026614 
L 170.888106 304.309593 
L 172.492131 302.425382 
L 174.096155 300.174944 
L 175.70018 297.332704 
L 177.304204 295.305186 
L 178.908229 292.351486 
L 180.512253 289.702974 
L 183.720302 283.402809 
L 185.324326 280.817989 
L 186.928351 277.211449 
L 188.532375 274.913242 
L 190.1364 272.07631 
L 191.740424 268.735152 
L 193.344448 267.249014 
L 194.948473 265.24538 
L 196.552497 263.84151 
L 198.156522 262.76406 
L 199.760546 260.906387 
L 201.364571 258.735563 
L 202.968595 257.161848 
L 206.176644 251.464099 
L 207.780668 247.472756 
L 209.384693 244.704823 
L 210.988717 241.334473 
L 214.196766 235.19619 
L 219.008839 224.108535 
L 220.612864 220.544456 
L 222.216888 217.458065 
L 225.424937 210.340523 
L 227.028962 207.471745 
L 228.632986 204.945309 
L 230.23701 204.226124 
L 231.841035 203.692707 
L 233.445059 204.762196 
L 235.049084 202.851446 
L 236.653108 201.574959 
L 238.257133 199.276752 
L 239.861157 195.285409 
L 241.465181 192.59709 
L 243.069206 188.964012 
L 246.277255 179.44211 
L 247.881279 176.233643 
L 249.485304 171.793805 
L 251.089328 168.354455 
L 252.693352 163.980962 
L 254.297377 160.300115 
L 255.901401 156.303464 
L 257.505426 153.538185 
L 259.10945 151.441668 
L 260.713475 150.218258 
L 262.317499 148.418968 
L 263.921524 149.430073 
L 265.525548 149.615841 
L 268.733597 151.489437 
L 270.337621 151.688473 
L 271.941646 150.937443 
L 273.54567 149.634418 
L 275.149695 146.8081 
L 276.753719 144.565624 
L 278.357743 143.161753 
L 279.961768 141.081159 
L 281.565792 139.863057 
L 283.169817 138.084998 
L 284.773841 136.973048 
L 286.377866 136.084019 
L 287.98189 136.373285 
L 289.585914 137.233122 
L 291.189939 139.626867 
L 292.793963 143.392636 
L 294.397988 146.508219 
L 296.002012 150.17845 
L 299.210061 155.759431 
L 300.814086 155.074746 
L 302.41811 154.543982 
L 304.022134 155.417089 
L 305.626159 154.382099 
L 307.230183 152.529734 
L 308.834208 151.688473 
L 310.438232 149.050577 
L 312.042257 147.569746 
L 313.646281 145.414846 
L 315.250305 145.080464 
L 316.85433 143.875631 
L 318.458354 144.069359 
L 320.062379 142.827372 
L 321.666403 142.498299 
L 323.270428 144.32678 
L 324.874452 147.590977 
L 326.478476 150.478332 
L 328.082501 154.188371 
L 329.686525 157.606489 
L 331.29055 161.412065 
L 332.894574 164.087115 
L 334.498599 165.379525 
L 336.102623 167.067353 
L 337.706648 166.982431 
L 339.310672 166.555166 
L 340.914696 166.833817 
L 342.518721 165.854558 
L 344.122745 165.915596 
L 345.72677 165.379525 
L 347.330794 164.325958 
L 348.934819 164.538264 
L 350.538843 165.650214 
L 352.142867 167.077969 
L 353.746892 169.81671 
L 355.350916 174.439662 
L 356.954941 177.778166 
L 358.558965 180.631021 
L 360.16299 183.202572 
L 361.767014 184.099562 
L 363.371038 186.636613 
L 364.975063 187.212492 
L 366.579087 188.921551 
L 368.183112 188.425287 
L 369.787136 189.566429 
L 371.391161 188.775591 
L 372.995185 188.20502 
L 376.203234 188.279327 
L 377.807258 187.581373 
L 379.411283 186.756035 
L 381.015307 187.207184 
L 382.619332 187.915754 
L 384.223356 187.151454 
L 389.035429 194.603377 
L 392.243478 197.814498 
L 393.847503 198.4063 
L 395.451527 199.600518 
L 397.055552 199.417405 
L 398.659576 198.435492 
L 400.2636 199.138754 
L 401.867625 198.963602 
L 403.471649 198.247071 
L 405.075674 198.666374 
L 408.283723 198.841526 
L 409.887747 198.51776 
L 411.491771 198.509799 
L 413.095796 199.189176 
L 414.69982 200.043706 
L 416.303845 201.800534 
L 417.907869 204.653389 
L 419.511894 205.115154 
L 421.115918 207.140017 
L 422.719943 206.893212 
L 424.323967 207.991893 
L 425.927991 207.646897 
L 427.532016 208.305044 
L 432.344089 206.542908 
L 433.948114 205.868838 
L 435.552138 207.140017 
L 437.156162 206.341218 
L 438.760187 206.789713 
L 440.364211 206.179335 
L 443.57226 207.081633 
L 445.176285 208.060893 
L 448.384333 212.046928 
L 449.988358 213.559605 
L 451.592382 214.546826 
L 453.196407 214.8414 
L 454.800431 214.783016 
L 456.404456 215.207627 
L 458.00848 214.392904 
L 459.612504 214.140791 
L 462.820553 213.395068 
L 464.424578 214.031985 
L 466.028602 213.705565 
L 467.632627 213.689642 
L 469.236651 213.039457 
L 470.840676 213.997485 
L 472.4447 213.976255 
L 475.652749 215.491585 
L 477.256773 216.839725 
L 478.860798 219.331661 
L 480.464822 219.947347 
L 482.068847 220.106576 
L 483.672871 220.045538 
L 485.276895 221.943019 
L 486.88092 220.475457 
L 488.484944 219.594389 
L 490.088969 220.178229 
L 491.692993 219.610312 
L 493.297018 220.14373 
L 494.901042 218.885819 
L 496.505066 218.843358 
L 498.109091 218.625745 
L 498.109091 218.625745 
" clip-path="url(#p02cfb62532)" style="fill: none; stroke: #008000; stroke-width: 1.5; stroke-linecap: square"/>
   </g>
   <g id="line2d_28">
    <path d="M 92.290909 364.925469 
L 93.894934 365.594231 
L 95.498958 364.654779 
L 97.102982 364.729086 
L 98.707007 364.025824 
L 100.311031 364.017863 
L 101.915056 363.739212 
L 105.123105 362.797106 
L 106.727129 362.587454 
L 108.331153 361.581657 
L 109.935178 361.10397 
L 111.539202 360.294555 
L 113.143227 359.915059 
L 117.9553 357.107319 
L 119.559324 355.921062 
L 121.163349 354.992225 
L 125.975422 351.26361 
L 127.579447 350.348042 
L 129.183471 349.074209 
L 130.787496 347.179382 
L 132.39152 345.764897 
L 135.599569 342.524584 
L 137.203593 340.988023 
L 138.807618 339.228541 
L 140.411642 337.784864 
L 142.015667 335.754692 
L 143.619691 334.167709 
L 145.223715 332.371073 
L 146.82774 330.18698 
L 148.431764 328.751265 
L 153.243838 322.830595 
L 154.847862 320.956999 
L 156.451886 318.77556 
L 158.055911 317.124884 
L 162.867984 310.474414 
L 164.472009 308.603472 
L 166.076033 305.976191 
L 167.680057 304.176902 
L 169.284082 301.661082 
L 170.888106 299.883023 
L 172.492131 297.056706 
L 177.304204 289.429631 
L 178.908229 287.853263 
L 180.512253 284.915485 
L 182.116277 282.808353 
L 183.720302 280.000613 
L 185.324326 278.047402 
L 188.532375 272.429268 
L 191.740424 267.12163 
L 193.344448 264.024624 
L 198.156522 256.002129 
L 199.760546 253.762306 
L 201.364571 250.354803 
L 202.968595 248.680243 
L 204.572619 244.179367 
L 206.176644 241.342434 
L 207.780668 237.560742 
L 209.384693 234.328391 
L 210.988717 232.133683 
L 214.196766 225.395637 
L 215.800791 223.246044 
L 217.404815 218.925627 
L 222.216888 208.727001 
L 223.820913 206.450024 
L 227.028962 198.188687 
L 228.632986 194.560916 
L 230.23701 192.934125 
L 231.841035 190.46342 
L 233.445059 189.107319 
L 235.049084 185.646739 
L 236.653108 182.650577 
L 238.257133 179.298804 
L 241.465181 170.626124 
L 243.069206 167.104507 
L 244.67323 161.191798 
L 246.277255 156.499847 
L 249.485304 148.700273 
L 251.089328 145.290116 
L 252.693352 141.290811 
L 254.297377 137.827578 
L 255.901401 135.062298 
L 257.505426 131.22753 
L 259.10945 128.985053 
L 262.317499 124.038335 
L 263.921524 122.666311 
L 265.525548 120.959905 
L 267.129572 119.518882 
L 268.733597 118.720082 
L 270.337621 117.547094 
L 273.54567 112.210265 
L 275.149695 110.156209 
L 276.753719 107.82881 
L 278.357743 106.594784 
L 279.961768 104.094887 
L 281.565792 102.576902 
L 283.169817 102.879438 
L 284.773841 100.987265 
L 286.377866 99.840815 
L 287.98189 99.506434 
L 289.585914 98.79521 
L 291.189939 100.721883 
L 292.793963 102.170868 
L 294.397988 104.891032 
L 296.002012 106.056059 
L 297.606037 106.196711 
L 299.210061 108.049077 
L 300.814086 106.255095 
L 302.41811 103.442047 
L 304.022134 102.98559 
L 305.626159 100.602461 
L 307.230183 99.108361 
L 308.834208 96.706655 
L 310.438232 95.095787 
L 312.042257 92.680812 
L 313.646281 91.35921 
L 315.250305 90.576334 
L 316.85433 89.636882 
L 318.458354 89.711189 
L 320.062379 89.416615 
L 321.666403 89.849187 
L 323.270428 87.972937 
L 324.874452 90.860292 
L 326.478476 92.503006 
L 328.082501 94.984327 
L 329.686525 97.749606 
L 331.29055 101.064226 
L 332.894574 102.040831 
L 334.498599 102.170868 
L 336.102623 101.767488 
L 342.518721 95.544282 
L 344.122745 94.721599 
L 345.72677 93.519419 
L 347.330794 92.497698 
L 348.934819 91.794436 
L 352.142867 93.198307 
L 353.746892 96.669502 
L 355.350916 100.472424 
L 358.558965 106.167519 
L 360.16299 109.482139 
L 361.767014 110.296861 
L 363.371038 111.666232 
L 364.975063 111.881191 
L 366.579087 112.454416 
L 368.183112 110.652473 
L 369.787136 110.203978 
L 374.599209 105.68187 
L 376.203234 104.301885 
L 377.807258 102.32479 
L 379.411283 101.326954 
L 381.015307 100.695345 
L 384.223356 100.427309 
L 385.827381 103.073166 
L 387.431405 106.15425 
L 389.035429 107.133509 
L 390.639454 110.538359 
L 392.243478 110.156209 
L 393.847503 110.623281 
L 395.451527 108.853184 
L 397.055552 108.415304 
L 398.659576 106.714206 
L 401.867625 106.393094 
L 403.471649 104.482344 
L 405.075674 105.323605 
L 406.679698 105.034339 
L 409.887747 103.707429 
L 411.491771 103.776428 
L 413.095796 104.612381 
L 414.69982 105.265221 
L 416.303845 107.727965 
L 419.511894 113.224023 
L 421.115918 113.839709 
L 422.719943 113.295676 
L 424.323967 113.627404 
L 425.927991 113.399175 
L 427.532016 111.517618 
L 429.13604 110.69228 
L 430.740065 110.015556 
L 432.344089 107.887194 
L 433.948114 106.714206 
L 435.552138 108.768262 
L 437.156162 107.90577 
L 438.760187 107.308661 
L 440.364211 106.995511 
L 441.968236 107.643042 
L 443.57226 107.528928 
L 446.780309 110.249092 
L 448.384333 113.170947 
L 449.988358 112.902911 
L 451.592382 112.948026 
L 453.196407 113.518597 
L 454.800431 113.287715 
L 456.404456 112.932103 
L 458.00848 111.337158 
L 461.216529 108.587802 
L 464.424578 109.498062 
L 466.028602 108.776223 
L 467.632627 108.441842 
L 469.236651 108.555956 
L 470.840676 108.094192 
L 472.4447 108.776223 
L 474.048724 110.042095 
L 475.652749 108.402035 
L 477.256773 110.522436 
L 478.860798 112.844527 
L 480.464822 113.661903 
L 482.068847 114.694239 
L 483.672871 115.328502 
L 485.276895 115.222349 
L 486.88092 112.25538 
L 488.484944 110.69228 
L 490.088969 113.014372 
L 491.692993 111.7485 
L 493.297018 110.134978 
L 494.901042 110.193362 
L 496.505066 109.065489 
L 498.109091 108.770915 
L 498.109091 108.770915 
" clip-path="url(#p02cfb62532)" style="fill: none; stroke: #008000; stroke-width: 1.5; stroke-linecap: square"/>
   </g>
   <g id="line2d_29">
    <path d="M 92.290909 362.59807 
L 93.894934 363.250909 
L 95.498958 363.747173 
L 98.707007 363.659597 
L 100.311031 363.386254 
L 103.51908 362.324726 
L 106.727129 362.011576 
L 108.331153 361.066816 
L 109.935178 360.398054 
L 111.539202 360.24944 
L 113.143227 359.089721 
L 114.747251 358.333383 
L 116.351276 357.378008 
L 117.9553 356.719861 
L 119.559324 355.814909 
L 121.163349 354.281002 
L 122.767373 353.529971 
L 124.371398 352.274714 
L 125.975422 350.817768 
L 129.183471 348.493023 
L 130.787496 346.990961 
L 132.39152 345.260671 
L 133.995544 343.944377 
L 135.599569 341.951359 
L 137.203593 340.709372 
L 138.807618 339.284271 
L 140.411642 337.057717 
L 142.015667 335.510541 
L 145.223715 331.930539 
L 146.82774 330.40194 
L 148.431764 328.103733 
L 150.035789 326.415904 
L 151.639813 324.364502 
L 153.243838 322.777518 
L 156.451886 318.518139 
L 158.055911 317.042616 
L 162.867984 310.455838 
L 164.472009 308.131092 
L 166.076033 305.503812 
L 167.680057 304.076057 
L 169.284082 301.233817 
L 170.888106 299.280607 
L 172.492131 296.9134 
L 174.096155 294.137506 
L 177.304204 289.628668 
L 178.908229 288.312373 
L 180.512253 284.55722 
L 182.116277 282.726085 
L 185.324326 277.362717 
L 188.532375 273.026377 
L 191.740424 267.158784 
L 194.948473 260.837387 
L 196.552497 258.064147 
L 198.156522 255.914553 
L 199.760546 253.305849 
L 201.364571 250.007153 
L 202.968595 247.38518 
L 209.384693 234.344314 
L 212.592742 229.169367 
L 214.196766 225.857401 
L 215.800791 223.031084 
L 219.008839 215.59243 
L 220.612864 212.630769 
L 222.216888 209.345341 
L 223.820913 206.840136 
L 225.424937 202.002224 
L 227.028962 199.093639 
L 228.632986 195.333177 
L 230.23701 192.504207 
L 231.841035 188.106829 
L 233.445059 186.235887 
L 236.653108 179.431495 
L 238.257133 176.323873 
L 239.861157 171.626614 
L 241.465181 167.55831 
L 243.069206 164.694839 
L 244.67323 159.174896 
L 246.277255 155.637356 
L 247.881279 152.994152 
L 249.485304 147.893512 
L 252.693352 141.062583 
L 255.901401 134.409459 
L 257.505426 132.100637 
L 259.10945 129.125706 
L 260.713475 125.468743 
L 262.317499 123.783568 
L 263.921524 121.56763 
L 265.525548 117.66917 
L 267.129572 116.2653 
L 268.733597 115.323194 
L 271.941646 110.625935 
L 275.149695 106.568246 
L 276.753719 105.586333 
L 278.357743 103.972811 
L 281.565792 102.210675 
L 283.169817 100.894381 
L 284.773841 99.877969 
L 286.377866 99.21186 
L 289.585914 96.93223 
L 291.189939 97.338264 
L 292.793963 98.781941 
L 294.397988 98.455522 
L 296.002012 100.801498 
L 299.210061 100.920919 
L 300.814086 100.130081 
L 302.41811 96.802193 
L 304.022134 96.308582 
L 305.626159 93.649456 
L 307.230183 91.462709 
L 308.834208 90.356067 
L 310.438232 88.708045 
L 312.042257 88.737237 
L 313.646281 86.760142 
L 315.250305 86.109957 
L 316.85433 85.974612 
L 318.458354 86.067495 
L 320.062379 85.624308 
L 321.666403 86.197533 
L 323.270428 85.467732 
L 324.874452 86.282455 
L 326.478476 85.802114 
L 328.082501 90.345451 
L 329.686525 90.923984 
L 331.29055 93.453073 
L 332.894574 94.283719 
L 334.498599 93.338959 
L 336.102623 92.176586 
L 340.914696 86.534568 
L 342.518721 85.499578 
L 344.122745 84.177976 
L 345.72677 84.480512 
L 347.330794 83.50656 
L 348.934819 83.766635 
L 350.538843 84.156746 
L 352.142867 83.817057 
L 353.746892 88.177281 
L 355.350916 92.168625 
L 356.954941 94.389871 
L 358.558965 97.348879 
L 360.16299 99.373743 
L 361.767014 99.371089 
L 363.371038 98.651904 
L 364.975063 99.129592 
L 366.579087 97.866374 
L 368.183112 97.319687 
L 369.787136 95.676973 
L 371.391161 92.816157 
L 372.995185 91.255711 
L 374.599209 90.239299 
L 376.203234 89.358231 
L 377.807258 87.619979 
L 379.411283 86.139149 
L 381.015307 86.728296 
L 382.619332 88.028668 
L 384.223356 87.229868 
L 385.827381 89.334346 
L 387.431405 92.919656 
L 389.035429 92.79758 
L 390.639454 94.756098 
L 392.243478 95.475283 
L 393.847503 94.907366 
L 395.451527 93.065616 
L 398.659576 92.027973 
L 400.2636 90.592257 
L 401.867625 90.88683 
L 403.471649 89.89961 
L 405.075674 90.305644 
L 406.679698 89.270655 
L 408.283723 90.425066 
L 409.887747 90.127838 
L 411.491771 90.119877 
L 413.095796 91.913858 
L 414.69982 92.12351 
L 416.303845 94.278411 
L 417.907869 95.294823 
L 419.511894 99.381704 
L 421.115918 100.034544 
L 422.719943 96.993268 
L 424.323967 97.651415 
L 425.927991 96.873846 
L 427.532016 95.626551 
L 429.13604 95.385053 
L 430.740065 94.233296 
L 432.344089 93.596379 
L 433.948114 93.445112 
L 435.552138 93.882992 
L 437.156162 94.079374 
L 438.760187 93.856454 
L 440.364211 93.882992 
L 441.968236 93.766224 
L 443.57226 94.703022 
L 445.176285 95.809664 
L 448.384333 99.108361 
L 449.988358 100.878458 
L 451.592382 99.660355 
L 453.196407 99.761201 
L 454.800431 98.341407 
L 456.404456 98.86421 
L 459.612504 96.377582 
L 461.216529 96.433312 
L 462.820553 96.242237 
L 464.424578 96.446581 
L 466.028602 96.839346 
L 467.632627 96.162622 
L 469.236651 96.292659 
L 470.840676 97.147189 
L 472.4447 97.542608 
L 474.048724 98.383869 
L 475.652749 97.675299 
L 477.256773 98.192794 
L 478.860798 101.587028 
L 480.464822 101.531298 
L 482.068847 101.65072 
L 483.672871 100.947458 
L 485.276895 101.932024 
L 488.484944 100.955419 
L 490.088969 100.15662 
L 491.692993 99.042016 
L 493.297018 96.518234 
L 494.901042 97.07819 
L 496.505066 96.526195 
L 498.109091 96.36962 
L 498.109091 96.36962 
" clip-path="url(#p02cfb62532)" style="fill: none; stroke: #008000; stroke-width: 1.5; stroke-linecap: square"/>
   </g>
   <g id="line2d_30">
    <path d="M 92.290909 366.868064 
L 93.894934 366.931756 
L 95.498958 366.377108 
L 97.102982 366.130303 
L 100.311031 365.095313 
L 101.915056 365.018352 
L 105.123105 364.219553 
L 108.331153 362.953681 
L 109.935178 362.523763 
L 113.143227 361.292391 
L 114.747251 359.994673 
L 116.351276 359.203835 
L 117.9553 358.277653 
L 119.559324 357.624813 
L 122.767373 355.613219 
L 124.371398 353.872313 
L 125.975422 353.078822 
L 127.579447 352.027909 
L 129.183471 350.762038 
L 130.787496 349.198938 
L 132.39152 347.418226 
L 133.995544 346.319545 
L 135.599569 344.363681 
L 137.203593 342.978387 
L 138.807618 341.192367 
L 140.411642 339.793805 
L 142.015667 337.559289 
L 143.619691 335.736116 
L 145.223715 334.464936 
L 146.82774 332.724031 
L 150.035789 328.910494 
L 151.639813 327.217357 
L 153.243838 324.783805 
L 154.847862 323.101284 
L 156.451886 321.206458 
L 158.055911 319.608859 
L 164.472009 310.288647 
L 166.076033 308.558357 
L 167.680057 306.265458 
L 169.284082 303.606331 
L 172.492131 299.508835 
L 174.096155 297.417626 
L 175.70018 294.758499 
L 178.908229 290.751233 
L 180.512253 288.620216 
L 183.720302 282.545625 
L 186.928351 278.026172 
L 188.532375 276.250767 
L 190.1364 272.766303 
L 191.740424 270.529134 
L 194.948473 264.706655 
L 196.552497 261.370805 
L 199.760546 255.962322 
L 201.364571 252.841431 
L 204.572619 247.38518 
L 206.176644 244.317365 
L 207.780668 241.491048 
L 209.384693 237.2184 
L 210.988717 235.111268 
L 212.592742 232.59014 
L 215.800791 226.374896 
L 217.404815 223.272582 
L 219.008839 219.411276 
L 220.612864 216.465537 
L 222.216888 213.272993 
L 223.820913 211.752354 
L 225.424937 206.256296 
L 227.028962 203.018637 
L 228.632986 199.388213 
L 230.23701 196.174438 
L 231.841035 191.981404 
L 233.445059 189.502738 
L 235.049084 185.423818 
L 236.653108 182.321504 
L 238.257133 177.759589 
L 239.861157 174.861619 
L 241.465181 171.058697 
L 243.069206 167.656501 
L 246.277255 159.862235 
L 247.881279 156.905881 
L 249.485304 152.877384 
L 254.297377 141.909151 
L 255.901401 138.668838 
L 257.505426 136.160979 
L 259.10945 133.026819 
L 260.713475 130.24031 
L 262.317499 127.228225 
L 263.921524 124.956556 
L 265.525548 121.604783 
L 268.733597 116.804025 
L 270.337621 115.110889 
L 271.941646 112.300494 
L 273.54567 111.292043 
L 275.149695 109.081412 
L 276.753719 107.911078 
L 278.357743 106.30021 
L 279.961768 105.172337 
L 281.565792 105.005147 
L 283.169817 103.388971 
L 284.773841 102.064715 
L 286.377866 101.478221 
L 289.585914 98.614751 
L 291.189939 98.341407 
L 292.793963 97.874335 
L 294.397988 98.235255 
L 296.002012 96.895076 
L 297.606037 97.139228 
L 299.210061 96.343082 
L 300.814086 93.808685 
L 302.41811 92.189855 
L 304.022134 91.515785 
L 305.626159 90.647987 
L 307.230183 90.143761 
L 308.834208 90.576334 
L 310.438232 89.082234 
L 315.250305 86.431069 
L 316.85433 85.892343 
L 318.458354 86.603567 
L 320.062379 86.027688 
L 321.666403 85.650846 
L 323.270428 84.921046 
L 326.478476 84.804278 
L 328.082501 85.916228 
L 329.686525 85.154582 
L 331.29055 86.969794 
L 332.894574 86.616836 
L 334.498599 84.058555 
L 336.102623 83.854211 
L 337.706648 82.60957 
L 340.914696 80.998702 
L 342.518721 80.653705 
L 344.122745 81.654195 
L 345.72677 80.536937 
L 347.330794 79.982289 
L 348.934819 80.924395 
L 350.538843 81.433928 
L 352.142867 81.128739 
L 353.746892 81.253468 
L 355.350916 84.032016 
L 356.954941 85.085582 
L 358.558965 86.611528 
L 360.16299 87.163523 
L 361.767014 87.152907 
L 363.371038 85.281965 
L 364.975063 85.491617 
L 366.579087 85.03516 
L 368.183112 82.466263 
L 369.787136 82.872298 
L 371.391161 81.717886 
L 372.995185 81.603772 
L 374.599209 80.521014 
L 376.203234 81.208353 
L 377.807258 80.611244 
L 379.411283 79.44091 
L 381.015307 80.597975 
L 382.619332 81.019932 
L 385.827381 80.96951 
L 387.431405 84.207168 
L 389.035429 83.564944 
L 390.639454 83.750712 
L 392.243478 84.488473 
L 393.847503 84.098362 
L 395.451527 83.830326 
L 397.055552 82.51934 
L 398.659576 82.673261 
L 401.867625 83.700289 
L 403.471649 83.108487 
L 405.075674 84.525627 
L 406.679698 83.21464 
L 408.283723 83.968325 
L 409.887747 83.846249 
L 413.095796 85.106813 
L 414.69982 86.608874 
L 416.303845 86.388608 
L 417.907869 87.014909 
L 419.511894 88.962812 
L 421.115918 88.904428 
L 424.323967 87.136984 
L 425.927991 88.684161 
L 427.532016 87.481981 
L 429.13604 86.478837 
L 430.740065 88.153397 
L 432.344089 86.823834 
L 433.948114 86.388608 
L 435.552138 88.514316 
L 437.156162 87.37052 
L 438.760187 88.644354 
L 440.364211 87.943745 
L 441.968236 88.37101 
L 443.57226 89.639536 
L 445.176285 89.453768 
L 446.780309 90.584295 
L 448.384333 91.452094 
L 449.988358 90.918676 
L 451.592382 91.261019 
L 453.196407 89.732419 
L 454.800431 89.851841 
L 456.404456 90.329528 
L 458.00848 90.090685 
L 459.612504 89.716496 
L 461.216529 89.671381 
L 462.820553 89.339654 
L 464.424578 90.064147 
L 466.028602 89.602382 
L 467.632627 89.886341 
L 470.840676 91.292865 
L 472.4447 90.950522 
L 474.048724 91.462709 
L 475.652749 91.616631 
L 477.256773 90.942561 
L 478.860798 92.79758 
L 480.464822 91.961627 
L 482.068847 91.680322 
L 483.672871 92.365008 
L 485.276895 96.316544 
L 486.88092 93.402651 
L 488.484944 94.259834 
L 490.088969 93.936068 
L 491.692993 94.538485 
L 493.297018 91.744014 
L 494.901042 90.979714 
L 496.505066 91.340633 
L 498.109091 90.801908 
L 498.109091 90.801908 
" clip-path="url(#p02cfb62532)" style="fill: none; stroke: #008000; stroke-width: 1.5; stroke-linecap: square"/>
   </g>
   <g id="line2d_31">
    <path d="M 92.290909 366.814988 
L 93.894934 367.57398 
L 95.498958 366.623913 
L 97.102982 366.276263 
L 98.707007 365.527886 
L 100.311031 365.472155 
L 101.915056 365.05816 
L 103.51908 364.479627 
L 105.123105 364.360205 
L 106.727129 364.041747 
L 108.331153 363.112911 
L 109.935178 362.314111 
L 111.539202 361.913384 
L 114.747251 360.565244 
L 116.351276 359.392257 
L 117.9553 358.726148 
L 119.559324 357.773427 
L 121.163349 357.019743 
L 124.371398 354.387154 
L 125.975422 353.224782 
L 127.579447 351.92441 
L 129.183471 350.478079 
L 130.787496 349.299784 
L 132.39152 347.808337 
L 133.995544 346.638003 
L 135.599569 344.411449 
L 137.203593 343.065963 
L 145.223715 334.149132 
L 146.82774 333.238872 
L 148.431764 330.359479 
L 151.639813 327.734852 
L 153.243838 325.09961 
L 154.847862 323.053516 
L 158.055911 319.898125 
L 159.659935 318.01126 
L 161.26396 315.678553 
L 162.867984 312.907966 
L 164.472009 311.448366 
L 166.076033 308.778624 
L 167.680057 306.806837 
L 169.284082 304.317555 
L 172.492131 300.352749 
L 174.096155 297.611355 
L 175.70018 295.448492 
L 177.304204 293.086593 
L 178.908229 291.942798 
L 180.512253 288.466295 
L 182.116277 287.01731 
L 183.720302 283.771689 
L 185.324326 281.921978 
L 186.928351 278.424245 
L 188.532375 276.603725 
L 190.1364 273.689832 
L 191.740424 271.264241 
L 196.552497 262.182873 
L 198.156522 259.664399 
L 199.760546 256.440009 
L 201.364571 253.571231 
L 202.968595 251.058065 
L 204.572619 247.939828 
L 206.176644 245.463815 
L 207.780668 243.316875 
L 209.384693 239.09465 
L 210.988717 236.241794 
L 212.592742 233.962164 
L 214.196766 230.817389 
L 215.800791 228.436913 
L 219.008839 220.703685 
L 220.612864 217.749985 
L 223.820913 212.744883 
L 227.028962 203.408748 
L 228.632986 201.460845 
L 230.23701 198.032111 
L 231.841035 193.770078 
L 233.445059 190.466074 
L 236.653108 182.361311 
L 238.257133 179.113037 
L 239.861157 175.490574 
L 241.465181 172.457259 
L 243.069206 169.69198 
L 244.67323 165.177834 
L 246.277255 162.123289 
L 247.881279 158.747631 
L 251.089328 150.316449 
L 252.693352 147.521978 
L 254.297377 143.458981 
L 255.901401 140.943161 
L 257.505426 136.206094 
L 259.10945 134.499689 
L 260.713475 131.888331 
L 263.921524 125.845586 
L 265.525548 122.958231 
L 267.129572 119.325153 
L 268.733597 117.032253 
L 270.337621 115.35504 
L 271.941646 113.093986 
L 273.54567 111.780346 
L 275.149695 109.975749 
L 276.753719 108.388766 
L 278.357743 107.470544 
L 279.961768 106.332056 
L 281.565792 104.77161 
L 284.773841 102.632632 
L 286.377866 100.90765 
L 287.98189 99.490511 
L 289.585914 100.175196 
L 291.189939 97.30111 
L 292.793963 97.354187 
L 294.397988 95.822933 
L 296.002012 95.565513 
L 297.606037 93.487573 
L 300.814086 91.86609 
L 302.41811 90.600218 
L 304.022134 90.183568 
L 307.230183 88.434702 
L 308.834208 88.187897 
L 310.438232 86.218763 
L 312.042257 86.818526 
L 313.646281 84.94493 
L 316.85433 84.209822 
L 318.458354 84.353129 
L 320.062379 83.763981 
L 321.666403 82.797991 
L 323.270428 83.599444 
L 324.874452 82.617531 
L 326.478476 82.01246 
L 328.082501 81.08097 
L 329.686525 81.550696 
L 331.29055 79.6081 
L 332.894574 79.679754 
L 334.498599 77.4187 
L 336.102623 78.915454 
L 340.914696 77.973348 
L 342.518721 77.344393 
L 344.122745 77.779619 
L 345.72677 77.85658 
L 347.330794 78.087462 
L 348.934819 78.535958 
L 352.142867 77.936195 
L 353.746892 77.559352 
L 355.350916 78.246691 
L 356.954941 76.755245 
L 358.558965 77.660197 
L 360.16299 77.044511 
L 361.767014 76.901205 
L 363.371038 76.349211 
L 364.975063 78.413882 
L 366.579087 77.309893 
L 368.183112 76.704823 
L 369.787136 77.477084 
L 371.391161 76.442095 
L 372.995185 77.222317 
L 374.599209 76.983474 
L 376.203234 77.185164 
L 377.807258 78.039694 
L 379.411283 76.672977 
L 381.015307 76.991435 
L 382.619332 77.944156 
L 384.223356 78.039694 
L 385.827381 77.604467 
L 387.431405 78.798686 
L 390.639454 78.849108 
L 392.243478 78.631495 
L 393.847503 80.011481 
L 395.451527 78.658033 
L 397.055552 79.395795 
L 398.659576 78.971184 
L 400.2636 79.783253 
L 401.867625 81.479043 
L 403.471649 80.361785 
L 405.075674 80.892549 
L 406.679698 80.653705 
L 408.283723 81.457812 
L 409.887747 81.99123 
L 413.095796 82.057575 
L 414.69982 82.728991 
L 416.303845 82.500763 
L 417.907869 83.344677 
L 419.511894 83.432253 
L 421.115918 84.183284 
L 422.719943 82.981104 
L 424.323967 82.928028 
L 425.927991 83.766635 
L 427.532016 82.211497 
L 429.13604 83.442869 
L 430.740065 85.231543 
L 432.344089 84.591972 
L 433.948114 83.286293 
L 435.552138 85.852536 
L 437.156162 84.501742 
L 438.760187 85.589808 
L 440.364211 85.544693 
L 441.968236 84.485819 
L 443.57226 86.449645 
L 445.176285 86.826488 
L 446.780309 86.868949 
L 448.384333 86.566413 
L 449.988358 86.614182 
L 451.592382 85.393425 
L 453.196407 86.136495 
L 454.800431 85.202351 
L 456.404456 85.669423 
L 458.00848 86.574375 
L 459.612504 85.865805 
L 461.216529 87.152907 
L 462.820553 86.067495 
L 464.424578 86.768104 
L 466.028602 87.102485 
L 467.632627 88.424087 
L 469.236651 87.760632 
L 470.840676 88.132166 
L 472.4447 88.179935 
L 474.048724 88.681507 
L 475.652749 89.047734 
L 477.256773 88.408164 
L 478.860798 88.652315 
L 480.464822 90.945214 
L 482.068847 89.952686 
L 483.672871 89.92084 
L 485.276895 90.839062 
L 486.88092 89.116733 
L 488.484944 88.604546 
L 490.088969 89.904917 
L 491.692993 88.365703 
L 493.297018 88.124205 
L 494.901042 87.049408 
L 496.505066 87.094523 
L 498.109091 86.929987 
L 498.109091 86.929987 
" clip-path="url(#p02cfb62532)" style="fill: none; stroke: #008000; stroke-width: 1.5; stroke-linecap: square"/>
   </g>
   <g id="line2d_32">
    <path d="M 92.290909 366.3373 
L 93.894934 368.526701 
L 98.707007 366.671682 
L 100.311031 366.499183 
L 101.915056 366.008227 
L 103.51908 365.639346 
L 105.123105 365.509309 
L 106.727129 365.233312 
L 108.331153 364.208938 
L 113.143227 362.258381 
L 114.747251 361.300352 
L 116.351276 360.907587 
L 117.9553 359.739907 
L 119.559324 358.757994 
L 121.163349 357.58766 
L 122.767373 356.892359 
L 124.371398 355.798986 
L 125.975422 353.86966 
L 127.579447 353.062899 
L 130.787496 350.677116 
L 132.39152 349.042363 
L 133.995544 347.593378 
L 135.599569 345.894934 
L 137.203593 344.655601 
L 140.411642 340.884524 
L 142.015667 339.618653 
L 143.619691 337.662788 
L 145.223715 335.956383 
L 146.82774 334.425129 
L 148.431764 332.739954 
L 150.035789 330.619553 
L 151.639813 329.340412 
L 153.243838 327.172242 
L 159.659935 319.500052 
L 161.26396 317.146115 
L 162.867984 315.402556 
L 164.472009 313.335231 
L 166.076033 310.447876 
L 169.284082 306.562685 
L 170.888106 304.781973 
L 172.492131 301.838888 
L 174.096155 299.726448 
L 175.70018 297.109783 
L 177.304204 295.18311 
L 178.908229 293.787202 
L 180.512253 290.40889 
L 182.116277 288.42118 
L 183.720302 285.762054 
L 185.324326 284.06361 
L 186.928351 280.966603 
L 188.532375 279.472503 
L 190.1364 275.908424 
L 191.740424 273.113953 
L 194.948473 267.85143 
L 196.552497 264.719924 
L 198.156522 262.007721 
L 199.760546 258.119877 
L 201.364571 256.108282 
L 202.968595 253.642884 
L 204.572619 250.452994 
L 206.176644 248.197248 
L 207.780668 245.386854 
L 209.384693 241.329165 
L 212.592742 236.058681 
L 214.196766 233.181941 
L 215.800791 231.024387 
L 217.404815 226.770315 
L 219.008839 223.35485 
L 220.612864 220.698378 
L 222.216888 217.083876 
L 223.820913 215.603046 
L 225.424937 210.674904 
L 227.028962 206.744598 
L 228.632986 203.268096 
L 230.23701 200.481586 
L 231.841035 196.392051 
L 233.445059 193.011086 
L 235.049084 189.319624 
L 236.653108 185.192936 
L 239.861157 178.261161 
L 241.465181 174.949195 
L 243.069206 171.907919 
L 244.67323 167.388465 
L 246.277255 164.087115 
L 247.881279 161.565987 
L 249.485304 157.157994 
L 251.089328 153.718645 
L 252.693352 149.037308 
L 254.297377 146.189761 
L 255.901401 141.948958 
L 259.10945 137.299468 
L 260.713475 133.775196 
L 262.317499 129.656469 
L 263.921524 128.143793 
L 267.129572 120.145183 
L 268.733597 117.868206 
L 271.941646 114.280243 
L 273.54567 111.891806 
L 276.753719 108.90626 
L 278.357743 106.393094 
L 279.961768 104.877763 
L 281.565792 104.798149 
L 284.773841 101.836487 
L 286.377866 100.61573 
L 287.98189 99.984121 
L 289.585914 98.036218 
L 291.189939 97.22415 
L 292.793963 95.294823 
L 294.397988 93.997106 
L 296.002012 92.924963 
L 297.606037 91.515785 
L 299.210061 91.391056 
L 300.814086 89.512152 
L 302.41811 88.357741 
L 304.022134 88.869928 
L 307.230183 85.178466 
L 308.834208 85.32708 
L 310.438232 83.819711 
L 312.042257 84.079785 
L 315.250305 82.001845 
L 316.85433 81.303891 
L 320.062379 80.696166 
L 321.666403 80.144172 
L 323.270428 80.383016 
L 324.874452 79.69833 
L 326.478476 78.079501 
L 328.082501 77.869849 
L 329.686525 76.77913 
L 334.498599 74.4305 
L 336.102623 74.873688 
L 337.706648 73.703354 
L 339.310672 73.273435 
L 340.914696 74.589729 
L 342.518721 73.809506 
L 344.122745 73.814814 
L 345.72677 73.299973 
L 347.330794 73.552086 
L 348.934819 73.345088 
L 350.538843 74.706497 
L 352.142867 73.711315 
L 353.746892 72.320714 
L 355.350916 72.766556 
L 356.954941 72.036755 
L 358.558965 72.010217 
L 360.16299 72.108408 
L 361.767014 71.057496 
L 363.371038 70.887652 
L 364.975063 71.609491 
L 366.579087 72.153523 
L 368.183112 71.410454 
L 369.787136 72.729402 
L 371.391161 72.007563 
L 372.995185 72.344598 
L 374.599209 71.375955 
L 376.203234 72.233138 
L 377.807258 71.216725 
L 379.411283 71.925295 
L 381.015307 72.039409 
L 382.619332 71.869565 
L 384.223356 72.278253 
L 385.827381 72.968246 
L 387.431405 73.453895 
L 389.035429 72.121678 
L 390.639454 72.15087 
L 392.243478 73.509625 
L 393.847503 74.703843 
L 395.451527 72.299483 
L 397.055552 73.35305 
L 398.659576 72.272945 
L 400.2636 73.583932 
L 401.867625 74.117349 
L 405.075674 74.02712 
L 406.679698 74.308424 
L 408.283723 75.412413 
L 409.887747 75.664526 
L 411.491771 74.897572 
L 413.095796 75.499989 
L 414.69982 75.436297 
L 416.303845 76.351865 
L 417.907869 76.081175 
L 419.511894 76.638477 
L 421.115918 76.731361 
L 422.719943 76.505786 
L 424.323967 77.010012 
L 427.532016 76.94632 
L 429.13604 77.753081 
L 430.740065 77.171895 
L 432.344089 77.596506 
L 433.948114 77.370931 
L 435.552138 79.515217 
L 437.156162 77.853926 
L 438.760187 79.708946 
L 440.364211 79.212681 
L 441.968236 79.079991 
L 443.57226 79.318834 
L 445.176285 80.528976 
L 446.780309 79.478063 
L 448.384333 81.1367 
L 449.988358 80.536937 
L 451.592382 80.176018 
L 453.196407 80.048634 
L 454.800431 79.629331 
L 456.404456 81.112816 
L 458.00848 80.924395 
L 459.612504 80.3724 
L 461.216529 80.412208 
L 462.820553 80.640436 
L 464.424578 80.988086 
L 466.028602 81.81077 
L 467.632627 82.023076 
L 469.236651 81.800155 
L 470.840676 83.020911 
L 474.048724 81.879769 
L 475.652749 85.868459 
L 477.256773 84.814893 
L 480.464822 84.207168 
L 482.068847 83.204025 
L 483.672871 82.606916 
L 485.276895 84.745894 
L 486.88092 81.980614 
L 488.484944 81.829347 
L 490.088969 82.314996 
L 493.297018 80.030058 
L 494.901042 79.756714 
L 496.505066 79.268412 
L 498.109091 77.98131 
L 498.109091 77.98131 
" clip-path="url(#p02cfb62532)" style="fill: none; stroke: #008000; stroke-width: 1.5; stroke-linecap: square"/>
   </g>
   <g id="line2d_33">
    <path d="M 92.290909 367.59521 
L 93.894934 369.36 
L 95.498958 368.311742 
L 97.102982 368.070244 
L 101.915056 366.854795 
L 103.51908 366.339954 
L 105.123105 366.377108 
L 106.727129 365.846344 
L 108.331153 364.959968 
L 113.143227 362.924489 
L 114.747251 362.18142 
L 116.351276 361.650656 
L 117.9553 360.222902 
L 119.559324 359.532909 
L 121.163349 358.696956 
L 124.371398 356.44121 
L 125.975422 354.923226 
L 127.579447 354.068696 
L 129.183471 352.433944 
L 130.787496 351.406916 
L 132.39152 349.888931 
L 135.599569 346.298315 
L 138.807618 343.742687 
L 140.411642 341.688631 
L 142.015667 340.252915 
L 143.619691 338.596932 
L 145.223715 336.63576 
L 146.82774 335.311505 
L 150.035789 332.185306 
L 151.639813 329.956098 
L 153.243838 328.162117 
L 154.847862 325.855948 
L 156.451886 324.438809 
L 158.055911 322.339638 
L 159.659935 320.765924 
L 161.26396 318.210296 
L 166.076033 311.578403 
L 167.680057 310.081649 
L 169.284082 307.653405 
L 172.492131 303.529371 
L 174.096155 300.987012 
L 175.70018 298.962148 
L 178.908229 295.493607 
L 180.512253 291.581878 
L 182.116277 289.726859 
L 183.720302 287.120809 
L 185.324326 285.483403 
L 186.928351 282.466011 
L 188.532375 280.77022 
L 190.1364 277.890827 
L 191.740424 274.690321 
L 196.552497 266.837672 
L 198.156522 263.454053 
L 201.364571 257.851841 
L 202.968595 255.69694 
L 204.572619 252.525627 
L 206.176644 250.45034 
L 207.780668 247.568293 
L 209.384693 243.826409 
L 210.988717 241.427356 
L 214.196766 235.392572 
L 215.800791 233.219095 
L 220.612864 222.280054 
L 222.216888 220.016346 
L 223.820913 218.203788 
L 225.424937 213.769257 
L 227.028962 209.897335 
L 228.632986 206.526985 
L 230.23701 203.769667 
L 231.841035 199.292675 
L 233.445059 195.861287 
L 235.049084 192.740396 
L 236.653108 188.167867 
L 238.257133 184.619711 
L 241.465181 179.174075 
L 243.069206 176.069107 
L 244.67323 171.135658 
L 246.277255 167.629963 
L 247.881279 165.687368 
L 249.485304 160.870686 
L 251.089328 156.685614 
L 254.297377 150.090874 
L 255.901401 145.881918 
L 257.505426 143.103369 
L 259.10945 140.768009 
L 260.713475 136.317555 
L 263.921524 131.49822 
L 267.129572 123.515533 
L 268.733597 120.118645 
L 270.337621 119.102232 
L 271.941646 116.060956 
L 273.54567 114.50051 
L 275.149695 111.586617 
L 276.753719 110.742703 
L 279.961768 107.754503 
L 281.565792 106.257749 
L 284.773841 103.670276 
L 286.377866 102.507903 
L 287.98189 100.26808 
L 291.189939 98.596174 
L 292.793963 96.414735 
L 294.397988 95.138248 
L 296.002012 94.031606 
L 299.210061 91.04606 
L 300.814086 90.223376 
L 302.41811 88.949543 
L 304.022134 88.445317 
L 305.626159 86.773411 
L 307.230183 86.107303 
L 308.834208 85.104159 
L 310.438232 84.955545 
L 312.042257 83.774596 
L 313.646281 82.357457 
L 315.250305 81.781578 
L 316.85433 80.507745 
L 318.458354 80.539591 
L 320.062379 80.459976 
L 321.666403 79.061414 
L 323.270428 79.016299 
L 324.874452 78.015809 
L 326.478476 76.468633 
L 328.082501 75.611449 
L 329.686525 75.441605 
L 331.29055 75.892754 
L 332.894574 73.642316 
L 334.498599 72.2066 
L 336.102623 72.856785 
L 337.706648 71.641336 
L 339.310672 71.229994 
L 340.914696 71.214072 
L 342.518721 70.287889 
L 344.122745 71.18488 
L 345.72677 69.536858 
L 347.330794 69.056517 
L 348.934819 69.916354 
L 350.538843 70.264004 
L 352.142867 69.693433 
L 353.746892 68.631906 
L 355.350916 67.904759 
L 356.954941 68.743366 
L 358.558965 67.673877 
L 360.16299 68.212602 
L 361.767014 68.180757 
L 363.371038 67.07146 
L 364.975063 67.334188 
L 366.579087 68.079912 
L 368.183112 68.159526 
L 369.787136 68.369178 
L 371.391161 67.883529 
L 372.995185 67.660608 
L 376.203234 68.446139 
L 377.807258 68.18341 
L 379.411283 66.96 
L 381.015307 67.59957 
L 382.619332 68.72479 
L 384.223356 67.997643 
L 385.827381 68.65579 
L 387.431405 70.030468 
L 389.035429 67.525263 
L 390.639454 68.191372 
L 392.243478 68.045412 
L 393.847503 69.950854 
L 395.451527 68.921172 
L 397.055552 68.968941 
L 398.659576 68.703559 
L 400.2636 69.834086 
L 401.867625 71.211418 
L 403.471649 69.624434 
L 405.075674 70.041084 
L 406.679698 71.4768 
L 408.283723 71.123842 
L 409.887747 72.466674 
L 411.491771 70.94869 
L 413.095796 71.67849 
L 414.69982 72.241099 
L 416.303845 72.384406 
L 417.907869 72.806363 
L 419.511894 71.949179 
L 421.115918 73.28405 
L 422.719943 71.500684 
L 424.323967 73.135436 
L 425.927991 74.141234 
L 427.532016 71.938564 
L 429.13604 73.568009 
L 430.740065 73.382242 
L 432.344089 73.862583 
L 433.948114 72.814324 
L 435.552138 74.356193 
L 437.156162 73.252204 
L 438.760187 74.361501 
L 440.364211 75.261145 
L 441.968236 74.815304 
L 443.57226 75.975023 
L 445.176285 75.733525 
L 446.780309 74.281886 
L 448.384333 74.709151 
L 449.988358 73.629047 
L 451.592382 74.074888 
L 454.800431 75.423028 
L 456.404456 76.420864 
L 458.00848 75.101916 
L 459.612504 75.186838 
L 461.216529 76.704823 
L 462.820553 74.892264 
L 464.424578 76.726053 
L 466.028602 76.123636 
L 467.632627 77.18251 
L 469.236651 77.644275 
L 470.840676 77.790235 
L 472.4447 78.729686 
L 474.048724 79.971674 
L 475.652749 82.243343 
L 477.256773 80.14948 
L 478.860798 80.019442 
L 480.464822 79.284335 
L 482.068847 77.909656 
L 483.672871 78.997722 
L 485.276895 79.305565 
L 486.88092 77.82208 
L 488.484944 77.105549 
L 490.088969 78.358152 
L 491.692993 75.940523 
L 493.297018 76.333288 
L 494.901042 75.826409 
L 496.505066 74.650767 
L 498.109091 73.629047 
L 498.109091 73.629047 
" clip-path="url(#p02cfb62532)" style="fill: none; stroke: #008000; stroke-width: 1.5; stroke-linecap: square"/>
   </g>
   <g id="patch_3">
    <path d="M 72 384.48 
L 72 51.84 
" style="fill: none; stroke: #000000; stroke-width: 0.8; stroke-linejoin: miter; stroke-linecap: square"/>
   </g>
   <g id="patch_4">
    <path d="M 518.4 384.48 
L 518.4 51.84 
" style="fill: none; stroke: #000000; stroke-width: 0.8; stroke-linejoin: miter; stroke-linecap: square"/>
   </g>
   <g id="patch_5">
    <path d="M 72 384.48 
L 518.4 384.48 
" style="fill: none; stroke: #000000; stroke-width: 0.8; stroke-linejoin: miter; stroke-linecap: square"/>
   </g>
   <g id="patch_6">
    <path d="M 72 51.84 
L 518.4 51.84 
" style="fill: none; stroke: #000000; stroke-width: 0.8; stroke-linejoin: miter; stroke-linecap: square"/>
   </g>
   <g id="text_16">
    <!-- M1: Asparagin; Isoleucin; Threonin; Tryptophan; Phenylalanin; Methionin; Histidin; Arginin -->
    <g transform="translate(70.964062 45.84) scale(0.1 -0.1)">
     <defs>
      <path id="DejaVuSans-4d" d="M 628 4666 
L 1569 4666 
L 2759 1491 
L 3956 4666 
L 4897 4666 
L 4897 0 
L 4281 0 
L 4281 4097 
L 3078 897 
L 2444 897 
L 1241 4097 
L 1241 0 
L 628 0 
L 628 4666 
z
" transform="scale(0.015625)"/>
      <path id="DejaVuSans-3a" d="M 750 794 
L 1409 794 
L 1409 0 
L 750 0 
L 750 794 
z
M 750 3309 
L 1409 3309 
L 1409 2516 
L 750 2516 
L 750 3309 
z
" transform="scale(0.015625)"/>
      <path id="DejaVuSans-41" d="M 2188 4044 
L 1331 1722 
L 3047 1722 
L 2188 4044 
z
M 1831 4666 
L 2547 4666 
L 4325 0 
L 3669 0 
L 3244 1197 
L 1141 1197 
L 716 0 
L 50 0 
L 1831 4666 
z
" transform="scale(0.015625)"/>
      <path id="DejaVuSans-70" d="M 1159 525 
L 1159 -1331 
L 581 -1331 
L 581 3500 
L 1159 3500 
L 1159 2969 
Q 1341 3281 1617 3432 
Q 1894 3584 2278 3584 
Q 2916 3584 3314 3078 
Q 3713 2572 3713 1747 
Q 3713 922 3314 415 
Q 2916 -91 2278 -91 
Q 1894 -91 1617 61 
Q 1341 213 1159 525 
z
M 3116 1747 
Q 3116 2381 2855 2742 
Q 2594 3103 2138 3103 
Q 1681 3103 1420 2742 
Q 1159 2381 1159 1747 
Q 1159 1113 1420 752 
Q 1681 391 2138 391 
Q 2594 391 2855 752 
Q 3116 1113 3116 1747 
z
" transform="scale(0.015625)"/>
      <path id="DejaVuSans-67" d="M 2906 1791 
Q 2906 2416 2648 2759 
Q 2391 3103 1925 3103 
Q 1463 3103 1205 2759 
Q 947 2416 947 1791 
Q 947 1169 1205 825 
Q 1463 481 1925 481 
Q 2391 481 2648 825 
Q 2906 1169 2906 1791 
z
M 3481 434 
Q 3481 -459 3084 -895 
Q 2688 -1331 1869 -1331 
Q 1566 -1331 1297 -1286 
Q 1028 -1241 775 -1147 
L 775 -588 
Q 1028 -725 1275 -790 
Q 1522 -856 1778 -856 
Q 2344 -856 2625 -561 
Q 2906 -266 2906 331 
L 2906 616 
Q 2728 306 2450 153 
Q 2172 0 1784 0 
Q 1141 0 747 490 
Q 353 981 353 1791 
Q 353 2603 747 3093 
Q 1141 3584 1784 3584 
Q 2172 3584 2450 3431 
Q 2728 3278 2906 2969 
L 2906 3500 
L 3481 3500 
L 3481 434 
z
" transform="scale(0.015625)"/>
      <path id="DejaVuSans-3b" d="M 750 3309 
L 1409 3309 
L 1409 2516 
L 750 2516 
L 750 3309 
z
M 750 794 
L 1409 794 
L 1409 256 
L 897 -744 
L 494 -744 
L 750 256 
L 750 794 
z
" transform="scale(0.015625)"/>
      <path id="DejaVuSans-49" d="M 628 4666 
L 1259 4666 
L 1259 0 
L 628 0 
L 628 4666 
z
" transform="scale(0.015625)"/>
      <path id="DejaVuSans-54" d="M -19 4666 
L 3928 4666 
L 3928 4134 
L 2272 4134 
L 2272 0 
L 1638 0 
L 1638 4134 
L -19 4134 
L -19 4666 
z
" transform="scale(0.015625)"/>
      <path id="DejaVuSans-79" d="M 2059 -325 
Q 1816 -950 1584 -1140 
Q 1353 -1331 966 -1331 
L 506 -1331 
L 506 -850 
L 844 -850 
Q 1081 -850 1212 -737 
Q 1344 -625 1503 -206 
L 1606 56 
L 191 3500 
L 800 3500 
L 1894 763 
L 2988 3500 
L 3597 3500 
L 2059 -325 
z
" transform="scale(0.015625)"/>
      <path id="DejaVuSans-48" d="M 628 4666 
L 1259 4666 
L 1259 2753 
L 3553 2753 
L 3553 4666 
L 4184 4666 
L 4184 0 
L 3553 0 
L 3553 2222 
L 1259 2222 
L 1259 0 
L 628 0 
L 628 4666 
z
" transform="scale(0.015625)"/>
     </defs>
     <use xlink:href="#DejaVuSans-4d"/>
     <use xlink:href="#DejaVuSans-31" x="86.279297"/>
     <use xlink:href="#DejaVuSans-3a" x="149.902344"/>
     <use xlink:href="#DejaVuSans-20" x="183.59375"/>
     <use xlink:href="#DejaVuSans-41" x="215.380859"/>
     <use xlink:href="#DejaVuSans-73" x="283.789062"/>
     <use xlink:href="#DejaVuSans-70" x="335.888672"/>
     <use xlink:href="#DejaVuSans-61" x="399.365234"/>
     <use xlink:href="#DejaVuSans-72" x="460.644531"/>
     <use xlink:href="#DejaVuSans-61" x="501.757812"/>
     <use xlink:href="#DejaVuSans-67" x="563.037109"/>
     <use xlink:href="#DejaVuSans-69" x="626.513672"/>
     <use xlink:href="#DejaVuSans-6e" x="654.296875"/>
     <use xlink:href="#DejaVuSans-3b" x="717.675781"/>
     <use xlink:href="#DejaVuSans-20" x="751.367188"/>
     <use xlink:href="#DejaVuSans-49" x="783.154297"/>
     <use xlink:href="#DejaVuSans-73" x="812.646484"/>
     <use xlink:href="#DejaVuSans-6f" x="864.746094"/>
     <use xlink:href="#DejaVuSans-6c" x="925.927734"/>
     <use xlink:href="#DejaVuSans-65" x="953.710938"/>
     <use xlink:href="#DejaVuSans-75" x="1015.234375"/>
     <use xlink:href="#DejaVuSans-63" x="1078.613281"/>
     <use xlink:href="#DejaVuSans-69" x="1133.59375"/>
     <use xlink:href="#DejaVuSans-6e" x="1161.376953"/>
     <use xlink:href="#DejaVuSans-3b" x="1224.755859"/>
     <use xlink:href="#DejaVuSans-20" x="1258.447266"/>
     <use xlink:href="#DejaVuSans-54" x="1290.234375"/>
     <use xlink:href="#DejaVuSans-68" x="1351.318359"/>
     <use xlink:href="#DejaVuSans-72" x="1414.697266"/>
     <use xlink:href="#DejaVuSans-65" x="1453.560547"/>
     <use xlink:href="#DejaVuSans-6f" x="1515.083984"/>
     <use xlink:href="#DejaVuSans-6e" x="1576.265625"/>
     <use xlink:href="#DejaVuSans-69" x="1639.644531"/>
     <use xlink:href="#DejaVuSans-6e" x="1667.427734"/>
     <use xlink:href="#DejaVuSans-3b" x="1730.806641"/>
     <use xlink:href="#DejaVuSans-20" x="1764.498047"/>
     <use xlink:href="#DejaVuSans-54" x="1796.285156"/>
     <use xlink:href="#DejaVuSans-72" x="1842.619141"/>
     <use xlink:href="#DejaVuSans-79" x="1883.732422"/>
     <use xlink:href="#DejaVuSans-70" x="1942.912109"/>
     <use xlink:href="#DejaVuSans-74" x="2006.388672"/>
     <use xlink:href="#DejaVuSans-6f" x="2045.597656"/>
     <use xlink:href="#DejaVuSans-70" x="2106.779297"/>
     <use xlink:href="#DejaVuSans-68" x="2170.255859"/>
     <use xlink:href="#DejaVuSans-61" x="2233.634766"/>
     <use xlink:href="#DejaVuSans-6e" x="2294.914062"/>
     <use xlink:href="#DejaVuSans-3b" x="2358.292969"/>
     <use xlink:href="#DejaVuSans-20" x="2391.984375"/>
     <use xlink:href="#DejaVuSans-50" x="2423.771484"/>
     <use xlink:href="#DejaVuSans-68" x="2484.074219"/>
     <use xlink:href="#DejaVuSans-65" x="2547.453125"/>
     <use xlink:href="#DejaVuSans-6e" x="2608.976562"/>
     <use xlink:href="#DejaVuSans-79" x="2672.355469"/>
     <use xlink:href="#DejaVuSans-6c" x="2731.535156"/>
     <use xlink:href="#DejaVuSans-61" x="2759.318359"/>
     <use xlink:href="#DejaVuSans-6c" x="2820.597656"/>
     <use xlink:href="#DejaVuSans-61" x="2848.380859"/>
     <use xlink:href="#DejaVuSans-6e" x="2909.660156"/>
     <use xlink:href="#DejaVuSans-69" x="2973.039062"/>
     <use xlink:href="#DejaVuSans-6e" x="3000.822266"/>
     <use xlink:href="#DejaVuSans-3b" x="3064.201172"/>
     <use xlink:href="#DejaVuSans-20" x="3097.892578"/>
     <use xlink:href="#DejaVuSans-4d" x="3129.679688"/>
     <use xlink:href="#DejaVuSans-65" x="3215.958984"/>
     <use xlink:href="#DejaVuSans-74" x="3277.482422"/>
     <use xlink:href="#DejaVuSans-68" x="3316.691406"/>
     <use xlink:href="#DejaVuSans-69" x="3380.070312"/>
     <use xlink:href="#DejaVuSans-6f" x="3407.853516"/>
     <use xlink:href="#DejaVuSans-6e" x="3469.035156"/>
     <use xlink:href="#DejaVuSans-69" x="3532.414062"/>
     <use xlink:href="#DejaVuSans-6e" x="3560.197266"/>
     <use xlink:href="#DejaVuSans-3b" x="3623.576172"/>
     <use xlink:href="#DejaVuSans-20" x="3657.267578"/>
     <use xlink:href="#DejaVuSans-48" x="3689.054688"/>
     <use xlink:href="#DejaVuSans-69" x="3764.25"/>
     <use xlink:href="#DejaVuSans-73" x="3792.033203"/>
     <use xlink:href="#DejaVuSans-74" x="3844.132812"/>
     <use xlink:href="#DejaVuSans-69" x="3883.341797"/>
     <use xlink:href="#DejaVuSans-64" x="3911.125"/>
     <use xlink:href="#DejaVuSans-69" x="3974.601562"/>
     <use xlink:href="#DejaVuSans-6e" x="4002.384766"/>
     <use xlink:href="#DejaVuSans-3b" x="4065.763672"/>
     <use xlink:href="#DejaVuSans-20" x="4099.455078"/>
     <use xlink:href="#DejaVuSans-41" x="4131.242188"/>
     <use xlink:href="#DejaVuSans-72" x="4199.650391"/>
     <use xlink:href="#DejaVuSans-67" x="4239.013672"/>
     <use xlink:href="#DejaVuSans-69" x="4302.490234"/>
     <use xlink:href="#DejaVuSans-6e" x="4330.273438"/>
     <use xlink:href="#DejaVuSans-69" x="4393.652344"/>
     <use xlink:href="#DejaVuSans-6e" x="4421.435547"/>
    </g>
   </g>
  </g>
 </g>
 <defs>
  <clipPath id="p02cfb62532">
   <rect x="72" y="51.84" width="446.4" height="332.64"/>
  </clipPath>
 </defs>
</svg>
