<?xml version="1.0" encoding="utf-8" standalone="no"?>
<!DOCTYPE svg PUBLIC "-//W3C//DTD SVG 1.1//EN"
  "http://www.w3.org/Graphics/SVG/1.1/DTD/svg11.dtd">
<svg xmlns:xlink="http://www.w3.org/1999/xlink" width="576pt" height="432pt" viewBox="0 0 576 432" xmlns="http://www.w3.org/2000/svg" version="1.1">
 <metadata>
  <rdf:RDF xmlns:dc="http://purl.org/dc/elements/1.1/" xmlns:cc="http://creativecommons.org/ns#" xmlns:rdf="http://www.w3.org/1999/02/22-rdf-syntax-ns#">
   <cc:Work>
    <dc:type rdf:resource="http://purl.org/dc/dcmitype/StillImage"/>
    <dc:date>2024-11-12T14:09:01.186946</dc:date>
    <dc:format>image/svg+xml</dc:format>
    <dc:creator>
     <cc:Agent>
      <dc:title>Matplotlib v3.7.5, https://matplotlib.org/</dc:title>
     </cc:Agent>
    </dc:creator>
   </cc:Work>
  </rdf:RDF>
 </metadata>
 <defs>
  <style type="text/css">*{stroke-linejoin: round; stroke-linecap: butt}</style>
 </defs>
 <g id="figure_1">
  <g id="patch_1">
   <path d="M 0 432 
L 576 432 
L 576 0 
L 0 0 
z
" style="fill: #ffffff"/>
  </g>
  <g id="axes_1">
   <g id="patch_2">
    <path d="M 72 384.48 
L 518.4 384.48 
L 518.4 51.84 
L 72 51.84 
z
" style="fill: #ffffff"/>
   </g>
   <g id="matplotlib.axis_1">
    <g id="xtick_1">
     <g id="line2d_1">
      <path d="M 92.290909 384.48 
L 92.290909 51.84 
" clip-path="url(#pafec3b6e1d)" style="fill: none; stroke: #b0b0b0; stroke-width: 0.8; stroke-linecap: square"/>
     </g>
     <g id="line2d_2">
      <defs>
       <path id="mdafaf05f1f" d="M 0 0 
L 0 3.5 
" style="stroke: #000000; stroke-width: 0.8"/>
      </defs>
      <g>
       <use xlink:href="#mdafaf05f1f" x="92.290909" y="384.48" style="stroke: #000000; stroke-width: 0.8"/>
      </g>
     </g>
     <g id="text_1">
      <!-- 0.17 -->
      <g transform="translate(81.158097 399.078438) scale(0.1 -0.1)">
       <defs>
        <path id="DejaVuSans-30" d="M 2034 4250 
Q 1547 4250 1301 3770 
Q 1056 3291 1056 2328 
Q 1056 1369 1301 889 
Q 1547 409 2034 409 
Q 2525 409 2770 889 
Q 3016 1369 3016 2328 
Q 3016 3291 2770 3770 
Q 2525 4250 2034 4250 
z
M 2034 4750 
Q 2819 4750 3233 4129 
Q 3647 3509 3647 2328 
Q 3647 1150 3233 529 
Q 2819 -91 2034 -91 
Q 1250 -91 836 529 
Q 422 1150 422 2328 
Q 422 3509 836 4129 
Q 1250 4750 2034 4750 
z
" transform="scale(0.015625)"/>
        <path id="DejaVuSans-2e" d="M 684 794 
L 1344 794 
L 1344 0 
L 684 0 
L 684 794 
z
" transform="scale(0.015625)"/>
        <path id="DejaVuSans-31" d="M 794 531 
L 1825 531 
L 1825 4091 
L 703 3866 
L 703 4441 
L 1819 4666 
L 2450 4666 
L 2450 531 
L 3481 531 
L 3481 0 
L 794 0 
L 794 531 
z
" transform="scale(0.015625)"/>
        <path id="DejaVuSans-37" d="M 525 4666 
L 3525 4666 
L 3525 4397 
L 1831 0 
L 1172 0 
L 2766 4134 
L 525 4134 
L 525 4666 
z
" transform="scale(0.015625)"/>
       </defs>
       <use xlink:href="#DejaVuSans-30"/>
       <use xlink:href="#DejaVuSans-2e" x="63.623047"/>
       <use xlink:href="#DejaVuSans-31" x="95.410156"/>
       <use xlink:href="#DejaVuSans-37" x="159.033203"/>
      </g>
     </g>
    </g>
    <g id="xtick_2">
     <g id="line2d_3">
      <path d="M 156.451886 384.48 
L 156.451886 51.84 
" clip-path="url(#pafec3b6e1d)" style="fill: none; stroke: #b0b0b0; stroke-width: 0.8; stroke-linecap: square"/>
     </g>
     <g id="line2d_4">
      <g>
       <use xlink:href="#mdafaf05f1f" x="156.451886" y="384.48" style="stroke: #000000; stroke-width: 0.8"/>
      </g>
     </g>
     <g id="text_2">
      <!-- 6.83 -->
      <g transform="translate(145.319074 399.078438) scale(0.1 -0.1)">
       <defs>
        <path id="DejaVuSans-36" d="M 2113 2584 
Q 1688 2584 1439 2293 
Q 1191 2003 1191 1497 
Q 1191 994 1439 701 
Q 1688 409 2113 409 
Q 2538 409 2786 701 
Q 3034 994 3034 1497 
Q 3034 2003 2786 2293 
Q 2538 2584 2113 2584 
z
M 3366 4563 
L 3366 3988 
Q 3128 4100 2886 4159 
Q 2644 4219 2406 4219 
Q 1781 4219 1451 3797 
Q 1122 3375 1075 2522 
Q 1259 2794 1537 2939 
Q 1816 3084 2150 3084 
Q 2853 3084 3261 2657 
Q 3669 2231 3669 1497 
Q 3669 778 3244 343 
Q 2819 -91 2113 -91 
Q 1303 -91 875 529 
Q 447 1150 447 2328 
Q 447 3434 972 4092 
Q 1497 4750 2381 4750 
Q 2619 4750 2861 4703 
Q 3103 4656 3366 4563 
z
" transform="scale(0.015625)"/>
        <path id="DejaVuSans-38" d="M 2034 2216 
Q 1584 2216 1326 1975 
Q 1069 1734 1069 1313 
Q 1069 891 1326 650 
Q 1584 409 2034 409 
Q 2484 409 2743 651 
Q 3003 894 3003 1313 
Q 3003 1734 2745 1975 
Q 2488 2216 2034 2216 
z
M 1403 2484 
Q 997 2584 770 2862 
Q 544 3141 544 3541 
Q 544 4100 942 4425 
Q 1341 4750 2034 4750 
Q 2731 4750 3128 4425 
Q 3525 4100 3525 3541 
Q 3525 3141 3298 2862 
Q 3072 2584 2669 2484 
Q 3125 2378 3379 2068 
Q 3634 1759 3634 1313 
Q 3634 634 3220 271 
Q 2806 -91 2034 -91 
Q 1263 -91 848 271 
Q 434 634 434 1313 
Q 434 1759 690 2068 
Q 947 2378 1403 2484 
z
M 1172 3481 
Q 1172 3119 1398 2916 
Q 1625 2713 2034 2713 
Q 2441 2713 2670 2916 
Q 2900 3119 2900 3481 
Q 2900 3844 2670 4047 
Q 2441 4250 2034 4250 
Q 1625 4250 1398 4047 
Q 1172 3844 1172 3481 
z
" transform="scale(0.015625)"/>
        <path id="DejaVuSans-33" d="M 2597 2516 
Q 3050 2419 3304 2112 
Q 3559 1806 3559 1356 
Q 3559 666 3084 287 
Q 2609 -91 1734 -91 
Q 1441 -91 1130 -33 
Q 819 25 488 141 
L 488 750 
Q 750 597 1062 519 
Q 1375 441 1716 441 
Q 2309 441 2620 675 
Q 2931 909 2931 1356 
Q 2931 1769 2642 2001 
Q 2353 2234 1838 2234 
L 1294 2234 
L 1294 2753 
L 1863 2753 
Q 2328 2753 2575 2939 
Q 2822 3125 2822 3475 
Q 2822 3834 2567 4026 
Q 2313 4219 1838 4219 
Q 1578 4219 1281 4162 
Q 984 4106 628 3988 
L 628 4550 
Q 988 4650 1302 4700 
Q 1616 4750 1894 4750 
Q 2613 4750 3031 4423 
Q 3450 4097 3450 3541 
Q 3450 3153 3228 2886 
Q 3006 2619 2597 2516 
z
" transform="scale(0.015625)"/>
       </defs>
       <use xlink:href="#DejaVuSans-36"/>
       <use xlink:href="#DejaVuSans-2e" x="63.623047"/>
       <use xlink:href="#DejaVuSans-38" x="95.410156"/>
       <use xlink:href="#DejaVuSans-33" x="159.033203"/>
      </g>
     </g>
    </g>
    <g id="xtick_3">
     <g id="line2d_5">
      <path d="M 220.612864 384.48 
L 220.612864 51.84 
" clip-path="url(#pafec3b6e1d)" style="fill: none; stroke: #b0b0b0; stroke-width: 0.8; stroke-linecap: square"/>
     </g>
     <g id="line2d_6">
      <g>
       <use xlink:href="#mdafaf05f1f" x="220.612864" y="384.48" style="stroke: #000000; stroke-width: 0.8"/>
      </g>
     </g>
     <g id="text_3">
      <!-- 13.5 -->
      <g transform="translate(209.480051 399.078438) scale(0.1 -0.1)">
       <defs>
        <path id="DejaVuSans-35" d="M 691 4666 
L 3169 4666 
L 3169 4134 
L 1269 4134 
L 1269 2991 
Q 1406 3038 1543 3061 
Q 1681 3084 1819 3084 
Q 2600 3084 3056 2656 
Q 3513 2228 3513 1497 
Q 3513 744 3044 326 
Q 2575 -91 1722 -91 
Q 1428 -91 1123 -41 
Q 819 9 494 109 
L 494 744 
Q 775 591 1075 516 
Q 1375 441 1709 441 
Q 2250 441 2565 725 
Q 2881 1009 2881 1497 
Q 2881 1984 2565 2268 
Q 2250 2553 1709 2553 
Q 1456 2553 1204 2497 
Q 953 2441 691 2322 
L 691 4666 
z
" transform="scale(0.015625)"/>
       </defs>
       <use xlink:href="#DejaVuSans-31"/>
       <use xlink:href="#DejaVuSans-33" x="63.623047"/>
       <use xlink:href="#DejaVuSans-2e" x="127.246094"/>
       <use xlink:href="#DejaVuSans-35" x="159.033203"/>
      </g>
     </g>
    </g>
    <g id="xtick_4">
     <g id="line2d_7">
      <path d="M 284.773841 384.48 
L 284.773841 51.84 
" clip-path="url(#pafec3b6e1d)" style="fill: none; stroke: #b0b0b0; stroke-width: 0.8; stroke-linecap: square"/>
     </g>
     <g id="line2d_8">
      <g>
       <use xlink:href="#mdafaf05f1f" x="284.773841" y="384.48" style="stroke: #000000; stroke-width: 0.8"/>
      </g>
     </g>
     <g id="text_4">
      <!-- 20.17 -->
      <g transform="translate(270.459779 399.078438) scale(0.1 -0.1)">
       <defs>
        <path id="DejaVuSans-32" d="M 1228 531 
L 3431 531 
L 3431 0 
L 469 0 
L 469 531 
Q 828 903 1448 1529 
Q 2069 2156 2228 2338 
Q 2531 2678 2651 2914 
Q 2772 3150 2772 3378 
Q 2772 3750 2511 3984 
Q 2250 4219 1831 4219 
Q 1534 4219 1204 4116 
Q 875 4013 500 3803 
L 500 4441 
Q 881 4594 1212 4672 
Q 1544 4750 1819 4750 
Q 2544 4750 2975 4387 
Q 3406 4025 3406 3419 
Q 3406 3131 3298 2873 
Q 3191 2616 2906 2266 
Q 2828 2175 2409 1742 
Q 1991 1309 1228 531 
z
" transform="scale(0.015625)"/>
       </defs>
       <use xlink:href="#DejaVuSans-32"/>
       <use xlink:href="#DejaVuSans-30" x="63.623047"/>
       <use xlink:href="#DejaVuSans-2e" x="127.246094"/>
       <use xlink:href="#DejaVuSans-31" x="159.033203"/>
       <use xlink:href="#DejaVuSans-37" x="222.65625"/>
      </g>
     </g>
    </g>
    <g id="xtick_5">
     <g id="line2d_9">
      <path d="M 348.934819 384.48 
L 348.934819 51.84 
" clip-path="url(#pafec3b6e1d)" style="fill: none; stroke: #b0b0b0; stroke-width: 0.8; stroke-linecap: square"/>
     </g>
     <g id="line2d_10">
      <g>
       <use xlink:href="#mdafaf05f1f" x="348.934819" y="384.48" style="stroke: #000000; stroke-width: 0.8"/>
      </g>
     </g>
     <g id="text_5">
      <!-- 26.83 -->
      <g transform="translate(334.620756 399.078438) scale(0.1 -0.1)">
       <use xlink:href="#DejaVuSans-32"/>
       <use xlink:href="#DejaVuSans-36" x="63.623047"/>
       <use xlink:href="#DejaVuSans-2e" x="127.246094"/>
       <use xlink:href="#DejaVuSans-38" x="159.033203"/>
       <use xlink:href="#DejaVuSans-33" x="222.65625"/>
      </g>
     </g>
    </g>
    <g id="xtick_6">
     <g id="line2d_11">
      <path d="M 413.095796 384.48 
L 413.095796 51.84 
" clip-path="url(#pafec3b6e1d)" style="fill: none; stroke: #b0b0b0; stroke-width: 0.8; stroke-linecap: square"/>
     </g>
     <g id="line2d_12">
      <g>
       <use xlink:href="#mdafaf05f1f" x="413.095796" y="384.48" style="stroke: #000000; stroke-width: 0.8"/>
      </g>
     </g>
     <g id="text_6">
      <!-- 33.5 -->
      <g transform="translate(401.962983 399.078438) scale(0.1 -0.1)">
       <use xlink:href="#DejaVuSans-33"/>
       <use xlink:href="#DejaVuSans-33" x="63.623047"/>
       <use xlink:href="#DejaVuSans-2e" x="127.246094"/>
       <use xlink:href="#DejaVuSans-35" x="159.033203"/>
      </g>
     </g>
    </g>
    <g id="xtick_7">
     <g id="line2d_13">
      <path d="M 477.256773 384.48 
L 477.256773 51.84 
" clip-path="url(#pafec3b6e1d)" style="fill: none; stroke: #b0b0b0; stroke-width: 0.8; stroke-linecap: square"/>
     </g>
     <g id="line2d_14">
      <g>
       <use xlink:href="#mdafaf05f1f" x="477.256773" y="384.48" style="stroke: #000000; stroke-width: 0.8"/>
      </g>
     </g>
     <g id="text_7">
      <!-- 40.17 -->
      <g transform="translate(462.942711 399.078438) scale(0.1 -0.1)">
       <defs>
        <path id="DejaVuSans-34" d="M 2419 4116 
L 825 1625 
L 2419 1625 
L 2419 4116 
z
M 2253 4666 
L 3047 4666 
L 3047 1625 
L 3713 1625 
L 3713 1100 
L 3047 1100 
L 3047 0 
L 2419 0 
L 2419 1100 
L 313 1100 
L 313 1709 
L 2253 4666 
z
" transform="scale(0.015625)"/>
       </defs>
       <use xlink:href="#DejaVuSans-34"/>
       <use xlink:href="#DejaVuSans-30" x="63.623047"/>
       <use xlink:href="#DejaVuSans-2e" x="127.246094"/>
       <use xlink:href="#DejaVuSans-31" x="159.033203"/>
       <use xlink:href="#DejaVuSans-37" x="222.65625"/>
      </g>
     </g>
    </g>
    <g id="text_8">
     <!-- time in hours [h] -->
     <g transform="translate(253.451562 412.756563) scale(0.1 -0.1)">
      <defs>
       <path id="DejaVuSans-74" d="M 1172 4494 
L 1172 3500 
L 2356 3500 
L 2356 3053 
L 1172 3053 
L 1172 1153 
Q 1172 725 1289 603 
Q 1406 481 1766 481 
L 2356 481 
L 2356 0 
L 1766 0 
Q 1100 0 847 248 
Q 594 497 594 1153 
L 594 3053 
L 172 3053 
L 172 3500 
L 594 3500 
L 594 4494 
L 1172 4494 
z
" transform="scale(0.015625)"/>
       <path id="DejaVuSans-69" d="M 603 3500 
L 1178 3500 
L 1178 0 
L 603 0 
L 603 3500 
z
M 603 4863 
L 1178 4863 
L 1178 4134 
L 603 4134 
L 603 4863 
z
" transform="scale(0.015625)"/>
       <path id="DejaVuSans-6d" d="M 3328 2828 
Q 3544 3216 3844 3400 
Q 4144 3584 4550 3584 
Q 5097 3584 5394 3201 
Q 5691 2819 5691 2113 
L 5691 0 
L 5113 0 
L 5113 2094 
Q 5113 2597 4934 2840 
Q 4756 3084 4391 3084 
Q 3944 3084 3684 2787 
Q 3425 2491 3425 1978 
L 3425 0 
L 2847 0 
L 2847 2094 
Q 2847 2600 2669 2842 
Q 2491 3084 2119 3084 
Q 1678 3084 1418 2786 
Q 1159 2488 1159 1978 
L 1159 0 
L 581 0 
L 581 3500 
L 1159 3500 
L 1159 2956 
Q 1356 3278 1631 3431 
Q 1906 3584 2284 3584 
Q 2666 3584 2933 3390 
Q 3200 3197 3328 2828 
z
" transform="scale(0.015625)"/>
       <path id="DejaVuSans-65" d="M 3597 1894 
L 3597 1613 
L 953 1613 
Q 991 1019 1311 708 
Q 1631 397 2203 397 
Q 2534 397 2845 478 
Q 3156 559 3463 722 
L 3463 178 
Q 3153 47 2828 -22 
Q 2503 -91 2169 -91 
Q 1331 -91 842 396 
Q 353 884 353 1716 
Q 353 2575 817 3079 
Q 1281 3584 2069 3584 
Q 2775 3584 3186 3129 
Q 3597 2675 3597 1894 
z
M 3022 2063 
Q 3016 2534 2758 2815 
Q 2500 3097 2075 3097 
Q 1594 3097 1305 2825 
Q 1016 2553 972 2059 
L 3022 2063 
z
" transform="scale(0.015625)"/>
       <path id="DejaVuSans-20" transform="scale(0.015625)"/>
       <path id="DejaVuSans-6e" d="M 3513 2113 
L 3513 0 
L 2938 0 
L 2938 2094 
Q 2938 2591 2744 2837 
Q 2550 3084 2163 3084 
Q 1697 3084 1428 2787 
Q 1159 2491 1159 1978 
L 1159 0 
L 581 0 
L 581 3500 
L 1159 3500 
L 1159 2956 
Q 1366 3272 1645 3428 
Q 1925 3584 2291 3584 
Q 2894 3584 3203 3211 
Q 3513 2838 3513 2113 
z
" transform="scale(0.015625)"/>
       <path id="DejaVuSans-68" d="M 3513 2113 
L 3513 0 
L 2938 0 
L 2938 2094 
Q 2938 2591 2744 2837 
Q 2550 3084 2163 3084 
Q 1697 3084 1428 2787 
Q 1159 2491 1159 1978 
L 1159 0 
L 581 0 
L 581 4863 
L 1159 4863 
L 1159 2956 
Q 1366 3272 1645 3428 
Q 1925 3584 2291 3584 
Q 2894 3584 3203 3211 
Q 3513 2838 3513 2113 
z
" transform="scale(0.015625)"/>
       <path id="DejaVuSans-6f" d="M 1959 3097 
Q 1497 3097 1228 2736 
Q 959 2375 959 1747 
Q 959 1119 1226 758 
Q 1494 397 1959 397 
Q 2419 397 2687 759 
Q 2956 1122 2956 1747 
Q 2956 2369 2687 2733 
Q 2419 3097 1959 3097 
z
M 1959 3584 
Q 2709 3584 3137 3096 
Q 3566 2609 3566 1747 
Q 3566 888 3137 398 
Q 2709 -91 1959 -91 
Q 1206 -91 779 398 
Q 353 888 353 1747 
Q 353 2609 779 3096 
Q 1206 3584 1959 3584 
z
" transform="scale(0.015625)"/>
       <path id="DejaVuSans-75" d="M 544 1381 
L 544 3500 
L 1119 3500 
L 1119 1403 
Q 1119 906 1312 657 
Q 1506 409 1894 409 
Q 2359 409 2629 706 
Q 2900 1003 2900 1516 
L 2900 3500 
L 3475 3500 
L 3475 0 
L 2900 0 
L 2900 538 
Q 2691 219 2414 64 
Q 2138 -91 1772 -91 
Q 1169 -91 856 284 
Q 544 659 544 1381 
z
M 1991 3584 
L 1991 3584 
z
" transform="scale(0.015625)"/>
       <path id="DejaVuSans-72" d="M 2631 2963 
Q 2534 3019 2420 3045 
Q 2306 3072 2169 3072 
Q 1681 3072 1420 2755 
Q 1159 2438 1159 1844 
L 1159 0 
L 581 0 
L 581 3500 
L 1159 3500 
L 1159 2956 
Q 1341 3275 1631 3429 
Q 1922 3584 2338 3584 
Q 2397 3584 2469 3576 
Q 2541 3569 2628 3553 
L 2631 2963 
z
" transform="scale(0.015625)"/>
       <path id="DejaVuSans-73" d="M 2834 3397 
L 2834 2853 
Q 2591 2978 2328 3040 
Q 2066 3103 1784 3103 
Q 1356 3103 1142 2972 
Q 928 2841 928 2578 
Q 928 2378 1081 2264 
Q 1234 2150 1697 2047 
L 1894 2003 
Q 2506 1872 2764 1633 
Q 3022 1394 3022 966 
Q 3022 478 2636 193 
Q 2250 -91 1575 -91 
Q 1294 -91 989 -36 
Q 684 19 347 128 
L 347 722 
Q 666 556 975 473 
Q 1284 391 1588 391 
Q 1994 391 2212 530 
Q 2431 669 2431 922 
Q 2431 1156 2273 1281 
Q 2116 1406 1581 1522 
L 1381 1569 
Q 847 1681 609 1914 
Q 372 2147 372 2553 
Q 372 3047 722 3315 
Q 1072 3584 1716 3584 
Q 2034 3584 2315 3537 
Q 2597 3491 2834 3397 
z
" transform="scale(0.015625)"/>
       <path id="DejaVuSans-5b" d="M 550 4863 
L 1875 4863 
L 1875 4416 
L 1125 4416 
L 1125 -397 
L 1875 -397 
L 1875 -844 
L 550 -844 
L 550 4863 
z
" transform="scale(0.015625)"/>
       <path id="DejaVuSans-5d" d="M 1947 4863 
L 1947 -844 
L 622 -844 
L 622 -397 
L 1369 -397 
L 1369 4416 
L 622 4416 
L 622 4863 
L 1947 4863 
z
" transform="scale(0.015625)"/>
      </defs>
      <use xlink:href="#DejaVuSans-74"/>
      <use xlink:href="#DejaVuSans-69" x="39.208984"/>
      <use xlink:href="#DejaVuSans-6d" x="66.992188"/>
      <use xlink:href="#DejaVuSans-65" x="164.404297"/>
      <use xlink:href="#DejaVuSans-20" x="225.927734"/>
      <use xlink:href="#DejaVuSans-69" x="257.714844"/>
      <use xlink:href="#DejaVuSans-6e" x="285.498047"/>
      <use xlink:href="#DejaVuSans-20" x="348.876953"/>
      <use xlink:href="#DejaVuSans-68" x="380.664062"/>
      <use xlink:href="#DejaVuSans-6f" x="444.042969"/>
      <use xlink:href="#DejaVuSans-75" x="505.224609"/>
      <use xlink:href="#DejaVuSans-72" x="568.603516"/>
      <use xlink:href="#DejaVuSans-73" x="609.716797"/>
      <use xlink:href="#DejaVuSans-20" x="661.816406"/>
      <use xlink:href="#DejaVuSans-5b" x="693.603516"/>
      <use xlink:href="#DejaVuSans-68" x="732.617188"/>
      <use xlink:href="#DejaVuSans-5d" x="795.996094"/>
     </g>
    </g>
   </g>
   <g id="matplotlib.axis_2">
    <g id="ytick_1">
     <g id="line2d_15">
      <path d="M 72 365.55906 
L 518.4 365.55906 
" clip-path="url(#pafec3b6e1d)" style="fill: none; stroke: #b0b0b0; stroke-width: 0.8; stroke-linecap: square"/>
     </g>
     <g id="line2d_16">
      <defs>
       <path id="m3902e5d772" d="M 0 0 
L -3.5 0 
" style="stroke: #000000; stroke-width: 0.8"/>
      </defs>
      <g>
       <use xlink:href="#m3902e5d772" x="72" y="365.55906" style="stroke: #000000; stroke-width: 0.8"/>
      </g>
     </g>
     <g id="text_9">
      <!-- 20000 -->
      <g transform="translate(33.1875 369.358279) scale(0.1 -0.1)">
       <use xlink:href="#DejaVuSans-32"/>
       <use xlink:href="#DejaVuSans-30" x="63.623047"/>
       <use xlink:href="#DejaVuSans-30" x="127.246094"/>
       <use xlink:href="#DejaVuSans-30" x="190.869141"/>
       <use xlink:href="#DejaVuSans-30" x="254.492188"/>
      </g>
     </g>
    </g>
    <g id="ytick_2">
     <g id="line2d_17">
      <path d="M 72 317.128955 
L 518.4 317.128955 
" clip-path="url(#pafec3b6e1d)" style="fill: none; stroke: #b0b0b0; stroke-width: 0.8; stroke-linecap: square"/>
     </g>
     <g id="line2d_18">
      <g>
       <use xlink:href="#m3902e5d772" x="72" y="317.128955" style="stroke: #000000; stroke-width: 0.8"/>
      </g>
     </g>
     <g id="text_10">
      <!-- 40000 -->
      <g transform="translate(33.1875 320.928173) scale(0.1 -0.1)">
       <use xlink:href="#DejaVuSans-34"/>
       <use xlink:href="#DejaVuSans-30" x="63.623047"/>
       <use xlink:href="#DejaVuSans-30" x="127.246094"/>
       <use xlink:href="#DejaVuSans-30" x="190.869141"/>
       <use xlink:href="#DejaVuSans-30" x="254.492188"/>
      </g>
     </g>
    </g>
    <g id="ytick_3">
     <g id="line2d_19">
      <path d="M 72 268.698849 
L 518.4 268.698849 
" clip-path="url(#pafec3b6e1d)" style="fill: none; stroke: #b0b0b0; stroke-width: 0.8; stroke-linecap: square"/>
     </g>
     <g id="line2d_20">
      <g>
       <use xlink:href="#m3902e5d772" x="72" y="268.698849" style="stroke: #000000; stroke-width: 0.8"/>
      </g>
     </g>
     <g id="text_11">
      <!-- 60000 -->
      <g transform="translate(33.1875 272.498068) scale(0.1 -0.1)">
       <use xlink:href="#DejaVuSans-36"/>
       <use xlink:href="#DejaVuSans-30" x="63.623047"/>
       <use xlink:href="#DejaVuSans-30" x="127.246094"/>
       <use xlink:href="#DejaVuSans-30" x="190.869141"/>
       <use xlink:href="#DejaVuSans-30" x="254.492188"/>
      </g>
     </g>
    </g>
    <g id="ytick_4">
     <g id="line2d_21">
      <path d="M 72 220.268744 
L 518.4 220.268744 
" clip-path="url(#pafec3b6e1d)" style="fill: none; stroke: #b0b0b0; stroke-width: 0.8; stroke-linecap: square"/>
     </g>
     <g id="line2d_22">
      <g>
       <use xlink:href="#m3902e5d772" x="72" y="220.268744" style="stroke: #000000; stroke-width: 0.8"/>
      </g>
     </g>
     <g id="text_12">
      <!-- 80000 -->
      <g transform="translate(33.1875 224.067962) scale(0.1 -0.1)">
       <use xlink:href="#DejaVuSans-38"/>
       <use xlink:href="#DejaVuSans-30" x="63.623047"/>
       <use xlink:href="#DejaVuSans-30" x="127.246094"/>
       <use xlink:href="#DejaVuSans-30" x="190.869141"/>
       <use xlink:href="#DejaVuSans-30" x="254.492188"/>
      </g>
     </g>
    </g>
    <g id="ytick_5">
     <g id="line2d_23">
      <path d="M 72 171.838638 
L 518.4 171.838638 
" clip-path="url(#pafec3b6e1d)" style="fill: none; stroke: #b0b0b0; stroke-width: 0.8; stroke-linecap: square"/>
     </g>
     <g id="line2d_24">
      <g>
       <use xlink:href="#m3902e5d772" x="72" y="171.838638" style="stroke: #000000; stroke-width: 0.8"/>
      </g>
     </g>
     <g id="text_13">
      <!-- 100000 -->
      <g transform="translate(26.825 175.637857) scale(0.1 -0.1)">
       <use xlink:href="#DejaVuSans-31"/>
       <use xlink:href="#DejaVuSans-30" x="63.623047"/>
       <use xlink:href="#DejaVuSans-30" x="127.246094"/>
       <use xlink:href="#DejaVuSans-30" x="190.869141"/>
       <use xlink:href="#DejaVuSans-30" x="254.492188"/>
       <use xlink:href="#DejaVuSans-30" x="318.115234"/>
      </g>
     </g>
    </g>
    <g id="ytick_6">
     <g id="line2d_25">
      <path d="M 72 123.408533 
L 518.4 123.408533 
" clip-path="url(#pafec3b6e1d)" style="fill: none; stroke: #b0b0b0; stroke-width: 0.8; stroke-linecap: square"/>
     </g>
     <g id="line2d_26">
      <g>
       <use xlink:href="#m3902e5d772" x="72" y="123.408533" style="stroke: #000000; stroke-width: 0.8"/>
      </g>
     </g>
     <g id="text_14">
      <!-- 120000 -->
      <g transform="translate(26.825 127.207751) scale(0.1 -0.1)">
       <use xlink:href="#DejaVuSans-31"/>
       <use xlink:href="#DejaVuSans-32" x="63.623047"/>
       <use xlink:href="#DejaVuSans-30" x="127.246094"/>
       <use xlink:href="#DejaVuSans-30" x="190.869141"/>
       <use xlink:href="#DejaVuSans-30" x="254.492188"/>
       <use xlink:href="#DejaVuSans-30" x="318.115234"/>
      </g>
     </g>
    </g>
    <g id="ytick_7">
     <g id="line2d_27">
      <path d="M 72 74.978427 
L 518.4 74.978427 
" clip-path="url(#pafec3b6e1d)" style="fill: none; stroke: #b0b0b0; stroke-width: 0.8; stroke-linecap: square"/>
     </g>
     <g id="line2d_28">
      <g>
       <use xlink:href="#m3902e5d772" x="72" y="74.978427" style="stroke: #000000; stroke-width: 0.8"/>
      </g>
     </g>
     <g id="text_15">
      <!-- 140000 -->
      <g transform="translate(26.825 78.777646) scale(0.1 -0.1)">
       <use xlink:href="#DejaVuSans-31"/>
       <use xlink:href="#DejaVuSans-34" x="63.623047"/>
       <use xlink:href="#DejaVuSans-30" x="127.246094"/>
       <use xlink:href="#DejaVuSans-30" x="190.869141"/>
       <use xlink:href="#DejaVuSans-30" x="254.492188"/>
       <use xlink:href="#DejaVuSans-30" x="318.115234"/>
      </g>
     </g>
    </g>
    <g id="text_16">
     <!-- blank corrected GFP RFU -->
     <g transform="translate(20.745312 280.149062) rotate(-90) scale(0.1 -0.1)">
      <defs>
       <path id="DejaVuSans-62" d="M 3116 1747 
Q 3116 2381 2855 2742 
Q 2594 3103 2138 3103 
Q 1681 3103 1420 2742 
Q 1159 2381 1159 1747 
Q 1159 1113 1420 752 
Q 1681 391 2138 391 
Q 2594 391 2855 752 
Q 3116 1113 3116 1747 
z
M 1159 2969 
Q 1341 3281 1617 3432 
Q 1894 3584 2278 3584 
Q 2916 3584 3314 3078 
Q 3713 2572 3713 1747 
Q 3713 922 3314 415 
Q 2916 -91 2278 -91 
Q 1894 -91 1617 61 
Q 1341 213 1159 525 
L 1159 0 
L 581 0 
L 581 4863 
L 1159 4863 
L 1159 2969 
z
" transform="scale(0.015625)"/>
       <path id="DejaVuSans-6c" d="M 603 4863 
L 1178 4863 
L 1178 0 
L 603 0 
L 603 4863 
z
" transform="scale(0.015625)"/>
       <path id="DejaVuSans-61" d="M 2194 1759 
Q 1497 1759 1228 1600 
Q 959 1441 959 1056 
Q 959 750 1161 570 
Q 1363 391 1709 391 
Q 2188 391 2477 730 
Q 2766 1069 2766 1631 
L 2766 1759 
L 2194 1759 
z
M 3341 1997 
L 3341 0 
L 2766 0 
L 2766 531 
Q 2569 213 2275 61 
Q 1981 -91 1556 -91 
Q 1019 -91 701 211 
Q 384 513 384 1019 
Q 384 1609 779 1909 
Q 1175 2209 1959 2209 
L 2766 2209 
L 2766 2266 
Q 2766 2663 2505 2880 
Q 2244 3097 1772 3097 
Q 1472 3097 1187 3025 
Q 903 2953 641 2809 
L 641 3341 
Q 956 3463 1253 3523 
Q 1550 3584 1831 3584 
Q 2591 3584 2966 3190 
Q 3341 2797 3341 1997 
z
" transform="scale(0.015625)"/>
       <path id="DejaVuSans-6b" d="M 581 4863 
L 1159 4863 
L 1159 1991 
L 2875 3500 
L 3609 3500 
L 1753 1863 
L 3688 0 
L 2938 0 
L 1159 1709 
L 1159 0 
L 581 0 
L 581 4863 
z
" transform="scale(0.015625)"/>
       <path id="DejaVuSans-63" d="M 3122 3366 
L 3122 2828 
Q 2878 2963 2633 3030 
Q 2388 3097 2138 3097 
Q 1578 3097 1268 2742 
Q 959 2388 959 1747 
Q 959 1106 1268 751 
Q 1578 397 2138 397 
Q 2388 397 2633 464 
Q 2878 531 3122 666 
L 3122 134 
Q 2881 22 2623 -34 
Q 2366 -91 2075 -91 
Q 1284 -91 818 406 
Q 353 903 353 1747 
Q 353 2603 823 3093 
Q 1294 3584 2113 3584 
Q 2378 3584 2631 3529 
Q 2884 3475 3122 3366 
z
" transform="scale(0.015625)"/>
       <path id="DejaVuSans-64" d="M 2906 2969 
L 2906 4863 
L 3481 4863 
L 3481 0 
L 2906 0 
L 2906 525 
Q 2725 213 2448 61 
Q 2172 -91 1784 -91 
Q 1150 -91 751 415 
Q 353 922 353 1747 
Q 353 2572 751 3078 
Q 1150 3584 1784 3584 
Q 2172 3584 2448 3432 
Q 2725 3281 2906 2969 
z
M 947 1747 
Q 947 1113 1208 752 
Q 1469 391 1925 391 
Q 2381 391 2643 752 
Q 2906 1113 2906 1747 
Q 2906 2381 2643 2742 
Q 2381 3103 1925 3103 
Q 1469 3103 1208 2742 
Q 947 2381 947 1747 
z
" transform="scale(0.015625)"/>
       <path id="DejaVuSans-47" d="M 3809 666 
L 3809 1919 
L 2778 1919 
L 2778 2438 
L 4434 2438 
L 4434 434 
Q 4069 175 3628 42 
Q 3188 -91 2688 -91 
Q 1594 -91 976 548 
Q 359 1188 359 2328 
Q 359 3472 976 4111 
Q 1594 4750 2688 4750 
Q 3144 4750 3555 4637 
Q 3966 4525 4313 4306 
L 4313 3634 
Q 3963 3931 3569 4081 
Q 3175 4231 2741 4231 
Q 1884 4231 1454 3753 
Q 1025 3275 1025 2328 
Q 1025 1384 1454 906 
Q 1884 428 2741 428 
Q 3075 428 3337 486 
Q 3600 544 3809 666 
z
" transform="scale(0.015625)"/>
       <path id="DejaVuSans-46" d="M 628 4666 
L 3309 4666 
L 3309 4134 
L 1259 4134 
L 1259 2759 
L 3109 2759 
L 3109 2228 
L 1259 2228 
L 1259 0 
L 628 0 
L 628 4666 
z
" transform="scale(0.015625)"/>
       <path id="DejaVuSans-50" d="M 1259 4147 
L 1259 2394 
L 2053 2394 
Q 2494 2394 2734 2622 
Q 2975 2850 2975 3272 
Q 2975 3691 2734 3919 
Q 2494 4147 2053 4147 
L 1259 4147 
z
M 628 4666 
L 2053 4666 
Q 2838 4666 3239 4311 
Q 3641 3956 3641 3272 
Q 3641 2581 3239 2228 
Q 2838 1875 2053 1875 
L 1259 1875 
L 1259 0 
L 628 0 
L 628 4666 
z
" transform="scale(0.015625)"/>
       <path id="DejaVuSans-52" d="M 2841 2188 
Q 3044 2119 3236 1894 
Q 3428 1669 3622 1275 
L 4263 0 
L 3584 0 
L 2988 1197 
Q 2756 1666 2539 1819 
Q 2322 1972 1947 1972 
L 1259 1972 
L 1259 0 
L 628 0 
L 628 4666 
L 2053 4666 
Q 2853 4666 3247 4331 
Q 3641 3997 3641 3322 
Q 3641 2881 3436 2590 
Q 3231 2300 2841 2188 
z
M 1259 4147 
L 1259 2491 
L 2053 2491 
Q 2509 2491 2742 2702 
Q 2975 2913 2975 3322 
Q 2975 3731 2742 3939 
Q 2509 4147 2053 4147 
L 1259 4147 
z
" transform="scale(0.015625)"/>
       <path id="DejaVuSans-55" d="M 556 4666 
L 1191 4666 
L 1191 1831 
Q 1191 1081 1462 751 
Q 1734 422 2344 422 
Q 2950 422 3222 751 
Q 3494 1081 3494 1831 
L 3494 4666 
L 4128 4666 
L 4128 1753 
Q 4128 841 3676 375 
Q 3225 -91 2344 -91 
Q 1459 -91 1007 375 
Q 556 841 556 1753 
L 556 4666 
z
" transform="scale(0.015625)"/>
      </defs>
      <use xlink:href="#DejaVuSans-62"/>
      <use xlink:href="#DejaVuSans-6c" x="63.476562"/>
      <use xlink:href="#DejaVuSans-61" x="91.259766"/>
      <use xlink:href="#DejaVuSans-6e" x="152.539062"/>
      <use xlink:href="#DejaVuSans-6b" x="215.917969"/>
      <use xlink:href="#DejaVuSans-20" x="273.828125"/>
      <use xlink:href="#DejaVuSans-63" x="305.615234"/>
      <use xlink:href="#DejaVuSans-6f" x="360.595703"/>
      <use xlink:href="#DejaVuSans-72" x="421.777344"/>
      <use xlink:href="#DejaVuSans-72" x="461.140625"/>
      <use xlink:href="#DejaVuSans-65" x="500.003906"/>
      <use xlink:href="#DejaVuSans-63" x="561.527344"/>
      <use xlink:href="#DejaVuSans-74" x="616.507812"/>
      <use xlink:href="#DejaVuSans-65" x="655.716797"/>
      <use xlink:href="#DejaVuSans-64" x="717.240234"/>
      <use xlink:href="#DejaVuSans-20" x="780.716797"/>
      <use xlink:href="#DejaVuSans-47" x="812.503906"/>
      <use xlink:href="#DejaVuSans-46" x="889.994141"/>
      <use xlink:href="#DejaVuSans-50" x="947.513672"/>
      <use xlink:href="#DejaVuSans-20" x="1007.816406"/>
      <use xlink:href="#DejaVuSans-52" x="1039.603516"/>
      <use xlink:href="#DejaVuSans-46" x="1109.085938"/>
      <use xlink:href="#DejaVuSans-55" x="1166.605469"/>
     </g>
    </g>
   </g>
   <g id="line2d_29">
    <path d="M 92.290909 368.510052 
L 93.894934 369.36 
L 95.498958 368.907179 
L 101.915056 367.99185 
L 103.51908 367.618938 
L 105.123105 367.367101 
L 114.747251 363.957622 
L 121.163349 360.473076 
L 122.767373 359.351919 
L 127.579447 356.509072 
L 132.39152 352.16247 
L 137.203593 348.772362 
L 145.223715 341.52964 
L 146.82774 339.350285 
L 148.431764 338.294509 
L 150.035789 336.405735 
L 151.639813 334.337769 
L 153.243838 332.705675 
L 156.451886 328.867589 
L 158.055911 327.642307 
L 159.659935 325.50654 
L 161.26396 323.654088 
L 162.867984 322.288359 
L 164.472009 321.525585 
L 166.076033 321.235004 
L 167.680057 320.79429 
L 169.284082 319.237262 
L 170.888106 318.636729 
L 174.096155 315.423392 
L 175.70018 313.411121 
L 177.304204 311.604678 
L 178.908229 309.560927 
L 180.512253 306.403284 
L 182.116277 303.574966 
L 183.720302 301.134089 
L 186.928351 295.390278 
L 188.532375 292.775053 
L 190.1364 290.409242 
L 191.740424 288.915173 
L 193.344448 287.142631 
L 194.948473 286.246675 
L 196.552497 286.355642 
L 198.156522 285.91735 
L 199.760546 286.043268 
L 201.364571 284.713862 
L 202.968595 283.541853 
L 204.572619 281.933974 
L 206.176644 279.851479 
L 207.780668 277.107914 
L 212.592742 269.727166 
L 214.196766 266.811673 
L 217.404815 261.699876 
L 219.008839 259.302585 
L 220.612864 256.142521 
L 222.216888 253.735545 
L 223.820913 250.359966 
L 225.424937 248.292001 
L 227.028962 244.993911 
L 228.632986 243.574909 
L 230.23701 243.594281 
L 231.841035 243.083343 
L 233.445059 244.061631 
L 236.653108 242.446487 
L 238.257133 240.90641 
L 239.861157 239.138711 
L 241.465181 236.801958 
L 243.069206 234.765472 
L 244.67323 231.811236 
L 246.277255 229.222647 
L 247.881279 225.176312 
L 249.485304 222.263241 
L 252.693352 215.582308 
L 254.297377 211.356781 
L 257.505426 205.116562 
L 259.10945 202.431112 
L 260.713475 201.208252 
L 262.317499 199.677861 
L 267.129572 199.198403 
L 270.337621 199.614902 
L 271.941646 198.009444 
L 273.54567 197.186132 
L 275.149695 195.389375 
L 276.753719 192.749934 
L 278.357743 190.485827 
L 279.961768 189.207272 
L 281.565792 186.548459 
L 283.169817 186.541195 
L 284.773841 184.141483 
L 286.377866 183.824266 
L 287.98189 182.284189 
L 289.585914 183.470726 
L 291.189939 183.872696 
L 292.793963 185.383715 
L 294.397988 187.584864 
L 296.002012 190.001526 
L 297.606037 191.490752 
L 299.210061 193.488494 
L 300.814086 192.64581 
L 302.41811 192.328593 
L 304.022134 192.890382 
L 305.626159 191.902408 
L 307.230183 190.500356 
L 308.834208 190.091122 
L 310.438232 187.948089 
L 312.042257 186.24335 
L 313.646281 185.289277 
L 315.250305 184.521659 
L 316.85433 183.015483 
L 318.458354 181.848318 
L 320.062379 180.920881 
L 321.666403 180.971733 
L 323.270428 180.376042 
L 324.874452 181.456034 
L 326.478476 183.124451 
L 328.082501 185.337707 
L 329.686525 187.800378 
L 331.29055 190.476141 
L 332.894574 190.771565 
L 336.102623 191.783754 
L 337.706648 191.623934 
L 340.914696 189.522068 
L 344.122745 188.870683 
L 345.72677 187.509797 
L 347.330794 187.420201 
L 348.934819 187.626029 
L 350.538843 187.277333 
L 352.142867 187.354821 
L 353.746892 188.967543 
L 355.350916 192.398816 
L 356.954941 194.108399 
L 358.558965 197.161917 
L 360.16299 198.331504 
L 361.767014 200.106467 
L 363.371038 200.651306 
L 364.975063 200.958837 
L 366.579087 200.96368 
L 369.787136 201.564214 
L 372.995185 200.106467 
L 374.599209 200.150055 
L 376.203234 199.779564 
L 377.807258 199.266205 
L 379.411283 198.513117 
L 381.015307 198.631771 
L 382.619332 198.890872 
L 384.223356 198.990154 
L 385.827381 200.183956 
L 387.431405 202.123581 
L 389.035429 203.840429 
L 390.639454 206.489555 
L 395.451527 207.758424 
L 397.055552 207.433942 
L 398.659576 207.874656 
L 400.2636 207.453314 
L 405.075674 207.676093 
L 406.679698 207.743895 
L 408.283723 208.775456 
L 409.887747 207.416992 
L 413.095796 207.588919 
L 414.69982 208.746398 
L 416.303845 210.146028 
L 417.907869 212.361706 
L 419.511894 214.344918 
L 421.115918 215.945533 
L 422.719943 215.136751 
L 427.532016 216.349925 
L 429.13604 215.512084 
L 430.740065 215.519348 
L 432.344089 214.574961 
L 433.948114 214.417564 
L 435.552138 215.819615 
L 437.156162 214.959981 
L 438.760187 214.824376 
L 440.364211 214.424828 
L 441.968236 214.623392 
L 443.57226 215.049576 
L 445.176285 216.102931 
L 446.780309 216.645348 
L 448.384333 218.650355 
L 449.988358 219.880479 
L 451.592382 220.510071 
L 453.196407 221.343069 
L 454.800431 221.611856 
L 456.404456 220.759486 
L 458.00848 220.735271 
L 461.216529 220.265499 
L 462.820553 220.836974 
L 464.424578 219.909538 
L 466.028602 219.602006 
L 469.236651 218.572867 
L 470.840676 218.541387 
L 472.4447 217.812514 
L 474.048724 217.982019 
L 475.652749 217.289469 
L 477.256773 217.851258 
L 478.860798 219.551155 
L 480.464822 219.802991 
L 482.068847 219.631064 
L 483.672871 220.209804 
L 486.88092 219.519675 
L 488.484944 218.739951 
L 490.088969 216.822118 
L 491.692993 217.107856 
L 493.297018 214.836484 
L 496.505066 213.662054 
L 498.109091 213.754071 
L 498.109091 213.754071 
" clip-path="url(#pafec3b6e1d)" style="fill: none; stroke: #008000; stroke-width: 1.5; stroke-linecap: square"/>
   </g>
   <g id="line2d_30">
    <path d="M 92.290909 366.831948 
L 93.894934 368.183148 
L 95.498958 367.432482 
L 98.707007 366.919123 
L 100.311031 366.839213 
L 103.51908 365.926306 
L 105.123105 365.863346 
L 106.727129 364.95286 
L 108.331153 364.766404 
L 109.935178 364.199772 
L 113.143227 362.686331 
L 114.747251 362.33037 
L 116.351276 361.596654 
L 121.163349 358.744121 
L 122.767373 357.547897 
L 124.371398 356.639833 
L 125.975422 356.08773 
L 127.579447 354.453214 
L 129.183471 353.203717 
L 130.787496 352.174577 
L 132.39152 350.520689 
L 135.599569 348.748147 
L 137.203593 348.176672 
L 138.807618 347.469592 
L 142.015667 345.220014 
L 148.431764 338.974952 
L 150.035789 336.819812 
L 151.639813 334.122255 
L 153.243838 332.313391 
L 154.847862 329.703008 
L 156.451886 327.458273 
L 158.055911 325.695417 
L 159.659935 323.591129 
L 161.26396 322.385219 
L 162.867984 320.963796 
L 164.472009 321.438411 
L 166.076033 320.583619 
L 167.680057 320.559404 
L 170.888106 319.484256 
L 174.096155 316.542127 
L 175.70018 315.459714 
L 177.304204 313.42565 
L 178.908229 312.314179 
L 180.512253 310.778944 
L 182.116277 308.822368 
L 183.720302 306.434764 
L 185.324326 304.766347 
L 186.928351 302.66448 
L 188.532375 301.109874 
L 190.1364 298.298506 
L 191.740424 297.150713 
L 193.344448 295.232881 
L 194.948473 294.075401 
L 196.552497 293.31747 
L 198.156522 293.186709 
L 199.760546 292.346446 
L 201.364571 292.099453 
L 202.968595 290.651393 
L 204.572619 288.995083 
L 206.176644 287.651148 
L 207.780668 285.61224 
L 212.592742 280.880619 
L 214.196766 279.03301 
L 215.800791 276.502537 
L 217.404815 274.950352 
L 219.008839 272.923553 
L 220.612864 270.129135 
L 222.216888 269.027351 
L 223.820913 266.571944 
L 225.424937 264.935007 
L 228.632986 261.254319 
L 230.23701 260.968581 
L 231.841035 259.895854 
L 233.445059 259.917648 
L 235.049084 258.815863 
L 236.653108 258.271024 
L 238.257133 256.835071 
L 239.861157 255.018943 
L 241.465181 254.219846 
L 243.069206 252.561115 
L 244.67323 250.209833 
L 246.277255 248.718186 
L 249.485304 243.892126 
L 251.089328 242.102633 
L 252.693352 239.608483 
L 254.297377 237.804462 
L 255.901401 234.95435 
L 257.505426 232.821004 
L 259.10945 231.050883 
L 260.713475 230.762724 
L 262.317499 229.464797 
L 263.921524 229.290449 
L 265.525548 228.128126 
L 267.129572 227.878711 
L 268.733597 226.680066 
L 271.941646 226.588049 
L 273.54567 225.893077 
L 275.149695 224.999542 
L 278.357743 222.854088 
L 279.961768 221.984768 
L 283.169817 221.238944 
L 284.773841 220.028191 
L 286.377866 220.040299 
L 287.98189 219.539047 
L 289.585914 220.088729 
L 291.189939 220.464062 
L 292.793963 221.691765 
L 294.397988 222.171223 
L 296.002012 223.006643 
L 297.606037 224.035783 
L 299.210061 225.679985 
L 300.814086 225.110931 
L 302.41811 225.357924 
L 304.022134 225.827696 
L 307.230183 225.793795 
L 308.834208 225.997202 
L 310.438232 224.977748 
L 312.042257 224.653266 
L 313.646281 223.522423 
L 315.250305 224.210131 
L 316.85433 224.006724 
L 318.458354 223.326281 
L 320.062379 222.849245 
L 321.666403 223.551481 
L 323.270428 223.536952 
L 324.874452 224.055155 
L 326.478476 224.781606 
L 328.082501 226.009309 
L 332.894574 227.895662 
L 334.498599 228.365434 
L 336.102623 229.491434 
L 337.706648 228.488931 
L 339.310672 228.842471 
L 340.914696 229.496277 
L 342.518721 229.072514 
L 344.122745 228.871529 
L 345.72677 228.116019 
L 348.934819 229.346144 
L 350.538843 229.01924 
L 352.142867 229.982999 
L 353.746892 230.014479 
L 355.350916 231.35115 
L 356.954941 231.610251 
L 358.558965 233.976062 
L 360.16299 233.983326 
L 363.371038 236.291021 
L 364.975063 236.811644 
L 366.579087 236.550122 
L 369.787136 237.62527 
L 371.391161 237.693072 
L 372.995185 237.40007 
L 374.599209 238.158001 
L 376.203234 238.099885 
L 377.807258 237.615584 
L 379.411283 237.821412 
L 382.619332 238.615666 
L 384.223356 239.262208 
L 385.827381 239.775567 
L 389.035429 242.218866 
L 390.639454 243.037334 
L 392.243478 243.366659 
L 393.847503 244.051945 
L 397.055552 245.013283 
L 400.2636 245.788164 
L 403.471649 245.916504 
L 406.679698 246.412913 
L 408.283723 246.207085 
L 409.887747 246.531567 
L 411.491771 246.420177 
L 413.095796 247.178108 
L 414.69982 248.086173 
L 416.303845 247.974784 
L 417.907869 249.553605 
L 419.511894 250.110551 
L 421.115918 251.454487 
L 422.719943 251.219601 
L 424.323967 252.173674 
L 425.927991 251.68453 
L 427.532016 252.737885 
L 429.13604 253.643528 
L 430.740065 253.672586 
L 432.344089 253.377162 
L 433.948114 253.612048 
L 435.552138 255.038315 
L 437.156162 254.265854 
L 438.760187 254.694461 
L 440.364211 254.328814 
L 445.176285 255.907635 
L 446.780309 257.02637 
L 448.384333 257.651119 
L 449.988358 258.85945 
L 451.592382 259.370387 
L 453.196407 259.30985 
L 454.800431 260.205807 
L 456.404456 260.610198 
L 458.00848 260.486701 
L 459.612504 260.549661 
L 461.216529 261.326964 
L 462.820553 260.997639 
L 464.424578 261.070284 
L 466.028602 259.85711 
L 467.632627 260.108947 
L 469.236651 259.670654 
L 470.840676 259.024112 
L 472.4447 259.220254 
L 474.048724 258.711738 
L 475.652749 257.9756 
L 477.256773 258.096676 
L 478.860798 258.98779 
L 480.464822 258.534968 
L 482.068847 259.08465 
L 483.672871 259.280792 
L 485.276895 259.341329 
L 486.88092 259.183932 
L 488.484944 259.215411 
L 490.088969 258.752904 
L 491.692993 258.171742 
L 494.901042 257.5252 
L 496.505066 256.481532 
L 498.109091 256.706732 
L 498.109091 256.706732 
" clip-path="url(#pafec3b6e1d)" style="fill: none; stroke: #008000; stroke-width: 1.5; stroke-linecap: square"/>
   </g>
   <g id="line2d_31">
    <path d="M 92.290909 367.955527 
L 93.894934 368.069338 
L 95.498958 367.442168 
L 97.102982 367.488176 
L 98.707007 367.405845 
L 100.311031 367.137058 
L 101.915056 366.730245 
L 103.51908 366.088546 
L 105.123105 366.139398 
L 106.727129 365.207118 
L 109.935178 364.618693 
L 113.143227 363.567759 
L 117.9553 360.732177 
L 119.559324 360.194603 
L 121.163349 359.274431 
L 122.767373 357.932917 
L 127.579447 355.448452 
L 129.183471 353.586315 
L 132.39152 351.164809 
L 135.599569 348.847429 
L 137.203593 347.77228 
L 138.807618 346.251575 
L 140.411642 345.474272 
L 142.015667 343.454737 
L 143.619691 342.248827 
L 145.223715 339.950818 
L 148.431764 336.296767 
L 150.035789 334.700995 
L 151.639813 332.916346 
L 153.243838 331.499765 
L 154.847862 329.89915 
L 156.451886 327.756118 
L 158.055911 326.249942 
L 159.659935 324.315159 
L 161.26396 322.583783 
L 162.867984 320.641735 
L 164.472009 320.946845 
L 169.284082 318.658523 
L 172.492131 316.731004 
L 175.70018 313.384484 
L 177.304204 311.396428 
L 178.908229 309.732854 
L 180.512253 307.744798 
L 182.116277 304.94796 
L 183.720302 301.737044 
L 185.324326 297.923173 
L 186.928351 295.230459 
L 188.532375 291.959005 
L 191.740424 286.59295 
L 194.948473 284.360322 
L 198.156522 284.46929 
L 199.760546 284.236825 
L 201.364571 282.546614 
L 202.968595 281.919445 
L 207.780668 276.50738 
L 209.384693 274.187578 
L 210.988717 272.45378 
L 212.592742 270.414873 
L 214.196766 268.584215 
L 215.800791 266.191768 
L 217.404815 263.448202 
L 219.008839 261.40203 
L 222.216888 255.943958 
L 223.820913 253.609626 
L 225.424937 250.723192 
L 227.028962 248.345274 
L 228.632986 246.611476 
L 231.841035 245.485476 
L 233.445059 245.284491 
L 235.049084 244.209343 
L 238.257133 242.584513 
L 239.861157 240.700582 
L 241.465181 239.57216 
L 243.069206 237.170027 
L 246.277255 232.128453 
L 247.881279 229.571344 
L 249.485304 227.52275 
L 251.089328 225.725993 
L 252.693352 222.008983 
L 254.297377 220.057249 
L 255.901401 217.061847 
L 257.505426 214.594333 
L 259.10945 211.315615 
L 260.713475 210.736876 
L 262.317499 208.838415 
L 263.921524 208.535727 
L 265.525548 207.31771 
L 267.129572 206.639689 
L 268.733597 206.627581 
L 270.337621 207.499323 
L 271.941646 206.111801 
L 273.54567 205.569383 
L 275.149695 203.203573 
L 276.753719 202.57156 
L 278.357743 201.210674 
L 281.565792 198.941723 
L 283.169817 198.464687 
L 284.773841 197.016627 
L 286.377866 196.350713 
L 287.98189 195.152068 
L 289.585914 194.878438 
L 291.189939 196.481474 
L 294.397988 197.178868 
L 296.002012 199.38728 
L 297.606037 199.307371 
L 299.210061 201.133186 
L 300.814086 200.154898 
L 302.41811 200.583504 
L 304.022134 200.36799 
L 305.626159 199.576158 
L 307.230183 200.334089 
L 308.834208 200.389784 
L 310.438232 199.050691 
L 312.042257 198.723788 
L 313.646281 197.752764 
L 315.250305 197.316893 
L 318.458354 196.900394 
L 320.062379 196.503268 
L 321.666403 195.929371 
L 323.270428 194.868752 
L 326.478476 195.093952 
L 329.686525 198.149891 
L 331.29055 198.687465 
L 332.894574 199.765035 
L 334.498599 200.275973 
L 336.102623 200.275973 
L 337.706648 200.694893 
L 339.310672 200.426106 
L 340.914696 199.987814 
L 342.518721 199.181452 
L 344.122745 199.179031 
L 345.72677 199.476876 
L 348.934819 199.074906 
L 350.538843 198.401728 
L 352.142867 200.329246 
L 353.746892 199.208089 
L 355.350916 201.370493 
L 356.954941 203.169672 
L 358.558965 204.186704 
L 360.16299 205.622656 
L 361.767014 205.801848 
L 363.371038 207.070717 
L 364.975063 207.52596 
L 368.183112 208.976441 
L 369.787136 208.434024 
L 371.391161 209.363882 
L 372.995185 209.10236 
L 374.599209 209.562446 
L 376.203234 209.550338 
L 377.807258 208.97402 
L 379.411283 208.719762 
L 381.015307 208.879581 
L 382.619332 208.879581 
L 384.223356 209.000656 
L 385.827381 209.533387 
L 387.431405 210.361542 
L 389.035429 212.243052 
L 390.639454 212.73946 
L 392.243478 213.463491 
L 393.847503 214.051916 
L 395.451527 214.800161 
L 397.055552 215.030204 
L 398.659576 214.553168 
L 400.2636 215.766342 
L 401.867625 215.446703 
L 403.471649 216.030286 
L 405.075674 215.77845 
L 408.283723 217.3718 
L 409.887747 215.599258 
L 411.491771 216.32571 
L 413.095796 216.885077 
L 414.69982 216.998888 
L 416.303845 217.868209 
L 417.907869 219.299318 
L 419.511894 219.916802 
L 421.115918 221.311589 
L 422.719943 222.314092 
L 425.927991 222.030776 
L 427.532016 222.643417 
L 429.13604 223.076866 
L 430.740065 223.658028 
L 432.344089 223.912286 
L 433.948114 223.435249 
L 435.552138 224.822772 
L 437.156162 224.038204 
L 440.364211 223.936501 
L 441.968236 224.59515 
L 443.57226 224.670217 
L 446.780309 225.667877 
L 451.592382 228.346062 
L 453.196407 229.103993 
L 454.800431 229.409103 
L 456.404456 229.515649 
L 459.612504 230.227572 
L 461.216529 231.116264 
L 462.820553 230.019322 
L 464.424578 229.878875 
L 467.632627 229.246862 
L 472.4447 228.859421 
L 474.048724 227.585709 
L 477.256773 226.743025 
L 478.860798 226.815671 
L 480.464822 227.147417 
L 482.068847 227.244277 
L 483.672871 227.687412 
L 485.276895 227.331451 
L 486.88092 226.452445 
L 488.484944 226.922217 
L 490.088969 226.302311 
L 491.692993 226.411279 
L 493.297018 225.202948 
L 494.901042 225.098823 
L 496.505066 223.575697 
L 498.109091 223.977666 
L 498.109091 223.977666 
" clip-path="url(#pafec3b6e1d)" style="fill: none; stroke: #008000; stroke-width: 1.5; stroke-linecap: square"/>
   </g>
   <g id="line2d_32">
    <path d="M 92.290909 368.967716 
L 93.894934 369.100899 
L 95.498958 368.689243 
L 100.311031 367.747277 
L 101.915056 367.197596 
L 103.51908 367.047462 
L 105.123105 366.46388 
L 106.727129 366.308903 
L 108.331153 365.945678 
L 111.539202 364.616271 
L 113.143227 364.168293 
L 114.747251 363.480585 
L 116.351276 362.565256 
L 117.9553 361.490108 
L 119.559324 360.976749 
L 121.163349 360.332628 
L 122.767373 359.347076 
L 125.975422 356.668891 
L 127.579447 355.818943 
L 129.183471 354.787381 
L 130.787496 353.324792 
L 132.39152 352.186685 
L 133.995544 350.530375 
L 137.203593 348.866801 
L 138.807618 347.164483 
L 140.411642 346.135343 
L 142.015667 344.067377 
L 145.223715 340.623997 
L 146.82774 339.146879 
L 148.431764 337.045012 
L 150.035789 335.734978 
L 151.639813 334.151313 
L 153.243838 332.77832 
L 154.847862 330.942819 
L 156.451886 329.310724 
L 162.867984 321.782264 
L 164.472009 322.106746 
L 166.076033 321.363344 
L 167.680057 321.266484 
L 169.284082 319.588381 
L 170.888106 319.259056 
L 172.492131 317.990187 
L 174.096155 316.568764 
L 175.70018 314.377301 
L 177.304204 312.401353 
L 178.908229 309.708639 
L 180.512253 306.211985 
L 182.116277 302.158386 
L 183.720302 297.734296 
L 185.324326 293.901053 
L 186.928351 291.954162 
L 190.1364 287.297608 
L 191.740424 285.61224 
L 193.344448 284.481397 
L 194.948473 284.418438 
L 196.552497 284.900318 
L 198.156522 285.205427 
L 201.364571 284.144808 
L 202.968595 283.752524 
L 204.572619 281.984825 
L 212.592742 271.146168 
L 214.196766 268.966813 
L 220.612864 257.699549 
L 222.216888 255.382168 
L 223.820913 250.645704 
L 225.424937 247.909403 
L 227.028962 244.795347 
L 228.632986 242.967111 
L 230.23701 242.192229 
L 231.841035 242.528818 
L 233.445059 243.502263 
L 235.049084 242.591777 
L 236.653108 242.255188 
L 238.257133 241.640126 
L 239.861157 239.598797 
L 241.465181 238.911089 
L 244.67323 234.269064 
L 246.277255 231.513391 
L 247.881279 228.493774 
L 249.485304 225.97783 
L 251.089328 224.399008 
L 252.693352 220.689262 
L 254.297377 218.630983 
L 257.505426 212.749146 
L 259.10945 210.087912 
L 260.713475 207.663985 
L 262.317499 206.419332 
L 263.921524 206.19171 
L 265.525548 205.545168 
L 267.129572 205.433779 
L 268.733597 205.00033 
L 270.337621 205.91808 
L 271.941646 203.339177 
L 273.54567 204.075315 
L 275.149695 201.610222 
L 276.753719 200.292923 
L 278.357743 199.985392 
L 279.961768 198.350876 
L 281.565792 197.437969 
L 283.169817 196.069818 
L 284.773841 194.149564 
L 286.377866 193.391633 
L 287.98189 191.98716 
L 289.585914 191.575504 
L 291.189939 191.948416 
L 292.793963 192.975134 
L 294.397988 194.299698 
L 297.606037 196.590442 
L 299.210061 198.830334 
L 300.814086 198.476794 
L 302.41811 197.653483 
L 304.022134 198.71168 
L 305.626159 198.091775 
L 307.230183 197.861732 
L 308.834208 197.268463 
L 310.438232 197.430704 
L 312.042257 195.234399 
L 313.646281 195.212605 
L 315.250305 194.27064 
L 316.85433 194.568485 
L 318.458354 193.457014 
L 320.062379 193.401319 
L 323.270428 191.374519 
L 324.874452 192.183302 
L 326.478476 190.665018 
L 329.686525 192.778992 
L 331.29055 193.926786 
L 332.894574 194.406244 
L 337.706648 195.382111 
L 339.310672 195.231977 
L 344.122745 193.483651 
L 345.72677 193.260872 
L 347.330794 192.657917 
L 348.934819 193.067152 
L 350.538843 192.251104 
L 352.142867 192.904911 
L 353.746892 192.258369 
L 355.350916 194.326334 
L 356.954941 195.641212 
L 358.558965 197.464605 
L 360.16299 199.004683 
L 361.767014 200.140369 
L 363.371038 200.644042 
L 364.975063 202.087259 
L 366.579087 201.94439 
L 368.183112 202.869405 
L 369.787136 203.012274 
L 371.391161 202.915414 
L 372.995185 202.501336 
L 374.599209 203.130928 
L 376.203234 202.891199 
L 379.411283 202.031564 
L 381.015307 202.208334 
L 382.619332 202.205913 
L 384.223356 202.959001 
L 385.827381 202.431112 
L 387.431405 203.239895 
L 389.035429 205.121405 
L 390.639454 206.59368 
L 392.243478 207.07556 
L 395.451527 208.65196 
L 397.055552 208.743977 
L 398.659576 208.288734 
L 401.867625 209.109624 
L 403.471649 208.760927 
L 405.075674 209.642355 
L 406.679698 209.753744 
L 408.283723 209.315452 
L 409.887747 209.305766 
L 411.491771 209.061194 
L 413.095796 209.162897 
L 414.69982 209.785224 
L 416.303845 209.47285 
L 419.511894 212.887172 
L 421.115918 214.078553 
L 422.719943 214.383663 
L 424.323967 215.543564 
L 425.927991 215.579886 
L 427.532016 215.952798 
L 429.13604 216.686514 
L 430.740065 217.279783 
L 432.344089 217.311262 
L 433.948114 216.594497 
L 435.552138 218.066772 
L 437.156162 217.299155 
L 438.760187 217.335477 
L 440.364211 217.122385 
L 441.968236 217.955383 
L 443.57226 218.09583 
L 445.176285 217.87063 
L 446.780309 218.086144 
L 448.384333 218.166054 
L 451.592382 220.17106 
L 453.196407 220.958049 
L 454.800431 221.122712 
L 458.00848 222.081628 
L 459.612504 221.71598 
L 461.216529 223.495787 
L 462.820553 222.379473 
L 464.424578 221.815262 
L 466.028602 221.507731 
L 467.632627 221.481094 
L 470.840676 220.280028 
L 472.4447 220.282449 
L 474.048724 219.347748 
L 475.652749 219.25331 
L 477.256773 218.655198 
L 482.068847 218.413047 
L 483.672871 218.541387 
L 485.276895 219.040217 
L 486.88092 217.948118 
L 488.484944 218.139417 
L 490.088969 217.364536 
L 491.692993 216.906871 
L 493.297018 215.897103 
L 496.505066 215.015675 
L 498.109091 213.790394 
L 498.109091 213.790394 
" clip-path="url(#pafec3b6e1d)" style="fill: none; stroke: #008000; stroke-width: 1.5; stroke-linecap: square"/>
   </g>
   <g id="line2d_33">
    <path d="M 92.290909 368.243686 
L 93.894934 368.599647 
L 97.102982 367.802972 
L 98.707007 367.810237 
L 100.311031 367.255712 
L 105.123105 366.270159 
L 106.727129 365.62846 
L 108.331153 365.211961 
L 111.539202 363.901927 
L 114.747251 362.858258 
L 117.9553 361.063923 
L 119.559324 360.555407 
L 124.371398 357.298482 
L 125.975422 356.620461 
L 127.579447 355.421816 
L 129.183471 353.700125 
L 130.787496 352.995467 
L 132.39152 351.370637 
L 133.995544 350.02428 
L 135.599569 349.092001 
L 140.411642 345.285395 
L 142.015667 343.445051 
L 143.619691 341.403722 
L 148.431764 337.001425 
L 150.035789 334.95041 
L 151.639813 333.257778 
L 153.243838 332.194737 
L 154.847862 330.170359 
L 156.451886 328.567322 
L 158.055911 326.659176 
L 159.659935 325.05614 
L 161.26396 323.269069 
L 162.867984 321.24469 
L 164.472009 321.687826 
L 166.076033 321.157516 
L 167.680057 321.024333 
L 169.284082 319.772415 
L 170.888106 319.239684 
L 172.492131 317.903013 
L 174.096155 316.227331 
L 175.70018 313.885736 
L 177.304204 311.035624 
L 178.908229 307.243547 
L 180.512253 302.221345 
L 182.116277 298.032141 
L 183.720302 295.499246 
L 185.324326 293.46276 
L 186.928351 290.784575 
L 188.532375 288.73356 
L 193.344448 284.156915 
L 194.948473 284.842201 
L 198.156522 285.348296 
L 199.760546 285.960937 
L 201.364571 285.333767 
L 202.968595 285.805961 
L 204.572619 283.21495 
L 206.176644 281.805634 
L 207.780668 278.93615 
L 209.384693 277.173294 
L 210.988717 274.541118 
L 212.592742 273.037363 
L 215.800791 267.334718 
L 217.404815 262.271351 
L 219.008839 259.443033 
L 220.612864 254.357872 
L 222.216888 250.667498 
L 223.820913 245.897132 
L 227.028962 238.533335 
L 228.632986 238.189481 
L 231.841035 240.373679 
L 233.445059 241.286586 
L 235.049084 241.957343 
L 236.653108 241.022642 
L 238.257133 240.855558 
L 239.861157 239.516466 
L 243.069206 235.751025 
L 246.277255 230.438242 
L 247.881279 228.263731 
L 249.485304 225.515322 
L 251.089328 223.156776 
L 252.693352 219.284789 
L 254.297377 215.790557 
L 255.901401 211.589245 
L 257.505426 208.380751 
L 259.10945 205.49916 
L 260.713475 203.990562 
L 262.317499 202.663577 
L 263.921524 200.72153 
L 265.525548 200.891035 
L 267.129572 201.389865 
L 268.733597 201.457667 
L 270.337621 201.978291 
L 271.941646 200.120996 
L 273.54567 200.789332 
L 275.149695 197.796351 
L 276.753719 196.876179 
L 278.357743 196.268382 
L 281.565792 192.795943 
L 283.169817 191.405999 
L 284.773841 189.146735 
L 286.377866 187.349978 
L 287.98189 185.746941 
L 289.585914 184.81224 
L 291.189939 185.131879 
L 292.793963 186.478236 
L 294.397988 187.500111 
L 296.002012 189.202429 
L 297.606037 190.604481 
L 299.210061 194.026068 
L 300.814086 192.732984 
L 302.41811 192.476304 
L 304.022134 193.427956 
L 305.626159 192.24384 
L 307.230183 191.982317 
L 308.834208 191.887879 
L 310.438232 191.517388 
L 312.042257 189.662515 
L 313.646281 188.89732 
L 315.250305 187.550963 
L 316.85433 186.928636 
L 318.458354 186.686485 
L 320.062379 183.884804 
L 321.666403 182.60867 
L 323.270428 182.499703 
L 324.874452 182.632885 
L 326.478476 180.889402 
L 328.082501 182.344726 
L 329.686525 182.935574 
L 331.29055 184.887307 
L 332.894574 185.979406 
L 336.102623 186.575096 
L 337.706648 186.679221 
L 339.310672 186.025414 
L 340.914696 186.441913 
L 342.518721 185.800214 
L 344.122745 184.766232 
L 345.72677 184.567668 
L 347.330794 183.923548 
L 350.538843 183.13898 
L 352.142867 183.867853 
L 353.746892 182.054146 
L 355.350916 183.577272 
L 356.954941 185.700933 
L 358.558965 189.338033 
L 360.16299 190.575423 
L 361.767014 191.260709 
L 363.371038 193.159169 
L 366.579087 194.648395 
L 368.183112 194.713775 
L 369.787136 194.49584 
L 371.391161 194.708932 
L 372.995185 193.539345 
L 374.599209 193.919521 
L 376.203234 194.089027 
L 379.411283 193.079259 
L 381.015307 193.304459 
L 384.223356 193.488494 
L 385.827381 192.459354 
L 387.431405 193.202756 
L 389.035429 194.675031 
L 390.639454 196.670351 
L 392.243478 197.752764 
L 393.847503 198.687465 
L 395.451527 198.319397 
L 397.055552 199.496248 
L 398.659576 199.29042 
L 400.2636 200.438214 
L 401.867625 199.278313 
L 405.075674 199.549521 
L 406.679698 199.927276 
L 408.283723 200.961259 
L 409.887747 199.513199 
L 411.491771 199.665753 
L 413.095796 199.082171 
L 414.69982 199.605216 
L 416.303845 199.484141 
L 417.907869 200.564132 
L 419.511894 201.883852 
L 421.115918 204.186704 
L 424.323967 204.508764 
L 425.927991 205.777633 
L 427.532016 205.743732 
L 429.13604 206.511349 
L 430.740065 206.617895 
L 432.344089 206.039155 
L 433.948114 206.152966 
L 435.552138 208.078063 
L 437.156162 206.649375 
L 438.760187 206.617895 
L 440.364211 205.707409 
L 441.968236 205.542747 
L 443.57226 206.329736 
L 445.176285 206.252248 
L 446.780309 206.760764 
L 448.384333 206.896368 
L 449.988358 207.41457 
L 451.592382 207.627663 
L 453.196407 207.530803 
L 454.800431 208.789985 
L 456.404456 208.92559 
L 458.00848 209.501908 
L 459.612504 210.88943 
L 461.216529 209.928093 
L 462.820553 209.21617 
L 464.424578 208.826308 
L 466.028602 207.458157 
L 467.632627 206.792243 
L 469.236651 205.990725 
L 470.840676 205.424093 
L 472.4447 204.540244 
L 474.048724 204.651633 
L 475.652749 204.426433 
L 477.256773 202.89362 
L 478.860798 203.581328 
L 480.464822 203.082497 
L 482.068847 202.399633 
L 483.672871 202.070308 
L 485.276895 201.125921 
L 488.484944 200.56171 
L 490.088969 199.936962 
L 491.692993 199.041005 
L 493.297018 197.806037 
L 494.901042 197.239405 
L 496.505066 195.459599 
L 498.109091 194.316648 
L 498.109091 194.316648 
" clip-path="url(#pafec3b6e1d)" style="fill: none; stroke: #008000; stroke-width: 1.5; stroke-linecap: square"/>
   </g>
   <g id="line2d_34">
    <path d="M 92.290909 368.166198 
L 95.498958 367.410688 
L 97.102982 367.001454 
L 100.311031 366.485673 
L 101.915056 365.960207 
L 103.51908 365.67689 
L 105.123105 365.630882 
L 106.727129 365.144159 
L 108.331153 364.408022 
L 109.935178 364.032688 
L 113.143227 362.841308 
L 119.559324 359.598912 
L 122.767373 357.695609 
L 124.371398 356.739115 
L 125.975422 355.492039 
L 127.579447 354.475007 
L 129.183471 353.097171 
L 130.787496 352.089824 
L 133.995544 349.285721 
L 135.599569 347.491386 
L 137.203593 346.755248 
L 140.411642 344.566208 
L 142.015667 342.25367 
L 146.82774 337.156401 
L 148.431764 335.875425 
L 150.035789 333.894634 
L 151.639813 332.461103 
L 153.243838 330.790264 
L 154.847862 329.347047 
L 156.451886 327.375942 
L 158.055911 325.867344 
L 161.26396 322.009886 
L 162.867984 320.162277 
L 164.472009 320.69743 
L 166.076033 319.663447 
L 167.680057 320.048467 
L 169.284082 318.498703 
L 170.888106 317.731086 
L 174.096155 313.900265 
L 175.70018 309.287297 
L 178.908229 301.16799 
L 180.512253 299.049173 
L 182.116277 296.010184 
L 183.720302 294.303023 
L 185.324326 292.259272 
L 186.928351 289.222704 
L 188.532375 287.91267 
L 190.1364 285.75753 
L 191.740424 284.689647 
L 193.344448 282.94132 
L 194.948473 283.34329 
L 196.552497 284.207767 
L 198.156522 285.217535 
L 199.760546 285.401569 
L 201.364571 285.396726 
L 202.968595 284.963277 
L 206.176644 281.26806 
L 207.780668 278.911935 
L 209.384693 276.165948 
L 210.988717 273.722649 
L 212.592742 270.100077 
L 214.196766 265.518589 
L 215.800791 260.520602 
L 217.404815 254.670246 
L 219.008839 250.074229 
L 220.612864 244.616156 
L 222.216888 240.535919 
L 223.820913 235.327262 
L 225.424937 232.126032 
L 227.028962 229.45269 
L 228.632986 232.569167 
L 230.23701 233.28109 
L 231.841035 235.380535 
L 233.445059 238.92804 
L 235.049084 239.20167 
L 236.653108 239.661756 
L 238.257133 238.70284 
L 239.861157 237.259623 
L 241.465181 235.525825 
L 243.069206 232.675713 
L 244.67323 230.736088 
L 246.277255 228.224987 
L 247.881279 224.616944 
L 249.485304 222.14943 
L 251.089328 218.62614 
L 252.693352 211.962157 
L 254.297377 206.155388 
L 255.901401 195.464442 
L 257.505426 192.217203 
L 259.10945 188.580102 
L 260.713475 187.919031 
L 262.317499 187.54612 
L 265.525548 189.674623 
L 268.733597 192.757199 
L 270.337621 193.590197 
L 271.941646 191.42295 
L 273.54567 191.556132 
L 275.149695 189.214537 
L 276.753719 187.412937 
L 278.357743 185.918868 
L 279.961768 183.122029 
L 281.565792 179.463135 
L 283.169817 174.421561 
L 284.773841 168.735867 
L 286.377866 165.386925 
L 287.98189 163.331067 
L 289.585914 164.699217 
L 291.189939 165.815531 
L 292.793963 168.777032 
L 294.397988 170.658542 
L 299.210061 180.874873 
L 300.814086 180.010395 
L 302.41811 179.940172 
L 304.022134 181.28895 
L 305.626159 180.368778 
L 307.230183 179.804567 
L 308.834208 178.700361 
L 310.438232 177.356425 
L 312.042257 174.617703 
L 313.646281 172.646598 
L 320.062379 152.1873 
L 321.666403 149.407412 
L 323.270428 149.819067 
L 324.874452 150.739239 
L 326.478476 152.361648 
L 328.082501 155.945476 
L 329.686525 158.594603 
L 331.29055 162.614301 
L 332.894574 164.297247 
L 334.498599 165.682348 
L 336.102623 166.32889 
L 337.706648 165.527372 
L 339.310672 165.445041 
L 340.914696 164.621729 
L 342.518721 163.449721 
L 344.122745 161.459243 
L 345.72677 158.938456 
L 347.330794 157.354792 
L 348.934819 155.093106 
L 350.538843 152.506938 
L 352.142867 153.942891 
L 353.746892 154.032487 
L 355.350916 156.468521 
L 356.954941 159.526882 
L 358.558965 165.004327 
L 360.16299 167.849596 
L 361.767014 169.685097 
L 363.371038 170.835312 
L 364.975063 172.368125 
L 366.579087 172.552159 
L 368.183112 173.021931 
L 369.787136 173.215651 
L 371.391161 172.435927 
L 372.995185 172.297901 
L 374.599209 172.317273 
L 376.203234 171.544813 
L 377.807258 170.646434 
L 379.411283 167.842331 
L 381.015307 166.229609 
L 382.619332 165.585488 
L 384.223356 165.229527 
L 385.827381 166.316783 
L 387.431405 168.079639 
L 389.035429 169.399359 
L 390.639454 172.464985 
L 392.243478 173.426322 
L 393.847503 174.232684 
L 395.451527 174.562008 
L 397.055552 174.455462 
L 398.659576 173.862193 
L 400.2636 174.353759 
L 401.867625 173.649101 
L 403.471649 171.481854 
L 405.075674 171.15495 
L 406.679698 169.36788 
L 408.283723 167.299914 
L 409.887747 164.176172 
L 411.491771 163.117974 
L 413.095796 162.747484 
L 414.69982 163.638598 
L 416.303845 165.614546 
L 417.907869 168.416228 
L 419.511894 169.680254 
L 421.115918 172.794309 
L 422.719943 172.992873 
L 424.323967 173.702374 
L 425.927991 174.724249 
L 427.532016 176.363608 
L 429.13604 175.646843 
L 430.740065 175.28846 
L 432.344089 173.050989 
L 433.948114 172.302744 
L 435.552138 171.002396 
L 437.156162 166.534718 
L 438.760187 164.621729 
L 440.364211 161.88785 
L 441.968236 161.652964 
L 443.57226 161.55126 
L 445.176285 163.510258 
L 446.780309 165.939028 
L 448.384333 167.270856 
L 449.988358 170.443028 
L 451.592382 171.549656 
L 453.196407 172.980765 
L 454.800431 174.593488 
L 456.404456 175.116533 
L 458.00848 173.922731 
L 459.612504 172.21557 
L 461.216529 170.953965 
L 464.424578 161.803097 
L 466.028602 159.110383 
L 467.632627 157.073897 
L 469.236651 153.492491 
L 470.840676 152.320482 
L 472.4447 150.247674 
L 474.048724 150.843364 
L 475.652749 151.819231 
L 477.256773 151.516543 
L 478.860798 154.490151 
L 480.464822 155.344942 
L 482.068847 155.93579 
L 483.672871 155.889781 
L 485.276895 155.560456 
L 486.88092 154.030065 
L 488.484944 153.594194 
L 490.088969 149.790009 
L 491.692993 144.48207 
L 493.297018 141.472139 
L 494.901042 136.224737 
L 496.505066 131.9193 
L 498.109091 128.57278 
L 498.109091 128.57278 
" clip-path="url(#pafec3b6e1d)" style="fill: none; stroke: #008000; stroke-width: 1.5; stroke-linecap: square"/>
   </g>
   <g id="line2d_35">
    <path d="M 92.290909 369.108163 
L 93.894934 368.950766 
L 95.498958 367.715798 
L 97.102982 367.657682 
L 98.707007 366.999032 
L 100.311031 366.977239 
L 101.915056 366.46388 
L 103.51908 366.209622 
L 105.123105 365.645411 
L 106.727129 365.38631 
L 108.331153 364.664701 
L 109.935178 364.22883 
L 111.539202 363.928564 
L 113.143227 363.008392 
L 114.747251 362.461131 
L 116.351276 361.737101 
L 119.559324 359.899179 
L 121.163349 359.245372 
L 124.371398 357.141084 
L 125.975422 355.986026 
L 127.579447 355.10702 
L 129.183471 353.816358 
L 130.787496 352.821119 
L 132.39152 351.201132 
L 133.995544 349.944371 
L 135.599569 348.96124 
L 137.203593 347.040986 
L 138.807618 345.50333 
L 140.411642 345.416156 
L 142.015667 342.282728 
L 143.619691 341.151885 
L 145.223715 339.282483 
L 146.82774 337.904647 
L 150.035789 334.817227 
L 151.639813 333.296522 
L 153.243838 331.306045 
L 154.847862 330.017804 
L 156.451886 328.446247 
L 158.055911 326.402496 
L 159.659935 324.75103 
L 161.26396 322.30531 
L 162.867984 321.046127 
L 164.472009 320.445593 
L 166.076033 318.786862 
L 167.680057 318.866772 
L 170.888106 316.086884 
L 172.492131 313.830041 
L 174.096155 310.725671 
L 175.70018 306.592162 
L 177.304204 303.766265 
L 180.512253 298.925676 
L 182.116277 297.184614 
L 185.324326 293.058369 
L 186.928351 290.721616 
L 190.1364 286.706761 
L 191.740424 285.101303 
L 193.344448 282.967956 
L 194.948473 283.423199 
L 196.552497 284.842201 
L 198.156522 285.292601 
L 199.760546 286.634115 
L 201.364571 286.876266 
L 202.968595 286.09412 
L 204.572619 284.159337 
L 206.176644 281.449673 
L 209.384693 273.41754 
L 210.988717 268.082963 
L 212.592742 261.646602 
L 215.800791 250.585166 
L 217.404815 246.277308 
L 220.612864 240.158165 
L 222.216888 236.525907 
L 223.820913 234.378032 
L 225.424937 231.840294 
L 227.028962 228.6318 
L 228.632986 232.191412 
L 230.23701 233.852565 
L 231.841035 236.877025 
L 233.445059 240.865244 
L 236.653108 241.097709 
L 238.257133 240.577085 
L 239.861157 239.087859 
L 241.465181 237.053795 
L 243.069206 233.767812 
L 244.67323 231.329356 
L 246.277255 228.02158 
L 247.881279 224.379636 
L 249.485304 219.246045 
L 251.089328 210.751405 
L 252.693352 199.900639 
L 254.297377 192.478726 
L 255.901401 182.121948 
L 257.505426 178.293548 
L 259.10945 175.140748 
L 260.713475 174.937342 
L 262.317499 176.775264 
L 263.921524 179.441341 
L 265.525548 181.09523 
L 267.129572 184.308567 
L 268.733597 186.24335 
L 270.337621 187.676881 
L 271.941646 186.495186 
L 273.54567 186.219135 
L 275.149695 182.775754 
L 276.753719 179.003049 
L 278.357743 173.823449 
L 279.961768 164.641101 
L 283.169817 150.162921 
L 284.773841 142.036349 
L 286.377866 140.796539 
L 287.98189 138.522745 
L 289.585914 142.404418 
L 291.189939 147.95693 
L 294.397988 156.889863 
L 296.002012 161.950809 
L 297.606037 165.297329 
L 299.210061 170.808675 
L 300.814086 169.484112 
L 302.41811 169.549492 
L 304.022134 169.074877 
L 305.626159 167.500899 
L 307.230183 166.723596 
L 308.834208 164.733118 
L 312.042257 148.693067 
L 315.250305 130.841731 
L 316.85433 124.50223 
L 320.062379 115.876828 
L 321.666403 114.503835 
L 323.270428 115.511181 
L 324.874452 118.516269 
L 326.478476 122.82897 
L 328.082501 131.924143 
L 329.686525 136.236844 
L 331.29055 142.355988 
L 332.894574 145.014801 
L 334.498599 145.947081 
L 336.102623 146.293356 
L 337.706648 146.346629 
L 339.310672 145.131033 
L 340.914696 142.251863 
L 344.122745 131.650513 
L 347.330794 114.445718 
L 348.934819 109.898132 
L 350.538843 108.111061 
L 352.142867 112.358381 
L 355.350916 124.865456 
L 356.954941 131.396255 
L 358.558965 138.643821 
L 360.16299 143.569162 
L 361.767014 145.191571 
L 364.975063 148.920689 
L 366.579087 148.896474 
L 368.183112 150.017631 
L 369.787136 149.865076 
L 371.391161 149.521222 
L 372.995185 146.952005 
L 374.599209 145.971296 
L 376.203234 142.125945 
L 377.807258 134.902595 
L 379.411283 126.969744 
L 381.015307 120.431679 
L 384.223356 119.458234 
L 385.827381 122.998475 
L 387.431405 130.088642 
L 389.035429 133.364939 
L 390.639454 139.300049 
L 392.243478 141.496354 
L 393.847503 143.021902 
L 395.451527 142.900827 
L 397.055552 143.009795 
L 398.659576 142.087201 
L 400.2636 140.818332 
L 401.867625 135.529765 
L 403.471649 128.180496 
L 405.075674 124.473172 
L 406.679698 119.632583 
L 408.283723 116.065705 
L 409.887747 111.757848 
L 411.491771 110.493822 
L 413.095796 110.953908 
L 414.69982 115.608041 
L 416.303845 122.465744 
L 417.907869 129.885236 
L 419.511894 134.960711 
L 421.115918 138.684986 
L 422.719943 140.152418 
L 424.323967 141.278418 
L 425.927991 141.515726 
L 427.532016 143.695081 
L 429.13604 141.215459 
L 430.740065 138.069924 
L 432.344089 131.82244 
L 433.948114 126.812346 
L 435.552138 120.150785 
L 437.156162 112.375331 
L 438.760187 111.10162 
L 440.364211 107.893125 
L 441.968236 108.215185 
L 443.57226 109.411409 
L 445.176285 114.092179 
L 448.384333 126.584724 
L 449.988358 131.328453 
L 451.592382 134.118027 
L 453.196407 138.953773 
L 454.800431 139.423545 
L 456.404456 138.554225 
L 458.00848 137.064999 
L 459.612504 128.972329 
L 461.216529 122.775697 
L 462.820553 111.639194 
L 464.424578 106.529818 
L 466.028602 103.306794 
L 469.236651 99.24593 
L 470.840676 98.115087 
L 472.4447 96.739672 
L 474.048724 101.512459 
L 475.652749 102.19048 
L 477.256773 103.742665 
L 478.860798 110.47445 
L 480.464822 112.697392 
L 482.068847 115.644364 
L 483.672871 115.319882 
L 485.276895 114.186617 
L 486.88092 113.261602 
L 488.484944 106.14722 
L 490.088969 94.916278 
L 491.692993 87.559745 
L 493.297018 83.985604 
L 494.901042 82.443105 
L 496.505066 78.399191 
L 498.109091 77.089157 
L 498.109091 77.089157 
" clip-path="url(#pafec3b6e1d)" style="fill: none; stroke: #008000; stroke-width: 1.5; stroke-linecap: square"/>
   </g>
   <g id="line2d_36">
    <path d="M 92.290909 367.129794 
L 93.894934 367.892568 
L 95.498958 367.384052 
L 97.102982 367.313828 
L 98.707007 366.526839 
L 101.915056 366.117604 
L 103.51908 365.364516 
L 105.123105 365.517071 
L 114.747251 361.952615 
L 119.559324 359.417299 
L 124.371398 356.363781 
L 125.975422 354.988366 
L 127.579447 354.213485 
L 129.183471 352.961566 
L 130.787496 352.123725 
L 132.39152 350.690194 
L 133.995544 349.00967 
L 135.599569 347.917571 
L 138.807618 345.193377 
L 140.411642 343.953567 
L 142.015667 341.360135 
L 143.619691 340.0501 
L 150.035789 334.267546 
L 151.639813 333.257778 
L 153.243838 330.683718 
L 154.847862 328.971714 
L 156.451886 327.681051 
L 158.055911 325.57192 
L 159.659935 323.777585 
L 161.26396 321.784686 
L 167.680057 315.089224 
L 169.284082 312.118037 
L 170.888106 310.866119 
L 172.492131 308.408291 
L 174.096155 306.747138 
L 175.70018 304.906794 
L 177.304204 302.679009 
L 178.908229 301.187362 
L 182.116277 296.203904 
L 183.720302 294.915663 
L 185.324326 292.586175 
L 186.928351 290.060545 
L 188.532375 288.748089 
L 190.1364 285.442735 
L 191.740424 284.241668 
L 193.344448 281.536847 
L 194.948473 279.33812 
L 196.552497 278.832025 
L 198.156522 275.865681 
L 199.760546 275.996443 
L 201.364571 274.221479 
L 202.968595 271.678899 
L 204.572619 265.445944 
L 207.780668 258.842499 
L 209.384693 256.052925 
L 210.988717 253.713751 
L 212.592742 252.415824 
L 214.196766 249.12742 
L 217.404815 244.160913 
L 219.008839 240.935468 
L 220.612864 238.339614 
L 223.820913 233.857408 
L 225.424937 230.111339 
L 227.028962 228.02158 
L 228.632986 225.36761 
L 230.23701 224.202866 
L 231.841035 224.653266 
L 233.445059 226.837464 
L 235.049084 225.62429 
L 236.653108 223.369869 
L 238.257133 220.863611 
L 239.861157 215.822037 
L 241.465181 210.083069 
L 243.069206 203.755676 
L 244.67323 196.447573 
L 246.277255 191.851556 
L 247.881279 189.04261 
L 251.089328 180.974154 
L 252.693352 178.782692 
L 254.297377 175.194021 
L 255.901401 172.864533 
L 257.505426 169.009497 
L 259.10945 165.554009 
L 260.713475 162.800757 
L 262.317499 161.248572 
L 263.921524 160.58508 
L 265.525548 156.7252 
L 267.129572 159.681858 
L 268.733597 155.415166 
L 270.337621 153.15348 
L 273.54567 141.740926 
L 275.149695 139.239511 
L 276.753719 137.295042 
L 278.357743 134.369864 
L 279.961768 133.953365 
L 283.169817 130.962806 
L 284.773841 130.156445 
L 286.377866 128.185339 
L 287.98189 125.463567 
L 289.585914 124.560346 
L 291.189939 128.720492 
L 292.793963 130.306578 
L 294.397988 130.37438 
L 296.002012 132.473825 
L 297.606037 133.100995 
L 299.210061 133.132475 
L 300.814086 128.989279 
L 302.41811 123.063856 
L 304.022134 120.560019 
L 305.626159 115.908308 
L 307.230183 112.728871 
L 308.834208 110.496243 
L 310.438232 110.624583 
L 312.042257 108.663164 
L 313.646281 107.46694 
L 315.250305 106.883357 
L 316.85433 106.793762 
L 320.062379 105.643547 
L 321.666403 104.454588 
L 323.270428 102.468953 
L 324.874452 103.340695 
L 326.478476 104.914674 
L 328.082501 112.365645 
L 329.686525 111.576235 
L 331.29055 115.845348 
L 332.894574 114.164824 
L 334.498599 109.680196 
L 336.102623 105.529736 
L 337.706648 99.492923 
L 339.310672 96.003534 
L 340.914696 95.274661 
L 342.518721 93.64741 
L 344.122745 93.92104 
L 345.72677 92.114597 
L 347.330794 93.393152 
L 348.934819 93.468218 
L 350.538843 92.325268 
L 352.142867 93.812072 
L 353.746892 94.632962 
L 355.350916 102.49559 
L 356.954941 106.684794 
L 358.558965 111.549598 
L 360.16299 113.888772 
L 361.767014 110.016785 
L 364.975063 105.418347 
L 366.579087 102.088777 
L 368.183112 97.994012 
L 369.787136 93.31082 
L 371.391161 90.034524 
L 372.995185 87.562167 
L 374.599209 89.140988 
L 376.203234 89.09498 
L 377.807258 87.66387 
L 379.411283 87.51858 
L 381.015307 86.905939 
L 382.619332 88.724489 
L 384.223356 89.056236 
L 385.827381 91.770743 
L 387.431405 97.889887 
L 389.035429 97.693745 
L 390.639454 102.706261 
L 392.243478 99.415435 
L 393.847503 96.68882 
L 395.451527 91.780429 
L 397.055552 89.315337 
L 398.659576 88.746283 
L 400.2636 88.295883 
L 401.867625 88.186915 
L 403.471649 88.666373 
L 405.075674 89.358924 
L 406.679698 88.511397 
L 408.283723 90.400171 
L 409.887747 89.49695 
L 411.491771 90.760975 
L 413.095796 90.162864 
L 414.69982 91.022498 
L 416.303845 96.550794 
L 417.907869 97.928631 
L 419.511894 103.173611 
L 421.115918 103.154239 
L 422.719943 99.308889 
L 424.323967 95.909096 
L 425.927991 92.792618 
L 427.532016 92.579526 
L 429.13604 91.269491 
L 430.740065 91.995943 
L 432.344089 90.504296 
L 433.948114 91.119358 
L 435.552138 93.43916 
L 437.156162 92.012894 
L 438.760187 93.395573 
L 440.364211 93.795121 
L 441.968236 93.562657 
L 443.57226 93.911354 
L 445.176285 93.845973 
L 446.780309 101.648063 
L 448.384333 101.655328 
L 449.988358 105.449826 
L 451.592382 103.63854 
L 453.196407 99.679379 
L 454.800431 96.456356 
L 456.404456 92.92338 
L 458.00848 91.826438 
L 459.612504 90.276674 
L 461.216529 90.116855 
L 462.820553 87.782524 
L 464.424578 89.533272 
L 466.028602 87.128717 
L 467.632627 87.34181 
L 469.236651 86.576614 
L 470.840676 85.956709 
L 472.4447 86.114107 
L 474.048724 87.496786 
L 475.652749 84.530442 
L 477.256773 82.796644 
L 478.860798 87.973823 
L 480.464822 83.566683 
L 482.068847 79.953797 
L 483.672871 78.568696 
L 485.276895 78.561432 
L 486.88092 75.520021 
L 488.484944 76.353019 
L 490.088969 74.248731 
L 491.692993 73.708735 
L 493.297018 72.166236 
L 494.901042 70.163651 
L 496.505066 67.00843 
L 498.109091 66.96 
L 498.109091 66.96 
" clip-path="url(#pafec3b6e1d)" style="fill: none; stroke: #008000; stroke-width: 1.5; stroke-linecap: square"/>
   </g>
   <g id="patch_3">
    <path d="M 72 384.48 
L 72 51.84 
" style="fill: none; stroke: #000000; stroke-width: 0.8; stroke-linejoin: miter; stroke-linecap: square"/>
   </g>
   <g id="patch_4">
    <path d="M 518.4 384.48 
L 518.4 51.84 
" style="fill: none; stroke: #000000; stroke-width: 0.8; stroke-linejoin: miter; stroke-linecap: square"/>
   </g>
   <g id="patch_5">
    <path d="M 72 384.48 
L 518.4 384.48 
" style="fill: none; stroke: #000000; stroke-width: 0.8; stroke-linejoin: miter; stroke-linecap: square"/>
   </g>
   <g id="patch_6">
    <path d="M 72 51.84 
L 518.4 51.84 
" style="fill: none; stroke: #000000; stroke-width: 0.8; stroke-linejoin: miter; stroke-linecap: square"/>
   </g>
   <g id="text_17">
    <!-- M2: Aspartat; Asparagin; Isoleucin; Threonin; Tryptophan; Phenylalanin; Methionin; Histidin; Arginin -->
    <g transform="translate(46.3875 45.84) scale(0.1 -0.1)">
     <defs>
      <path id="DejaVuSans-4d" d="M 628 4666 
L 1569 4666 
L 2759 1491 
L 3956 4666 
L 4897 4666 
L 4897 0 
L 4281 0 
L 4281 4097 
L 3078 897 
L 2444 897 
L 1241 4097 
L 1241 0 
L 628 0 
L 628 4666 
z
" transform="scale(0.015625)"/>
      <path id="DejaVuSans-3a" d="M 750 794 
L 1409 794 
L 1409 0 
L 750 0 
L 750 794 
z
M 750 3309 
L 1409 3309 
L 1409 2516 
L 750 2516 
L 750 3309 
z
" transform="scale(0.015625)"/>
      <path id="DejaVuSans-41" d="M 2188 4044 
L 1331 1722 
L 3047 1722 
L 2188 4044 
z
M 1831 4666 
L 2547 4666 
L 4325 0 
L 3669 0 
L 3244 1197 
L 1141 1197 
L 716 0 
L 50 0 
L 1831 4666 
z
" transform="scale(0.015625)"/>
      <path id="DejaVuSans-70" d="M 1159 525 
L 1159 -1331 
L 581 -1331 
L 581 3500 
L 1159 3500 
L 1159 2969 
Q 1341 3281 1617 3432 
Q 1894 3584 2278 3584 
Q 2916 3584 3314 3078 
Q 3713 2572 3713 1747 
Q 3713 922 3314 415 
Q 2916 -91 2278 -91 
Q 1894 -91 1617 61 
Q 1341 213 1159 525 
z
M 3116 1747 
Q 3116 2381 2855 2742 
Q 2594 3103 2138 3103 
Q 1681 3103 1420 2742 
Q 1159 2381 1159 1747 
Q 1159 1113 1420 752 
Q 1681 391 2138 391 
Q 2594 391 2855 752 
Q 3116 1113 3116 1747 
z
" transform="scale(0.015625)"/>
      <path id="DejaVuSans-3b" d="M 750 3309 
L 1409 3309 
L 1409 2516 
L 750 2516 
L 750 3309 
z
M 750 794 
L 1409 794 
L 1409 256 
L 897 -744 
L 494 -744 
L 750 256 
L 750 794 
z
" transform="scale(0.015625)"/>
      <path id="DejaVuSans-67" d="M 2906 1791 
Q 2906 2416 2648 2759 
Q 2391 3103 1925 3103 
Q 1463 3103 1205 2759 
Q 947 2416 947 1791 
Q 947 1169 1205 825 
Q 1463 481 1925 481 
Q 2391 481 2648 825 
Q 2906 1169 2906 1791 
z
M 3481 434 
Q 3481 -459 3084 -895 
Q 2688 -1331 1869 -1331 
Q 1566 -1331 1297 -1286 
Q 1028 -1241 775 -1147 
L 775 -588 
Q 1028 -725 1275 -790 
Q 1522 -856 1778 -856 
Q 2344 -856 2625 -561 
Q 2906 -266 2906 331 
L 2906 616 
Q 2728 306 2450 153 
Q 2172 0 1784 0 
Q 1141 0 747 490 
Q 353 981 353 1791 
Q 353 2603 747 3093 
Q 1141 3584 1784 3584 
Q 2172 3584 2450 3431 
Q 2728 3278 2906 2969 
L 2906 3500 
L 3481 3500 
L 3481 434 
z
" transform="scale(0.015625)"/>
      <path id="DejaVuSans-49" d="M 628 4666 
L 1259 4666 
L 1259 0 
L 628 0 
L 628 4666 
z
" transform="scale(0.015625)"/>
      <path id="DejaVuSans-54" d="M -19 4666 
L 3928 4666 
L 3928 4134 
L 2272 4134 
L 2272 0 
L 1638 0 
L 1638 4134 
L -19 4134 
L -19 4666 
z
" transform="scale(0.015625)"/>
      <path id="DejaVuSans-79" d="M 2059 -325 
Q 1816 -950 1584 -1140 
Q 1353 -1331 966 -1331 
L 506 -1331 
L 506 -850 
L 844 -850 
Q 1081 -850 1212 -737 
Q 1344 -625 1503 -206 
L 1606 56 
L 191 3500 
L 800 3500 
L 1894 763 
L 2988 3500 
L 3597 3500 
L 2059 -325 
z
" transform="scale(0.015625)"/>
      <path id="DejaVuSans-48" d="M 628 4666 
L 1259 4666 
L 1259 2753 
L 3553 2753 
L 3553 4666 
L 4184 4666 
L 4184 0 
L 3553 0 
L 3553 2222 
L 1259 2222 
L 1259 0 
L 628 0 
L 628 4666 
z
" transform="scale(0.015625)"/>
     </defs>
     <use xlink:href="#DejaVuSans-4d"/>
     <use xlink:href="#DejaVuSans-32" x="86.279297"/>
     <use xlink:href="#DejaVuSans-3a" x="149.902344"/>
     <use xlink:href="#DejaVuSans-20" x="183.59375"/>
     <use xlink:href="#DejaVuSans-41" x="215.380859"/>
     <use xlink:href="#DejaVuSans-73" x="283.789062"/>
     <use xlink:href="#DejaVuSans-70" x="335.888672"/>
     <use xlink:href="#DejaVuSans-61" x="399.365234"/>
     <use xlink:href="#DejaVuSans-72" x="460.644531"/>
     <use xlink:href="#DejaVuSans-74" x="501.757812"/>
     <use xlink:href="#DejaVuSans-61" x="540.966797"/>
     <use xlink:href="#DejaVuSans-74" x="602.246094"/>
     <use xlink:href="#DejaVuSans-3b" x="641.455078"/>
     <use xlink:href="#DejaVuSans-20" x="675.146484"/>
     <use xlink:href="#DejaVuSans-41" x="706.933594"/>
     <use xlink:href="#DejaVuSans-73" x="775.341797"/>
     <use xlink:href="#DejaVuSans-70" x="827.441406"/>
     <use xlink:href="#DejaVuSans-61" x="890.917969"/>
     <use xlink:href="#DejaVuSans-72" x="952.197266"/>
     <use xlink:href="#DejaVuSans-61" x="993.310547"/>
     <use xlink:href="#DejaVuSans-67" x="1054.589844"/>
     <use xlink:href="#DejaVuSans-69" x="1118.066406"/>
     <use xlink:href="#DejaVuSans-6e" x="1145.849609"/>
     <use xlink:href="#DejaVuSans-3b" x="1209.228516"/>
     <use xlink:href="#DejaVuSans-20" x="1242.919922"/>
     <use xlink:href="#DejaVuSans-49" x="1274.707031"/>
     <use xlink:href="#DejaVuSans-73" x="1304.199219"/>
     <use xlink:href="#DejaVuSans-6f" x="1356.298828"/>
     <use xlink:href="#DejaVuSans-6c" x="1417.480469"/>
     <use xlink:href="#DejaVuSans-65" x="1445.263672"/>
     <use xlink:href="#DejaVuSans-75" x="1506.787109"/>
     <use xlink:href="#DejaVuSans-63" x="1570.166016"/>
     <use xlink:href="#DejaVuSans-69" x="1625.146484"/>
     <use xlink:href="#DejaVuSans-6e" x="1652.929688"/>
     <use xlink:href="#DejaVuSans-3b" x="1716.308594"/>
     <use xlink:href="#DejaVuSans-20" x="1750"/>
     <use xlink:href="#DejaVuSans-54" x="1781.787109"/>
     <use xlink:href="#DejaVuSans-68" x="1842.871094"/>
     <use xlink:href="#DejaVuSans-72" x="1906.25"/>
     <use xlink:href="#DejaVuSans-65" x="1945.113281"/>
     <use xlink:href="#DejaVuSans-6f" x="2006.636719"/>
     <use xlink:href="#DejaVuSans-6e" x="2067.818359"/>
     <use xlink:href="#DejaVuSans-69" x="2131.197266"/>
     <use xlink:href="#DejaVuSans-6e" x="2158.980469"/>
     <use xlink:href="#DejaVuSans-3b" x="2222.359375"/>
     <use xlink:href="#DejaVuSans-20" x="2256.050781"/>
     <use xlink:href="#DejaVuSans-54" x="2287.837891"/>
     <use xlink:href="#DejaVuSans-72" x="2334.171875"/>
     <use xlink:href="#DejaVuSans-79" x="2375.285156"/>
     <use xlink:href="#DejaVuSans-70" x="2434.464844"/>
     <use xlink:href="#DejaVuSans-74" x="2497.941406"/>
     <use xlink:href="#DejaVuSans-6f" x="2537.150391"/>
     <use xlink:href="#DejaVuSans-70" x="2598.332031"/>
     <use xlink:href="#DejaVuSans-68" x="2661.808594"/>
     <use xlink:href="#DejaVuSans-61" x="2725.1875"/>
     <use xlink:href="#DejaVuSans-6e" x="2786.466797"/>
     <use xlink:href="#DejaVuSans-3b" x="2849.845703"/>
     <use xlink:href="#DejaVuSans-20" x="2883.537109"/>
     <use xlink:href="#DejaVuSans-50" x="2915.324219"/>
     <use xlink:href="#DejaVuSans-68" x="2975.626953"/>
     <use xlink:href="#DejaVuSans-65" x="3039.005859"/>
     <use xlink:href="#DejaVuSans-6e" x="3100.529297"/>
     <use xlink:href="#DejaVuSans-79" x="3163.908203"/>
     <use xlink:href="#DejaVuSans-6c" x="3223.087891"/>
     <use xlink:href="#DejaVuSans-61" x="3250.871094"/>
     <use xlink:href="#DejaVuSans-6c" x="3312.150391"/>
     <use xlink:href="#DejaVuSans-61" x="3339.933594"/>
     <use xlink:href="#DejaVuSans-6e" x="3401.212891"/>
     <use xlink:href="#DejaVuSans-69" x="3464.591797"/>
     <use xlink:href="#DejaVuSans-6e" x="3492.375"/>
     <use xlink:href="#DejaVuSans-3b" x="3555.753906"/>
     <use xlink:href="#DejaVuSans-20" x="3589.445312"/>
     <use xlink:href="#DejaVuSans-4d" x="3621.232422"/>
     <use xlink:href="#DejaVuSans-65" x="3707.511719"/>
     <use xlink:href="#DejaVuSans-74" x="3769.035156"/>
     <use xlink:href="#DejaVuSans-68" x="3808.244141"/>
     <use xlink:href="#DejaVuSans-69" x="3871.623047"/>
     <use xlink:href="#DejaVuSans-6f" x="3899.40625"/>
     <use xlink:href="#DejaVuSans-6e" x="3960.587891"/>
     <use xlink:href="#DejaVuSans-69" x="4023.966797"/>
     <use xlink:href="#DejaVuSans-6e" x="4051.75"/>
     <use xlink:href="#DejaVuSans-3b" x="4115.128906"/>
     <use xlink:href="#DejaVuSans-20" x="4148.820312"/>
     <use xlink:href="#DejaVuSans-48" x="4180.607422"/>
     <use xlink:href="#DejaVuSans-69" x="4255.802734"/>
     <use xlink:href="#DejaVuSans-73" x="4283.585938"/>
     <use xlink:href="#DejaVuSans-74" x="4335.685547"/>
     <use xlink:href="#DejaVuSans-69" x="4374.894531"/>
     <use xlink:href="#DejaVuSans-64" x="4402.677734"/>
     <use xlink:href="#DejaVuSans-69" x="4466.154297"/>
     <use xlink:href="#DejaVuSans-6e" x="4493.9375"/>
     <use xlink:href="#DejaVuSans-3b" x="4557.316406"/>
     <use xlink:href="#DejaVuSans-20" x="4591.007812"/>
     <use xlink:href="#DejaVuSans-41" x="4622.794922"/>
     <use xlink:href="#DejaVuSans-72" x="4691.203125"/>
     <use xlink:href="#DejaVuSans-67" x="4730.566406"/>
     <use xlink:href="#DejaVuSans-69" x="4794.042969"/>
     <use xlink:href="#DejaVuSans-6e" x="4821.826172"/>
     <use xlink:href="#DejaVuSans-69" x="4885.205078"/>
     <use xlink:href="#DejaVuSans-6e" x="4912.988281"/>
    </g>
   </g>
  </g>
 </g>
 <defs>
  <clipPath id="pafec3b6e1d">
   <rect x="72" y="51.84" width="446.4" height="332.64"/>
  </clipPath>
 </defs>
</svg>
