<?xml version="1.0" encoding="utf-8" standalone="no"?>
<!DOCTYPE svg PUBLIC "-//W3C//DTD SVG 1.1//EN"
  "http://www.w3.org/Graphics/SVG/1.1/DTD/svg11.dtd">
<svg xmlns:xlink="http://www.w3.org/1999/xlink" width="576pt" height="432pt" viewBox="0 0 576 432" xmlns="http://www.w3.org/2000/svg" version="1.1">
 <metadata>
  <rdf:RDF xmlns:dc="http://purl.org/dc/elements/1.1/" xmlns:cc="http://creativecommons.org/ns#" xmlns:rdf="http://www.w3.org/1999/02/22-rdf-syntax-ns#">
   <cc:Work>
    <dc:type rdf:resource="http://purl.org/dc/dcmitype/StillImage"/>
    <dc:date>2024-11-12T14:09:01.373462</dc:date>
    <dc:format>image/svg+xml</dc:format>
    <dc:creator>
     <cc:Agent>
      <dc:title>Matplotlib v3.7.5, https://matplotlib.org/</dc:title>
     </cc:Agent>
    </dc:creator>
   </cc:Work>
  </rdf:RDF>
 </metadata>
 <defs>
  <style type="text/css">*{stroke-linejoin: round; stroke-linecap: butt}</style>
 </defs>
 <g id="figure_1">
  <g id="patch_1">
   <path d="M 0 432 
L 576 432 
L 576 0 
L 0 0 
z
" style="fill: #ffffff"/>
  </g>
  <g id="axes_1">
   <g id="patch_2">
    <path d="M 72 384.48 
L 518.4 384.48 
L 518.4 51.84 
L 72 51.84 
z
" style="fill: #ffffff"/>
   </g>
   <g id="matplotlib.axis_1">
    <g id="xtick_1">
     <g id="line2d_1">
      <path d="M 92.290909 384.48 
L 92.290909 51.84 
" clip-path="url(#p0229c72314)" style="fill: none; stroke: #b0b0b0; stroke-width: 0.8; stroke-linecap: square"/>
     </g>
     <g id="line2d_2">
      <defs>
       <path id="m78c03d5f68" d="M 0 0 
L 0 3.5 
" style="stroke: #000000; stroke-width: 0.8"/>
      </defs>
      <g>
       <use xlink:href="#m78c03d5f68" x="92.290909" y="384.48" style="stroke: #000000; stroke-width: 0.8"/>
      </g>
     </g>
     <g id="text_1">
      <!-- 0.17 -->
      <g transform="translate(81.158097 399.078438) scale(0.1 -0.1)">
       <defs>
        <path id="DejaVuSans-30" d="M 2034 4250 
Q 1547 4250 1301 3770 
Q 1056 3291 1056 2328 
Q 1056 1369 1301 889 
Q 1547 409 2034 409 
Q 2525 409 2770 889 
Q 3016 1369 3016 2328 
Q 3016 3291 2770 3770 
Q 2525 4250 2034 4250 
z
M 2034 4750 
Q 2819 4750 3233 4129 
Q 3647 3509 3647 2328 
Q 3647 1150 3233 529 
Q 2819 -91 2034 -91 
Q 1250 -91 836 529 
Q 422 1150 422 2328 
Q 422 3509 836 4129 
Q 1250 4750 2034 4750 
z
" transform="scale(0.015625)"/>
        <path id="DejaVuSans-2e" d="M 684 794 
L 1344 794 
L 1344 0 
L 684 0 
L 684 794 
z
" transform="scale(0.015625)"/>
        <path id="DejaVuSans-31" d="M 794 531 
L 1825 531 
L 1825 4091 
L 703 3866 
L 703 4441 
L 1819 4666 
L 2450 4666 
L 2450 531 
L 3481 531 
L 3481 0 
L 794 0 
L 794 531 
z
" transform="scale(0.015625)"/>
        <path id="DejaVuSans-37" d="M 525 4666 
L 3525 4666 
L 3525 4397 
L 1831 0 
L 1172 0 
L 2766 4134 
L 525 4134 
L 525 4666 
z
" transform="scale(0.015625)"/>
       </defs>
       <use xlink:href="#DejaVuSans-30"/>
       <use xlink:href="#DejaVuSans-2e" x="63.623047"/>
       <use xlink:href="#DejaVuSans-31" x="95.410156"/>
       <use xlink:href="#DejaVuSans-37" x="159.033203"/>
      </g>
     </g>
    </g>
    <g id="xtick_2">
     <g id="line2d_3">
      <path d="M 156.451886 384.48 
L 156.451886 51.84 
" clip-path="url(#p0229c72314)" style="fill: none; stroke: #b0b0b0; stroke-width: 0.8; stroke-linecap: square"/>
     </g>
     <g id="line2d_4">
      <g>
       <use xlink:href="#m78c03d5f68" x="156.451886" y="384.48" style="stroke: #000000; stroke-width: 0.8"/>
      </g>
     </g>
     <g id="text_2">
      <!-- 6.83 -->
      <g transform="translate(145.319074 399.078438) scale(0.1 -0.1)">
       <defs>
        <path id="DejaVuSans-36" d="M 2113 2584 
Q 1688 2584 1439 2293 
Q 1191 2003 1191 1497 
Q 1191 994 1439 701 
Q 1688 409 2113 409 
Q 2538 409 2786 701 
Q 3034 994 3034 1497 
Q 3034 2003 2786 2293 
Q 2538 2584 2113 2584 
z
M 3366 4563 
L 3366 3988 
Q 3128 4100 2886 4159 
Q 2644 4219 2406 4219 
Q 1781 4219 1451 3797 
Q 1122 3375 1075 2522 
Q 1259 2794 1537 2939 
Q 1816 3084 2150 3084 
Q 2853 3084 3261 2657 
Q 3669 2231 3669 1497 
Q 3669 778 3244 343 
Q 2819 -91 2113 -91 
Q 1303 -91 875 529 
Q 447 1150 447 2328 
Q 447 3434 972 4092 
Q 1497 4750 2381 4750 
Q 2619 4750 2861 4703 
Q 3103 4656 3366 4563 
z
" transform="scale(0.015625)"/>
        <path id="DejaVuSans-38" d="M 2034 2216 
Q 1584 2216 1326 1975 
Q 1069 1734 1069 1313 
Q 1069 891 1326 650 
Q 1584 409 2034 409 
Q 2484 409 2743 651 
Q 3003 894 3003 1313 
Q 3003 1734 2745 1975 
Q 2488 2216 2034 2216 
z
M 1403 2484 
Q 997 2584 770 2862 
Q 544 3141 544 3541 
Q 544 4100 942 4425 
Q 1341 4750 2034 4750 
Q 2731 4750 3128 4425 
Q 3525 4100 3525 3541 
Q 3525 3141 3298 2862 
Q 3072 2584 2669 2484 
Q 3125 2378 3379 2068 
Q 3634 1759 3634 1313 
Q 3634 634 3220 271 
Q 2806 -91 2034 -91 
Q 1263 -91 848 271 
Q 434 634 434 1313 
Q 434 1759 690 2068 
Q 947 2378 1403 2484 
z
M 1172 3481 
Q 1172 3119 1398 2916 
Q 1625 2713 2034 2713 
Q 2441 2713 2670 2916 
Q 2900 3119 2900 3481 
Q 2900 3844 2670 4047 
Q 2441 4250 2034 4250 
Q 1625 4250 1398 4047 
Q 1172 3844 1172 3481 
z
" transform="scale(0.015625)"/>
        <path id="DejaVuSans-33" d="M 2597 2516 
Q 3050 2419 3304 2112 
Q 3559 1806 3559 1356 
Q 3559 666 3084 287 
Q 2609 -91 1734 -91 
Q 1441 -91 1130 -33 
Q 819 25 488 141 
L 488 750 
Q 750 597 1062 519 
Q 1375 441 1716 441 
Q 2309 441 2620 675 
Q 2931 909 2931 1356 
Q 2931 1769 2642 2001 
Q 2353 2234 1838 2234 
L 1294 2234 
L 1294 2753 
L 1863 2753 
Q 2328 2753 2575 2939 
Q 2822 3125 2822 3475 
Q 2822 3834 2567 4026 
Q 2313 4219 1838 4219 
Q 1578 4219 1281 4162 
Q 984 4106 628 3988 
L 628 4550 
Q 988 4650 1302 4700 
Q 1616 4750 1894 4750 
Q 2613 4750 3031 4423 
Q 3450 4097 3450 3541 
Q 3450 3153 3228 2886 
Q 3006 2619 2597 2516 
z
" transform="scale(0.015625)"/>
       </defs>
       <use xlink:href="#DejaVuSans-36"/>
       <use xlink:href="#DejaVuSans-2e" x="63.623047"/>
       <use xlink:href="#DejaVuSans-38" x="95.410156"/>
       <use xlink:href="#DejaVuSans-33" x="159.033203"/>
      </g>
     </g>
    </g>
    <g id="xtick_3">
     <g id="line2d_5">
      <path d="M 220.612864 384.48 
L 220.612864 51.84 
" clip-path="url(#p0229c72314)" style="fill: none; stroke: #b0b0b0; stroke-width: 0.8; stroke-linecap: square"/>
     </g>
     <g id="line2d_6">
      <g>
       <use xlink:href="#m78c03d5f68" x="220.612864" y="384.48" style="stroke: #000000; stroke-width: 0.8"/>
      </g>
     </g>
     <g id="text_3">
      <!-- 13.5 -->
      <g transform="translate(209.480051 399.078438) scale(0.1 -0.1)">
       <defs>
        <path id="DejaVuSans-35" d="M 691 4666 
L 3169 4666 
L 3169 4134 
L 1269 4134 
L 1269 2991 
Q 1406 3038 1543 3061 
Q 1681 3084 1819 3084 
Q 2600 3084 3056 2656 
Q 3513 2228 3513 1497 
Q 3513 744 3044 326 
Q 2575 -91 1722 -91 
Q 1428 -91 1123 -41 
Q 819 9 494 109 
L 494 744 
Q 775 591 1075 516 
Q 1375 441 1709 441 
Q 2250 441 2565 725 
Q 2881 1009 2881 1497 
Q 2881 1984 2565 2268 
Q 2250 2553 1709 2553 
Q 1456 2553 1204 2497 
Q 953 2441 691 2322 
L 691 4666 
z
" transform="scale(0.015625)"/>
       </defs>
       <use xlink:href="#DejaVuSans-31"/>
       <use xlink:href="#DejaVuSans-33" x="63.623047"/>
       <use xlink:href="#DejaVuSans-2e" x="127.246094"/>
       <use xlink:href="#DejaVuSans-35" x="159.033203"/>
      </g>
     </g>
    </g>
    <g id="xtick_4">
     <g id="line2d_7">
      <path d="M 284.773841 384.48 
L 284.773841 51.84 
" clip-path="url(#p0229c72314)" style="fill: none; stroke: #b0b0b0; stroke-width: 0.8; stroke-linecap: square"/>
     </g>
     <g id="line2d_8">
      <g>
       <use xlink:href="#m78c03d5f68" x="284.773841" y="384.48" style="stroke: #000000; stroke-width: 0.8"/>
      </g>
     </g>
     <g id="text_4">
      <!-- 20.17 -->
      <g transform="translate(270.459779 399.078438) scale(0.1 -0.1)">
       <defs>
        <path id="DejaVuSans-32" d="M 1228 531 
L 3431 531 
L 3431 0 
L 469 0 
L 469 531 
Q 828 903 1448 1529 
Q 2069 2156 2228 2338 
Q 2531 2678 2651 2914 
Q 2772 3150 2772 3378 
Q 2772 3750 2511 3984 
Q 2250 4219 1831 4219 
Q 1534 4219 1204 4116 
Q 875 4013 500 3803 
L 500 4441 
Q 881 4594 1212 4672 
Q 1544 4750 1819 4750 
Q 2544 4750 2975 4387 
Q 3406 4025 3406 3419 
Q 3406 3131 3298 2873 
Q 3191 2616 2906 2266 
Q 2828 2175 2409 1742 
Q 1991 1309 1228 531 
z
" transform="scale(0.015625)"/>
       </defs>
       <use xlink:href="#DejaVuSans-32"/>
       <use xlink:href="#DejaVuSans-30" x="63.623047"/>
       <use xlink:href="#DejaVuSans-2e" x="127.246094"/>
       <use xlink:href="#DejaVuSans-31" x="159.033203"/>
       <use xlink:href="#DejaVuSans-37" x="222.65625"/>
      </g>
     </g>
    </g>
    <g id="xtick_5">
     <g id="line2d_9">
      <path d="M 348.934819 384.48 
L 348.934819 51.84 
" clip-path="url(#p0229c72314)" style="fill: none; stroke: #b0b0b0; stroke-width: 0.8; stroke-linecap: square"/>
     </g>
     <g id="line2d_10">
      <g>
       <use xlink:href="#m78c03d5f68" x="348.934819" y="384.48" style="stroke: #000000; stroke-width: 0.8"/>
      </g>
     </g>
     <g id="text_5">
      <!-- 26.83 -->
      <g transform="translate(334.620756 399.078438) scale(0.1 -0.1)">
       <use xlink:href="#DejaVuSans-32"/>
       <use xlink:href="#DejaVuSans-36" x="63.623047"/>
       <use xlink:href="#DejaVuSans-2e" x="127.246094"/>
       <use xlink:href="#DejaVuSans-38" x="159.033203"/>
       <use xlink:href="#DejaVuSans-33" x="222.65625"/>
      </g>
     </g>
    </g>
    <g id="xtick_6">
     <g id="line2d_11">
      <path d="M 413.095796 384.48 
L 413.095796 51.84 
" clip-path="url(#p0229c72314)" style="fill: none; stroke: #b0b0b0; stroke-width: 0.8; stroke-linecap: square"/>
     </g>
     <g id="line2d_12">
      <g>
       <use xlink:href="#m78c03d5f68" x="413.095796" y="384.48" style="stroke: #000000; stroke-width: 0.8"/>
      </g>
     </g>
     <g id="text_6">
      <!-- 33.5 -->
      <g transform="translate(401.962983 399.078438) scale(0.1 -0.1)">
       <use xlink:href="#DejaVuSans-33"/>
       <use xlink:href="#DejaVuSans-33" x="63.623047"/>
       <use xlink:href="#DejaVuSans-2e" x="127.246094"/>
       <use xlink:href="#DejaVuSans-35" x="159.033203"/>
      </g>
     </g>
    </g>
    <g id="xtick_7">
     <g id="line2d_13">
      <path d="M 477.256773 384.48 
L 477.256773 51.84 
" clip-path="url(#p0229c72314)" style="fill: none; stroke: #b0b0b0; stroke-width: 0.8; stroke-linecap: square"/>
     </g>
     <g id="line2d_14">
      <g>
       <use xlink:href="#m78c03d5f68" x="477.256773" y="384.48" style="stroke: #000000; stroke-width: 0.8"/>
      </g>
     </g>
     <g id="text_7">
      <!-- 40.17 -->
      <g transform="translate(462.942711 399.078438) scale(0.1 -0.1)">
       <defs>
        <path id="DejaVuSans-34" d="M 2419 4116 
L 825 1625 
L 2419 1625 
L 2419 4116 
z
M 2253 4666 
L 3047 4666 
L 3047 1625 
L 3713 1625 
L 3713 1100 
L 3047 1100 
L 3047 0 
L 2419 0 
L 2419 1100 
L 313 1100 
L 313 1709 
L 2253 4666 
z
" transform="scale(0.015625)"/>
       </defs>
       <use xlink:href="#DejaVuSans-34"/>
       <use xlink:href="#DejaVuSans-30" x="63.623047"/>
       <use xlink:href="#DejaVuSans-2e" x="127.246094"/>
       <use xlink:href="#DejaVuSans-31" x="159.033203"/>
       <use xlink:href="#DejaVuSans-37" x="222.65625"/>
      </g>
     </g>
    </g>
    <g id="text_8">
     <!-- time in hours [h] -->
     <g transform="translate(253.451562 412.756563) scale(0.1 -0.1)">
      <defs>
       <path id="DejaVuSans-74" d="M 1172 4494 
L 1172 3500 
L 2356 3500 
L 2356 3053 
L 1172 3053 
L 1172 1153 
Q 1172 725 1289 603 
Q 1406 481 1766 481 
L 2356 481 
L 2356 0 
L 1766 0 
Q 1100 0 847 248 
Q 594 497 594 1153 
L 594 3053 
L 172 3053 
L 172 3500 
L 594 3500 
L 594 4494 
L 1172 4494 
z
" transform="scale(0.015625)"/>
       <path id="DejaVuSans-69" d="M 603 3500 
L 1178 3500 
L 1178 0 
L 603 0 
L 603 3500 
z
M 603 4863 
L 1178 4863 
L 1178 4134 
L 603 4134 
L 603 4863 
z
" transform="scale(0.015625)"/>
       <path id="DejaVuSans-6d" d="M 3328 2828 
Q 3544 3216 3844 3400 
Q 4144 3584 4550 3584 
Q 5097 3584 5394 3201 
Q 5691 2819 5691 2113 
L 5691 0 
L 5113 0 
L 5113 2094 
Q 5113 2597 4934 2840 
Q 4756 3084 4391 3084 
Q 3944 3084 3684 2787 
Q 3425 2491 3425 1978 
L 3425 0 
L 2847 0 
L 2847 2094 
Q 2847 2600 2669 2842 
Q 2491 3084 2119 3084 
Q 1678 3084 1418 2786 
Q 1159 2488 1159 1978 
L 1159 0 
L 581 0 
L 581 3500 
L 1159 3500 
L 1159 2956 
Q 1356 3278 1631 3431 
Q 1906 3584 2284 3584 
Q 2666 3584 2933 3390 
Q 3200 3197 3328 2828 
z
" transform="scale(0.015625)"/>
       <path id="DejaVuSans-65" d="M 3597 1894 
L 3597 1613 
L 953 1613 
Q 991 1019 1311 708 
Q 1631 397 2203 397 
Q 2534 397 2845 478 
Q 3156 559 3463 722 
L 3463 178 
Q 3153 47 2828 -22 
Q 2503 -91 2169 -91 
Q 1331 -91 842 396 
Q 353 884 353 1716 
Q 353 2575 817 3079 
Q 1281 3584 2069 3584 
Q 2775 3584 3186 3129 
Q 3597 2675 3597 1894 
z
M 3022 2063 
Q 3016 2534 2758 2815 
Q 2500 3097 2075 3097 
Q 1594 3097 1305 2825 
Q 1016 2553 972 2059 
L 3022 2063 
z
" transform="scale(0.015625)"/>
       <path id="DejaVuSans-20" transform="scale(0.015625)"/>
       <path id="DejaVuSans-6e" d="M 3513 2113 
L 3513 0 
L 2938 0 
L 2938 2094 
Q 2938 2591 2744 2837 
Q 2550 3084 2163 3084 
Q 1697 3084 1428 2787 
Q 1159 2491 1159 1978 
L 1159 0 
L 581 0 
L 581 3500 
L 1159 3500 
L 1159 2956 
Q 1366 3272 1645 3428 
Q 1925 3584 2291 3584 
Q 2894 3584 3203 3211 
Q 3513 2838 3513 2113 
z
" transform="scale(0.015625)"/>
       <path id="DejaVuSans-68" d="M 3513 2113 
L 3513 0 
L 2938 0 
L 2938 2094 
Q 2938 2591 2744 2837 
Q 2550 3084 2163 3084 
Q 1697 3084 1428 2787 
Q 1159 2491 1159 1978 
L 1159 0 
L 581 0 
L 581 4863 
L 1159 4863 
L 1159 2956 
Q 1366 3272 1645 3428 
Q 1925 3584 2291 3584 
Q 2894 3584 3203 3211 
Q 3513 2838 3513 2113 
z
" transform="scale(0.015625)"/>
       <path id="DejaVuSans-6f" d="M 1959 3097 
Q 1497 3097 1228 2736 
Q 959 2375 959 1747 
Q 959 1119 1226 758 
Q 1494 397 1959 397 
Q 2419 397 2687 759 
Q 2956 1122 2956 1747 
Q 2956 2369 2687 2733 
Q 2419 3097 1959 3097 
z
M 1959 3584 
Q 2709 3584 3137 3096 
Q 3566 2609 3566 1747 
Q 3566 888 3137 398 
Q 2709 -91 1959 -91 
Q 1206 -91 779 398 
Q 353 888 353 1747 
Q 353 2609 779 3096 
Q 1206 3584 1959 3584 
z
" transform="scale(0.015625)"/>
       <path id="DejaVuSans-75" d="M 544 1381 
L 544 3500 
L 1119 3500 
L 1119 1403 
Q 1119 906 1312 657 
Q 1506 409 1894 409 
Q 2359 409 2629 706 
Q 2900 1003 2900 1516 
L 2900 3500 
L 3475 3500 
L 3475 0 
L 2900 0 
L 2900 538 
Q 2691 219 2414 64 
Q 2138 -91 1772 -91 
Q 1169 -91 856 284 
Q 544 659 544 1381 
z
M 1991 3584 
L 1991 3584 
z
" transform="scale(0.015625)"/>
       <path id="DejaVuSans-72" d="M 2631 2963 
Q 2534 3019 2420 3045 
Q 2306 3072 2169 3072 
Q 1681 3072 1420 2755 
Q 1159 2438 1159 1844 
L 1159 0 
L 581 0 
L 581 3500 
L 1159 3500 
L 1159 2956 
Q 1341 3275 1631 3429 
Q 1922 3584 2338 3584 
Q 2397 3584 2469 3576 
Q 2541 3569 2628 3553 
L 2631 2963 
z
" transform="scale(0.015625)"/>
       <path id="DejaVuSans-73" d="M 2834 3397 
L 2834 2853 
Q 2591 2978 2328 3040 
Q 2066 3103 1784 3103 
Q 1356 3103 1142 2972 
Q 928 2841 928 2578 
Q 928 2378 1081 2264 
Q 1234 2150 1697 2047 
L 1894 2003 
Q 2506 1872 2764 1633 
Q 3022 1394 3022 966 
Q 3022 478 2636 193 
Q 2250 -91 1575 -91 
Q 1294 -91 989 -36 
Q 684 19 347 128 
L 347 722 
Q 666 556 975 473 
Q 1284 391 1588 391 
Q 1994 391 2212 530 
Q 2431 669 2431 922 
Q 2431 1156 2273 1281 
Q 2116 1406 1581 1522 
L 1381 1569 
Q 847 1681 609 1914 
Q 372 2147 372 2553 
Q 372 3047 722 3315 
Q 1072 3584 1716 3584 
Q 2034 3584 2315 3537 
Q 2597 3491 2834 3397 
z
" transform="scale(0.015625)"/>
       <path id="DejaVuSans-5b" d="M 550 4863 
L 1875 4863 
L 1875 4416 
L 1125 4416 
L 1125 -397 
L 1875 -397 
L 1875 -844 
L 550 -844 
L 550 4863 
z
" transform="scale(0.015625)"/>
       <path id="DejaVuSans-5d" d="M 1947 4863 
L 1947 -844 
L 622 -844 
L 622 -397 
L 1369 -397 
L 1369 4416 
L 622 4416 
L 622 4863 
L 1947 4863 
z
" transform="scale(0.015625)"/>
      </defs>
      <use xlink:href="#DejaVuSans-74"/>
      <use xlink:href="#DejaVuSans-69" x="39.208984"/>
      <use xlink:href="#DejaVuSans-6d" x="66.992188"/>
      <use xlink:href="#DejaVuSans-65" x="164.404297"/>
      <use xlink:href="#DejaVuSans-20" x="225.927734"/>
      <use xlink:href="#DejaVuSans-69" x="257.714844"/>
      <use xlink:href="#DejaVuSans-6e" x="285.498047"/>
      <use xlink:href="#DejaVuSans-20" x="348.876953"/>
      <use xlink:href="#DejaVuSans-68" x="380.664062"/>
      <use xlink:href="#DejaVuSans-6f" x="444.042969"/>
      <use xlink:href="#DejaVuSans-75" x="505.224609"/>
      <use xlink:href="#DejaVuSans-72" x="568.603516"/>
      <use xlink:href="#DejaVuSans-73" x="609.716797"/>
      <use xlink:href="#DejaVuSans-20" x="661.816406"/>
      <use xlink:href="#DejaVuSans-5b" x="693.603516"/>
      <use xlink:href="#DejaVuSans-68" x="732.617188"/>
      <use xlink:href="#DejaVuSans-5d" x="795.996094"/>
     </g>
    </g>
   </g>
   <g id="matplotlib.axis_2">
    <g id="ytick_1">
     <g id="line2d_15">
      <path d="M 72 372.140712 
L 518.4 372.140712 
" clip-path="url(#p0229c72314)" style="fill: none; stroke: #b0b0b0; stroke-width: 0.8; stroke-linecap: square"/>
     </g>
     <g id="line2d_16">
      <defs>
       <path id="m52348944d4" d="M 0 0 
L -3.5 0 
" style="stroke: #000000; stroke-width: 0.8"/>
      </defs>
      <g>
       <use xlink:href="#m52348944d4" x="72" y="372.140712" style="stroke: #000000; stroke-width: 0.8"/>
      </g>
     </g>
     <g id="text_9">
      <!-- 10000 -->
      <g transform="translate(33.1875 375.93993) scale(0.1 -0.1)">
       <use xlink:href="#DejaVuSans-31"/>
       <use xlink:href="#DejaVuSans-30" x="63.623047"/>
       <use xlink:href="#DejaVuSans-30" x="127.246094"/>
       <use xlink:href="#DejaVuSans-30" x="190.869141"/>
       <use xlink:href="#DejaVuSans-30" x="254.492188"/>
      </g>
     </g>
    </g>
    <g id="ytick_2">
     <g id="line2d_17">
      <path d="M 72 333.351091 
L 518.4 333.351091 
" clip-path="url(#p0229c72314)" style="fill: none; stroke: #b0b0b0; stroke-width: 0.8; stroke-linecap: square"/>
     </g>
     <g id="line2d_18">
      <g>
       <use xlink:href="#m52348944d4" x="72" y="333.351091" style="stroke: #000000; stroke-width: 0.8"/>
      </g>
     </g>
     <g id="text_10">
      <!-- 20000 -->
      <g transform="translate(33.1875 337.15031) scale(0.1 -0.1)">
       <use xlink:href="#DejaVuSans-32"/>
       <use xlink:href="#DejaVuSans-30" x="63.623047"/>
       <use xlink:href="#DejaVuSans-30" x="127.246094"/>
       <use xlink:href="#DejaVuSans-30" x="190.869141"/>
       <use xlink:href="#DejaVuSans-30" x="254.492188"/>
      </g>
     </g>
    </g>
    <g id="ytick_3">
     <g id="line2d_19">
      <path d="M 72 294.561471 
L 518.4 294.561471 
" clip-path="url(#p0229c72314)" style="fill: none; stroke: #b0b0b0; stroke-width: 0.8; stroke-linecap: square"/>
     </g>
     <g id="line2d_20">
      <g>
       <use xlink:href="#m52348944d4" x="72" y="294.561471" style="stroke: #000000; stroke-width: 0.8"/>
      </g>
     </g>
     <g id="text_11">
      <!-- 30000 -->
      <g transform="translate(33.1875 298.36069) scale(0.1 -0.1)">
       <use xlink:href="#DejaVuSans-33"/>
       <use xlink:href="#DejaVuSans-30" x="63.623047"/>
       <use xlink:href="#DejaVuSans-30" x="127.246094"/>
       <use xlink:href="#DejaVuSans-30" x="190.869141"/>
       <use xlink:href="#DejaVuSans-30" x="254.492188"/>
      </g>
     </g>
    </g>
    <g id="ytick_4">
     <g id="line2d_21">
      <path d="M 72 255.771851 
L 518.4 255.771851 
" clip-path="url(#p0229c72314)" style="fill: none; stroke: #b0b0b0; stroke-width: 0.8; stroke-linecap: square"/>
     </g>
     <g id="line2d_22">
      <g>
       <use xlink:href="#m52348944d4" x="72" y="255.771851" style="stroke: #000000; stroke-width: 0.8"/>
      </g>
     </g>
     <g id="text_12">
      <!-- 40000 -->
      <g transform="translate(33.1875 259.57107) scale(0.1 -0.1)">
       <use xlink:href="#DejaVuSans-34"/>
       <use xlink:href="#DejaVuSans-30" x="63.623047"/>
       <use xlink:href="#DejaVuSans-30" x="127.246094"/>
       <use xlink:href="#DejaVuSans-30" x="190.869141"/>
       <use xlink:href="#DejaVuSans-30" x="254.492188"/>
      </g>
     </g>
    </g>
    <g id="ytick_5">
     <g id="line2d_23">
      <path d="M 72 216.982231 
L 518.4 216.982231 
" clip-path="url(#p0229c72314)" style="fill: none; stroke: #b0b0b0; stroke-width: 0.8; stroke-linecap: square"/>
     </g>
     <g id="line2d_24">
      <g>
       <use xlink:href="#m52348944d4" x="72" y="216.982231" style="stroke: #000000; stroke-width: 0.8"/>
      </g>
     </g>
     <g id="text_13">
      <!-- 50000 -->
      <g transform="translate(33.1875 220.78145) scale(0.1 -0.1)">
       <use xlink:href="#DejaVuSans-35"/>
       <use xlink:href="#DejaVuSans-30" x="63.623047"/>
       <use xlink:href="#DejaVuSans-30" x="127.246094"/>
       <use xlink:href="#DejaVuSans-30" x="190.869141"/>
       <use xlink:href="#DejaVuSans-30" x="254.492188"/>
      </g>
     </g>
    </g>
    <g id="ytick_6">
     <g id="line2d_25">
      <path d="M 72 178.192611 
L 518.4 178.192611 
" clip-path="url(#p0229c72314)" style="fill: none; stroke: #b0b0b0; stroke-width: 0.8; stroke-linecap: square"/>
     </g>
     <g id="line2d_26">
      <g>
       <use xlink:href="#m52348944d4" x="72" y="178.192611" style="stroke: #000000; stroke-width: 0.8"/>
      </g>
     </g>
     <g id="text_14">
      <!-- 60000 -->
      <g transform="translate(33.1875 181.991829) scale(0.1 -0.1)">
       <use xlink:href="#DejaVuSans-36"/>
       <use xlink:href="#DejaVuSans-30" x="63.623047"/>
       <use xlink:href="#DejaVuSans-30" x="127.246094"/>
       <use xlink:href="#DejaVuSans-30" x="190.869141"/>
       <use xlink:href="#DejaVuSans-30" x="254.492188"/>
      </g>
     </g>
    </g>
    <g id="ytick_7">
     <g id="line2d_27">
      <path d="M 72 139.40299 
L 518.4 139.40299 
" clip-path="url(#p0229c72314)" style="fill: none; stroke: #b0b0b0; stroke-width: 0.8; stroke-linecap: square"/>
     </g>
     <g id="line2d_28">
      <g>
       <use xlink:href="#m52348944d4" x="72" y="139.40299" style="stroke: #000000; stroke-width: 0.8"/>
      </g>
     </g>
     <g id="text_15">
      <!-- 70000 -->
      <g transform="translate(33.1875 143.202209) scale(0.1 -0.1)">
       <use xlink:href="#DejaVuSans-37"/>
       <use xlink:href="#DejaVuSans-30" x="63.623047"/>
       <use xlink:href="#DejaVuSans-30" x="127.246094"/>
       <use xlink:href="#DejaVuSans-30" x="190.869141"/>
       <use xlink:href="#DejaVuSans-30" x="254.492188"/>
      </g>
     </g>
    </g>
    <g id="ytick_8">
     <g id="line2d_29">
      <path d="M 72 100.61337 
L 518.4 100.61337 
" clip-path="url(#p0229c72314)" style="fill: none; stroke: #b0b0b0; stroke-width: 0.8; stroke-linecap: square"/>
     </g>
     <g id="line2d_30">
      <g>
       <use xlink:href="#m52348944d4" x="72" y="100.61337" style="stroke: #000000; stroke-width: 0.8"/>
      </g>
     </g>
     <g id="text_16">
      <!-- 80000 -->
      <g transform="translate(33.1875 104.412589) scale(0.1 -0.1)">
       <use xlink:href="#DejaVuSans-38"/>
       <use xlink:href="#DejaVuSans-30" x="63.623047"/>
       <use xlink:href="#DejaVuSans-30" x="127.246094"/>
       <use xlink:href="#DejaVuSans-30" x="190.869141"/>
       <use xlink:href="#DejaVuSans-30" x="254.492188"/>
      </g>
     </g>
    </g>
    <g id="ytick_9">
     <g id="line2d_31">
      <path d="M 72 61.82375 
L 518.4 61.82375 
" clip-path="url(#p0229c72314)" style="fill: none; stroke: #b0b0b0; stroke-width: 0.8; stroke-linecap: square"/>
     </g>
     <g id="line2d_32">
      <g>
       <use xlink:href="#m52348944d4" x="72" y="61.82375" style="stroke: #000000; stroke-width: 0.8"/>
      </g>
     </g>
     <g id="text_17">
      <!-- 90000 -->
      <g transform="translate(33.1875 65.622969) scale(0.1 -0.1)">
       <defs>
        <path id="DejaVuSans-39" d="M 703 97 
L 703 672 
Q 941 559 1184 500 
Q 1428 441 1663 441 
Q 2288 441 2617 861 
Q 2947 1281 2994 2138 
Q 2813 1869 2534 1725 
Q 2256 1581 1919 1581 
Q 1219 1581 811 2004 
Q 403 2428 403 3163 
Q 403 3881 828 4315 
Q 1253 4750 1959 4750 
Q 2769 4750 3195 4129 
Q 3622 3509 3622 2328 
Q 3622 1225 3098 567 
Q 2575 -91 1691 -91 
Q 1453 -91 1209 -44 
Q 966 3 703 97 
z
M 1959 2075 
Q 2384 2075 2632 2365 
Q 2881 2656 2881 3163 
Q 2881 3666 2632 3958 
Q 2384 4250 1959 4250 
Q 1534 4250 1286 3958 
Q 1038 3666 1038 3163 
Q 1038 2656 1286 2365 
Q 1534 2075 1959 2075 
z
" transform="scale(0.015625)"/>
       </defs>
       <use xlink:href="#DejaVuSans-39"/>
       <use xlink:href="#DejaVuSans-30" x="63.623047"/>
       <use xlink:href="#DejaVuSans-30" x="127.246094"/>
       <use xlink:href="#DejaVuSans-30" x="190.869141"/>
       <use xlink:href="#DejaVuSans-30" x="254.492188"/>
      </g>
     </g>
    </g>
    <g id="text_18">
     <!-- blank corrected GFP RFU -->
     <g transform="translate(27.107812 280.149062) rotate(-90) scale(0.1 -0.1)">
      <defs>
       <path id="DejaVuSans-62" d="M 3116 1747 
Q 3116 2381 2855 2742 
Q 2594 3103 2138 3103 
Q 1681 3103 1420 2742 
Q 1159 2381 1159 1747 
Q 1159 1113 1420 752 
Q 1681 391 2138 391 
Q 2594 391 2855 752 
Q 3116 1113 3116 1747 
z
M 1159 2969 
Q 1341 3281 1617 3432 
Q 1894 3584 2278 3584 
Q 2916 3584 3314 3078 
Q 3713 2572 3713 1747 
Q 3713 922 3314 415 
Q 2916 -91 2278 -91 
Q 1894 -91 1617 61 
Q 1341 213 1159 525 
L 1159 0 
L 581 0 
L 581 4863 
L 1159 4863 
L 1159 2969 
z
" transform="scale(0.015625)"/>
       <path id="DejaVuSans-6c" d="M 603 4863 
L 1178 4863 
L 1178 0 
L 603 0 
L 603 4863 
z
" transform="scale(0.015625)"/>
       <path id="DejaVuSans-61" d="M 2194 1759 
Q 1497 1759 1228 1600 
Q 959 1441 959 1056 
Q 959 750 1161 570 
Q 1363 391 1709 391 
Q 2188 391 2477 730 
Q 2766 1069 2766 1631 
L 2766 1759 
L 2194 1759 
z
M 3341 1997 
L 3341 0 
L 2766 0 
L 2766 531 
Q 2569 213 2275 61 
Q 1981 -91 1556 -91 
Q 1019 -91 701 211 
Q 384 513 384 1019 
Q 384 1609 779 1909 
Q 1175 2209 1959 2209 
L 2766 2209 
L 2766 2266 
Q 2766 2663 2505 2880 
Q 2244 3097 1772 3097 
Q 1472 3097 1187 3025 
Q 903 2953 641 2809 
L 641 3341 
Q 956 3463 1253 3523 
Q 1550 3584 1831 3584 
Q 2591 3584 2966 3190 
Q 3341 2797 3341 1997 
z
" transform="scale(0.015625)"/>
       <path id="DejaVuSans-6b" d="M 581 4863 
L 1159 4863 
L 1159 1991 
L 2875 3500 
L 3609 3500 
L 1753 1863 
L 3688 0 
L 2938 0 
L 1159 1709 
L 1159 0 
L 581 0 
L 581 4863 
z
" transform="scale(0.015625)"/>
       <path id="DejaVuSans-63" d="M 3122 3366 
L 3122 2828 
Q 2878 2963 2633 3030 
Q 2388 3097 2138 3097 
Q 1578 3097 1268 2742 
Q 959 2388 959 1747 
Q 959 1106 1268 751 
Q 1578 397 2138 397 
Q 2388 397 2633 464 
Q 2878 531 3122 666 
L 3122 134 
Q 2881 22 2623 -34 
Q 2366 -91 2075 -91 
Q 1284 -91 818 406 
Q 353 903 353 1747 
Q 353 2603 823 3093 
Q 1294 3584 2113 3584 
Q 2378 3584 2631 3529 
Q 2884 3475 3122 3366 
z
" transform="scale(0.015625)"/>
       <path id="DejaVuSans-64" d="M 2906 2969 
L 2906 4863 
L 3481 4863 
L 3481 0 
L 2906 0 
L 2906 525 
Q 2725 213 2448 61 
Q 2172 -91 1784 -91 
Q 1150 -91 751 415 
Q 353 922 353 1747 
Q 353 2572 751 3078 
Q 1150 3584 1784 3584 
Q 2172 3584 2448 3432 
Q 2725 3281 2906 2969 
z
M 947 1747 
Q 947 1113 1208 752 
Q 1469 391 1925 391 
Q 2381 391 2643 752 
Q 2906 1113 2906 1747 
Q 2906 2381 2643 2742 
Q 2381 3103 1925 3103 
Q 1469 3103 1208 2742 
Q 947 2381 947 1747 
z
" transform="scale(0.015625)"/>
       <path id="DejaVuSans-47" d="M 3809 666 
L 3809 1919 
L 2778 1919 
L 2778 2438 
L 4434 2438 
L 4434 434 
Q 4069 175 3628 42 
Q 3188 -91 2688 -91 
Q 1594 -91 976 548 
Q 359 1188 359 2328 
Q 359 3472 976 4111 
Q 1594 4750 2688 4750 
Q 3144 4750 3555 4637 
Q 3966 4525 4313 4306 
L 4313 3634 
Q 3963 3931 3569 4081 
Q 3175 4231 2741 4231 
Q 1884 4231 1454 3753 
Q 1025 3275 1025 2328 
Q 1025 1384 1454 906 
Q 1884 428 2741 428 
Q 3075 428 3337 486 
Q 3600 544 3809 666 
z
" transform="scale(0.015625)"/>
       <path id="DejaVuSans-46" d="M 628 4666 
L 3309 4666 
L 3309 4134 
L 1259 4134 
L 1259 2759 
L 3109 2759 
L 3109 2228 
L 1259 2228 
L 1259 0 
L 628 0 
L 628 4666 
z
" transform="scale(0.015625)"/>
       <path id="DejaVuSans-50" d="M 1259 4147 
L 1259 2394 
L 2053 2394 
Q 2494 2394 2734 2622 
Q 2975 2850 2975 3272 
Q 2975 3691 2734 3919 
Q 2494 4147 2053 4147 
L 1259 4147 
z
M 628 4666 
L 2053 4666 
Q 2838 4666 3239 4311 
Q 3641 3956 3641 3272 
Q 3641 2581 3239 2228 
Q 2838 1875 2053 1875 
L 1259 1875 
L 1259 0 
L 628 0 
L 628 4666 
z
" transform="scale(0.015625)"/>
       <path id="DejaVuSans-52" d="M 2841 2188 
Q 3044 2119 3236 1894 
Q 3428 1669 3622 1275 
L 4263 0 
L 3584 0 
L 2988 1197 
Q 2756 1666 2539 1819 
Q 2322 1972 1947 1972 
L 1259 1972 
L 1259 0 
L 628 0 
L 628 4666 
L 2053 4666 
Q 2853 4666 3247 4331 
Q 3641 3997 3641 3322 
Q 3641 2881 3436 2590 
Q 3231 2300 2841 2188 
z
M 1259 4147 
L 1259 2491 
L 2053 2491 
Q 2509 2491 2742 2702 
Q 2975 2913 2975 3322 
Q 2975 3731 2742 3939 
Q 2509 4147 2053 4147 
L 1259 4147 
z
" transform="scale(0.015625)"/>
       <path id="DejaVuSans-55" d="M 556 4666 
L 1191 4666 
L 1191 1831 
Q 1191 1081 1462 751 
Q 1734 422 2344 422 
Q 2950 422 3222 751 
Q 3494 1081 3494 1831 
L 3494 4666 
L 4128 4666 
L 4128 1753 
Q 4128 841 3676 375 
Q 3225 -91 2344 -91 
Q 1459 -91 1007 375 
Q 556 841 556 1753 
L 556 4666 
z
" transform="scale(0.015625)"/>
      </defs>
      <use xlink:href="#DejaVuSans-62"/>
      <use xlink:href="#DejaVuSans-6c" x="63.476562"/>
      <use xlink:href="#DejaVuSans-61" x="91.259766"/>
      <use xlink:href="#DejaVuSans-6e" x="152.539062"/>
      <use xlink:href="#DejaVuSans-6b" x="215.917969"/>
      <use xlink:href="#DejaVuSans-20" x="273.828125"/>
      <use xlink:href="#DejaVuSans-63" x="305.615234"/>
      <use xlink:href="#DejaVuSans-6f" x="360.595703"/>
      <use xlink:href="#DejaVuSans-72" x="421.777344"/>
      <use xlink:href="#DejaVuSans-72" x="461.140625"/>
      <use xlink:href="#DejaVuSans-65" x="500.003906"/>
      <use xlink:href="#DejaVuSans-63" x="561.527344"/>
      <use xlink:href="#DejaVuSans-74" x="616.507812"/>
      <use xlink:href="#DejaVuSans-65" x="655.716797"/>
      <use xlink:href="#DejaVuSans-64" x="717.240234"/>
      <use xlink:href="#DejaVuSans-20" x="780.716797"/>
      <use xlink:href="#DejaVuSans-47" x="812.503906"/>
      <use xlink:href="#DejaVuSans-46" x="889.994141"/>
      <use xlink:href="#DejaVuSans-50" x="947.513672"/>
      <use xlink:href="#DejaVuSans-20" x="1007.816406"/>
      <use xlink:href="#DejaVuSans-52" x="1039.603516"/>
      <use xlink:href="#DejaVuSans-46" x="1109.085938"/>
      <use xlink:href="#DejaVuSans-55" x="1166.605469"/>
     </g>
    </g>
   </g>
   <g id="line2d_33">
    <path d="M 92.290909 333.855861 
L 93.894934 335.810858 
L 95.498958 334.453221 
L 97.102982 334.608379 
L 98.707007 333.797676 
L 100.311031 333.417538 
L 101.915056 332.746478 
L 103.51908 332.40125 
L 106.727129 330.768207 
L 108.331153 330.388069 
L 111.539202 327.773648 
L 113.143227 327.350841 
L 114.747251 325.865199 
L 116.351276 324.654963 
L 117.9553 323.196473 
L 119.559324 321.109591 
L 121.163349 319.872203 
L 122.767373 317.556462 
L 124.371398 315.803171 
L 125.975422 314.220555 
L 127.579447 311.419944 
L 129.183471 310.08946 
L 130.787496 308.452538 
L 133.995544 302.789254 
L 135.599569 300.419208 
L 137.203593 298.549548 
L 138.807618 295.690753 
L 142.015667 290.931267 
L 145.223715 284.79087 
L 148.431764 279.236196 
L 150.035789 275.997263 
L 151.639813 273.669886 
L 153.243838 270.954613 
L 154.847862 267.343299 
L 156.451886 264.631904 
L 159.659935 258.627271 
L 161.26396 254.790978 
L 162.867984 251.734356 
L 164.472009 250.888742 
L 167.680057 249.787117 
L 169.284082 246.819711 
L 170.888106 245.147878 
L 172.492131 242.467515 
L 174.096155 239.209187 
L 175.70018 234.717349 
L 177.304204 229.725125 
L 180.512253 218.340372 
L 185.324326 204.306287 
L 186.928351 199.333458 
L 188.532375 193.94558 
L 190.1364 190.84241 
L 191.740424 186.649252 
L 193.344448 185.268342 
L 194.948473 184.989056 
L 198.156522 186.420393 
L 199.760546 186.404877 
L 201.364571 184.612797 
L 202.968595 183.328861 
L 204.572619 180.400244 
L 210.988717 162.781999 
L 212.592742 159.065953 
L 214.196766 153.115625 
L 215.800791 148.635424 
L 217.404815 142.805344 
L 219.008839 136.001645 
L 222.216888 125.198736 
L 225.424937 115.862074 
L 227.028962 111.463331 
L 228.632986 111.936565 
L 230.23701 114.132057 
L 231.841035 114.799239 
L 233.445059 117.851982 
L 235.049084 119.861284 
L 236.653108 120.291849 
L 238.257133 120.179359 
L 239.861157 118.945849 
L 241.465181 118.379521 
L 243.069206 114.884576 
L 244.67323 113.329112 
L 246.277255 111.230594 
L 247.881279 107.561095 
L 249.485304 104.353194 
L 251.089328 101.866779 
L 252.693352 98.790762 
L 254.297377 95.295818 
L 255.901401 91.21515 
L 257.505426 89.71787 
L 259.10945 90.020429 
L 260.713475 92.460296 
L 262.317499 94.523904 
L 263.921524 98.220555 
L 265.525548 104.155367 
L 267.129572 108.705389 
L 268.733597 112.413677 
L 270.337621 117.452449 
L 271.941646 116.808541 
L 273.54567 119.962137 
L 276.753719 118.515284 
L 278.357743 118.949728 
L 279.961768 117.584333 
L 281.565792 116.024991 
L 283.169817 117.122737 
L 284.773841 118.538558 
L 286.377866 120.493555 
L 287.98189 123.561814 
L 289.585914 130.125018 
L 291.189939 135.652538 
L 292.793963 145.043505 
L 294.397988 152.386381 
L 296.002012 160.885186 
L 297.606037 168.04575 
L 299.210061 174.252089 
L 300.814086 178.243541 
L 302.41811 180.264481 
L 304.022134 184.48867 
L 305.626159 186.389362 
L 307.230183 189.6826 
L 308.834208 191.971188 
L 310.438232 192.153499 
L 312.042257 193.057297 
L 313.646281 194.818346 
L 315.250305 195.919971 
L 316.85433 195.299337 
L 318.458354 197.013839 
L 321.666403 201.513434 
L 323.270428 204.058034 
L 324.874452 208.313255 
L 326.478476 210.652269 
L 328.082501 216.156516 
L 329.686525 219.806619 
L 331.29055 223.941593 
L 332.894574 226.214665 
L 334.498599 227.890376 
L 336.102623 229.038549 
L 339.310672 230.19448 
L 340.914696 230.031563 
L 342.518721 231.253436 
L 344.122745 231.50169 
L 345.72677 229.643667 
L 347.330794 230.807356 
L 348.934819 232.281361 
L 352.142867 234.279027 
L 355.350916 242.86317 
L 356.954941 246.237867 
L 358.558965 249.348794 
L 360.16299 252.91356 
L 361.767014 254.430234 
L 363.371038 256.850707 
L 364.975063 256.765369 
L 366.579087 258.165675 
L 368.183112 259.360395 
L 369.787136 260.326257 
L 371.391161 261.028349 
L 372.995185 261.92051 
L 374.599209 262.087305 
L 376.203234 264.150913 
L 377.807258 263.642769 
L 379.411283 264.756031 
L 381.015307 265.706377 
L 382.619332 267.886354 
L 384.223356 269.577581 
L 385.827381 271.45112 
L 387.431405 274.693932 
L 389.035429 278.836663 
L 392.243478 282.552709 
L 393.847503 284.348668 
L 395.451527 285.675273 
L 397.055552 287.195827 
L 398.659576 288.04144 
L 400.2636 289.957647 
L 401.867625 291.136852 
L 403.471649 292.622494 
L 405.075674 295.058483 
L 406.679698 296.342419 
L 408.283723 298.246989 
L 409.887747 300.527819 
L 411.491771 303.262487 
L 413.095796 306.257046 
L 414.69982 309.542527 
L 416.303845 312.079368 
L 417.907869 316.284163 
L 419.511894 319.181747 
L 421.115918 321.722467 
L 422.719943 323.634796 
L 424.323967 326.423769 
L 425.927991 327.614611 
L 427.532016 329.243775 
L 429.13604 330.713901 
L 430.740065 331.966806 
L 432.344089 332.447797 
L 433.948114 333.751129 
L 435.552138 335.252287 
L 437.156162 335.806979 
L 438.760187 336.528465 
L 440.364211 336.982304 
L 441.968236 337.847313 
L 443.57226 337.93265 
L 445.176285 338.19254 
L 446.780309 338.983848 
L 448.384333 340.097111 
L 449.988358 340.081595 
L 451.592382 340.558707 
L 453.196407 340.578102 
L 454.800431 340.779808 
L 456.404456 340.089353 
L 458.00848 339.616119 
L 459.612504 339.263134 
L 461.216529 338.429157 
L 462.820553 337.839555 
L 464.424578 336.92412 
L 466.028602 336.536223 
L 467.632627 335.973774 
L 469.236651 336.598287 
L 470.840676 335.69061 
L 472.4447 336.253059 
L 475.652749 335.946621 
L 478.860798 337.044367 
L 480.464822 337.831797 
L 482.068847 338.49122 
L 483.672871 338.592073 
L 485.276895 338.460189 
L 486.88092 337.765854 
L 488.484944 337.350805 
L 490.088969 337.121947 
L 491.692993 336.32288 
L 493.297018 335.372535 
L 496.505066 333.716218 
L 498.109091 334.402794 
L 498.109091 334.402794 
" clip-path="url(#p0229c72314)" style="fill: none; stroke: #008000; stroke-width: 1.5; stroke-linecap: square"/>
   </g>
   <g id="line2d_34">
    <path d="M 92.290909 334.821722 
L 93.894934 335.256166 
L 95.498958 334.685959 
L 97.102982 334.620016 
L 98.707007 333.553302 
L 100.311031 333.518391 
L 101.915056 333.347717 
L 103.51908 332.133602 
L 105.123105 331.706916 
L 106.727129 330.729417 
L 108.331153 329.511423 
L 109.935178 329.080858 
L 111.539202 328.382645 
L 114.747251 325.48894 
L 116.351276 324.426104 
L 121.163349 319.852808 
L 125.975422 314.177886 
L 127.579447 311.54795 
L 129.183471 310.322198 
L 130.787496 308.417628 
L 132.39152 305.291184 
L 133.995544 302.971565 
L 135.599569 301.381191 
L 140.411642 297.133727 
L 142.015667 294.821866 
L 143.619691 290.973936 
L 145.223715 287.738881 
L 146.82774 282.653562 
L 150.035789 276.687718 
L 151.639813 273.925897 
L 153.243838 271.679978 
L 154.847862 268.708694 
L 156.451886 265.155564 
L 158.055911 262.033 
L 159.659935 259.236268 
L 161.26396 255.617197 
L 162.867984 253.21224 
L 164.472009 255.648228 
L 166.076033 258.421686 
L 167.680057 257.777779 
L 169.284082 257.312303 
L 170.888106 258.499266 
L 172.492131 256.284378 
L 174.096155 253.576863 
L 175.70018 251.594713 
L 177.304204 247.583866 
L 178.908229 244.535002 
L 180.512253 240.733619 
L 182.116277 236.393061 
L 183.720302 230.772445 
L 185.324326 223.002884 
L 188.532375 209.407122 
L 190.1364 203.972696 
L 191.740424 197.572409 
L 194.948473 198.460691 
L 196.552497 201.369913 
L 198.156522 203.200783 
L 199.760546 204.387745 
L 201.364571 204.888131 
L 202.968595 204.612725 
L 204.572619 202.692639 
L 206.176644 200.508783 
L 207.780668 197.789631 
L 209.384693 194.608882 
L 210.988717 191.994462 
L 212.592742 188.220232 
L 214.196766 185.857944 
L 215.800791 182.99527 
L 217.404815 178.375426 
L 219.008839 175.889011 
L 222.216888 168.534499 
L 223.820913 165.16756 
L 225.424937 162.910004 
L 227.028962 159.399544 
L 228.632986 159.139653 
L 230.23701 158.352224 
L 231.841035 160.074483 
L 233.445059 162.157486 
L 235.049084 165.260655 
L 236.653108 167.906108 
L 238.257133 167.541485 
L 241.465181 168.123329 
L 243.069206 168.774995 
L 247.881279 164.748632 
L 249.485304 164.810696 
L 251.089328 164.186183 
L 252.693352 163.74786 
L 254.297377 163.476333 
L 257.505426 162.634598 
L 259.10945 163.340569 
L 262.317499 166.21488 
L 263.921524 168.650868 
L 265.525548 170.795934 
L 267.129572 175.59421 
L 270.337621 183.81761 
L 271.941646 185.3498 
L 273.54567 188.856381 
L 275.149695 189.822243 
L 276.753719 190.636825 
L 278.357743 194.643793 
L 279.961768 195.062721 
L 281.565792 196.944017 
L 283.169817 199.476979 
L 286.377866 205.318696 
L 287.98189 209.026984 
L 289.585914 211.893537 
L 291.189939 215.24496 
L 292.793963 219.01919 
L 296.002012 230.818993 
L 297.606037 235.372894 
L 299.210061 241.439591 
L 302.41811 246.8585 
L 304.022134 250.295261 
L 307.230183 255.279727 
L 308.834208 257.731231 
L 310.438232 259.538827 
L 312.042257 260.908101 
L 313.646281 263.297542 
L 315.250305 264.938342 
L 316.85433 266.765334 
L 318.458354 268.285887 
L 320.062379 269.32157 
L 321.666403 271.807984 
L 323.270428 272.525592 
L 324.874452 274.224578 
L 326.478476 275.496877 
L 328.082501 276.928214 
L 329.686525 279.197407 
L 331.29055 280.077931 
L 332.894574 282.560467 
L 336.102623 286.047654 
L 337.706648 287.153158 
L 340.914696 289.034455 
L 342.518721 290.481307 
L 344.122745 291.342437 
L 345.72677 291.897128 
L 347.330794 293.696967 
L 348.934819 294.530944 
L 350.538843 294.709376 
L 352.142867 295.92737 
L 353.746892 296.74971 
L 355.350916 299.026661 
L 356.954941 300.314476 
L 358.558965 303.340066 
L 360.16299 305.574349 
L 361.767014 307.048354 
L 363.371038 308.138342 
L 364.975063 309.771385 
L 366.579087 311.225996 
L 368.183112 311.501403 
L 369.787136 313.076261 
L 371.391161 313.875327 
L 372.995185 315.752745 
L 374.599209 316.66818 
L 376.203234 317.719379 
L 377.807258 319.39509 
L 379.411283 319.938145 
L 381.015307 321.9746 
L 382.619332 323.510669 
L 384.223356 324.511441 
L 385.827381 326.113452 
L 387.431405 328.122755 
L 389.035429 329.158438 
L 390.639454 330.737175 
L 392.243478 332.537014 
L 393.847503 333.945077 
L 395.451527 335.702247 
L 397.055552 336.850419 
L 398.659576 338.142114 
L 400.2636 339.996258 
L 401.867625 340.888419 
L 403.471649 343.231312 
L 405.075674 345.170793 
L 406.679698 346.908568 
L 408.283723 348.417484 
L 409.887747 351.000873 
L 411.491771 352.288688 
L 413.095796 354.332901 
L 414.69982 356.76501 
L 416.303845 358.017915 
L 417.907869 359.837148 
L 419.511894 360.931016 
L 421.115918 362.556301 
L 424.323967 365.143568 
L 425.927991 365.667228 
L 429.13604 367.71532 
L 432.344089 368.522144 
L 433.948114 369.076836 
L 435.552138 368.991499 
L 437.156162 369.36 
L 443.57226 368.844098 
L 445.176285 368.886767 
L 446.780309 368.76264 
L 449.988358 368.816945 
L 451.592382 369.080715 
L 453.196407 369.038046 
L 454.800431 368.61136 
L 458.00848 368.630755 
L 459.612504 368.793672 
L 461.216529 368.413533 
L 464.424578 367.97909 
L 466.028602 368.107095 
L 467.632627 367.633862 
L 470.840676 367.218813 
L 472.4447 367.207176 
L 474.048724 366.656363 
L 475.652749 366.877464 
L 477.256773 366.865827 
L 478.860798 366.489568 
L 480.464822 367.183902 
L 482.068847 367.261482 
L 483.672871 366.710669 
L 485.276895 367.055897 
L 486.88092 366.621453 
L 488.484944 367.036502 
L 491.692993 366.485689 
L 494.901042 366.33441 
L 496.505066 365.896087 
L 498.109091 365.65947 
L 498.109091 365.65947 
" clip-path="url(#p0229c72314)" style="fill: none; stroke: #008000; stroke-width: 1.5; stroke-linecap: square"/>
   </g>
   <g id="line2d_35">
    <path d="M 92.290909 336.454765 
L 93.894934 337.443901 
L 95.498958 336.443128 
L 97.102982 336.202633 
L 98.707007 335.779826 
L 100.311031 335.05446 
L 101.915056 334.4571 
L 103.51908 333.305048 
L 105.123105 333.475722 
L 106.727129 332.723204 
L 108.331153 331.450904 
L 109.935178 330.694507 
L 111.539202 329.775193 
L 114.747251 327.129741 
L 116.351276 326.924156 
L 117.9553 324.697631 
L 119.559324 323.336116 
L 121.163349 321.769015 
L 122.767373 319.647223 
L 124.371398 318.402076 
L 125.975422 316.156157 
L 127.579447 314.344682 
L 129.183471 311.974636 
L 130.787496 310.966106 
L 132.39152 307.948273 
L 133.995544 305.213605 
L 135.599569 303.421525 
L 137.203593 302.859075 
L 138.807618 299.492136 
L 140.411642 298.479727 
L 142.015667 294.236143 
L 143.619691 290.349423 
L 145.223715 288.627164 
L 146.82774 284.961544 
L 148.431764 282.440219 
L 150.035789 279.344807 
L 151.639813 277.498421 
L 153.243838 274.946064 
L 154.847862 271.257172 
L 156.451886 268.146244 
L 158.055911 265.368907 
L 161.26396 258.96862 
L 162.867984 255.586165 
L 164.472009 258.732003 
L 166.076033 259.449611 
L 167.680057 259.693986 
L 169.284082 258.309196 
L 170.888106 259.092747 
L 172.492131 255.56677 
L 174.096155 253.460494 
L 175.70018 250.892621 
L 177.304204 246.889532 
L 178.908229 240.144017 
L 180.512253 231.125431 
L 182.116277 219.721282 
L 183.720302 212.541324 
L 185.324326 207.6965 
L 186.928351 203.28612 
L 188.532375 201.23027 
L 191.740424 192.78577 
L 193.344448 193.363735 
L 194.948473 197.176755 
L 196.552497 199.51189 
L 198.156522 202.246558 
L 199.760546 201.614288 
L 201.364571 203.677895 
L 202.968595 204.081307 
L 204.572619 202.002184 
L 206.176644 198.476207 
L 207.780668 195.470012 
L 212.592742 185.128699 
L 214.196766 181.27689 
L 215.800791 177.983651 
L 219.008839 168.538378 
L 220.612864 162.25446 
L 222.216888 158.957342 
L 223.820913 151.552404 
L 225.424937 145.183148 
L 227.028962 140.780526 
L 228.632986 140.028008 
L 230.23701 140.598215 
L 231.841035 143.542347 
L 233.445059 147.906179 
L 235.049084 151.245966 
L 236.653108 154.011666 
L 238.257133 154.74091 
L 239.861157 154.810732 
L 241.465181 154.698242 
L 243.069206 154.314225 
L 244.67323 153.356121 
L 246.277255 151.785141 
L 249.485304 149.415096 
L 251.089328 147.894543 
L 252.693352 145.861966 
L 254.297377 144.159102 
L 255.901401 139.089299 
L 257.505426 137.336008 
L 259.10945 139.15912 
L 260.713475 139.256094 
L 262.317499 141.494255 
L 263.921524 143.127298 
L 265.525548 146.982986 
L 267.129572 152.61136 
L 268.733597 157.390242 
L 270.337621 161.595036 
L 273.54567 167.165226 
L 275.149695 168.658626 
L 276.753719 169.213318 
L 278.357743 171.156678 
L 279.961768 171.854891 
L 281.565792 172.933242 
L 283.169817 172.863421 
L 284.773841 171.726885 
L 286.377866 173.57715 
L 291.189939 185.31101 
L 292.793963 189.818364 
L 294.397988 195.074358 
L 296.002012 203.363699 
L 297.606037 208.584782 
L 299.210061 215.799652 
L 300.814086 219.601034 
L 302.41811 222.929184 
L 304.022134 226.86633 
L 307.230183 231.358168 
L 308.834208 234.286785 
L 310.438232 235.807338 
L 312.042257 237.114548 
L 313.646281 237.77785 
L 315.250305 237.36668 
L 318.458354 235.753032 
L 320.062379 233.867857 
L 321.666403 234.251874 
L 323.270428 235.178946 
L 326.478476 240.787925 
L 328.082501 244.546639 
L 329.686525 246.994264 
L 332.894574 253.464373 
L 334.498599 255.186632 
L 336.102623 258.347986 
L 337.706648 258.627271 
L 339.310672 259.251784 
L 342.518721 260.225404 
L 344.122745 258.367381 
L 345.72677 258.386776 
L 347.330794 258.07258 
L 348.934819 257.413156 
L 350.538843 258.460476 
L 352.142867 259.674591 
L 356.954941 267.680769 
L 358.558965 271.571368 
L 360.16299 275.054675 
L 361.767014 277.304473 
L 363.371038 278.797874 
L 364.975063 279.263349 
L 366.579087 281.09034 
L 368.183112 281.873891 
L 371.391161 285.077913 
L 374.599209 286.13687 
L 376.203234 286.167902 
L 377.807258 285.16325 
L 379.411283 284.395216 
L 381.015307 284.996455 
L 384.223356 287.766034 
L 385.827381 291.458806 
L 387.431405 293.64654 
L 390.639454 300.345508 
L 392.243478 301.997946 
L 393.847503 303.235334 
L 395.451527 304.786919 
L 397.055552 306.83889 
L 398.659576 307.668988 
L 400.2636 308.78225 
L 401.867625 308.766734 
L 403.471649 311.055322 
L 405.075674 312.649575 
L 406.679698 313.689137 
L 408.283723 315.046774 
L 411.491771 318.405955 
L 414.69982 324.569626 
L 416.303845 328.568835 
L 419.511894 336.055232 
L 421.115918 338.630863 
L 422.719943 340.170811 
L 424.323967 342.215024 
L 427.532016 345.132003 
L 429.13604 345.574205 
L 430.740065 345.636268 
L 433.948114 344.639375 
L 435.552138 345.077698 
L 437.156162 343.914009 
L 438.760187 343.254586 
L 440.364211 343.091669 
L 441.968236 342.71541 
L 445.176285 343.277859 
L 446.780309 344.763502 
L 448.384333 345.353104 
L 449.988358 347.075363 
L 451.592382 347.090879 
L 453.196407 346.799957 
L 454.800431 346.912447 
L 456.404456 346.687467 
L 458.00848 345.977617 
L 459.612504 345.038908 
L 461.216529 343.270101 
L 462.820553 340.869024 
L 464.424578 340.539312 
L 466.028602 339.519145 
L 467.632627 338.26624 
L 469.236651 338.324425 
L 470.840676 337.230558 
L 472.4447 337.176252 
L 474.048724 338.90239 
L 475.652749 338.23133 
L 477.256773 339.224344 
L 478.860798 341.066851 
L 480.464822 342.41673 
L 485.276895 343.029606 
L 486.88092 342.746442 
L 488.484944 341.873675 
L 490.088969 339.860494 
L 491.692993 336.350033 
L 493.297018 334.883786 
L 494.901042 334.767417 
L 496.505066 334.131267 
L 498.109091 334.608379 
L 498.109091 334.608379 
" clip-path="url(#p0229c72314)" style="fill: none; stroke: #008000; stroke-width: 1.5; stroke-linecap: square"/>
   </g>
   <g id="line2d_36">
    <path d="M 92.290909 335.647941 
L 93.894934 337.056004 
L 95.498958 336.020321 
L 97.102982 335.663457 
L 98.707007 334.585106 
L 100.311031 334.736385 
L 101.915056 333.82095 
L 103.51908 333.402022 
L 105.123105 332.684414 
L 106.727129 331.819406 
L 108.331153 331.187135 
L 109.935178 330.000172 
L 111.539202 329.100253 
L 113.143227 328.002507 
L 114.747251 326.64487 
L 116.351276 325.725556 
L 119.559324 322.362496 
L 122.767373 319.631707 
L 124.371398 317.432335 
L 125.975422 315.469581 
L 127.579447 314.042123 
L 130.787496 309.961455 
L 132.39152 307.277213 
L 133.995544 304.263259 
L 135.599569 303.192666 
L 137.203593 300.830378 
L 138.807618 298.014252 
L 140.411642 295.640327 
L 142.015667 292.572068 
L 143.619691 290.39597 
L 145.223715 287.731123 
L 146.82774 284.461158 
L 150.035789 279.430145 
L 151.639813 276.497649 
L 153.243838 273.258716 
L 154.847862 270.791696 
L 156.451886 267.366573 
L 158.055911 265.02368 
L 161.26396 258.732003 
L 162.867984 255.209906 
L 164.472009 258.142401 
L 166.076033 258.759156 
L 167.680057 259.038441 
L 169.284082 257.727352 
L 170.888106 258.177312 
L 172.492131 254.78322 
L 174.096155 252.05631 
L 175.70018 248.891077 
L 177.304204 241.214611 
L 178.908229 232.335667 
L 180.512253 220.023841 
L 182.116277 214.965675 
L 183.720302 211.137139 
L 185.324326 206.699607 
L 186.928351 203.778748 
L 188.532375 199.795054 
L 190.1364 197.417251 
L 191.740424 191.66475 
L 193.344448 192.110831 
L 194.948473 196.835406 
L 196.552497 202.634455 
L 198.156522 203.918391 
L 199.760546 204.96959 
L 201.364571 207.467641 
L 202.968595 208.282223 
L 204.572619 205.683319 
L 206.176644 202.296985 
L 207.780668 197.560772 
L 210.988717 191.746208 
L 215.800791 175.027882 
L 217.404815 166.800603 
L 219.008839 161.20714 
L 220.612864 152.588087 
L 222.216888 146.602848 
L 223.820913 137.320492 
L 225.424937 126.618436 
L 227.028962 122.173145 
L 228.632986 127.53775 
L 230.23701 131.381801 
L 233.445059 140.830953 
L 235.049084 145.671897 
L 236.653108 149.034957 
L 238.257133 150.466294 
L 239.861157 151.032623 
L 241.465181 150.388715 
L 243.069206 148.94962 
L 244.67323 148.98841 
L 246.277255 146.257621 
L 247.881279 145.272364 
L 249.485304 144.112555 
L 251.089328 141.032659 
L 252.693352 136.622279 
L 254.297377 130.125018 
L 255.901401 122.436915 
L 257.505426 118.515284 
L 259.10945 117.436933 
L 260.713475 118.992397 
L 262.317499 123.073065 
L 263.921524 126.284845 
L 265.525548 131.474896 
L 267.129572 138.080769 
L 268.733597 143.922485 
L 270.337621 148.984531 
L 271.941646 152.572571 
L 273.54567 154.713758 
L 275.149695 154.93098 
L 276.753719 155.380939 
L 278.357743 156.789002 
L 279.961768 153.84487 
L 281.565792 153.189326 
L 283.169817 150.761095 
L 284.773841 146.405021 
L 286.377866 145.256848 
L 287.98189 149.51207 
L 289.585914 154.333619 
L 291.189939 159.965872 
L 292.793963 167.440632 
L 294.397988 175.621363 
L 296.002012 184.717529 
L 299.210061 198.270622 
L 300.814086 202.777976 
L 302.41811 206.055699 
L 304.022134 210.590206 
L 305.626159 212.428834 
L 307.230183 216.203064 
L 308.834208 217.700343 
L 310.438232 218.278308 
L 312.042257 217.85938 
L 313.646281 213.75156 
L 315.250305 210.19843 
L 316.85433 206.098368 
L 318.458354 204.461446 
L 320.062379 201.505677 
L 321.666403 201.56774 
L 323.270428 203.499463 
L 324.874452 207.80899 
L 326.478476 213.224021 
L 328.082501 219.791104 
L 329.686525 224.410947 
L 331.29055 231.043972 
L 332.894574 235.287557 
L 334.498599 238.095925 
L 336.102623 239.934553 
L 337.706648 240.718104 
L 339.310672 240.753014 
L 340.914696 238.483821 
L 342.518721 237.064121 
L 344.122745 232.126203 
L 345.72677 229.100612 
L 348.934819 227.607212 
L 350.538843 227.618849 
L 352.142867 229.379898 
L 353.746892 235.76079 
L 355.350916 243.064876 
L 358.558965 251.986488 
L 360.16299 257.711836 
L 363.371038 263.049288 
L 364.975063 263.786291 
L 368.183112 266.656723 
L 369.787136 268.336313 
L 371.391161 268.417771 
L 372.995185 268.305281 
L 374.599209 267.925143 
L 377.807258 259.488401 
L 379.411283 256.850707 
L 381.015307 258.685456 
L 382.619332 259.969392 
L 384.223356 262.932919 
L 385.827381 268.623356 
L 387.431405 275.562819 
L 389.035429 279.402992 
L 390.639454 283.720277 
L 392.243478 286.970847 
L 393.847503 288.972391 
L 395.451527 290.128322 
L 397.055552 291.055394 
L 398.659576 291.48208 
L 400.2636 291.03212 
L 401.867625 288.696985 
L 403.471649 289.073244 
L 405.075674 292.149261 
L 406.679698 294.038316 
L 408.283723 297.393618 
L 409.887747 300.019675 
L 411.491771 303.642625 
L 413.095796 307.925 
L 414.69982 313.293483 
L 417.907869 322.378012 
L 419.511894 327.552547 
L 421.115918 331.222045 
L 424.323967 334.907059 
L 425.927991 337.040488 
L 427.532016 338.654137 
L 429.13604 338.099445 
L 430.740065 336.51295 
L 432.344089 335.834131 
L 435.552138 337.913255 
L 437.156162 338.689047 
L 438.760187 338.26624 
L 440.364211 339.034275 
L 441.968236 339.274771 
L 443.57226 339.162281 
L 445.176285 340.702229 
L 446.780309 343.533871 
L 448.384333 344.298026 
L 449.988358 346.144412 
L 451.592382 346.640919 
L 453.196407 345.915554 
L 454.800431 346.287934 
L 456.404456 345.597479 
L 458.00848 345.791427 
L 459.612504 342.874447 
L 461.216529 340.384154 
L 462.820553 338.142114 
L 466.028602 338.099445 
L 467.632627 337.529238 
L 469.236651 337.587422 
L 470.840676 337.141341 
L 472.4447 337.536996 
L 474.048724 338.929543 
L 475.652749 338.060655 
L 477.256773 339.255376 
L 478.860798 340.822476 
L 480.464822 341.280194 
L 482.068847 342.145202 
L 483.672871 342.242177 
L 485.276895 342.509825 
L 486.88092 341.613785 
L 488.484944 338.413641 
L 490.088969 336.377186 
L 491.692993 336.086264 
L 493.297018 336.047474 
L 494.901042 335.558725 
L 496.505066 335.65182 
L 498.109091 336.404339 
L 498.109091 336.404339 
" clip-path="url(#p0229c72314)" style="fill: none; stroke: #008000; stroke-width: 1.5; stroke-linecap: square"/>
   </g>
   <g id="line2d_37">
    <path d="M 92.290909 334.332973 
L 93.894934 336.718535 
L 95.498958 335.457872 
L 97.102982 334.740264 
L 98.707007 334.519163 
L 100.311031 333.576575 
L 101.915056 333.246864 
L 103.51908 332.397371 
L 105.123105 331.737947 
L 108.331153 330.841907 
L 109.935178 328.871394 
L 111.539202 328.479619 
L 113.143227 327.91717 
L 116.351276 324.755816 
L 117.9553 323.87917 
L 119.559324 321.877626 
L 121.163349 320.679027 
L 122.767373 318.774456 
L 124.371398 317.284935 
L 125.975422 314.790762 
L 127.579447 313.049108 
L 129.183471 310.977743 
L 130.787496 309.461069 
L 132.39152 306.330746 
L 133.995544 304.468844 
L 138.807618 296.877716 
L 140.411642 295.182609 
L 142.015667 292.312177 
L 143.619691 288.4914 
L 145.223715 287.475112 
L 146.82774 283.580634 
L 148.431764 281.067067 
L 150.035789 277.800981 
L 151.639813 275.477482 
L 154.847862 269.996509 
L 156.451886 266.40459 
L 158.055911 263.666043 
L 161.26396 257.564436 
L 162.867984 253.972517 
L 164.472009 257.832084 
L 166.076033 258.615634 
L 167.680057 259.053957 
L 169.284082 257.316182 
L 170.888106 256.505479 
L 172.492131 252.925197 
L 174.096155 250.764615 
L 175.70018 245.054783 
L 178.908229 229.290682 
L 180.512253 217.925323 
L 182.116277 212.576234 
L 183.720302 210.16352 
L 185.324326 206.72288 
L 186.928351 202.382322 
L 188.532375 199.740749 
L 190.1364 196.532847 
L 191.740424 190.861805 
L 193.344448 190.888958 
L 196.552497 199.593348 
L 199.760546 204.209313 
L 201.364571 204.942437 
L 202.968595 206.711244 
L 204.572619 203.817538 
L 206.176644 201.509556 
L 210.988717 190.175229 
L 212.592742 183.584872 
L 214.196766 178.856417 
L 215.800791 172.002291 
L 217.404815 162.77812 
L 219.008839 156.079152 
L 220.612864 145.567165 
L 222.216888 140.334446 
L 223.820913 127.471807 
L 225.424937 119.422961 
L 227.028962 115.800011 
L 228.632986 122.592073 
L 230.23701 127.041243 
L 231.841035 133.51523 
L 233.445059 140.520636 
L 235.049084 144.333655 
L 236.653108 149.201753 
L 238.257133 150.365441 
L 239.861157 150.264588 
L 241.465181 149.349153 
L 244.67323 147.94109 
L 246.277255 145.939546 
L 247.881279 143.429857 
L 249.485304 142.766555 
L 251.089328 138.305748 
L 252.693352 132.979934 
L 254.297377 126.932632 
L 255.901401 116.152996 
L 257.505426 111.277141 
L 259.10945 110.31128 
L 260.713475 111.862864 
L 262.317499 117.467964 
L 263.921524 122.464068 
L 265.525548 126.447762 
L 267.129572 134.826319 
L 268.733597 140.361598 
L 270.337621 144.934894 
L 273.54567 151.451551 
L 275.149695 152.114853 
L 276.753719 152.448444 
L 278.357743 153.910813 
L 279.961768 150.10943 
L 281.565792 149.554738 
L 283.169817 143.394947 
L 284.773841 139.558653 
L 286.377866 138.398843 
L 287.98189 142.700612 
L 289.585914 149.841781 
L 291.189939 155.943389 
L 294.397988 173.922378 
L 296.002012 182.940964 
L 299.210061 197.781873 
L 300.814086 202.39008 
L 302.41811 204.674789 
L 304.022134 208.63133 
L 305.626159 211.269024 
L 307.230183 214.531231 
L 308.834208 216.32719 
L 310.438232 215.326418 
L 312.042257 213.018436 
L 313.646281 206.812097 
L 315.250305 202.905982 
L 316.85433 199.66317 
L 320.062379 195.617412 
L 321.666403 195.989793 
L 323.270428 199.701959 
L 324.874452 205.19069 
L 326.478476 210.027756 
L 328.082501 217.797317 
L 329.686525 223.635155 
L 331.29055 230.590134 
L 332.894574 235.16343 
L 336.102623 239.930674 
L 337.706648 240.124622 
L 339.310672 240.09747 
L 340.914696 238.185141 
L 342.518721 232.614952 
L 345.72677 226.016838 
L 348.934819 227.355079 
L 350.538843 228.6235 
L 352.142867 231.094399 
L 353.746892 238.014467 
L 355.350916 246.93608 
L 356.954941 252.064068 
L 358.558965 255.702534 
L 360.16299 261.39685 
L 361.767014 263.801807 
L 363.371038 267.106682 
L 364.975063 268.192792 
L 369.787136 272.568261 
L 371.391161 271.579125 
L 372.995185 270.023662 
L 374.599209 268.258734 
L 376.203234 263.433305 
L 377.807258 258.999652 
L 379.411283 259.775444 
L 384.223356 268.076423 
L 385.827381 273.770739 
L 387.431405 280.853724 
L 389.035429 285.077913 
L 390.639454 289.988679 
L 392.243478 293.914189 
L 393.847503 295.733422 
L 397.055552 298.817197 
L 400.2636 298.122863 
L 401.867625 294.891687 
L 403.471649 296.144592 
L 405.075674 299.918822 
L 406.679698 302.31602 
L 408.283723 305.977761 
L 409.887747 308.987835 
L 411.491771 312.381927 
L 414.69982 320.194156 
L 416.303845 325.884594 
L 417.907869 330.073873 
L 419.511894 335.931105 
L 421.115918 339.150644 
L 422.719943 340.694471 
L 424.323967 342.587404 
L 425.927991 343.94892 
L 427.532016 345.830216 
L 429.13604 345.18243 
L 430.740065 342.630073 
L 432.344089 341.039698 
L 433.948114 341.439231 
L 435.552138 342.428367 
L 437.156162 342.560251 
L 438.760187 342.393456 
L 440.364211 342.835658 
L 441.968236 343.12658 
L 443.57226 343.064516 
L 445.176285 343.603692 
L 446.780309 346.121139 
L 448.384333 347.432228 
L 449.988358 348.498942 
L 451.592382 348.673496 
L 453.196407 348.130441 
L 454.800431 349.065271 
L 458.00848 347.249916 
L 459.612504 344.030378 
L 461.216529 341.947375 
L 462.820553 341.768943 
L 464.424578 341.388805 
L 466.028602 341.454747 
L 470.840676 340.900056 
L 472.4447 340.865145 
L 474.048724 342.486551 
L 475.652749 343.27398 
L 477.256773 342.9753 
L 478.860798 344.829444 
L 480.464822 345.434562 
L 482.068847 346.214234 
L 483.672871 346.443092 
L 485.276895 346.055196 
L 486.88092 345.100972 
L 488.484944 341.885312 
L 490.088969 340.632407 
L 491.692993 339.662667 
L 493.297018 339.38726 
L 494.901042 339.709214 
L 496.505066 339.204949 
L 498.109091 339.057549 
L 498.109091 339.057549 
" clip-path="url(#p0229c72314)" style="fill: none; stroke: #008000; stroke-width: 1.5; stroke-linecap: square"/>
   </g>
   <g id="line2d_38">
    <path d="M 92.290909 333.460207 
L 93.894934 336.47416 
L 95.498958 334.732506 
L 97.102982 334.515284 
L 98.707007 333.650276 
L 100.311031 333.440812 
L 101.915056 332.851209 
L 103.51908 331.594426 
L 105.123105 331.470299 
L 106.727129 330.768207 
L 111.539202 328.087844 
L 116.351276 324.181729 
L 117.9553 322.862882 
L 121.163349 319.856687 
L 122.767373 318.04909 
L 124.371398 316.586722 
L 125.975422 314.05376 
L 127.579447 312.451748 
L 129.183471 310.609241 
L 130.787496 309.011109 
L 132.39152 305.562712 
L 133.995544 303.634868 
L 135.599569 301.222153 
L 137.203593 299.026661 
L 138.807618 296.016586 
L 140.411642 296.668252 
L 142.015667 291.528627 
L 143.619691 287.657423 
L 145.223715 285.973953 
L 146.82774 283.406081 
L 148.431764 279.977078 
L 154.847862 269.17029 
L 156.451886 265.415455 
L 158.055911 263.099714 
L 159.659935 259.942239 
L 161.26396 256.136978 
L 162.867984 252.979503 
L 164.472009 255.749081 
L 166.076033 255.706413 
L 167.680057 255.966303 
L 169.284082 254.531087 
L 170.888106 254.286713 
L 172.492131 251.098206 
L 174.096155 248.832892 
L 177.304204 236.788715 
L 178.908229 229.112249 
L 180.512253 218.856274 
L 182.116277 212.265917 
L 183.720302 209.845445 
L 185.324326 206.129399 
L 186.928351 201.443613 
L 188.532375 199.17442 
L 190.1364 195.768692 
L 191.740424 190.857926 
L 193.344448 193.130998 
L 194.948473 194.135649 
L 196.552497 198.677913 
L 198.156522 199.860997 
L 199.760546 202.172858 
L 201.364571 204.911405 
L 202.968595 204.500235 
L 204.572619 202.359048 
L 206.176644 199.217089 
L 209.384693 192.26211 
L 210.988717 187.696572 
L 214.196766 177.770308 
L 215.800791 171.230378 
L 217.404815 163.48797 
L 219.008839 156.757971 
L 220.612864 146.412779 
L 222.216888 139.128088 
L 223.820913 126.420609 
L 225.424937 119.795342 
L 227.028962 117.14989 
L 228.632986 124.260027 
L 230.23701 127.382591 
L 231.841035 134.581945 
L 233.445059 142.382537 
L 235.049084 147.657926 
L 236.653108 150.338289 
L 238.257133 152.176917 
L 239.861157 150.233557 
L 241.465181 149.302606 
L 243.069206 149.558617 
L 244.67323 147.467857 
L 246.277255 145.823177 
L 247.881279 143.670353 
L 249.485304 142.339869 
L 251.089328 137.801483 
L 252.693352 131.145185 
L 254.297377 125.889191 
L 255.901401 116.451676 
L 257.505426 111.374115 
L 259.10945 110.928034 
L 260.713475 113.554092 
L 262.317499 117.091705 
L 263.921524 123.94971 
L 265.525548 129.003997 
L 267.129572 135.097847 
L 270.337621 145.202543 
L 271.941646 148.181586 
L 273.54567 151.719199 
L 275.149695 153.73238 
L 276.753719 152.867372 
L 278.357743 155.776593 
L 279.961768 152.813066 
L 281.565792 150.815401 
L 283.169817 146.575695 
L 284.773841 141.106359 
L 286.377866 140.819316 
L 287.98189 145.571044 
L 294.397988 179.100792 
L 296.002012 187.316434 
L 299.210061 202.618939 
L 300.814086 206.971134 
L 302.41811 209.151111 
L 304.022134 213.670101 
L 305.626159 216.509502 
L 308.834208 220.787997 
L 310.438232 219.143317 
L 312.042257 216.92843 
L 313.646281 210.345831 
L 315.250305 207.331878 
L 316.85433 203.871843 
L 318.458354 202.560754 
L 320.062379 200.225619 
L 321.666403 201.532829 
L 324.874452 209.372212 
L 326.478476 215.788015 
L 328.082501 223.13089 
L 331.29055 235.625026 
L 332.894574 240.190565 
L 334.498599 242.642069 
L 336.102623 244.154864 
L 337.706648 245.229336 
L 339.310672 244.162622 
L 340.914696 242.223141 
L 342.518721 237.661482 
L 344.122745 233.918283 
L 345.72677 232.308514 
L 347.330794 232.277482 
L 348.934819 233.289891 
L 350.538843 234.814323 
L 352.142867 239.589326 
L 353.746892 245.023751 
L 355.350916 252.583848 
L 356.954941 257.614862 
L 360.16299 268.406135 
L 361.767014 270.085725 
L 363.371038 272.700145 
L 364.975063 273.933655 
L 366.579087 276.30758 
L 368.183112 277.16871 
L 369.787136 278.51471 
L 371.391161 278.495315 
L 372.995185 275.434814 
L 374.599209 273.177258 
L 376.203234 269.628008 
L 377.807258 267.164867 
L 379.411283 267.448031 
L 381.015307 270.745149 
L 382.619332 272.378192 
L 384.223356 274.755995 
L 387.431405 287.560449 
L 389.035429 291.489837 
L 390.639454 296.780742 
L 392.243478 299.880032 
L 393.847503 301.637202 
L 395.451527 303.126724 
L 397.055552 305.077841 
L 398.659576 303.956821 
L 400.2636 303.006476 
L 401.867625 302.552637 
L 403.471649 304.096464 
L 405.075674 307.583651 
L 408.283723 313.223662 
L 413.095796 323.561095 
L 414.69982 327.160772 
L 416.303845 333.452449 
L 417.907869 338.370972 
L 419.511894 342.090897 
L 421.115918 345.100972 
L 422.719943 346.392666 
L 425.927991 349.40274 
L 427.532016 350.155259 
L 429.13604 349.817789 
L 430.740065 348.456274 
L 432.344089 345.849611 
L 433.948114 345.236735 
L 435.552138 345.616873 
L 437.156162 346.214234 
L 438.760187 345.989254 
L 440.364211 346.020286 
L 441.968236 346.772804 
L 443.57226 346.547824 
L 445.176285 346.043559 
L 446.780309 348.987691 
L 448.384333 350.182412 
L 449.988358 350.810804 
L 451.592382 351.885276 
L 453.196407 351.466348 
L 454.800431 351.931824 
L 458.00848 350.11259 
L 459.612504 346.799957 
L 461.216529 344.724712 
L 462.820553 345.151398 
L 466.028602 344.903144 
L 467.632627 344.480338 
L 469.236651 344.554038 
L 470.840676 344.449306 
L 472.4447 343.937283 
L 474.048724 345.655663 
L 475.652749 346.346118 
L 477.256773 346.090107 
L 478.860798 348.673496 
L 480.464822 349.588931 
L 482.068847 349.616083 
L 483.672871 349.798395 
L 485.276895 349.682026 
L 486.88092 348.91787 
L 488.484944 346.237507 
L 490.088969 344.166142 
L 491.692993 342.936511 
L 494.901042 342.626194 
L 496.505066 343.208038 
L 498.109091 342.370182 
L 498.109091 342.370182 
" clip-path="url(#p0229c72314)" style="fill: none; stroke: #008000; stroke-width: 1.5; stroke-linecap: square"/>
   </g>
   <g id="line2d_39">
    <path d="M 92.290909 334.988518 
L 93.894934 336.501313 
L 97.102982 334.713111 
L 100.311031 333.274016 
L 101.915056 332.905515 
L 103.51908 332.385734 
L 105.123105 331.606063 
L 106.727129 331.035855 
L 108.331153 330.248426 
L 109.935178 328.51453 
L 111.539202 328.122755 
L 113.143227 327.284899 
L 114.747251 325.647977 
L 116.351276 324.47653 
L 117.9553 323.072346 
L 119.559324 321.846594 
L 121.163349 319.779107 
L 122.767373 317.893932 
L 124.371398 316.505264 
L 125.975422 313.630953 
L 127.579447 311.834993 
L 129.183471 310.904042 
L 130.787496 308.755097 
L 132.39152 305.94285 
L 133.995544 303.9607 
L 138.807618 296.796258 
L 140.411642 297.707814 
L 142.015667 291.284252 
L 145.223715 286.144628 
L 146.82774 282.560467 
L 148.431764 280.167147 
L 150.035789 277.331626 
L 151.639813 274.868485 
L 153.243838 271.303719 
L 154.847862 269.077195 
L 156.451886 266.474411 
L 158.055911 263.177294 
L 161.26396 255.892603 
L 162.867984 253.421704 
L 164.472009 254.406961 
L 166.076033 255.989577 
L 167.680057 255.683139 
L 170.888106 255.551254 
L 172.492131 252.164921 
L 174.096155 249.84918 
L 175.70018 245.66378 
L 177.304204 239.492352 
L 178.908229 232.533494 
L 180.512253 220.016083 
L 182.116277 212.25428 
L 183.720302 209.081289 
L 186.928351 201.261302 
L 188.532375 198.480086 
L 191.740424 189.853275 
L 193.344448 193.790421 
L 194.948473 195.869545 
L 196.552497 198.491723 
L 198.156522 199.806691 
L 199.760546 200.656184 
L 201.364571 203.724443 
L 202.968595 204.539025 
L 206.176644 196.870317 
L 207.780668 193.728358 
L 209.384693 190.951021 
L 210.988717 187.273765 
L 214.196766 178.317242 
L 215.800791 172.285456 
L 219.008839 158.670299 
L 220.612864 146.777401 
L 222.216888 137.045086 
L 223.820913 125.559479 
L 225.424937 118.053688 
L 227.028962 115.46642 
L 228.632986 120.714656 
L 230.23701 125.171583 
L 233.445059 137.432982 
L 235.049084 141.428313 
L 236.653108 144.085402 
L 238.257133 146.121857 
L 239.861157 144.120312 
L 241.465181 142.421327 
L 243.069206 141.920941 
L 244.67323 140.993869 
L 246.277255 139.333673 
L 247.881279 137.479529 
L 249.485304 134.876746 
L 251.089328 130.63704 
L 252.693352 124.903935 
L 254.297377 118.464858 
L 255.901401 106.389649 
L 257.505426 102.018059 
L 259.10945 100.912555 
L 260.713475 102.735667 
L 262.317499 107.739528 
L 263.921524 116.688293 
L 265.525548 121.870586 
L 267.129572 129.547052 
L 268.733597 134.993115 
L 270.337621 139.554774 
L 271.941646 143.336762 
L 273.54567 146.703701 
L 275.149695 148.561724 
L 276.753719 148.658698 
L 278.357743 150.505084 
L 279.961768 148.584998 
L 281.565792 145.450796 
L 283.169817 139.066025 
L 284.773841 133.821668 
L 286.377866 134.22508 
L 287.98189 139.023356 
L 292.793963 164.965854 
L 297.606037 190.210139 
L 299.210061 197.300882 
L 300.814086 202.029336 
L 302.41811 204.729094 
L 304.022134 208.274465 
L 305.626159 210.811306 
L 307.230183 212.999041 
L 308.834208 214.864822 
L 310.438232 212.36677 
L 312.042257 212.114638 
L 315.250305 201.525071 
L 316.85433 198.76325 
L 318.458354 197.172876 
L 320.062379 196.013066 
L 321.666403 197.587925 
L 323.270428 200.648426 
L 324.874452 206.280679 
L 326.478476 214.550626 
L 328.082501 222.23485 
L 329.686525 226.79263 
L 331.29055 234.11611 
L 332.894574 237.475291 
L 336.102623 241.870155 
L 337.706648 243.103665 
L 339.310672 241.711118 
L 340.914696 239.16264 
L 342.518721 234.197568 
L 344.122745 230.078111 
L 345.72677 229.015275 
L 347.330794 231.590906 
L 348.934819 232.490825 
L 350.538843 234.814323 
L 352.142867 238.394605 
L 353.746892 245.074178 
L 355.350916 252.572212 
L 358.558965 264.701726 
L 360.16299 269.480607 
L 361.767014 272.071754 
L 363.371038 274.255609 
L 364.975063 275.768404 
L 366.579087 277.048462 
L 369.787136 281.264894 
L 371.391161 280.465827 
L 372.995185 280.035263 
L 374.599209 278.40222 
L 376.203234 274.271125 
L 377.807258 271.466636 
L 379.411283 271.253293 
L 381.015307 274.705569 
L 382.619332 277.533332 
L 384.223356 279.627972 
L 385.827381 286.838962 
L 387.431405 293.266402 
L 389.035429 296.707041 
L 390.639454 301.043721 
L 392.243478 304.604608 
L 393.847503 305.94285 
L 395.451527 307.668988 
L 397.055552 310.186434 
L 398.659576 309.127478 
L 401.867625 307.777599 
L 403.471649 309.554164 
L 405.075674 313.332273 
L 406.679698 315.969967 
L 409.887747 321.82332 
L 411.491771 324.763574 
L 413.095796 328.875273 
L 414.69982 332.680535 
L 416.303845 337.955923 
L 417.907869 342.160718 
L 419.511894 345.671179 
L 421.115918 348.351542 
L 422.719943 349.495836 
L 424.323967 350.845714 
L 425.927991 351.322827 
L 427.532016 352.7658 
L 429.13604 352.145167 
L 430.740065 350.147501 
L 432.344089 347.300343 
L 433.948114 347.280948 
L 437.156162 348.405847 
L 438.760187 347.920977 
L 440.364211 348.568764 
L 441.968236 348.242931 
L 443.57226 348.464032 
L 445.176285 348.231294 
L 446.780309 350.259991 
L 448.384333 351.454711 
L 451.592382 353.502803 
L 453.196407 353.211881 
L 454.800431 353.390313 
L 456.404456 352.587368 
L 458.00848 350.310418 
L 459.612504 347.517565 
L 461.216529 347.090879 
L 469.236651 346.90081 
L 472.4447 346.400424 
L 475.652749 348.61919 
L 477.256773 348.673496 
L 478.860798 350.52376 
L 480.464822 351.477985 
L 482.068847 351.90855 
L 485.276895 351.920187 
L 486.88092 350.919415 
L 488.484944 347.928735 
L 490.088969 346.245265 
L 491.692993 345.419046 
L 494.901042 345.457836 
L 498.109091 345.128124 
L 498.109091 345.128124 
" clip-path="url(#p0229c72314)" style="fill: none; stroke: #008000; stroke-width: 1.5; stroke-linecap: square"/>
   </g>
   <g id="line2d_40">
    <path d="M 92.290909 331.388841 
L 93.894934 334.910938 
L 95.498958 334.957486 
L 97.102982 333.638639 
L 98.707007 333.611486 
L 101.915056 332.168512 
L 103.51908 331.668126 
L 105.123105 330.938881 
L 106.727129 330.806996 
L 108.331153 329.088616 
L 109.935178 327.913291 
L 111.539202 327.696069 
L 113.143227 326.249216 
L 114.747251 325.240686 
L 116.351276 323.343874 
L 117.9553 321.796168 
L 119.559324 320.450168 
L 121.163349 319.604554 
L 122.767373 317.246145 
L 125.975422 313.41761 
L 129.183471 309.732596 
L 130.787496 307.110418 
L 132.39152 305.070084 
L 133.995544 302.486695 
L 137.203593 298.464211 
L 140.411642 292.785411 
L 143.619691 287.692334 
L 145.223715 285.403746 
L 148.431764 279.127586 
L 150.035789 277.040704 
L 151.639813 273.576791 
L 153.243838 271.280445 
L 154.847862 268.359587 
L 156.451886 265.147806 
L 158.055911 262.312285 
L 159.659935 259.201358 
L 161.26396 255.275848 
L 164.472009 250.105192 
L 166.076033 252.444206 
L 167.680057 250.403872 
L 170.888106 242.808864 
L 172.492131 236.567614 
L 175.70018 225.947016 
L 177.304204 222.184423 
L 178.908229 219.259686 
L 180.512253 214.736816 
L 182.116277 211.005255 
L 183.720302 208.270586 
L 185.324326 204.899768 
L 186.928351 200.543694 
L 188.532375 197.937032 
L 190.1364 195.788087 
L 191.740424 188.480122 
L 193.344448 186.664768 
L 194.948473 184.22878 
L 196.552497 185.225673 
L 198.156522 186.009223 
L 199.760546 185.093788 
L 201.364571 185.008451 
L 202.968595 182.138019 
L 204.572619 175.210193 
L 206.176644 165.446846 
L 207.780668 156.587296 
L 210.988717 142.758797 
L 212.592742 138.391086 
L 214.196766 136.703737 
L 215.800791 132.91787 
L 217.404815 128.643254 
L 219.008839 123.321318 
L 220.612864 119.981532 
L 222.216888 116.36246 
L 223.820913 112.382645 
L 225.424937 107.588248 
L 227.028962 105.051407 
L 228.632986 105.322934 
L 230.23701 106.847366 
L 231.841035 110.64487 
L 233.445059 115.896985 
L 235.049084 116.498224 
L 236.653108 118.910938 
L 238.257133 116.098691 
L 239.861157 110.322916 
L 241.465181 103.565765 
L 243.069206 94.861374 
L 246.277255 80.656615 
L 247.881279 72.759048 
L 249.485304 69.136098 
L 251.089328 69.112824 
L 252.693352 67.002669 
L 254.297377 66.96 
L 255.901401 67.390565 
L 257.505426 68.4534 
L 259.10945 68.961544 
L 260.713475 69.853706 
L 262.317499 74.081774 
L 263.921524 77.727999 
L 265.525548 79.341647 
L 267.129572 89.256274 
L 268.733597 87.887 
L 270.337621 88.290412 
L 271.941646 87.491346 
L 273.54567 86.381963 
L 275.149695 83.212851 
L 276.753719 86.684522 
L 278.357743 88.088706 
L 279.961768 91.424613 
L 281.565792 95.575103 
L 284.773841 102.813246 
L 286.377866 107.316721 
L 287.98189 112.460224 
L 289.585914 117.091705 
L 292.793963 132.495063 
L 294.397988 140.799921 
L 296.002012 146.886012 
L 299.210061 156.971314 
L 300.814086 158.48023 
L 302.41811 156.098547 
L 304.022134 157.750985 
L 305.626159 157.913901 
L 307.230183 159.566339 
L 308.834208 165.217987 
L 310.438232 167.463906 
L 313.646281 173.619819 
L 315.250305 178.196994 
L 316.85433 179.628331 
L 318.458354 183.953373 
L 320.062379 186.625978 
L 321.666403 190.547609 
L 323.270428 192.033251 
L 324.874452 195.989793 
L 326.478476 198.681792 
L 328.082501 204.321803 
L 329.686525 207.24654 
L 331.29055 212.634419 
L 334.498599 210.76088 
L 336.102623 210.698817 
L 337.706648 211.58322 
L 339.310672 213.697254 
L 340.914696 214.643721 
L 342.518721 216.653023 
L 345.72677 221.435783 
L 347.330794 224.368279 
L 348.934819 225.873316 
L 350.538843 228.119235 
L 352.142867 229.732883 
L 353.746892 232.351183 
L 355.350916 238.126957 
L 356.954941 239.624236 
L 358.558965 245.861607 
L 360.16299 248.441117 
L 361.767014 247.669204 
L 363.371038 248.099768 
L 364.975063 246.400783 
L 366.579087 246.978748 
L 368.183112 247.804967 
L 369.787136 249.259578 
L 371.391161 251.323186 
L 372.995185 253.188967 
L 374.599209 255.818903 
L 376.203234 257.642015 
L 377.807258 260.264193 
L 379.411283 262.378228 
L 381.015307 266.152458 
L 382.619332 268.169518 
L 384.223356 271.036071 
L 385.827381 274.480589 
L 387.431405 278.836663 
L 389.035429 280.015868 
L 390.639454 283.134553 
L 392.243478 284.317637 
L 393.847503 284.961544 
L 395.451527 286.260997 
L 397.055552 289.391319 
L 398.659576 291.757486 
L 401.867625 297.42077 
L 403.471649 299.965369 
L 405.075674 303.359461 
L 408.283723 308.638729 
L 409.887747 311.551829 
L 411.491771 315.186416 
L 413.095796 318.146064 
L 416.303845 325.37645 
L 417.907869 327.525395 
L 419.511894 330.787602 
L 421.115918 332.319792 
L 422.719943 333.235227 
L 424.323967 335.581999 
L 425.927991 336.365549 
L 427.532016 338.809295 
L 429.13604 339.83722 
L 430.740065 341.718517 
L 433.948114 343.747214 
L 435.552138 343.937283 
L 437.156162 344.445427 
L 438.760187 345.077698 
L 440.364211 345.155277 
L 441.968236 345.830216 
L 443.57226 345.260009 
L 445.176285 345.322072 
L 446.780309 346.33836 
L 448.384333 346.381029 
L 449.988358 345.733242 
L 451.592382 345.764274 
L 453.196407 344.953571 
L 454.800431 345.10485 
L 456.404456 344.43379 
L 458.00848 344.216568 
L 459.612504 343.72394 
L 461.216529 343.902372 
L 462.820553 344.367848 
L 464.424578 343.925646 
L 466.028602 343.851946 
L 467.632627 343.553266 
L 469.236651 343.677392 
L 470.840676 343.429139 
L 472.4447 343.789882 
L 474.048724 343.692908 
L 475.652749 343.242949 
L 477.256773 343.844188 
L 478.860798 344.28639 
L 480.464822 343.510597 
L 482.068847 343.405865 
L 483.672871 342.56413 
L 485.276895 342.540857 
L 486.88092 341.869796 
L 488.484944 342.34303 
L 491.692993 342.381819 
L 493.297018 342.125808 
L 494.901042 342.017197 
L 496.505066 341.458626 
L 498.109091 342.389577 
L 498.109091 342.389577 
" clip-path="url(#p0229c72314)" style="fill: none; stroke: #008000; stroke-width: 1.5; stroke-linecap: square"/>
   </g>
   <g id="patch_3">
    <path d="M 72 384.48 
L 72 51.84 
" style="fill: none; stroke: #000000; stroke-width: 0.8; stroke-linejoin: miter; stroke-linecap: square"/>
   </g>
   <g id="patch_4">
    <path d="M 518.4 384.48 
L 518.4 51.84 
" style="fill: none; stroke: #000000; stroke-width: 0.8; stroke-linejoin: miter; stroke-linecap: square"/>
   </g>
   <g id="patch_5">
    <path d="M 72 384.48 
L 518.4 384.48 
" style="fill: none; stroke: #000000; stroke-width: 0.8; stroke-linejoin: miter; stroke-linecap: square"/>
   </g>
   <g id="patch_6">
    <path d="M 72 51.84 
L 518.4 51.84 
" style="fill: none; stroke: #000000; stroke-width: 0.8; stroke-linejoin: miter; stroke-linecap: square"/>
   </g>
   <g id="text_19">
    <!-- M3: Methionin; Aspartat; Threonin -->
    <g transform="translate(209.858594 45.84) scale(0.1 -0.1)">
     <defs>
      <path id="DejaVuSans-4d" d="M 628 4666 
L 1569 4666 
L 2759 1491 
L 3956 4666 
L 4897 4666 
L 4897 0 
L 4281 0 
L 4281 4097 
L 3078 897 
L 2444 897 
L 1241 4097 
L 1241 0 
L 628 0 
L 628 4666 
z
" transform="scale(0.015625)"/>
      <path id="DejaVuSans-3a" d="M 750 794 
L 1409 794 
L 1409 0 
L 750 0 
L 750 794 
z
M 750 3309 
L 1409 3309 
L 1409 2516 
L 750 2516 
L 750 3309 
z
" transform="scale(0.015625)"/>
      <path id="DejaVuSans-3b" d="M 750 3309 
L 1409 3309 
L 1409 2516 
L 750 2516 
L 750 3309 
z
M 750 794 
L 1409 794 
L 1409 256 
L 897 -744 
L 494 -744 
L 750 256 
L 750 794 
z
" transform="scale(0.015625)"/>
      <path id="DejaVuSans-41" d="M 2188 4044 
L 1331 1722 
L 3047 1722 
L 2188 4044 
z
M 1831 4666 
L 2547 4666 
L 4325 0 
L 3669 0 
L 3244 1197 
L 1141 1197 
L 716 0 
L 50 0 
L 1831 4666 
z
" transform="scale(0.015625)"/>
      <path id="DejaVuSans-70" d="M 1159 525 
L 1159 -1331 
L 581 -1331 
L 581 3500 
L 1159 3500 
L 1159 2969 
Q 1341 3281 1617 3432 
Q 1894 3584 2278 3584 
Q 2916 3584 3314 3078 
Q 3713 2572 3713 1747 
Q 3713 922 3314 415 
Q 2916 -91 2278 -91 
Q 1894 -91 1617 61 
Q 1341 213 1159 525 
z
M 3116 1747 
Q 3116 2381 2855 2742 
Q 2594 3103 2138 3103 
Q 1681 3103 1420 2742 
Q 1159 2381 1159 1747 
Q 1159 1113 1420 752 
Q 1681 391 2138 391 
Q 2594 391 2855 752 
Q 3116 1113 3116 1747 
z
" transform="scale(0.015625)"/>
      <path id="DejaVuSans-54" d="M -19 4666 
L 3928 4666 
L 3928 4134 
L 2272 4134 
L 2272 0 
L 1638 0 
L 1638 4134 
L -19 4134 
L -19 4666 
z
" transform="scale(0.015625)"/>
     </defs>
     <use xlink:href="#DejaVuSans-4d"/>
     <use xlink:href="#DejaVuSans-33" x="86.279297"/>
     <use xlink:href="#DejaVuSans-3a" x="149.902344"/>
     <use xlink:href="#DejaVuSans-20" x="183.59375"/>
     <use xlink:href="#DejaVuSans-4d" x="215.380859"/>
     <use xlink:href="#DejaVuSans-65" x="301.660156"/>
     <use xlink:href="#DejaVuSans-74" x="363.183594"/>
     <use xlink:href="#DejaVuSans-68" x="402.392578"/>
     <use xlink:href="#DejaVuSans-69" x="465.771484"/>
     <use xlink:href="#DejaVuSans-6f" x="493.554688"/>
     <use xlink:href="#DejaVuSans-6e" x="554.736328"/>
     <use xlink:href="#DejaVuSans-69" x="618.115234"/>
     <use xlink:href="#DejaVuSans-6e" x="645.898438"/>
     <use xlink:href="#DejaVuSans-3b" x="709.277344"/>
     <use xlink:href="#DejaVuSans-20" x="742.96875"/>
     <use xlink:href="#DejaVuSans-41" x="774.755859"/>
     <use xlink:href="#DejaVuSans-73" x="843.164062"/>
     <use xlink:href="#DejaVuSans-70" x="895.263672"/>
     <use xlink:href="#DejaVuSans-61" x="958.740234"/>
     <use xlink:href="#DejaVuSans-72" x="1020.019531"/>
     <use xlink:href="#DejaVuSans-74" x="1061.132812"/>
     <use xlink:href="#DejaVuSans-61" x="1100.341797"/>
     <use xlink:href="#DejaVuSans-74" x="1161.621094"/>
     <use xlink:href="#DejaVuSans-3b" x="1200.830078"/>
     <use xlink:href="#DejaVuSans-20" x="1234.521484"/>
     <use xlink:href="#DejaVuSans-54" x="1266.308594"/>
     <use xlink:href="#DejaVuSans-68" x="1327.392578"/>
     <use xlink:href="#DejaVuSans-72" x="1390.771484"/>
     <use xlink:href="#DejaVuSans-65" x="1429.634766"/>
     <use xlink:href="#DejaVuSans-6f" x="1491.158203"/>
     <use xlink:href="#DejaVuSans-6e" x="1552.339844"/>
     <use xlink:href="#DejaVuSans-69" x="1615.71875"/>
     <use xlink:href="#DejaVuSans-6e" x="1643.501953"/>
    </g>
   </g>
  </g>
 </g>
 <defs>
  <clipPath id="p0229c72314">
   <rect x="72" y="51.84" width="446.4" height="332.64"/>
  </clipPath>
 </defs>
</svg>
