<?xml version="1.0" encoding="utf-8" standalone="no"?>
<!DOCTYPE svg PUBLIC "-//W3C//DTD SVG 1.1//EN"
  "http://www.w3.org/Graphics/SVG/1.1/DTD/svg11.dtd">
<svg xmlns:xlink="http://www.w3.org/1999/xlink" width="576pt" height="432pt" viewBox="0 0 576 432" xmlns="http://www.w3.org/2000/svg" version="1.1">
 <metadata>
  <rdf:RDF xmlns:dc="http://purl.org/dc/elements/1.1/" xmlns:cc="http://creativecommons.org/ns#" xmlns:rdf="http://www.w3.org/1999/02/22-rdf-syntax-ns#">
   <cc:Work>
    <dc:type rdf:resource="http://purl.org/dc/dcmitype/StillImage"/>
    <dc:date>2024-11-12T14:09:01.562984</dc:date>
    <dc:format>image/svg+xml</dc:format>
    <dc:creator>
     <cc:Agent>
      <dc:title>Matplotlib v3.7.5, https://matplotlib.org/</dc:title>
     </cc:Agent>
    </dc:creator>
   </cc:Work>
  </rdf:RDF>
 </metadata>
 <defs>
  <style type="text/css">*{stroke-linejoin: round; stroke-linecap: butt}</style>
 </defs>
 <g id="figure_1">
  <g id="patch_1">
   <path d="M 0 432 
L 576 432 
L 576 0 
L 0 0 
z
" style="fill: #ffffff"/>
  </g>
  <g id="axes_1">
   <g id="patch_2">
    <path d="M 72 384.48 
L 518.4 384.48 
L 518.4 51.84 
L 72 51.84 
z
" style="fill: #ffffff"/>
   </g>
   <g id="matplotlib.axis_1">
    <g id="xtick_1">
     <g id="line2d_1">
      <path d="M 92.290909 384.48 
L 92.290909 51.84 
" clip-path="url(#pc8a43d104e)" style="fill: none; stroke: #b0b0b0; stroke-width: 0.8; stroke-linecap: square"/>
     </g>
     <g id="line2d_2">
      <defs>
       <path id="m21bb4f1c68" d="M 0 0 
L 0 3.5 
" style="stroke: #000000; stroke-width: 0.8"/>
      </defs>
      <g>
       <use xlink:href="#m21bb4f1c68" x="92.290909" y="384.48" style="stroke: #000000; stroke-width: 0.8"/>
      </g>
     </g>
     <g id="text_1">
      <!-- 0.17 -->
      <g transform="translate(81.158097 399.078438) scale(0.1 -0.1)">
       <defs>
        <path id="DejaVuSans-30" d="M 2034 4250 
Q 1547 4250 1301 3770 
Q 1056 3291 1056 2328 
Q 1056 1369 1301 889 
Q 1547 409 2034 409 
Q 2525 409 2770 889 
Q 3016 1369 3016 2328 
Q 3016 3291 2770 3770 
Q 2525 4250 2034 4250 
z
M 2034 4750 
Q 2819 4750 3233 4129 
Q 3647 3509 3647 2328 
Q 3647 1150 3233 529 
Q 2819 -91 2034 -91 
Q 1250 -91 836 529 
Q 422 1150 422 2328 
Q 422 3509 836 4129 
Q 1250 4750 2034 4750 
z
" transform="scale(0.015625)"/>
        <path id="DejaVuSans-2e" d="M 684 794 
L 1344 794 
L 1344 0 
L 684 0 
L 684 794 
z
" transform="scale(0.015625)"/>
        <path id="DejaVuSans-31" d="M 794 531 
L 1825 531 
L 1825 4091 
L 703 3866 
L 703 4441 
L 1819 4666 
L 2450 4666 
L 2450 531 
L 3481 531 
L 3481 0 
L 794 0 
L 794 531 
z
" transform="scale(0.015625)"/>
        <path id="DejaVuSans-37" d="M 525 4666 
L 3525 4666 
L 3525 4397 
L 1831 0 
L 1172 0 
L 2766 4134 
L 525 4134 
L 525 4666 
z
" transform="scale(0.015625)"/>
       </defs>
       <use xlink:href="#DejaVuSans-30"/>
       <use xlink:href="#DejaVuSans-2e" x="63.623047"/>
       <use xlink:href="#DejaVuSans-31" x="95.410156"/>
       <use xlink:href="#DejaVuSans-37" x="159.033203"/>
      </g>
     </g>
    </g>
    <g id="xtick_2">
     <g id="line2d_3">
      <path d="M 156.451886 384.48 
L 156.451886 51.84 
" clip-path="url(#pc8a43d104e)" style="fill: none; stroke: #b0b0b0; stroke-width: 0.8; stroke-linecap: square"/>
     </g>
     <g id="line2d_4">
      <g>
       <use xlink:href="#m21bb4f1c68" x="156.451886" y="384.48" style="stroke: #000000; stroke-width: 0.8"/>
      </g>
     </g>
     <g id="text_2">
      <!-- 6.83 -->
      <g transform="translate(145.319074 399.078438) scale(0.1 -0.1)">
       <defs>
        <path id="DejaVuSans-36" d="M 2113 2584 
Q 1688 2584 1439 2293 
Q 1191 2003 1191 1497 
Q 1191 994 1439 701 
Q 1688 409 2113 409 
Q 2538 409 2786 701 
Q 3034 994 3034 1497 
Q 3034 2003 2786 2293 
Q 2538 2584 2113 2584 
z
M 3366 4563 
L 3366 3988 
Q 3128 4100 2886 4159 
Q 2644 4219 2406 4219 
Q 1781 4219 1451 3797 
Q 1122 3375 1075 2522 
Q 1259 2794 1537 2939 
Q 1816 3084 2150 3084 
Q 2853 3084 3261 2657 
Q 3669 2231 3669 1497 
Q 3669 778 3244 343 
Q 2819 -91 2113 -91 
Q 1303 -91 875 529 
Q 447 1150 447 2328 
Q 447 3434 972 4092 
Q 1497 4750 2381 4750 
Q 2619 4750 2861 4703 
Q 3103 4656 3366 4563 
z
" transform="scale(0.015625)"/>
        <path id="DejaVuSans-38" d="M 2034 2216 
Q 1584 2216 1326 1975 
Q 1069 1734 1069 1313 
Q 1069 891 1326 650 
Q 1584 409 2034 409 
Q 2484 409 2743 651 
Q 3003 894 3003 1313 
Q 3003 1734 2745 1975 
Q 2488 2216 2034 2216 
z
M 1403 2484 
Q 997 2584 770 2862 
Q 544 3141 544 3541 
Q 544 4100 942 4425 
Q 1341 4750 2034 4750 
Q 2731 4750 3128 4425 
Q 3525 4100 3525 3541 
Q 3525 3141 3298 2862 
Q 3072 2584 2669 2484 
Q 3125 2378 3379 2068 
Q 3634 1759 3634 1313 
Q 3634 634 3220 271 
Q 2806 -91 2034 -91 
Q 1263 -91 848 271 
Q 434 634 434 1313 
Q 434 1759 690 2068 
Q 947 2378 1403 2484 
z
M 1172 3481 
Q 1172 3119 1398 2916 
Q 1625 2713 2034 2713 
Q 2441 2713 2670 2916 
Q 2900 3119 2900 3481 
Q 2900 3844 2670 4047 
Q 2441 4250 2034 4250 
Q 1625 4250 1398 4047 
Q 1172 3844 1172 3481 
z
" transform="scale(0.015625)"/>
        <path id="DejaVuSans-33" d="M 2597 2516 
Q 3050 2419 3304 2112 
Q 3559 1806 3559 1356 
Q 3559 666 3084 287 
Q 2609 -91 1734 -91 
Q 1441 -91 1130 -33 
Q 819 25 488 141 
L 488 750 
Q 750 597 1062 519 
Q 1375 441 1716 441 
Q 2309 441 2620 675 
Q 2931 909 2931 1356 
Q 2931 1769 2642 2001 
Q 2353 2234 1838 2234 
L 1294 2234 
L 1294 2753 
L 1863 2753 
Q 2328 2753 2575 2939 
Q 2822 3125 2822 3475 
Q 2822 3834 2567 4026 
Q 2313 4219 1838 4219 
Q 1578 4219 1281 4162 
Q 984 4106 628 3988 
L 628 4550 
Q 988 4650 1302 4700 
Q 1616 4750 1894 4750 
Q 2613 4750 3031 4423 
Q 3450 4097 3450 3541 
Q 3450 3153 3228 2886 
Q 3006 2619 2597 2516 
z
" transform="scale(0.015625)"/>
       </defs>
       <use xlink:href="#DejaVuSans-36"/>
       <use xlink:href="#DejaVuSans-2e" x="63.623047"/>
       <use xlink:href="#DejaVuSans-38" x="95.410156"/>
       <use xlink:href="#DejaVuSans-33" x="159.033203"/>
      </g>
     </g>
    </g>
    <g id="xtick_3">
     <g id="line2d_5">
      <path d="M 220.612864 384.48 
L 220.612864 51.84 
" clip-path="url(#pc8a43d104e)" style="fill: none; stroke: #b0b0b0; stroke-width: 0.8; stroke-linecap: square"/>
     </g>
     <g id="line2d_6">
      <g>
       <use xlink:href="#m21bb4f1c68" x="220.612864" y="384.48" style="stroke: #000000; stroke-width: 0.8"/>
      </g>
     </g>
     <g id="text_3">
      <!-- 13.5 -->
      <g transform="translate(209.480051 399.078438) scale(0.1 -0.1)">
       <defs>
        <path id="DejaVuSans-35" d="M 691 4666 
L 3169 4666 
L 3169 4134 
L 1269 4134 
L 1269 2991 
Q 1406 3038 1543 3061 
Q 1681 3084 1819 3084 
Q 2600 3084 3056 2656 
Q 3513 2228 3513 1497 
Q 3513 744 3044 326 
Q 2575 -91 1722 -91 
Q 1428 -91 1123 -41 
Q 819 9 494 109 
L 494 744 
Q 775 591 1075 516 
Q 1375 441 1709 441 
Q 2250 441 2565 725 
Q 2881 1009 2881 1497 
Q 2881 1984 2565 2268 
Q 2250 2553 1709 2553 
Q 1456 2553 1204 2497 
Q 953 2441 691 2322 
L 691 4666 
z
" transform="scale(0.015625)"/>
       </defs>
       <use xlink:href="#DejaVuSans-31"/>
       <use xlink:href="#DejaVuSans-33" x="63.623047"/>
       <use xlink:href="#DejaVuSans-2e" x="127.246094"/>
       <use xlink:href="#DejaVuSans-35" x="159.033203"/>
      </g>
     </g>
    </g>
    <g id="xtick_4">
     <g id="line2d_7">
      <path d="M 284.773841 384.48 
L 284.773841 51.84 
" clip-path="url(#pc8a43d104e)" style="fill: none; stroke: #b0b0b0; stroke-width: 0.8; stroke-linecap: square"/>
     </g>
     <g id="line2d_8">
      <g>
       <use xlink:href="#m21bb4f1c68" x="284.773841" y="384.48" style="stroke: #000000; stroke-width: 0.8"/>
      </g>
     </g>
     <g id="text_4">
      <!-- 20.17 -->
      <g transform="translate(270.459779 399.078438) scale(0.1 -0.1)">
       <defs>
        <path id="DejaVuSans-32" d="M 1228 531 
L 3431 531 
L 3431 0 
L 469 0 
L 469 531 
Q 828 903 1448 1529 
Q 2069 2156 2228 2338 
Q 2531 2678 2651 2914 
Q 2772 3150 2772 3378 
Q 2772 3750 2511 3984 
Q 2250 4219 1831 4219 
Q 1534 4219 1204 4116 
Q 875 4013 500 3803 
L 500 4441 
Q 881 4594 1212 4672 
Q 1544 4750 1819 4750 
Q 2544 4750 2975 4387 
Q 3406 4025 3406 3419 
Q 3406 3131 3298 2873 
Q 3191 2616 2906 2266 
Q 2828 2175 2409 1742 
Q 1991 1309 1228 531 
z
" transform="scale(0.015625)"/>
       </defs>
       <use xlink:href="#DejaVuSans-32"/>
       <use xlink:href="#DejaVuSans-30" x="63.623047"/>
       <use xlink:href="#DejaVuSans-2e" x="127.246094"/>
       <use xlink:href="#DejaVuSans-31" x="159.033203"/>
       <use xlink:href="#DejaVuSans-37" x="222.65625"/>
      </g>
     </g>
    </g>
    <g id="xtick_5">
     <g id="line2d_9">
      <path d="M 348.934819 384.48 
L 348.934819 51.84 
" clip-path="url(#pc8a43d104e)" style="fill: none; stroke: #b0b0b0; stroke-width: 0.8; stroke-linecap: square"/>
     </g>
     <g id="line2d_10">
      <g>
       <use xlink:href="#m21bb4f1c68" x="348.934819" y="384.48" style="stroke: #000000; stroke-width: 0.8"/>
      </g>
     </g>
     <g id="text_5">
      <!-- 26.83 -->
      <g transform="translate(334.620756 399.078438) scale(0.1 -0.1)">
       <use xlink:href="#DejaVuSans-32"/>
       <use xlink:href="#DejaVuSans-36" x="63.623047"/>
       <use xlink:href="#DejaVuSans-2e" x="127.246094"/>
       <use xlink:href="#DejaVuSans-38" x="159.033203"/>
       <use xlink:href="#DejaVuSans-33" x="222.65625"/>
      </g>
     </g>
    </g>
    <g id="xtick_6">
     <g id="line2d_11">
      <path d="M 413.095796 384.48 
L 413.095796 51.84 
" clip-path="url(#pc8a43d104e)" style="fill: none; stroke: #b0b0b0; stroke-width: 0.8; stroke-linecap: square"/>
     </g>
     <g id="line2d_12">
      <g>
       <use xlink:href="#m21bb4f1c68" x="413.095796" y="384.48" style="stroke: #000000; stroke-width: 0.8"/>
      </g>
     </g>
     <g id="text_6">
      <!-- 33.5 -->
      <g transform="translate(401.962983 399.078438) scale(0.1 -0.1)">
       <use xlink:href="#DejaVuSans-33"/>
       <use xlink:href="#DejaVuSans-33" x="63.623047"/>
       <use xlink:href="#DejaVuSans-2e" x="127.246094"/>
       <use xlink:href="#DejaVuSans-35" x="159.033203"/>
      </g>
     </g>
    </g>
    <g id="xtick_7">
     <g id="line2d_13">
      <path d="M 477.256773 384.48 
L 477.256773 51.84 
" clip-path="url(#pc8a43d104e)" style="fill: none; stroke: #b0b0b0; stroke-width: 0.8; stroke-linecap: square"/>
     </g>
     <g id="line2d_14">
      <g>
       <use xlink:href="#m21bb4f1c68" x="477.256773" y="384.48" style="stroke: #000000; stroke-width: 0.8"/>
      </g>
     </g>
     <g id="text_7">
      <!-- 40.17 -->
      <g transform="translate(462.942711 399.078438) scale(0.1 -0.1)">
       <defs>
        <path id="DejaVuSans-34" d="M 2419 4116 
L 825 1625 
L 2419 1625 
L 2419 4116 
z
M 2253 4666 
L 3047 4666 
L 3047 1625 
L 3713 1625 
L 3713 1100 
L 3047 1100 
L 3047 0 
L 2419 0 
L 2419 1100 
L 313 1100 
L 313 1709 
L 2253 4666 
z
" transform="scale(0.015625)"/>
       </defs>
       <use xlink:href="#DejaVuSans-34"/>
       <use xlink:href="#DejaVuSans-30" x="63.623047"/>
       <use xlink:href="#DejaVuSans-2e" x="127.246094"/>
       <use xlink:href="#DejaVuSans-31" x="159.033203"/>
       <use xlink:href="#DejaVuSans-37" x="222.65625"/>
      </g>
     </g>
    </g>
    <g id="text_8">
     <!-- time in hours [h] -->
     <g transform="translate(253.451562 412.756563) scale(0.1 -0.1)">
      <defs>
       <path id="DejaVuSans-74" d="M 1172 4494 
L 1172 3500 
L 2356 3500 
L 2356 3053 
L 1172 3053 
L 1172 1153 
Q 1172 725 1289 603 
Q 1406 481 1766 481 
L 2356 481 
L 2356 0 
L 1766 0 
Q 1100 0 847 248 
Q 594 497 594 1153 
L 594 3053 
L 172 3053 
L 172 3500 
L 594 3500 
L 594 4494 
L 1172 4494 
z
" transform="scale(0.015625)"/>
       <path id="DejaVuSans-69" d="M 603 3500 
L 1178 3500 
L 1178 0 
L 603 0 
L 603 3500 
z
M 603 4863 
L 1178 4863 
L 1178 4134 
L 603 4134 
L 603 4863 
z
" transform="scale(0.015625)"/>
       <path id="DejaVuSans-6d" d="M 3328 2828 
Q 3544 3216 3844 3400 
Q 4144 3584 4550 3584 
Q 5097 3584 5394 3201 
Q 5691 2819 5691 2113 
L 5691 0 
L 5113 0 
L 5113 2094 
Q 5113 2597 4934 2840 
Q 4756 3084 4391 3084 
Q 3944 3084 3684 2787 
Q 3425 2491 3425 1978 
L 3425 0 
L 2847 0 
L 2847 2094 
Q 2847 2600 2669 2842 
Q 2491 3084 2119 3084 
Q 1678 3084 1418 2786 
Q 1159 2488 1159 1978 
L 1159 0 
L 581 0 
L 581 3500 
L 1159 3500 
L 1159 2956 
Q 1356 3278 1631 3431 
Q 1906 3584 2284 3584 
Q 2666 3584 2933 3390 
Q 3200 3197 3328 2828 
z
" transform="scale(0.015625)"/>
       <path id="DejaVuSans-65" d="M 3597 1894 
L 3597 1613 
L 953 1613 
Q 991 1019 1311 708 
Q 1631 397 2203 397 
Q 2534 397 2845 478 
Q 3156 559 3463 722 
L 3463 178 
Q 3153 47 2828 -22 
Q 2503 -91 2169 -91 
Q 1331 -91 842 396 
Q 353 884 353 1716 
Q 353 2575 817 3079 
Q 1281 3584 2069 3584 
Q 2775 3584 3186 3129 
Q 3597 2675 3597 1894 
z
M 3022 2063 
Q 3016 2534 2758 2815 
Q 2500 3097 2075 3097 
Q 1594 3097 1305 2825 
Q 1016 2553 972 2059 
L 3022 2063 
z
" transform="scale(0.015625)"/>
       <path id="DejaVuSans-20" transform="scale(0.015625)"/>
       <path id="DejaVuSans-6e" d="M 3513 2113 
L 3513 0 
L 2938 0 
L 2938 2094 
Q 2938 2591 2744 2837 
Q 2550 3084 2163 3084 
Q 1697 3084 1428 2787 
Q 1159 2491 1159 1978 
L 1159 0 
L 581 0 
L 581 3500 
L 1159 3500 
L 1159 2956 
Q 1366 3272 1645 3428 
Q 1925 3584 2291 3584 
Q 2894 3584 3203 3211 
Q 3513 2838 3513 2113 
z
" transform="scale(0.015625)"/>
       <path id="DejaVuSans-68" d="M 3513 2113 
L 3513 0 
L 2938 0 
L 2938 2094 
Q 2938 2591 2744 2837 
Q 2550 3084 2163 3084 
Q 1697 3084 1428 2787 
Q 1159 2491 1159 1978 
L 1159 0 
L 581 0 
L 581 4863 
L 1159 4863 
L 1159 2956 
Q 1366 3272 1645 3428 
Q 1925 3584 2291 3584 
Q 2894 3584 3203 3211 
Q 3513 2838 3513 2113 
z
" transform="scale(0.015625)"/>
       <path id="DejaVuSans-6f" d="M 1959 3097 
Q 1497 3097 1228 2736 
Q 959 2375 959 1747 
Q 959 1119 1226 758 
Q 1494 397 1959 397 
Q 2419 397 2687 759 
Q 2956 1122 2956 1747 
Q 2956 2369 2687 2733 
Q 2419 3097 1959 3097 
z
M 1959 3584 
Q 2709 3584 3137 3096 
Q 3566 2609 3566 1747 
Q 3566 888 3137 398 
Q 2709 -91 1959 -91 
Q 1206 -91 779 398 
Q 353 888 353 1747 
Q 353 2609 779 3096 
Q 1206 3584 1959 3584 
z
" transform="scale(0.015625)"/>
       <path id="DejaVuSans-75" d="M 544 1381 
L 544 3500 
L 1119 3500 
L 1119 1403 
Q 1119 906 1312 657 
Q 1506 409 1894 409 
Q 2359 409 2629 706 
Q 2900 1003 2900 1516 
L 2900 3500 
L 3475 3500 
L 3475 0 
L 2900 0 
L 2900 538 
Q 2691 219 2414 64 
Q 2138 -91 1772 -91 
Q 1169 -91 856 284 
Q 544 659 544 1381 
z
M 1991 3584 
L 1991 3584 
z
" transform="scale(0.015625)"/>
       <path id="DejaVuSans-72" d="M 2631 2963 
Q 2534 3019 2420 3045 
Q 2306 3072 2169 3072 
Q 1681 3072 1420 2755 
Q 1159 2438 1159 1844 
L 1159 0 
L 581 0 
L 581 3500 
L 1159 3500 
L 1159 2956 
Q 1341 3275 1631 3429 
Q 1922 3584 2338 3584 
Q 2397 3584 2469 3576 
Q 2541 3569 2628 3553 
L 2631 2963 
z
" transform="scale(0.015625)"/>
       <path id="DejaVuSans-73" d="M 2834 3397 
L 2834 2853 
Q 2591 2978 2328 3040 
Q 2066 3103 1784 3103 
Q 1356 3103 1142 2972 
Q 928 2841 928 2578 
Q 928 2378 1081 2264 
Q 1234 2150 1697 2047 
L 1894 2003 
Q 2506 1872 2764 1633 
Q 3022 1394 3022 966 
Q 3022 478 2636 193 
Q 2250 -91 1575 -91 
Q 1294 -91 989 -36 
Q 684 19 347 128 
L 347 722 
Q 666 556 975 473 
Q 1284 391 1588 391 
Q 1994 391 2212 530 
Q 2431 669 2431 922 
Q 2431 1156 2273 1281 
Q 2116 1406 1581 1522 
L 1381 1569 
Q 847 1681 609 1914 
Q 372 2147 372 2553 
Q 372 3047 722 3315 
Q 1072 3584 1716 3584 
Q 2034 3584 2315 3537 
Q 2597 3491 2834 3397 
z
" transform="scale(0.015625)"/>
       <path id="DejaVuSans-5b" d="M 550 4863 
L 1875 4863 
L 1875 4416 
L 1125 4416 
L 1125 -397 
L 1875 -397 
L 1875 -844 
L 550 -844 
L 550 4863 
z
" transform="scale(0.015625)"/>
       <path id="DejaVuSans-5d" d="M 1947 4863 
L 1947 -844 
L 622 -844 
L 622 -397 
L 1369 -397 
L 1369 4416 
L 622 4416 
L 622 4863 
L 1947 4863 
z
" transform="scale(0.015625)"/>
      </defs>
      <use xlink:href="#DejaVuSans-74"/>
      <use xlink:href="#DejaVuSans-69" x="39.208984"/>
      <use xlink:href="#DejaVuSans-6d" x="66.992188"/>
      <use xlink:href="#DejaVuSans-65" x="164.404297"/>
      <use xlink:href="#DejaVuSans-20" x="225.927734"/>
      <use xlink:href="#DejaVuSans-69" x="257.714844"/>
      <use xlink:href="#DejaVuSans-6e" x="285.498047"/>
      <use xlink:href="#DejaVuSans-20" x="348.876953"/>
      <use xlink:href="#DejaVuSans-68" x="380.664062"/>
      <use xlink:href="#DejaVuSans-6f" x="444.042969"/>
      <use xlink:href="#DejaVuSans-75" x="505.224609"/>
      <use xlink:href="#DejaVuSans-72" x="568.603516"/>
      <use xlink:href="#DejaVuSans-73" x="609.716797"/>
      <use xlink:href="#DejaVuSans-20" x="661.816406"/>
      <use xlink:href="#DejaVuSans-5b" x="693.603516"/>
      <use xlink:href="#DejaVuSans-68" x="732.617188"/>
      <use xlink:href="#DejaVuSans-5d" x="795.996094"/>
     </g>
    </g>
   </g>
   <g id="matplotlib.axis_2">
    <g id="ytick_1">
     <g id="line2d_15">
      <path d="M 72 325.980105 
L 518.4 325.980105 
" clip-path="url(#pc8a43d104e)" style="fill: none; stroke: #b0b0b0; stroke-width: 0.8; stroke-linecap: square"/>
     </g>
     <g id="line2d_16">
      <defs>
       <path id="m1b26a52073" d="M 0 0 
L -3.5 0 
" style="stroke: #000000; stroke-width: 0.8"/>
      </defs>
      <g>
       <use xlink:href="#m1b26a52073" x="72" y="325.980105" style="stroke: #000000; stroke-width: 0.8"/>
      </g>
     </g>
     <g id="text_9">
      <!-- 20000 -->
      <g transform="translate(33.1875 329.779323) scale(0.1 -0.1)">
       <use xlink:href="#DejaVuSans-32"/>
       <use xlink:href="#DejaVuSans-30" x="63.623047"/>
       <use xlink:href="#DejaVuSans-30" x="127.246094"/>
       <use xlink:href="#DejaVuSans-30" x="190.869141"/>
       <use xlink:href="#DejaVuSans-30" x="254.492188"/>
      </g>
     </g>
    </g>
    <g id="ytick_2">
     <g id="line2d_17">
      <path d="M 72 258.969224 
L 518.4 258.969224 
" clip-path="url(#pc8a43d104e)" style="fill: none; stroke: #b0b0b0; stroke-width: 0.8; stroke-linecap: square"/>
     </g>
     <g id="line2d_18">
      <g>
       <use xlink:href="#m1b26a52073" x="72" y="258.969224" style="stroke: #000000; stroke-width: 0.8"/>
      </g>
     </g>
     <g id="text_10">
      <!-- 40000 -->
      <g transform="translate(33.1875 262.768443) scale(0.1 -0.1)">
       <use xlink:href="#DejaVuSans-34"/>
       <use xlink:href="#DejaVuSans-30" x="63.623047"/>
       <use xlink:href="#DejaVuSans-30" x="127.246094"/>
       <use xlink:href="#DejaVuSans-30" x="190.869141"/>
       <use xlink:href="#DejaVuSans-30" x="254.492188"/>
      </g>
     </g>
    </g>
    <g id="ytick_3">
     <g id="line2d_19">
      <path d="M 72 191.958344 
L 518.4 191.958344 
" clip-path="url(#pc8a43d104e)" style="fill: none; stroke: #b0b0b0; stroke-width: 0.8; stroke-linecap: square"/>
     </g>
     <g id="line2d_20">
      <g>
       <use xlink:href="#m1b26a52073" x="72" y="191.958344" style="stroke: #000000; stroke-width: 0.8"/>
      </g>
     </g>
     <g id="text_11">
      <!-- 60000 -->
      <g transform="translate(33.1875 195.757562) scale(0.1 -0.1)">
       <use xlink:href="#DejaVuSans-36"/>
       <use xlink:href="#DejaVuSans-30" x="63.623047"/>
       <use xlink:href="#DejaVuSans-30" x="127.246094"/>
       <use xlink:href="#DejaVuSans-30" x="190.869141"/>
       <use xlink:href="#DejaVuSans-30" x="254.492188"/>
      </g>
     </g>
    </g>
    <g id="ytick_4">
     <g id="line2d_21">
      <path d="M 72 124.947463 
L 518.4 124.947463 
" clip-path="url(#pc8a43d104e)" style="fill: none; stroke: #b0b0b0; stroke-width: 0.8; stroke-linecap: square"/>
     </g>
     <g id="line2d_22">
      <g>
       <use xlink:href="#m1b26a52073" x="72" y="124.947463" style="stroke: #000000; stroke-width: 0.8"/>
      </g>
     </g>
     <g id="text_12">
      <!-- 80000 -->
      <g transform="translate(33.1875 128.746682) scale(0.1 -0.1)">
       <use xlink:href="#DejaVuSans-38"/>
       <use xlink:href="#DejaVuSans-30" x="63.623047"/>
       <use xlink:href="#DejaVuSans-30" x="127.246094"/>
       <use xlink:href="#DejaVuSans-30" x="190.869141"/>
       <use xlink:href="#DejaVuSans-30" x="254.492188"/>
      </g>
     </g>
    </g>
    <g id="ytick_5">
     <g id="line2d_23">
      <path d="M 72 57.936583 
L 518.4 57.936583 
" clip-path="url(#pc8a43d104e)" style="fill: none; stroke: #b0b0b0; stroke-width: 0.8; stroke-linecap: square"/>
     </g>
     <g id="line2d_24">
      <g>
       <use xlink:href="#m1b26a52073" x="72" y="57.936583" style="stroke: #000000; stroke-width: 0.8"/>
      </g>
     </g>
     <g id="text_13">
      <!-- 100000 -->
      <g transform="translate(26.825 61.735802) scale(0.1 -0.1)">
       <use xlink:href="#DejaVuSans-31"/>
       <use xlink:href="#DejaVuSans-30" x="63.623047"/>
       <use xlink:href="#DejaVuSans-30" x="127.246094"/>
       <use xlink:href="#DejaVuSans-30" x="190.869141"/>
       <use xlink:href="#DejaVuSans-30" x="254.492188"/>
       <use xlink:href="#DejaVuSans-30" x="318.115234"/>
      </g>
     </g>
    </g>
    <g id="text_14">
     <!-- blank corrected GFP RFU -->
     <g transform="translate(20.745312 280.149062) rotate(-90) scale(0.1 -0.1)">
      <defs>
       <path id="DejaVuSans-62" d="M 3116 1747 
Q 3116 2381 2855 2742 
Q 2594 3103 2138 3103 
Q 1681 3103 1420 2742 
Q 1159 2381 1159 1747 
Q 1159 1113 1420 752 
Q 1681 391 2138 391 
Q 2594 391 2855 752 
Q 3116 1113 3116 1747 
z
M 1159 2969 
Q 1341 3281 1617 3432 
Q 1894 3584 2278 3584 
Q 2916 3584 3314 3078 
Q 3713 2572 3713 1747 
Q 3713 922 3314 415 
Q 2916 -91 2278 -91 
Q 1894 -91 1617 61 
Q 1341 213 1159 525 
L 1159 0 
L 581 0 
L 581 4863 
L 1159 4863 
L 1159 2969 
z
" transform="scale(0.015625)"/>
       <path id="DejaVuSans-6c" d="M 603 4863 
L 1178 4863 
L 1178 0 
L 603 0 
L 603 4863 
z
" transform="scale(0.015625)"/>
       <path id="DejaVuSans-61" d="M 2194 1759 
Q 1497 1759 1228 1600 
Q 959 1441 959 1056 
Q 959 750 1161 570 
Q 1363 391 1709 391 
Q 2188 391 2477 730 
Q 2766 1069 2766 1631 
L 2766 1759 
L 2194 1759 
z
M 3341 1997 
L 3341 0 
L 2766 0 
L 2766 531 
Q 2569 213 2275 61 
Q 1981 -91 1556 -91 
Q 1019 -91 701 211 
Q 384 513 384 1019 
Q 384 1609 779 1909 
Q 1175 2209 1959 2209 
L 2766 2209 
L 2766 2266 
Q 2766 2663 2505 2880 
Q 2244 3097 1772 3097 
Q 1472 3097 1187 3025 
Q 903 2953 641 2809 
L 641 3341 
Q 956 3463 1253 3523 
Q 1550 3584 1831 3584 
Q 2591 3584 2966 3190 
Q 3341 2797 3341 1997 
z
" transform="scale(0.015625)"/>
       <path id="DejaVuSans-6b" d="M 581 4863 
L 1159 4863 
L 1159 1991 
L 2875 3500 
L 3609 3500 
L 1753 1863 
L 3688 0 
L 2938 0 
L 1159 1709 
L 1159 0 
L 581 0 
L 581 4863 
z
" transform="scale(0.015625)"/>
       <path id="DejaVuSans-63" d="M 3122 3366 
L 3122 2828 
Q 2878 2963 2633 3030 
Q 2388 3097 2138 3097 
Q 1578 3097 1268 2742 
Q 959 2388 959 1747 
Q 959 1106 1268 751 
Q 1578 397 2138 397 
Q 2388 397 2633 464 
Q 2878 531 3122 666 
L 3122 134 
Q 2881 22 2623 -34 
Q 2366 -91 2075 -91 
Q 1284 -91 818 406 
Q 353 903 353 1747 
Q 353 2603 823 3093 
Q 1294 3584 2113 3584 
Q 2378 3584 2631 3529 
Q 2884 3475 3122 3366 
z
" transform="scale(0.015625)"/>
       <path id="DejaVuSans-64" d="M 2906 2969 
L 2906 4863 
L 3481 4863 
L 3481 0 
L 2906 0 
L 2906 525 
Q 2725 213 2448 61 
Q 2172 -91 1784 -91 
Q 1150 -91 751 415 
Q 353 922 353 1747 
Q 353 2572 751 3078 
Q 1150 3584 1784 3584 
Q 2172 3584 2448 3432 
Q 2725 3281 2906 2969 
z
M 947 1747 
Q 947 1113 1208 752 
Q 1469 391 1925 391 
Q 2381 391 2643 752 
Q 2906 1113 2906 1747 
Q 2906 2381 2643 2742 
Q 2381 3103 1925 3103 
Q 1469 3103 1208 2742 
Q 947 2381 947 1747 
z
" transform="scale(0.015625)"/>
       <path id="DejaVuSans-47" d="M 3809 666 
L 3809 1919 
L 2778 1919 
L 2778 2438 
L 4434 2438 
L 4434 434 
Q 4069 175 3628 42 
Q 3188 -91 2688 -91 
Q 1594 -91 976 548 
Q 359 1188 359 2328 
Q 359 3472 976 4111 
Q 1594 4750 2688 4750 
Q 3144 4750 3555 4637 
Q 3966 4525 4313 4306 
L 4313 3634 
Q 3963 3931 3569 4081 
Q 3175 4231 2741 4231 
Q 1884 4231 1454 3753 
Q 1025 3275 1025 2328 
Q 1025 1384 1454 906 
Q 1884 428 2741 428 
Q 3075 428 3337 486 
Q 3600 544 3809 666 
z
" transform="scale(0.015625)"/>
       <path id="DejaVuSans-46" d="M 628 4666 
L 3309 4666 
L 3309 4134 
L 1259 4134 
L 1259 2759 
L 3109 2759 
L 3109 2228 
L 1259 2228 
L 1259 0 
L 628 0 
L 628 4666 
z
" transform="scale(0.015625)"/>
       <path id="DejaVuSans-50" d="M 1259 4147 
L 1259 2394 
L 2053 2394 
Q 2494 2394 2734 2622 
Q 2975 2850 2975 3272 
Q 2975 3691 2734 3919 
Q 2494 4147 2053 4147 
L 1259 4147 
z
M 628 4666 
L 2053 4666 
Q 2838 4666 3239 4311 
Q 3641 3956 3641 3272 
Q 3641 2581 3239 2228 
Q 2838 1875 2053 1875 
L 1259 1875 
L 1259 0 
L 628 0 
L 628 4666 
z
" transform="scale(0.015625)"/>
       <path id="DejaVuSans-52" d="M 2841 2188 
Q 3044 2119 3236 1894 
Q 3428 1669 3622 1275 
L 4263 0 
L 3584 0 
L 2988 1197 
Q 2756 1666 2539 1819 
Q 2322 1972 1947 1972 
L 1259 1972 
L 1259 0 
L 628 0 
L 628 4666 
L 2053 4666 
Q 2853 4666 3247 4331 
Q 3641 3997 3641 3322 
Q 3641 2881 3436 2590 
Q 3231 2300 2841 2188 
z
M 1259 4147 
L 1259 2491 
L 2053 2491 
Q 2509 2491 2742 2702 
Q 2975 2913 2975 3322 
Q 2975 3731 2742 3939 
Q 2509 4147 2053 4147 
L 1259 4147 
z
" transform="scale(0.015625)"/>
       <path id="DejaVuSans-55" d="M 556 4666 
L 1191 4666 
L 1191 1831 
Q 1191 1081 1462 751 
Q 1734 422 2344 422 
Q 2950 422 3222 751 
Q 3494 1081 3494 1831 
L 3494 4666 
L 4128 4666 
L 4128 1753 
Q 4128 841 3676 375 
Q 3225 -91 2344 -91 
Q 1459 -91 1007 375 
Q 556 841 556 1753 
L 556 4666 
z
" transform="scale(0.015625)"/>
      </defs>
      <use xlink:href="#DejaVuSans-62"/>
      <use xlink:href="#DejaVuSans-6c" x="63.476562"/>
      <use xlink:href="#DejaVuSans-61" x="91.259766"/>
      <use xlink:href="#DejaVuSans-6e" x="152.539062"/>
      <use xlink:href="#DejaVuSans-6b" x="215.917969"/>
      <use xlink:href="#DejaVuSans-20" x="273.828125"/>
      <use xlink:href="#DejaVuSans-63" x="305.615234"/>
      <use xlink:href="#DejaVuSans-6f" x="360.595703"/>
      <use xlink:href="#DejaVuSans-72" x="421.777344"/>
      <use xlink:href="#DejaVuSans-72" x="461.140625"/>
      <use xlink:href="#DejaVuSans-65" x="500.003906"/>
      <use xlink:href="#DejaVuSans-63" x="561.527344"/>
      <use xlink:href="#DejaVuSans-74" x="616.507812"/>
      <use xlink:href="#DejaVuSans-65" x="655.716797"/>
      <use xlink:href="#DejaVuSans-64" x="717.240234"/>
      <use xlink:href="#DejaVuSans-20" x="780.716797"/>
      <use xlink:href="#DejaVuSans-47" x="812.503906"/>
      <use xlink:href="#DejaVuSans-46" x="889.994141"/>
      <use xlink:href="#DejaVuSans-50" x="947.513672"/>
      <use xlink:href="#DejaVuSans-20" x="1007.816406"/>
      <use xlink:href="#DejaVuSans-52" x="1039.603516"/>
      <use xlink:href="#DejaVuSans-46" x="1109.085938"/>
      <use xlink:href="#DejaVuSans-55" x="1166.605469"/>
     </g>
    </g>
   </g>
   <g id="line2d_25">
    <path d="M 92.290909 326.050868 
L 93.894934 326.610409 
L 95.498958 326.278705 
L 97.102982 325.786175 
L 98.707007 325.477925 
L 100.311031 324.918384 
L 101.915056 324.757558 
L 103.51908 324.023789 
L 105.123105 323.648528 
L 106.727129 322.532797 
L 108.331153 322.36862 
L 109.935178 321.614748 
L 111.539202 320.33819 
L 113.143227 319.363182 
L 114.747251 318.703125 
L 116.351276 317.218834 
L 117.9553 315.925524 
L 119.559324 314.29716 
L 121.163349 313.248439 
L 125.975422 308.282933 
L 130.787496 302.751185 
L 132.39152 300.221524 
L 133.995544 298.238002 
L 135.599569 295.959632 
L 137.203593 294.016317 
L 140.411642 289.044109 
L 146.82774 278.982426 
L 148.431764 277.019007 
L 150.035789 274.120786 
L 151.639813 270.921017 
L 153.243838 269.289302 
L 154.847862 266.082831 
L 161.26396 255.143305 
L 162.867984 251.598429 
L 164.472009 249.594804 
L 167.680057 246.016423 
L 169.284082 243.65764 
L 170.888106 242.340876 
L 172.492131 239.412501 
L 174.096155 236.065307 
L 175.70018 232.245687 
L 180.512253 219.537074 
L 182.116277 215.925187 
L 183.720302 210.942928 
L 186.928351 202.70059 
L 188.532375 199.979948 
L 191.740424 192.863393 
L 193.344448 190.280123 
L 194.948473 188.477531 
L 196.552497 187.938093 
L 198.156522 187.063601 
L 199.760546 186.383441 
L 201.364571 183.629293 
L 202.968595 181.334171 
L 204.572619 177.209651 
L 206.176644 174.358338 
L 210.988717 160.865697 
L 215.800791 144.635662 
L 217.404815 139.81758 
L 219.008839 133.833508 
L 222.216888 123.229036 
L 223.820913 117.492905 
L 225.424937 112.711679 
L 227.028962 108.5302 
L 228.632986 105.193058 
L 230.23701 104.512897 
L 231.841035 105.786104 
L 233.445059 106.901835 
L 235.049084 106.56343 
L 236.653108 105.668835 
L 238.257133 105.910074 
L 239.861157 104.258256 
L 241.465181 103.011854 
L 246.277255 95.737823 
L 247.881279 93.647083 
L 249.485304 90.497572 
L 251.089328 90.283137 
L 252.693352 88.839052 
L 254.297377 90.98005 
L 255.901401 93.982138 
L 257.505426 103.293299 
L 259.10945 118.092652 
L 263.921524 169.536905 
L 265.525548 188.41387 
L 268.733597 221.507193 
L 270.337621 236.346753 
L 271.941646 246.813852 
L 273.54567 258.62117 
L 275.149695 266.766342 
L 278.357743 280.818524 
L 279.961768 286.692027 
L 281.565792 292.12661 
L 287.98189 310.155887 
L 292.793963 321.929699 
L 297.606037 331.719988 
L 299.210061 334.189339 
L 300.814086 335.924921 
L 302.41811 337.938598 
L 305.626159 341.342751 
L 307.230183 342.669566 
L 308.834208 344.512366 
L 310.438232 345.936347 
L 312.042257 347.018572 
L 315.250305 350.14463 
L 318.458354 353.843631 
L 320.062379 354.999568 
L 321.666403 356.909378 
L 324.874452 359.110686 
L 326.478476 360.397295 
L 328.082501 361.137765 
L 329.686525 362.116124 
L 331.29055 362.869996 
L 334.498599 363.925418 
L 337.706648 364.035986 
L 339.310672 364.488309 
L 340.914696 364.213564 
L 344.122745 364.283926 
L 345.72677 364.548619 
L 350.538843 364.806611 
L 352.142867 365.161768 
L 353.746892 365.366152 
L 360.16299 366.950959 
L 363.371038 367.306117 
L 364.975063 367.02132 
L 366.579087 367.172095 
L 368.183112 367.51385 
L 371.391161 366.981114 
L 372.995185 367.121837 
L 374.599209 366.770029 
L 376.203234 366.662812 
L 377.807258 366.699668 
L 379.411283 366.860494 
L 384.223356 366.682915 
L 387.431405 367.406633 
L 389.035429 367.594263 
L 390.639454 367.463592 
L 392.243478 367.862307 
L 395.451527 367.842204 
L 397.055552 367.517201 
L 398.659576 367.714883 
L 401.867625 367.349674 
L 405.075674 367.473644 
L 406.679698 367.208951 
L 408.283723 367.490396 
L 409.887747 367.363076 
L 413.095796 367.550706 
L 414.69982 367.728285 
L 416.303845 367.657924 
L 417.907869 368.304579 
L 422.719943 368.666437 
L 424.323967 368.656386 
L 425.927991 368.344785 
L 430.740065 368.059989 
L 432.344089 367.781894 
L 433.948114 368.090144 
L 437.156162 367.858956 
L 441.968236 367.905864 
L 443.57226 367.885761 
L 445.176285 368.120299 
L 446.780309 368.180609 
L 448.384333 368.589375 
L 449.988358 368.790408 
L 451.592382 368.569272 
L 453.196407 368.676489 
L 454.800431 368.941182 
L 456.404456 368.61953 
L 458.00848 368.730098 
L 459.612504 368.599427 
L 461.216529 368.220815 
L 462.820553 368.207413 
L 464.424578 368.080092 
L 466.028602 368.247619 
L 469.236651 368.120299 
L 472.4447 368.086793 
L 474.048724 368.234217 
L 475.652749 368.143753 
L 477.256773 368.301228 
L 478.860798 368.817212 
L 480.464822 369.034997 
L 483.672871 369.001492 
L 485.276895 369.11541 
L 486.88092 368.793758 
L 488.484944 368.609478 
L 490.088969 368.813861 
L 491.692993 368.4386 
L 494.901042 368.428549 
L 496.505066 368.100195 
L 498.109091 368.207413 
L 498.109091 368.207413 
" clip-path="url(#pc8a43d104e)" style="fill: none; stroke: #008000; stroke-width: 1.5; stroke-linecap: square"/>
   </g>
   <g id="line2d_26">
    <path d="M 92.290909 329.049605 
L 93.894934 329.656053 
L 95.498958 329.334401 
L 97.102982 328.349341 
L 98.707007 328.181814 
L 101.915056 327.176651 
L 103.51908 327.012474 
L 105.123105 326.657316 
L 109.935178 324.21812 
L 111.539202 323.162699 
L 113.143227 322.315011 
L 114.747251 321.768873 
L 116.351276 320.21422 
L 117.9553 319.242563 
L 119.559324 317.701312 
L 121.163349 316.535323 
L 122.767373 314.927062 
L 124.371398 313.87164 
L 125.975422 311.787602 
L 127.579447 310.256403 
L 129.183471 308.410254 
L 132.39152 304.255579 
L 133.995544 301.876693 
L 137.203593 298.402179 
L 138.807618 297.122271 
L 140.411642 295.098542 
L 142.015667 292.481767 
L 143.619691 289.2954 
L 145.223715 286.558006 
L 146.82774 283.592774 
L 148.431764 281.418271 
L 151.639813 275.997091 
L 153.243838 273.815887 
L 154.847862 271.289577 
L 156.451886 268.997804 
L 159.659935 262.893113 
L 161.26396 260.597991 
L 162.867984 257.559047 
L 164.472009 256.831979 
L 166.076033 257.974515 
L 167.680057 257.632759 
L 169.284082 256.895639 
L 170.888106 255.320884 
L 172.492131 254.081182 
L 174.096155 251.869823 
L 177.304204 245.785235 
L 178.908229 241.593705 
L 182.116277 230.949027 
L 183.720302 223.986596 
L 185.324326 216.116168 
L 186.928351 210.912773 
L 188.532375 207.686199 
L 190.1364 204.094416 
L 191.740424 201.052122 
L 193.344448 200.931503 
L 194.948473 202.305226 
L 198.156522 203.588484 
L 199.760546 203.276883 
L 201.364571 202.687188 
L 202.968595 201.166041 
L 204.572619 199.256231 
L 206.176644 196.133524 
L 207.780668 192.488132 
L 209.384693 189.171093 
L 210.988717 186.648133 
L 214.196766 179.23338 
L 215.800791 173.81555 
L 217.404815 170.662688 
L 219.008839 164.893051 
L 220.612864 160.185537 
L 222.216888 156.161533 
L 225.424937 144.726127 
L 227.028962 139.472474 
L 228.632986 136.49384 
L 230.23701 135.26419 
L 231.841035 136.266003 
L 233.445059 136.825544 
L 235.049084 137.66653 
L 236.653108 138.145658 
L 238.257133 137.994884 
L 239.861157 137.683283 
L 241.465181 137.991533 
L 243.069206 136.714976 
L 244.67323 136.128631 
L 246.277255 134.674495 
L 247.881279 133.518557 
L 249.485304 131.474725 
L 251.089328 132.325763 
L 252.693352 130.7041 
L 254.297377 130.885029 
L 255.901401 130.724203 
L 257.505426 131.484777 
L 259.10945 136.875802 
L 260.713475 144.759632 
L 262.317499 153.420788 
L 263.921524 165.25826 
L 267.129572 193.097931 
L 268.733597 207.458362 
L 270.337621 220.776775 
L 271.941646 232.121717 
L 273.54567 244.378007 
L 276.753719 264.04235 
L 278.357743 272.311492 
L 279.961768 279.702793 
L 281.565792 285.626554 
L 283.169817 290.582009 
L 284.773841 295.004727 
L 286.377866 298.703728 
L 289.585914 307.200707 
L 291.189939 310.758985 
L 294.397988 318.542299 
L 297.606037 325.715814 
L 299.210061 328.905531 
L 302.41811 333.056856 
L 304.022134 335.318473 
L 305.626159 337.181375 
L 307.230183 338.870049 
L 308.834208 340.732952 
L 313.646281 344.890977 
L 315.250305 346.596404 
L 316.85433 347.340225 
L 318.458354 348.84797 
L 320.062379 349.642048 
L 321.666403 351.441291 
L 323.270428 352.748003 
L 326.478476 356.148805 
L 328.082501 357.958099 
L 329.686525 359.576411 
L 331.29055 360.601678 
L 332.894574 361.838029 
L 334.498599 362.896801 
L 336.102623 363.684178 
L 337.706648 364.039336 
L 339.310672 364.716146 
L 342.518721 365.346048 
L 350.538843 365.587287 
L 353.746892 366.334459 
L 355.350916 367.048125 
L 356.954941 367.198899 
L 358.558965 367.657924 
L 360.16299 368.31128 
L 361.767014 368.391693 
L 363.371038 368.596076 
L 366.579087 368.609478 
L 368.183112 368.864119 
L 369.787136 368.539117 
L 371.391161 369.0551 
L 374.599209 368.937831 
L 376.203234 368.914378 
L 381.015307 367.899163 
L 382.619332 368.150454 
L 384.223356 367.986277 
L 387.431405 368.529065 
L 392.243478 369.045049 
L 395.451527 369.148916 
L 400.2636 369.034997 
L 401.867625 368.967986 
L 403.471649 368.596076 
L 405.075674 368.55922 
L 408.283723 368.016432 
L 411.491771 367.487046 
L 413.095796 367.527252 
L 414.69982 367.869008 
L 416.303845 367.848905 
L 417.907869 368.358187 
L 419.511894 368.663087 
L 422.719943 368.800459 
L 424.323967 369.17237 
L 425.927991 368.844016 
L 427.532016 369.102008 
L 429.13604 368.378291 
L 430.740065 368.294527 
L 432.344089 367.869008 
L 433.948114 367.862307 
L 435.552138 367.614367 
L 437.156162 367.051475 
L 440.364211 366.894 
L 441.968236 366.508687 
L 443.57226 366.676214 
L 445.176285 367.151991 
L 446.780309 367.446839 
L 449.988358 368.401744 
L 451.592382 368.599427 
L 453.196407 368.472106 
L 458.00848 368.666437 
L 459.612504 368.358187 
L 462.820553 366.944258 
L 464.424578 366.904051 
L 466.028602 366.682915 
L 469.236651 366.505336 
L 470.840676 366.703019 
L 472.4447 366.197086 
L 474.048724 366.592451 
L 475.652749 366.552244 
L 477.256773 367.282663 
L 478.860798 367.600964 
L 480.464822 367.791945 
L 482.068847 368.217464 
L 485.276895 368.354837 
L 488.484944 368.106897 
L 490.088969 368.180609 
L 491.692993 367.272611 
L 493.297018 366.515388 
L 494.901042 366.639358 
L 498.109091 366.223891 
L 498.109091 366.223891 
" clip-path="url(#pc8a43d104e)" style="fill: none; stroke: #008000; stroke-width: 1.5; stroke-linecap: square"/>
   </g>
   <g id="line2d_27">
    <path d="M 92.290909 328.758108 
L 93.894934 328.091349 
L 95.498958 327.883616 
L 98.707007 326.5568 
L 100.311031 326.261952 
L 101.915056 325.789526 
L 103.51908 325.149572 
L 105.123105 324.868126 
L 108.331153 323.286669 
L 109.935178 322.170938 
L 111.539202 321.685109 
L 113.143227 320.70675 
L 114.747251 319.872465 
L 117.9553 316.95079 
L 119.559324 316.019339 
L 124.371398 311.636828 
L 127.579447 308.269531 
L 129.183471 306.034718 
L 130.787496 304.483416 
L 132.39152 302.513296 
L 135.599569 298.150888 
L 137.203593 296.448812 
L 138.807618 294.264257 
L 140.411642 291.302376 
L 145.223715 284.293038 
L 146.82774 281.582448 
L 148.431764 279.350985 
L 150.035789 276.761015 
L 151.639813 273.923104 
L 153.243838 272.133914 
L 154.847862 268.987753 
L 156.451886 267.178459 
L 159.659935 260.648249 
L 161.26396 258.550808 
L 162.867984 255.156707 
L 164.472009 256.336099 
L 166.076033 257.324509 
L 167.680057 258.604417 
L 169.284082 258.028123 
L 170.888106 256.557234 
L 172.492131 254.694332 
L 174.096155 252.442766 
L 175.70018 248.737065 
L 177.304204 241.302208 
L 180.512253 222.870865 
L 185.324326 211.50917 
L 186.928351 208.24239 
L 188.532375 205.488243 
L 190.1364 201.819397 
L 191.740424 199.018342 
L 193.344448 200.375312 
L 196.552497 204.48643 
L 198.156522 205.478191 
L 199.760546 207.036194 
L 201.364571 207.6929 
L 202.968595 208.111718 
L 204.572619 205.900359 
L 206.176644 201.822747 
L 207.780668 198.251067 
L 209.384693 196.207236 
L 210.988717 192.055912 
L 214.196766 179.906839 
L 215.800791 171.389756 
L 217.404815 163.58969 
L 220.612864 143.942099 
L 222.216888 136.523995 
L 225.424937 118.628739 
L 227.028962 113.723543 
L 228.632986 115.864541 
L 230.23701 120.679272 
L 231.841035 124.60946 
L 233.445059 128.231398 
L 235.049084 133.247163 
L 236.653108 135.532234 
L 238.257133 136.758533 
L 239.861157 137.257764 
L 241.465181 137.217558 
L 244.67323 134.651041 
L 246.277255 132.446383 
L 247.881279 131.608747 
L 249.485304 128.740681 
L 251.089328 126.934738 
L 252.693352 121.46665 
L 254.297377 114.082051 
L 255.901401 107.508284 
L 257.505426 107.73277 
L 259.10945 112.748535 
L 260.713475 125.460499 
L 262.317499 139.606495 
L 263.921524 155.109463 
L 268.733597 207.62924 
L 271.941646 233.92431 
L 273.54567 245.533945 
L 275.149695 254.707734 
L 276.753719 262.38048 
L 278.357743 268.672802 
L 279.961768 272.472319 
L 281.565792 275.903276 
L 283.169817 278.875208 
L 284.773841 282.329619 
L 286.377866 286.27656 
L 287.98189 290.826599 
L 289.585914 295.952931 
L 292.793963 308.648142 
L 294.397988 313.382461 
L 296.002012 318.538948 
L 299.210061 326.292107 
L 302.41811 330.520494 
L 304.022134 333.221032 
L 307.230183 336.501215 
L 308.834208 337.45612 
L 310.438232 337.992207 
L 312.042257 337.697359 
L 313.646281 337.255087 
L 315.250305 338.384221 
L 316.85433 339.868512 
L 318.458354 341.976004 
L 320.062379 343.855659 
L 321.666403 346.184287 
L 326.478476 352.640785 
L 328.082501 355.669677 
L 329.686525 357.586188 
L 331.29055 359.217903 
L 332.894574 360.467656 
L 334.498599 361.502974 
L 336.102623 362.330559 
L 337.706648 362.595252 
L 339.310672 362.578499 
L 340.914696 362.042412 
L 342.518721 361.234931 
L 344.122745 360.762504 
L 348.934819 361.683904 
L 350.538843 361.878235 
L 353.746892 363.194999 
L 355.350916 364.411246 
L 356.954941 365.158418 
L 358.558965 366.049663 
L 360.16299 366.70972 
L 363.371038 367.332921 
L 364.975063 367.262559 
L 366.579087 367.564108 
L 369.787136 367.14529 
L 371.391161 367.044774 
L 372.995185 366.391418 
L 376.203234 364.119749 
L 377.807258 363.684178 
L 382.619332 364.092945 
L 384.223356 364.146554 
L 385.827381 365.168469 
L 390.639454 366.719771 
L 392.243478 367.048125 
L 393.847503 367.108434 
L 397.055552 366.542192 
L 398.659576 365.634195 
L 400.2636 365.369502 
L 401.867625 364.689342 
L 403.471649 365.014344 
L 406.679698 364.870271 
L 408.283723 364.98419 
L 411.491771 364.990891 
L 414.69982 365.500173 
L 419.511894 367.460242 
L 421.115918 367.791945 
L 422.719943 367.795296 
L 424.323967 367.996329 
L 425.927991 367.962823 
L 427.532016 367.255858 
L 429.13604 365.808423 
L 433.948114 365.386255 
L 435.552138 365.513575 
L 437.156162 365.84863 
L 438.760187 365.774918 
L 440.364211 365.915641 
L 441.968236 365.818475 
L 443.57226 365.996054 
L 445.176285 366.65276 
L 446.780309 366.977763 
L 448.384333 367.621068 
L 449.988358 368.395043 
L 451.592382 368.575973 
L 454.800431 368.237568 
L 456.404456 367.982926 
L 458.00848 367.369777 
L 459.612504 366.28085 
L 461.216529 366.190385 
L 462.820553 365.771567 
L 464.424578 366.046312 
L 466.028602 365.925692 
L 467.632627 366.09657 
L 469.236651 366.049663 
L 474.048724 366.22054 
L 475.652749 366.243994 
L 477.256773 366.900701 
L 478.860798 367.373127 
L 480.464822 368.033185 
L 482.068847 368.264372 
L 485.276895 368.324682 
L 486.88092 367.989627 
L 488.484944 366.820288 
L 490.088969 366.287551 
L 491.692993 366.321057 
L 493.297018 366.227241 
L 494.901042 366.381366 
L 496.505066 366.294252 
L 498.109091 366.475182 
L 498.109091 366.475182 
" clip-path="url(#pc8a43d104e)" style="fill: none; stroke: #008000; stroke-width: 1.5; stroke-linecap: square"/>
   </g>
   <g id="line2d_28">
    <path d="M 92.290909 327.582067 
L 93.894934 327.287219 
L 95.498958 326.841596 
L 97.102982 326.111178 
L 100.311031 325.223284 
L 101.915056 324.509618 
L 105.123105 323.862963 
L 106.727129 323.253164 
L 108.331153 322.415528 
L 109.935178 322.046968 
L 111.539202 320.686647 
L 113.143227 320.127106 
L 116.351276 317.68791 
L 117.9553 316.109804 
L 119.559324 315.443046 
L 121.163349 313.302048 
L 124.371398 310.651768 
L 129.183471 305.116669 
L 130.787496 303.887019 
L 132.39152 301.370761 
L 133.995544 299.447548 
L 135.599569 296.824073 
L 137.203593 294.706529 
L 138.807618 292.893884 
L 140.411642 290.126335 
L 142.015667 287.747449 
L 143.619691 285.077065 
L 145.223715 282.758489 
L 146.82774 280.108208 
L 148.431764 278.312317 
L 150.035789 275.524664 
L 151.639813 272.264585 
L 154.847862 268.022796 
L 158.055911 262.712184 
L 159.659935 259.468857 
L 161.26396 257.2709 
L 162.867984 253.870098 
L 164.472009 255.555422 
L 166.076033 256.610843 
L 167.680057 256.781721 
L 169.284082 255.287378 
L 170.888106 254.513403 
L 172.492131 251.956938 
L 174.096155 248.897891 
L 175.70018 243.637537 
L 177.304204 232.81528 
L 178.908229 224.834284 
L 180.512253 219.955892 
L 183.720302 213.914861 
L 185.324326 210.125395 
L 186.928351 207.501919 
L 188.532375 204.255242 
L 191.740424 197.088429 
L 193.344448 197.755187 
L 194.948473 201.115783 
L 196.552497 202.88487 
L 198.156522 204.221737 
L 201.364571 207.632591 
L 202.968595 208.30605 
L 204.572619 205.407829 
L 207.780668 198.974785 
L 209.384693 195.714706 
L 210.988717 191.251781 
L 212.592742 185.214101 
L 214.196766 177.970224 
L 215.800791 171.373003 
L 217.404815 160.138629 
L 219.008839 151.470772 
L 220.612864 140.162686 
L 222.216888 133.220359 
L 223.820913 120.314063 
L 225.424937 112.72173 
L 227.028962 106.429409 
L 231.841035 124.043218 
L 233.445059 128.475988 
L 235.049084 132.540198 
L 236.653108 135.515481 
L 238.257133 137.4789 
L 239.861157 136.577604 
L 241.465181 136.818843 
L 246.277255 132.499992 
L 247.881279 131.769573 
L 249.485304 128.965168 
L 251.089328 125.225961 
L 254.297377 107.337406 
L 255.901401 94.340646 
L 257.505426 93.700692 
L 259.10945 100.756938 
L 263.921524 151.929796 
L 268.733597 207.957593 
L 271.941646 234.916071 
L 273.54567 246.525706 
L 275.149695 254.530155 
L 276.753719 260.822477 
L 278.357743 265.325608 
L 279.961768 266.62897 
L 283.169817 274.921566 
L 286.377866 285.010054 
L 287.98189 289.23174 
L 289.585914 295.008078 
L 292.793963 307.435245 
L 296.002012 317.175277 
L 297.606037 320.914484 
L 299.210061 325.859887 
L 300.814086 328.15836 
L 302.41811 329.897293 
L 304.022134 332.225921 
L 307.230183 334.939861 
L 308.834208 335.536258 
L 310.438232 334.725426 
L 312.042257 333.562788 
L 313.646281 335.315122 
L 315.250305 337.6404 
L 316.85433 339.627272 
L 318.458354 342.304357 
L 321.666403 346.422176 
L 323.270428 348.435853 
L 326.478476 352.898777 
L 328.082501 355.676378 
L 329.686525 357.649849 
L 331.29055 359.351925 
L 332.894574 360.856319 
L 334.498599 361.509675 
L 336.102623 362.541643 
L 337.706648 362.839841 
L 339.310672 362.025659 
L 340.914696 361.060702 
L 342.518721 360.816113 
L 344.122745 361.037249 
L 345.72677 361.533129 
L 348.934819 361.894988 
L 350.538843 362.511488 
L 352.142867 362.350662 
L 353.746892 363.69088 
L 355.350916 364.809961 
L 358.558965 366.163581 
L 360.16299 366.917453 
L 361.767014 367.162043 
L 363.371038 367.564108 
L 364.975063 367.2056 
L 366.579087 367.306117 
L 368.183112 367.286013 
L 369.787136 367.148641 
L 371.391161 366.130076 
L 372.995185 365.577236 
L 374.599209 364.511763 
L 376.203234 364.046037 
L 377.807258 364.032635 
L 379.411283 364.427999 
L 381.015307 364.159956 
L 384.223356 364.548619 
L 385.827381 364.917179 
L 387.431405 366.237293 
L 392.243478 367.430087 
L 395.451527 366.83704 
L 397.055552 366.334459 
L 398.659576 365.362801 
L 400.2636 364.917179 
L 409.887747 365.302491 
L 413.095796 365.60404 
L 414.69982 365.989353 
L 416.303845 366.089869 
L 417.907869 366.508687 
L 419.511894 367.651223 
L 421.115918 367.795296 
L 422.719943 367.597614 
L 424.323967 367.57416 
L 425.927991 367.222353 
L 427.532016 366.120024 
L 429.13604 365.875434 
L 430.740065 365.932393 
L 432.344089 365.825176 
L 433.948114 365.979301 
L 435.552138 365.872084 
L 441.968236 366.086518 
L 443.57226 365.949146 
L 445.176285 366.803535 
L 448.384333 367.785244 
L 451.592382 368.415147 
L 453.196407 368.338084 
L 454.800431 368.381641 
L 456.404456 367.795296 
L 458.00848 367.363076 
L 459.612504 366.083168 
L 461.216529 366.133426 
L 462.820553 366.361263 
L 464.424578 366.207138 
L 467.632627 366.505336 
L 469.236651 366.458429 
L 470.840676 366.143478 
L 474.048724 366.719771 
L 475.652749 366.468481 
L 477.256773 367.135239 
L 482.068847 368.100195 
L 483.672871 367.701481 
L 485.276895 367.473644 
L 486.88092 366.646059 
L 488.484944 366.364614 
L 490.088969 366.706369 
L 491.692993 366.505336 
L 493.297018 366.64941 
L 496.505066 366.213839 
L 498.109091 366.592451 
L 498.109091 366.592451 
" clip-path="url(#pc8a43d104e)" style="fill: none; stroke: #008000; stroke-width: 1.5; stroke-linecap: square"/>
   </g>
   <g id="line2d_29">
    <path d="M 92.290909 325.183077 
L 93.894934 326.091075 
L 95.498958 326.094425 
L 97.102982 325.628699 
L 98.707007 325.032303 
L 100.311031 324.58333 
L 101.915056 323.836158 
L 103.51908 323.541311 
L 105.123105 323.387185 
L 106.727129 322.204443 
L 108.331153 321.738718 
L 113.143227 319.121943 
L 114.747251 317.821932 
L 116.351276 317.064709 
L 119.559324 314.394325 
L 122.767373 311.392238 
L 124.371398 309.55614 
L 125.975422 308.232675 
L 130.787496 302.221799 
L 132.39152 300.117657 
L 133.995544 298.318415 
L 137.203593 294.026368 
L 138.807618 292.146713 
L 140.411642 289.064213 
L 143.619691 284.145614 
L 145.223715 282.389929 
L 146.82774 279.243768 
L 151.639813 272.016645 
L 153.243838 270.193949 
L 154.847862 266.642372 
L 156.451886 264.253434 
L 158.055911 261.33176 
L 159.659935 258.704933 
L 162.867984 253.20334 
L 164.472009 255.880425 
L 166.076033 255.756454 
L 167.680057 256.517028 
L 170.888106 253.57525 
L 172.492131 251.387345 
L 174.096155 248.740415 
L 175.70018 242.947325 
L 177.304204 231.696198 
L 178.908229 224.593045 
L 180.512253 219.215421 
L 182.116277 216.67906 
L 183.720302 212.075412 
L 185.324326 209.562504 
L 186.928351 205.742884 
L 188.532375 203.226625 
L 190.1364 199.460614 
L 191.740424 196.244092 
L 193.344448 196.706467 
L 194.948473 199.872731 
L 196.552497 202.409093 
L 198.156522 204.275346 
L 199.760546 205.5318 
L 201.364571 206.124846 
L 202.968595 206.506808 
L 204.572619 204.556791 
L 206.176644 202.321978 
L 209.384693 195.245629 
L 210.988717 190.923428 
L 215.800791 170.076343 
L 217.404815 159.337849 
L 219.008839 152.2615 
L 220.612864 141.844659 
L 222.216888 133.431443 
L 223.820913 120.558653 
L 225.424937 114.256279 
L 227.028962 109.532012 
L 228.632986 112.111931 
L 230.23701 118.796267 
L 233.445059 129.913372 
L 235.049084 134.054644 
L 236.653108 139.170925 
L 238.257133 140.172737 
L 239.861157 138.557775 
L 241.465181 137.281218 
L 243.069206 136.594356 
L 244.67323 134.439957 
L 247.881279 132.161587 
L 249.485304 132.18169 
L 251.089328 127.229586 
L 252.693352 120.304011 
L 254.297377 112.048271 
L 255.901401 101.497408 
L 257.505426 101.963133 
L 259.10945 108.051072 
L 262.317499 138.922984 
L 265.525548 173.011419 
L 267.129572 192.685814 
L 268.733597 210.021529 
L 270.337621 224.422167 
L 273.54567 248.137317 
L 275.149695 256.376305 
L 276.753719 262.929969 
L 278.357743 267.356038 
L 279.961768 268.227179 
L 281.565792 271.839066 
L 283.169817 274.931618 
L 284.773841 279.186809 
L 286.377866 284.711856 
L 287.98189 289.034058 
L 289.585914 294.515548 
L 292.793963 306.815395 
L 294.397988 311.522909 
L 296.002012 316.57553 
L 297.606037 320.073497 
L 299.210061 324.700599 
L 302.41811 329.481825 
L 304.022134 331.066632 
L 305.626159 332.376695 
L 307.230183 334.400424 
L 308.834208 334.356867 
L 310.438232 333.197578 
L 312.042257 333.120516 
L 313.646281 334.799138 
L 320.062379 343.631172 
L 323.270428 347.829404 
L 324.874452 350.694119 
L 326.478476 352.617332 
L 328.082501 355.337973 
L 331.29055 359.774094 
L 332.894574 360.889825 
L 334.498599 361.824626 
L 336.102623 362.538292 
L 337.706648 363.084431 
L 339.310672 362.15633 
L 342.518721 360.909928 
L 344.122745 361.003743 
L 345.72677 361.382355 
L 347.330794 361.938545 
L 348.934819 362.089319 
L 350.538843 362.447828 
L 352.142867 362.662263 
L 355.350916 364.79991 
L 356.954941 365.875434 
L 358.558965 366.180334 
L 360.16299 366.937557 
L 361.767014 367.054826 
L 363.371038 367.544005 
L 364.975063 367.339622 
L 368.183112 367.517201 
L 369.787136 366.555595 
L 371.391161 365.925692 
L 372.995185 364.55867 
L 376.203234 364.203513 
L 379.411283 364.200162 
L 381.015307 364.608929 
L 382.619332 364.501711 
L 385.827381 365.158418 
L 387.431405 366.522089 
L 389.035429 366.793483 
L 390.639454 367.617717 
L 392.243478 367.5105 
L 397.055552 367.597614 
L 398.659576 366.203788 
L 400.2636 365.413059 
L 401.867625 365.178521 
L 403.471649 365.057901 
L 405.075674 365.433162 
L 408.283723 365.362801 
L 414.69982 365.892187 
L 416.303845 366.790133 
L 417.907869 367.282663 
L 419.511894 368.039886 
L 421.115918 368.646334 
L 422.719943 368.137051 
L 424.323967 368.425198 
L 425.927991 367.992978 
L 429.13604 366.106622 
L 430.740065 366.243994 
L 432.344089 366.09322 
L 433.948114 366.247345 
L 437.156162 366.267448 
L 438.760187 366.421573 
L 440.364211 366.294252 
L 441.968236 366.049663 
L 443.57226 366.140127 
L 448.384333 367.597614 
L 449.988358 367.925967 
L 451.592382 367.925967 
L 453.196407 367.721584 
L 454.800431 368.140402 
L 456.404456 367.413334 
L 459.612504 366.471831 
L 462.820553 366.311005 
L 464.424578 366.491934 
L 466.028602 366.488584 
L 467.632627 366.629307 
L 469.236651 366.495285 
L 472.4447 366.599152 
L 474.048724 367.20225 
L 475.652749 366.756627 
L 477.256773 367.105084 
L 480.464822 368.053288 
L 482.068847 368.247619 
L 483.672871 367.936019 
L 485.276895 367.929318 
L 486.88092 366.753277 
L 488.484944 366.605853 
L 490.088969 366.830339 
L 491.692993 366.770029 
L 493.297018 366.883948 
L 496.505066 366.726472 
L 498.109091 366.907402 
L 498.109091 366.907402 
" clip-path="url(#pc8a43d104e)" style="fill: none; stroke: #008000; stroke-width: 1.5; stroke-linecap: square"/>
   </g>
   <g id="line2d_30">
    <path d="M 92.290909 325.149572 
L 93.894934 327.515056 
L 95.498958 326.871751 
L 97.102982 325.833083 
L 98.707007 325.491327 
L 100.311031 324.613485 
L 101.915056 324.241574 
L 103.51908 324.114254 
L 105.123105 323.712188 
L 108.331153 321.976606 
L 109.935178 321.262941 
L 114.747251 318.311111 
L 116.351276 317.185329 
L 117.9553 315.865214 
L 119.559324 315.412891 
L 121.163349 313.37576 
L 122.767373 312.042243 
L 124.371398 310.162588 
L 127.579447 306.781889 
L 129.183471 304.671047 
L 130.787496 303.002476 
L 133.995544 299.042133 
L 135.599569 297.397016 
L 137.203593 294.723281 
L 140.411642 290.608813 
L 142.015667 287.435848 
L 143.619691 285.026807 
L 145.223715 282.979625 
L 146.82774 279.679339 
L 148.431764 278.014118 
L 154.847862 267.657587 
L 156.451886 265.556796 
L 158.055911 262.491048 
L 162.867984 254.024223 
L 164.472009 256.537131 
L 166.076033 255.823465 
L 167.680057 257.150281 
L 169.284082 255.779908 
L 170.888106 255.069593 
L 172.492131 252.576788 
L 174.096155 250.462595 
L 175.70018 246.351477 
L 177.304204 238.226408 
L 178.908229 232.369657 
L 180.512253 222.730142 
L 182.116277 218.622375 
L 183.720302 214.079037 
L 186.928351 208.034656 
L 190.1364 201.578158 
L 191.740424 197.765239 
L 193.344448 200.713717 
L 194.948473 203.045696 
L 196.552497 204.915299 
L 198.156522 205.84005 
L 199.760546 208.600898 
L 201.364571 209.5357 
L 202.968595 209.740083 
L 206.176644 204.828185 
L 209.384693 198.247717 
L 210.988717 194.595624 
L 212.592742 188.72212 
L 214.196766 181.334171 
L 217.404815 167.854932 
L 219.008839 160.406673 
L 220.612864 149.946274 
L 222.216888 142.685645 
L 223.820913 129.481151 
L 225.424937 121.302473 
L 227.028962 119.332354 
L 228.632986 124.143735 
L 231.841035 135.187128 
L 233.445059 142.40755 
L 236.653108 149.158896 
L 238.257133 150.113801 
L 239.861157 149.225907 
L 241.465181 148.703222 
L 243.069206 146.582328 
L 244.67323 145.7916 
L 246.277255 143.808078 
L 247.881279 142.786162 
L 249.485304 140.397224 
L 251.089328 136.67812 
L 252.693352 130.235024 
L 254.297377 127.896344 
L 255.901401 119.80478 
L 257.505426 120.940615 
L 259.10945 124.810493 
L 260.713475 135.56909 
L 262.317499 147.584141 
L 265.525548 179.166369 
L 267.129572 197.03817 
L 268.733597 211.867678 
L 270.337621 224.847686 
L 271.941646 236.722014 
L 273.54567 247.467209 
L 275.149695 256.322696 
L 276.753719 263.090795 
L 278.357743 268.927443 
L 279.961768 271.286226 
L 281.565792 273.936506 
L 283.169817 275.896575 
L 284.773841 278.905363 
L 287.98189 287.63353 
L 289.585914 294.488743 
L 292.793963 306.195544 
L 296.002012 315.627326 
L 297.606037 319.65803 
L 299.210061 324.181264 
L 300.814086 326.412727 
L 302.41811 328.138257 
L 304.022134 330.969467 
L 305.626159 332.319736 
L 307.230183 334.075421 
L 308.834208 334.80584 
L 310.438232 334.611508 
L 312.042257 332.932885 
L 313.646281 333.462271 
L 315.250305 335.445793 
L 316.85433 336.494514 
L 318.458354 338.521593 
L 320.062379 341.175224 
L 323.270428 345.477322 
L 324.874452 348.449255 
L 326.478476 350.999019 
L 328.082501 353.790022 
L 331.29055 358.21274 
L 332.894574 359.921517 
L 336.102623 362.069216 
L 337.706648 362.434426 
L 339.310672 361.657099 
L 340.914696 361.670501 
L 342.518721 360.511213 
L 345.72677 361.050651 
L 347.330794 361.693955 
L 348.934819 361.757616 
L 350.538843 362.327208 
L 352.142867 362.725923 
L 353.746892 363.536754 
L 355.350916 364.913828 
L 356.954941 365.965899 
L 358.558965 366.223891 
L 360.16299 367.105084 
L 361.767014 367.433437 
L 366.579087 367.828801 
L 368.183112 367.795296 
L 369.787136 367.178796 
L 371.391161 366.351211 
L 372.995185 365.245532 
L 374.599209 364.622331 
L 376.203234 364.474907 
L 377.807258 364.116399 
L 379.411283 364.18676 
L 382.619332 364.525165 
L 384.223356 364.659187 
L 385.827381 365.423111 
L 387.431405 366.495285 
L 389.035429 366.820288 
L 390.639454 367.627769 
L 392.243478 367.848905 
L 395.451527 367.611016 
L 397.055552 367.302766 
L 398.659576 365.999404 
L 400.2636 365.553782 
L 401.867625 364.990891 
L 403.471649 365.242181 
L 405.075674 365.101459 
L 406.679698 365.175171 
L 408.283723 365.523627 
L 413.095796 365.593989 
L 414.69982 365.466668 
L 416.303845 366.847092 
L 417.907869 367.580861 
L 421.115918 368.730098 
L 424.323967 368.68319 
L 427.532016 368.478807 
L 429.13604 366.719771 
L 430.740065 365.902239 
L 433.948114 365.955847 
L 435.552138 366.240644 
L 437.156162 366.049663 
L 438.760187 366.418222 
L 440.364211 366.173633 
L 441.968236 366.123374 
L 443.57226 366.270798 
L 445.176285 366.682915 
L 446.780309 367.229054 
L 448.384333 367.969524 
L 451.592382 368.535766 
L 453.196407 368.485508 
L 454.800431 368.777005 
L 456.404456 368.31128 
L 459.612504 366.582399 
L 462.820553 366.461779 
L 464.424578 366.558945 
L 466.028602 366.337809 
L 467.632627 366.636008 
L 469.236651 366.595801 
L 470.840676 366.843741 
L 472.4447 366.71307 
L 474.048724 367.14194 
L 475.652749 366.917453 
L 477.256773 366.857144 
L 478.860798 367.604315 
L 480.464822 368.214114 
L 482.068847 367.94272 
L 483.672871 367.986277 
L 486.88092 367.208951 
L 488.484944 366.796834 
L 490.088969 366.545543 
L 491.692993 366.920804 
L 494.901042 366.803535 
L 496.505066 366.950959 
L 498.109091 366.920804 
L 498.109091 366.920804 
" clip-path="url(#pc8a43d104e)" style="fill: none; stroke: #008000; stroke-width: 1.5; stroke-linecap: square"/>
   </g>
   <g id="line2d_31">
    <path d="M 92.290909 325.434368 
L 93.894934 327.48155 
L 95.498958 326.275354 
L 98.707007 324.938487 
L 100.311031 324.620186 
L 101.915056 324.134357 
L 103.51908 323.226359 
L 105.123105 323.310123 
L 106.727129 322.217846 
L 108.331153 321.829183 
L 109.935178 320.783813 
L 111.539202 320.27118 
L 113.143227 319.031478 
L 114.747251 318.016263 
L 116.351276 316.712902 
L 117.9553 315.935576 
L 119.559324 314.645616 
L 121.163349 312.712352 
L 122.767373 311.325227 
L 125.975422 307.927775 
L 127.579447 306.440134 
L 129.183471 304.781615 
L 132.39152 299.953481 
L 133.995544 298.130785 
L 135.599569 298.670222 
L 137.203593 294.297762 
L 138.807618 291.992588 
L 140.411642 292.330993 
L 142.015667 286.611614 
L 145.223715 282.048173 
L 146.82774 279.1332 
L 148.431764 276.516425 
L 150.035789 274.472593 
L 151.639813 271.641384 
L 153.243838 269.594201 
L 154.847862 267.319182 
L 158.055911 261.499287 
L 159.659935 258.413436 
L 162.867984 252.627046 
L 164.472009 255.743052 
L 166.076033 257.291004 
L 167.680057 257.703121 
L 169.284082 257.274251 
L 172.492131 254.637373 
L 174.096155 252.369054 
L 175.70018 248.381907 
L 178.908229 236.778973 
L 180.512253 225.715477 
L 182.116277 216.813081 
L 183.720302 213.037018 
L 185.324326 210.453749 
L 186.928351 206.402941 
L 188.532375 203.896734 
L 190.1364 199.92969 
L 191.740424 197.024768 
L 193.344448 199.849277 
L 194.948473 201.427383 
L 196.552497 203.99725 
L 198.156522 205.695976 
L 199.760546 208.470227 
L 201.364571 210.071787 
L 202.968595 210.179004 
L 204.572619 207.471765 
L 207.780668 201.34697 
L 209.384693 198.445399 
L 212.592742 189.492745 
L 214.196766 182.821812 
L 215.800791 177.377178 
L 217.404815 171.222229 
L 219.008839 163.944847 
L 220.612864 154.124403 
L 222.216888 146.280779 
L 223.820913 130.774461 
L 225.424937 121.888819 
L 227.028962 119.154775 
L 228.632986 122.304286 
L 230.23701 129.015426 
L 231.841035 136.235848 
L 233.445059 141.586667 
L 235.049084 145.185151 
L 236.653108 148.344714 
L 238.257133 149.316372 
L 239.861157 148.388271 
L 241.465181 147.986206 
L 243.069206 146.414801 
L 244.67323 145.657578 
L 246.277255 144.250349 
L 247.881279 142.199817 
L 249.485304 141.090786 
L 251.089328 138.001585 
L 252.693352 131.213383 
L 254.297377 126.666694 
L 255.901401 117.760948 
L 257.505426 118.950392 
L 259.10945 124.05327 
L 260.713475 135.022951 
L 262.317499 147.674605 
L 267.129572 198.82401 
L 268.733597 213.918211 
L 270.337621 226.921673 
L 271.941646 238.946775 
L 273.54567 249.738877 
L 275.149695 258.339724 
L 276.753719 265.496486 
L 278.357743 271.269473 
L 279.961768 272.807373 
L 281.565792 275.159455 
L 283.169817 275.481107 
L 284.773841 278.506648 
L 287.98189 287.847965 
L 289.585914 293.232289 
L 292.793963 305.153525 
L 296.002012 314.468037 
L 299.210061 322.573003 
L 302.41811 327.548561 
L 307.230183 333.184176 
L 308.834208 333.747068 
L 310.438232 333.767171 
L 312.042257 332.748605 
L 313.646281 333.097062 
L 315.250305 334.105576 
L 316.85433 336.213068 
L 318.458354 338.665666 
L 320.062379 340.773158 
L 323.270428 345.236083 
L 324.874452 347.893064 
L 326.478476 351.139742 
L 329.686525 356.36659 
L 331.29055 358.504237 
L 332.894574 359.854507 
L 334.498599 360.909928 
L 337.706648 362.293703 
L 339.310672 362.169733 
L 340.914696 361.452716 
L 342.518721 360.548069 
L 344.122745 360.98699 
L 345.72677 361.275137 
L 347.330794 361.730811 
L 348.934819 361.951947 
L 350.538843 362.410972 
L 352.142867 363.396032 
L 353.746892 364.176708 
L 356.954941 366.247345 
L 358.558965 367.292714 
L 360.16299 367.81875 
L 366.579087 368.740149 
L 369.787136 368.4386 
L 371.391161 367.892462 
L 372.995185 366.900701 
L 376.203234 364.598877 
L 377.807258 364.61898 
L 379.411283 364.350937 
L 381.015307 364.24707 
L 382.619332 364.685991 
L 384.223356 364.86692 
L 385.827381 366.002755 
L 389.035429 367.554057 
L 392.243478 368.408445 
L 393.847503 368.452003 
L 395.451527 367.912565 
L 397.055552 368.200712 
L 398.659576 366.478532 
L 400.2636 365.547081 
L 401.867625 365.446565 
L 403.471649 365.550431 
L 405.075674 365.449915 
L 406.679698 365.634195 
L 408.283723 365.48007 
L 409.887747 365.490122 
L 413.095796 365.986002 
L 414.69982 365.882135 
L 416.303845 367.168744 
L 417.907869 367.959473 
L 419.511894 368.582674 
L 421.115918 368.7435 
L 424.323967 368.699943 
L 425.927991 368.31463 
L 427.532016 368.143753 
L 429.13604 366.917453 
L 430.740065 366.15688 
L 433.948114 366.09657 
L 437.156162 366.321057 
L 438.760187 366.28085 
L 441.968236 366.575698 
L 445.176285 366.505336 
L 448.384333 368.384992 
L 449.988358 368.582674 
L 451.592382 368.941182 
L 453.196407 368.837315 
L 454.800431 369.075204 
L 456.404456 368.338084 
L 458.00848 367.319519 
L 459.612504 366.558945 
L 461.216529 366.398119 
L 462.820553 366.394769 
L 464.424578 366.786782 
L 467.632627 366.491934 
L 469.236651 366.612554 
L 470.840676 367.011269 
L 472.4447 366.934206 
L 475.652749 367.567459 
L 477.256773 367.684728 
L 478.860798 368.726747 
L 480.464822 368.92778 
L 482.068847 369.36 
L 483.672871 369.148916 
L 485.276895 369.276236 
L 486.88092 368.961285 
L 488.484944 367.540655 
L 490.088969 366.994516 
L 491.692993 366.83369 
L 493.297018 366.947608 
L 496.505066 366.783432 
L 498.109091 366.910752 
L 498.109091 366.910752 
" clip-path="url(#pc8a43d104e)" style="fill: none; stroke: #008000; stroke-width: 1.5; stroke-linecap: square"/>
   </g>
   <g id="line2d_32">
    <path d="M 92.290909 323.176101 
L 93.894934 326.459634 
L 95.498958 325.742618 
L 97.102982 325.186428 
L 98.707007 324.425854 
L 100.311031 323.993634 
L 101.915056 323.115791 
L 103.51908 322.482539 
L 105.123105 322.395424 
L 106.727129 321.678408 
L 108.331153 320.64309 
L 109.935178 319.875815 
L 111.539202 319.326326 
L 113.143227 317.945902 
L 114.747251 317.372959 
L 119.559324 313.690711 
L 121.163349 312.233224 
L 124.371398 308.688349 
L 125.975422 306.795292 
L 127.579447 305.67956 
L 129.183471 303.076188 
L 130.787496 301.658908 
L 132.39152 298.814296 
L 133.995544 297.403717 
L 135.599569 294.89751 
L 137.203593 293.098268 
L 138.807618 290.756237 
L 140.411642 288.042297 
L 142.015667 285.824236 
L 143.619691 283.408494 
L 145.223715 280.768266 
L 146.82774 278.550205 
L 148.431764 276.060751 
L 150.035789 273.949908 
L 151.639813 270.669726 
L 154.847862 266.471494 
L 156.451886 263.472757 
L 158.055911 260.145667 
L 159.659935 257.977865 
L 162.867984 251.759255 
L 164.472009 249.253049 
L 166.076033 249.983467 
L 167.680057 245.755081 
L 169.284082 242.464846 
L 170.888106 238.85631 
L 172.492131 233.971217 
L 174.096155 230.399537 
L 175.70018 227.923485 
L 177.304204 224.247938 
L 178.908229 220.860538 
L 182.116277 215.01719 
L 185.324326 208.373061 
L 186.928351 204.664009 
L 188.532375 202.33203 
L 190.1364 198.733546 
L 191.740424 194.749749 
L 193.344448 191.087604 
L 194.948473 189.613365 
L 196.552497 188.360261 
L 198.156522 188.199435 
L 199.760546 189.271609 
L 201.364571 188.956658 
L 202.968595 184.664611 
L 204.572619 177.926667 
L 207.780668 160.81879 
L 209.384693 154.66049 
L 212.592742 145.781548 
L 214.196766 140.658566 
L 215.800791 136.711625 
L 217.404815 133.344329 
L 219.008839 127.74892 
L 220.612864 123.724917 
L 225.424937 110.171966 
L 228.632986 99.976261 
L 231.841035 108.878656 
L 233.445059 112.487192 
L 235.049084 114.879481 
L 236.653108 115.097266 
L 238.257133 112.323015 
L 239.861157 105.51471 
L 241.465181 99.942755 
L 243.069206 89.207612 
L 244.67323 81.457804 
L 246.277255 75.46033 
L 247.881279 70.307193 
L 249.485304 66.96 
L 251.089328 68.450992 
L 252.693352 67.475984 
L 254.297377 69.804612 
L 255.901401 73.068042 
L 257.505426 78.526078 
L 260.713475 100.090179 
L 262.317499 113.626377 
L 263.921524 130.717502 
L 265.525548 145.335926 
L 267.129572 165.656975 
L 268.733597 177.752439 
L 270.337621 191.476267 
L 275.149695 227.219871 
L 276.753719 237.586454 
L 279.961768 255.076294 
L 281.565792 262.561409 
L 286.377866 280.758214 
L 294.397988 304.332642 
L 296.002012 306.996324 
L 299.210061 313.405915 
L 300.814086 314.809793 
L 302.41811 315.861864 
L 304.022134 318.800291 
L 305.626159 320.797215 
L 308.834208 326.282056 
L 310.438232 328.436455 
L 312.042257 330.302708 
L 313.646281 332.939587 
L 316.85433 337.51978 
L 318.458354 340.173411 
L 321.666403 344.921132 
L 323.270428 346.743828 
L 324.874452 349.089209 
L 328.082501 352.898777 
L 331.29055 355.763492 
L 334.498599 357.649849 
L 337.706648 359.268161 
L 339.310672 359.636721 
L 342.518721 361.000393 
L 344.122745 361.489572 
L 345.72677 361.757616 
L 347.330794 362.347311 
L 348.934819 362.5852 
L 350.538843 363.01742 
L 353.746892 363.211752 
L 355.350916 363.99913 
L 356.954941 364.31073 
L 358.558965 365.325945 
L 360.16299 365.302491 
L 361.767014 364.605578 
L 363.371038 364.196812 
L 364.975063 364.079543 
L 368.183112 364.210214 
L 371.391161 364.12645 
L 372.995185 364.521814 
L 379.411283 364.501711 
L 381.015307 364.893725 
L 382.619332 364.706094 
L 384.223356 364.833415 
L 387.431405 365.620793 
L 389.035429 365.188573 
L 390.639454 365.650948 
L 392.243478 365.346048 
L 395.451527 365.225429 
L 397.055552 365.305842 
L 398.659576 365.245532 
L 405.075674 365.711258 
L 406.679698 365.6677 
L 408.283723 365.761516 
L 409.887747 365.714608 
L 414.69982 365.855331 
L 416.303845 366.203788 
L 417.907869 366.113323 
L 419.511894 366.515388 
L 424.323967 366.150179 
L 425.927991 366.063065 
L 427.532016 366.173633 
L 429.13604 366.03291 
L 430.740065 366.388067 
L 433.948114 366.049663 
L 435.552138 366.367964 
L 438.760187 366.290902 
L 445.176285 366.508687 
L 446.780309 366.810236 
L 448.384333 366.83369 
L 451.592382 366.552244 
L 453.196407 366.682915 
L 454.800431 366.311005 
L 456.404456 366.468481 
L 458.00848 366.481883 
L 461.216529 366.883948 
L 462.820553 366.662812 
L 464.424578 366.790133 
L 466.028602 366.656111 
L 472.4447 367.02132 
L 474.048724 366.703019 
L 475.652749 366.987815 
L 477.256773 366.910752 
L 478.860798 367.363076 
L 480.464822 366.64941 
L 485.276895 367.024671 
L 486.88092 366.803535 
L 491.692993 366.746576 
L 494.901042 366.699668 
L 496.505066 367.014619 
L 498.109091 366.853793 
L 498.109091 366.853793 
" clip-path="url(#pc8a43d104e)" style="fill: none; stroke: #008000; stroke-width: 1.5; stroke-linecap: square"/>
   </g>
   <g id="patch_3">
    <path d="M 72 384.48 
L 72 51.84 
" style="fill: none; stroke: #000000; stroke-width: 0.8; stroke-linejoin: miter; stroke-linecap: square"/>
   </g>
   <g id="patch_4">
    <path d="M 518.4 384.48 
L 518.4 51.84 
" style="fill: none; stroke: #000000; stroke-width: 0.8; stroke-linejoin: miter; stroke-linecap: square"/>
   </g>
   <g id="patch_5">
    <path d="M 72 384.48 
L 518.4 384.48 
" style="fill: none; stroke: #000000; stroke-width: 0.8; stroke-linejoin: miter; stroke-linecap: square"/>
   </g>
   <g id="patch_6">
    <path d="M 72 51.84 
L 518.4 51.84 
" style="fill: none; stroke: #000000; stroke-width: 0.8; stroke-linejoin: miter; stroke-linecap: square"/>
   </g>
   <g id="text_15">
    <!-- M4: Methionin; Arginin; Threonin -->
    <g transform="translate(213.483594 45.84) scale(0.1 -0.1)">
     <defs>
      <path id="DejaVuSans-4d" d="M 628 4666 
L 1569 4666 
L 2759 1491 
L 3956 4666 
L 4897 4666 
L 4897 0 
L 4281 0 
L 4281 4097 
L 3078 897 
L 2444 897 
L 1241 4097 
L 1241 0 
L 628 0 
L 628 4666 
z
" transform="scale(0.015625)"/>
      <path id="DejaVuSans-3a" d="M 750 794 
L 1409 794 
L 1409 0 
L 750 0 
L 750 794 
z
M 750 3309 
L 1409 3309 
L 1409 2516 
L 750 2516 
L 750 3309 
z
" transform="scale(0.015625)"/>
      <path id="DejaVuSans-3b" d="M 750 3309 
L 1409 3309 
L 1409 2516 
L 750 2516 
L 750 3309 
z
M 750 794 
L 1409 794 
L 1409 256 
L 897 -744 
L 494 -744 
L 750 256 
L 750 794 
z
" transform="scale(0.015625)"/>
      <path id="DejaVuSans-41" d="M 2188 4044 
L 1331 1722 
L 3047 1722 
L 2188 4044 
z
M 1831 4666 
L 2547 4666 
L 4325 0 
L 3669 0 
L 3244 1197 
L 1141 1197 
L 716 0 
L 50 0 
L 1831 4666 
z
" transform="scale(0.015625)"/>
      <path id="DejaVuSans-67" d="M 2906 1791 
Q 2906 2416 2648 2759 
Q 2391 3103 1925 3103 
Q 1463 3103 1205 2759 
Q 947 2416 947 1791 
Q 947 1169 1205 825 
Q 1463 481 1925 481 
Q 2391 481 2648 825 
Q 2906 1169 2906 1791 
z
M 3481 434 
Q 3481 -459 3084 -895 
Q 2688 -1331 1869 -1331 
Q 1566 -1331 1297 -1286 
Q 1028 -1241 775 -1147 
L 775 -588 
Q 1028 -725 1275 -790 
Q 1522 -856 1778 -856 
Q 2344 -856 2625 -561 
Q 2906 -266 2906 331 
L 2906 616 
Q 2728 306 2450 153 
Q 2172 0 1784 0 
Q 1141 0 747 490 
Q 353 981 353 1791 
Q 353 2603 747 3093 
Q 1141 3584 1784 3584 
Q 2172 3584 2450 3431 
Q 2728 3278 2906 2969 
L 2906 3500 
L 3481 3500 
L 3481 434 
z
" transform="scale(0.015625)"/>
      <path id="DejaVuSans-54" d="M -19 4666 
L 3928 4666 
L 3928 4134 
L 2272 4134 
L 2272 0 
L 1638 0 
L 1638 4134 
L -19 4134 
L -19 4666 
z
" transform="scale(0.015625)"/>
     </defs>
     <use xlink:href="#DejaVuSans-4d"/>
     <use xlink:href="#DejaVuSans-34" x="86.279297"/>
     <use xlink:href="#DejaVuSans-3a" x="149.902344"/>
     <use xlink:href="#DejaVuSans-20" x="183.59375"/>
     <use xlink:href="#DejaVuSans-4d" x="215.380859"/>
     <use xlink:href="#DejaVuSans-65" x="301.660156"/>
     <use xlink:href="#DejaVuSans-74" x="363.183594"/>
     <use xlink:href="#DejaVuSans-68" x="402.392578"/>
     <use xlink:href="#DejaVuSans-69" x="465.771484"/>
     <use xlink:href="#DejaVuSans-6f" x="493.554688"/>
     <use xlink:href="#DejaVuSans-6e" x="554.736328"/>
     <use xlink:href="#DejaVuSans-69" x="618.115234"/>
     <use xlink:href="#DejaVuSans-6e" x="645.898438"/>
     <use xlink:href="#DejaVuSans-3b" x="709.277344"/>
     <use xlink:href="#DejaVuSans-20" x="742.96875"/>
     <use xlink:href="#DejaVuSans-41" x="774.755859"/>
     <use xlink:href="#DejaVuSans-72" x="843.164062"/>
     <use xlink:href="#DejaVuSans-67" x="882.527344"/>
     <use xlink:href="#DejaVuSans-69" x="946.003906"/>
     <use xlink:href="#DejaVuSans-6e" x="973.787109"/>
     <use xlink:href="#DejaVuSans-69" x="1037.166016"/>
     <use xlink:href="#DejaVuSans-6e" x="1064.949219"/>
     <use xlink:href="#DejaVuSans-3b" x="1128.328125"/>
     <use xlink:href="#DejaVuSans-20" x="1162.019531"/>
     <use xlink:href="#DejaVuSans-54" x="1193.806641"/>
     <use xlink:href="#DejaVuSans-68" x="1254.890625"/>
     <use xlink:href="#DejaVuSans-72" x="1318.269531"/>
     <use xlink:href="#DejaVuSans-65" x="1357.132812"/>
     <use xlink:href="#DejaVuSans-6f" x="1418.65625"/>
     <use xlink:href="#DejaVuSans-6e" x="1479.837891"/>
     <use xlink:href="#DejaVuSans-69" x="1543.216797"/>
     <use xlink:href="#DejaVuSans-6e" x="1571"/>
    </g>
   </g>
  </g>
 </g>
 <defs>
  <clipPath id="pc8a43d104e">
   <rect x="72" y="51.84" width="446.4" height="332.64"/>
  </clipPath>
 </defs>
</svg>
