<?xml version="1.0" encoding="utf-8" standalone="no"?>
<!DOCTYPE svg PUBLIC "-//W3C//DTD SVG 1.1//EN"
  "http://www.w3.org/Graphics/SVG/1.1/DTD/svg11.dtd">
<svg xmlns:xlink="http://www.w3.org/1999/xlink" width="576pt" height="432pt" viewBox="0 0 576 432" xmlns="http://www.w3.org/2000/svg" version="1.1">
 <metadata>
  <rdf:RDF xmlns:dc="http://purl.org/dc/elements/1.1/" xmlns:cc="http://creativecommons.org/ns#" xmlns:rdf="http://www.w3.org/1999/02/22-rdf-syntax-ns#">
   <cc:Work>
    <dc:type rdf:resource="http://purl.org/dc/dcmitype/StillImage"/>
    <dc:date>2024-11-12T14:09:01.653387</dc:date>
    <dc:format>image/svg+xml</dc:format>
    <dc:creator>
     <cc:Agent>
      <dc:title>Matplotlib v3.7.5, https://matplotlib.org/</dc:title>
     </cc:Agent>
    </dc:creator>
   </cc:Work>
  </rdf:RDF>
 </metadata>
 <defs>
  <style type="text/css">*{stroke-linejoin: round; stroke-linecap: butt}</style>
 </defs>
 <g id="figure_1">
  <g id="patch_1">
   <path d="M 0 432 
L 576 432 
L 576 0 
L 0 0 
z
" style="fill: #ffffff"/>
  </g>
  <g id="axes_1">
   <g id="patch_2">
    <path d="M 72 384.48 
L 518.4 384.48 
L 518.4 51.84 
L 72 51.84 
z
" style="fill: #ffffff"/>
   </g>
   <g id="matplotlib.axis_1">
    <g id="xtick_1">
     <g id="line2d_1">
      <path d="M 92.290909 384.48 
L 92.290909 51.84 
" clip-path="url(#p7593effbcd)" style="fill: none; stroke: #b0b0b0; stroke-width: 0.8; stroke-linecap: square"/>
     </g>
     <g id="line2d_2">
      <defs>
       <path id="m20706cb67a" d="M 0 0 
L 0 3.5 
" style="stroke: #000000; stroke-width: 0.8"/>
      </defs>
      <g>
       <use xlink:href="#m20706cb67a" x="92.290909" y="384.48" style="stroke: #000000; stroke-width: 0.8"/>
      </g>
     </g>
     <g id="text_1">
      <!-- 0.17 -->
      <g transform="translate(81.158097 399.078438) scale(0.1 -0.1)">
       <defs>
        <path id="DejaVuSans-30" d="M 2034 4250 
Q 1547 4250 1301 3770 
Q 1056 3291 1056 2328 
Q 1056 1369 1301 889 
Q 1547 409 2034 409 
Q 2525 409 2770 889 
Q 3016 1369 3016 2328 
Q 3016 3291 2770 3770 
Q 2525 4250 2034 4250 
z
M 2034 4750 
Q 2819 4750 3233 4129 
Q 3647 3509 3647 2328 
Q 3647 1150 3233 529 
Q 2819 -91 2034 -91 
Q 1250 -91 836 529 
Q 422 1150 422 2328 
Q 422 3509 836 4129 
Q 1250 4750 2034 4750 
z
" transform="scale(0.015625)"/>
        <path id="DejaVuSans-2e" d="M 684 794 
L 1344 794 
L 1344 0 
L 684 0 
L 684 794 
z
" transform="scale(0.015625)"/>
        <path id="DejaVuSans-31" d="M 794 531 
L 1825 531 
L 1825 4091 
L 703 3866 
L 703 4441 
L 1819 4666 
L 2450 4666 
L 2450 531 
L 3481 531 
L 3481 0 
L 794 0 
L 794 531 
z
" transform="scale(0.015625)"/>
        <path id="DejaVuSans-37" d="M 525 4666 
L 3525 4666 
L 3525 4397 
L 1831 0 
L 1172 0 
L 2766 4134 
L 525 4134 
L 525 4666 
z
" transform="scale(0.015625)"/>
       </defs>
       <use xlink:href="#DejaVuSans-30"/>
       <use xlink:href="#DejaVuSans-2e" x="63.623047"/>
       <use xlink:href="#DejaVuSans-31" x="95.410156"/>
       <use xlink:href="#DejaVuSans-37" x="159.033203"/>
      </g>
     </g>
    </g>
    <g id="xtick_2">
     <g id="line2d_3">
      <path d="M 156.451886 384.48 
L 156.451886 51.84 
" clip-path="url(#p7593effbcd)" style="fill: none; stroke: #b0b0b0; stroke-width: 0.8; stroke-linecap: square"/>
     </g>
     <g id="line2d_4">
      <g>
       <use xlink:href="#m20706cb67a" x="156.451886" y="384.48" style="stroke: #000000; stroke-width: 0.8"/>
      </g>
     </g>
     <g id="text_2">
      <!-- 6.83 -->
      <g transform="translate(145.319074 399.078438) scale(0.1 -0.1)">
       <defs>
        <path id="DejaVuSans-36" d="M 2113 2584 
Q 1688 2584 1439 2293 
Q 1191 2003 1191 1497 
Q 1191 994 1439 701 
Q 1688 409 2113 409 
Q 2538 409 2786 701 
Q 3034 994 3034 1497 
Q 3034 2003 2786 2293 
Q 2538 2584 2113 2584 
z
M 3366 4563 
L 3366 3988 
Q 3128 4100 2886 4159 
Q 2644 4219 2406 4219 
Q 1781 4219 1451 3797 
Q 1122 3375 1075 2522 
Q 1259 2794 1537 2939 
Q 1816 3084 2150 3084 
Q 2853 3084 3261 2657 
Q 3669 2231 3669 1497 
Q 3669 778 3244 343 
Q 2819 -91 2113 -91 
Q 1303 -91 875 529 
Q 447 1150 447 2328 
Q 447 3434 972 4092 
Q 1497 4750 2381 4750 
Q 2619 4750 2861 4703 
Q 3103 4656 3366 4563 
z
" transform="scale(0.015625)"/>
        <path id="DejaVuSans-38" d="M 2034 2216 
Q 1584 2216 1326 1975 
Q 1069 1734 1069 1313 
Q 1069 891 1326 650 
Q 1584 409 2034 409 
Q 2484 409 2743 651 
Q 3003 894 3003 1313 
Q 3003 1734 2745 1975 
Q 2488 2216 2034 2216 
z
M 1403 2484 
Q 997 2584 770 2862 
Q 544 3141 544 3541 
Q 544 4100 942 4425 
Q 1341 4750 2034 4750 
Q 2731 4750 3128 4425 
Q 3525 4100 3525 3541 
Q 3525 3141 3298 2862 
Q 3072 2584 2669 2484 
Q 3125 2378 3379 2068 
Q 3634 1759 3634 1313 
Q 3634 634 3220 271 
Q 2806 -91 2034 -91 
Q 1263 -91 848 271 
Q 434 634 434 1313 
Q 434 1759 690 2068 
Q 947 2378 1403 2484 
z
M 1172 3481 
Q 1172 3119 1398 2916 
Q 1625 2713 2034 2713 
Q 2441 2713 2670 2916 
Q 2900 3119 2900 3481 
Q 2900 3844 2670 4047 
Q 2441 4250 2034 4250 
Q 1625 4250 1398 4047 
Q 1172 3844 1172 3481 
z
" transform="scale(0.015625)"/>
        <path id="DejaVuSans-33" d="M 2597 2516 
Q 3050 2419 3304 2112 
Q 3559 1806 3559 1356 
Q 3559 666 3084 287 
Q 2609 -91 1734 -91 
Q 1441 -91 1130 -33 
Q 819 25 488 141 
L 488 750 
Q 750 597 1062 519 
Q 1375 441 1716 441 
Q 2309 441 2620 675 
Q 2931 909 2931 1356 
Q 2931 1769 2642 2001 
Q 2353 2234 1838 2234 
L 1294 2234 
L 1294 2753 
L 1863 2753 
Q 2328 2753 2575 2939 
Q 2822 3125 2822 3475 
Q 2822 3834 2567 4026 
Q 2313 4219 1838 4219 
Q 1578 4219 1281 4162 
Q 984 4106 628 3988 
L 628 4550 
Q 988 4650 1302 4700 
Q 1616 4750 1894 4750 
Q 2613 4750 3031 4423 
Q 3450 4097 3450 3541 
Q 3450 3153 3228 2886 
Q 3006 2619 2597 2516 
z
" transform="scale(0.015625)"/>
       </defs>
       <use xlink:href="#DejaVuSans-36"/>
       <use xlink:href="#DejaVuSans-2e" x="63.623047"/>
       <use xlink:href="#DejaVuSans-38" x="95.410156"/>
       <use xlink:href="#DejaVuSans-33" x="159.033203"/>
      </g>
     </g>
    </g>
    <g id="xtick_3">
     <g id="line2d_5">
      <path d="M 220.612864 384.48 
L 220.612864 51.84 
" clip-path="url(#p7593effbcd)" style="fill: none; stroke: #b0b0b0; stroke-width: 0.8; stroke-linecap: square"/>
     </g>
     <g id="line2d_6">
      <g>
       <use xlink:href="#m20706cb67a" x="220.612864" y="384.48" style="stroke: #000000; stroke-width: 0.8"/>
      </g>
     </g>
     <g id="text_3">
      <!-- 13.5 -->
      <g transform="translate(209.480051 399.078438) scale(0.1 -0.1)">
       <defs>
        <path id="DejaVuSans-35" d="M 691 4666 
L 3169 4666 
L 3169 4134 
L 1269 4134 
L 1269 2991 
Q 1406 3038 1543 3061 
Q 1681 3084 1819 3084 
Q 2600 3084 3056 2656 
Q 3513 2228 3513 1497 
Q 3513 744 3044 326 
Q 2575 -91 1722 -91 
Q 1428 -91 1123 -41 
Q 819 9 494 109 
L 494 744 
Q 775 591 1075 516 
Q 1375 441 1709 441 
Q 2250 441 2565 725 
Q 2881 1009 2881 1497 
Q 2881 1984 2565 2268 
Q 2250 2553 1709 2553 
Q 1456 2553 1204 2497 
Q 953 2441 691 2322 
L 691 4666 
z
" transform="scale(0.015625)"/>
       </defs>
       <use xlink:href="#DejaVuSans-31"/>
       <use xlink:href="#DejaVuSans-33" x="63.623047"/>
       <use xlink:href="#DejaVuSans-2e" x="127.246094"/>
       <use xlink:href="#DejaVuSans-35" x="159.033203"/>
      </g>
     </g>
    </g>
    <g id="xtick_4">
     <g id="line2d_7">
      <path d="M 284.773841 384.48 
L 284.773841 51.84 
" clip-path="url(#p7593effbcd)" style="fill: none; stroke: #b0b0b0; stroke-width: 0.8; stroke-linecap: square"/>
     </g>
     <g id="line2d_8">
      <g>
       <use xlink:href="#m20706cb67a" x="284.773841" y="384.48" style="stroke: #000000; stroke-width: 0.8"/>
      </g>
     </g>
     <g id="text_4">
      <!-- 20.17 -->
      <g transform="translate(270.459779 399.078438) scale(0.1 -0.1)">
       <defs>
        <path id="DejaVuSans-32" d="M 1228 531 
L 3431 531 
L 3431 0 
L 469 0 
L 469 531 
Q 828 903 1448 1529 
Q 2069 2156 2228 2338 
Q 2531 2678 2651 2914 
Q 2772 3150 2772 3378 
Q 2772 3750 2511 3984 
Q 2250 4219 1831 4219 
Q 1534 4219 1204 4116 
Q 875 4013 500 3803 
L 500 4441 
Q 881 4594 1212 4672 
Q 1544 4750 1819 4750 
Q 2544 4750 2975 4387 
Q 3406 4025 3406 3419 
Q 3406 3131 3298 2873 
Q 3191 2616 2906 2266 
Q 2828 2175 2409 1742 
Q 1991 1309 1228 531 
z
" transform="scale(0.015625)"/>
       </defs>
       <use xlink:href="#DejaVuSans-32"/>
       <use xlink:href="#DejaVuSans-30" x="63.623047"/>
       <use xlink:href="#DejaVuSans-2e" x="127.246094"/>
       <use xlink:href="#DejaVuSans-31" x="159.033203"/>
       <use xlink:href="#DejaVuSans-37" x="222.65625"/>
      </g>
     </g>
    </g>
    <g id="xtick_5">
     <g id="line2d_9">
      <path d="M 348.934819 384.48 
L 348.934819 51.84 
" clip-path="url(#p7593effbcd)" style="fill: none; stroke: #b0b0b0; stroke-width: 0.8; stroke-linecap: square"/>
     </g>
     <g id="line2d_10">
      <g>
       <use xlink:href="#m20706cb67a" x="348.934819" y="384.48" style="stroke: #000000; stroke-width: 0.8"/>
      </g>
     </g>
     <g id="text_5">
      <!-- 26.83 -->
      <g transform="translate(334.620756 399.078438) scale(0.1 -0.1)">
       <use xlink:href="#DejaVuSans-32"/>
       <use xlink:href="#DejaVuSans-36" x="63.623047"/>
       <use xlink:href="#DejaVuSans-2e" x="127.246094"/>
       <use xlink:href="#DejaVuSans-38" x="159.033203"/>
       <use xlink:href="#DejaVuSans-33" x="222.65625"/>
      </g>
     </g>
    </g>
    <g id="xtick_6">
     <g id="line2d_11">
      <path d="M 413.095796 384.48 
L 413.095796 51.84 
" clip-path="url(#p7593effbcd)" style="fill: none; stroke: #b0b0b0; stroke-width: 0.8; stroke-linecap: square"/>
     </g>
     <g id="line2d_12">
      <g>
       <use xlink:href="#m20706cb67a" x="413.095796" y="384.48" style="stroke: #000000; stroke-width: 0.8"/>
      </g>
     </g>
     <g id="text_6">
      <!-- 33.5 -->
      <g transform="translate(401.962983 399.078438) scale(0.1 -0.1)">
       <use xlink:href="#DejaVuSans-33"/>
       <use xlink:href="#DejaVuSans-33" x="63.623047"/>
       <use xlink:href="#DejaVuSans-2e" x="127.246094"/>
       <use xlink:href="#DejaVuSans-35" x="159.033203"/>
      </g>
     </g>
    </g>
    <g id="xtick_7">
     <g id="line2d_13">
      <path d="M 477.256773 384.48 
L 477.256773 51.84 
" clip-path="url(#p7593effbcd)" style="fill: none; stroke: #b0b0b0; stroke-width: 0.8; stroke-linecap: square"/>
     </g>
     <g id="line2d_14">
      <g>
       <use xlink:href="#m20706cb67a" x="477.256773" y="384.48" style="stroke: #000000; stroke-width: 0.8"/>
      </g>
     </g>
     <g id="text_7">
      <!-- 40.17 -->
      <g transform="translate(462.942711 399.078438) scale(0.1 -0.1)">
       <defs>
        <path id="DejaVuSans-34" d="M 2419 4116 
L 825 1625 
L 2419 1625 
L 2419 4116 
z
M 2253 4666 
L 3047 4666 
L 3047 1625 
L 3713 1625 
L 3713 1100 
L 3047 1100 
L 3047 0 
L 2419 0 
L 2419 1100 
L 313 1100 
L 313 1709 
L 2253 4666 
z
" transform="scale(0.015625)"/>
       </defs>
       <use xlink:href="#DejaVuSans-34"/>
       <use xlink:href="#DejaVuSans-30" x="63.623047"/>
       <use xlink:href="#DejaVuSans-2e" x="127.246094"/>
       <use xlink:href="#DejaVuSans-31" x="159.033203"/>
       <use xlink:href="#DejaVuSans-37" x="222.65625"/>
      </g>
     </g>
    </g>
    <g id="text_8">
     <!-- time in hours [h] -->
     <g transform="translate(253.451562 412.756563) scale(0.1 -0.1)">
      <defs>
       <path id="DejaVuSans-74" d="M 1172 4494 
L 1172 3500 
L 2356 3500 
L 2356 3053 
L 1172 3053 
L 1172 1153 
Q 1172 725 1289 603 
Q 1406 481 1766 481 
L 2356 481 
L 2356 0 
L 1766 0 
Q 1100 0 847 248 
Q 594 497 594 1153 
L 594 3053 
L 172 3053 
L 172 3500 
L 594 3500 
L 594 4494 
L 1172 4494 
z
" transform="scale(0.015625)"/>
       <path id="DejaVuSans-69" d="M 603 3500 
L 1178 3500 
L 1178 0 
L 603 0 
L 603 3500 
z
M 603 4863 
L 1178 4863 
L 1178 4134 
L 603 4134 
L 603 4863 
z
" transform="scale(0.015625)"/>
       <path id="DejaVuSans-6d" d="M 3328 2828 
Q 3544 3216 3844 3400 
Q 4144 3584 4550 3584 
Q 5097 3584 5394 3201 
Q 5691 2819 5691 2113 
L 5691 0 
L 5113 0 
L 5113 2094 
Q 5113 2597 4934 2840 
Q 4756 3084 4391 3084 
Q 3944 3084 3684 2787 
Q 3425 2491 3425 1978 
L 3425 0 
L 2847 0 
L 2847 2094 
Q 2847 2600 2669 2842 
Q 2491 3084 2119 3084 
Q 1678 3084 1418 2786 
Q 1159 2488 1159 1978 
L 1159 0 
L 581 0 
L 581 3500 
L 1159 3500 
L 1159 2956 
Q 1356 3278 1631 3431 
Q 1906 3584 2284 3584 
Q 2666 3584 2933 3390 
Q 3200 3197 3328 2828 
z
" transform="scale(0.015625)"/>
       <path id="DejaVuSans-65" d="M 3597 1894 
L 3597 1613 
L 953 1613 
Q 991 1019 1311 708 
Q 1631 397 2203 397 
Q 2534 397 2845 478 
Q 3156 559 3463 722 
L 3463 178 
Q 3153 47 2828 -22 
Q 2503 -91 2169 -91 
Q 1331 -91 842 396 
Q 353 884 353 1716 
Q 353 2575 817 3079 
Q 1281 3584 2069 3584 
Q 2775 3584 3186 3129 
Q 3597 2675 3597 1894 
z
M 3022 2063 
Q 3016 2534 2758 2815 
Q 2500 3097 2075 3097 
Q 1594 3097 1305 2825 
Q 1016 2553 972 2059 
L 3022 2063 
z
" transform="scale(0.015625)"/>
       <path id="DejaVuSans-20" transform="scale(0.015625)"/>
       <path id="DejaVuSans-6e" d="M 3513 2113 
L 3513 0 
L 2938 0 
L 2938 2094 
Q 2938 2591 2744 2837 
Q 2550 3084 2163 3084 
Q 1697 3084 1428 2787 
Q 1159 2491 1159 1978 
L 1159 0 
L 581 0 
L 581 3500 
L 1159 3500 
L 1159 2956 
Q 1366 3272 1645 3428 
Q 1925 3584 2291 3584 
Q 2894 3584 3203 3211 
Q 3513 2838 3513 2113 
z
" transform="scale(0.015625)"/>
       <path id="DejaVuSans-68" d="M 3513 2113 
L 3513 0 
L 2938 0 
L 2938 2094 
Q 2938 2591 2744 2837 
Q 2550 3084 2163 3084 
Q 1697 3084 1428 2787 
Q 1159 2491 1159 1978 
L 1159 0 
L 581 0 
L 581 4863 
L 1159 4863 
L 1159 2956 
Q 1366 3272 1645 3428 
Q 1925 3584 2291 3584 
Q 2894 3584 3203 3211 
Q 3513 2838 3513 2113 
z
" transform="scale(0.015625)"/>
       <path id="DejaVuSans-6f" d="M 1959 3097 
Q 1497 3097 1228 2736 
Q 959 2375 959 1747 
Q 959 1119 1226 758 
Q 1494 397 1959 397 
Q 2419 397 2687 759 
Q 2956 1122 2956 1747 
Q 2956 2369 2687 2733 
Q 2419 3097 1959 3097 
z
M 1959 3584 
Q 2709 3584 3137 3096 
Q 3566 2609 3566 1747 
Q 3566 888 3137 398 
Q 2709 -91 1959 -91 
Q 1206 -91 779 398 
Q 353 888 353 1747 
Q 353 2609 779 3096 
Q 1206 3584 1959 3584 
z
" transform="scale(0.015625)"/>
       <path id="DejaVuSans-75" d="M 544 1381 
L 544 3500 
L 1119 3500 
L 1119 1403 
Q 1119 906 1312 657 
Q 1506 409 1894 409 
Q 2359 409 2629 706 
Q 2900 1003 2900 1516 
L 2900 3500 
L 3475 3500 
L 3475 0 
L 2900 0 
L 2900 538 
Q 2691 219 2414 64 
Q 2138 -91 1772 -91 
Q 1169 -91 856 284 
Q 544 659 544 1381 
z
M 1991 3584 
L 1991 3584 
z
" transform="scale(0.015625)"/>
       <path id="DejaVuSans-72" d="M 2631 2963 
Q 2534 3019 2420 3045 
Q 2306 3072 2169 3072 
Q 1681 3072 1420 2755 
Q 1159 2438 1159 1844 
L 1159 0 
L 581 0 
L 581 3500 
L 1159 3500 
L 1159 2956 
Q 1341 3275 1631 3429 
Q 1922 3584 2338 3584 
Q 2397 3584 2469 3576 
Q 2541 3569 2628 3553 
L 2631 2963 
z
" transform="scale(0.015625)"/>
       <path id="DejaVuSans-73" d="M 2834 3397 
L 2834 2853 
Q 2591 2978 2328 3040 
Q 2066 3103 1784 3103 
Q 1356 3103 1142 2972 
Q 928 2841 928 2578 
Q 928 2378 1081 2264 
Q 1234 2150 1697 2047 
L 1894 2003 
Q 2506 1872 2764 1633 
Q 3022 1394 3022 966 
Q 3022 478 2636 193 
Q 2250 -91 1575 -91 
Q 1294 -91 989 -36 
Q 684 19 347 128 
L 347 722 
Q 666 556 975 473 
Q 1284 391 1588 391 
Q 1994 391 2212 530 
Q 2431 669 2431 922 
Q 2431 1156 2273 1281 
Q 2116 1406 1581 1522 
L 1381 1569 
Q 847 1681 609 1914 
Q 372 2147 372 2553 
Q 372 3047 722 3315 
Q 1072 3584 1716 3584 
Q 2034 3584 2315 3537 
Q 2597 3491 2834 3397 
z
" transform="scale(0.015625)"/>
       <path id="DejaVuSans-5b" d="M 550 4863 
L 1875 4863 
L 1875 4416 
L 1125 4416 
L 1125 -397 
L 1875 -397 
L 1875 -844 
L 550 -844 
L 550 4863 
z
" transform="scale(0.015625)"/>
       <path id="DejaVuSans-5d" d="M 1947 4863 
L 1947 -844 
L 622 -844 
L 622 -397 
L 1369 -397 
L 1369 4416 
L 622 4416 
L 622 4863 
L 1947 4863 
z
" transform="scale(0.015625)"/>
      </defs>
      <use xlink:href="#DejaVuSans-74"/>
      <use xlink:href="#DejaVuSans-69" x="39.208984"/>
      <use xlink:href="#DejaVuSans-6d" x="66.992188"/>
      <use xlink:href="#DejaVuSans-65" x="164.404297"/>
      <use xlink:href="#DejaVuSans-20" x="225.927734"/>
      <use xlink:href="#DejaVuSans-69" x="257.714844"/>
      <use xlink:href="#DejaVuSans-6e" x="285.498047"/>
      <use xlink:href="#DejaVuSans-20" x="348.876953"/>
      <use xlink:href="#DejaVuSans-68" x="380.664062"/>
      <use xlink:href="#DejaVuSans-6f" x="444.042969"/>
      <use xlink:href="#DejaVuSans-75" x="505.224609"/>
      <use xlink:href="#DejaVuSans-72" x="568.603516"/>
      <use xlink:href="#DejaVuSans-73" x="609.716797"/>
      <use xlink:href="#DejaVuSans-20" x="661.816406"/>
      <use xlink:href="#DejaVuSans-5b" x="693.603516"/>
      <use xlink:href="#DejaVuSans-68" x="732.617188"/>
      <use xlink:href="#DejaVuSans-5d" x="795.996094"/>
     </g>
    </g>
   </g>
   <g id="matplotlib.axis_2">
    <g id="ytick_1">
     <g id="line2d_15">
      <path d="M 72 363.69 
L 518.4 363.69 
" clip-path="url(#p7593effbcd)" style="fill: none; stroke: #b0b0b0; stroke-width: 0.8; stroke-linecap: square"/>
     </g>
     <g id="line2d_16">
      <defs>
       <path id="m03df1770ce" d="M 0 0 
L -3.5 0 
" style="stroke: #000000; stroke-width: 0.8"/>
      </defs>
      <g>
       <use xlink:href="#m03df1770ce" x="72" y="363.69" style="stroke: #000000; stroke-width: 0.8"/>
      </g>
     </g>
     <g id="text_9">
      <!-- 0.0 -->
      <g transform="translate(49.096875 367.489219) scale(0.1 -0.1)">
       <use xlink:href="#DejaVuSans-30"/>
       <use xlink:href="#DejaVuSans-2e" x="63.623047"/>
       <use xlink:href="#DejaVuSans-30" x="95.410156"/>
      </g>
     </g>
    </g>
    <g id="ytick_2">
     <g id="line2d_17">
      <path d="M 72 311.715 
L 518.4 311.715 
" clip-path="url(#p7593effbcd)" style="fill: none; stroke: #b0b0b0; stroke-width: 0.8; stroke-linecap: square"/>
     </g>
     <g id="line2d_18">
      <g>
       <use xlink:href="#m03df1770ce" x="72" y="311.715" style="stroke: #000000; stroke-width: 0.8"/>
      </g>
     </g>
     <g id="text_10">
      <!-- 0.5 -->
      <g transform="translate(49.096875 315.514219) scale(0.1 -0.1)">
       <use xlink:href="#DejaVuSans-30"/>
       <use xlink:href="#DejaVuSans-2e" x="63.623047"/>
       <use xlink:href="#DejaVuSans-35" x="95.410156"/>
      </g>
     </g>
    </g>
    <g id="ytick_3">
     <g id="line2d_19">
      <path d="M 72 259.74 
L 518.4 259.74 
" clip-path="url(#p7593effbcd)" style="fill: none; stroke: #b0b0b0; stroke-width: 0.8; stroke-linecap: square"/>
     </g>
     <g id="line2d_20">
      <g>
       <use xlink:href="#m03df1770ce" x="72" y="259.74" style="stroke: #000000; stroke-width: 0.8"/>
      </g>
     </g>
     <g id="text_11">
      <!-- 1.0 -->
      <g transform="translate(49.096875 263.539219) scale(0.1 -0.1)">
       <use xlink:href="#DejaVuSans-31"/>
       <use xlink:href="#DejaVuSans-2e" x="63.623047"/>
       <use xlink:href="#DejaVuSans-30" x="95.410156"/>
      </g>
     </g>
    </g>
    <g id="ytick_4">
     <g id="line2d_21">
      <path d="M 72 207.765 
L 518.4 207.765 
" clip-path="url(#p7593effbcd)" style="fill: none; stroke: #b0b0b0; stroke-width: 0.8; stroke-linecap: square"/>
     </g>
     <g id="line2d_22">
      <g>
       <use xlink:href="#m03df1770ce" x="72" y="207.765" style="stroke: #000000; stroke-width: 0.8"/>
      </g>
     </g>
     <g id="text_12">
      <!-- 1.5 -->
      <g transform="translate(49.096875 211.564219) scale(0.1 -0.1)">
       <use xlink:href="#DejaVuSans-31"/>
       <use xlink:href="#DejaVuSans-2e" x="63.623047"/>
       <use xlink:href="#DejaVuSans-35" x="95.410156"/>
      </g>
     </g>
    </g>
    <g id="ytick_5">
     <g id="line2d_23">
      <path d="M 72 155.79 
L 518.4 155.79 
" clip-path="url(#p7593effbcd)" style="fill: none; stroke: #b0b0b0; stroke-width: 0.8; stroke-linecap: square"/>
     </g>
     <g id="line2d_24">
      <g>
       <use xlink:href="#m03df1770ce" x="72" y="155.79" style="stroke: #000000; stroke-width: 0.8"/>
      </g>
     </g>
     <g id="text_13">
      <!-- 2.0 -->
      <g transform="translate(49.096875 159.589219) scale(0.1 -0.1)">
       <use xlink:href="#DejaVuSans-32"/>
       <use xlink:href="#DejaVuSans-2e" x="63.623047"/>
       <use xlink:href="#DejaVuSans-30" x="95.410156"/>
      </g>
     </g>
    </g>
    <g id="ytick_6">
     <g id="line2d_25">
      <path d="M 72 103.815 
L 518.4 103.815 
" clip-path="url(#p7593effbcd)" style="fill: none; stroke: #b0b0b0; stroke-width: 0.8; stroke-linecap: square"/>
     </g>
     <g id="line2d_26">
      <g>
       <use xlink:href="#m03df1770ce" x="72" y="103.815" style="stroke: #000000; stroke-width: 0.8"/>
      </g>
     </g>
     <g id="text_14">
      <!-- 2.5 -->
      <g transform="translate(49.096875 107.614219) scale(0.1 -0.1)">
       <use xlink:href="#DejaVuSans-32"/>
       <use xlink:href="#DejaVuSans-2e" x="63.623047"/>
       <use xlink:href="#DejaVuSans-35" x="95.410156"/>
      </g>
     </g>
    </g>
    <g id="ytick_7">
     <g id="line2d_27">
      <path d="M 72 51.84 
L 518.4 51.84 
" clip-path="url(#p7593effbcd)" style="fill: none; stroke: #b0b0b0; stroke-width: 0.8; stroke-linecap: square"/>
     </g>
     <g id="line2d_28">
      <g>
       <use xlink:href="#m03df1770ce" x="72" y="51.84" style="stroke: #000000; stroke-width: 0.8"/>
      </g>
     </g>
     <g id="text_15">
      <!-- 3.0 -->
      <g transform="translate(49.096875 55.639219) scale(0.1 -0.1)">
       <use xlink:href="#DejaVuSans-33"/>
       <use xlink:href="#DejaVuSans-2e" x="63.623047"/>
       <use xlink:href="#DejaVuSans-30" x="95.410156"/>
      </g>
     </g>
    </g>
    <g id="text_16">
     <!-- blank corrected OD600 -->
     <g transform="translate(43.017187 276.115469) rotate(-90) scale(0.1 -0.1)">
      <defs>
       <path id="DejaVuSans-62" d="M 3116 1747 
Q 3116 2381 2855 2742 
Q 2594 3103 2138 3103 
Q 1681 3103 1420 2742 
Q 1159 2381 1159 1747 
Q 1159 1113 1420 752 
Q 1681 391 2138 391 
Q 2594 391 2855 752 
Q 3116 1113 3116 1747 
z
M 1159 2969 
Q 1341 3281 1617 3432 
Q 1894 3584 2278 3584 
Q 2916 3584 3314 3078 
Q 3713 2572 3713 1747 
Q 3713 922 3314 415 
Q 2916 -91 2278 -91 
Q 1894 -91 1617 61 
Q 1341 213 1159 525 
L 1159 0 
L 581 0 
L 581 4863 
L 1159 4863 
L 1159 2969 
z
" transform="scale(0.015625)"/>
       <path id="DejaVuSans-6c" d="M 603 4863 
L 1178 4863 
L 1178 0 
L 603 0 
L 603 4863 
z
" transform="scale(0.015625)"/>
       <path id="DejaVuSans-61" d="M 2194 1759 
Q 1497 1759 1228 1600 
Q 959 1441 959 1056 
Q 959 750 1161 570 
Q 1363 391 1709 391 
Q 2188 391 2477 730 
Q 2766 1069 2766 1631 
L 2766 1759 
L 2194 1759 
z
M 3341 1997 
L 3341 0 
L 2766 0 
L 2766 531 
Q 2569 213 2275 61 
Q 1981 -91 1556 -91 
Q 1019 -91 701 211 
Q 384 513 384 1019 
Q 384 1609 779 1909 
Q 1175 2209 1959 2209 
L 2766 2209 
L 2766 2266 
Q 2766 2663 2505 2880 
Q 2244 3097 1772 3097 
Q 1472 3097 1187 3025 
Q 903 2953 641 2809 
L 641 3341 
Q 956 3463 1253 3523 
Q 1550 3584 1831 3584 
Q 2591 3584 2966 3190 
Q 3341 2797 3341 1997 
z
" transform="scale(0.015625)"/>
       <path id="DejaVuSans-6b" d="M 581 4863 
L 1159 4863 
L 1159 1991 
L 2875 3500 
L 3609 3500 
L 1753 1863 
L 3688 0 
L 2938 0 
L 1159 1709 
L 1159 0 
L 581 0 
L 581 4863 
z
" transform="scale(0.015625)"/>
       <path id="DejaVuSans-63" d="M 3122 3366 
L 3122 2828 
Q 2878 2963 2633 3030 
Q 2388 3097 2138 3097 
Q 1578 3097 1268 2742 
Q 959 2388 959 1747 
Q 959 1106 1268 751 
Q 1578 397 2138 397 
Q 2388 397 2633 464 
Q 2878 531 3122 666 
L 3122 134 
Q 2881 22 2623 -34 
Q 2366 -91 2075 -91 
Q 1284 -91 818 406 
Q 353 903 353 1747 
Q 353 2603 823 3093 
Q 1294 3584 2113 3584 
Q 2378 3584 2631 3529 
Q 2884 3475 3122 3366 
z
" transform="scale(0.015625)"/>
       <path id="DejaVuSans-64" d="M 2906 2969 
L 2906 4863 
L 3481 4863 
L 3481 0 
L 2906 0 
L 2906 525 
Q 2725 213 2448 61 
Q 2172 -91 1784 -91 
Q 1150 -91 751 415 
Q 353 922 353 1747 
Q 353 2572 751 3078 
Q 1150 3584 1784 3584 
Q 2172 3584 2448 3432 
Q 2725 3281 2906 2969 
z
M 947 1747 
Q 947 1113 1208 752 
Q 1469 391 1925 391 
Q 2381 391 2643 752 
Q 2906 1113 2906 1747 
Q 2906 2381 2643 2742 
Q 2381 3103 1925 3103 
Q 1469 3103 1208 2742 
Q 947 2381 947 1747 
z
" transform="scale(0.015625)"/>
       <path id="DejaVuSans-4f" d="M 2522 4238 
Q 1834 4238 1429 3725 
Q 1025 3213 1025 2328 
Q 1025 1447 1429 934 
Q 1834 422 2522 422 
Q 3209 422 3611 934 
Q 4013 1447 4013 2328 
Q 4013 3213 3611 3725 
Q 3209 4238 2522 4238 
z
M 2522 4750 
Q 3503 4750 4090 4092 
Q 4678 3434 4678 2328 
Q 4678 1225 4090 567 
Q 3503 -91 2522 -91 
Q 1538 -91 948 565 
Q 359 1222 359 2328 
Q 359 3434 948 4092 
Q 1538 4750 2522 4750 
z
" transform="scale(0.015625)"/>
       <path id="DejaVuSans-44" d="M 1259 4147 
L 1259 519 
L 2022 519 
Q 2988 519 3436 956 
Q 3884 1394 3884 2338 
Q 3884 3275 3436 3711 
Q 2988 4147 2022 4147 
L 1259 4147 
z
M 628 4666 
L 1925 4666 
Q 3281 4666 3915 4102 
Q 4550 3538 4550 2338 
Q 4550 1131 3912 565 
Q 3275 0 1925 0 
L 628 0 
L 628 4666 
z
" transform="scale(0.015625)"/>
      </defs>
      <use xlink:href="#DejaVuSans-62"/>
      <use xlink:href="#DejaVuSans-6c" x="63.476562"/>
      <use xlink:href="#DejaVuSans-61" x="91.259766"/>
      <use xlink:href="#DejaVuSans-6e" x="152.539062"/>
      <use xlink:href="#DejaVuSans-6b" x="215.917969"/>
      <use xlink:href="#DejaVuSans-20" x="273.828125"/>
      <use xlink:href="#DejaVuSans-63" x="305.615234"/>
      <use xlink:href="#DejaVuSans-6f" x="360.595703"/>
      <use xlink:href="#DejaVuSans-72" x="421.777344"/>
      <use xlink:href="#DejaVuSans-72" x="461.140625"/>
      <use xlink:href="#DejaVuSans-65" x="500.003906"/>
      <use xlink:href="#DejaVuSans-63" x="561.527344"/>
      <use xlink:href="#DejaVuSans-74" x="616.507812"/>
      <use xlink:href="#DejaVuSans-65" x="655.716797"/>
      <use xlink:href="#DejaVuSans-64" x="717.240234"/>
      <use xlink:href="#DejaVuSans-20" x="780.716797"/>
      <use xlink:href="#DejaVuSans-4f" x="812.503906"/>
      <use xlink:href="#DejaVuSans-44" x="891.214844"/>
      <use xlink:href="#DejaVuSans-36" x="968.216797"/>
      <use xlink:href="#DejaVuSans-30" x="1031.839844"/>
      <use xlink:href="#DejaVuSans-30" x="1095.462891"/>
     </g>
    </g>
   </g>
   <g id="line2d_29">
    <path d="M 92.290909 345.137004 
L 93.894934 358.650504 
L 95.498958 359.170254 
L 105.123105 357.818904 
L 106.727129 357.507054 
L 108.331153 357.403104 
L 109.935178 356.675454 
L 111.539202 356.779404 
L 119.559324 354.804354 
L 121.163349 354.596454 
L 124.371398 353.453004 
L 125.975422 353.037204 
L 127.579447 352.413504 
L 129.183471 351.997704 
L 135.599569 349.606854 
L 137.203593 348.567354 
L 138.807618 348.151554 
L 140.411642 347.319954 
L 142.015667 346.904154 
L 145.223715 345.656754 
L 146.82774 343.993554 
L 148.431764 344.617254 
L 150.035789 343.369854 
L 151.639813 342.434304 
L 153.243838 341.914554 
L 162.867984 336.405204 
L 164.472009 334.638054 
L 167.680057 331.623504 
L 169.284082 330.584004 
L 170.888106 329.128704 
L 172.492131 328.297104 
L 174.096155 327.153654 
L 177.304204 325.906254 
L 178.908229 324.970704 
L 180.512253 324.243054 
L 182.116277 323.827254 
L 185.324326 321.644304 
L 190.1364 318.213954 
L 193.344448 315.511254 
L 196.552497 311.145354 
L 199.760546 307.091304 
L 201.364571 305.636004 
L 202.968595 303.764904 
L 206.176644 301.166154 
L 207.780668 300.334554 
L 210.988717 298.047654 
L 212.592742 297.320004 
L 214.196766 295.968654 
L 217.404815 293.889654 
L 220.612864 292.330404 
L 222.216888 291.083004 
L 223.820913 290.459304 
L 225.424937 289.211904 
L 227.028962 288.276354 
L 228.632986 286.821054 
L 230.23701 285.573654 
L 231.841035 283.910454 
L 235.049084 281.519604 
L 236.653108 280.791954 
L 238.257133 279.544554 
L 244.67323 279.128754 
L 246.277255 279.544554 
L 247.881279 280.168254 
L 251.089328 280.688004 
L 254.297377 281.103804 
L 255.901401 281.623554 
L 259.10945 281.311704 
L 260.713475 280.895904 
L 262.317499 279.752454 
L 265.525548 278.609004 
L 267.129572 277.257654 
L 270.337621 275.906304 
L 271.941646 274.970754 
L 275.149695 274.347054 
L 276.753719 274.347054 
L 278.357743 273.619404 
L 279.961768 273.411504 
L 281.565792 273.411504 
L 283.169817 272.787804 
L 286.377866 272.060154 
L 287.98189 271.228554 
L 291.189939 268.525854 
L 292.793963 266.966604 
L 294.397988 265.719204 
L 296.002012 264.263904 
L 300.814086 261.145404 
L 302.41811 260.521704 
L 304.022134 259.586154 
L 308.834208 257.819004 
L 310.438232 257.611104 
L 312.042257 257.195304 
L 316.85433 256.675554 
L 321.666403 255.012354 
L 324.874452 252.829404 
L 326.478476 251.270154 
L 328.082501 250.022754 
L 331.29055 246.904254 
L 334.498599 244.721304 
L 336.102623 243.577854 
L 337.706648 243.162054 
L 339.310672 241.914654 
L 340.914696 241.810704 
L 348.934819 239.108004 
L 350.538843 237.964554 
L 352.142867 237.444804 
L 355.350916 233.806554 
L 356.954941 232.663104 
L 358.558965 230.792004 
L 360.16299 230.064354 
L 361.767014 228.193254 
L 363.371038 227.257704 
L 364.975063 225.698454 
L 371.391161 222.268104 
L 372.995185 221.228604 
L 374.599209 220.916754 
L 376.203234 220.397004 
L 377.807258 219.357504 
L 381.015307 217.902204 
L 382.619332 216.966654 
L 390.639454 210.313854 
L 392.243478 209.274354 
L 393.847503 208.650654 
L 395.451527 207.819054 
L 397.055552 207.195354 
L 398.659576 207.299304 
L 400.2636 206.883504 
L 401.867625 206.259804 
L 403.471649 205.844004 
L 405.075674 205.636104 
L 406.679698 205.844004 
L 408.283723 204.908454 
L 409.887747 205.116354 
L 413.095796 204.596604 
L 416.303845 202.725504 
L 417.907869 201.582054 
L 419.511894 201.062304 
L 421.115918 200.126754 
L 422.719943 199.918854 
L 424.323967 199.191204 
L 425.927991 199.087254 
L 427.532016 199.399104 
L 429.13604 199.087254 
L 430.740065 198.983304 
L 432.344089 198.359604 
L 433.948114 199.295154 
L 435.552138 198.463554 
L 438.760187 198.983304 
L 441.968236 197.528004 
L 443.57226 197.943804 
L 445.176285 196.904304 
L 446.780309 196.800354 
L 448.384333 195.864804 
L 449.988358 195.241104 
L 451.592382 195.137154 
L 453.196407 194.097654 
L 454.800431 193.785804 
L 456.404456 193.993704 
L 458.00848 193.889754 
L 461.216529 194.409504 
L 462.820553 193.993704 
L 464.424578 194.721354 
L 466.028602 194.513454 
L 467.632627 194.097654 
L 469.236651 193.993704 
L 470.840676 194.305554 
L 474.048724 192.850254 
L 477.256773 192.538404 
L 478.860798 191.498904 
L 480.464822 191.083104 
L 482.068847 190.875204 
L 483.672871 190.355454 
L 485.276895 190.043604 
L 486.88092 190.459404 
L 488.484944 191.083104 
L 490.088969 190.875204 
L 491.692993 191.706804 
L 493.297018 191.914704 
L 494.901042 192.330504 
L 498.109091 192.330504 
L 498.109091 192.330504 
" clip-path="url(#p7593effbcd)" style="fill: none; stroke: #0000ff; stroke-opacity: 0.5; stroke-width: 1.5; stroke-linecap: square"/>
   </g>
   <g id="line2d_30">
    <path d="M 92.290909 352.829304 
L 93.894934 358.442604 
L 95.498958 358.962354 
L 97.102982 359.170254 
L 100.311031 358.962354 
L 103.51908 358.442604 
L 105.123105 357.818904 
L 106.727129 357.818904 
L 109.935178 357.299154 
L 114.747251 356.259654 
L 116.351276 356.259654 
L 117.9553 355.739904 
L 119.559324 354.700404 
L 121.163349 355.012254 
L 125.975422 353.660904 
L 133.995544 351.062154 
L 140.411642 347.735754 
L 143.619691 346.488354 
L 145.223715 346.592304 
L 146.82774 345.033054 
L 148.431764 345.240954 
L 151.639813 343.577754 
L 153.243838 343.058004 
L 156.451886 341.082954 
L 158.055911 340.563204 
L 159.659935 339.523704 
L 161.26396 338.796054 
L 162.867984 337.652604 
L 167.680057 332.766954 
L 170.888106 330.480054 
L 172.492131 328.816854 
L 177.304204 326.114154 
L 178.908229 325.282554 
L 180.512253 324.243054 
L 182.116277 323.931204 
L 183.720302 323.411454 
L 185.324326 323.099604 
L 186.928351 322.060104 
L 188.532375 321.436404 
L 190.1364 320.396904 
L 191.740424 319.149504 
L 193.344448 317.382354 
L 196.552497 313.328304 
L 198.156522 311.769054 
L 199.760546 309.690054 
L 201.364571 308.234754 
L 202.968595 306.259704 
L 204.572619 305.116254 
L 206.176644 303.453054 
L 209.384693 301.478004 
L 210.988717 299.918754 
L 212.592742 298.671354 
L 214.196766 297.735804 
L 215.800791 296.488404 
L 217.404815 294.721254 
L 219.008839 293.889654 
L 220.612864 292.538304 
L 223.820913 290.459304 
L 227.028962 289.211904 
L 228.632986 287.652654 
L 230.23701 286.509204 
L 231.841035 285.053904 
L 235.049084 282.663054 
L 238.257133 281.415654 
L 239.861157 280.999854 
L 241.465181 280.376154 
L 243.069206 279.960354 
L 244.67323 280.064304 
L 247.881279 279.752454 
L 249.485304 279.544554 
L 251.089328 279.856404 
L 252.693352 279.960354 
L 254.297377 279.856404 
L 257.505426 280.376154 
L 259.10945 280.168254 
L 265.525548 278.401104 
L 267.129572 277.465554 
L 270.337621 276.114204 
L 271.941646 275.386554 
L 275.149695 274.451004 
L 281.565792 272.372004 
L 283.169817 272.268054 
L 284.773841 271.540404 
L 286.377866 271.332504 
L 287.98189 270.708804 
L 292.793963 268.317954 
L 294.397988 267.070554 
L 296.002012 265.615254 
L 299.210061 263.432304 
L 300.814086 262.496754 
L 302.41811 261.977004 
L 305.626159 259.898004 
L 307.230183 259.274304 
L 308.834208 258.234804 
L 313.646281 256.571604 
L 315.250305 255.947904 
L 316.85433 255.843954 
L 318.458354 255.012354 
L 320.062379 254.804454 
L 323.270428 253.245204 
L 324.874452 252.725454 
L 326.478476 251.374104 
L 328.082501 250.646454 
L 329.686525 249.191154 
L 331.29055 248.463504 
L 332.894574 246.800304 
L 334.498599 246.176604 
L 336.102623 245.345004 
L 337.706648 244.721304 
L 340.914696 242.746254 
L 344.122745 241.290954 
L 345.72677 240.771204 
L 347.330794 239.835654 
L 348.934819 239.523804 
L 350.538843 238.276404 
L 352.142867 237.860604 
L 353.746892 236.301354 
L 355.350916 235.469754 
L 360.16299 231.519654 
L 364.975063 227.985354 
L 366.579087 227.465604 
L 368.183112 226.114254 
L 371.391161 224.762904 
L 376.203234 221.748354 
L 377.807258 220.397004 
L 379.411283 219.877254 
L 381.015307 218.941704 
L 382.619332 217.694304 
L 384.223356 217.070604 
L 385.827381 215.927154 
L 387.431405 214.471854 
L 389.035429 213.536304 
L 390.639454 211.977054 
L 392.243478 210.937554 
L 393.847503 210.105954 
L 395.451527 208.858554 
L 397.055552 207.923004 
L 398.659576 207.507204 
L 400.2636 206.883504 
L 401.867625 205.324254 
L 403.471649 205.636104 
L 405.075674 205.116354 
L 408.283723 203.765004 
L 409.887747 203.349204 
L 411.491771 203.349204 
L 413.095796 202.413654 
L 416.303845 201.478104 
L 417.907869 200.646504 
L 419.511894 200.022804 
L 421.115918 199.607004 
L 422.719943 198.879354 
L 427.532016 197.320104 
L 429.13604 197.424054 
L 430.740065 196.592454 
L 433.948114 196.280604 
L 435.552138 195.760854 
L 437.156162 196.072704 
L 438.760187 195.864804 
L 441.968236 195.864804 
L 443.57226 194.617404 
L 445.176285 194.409504 
L 446.780309 194.617404 
L 449.988358 193.473954 
L 451.592382 193.162104 
L 453.196407 192.330504 
L 454.800431 191.914704 
L 456.404456 191.706804 
L 458.00848 191.291004 
L 461.216529 191.187054 
L 462.820553 191.083104 
L 464.424578 191.187054 
L 467.632627 191.083104 
L 470.840676 191.187054 
L 474.048724 190.043604 
L 475.652749 189.939654 
L 477.256773 189.419904 
L 480.464822 188.900154 
L 482.068847 188.692254 
L 483.672871 187.548804 
L 485.276895 187.652754 
L 488.484944 187.548804 
L 490.088969 187.652754 
L 491.692993 187.964604 
L 493.297018 188.588304 
L 496.505066 188.068554 
L 498.109091 188.796204 
L 498.109091 188.796204 
" clip-path="url(#p7593effbcd)" style="fill: none; stroke: #0000ff; stroke-opacity: 0.5; stroke-width: 1.5; stroke-linecap: square"/>
   </g>
   <g id="line2d_31">
    <path d="M 92.290909 354.076704 
L 93.894934 357.611004 
L 95.498958 358.858404 
L 97.102982 358.858404 
L 98.707007 358.546554 
L 100.311031 358.546554 
L 103.51908 358.026804 
L 105.123105 357.403104 
L 108.331153 357.195204 
L 113.143227 356.259654 
L 114.747251 355.739904 
L 116.351276 355.635954 
L 117.9553 354.908304 
L 121.163349 354.388554 
L 122.767373 354.076704 
L 125.975422 352.933254 
L 129.183471 352.101654 
L 130.787496 351.374004 
L 132.39152 350.958204 
L 135.599569 349.502904 
L 138.807618 348.463404 
L 142.015667 347.112054 
L 145.223715 345.864654 
L 146.82774 344.409354 
L 148.431764 344.201454 
L 151.639813 342.746154 
L 153.243838 342.226404 
L 154.847862 341.082954 
L 161.26396 337.756554 
L 162.867984 336.717054 
L 164.472009 334.638054 
L 166.076033 332.974854 
L 167.680057 331.519554 
L 169.284082 330.272154 
L 170.888106 328.816854 
L 175.70018 325.490454 
L 177.304204 324.866754 
L 182.116277 324.347004 
L 185.324326 322.268004 
L 186.928351 320.812704 
L 188.532375 319.981104 
L 191.740424 317.278404 
L 193.344448 315.511254 
L 194.948473 313.536204 
L 196.552497 311.041404 
L 198.156522 309.378204 
L 199.760546 306.987354 
L 201.364571 305.428104 
L 202.968595 303.245154 
L 207.780668 299.191104 
L 209.384693 298.463454 
L 210.988717 297.216054 
L 212.592742 295.760754 
L 214.196766 295.241004 
L 215.800791 293.889654 
L 219.008839 293.162004 
L 223.820913 291.290904 
L 225.424937 290.875104 
L 227.028962 289.627704 
L 228.632986 287.652654 
L 230.23701 286.197354 
L 231.841035 283.910454 
L 235.049084 281.103804 
L 238.257133 279.544554 
L 239.861157 279.232704 
L 241.465181 279.232704 
L 243.069206 278.505054 
L 244.67323 278.816904 
L 246.277255 278.505054 
L 247.881279 278.401104 
L 249.485304 278.505054 
L 251.089328 278.193204 
L 252.693352 279.752454 
L 254.297377 280.376154 
L 255.901401 281.727504 
L 259.10945 282.039354 
L 260.713475 281.519604 
L 265.525548 279.128754 
L 267.129572 277.985304 
L 271.941646 275.490504 
L 275.149695 274.762854 
L 278.357743 273.827304 
L 279.961768 273.931254 
L 281.565792 274.451004 
L 283.169817 274.762854 
L 286.377866 273.931254 
L 287.98189 273.203604 
L 289.585914 271.540404 
L 291.189939 270.085104 
L 292.793963 269.253504 
L 296.002012 266.135004 
L 297.606037 264.263904 
L 299.210061 263.016504 
L 300.814086 262.184904 
L 302.41811 261.665154 
L 304.022134 260.417754 
L 305.626159 259.794054 
L 308.834208 258.130854 
L 313.646281 257.819004 
L 315.250305 258.130854 
L 316.85433 258.962454 
L 320.062379 258.650604 
L 324.874452 255.428154 
L 326.478476 253.764954 
L 329.686525 251.062254 
L 332.894574 247.943754 
L 334.498599 246.800304 
L 336.102623 245.968704 
L 337.706648 244.929204 
L 339.310672 244.721304 
L 340.914696 243.889704 
L 344.122745 243.369954 
L 345.72677 243.785754 
L 347.330794 243.577854 
L 348.934819 243.681804 
L 350.538843 242.434404 
L 352.142867 242.018604 
L 353.746892 239.731704 
L 355.350916 237.860604 
L 358.558965 234.534204 
L 360.16299 233.390754 
L 361.767014 231.935454 
L 364.975063 229.960404 
L 372.995185 225.386604 
L 374.599209 224.866854 
L 376.203234 224.762904 
L 377.807258 224.139204 
L 379.411283 223.827354 
L 381.015307 223.723404 
L 382.619332 222.995754 
L 384.223356 221.748354 
L 389.035429 216.862704 
L 390.639454 215.303454 
L 393.847503 213.120504 
L 395.451527 212.912604 
L 397.055552 211.873104 
L 398.659576 211.561254 
L 400.2636 210.729654 
L 403.471649 211.457304 
L 409.887747 210.937554 
L 411.491771 210.521754 
L 414.69982 208.858554 
L 416.303845 207.091404 
L 417.907869 206.571654 
L 419.511894 205.220304 
L 421.115918 204.180804 
L 422.719943 203.661054 
L 424.323967 203.349204 
L 425.927991 202.829454 
L 429.13604 202.829454 
L 430.740065 202.309704 
L 432.344089 203.141304 
L 433.948114 204.284754 
L 435.552138 203.661054 
L 437.156162 204.076854 
L 438.760187 204.076854 
L 441.968236 203.557104 
L 443.57226 202.829454 
L 445.176285 201.893904 
L 446.780309 201.686004 
L 448.384333 200.230704 
L 454.800431 197.424054 
L 458.00848 196.696404 
L 462.820553 198.047754 
L 464.424578 198.983304 
L 466.028602 199.399104 
L 467.632627 198.775404 
L 470.840676 199.087254 
L 472.4447 198.567504 
L 474.048724 197.216154 
L 475.652749 196.800354 
L 478.860798 195.449004 
L 480.464822 194.097654 
L 483.672871 193.993704 
L 485.276895 193.370004 
L 486.88092 193.577904 
L 488.484944 194.201604 
L 490.088969 194.201604 
L 491.692993 195.968754 
L 493.297018 196.904304 
L 494.901042 196.696404 
L 496.505066 196.696404 
L 498.109091 196.904304 
L 498.109091 196.904304 
" clip-path="url(#p7593effbcd)" style="fill: none; stroke: #0000ff; stroke-opacity: 0.5; stroke-width: 1.5; stroke-linecap: square"/>
   </g>
   <g id="line2d_32">
    <path d="M 92.290909 354.908304 
L 93.894934 357.714954 
L 95.498958 358.962354 
L 97.102982 358.962354 
L 98.707007 358.650504 
L 100.311031 358.546554 
L 101.915056 358.234704 
L 103.51908 358.234704 
L 105.123105 357.611004 
L 111.539202 356.675454 
L 113.143227 356.363604 
L 114.747251 355.843854 
L 116.351276 355.739904 
L 117.9553 354.908304 
L 122.767373 354.180654 
L 124.371398 353.556954 
L 127.579447 352.621404 
L 132.39152 351.062154 
L 133.995544 350.230554 
L 138.807618 348.567354 
L 143.619691 346.384404 
L 145.223715 345.968604 
L 146.82774 344.617254 
L 148.431764 344.513304 
L 151.639813 342.746154 
L 153.243838 342.226404 
L 156.451886 340.251354 
L 161.26396 337.756554 
L 162.867984 336.613104 
L 164.472009 334.534104 
L 166.076033 332.766954 
L 167.680057 331.311654 
L 169.284082 330.168204 
L 170.888106 328.712904 
L 172.492131 327.673404 
L 174.096155 326.426004 
L 175.70018 325.698354 
L 177.304204 325.178604 
L 178.908229 324.970704 
L 180.512253 324.970704 
L 182.116277 324.658854 
L 183.720302 323.099604 
L 185.324326 322.164054 
L 186.928351 320.916654 
L 188.532375 319.981104 
L 190.1364 318.837654 
L 191.740424 317.070504 
L 193.344448 316.031004 
L 194.948473 313.848054 
L 196.552497 311.249304 
L 198.156522 309.378204 
L 199.760546 307.195254 
L 201.364571 305.532054 
L 202.968595 303.349104 
L 204.572619 302.205654 
L 206.176644 300.646404 
L 207.780668 299.502954 
L 209.384693 298.775304 
L 212.592742 296.592354 
L 214.196766 296.488404 
L 215.800791 295.552854 
L 217.404815 295.241004 
L 220.612864 294.097554 
L 222.216888 292.954104 
L 223.820913 292.122504 
L 225.424937 290.875104 
L 227.028962 290.043504 
L 228.632986 287.444754 
L 230.23701 286.093404 
L 231.841035 284.118354 
L 235.049084 281.311704 
L 236.653108 280.584054 
L 238.257133 279.648504 
L 239.861157 279.856404 
L 243.069206 278.920854 
L 244.67323 279.128754 
L 246.277255 278.920854 
L 247.881279 279.024804 
L 249.485304 279.336654 
L 251.089328 280.376154 
L 252.693352 281.727504 
L 255.901401 283.286754 
L 257.505426 283.494654 
L 259.10945 283.182804 
L 262.317499 281.623554 
L 267.129572 278.193204 
L 270.337621 276.633954 
L 271.941646 275.490504 
L 276.753719 274.866804 
L 278.357743 274.347054 
L 283.169817 276.218154 
L 286.377866 274.970754 
L 287.98189 274.035204 
L 289.585914 272.579904 
L 291.189939 271.540404 
L 292.793963 270.189054 
L 296.002012 267.070554 
L 297.606037 265.095504 
L 299.210061 263.952054 
L 302.41811 262.600704 
L 304.022134 261.353304 
L 305.626159 260.729604 
L 307.230183 259.898004 
L 308.834208 259.274304 
L 310.438232 259.378254 
L 312.042257 259.898004 
L 313.646281 260.209854 
L 315.250305 260.729604 
L 316.85433 261.041454 
L 318.458354 260.209854 
L 320.062379 259.586154 
L 321.666403 258.650604 
L 323.270428 257.403204 
L 324.874452 256.675554 
L 328.082501 253.453104 
L 329.686525 252.101754 
L 331.29055 250.230654 
L 334.498599 247.631904 
L 336.102623 246.904254 
L 337.706648 246.384504 
L 339.310672 246.280554 
L 340.914696 245.656854 
L 345.72677 246.592404 
L 347.330794 246.176604 
L 350.538843 244.409454 
L 352.142867 243.162054 
L 356.954941 236.717154 
L 358.558965 235.781604 
L 360.16299 234.014454 
L 361.767014 233.078904 
L 363.371038 231.727554 
L 366.579087 229.856454 
L 368.183112 229.232754 
L 369.787136 227.985354 
L 371.391161 227.569554 
L 372.995185 226.841904 
L 374.599209 226.426104 
L 377.807258 226.945854 
L 379.411283 227.153754 
L 381.015307 227.049804 
L 382.619332 226.010304 
L 384.223356 225.178704 
L 385.827381 222.891804 
L 387.431405 220.916754 
L 389.035429 219.357504 
L 390.639454 217.278504 
L 392.243478 216.758754 
L 393.847503 215.719254 
L 395.451527 214.887654 
L 397.055552 213.640254 
L 398.659576 214.056054 
L 400.2636 214.056054 
L 401.867625 214.575804 
L 403.471649 214.783704 
L 406.679698 213.952104 
L 408.283723 213.328404 
L 409.887747 213.328404 
L 411.491771 212.392854 
L 414.69982 211.041504 
L 419.511894 206.675604 
L 421.115918 205.636104 
L 422.719943 205.116354 
L 424.323967 204.804504 
L 425.927991 204.284754 
L 427.532016 204.492654 
L 429.13604 204.284754 
L 430.740065 204.908454 
L 432.344089 206.363754 
L 433.948114 206.467704 
L 435.552138 206.051904 
L 437.156162 206.155854 
L 440.364211 205.324254 
L 441.968236 204.596604 
L 443.57226 204.284754 
L 445.176285 203.245254 
L 446.780309 202.829454 
L 448.384333 201.374154 
L 449.988358 200.230704 
L 451.592382 199.918854 
L 453.196407 198.671454 
L 454.800431 198.775404 
L 456.404456 198.463554 
L 458.00848 197.943804 
L 461.216529 199.295154 
L 462.820553 200.230704 
L 466.028602 200.750454 
L 469.236651 199.503054 
L 470.840676 199.918854 
L 472.4447 199.710954 
L 474.048724 198.359604 
L 475.652749 198.151704 
L 477.256773 197.631954 
L 478.860798 196.176654 
L 480.464822 195.449004 
L 482.068847 195.449004 
L 483.672871 195.241104 
L 485.276895 194.513454 
L 486.88092 194.617404 
L 488.484944 195.760854 
L 490.088969 196.592454 
L 493.297018 197.528004 
L 494.901042 197.008254 
L 496.505066 197.112204 
L 498.109091 197.528004 
L 498.109091 197.528004 
" clip-path="url(#p7593effbcd)" style="fill: none; stroke: #0000ff; stroke-opacity: 0.5; stroke-width: 1.5; stroke-linecap: square"/>
   </g>
   <g id="line2d_33">
    <path d="M 92.290909 352.205604 
L 93.894934 357.195204 
L 95.498958 358.650504 
L 98.707007 358.546554 
L 103.51908 357.922854 
L 105.123105 357.299154 
L 111.539202 356.363604 
L 116.351276 355.428054 
L 119.559324 354.492504 
L 121.163349 354.076704 
L 122.767373 353.868804 
L 132.39152 350.750304 
L 133.995544 349.918704 
L 137.203593 348.775254 
L 138.807618 348.255504 
L 140.411642 347.008104 
L 142.015667 346.800204 
L 143.619691 346.072554 
L 145.223715 345.552804 
L 146.82774 344.097504 
L 148.431764 344.097504 
L 150.035789 343.161954 
L 153.243838 341.706654 
L 154.847862 340.667154 
L 156.451886 339.939504 
L 158.055911 339.003954 
L 159.659935 338.276304 
L 162.867984 336.301254 
L 164.472009 334.326204 
L 167.680057 331.103754 
L 169.284082 329.960304 
L 170.888106 328.608954 
L 172.492131 326.945754 
L 177.304204 324.762804 
L 178.908229 324.347004 
L 180.512253 324.450954 
L 182.116277 324.035154 
L 183.720302 322.579854 
L 185.324326 321.852204 
L 186.928351 320.292954 
L 188.532375 319.357404 
L 190.1364 318.110004 
L 193.344448 315.095454 
L 194.948473 313.120404 
L 196.552497 310.417704 
L 198.156522 308.858454 
L 199.760546 306.571554 
L 201.364571 304.908354 
L 202.968595 302.829354 
L 204.572619 301.581954 
L 206.176644 299.918754 
L 212.592742 295.760754 
L 214.196766 295.344954 
L 215.800791 294.721254 
L 217.404815 294.513354 
L 220.612864 293.162004 
L 222.216888 292.642254 
L 223.820913 291.602754 
L 225.424937 290.251404 
L 227.028962 289.419804 
L 228.632986 287.028954 
L 233.445059 281.519604 
L 236.653108 279.544554 
L 238.257133 278.816904 
L 243.069206 277.777404 
L 244.67323 277.881354 
L 246.277255 277.777404 
L 249.485304 278.193204 
L 251.089328 278.920854 
L 252.693352 280.064304 
L 254.297377 280.791954 
L 255.901401 281.935404 
L 257.505426 282.559104 
L 259.10945 282.559104 
L 260.713475 281.519604 
L 263.921524 279.856404 
L 267.129572 277.465554 
L 268.733597 276.322104 
L 270.337621 275.906304 
L 271.941646 274.970754 
L 273.54567 274.762854 
L 275.149695 274.035204 
L 276.753719 273.931254 
L 278.357743 274.139154 
L 279.961768 274.658904 
L 283.169817 275.386554 
L 284.773841 274.762854 
L 286.377866 274.347054 
L 287.98189 273.515454 
L 289.585914 272.060154 
L 291.189939 270.396954 
L 292.793963 269.357454 
L 294.397988 267.382404 
L 296.002012 265.719204 
L 297.606037 264.471804 
L 299.210061 262.704654 
L 300.814086 261.769104 
L 302.41811 261.041454 
L 304.022134 260.001954 
L 305.626159 259.794054 
L 308.834208 258.234804 
L 312.042257 258.754554 
L 313.646281 259.482204 
L 316.85433 260.209854 
L 320.062379 258.858504 
L 321.666403 257.922954 
L 323.270428 256.675554 
L 324.874452 255.740004 
L 326.478476 253.972854 
L 328.082501 252.413604 
L 329.686525 251.478054 
L 331.29055 249.295104 
L 334.498599 247.008204 
L 337.706648 245.656854 
L 342.518721 245.137104 
L 344.122745 245.968704 
L 345.72677 245.968704 
L 348.934819 244.409454 
L 352.142867 242.642304 
L 353.746892 240.251454 
L 355.350916 238.172454 
L 356.954941 236.717154 
L 358.558965 234.846054 
L 360.16299 233.286804 
L 361.767014 232.455204 
L 364.975063 230.168304 
L 366.579087 229.336704 
L 368.183112 228.089304 
L 371.391161 226.945854 
L 372.995185 226.010304 
L 376.203234 226.322154 
L 377.807258 226.737954 
L 379.411283 226.841904 
L 381.015307 226.530054 
L 384.223356 224.347104 
L 387.431405 220.189104 
L 389.035429 218.941704 
L 390.639454 216.550854 
L 395.451527 213.744204 
L 397.055552 212.496804 
L 398.659576 212.496804 
L 400.2636 212.288904 
L 401.867625 212.496804 
L 403.471649 213.432354 
L 405.075674 213.328404 
L 408.283723 212.184954 
L 409.887747 211.977054 
L 411.491771 210.937554 
L 413.095796 210.417804 
L 414.69982 210.105954 
L 419.511894 205.532154 
L 421.115918 204.284754 
L 422.719943 204.180804 
L 425.927991 203.245254 
L 427.532016 203.141304 
L 429.13604 203.349204 
L 430.740065 204.076854 
L 432.344089 205.012404 
L 433.948114 205.532154 
L 437.156162 204.596604 
L 438.760187 204.492654 
L 440.364211 204.180804 
L 441.968236 203.453154 
L 443.57226 202.309704 
L 445.176285 201.997854 
L 446.780309 201.374154 
L 449.988358 198.983304 
L 453.196407 197.631954 
L 454.800431 197.320104 
L 456.404456 196.800354 
L 458.00848 196.904304 
L 459.612504 196.800354 
L 461.216529 197.528004 
L 462.820553 198.775404 
L 466.028602 198.879354 
L 469.236651 198.151704 
L 470.840676 198.359604 
L 474.048724 196.800354 
L 477.256773 195.656904 
L 482.068847 193.266054 
L 483.672871 193.370004 
L 485.276895 192.538404 
L 486.88092 192.746304 
L 488.484944 193.266054 
L 490.088969 194.097654 
L 491.692993 195.137154 
L 493.297018 195.552954 
L 496.505066 195.137154 
L 498.109091 195.241104 
L 498.109091 195.241104 
" clip-path="url(#p7593effbcd)" style="fill: none; stroke: #0000ff; stroke-opacity: 0.5; stroke-width: 1.5; stroke-linecap: square"/>
   </g>
   <g id="line2d_34">
    <path d="M 92.290909 356.363604 
L 95.498958 358.650504 
L 97.102982 358.754454 
L 100.311031 358.234704 
L 103.51908 357.818904 
L 105.123105 357.299154 
L 111.539202 356.363604 
L 113.143227 356.051754 
L 114.747251 355.428054 
L 116.351276 355.324104 
L 125.975422 352.725354 
L 129.183471 351.581904 
L 133.995544 349.918704 
L 135.599569 348.879204 
L 137.203593 348.671304 
L 138.807618 348.047604 
L 140.411642 346.592304 
L 142.015667 346.696254 
L 143.619691 345.968604 
L 145.223715 345.448854 
L 146.82774 343.889604 
L 148.431764 343.785654 
L 150.035789 342.954054 
L 153.243838 341.706654 
L 154.847862 340.459254 
L 161.26396 337.028904 
L 162.867984 335.989404 
L 164.472009 334.118304 
L 167.680057 331.103754 
L 170.888106 328.401054 
L 175.70018 325.074654 
L 177.304204 324.139104 
L 178.908229 323.619354 
L 182.116277 323.827254 
L 183.720302 322.579854 
L 185.324326 321.644304 
L 186.928351 320.292954 
L 190.1364 318.006054 
L 191.740424 316.550754 
L 194.948473 312.704604 
L 196.552497 310.313754 
L 198.156522 308.650554 
L 199.760546 306.467604 
L 201.364571 304.804404 
L 202.968595 302.829354 
L 204.572619 301.374054 
L 210.988717 296.384454 
L 212.592742 295.344954 
L 214.196766 294.721254 
L 215.800791 293.681754 
L 217.404815 293.162004 
L 219.008839 292.330404 
L 220.612864 292.018554 
L 222.216888 291.186954 
L 223.820913 290.771154 
L 225.424937 290.147454 
L 227.028962 289.211904 
L 228.632986 286.925004 
L 230.23701 285.053904 
L 231.841035 283.806504 
L 233.445059 281.831454 
L 235.049084 280.376154 
L 236.653108 279.856404 
L 238.257133 279.128754 
L 239.861157 278.712954 
L 243.069206 278.297154 
L 244.67323 278.505054 
L 246.277255 278.089254 
L 249.485304 278.297154 
L 252.693352 279.648504 
L 254.297377 280.168254 
L 255.901401 281.519604 
L 259.10945 282.247254 
L 260.713475 281.623554 
L 262.317499 281.207754 
L 263.921524 280.168254 
L 265.525548 279.336654 
L 267.129572 277.881354 
L 268.733597 276.945804 
L 270.337621 276.426054 
L 271.941646 275.386554 
L 273.54567 275.178654 
L 275.149695 274.762854 
L 276.753719 274.554954 
L 279.961768 274.658904 
L 283.169817 275.386554 
L 284.773841 275.074704 
L 286.377866 274.451004 
L 287.98189 273.619404 
L 289.585914 272.268054 
L 291.189939 270.604854 
L 292.793963 269.773254 
L 294.397988 267.902154 
L 297.606037 264.471804 
L 299.210061 263.744154 
L 300.814086 262.392804 
L 302.41811 261.769104 
L 304.022134 260.729604 
L 305.626159 260.105904 
L 307.230183 259.170354 
L 308.834208 258.546654 
L 312.042257 258.546654 
L 315.250305 258.858504 
L 316.85433 259.898004 
L 318.458354 259.690104 
L 320.062379 259.170354 
L 321.666403 258.130854 
L 323.270428 257.299254 
L 324.874452 256.779504 
L 326.478476 254.180754 
L 328.082501 252.621504 
L 329.686525 251.478054 
L 331.29055 249.710904 
L 332.894574 248.255604 
L 336.102623 246.488454 
L 337.706648 246.176604 
L 339.310672 245.137104 
L 340.914696 245.137104 
L 342.518721 244.929204 
L 344.122745 245.552904 
L 345.72677 245.137104 
L 347.330794 245.760804 
L 348.934819 245.241054 
L 350.538843 243.993654 
L 352.142867 242.954154 
L 353.746892 240.563304 
L 358.558965 235.469754 
L 360.16299 234.326304 
L 361.767014 232.767054 
L 363.371038 231.519654 
L 364.975063 231.103854 
L 366.579087 229.960404 
L 369.787136 228.297204 
L 374.599209 226.530054 
L 376.203234 226.530054 
L 377.807258 226.114254 
L 379.411283 226.426104 
L 381.015307 226.322154 
L 382.619332 225.698454 
L 385.827381 222.787854 
L 387.431405 220.708854 
L 389.035429 219.253554 
L 390.639454 217.070604 
L 392.243478 216.550854 
L 393.847503 215.303454 
L 395.451527 214.471854 
L 397.055552 213.328404 
L 398.659576 213.120504 
L 400.2636 212.288904 
L 406.679698 213.432354 
L 408.283723 212.704704 
L 409.887747 212.704704 
L 413.095796 211.457304 
L 414.69982 210.625704 
L 417.907869 208.130904 
L 419.511894 206.467704 
L 421.115918 205.947954 
L 422.719943 205.116354 
L 424.323967 204.596604 
L 425.927991 204.388704 
L 427.532016 203.868954 
L 430.740065 204.596604 
L 432.344089 205.532154 
L 433.948114 205.532154 
L 435.552138 205.324254 
L 438.760187 205.220304 
L 441.968236 203.868954 
L 443.57226 204.180804 
L 445.176285 202.725504 
L 446.780309 202.205754 
L 448.384333 200.854404 
L 449.988358 200.334654 
L 451.592382 198.879354 
L 453.196407 198.151704 
L 454.800431 198.255654 
L 458.00848 197.216154 
L 459.612504 197.735904 
L 462.820553 199.503054 
L 466.028602 199.191204 
L 467.632627 199.295154 
L 469.236651 198.775404 
L 470.840676 199.191204 
L 474.048724 197.216154 
L 475.652749 197.008254 
L 477.256773 195.968754 
L 478.860798 195.449004 
L 480.464822 195.137154 
L 482.068847 194.409504 
L 483.672871 194.305554 
L 485.276895 193.473954 
L 486.88092 193.681854 
L 490.088969 194.721354 
L 491.692993 195.656904 
L 493.297018 195.760854 
L 494.901042 196.072704 
L 496.505066 195.968754 
L 498.109091 195.656904 
L 498.109091 195.656904 
" clip-path="url(#p7593effbcd)" style="fill: none; stroke: #0000ff; stroke-opacity: 0.5; stroke-width: 1.5; stroke-linecap: square"/>
   </g>
   <g id="line2d_35">
    <path d="M 92.290909 357.611004 
L 93.894934 356.987304 
L 95.498958 358.754454 
L 97.102982 359.482104 
L 98.707007 359.066304 
L 101.915056 358.754454 
L 108.331153 357.818904 
L 117.9553 355.843854 
L 119.559324 355.324104 
L 121.163349 355.012254 
L 122.767373 354.908304 
L 124.371398 354.180654 
L 129.183471 352.829304 
L 133.995544 350.958204 
L 135.599569 349.918704 
L 137.203593 350.022654 
L 140.411642 347.839704 
L 142.015667 347.943654 
L 145.223715 347.008104 
L 146.82774 345.240954 
L 148.431764 345.344904 
L 150.035789 344.721204 
L 151.639813 343.785654 
L 153.243838 343.369854 
L 156.451886 341.394804 
L 158.055911 340.563204 
L 159.659935 339.939504 
L 161.26396 339.107904 
L 162.867984 338.068404 
L 164.472009 335.781504 
L 166.076033 334.222254 
L 167.680057 332.455104 
L 169.284082 331.103754 
L 174.096155 327.569454 
L 175.70018 326.841804 
L 177.304204 325.802304 
L 178.908229 325.178604 
L 180.512253 325.594404 
L 182.116277 325.802304 
L 183.720302 325.282554 
L 185.324326 324.347004 
L 191.740424 319.669254 
L 193.344448 317.486304 
L 194.948473 315.511254 
L 196.552497 313.224354 
L 199.760546 309.274254 
L 201.364571 307.715004 
L 202.968595 305.739954 
L 204.572619 304.284654 
L 207.780668 301.893804 
L 212.592742 298.359504 
L 214.196766 297.943704 
L 215.800791 296.800254 
L 217.404815 296.176554 
L 219.008839 295.344954 
L 220.612864 295.552854 
L 222.216888 295.137054 
L 223.820913 295.344954 
L 225.424937 294.305454 
L 227.028962 292.850154 
L 230.23701 288.588204 
L 233.445059 284.949954 
L 235.049084 283.598604 
L 238.257133 281.311704 
L 239.861157 281.103804 
L 241.465181 280.480104 
L 249.485304 280.376154 
L 251.089328 281.207754 
L 252.693352 281.831454 
L 254.297377 282.767004 
L 255.901401 284.846004 
L 259.10945 285.573654 
L 260.713475 284.846004 
L 262.317499 284.534154 
L 265.525548 282.767004 
L 267.129572 281.415654 
L 270.337621 279.856404 
L 273.54567 278.816904 
L 276.753719 278.609004 
L 278.357743 278.920854 
L 279.961768 279.856404 
L 281.565792 280.064304 
L 283.169817 280.584054 
L 284.773841 279.960354 
L 286.377866 279.024804 
L 287.98189 278.609004 
L 289.585914 277.465554 
L 291.189939 275.698404 
L 292.793963 274.243104 
L 296.002012 270.604854 
L 297.606037 269.253504 
L 299.210061 268.110054 
L 300.814086 266.758704 
L 302.41811 266.238954 
L 304.022134 265.095504 
L 305.626159 264.471804 
L 307.230183 263.640204 
L 308.834208 263.016504 
L 310.438232 262.808604 
L 312.042257 262.912554 
L 315.250305 263.640204 
L 316.85433 265.199454 
L 318.458354 264.887604 
L 320.062379 263.952054 
L 321.666403 263.432304 
L 323.270428 262.600704 
L 324.874452 261.353304 
L 328.082501 257.507154 
L 331.29055 254.492604 
L 332.894574 252.829404 
L 334.498599 252.309654 
L 337.706648 250.750404 
L 339.310672 250.542504 
L 340.914696 249.918804 
L 342.518721 249.710904 
L 344.122745 250.542504 
L 345.72677 250.854354 
L 347.330794 251.582004 
L 348.934819 250.854354 
L 350.538843 249.710904 
L 352.142867 248.255604 
L 353.746892 246.176604 
L 355.350916 244.513404 
L 356.954941 243.266004 
L 358.558965 241.083054 
L 361.767014 238.484304 
L 363.371038 236.613204 
L 364.975063 236.301354 
L 366.579087 235.573704 
L 368.183112 234.326304 
L 371.391161 233.078904 
L 372.995185 232.143354 
L 377.807258 230.792004 
L 379.411283 231.207804 
L 381.015307 231.311754 
L 382.619332 231.103854 
L 384.223356 230.584104 
L 387.431405 227.153754 
L 389.035429 226.010304 
L 390.639454 224.035254 
L 393.847503 221.748354 
L 395.451527 220.293054 
L 397.055552 219.253554 
L 398.659576 219.045654 
L 400.2636 218.006154 
L 401.867625 218.110104 
L 403.471649 218.629854 
L 406.679698 218.733804 
L 408.283723 218.110104 
L 409.887747 218.006154 
L 413.095796 216.654804 
L 416.303845 214.160004 
L 417.907869 212.392854 
L 419.511894 211.249404 
L 421.115918 210.417804 
L 422.719943 210.002004 
L 425.927991 208.650654 
L 427.532016 208.962504 
L 429.13604 208.650654 
L 430.740065 209.378304 
L 432.344089 210.625704 
L 433.948114 211.457304 
L 435.552138 210.417804 
L 437.156162 210.313854 
L 438.760187 210.417804 
L 441.968236 209.170404 
L 443.57226 208.962504 
L 445.176285 207.715104 
L 446.780309 207.195354 
L 448.384333 205.636104 
L 449.988358 204.700554 
L 451.592382 204.284754 
L 453.196407 202.933404 
L 456.404456 203.037354 
L 458.00848 202.205754 
L 459.612504 203.245254 
L 461.216529 204.596604 
L 462.820553 205.636104 
L 464.424578 204.804504 
L 466.028602 204.700554 
L 467.632627 204.804504 
L 469.236651 203.868954 
L 470.840676 204.076854 
L 474.048724 202.621554 
L 475.652749 201.374154 
L 480.464822 199.710954 
L 482.068847 199.087254 
L 483.672871 198.671454 
L 485.276895 197.424054 
L 486.88092 197.631954 
L 488.484944 198.567504 
L 491.692993 199.918854 
L 493.297018 200.542554 
L 496.505066 199.918854 
L 498.109091 200.126754 
L 498.109091 200.126754 
" clip-path="url(#p7593effbcd)" style="fill: none; stroke: #0000ff; stroke-opacity: 0.5; stroke-width: 1.5; stroke-linecap: square"/>
   </g>
   <g id="line2d_36">
    <path d="M 92.290909 359.378154 
L 93.894934 356.155704 
L 95.498958 358.130754 
L 97.102982 358.650504 
L 101.915056 357.818904 
L 103.51908 357.714954 
L 106.727129 356.987304 
L 108.331153 356.883354 
L 113.143227 355.843854 
L 114.747251 355.428054 
L 116.351276 355.324104 
L 121.163349 353.764854 
L 122.767373 353.764854 
L 124.371398 353.141154 
L 127.579447 352.205604 
L 129.183471 351.062154 
L 130.787496 350.438454 
L 132.39152 350.126604 
L 133.995544 349.087104 
L 137.203593 348.151554 
L 140.411642 346.696254 
L 142.015667 346.176504 
L 143.619691 345.344904 
L 145.223715 344.929104 
L 146.82774 343.058004 
L 148.431764 343.369854 
L 150.035789 342.538254 
L 153.243838 341.186904 
L 158.055911 338.172354 
L 161.26396 336.613104 
L 162.867984 335.781504 
L 164.472009 334.326204 
L 167.680057 332.143254 
L 169.284082 331.519554 
L 170.888106 330.687954 
L 172.492131 330.064254 
L 174.096155 328.920804 
L 175.70018 328.297104 
L 177.304204 326.737854 
L 180.512253 324.970704 
L 182.116277 323.411454 
L 183.720302 322.371954 
L 185.324326 321.020604 
L 188.532375 318.941604 
L 190.1364 317.694204 
L 191.740424 316.238904 
L 194.948473 313.848054 
L 196.552497 311.976954 
L 198.156522 310.729554 
L 199.760546 308.650554 
L 201.364571 307.091304 
L 202.968595 305.843904 
L 206.176644 304.076754 
L 207.780668 303.557004 
L 210.988717 301.374054 
L 212.592742 299.606904 
L 214.196766 298.463454 
L 215.800791 297.112104 
L 217.404815 295.552854 
L 219.008839 294.617304 
L 220.612864 293.162004 
L 223.820913 291.706704 
L 225.424937 290.355354 
L 227.028962 289.419804 
L 228.632986 287.860554 
L 230.23701 286.821054 
L 231.841035 285.261804 
L 233.445059 284.014404 
L 235.049084 283.182804 
L 238.257133 281.935404 
L 239.861157 282.767004 
L 241.465181 283.182804 
L 243.069206 283.286754 
L 244.67323 283.806504 
L 246.277255 284.118354 
L 247.881279 283.702554 
L 252.693352 283.910454 
L 255.901401 283.182804 
L 259.10945 283.078854 
L 262.317499 282.455154 
L 263.921524 282.455154 
L 265.525548 282.039354 
L 267.129572 280.480104 
L 268.733597 280.895904 
L 270.337621 280.480104 
L 271.941646 280.376154 
L 276.753719 279.128754 
L 278.357743 278.505054 
L 279.961768 277.673454 
L 281.565792 276.426054 
L 283.169817 276.426054 
L 284.773841 276.010254 
L 287.98189 274.035204 
L 289.585914 273.515454 
L 291.189939 272.268054 
L 292.793963 271.644354 
L 294.397988 270.085104 
L 296.002012 269.357454 
L 299.210061 267.382404 
L 300.814086 266.966604 
L 302.41811 267.590304 
L 304.022134 266.342904 
L 305.626159 266.135004 
L 307.230183 265.199454 
L 308.834208 264.575754 
L 312.042257 263.744154 
L 315.250305 262.080954 
L 316.85433 261.561204 
L 318.458354 260.417754 
L 320.062379 260.209854 
L 321.666403 258.962454 
L 324.874452 257.715054 
L 326.478476 256.675554 
L 328.082501 255.220254 
L 329.686525 254.180754 
L 331.29055 253.453104 
L 334.498599 252.517554 
L 336.102623 252.309654 
L 337.706648 251.478054 
L 339.310672 251.062254 
L 340.914696 250.022754 
L 342.518721 249.191154 
L 344.122745 248.775354 
L 345.72677 248.047704 
L 347.330794 247.112154 
L 348.934819 246.488454 
L 350.538843 245.345004 
L 352.142867 244.409454 
L 355.350916 241.810704 
L 356.954941 241.187004 
L 358.558965 239.627754 
L 360.16299 238.796154 
L 361.767014 238.276404 
L 363.371038 237.236904 
L 364.975063 237.340854 
L 366.579087 236.821104 
L 368.183112 235.677654 
L 371.391161 234.430254 
L 372.995185 233.494704 
L 376.203234 231.935454 
L 377.807258 230.792004 
L 379.411283 230.168304 
L 381.015307 229.336704 
L 384.223356 227.361654 
L 385.827381 225.490554 
L 389.035429 224.139204 
L 390.639454 221.852304 
L 392.243478 221.540454 
L 393.847503 220.604904 
L 395.451527 220.189104 
L 397.055552 219.045654 
L 398.659576 219.045654 
L 400.2636 217.382454 
L 401.867625 217.278504 
L 403.471649 215.615304 
L 405.075674 215.719254 
L 406.679698 215.199504 
L 408.283723 214.471854 
L 409.887747 214.367904 
L 413.095796 212.288904 
L 414.69982 212.704704 
L 416.303845 211.769154 
L 419.511894 210.313854 
L 422.719943 210.002004 
L 424.323967 209.794104 
L 425.927991 209.378304 
L 429.13604 209.378304 
L 430.740065 208.546704 
L 432.344089 208.442754 
L 433.948114 207.819054 
L 435.552138 206.987454 
L 437.156162 206.883504 
L 438.760187 207.091404 
L 441.968236 205.532154 
L 443.57226 205.740054 
L 445.176285 205.324254 
L 446.780309 205.116354 
L 451.592382 203.868954 
L 453.196407 202.933404 
L 454.800431 203.868954 
L 456.404456 203.453154 
L 458.00848 202.829454 
L 459.612504 202.725504 
L 461.216529 201.997854 
L 462.820553 201.997854 
L 464.424578 201.478104 
L 466.028602 201.270204 
L 467.632627 200.854404 
L 469.236651 200.646504 
L 470.840676 201.166254 
L 474.048724 199.814904 
L 475.652749 199.918854 
L 478.860798 198.775404 
L 480.464822 198.671454 
L 482.068847 198.775404 
L 483.672871 198.567504 
L 485.276895 197.943804 
L 488.484944 197.631954 
L 490.088969 197.943804 
L 491.692993 197.424054 
L 493.297018 197.424054 
L 494.901042 197.216154 
L 496.505066 196.800354 
L 498.109091 197.112204 
L 498.109091 197.112204 
" clip-path="url(#p7593effbcd)" style="fill: none; stroke: #0000ff; stroke-opacity: 0.5; stroke-width: 1.5; stroke-linecap: square"/>
   </g>
   <g id="LineCollection_1">
    <path d="M 92.290909 358.397828 
L 92.290909 349.729593 
" clip-path="url(#p7593effbcd)" style="fill: none; stroke: #ff0000; stroke-width: 1.5"/>
    <path d="M 156.451886 340.934566 
L 156.451886 339.490179 
" clip-path="url(#p7593effbcd)" style="fill: none; stroke: #ff0000; stroke-width: 1.5"/>
    <path d="M 220.612864 294.331786 
L 220.612864 292.01821 
" clip-path="url(#p7593effbcd)" style="fill: none; stroke: #ff0000; stroke-width: 1.5"/>
    <path d="M 284.773841 277.502451 
L 284.773841 272.41307 
" clip-path="url(#p7593effbcd)" style="fill: none; stroke: #ff0000; stroke-width: 1.5"/>
    <path d="M 348.934819 248.092096 
L 348.934819 240.544899 
" clip-path="url(#p7593effbcd)" style="fill: none; stroke: #ff0000; stroke-width: 1.5"/>
    <path d="M 413.095796 214.410821 
L 413.095796 205.411274 
" clip-path="url(#p7593effbcd)" style="fill: none; stroke: #ff0000; stroke-width: 1.5"/>
    <path d="M 477.256773 199.577727 
L 477.256773 192.307806 
" clip-path="url(#p7593effbcd)" style="fill: none; stroke: #ff0000; stroke-width: 1.5"/>
   </g>
   <g id="line2d_37">
    <defs>
     <path id="m78182bf3eb" d="M 5 0 
L -5 -0 
" style="stroke: #ff0000"/>
    </defs>
    <g clip-path="url(#p7593effbcd)">
     <use xlink:href="#m78182bf3eb" x="92.290909" y="358.397828" style="fill: #ff0000; stroke: #ff0000"/>
     <use xlink:href="#m78182bf3eb" x="156.451886" y="340.934566" style="fill: #ff0000; stroke: #ff0000"/>
     <use xlink:href="#m78182bf3eb" x="220.612864" y="294.331786" style="fill: #ff0000; stroke: #ff0000"/>
     <use xlink:href="#m78182bf3eb" x="284.773841" y="277.502451" style="fill: #ff0000; stroke: #ff0000"/>
     <use xlink:href="#m78182bf3eb" x="348.934819" y="248.092096" style="fill: #ff0000; stroke: #ff0000"/>
     <use xlink:href="#m78182bf3eb" x="413.095796" y="214.410821" style="fill: #ff0000; stroke: #ff0000"/>
     <use xlink:href="#m78182bf3eb" x="477.256773" y="199.577727" style="fill: #ff0000; stroke: #ff0000"/>
    </g>
   </g>
   <g id="line2d_38">
    <g clip-path="url(#p7593effbcd)">
     <use xlink:href="#m78182bf3eb" x="92.290909" y="349.729593" style="fill: #ff0000; stroke: #ff0000"/>
     <use xlink:href="#m78182bf3eb" x="156.451886" y="339.490179" style="fill: #ff0000; stroke: #ff0000"/>
     <use xlink:href="#m78182bf3eb" x="220.612864" y="292.01821" style="fill: #ff0000; stroke: #ff0000"/>
     <use xlink:href="#m78182bf3eb" x="284.773841" y="272.41307" style="fill: #ff0000; stroke: #ff0000"/>
     <use xlink:href="#m78182bf3eb" x="348.934819" y="240.544899" style="fill: #ff0000; stroke: #ff0000"/>
     <use xlink:href="#m78182bf3eb" x="413.095796" y="205.411274" style="fill: #ff0000; stroke: #ff0000"/>
     <use xlink:href="#m78182bf3eb" x="477.256773" y="192.307806" style="fill: #ff0000; stroke: #ff0000"/>
    </g>
   </g>
   <g id="line2d_39">
    <path d="M 92.290909 354.06371 
L 156.451886 340.212373 
L 220.612864 293.174998 
L 284.773841 274.95776 
L 348.934819 244.318498 
L 413.095796 209.911048 
L 477.256773 195.942766 
" clip-path="url(#p7593effbcd)" style="fill: none; stroke: #ff0000; stroke-width: 1.5; stroke-linecap: square"/>
   </g>
   <g id="patch_3">
    <path d="M 72 384.48 
L 72 51.84 
" style="fill: none; stroke: #000000; stroke-width: 0.8; stroke-linejoin: miter; stroke-linecap: square"/>
   </g>
   <g id="patch_4">
    <path d="M 518.4 384.48 
L 518.4 51.84 
" style="fill: none; stroke: #000000; stroke-width: 0.8; stroke-linejoin: miter; stroke-linecap: square"/>
   </g>
   <g id="patch_5">
    <path d="M 72 384.48 
L 518.4 384.48 
" style="fill: none; stroke: #000000; stroke-width: 0.8; stroke-linejoin: miter; stroke-linecap: square"/>
   </g>
   <g id="patch_6">
    <path d="M 72 51.84 
L 518.4 51.84 
" style="fill: none; stroke: #000000; stroke-width: 0.8; stroke-linejoin: miter; stroke-linecap: square"/>
   </g>
   <g id="text_17">
    <!-- M5: Methionin; Aspartat; Threonin; Phenylalanin -->
    <g transform="translate(174.564062 45.84) scale(0.1 -0.1)">
     <defs>
      <path id="DejaVuSans-4d" d="M 628 4666 
L 1569 4666 
L 2759 1491 
L 3956 4666 
L 4897 4666 
L 4897 0 
L 4281 0 
L 4281 4097 
L 3078 897 
L 2444 897 
L 1241 4097 
L 1241 0 
L 628 0 
L 628 4666 
z
" transform="scale(0.015625)"/>
      <path id="DejaVuSans-3a" d="M 750 794 
L 1409 794 
L 1409 0 
L 750 0 
L 750 794 
z
M 750 3309 
L 1409 3309 
L 1409 2516 
L 750 2516 
L 750 3309 
z
" transform="scale(0.015625)"/>
      <path id="DejaVuSans-3b" d="M 750 3309 
L 1409 3309 
L 1409 2516 
L 750 2516 
L 750 3309 
z
M 750 794 
L 1409 794 
L 1409 256 
L 897 -744 
L 494 -744 
L 750 256 
L 750 794 
z
" transform="scale(0.015625)"/>
      <path id="DejaVuSans-41" d="M 2188 4044 
L 1331 1722 
L 3047 1722 
L 2188 4044 
z
M 1831 4666 
L 2547 4666 
L 4325 0 
L 3669 0 
L 3244 1197 
L 1141 1197 
L 716 0 
L 50 0 
L 1831 4666 
z
" transform="scale(0.015625)"/>
      <path id="DejaVuSans-70" d="M 1159 525 
L 1159 -1331 
L 581 -1331 
L 581 3500 
L 1159 3500 
L 1159 2969 
Q 1341 3281 1617 3432 
Q 1894 3584 2278 3584 
Q 2916 3584 3314 3078 
Q 3713 2572 3713 1747 
Q 3713 922 3314 415 
Q 2916 -91 2278 -91 
Q 1894 -91 1617 61 
Q 1341 213 1159 525 
z
M 3116 1747 
Q 3116 2381 2855 2742 
Q 2594 3103 2138 3103 
Q 1681 3103 1420 2742 
Q 1159 2381 1159 1747 
Q 1159 1113 1420 752 
Q 1681 391 2138 391 
Q 2594 391 2855 752 
Q 3116 1113 3116 1747 
z
" transform="scale(0.015625)"/>
      <path id="DejaVuSans-54" d="M -19 4666 
L 3928 4666 
L 3928 4134 
L 2272 4134 
L 2272 0 
L 1638 0 
L 1638 4134 
L -19 4134 
L -19 4666 
z
" transform="scale(0.015625)"/>
      <path id="DejaVuSans-50" d="M 1259 4147 
L 1259 2394 
L 2053 2394 
Q 2494 2394 2734 2622 
Q 2975 2850 2975 3272 
Q 2975 3691 2734 3919 
Q 2494 4147 2053 4147 
L 1259 4147 
z
M 628 4666 
L 2053 4666 
Q 2838 4666 3239 4311 
Q 3641 3956 3641 3272 
Q 3641 2581 3239 2228 
Q 2838 1875 2053 1875 
L 1259 1875 
L 1259 0 
L 628 0 
L 628 4666 
z
" transform="scale(0.015625)"/>
      <path id="DejaVuSans-79" d="M 2059 -325 
Q 1816 -950 1584 -1140 
Q 1353 -1331 966 -1331 
L 506 -1331 
L 506 -850 
L 844 -850 
Q 1081 -850 1212 -737 
Q 1344 -625 1503 -206 
L 1606 56 
L 191 3500 
L 800 3500 
L 1894 763 
L 2988 3500 
L 3597 3500 
L 2059 -325 
z
" transform="scale(0.015625)"/>
     </defs>
     <use xlink:href="#DejaVuSans-4d"/>
     <use xlink:href="#DejaVuSans-35" x="86.279297"/>
     <use xlink:href="#DejaVuSans-3a" x="149.902344"/>
     <use xlink:href="#DejaVuSans-20" x="183.59375"/>
     <use xlink:href="#DejaVuSans-4d" x="215.380859"/>
     <use xlink:href="#DejaVuSans-65" x="301.660156"/>
     <use xlink:href="#DejaVuSans-74" x="363.183594"/>
     <use xlink:href="#DejaVuSans-68" x="402.392578"/>
     <use xlink:href="#DejaVuSans-69" x="465.771484"/>
     <use xlink:href="#DejaVuSans-6f" x="493.554688"/>
     <use xlink:href="#DejaVuSans-6e" x="554.736328"/>
     <use xlink:href="#DejaVuSans-69" x="618.115234"/>
     <use xlink:href="#DejaVuSans-6e" x="645.898438"/>
     <use xlink:href="#DejaVuSans-3b" x="709.277344"/>
     <use xlink:href="#DejaVuSans-20" x="742.96875"/>
     <use xlink:href="#DejaVuSans-41" x="774.755859"/>
     <use xlink:href="#DejaVuSans-73" x="843.164062"/>
     <use xlink:href="#DejaVuSans-70" x="895.263672"/>
     <use xlink:href="#DejaVuSans-61" x="958.740234"/>
     <use xlink:href="#DejaVuSans-72" x="1020.019531"/>
     <use xlink:href="#DejaVuSans-74" x="1061.132812"/>
     <use xlink:href="#DejaVuSans-61" x="1100.341797"/>
     <use xlink:href="#DejaVuSans-74" x="1161.621094"/>
     <use xlink:href="#DejaVuSans-3b" x="1200.830078"/>
     <use xlink:href="#DejaVuSans-20" x="1234.521484"/>
     <use xlink:href="#DejaVuSans-54" x="1266.308594"/>
     <use xlink:href="#DejaVuSans-68" x="1327.392578"/>
     <use xlink:href="#DejaVuSans-72" x="1390.771484"/>
     <use xlink:href="#DejaVuSans-65" x="1429.634766"/>
     <use xlink:href="#DejaVuSans-6f" x="1491.158203"/>
     <use xlink:href="#DejaVuSans-6e" x="1552.339844"/>
     <use xlink:href="#DejaVuSans-69" x="1615.71875"/>
     <use xlink:href="#DejaVuSans-6e" x="1643.501953"/>
     <use xlink:href="#DejaVuSans-3b" x="1706.880859"/>
     <use xlink:href="#DejaVuSans-20" x="1740.572266"/>
     <use xlink:href="#DejaVuSans-50" x="1772.359375"/>
     <use xlink:href="#DejaVuSans-68" x="1832.662109"/>
     <use xlink:href="#DejaVuSans-65" x="1896.041016"/>
     <use xlink:href="#DejaVuSans-6e" x="1957.564453"/>
     <use xlink:href="#DejaVuSans-79" x="2020.943359"/>
     <use xlink:href="#DejaVuSans-6c" x="2080.123047"/>
     <use xlink:href="#DejaVuSans-61" x="2107.90625"/>
     <use xlink:href="#DejaVuSans-6c" x="2169.185547"/>
     <use xlink:href="#DejaVuSans-61" x="2196.96875"/>
     <use xlink:href="#DejaVuSans-6e" x="2258.248047"/>
     <use xlink:href="#DejaVuSans-69" x="2321.626953"/>
     <use xlink:href="#DejaVuSans-6e" x="2349.410156"/>
    </g>
   </g>
  </g>
 </g>
 <defs>
  <clipPath id="p7593effbcd">
   <rect x="72" y="51.84" width="446.4" height="332.64"/>
  </clipPath>
 </defs>
</svg>
