<?xml version="1.0" encoding="utf-8" standalone="no"?>
<!DOCTYPE svg PUBLIC "-//W3C//DTD SVG 1.1//EN"
  "http://www.w3.org/Graphics/SVG/1.1/DTD/svg11.dtd">
<svg xmlns:xlink="http://www.w3.org/1999/xlink" width="576pt" height="432pt" viewBox="0 0 576 432" xmlns="http://www.w3.org/2000/svg" version="1.1">
 <metadata>
  <rdf:RDF xmlns:dc="http://purl.org/dc/elements/1.1/" xmlns:cc="http://creativecommons.org/ns#" xmlns:rdf="http://www.w3.org/1999/02/22-rdf-syntax-ns#">
   <cc:Work>
    <dc:type rdf:resource="http://purl.org/dc/dcmitype/StillImage"/>
    <dc:date>2024-11-12T14:09:13.889356</dc:date>
    <dc:format>image/svg+xml</dc:format>
    <dc:creator>
     <cc:Agent>
      <dc:title>Matplotlib v3.7.5, https://matplotlib.org/</dc:title>
     </cc:Agent>
    </dc:creator>
   </cc:Work>
  </rdf:RDF>
 </metadata>
 <defs>
  <style type="text/css">*{stroke-linejoin: round; stroke-linecap: butt}</style>
 </defs>
 <g id="figure_1">
  <g id="patch_1">
   <path d="M 0 432 
L 576 432 
L 576 0 
L 0 0 
z
" style="fill: #ffffff"/>
  </g>
  <g id="axes_1">
   <g id="patch_2">
    <path d="M 72 384.48 
L 518.4 384.48 
L 518.4 51.84 
L 72 51.84 
z
" style="fill: #ffffff"/>
   </g>
   <g id="matplotlib.axis_1">
    <g id="xtick_1">
     <g id="line2d_1">
      <path d="M 92.290909 384.48 
L 92.290909 51.84 
" clip-path="url(#p64ce09916c)" style="fill: none; stroke: #b0b0b0; stroke-width: 0.8; stroke-linecap: square"/>
     </g>
     <g id="line2d_2">
      <defs>
       <path id="m915079ffd2" d="M 0 0 
L 0 3.5 
" style="stroke: #000000; stroke-width: 0.8"/>
      </defs>
      <g>
       <use xlink:href="#m915079ffd2" x="92.290909" y="384.48" style="stroke: #000000; stroke-width: 0.8"/>
      </g>
     </g>
     <g id="text_1">
      <!-- 0.17 -->
      <g transform="translate(81.158097 399.078438) scale(0.1 -0.1)">
       <defs>
        <path id="DejaVuSans-30" d="M 2034 4250 
Q 1547 4250 1301 3770 
Q 1056 3291 1056 2328 
Q 1056 1369 1301 889 
Q 1547 409 2034 409 
Q 2525 409 2770 889 
Q 3016 1369 3016 2328 
Q 3016 3291 2770 3770 
Q 2525 4250 2034 4250 
z
M 2034 4750 
Q 2819 4750 3233 4129 
Q 3647 3509 3647 2328 
Q 3647 1150 3233 529 
Q 2819 -91 2034 -91 
Q 1250 -91 836 529 
Q 422 1150 422 2328 
Q 422 3509 836 4129 
Q 1250 4750 2034 4750 
z
" transform="scale(0.015625)"/>
        <path id="DejaVuSans-2e" d="M 684 794 
L 1344 794 
L 1344 0 
L 684 0 
L 684 794 
z
" transform="scale(0.015625)"/>
        <path id="DejaVuSans-31" d="M 794 531 
L 1825 531 
L 1825 4091 
L 703 3866 
L 703 4441 
L 1819 4666 
L 2450 4666 
L 2450 531 
L 3481 531 
L 3481 0 
L 794 0 
L 794 531 
z
" transform="scale(0.015625)"/>
        <path id="DejaVuSans-37" d="M 525 4666 
L 3525 4666 
L 3525 4397 
L 1831 0 
L 1172 0 
L 2766 4134 
L 525 4134 
L 525 4666 
z
" transform="scale(0.015625)"/>
       </defs>
       <use xlink:href="#DejaVuSans-30"/>
       <use xlink:href="#DejaVuSans-2e" x="63.623047"/>
       <use xlink:href="#DejaVuSans-31" x="95.410156"/>
       <use xlink:href="#DejaVuSans-37" x="159.033203"/>
      </g>
     </g>
    </g>
    <g id="xtick_2">
     <g id="line2d_3">
      <path d="M 119.390621 384.48 
L 119.390621 51.84 
" clip-path="url(#p64ce09916c)" style="fill: none; stroke: #b0b0b0; stroke-width: 0.8; stroke-linecap: square"/>
     </g>
     <g id="line2d_4">
      <g>
       <use xlink:href="#m915079ffd2" x="119.390621" y="384.48" style="stroke: #000000; stroke-width: 0.8"/>
      </g>
     </g>
     <g id="text_2">
      <!-- 6.83 -->
      <g transform="translate(108.257808 399.078438) scale(0.1 -0.1)">
       <defs>
        <path id="DejaVuSans-36" d="M 2113 2584 
Q 1688 2584 1439 2293 
Q 1191 2003 1191 1497 
Q 1191 994 1439 701 
Q 1688 409 2113 409 
Q 2538 409 2786 701 
Q 3034 994 3034 1497 
Q 3034 2003 2786 2293 
Q 2538 2584 2113 2584 
z
M 3366 4563 
L 3366 3988 
Q 3128 4100 2886 4159 
Q 2644 4219 2406 4219 
Q 1781 4219 1451 3797 
Q 1122 3375 1075 2522 
Q 1259 2794 1537 2939 
Q 1816 3084 2150 3084 
Q 2853 3084 3261 2657 
Q 3669 2231 3669 1497 
Q 3669 778 3244 343 
Q 2819 -91 2113 -91 
Q 1303 -91 875 529 
Q 447 1150 447 2328 
Q 447 3434 972 4092 
Q 1497 4750 2381 4750 
Q 2619 4750 2861 4703 
Q 3103 4656 3366 4563 
z
" transform="scale(0.015625)"/>
        <path id="DejaVuSans-38" d="M 2034 2216 
Q 1584 2216 1326 1975 
Q 1069 1734 1069 1313 
Q 1069 891 1326 650 
Q 1584 409 2034 409 
Q 2484 409 2743 651 
Q 3003 894 3003 1313 
Q 3003 1734 2745 1975 
Q 2488 2216 2034 2216 
z
M 1403 2484 
Q 997 2584 770 2862 
Q 544 3141 544 3541 
Q 544 4100 942 4425 
Q 1341 4750 2034 4750 
Q 2731 4750 3128 4425 
Q 3525 4100 3525 3541 
Q 3525 3141 3298 2862 
Q 3072 2584 2669 2484 
Q 3125 2378 3379 2068 
Q 3634 1759 3634 1313 
Q 3634 634 3220 271 
Q 2806 -91 2034 -91 
Q 1263 -91 848 271 
Q 434 634 434 1313 
Q 434 1759 690 2068 
Q 947 2378 1403 2484 
z
M 1172 3481 
Q 1172 3119 1398 2916 
Q 1625 2713 2034 2713 
Q 2441 2713 2670 2916 
Q 2900 3119 2900 3481 
Q 2900 3844 2670 4047 
Q 2441 4250 2034 4250 
Q 1625 4250 1398 4047 
Q 1172 3844 1172 3481 
z
" transform="scale(0.015625)"/>
        <path id="DejaVuSans-33" d="M 2597 2516 
Q 3050 2419 3304 2112 
Q 3559 1806 3559 1356 
Q 3559 666 3084 287 
Q 2609 -91 1734 -91 
Q 1441 -91 1130 -33 
Q 819 25 488 141 
L 488 750 
Q 750 597 1062 519 
Q 1375 441 1716 441 
Q 2309 441 2620 675 
Q 2931 909 2931 1356 
Q 2931 1769 2642 2001 
Q 2353 2234 1838 2234 
L 1294 2234 
L 1294 2753 
L 1863 2753 
Q 2328 2753 2575 2939 
Q 2822 3125 2822 3475 
Q 2822 3834 2567 4026 
Q 2313 4219 1838 4219 
Q 1578 4219 1281 4162 
Q 984 4106 628 3988 
L 628 4550 
Q 988 4650 1302 4700 
Q 1616 4750 1894 4750 
Q 2613 4750 3031 4423 
Q 3450 4097 3450 3541 
Q 3450 3153 3228 2886 
Q 3006 2619 2597 2516 
z
" transform="scale(0.015625)"/>
       </defs>
       <use xlink:href="#DejaVuSans-36"/>
       <use xlink:href="#DejaVuSans-2e" x="63.623047"/>
       <use xlink:href="#DejaVuSans-38" x="95.410156"/>
       <use xlink:href="#DejaVuSans-33" x="159.033203"/>
      </g>
     </g>
    </g>
    <g id="xtick_3">
     <g id="line2d_5">
      <path d="M 146.490332 384.48 
L 146.490332 51.84 
" clip-path="url(#p64ce09916c)" style="fill: none; stroke: #b0b0b0; stroke-width: 0.8; stroke-linecap: square"/>
     </g>
     <g id="line2d_6">
      <g>
       <use xlink:href="#m915079ffd2" x="146.490332" y="384.48" style="stroke: #000000; stroke-width: 0.8"/>
      </g>
     </g>
     <g id="text_3">
      <!-- 13.5 -->
      <g transform="translate(135.35752 399.078438) scale(0.1 -0.1)">
       <defs>
        <path id="DejaVuSans-35" d="M 691 4666 
L 3169 4666 
L 3169 4134 
L 1269 4134 
L 1269 2991 
Q 1406 3038 1543 3061 
Q 1681 3084 1819 3084 
Q 2600 3084 3056 2656 
Q 3513 2228 3513 1497 
Q 3513 744 3044 326 
Q 2575 -91 1722 -91 
Q 1428 -91 1123 -41 
Q 819 9 494 109 
L 494 744 
Q 775 591 1075 516 
Q 1375 441 1709 441 
Q 2250 441 2565 725 
Q 2881 1009 2881 1497 
Q 2881 1984 2565 2268 
Q 2250 2553 1709 2553 
Q 1456 2553 1204 2497 
Q 953 2441 691 2322 
L 691 4666 
z
" transform="scale(0.015625)"/>
       </defs>
       <use xlink:href="#DejaVuSans-31"/>
       <use xlink:href="#DejaVuSans-33" x="63.623047"/>
       <use xlink:href="#DejaVuSans-2e" x="127.246094"/>
       <use xlink:href="#DejaVuSans-35" x="159.033203"/>
      </g>
     </g>
    </g>
    <g id="xtick_4">
     <g id="line2d_7">
      <path d="M 173.590044 384.48 
L 173.590044 51.84 
" clip-path="url(#p64ce09916c)" style="fill: none; stroke: #b0b0b0; stroke-width: 0.8; stroke-linecap: square"/>
     </g>
     <g id="line2d_8">
      <g>
       <use xlink:href="#m915079ffd2" x="173.590044" y="384.48" style="stroke: #000000; stroke-width: 0.8"/>
      </g>
     </g>
     <g id="text_4">
      <!-- 20.17 -->
      <g transform="translate(159.275982 399.078438) scale(0.1 -0.1)">
       <defs>
        <path id="DejaVuSans-32" d="M 1228 531 
L 3431 531 
L 3431 0 
L 469 0 
L 469 531 
Q 828 903 1448 1529 
Q 2069 2156 2228 2338 
Q 2531 2678 2651 2914 
Q 2772 3150 2772 3378 
Q 2772 3750 2511 3984 
Q 2250 4219 1831 4219 
Q 1534 4219 1204 4116 
Q 875 4013 500 3803 
L 500 4441 
Q 881 4594 1212 4672 
Q 1544 4750 1819 4750 
Q 2544 4750 2975 4387 
Q 3406 4025 3406 3419 
Q 3406 3131 3298 2873 
Q 3191 2616 2906 2266 
Q 2828 2175 2409 1742 
Q 1991 1309 1228 531 
z
" transform="scale(0.015625)"/>
       </defs>
       <use xlink:href="#DejaVuSans-32"/>
       <use xlink:href="#DejaVuSans-30" x="63.623047"/>
       <use xlink:href="#DejaVuSans-2e" x="127.246094"/>
       <use xlink:href="#DejaVuSans-31" x="159.033203"/>
       <use xlink:href="#DejaVuSans-37" x="222.65625"/>
      </g>
     </g>
    </g>
    <g id="xtick_5">
     <g id="line2d_9">
      <path d="M 200.689756 384.48 
L 200.689756 51.84 
" clip-path="url(#p64ce09916c)" style="fill: none; stroke: #b0b0b0; stroke-width: 0.8; stroke-linecap: square"/>
     </g>
     <g id="line2d_10">
      <g>
       <use xlink:href="#m915079ffd2" x="200.689756" y="384.48" style="stroke: #000000; stroke-width: 0.8"/>
      </g>
     </g>
     <g id="text_5">
      <!-- 26.83 -->
      <g transform="translate(186.375693 399.078438) scale(0.1 -0.1)">
       <use xlink:href="#DejaVuSans-32"/>
       <use xlink:href="#DejaVuSans-36" x="63.623047"/>
       <use xlink:href="#DejaVuSans-2e" x="127.246094"/>
       <use xlink:href="#DejaVuSans-38" x="159.033203"/>
       <use xlink:href="#DejaVuSans-33" x="222.65625"/>
      </g>
     </g>
    </g>
    <g id="xtick_6">
     <g id="line2d_11">
      <path d="M 227.789467 384.48 
L 227.789467 51.84 
" clip-path="url(#p64ce09916c)" style="fill: none; stroke: #b0b0b0; stroke-width: 0.8; stroke-linecap: square"/>
     </g>
     <g id="line2d_12">
      <g>
       <use xlink:href="#m915079ffd2" x="227.789467" y="384.48" style="stroke: #000000; stroke-width: 0.8"/>
      </g>
     </g>
     <g id="text_6">
      <!-- 33.5 -->
      <g transform="translate(216.656655 399.078438) scale(0.1 -0.1)">
       <use xlink:href="#DejaVuSans-33"/>
       <use xlink:href="#DejaVuSans-33" x="63.623047"/>
       <use xlink:href="#DejaVuSans-2e" x="127.246094"/>
       <use xlink:href="#DejaVuSans-35" x="159.033203"/>
      </g>
     </g>
    </g>
    <g id="xtick_7">
     <g id="line2d_13">
      <path d="M 254.889179 384.48 
L 254.889179 51.84 
" clip-path="url(#p64ce09916c)" style="fill: none; stroke: #b0b0b0; stroke-width: 0.8; stroke-linecap: square"/>
     </g>
     <g id="line2d_14">
      <g>
       <use xlink:href="#m915079ffd2" x="254.889179" y="384.48" style="stroke: #000000; stroke-width: 0.8"/>
      </g>
     </g>
     <g id="text_7">
      <!-- 40.17 -->
      <g transform="translate(240.575116 399.078438) scale(0.1 -0.1)">
       <defs>
        <path id="DejaVuSans-34" d="M 2419 4116 
L 825 1625 
L 2419 1625 
L 2419 4116 
z
M 2253 4666 
L 3047 4666 
L 3047 1625 
L 3713 1625 
L 3713 1100 
L 3047 1100 
L 3047 0 
L 2419 0 
L 2419 1100 
L 313 1100 
L 313 1709 
L 2253 4666 
z
" transform="scale(0.015625)"/>
       </defs>
       <use xlink:href="#DejaVuSans-34"/>
       <use xlink:href="#DejaVuSans-30" x="63.623047"/>
       <use xlink:href="#DejaVuSans-2e" x="127.246094"/>
       <use xlink:href="#DejaVuSans-31" x="159.033203"/>
       <use xlink:href="#DejaVuSans-37" x="222.65625"/>
      </g>
     </g>
    </g>
    <g id="xtick_8">
     <g id="line2d_15">
      <path d="M 281.988891 384.48 
L 281.988891 51.84 
" clip-path="url(#p64ce09916c)" style="fill: none; stroke: #b0b0b0; stroke-width: 0.8; stroke-linecap: square"/>
     </g>
     <g id="line2d_16">
      <g>
       <use xlink:href="#m915079ffd2" x="281.988891" y="384.48" style="stroke: #000000; stroke-width: 0.8"/>
      </g>
     </g>
     <g id="text_8">
      <!-- 46.83 -->
      <g transform="translate(267.674828 399.078438) scale(0.1 -0.1)">
       <use xlink:href="#DejaVuSans-34"/>
       <use xlink:href="#DejaVuSans-36" x="63.623047"/>
       <use xlink:href="#DejaVuSans-2e" x="127.246094"/>
       <use xlink:href="#DejaVuSans-38" x="159.033203"/>
       <use xlink:href="#DejaVuSans-33" x="222.65625"/>
      </g>
     </g>
    </g>
    <g id="xtick_9">
     <g id="line2d_17">
      <path d="M 309.088602 384.48 
L 309.088602 51.84 
" clip-path="url(#p64ce09916c)" style="fill: none; stroke: #b0b0b0; stroke-width: 0.8; stroke-linecap: square"/>
     </g>
     <g id="line2d_18">
      <g>
       <use xlink:href="#m915079ffd2" x="309.088602" y="384.48" style="stroke: #000000; stroke-width: 0.8"/>
      </g>
     </g>
     <g id="text_9">
      <!-- 53.5 -->
      <g transform="translate(297.95579 399.078438) scale(0.1 -0.1)">
       <use xlink:href="#DejaVuSans-35"/>
       <use xlink:href="#DejaVuSans-33" x="63.623047"/>
       <use xlink:href="#DejaVuSans-2e" x="127.246094"/>
       <use xlink:href="#DejaVuSans-35" x="159.033203"/>
      </g>
     </g>
    </g>
    <g id="xtick_10">
     <g id="line2d_19">
      <path d="M 336.188314 384.48 
L 336.188314 51.84 
" clip-path="url(#p64ce09916c)" style="fill: none; stroke: #b0b0b0; stroke-width: 0.8; stroke-linecap: square"/>
     </g>
     <g id="line2d_20">
      <g>
       <use xlink:href="#m915079ffd2" x="336.188314" y="384.48" style="stroke: #000000; stroke-width: 0.8"/>
      </g>
     </g>
     <g id="text_10">
      <!-- 60.17 -->
      <g transform="translate(321.874251 399.078438) scale(0.1 -0.1)">
       <use xlink:href="#DejaVuSans-36"/>
       <use xlink:href="#DejaVuSans-30" x="63.623047"/>
       <use xlink:href="#DejaVuSans-2e" x="127.246094"/>
       <use xlink:href="#DejaVuSans-31" x="159.033203"/>
       <use xlink:href="#DejaVuSans-37" x="222.65625"/>
      </g>
     </g>
    </g>
    <g id="xtick_11">
     <g id="line2d_21">
      <path d="M 363.288025 384.48 
L 363.288025 51.84 
" clip-path="url(#p64ce09916c)" style="fill: none; stroke: #b0b0b0; stroke-width: 0.8; stroke-linecap: square"/>
     </g>
     <g id="line2d_22">
      <g>
       <use xlink:href="#m915079ffd2" x="363.288025" y="384.48" style="stroke: #000000; stroke-width: 0.8"/>
      </g>
     </g>
     <g id="text_11">
      <!-- 66.83 -->
      <g transform="translate(348.973963 399.078438) scale(0.1 -0.1)">
       <use xlink:href="#DejaVuSans-36"/>
       <use xlink:href="#DejaVuSans-36" x="63.623047"/>
       <use xlink:href="#DejaVuSans-2e" x="127.246094"/>
       <use xlink:href="#DejaVuSans-38" x="159.033203"/>
       <use xlink:href="#DejaVuSans-33" x="222.65625"/>
      </g>
     </g>
    </g>
    <g id="xtick_12">
     <g id="line2d_23">
      <path d="M 390.387737 384.48 
L 390.387737 51.84 
" clip-path="url(#p64ce09916c)" style="fill: none; stroke: #b0b0b0; stroke-width: 0.8; stroke-linecap: square"/>
     </g>
     <g id="line2d_24">
      <g>
       <use xlink:href="#m915079ffd2" x="390.387737" y="384.48" style="stroke: #000000; stroke-width: 0.8"/>
      </g>
     </g>
     <g id="text_12">
      <!-- 73.5 -->
      <g transform="translate(379.254925 399.078438) scale(0.1 -0.1)">
       <use xlink:href="#DejaVuSans-37"/>
       <use xlink:href="#DejaVuSans-33" x="63.623047"/>
       <use xlink:href="#DejaVuSans-2e" x="127.246094"/>
       <use xlink:href="#DejaVuSans-35" x="159.033203"/>
      </g>
     </g>
    </g>
    <g id="xtick_13">
     <g id="line2d_25">
      <path d="M 417.487449 384.48 
L 417.487449 51.84 
" clip-path="url(#p64ce09916c)" style="fill: none; stroke: #b0b0b0; stroke-width: 0.8; stroke-linecap: square"/>
     </g>
     <g id="line2d_26">
      <g>
       <use xlink:href="#m915079ffd2" x="417.487449" y="384.48" style="stroke: #000000; stroke-width: 0.8"/>
      </g>
     </g>
     <g id="text_13">
      <!-- 80.17 -->
      <g transform="translate(403.173386 399.078438) scale(0.1 -0.1)">
       <use xlink:href="#DejaVuSans-38"/>
       <use xlink:href="#DejaVuSans-30" x="63.623047"/>
       <use xlink:href="#DejaVuSans-2e" x="127.246094"/>
       <use xlink:href="#DejaVuSans-31" x="159.033203"/>
       <use xlink:href="#DejaVuSans-37" x="222.65625"/>
      </g>
     </g>
    </g>
    <g id="xtick_14">
     <g id="line2d_27">
      <path d="M 444.58716 384.48 
L 444.58716 51.84 
" clip-path="url(#p64ce09916c)" style="fill: none; stroke: #b0b0b0; stroke-width: 0.8; stroke-linecap: square"/>
     </g>
     <g id="line2d_28">
      <g>
       <use xlink:href="#m915079ffd2" x="444.58716" y="384.48" style="stroke: #000000; stroke-width: 0.8"/>
      </g>
     </g>
     <g id="text_14">
      <!-- 86.83 -->
      <g transform="translate(430.273098 399.078438) scale(0.1 -0.1)">
       <use xlink:href="#DejaVuSans-38"/>
       <use xlink:href="#DejaVuSans-36" x="63.623047"/>
       <use xlink:href="#DejaVuSans-2e" x="127.246094"/>
       <use xlink:href="#DejaVuSans-38" x="159.033203"/>
       <use xlink:href="#DejaVuSans-33" x="222.65625"/>
      </g>
     </g>
    </g>
    <g id="xtick_15">
     <g id="line2d_29">
      <path d="M 471.686872 384.48 
L 471.686872 51.84 
" clip-path="url(#p64ce09916c)" style="fill: none; stroke: #b0b0b0; stroke-width: 0.8; stroke-linecap: square"/>
     </g>
     <g id="line2d_30">
      <g>
       <use xlink:href="#m915079ffd2" x="471.686872" y="384.48" style="stroke: #000000; stroke-width: 0.8"/>
      </g>
     </g>
     <g id="text_15">
      <!-- 93.5 -->
      <g transform="translate(460.55406 399.078438) scale(0.1 -0.1)">
       <defs>
        <path id="DejaVuSans-39" d="M 703 97 
L 703 672 
Q 941 559 1184 500 
Q 1428 441 1663 441 
Q 2288 441 2617 861 
Q 2947 1281 2994 2138 
Q 2813 1869 2534 1725 
Q 2256 1581 1919 1581 
Q 1219 1581 811 2004 
Q 403 2428 403 3163 
Q 403 3881 828 4315 
Q 1253 4750 1959 4750 
Q 2769 4750 3195 4129 
Q 3622 3509 3622 2328 
Q 3622 1225 3098 567 
Q 2575 -91 1691 -91 
Q 1453 -91 1209 -44 
Q 966 3 703 97 
z
M 1959 2075 
Q 2384 2075 2632 2365 
Q 2881 2656 2881 3163 
Q 2881 3666 2632 3958 
Q 2384 4250 1959 4250 
Q 1534 4250 1286 3958 
Q 1038 3666 1038 3163 
Q 1038 2656 1286 2365 
Q 1534 2075 1959 2075 
z
" transform="scale(0.015625)"/>
       </defs>
       <use xlink:href="#DejaVuSans-39"/>
       <use xlink:href="#DejaVuSans-33" x="63.623047"/>
       <use xlink:href="#DejaVuSans-2e" x="127.246094"/>
       <use xlink:href="#DejaVuSans-35" x="159.033203"/>
      </g>
     </g>
    </g>
    <g id="text_16">
     <!-- time in hours [h] -->
     <g transform="translate(253.451562 412.756563) scale(0.1 -0.1)">
      <defs>
       <path id="DejaVuSans-74" d="M 1172 4494 
L 1172 3500 
L 2356 3500 
L 2356 3053 
L 1172 3053 
L 1172 1153 
Q 1172 725 1289 603 
Q 1406 481 1766 481 
L 2356 481 
L 2356 0 
L 1766 0 
Q 1100 0 847 248 
Q 594 497 594 1153 
L 594 3053 
L 172 3053 
L 172 3500 
L 594 3500 
L 594 4494 
L 1172 4494 
z
" transform="scale(0.015625)"/>
       <path id="DejaVuSans-69" d="M 603 3500 
L 1178 3500 
L 1178 0 
L 603 0 
L 603 3500 
z
M 603 4863 
L 1178 4863 
L 1178 4134 
L 603 4134 
L 603 4863 
z
" transform="scale(0.015625)"/>
       <path id="DejaVuSans-6d" d="M 3328 2828 
Q 3544 3216 3844 3400 
Q 4144 3584 4550 3584 
Q 5097 3584 5394 3201 
Q 5691 2819 5691 2113 
L 5691 0 
L 5113 0 
L 5113 2094 
Q 5113 2597 4934 2840 
Q 4756 3084 4391 3084 
Q 3944 3084 3684 2787 
Q 3425 2491 3425 1978 
L 3425 0 
L 2847 0 
L 2847 2094 
Q 2847 2600 2669 2842 
Q 2491 3084 2119 3084 
Q 1678 3084 1418 2786 
Q 1159 2488 1159 1978 
L 1159 0 
L 581 0 
L 581 3500 
L 1159 3500 
L 1159 2956 
Q 1356 3278 1631 3431 
Q 1906 3584 2284 3584 
Q 2666 3584 2933 3390 
Q 3200 3197 3328 2828 
z
" transform="scale(0.015625)"/>
       <path id="DejaVuSans-65" d="M 3597 1894 
L 3597 1613 
L 953 1613 
Q 991 1019 1311 708 
Q 1631 397 2203 397 
Q 2534 397 2845 478 
Q 3156 559 3463 722 
L 3463 178 
Q 3153 47 2828 -22 
Q 2503 -91 2169 -91 
Q 1331 -91 842 396 
Q 353 884 353 1716 
Q 353 2575 817 3079 
Q 1281 3584 2069 3584 
Q 2775 3584 3186 3129 
Q 3597 2675 3597 1894 
z
M 3022 2063 
Q 3016 2534 2758 2815 
Q 2500 3097 2075 3097 
Q 1594 3097 1305 2825 
Q 1016 2553 972 2059 
L 3022 2063 
z
" transform="scale(0.015625)"/>
       <path id="DejaVuSans-20" transform="scale(0.015625)"/>
       <path id="DejaVuSans-6e" d="M 3513 2113 
L 3513 0 
L 2938 0 
L 2938 2094 
Q 2938 2591 2744 2837 
Q 2550 3084 2163 3084 
Q 1697 3084 1428 2787 
Q 1159 2491 1159 1978 
L 1159 0 
L 581 0 
L 581 3500 
L 1159 3500 
L 1159 2956 
Q 1366 3272 1645 3428 
Q 1925 3584 2291 3584 
Q 2894 3584 3203 3211 
Q 3513 2838 3513 2113 
z
" transform="scale(0.015625)"/>
       <path id="DejaVuSans-68" d="M 3513 2113 
L 3513 0 
L 2938 0 
L 2938 2094 
Q 2938 2591 2744 2837 
Q 2550 3084 2163 3084 
Q 1697 3084 1428 2787 
Q 1159 2491 1159 1978 
L 1159 0 
L 581 0 
L 581 4863 
L 1159 4863 
L 1159 2956 
Q 1366 3272 1645 3428 
Q 1925 3584 2291 3584 
Q 2894 3584 3203 3211 
Q 3513 2838 3513 2113 
z
" transform="scale(0.015625)"/>
       <path id="DejaVuSans-6f" d="M 1959 3097 
Q 1497 3097 1228 2736 
Q 959 2375 959 1747 
Q 959 1119 1226 758 
Q 1494 397 1959 397 
Q 2419 397 2687 759 
Q 2956 1122 2956 1747 
Q 2956 2369 2687 2733 
Q 2419 3097 1959 3097 
z
M 1959 3584 
Q 2709 3584 3137 3096 
Q 3566 2609 3566 1747 
Q 3566 888 3137 398 
Q 2709 -91 1959 -91 
Q 1206 -91 779 398 
Q 353 888 353 1747 
Q 353 2609 779 3096 
Q 1206 3584 1959 3584 
z
" transform="scale(0.015625)"/>
       <path id="DejaVuSans-75" d="M 544 1381 
L 544 3500 
L 1119 3500 
L 1119 1403 
Q 1119 906 1312 657 
Q 1506 409 1894 409 
Q 2359 409 2629 706 
Q 2900 1003 2900 1516 
L 2900 3500 
L 3475 3500 
L 3475 0 
L 2900 0 
L 2900 538 
Q 2691 219 2414 64 
Q 2138 -91 1772 -91 
Q 1169 -91 856 284 
Q 544 659 544 1381 
z
M 1991 3584 
L 1991 3584 
z
" transform="scale(0.015625)"/>
       <path id="DejaVuSans-72" d="M 2631 2963 
Q 2534 3019 2420 3045 
Q 2306 3072 2169 3072 
Q 1681 3072 1420 2755 
Q 1159 2438 1159 1844 
L 1159 0 
L 581 0 
L 581 3500 
L 1159 3500 
L 1159 2956 
Q 1341 3275 1631 3429 
Q 1922 3584 2338 3584 
Q 2397 3584 2469 3576 
Q 2541 3569 2628 3553 
L 2631 2963 
z
" transform="scale(0.015625)"/>
       <path id="DejaVuSans-73" d="M 2834 3397 
L 2834 2853 
Q 2591 2978 2328 3040 
Q 2066 3103 1784 3103 
Q 1356 3103 1142 2972 
Q 928 2841 928 2578 
Q 928 2378 1081 2264 
Q 1234 2150 1697 2047 
L 1894 2003 
Q 2506 1872 2764 1633 
Q 3022 1394 3022 966 
Q 3022 478 2636 193 
Q 2250 -91 1575 -91 
Q 1294 -91 989 -36 
Q 684 19 347 128 
L 347 722 
Q 666 556 975 473 
Q 1284 391 1588 391 
Q 1994 391 2212 530 
Q 2431 669 2431 922 
Q 2431 1156 2273 1281 
Q 2116 1406 1581 1522 
L 1381 1569 
Q 847 1681 609 1914 
Q 372 2147 372 2553 
Q 372 3047 722 3315 
Q 1072 3584 1716 3584 
Q 2034 3584 2315 3537 
Q 2597 3491 2834 3397 
z
" transform="scale(0.015625)"/>
       <path id="DejaVuSans-5b" d="M 550 4863 
L 1875 4863 
L 1875 4416 
L 1125 4416 
L 1125 -397 
L 1875 -397 
L 1875 -844 
L 550 -844 
L 550 4863 
z
" transform="scale(0.015625)"/>
       <path id="DejaVuSans-5d" d="M 1947 4863 
L 1947 -844 
L 622 -844 
L 622 -397 
L 1369 -397 
L 1369 4416 
L 622 4416 
L 622 4863 
L 1947 4863 
z
" transform="scale(0.015625)"/>
      </defs>
      <use xlink:href="#DejaVuSans-74"/>
      <use xlink:href="#DejaVuSans-69" x="39.208984"/>
      <use xlink:href="#DejaVuSans-6d" x="66.992188"/>
      <use xlink:href="#DejaVuSans-65" x="164.404297"/>
      <use xlink:href="#DejaVuSans-20" x="225.927734"/>
      <use xlink:href="#DejaVuSans-69" x="257.714844"/>
      <use xlink:href="#DejaVuSans-6e" x="285.498047"/>
      <use xlink:href="#DejaVuSans-20" x="348.876953"/>
      <use xlink:href="#DejaVuSans-68" x="380.664062"/>
      <use xlink:href="#DejaVuSans-6f" x="444.042969"/>
      <use xlink:href="#DejaVuSans-75" x="505.224609"/>
      <use xlink:href="#DejaVuSans-72" x="568.603516"/>
      <use xlink:href="#DejaVuSans-73" x="609.716797"/>
      <use xlink:href="#DejaVuSans-20" x="661.816406"/>
      <use xlink:href="#DejaVuSans-5b" x="693.603516"/>
      <use xlink:href="#DejaVuSans-68" x="732.617188"/>
      <use xlink:href="#DejaVuSans-5d" x="795.996094"/>
     </g>
    </g>
   </g>
   <g id="matplotlib.axis_2">
    <g id="ytick_1">
     <g id="line2d_31">
      <path d="M 72 363.69 
L 518.4 363.69 
" clip-path="url(#p64ce09916c)" style="fill: none; stroke: #b0b0b0; stroke-width: 0.8; stroke-linecap: square"/>
     </g>
     <g id="line2d_32">
      <defs>
       <path id="m15c0131461" d="M 0 0 
L -3.5 0 
" style="stroke: #000000; stroke-width: 0.8"/>
      </defs>
      <g>
       <use xlink:href="#m15c0131461" x="72" y="363.69" style="stroke: #000000; stroke-width: 0.8"/>
      </g>
     </g>
     <g id="text_17">
      <!-- 0.0 -->
      <g transform="translate(49.096875 367.489219) scale(0.1 -0.1)">
       <use xlink:href="#DejaVuSans-30"/>
       <use xlink:href="#DejaVuSans-2e" x="63.623047"/>
       <use xlink:href="#DejaVuSans-30" x="95.410156"/>
      </g>
     </g>
    </g>
    <g id="ytick_2">
     <g id="line2d_33">
      <path d="M 72 311.715 
L 518.4 311.715 
" clip-path="url(#p64ce09916c)" style="fill: none; stroke: #b0b0b0; stroke-width: 0.8; stroke-linecap: square"/>
     </g>
     <g id="line2d_34">
      <g>
       <use xlink:href="#m15c0131461" x="72" y="311.715" style="stroke: #000000; stroke-width: 0.8"/>
      </g>
     </g>
     <g id="text_18">
      <!-- 0.5 -->
      <g transform="translate(49.096875 315.514219) scale(0.1 -0.1)">
       <use xlink:href="#DejaVuSans-30"/>
       <use xlink:href="#DejaVuSans-2e" x="63.623047"/>
       <use xlink:href="#DejaVuSans-35" x="95.410156"/>
      </g>
     </g>
    </g>
    <g id="ytick_3">
     <g id="line2d_35">
      <path d="M 72 259.74 
L 518.4 259.74 
" clip-path="url(#p64ce09916c)" style="fill: none; stroke: #b0b0b0; stroke-width: 0.8; stroke-linecap: square"/>
     </g>
     <g id="line2d_36">
      <g>
       <use xlink:href="#m15c0131461" x="72" y="259.74" style="stroke: #000000; stroke-width: 0.8"/>
      </g>
     </g>
     <g id="text_19">
      <!-- 1.0 -->
      <g transform="translate(49.096875 263.539219) scale(0.1 -0.1)">
       <use xlink:href="#DejaVuSans-31"/>
       <use xlink:href="#DejaVuSans-2e" x="63.623047"/>
       <use xlink:href="#DejaVuSans-30" x="95.410156"/>
      </g>
     </g>
    </g>
    <g id="ytick_4">
     <g id="line2d_37">
      <path d="M 72 207.765 
L 518.4 207.765 
" clip-path="url(#p64ce09916c)" style="fill: none; stroke: #b0b0b0; stroke-width: 0.8; stroke-linecap: square"/>
     </g>
     <g id="line2d_38">
      <g>
       <use xlink:href="#m15c0131461" x="72" y="207.765" style="stroke: #000000; stroke-width: 0.8"/>
      </g>
     </g>
     <g id="text_20">
      <!-- 1.5 -->
      <g transform="translate(49.096875 211.564219) scale(0.1 -0.1)">
       <use xlink:href="#DejaVuSans-31"/>
       <use xlink:href="#DejaVuSans-2e" x="63.623047"/>
       <use xlink:href="#DejaVuSans-35" x="95.410156"/>
      </g>
     </g>
    </g>
    <g id="ytick_5">
     <g id="line2d_39">
      <path d="M 72 155.79 
L 518.4 155.79 
" clip-path="url(#p64ce09916c)" style="fill: none; stroke: #b0b0b0; stroke-width: 0.8; stroke-linecap: square"/>
     </g>
     <g id="line2d_40">
      <g>
       <use xlink:href="#m15c0131461" x="72" y="155.79" style="stroke: #000000; stroke-width: 0.8"/>
      </g>
     </g>
     <g id="text_21">
      <!-- 2.0 -->
      <g transform="translate(49.096875 159.589219) scale(0.1 -0.1)">
       <use xlink:href="#DejaVuSans-32"/>
       <use xlink:href="#DejaVuSans-2e" x="63.623047"/>
       <use xlink:href="#DejaVuSans-30" x="95.410156"/>
      </g>
     </g>
    </g>
    <g id="ytick_6">
     <g id="line2d_41">
      <path d="M 72 103.815 
L 518.4 103.815 
" clip-path="url(#p64ce09916c)" style="fill: none; stroke: #b0b0b0; stroke-width: 0.8; stroke-linecap: square"/>
     </g>
     <g id="line2d_42">
      <g>
       <use xlink:href="#m15c0131461" x="72" y="103.815" style="stroke: #000000; stroke-width: 0.8"/>
      </g>
     </g>
     <g id="text_22">
      <!-- 2.5 -->
      <g transform="translate(49.096875 107.614219) scale(0.1 -0.1)">
       <use xlink:href="#DejaVuSans-32"/>
       <use xlink:href="#DejaVuSans-2e" x="63.623047"/>
       <use xlink:href="#DejaVuSans-35" x="95.410156"/>
      </g>
     </g>
    </g>
    <g id="ytick_7">
     <g id="line2d_43">
      <path d="M 72 51.84 
L 518.4 51.84 
" clip-path="url(#p64ce09916c)" style="fill: none; stroke: #b0b0b0; stroke-width: 0.8; stroke-linecap: square"/>
     </g>
     <g id="line2d_44">
      <g>
       <use xlink:href="#m15c0131461" x="72" y="51.84" style="stroke: #000000; stroke-width: 0.8"/>
      </g>
     </g>
     <g id="text_23">
      <!-- 3.0 -->
      <g transform="translate(49.096875 55.639219) scale(0.1 -0.1)">
       <use xlink:href="#DejaVuSans-33"/>
       <use xlink:href="#DejaVuSans-2e" x="63.623047"/>
       <use xlink:href="#DejaVuSans-30" x="95.410156"/>
      </g>
     </g>
    </g>
    <g id="text_24">
     <!-- blank corrected OD600 -->
     <g transform="translate(43.017187 276.115469) rotate(-90) scale(0.1 -0.1)">
      <defs>
       <path id="DejaVuSans-62" d="M 3116 1747 
Q 3116 2381 2855 2742 
Q 2594 3103 2138 3103 
Q 1681 3103 1420 2742 
Q 1159 2381 1159 1747 
Q 1159 1113 1420 752 
Q 1681 391 2138 391 
Q 2594 391 2855 752 
Q 3116 1113 3116 1747 
z
M 1159 2969 
Q 1341 3281 1617 3432 
Q 1894 3584 2278 3584 
Q 2916 3584 3314 3078 
Q 3713 2572 3713 1747 
Q 3713 922 3314 415 
Q 2916 -91 2278 -91 
Q 1894 -91 1617 61 
Q 1341 213 1159 525 
L 1159 0 
L 581 0 
L 581 4863 
L 1159 4863 
L 1159 2969 
z
" transform="scale(0.015625)"/>
       <path id="DejaVuSans-6c" d="M 603 4863 
L 1178 4863 
L 1178 0 
L 603 0 
L 603 4863 
z
" transform="scale(0.015625)"/>
       <path id="DejaVuSans-61" d="M 2194 1759 
Q 1497 1759 1228 1600 
Q 959 1441 959 1056 
Q 959 750 1161 570 
Q 1363 391 1709 391 
Q 2188 391 2477 730 
Q 2766 1069 2766 1631 
L 2766 1759 
L 2194 1759 
z
M 3341 1997 
L 3341 0 
L 2766 0 
L 2766 531 
Q 2569 213 2275 61 
Q 1981 -91 1556 -91 
Q 1019 -91 701 211 
Q 384 513 384 1019 
Q 384 1609 779 1909 
Q 1175 2209 1959 2209 
L 2766 2209 
L 2766 2266 
Q 2766 2663 2505 2880 
Q 2244 3097 1772 3097 
Q 1472 3097 1187 3025 
Q 903 2953 641 2809 
L 641 3341 
Q 956 3463 1253 3523 
Q 1550 3584 1831 3584 
Q 2591 3584 2966 3190 
Q 3341 2797 3341 1997 
z
" transform="scale(0.015625)"/>
       <path id="DejaVuSans-6b" d="M 581 4863 
L 1159 4863 
L 1159 1991 
L 2875 3500 
L 3609 3500 
L 1753 1863 
L 3688 0 
L 2938 0 
L 1159 1709 
L 1159 0 
L 581 0 
L 581 4863 
z
" transform="scale(0.015625)"/>
       <path id="DejaVuSans-63" d="M 3122 3366 
L 3122 2828 
Q 2878 2963 2633 3030 
Q 2388 3097 2138 3097 
Q 1578 3097 1268 2742 
Q 959 2388 959 1747 
Q 959 1106 1268 751 
Q 1578 397 2138 397 
Q 2388 397 2633 464 
Q 2878 531 3122 666 
L 3122 134 
Q 2881 22 2623 -34 
Q 2366 -91 2075 -91 
Q 1284 -91 818 406 
Q 353 903 353 1747 
Q 353 2603 823 3093 
Q 1294 3584 2113 3584 
Q 2378 3584 2631 3529 
Q 2884 3475 3122 3366 
z
" transform="scale(0.015625)"/>
       <path id="DejaVuSans-64" d="M 2906 2969 
L 2906 4863 
L 3481 4863 
L 3481 0 
L 2906 0 
L 2906 525 
Q 2725 213 2448 61 
Q 2172 -91 1784 -91 
Q 1150 -91 751 415 
Q 353 922 353 1747 
Q 353 2572 751 3078 
Q 1150 3584 1784 3584 
Q 2172 3584 2448 3432 
Q 2725 3281 2906 2969 
z
M 947 1747 
Q 947 1113 1208 752 
Q 1469 391 1925 391 
Q 2381 391 2643 752 
Q 2906 1113 2906 1747 
Q 2906 2381 2643 2742 
Q 2381 3103 1925 3103 
Q 1469 3103 1208 2742 
Q 947 2381 947 1747 
z
" transform="scale(0.015625)"/>
       <path id="DejaVuSans-4f" d="M 2522 4238 
Q 1834 4238 1429 3725 
Q 1025 3213 1025 2328 
Q 1025 1447 1429 934 
Q 1834 422 2522 422 
Q 3209 422 3611 934 
Q 4013 1447 4013 2328 
Q 4013 3213 3611 3725 
Q 3209 4238 2522 4238 
z
M 2522 4750 
Q 3503 4750 4090 4092 
Q 4678 3434 4678 2328 
Q 4678 1225 4090 567 
Q 3503 -91 2522 -91 
Q 1538 -91 948 565 
Q 359 1222 359 2328 
Q 359 3434 948 4092 
Q 1538 4750 2522 4750 
z
" transform="scale(0.015625)"/>
       <path id="DejaVuSans-44" d="M 1259 4147 
L 1259 519 
L 2022 519 
Q 2988 519 3436 956 
Q 3884 1394 3884 2338 
Q 3884 3275 3436 3711 
Q 2988 4147 2022 4147 
L 1259 4147 
z
M 628 4666 
L 1925 4666 
Q 3281 4666 3915 4102 
Q 4550 3538 4550 2338 
Q 4550 1131 3912 565 
Q 3275 0 1925 0 
L 628 0 
L 628 4666 
z
" transform="scale(0.015625)"/>
      </defs>
      <use xlink:href="#DejaVuSans-62"/>
      <use xlink:href="#DejaVuSans-6c" x="63.476562"/>
      <use xlink:href="#DejaVuSans-61" x="91.259766"/>
      <use xlink:href="#DejaVuSans-6e" x="152.539062"/>
      <use xlink:href="#DejaVuSans-6b" x="215.917969"/>
      <use xlink:href="#DejaVuSans-20" x="273.828125"/>
      <use xlink:href="#DejaVuSans-63" x="305.615234"/>
      <use xlink:href="#DejaVuSans-6f" x="360.595703"/>
      <use xlink:href="#DejaVuSans-72" x="421.777344"/>
      <use xlink:href="#DejaVuSans-72" x="461.140625"/>
      <use xlink:href="#DejaVuSans-65" x="500.003906"/>
      <use xlink:href="#DejaVuSans-63" x="561.527344"/>
      <use xlink:href="#DejaVuSans-74" x="616.507812"/>
      <use xlink:href="#DejaVuSans-65" x="655.716797"/>
      <use xlink:href="#DejaVuSans-64" x="717.240234"/>
      <use xlink:href="#DejaVuSans-20" x="780.716797"/>
      <use xlink:href="#DejaVuSans-4f" x="812.503906"/>
      <use xlink:href="#DejaVuSans-44" x="891.214844"/>
      <use xlink:href="#DejaVuSans-36" x="968.216797"/>
      <use xlink:href="#DejaVuSans-30" x="1031.839844"/>
      <use xlink:href="#DejaVuSans-30" x="1095.462891"/>
     </g>
    </g>
   </g>
   <g id="line2d_45">
    <path d="M 92.290909 356.403105 
L 93.645895 356.299155 
L 94.323387 355.883355 
L 95.00088 355.675455 
L 96.355866 355.779405 
L 97.033359 355.467555 
L 97.710851 355.571505 
L 98.388344 355.155705 
L 103.130794 354.532005 
L 103.808287 354.012255 
L 104.485779 354.116205 
L 105.163272 353.804355 
L 105.840765 353.700405 
L 106.518258 353.388555 
L 107.873243 353.076705 
L 108.550736 352.660905 
L 109.228229 352.868805 
L 109.905722 352.349055 
L 110.583214 352.453005 
L 113.970678 351.413505 
L 114.648171 350.789805 
L 115.325664 350.997705 
L 116.003157 350.685855 
L 116.68065 350.685855 
L 117.358142 350.374005 
L 118.035635 350.270055 
L 118.713128 349.750305 
L 119.390621 349.646355 
L 121.423099 348.814755 
L 122.100592 348.814755 
L 122.778085 348.295005 
L 124.810563 347.567355 
L 125.488056 347.047605 
L 126.165549 346.839705 
L 126.843041 346.319955 
L 127.520534 346.319955 
L 128.198027 345.800205 
L 129.553013 345.280455 
L 130.230505 344.656755 
L 130.907998 344.656755 
L 133.617969 343.409355 
L 134.295462 342.785655 
L 136.327941 341.746155 
L 137.005433 341.226405 
L 137.682926 340.914555 
L 138.360419 340.290855 
L 139.037912 340.082955 
L 139.715404 339.563205 
L 140.392897 339.251355 
L 141.07039 338.523705 
L 141.747883 338.003955 
L 142.425376 338.107905 
L 143.102868 337.172355 
L 143.780361 336.964455 
L 145.135347 335.924955 
L 145.81284 335.093355 
L 147.167825 334.261755 
L 147.845318 333.638055 
L 148.522811 333.638055 
L 149.877796 332.078805 
L 150.555289 331.766955 
L 152.587767 330.103755 
L 153.26526 329.480055 
L 153.942753 329.064255 
L 155.975231 327.297105 
L 156.652724 326.777355 
L 157.330217 325.945755 
L 158.00771 325.737855 
L 159.362695 324.386505 
L 160.040188 324.074655 
L 161.395174 322.931205 
L 163.427652 321.268005 
L 164.105145 321.164055 
L 164.782638 320.436405 
L 166.137623 319.708755 
L 166.815116 319.085055 
L 168.170102 318.565305 
L 170.880073 317.006055 
L 171.557566 316.902105 
L 172.912551 316.278405 
L 173.590044 315.654705 
L 174.267537 315.550755 
L 174.94503 315.758655 
L 176.300015 314.927055 
L 176.977508 314.927055 
L 178.332494 314.511255 
L 180.364972 313.055955 
L 181.719958 312.952005 
L 182.39745 312.536205 
L 183.074943 312.328305 
L 183.752436 311.912505 
L 184.429929 311.288805 
L 185.107421 310.976955 
L 185.784914 310.873005 
L 186.462407 310.561155 
L 187.1399 310.665105 
L 187.817393 310.041405 
L 188.494885 309.729555 
L 189.172378 309.729555 
L 189.849871 309.209805 
L 190.527364 309.209805 
L 191.204857 309.001905 
L 191.882349 308.586105 
L 192.559842 308.482155 
L 194.592321 307.338705 
L 195.947306 307.234755 
L 196.624799 306.818955 
L 197.302292 306.715005 
L 198.657277 305.779455 
L 199.33477 305.779455 
L 200.012263 305.363655 
L 200.689756 305.259705 
L 201.367248 303.804405 
L 202.044741 304.739955 
L 203.399727 304.220205 
L 204.07722 304.116255 
L 204.754712 304.220205 
L 205.432205 303.804405 
L 206.787191 303.492555 
L 207.464684 303.700455 
L 208.819669 302.764905 
L 209.497162 302.972805 
L 210.852148 302.453055 
L 211.52964 302.660955 
L 212.207133 302.141205 
L 214.239611 302.037255 
L 214.917104 301.621455 
L 215.594597 301.517505 
L 216.27209 301.725405 
L 216.949583 301.517505 
L 217.627075 301.517505 
L 218.304568 301.309605 
L 218.982061 301.413555 
L 219.659554 301.205655 
L 221.692032 301.413555 
L 223.724511 300.893805 
L 225.756989 300.997755 
L 226.434482 300.685905 
L 227.111975 300.581955 
L 227.789467 300.789855 
L 228.46696 300.062205 
L 230.499438 300.374055 
L 231.176931 300.062205 
L 232.531917 300.062205 
L 233.886902 299.750355 
L 234.564395 300.062205 
L 235.241888 299.542455 
L 235.919381 299.750355 
L 236.596874 299.438505 
L 239.984338 299.542455 
L 240.66183 299.230605 
L 241.339323 299.334555 
L 242.694309 298.814805 
L 243.371801 298.918755 
L 244.049294 299.230605 
L 244.726787 299.230605 
L 245.40428 298.814805 
L 246.759265 298.814805 
L 247.436758 298.502955 
L 248.791744 299.022705 
L 250.146729 298.710855 
L 250.824222 298.606905 
L 252.179208 298.710855 
L 252.856701 298.502955 
L 253.534193 298.814805 
L 254.211686 298.502955 
L 255.566672 299.022705 
L 256.244165 298.710855 
L 256.921657 298.814805 
L 258.276643 298.710855 
L 258.954136 298.814805 
L 259.631628 298.191105 
L 260.309121 299.022705 
L 260.986614 299.126655 
L 261.664107 298.814805 
L 263.696585 299.022705 
L 264.374078 298.814805 
L 265.051571 299.126655 
L 267.084049 298.918755 
L 267.761542 299.334555 
L 268.439035 299.126655 
L 271.149006 299.126655 
L 271.826499 298.918755 
L 273.181484 299.334555 
L 273.858977 297.983205 
L 274.53647 298.087155 
L 275.213963 299.230605 
L 275.891455 299.438505 
L 277.246441 299.126655 
L 278.601427 298.814805 
L 279.278919 299.646405 
L 279.956412 299.230605 
L 280.633905 299.334555 
L 281.311398 299.750355 
L 283.343876 299.542455 
L 284.698862 299.854305 
L 285.376355 299.438505 
L 286.053847 299.230605 
L 286.73134 299.646405 
L 287.408833 299.334555 
L 288.086326 298.606905 
L 288.763818 299.542455 
L 289.441311 299.646405 
L 290.118804 299.542455 
L 290.796297 299.646405 
L 291.47379 299.334555 
L 292.151282 299.750355 
L 292.828775 299.646405 
L 294.183761 299.958255 
L 294.861254 300.166155 
L 295.538746 299.750355 
L 296.893732 300.166155 
L 297.571225 299.958255 
L 298.92621 299.958255 
L 299.603703 299.646405 
L 300.281196 300.166155 
L 301.636182 299.854305 
L 302.313674 299.438505 
L 302.991167 299.958255 
L 303.66866 299.854305 
L 304.346153 300.166155 
L 305.023645 299.958255 
L 305.701138 300.166155 
L 309.088602 300.062205 
L 309.766095 300.478005 
L 313.153559 300.478005 
L 313.831052 300.270105 
L 314.508545 300.478005 
L 315.186037 300.374055 
L 315.86353 299.230605 
L 317.218516 300.374055 
L 317.896008 300.581955 
L 318.573501 300.374055 
L 319.250994 300.685905 
L 320.60598 300.581955 
L 322.638458 300.581955 
L 323.315951 300.893805 
L 323.993444 300.478005 
L 325.348429 300.685905 
L 327.380908 300.478005 
L 328.0584 300.893805 
L 328.735893 300.685905 
L 329.413386 300.789855 
L 330.090879 299.750355 
L 330.768372 300.789855 
L 332.80085 300.685905 
L 333.478343 300.062205 
L 334.155835 300.997755 
L 335.510821 301.101705 
L 336.188314 300.893805 
L 336.865807 301.101705 
L 337.543299 301.101705 
L 338.220792 300.685905 
L 338.898285 300.997755 
L 339.575778 301.101705 
L 340.253271 300.997755 
L 340.930763 301.205655 
L 342.285749 300.893805 
L 342.963242 301.205655 
L 344.99572 300.685905 
L 345.673213 301.413555 
L 346.350706 300.997755 
L 347.028199 301.205655 
L 347.705691 300.997755 
L 348.383184 300.478005 
L 349.060677 301.205655 
L 349.73817 301.517505 
L 350.415662 300.997755 
L 351.093155 301.101705 
L 351.770648 301.517505 
L 353.125634 300.997755 
L 353.803126 301.413555 
L 354.480619 301.309605 
L 355.158112 300.997755 
L 355.835605 301.413555 
L 356.513098 301.309605 
L 357.19059 301.725405 
L 357.868083 301.205655 
L 358.545576 301.517505 
L 359.223069 301.413555 
L 359.900562 300.789855 
L 360.578054 301.517505 
L 361.255547 301.517505 
L 361.93304 300.997755 
L 362.610533 301.517505 
L 363.288025 301.725405 
L 363.965518 301.309605 
L 364.643011 301.621455 
L 365.320504 301.621455 
L 365.997997 301.413555 
L 367.352982 301.309605 
L 368.030475 301.621455 
L 369.385461 301.725405 
L 370.062953 301.621455 
L 371.417939 301.725405 
L 373.450417 301.725405 
L 374.12791 302.037255 
L 375.482896 301.621455 
L 376.837881 302.037255 
L 377.515374 300.893805 
L 378.192867 301.933305 
L 378.87036 302.141205 
L 380.225345 302.037255 
L 380.902838 302.141205 
L 381.580331 302.037255 
L 382.935316 302.141205 
L 384.290302 301.829355 
L 384.967795 302.245155 
L 385.645288 302.349105 
L 386.32278 302.037255 
L 387.677766 302.141205 
L 389.032752 302.141205 
L 389.710244 301.829355 
L 390.387737 302.453055 
L 391.06523 300.893805 
L 391.742723 300.374055 
L 392.420216 301.829355 
L 393.097708 302.349105 
L 395.130187 302.141205 
L 395.807679 302.453055 
L 396.485172 302.349105 
L 397.162665 302.660955 
L 398.517651 302.349105 
L 399.195143 302.660955 
L 399.872636 302.557005 
L 400.550129 302.245155 
L 401.227622 302.557005 
L 401.905115 301.829355 
L 403.2601 302.037255 
L 403.937593 302.453055 
L 404.615086 302.349105 
L 406.647564 302.660955 
L 407.325057 302.349105 
L 408.00255 302.557005 
L 409.357535 302.660955 
L 410.035028 302.764905 
L 411.390014 302.453055 
L 412.067506 302.660955 
L 412.744999 302.453055 
L 413.422492 302.660955 
L 414.099985 303.076755 
L 414.777478 302.764905 
L 416.132463 303.076755 
L 417.487449 302.557005 
L 418.164942 302.557005 
L 419.519927 303.076755 
L 420.19742 302.453055 
L 420.874913 302.764905 
L 422.229898 302.868855 
L 426.294855 302.868855 
L 426.972348 303.076755 
L 427.649841 302.764905 
L 428.327333 302.972805 
L 433.069783 302.972805 
L 433.747276 302.557005 
L 434.424769 302.557005 
L 435.102261 301.933305 
L 435.779754 301.829355 
L 436.457247 302.764905 
L 439.167218 303.076755 
L 439.844711 302.972805 
L 440.522204 303.284655 
L 441.199696 303.076755 
L 442.554682 303.180705 
L 443.232175 303.596505 
L 443.909668 303.596505 
L 444.58716 303.284655 
L 446.619639 303.180705 
L 447.297132 303.076755 
L 447.974624 303.284655 
L 448.652117 303.284655 
L 449.32961 302.868855 
L 450.007103 302.764905 
L 450.684596 303.180705 
L 451.362088 303.284655 
L 452.039581 303.076755 
L 452.717074 303.284655 
L 454.072059 303.180705 
L 454.749552 303.596505 
L 455.427045 303.388605 
L 456.104538 303.596505 
L 458.137016 303.492555 
L 458.814509 303.804405 
L 459.492002 303.596505 
L 460.169495 303.076755 
L 460.846987 303.700455 
L 461.52448 302.141205 
L 462.201973 303.388605 
L 462.879466 303.492555 
L 463.556959 303.804405 
L 464.234451 303.076755 
L 464.911944 303.700455 
L 465.589437 303.492555 
L 466.26693 303.908355 
L 466.944423 303.388605 
L 467.621915 303.700455 
L 468.299408 303.596505 
L 468.976901 304.116255 
L 469.654394 303.492555 
L 471.009379 303.596505 
L 473.041858 303.596505 
L 473.71935 303.908355 
L 474.396843 303.596505 
L 475.074336 303.804405 
L 475.751829 303.596505 
L 476.429322 303.804405 
L 477.106814 302.972805 
L 477.784307 303.804405 
L 478.4618 302.141205 
L 479.139293 302.349105 
L 480.494278 303.908355 
L 481.171771 303.804405 
L 481.849264 303.908355 
L 482.526757 303.492555 
L 483.20425 303.700455 
L 483.881742 303.596505 
L 485.236728 303.700455 
L 485.914221 304.116255 
L 486.591713 304.116255 
L 487.269206 303.804405 
L 488.624192 303.804405 
L 489.301685 303.492555 
L 489.979177 304.116255 
L 490.65667 303.804405 
L 491.334163 304.012305 
L 492.011656 303.804405 
L 492.689149 304.116255 
L 493.366641 303.908355 
L 494.044134 304.012305 
L 494.721627 303.908355 
L 495.39912 304.324155 
L 496.076613 304.324155 
L 496.754105 304.012305 
L 498.109091 304.116255 
L 498.109091 304.116255 
" clip-path="url(#p64ce09916c)" style="fill: none; stroke: #0000ff; stroke-opacity: 0.5; stroke-width: 1.5; stroke-linecap: square"/>
   </g>
   <g id="line2d_46">
    <path d="M 92.290909 358.274205 
L 93.645895 357.962355 
L 94.323387 357.546555 
L 95.00088 357.442605 
L 95.678373 357.754455 
L 96.355866 357.754455 
L 97.033359 357.234705 
L 97.710851 357.650505 
L 99.065837 356.818905 
L 99.74333 357.026805 
L 102.453301 356.299155 
L 103.130794 356.507055 
L 103.808287 355.987305 
L 105.163272 355.987305 
L 105.840765 355.779405 
L 106.518258 355.883355 
L 107.19575 355.363605 
L 107.873243 355.363605 
L 108.550736 355.051755 
L 109.228229 354.947805 
L 109.905722 354.635955 
L 111.260707 354.947805 
L 111.9382 354.532005 
L 113.970678 353.804355 
L 114.648171 352.349055 
L 115.325664 352.245105 
L 116.003157 353.180655 
L 116.68065 352.556955 
L 118.035635 353.076705 
L 118.713128 352.349055 
L 119.390621 352.556955 
L 120.068114 352.037205 
L 120.745606 351.725355 
L 122.100592 351.621405 
L 123.455577 350.997705 
L 124.13307 350.997705 
L 124.810563 350.685855 
L 125.488056 348.814755 
L 126.165549 347.983155 
L 126.843041 348.710805 
L 127.520534 349.750305 
L 128.198027 349.646355 
L 129.553013 349.126605 
L 130.230505 348.502905 
L 130.907998 348.710805 
L 132.262984 348.191055 
L 132.940477 347.775255 
L 133.617969 347.047605 
L 134.295462 347.047605 
L 134.972955 346.735755 
L 135.650448 346.216005 
L 136.327941 346.216005 
L 137.005433 345.488355 
L 137.682926 345.488355 
L 138.360419 344.760705 
L 139.037912 344.656755 
L 139.715404 344.344905 
L 140.392897 343.825155 
L 141.07039 343.825155 
L 141.747883 343.305405 
L 142.425376 343.305405 
L 143.102868 341.330355 
L 143.780361 342.369855 
L 144.457854 342.265905 
L 145.135347 341.642205 
L 145.81284 340.810605 
L 146.490332 340.810605 
L 147.845318 339.251355 
L 148.522811 339.251355 
L 149.877796 338.315805 
L 151.232782 337.796055 
L 151.910275 336.964455 
L 152.587767 336.860505 
L 153.942753 335.717055 
L 154.620246 334.365705 
L 155.297739 334.469655 
L 155.975231 333.014355 
L 156.652724 333.222255 
L 158.00771 333.222255 
L 158.685203 332.598555 
L 159.362695 330.519555 
L 160.040188 331.455105 
L 160.717681 331.143255 
L 161.395174 330.311655 
L 162.750159 329.584005 
L 163.427652 328.856355 
L 164.105145 328.752405 
L 164.782638 328.128705 
L 166.137623 327.297105 
L 167.492609 325.841805 
L 168.170102 325.737855 
L 168.847594 325.218105 
L 169.525087 324.490455 
L 170.20258 324.386505 
L 170.880073 323.554905 
L 172.235058 323.035155 
L 173.590044 320.540355 
L 174.267537 322.203555 
L 175.622522 321.787755 
L 176.300015 320.956155 
L 176.977508 320.956155 
L 177.655001 320.436405 
L 178.332494 320.852205 
L 179.687479 320.228505 
L 180.364972 319.708755 
L 181.042465 319.812705 
L 181.719958 319.604805 
L 182.39745 319.189005 
L 183.074943 319.292955 
L 183.752436 318.149505 
L 184.429929 316.590255 
L 185.107421 316.590255 
L 185.784914 317.317905 
L 187.1399 317.525805 
L 187.817393 317.110005 
L 188.494885 317.317905 
L 189.172378 316.902105 
L 189.849871 316.694205 
L 190.527364 316.902105 
L 191.204857 316.694205 
L 191.882349 315.966555 
L 192.559842 315.862605 
L 193.914828 314.927055 
L 194.592321 314.511255 
L 195.269813 314.823105 
L 195.947306 314.823105 
L 196.624799 314.199405 
L 197.302292 314.303355 
L 197.979784 313.679655 
L 198.657277 313.783605 
L 199.33477 313.263855 
L 200.012263 313.367805 
L 200.689756 312.952005 
L 201.367248 310.457205 
L 202.044741 310.769055 
L 202.722234 310.873005 
L 204.07722 311.912505 
L 204.754712 312.120405 
L 205.432205 311.808555 
L 206.109698 311.704605 
L 206.787191 311.288805 
L 207.464684 311.704605 
L 208.142176 311.496705 
L 208.819669 310.249305 
L 209.497162 311.392755 
L 210.852148 310.665105 
L 211.52964 310.769055 
L 212.207133 310.457205 
L 212.884626 310.353255 
L 213.562119 310.041405 
L 214.239611 310.457205 
L 214.917104 308.482155 
L 215.594597 307.338705 
L 216.27209 308.690055 
L 216.949583 309.625605 
L 217.627075 308.378205 
L 218.304568 309.417705 
L 218.982061 309.417705 
L 219.659554 309.105855 
L 221.692032 309.417705 
L 223.047018 308.794005 
L 223.724511 309.001905 
L 224.402003 308.897955 
L 225.079496 309.105855 
L 226.434482 308.378205 
L 227.111975 307.338705 
L 227.789467 308.066355 
L 228.46696 306.403155 
L 229.144453 305.779455 
L 230.499438 305.467605 
L 231.176931 306.299205 
L 231.854424 307.650555 
L 232.531917 307.234755 
L 233.886902 307.234755 
L 234.564395 307.442655 
L 235.241888 307.338705 
L 235.919381 307.442655 
L 236.596874 307.026855 
L 238.629352 306.818955 
L 239.306845 306.195255 
L 239.984338 306.922905 
L 241.339323 306.818955 
L 242.694309 305.987355 
L 244.049294 306.299205 
L 244.726787 306.299205 
L 245.40428 304.324155 
L 246.759265 306.195255 
L 247.436758 305.987355 
L 250.146729 306.091305 
L 250.824222 305.571555 
L 251.501715 305.987355 
L 252.856701 305.675505 
L 253.534193 305.675505 
L 254.211686 305.363655 
L 254.889179 306.195255 
L 255.566672 304.739955 
L 256.244165 305.779455 
L 257.59915 305.675505 
L 258.276643 305.883405 
L 258.954136 305.467605 
L 259.631628 304.012305 
L 260.309121 304.324155 
L 260.986614 305.883405 
L 261.664107 304.947855 
L 262.3416 305.571555 
L 263.019092 305.883405 
L 264.374078 305.883405 
L 265.051571 306.195255 
L 266.406556 305.675505 
L 267.084049 305.779455 
L 267.761542 305.571555 
L 268.439035 305.883405 
L 269.116528 305.779455 
L 269.79402 305.883405 
L 270.471513 305.675505 
L 272.503992 305.987355 
L 273.181484 305.675505 
L 273.858977 303.908355 
L 274.53647 303.700455 
L 275.213963 305.883405 
L 276.568948 306.195255 
L 279.278919 306.299205 
L 279.956412 306.507105 
L 280.633905 306.299205 
L 282.666383 306.403155 
L 284.021369 306.507105 
L 284.698862 305.987355 
L 285.376355 306.403155 
L 286.73134 306.403155 
L 287.408833 306.091305 
L 288.086326 304.739955 
L 288.763818 304.739955 
L 289.441311 306.403155 
L 290.118804 306.611055 
L 291.47379 306.611055 
L 292.151282 306.818955 
L 292.828775 306.403155 
L 293.506268 306.611055 
L 294.183761 306.507105 
L 294.861254 306.818955 
L 296.893732 306.818955 
L 297.571225 306.611055 
L 298.248718 306.922905 
L 298.92621 306.818955 
L 299.603703 305.363655 
L 300.281196 306.922905 
L 300.958689 307.026855 
L 301.636182 306.403155 
L 302.313674 305.155755 
L 302.991167 305.467605 
L 303.66866 305.051805 
L 304.346153 306.715005 
L 305.023645 305.675505 
L 305.701138 307.130805 
L 306.378631 306.299205 
L 307.056124 306.922905 
L 307.733617 307.026855 
L 308.411109 306.715005 
L 309.088602 307.026855 
L 311.121081 307.234755 
L 314.508545 307.234755 
L 315.186037 306.922905 
L 315.86353 304.947855 
L 316.541023 305.155755 
L 317.218516 306.403155 
L 317.896008 307.338705 
L 319.250994 307.026855 
L 319.928487 307.130805 
L 320.60598 306.922905 
L 323.315951 307.338705 
L 323.993444 307.026855 
L 325.348429 307.234755 
L 326.025922 306.818955 
L 326.703415 307.546605 
L 327.380908 307.234755 
L 328.0584 307.546605 
L 328.735893 307.130805 
L 329.413386 307.650555 
L 330.090879 305.259705 
L 330.768372 306.715005 
L 331.445864 307.338705 
L 332.123357 307.442655 
L 332.80085 306.922905 
L 333.478343 305.259705 
L 334.155835 307.546605 
L 336.188314 307.546605 
L 336.865807 307.234755 
L 337.543299 307.962405 
L 338.220792 307.546605 
L 338.898285 307.546605 
L 339.575778 307.858455 
L 340.253271 307.442655 
L 340.930763 307.650555 
L 341.608256 307.442655 
L 342.285749 307.546605 
L 342.963242 307.338705 
L 343.640735 307.338705 
L 344.318227 305.779455 
L 344.99572 305.571555 
L 345.673213 305.883405 
L 346.350706 307.546605 
L 347.705691 307.650555 
L 348.383184 305.987355 
L 349.060677 307.754505 
L 349.73817 307.858455 
L 351.093155 307.650555 
L 351.770648 307.754505 
L 352.448141 307.546605 
L 353.125634 308.066355 
L 353.803126 308.170305 
L 355.158112 307.650555 
L 355.835605 307.858455 
L 356.513098 307.650555 
L 357.19059 307.858455 
L 357.868083 307.754505 
L 358.545576 307.858455 
L 359.223069 307.754505 
L 359.900562 305.883405 
L 360.578054 307.338705 
L 361.255547 307.962405 
L 361.93304 305.779455 
L 362.610533 307.546605 
L 363.288025 307.546605 
L 363.965518 308.066355 
L 365.320504 307.754505 
L 365.997997 308.066355 
L 368.707968 307.962405 
L 369.385461 307.754505 
L 370.062953 308.378205 
L 370.740446 308.482155 
L 371.417939 307.754505 
L 372.095432 308.378205 
L 372.772925 308.066355 
L 374.12791 308.482155 
L 374.805403 308.066355 
L 376.160389 308.170305 
L 376.837881 308.066355 
L 377.515374 306.195255 
L 378.192867 307.026855 
L 378.87036 308.690055 
L 379.547852 308.378205 
L 380.225345 308.482155 
L 380.902838 308.274255 
L 381.580331 307.858455 
L 382.257824 308.378205 
L 382.935316 308.690055 
L 383.612809 308.482155 
L 384.290302 308.586105 
L 386.32278 308.378205 
L 387.000273 308.378205 
L 387.677766 307.754505 
L 388.355259 308.274255 
L 389.032752 308.586105 
L 389.710244 307.650555 
L 390.387737 308.586105 
L 391.06523 306.299205 
L 391.742723 305.675505 
L 392.420216 306.403155 
L 393.097708 308.586105 
L 394.452694 308.586105 
L 395.130187 308.378205 
L 395.807679 309.001905 
L 396.485172 308.897955 
L 397.162665 309.001905 
L 397.840158 308.586105 
L 398.517651 308.690055 
L 399.195143 309.105855 
L 399.872636 308.378205 
L 401.227622 308.897955 
L 401.905115 307.026855 
L 402.582607 306.611055 
L 403.2601 308.170305 
L 403.937593 308.690055 
L 404.615086 307.130805 
L 405.292579 308.066355 
L 405.970071 308.586105 
L 406.647564 308.897955 
L 407.325057 308.586105 
L 408.00255 308.586105 
L 409.357535 309.105855 
L 410.035028 309.105855 
L 410.712521 308.690055 
L 411.390014 309.001905 
L 412.067506 308.586105 
L 412.744999 308.897955 
L 413.422492 308.586105 
L 414.777478 308.690055 
L 416.132463 308.794005 
L 418.164942 308.586105 
L 418.842434 307.754505 
L 419.519927 309.313755 
L 420.19742 307.234755 
L 420.874913 306.818955 
L 421.552406 307.234755 
L 422.229898 308.794005 
L 422.907391 308.794005 
L 423.584884 309.001905 
L 424.262377 308.794005 
L 424.939869 309.521655 
L 425.617362 309.313755 
L 426.294855 308.690055 
L 426.972348 309.521655 
L 427.649841 309.209805 
L 428.327333 309.521655 
L 429.004826 308.897955 
L 430.359812 308.690055 
L 431.037305 307.962405 
L 431.714797 308.378205 
L 433.069783 308.690055 
L 434.424769 307.962405 
L 435.102261 306.715005 
L 435.779754 305.883405 
L 436.457247 307.650555 
L 437.13474 308.690055 
L 437.812233 307.858455 
L 438.489725 308.690055 
L 439.167218 308.586105 
L 439.844711 308.794005 
L 440.522204 308.586105 
L 441.199696 307.962405 
L 441.877189 308.378205 
L 443.909668 308.794005 
L 445.264653 308.482155 
L 445.942146 308.482155 
L 446.619639 307.130805 
L 447.297132 307.234755 
L 447.974624 309.001905 
L 448.652117 308.690055 
L 450.007103 307.234755 
L 450.684596 308.897955 
L 452.039581 308.794005 
L 452.717074 309.105855 
L 454.072059 308.586105 
L 454.749552 309.313755 
L 455.427045 308.690055 
L 456.104538 308.897955 
L 456.782031 308.794005 
L 457.459523 309.209805 
L 458.137016 307.754505 
L 458.814509 309.313755 
L 459.492002 308.794005 
L 460.169495 307.962405 
L 460.846987 308.690055 
L 461.52448 307.026855 
L 462.201973 306.922905 
L 462.879466 307.754505 
L 463.556959 307.338705 
L 464.234451 306.507105 
L 464.911944 307.338705 
L 465.589437 308.586105 
L 466.26693 309.417705 
L 466.944423 308.482155 
L 467.621915 308.586105 
L 468.299408 308.378205 
L 468.976901 309.209805 
L 469.654394 309.001905 
L 470.331886 308.378205 
L 471.009379 309.105855 
L 471.686872 308.690055 
L 472.364365 308.690055 
L 473.041858 309.313755 
L 474.396843 308.897955 
L 475.074336 309.313755 
L 475.751829 308.690055 
L 476.429322 309.001905 
L 477.106814 306.922905 
L 477.784307 308.690055 
L 478.4618 306.922905 
L 479.139293 306.299205 
L 479.816786 306.195255 
L 480.494278 307.650555 
L 481.171771 308.066355 
L 481.849264 309.625605 
L 482.526757 308.690055 
L 483.20425 308.482155 
L 483.881742 308.690055 
L 484.559235 308.586105 
L 485.236728 309.313755 
L 485.914221 308.482155 
L 486.591713 308.897955 
L 487.269206 309.521655 
L 487.946699 308.794005 
L 488.624192 308.794005 
L 489.301685 308.274255 
L 489.979177 308.274255 
L 491.334163 309.521655 
L 492.011656 309.313755 
L 492.689149 308.586105 
L 493.366641 308.690055 
L 494.044134 308.378205 
L 494.721627 309.417705 
L 495.39912 308.794005 
L 497.431598 309.521655 
L 498.109091 309.105855 
L 498.109091 309.105855 
" clip-path="url(#p64ce09916c)" style="fill: none; stroke: #0000ff; stroke-opacity: 0.5; stroke-width: 1.5; stroke-linecap: square"/>
   </g>
   <g id="line2d_47">
    <path d="M 92.290909 357.442605 
L 92.968402 357.130755 
L 93.645895 357.338655 
L 95.00088 356.818905 
L 95.678373 356.611005 
L 96.355866 356.922855 
L 97.033359 356.403105 
L 97.710851 356.507055 
L 99.74333 355.987305 
L 100.420823 355.987305 
L 101.098315 355.675455 
L 102.453301 355.571505 
L 103.130794 355.571505 
L 103.808287 354.947805 
L 104.485779 355.051755 
L 105.163272 354.947805 
L 105.840765 355.155705 
L 106.518258 354.739905 
L 108.550736 354.012255 
L 109.228229 354.635955 
L 109.905722 354.116205 
L 110.583214 353.908305 
L 111.260707 353.908305 
L 111.9382 353.284605 
L 112.615693 353.492505 
L 113.293186 353.076705 
L 113.970678 352.972755 
L 114.648171 351.621405 
L 115.325664 352.453005 
L 116.003157 351.933255 
L 116.68065 352.245105 
L 117.358142 352.037205 
L 118.035635 351.621405 
L 118.713128 351.829305 
L 119.390621 351.309555 
L 120.068114 351.101655 
L 120.745606 351.205605 
L 121.423099 350.893755 
L 122.100592 350.893755 
L 122.778085 350.270055 
L 123.455577 350.374005 
L 124.13307 349.854255 
L 124.810563 349.958205 
L 125.488056 348.191055 
L 126.165549 347.671305 
L 126.843041 348.814755 
L 127.520534 348.710805 
L 129.553013 347.879205 
L 130.230505 347.255505 
L 130.907998 347.567355 
L 131.585491 347.047605 
L 132.262984 346.839705 
L 132.940477 346.423905 
L 134.295462 345.904155 
L 134.972955 345.592305 
L 135.650448 345.488355 
L 136.327941 344.864655 
L 137.005433 344.760705 
L 137.682926 344.240955 
L 138.360419 344.033055 
L 139.037912 343.201455 
L 139.715404 342.681705 
L 140.392897 342.785655 
L 141.07039 342.265905 
L 142.425376 341.746155 
L 143.102868 337.380255 
L 143.780361 337.484205 
L 145.135347 340.082955 
L 145.81284 339.667155 
L 146.490332 339.043455 
L 147.845318 338.523705 
L 148.522811 338.003955 
L 149.200304 337.276305 
L 149.877796 337.172355 
L 151.232782 336.236805 
L 151.910275 335.821005 
L 152.587767 335.197305 
L 153.942753 334.365705 
L 154.620246 333.118305 
L 155.297739 332.598555 
L 155.975231 331.559055 
L 156.652724 332.182755 
L 157.330217 331.559055 
L 158.00771 331.247205 
L 158.685203 330.727455 
L 159.362695 329.064255 
L 160.040188 329.895855 
L 161.395174 328.440555 
L 162.072667 328.128705 
L 166.137623 325.114155 
L 166.815116 323.866755 
L 167.492609 324.074655 
L 168.170102 323.658855 
L 169.525087 322.411455 
L 170.20258 321.268005 
L 170.880073 321.475905 
L 172.235058 320.852205 
L 172.912551 319.708755 
L 173.590044 317.837655 
L 174.267537 319.292955 
L 174.94503 319.396905 
L 178.332494 318.461355 
L 179.009986 317.733705 
L 179.687479 317.421855 
L 181.042465 317.317905 
L 181.719958 316.798155 
L 182.39745 316.798155 
L 183.074943 316.590255 
L 184.429929 314.199405 
L 185.107421 312.848055 
L 185.784914 313.887555 
L 186.462407 315.134955 
L 187.1399 314.927055 
L 187.817393 314.511255 
L 191.204857 313.367805 
L 191.882349 312.952005 
L 192.559842 312.848055 
L 193.237335 312.536205 
L 193.914828 312.016455 
L 194.592321 311.912505 
L 195.269813 311.600655 
L 195.947306 311.704605 
L 196.624799 310.976955 
L 197.302292 310.976955 
L 198.657277 310.249305 
L 199.33477 310.145355 
L 200.012263 309.729555 
L 200.689756 309.521655 
L 201.367248 307.234755 
L 202.044741 307.650555 
L 203.399727 307.858455 
L 204.07722 308.690055 
L 204.754712 308.378205 
L 207.464684 308.066355 
L 208.142176 307.650555 
L 208.819669 306.715005 
L 209.497162 306.507105 
L 210.174655 306.922905 
L 212.207133 306.507105 
L 212.884626 306.195255 
L 213.562119 306.403155 
L 214.239611 306.195255 
L 214.917104 304.116255 
L 215.594597 303.284655 
L 216.949583 305.363655 
L 217.627075 303.492555 
L 218.304568 304.947855 
L 218.982061 305.467605 
L 219.659554 302.557005 
L 220.337047 304.843905 
L 221.692032 305.051805 
L 222.369525 304.843905 
L 224.402003 304.739955 
L 225.079496 305.051805 
L 226.434482 304.636005 
L 227.111975 303.700455 
L 227.789467 304.220205 
L 228.46696 302.868855 
L 229.144453 302.141205 
L 229.821946 302.557005 
L 230.499438 300.374055 
L 231.176931 300.789855 
L 231.854424 303.076755 
L 232.531917 303.700455 
L 233.20941 304.012305 
L 234.564395 303.804405 
L 235.241888 303.076755 
L 235.919381 303.492555 
L 236.596874 300.997755 
L 237.274366 303.180705 
L 237.951859 303.284655 
L 239.306845 302.868855 
L 240.66183 302.972805 
L 241.339323 302.660955 
L 242.016816 302.557005 
L 242.694309 302.245155 
L 244.049294 302.453055 
L 244.726787 302.349105 
L 245.40428 300.478005 
L 246.081773 301.725405 
L 246.759265 302.349105 
L 247.436758 302.141205 
L 248.114251 302.349105 
L 248.791744 302.349105 
L 250.146729 301.829355 
L 251.501715 301.933305 
L 253.534193 301.725405 
L 254.211686 301.933305 
L 254.889179 301.933305 
L 255.566672 300.893805 
L 256.244165 299.542455 
L 256.921657 301.725405 
L 258.954136 301.933305 
L 259.631628 299.854305 
L 260.309121 301.621455 
L 260.986614 302.349105 
L 261.664107 301.101705 
L 262.3416 301.725405 
L 263.696585 301.829355 
L 264.374078 301.933305 
L 265.051571 302.349105 
L 265.729064 301.829355 
L 266.406556 302.141205 
L 267.084049 302.141205 
L 267.761542 301.829355 
L 268.439035 302.245155 
L 269.116528 301.933305 
L 269.79402 302.037255 
L 270.471513 301.829355 
L 271.826499 302.037255 
L 272.503992 301.933305 
L 273.181484 302.141205 
L 273.858977 299.854305 
L 274.53647 299.126655 
L 275.213963 301.725405 
L 275.891455 302.349105 
L 276.568948 302.037255 
L 277.246441 302.141205 
L 277.923934 302.037255 
L 279.278919 302.557005 
L 279.956412 302.349105 
L 280.633905 302.349105 
L 281.311398 302.557005 
L 281.988891 302.453055 
L 284.021369 302.764905 
L 284.698862 302.349105 
L 285.376355 302.660955 
L 286.053847 302.349105 
L 286.73134 302.557005 
L 287.408833 302.453055 
L 288.086326 300.478005 
L 288.763818 300.893805 
L 289.441311 302.557005 
L 290.796297 303.076755 
L 291.47379 302.660955 
L 292.151282 302.868855 
L 292.828775 302.868855 
L 293.506268 303.180705 
L 294.183761 302.868855 
L 294.861254 303.180705 
L 296.893732 303.388605 
L 297.571225 302.660955 
L 298.92621 303.180705 
L 299.603703 302.141205 
L 300.281196 302.972805 
L 300.958689 302.972805 
L 301.636182 302.660955 
L 302.313674 301.101705 
L 302.991167 302.037255 
L 303.66866 299.646405 
L 304.346153 300.270105 
L 305.023645 300.270105 
L 305.701138 303.180705 
L 306.378631 302.660955 
L 307.056124 302.868855 
L 307.733617 303.284655 
L 308.411109 302.972805 
L 309.766095 303.596505 
L 310.443588 303.388605 
L 311.121081 303.596505 
L 311.798573 303.492555 
L 312.476066 303.180705 
L 313.153559 301.933305 
L 313.831052 303.492555 
L 314.508545 303.180705 
L 315.186037 303.076755 
L 315.86353 300.997755 
L 316.541023 301.517505 
L 317.218516 302.972805 
L 317.896008 303.180705 
L 319.928487 303.076755 
L 320.60598 302.868855 
L 321.283472 303.388605 
L 321.960965 303.388605 
L 323.315951 303.804405 
L 323.993444 303.284655 
L 324.670936 303.076755 
L 325.348429 303.492555 
L 326.025922 303.284655 
L 326.703415 303.804405 
L 327.380908 303.388605 
L 328.0584 303.596505 
L 328.735893 303.388605 
L 329.413386 303.700455 
L 330.090879 301.413555 
L 330.768372 303.596505 
L 331.445864 303.908355 
L 332.123357 303.492555 
L 332.80085 303.596505 
L 333.478343 301.829355 
L 334.155835 303.596505 
L 334.833328 303.908355 
L 335.510821 303.908355 
L 336.188314 303.596505 
L 336.865807 302.557005 
L 337.543299 303.804405 
L 338.220792 303.596505 
L 340.253271 303.596505 
L 340.930763 303.804405 
L 341.608256 302.972805 
L 342.285749 303.908355 
L 342.963242 303.804405 
L 343.640735 304.116255 
L 344.318227 301.933305 
L 344.99572 301.309605 
L 345.673213 304.116255 
L 346.350706 303.700455 
L 347.705691 304.012305 
L 348.383184 302.245155 
L 349.060677 304.012305 
L 349.73817 304.220205 
L 350.415662 303.700455 
L 351.093155 303.804405 
L 351.770648 304.116255 
L 352.448141 304.116255 
L 353.125634 303.908355 
L 353.803126 304.116255 
L 354.480619 303.908355 
L 355.835605 304.012305 
L 356.513098 302.972805 
L 357.19059 304.220205 
L 357.868083 304.116255 
L 358.545576 304.532055 
L 359.223069 304.116255 
L 359.900562 302.557005 
L 360.578054 304.012305 
L 361.255547 304.116255 
L 361.93304 302.245155 
L 362.610533 304.220205 
L 363.288025 304.220205 
L 363.965518 304.428105 
L 364.643011 304.220205 
L 365.320504 304.428105 
L 367.352982 304.220205 
L 368.707968 304.532055 
L 369.385461 304.636005 
L 370.062953 304.220205 
L 370.740446 304.843905 
L 371.417939 304.220205 
L 372.095432 304.739955 
L 372.772925 304.428105 
L 373.450417 304.532055 
L 374.12791 304.843905 
L 374.805403 304.324155 
L 375.482896 304.739955 
L 376.160389 304.739955 
L 376.837881 304.532055 
L 377.515374 302.660955 
L 378.87036 304.636005 
L 379.547852 304.428105 
L 380.225345 304.636005 
L 380.902838 305.051805 
L 381.580331 304.532055 
L 382.935316 304.843905 
L 383.612809 304.947855 
L 384.290302 304.532055 
L 384.967795 305.051805 
L 385.645288 304.739955 
L 387.000273 304.843905 
L 387.677766 305.051805 
L 388.355259 304.843905 
L 389.710244 305.155755 
L 390.387737 305.259705 
L 391.06523 302.972805 
L 391.742723 302.245155 
L 392.420216 303.388605 
L 393.097708 305.259705 
L 393.775201 305.155755 
L 394.452694 301.725405 
L 395.130187 302.660955 
L 395.807679 305.363655 
L 396.485172 305.051805 
L 397.840158 305.259705 
L 398.517651 305.051805 
L 399.872636 305.571555 
L 400.550129 305.155755 
L 401.227622 305.363655 
L 401.905115 303.596505 
L 402.582607 303.180705 
L 403.2601 304.947855 
L 403.937593 305.051805 
L 404.615086 303.908355 
L 405.292579 303.700455 
L 405.970071 305.467605 
L 406.647564 305.571555 
L 407.325057 304.947855 
L 408.00255 305.571555 
L 408.680042 305.675505 
L 409.357535 305.467605 
L 410.035028 305.675505 
L 410.712521 305.467605 
L 411.390014 305.675505 
L 412.067506 302.972805 
L 412.744999 305.779455 
L 413.422492 305.571555 
L 414.099985 305.779455 
L 414.777478 305.571555 
L 415.45497 305.987355 
L 416.809956 305.779455 
L 417.487449 305.883405 
L 418.164942 305.259705 
L 418.842434 304.947855 
L 419.519927 306.091305 
L 420.19742 304.220205 
L 421.552406 304.428105 
L 422.229898 305.467605 
L 424.262377 306.091305 
L 426.294855 305.779455 
L 426.972348 305.883405 
L 427.649841 305.675505 
L 428.327333 305.883405 
L 430.359812 305.779455 
L 431.037305 305.675505 
L 431.714797 305.987355 
L 432.39229 305.779455 
L 433.069783 305.883405 
L 433.747276 305.571555 
L 434.424769 305.571555 
L 435.102261 304.012305 
L 435.779754 303.700455 
L 436.457247 305.779455 
L 437.812233 305.987355 
L 438.489725 305.883405 
L 439.167218 304.843905 
L 439.844711 305.259705 
L 440.522204 306.299205 
L 441.199696 305.883405 
L 441.877189 306.091305 
L 442.554682 305.675505 
L 443.232175 306.091305 
L 444.58716 306.195255 
L 445.264653 305.675505 
L 445.942146 305.987355 
L 446.619639 304.324155 
L 447.297132 305.675505 
L 447.974624 306.091305 
L 448.652117 306.091305 
L 449.32961 304.739955 
L 450.007103 302.868855 
L 450.684596 305.779455 
L 451.362088 306.091305 
L 452.717074 305.987355 
L 453.394567 306.195255 
L 454.072059 303.700455 
L 454.749552 306.507105 
L 455.427045 305.987355 
L 456.104538 305.675505 
L 457.459523 305.987355 
L 459.492002 305.987355 
L 460.169495 304.947855 
L 460.846987 305.987355 
L 461.52448 303.492555 
L 462.201973 304.947855 
L 462.879466 304.428105 
L 463.556959 305.467605 
L 464.234451 301.205655 
L 464.911944 301.933305 
L 465.589437 303.284655 
L 466.26693 304.324155 
L 466.944423 304.428105 
L 469.654394 305.987355 
L 470.331886 304.636005 
L 471.686872 305.987355 
L 473.041858 305.883405 
L 473.71935 305.883405 
L 474.396843 302.972805 
L 475.074336 305.779455 
L 475.751829 305.779455 
L 476.429322 302.868855 
L 477.106814 302.141205 
L 477.784307 302.557005 
L 478.4618 302.453055 
L 479.816786 301.413555 
L 480.494278 303.804405 
L 481.171771 305.571555 
L 481.849264 306.299205 
L 482.526757 306.195255 
L 483.881742 304.843905 
L 484.559235 305.883405 
L 485.236728 305.155755 
L 485.914221 306.195255 
L 486.591713 304.843905 
L 487.269206 306.299205 
L 487.946699 306.091305 
L 488.624192 305.675505 
L 489.301685 301.933305 
L 489.979177 304.012305 
L 490.65667 304.947855 
L 491.334163 306.403155 
L 492.011656 306.195255 
L 492.689149 306.299205 
L 493.366641 305.883405 
L 494.044134 305.883405 
L 495.39912 306.403155 
L 496.754105 306.091305 
L 497.431598 306.715005 
L 498.109091 306.507105 
L 498.109091 306.507105 
" clip-path="url(#p64ce09916c)" style="fill: none; stroke: #0000ff; stroke-opacity: 0.5; stroke-width: 1.5; stroke-linecap: square"/>
   </g>
   <g id="line2d_48">
    <path d="M 92.290909 357.130755 
L 92.968402 356.195205 
L 93.645895 356.818905 
L 94.323387 356.818905 
L 95.00088 356.299155 
L 95.678373 356.403105 
L 96.355866 355.987305 
L 97.033359 355.987305 
L 97.710851 356.507055 
L 99.065837 355.779405 
L 99.74333 355.051755 
L 100.420823 356.714955 
L 101.098315 356.299155 
L 101.775808 355.259655 
L 102.453301 355.779405 
L 103.130794 354.947805 
L 103.808287 355.259655 
L 104.485779 354.947805 
L 105.163272 354.012255 
L 106.518258 354.532005 
L 107.19575 354.116205 
L 107.873243 354.012255 
L 108.550736 354.324105 
L 109.228229 354.428055 
L 109.905722 353.076705 
L 110.583214 352.556955 
L 111.260707 352.764855 
L 111.9382 353.492505 
L 112.615693 352.868805 
L 113.293186 353.284605 
L 113.970678 352.972755 
L 114.648171 351.413505 
L 115.325664 352.037205 
L 116.003157 353.076705 
L 116.68065 352.764855 
L 117.358142 352.764855 
L 118.035635 352.037205 
L 118.713128 351.517455 
L 119.390621 351.517455 
L 120.068114 351.829305 
L 120.745606 351.517455 
L 121.423099 351.413505 
L 122.100592 350.685855 
L 122.778085 351.205605 
L 123.455577 350.581905 
L 124.13307 350.270055 
L 125.488056 349.126605 
L 126.165549 348.502905 
L 126.843041 349.438455 
L 127.520534 349.126605 
L 128.87552 349.230555 
L 131.585491 347.151555 
L 133.617969 347.359455 
L 134.295462 346.527855 
L 134.972955 346.216005 
L 135.650448 346.423905 
L 136.327941 344.760705 
L 137.005433 344.864655 
L 137.682926 345.384405 
L 138.360419 344.864655 
L 139.037912 344.033055 
L 140.392897 342.785655 
L 141.07039 343.825155 
L 141.747883 343.409355 
L 142.425376 343.305405 
L 143.102868 342.265905 
L 143.780361 342.577755 
L 144.457854 341.954055 
L 145.81284 341.226405 
L 147.167825 340.290855 
L 148.522811 339.771105 
L 149.200304 339.147405 
L 150.555289 338.627655 
L 151.232782 338.003955 
L 151.910275 336.444705 
L 152.587767 337.172355 
L 153.942753 336.028905 
L 155.297739 332.598555 
L 155.975231 332.494605 
L 156.652724 331.870905 
L 157.330217 333.534105 
L 158.00771 333.430155 
L 159.362695 332.078805 
L 160.040188 331.039305 
L 160.717681 330.623505 
L 161.395174 330.727455 
L 162.072667 330.415605 
L 162.750159 329.480055 
L 163.427652 328.752405 
L 165.460131 327.401055 
L 166.137623 326.673405 
L 166.815116 326.257605 
L 167.492609 325.426005 
L 168.170102 325.426005 
L 168.847594 325.114155 
L 169.525087 324.074655 
L 170.20258 323.554905 
L 170.880073 324.074655 
L 171.557566 323.970705 
L 172.235058 323.243055 
L 173.590044 320.332455 
L 174.267537 321.579855 
L 174.94503 321.787755 
L 176.977508 320.644305 
L 178.332494 320.124555 
L 179.009986 319.812705 
L 180.364972 319.500855 
L 181.042465 319.189005 
L 181.719958 319.189005 
L 182.39745 318.877155 
L 183.074943 318.981105 
L 183.752436 318.149505 
L 184.429929 317.733705 
L 185.784914 317.837655 
L 186.462407 317.317905 
L 187.817393 316.798155 
L 188.494885 316.590255 
L 189.172378 316.070505 
L 192.559842 314.927055 
L 193.237335 314.511255 
L 193.914828 314.303355 
L 194.592321 313.887555 
L 195.269813 313.159905 
L 195.947306 313.055955 
L 196.624799 313.263855 
L 197.302292 313.263855 
L 197.979784 312.432255 
L 198.657277 311.808555 
L 199.33477 311.704605 
L 200.012263 311.912505 
L 200.689756 311.704605 
L 201.367248 309.521655 
L 202.044741 309.729555 
L 202.722234 310.249305 
L 203.399727 310.561155 
L 204.754712 310.457205 
L 205.432205 309.833505 
L 206.787191 309.937455 
L 207.464684 309.625605 
L 208.142176 309.521655 
L 208.819669 308.482155 
L 209.497162 308.690055 
L 210.852148 308.066355 
L 211.52964 308.274255 
L 212.884626 307.754505 
L 213.562119 307.962405 
L 214.239611 307.650555 
L 214.917104 307.130805 
L 215.594597 306.299205 
L 216.27209 307.026855 
L 216.949583 307.130805 
L 217.627075 306.507105 
L 218.304568 306.818955 
L 218.982061 306.922905 
L 220.337047 306.195255 
L 221.692032 306.091305 
L 222.369525 305.883405 
L 223.047018 306.403155 
L 223.724511 305.987355 
L 227.111975 305.883405 
L 228.46696 304.947855 
L 229.144453 303.908355 
L 229.821946 305.051805 
L 230.499438 305.259705 
L 231.176931 305.051805 
L 233.20941 305.363655 
L 233.886902 305.259705 
L 234.564395 305.571555 
L 235.241888 305.155755 
L 235.919381 305.259705 
L 236.596874 305.051805 
L 237.274366 305.051805 
L 238.629352 304.636005 
L 239.306845 304.843905 
L 240.66183 304.947855 
L 241.339323 304.636005 
L 242.016816 304.843905 
L 242.694309 304.324155 
L 243.371801 304.636005 
L 244.726787 304.843905 
L 245.40428 304.012305 
L 246.081773 304.739955 
L 246.759265 304.739955 
L 247.436758 304.324155 
L 248.114251 304.636005 
L 248.791744 304.324155 
L 250.146729 304.220205 
L 252.179208 304.012305 
L 253.534193 304.428105 
L 254.211686 304.012305 
L 254.889179 304.012305 
L 255.566672 303.284655 
L 256.244165 303.908355 
L 256.921657 303.908355 
L 257.59915 303.596505 
L 258.276643 303.908355 
L 258.954136 303.908355 
L 259.631628 302.972805 
L 260.309121 304.012305 
L 260.986614 304.220205 
L 261.664107 303.388605 
L 262.3416 303.804405 
L 264.374078 304.324155 
L 265.051571 303.908355 
L 265.729064 304.116255 
L 266.406556 303.908355 
L 267.761542 304.220205 
L 269.116528 304.428105 
L 270.471513 304.324155 
L 271.149006 304.532055 
L 271.826499 304.220205 
L 272.503992 304.428105 
L 273.181484 304.220205 
L 273.858977 302.764905 
L 274.53647 302.660955 
L 275.213963 304.739955 
L 275.891455 304.843905 
L 276.568948 304.532055 
L 277.923934 304.739955 
L 278.601427 305.051805 
L 279.278919 304.947855 
L 279.956412 305.155755 
L 280.633905 305.051805 
L 281.311398 305.259705 
L 282.666383 304.947855 
L 284.021369 305.363655 
L 284.698862 305.051805 
L 286.053847 305.363655 
L 287.408833 305.363655 
L 288.086326 303.908355 
L 288.763818 305.155755 
L 290.796297 305.675505 
L 291.47379 305.675505 
L 292.151282 305.883405 
L 292.828775 305.571555 
L 293.506268 305.883405 
L 294.183761 305.571555 
L 295.538746 306.299205 
L 296.216239 305.987355 
L 296.893732 306.195255 
L 298.248718 306.091305 
L 301.636182 305.987355 
L 302.313674 304.947855 
L 302.991167 306.403155 
L 303.66866 306.507105 
L 304.346153 306.403155 
L 305.023645 305.675505 
L 305.701138 306.507105 
L 306.378631 306.299205 
L 307.056124 306.611055 
L 307.733617 306.715005 
L 309.088602 306.403155 
L 309.766095 306.818955 
L 310.443588 306.715005 
L 311.798573 306.818955 
L 313.153559 306.715005 
L 313.831052 306.922905 
L 315.186037 306.922905 
L 315.86353 305.155755 
L 316.541023 306.611055 
L 317.218516 306.922905 
L 318.573501 307.026855 
L 319.928487 307.026855 
L 320.60598 307.234755 
L 321.283472 305.155755 
L 321.960965 307.234755 
L 323.993444 307.442655 
L 324.670936 307.338705 
L 325.348429 307.650555 
L 326.025922 307.338705 
L 328.0584 307.546605 
L 328.735893 307.442655 
L 329.413386 307.858455 
L 330.090879 305.259705 
L 330.768372 307.650555 
L 331.445864 307.754505 
L 332.123357 307.650555 
L 332.80085 306.299205 
L 333.478343 305.363655 
L 334.155835 307.442655 
L 335.510821 308.378205 
L 336.865807 308.066355 
L 337.543299 308.378205 
L 338.220792 307.754505 
L 339.575778 308.274255 
L 340.253271 308.066355 
L 340.930763 308.482155 
L 341.608256 308.170305 
L 342.285749 308.482155 
L 342.963242 308.170305 
L 343.640735 308.170305 
L 344.318227 306.818955 
L 344.99572 306.299205 
L 345.673213 308.274255 
L 347.705691 308.482155 
L 348.383184 306.922905 
L 349.060677 308.482155 
L 349.73817 308.690055 
L 351.093155 308.170305 
L 351.770648 308.794005 
L 352.448141 308.482155 
L 353.803126 308.794005 
L 354.480619 308.586105 
L 355.835605 309.001905 
L 357.19059 308.897955 
L 357.868083 309.105855 
L 358.545576 306.611055 
L 359.223069 309.001905 
L 359.900562 307.234755 
L 360.578054 309.209805 
L 361.255547 308.794005 
L 361.93304 307.858455 
L 362.610533 309.001905 
L 363.288025 306.715005 
L 363.965518 309.001905 
L 364.643011 309.417705 
L 365.320504 309.209805 
L 366.675489 309.105855 
L 367.352982 309.001905 
L 368.030475 309.105855 
L 368.707968 309.417705 
L 370.062953 309.209805 
L 370.740446 309.937455 
L 371.417939 309.313755 
L 372.772925 309.417705 
L 373.450417 309.313755 
L 374.12791 309.729555 
L 374.805403 309.417705 
L 376.160389 309.417705 
L 376.837881 309.729555 
L 377.515374 307.442655 
L 378.192867 309.521655 
L 378.87036 309.625605 
L 379.547852 310.041405 
L 380.225345 309.625605 
L 382.257824 309.625605 
L 382.935316 310.041405 
L 383.612809 310.041405 
L 384.290302 309.209805 
L 384.967795 310.041405 
L 385.645288 310.353255 
L 386.32278 309.521655 
L 387.677766 310.145355 
L 388.355259 310.145355 
L 389.032752 309.937455 
L 389.710244 309.209805 
L 390.387737 310.145355 
L 391.06523 308.274255 
L 391.742723 307.754505 
L 392.420216 309.209805 
L 393.097708 310.041405 
L 393.775201 310.353255 
L 394.452694 310.249305 
L 395.807679 310.561155 
L 396.485172 310.249305 
L 397.840158 310.769055 
L 398.517651 310.665105 
L 399.195143 310.976955 
L 399.872636 310.457205 
L 400.550129 310.561155 
L 401.227622 310.873005 
L 401.905115 308.897955 
L 402.582607 309.521655 
L 403.2601 310.561155 
L 403.937593 310.561155 
L 404.615086 307.754505 
L 405.292579 307.858455 
L 405.970071 310.145355 
L 406.647564 310.769055 
L 407.325057 311.184855 
L 408.00255 310.769055 
L 408.680042 310.873005 
L 409.357535 311.184855 
L 410.035028 311.288805 
L 410.712521 310.769055 
L 411.390014 311.184855 
L 412.067506 310.873005 
L 412.744999 311.600655 
L 413.422492 311.080905 
L 414.099985 311.392755 
L 414.777478 311.080905 
L 415.45497 311.600655 
L 416.809956 311.600655 
L 417.487449 311.080905 
L 418.164942 311.080905 
L 418.842434 307.754505 
L 419.519927 309.521655 
L 420.19742 307.338705 
L 420.874913 306.195255 
L 421.552406 306.091305 
L 422.229898 307.130805 
L 422.907391 310.769055 
L 423.584884 311.392755 
L 424.262377 311.184855 
L 424.939869 311.600655 
L 425.617362 311.704605 
L 426.294855 311.600655 
L 426.972348 311.704605 
L 427.649841 311.600655 
L 428.327333 311.912505 
L 431.037305 312.016455 
L 431.714797 309.209805 
L 432.39229 309.833505 
L 433.069783 311.912505 
L 434.424769 311.392755 
L 435.102261 309.833505 
L 435.779754 309.521655 
L 436.457247 311.808555 
L 437.13474 311.808555 
L 437.812233 312.120405 
L 438.489725 311.912505 
L 440.522204 312.640155 
L 441.877189 311.704605 
L 442.554682 311.912505 
L 443.232175 312.744105 
L 443.909668 312.640155 
L 444.58716 312.848055 
L 445.942146 312.432255 
L 446.619639 310.561155 
L 447.297132 312.328305 
L 447.974624 312.536205 
L 448.652117 311.912505 
L 449.32961 311.808555 
L 450.007103 312.432255 
L 450.684596 312.536205 
L 451.362088 312.328305 
L 452.039581 312.744105 
L 452.717074 312.640155 
L 453.394567 312.016455 
L 454.072059 312.328305 
L 454.749552 313.159905 
L 455.427045 312.640155 
L 456.104538 312.432255 
L 458.137016 313.263855 
L 458.814509 313.055955 
L 459.492002 313.367805 
L 460.169495 312.328305 
L 460.846987 312.848055 
L 461.52448 310.249305 
L 462.201973 311.288805 
L 462.879466 311.496705 
L 463.556959 312.952005 
L 464.234451 311.600655 
L 464.911944 311.392755 
L 465.589437 313.263855 
L 466.26693 313.367805 
L 467.621915 313.055955 
L 468.299408 312.848055 
L 468.976901 313.159905 
L 469.654394 312.952005 
L 470.331886 313.159905 
L 471.009379 313.159905 
L 471.686872 312.640155 
L 472.364365 313.575705 
L 473.041858 313.159905 
L 473.71935 313.679655 
L 474.396843 313.783605 
L 475.074336 313.367805 
L 476.429322 313.471755 
L 477.106814 311.704605 
L 477.784307 313.263855 
L 478.4618 310.873005 
L 479.139293 310.561155 
L 479.816786 309.521655 
L 480.494278 312.432255 
L 481.171771 313.679655 
L 481.849264 313.887555 
L 482.526757 313.471755 
L 483.20425 313.471755 
L 483.881742 313.679655 
L 484.559235 312.952005 
L 486.591713 313.887555 
L 489.301685 313.471755 
L 489.979177 313.991505 
L 490.65667 313.471755 
L 491.334163 314.303355 
L 492.689149 313.055955 
L 493.366641 314.095455 
L 494.044134 313.887555 
L 494.721627 313.263855 
L 495.39912 314.199405 
L 496.076613 314.303355 
L 496.754105 313.991505 
L 497.431598 314.095455 
L 498.109091 313.887555 
L 498.109091 313.887555 
" clip-path="url(#p64ce09916c)" style="fill: none; stroke: #0000ff; stroke-opacity: 0.5; stroke-width: 1.5; stroke-linecap: square"/>
   </g>
   <g id="LineCollection_1">
    <path d="M 92.290909 358.087659 
L 92.290909 356.537676 
" clip-path="url(#p64ce09916c)" style="fill: none; stroke: #ff0000; stroke-width: 1.5"/>
    <path d="M 119.390621 352.462384 
L 119.390621 350.052776 
" clip-path="url(#p64ce09916c)" style="fill: none; stroke: #ff0000; stroke-width: 1.5"/>
    <path d="M 146.490332 341.680765 
L 146.490332 335.93837 
" clip-path="url(#p64ce09916c)" style="fill: none; stroke: #ff0000; stroke-width: 1.5"/>
    <path d="M 173.590044 320.902281 
L 173.590044 316.280304 
" clip-path="url(#p64ce09916c)" style="fill: none; stroke: #ff0000; stroke-width: 1.5"/>
    <path d="M 200.689756 313.237867 
L 200.689756 306.481117 
" clip-path="url(#p64ce09916c)" style="fill: none; stroke: #ff0000; stroke-width: 1.5"/>
    <path d="M 227.789467 307.659503 
L 227.789467 301.612507 
" clip-path="url(#p64ce09916c)" style="fill: none; stroke: #ff0000; stroke-width: 1.5"/>
    <path d="M 254.889179 305.898281 
L 254.889179 299.527579 
" clip-path="url(#p64ce09916c)" style="fill: none; stroke: #ff0000; stroke-width: 1.5"/>
    <path d="M 281.988891 306.31301 
L 281.988891 300.412225 
" clip-path="url(#p64ce09916c)" style="fill: none; stroke: #ff0000; stroke-width: 1.5"/>
    <path d="M 309.088602 307.398593 
L 309.088602 300.989842 
" clip-path="url(#p64ce09916c)" style="fill: none; stroke: #ff0000; stroke-width: 1.5"/>
    <path d="M 336.188314 308.484779 
L 336.188314 301.618831 
" clip-path="url(#p64ce09916c)" style="fill: none; stroke: #ff0000; stroke-width: 1.5"/>
    <path d="M 363.288025 307.681555 
L 363.288025 302.422055 
" clip-path="url(#p64ce09916c)" style="fill: none; stroke: #ff0000; stroke-width: 1.5"/>
    <path d="M 390.387737 310.051366 
L 390.387737 303.170744 
" clip-path="url(#p64ce09916c)" style="fill: none; stroke: #ff0000; stroke-width: 1.5"/>
    <path d="M 417.487449 310.726437 
L 417.487449 303.379248 
" clip-path="url(#p64ce09916c)" style="fill: none; stroke: #ff0000; stroke-width: 1.5"/>
    <path d="M 444.58716 311.771781 
L 444.58716 303.685254 
" clip-path="url(#p64ce09916c)" style="fill: none; stroke: #ff0000; stroke-width: 1.5"/>
    <path d="M 471.686872 311.608118 
L 471.686872 303.848917 
" clip-path="url(#p64ce09916c)" style="fill: none; stroke: #ff0000; stroke-width: 1.5"/>
   </g>
   <g id="line2d_49">
    <defs>
     <path id="m430898217e" d="M 5 0 
L -5 -0 
" style="stroke: #ff0000"/>
    </defs>
    <g clip-path="url(#p64ce09916c)">
     <use xlink:href="#m430898217e" x="92.290909" y="358.087659" style="fill: #ff0000; stroke: #ff0000"/>
     <use xlink:href="#m430898217e" x="119.390621" y="352.462384" style="fill: #ff0000; stroke: #ff0000"/>
     <use xlink:href="#m430898217e" x="146.490332" y="341.680765" style="fill: #ff0000; stroke: #ff0000"/>
     <use xlink:href="#m430898217e" x="173.590044" y="320.902281" style="fill: #ff0000; stroke: #ff0000"/>
     <use xlink:href="#m430898217e" x="200.689756" y="313.237867" style="fill: #ff0000; stroke: #ff0000"/>
     <use xlink:href="#m430898217e" x="227.789467" y="307.659503" style="fill: #ff0000; stroke: #ff0000"/>
     <use xlink:href="#m430898217e" x="254.889179" y="305.898281" style="fill: #ff0000; stroke: #ff0000"/>
     <use xlink:href="#m430898217e" x="281.988891" y="306.31301" style="fill: #ff0000; stroke: #ff0000"/>
     <use xlink:href="#m430898217e" x="309.088602" y="307.398593" style="fill: #ff0000; stroke: #ff0000"/>
     <use xlink:href="#m430898217e" x="336.188314" y="308.484779" style="fill: #ff0000; stroke: #ff0000"/>
     <use xlink:href="#m430898217e" x="363.288025" y="307.681555" style="fill: #ff0000; stroke: #ff0000"/>
     <use xlink:href="#m430898217e" x="390.387737" y="310.051366" style="fill: #ff0000; stroke: #ff0000"/>
     <use xlink:href="#m430898217e" x="417.487449" y="310.726437" style="fill: #ff0000; stroke: #ff0000"/>
     <use xlink:href="#m430898217e" x="444.58716" y="311.771781" style="fill: #ff0000; stroke: #ff0000"/>
     <use xlink:href="#m430898217e" x="471.686872" y="311.608118" style="fill: #ff0000; stroke: #ff0000"/>
    </g>
   </g>
   <g id="line2d_50">
    <g clip-path="url(#p64ce09916c)">
     <use xlink:href="#m430898217e" x="92.290909" y="356.537676" style="fill: #ff0000; stroke: #ff0000"/>
     <use xlink:href="#m430898217e" x="119.390621" y="350.052776" style="fill: #ff0000; stroke: #ff0000"/>
     <use xlink:href="#m430898217e" x="146.490332" y="335.93837" style="fill: #ff0000; stroke: #ff0000"/>
     <use xlink:href="#m430898217e" x="173.590044" y="316.280304" style="fill: #ff0000; stroke: #ff0000"/>
     <use xlink:href="#m430898217e" x="200.689756" y="306.481117" style="fill: #ff0000; stroke: #ff0000"/>
     <use xlink:href="#m430898217e" x="227.789467" y="301.612507" style="fill: #ff0000; stroke: #ff0000"/>
     <use xlink:href="#m430898217e" x="254.889179" y="299.527579" style="fill: #ff0000; stroke: #ff0000"/>
     <use xlink:href="#m430898217e" x="281.988891" y="300.412225" style="fill: #ff0000; stroke: #ff0000"/>
     <use xlink:href="#m430898217e" x="309.088602" y="300.989842" style="fill: #ff0000; stroke: #ff0000"/>
     <use xlink:href="#m430898217e" x="336.188314" y="301.618831" style="fill: #ff0000; stroke: #ff0000"/>
     <use xlink:href="#m430898217e" x="363.288025" y="302.422055" style="fill: #ff0000; stroke: #ff0000"/>
     <use xlink:href="#m430898217e" x="390.387737" y="303.170744" style="fill: #ff0000; stroke: #ff0000"/>
     <use xlink:href="#m430898217e" x="417.487449" y="303.379248" style="fill: #ff0000; stroke: #ff0000"/>
     <use xlink:href="#m430898217e" x="444.58716" y="303.685254" style="fill: #ff0000; stroke: #ff0000"/>
     <use xlink:href="#m430898217e" x="471.686872" y="303.848917" style="fill: #ff0000; stroke: #ff0000"/>
    </g>
   </g>
   <g id="line2d_51">
    <path d="M 92.290909 357.312667 
L 119.390621 351.25758 
L 146.490332 338.809568 
L 173.590044 318.591293 
L 200.689756 309.859492 
L 227.789467 304.636005 
L 254.889179 302.71293 
L 281.988891 303.362617 
L 309.088602 304.194217 
L 336.188314 305.051805 
L 363.288025 305.051805 
L 390.387737 306.611055 
L 417.487449 307.052842 
L 444.58716 307.728517 
L 471.686872 307.728518 
" clip-path="url(#p64ce09916c)" style="fill: none; stroke: #ff0000; stroke-width: 1.5; stroke-linecap: square"/>
   </g>
   <g id="patch_3">
    <path d="M 72 384.48 
L 72 51.84 
" style="fill: none; stroke: #000000; stroke-width: 0.8; stroke-linejoin: miter; stroke-linecap: square"/>
   </g>
   <g id="patch_4">
    <path d="M 518.4 384.48 
L 518.4 51.84 
" style="fill: none; stroke: #000000; stroke-width: 0.8; stroke-linejoin: miter; stroke-linecap: square"/>
   </g>
   <g id="patch_5">
    <path d="M 72 384.48 
L 518.4 384.48 
" style="fill: none; stroke: #000000; stroke-width: 0.8; stroke-linejoin: miter; stroke-linecap: square"/>
   </g>
   <g id="patch_6">
    <path d="M 72 51.84 
L 518.4 51.84 
" style="fill: none; stroke: #000000; stroke-width: 0.8; stroke-linejoin: miter; stroke-linecap: square"/>
   </g>
   <g id="text_25">
    <!-- M19: Methionin; Isoleucin -->
    <g transform="translate(231.201562 45.84) scale(0.1 -0.1)">
     <defs>
      <path id="DejaVuSans-4d" d="M 628 4666 
L 1569 4666 
L 2759 1491 
L 3956 4666 
L 4897 4666 
L 4897 0 
L 4281 0 
L 4281 4097 
L 3078 897 
L 2444 897 
L 1241 4097 
L 1241 0 
L 628 0 
L 628 4666 
z
" transform="scale(0.015625)"/>
      <path id="DejaVuSans-3a" d="M 750 794 
L 1409 794 
L 1409 0 
L 750 0 
L 750 794 
z
M 750 3309 
L 1409 3309 
L 1409 2516 
L 750 2516 
L 750 3309 
z
" transform="scale(0.015625)"/>
      <path id="DejaVuSans-3b" d="M 750 3309 
L 1409 3309 
L 1409 2516 
L 750 2516 
L 750 3309 
z
M 750 794 
L 1409 794 
L 1409 256 
L 897 -744 
L 494 -744 
L 750 256 
L 750 794 
z
" transform="scale(0.015625)"/>
      <path id="DejaVuSans-49" d="M 628 4666 
L 1259 4666 
L 1259 0 
L 628 0 
L 628 4666 
z
" transform="scale(0.015625)"/>
     </defs>
     <use xlink:href="#DejaVuSans-4d"/>
     <use xlink:href="#DejaVuSans-31" x="86.279297"/>
     <use xlink:href="#DejaVuSans-39" x="149.902344"/>
     <use xlink:href="#DejaVuSans-3a" x="213.525391"/>
     <use xlink:href="#DejaVuSans-20" x="247.216797"/>
     <use xlink:href="#DejaVuSans-4d" x="279.003906"/>
     <use xlink:href="#DejaVuSans-65" x="365.283203"/>
     <use xlink:href="#DejaVuSans-74" x="426.806641"/>
     <use xlink:href="#DejaVuSans-68" x="466.015625"/>
     <use xlink:href="#DejaVuSans-69" x="529.394531"/>
     <use xlink:href="#DejaVuSans-6f" x="557.177734"/>
     <use xlink:href="#DejaVuSans-6e" x="618.359375"/>
     <use xlink:href="#DejaVuSans-69" x="681.738281"/>
     <use xlink:href="#DejaVuSans-6e" x="709.521484"/>
     <use xlink:href="#DejaVuSans-3b" x="772.900391"/>
     <use xlink:href="#DejaVuSans-20" x="806.591797"/>
     <use xlink:href="#DejaVuSans-49" x="838.378906"/>
     <use xlink:href="#DejaVuSans-73" x="867.871094"/>
     <use xlink:href="#DejaVuSans-6f" x="919.970703"/>
     <use xlink:href="#DejaVuSans-6c" x="981.152344"/>
     <use xlink:href="#DejaVuSans-65" x="1008.935547"/>
     <use xlink:href="#DejaVuSans-75" x="1070.458984"/>
     <use xlink:href="#DejaVuSans-63" x="1133.837891"/>
     <use xlink:href="#DejaVuSans-69" x="1188.818359"/>
     <use xlink:href="#DejaVuSans-6e" x="1216.601562"/>
    </g>
   </g>
  </g>
 </g>
 <defs>
  <clipPath id="p64ce09916c">
   <rect x="72" y="51.84" width="446.4" height="332.64"/>
  </clipPath>
 </defs>
</svg>
