<?xml version="1.0" encoding="utf-8" standalone="no"?>
<!DOCTYPE svg PUBLIC "-//W3C//DTD SVG 1.1//EN"
  "http://www.w3.org/Graphics/SVG/1.1/DTD/svg11.dtd">
<svg xmlns:xlink="http://www.w3.org/1999/xlink" width="576pt" height="432pt" viewBox="0 0 576 432" xmlns="http://www.w3.org/2000/svg" version="1.1">
 <metadata>
  <rdf:RDF xmlns:dc="http://purl.org/dc/elements/1.1/" xmlns:cc="http://creativecommons.org/ns#" xmlns:rdf="http://www.w3.org/1999/02/22-rdf-syntax-ns#">
   <cc:Work>
    <dc:type rdf:resource="http://purl.org/dc/dcmitype/StillImage"/>
    <dc:date>2024-11-12T14:09:18.565864</dc:date>
    <dc:format>image/svg+xml</dc:format>
    <dc:creator>
     <cc:Agent>
      <dc:title>Matplotlib v3.7.5, https://matplotlib.org/</dc:title>
     </cc:Agent>
    </dc:creator>
   </cc:Work>
  </rdf:RDF>
 </metadata>
 <defs>
  <style type="text/css">*{stroke-linejoin: round; stroke-linecap: butt}</style>
 </defs>
 <g id="figure_1">
  <g id="patch_1">
   <path d="M 0 432 
L 576 432 
L 576 0 
L 0 0 
z
" style="fill: #ffffff"/>
  </g>
  <g id="axes_1">
   <g id="patch_2">
    <path d="M 72 384.48 
L 518.4 384.48 
L 518.4 51.84 
L 72 51.84 
z
" style="fill: #ffffff"/>
   </g>
   <g id="matplotlib.axis_1">
    <g id="xtick_1">
     <g id="line2d_1">
      <path d="M 92.290909 384.48 
L 92.290909 51.84 
" clip-path="url(#p7310029568)" style="fill: none; stroke: #b0b0b0; stroke-width: 0.8; stroke-linecap: square"/>
     </g>
     <g id="line2d_2">
      <defs>
       <path id="mc93423f4b7" d="M 0 0 
L 0 3.5 
" style="stroke: #000000; stroke-width: 0.8"/>
      </defs>
      <g>
       <use xlink:href="#mc93423f4b7" x="92.290909" y="384.48" style="stroke: #000000; stroke-width: 0.8"/>
      </g>
     </g>
     <g id="text_1">
      <!-- 0.17 -->
      <g transform="translate(81.158097 399.078438) scale(0.1 -0.1)">
       <defs>
        <path id="DejaVuSans-30" d="M 2034 4250 
Q 1547 4250 1301 3770 
Q 1056 3291 1056 2328 
Q 1056 1369 1301 889 
Q 1547 409 2034 409 
Q 2525 409 2770 889 
Q 3016 1369 3016 2328 
Q 3016 3291 2770 3770 
Q 2525 4250 2034 4250 
z
M 2034 4750 
Q 2819 4750 3233 4129 
Q 3647 3509 3647 2328 
Q 3647 1150 3233 529 
Q 2819 -91 2034 -91 
Q 1250 -91 836 529 
Q 422 1150 422 2328 
Q 422 3509 836 4129 
Q 1250 4750 2034 4750 
z
" transform="scale(0.015625)"/>
        <path id="DejaVuSans-2e" d="M 684 794 
L 1344 794 
L 1344 0 
L 684 0 
L 684 794 
z
" transform="scale(0.015625)"/>
        <path id="DejaVuSans-31" d="M 794 531 
L 1825 531 
L 1825 4091 
L 703 3866 
L 703 4441 
L 1819 4666 
L 2450 4666 
L 2450 531 
L 3481 531 
L 3481 0 
L 794 0 
L 794 531 
z
" transform="scale(0.015625)"/>
        <path id="DejaVuSans-37" d="M 525 4666 
L 3525 4666 
L 3525 4397 
L 1831 0 
L 1172 0 
L 2766 4134 
L 525 4134 
L 525 4666 
z
" transform="scale(0.015625)"/>
       </defs>
       <use xlink:href="#DejaVuSans-30"/>
       <use xlink:href="#DejaVuSans-2e" x="63.623047"/>
       <use xlink:href="#DejaVuSans-31" x="95.410156"/>
       <use xlink:href="#DejaVuSans-37" x="159.033203"/>
      </g>
     </g>
    </g>
    <g id="xtick_2">
     <g id="line2d_3">
      <path d="M 119.390621 384.48 
L 119.390621 51.84 
" clip-path="url(#p7310029568)" style="fill: none; stroke: #b0b0b0; stroke-width: 0.8; stroke-linecap: square"/>
     </g>
     <g id="line2d_4">
      <g>
       <use xlink:href="#mc93423f4b7" x="119.390621" y="384.48" style="stroke: #000000; stroke-width: 0.8"/>
      </g>
     </g>
     <g id="text_2">
      <!-- 6.83 -->
      <g transform="translate(108.257808 399.078438) scale(0.1 -0.1)">
       <defs>
        <path id="DejaVuSans-36" d="M 2113 2584 
Q 1688 2584 1439 2293 
Q 1191 2003 1191 1497 
Q 1191 994 1439 701 
Q 1688 409 2113 409 
Q 2538 409 2786 701 
Q 3034 994 3034 1497 
Q 3034 2003 2786 2293 
Q 2538 2584 2113 2584 
z
M 3366 4563 
L 3366 3988 
Q 3128 4100 2886 4159 
Q 2644 4219 2406 4219 
Q 1781 4219 1451 3797 
Q 1122 3375 1075 2522 
Q 1259 2794 1537 2939 
Q 1816 3084 2150 3084 
Q 2853 3084 3261 2657 
Q 3669 2231 3669 1497 
Q 3669 778 3244 343 
Q 2819 -91 2113 -91 
Q 1303 -91 875 529 
Q 447 1150 447 2328 
Q 447 3434 972 4092 
Q 1497 4750 2381 4750 
Q 2619 4750 2861 4703 
Q 3103 4656 3366 4563 
z
" transform="scale(0.015625)"/>
        <path id="DejaVuSans-38" d="M 2034 2216 
Q 1584 2216 1326 1975 
Q 1069 1734 1069 1313 
Q 1069 891 1326 650 
Q 1584 409 2034 409 
Q 2484 409 2743 651 
Q 3003 894 3003 1313 
Q 3003 1734 2745 1975 
Q 2488 2216 2034 2216 
z
M 1403 2484 
Q 997 2584 770 2862 
Q 544 3141 544 3541 
Q 544 4100 942 4425 
Q 1341 4750 2034 4750 
Q 2731 4750 3128 4425 
Q 3525 4100 3525 3541 
Q 3525 3141 3298 2862 
Q 3072 2584 2669 2484 
Q 3125 2378 3379 2068 
Q 3634 1759 3634 1313 
Q 3634 634 3220 271 
Q 2806 -91 2034 -91 
Q 1263 -91 848 271 
Q 434 634 434 1313 
Q 434 1759 690 2068 
Q 947 2378 1403 2484 
z
M 1172 3481 
Q 1172 3119 1398 2916 
Q 1625 2713 2034 2713 
Q 2441 2713 2670 2916 
Q 2900 3119 2900 3481 
Q 2900 3844 2670 4047 
Q 2441 4250 2034 4250 
Q 1625 4250 1398 4047 
Q 1172 3844 1172 3481 
z
" transform="scale(0.015625)"/>
        <path id="DejaVuSans-33" d="M 2597 2516 
Q 3050 2419 3304 2112 
Q 3559 1806 3559 1356 
Q 3559 666 3084 287 
Q 2609 -91 1734 -91 
Q 1441 -91 1130 -33 
Q 819 25 488 141 
L 488 750 
Q 750 597 1062 519 
Q 1375 441 1716 441 
Q 2309 441 2620 675 
Q 2931 909 2931 1356 
Q 2931 1769 2642 2001 
Q 2353 2234 1838 2234 
L 1294 2234 
L 1294 2753 
L 1863 2753 
Q 2328 2753 2575 2939 
Q 2822 3125 2822 3475 
Q 2822 3834 2567 4026 
Q 2313 4219 1838 4219 
Q 1578 4219 1281 4162 
Q 984 4106 628 3988 
L 628 4550 
Q 988 4650 1302 4700 
Q 1616 4750 1894 4750 
Q 2613 4750 3031 4423 
Q 3450 4097 3450 3541 
Q 3450 3153 3228 2886 
Q 3006 2619 2597 2516 
z
" transform="scale(0.015625)"/>
       </defs>
       <use xlink:href="#DejaVuSans-36"/>
       <use xlink:href="#DejaVuSans-2e" x="63.623047"/>
       <use xlink:href="#DejaVuSans-38" x="95.410156"/>
       <use xlink:href="#DejaVuSans-33" x="159.033203"/>
      </g>
     </g>
    </g>
    <g id="xtick_3">
     <g id="line2d_5">
      <path d="M 146.490332 384.48 
L 146.490332 51.84 
" clip-path="url(#p7310029568)" style="fill: none; stroke: #b0b0b0; stroke-width: 0.8; stroke-linecap: square"/>
     </g>
     <g id="line2d_6">
      <g>
       <use xlink:href="#mc93423f4b7" x="146.490332" y="384.48" style="stroke: #000000; stroke-width: 0.8"/>
      </g>
     </g>
     <g id="text_3">
      <!-- 13.5 -->
      <g transform="translate(135.35752 399.078438) scale(0.1 -0.1)">
       <defs>
        <path id="DejaVuSans-35" d="M 691 4666 
L 3169 4666 
L 3169 4134 
L 1269 4134 
L 1269 2991 
Q 1406 3038 1543 3061 
Q 1681 3084 1819 3084 
Q 2600 3084 3056 2656 
Q 3513 2228 3513 1497 
Q 3513 744 3044 326 
Q 2575 -91 1722 -91 
Q 1428 -91 1123 -41 
Q 819 9 494 109 
L 494 744 
Q 775 591 1075 516 
Q 1375 441 1709 441 
Q 2250 441 2565 725 
Q 2881 1009 2881 1497 
Q 2881 1984 2565 2268 
Q 2250 2553 1709 2553 
Q 1456 2553 1204 2497 
Q 953 2441 691 2322 
L 691 4666 
z
" transform="scale(0.015625)"/>
       </defs>
       <use xlink:href="#DejaVuSans-31"/>
       <use xlink:href="#DejaVuSans-33" x="63.623047"/>
       <use xlink:href="#DejaVuSans-2e" x="127.246094"/>
       <use xlink:href="#DejaVuSans-35" x="159.033203"/>
      </g>
     </g>
    </g>
    <g id="xtick_4">
     <g id="line2d_7">
      <path d="M 173.590044 384.48 
L 173.590044 51.84 
" clip-path="url(#p7310029568)" style="fill: none; stroke: #b0b0b0; stroke-width: 0.8; stroke-linecap: square"/>
     </g>
     <g id="line2d_8">
      <g>
       <use xlink:href="#mc93423f4b7" x="173.590044" y="384.48" style="stroke: #000000; stroke-width: 0.8"/>
      </g>
     </g>
     <g id="text_4">
      <!-- 20.17 -->
      <g transform="translate(159.275982 399.078438) scale(0.1 -0.1)">
       <defs>
        <path id="DejaVuSans-32" d="M 1228 531 
L 3431 531 
L 3431 0 
L 469 0 
L 469 531 
Q 828 903 1448 1529 
Q 2069 2156 2228 2338 
Q 2531 2678 2651 2914 
Q 2772 3150 2772 3378 
Q 2772 3750 2511 3984 
Q 2250 4219 1831 4219 
Q 1534 4219 1204 4116 
Q 875 4013 500 3803 
L 500 4441 
Q 881 4594 1212 4672 
Q 1544 4750 1819 4750 
Q 2544 4750 2975 4387 
Q 3406 4025 3406 3419 
Q 3406 3131 3298 2873 
Q 3191 2616 2906 2266 
Q 2828 2175 2409 1742 
Q 1991 1309 1228 531 
z
" transform="scale(0.015625)"/>
       </defs>
       <use xlink:href="#DejaVuSans-32"/>
       <use xlink:href="#DejaVuSans-30" x="63.623047"/>
       <use xlink:href="#DejaVuSans-2e" x="127.246094"/>
       <use xlink:href="#DejaVuSans-31" x="159.033203"/>
       <use xlink:href="#DejaVuSans-37" x="222.65625"/>
      </g>
     </g>
    </g>
    <g id="xtick_5">
     <g id="line2d_9">
      <path d="M 200.689756 384.48 
L 200.689756 51.84 
" clip-path="url(#p7310029568)" style="fill: none; stroke: #b0b0b0; stroke-width: 0.8; stroke-linecap: square"/>
     </g>
     <g id="line2d_10">
      <g>
       <use xlink:href="#mc93423f4b7" x="200.689756" y="384.48" style="stroke: #000000; stroke-width: 0.8"/>
      </g>
     </g>
     <g id="text_5">
      <!-- 26.83 -->
      <g transform="translate(186.375693 399.078438) scale(0.1 -0.1)">
       <use xlink:href="#DejaVuSans-32"/>
       <use xlink:href="#DejaVuSans-36" x="63.623047"/>
       <use xlink:href="#DejaVuSans-2e" x="127.246094"/>
       <use xlink:href="#DejaVuSans-38" x="159.033203"/>
       <use xlink:href="#DejaVuSans-33" x="222.65625"/>
      </g>
     </g>
    </g>
    <g id="xtick_6">
     <g id="line2d_11">
      <path d="M 227.789467 384.48 
L 227.789467 51.84 
" clip-path="url(#p7310029568)" style="fill: none; stroke: #b0b0b0; stroke-width: 0.8; stroke-linecap: square"/>
     </g>
     <g id="line2d_12">
      <g>
       <use xlink:href="#mc93423f4b7" x="227.789467" y="384.48" style="stroke: #000000; stroke-width: 0.8"/>
      </g>
     </g>
     <g id="text_6">
      <!-- 33.5 -->
      <g transform="translate(216.656655 399.078438) scale(0.1 -0.1)">
       <use xlink:href="#DejaVuSans-33"/>
       <use xlink:href="#DejaVuSans-33" x="63.623047"/>
       <use xlink:href="#DejaVuSans-2e" x="127.246094"/>
       <use xlink:href="#DejaVuSans-35" x="159.033203"/>
      </g>
     </g>
    </g>
    <g id="xtick_7">
     <g id="line2d_13">
      <path d="M 254.889179 384.48 
L 254.889179 51.84 
" clip-path="url(#p7310029568)" style="fill: none; stroke: #b0b0b0; stroke-width: 0.8; stroke-linecap: square"/>
     </g>
     <g id="line2d_14">
      <g>
       <use xlink:href="#mc93423f4b7" x="254.889179" y="384.48" style="stroke: #000000; stroke-width: 0.8"/>
      </g>
     </g>
     <g id="text_7">
      <!-- 40.17 -->
      <g transform="translate(240.575116 399.078438) scale(0.1 -0.1)">
       <defs>
        <path id="DejaVuSans-34" d="M 2419 4116 
L 825 1625 
L 2419 1625 
L 2419 4116 
z
M 2253 4666 
L 3047 4666 
L 3047 1625 
L 3713 1625 
L 3713 1100 
L 3047 1100 
L 3047 0 
L 2419 0 
L 2419 1100 
L 313 1100 
L 313 1709 
L 2253 4666 
z
" transform="scale(0.015625)"/>
       </defs>
       <use xlink:href="#DejaVuSans-34"/>
       <use xlink:href="#DejaVuSans-30" x="63.623047"/>
       <use xlink:href="#DejaVuSans-2e" x="127.246094"/>
       <use xlink:href="#DejaVuSans-31" x="159.033203"/>
       <use xlink:href="#DejaVuSans-37" x="222.65625"/>
      </g>
     </g>
    </g>
    <g id="xtick_8">
     <g id="line2d_15">
      <path d="M 281.988891 384.48 
L 281.988891 51.84 
" clip-path="url(#p7310029568)" style="fill: none; stroke: #b0b0b0; stroke-width: 0.8; stroke-linecap: square"/>
     </g>
     <g id="line2d_16">
      <g>
       <use xlink:href="#mc93423f4b7" x="281.988891" y="384.48" style="stroke: #000000; stroke-width: 0.8"/>
      </g>
     </g>
     <g id="text_8">
      <!-- 46.83 -->
      <g transform="translate(267.674828 399.078438) scale(0.1 -0.1)">
       <use xlink:href="#DejaVuSans-34"/>
       <use xlink:href="#DejaVuSans-36" x="63.623047"/>
       <use xlink:href="#DejaVuSans-2e" x="127.246094"/>
       <use xlink:href="#DejaVuSans-38" x="159.033203"/>
       <use xlink:href="#DejaVuSans-33" x="222.65625"/>
      </g>
     </g>
    </g>
    <g id="xtick_9">
     <g id="line2d_17">
      <path d="M 309.088602 384.48 
L 309.088602 51.84 
" clip-path="url(#p7310029568)" style="fill: none; stroke: #b0b0b0; stroke-width: 0.8; stroke-linecap: square"/>
     </g>
     <g id="line2d_18">
      <g>
       <use xlink:href="#mc93423f4b7" x="309.088602" y="384.48" style="stroke: #000000; stroke-width: 0.8"/>
      </g>
     </g>
     <g id="text_9">
      <!-- 53.5 -->
      <g transform="translate(297.95579 399.078438) scale(0.1 -0.1)">
       <use xlink:href="#DejaVuSans-35"/>
       <use xlink:href="#DejaVuSans-33" x="63.623047"/>
       <use xlink:href="#DejaVuSans-2e" x="127.246094"/>
       <use xlink:href="#DejaVuSans-35" x="159.033203"/>
      </g>
     </g>
    </g>
    <g id="xtick_10">
     <g id="line2d_19">
      <path d="M 336.188314 384.48 
L 336.188314 51.84 
" clip-path="url(#p7310029568)" style="fill: none; stroke: #b0b0b0; stroke-width: 0.8; stroke-linecap: square"/>
     </g>
     <g id="line2d_20">
      <g>
       <use xlink:href="#mc93423f4b7" x="336.188314" y="384.48" style="stroke: #000000; stroke-width: 0.8"/>
      </g>
     </g>
     <g id="text_10">
      <!-- 60.17 -->
      <g transform="translate(321.874251 399.078438) scale(0.1 -0.1)">
       <use xlink:href="#DejaVuSans-36"/>
       <use xlink:href="#DejaVuSans-30" x="63.623047"/>
       <use xlink:href="#DejaVuSans-2e" x="127.246094"/>
       <use xlink:href="#DejaVuSans-31" x="159.033203"/>
       <use xlink:href="#DejaVuSans-37" x="222.65625"/>
      </g>
     </g>
    </g>
    <g id="xtick_11">
     <g id="line2d_21">
      <path d="M 363.288025 384.48 
L 363.288025 51.84 
" clip-path="url(#p7310029568)" style="fill: none; stroke: #b0b0b0; stroke-width: 0.8; stroke-linecap: square"/>
     </g>
     <g id="line2d_22">
      <g>
       <use xlink:href="#mc93423f4b7" x="363.288025" y="384.48" style="stroke: #000000; stroke-width: 0.8"/>
      </g>
     </g>
     <g id="text_11">
      <!-- 66.83 -->
      <g transform="translate(348.973963 399.078438) scale(0.1 -0.1)">
       <use xlink:href="#DejaVuSans-36"/>
       <use xlink:href="#DejaVuSans-36" x="63.623047"/>
       <use xlink:href="#DejaVuSans-2e" x="127.246094"/>
       <use xlink:href="#DejaVuSans-38" x="159.033203"/>
       <use xlink:href="#DejaVuSans-33" x="222.65625"/>
      </g>
     </g>
    </g>
    <g id="xtick_12">
     <g id="line2d_23">
      <path d="M 390.387737 384.48 
L 390.387737 51.84 
" clip-path="url(#p7310029568)" style="fill: none; stroke: #b0b0b0; stroke-width: 0.8; stroke-linecap: square"/>
     </g>
     <g id="line2d_24">
      <g>
       <use xlink:href="#mc93423f4b7" x="390.387737" y="384.48" style="stroke: #000000; stroke-width: 0.8"/>
      </g>
     </g>
     <g id="text_12">
      <!-- 73.5 -->
      <g transform="translate(379.254925 399.078438) scale(0.1 -0.1)">
       <use xlink:href="#DejaVuSans-37"/>
       <use xlink:href="#DejaVuSans-33" x="63.623047"/>
       <use xlink:href="#DejaVuSans-2e" x="127.246094"/>
       <use xlink:href="#DejaVuSans-35" x="159.033203"/>
      </g>
     </g>
    </g>
    <g id="xtick_13">
     <g id="line2d_25">
      <path d="M 417.487449 384.48 
L 417.487449 51.84 
" clip-path="url(#p7310029568)" style="fill: none; stroke: #b0b0b0; stroke-width: 0.8; stroke-linecap: square"/>
     </g>
     <g id="line2d_26">
      <g>
       <use xlink:href="#mc93423f4b7" x="417.487449" y="384.48" style="stroke: #000000; stroke-width: 0.8"/>
      </g>
     </g>
     <g id="text_13">
      <!-- 80.17 -->
      <g transform="translate(403.173386 399.078438) scale(0.1 -0.1)">
       <use xlink:href="#DejaVuSans-38"/>
       <use xlink:href="#DejaVuSans-30" x="63.623047"/>
       <use xlink:href="#DejaVuSans-2e" x="127.246094"/>
       <use xlink:href="#DejaVuSans-31" x="159.033203"/>
       <use xlink:href="#DejaVuSans-37" x="222.65625"/>
      </g>
     </g>
    </g>
    <g id="xtick_14">
     <g id="line2d_27">
      <path d="M 444.58716 384.48 
L 444.58716 51.84 
" clip-path="url(#p7310029568)" style="fill: none; stroke: #b0b0b0; stroke-width: 0.8; stroke-linecap: square"/>
     </g>
     <g id="line2d_28">
      <g>
       <use xlink:href="#mc93423f4b7" x="444.58716" y="384.48" style="stroke: #000000; stroke-width: 0.8"/>
      </g>
     </g>
     <g id="text_14">
      <!-- 86.83 -->
      <g transform="translate(430.273098 399.078438) scale(0.1 -0.1)">
       <use xlink:href="#DejaVuSans-38"/>
       <use xlink:href="#DejaVuSans-36" x="63.623047"/>
       <use xlink:href="#DejaVuSans-2e" x="127.246094"/>
       <use xlink:href="#DejaVuSans-38" x="159.033203"/>
       <use xlink:href="#DejaVuSans-33" x="222.65625"/>
      </g>
     </g>
    </g>
    <g id="xtick_15">
     <g id="line2d_29">
      <path d="M 471.686872 384.48 
L 471.686872 51.84 
" clip-path="url(#p7310029568)" style="fill: none; stroke: #b0b0b0; stroke-width: 0.8; stroke-linecap: square"/>
     </g>
     <g id="line2d_30">
      <g>
       <use xlink:href="#mc93423f4b7" x="471.686872" y="384.48" style="stroke: #000000; stroke-width: 0.8"/>
      </g>
     </g>
     <g id="text_15">
      <!-- 93.5 -->
      <g transform="translate(460.55406 399.078438) scale(0.1 -0.1)">
       <defs>
        <path id="DejaVuSans-39" d="M 703 97 
L 703 672 
Q 941 559 1184 500 
Q 1428 441 1663 441 
Q 2288 441 2617 861 
Q 2947 1281 2994 2138 
Q 2813 1869 2534 1725 
Q 2256 1581 1919 1581 
Q 1219 1581 811 2004 
Q 403 2428 403 3163 
Q 403 3881 828 4315 
Q 1253 4750 1959 4750 
Q 2769 4750 3195 4129 
Q 3622 3509 3622 2328 
Q 3622 1225 3098 567 
Q 2575 -91 1691 -91 
Q 1453 -91 1209 -44 
Q 966 3 703 97 
z
M 1959 2075 
Q 2384 2075 2632 2365 
Q 2881 2656 2881 3163 
Q 2881 3666 2632 3958 
Q 2384 4250 1959 4250 
Q 1534 4250 1286 3958 
Q 1038 3666 1038 3163 
Q 1038 2656 1286 2365 
Q 1534 2075 1959 2075 
z
" transform="scale(0.015625)"/>
       </defs>
       <use xlink:href="#DejaVuSans-39"/>
       <use xlink:href="#DejaVuSans-33" x="63.623047"/>
       <use xlink:href="#DejaVuSans-2e" x="127.246094"/>
       <use xlink:href="#DejaVuSans-35" x="159.033203"/>
      </g>
     </g>
    </g>
    <g id="text_16">
     <!-- time in hours [h] -->
     <g transform="translate(253.451562 412.756563) scale(0.1 -0.1)">
      <defs>
       <path id="DejaVuSans-74" d="M 1172 4494 
L 1172 3500 
L 2356 3500 
L 2356 3053 
L 1172 3053 
L 1172 1153 
Q 1172 725 1289 603 
Q 1406 481 1766 481 
L 2356 481 
L 2356 0 
L 1766 0 
Q 1100 0 847 248 
Q 594 497 594 1153 
L 594 3053 
L 172 3053 
L 172 3500 
L 594 3500 
L 594 4494 
L 1172 4494 
z
" transform="scale(0.015625)"/>
       <path id="DejaVuSans-69" d="M 603 3500 
L 1178 3500 
L 1178 0 
L 603 0 
L 603 3500 
z
M 603 4863 
L 1178 4863 
L 1178 4134 
L 603 4134 
L 603 4863 
z
" transform="scale(0.015625)"/>
       <path id="DejaVuSans-6d" d="M 3328 2828 
Q 3544 3216 3844 3400 
Q 4144 3584 4550 3584 
Q 5097 3584 5394 3201 
Q 5691 2819 5691 2113 
L 5691 0 
L 5113 0 
L 5113 2094 
Q 5113 2597 4934 2840 
Q 4756 3084 4391 3084 
Q 3944 3084 3684 2787 
Q 3425 2491 3425 1978 
L 3425 0 
L 2847 0 
L 2847 2094 
Q 2847 2600 2669 2842 
Q 2491 3084 2119 3084 
Q 1678 3084 1418 2786 
Q 1159 2488 1159 1978 
L 1159 0 
L 581 0 
L 581 3500 
L 1159 3500 
L 1159 2956 
Q 1356 3278 1631 3431 
Q 1906 3584 2284 3584 
Q 2666 3584 2933 3390 
Q 3200 3197 3328 2828 
z
" transform="scale(0.015625)"/>
       <path id="DejaVuSans-65" d="M 3597 1894 
L 3597 1613 
L 953 1613 
Q 991 1019 1311 708 
Q 1631 397 2203 397 
Q 2534 397 2845 478 
Q 3156 559 3463 722 
L 3463 178 
Q 3153 47 2828 -22 
Q 2503 -91 2169 -91 
Q 1331 -91 842 396 
Q 353 884 353 1716 
Q 353 2575 817 3079 
Q 1281 3584 2069 3584 
Q 2775 3584 3186 3129 
Q 3597 2675 3597 1894 
z
M 3022 2063 
Q 3016 2534 2758 2815 
Q 2500 3097 2075 3097 
Q 1594 3097 1305 2825 
Q 1016 2553 972 2059 
L 3022 2063 
z
" transform="scale(0.015625)"/>
       <path id="DejaVuSans-20" transform="scale(0.015625)"/>
       <path id="DejaVuSans-6e" d="M 3513 2113 
L 3513 0 
L 2938 0 
L 2938 2094 
Q 2938 2591 2744 2837 
Q 2550 3084 2163 3084 
Q 1697 3084 1428 2787 
Q 1159 2491 1159 1978 
L 1159 0 
L 581 0 
L 581 3500 
L 1159 3500 
L 1159 2956 
Q 1366 3272 1645 3428 
Q 1925 3584 2291 3584 
Q 2894 3584 3203 3211 
Q 3513 2838 3513 2113 
z
" transform="scale(0.015625)"/>
       <path id="DejaVuSans-68" d="M 3513 2113 
L 3513 0 
L 2938 0 
L 2938 2094 
Q 2938 2591 2744 2837 
Q 2550 3084 2163 3084 
Q 1697 3084 1428 2787 
Q 1159 2491 1159 1978 
L 1159 0 
L 581 0 
L 581 4863 
L 1159 4863 
L 1159 2956 
Q 1366 3272 1645 3428 
Q 1925 3584 2291 3584 
Q 2894 3584 3203 3211 
Q 3513 2838 3513 2113 
z
" transform="scale(0.015625)"/>
       <path id="DejaVuSans-6f" d="M 1959 3097 
Q 1497 3097 1228 2736 
Q 959 2375 959 1747 
Q 959 1119 1226 758 
Q 1494 397 1959 397 
Q 2419 397 2687 759 
Q 2956 1122 2956 1747 
Q 2956 2369 2687 2733 
Q 2419 3097 1959 3097 
z
M 1959 3584 
Q 2709 3584 3137 3096 
Q 3566 2609 3566 1747 
Q 3566 888 3137 398 
Q 2709 -91 1959 -91 
Q 1206 -91 779 398 
Q 353 888 353 1747 
Q 353 2609 779 3096 
Q 1206 3584 1959 3584 
z
" transform="scale(0.015625)"/>
       <path id="DejaVuSans-75" d="M 544 1381 
L 544 3500 
L 1119 3500 
L 1119 1403 
Q 1119 906 1312 657 
Q 1506 409 1894 409 
Q 2359 409 2629 706 
Q 2900 1003 2900 1516 
L 2900 3500 
L 3475 3500 
L 3475 0 
L 2900 0 
L 2900 538 
Q 2691 219 2414 64 
Q 2138 -91 1772 -91 
Q 1169 -91 856 284 
Q 544 659 544 1381 
z
M 1991 3584 
L 1991 3584 
z
" transform="scale(0.015625)"/>
       <path id="DejaVuSans-72" d="M 2631 2963 
Q 2534 3019 2420 3045 
Q 2306 3072 2169 3072 
Q 1681 3072 1420 2755 
Q 1159 2438 1159 1844 
L 1159 0 
L 581 0 
L 581 3500 
L 1159 3500 
L 1159 2956 
Q 1341 3275 1631 3429 
Q 1922 3584 2338 3584 
Q 2397 3584 2469 3576 
Q 2541 3569 2628 3553 
L 2631 2963 
z
" transform="scale(0.015625)"/>
       <path id="DejaVuSans-73" d="M 2834 3397 
L 2834 2853 
Q 2591 2978 2328 3040 
Q 2066 3103 1784 3103 
Q 1356 3103 1142 2972 
Q 928 2841 928 2578 
Q 928 2378 1081 2264 
Q 1234 2150 1697 2047 
L 1894 2003 
Q 2506 1872 2764 1633 
Q 3022 1394 3022 966 
Q 3022 478 2636 193 
Q 2250 -91 1575 -91 
Q 1294 -91 989 -36 
Q 684 19 347 128 
L 347 722 
Q 666 556 975 473 
Q 1284 391 1588 391 
Q 1994 391 2212 530 
Q 2431 669 2431 922 
Q 2431 1156 2273 1281 
Q 2116 1406 1581 1522 
L 1381 1569 
Q 847 1681 609 1914 
Q 372 2147 372 2553 
Q 372 3047 722 3315 
Q 1072 3584 1716 3584 
Q 2034 3584 2315 3537 
Q 2597 3491 2834 3397 
z
" transform="scale(0.015625)"/>
       <path id="DejaVuSans-5b" d="M 550 4863 
L 1875 4863 
L 1875 4416 
L 1125 4416 
L 1125 -397 
L 1875 -397 
L 1875 -844 
L 550 -844 
L 550 4863 
z
" transform="scale(0.015625)"/>
       <path id="DejaVuSans-5d" d="M 1947 4863 
L 1947 -844 
L 622 -844 
L 622 -397 
L 1369 -397 
L 1369 4416 
L 622 4416 
L 622 4863 
L 1947 4863 
z
" transform="scale(0.015625)"/>
      </defs>
      <use xlink:href="#DejaVuSans-74"/>
      <use xlink:href="#DejaVuSans-69" x="39.208984"/>
      <use xlink:href="#DejaVuSans-6d" x="66.992188"/>
      <use xlink:href="#DejaVuSans-65" x="164.404297"/>
      <use xlink:href="#DejaVuSans-20" x="225.927734"/>
      <use xlink:href="#DejaVuSans-69" x="257.714844"/>
      <use xlink:href="#DejaVuSans-6e" x="285.498047"/>
      <use xlink:href="#DejaVuSans-20" x="348.876953"/>
      <use xlink:href="#DejaVuSans-68" x="380.664062"/>
      <use xlink:href="#DejaVuSans-6f" x="444.042969"/>
      <use xlink:href="#DejaVuSans-75" x="505.224609"/>
      <use xlink:href="#DejaVuSans-72" x="568.603516"/>
      <use xlink:href="#DejaVuSans-73" x="609.716797"/>
      <use xlink:href="#DejaVuSans-20" x="661.816406"/>
      <use xlink:href="#DejaVuSans-5b" x="693.603516"/>
      <use xlink:href="#DejaVuSans-68" x="732.617188"/>
      <use xlink:href="#DejaVuSans-5d" x="795.996094"/>
     </g>
    </g>
   </g>
   <g id="matplotlib.axis_2">
    <g id="ytick_1">
     <g id="line2d_31">
      <path d="M 72 363.69 
L 518.4 363.69 
" clip-path="url(#p7310029568)" style="fill: none; stroke: #b0b0b0; stroke-width: 0.8; stroke-linecap: square"/>
     </g>
     <g id="line2d_32">
      <defs>
       <path id="m2ac13e19e0" d="M 0 0 
L -3.5 0 
" style="stroke: #000000; stroke-width: 0.8"/>
      </defs>
      <g>
       <use xlink:href="#m2ac13e19e0" x="72" y="363.69" style="stroke: #000000; stroke-width: 0.8"/>
      </g>
     </g>
     <g id="text_17">
      <!-- 0.0 -->
      <g transform="translate(49.096875 367.489219) scale(0.1 -0.1)">
       <use xlink:href="#DejaVuSans-30"/>
       <use xlink:href="#DejaVuSans-2e" x="63.623047"/>
       <use xlink:href="#DejaVuSans-30" x="95.410156"/>
      </g>
     </g>
    </g>
    <g id="ytick_2">
     <g id="line2d_33">
      <path d="M 72 311.715 
L 518.4 311.715 
" clip-path="url(#p7310029568)" style="fill: none; stroke: #b0b0b0; stroke-width: 0.8; stroke-linecap: square"/>
     </g>
     <g id="line2d_34">
      <g>
       <use xlink:href="#m2ac13e19e0" x="72" y="311.715" style="stroke: #000000; stroke-width: 0.8"/>
      </g>
     </g>
     <g id="text_18">
      <!-- 0.5 -->
      <g transform="translate(49.096875 315.514219) scale(0.1 -0.1)">
       <use xlink:href="#DejaVuSans-30"/>
       <use xlink:href="#DejaVuSans-2e" x="63.623047"/>
       <use xlink:href="#DejaVuSans-35" x="95.410156"/>
      </g>
     </g>
    </g>
    <g id="ytick_3">
     <g id="line2d_35">
      <path d="M 72 259.74 
L 518.4 259.74 
" clip-path="url(#p7310029568)" style="fill: none; stroke: #b0b0b0; stroke-width: 0.8; stroke-linecap: square"/>
     </g>
     <g id="line2d_36">
      <g>
       <use xlink:href="#m2ac13e19e0" x="72" y="259.74" style="stroke: #000000; stroke-width: 0.8"/>
      </g>
     </g>
     <g id="text_19">
      <!-- 1.0 -->
      <g transform="translate(49.096875 263.539219) scale(0.1 -0.1)">
       <use xlink:href="#DejaVuSans-31"/>
       <use xlink:href="#DejaVuSans-2e" x="63.623047"/>
       <use xlink:href="#DejaVuSans-30" x="95.410156"/>
      </g>
     </g>
    </g>
    <g id="ytick_4">
     <g id="line2d_37">
      <path d="M 72 207.765 
L 518.4 207.765 
" clip-path="url(#p7310029568)" style="fill: none; stroke: #b0b0b0; stroke-width: 0.8; stroke-linecap: square"/>
     </g>
     <g id="line2d_38">
      <g>
       <use xlink:href="#m2ac13e19e0" x="72" y="207.765" style="stroke: #000000; stroke-width: 0.8"/>
      </g>
     </g>
     <g id="text_20">
      <!-- 1.5 -->
      <g transform="translate(49.096875 211.564219) scale(0.1 -0.1)">
       <use xlink:href="#DejaVuSans-31"/>
       <use xlink:href="#DejaVuSans-2e" x="63.623047"/>
       <use xlink:href="#DejaVuSans-35" x="95.410156"/>
      </g>
     </g>
    </g>
    <g id="ytick_5">
     <g id="line2d_39">
      <path d="M 72 155.79 
L 518.4 155.79 
" clip-path="url(#p7310029568)" style="fill: none; stroke: #b0b0b0; stroke-width: 0.8; stroke-linecap: square"/>
     </g>
     <g id="line2d_40">
      <g>
       <use xlink:href="#m2ac13e19e0" x="72" y="155.79" style="stroke: #000000; stroke-width: 0.8"/>
      </g>
     </g>
     <g id="text_21">
      <!-- 2.0 -->
      <g transform="translate(49.096875 159.589219) scale(0.1 -0.1)">
       <use xlink:href="#DejaVuSans-32"/>
       <use xlink:href="#DejaVuSans-2e" x="63.623047"/>
       <use xlink:href="#DejaVuSans-30" x="95.410156"/>
      </g>
     </g>
    </g>
    <g id="ytick_6">
     <g id="line2d_41">
      <path d="M 72 103.815 
L 518.4 103.815 
" clip-path="url(#p7310029568)" style="fill: none; stroke: #b0b0b0; stroke-width: 0.8; stroke-linecap: square"/>
     </g>
     <g id="line2d_42">
      <g>
       <use xlink:href="#m2ac13e19e0" x="72" y="103.815" style="stroke: #000000; stroke-width: 0.8"/>
      </g>
     </g>
     <g id="text_22">
      <!-- 2.5 -->
      <g transform="translate(49.096875 107.614219) scale(0.1 -0.1)">
       <use xlink:href="#DejaVuSans-32"/>
       <use xlink:href="#DejaVuSans-2e" x="63.623047"/>
       <use xlink:href="#DejaVuSans-35" x="95.410156"/>
      </g>
     </g>
    </g>
    <g id="ytick_7">
     <g id="line2d_43">
      <path d="M 72 51.84 
L 518.4 51.84 
" clip-path="url(#p7310029568)" style="fill: none; stroke: #b0b0b0; stroke-width: 0.8; stroke-linecap: square"/>
     </g>
     <g id="line2d_44">
      <g>
       <use xlink:href="#m2ac13e19e0" x="72" y="51.84" style="stroke: #000000; stroke-width: 0.8"/>
      </g>
     </g>
     <g id="text_23">
      <!-- 3.0 -->
      <g transform="translate(49.096875 55.639219) scale(0.1 -0.1)">
       <use xlink:href="#DejaVuSans-33"/>
       <use xlink:href="#DejaVuSans-2e" x="63.623047"/>
       <use xlink:href="#DejaVuSans-30" x="95.410156"/>
      </g>
     </g>
    </g>
    <g id="text_24">
     <!-- blank corrected OD600 -->
     <g transform="translate(43.017187 276.115469) rotate(-90) scale(0.1 -0.1)">
      <defs>
       <path id="DejaVuSans-62" d="M 3116 1747 
Q 3116 2381 2855 2742 
Q 2594 3103 2138 3103 
Q 1681 3103 1420 2742 
Q 1159 2381 1159 1747 
Q 1159 1113 1420 752 
Q 1681 391 2138 391 
Q 2594 391 2855 752 
Q 3116 1113 3116 1747 
z
M 1159 2969 
Q 1341 3281 1617 3432 
Q 1894 3584 2278 3584 
Q 2916 3584 3314 3078 
Q 3713 2572 3713 1747 
Q 3713 922 3314 415 
Q 2916 -91 2278 -91 
Q 1894 -91 1617 61 
Q 1341 213 1159 525 
L 1159 0 
L 581 0 
L 581 4863 
L 1159 4863 
L 1159 2969 
z
" transform="scale(0.015625)"/>
       <path id="DejaVuSans-6c" d="M 603 4863 
L 1178 4863 
L 1178 0 
L 603 0 
L 603 4863 
z
" transform="scale(0.015625)"/>
       <path id="DejaVuSans-61" d="M 2194 1759 
Q 1497 1759 1228 1600 
Q 959 1441 959 1056 
Q 959 750 1161 570 
Q 1363 391 1709 391 
Q 2188 391 2477 730 
Q 2766 1069 2766 1631 
L 2766 1759 
L 2194 1759 
z
M 3341 1997 
L 3341 0 
L 2766 0 
L 2766 531 
Q 2569 213 2275 61 
Q 1981 -91 1556 -91 
Q 1019 -91 701 211 
Q 384 513 384 1019 
Q 384 1609 779 1909 
Q 1175 2209 1959 2209 
L 2766 2209 
L 2766 2266 
Q 2766 2663 2505 2880 
Q 2244 3097 1772 3097 
Q 1472 3097 1187 3025 
Q 903 2953 641 2809 
L 641 3341 
Q 956 3463 1253 3523 
Q 1550 3584 1831 3584 
Q 2591 3584 2966 3190 
Q 3341 2797 3341 1997 
z
" transform="scale(0.015625)"/>
       <path id="DejaVuSans-6b" d="M 581 4863 
L 1159 4863 
L 1159 1991 
L 2875 3500 
L 3609 3500 
L 1753 1863 
L 3688 0 
L 2938 0 
L 1159 1709 
L 1159 0 
L 581 0 
L 581 4863 
z
" transform="scale(0.015625)"/>
       <path id="DejaVuSans-63" d="M 3122 3366 
L 3122 2828 
Q 2878 2963 2633 3030 
Q 2388 3097 2138 3097 
Q 1578 3097 1268 2742 
Q 959 2388 959 1747 
Q 959 1106 1268 751 
Q 1578 397 2138 397 
Q 2388 397 2633 464 
Q 2878 531 3122 666 
L 3122 134 
Q 2881 22 2623 -34 
Q 2366 -91 2075 -91 
Q 1284 -91 818 406 
Q 353 903 353 1747 
Q 353 2603 823 3093 
Q 1294 3584 2113 3584 
Q 2378 3584 2631 3529 
Q 2884 3475 3122 3366 
z
" transform="scale(0.015625)"/>
       <path id="DejaVuSans-64" d="M 2906 2969 
L 2906 4863 
L 3481 4863 
L 3481 0 
L 2906 0 
L 2906 525 
Q 2725 213 2448 61 
Q 2172 -91 1784 -91 
Q 1150 -91 751 415 
Q 353 922 353 1747 
Q 353 2572 751 3078 
Q 1150 3584 1784 3584 
Q 2172 3584 2448 3432 
Q 2725 3281 2906 2969 
z
M 947 1747 
Q 947 1113 1208 752 
Q 1469 391 1925 391 
Q 2381 391 2643 752 
Q 2906 1113 2906 1747 
Q 2906 2381 2643 2742 
Q 2381 3103 1925 3103 
Q 1469 3103 1208 2742 
Q 947 2381 947 1747 
z
" transform="scale(0.015625)"/>
       <path id="DejaVuSans-4f" d="M 2522 4238 
Q 1834 4238 1429 3725 
Q 1025 3213 1025 2328 
Q 1025 1447 1429 934 
Q 1834 422 2522 422 
Q 3209 422 3611 934 
Q 4013 1447 4013 2328 
Q 4013 3213 3611 3725 
Q 3209 4238 2522 4238 
z
M 2522 4750 
Q 3503 4750 4090 4092 
Q 4678 3434 4678 2328 
Q 4678 1225 4090 567 
Q 3503 -91 2522 -91 
Q 1538 -91 948 565 
Q 359 1222 359 2328 
Q 359 3434 948 4092 
Q 1538 4750 2522 4750 
z
" transform="scale(0.015625)"/>
       <path id="DejaVuSans-44" d="M 1259 4147 
L 1259 519 
L 2022 519 
Q 2988 519 3436 956 
Q 3884 1394 3884 2338 
Q 3884 3275 3436 3711 
Q 2988 4147 2022 4147 
L 1259 4147 
z
M 628 4666 
L 1925 4666 
Q 3281 4666 3915 4102 
Q 4550 3538 4550 2338 
Q 4550 1131 3912 565 
Q 3275 0 1925 0 
L 628 0 
L 628 4666 
z
" transform="scale(0.015625)"/>
      </defs>
      <use xlink:href="#DejaVuSans-62"/>
      <use xlink:href="#DejaVuSans-6c" x="63.476562"/>
      <use xlink:href="#DejaVuSans-61" x="91.259766"/>
      <use xlink:href="#DejaVuSans-6e" x="152.539062"/>
      <use xlink:href="#DejaVuSans-6b" x="215.917969"/>
      <use xlink:href="#DejaVuSans-20" x="273.828125"/>
      <use xlink:href="#DejaVuSans-63" x="305.615234"/>
      <use xlink:href="#DejaVuSans-6f" x="360.595703"/>
      <use xlink:href="#DejaVuSans-72" x="421.777344"/>
      <use xlink:href="#DejaVuSans-72" x="461.140625"/>
      <use xlink:href="#DejaVuSans-65" x="500.003906"/>
      <use xlink:href="#DejaVuSans-63" x="561.527344"/>
      <use xlink:href="#DejaVuSans-74" x="616.507812"/>
      <use xlink:href="#DejaVuSans-65" x="655.716797"/>
      <use xlink:href="#DejaVuSans-64" x="717.240234"/>
      <use xlink:href="#DejaVuSans-20" x="780.716797"/>
      <use xlink:href="#DejaVuSans-4f" x="812.503906"/>
      <use xlink:href="#DejaVuSans-44" x="891.214844"/>
      <use xlink:href="#DejaVuSans-36" x="968.216797"/>
      <use xlink:href="#DejaVuSans-30" x="1031.839844"/>
      <use xlink:href="#DejaVuSans-30" x="1095.462891"/>
     </g>
    </g>
   </g>
   <g id="line2d_45">
    <path d="M 92.290909 364.759645 
L 92.968402 362.056945 
L 93.645895 358.730546 
L 94.323387 359.146345 
L 95.00088 359.250295 
L 95.678373 358.210796 
L 96.355866 359.146345 
L 97.033359 358.522646 
L 97.710851 357.171295 
L 98.388344 357.691045 
L 99.065837 358.938446 
L 99.74333 358.418696 
L 100.420823 359.042395 
L 101.098315 358.418696 
L 101.775808 358.210796 
L 102.453301 358.938446 
L 103.130794 357.379195 
L 103.808287 358.418696 
L 104.485779 357.587095 
L 105.840765 359.250295 
L 106.518258 358.418696 
L 107.19575 358.210796 
L 107.873243 358.730546 
L 108.550736 357.171295 
L 109.228229 356.235746 
L 109.905722 355.508095 
L 110.583214 356.339696 
L 111.260707 354.988345 
L 111.9382 355.092295 
L 112.615693 352.389595 
L 113.293186 354.156745 
L 113.970678 353.013295 
L 114.648171 351.557996 
L 115.325664 351.142196 
L 116.003157 351.973795 
L 117.358142 348.855296 
L 118.035635 348.543446 
L 118.713128 351.038246 
L 119.390621 349.375045 
L 120.068114 351.869845 
L 120.745606 353.533046 
L 121.423099 356.235746 
L 122.100592 355.196245 
L 122.778085 356.235746 
L 123.455577 359.770045 
L 124.13307 358.730546 
L 124.810563 359.146345 
L 125.488056 359.250295 
L 126.165549 359.042395 
L 126.843041 359.146345 
L 127.520534 358.522646 
L 128.198027 356.859445 
L 128.87552 359.042395 
L 129.553013 355.508095 
L 130.230505 353.844896 
L 130.907998 353.429096 
L 131.585491 353.740946 
L 132.262984 353.429096 
L 132.940477 352.597495 
L 133.617969 352.701445 
L 134.295462 351.869845 
L 134.972955 349.375045 
L 135.650448 351.765895 
L 136.327941 358.522646 
L 137.005433 358.730546 
L 137.682926 358.002895 
L 138.360419 358.626596 
L 139.037912 358.002895 
L 139.715404 358.314746 
L 140.392897 358.210796 
L 141.07039 358.314746 
L 141.747883 357.794995 
L 142.425376 358.314746 
L 143.102868 358.626596 
L 143.780361 356.755495 
L 144.457854 357.691045 
L 145.135347 357.691045 
L 145.81284 357.275245 
L 147.167825 357.483145 
L 147.845318 355.715995 
L 148.522811 356.339696 
L 149.877796 356.651545 
L 150.555289 356.651545 
L 151.232782 355.819946 
L 151.910275 355.300195 
L 152.587767 356.027846 
L 153.26526 354.780445 
L 153.942753 355.715995 
L 154.620246 354.988345 
L 155.297739 354.780445 
L 155.975231 354.156745 
L 156.652724 352.493545 
L 157.330217 352.909345 
L 158.685203 353.221196 
L 159.362695 351.765895 
L 160.717681 351.869845 
L 161.395174 352.285645 
L 162.072667 352.181695 
L 162.750159 352.493545 
L 163.427652 352.285645 
L 164.105145 353.221196 
L 166.137623 353.429096 
L 167.492609 354.260695 
L 168.170102 352.389595 
L 168.847594 352.701445 
L 169.525087 353.948846 
L 170.20258 353.636996 
L 170.880073 354.364645 
L 171.557566 353.844896 
L 172.912551 354.052796 
L 173.590044 353.844896 
L 174.267537 354.156745 
L 174.94503 353.221196 
L 175.622522 354.052796 
L 176.300015 353.844896 
L 176.977508 353.948846 
L 177.655001 353.117245 
L 178.332494 353.429096 
L 179.009986 353.117245 
L 180.364972 353.221196 
L 181.042465 353.429096 
L 182.39745 353.013295 
L 183.752436 353.325146 
L 184.429929 352.285645 
L 185.107421 352.805395 
L 186.462407 353.013295 
L 187.817393 352.701445 
L 188.494885 351.973795 
L 189.172378 352.181695 
L 189.849871 352.077745 
L 190.527364 351.765895 
L 191.204857 351.869845 
L 191.882349 351.454046 
L 192.559842 350.830345 
L 193.237335 350.622445 
L 193.914828 350.934296 
L 194.592321 350.518495 
L 195.269813 350.518495 
L 195.947306 349.790845 
L 196.624799 349.686895 
L 197.302292 349.790845 
L 198.657277 349.063196 
L 199.33477 349.167146 
L 200.012263 349.063196 
L 202.044741 348.127645 
L 202.722234 348.023695 
L 203.399727 348.231595 
L 205.432205 347.711845 
L 206.109698 346.568396 
L 206.787191 347.088145 
L 208.142176 346.776296 
L 208.819669 346.672346 
L 209.497162 346.152596 
L 210.852148 345.736795 
L 211.52964 345.113095 
L 212.207133 345.113095 
L 212.884626 344.801245 
L 213.562119 344.697295 
L 214.239611 344.073596 
L 215.594597 343.969646 
L 216.27209 343.034095 
L 217.627075 342.618295 
L 218.304568 342.618295 
L 218.982061 342.930145 
L 219.659554 342.098546 
L 220.337047 341.682746 
L 221.014539 341.682746 
L 221.692032 341.370896 
L 222.369525 339.915595 
L 223.724511 339.603746 
L 225.079496 340.747195 
L 225.756989 340.123495 
L 226.434482 339.811645 
L 227.789467 339.603746 
L 229.144453 338.460295 
L 229.821946 338.668195 
L 230.499438 338.356345 
L 231.176931 337.732645 
L 231.854424 338.252395 
L 232.531917 337.628695 
L 233.20941 337.628695 
L 233.886902 337.004996 
L 234.564395 336.797096 
L 235.241888 336.901046 
L 235.919381 336.069445 
L 236.596874 336.173395 
L 237.274366 335.341795 
L 237.951859 335.549695 
L 238.629352 334.510196 
L 239.306845 334.614146 
L 239.984338 334.510196 
L 240.66183 333.782545 
L 241.339323 333.990445 
L 242.694309 333.262795 
L 243.371801 333.158845 
L 244.726787 332.223296 
L 245.40428 332.223296 
L 246.081773 331.703546 
L 246.759265 331.703546 
L 249.469237 330.560095 
L 250.146729 330.664045 
L 250.824222 329.936396 
L 252.179208 329.416645 
L 252.856701 329.312695 
L 253.534193 329.000845 
L 254.889179 328.065295 
L 256.244165 327.961345 
L 256.921657 327.233695 
L 258.276643 326.921845 
L 258.954136 326.402095 
L 259.631628 326.298145 
L 260.309121 325.986295 
L 260.986614 325.986295 
L 261.664107 325.778395 
L 262.3416 325.882345 
L 263.019092 325.570495 
L 263.696585 324.946796 
L 265.051571 324.323096 
L 267.084049 323.907295 
L 268.439035 323.283595 
L 269.116528 323.283595 
L 269.79402 323.699395 
L 271.826499 322.763846 
L 272.503992 323.179645 
L 273.181484 322.763846 
L 273.858977 322.971745 
L 274.53647 322.763846 
L 276.568948 322.971745 
L 277.246441 322.659896 
L 277.923934 322.659896 
L 278.601427 323.179645 
L 279.278919 322.659896 
L 279.956412 322.867795 
L 281.311398 322.555946 
L 281.988891 322.555946 
L 282.666383 322.763846 
L 283.343876 322.659896 
L 284.021369 321.932245 
L 284.698862 322.451996 
L 285.376355 322.763846 
L 286.053847 321.932245 
L 286.73134 322.555946 
L 288.086326 322.867795 
L 289.441311 323.075695 
L 290.118804 322.867795 
L 291.47379 323.283595 
L 292.151282 323.179645 
L 292.828775 323.387545 
L 294.861254 323.491495 
L 295.538746 323.075695 
L 296.216239 323.491495 
L 296.893732 323.283595 
L 298.248718 323.387545 
L 298.92621 323.387545 
L 299.603703 323.075695 
L 300.281196 323.387545 
L 300.958689 323.179645 
L 301.636182 323.179645 
L 302.313674 323.387545 
L 303.66866 323.283595 
L 304.346153 323.283595 
L 305.023645 322.244096 
L 305.701138 323.283595 
L 307.056124 322.971745 
L 307.733617 323.075695 
L 308.411109 322.971745 
L 309.088602 321.620395 
L 309.766095 323.387545 
L 310.443588 322.971745 
L 311.121081 322.244096 
L 311.798573 322.763846 
L 312.476066 322.763846 
L 313.153559 322.971745 
L 313.831052 322.867795 
L 314.508545 322.348046 
L 315.186037 322.451996 
L 315.86353 322.140146 
L 316.541023 322.867795 
L 317.218516 321.932245 
L 317.896008 322.763846 
L 318.573501 322.763846 
L 319.250994 322.555946 
L 319.928487 321.724345 
L 320.60598 322.555946 
L 321.283472 322.244096 
L 323.315951 322.555946 
L 323.993444 322.348046 
L 324.670936 321.932245 
L 325.348429 322.451996 
L 326.703415 322.140146 
L 327.380908 322.451996 
L 328.0584 321.932245 
L 330.090879 322.140146 
L 330.768372 322.140146 
L 331.445864 321.932245 
L 332.123357 322.140146 
L 332.80085 321.620395 
L 333.478343 322.036195 
L 334.155835 321.724345 
L 334.833328 322.036195 
L 335.510821 320.996695 
L 336.865807 321.932245 
L 337.543299 322.140146 
L 338.220792 321.724345 
L 338.898285 321.932245 
L 339.575778 321.620395 
L 340.253271 321.516445 
L 340.930763 321.724345 
L 341.608256 321.516445 
L 342.285749 321.620395 
L 342.963242 320.269046 
L 343.640735 320.684845 
L 344.318227 321.308545 
L 344.99572 321.516445 
L 345.673213 321.308545 
L 347.028199 321.516445 
L 347.705691 321.412495 
L 348.383184 321.620395 
L 349.73817 321.100645 
L 350.415662 320.996695 
L 351.093155 321.100645 
L 351.770648 320.996695 
L 352.448141 321.308545 
L 353.125634 321.100645 
L 355.158112 321.204595 
L 355.835605 321.412495 
L 357.19059 320.684845 
L 358.545576 321.100645 
L 359.223069 320.788795 
L 359.900562 321.100645 
L 360.578054 320.580895 
L 361.255547 320.476945 
L 361.93304 320.684845 
L 362.610533 320.165096 
L 363.288025 320.372996 
L 363.965518 319.749296 
L 364.643011 320.580895 
L 365.320504 320.372996 
L 365.997997 320.788795 
L 367.352982 320.684845 
L 368.030475 320.061146 
L 368.707968 320.580895 
L 369.385461 320.580895 
L 370.062953 320.061146 
L 370.740446 320.372996 
L 372.772925 320.476945 
L 373.450417 320.165096 
L 374.12791 320.061146 
L 374.805403 320.476945 
L 375.482896 320.165096 
L 376.160389 320.372996 
L 376.837881 320.061146 
L 377.515374 320.372996 
L 378.192867 319.749296 
L 380.902838 320.061146 
L 381.580331 319.853245 
L 382.257824 319.957196 
L 383.612809 319.853245 
L 384.967795 319.853245 
L 385.645288 320.372996 
L 388.355259 319.645345 
L 389.710244 319.957196 
L 391.742723 319.229545 
L 392.420216 319.749296 
L 393.775201 319.853245 
L 394.452694 319.645345 
L 395.130187 319.749296 
L 395.807679 319.541395 
L 397.162665 319.749296 
L 398.517651 319.645345 
L 399.872636 319.541395 
L 400.550129 319.853245 
L 401.227622 319.645345 
L 401.905115 319.749296 
L 402.582607 319.437445 
L 403.2601 320.061146 
L 403.937593 319.749296 
L 404.615086 319.229545 
L 405.292579 319.749296 
L 406.647564 319.645345 
L 407.325057 320.061146 
L 408.00255 319.853245 
L 408.680042 319.957196 
L 409.357535 319.645345 
L 410.035028 319.853245 
L 411.390014 319.749296 
L 412.067506 319.749296 
L 412.744999 319.957196 
L 414.099985 319.853245 
L 414.777478 319.853245 
L 415.45497 319.541395 
L 416.809956 319.437445 
L 417.487449 319.749296 
L 418.164942 319.541395 
L 420.19742 319.853245 
L 420.874913 320.165096 
L 421.552406 319.957196 
L 422.229898 319.957196 
L 422.907391 320.165096 
L 423.584884 320.061146 
L 424.262377 320.269046 
L 426.294855 319.957196 
L 426.972348 320.269046 
L 427.649841 320.061146 
L 429.004826 320.165096 
L 429.682319 320.061146 
L 430.359812 319.333495 
L 431.037305 320.269046 
L 431.714797 320.372996 
L 432.39229 320.269046 
L 433.069783 320.372996 
L 433.747276 319.333495 
L 434.424769 320.269046 
L 435.102261 320.061146 
L 435.779754 320.476945 
L 437.13474 320.372996 
L 437.812233 320.372996 
L 438.489725 320.580895 
L 441.199696 320.580895 
L 441.877189 320.372996 
L 443.909668 320.684845 
L 444.58716 320.476945 
L 445.264653 320.476945 
L 445.942146 320.788795 
L 446.619639 320.684845 
L 447.297132 320.996695 
L 447.974624 320.061146 
L 448.652117 320.788795 
L 449.32961 320.372996 
L 450.007103 320.892745 
L 450.684596 320.996695 
L 451.362088 320.165096 
L 452.039581 321.204595 
L 452.717074 320.892745 
L 453.394567 321.100645 
L 454.749552 320.996695 
L 455.427045 321.100645 
L 457.459523 320.892745 
L 458.137016 320.892745 
L 458.814509 321.204595 
L 459.492002 320.996695 
L 460.169495 321.308545 
L 460.846987 321.412495 
L 461.52448 321.100645 
L 463.556959 321.308545 
L 464.234451 321.100645 
L 464.911944 320.684845 
L 465.589437 320.788795 
L 466.26693 321.308545 
L 467.621915 320.684845 
L 468.299408 321.100645 
L 468.976901 320.788795 
L 469.654394 319.853245 
L 470.331886 321.100645 
L 471.009379 321.100645 
L 471.686872 320.061146 
L 472.364365 320.892745 
L 473.041858 320.580895 
L 473.71935 321.308545 
L 474.396843 321.100645 
L 475.074336 320.580895 
L 475.751829 320.892745 
L 476.429322 320.372996 
L 477.106814 320.269046 
L 477.784307 321.204595 
L 478.4618 320.788795 
L 479.139293 321.204595 
L 479.816786 321.204595 
L 480.494278 321.516445 
L 481.171771 320.788795 
L 481.849264 321.516445 
L 482.526757 321.620395 
L 483.20425 321.516445 
L 483.881742 320.788795 
L 484.559235 321.204595 
L 485.236728 321.308545 
L 485.914221 321.204595 
L 486.591713 321.516445 
L 487.269206 321.412495 
L 487.946699 320.996695 
L 488.624192 321.204595 
L 489.979177 321.308545 
L 490.65667 320.892745 
L 491.334163 321.308545 
L 492.011656 321.516445 
L 492.689149 321.308545 
L 493.366641 321.516445 
L 494.044134 321.412495 
L 494.721627 321.620395 
L 495.39912 321.516445 
L 496.076613 321.724345 
L 496.754105 321.516445 
L 498.109091 321.412495 
L 498.109091 321.412495 
" clip-path="url(#p7310029568)" style="fill: none; stroke: #0000ff; stroke-opacity: 0.5; stroke-width: 1.5; stroke-linecap: square"/>
   </g>
   <g id="line2d_46">
    <path d="M 92.290909 351.454046 
L 92.968402 360.809546 
L 93.645895 360.601646 
L 94.323387 361.641145 
L 95.00088 360.393745 
L 95.678373 360.081895 
L 96.355866 360.393745 
L 97.033359 358.730546 
L 97.710851 358.834496 
L 98.388344 359.666095 
L 99.065837 358.938446 
L 99.74333 359.146345 
L 100.420823 359.666095 
L 101.098315 360.601646 
L 101.775808 359.458195 
L 102.453301 359.250295 
L 103.130794 359.977945 
L 103.808287 359.770045 
L 104.485779 360.497696 
L 105.163272 359.458195 
L 105.840765 359.458195 
L 106.518258 360.913496 
L 107.19575 360.393745 
L 107.873243 360.289795 
L 108.550736 359.458195 
L 109.228229 360.185845 
L 109.905722 358.834496 
L 110.583214 359.666095 
L 111.260707 358.418696 
L 111.9382 358.730546 
L 112.615693 358.730546 
L 113.293186 359.250295 
L 113.970678 358.730546 
L 114.648171 359.354245 
L 115.325664 358.314746 
L 116.003157 358.314746 
L 116.68065 358.626596 
L 117.358142 358.106846 
L 118.035635 358.002895 
L 119.390621 356.859445 
L 120.068114 355.508095 
L 120.745606 355.092295 
L 121.423099 354.052796 
L 122.100592 352.805395 
L 122.778085 351.038246 
L 123.455577 351.142196 
L 124.13307 352.701445 
L 124.810563 351.973795 
L 125.488056 351.661946 
L 126.165549 353.429096 
L 126.843041 351.973795 
L 127.520534 351.869845 
L 128.198027 353.533046 
L 128.87552 356.131796 
L 129.553013 355.508095 
L 130.230505 355.612045 
L 130.907998 356.963395 
L 131.585491 357.691045 
L 132.262984 357.171295 
L 132.940477 358.002895 
L 133.617969 356.651545 
L 134.295462 357.171295 
L 134.972955 350.830345 
L 135.650448 352.285645 
L 136.327941 357.691045 
L 137.005433 357.898945 
L 137.682926 358.938446 
L 138.360419 358.834496 
L 139.037912 358.314746 
L 139.715404 358.522646 
L 141.747883 358.106846 
L 142.425376 357.691045 
L 143.102868 357.794995 
L 143.780361 357.691045 
L 144.457854 357.275245 
L 145.81284 356.859445 
L 146.490332 357.483145 
L 147.167825 357.171295 
L 147.845318 356.547595 
L 148.522811 356.963395 
L 149.200304 356.859445 
L 149.877796 356.235746 
L 150.555289 356.547595 
L 151.910275 356.027846 
L 152.587767 356.131796 
L 153.26526 355.923896 
L 153.942753 355.923896 
L 154.620246 356.235746 
L 155.297739 355.715995 
L 156.652724 355.508095 
L 157.330217 355.923896 
L 158.00771 355.092295 
L 158.685203 355.300195 
L 159.362695 354.780445 
L 160.040188 354.988345 
L 160.717681 354.884395 
L 161.395174 354.572545 
L 162.072667 353.325146 
L 162.750159 353.740946 
L 163.427652 353.013295 
L 164.105145 353.636996 
L 164.782638 353.325146 
L 166.137623 353.221196 
L 166.815116 352.701445 
L 167.492609 352.493545 
L 168.170102 351.246146 
L 168.847594 353.013295 
L 169.525087 351.454046 
L 170.20258 352.493545 
L 170.880073 352.909345 
L 171.557566 352.389595 
L 172.235058 352.805395 
L 173.590044 352.077745 
L 174.267537 352.389595 
L 174.94503 351.869845 
L 175.622522 352.805395 
L 176.300015 352.493545 
L 176.977508 353.117245 
L 177.655001 351.973795 
L 179.009986 351.661946 
L 179.687479 351.869845 
L 180.364972 351.661946 
L 181.042465 351.973795 
L 181.719958 351.973795 
L 183.074943 351.661946 
L 183.752436 351.765895 
L 184.429929 350.622445 
L 185.107421 351.142196 
L 185.784914 351.454046 
L 186.462407 351.454046 
L 187.1399 351.246146 
L 188.494885 350.518495 
L 189.172378 350.310595 
L 189.849871 350.414545 
L 190.527364 349.894795 
L 191.204857 349.686895 
L 191.882349 349.894795 
L 193.237335 348.855296 
L 193.914828 349.271096 
L 196.624799 347.919745 
L 197.302292 348.127645 
L 198.657277 347.503945 
L 199.33477 346.984195 
L 200.012263 347.503945 
L 200.689756 347.088145 
L 201.367248 346.984195 
L 202.722234 346.048646 
L 204.07722 346.360496 
L 205.432205 345.840745 
L 206.787191 345.113095 
L 207.464684 344.905195 
L 208.142176 344.905195 
L 208.819669 344.697295 
L 209.497162 344.073596 
L 211.52964 343.241995 
L 212.207133 343.138045 
L 212.884626 342.722245 
L 213.562119 342.618295 
L 214.239611 342.202495 
L 215.594597 341.890646 
L 216.27209 341.370896 
L 218.304568 340.851145 
L 218.982061 340.747195 
L 219.659554 340.227445 
L 221.014539 340.019545 
L 221.692032 339.499796 
L 222.369525 339.395846 
L 223.047018 338.772145 
L 223.724511 338.668195 
L 224.402003 338.356345 
L 225.079496 338.356345 
L 225.756989 337.836595 
L 226.434482 337.732645 
L 227.111975 336.797096 
L 228.46696 336.693146 
L 229.144453 335.965495 
L 229.821946 336.277345 
L 230.499438 336.381295 
L 233.20941 335.237845 
L 233.886902 334.198346 
L 235.241888 334.094396 
L 235.919381 333.470695 
L 237.274366 333.366745 
L 239.306845 332.535145 
L 239.984338 332.431196 
L 240.66183 331.599595 
L 241.339323 331.495645 
L 242.016816 331.599595 
L 242.694309 330.975895 
L 243.371801 330.767995 
L 245.40428 329.624546 
L 246.081773 329.624546 
L 246.759265 329.416645 
L 247.436758 329.000845 
L 248.114251 329.000845 
L 248.791744 328.792945 
L 249.469237 328.273195 
L 250.146729 328.065295 
L 250.824222 327.649496 
L 252.179208 327.129746 
L 252.856701 326.609995 
L 254.889179 326.298145 
L 255.566672 325.986295 
L 256.244165 325.466545 
L 256.921657 325.362595 
L 257.59915 324.842846 
L 258.276643 324.634946 
L 258.954136 324.634946 
L 259.631628 324.219145 
L 260.309121 324.115195 
L 260.986614 323.699395 
L 262.3416 323.387545 
L 263.019092 322.659896 
L 265.051571 322.555946 
L 266.406556 322.140146 
L 267.084049 322.140146 
L 268.439035 321.620395 
L 269.116528 321.308545 
L 270.471513 321.516445 
L 271.826499 321.412495 
L 272.503992 321.516445 
L 273.181484 321.308545 
L 273.858977 320.892745 
L 276.568948 321.204595 
L 277.246441 320.996695 
L 277.923934 321.204595 
L 284.698862 321.100645 
L 285.376355 321.516445 
L 286.053847 321.724345 
L 286.73134 321.308545 
L 288.763818 321.828295 
L 289.441311 321.620395 
L 290.118804 321.204595 
L 290.796297 321.412495 
L 291.47379 321.932245 
L 292.151282 321.516445 
L 292.828775 321.620395 
L 293.506268 321.516445 
L 294.861254 321.828295 
L 295.538746 322.036195 
L 298.248718 321.620395 
L 298.92621 321.724345 
L 299.603703 321.620395 
L 300.281196 322.036195 
L 300.958689 321.516445 
L 302.313674 322.036195 
L 304.346153 321.620395 
L 305.023645 321.828295 
L 305.701138 321.828295 
L 306.378631 321.620395 
L 307.056124 321.620395 
L 307.733617 321.412495 
L 309.088602 321.516445 
L 309.766095 321.204595 
L 310.443588 321.308545 
L 311.121081 321.620395 
L 313.153559 320.996695 
L 315.86353 321.308545 
L 317.896008 321.204595 
L 319.250994 321.100645 
L 319.928487 321.308545 
L 320.60598 320.788795 
L 321.283472 320.892745 
L 321.960965 320.580895 
L 322.638458 320.996695 
L 323.315951 320.788795 
L 324.670936 320.892745 
L 325.348429 320.580895 
L 326.025922 320.892745 
L 326.703415 320.684845 
L 327.380908 320.788795 
L 328.0584 320.476945 
L 328.735893 320.788795 
L 329.413386 320.580895 
L 330.090879 320.580895 
L 330.768372 320.372996 
L 331.445864 320.476945 
L 332.123357 320.892745 
L 332.80085 319.645345 
L 333.478343 320.476945 
L 335.510821 320.061146 
L 336.188314 320.269046 
L 337.543299 320.165096 
L 338.220792 320.061146 
L 338.898285 320.165096 
L 339.575778 319.853245 
L 340.253271 319.853245 
L 341.608256 320.165096 
L 342.963242 319.957196 
L 344.318227 320.061146 
L 344.99572 319.853245 
L 346.350706 319.853245 
L 347.028199 319.333495 
L 347.705691 319.541395 
L 348.383184 319.229545 
L 349.060677 319.125595 
L 351.093155 319.437445 
L 352.448141 319.333495 
L 353.125634 319.749296 
L 354.480619 319.437445 
L 355.158112 319.229545 
L 355.835605 319.541395 
L 356.513098 319.437445 
L 357.19059 319.645345 
L 357.868083 319.437445 
L 358.545576 319.645345 
L 359.223069 319.645345 
L 359.900562 319.437445 
L 360.578054 319.021645 
L 361.255547 319.333495 
L 361.93304 319.021645 
L 362.610533 318.917695 
L 363.288025 319.021645 
L 363.965518 319.333495 
L 364.643011 319.437445 
L 365.320504 318.709795 
L 365.997997 319.125595 
L 366.675489 318.917695 
L 367.352982 319.125595 
L 368.030475 318.813745 
L 368.707968 319.021645 
L 369.385461 318.917695 
L 370.062953 319.229545 
L 370.740446 318.813745 
L 371.417939 318.917695 
L 372.772925 318.501895 
L 374.12791 319.125595 
L 374.805403 318.917695 
L 375.482896 319.021645 
L 376.160389 318.501895 
L 377.515374 318.605845 
L 378.192867 318.501895 
L 378.87036 318.605845 
L 379.547852 318.501895 
L 380.225345 318.709795 
L 381.580331 318.605845 
L 382.257824 318.813745 
L 382.935316 318.397945 
L 383.612809 318.293995 
L 385.645288 318.501895 
L 386.32278 318.397945 
L 387.000273 318.501895 
L 389.032752 318.293995 
L 391.06523 318.501895 
L 391.742723 318.190045 
L 392.420216 318.397945 
L 393.097708 318.190045 
L 393.775201 318.293995 
L 395.130187 317.878196 
L 395.807679 318.190045 
L 396.485172 317.982146 
L 397.840158 318.086095 
L 400.550129 318.190045 
L 401.227622 317.774246 
L 402.582607 318.086095 
L 403.937593 317.670296 
L 404.615086 317.982146 
L 405.970071 317.878196 
L 406.647564 317.878196 
L 407.325057 318.190045 
L 409.357535 317.878196 
L 410.035028 318.397945 
L 410.712521 318.086095 
L 411.390014 318.086095 
L 412.067506 317.774246 
L 412.744999 318.086095 
L 413.422492 317.982146 
L 414.099985 318.190045 
L 415.45497 317.774246 
L 416.809956 317.982146 
L 417.487449 317.774246 
L 419.519927 317.774246 
L 420.19742 317.462395 
L 420.874913 317.982146 
L 421.552406 317.878196 
L 422.229898 318.293995 
L 422.907391 317.774246 
L 423.584884 318.293995 
L 424.262377 318.293995 
L 424.939869 318.501895 
L 425.617362 318.397945 
L 426.294855 317.150545 
L 426.972348 318.086095 
L 427.649841 318.501895 
L 428.327333 318.190045 
L 429.004826 318.086095 
L 430.359812 318.397945 
L 431.037305 318.293995 
L 431.714797 318.501895 
L 432.39229 318.397945 
L 433.069783 318.086095 
L 433.747276 318.605845 
L 434.424769 318.813745 
L 435.102261 318.293995 
L 435.779754 318.813745 
L 436.457247 318.190045 
L 437.13474 318.397945 
L 439.167218 318.501895 
L 439.844711 318.709795 
L 443.232175 318.813745 
L 443.909668 318.917695 
L 444.58716 318.501895 
L 445.264653 318.917695 
L 445.942146 318.709795 
L 447.297132 319.229545 
L 447.974624 318.709795 
L 448.652117 318.917695 
L 450.007103 318.397945 
L 450.684596 319.333495 
L 451.362088 319.021645 
L 452.717074 319.333495 
L 454.072059 319.021645 
L 454.749552 319.125595 
L 455.427045 319.437445 
L 456.104538 319.021645 
L 456.782031 319.333495 
L 457.459523 319.021645 
L 458.814509 319.541395 
L 459.492002 319.333495 
L 460.169495 319.541395 
L 460.846987 319.229545 
L 461.52448 319.437445 
L 462.201973 319.333495 
L 462.879466 319.645345 
L 465.589437 319.229545 
L 466.26693 319.645345 
L 467.621915 319.333495 
L 468.299408 319.333495 
L 468.976901 319.541395 
L 469.654394 319.541395 
L 470.331886 319.853245 
L 471.009379 319.437445 
L 474.396843 319.333495 
L 475.074336 319.021645 
L 476.429322 319.541395 
L 477.106814 319.333495 
L 478.4618 319.541395 
L 479.139293 319.125595 
L 479.816786 319.541395 
L 480.494278 319.333495 
L 481.171771 319.437445 
L 481.849264 319.229545 
L 482.526757 319.541395 
L 483.20425 319.125595 
L 484.559235 319.749296 
L 485.236728 319.437445 
L 485.914221 319.749296 
L 486.591713 319.645345 
L 487.269206 319.853245 
L 487.946699 319.853245 
L 488.624192 319.541395 
L 489.301685 319.853245 
L 489.979177 319.333495 
L 490.65667 319.541395 
L 491.334163 319.541395 
L 492.011656 318.917695 
L 492.689149 319.229545 
L 493.366641 319.125595 
L 494.044134 319.541395 
L 494.721627 319.437445 
L 495.39912 319.645345 
L 496.754105 319.749296 
L 497.431598 319.853245 
L 498.109091 319.541395 
L 498.109091 319.541395 
" clip-path="url(#p7310029568)" style="fill: none; stroke: #0000ff; stroke-opacity: 0.5; stroke-width: 1.5; stroke-linecap: square"/>
   </g>
   <g id="line2d_47">
    <path d="M 92.290909 355.612045 
L 92.968402 364.447795 
L 93.645895 359.458195 
L 94.323387 362.472745 
L 95.00088 361.537195 
L 95.678373 360.081895 
L 96.355866 360.601646 
L 97.033359 358.730546 
L 97.710851 358.002895 
L 98.388344 359.042395 
L 99.065837 359.458195 
L 99.74333 359.458195 
L 100.420823 359.666095 
L 101.098315 361.641145 
L 101.775808 361.017446 
L 102.453301 359.562145 
L 103.130794 359.458195 
L 104.485779 361.017446 
L 105.163272 360.809546 
L 106.518258 361.329296 
L 107.19575 360.913496 
L 107.873243 360.185845 
L 108.550736 360.601646 
L 109.228229 359.873995 
L 109.905722 360.705596 
L 110.583214 361.329296 
L 111.260707 360.705596 
L 111.9382 359.770045 
L 112.615693 359.354245 
L 113.293186 360.185845 
L 113.970678 359.458195 
L 114.648171 359.977945 
L 115.325664 359.977945 
L 116.003157 359.146345 
L 116.68065 359.977945 
L 117.358142 359.666095 
L 118.035635 359.562145 
L 118.713128 359.042395 
L 119.390621 358.834496 
L 120.068114 357.691045 
L 120.745606 357.691045 
L 121.423099 357.483145 
L 122.100592 356.339696 
L 122.778085 356.235746 
L 123.455577 354.884395 
L 124.13307 354.260695 
L 124.810563 354.780445 
L 125.488056 354.052796 
L 126.165549 353.636996 
L 126.843041 352.597495 
L 127.520534 352.909345 
L 128.198027 352.597495 
L 128.87552 352.805395 
L 129.553013 354.052796 
L 130.230505 354.364645 
L 130.907998 355.923896 
L 131.585491 356.339696 
L 132.262984 357.587095 
L 132.940477 357.067345 
L 133.617969 356.339696 
L 134.295462 358.210796 
L 134.972955 357.691045 
L 135.650448 358.314746 
L 136.327941 356.755495 
L 137.005433 358.730546 
L 137.682926 357.275245 
L 138.360419 358.626596 
L 139.715404 358.314746 
L 140.392897 358.002895 
L 141.07039 358.314746 
L 141.747883 358.002895 
L 142.425376 357.171295 
L 143.102868 357.898945 
L 143.780361 358.002895 
L 144.457854 357.898945 
L 145.135347 357.587095 
L 145.81284 357.794995 
L 146.490332 356.963395 
L 147.167825 356.859445 
L 147.845318 357.171295 
L 148.522811 357.067345 
L 149.200304 356.651545 
L 150.555289 357.275245 
L 151.910275 356.755495 
L 153.26526 356.755495 
L 153.942753 356.443646 
L 154.620246 356.443646 
L 155.297739 356.235746 
L 155.975231 356.235746 
L 156.652724 355.923896 
L 158.00771 355.819946 
L 158.685203 355.715995 
L 159.362695 355.092295 
L 160.040188 355.715995 
L 160.717681 355.508095 
L 161.395174 355.612045 
L 162.072667 354.988345 
L 162.750159 355.196245 
L 163.427652 354.884395 
L 165.460131 354.572545 
L 167.492609 353.636996 
L 168.170102 352.597495 
L 168.847594 353.013295 
L 169.525087 352.701445 
L 170.20258 352.701445 
L 170.880073 353.013295 
L 171.557566 352.493545 
L 172.235058 352.597495 
L 172.912551 352.285645 
L 173.590044 351.142196 
L 174.267537 351.142196 
L 174.94503 350.726395 
L 175.622522 351.038246 
L 176.300015 350.622445 
L 176.977508 350.934296 
L 177.655001 349.375045 
L 178.332494 349.063196 
L 179.687479 349.478995 
L 180.364972 349.063196 
L 181.042465 349.686895 
L 181.719958 349.271096 
L 182.39745 349.790845 
L 183.074943 349.686895 
L 183.752436 350.102695 
L 184.429929 349.167146 
L 186.462407 350.310595 
L 187.1399 350.518495 
L 187.817393 350.206645 
L 188.494885 349.375045 
L 189.849871 348.959246 
L 190.527364 349.582945 
L 191.204857 348.647396 
L 192.559842 349.063196 
L 193.237335 348.751346 
L 193.914828 348.855296 
L 194.592321 348.023695 
L 195.269813 347.919745 
L 195.947306 347.088145 
L 197.302292 347.919745 
L 197.979784 347.607895 
L 198.657277 347.088145 
L 199.33477 347.503945 
L 200.012263 347.192095 
L 200.689756 347.088145 
L 201.367248 346.776296 
L 202.044741 345.944695 
L 202.722234 345.840745 
L 204.754712 346.048646 
L 206.109698 345.113095 
L 206.787191 345.009145 
L 208.142176 344.281496 
L 208.819669 344.281496 
L 209.497162 343.657795 
L 210.174655 343.345945 
L 210.852148 343.449895 
L 212.207133 342.722245 
L 212.884626 342.722245 
L 214.239611 341.890646 
L 215.594597 341.578796 
L 216.27209 341.059045 
L 216.949583 340.747195 
L 217.627075 340.851145 
L 218.304568 340.435345 
L 218.982061 340.331395 
L 219.659554 339.811645 
L 221.014539 339.291896 
L 222.369525 338.876096 
L 223.047018 338.044495 
L 224.402003 337.732645 
L 225.079496 338.148445 
L 225.756989 336.901046 
L 226.434482 337.108946 
L 227.111975 336.693146 
L 227.789467 336.797096 
L 228.46696 335.965495 
L 229.821946 336.173395 
L 230.499438 335.237845 
L 231.176931 334.925995 
L 231.854424 334.925995 
L 232.531917 334.718096 
L 233.20941 334.822046 
L 233.886902 333.574645 
L 234.564395 333.886495 
L 236.596874 333.158845 
L 237.274366 332.846995 
L 237.951859 332.119346 
L 239.306845 332.119346 
L 241.339323 330.664045 
L 242.016816 330.767995 
L 242.694309 330.664045 
L 243.371801 330.040346 
L 244.049294 329.624546 
L 244.726787 329.728496 
L 245.40428 328.896895 
L 246.081773 329.104795 
L 246.759265 328.688995 
L 250.146729 327.545546 
L 250.824222 327.025795 
L 251.501715 326.713945 
L 252.179208 327.025795 
L 252.856701 326.402095 
L 253.534193 325.986295 
L 254.211686 325.882345 
L 254.889179 325.466545 
L 255.566672 325.570495 
L 256.244165 324.842846 
L 257.59915 324.427045 
L 258.276643 324.011245 
L 258.954136 324.323096 
L 259.631628 323.907295 
L 260.986614 323.491495 
L 261.664107 323.491495 
L 263.019092 323.075695 
L 263.696585 322.659896 
L 267.084049 321.724345 
L 271.826499 320.996695 
L 272.503992 321.204595 
L 273.181484 321.100645 
L 273.858977 321.204595 
L 274.53647 320.892745 
L 275.213963 320.892745 
L 275.891455 321.204595 
L 276.568948 321.204595 
L 277.246441 320.892745 
L 278.601427 321.204595 
L 279.278919 320.892745 
L 280.633905 321.204595 
L 281.311398 320.892745 
L 281.988891 320.788795 
L 282.666383 320.996695 
L 283.343876 320.996695 
L 284.021369 320.788795 
L 284.698862 321.204595 
L 285.376355 321.100645 
L 286.053847 321.412495 
L 286.73134 321.100645 
L 287.408833 321.308545 
L 290.796297 321.412495 
L 291.47379 321.620395 
L 292.151282 321.412495 
L 292.828775 321.620395 
L 293.506268 321.516445 
L 294.183761 321.828295 
L 294.861254 321.516445 
L 296.216239 321.308545 
L 298.248718 321.724345 
L 298.92621 321.932245 
L 299.603703 321.828295 
L 300.281196 321.516445 
L 301.636182 321.412495 
L 302.313674 321.308545 
L 302.991167 321.516445 
L 305.023645 321.204595 
L 306.378631 321.516445 
L 307.056124 321.412495 
L 307.733617 321.516445 
L 309.088602 321.100645 
L 309.766095 321.412495 
L 311.121081 320.892745 
L 311.798573 320.996695 
L 312.476066 320.892745 
L 313.153559 321.204595 
L 314.508545 321.100645 
L 315.186037 320.892745 
L 315.86353 320.996695 
L 319.250994 320.580895 
L 319.928487 320.788795 
L 320.60598 320.684845 
L 321.283472 320.372996 
L 326.703415 320.269046 
L 327.380908 320.788795 
L 328.0584 320.269046 
L 328.735893 320.269046 
L 329.413386 319.853245 
L 330.090879 320.372996 
L 332.80085 320.061146 
L 333.478343 320.269046 
L 334.155835 320.165096 
L 334.833328 319.853245 
L 335.510821 320.165096 
L 336.865807 319.957196 
L 337.543299 320.165096 
L 338.898285 319.749296 
L 339.575778 319.853245 
L 340.253271 319.541395 
L 341.608256 319.749296 
L 342.963242 319.437445 
L 343.640735 319.645345 
L 344.318227 319.645345 
L 344.99572 319.229545 
L 345.673213 319.229545 
L 346.350706 319.541395 
L 347.028199 319.229545 
L 348.383184 319.125595 
L 349.060677 319.333495 
L 349.73817 319.333495 
L 350.415662 319.021645 
L 351.770648 319.125595 
L 352.448141 319.333495 
L 353.125634 319.125595 
L 354.480619 319.229545 
L 355.158112 319.125595 
L 356.513098 319.229545 
L 359.223069 318.813745 
L 359.900562 319.333495 
L 360.578054 319.229545 
L 361.93304 318.293995 
L 362.610533 318.709795 
L 363.288025 319.333495 
L 364.643011 318.501895 
L 365.320504 318.709795 
L 365.997997 318.293995 
L 366.675489 318.501895 
L 368.030475 318.397945 
L 368.707968 318.605845 
L 369.385461 318.293995 
L 370.062953 318.190045 
L 370.740446 318.605845 
L 371.417939 318.293995 
L 372.095432 318.293995 
L 372.772925 318.605845 
L 373.450417 318.190045 
L 374.12791 318.293995 
L 374.805403 318.709795 
L 375.482896 318.397945 
L 376.837881 318.501895 
L 377.515374 317.774246 
L 378.192867 318.190045 
L 378.87036 318.397945 
L 379.547852 318.086095 
L 380.902838 318.397945 
L 381.580331 317.982146 
L 382.257824 317.774246 
L 383.612809 318.293995 
L 384.967795 317.982146 
L 385.645288 318.397945 
L 386.32278 318.190045 
L 387.000273 318.190045 
L 387.677766 317.774246 
L 388.355259 318.190045 
L 389.032752 318.293995 
L 389.710244 318.190045 
L 390.387737 318.397945 
L 391.06523 318.190045 
L 391.742723 318.190045 
L 392.420216 318.397945 
L 393.097708 318.190045 
L 394.452694 318.397945 
L 395.130187 318.086095 
L 395.807679 318.086095 
L 396.485172 318.293995 
L 397.162665 318.190045 
L 397.840158 318.397945 
L 398.517651 318.190045 
L 399.195143 318.190045 
L 399.872636 317.982146 
L 400.550129 318.190045 
L 401.227622 318.086095 
L 402.582607 318.190045 
L 403.2601 318.086095 
L 405.292579 318.293995 
L 405.970071 317.878196 
L 406.647564 318.190045 
L 407.325057 317.878196 
L 408.00255 318.190045 
L 408.680042 317.982146 
L 409.357535 317.982146 
L 410.035028 318.190045 
L 412.067506 317.878196 
L 412.744999 318.501895 
L 413.422492 318.086095 
L 414.099985 316.734745 
L 414.777478 317.774246 
L 415.45497 318.190045 
L 419.519927 318.190045 
L 420.19742 318.501895 
L 422.229898 318.190045 
L 422.907391 318.397945 
L 423.584884 318.190045 
L 424.262377 318.190045 
L 424.939869 318.397945 
L 425.617362 318.293995 
L 426.294855 318.501895 
L 426.972348 318.501895 
L 427.649841 318.190045 
L 430.359812 318.605845 
L 431.037305 318.293995 
L 432.39229 318.397945 
L 433.069783 318.917695 
L 433.747276 318.190045 
L 434.424769 318.501895 
L 435.102261 318.397945 
L 435.779754 318.813745 
L 436.457247 318.501895 
L 437.13474 318.397945 
L 437.812233 318.709795 
L 438.489725 318.501895 
L 439.167218 318.605845 
L 440.522204 318.293995 
L 441.199696 318.709795 
L 441.877189 318.190045 
L 442.554682 318.190045 
L 443.232175 318.709795 
L 444.58716 318.813745 
L 445.264653 318.501895 
L 445.942146 318.917695 
L 446.619639 318.709795 
L 447.297132 319.229545 
L 447.974624 318.501895 
L 448.652117 318.813745 
L 450.007103 319.125595 
L 450.684596 318.501895 
L 451.362088 318.917695 
L 452.039581 318.917695 
L 452.717074 318.501895 
L 454.072059 319.021645 
L 454.749552 318.917695 
L 455.427045 319.229545 
L 456.782031 318.709795 
L 457.459523 318.709795 
L 458.137016 319.125595 
L 459.492002 319.125595 
L 460.169495 319.437445 
L 460.846987 319.541395 
L 461.52448 319.229545 
L 462.201973 318.709795 
L 462.879466 319.541395 
L 463.556959 319.541395 
L 464.234451 319.229545 
L 464.911944 318.709795 
L 465.589437 319.021645 
L 466.26693 318.917695 
L 466.944423 319.021645 
L 467.621915 318.917695 
L 468.976901 319.229545 
L 469.654394 319.021645 
L 471.009379 319.541395 
L 473.71935 319.229545 
L 474.396843 319.437445 
L 475.074336 319.229545 
L 475.751829 319.437445 
L 476.429322 319.229545 
L 478.4618 319.541395 
L 479.139293 319.437445 
L 479.816786 319.541395 
L 480.494278 319.229545 
L 481.171771 320.061146 
L 481.849264 319.645345 
L 482.526757 319.749296 
L 483.881742 319.229545 
L 484.559235 319.645345 
L 485.236728 319.853245 
L 485.914221 319.645345 
L 486.591713 319.645345 
L 487.269206 319.853245 
L 487.946699 319.645345 
L 488.624192 319.749296 
L 489.301685 319.645345 
L 489.979177 319.749296 
L 490.65667 319.645345 
L 491.334163 320.061146 
L 493.366641 319.853245 
L 494.044134 319.957196 
L 494.721627 320.476945 
L 495.39912 319.749296 
L 496.754105 320.165096 
L 498.109091 320.061146 
L 498.109091 320.061146 
" clip-path="url(#p7310029568)" style="fill: none; stroke: #0000ff; stroke-opacity: 0.5; stroke-width: 1.5; stroke-linecap: square"/>
   </g>
   <g id="line2d_48">
    <path d="M 92.290909 361.433245 
L 92.968402 357.379195 
L 93.645895 361.121396 
L 94.323387 362.160895 
L 95.678373 359.458195 
L 96.355866 361.329296 
L 97.033359 359.354245 
L 97.710851 359.250295 
L 98.388344 361.952995 
L 99.065837 360.497696 
L 99.74333 358.522646 
L 100.420823 360.497696 
L 101.775808 361.017446 
L 102.453301 360.081895 
L 103.130794 361.225346 
L 103.808287 361.641145 
L 104.485779 361.329296 
L 105.163272 361.641145 
L 105.840765 361.641145 
L 106.518258 361.329296 
L 107.19575 361.225346 
L 107.873243 361.745095 
L 108.550736 360.289795 
L 109.228229 360.185845 
L 109.905722 360.497696 
L 110.583214 360.393745 
L 111.260707 359.666095 
L 111.9382 359.666095 
L 112.615693 358.314746 
L 113.293186 359.977945 
L 113.970678 358.522646 
L 114.648171 359.146345 
L 115.325664 359.250295 
L 116.003157 358.106846 
L 117.358142 358.626596 
L 118.035635 359.354245 
L 118.713128 358.106846 
L 119.390621 359.770045 
L 120.068114 359.250295 
L 121.423099 358.730546 
L 122.100592 359.042395 
L 122.778085 358.938446 
L 123.455577 359.042395 
L 124.13307 358.002895 
L 124.810563 357.794995 
L 125.488056 356.235746 
L 126.165549 355.300195 
L 126.843041 353.948846 
L 127.520534 355.300195 
L 128.87552 352.909345 
L 129.553013 356.859445 
L 130.230505 356.339696 
L 130.907998 356.651545 
L 131.585491 354.780445 
L 132.262984 354.572545 
L 132.940477 353.429096 
L 133.617969 352.805395 
L 134.295462 352.597495 
L 134.972955 353.117245 
L 135.650448 352.077745 
L 136.327941 351.557996 
L 137.005433 352.701445 
L 137.682926 354.260695 
L 138.360419 354.676495 
L 139.037912 353.948846 
L 139.715404 351.038246 
L 140.392897 351.142196 
L 141.07039 353.325146 
L 141.747883 350.934296 
L 142.425376 351.350096 
L 143.102868 355.300195 
L 143.780361 355.715995 
L 144.457854 354.988345 
L 145.135347 354.988345 
L 145.81284 353.948846 
L 146.490332 353.740946 
L 147.167825 354.676495 
L 147.845318 350.830345 
L 148.522811 350.518495 
L 149.200304 351.038246 
L 149.877796 353.740946 
L 150.555289 353.948846 
L 151.232782 351.973795 
L 151.910275 352.285645 
L 152.587767 354.884395 
L 153.26526 353.117245 
L 154.620246 354.156745 
L 155.297739 354.988345 
L 155.975231 354.572545 
L 156.652724 354.572545 
L 157.330217 353.948846 
L 158.00771 355.404145 
L 158.685203 355.819946 
L 159.362695 353.429096 
L 160.040188 354.468595 
L 160.717681 353.429096 
L 161.395174 353.429096 
L 162.072667 352.181695 
L 162.750159 354.156745 
L 163.427652 353.117245 
L 164.105145 354.364645 
L 164.782638 353.325146 
L 166.137623 353.117245 
L 166.815116 352.597495 
L 167.492609 352.805395 
L 168.170102 353.533046 
L 168.847594 353.844896 
L 169.525087 353.013295 
L 170.20258 353.117245 
L 170.880073 353.533046 
L 171.557566 352.493545 
L 172.235058 352.701445 
L 172.912551 352.597495 
L 173.590044 350.726395 
L 174.267537 352.285645 
L 175.622522 351.142196 
L 176.300015 351.246146 
L 176.977508 351.869845 
L 177.655001 350.206645 
L 178.332494 350.102695 
L 179.009986 350.934296 
L 179.687479 351.142196 
L 180.364972 350.310595 
L 181.042465 351.038246 
L 181.719958 350.518495 
L 182.39745 350.830345 
L 183.074943 348.959246 
L 183.752436 349.894795 
L 184.429929 349.063196 
L 185.107421 349.582945 
L 186.462407 348.959246 
L 187.1399 349.063196 
L 189.172378 348.231595 
L 189.849871 348.335545 
L 190.527364 347.503945 
L 191.882349 347.399995 
L 192.559842 347.815795 
L 193.237335 347.815795 
L 193.914828 346.880246 
L 194.592321 346.880246 
L 195.269813 346.048646 
L 195.947306 346.568396 
L 196.624799 346.360496 
L 197.302292 346.776296 
L 198.657277 345.944695 
L 199.33477 346.464446 
L 200.012263 345.840745 
L 200.689756 346.152596 
L 201.367248 345.632845 
L 202.044741 344.905195 
L 202.722234 344.801245 
L 203.399727 344.385446 
L 204.07722 345.009145 
L 204.754712 344.385446 
L 205.432205 344.905195 
L 206.109698 344.593345 
L 206.787191 343.969646 
L 208.142176 343.657795 
L 208.819669 343.865696 
L 210.174655 342.514345 
L 210.852148 342.410395 
L 211.52964 341.994596 
L 212.207133 341.890646 
L 212.884626 341.474846 
L 213.562119 341.890646 
L 214.917104 340.747195 
L 215.594597 340.747195 
L 216.949583 339.603746 
L 217.627075 339.915595 
L 218.304568 339.291896 
L 218.982061 339.395846 
L 219.659554 338.772145 
L 221.014539 338.772145 
L 221.692032 337.420795 
L 222.369525 338.252395 
L 223.724511 336.069445 
L 224.402003 336.069445 
L 225.079496 336.485245 
L 225.756989 336.589195 
L 226.434482 336.485245 
L 227.789467 335.341795 
L 228.46696 334.302296 
L 229.821946 335.029945 
L 231.176931 333.782545 
L 232.531917 334.718096 
L 233.20941 333.886495 
L 233.886902 333.366745 
L 234.564395 333.574645 
L 235.241888 333.262795 
L 235.919381 333.158845 
L 236.596874 332.431196 
L 237.951859 330.664045 
L 238.629352 331.391695 
L 239.306845 330.560095 
L 239.984338 330.767995 
L 240.66183 329.520596 
L 241.339323 328.688995 
L 242.016816 329.832446 
L 242.694309 329.104795 
L 243.371801 328.585045 
L 244.049294 329.208745 
L 244.726787 329.104795 
L 245.40428 327.025795 
L 246.081773 327.857395 
L 246.759265 328.065295 
L 247.436758 327.337646 
L 248.114251 327.025795 
L 248.791744 327.129746 
L 249.469237 326.506045 
L 250.146729 326.402095 
L 250.824222 325.050746 
L 251.501715 324.946796 
L 252.179208 325.570495 
L 252.856701 324.427045 
L 253.534193 324.427045 
L 254.889179 324.011245 
L 255.566672 324.323096 
L 256.244165 323.283595 
L 256.921657 323.075695 
L 257.59915 322.659896 
L 258.276643 321.412495 
L 258.954136 322.763846 
L 259.631628 321.620395 
L 260.309121 321.412495 
L 260.986614 322.244096 
L 261.664107 321.932245 
L 262.3416 321.204595 
L 263.019092 320.892745 
L 263.696585 321.100645 
L 264.374078 320.684845 
L 265.729064 319.541395 
L 266.406556 319.749296 
L 267.084049 319.437445 
L 267.761542 319.541395 
L 269.116528 318.605845 
L 269.79402 318.917695 
L 270.471513 319.853245 
L 271.149006 319.333495 
L 271.826499 318.293995 
L 273.858977 318.501895 
L 274.53647 318.293995 
L 275.213963 318.293995 
L 275.891455 318.605845 
L 276.568948 318.709795 
L 277.246441 317.566346 
L 277.923934 318.293995 
L 278.601427 318.397945 
L 279.278919 317.670296 
L 279.956412 318.605845 
L 280.633905 317.774246 
L 281.311398 318.086095 
L 281.988891 317.670296 
L 282.666383 318.086095 
L 283.343876 317.566346 
L 284.021369 318.397945 
L 284.698862 317.358446 
L 285.376355 318.293995 
L 286.053847 318.190045 
L 286.73134 317.670296 
L 287.408833 318.293995 
L 288.763818 318.293995 
L 289.441311 318.605845 
L 290.118804 318.190045 
L 292.151282 319.229545 
L 292.828775 318.917695 
L 293.506268 318.190045 
L 294.183761 318.397945 
L 295.538746 319.437445 
L 296.893732 319.125595 
L 297.571225 319.229545 
L 298.248718 319.125595 
L 298.92621 318.605845 
L 299.603703 318.293995 
L 300.281196 318.501895 
L 301.636182 318.397945 
L 302.991167 318.605845 
L 303.66866 318.086095 
L 305.023645 318.709795 
L 307.056124 318.086095 
L 307.733617 318.813745 
L 308.411109 318.293995 
L 310.443588 318.501895 
L 311.121081 319.125595 
L 311.798573 318.397945 
L 312.476066 317.462395 
L 313.153559 317.878196 
L 313.831052 318.501895 
L 314.508545 317.774246 
L 315.186037 318.086095 
L 315.86353 318.086095 
L 316.541023 317.878196 
L 317.218516 318.605845 
L 317.896008 317.774246 
L 318.573501 317.566346 
L 319.250994 318.086095 
L 319.928487 318.813745 
L 320.60598 317.878196 
L 321.283472 317.982146 
L 321.960965 317.670296 
L 322.638458 318.293995 
L 323.315951 317.878196 
L 323.993444 317.254495 
L 324.670936 317.878196 
L 326.025922 317.774246 
L 326.703415 317.150545 
L 327.380908 317.774246 
L 328.735893 317.462395 
L 329.413386 317.358446 
L 330.090879 316.942645 
L 330.768372 317.358446 
L 331.445864 316.630795 
L 332.123357 317.254495 
L 334.155835 316.630795 
L 334.833328 317.150545 
L 335.510821 316.526845 
L 336.188314 317.150545 
L 336.865807 317.254495 
L 337.543299 317.150545 
L 338.220792 317.670296 
L 338.898285 317.150545 
L 339.575778 316.422895 
L 340.253271 316.422895 
L 340.930763 316.007095 
L 341.608256 316.942645 
L 342.285749 316.318945 
L 342.963242 317.046595 
L 343.640735 316.526845 
L 344.318227 317.046595 
L 344.99572 317.254495 
L 345.673213 316.942645 
L 346.350706 316.838695 
L 348.383184 317.046595 
L 349.73817 316.942645 
L 351.093155 316.318945 
L 352.448141 316.630795 
L 353.125634 316.318945 
L 354.480619 316.214995 
L 356.513098 316.734745 
L 357.19059 316.734745 
L 357.868083 316.318945 
L 359.223069 316.007095 
L 359.900562 316.526845 
L 360.578054 315.903145 
L 361.255547 316.007095 
L 361.93304 315.695245 
L 362.610533 315.591296 
L 363.288025 315.799195 
L 364.643011 315.591296 
L 365.320504 314.863645 
L 365.997997 315.591296 
L 366.675489 315.799195 
L 367.352982 315.799195 
L 368.030475 315.175496 
L 368.707968 315.383396 
L 369.385461 315.175496 
L 370.062953 315.695245 
L 370.740446 315.487346 
L 371.417939 314.759695 
L 372.095432 316.111045 
L 372.772925 315.383396 
L 373.450417 314.863645 
L 374.12791 315.487346 
L 374.805403 315.175496 
L 375.482896 315.383396 
L 376.160389 315.799195 
L 376.837881 315.175496 
L 377.515374 314.759695 
L 378.192867 314.759695 
L 379.547852 315.279445 
L 380.225345 314.967595 
L 380.902838 315.071545 
L 381.580331 314.655745 
L 382.257824 314.967595 
L 382.935316 314.967595 
L 383.612809 314.759695 
L 384.290302 315.383396 
L 384.967795 314.863645 
L 385.645288 315.279445 
L 386.32278 314.759695 
L 387.000273 314.032045 
L 387.677766 315.175496 
L 389.032752 314.551795 
L 389.710244 314.655745 
L 390.387737 315.071545 
L 391.742723 314.343895 
L 392.420216 314.655745 
L 393.097708 314.343895 
L 393.775201 314.239945 
L 394.452694 313.824145 
L 395.130187 314.135995 
L 395.807679 314.759695 
L 396.485172 314.447845 
L 399.195143 314.032045 
L 399.872636 314.239945 
L 400.550129 314.032045 
L 401.227622 314.135995 
L 401.905115 313.616245 
L 402.582607 314.759695 
L 403.2601 314.759695 
L 403.937593 314.343895 
L 404.615086 314.551795 
L 405.292579 313.616245 
L 405.970071 314.135995 
L 406.647564 313.720195 
L 407.325057 314.863645 
L 408.680042 314.551795 
L 409.357535 314.447845 
L 410.035028 315.071545 
L 410.712521 314.551795 
L 411.390014 314.759695 
L 412.067506 314.239945 
L 412.744999 314.551795 
L 413.422492 314.447845 
L 414.099985 314.655745 
L 414.777478 313.616245 
L 416.132463 314.551795 
L 416.809956 314.655745 
L 417.487449 314.343895 
L 418.842434 314.447845 
L 420.19742 315.383396 
L 420.874913 315.071545 
L 421.552406 315.071545 
L 422.229898 315.279445 
L 422.907391 314.759695 
L 424.262377 315.487346 
L 424.939869 315.071545 
L 426.294855 315.175496 
L 426.972348 315.695245 
L 427.649841 314.655745 
L 429.004826 315.071545 
L 429.682319 314.135995 
L 430.359812 314.863645 
L 431.037305 314.655745 
L 431.714797 315.279445 
L 432.39229 314.967595 
L 433.069783 315.903145 
L 435.102261 315.487346 
L 435.779754 316.318945 
L 436.457247 316.214995 
L 437.13474 316.422895 
L 437.812233 316.318945 
L 438.489725 316.630795 
L 439.167218 315.591296 
L 439.844711 316.422895 
L 440.522204 315.799195 
L 441.199696 316.111045 
L 441.877189 315.903145 
L 442.554682 316.526845 
L 443.232175 316.111045 
L 443.909668 316.318945 
L 444.58716 316.111045 
L 445.264653 316.526845 
L 445.942146 316.111045 
L 446.619639 316.422895 
L 447.297132 316.526845 
L 447.974624 316.007095 
L 448.652117 316.318945 
L 449.32961 316.111045 
L 450.007103 317.150545 
L 451.362088 316.422895 
L 452.039581 316.942645 
L 452.717074 316.526845 
L 453.394567 317.150545 
L 454.072059 316.838695 
L 454.749552 317.150545 
L 456.104538 317.254495 
L 456.782031 317.358446 
L 457.459523 317.254495 
L 458.137016 316.734745 
L 458.814509 316.526845 
L 460.169495 317.566346 
L 460.846987 316.630795 
L 461.52448 316.630795 
L 462.201973 317.566346 
L 462.879466 317.462395 
L 463.556959 317.150545 
L 466.26693 317.254495 
L 466.944423 316.942645 
L 467.621915 317.150545 
L 468.299408 316.838695 
L 468.976901 317.462395 
L 469.654394 316.734745 
L 470.331886 317.046595 
L 471.009379 316.838695 
L 472.364365 317.358446 
L 473.041858 317.150545 
L 473.71935 317.150545 
L 474.396843 316.318945 
L 475.751829 317.046595 
L 476.429322 316.734745 
L 477.106814 316.734745 
L 477.784307 317.462395 
L 478.4618 317.462395 
L 479.139293 317.046595 
L 479.816786 317.254495 
L 481.171771 318.086095 
L 481.849264 317.878196 
L 482.526757 317.878196 
L 483.20425 318.086095 
L 483.881742 317.878196 
L 484.559235 317.150545 
L 485.236728 317.358446 
L 485.914221 317.878196 
L 486.591713 317.462395 
L 487.269206 318.190045 
L 487.946699 317.774246 
L 488.624192 317.670296 
L 489.301685 318.190045 
L 489.979177 317.670296 
L 491.334163 318.190045 
L 492.011656 317.774246 
L 493.366641 318.086095 
L 495.39912 318.397945 
L 496.076613 318.813745 
L 496.754105 318.086095 
L 497.431598 318.605845 
L 498.109091 318.501895 
L 498.109091 318.501895 
" clip-path="url(#p7310029568)" style="fill: none; stroke: #0000ff; stroke-opacity: 0.5; stroke-width: 1.5; stroke-linecap: square"/>
   </g>
   <g id="LineCollection_1">
    <path d="M 92.290909 364.248703 
L 92.290909 352.380788 
" clip-path="url(#p7310029568)" style="fill: none; stroke: #ff0000; stroke-width: 1.5"/>
    <path d="M 119.390621 360.924992 
L 119.390621 351.494524 
" clip-path="url(#p7310029568)" style="fill: none; stroke: #ff0000; stroke-width: 1.5"/>
    <path d="M 146.490332 358.173031 
L 146.490332 354.61031 
" clip-path="url(#p7310029568)" style="fill: none; stroke: #ff0000; stroke-width: 1.5"/>
    <path d="M 173.590044 353.33305 
L 173.590044 350.562566 
" clip-path="url(#p7310029568)" style="fill: none; stroke: #ff0000; stroke-width: 1.5"/>
    <path d="M 200.689756 348.351588 
L 200.689756 346.188528 
" clip-path="url(#p7310029568)" style="fill: none; stroke: #ff0000; stroke-width: 1.5"/>
    <path d="M 227.789467 338.899382 
L 227.789467 335.318509 
" clip-path="url(#p7310029568)" style="fill: none; stroke: #ff0000; stroke-width: 1.5"/>
    <path d="M 254.889179 327.652225 
L 254.889179 324.268391 
" clip-path="url(#p7310029568)" style="fill: none; stroke: #ff0000; stroke-width: 1.5"/>
    <path d="M 281.988891 322.620655 
L 281.988891 318.489161 
" clip-path="url(#p7310029568)" style="fill: none; stroke: #ff0000; stroke-width: 1.5"/>
    <path d="M 309.088602 322.182769 
L 309.088602 319.134947 
" clip-path="url(#p7310029568)" style="fill: none; stroke: #ff0000; stroke-width: 1.5"/>
    <path d="M 336.188314 321.597151 
L 336.188314 317.90144 
" clip-path="url(#p7310029568)" style="fill: none; stroke: #ff0000; stroke-width: 1.5"/>
    <path d="M 363.288025 320.606655 
L 363.288025 316.657011 
" clip-path="url(#p7310029568)" style="fill: none; stroke: #ff0000; stroke-width: 1.5"/>
    <path d="M 390.387737 319.932389 
L 390.387737 315.927952 
" clip-path="url(#p7310029568)" style="fill: none; stroke: #ff0000; stroke-width: 1.5"/>
    <path d="M 417.487449 319.7569 
L 417.487449 315.219866 
" clip-path="url(#p7310029568)" style="fill: none; stroke: #ff0000; stroke-width: 1.5"/>
    <path d="M 444.58716 320.275124 
L 444.58716 316.676692 
" clip-path="url(#p7310029568)" style="fill: none; stroke: #ff0000; stroke-width: 1.5"/>
    <path d="M 471.686872 320.327882 
L 471.686872 317.663434 
" clip-path="url(#p7310029568)" style="fill: none; stroke: #ff0000; stroke-width: 1.5"/>
   </g>
   <g id="line2d_49">
    <defs>
     <path id="mce041b9652" d="M 5 0 
L -5 -0 
" style="stroke: #ff0000"/>
    </defs>
    <g clip-path="url(#p7310029568)">
     <use xlink:href="#mce041b9652" x="92.290909" y="364.248703" style="fill: #ff0000; stroke: #ff0000"/>
     <use xlink:href="#mce041b9652" x="119.390621" y="360.924992" style="fill: #ff0000; stroke: #ff0000"/>
     <use xlink:href="#mce041b9652" x="146.490332" y="358.173031" style="fill: #ff0000; stroke: #ff0000"/>
     <use xlink:href="#mce041b9652" x="173.590044" y="353.33305" style="fill: #ff0000; stroke: #ff0000"/>
     <use xlink:href="#mce041b9652" x="200.689756" y="348.351588" style="fill: #ff0000; stroke: #ff0000"/>
     <use xlink:href="#mce041b9652" x="227.789467" y="338.899382" style="fill: #ff0000; stroke: #ff0000"/>
     <use xlink:href="#mce041b9652" x="254.889179" y="327.652225" style="fill: #ff0000; stroke: #ff0000"/>
     <use xlink:href="#mce041b9652" x="281.988891" y="322.620655" style="fill: #ff0000; stroke: #ff0000"/>
     <use xlink:href="#mce041b9652" x="309.088602" y="322.182769" style="fill: #ff0000; stroke: #ff0000"/>
     <use xlink:href="#mce041b9652" x="336.188314" y="321.597151" style="fill: #ff0000; stroke: #ff0000"/>
     <use xlink:href="#mce041b9652" x="363.288025" y="320.606655" style="fill: #ff0000; stroke: #ff0000"/>
     <use xlink:href="#mce041b9652" x="390.387737" y="319.932389" style="fill: #ff0000; stroke: #ff0000"/>
     <use xlink:href="#mce041b9652" x="417.487449" y="319.7569" style="fill: #ff0000; stroke: #ff0000"/>
     <use xlink:href="#mce041b9652" x="444.58716" y="320.275124" style="fill: #ff0000; stroke: #ff0000"/>
     <use xlink:href="#mce041b9652" x="471.686872" y="320.327882" style="fill: #ff0000; stroke: #ff0000"/>
    </g>
   </g>
   <g id="line2d_50">
    <g clip-path="url(#p7310029568)">
     <use xlink:href="#mce041b9652" x="92.290909" y="352.380788" style="fill: #ff0000; stroke: #ff0000"/>
     <use xlink:href="#mce041b9652" x="119.390621" y="351.494524" style="fill: #ff0000; stroke: #ff0000"/>
     <use xlink:href="#mce041b9652" x="146.490332" y="354.61031" style="fill: #ff0000; stroke: #ff0000"/>
     <use xlink:href="#mce041b9652" x="173.590044" y="350.562566" style="fill: #ff0000; stroke: #ff0000"/>
     <use xlink:href="#mce041b9652" x="200.689756" y="346.188528" style="fill: #ff0000; stroke: #ff0000"/>
     <use xlink:href="#mce041b9652" x="227.789467" y="335.318509" style="fill: #ff0000; stroke: #ff0000"/>
     <use xlink:href="#mce041b9652" x="254.889179" y="324.268391" style="fill: #ff0000; stroke: #ff0000"/>
     <use xlink:href="#mce041b9652" x="281.988891" y="318.489161" style="fill: #ff0000; stroke: #ff0000"/>
     <use xlink:href="#mce041b9652" x="309.088602" y="319.134947" style="fill: #ff0000; stroke: #ff0000"/>
     <use xlink:href="#mce041b9652" x="336.188314" y="317.90144" style="fill: #ff0000; stroke: #ff0000"/>
     <use xlink:href="#mce041b9652" x="363.288025" y="316.657011" style="fill: #ff0000; stroke: #ff0000"/>
     <use xlink:href="#mce041b9652" x="390.387737" y="315.927952" style="fill: #ff0000; stroke: #ff0000"/>
     <use xlink:href="#mce041b9652" x="417.487449" y="315.219866" style="fill: #ff0000; stroke: #ff0000"/>
     <use xlink:href="#mce041b9652" x="444.58716" y="316.676692" style="fill: #ff0000; stroke: #ff0000"/>
     <use xlink:href="#mce041b9652" x="471.686872" y="317.663434" style="fill: #ff0000; stroke: #ff0000"/>
    </g>
   </g>
   <g id="line2d_51">
    <path d="M 92.290909 358.314746 
L 119.390621 356.209758 
L 146.490332 356.39167 
L 173.590044 351.947808 
L 200.689756 347.270058 
L 227.789467 337.108946 
L 254.889179 325.960308 
L 281.988891 320.554908 
L 309.088602 320.658858 
L 336.188314 319.749296 
L 363.288025 318.631833 
L 390.387737 317.93017 
L 417.487449 317.488383 
L 444.58716 318.475908 
L 471.686872 318.995658 
" clip-path="url(#p7310029568)" style="fill: none; stroke: #ff0000; stroke-width: 1.5; stroke-linecap: square"/>
   </g>
   <g id="patch_3">
    <path d="M 72 384.48 
L 72 51.84 
" style="fill: none; stroke: #000000; stroke-width: 0.8; stroke-linejoin: miter; stroke-linecap: square"/>
   </g>
   <g id="patch_4">
    <path d="M 518.4 384.48 
L 518.4 51.84 
" style="fill: none; stroke: #000000; stroke-width: 0.8; stroke-linejoin: miter; stroke-linecap: square"/>
   </g>
   <g id="patch_5">
    <path d="M 72 384.48 
L 518.4 384.48 
" style="fill: none; stroke: #000000; stroke-width: 0.8; stroke-linejoin: miter; stroke-linecap: square"/>
   </g>
   <g id="patch_6">
    <path d="M 72 51.84 
L 518.4 51.84 
" style="fill: none; stroke: #000000; stroke-width: 0.8; stroke-linejoin: miter; stroke-linecap: square"/>
   </g>
   <g id="text_25">
    <!-- M32: Aspartat; Isoleucin; Methionin; Histidin -->
    <g transform="translate(184.516406 45.84) scale(0.1 -0.1)">
     <defs>
      <path id="DejaVuSans-4d" d="M 628 4666 
L 1569 4666 
L 2759 1491 
L 3956 4666 
L 4897 4666 
L 4897 0 
L 4281 0 
L 4281 4097 
L 3078 897 
L 2444 897 
L 1241 4097 
L 1241 0 
L 628 0 
L 628 4666 
z
" transform="scale(0.015625)"/>
      <path id="DejaVuSans-3a" d="M 750 794 
L 1409 794 
L 1409 0 
L 750 0 
L 750 794 
z
M 750 3309 
L 1409 3309 
L 1409 2516 
L 750 2516 
L 750 3309 
z
" transform="scale(0.015625)"/>
      <path id="DejaVuSans-41" d="M 2188 4044 
L 1331 1722 
L 3047 1722 
L 2188 4044 
z
M 1831 4666 
L 2547 4666 
L 4325 0 
L 3669 0 
L 3244 1197 
L 1141 1197 
L 716 0 
L 50 0 
L 1831 4666 
z
" transform="scale(0.015625)"/>
      <path id="DejaVuSans-70" d="M 1159 525 
L 1159 -1331 
L 581 -1331 
L 581 3500 
L 1159 3500 
L 1159 2969 
Q 1341 3281 1617 3432 
Q 1894 3584 2278 3584 
Q 2916 3584 3314 3078 
Q 3713 2572 3713 1747 
Q 3713 922 3314 415 
Q 2916 -91 2278 -91 
Q 1894 -91 1617 61 
Q 1341 213 1159 525 
z
M 3116 1747 
Q 3116 2381 2855 2742 
Q 2594 3103 2138 3103 
Q 1681 3103 1420 2742 
Q 1159 2381 1159 1747 
Q 1159 1113 1420 752 
Q 1681 391 2138 391 
Q 2594 391 2855 752 
Q 3116 1113 3116 1747 
z
" transform="scale(0.015625)"/>
      <path id="DejaVuSans-3b" d="M 750 3309 
L 1409 3309 
L 1409 2516 
L 750 2516 
L 750 3309 
z
M 750 794 
L 1409 794 
L 1409 256 
L 897 -744 
L 494 -744 
L 750 256 
L 750 794 
z
" transform="scale(0.015625)"/>
      <path id="DejaVuSans-49" d="M 628 4666 
L 1259 4666 
L 1259 0 
L 628 0 
L 628 4666 
z
" transform="scale(0.015625)"/>
      <path id="DejaVuSans-48" d="M 628 4666 
L 1259 4666 
L 1259 2753 
L 3553 2753 
L 3553 4666 
L 4184 4666 
L 4184 0 
L 3553 0 
L 3553 2222 
L 1259 2222 
L 1259 0 
L 628 0 
L 628 4666 
z
" transform="scale(0.015625)"/>
     </defs>
     <use xlink:href="#DejaVuSans-4d"/>
     <use xlink:href="#DejaVuSans-33" x="86.279297"/>
     <use xlink:href="#DejaVuSans-32" x="149.902344"/>
     <use xlink:href="#DejaVuSans-3a" x="213.525391"/>
     <use xlink:href="#DejaVuSans-20" x="247.216797"/>
     <use xlink:href="#DejaVuSans-41" x="279.003906"/>
     <use xlink:href="#DejaVuSans-73" x="347.412109"/>
     <use xlink:href="#DejaVuSans-70" x="399.511719"/>
     <use xlink:href="#DejaVuSans-61" x="462.988281"/>
     <use xlink:href="#DejaVuSans-72" x="524.267578"/>
     <use xlink:href="#DejaVuSans-74" x="565.380859"/>
     <use xlink:href="#DejaVuSans-61" x="604.589844"/>
     <use xlink:href="#DejaVuSans-74" x="665.869141"/>
     <use xlink:href="#DejaVuSans-3b" x="705.078125"/>
     <use xlink:href="#DejaVuSans-20" x="738.769531"/>
     <use xlink:href="#DejaVuSans-49" x="770.556641"/>
     <use xlink:href="#DejaVuSans-73" x="800.048828"/>
     <use xlink:href="#DejaVuSans-6f" x="852.148438"/>
     <use xlink:href="#DejaVuSans-6c" x="913.330078"/>
     <use xlink:href="#DejaVuSans-65" x="941.113281"/>
     <use xlink:href="#DejaVuSans-75" x="1002.636719"/>
     <use xlink:href="#DejaVuSans-63" x="1066.015625"/>
     <use xlink:href="#DejaVuSans-69" x="1120.996094"/>
     <use xlink:href="#DejaVuSans-6e" x="1148.779297"/>
     <use xlink:href="#DejaVuSans-3b" x="1212.158203"/>
     <use xlink:href="#DejaVuSans-20" x="1245.849609"/>
     <use xlink:href="#DejaVuSans-4d" x="1277.636719"/>
     <use xlink:href="#DejaVuSans-65" x="1363.916016"/>
     <use xlink:href="#DejaVuSans-74" x="1425.439453"/>
     <use xlink:href="#DejaVuSans-68" x="1464.648438"/>
     <use xlink:href="#DejaVuSans-69" x="1528.027344"/>
     <use xlink:href="#DejaVuSans-6f" x="1555.810547"/>
     <use xlink:href="#DejaVuSans-6e" x="1616.992188"/>
     <use xlink:href="#DejaVuSans-69" x="1680.371094"/>
     <use xlink:href="#DejaVuSans-6e" x="1708.154297"/>
     <use xlink:href="#DejaVuSans-3b" x="1771.533203"/>
     <use xlink:href="#DejaVuSans-20" x="1805.224609"/>
     <use xlink:href="#DejaVuSans-48" x="1837.011719"/>
     <use xlink:href="#DejaVuSans-69" x="1912.207031"/>
     <use xlink:href="#DejaVuSans-73" x="1939.990234"/>
     <use xlink:href="#DejaVuSans-74" x="1992.089844"/>
     <use xlink:href="#DejaVuSans-69" x="2031.298828"/>
     <use xlink:href="#DejaVuSans-64" x="2059.082031"/>
     <use xlink:href="#DejaVuSans-69" x="2122.558594"/>
     <use xlink:href="#DejaVuSans-6e" x="2150.341797"/>
    </g>
   </g>
  </g>
 </g>
 <defs>
  <clipPath id="p7310029568">
   <rect x="72" y="51.84" width="446.4" height="332.64"/>
  </clipPath>
 </defs>
</svg>
