<?xml version="1.0" encoding="utf-8" standalone="no"?>
<!DOCTYPE svg PUBLIC "-//W3C//DTD SVG 1.1//EN"
  "http://www.w3.org/Graphics/SVG/1.1/DTD/svg11.dtd">
<svg xmlns:xlink="http://www.w3.org/1999/xlink" width="576pt" height="432pt" viewBox="0 0 576 432" xmlns="http://www.w3.org/2000/svg" version="1.1">
 <metadata>
  <rdf:RDF xmlns:dc="http://purl.org/dc/elements/1.1/" xmlns:cc="http://creativecommons.org/ns#" xmlns:rdf="http://www.w3.org/1999/02/22-rdf-syntax-ns#">
   <cc:Work>
    <dc:type rdf:resource="http://purl.org/dc/dcmitype/StillImage"/>
    <dc:date>2024-11-12T14:09:14.542605</dc:date>
    <dc:format>image/svg+xml</dc:format>
    <dc:creator>
     <cc:Agent>
      <dc:title>Matplotlib v3.7.5, https://matplotlib.org/</dc:title>
     </cc:Agent>
    </dc:creator>
   </cc:Work>
  </rdf:RDF>
 </metadata>
 <defs>
  <style type="text/css">*{stroke-linejoin: round; stroke-linecap: butt}</style>
 </defs>
 <g id="figure_1">
  <g id="patch_1">
   <path d="M 0 432 
L 576 432 
L 576 0 
L 0 0 
z
" style="fill: #ffffff"/>
  </g>
  <g id="axes_1">
   <g id="patch_2">
    <path d="M 72 384.48 
L 518.4 384.48 
L 518.4 51.84 
L 72 51.84 
z
" style="fill: #ffffff"/>
   </g>
   <g id="matplotlib.axis_1">
    <g id="xtick_1">
     <g id="line2d_1">
      <path d="M 92.290909 384.48 
L 92.290909 51.84 
" clip-path="url(#p26b72e072d)" style="fill: none; stroke: #b0b0b0; stroke-width: 0.8; stroke-linecap: square"/>
     </g>
     <g id="line2d_2">
      <defs>
       <path id="ma276a01edb" d="M 0 0 
L 0 3.5 
" style="stroke: #000000; stroke-width: 0.8"/>
      </defs>
      <g>
       <use xlink:href="#ma276a01edb" x="92.290909" y="384.48" style="stroke: #000000; stroke-width: 0.8"/>
      </g>
     </g>
     <g id="text_1">
      <!-- 0.17 -->
      <g transform="translate(81.158097 399.078438) scale(0.1 -0.1)">
       <defs>
        <path id="DejaVuSans-30" d="M 2034 4250 
Q 1547 4250 1301 3770 
Q 1056 3291 1056 2328 
Q 1056 1369 1301 889 
Q 1547 409 2034 409 
Q 2525 409 2770 889 
Q 3016 1369 3016 2328 
Q 3016 3291 2770 3770 
Q 2525 4250 2034 4250 
z
M 2034 4750 
Q 2819 4750 3233 4129 
Q 3647 3509 3647 2328 
Q 3647 1150 3233 529 
Q 2819 -91 2034 -91 
Q 1250 -91 836 529 
Q 422 1150 422 2328 
Q 422 3509 836 4129 
Q 1250 4750 2034 4750 
z
" transform="scale(0.015625)"/>
        <path id="DejaVuSans-2e" d="M 684 794 
L 1344 794 
L 1344 0 
L 684 0 
L 684 794 
z
" transform="scale(0.015625)"/>
        <path id="DejaVuSans-31" d="M 794 531 
L 1825 531 
L 1825 4091 
L 703 3866 
L 703 4441 
L 1819 4666 
L 2450 4666 
L 2450 531 
L 3481 531 
L 3481 0 
L 794 0 
L 794 531 
z
" transform="scale(0.015625)"/>
        <path id="DejaVuSans-37" d="M 525 4666 
L 3525 4666 
L 3525 4397 
L 1831 0 
L 1172 0 
L 2766 4134 
L 525 4134 
L 525 4666 
z
" transform="scale(0.015625)"/>
       </defs>
       <use xlink:href="#DejaVuSans-30"/>
       <use xlink:href="#DejaVuSans-2e" x="63.623047"/>
       <use xlink:href="#DejaVuSans-31" x="95.410156"/>
       <use xlink:href="#DejaVuSans-37" x="159.033203"/>
      </g>
     </g>
    </g>
    <g id="xtick_2">
     <g id="line2d_3">
      <path d="M 128.605735 384.48 
L 128.605735 51.84 
" clip-path="url(#p26b72e072d)" style="fill: none; stroke: #b0b0b0; stroke-width: 0.8; stroke-linecap: square"/>
     </g>
     <g id="line2d_4">
      <g>
       <use xlink:href="#ma276a01edb" x="128.605735" y="384.48" style="stroke: #000000; stroke-width: 0.8"/>
      </g>
     </g>
     <g id="text_2">
      <!-- 6.83 -->
      <g transform="translate(117.472923 399.078438) scale(0.1 -0.1)">
       <defs>
        <path id="DejaVuSans-36" d="M 2113 2584 
Q 1688 2584 1439 2293 
Q 1191 2003 1191 1497 
Q 1191 994 1439 701 
Q 1688 409 2113 409 
Q 2538 409 2786 701 
Q 3034 994 3034 1497 
Q 3034 2003 2786 2293 
Q 2538 2584 2113 2584 
z
M 3366 4563 
L 3366 3988 
Q 3128 4100 2886 4159 
Q 2644 4219 2406 4219 
Q 1781 4219 1451 3797 
Q 1122 3375 1075 2522 
Q 1259 2794 1537 2939 
Q 1816 3084 2150 3084 
Q 2853 3084 3261 2657 
Q 3669 2231 3669 1497 
Q 3669 778 3244 343 
Q 2819 -91 2113 -91 
Q 1303 -91 875 529 
Q 447 1150 447 2328 
Q 447 3434 972 4092 
Q 1497 4750 2381 4750 
Q 2619 4750 2861 4703 
Q 3103 4656 3366 4563 
z
" transform="scale(0.015625)"/>
        <path id="DejaVuSans-38" d="M 2034 2216 
Q 1584 2216 1326 1975 
Q 1069 1734 1069 1313 
Q 1069 891 1326 650 
Q 1584 409 2034 409 
Q 2484 409 2743 651 
Q 3003 894 3003 1313 
Q 3003 1734 2745 1975 
Q 2488 2216 2034 2216 
z
M 1403 2484 
Q 997 2584 770 2862 
Q 544 3141 544 3541 
Q 544 4100 942 4425 
Q 1341 4750 2034 4750 
Q 2731 4750 3128 4425 
Q 3525 4100 3525 3541 
Q 3525 3141 3298 2862 
Q 3072 2584 2669 2484 
Q 3125 2378 3379 2068 
Q 3634 1759 3634 1313 
Q 3634 634 3220 271 
Q 2806 -91 2034 -91 
Q 1263 -91 848 271 
Q 434 634 434 1313 
Q 434 1759 690 2068 
Q 947 2378 1403 2484 
z
M 1172 3481 
Q 1172 3119 1398 2916 
Q 1625 2713 2034 2713 
Q 2441 2713 2670 2916 
Q 2900 3119 2900 3481 
Q 2900 3844 2670 4047 
Q 2441 4250 2034 4250 
Q 1625 4250 1398 4047 
Q 1172 3844 1172 3481 
z
" transform="scale(0.015625)"/>
        <path id="DejaVuSans-33" d="M 2597 2516 
Q 3050 2419 3304 2112 
Q 3559 1806 3559 1356 
Q 3559 666 3084 287 
Q 2609 -91 1734 -91 
Q 1441 -91 1130 -33 
Q 819 25 488 141 
L 488 750 
Q 750 597 1062 519 
Q 1375 441 1716 441 
Q 2309 441 2620 675 
Q 2931 909 2931 1356 
Q 2931 1769 2642 2001 
Q 2353 2234 1838 2234 
L 1294 2234 
L 1294 2753 
L 1863 2753 
Q 2328 2753 2575 2939 
Q 2822 3125 2822 3475 
Q 2822 3834 2567 4026 
Q 2313 4219 1838 4219 
Q 1578 4219 1281 4162 
Q 984 4106 628 3988 
L 628 4550 
Q 988 4650 1302 4700 
Q 1616 4750 1894 4750 
Q 2613 4750 3031 4423 
Q 3450 4097 3450 3541 
Q 3450 3153 3228 2886 
Q 3006 2619 2597 2516 
z
" transform="scale(0.015625)"/>
       </defs>
       <use xlink:href="#DejaVuSans-36"/>
       <use xlink:href="#DejaVuSans-2e" x="63.623047"/>
       <use xlink:href="#DejaVuSans-38" x="95.410156"/>
       <use xlink:href="#DejaVuSans-33" x="159.033203"/>
      </g>
     </g>
    </g>
    <g id="xtick_3">
     <g id="line2d_5">
      <path d="M 164.920561 384.48 
L 164.920561 51.84 
" clip-path="url(#p26b72e072d)" style="fill: none; stroke: #b0b0b0; stroke-width: 0.8; stroke-linecap: square"/>
     </g>
     <g id="line2d_6">
      <g>
       <use xlink:href="#ma276a01edb" x="164.920561" y="384.48" style="stroke: #000000; stroke-width: 0.8"/>
      </g>
     </g>
     <g id="text_3">
      <!-- 13.5 -->
      <g transform="translate(153.787749 399.078438) scale(0.1 -0.1)">
       <defs>
        <path id="DejaVuSans-35" d="M 691 4666 
L 3169 4666 
L 3169 4134 
L 1269 4134 
L 1269 2991 
Q 1406 3038 1543 3061 
Q 1681 3084 1819 3084 
Q 2600 3084 3056 2656 
Q 3513 2228 3513 1497 
Q 3513 744 3044 326 
Q 2575 -91 1722 -91 
Q 1428 -91 1123 -41 
Q 819 9 494 109 
L 494 744 
Q 775 591 1075 516 
Q 1375 441 1709 441 
Q 2250 441 2565 725 
Q 2881 1009 2881 1497 
Q 2881 1984 2565 2268 
Q 2250 2553 1709 2553 
Q 1456 2553 1204 2497 
Q 953 2441 691 2322 
L 691 4666 
z
" transform="scale(0.015625)"/>
       </defs>
       <use xlink:href="#DejaVuSans-31"/>
       <use xlink:href="#DejaVuSans-33" x="63.623047"/>
       <use xlink:href="#DejaVuSans-2e" x="127.246094"/>
       <use xlink:href="#DejaVuSans-35" x="159.033203"/>
      </g>
     </g>
    </g>
    <g id="xtick_4">
     <g id="line2d_7">
      <path d="M 201.235387 384.48 
L 201.235387 51.84 
" clip-path="url(#p26b72e072d)" style="fill: none; stroke: #b0b0b0; stroke-width: 0.8; stroke-linecap: square"/>
     </g>
     <g id="line2d_8">
      <g>
       <use xlink:href="#ma276a01edb" x="201.235387" y="384.48" style="stroke: #000000; stroke-width: 0.8"/>
      </g>
     </g>
     <g id="text_4">
      <!-- 20.17 -->
      <g transform="translate(186.921325 399.078438) scale(0.1 -0.1)">
       <defs>
        <path id="DejaVuSans-32" d="M 1228 531 
L 3431 531 
L 3431 0 
L 469 0 
L 469 531 
Q 828 903 1448 1529 
Q 2069 2156 2228 2338 
Q 2531 2678 2651 2914 
Q 2772 3150 2772 3378 
Q 2772 3750 2511 3984 
Q 2250 4219 1831 4219 
Q 1534 4219 1204 4116 
Q 875 4013 500 3803 
L 500 4441 
Q 881 4594 1212 4672 
Q 1544 4750 1819 4750 
Q 2544 4750 2975 4387 
Q 3406 4025 3406 3419 
Q 3406 3131 3298 2873 
Q 3191 2616 2906 2266 
Q 2828 2175 2409 1742 
Q 1991 1309 1228 531 
z
" transform="scale(0.015625)"/>
       </defs>
       <use xlink:href="#DejaVuSans-32"/>
       <use xlink:href="#DejaVuSans-30" x="63.623047"/>
       <use xlink:href="#DejaVuSans-2e" x="127.246094"/>
       <use xlink:href="#DejaVuSans-31" x="159.033203"/>
       <use xlink:href="#DejaVuSans-37" x="222.65625"/>
      </g>
     </g>
    </g>
    <g id="xtick_5">
     <g id="line2d_9">
      <path d="M 237.550214 384.48 
L 237.550214 51.84 
" clip-path="url(#p26b72e072d)" style="fill: none; stroke: #b0b0b0; stroke-width: 0.8; stroke-linecap: square"/>
     </g>
     <g id="line2d_10">
      <g>
       <use xlink:href="#ma276a01edb" x="237.550214" y="384.48" style="stroke: #000000; stroke-width: 0.8"/>
      </g>
     </g>
     <g id="text_5">
      <!-- 26.83 -->
      <g transform="translate(223.236151 399.078438) scale(0.1 -0.1)">
       <use xlink:href="#DejaVuSans-32"/>
       <use xlink:href="#DejaVuSans-36" x="63.623047"/>
       <use xlink:href="#DejaVuSans-2e" x="127.246094"/>
       <use xlink:href="#DejaVuSans-38" x="159.033203"/>
       <use xlink:href="#DejaVuSans-33" x="222.65625"/>
      </g>
     </g>
    </g>
    <g id="xtick_6">
     <g id="line2d_11">
      <path d="M 273.86504 384.48 
L 273.86504 51.84 
" clip-path="url(#p26b72e072d)" style="fill: none; stroke: #b0b0b0; stroke-width: 0.8; stroke-linecap: square"/>
     </g>
     <g id="line2d_12">
      <g>
       <use xlink:href="#ma276a01edb" x="273.86504" y="384.48" style="stroke: #000000; stroke-width: 0.8"/>
      </g>
     </g>
     <g id="text_6">
      <!-- 33.5 -->
      <g transform="translate(262.732227 399.078438) scale(0.1 -0.1)">
       <use xlink:href="#DejaVuSans-33"/>
       <use xlink:href="#DejaVuSans-33" x="63.623047"/>
       <use xlink:href="#DejaVuSans-2e" x="127.246094"/>
       <use xlink:href="#DejaVuSans-35" x="159.033203"/>
      </g>
     </g>
    </g>
    <g id="xtick_7">
     <g id="line2d_13">
      <path d="M 310.179866 384.48 
L 310.179866 51.84 
" clip-path="url(#p26b72e072d)" style="fill: none; stroke: #b0b0b0; stroke-width: 0.8; stroke-linecap: square"/>
     </g>
     <g id="line2d_14">
      <g>
       <use xlink:href="#ma276a01edb" x="310.179866" y="384.48" style="stroke: #000000; stroke-width: 0.8"/>
      </g>
     </g>
     <g id="text_7">
      <!-- 40.17 -->
      <g transform="translate(295.865803 399.078438) scale(0.1 -0.1)">
       <defs>
        <path id="DejaVuSans-34" d="M 2419 4116 
L 825 1625 
L 2419 1625 
L 2419 4116 
z
M 2253 4666 
L 3047 4666 
L 3047 1625 
L 3713 1625 
L 3713 1100 
L 3047 1100 
L 3047 0 
L 2419 0 
L 2419 1100 
L 313 1100 
L 313 1709 
L 2253 4666 
z
" transform="scale(0.015625)"/>
       </defs>
       <use xlink:href="#DejaVuSans-34"/>
       <use xlink:href="#DejaVuSans-30" x="63.623047"/>
       <use xlink:href="#DejaVuSans-2e" x="127.246094"/>
       <use xlink:href="#DejaVuSans-31" x="159.033203"/>
       <use xlink:href="#DejaVuSans-37" x="222.65625"/>
      </g>
     </g>
    </g>
    <g id="xtick_8">
     <g id="line2d_15">
      <path d="M 346.494692 384.48 
L 346.494692 51.84 
" clip-path="url(#p26b72e072d)" style="fill: none; stroke: #b0b0b0; stroke-width: 0.8; stroke-linecap: square"/>
     </g>
     <g id="line2d_16">
      <g>
       <use xlink:href="#ma276a01edb" x="346.494692" y="384.48" style="stroke: #000000; stroke-width: 0.8"/>
      </g>
     </g>
     <g id="text_8">
      <!-- 46.83 -->
      <g transform="translate(332.180629 399.078438) scale(0.1 -0.1)">
       <use xlink:href="#DejaVuSans-34"/>
       <use xlink:href="#DejaVuSans-36" x="63.623047"/>
       <use xlink:href="#DejaVuSans-2e" x="127.246094"/>
       <use xlink:href="#DejaVuSans-38" x="159.033203"/>
       <use xlink:href="#DejaVuSans-33" x="222.65625"/>
      </g>
     </g>
    </g>
    <g id="xtick_9">
     <g id="line2d_17">
      <path d="M 382.809518 384.48 
L 382.809518 51.84 
" clip-path="url(#p26b72e072d)" style="fill: none; stroke: #b0b0b0; stroke-width: 0.8; stroke-linecap: square"/>
     </g>
     <g id="line2d_18">
      <g>
       <use xlink:href="#ma276a01edb" x="382.809518" y="384.48" style="stroke: #000000; stroke-width: 0.8"/>
      </g>
     </g>
     <g id="text_9">
      <!-- 53.5 -->
      <g transform="translate(371.676705 399.078438) scale(0.1 -0.1)">
       <use xlink:href="#DejaVuSans-35"/>
       <use xlink:href="#DejaVuSans-33" x="63.623047"/>
       <use xlink:href="#DejaVuSans-2e" x="127.246094"/>
       <use xlink:href="#DejaVuSans-35" x="159.033203"/>
      </g>
     </g>
    </g>
    <g id="xtick_10">
     <g id="line2d_19">
      <path d="M 419.124344 384.48 
L 419.124344 51.84 
" clip-path="url(#p26b72e072d)" style="fill: none; stroke: #b0b0b0; stroke-width: 0.8; stroke-linecap: square"/>
     </g>
     <g id="line2d_20">
      <g>
       <use xlink:href="#ma276a01edb" x="419.124344" y="384.48" style="stroke: #000000; stroke-width: 0.8"/>
      </g>
     </g>
     <g id="text_10">
      <!-- 60.17 -->
      <g transform="translate(404.810282 399.078438) scale(0.1 -0.1)">
       <use xlink:href="#DejaVuSans-36"/>
       <use xlink:href="#DejaVuSans-30" x="63.623047"/>
       <use xlink:href="#DejaVuSans-2e" x="127.246094"/>
       <use xlink:href="#DejaVuSans-31" x="159.033203"/>
       <use xlink:href="#DejaVuSans-37" x="222.65625"/>
      </g>
     </g>
    </g>
    <g id="xtick_11">
     <g id="line2d_21">
      <path d="M 455.43917 384.48 
L 455.43917 51.84 
" clip-path="url(#p26b72e072d)" style="fill: none; stroke: #b0b0b0; stroke-width: 0.8; stroke-linecap: square"/>
     </g>
     <g id="line2d_22">
      <g>
       <use xlink:href="#ma276a01edb" x="455.43917" y="384.48" style="stroke: #000000; stroke-width: 0.8"/>
      </g>
     </g>
     <g id="text_11">
      <!-- 66.83 -->
      <g transform="translate(441.125108 399.078438) scale(0.1 -0.1)">
       <use xlink:href="#DejaVuSans-36"/>
       <use xlink:href="#DejaVuSans-36" x="63.623047"/>
       <use xlink:href="#DejaVuSans-2e" x="127.246094"/>
       <use xlink:href="#DejaVuSans-38" x="159.033203"/>
       <use xlink:href="#DejaVuSans-33" x="222.65625"/>
      </g>
     </g>
    </g>
    <g id="xtick_12">
     <g id="line2d_23">
      <path d="M 491.753996 384.48 
L 491.753996 51.84 
" clip-path="url(#p26b72e072d)" style="fill: none; stroke: #b0b0b0; stroke-width: 0.8; stroke-linecap: square"/>
     </g>
     <g id="line2d_24">
      <g>
       <use xlink:href="#ma276a01edb" x="491.753996" y="384.48" style="stroke: #000000; stroke-width: 0.8"/>
      </g>
     </g>
     <g id="text_12">
      <!-- 73.5 -->
      <g transform="translate(480.621184 399.078438) scale(0.1 -0.1)">
       <use xlink:href="#DejaVuSans-37"/>
       <use xlink:href="#DejaVuSans-33" x="63.623047"/>
       <use xlink:href="#DejaVuSans-2e" x="127.246094"/>
       <use xlink:href="#DejaVuSans-35" x="159.033203"/>
      </g>
     </g>
    </g>
    <g id="text_13">
     <!-- time in hours [h] -->
     <g transform="translate(253.451562 412.756563) scale(0.1 -0.1)">
      <defs>
       <path id="DejaVuSans-74" d="M 1172 4494 
L 1172 3500 
L 2356 3500 
L 2356 3053 
L 1172 3053 
L 1172 1153 
Q 1172 725 1289 603 
Q 1406 481 1766 481 
L 2356 481 
L 2356 0 
L 1766 0 
Q 1100 0 847 248 
Q 594 497 594 1153 
L 594 3053 
L 172 3053 
L 172 3500 
L 594 3500 
L 594 4494 
L 1172 4494 
z
" transform="scale(0.015625)"/>
       <path id="DejaVuSans-69" d="M 603 3500 
L 1178 3500 
L 1178 0 
L 603 0 
L 603 3500 
z
M 603 4863 
L 1178 4863 
L 1178 4134 
L 603 4134 
L 603 4863 
z
" transform="scale(0.015625)"/>
       <path id="DejaVuSans-6d" d="M 3328 2828 
Q 3544 3216 3844 3400 
Q 4144 3584 4550 3584 
Q 5097 3584 5394 3201 
Q 5691 2819 5691 2113 
L 5691 0 
L 5113 0 
L 5113 2094 
Q 5113 2597 4934 2840 
Q 4756 3084 4391 3084 
Q 3944 3084 3684 2787 
Q 3425 2491 3425 1978 
L 3425 0 
L 2847 0 
L 2847 2094 
Q 2847 2600 2669 2842 
Q 2491 3084 2119 3084 
Q 1678 3084 1418 2786 
Q 1159 2488 1159 1978 
L 1159 0 
L 581 0 
L 581 3500 
L 1159 3500 
L 1159 2956 
Q 1356 3278 1631 3431 
Q 1906 3584 2284 3584 
Q 2666 3584 2933 3390 
Q 3200 3197 3328 2828 
z
" transform="scale(0.015625)"/>
       <path id="DejaVuSans-65" d="M 3597 1894 
L 3597 1613 
L 953 1613 
Q 991 1019 1311 708 
Q 1631 397 2203 397 
Q 2534 397 2845 478 
Q 3156 559 3463 722 
L 3463 178 
Q 3153 47 2828 -22 
Q 2503 -91 2169 -91 
Q 1331 -91 842 396 
Q 353 884 353 1716 
Q 353 2575 817 3079 
Q 1281 3584 2069 3584 
Q 2775 3584 3186 3129 
Q 3597 2675 3597 1894 
z
M 3022 2063 
Q 3016 2534 2758 2815 
Q 2500 3097 2075 3097 
Q 1594 3097 1305 2825 
Q 1016 2553 972 2059 
L 3022 2063 
z
" transform="scale(0.015625)"/>
       <path id="DejaVuSans-20" transform="scale(0.015625)"/>
       <path id="DejaVuSans-6e" d="M 3513 2113 
L 3513 0 
L 2938 0 
L 2938 2094 
Q 2938 2591 2744 2837 
Q 2550 3084 2163 3084 
Q 1697 3084 1428 2787 
Q 1159 2491 1159 1978 
L 1159 0 
L 581 0 
L 581 3500 
L 1159 3500 
L 1159 2956 
Q 1366 3272 1645 3428 
Q 1925 3584 2291 3584 
Q 2894 3584 3203 3211 
Q 3513 2838 3513 2113 
z
" transform="scale(0.015625)"/>
       <path id="DejaVuSans-68" d="M 3513 2113 
L 3513 0 
L 2938 0 
L 2938 2094 
Q 2938 2591 2744 2837 
Q 2550 3084 2163 3084 
Q 1697 3084 1428 2787 
Q 1159 2491 1159 1978 
L 1159 0 
L 581 0 
L 581 4863 
L 1159 4863 
L 1159 2956 
Q 1366 3272 1645 3428 
Q 1925 3584 2291 3584 
Q 2894 3584 3203 3211 
Q 3513 2838 3513 2113 
z
" transform="scale(0.015625)"/>
       <path id="DejaVuSans-6f" d="M 1959 3097 
Q 1497 3097 1228 2736 
Q 959 2375 959 1747 
Q 959 1119 1226 758 
Q 1494 397 1959 397 
Q 2419 397 2687 759 
Q 2956 1122 2956 1747 
Q 2956 2369 2687 2733 
Q 2419 3097 1959 3097 
z
M 1959 3584 
Q 2709 3584 3137 3096 
Q 3566 2609 3566 1747 
Q 3566 888 3137 398 
Q 2709 -91 1959 -91 
Q 1206 -91 779 398 
Q 353 888 353 1747 
Q 353 2609 779 3096 
Q 1206 3584 1959 3584 
z
" transform="scale(0.015625)"/>
       <path id="DejaVuSans-75" d="M 544 1381 
L 544 3500 
L 1119 3500 
L 1119 1403 
Q 1119 906 1312 657 
Q 1506 409 1894 409 
Q 2359 409 2629 706 
Q 2900 1003 2900 1516 
L 2900 3500 
L 3475 3500 
L 3475 0 
L 2900 0 
L 2900 538 
Q 2691 219 2414 64 
Q 2138 -91 1772 -91 
Q 1169 -91 856 284 
Q 544 659 544 1381 
z
M 1991 3584 
L 1991 3584 
z
" transform="scale(0.015625)"/>
       <path id="DejaVuSans-72" d="M 2631 2963 
Q 2534 3019 2420 3045 
Q 2306 3072 2169 3072 
Q 1681 3072 1420 2755 
Q 1159 2438 1159 1844 
L 1159 0 
L 581 0 
L 581 3500 
L 1159 3500 
L 1159 2956 
Q 1341 3275 1631 3429 
Q 1922 3584 2338 3584 
Q 2397 3584 2469 3576 
Q 2541 3569 2628 3553 
L 2631 2963 
z
" transform="scale(0.015625)"/>
       <path id="DejaVuSans-73" d="M 2834 3397 
L 2834 2853 
Q 2591 2978 2328 3040 
Q 2066 3103 1784 3103 
Q 1356 3103 1142 2972 
Q 928 2841 928 2578 
Q 928 2378 1081 2264 
Q 1234 2150 1697 2047 
L 1894 2003 
Q 2506 1872 2764 1633 
Q 3022 1394 3022 966 
Q 3022 478 2636 193 
Q 2250 -91 1575 -91 
Q 1294 -91 989 -36 
Q 684 19 347 128 
L 347 722 
Q 666 556 975 473 
Q 1284 391 1588 391 
Q 1994 391 2212 530 
Q 2431 669 2431 922 
Q 2431 1156 2273 1281 
Q 2116 1406 1581 1522 
L 1381 1569 
Q 847 1681 609 1914 
Q 372 2147 372 2553 
Q 372 3047 722 3315 
Q 1072 3584 1716 3584 
Q 2034 3584 2315 3537 
Q 2597 3491 2834 3397 
z
" transform="scale(0.015625)"/>
       <path id="DejaVuSans-5b" d="M 550 4863 
L 1875 4863 
L 1875 4416 
L 1125 4416 
L 1125 -397 
L 1875 -397 
L 1875 -844 
L 550 -844 
L 550 4863 
z
" transform="scale(0.015625)"/>
       <path id="DejaVuSans-5d" d="M 1947 4863 
L 1947 -844 
L 622 -844 
L 622 -397 
L 1369 -397 
L 1369 4416 
L 622 4416 
L 622 4863 
L 1947 4863 
z
" transform="scale(0.015625)"/>
      </defs>
      <use xlink:href="#DejaVuSans-74"/>
      <use xlink:href="#DejaVuSans-69" x="39.208984"/>
      <use xlink:href="#DejaVuSans-6d" x="66.992188"/>
      <use xlink:href="#DejaVuSans-65" x="164.404297"/>
      <use xlink:href="#DejaVuSans-20" x="225.927734"/>
      <use xlink:href="#DejaVuSans-69" x="257.714844"/>
      <use xlink:href="#DejaVuSans-6e" x="285.498047"/>
      <use xlink:href="#DejaVuSans-20" x="348.876953"/>
      <use xlink:href="#DejaVuSans-68" x="380.664062"/>
      <use xlink:href="#DejaVuSans-6f" x="444.042969"/>
      <use xlink:href="#DejaVuSans-75" x="505.224609"/>
      <use xlink:href="#DejaVuSans-72" x="568.603516"/>
      <use xlink:href="#DejaVuSans-73" x="609.716797"/>
      <use xlink:href="#DejaVuSans-20" x="661.816406"/>
      <use xlink:href="#DejaVuSans-5b" x="693.603516"/>
      <use xlink:href="#DejaVuSans-68" x="732.617188"/>
      <use xlink:href="#DejaVuSans-5d" x="795.996094"/>
     </g>
    </g>
   </g>
   <g id="matplotlib.axis_2">
    <g id="ytick_1">
     <g id="line2d_25">
      <path d="M 72 363.69 
L 518.4 363.69 
" clip-path="url(#p26b72e072d)" style="fill: none; stroke: #b0b0b0; stroke-width: 0.8; stroke-linecap: square"/>
     </g>
     <g id="line2d_26">
      <defs>
       <path id="m6228545e8c" d="M 0 0 
L -3.5 0 
" style="stroke: #000000; stroke-width: 0.8"/>
      </defs>
      <g>
       <use xlink:href="#m6228545e8c" x="72" y="363.69" style="stroke: #000000; stroke-width: 0.8"/>
      </g>
     </g>
     <g id="text_14">
      <!-- 0.0 -->
      <g transform="translate(49.096875 367.489219) scale(0.1 -0.1)">
       <use xlink:href="#DejaVuSans-30"/>
       <use xlink:href="#DejaVuSans-2e" x="63.623047"/>
       <use xlink:href="#DejaVuSans-30" x="95.410156"/>
      </g>
     </g>
    </g>
    <g id="ytick_2">
     <g id="line2d_27">
      <path d="M 72 311.715 
L 518.4 311.715 
" clip-path="url(#p26b72e072d)" style="fill: none; stroke: #b0b0b0; stroke-width: 0.8; stroke-linecap: square"/>
     </g>
     <g id="line2d_28">
      <g>
       <use xlink:href="#m6228545e8c" x="72" y="311.715" style="stroke: #000000; stroke-width: 0.8"/>
      </g>
     </g>
     <g id="text_15">
      <!-- 0.5 -->
      <g transform="translate(49.096875 315.514219) scale(0.1 -0.1)">
       <use xlink:href="#DejaVuSans-30"/>
       <use xlink:href="#DejaVuSans-2e" x="63.623047"/>
       <use xlink:href="#DejaVuSans-35" x="95.410156"/>
      </g>
     </g>
    </g>
    <g id="ytick_3">
     <g id="line2d_29">
      <path d="M 72 259.74 
L 518.4 259.74 
" clip-path="url(#p26b72e072d)" style="fill: none; stroke: #b0b0b0; stroke-width: 0.8; stroke-linecap: square"/>
     </g>
     <g id="line2d_30">
      <g>
       <use xlink:href="#m6228545e8c" x="72" y="259.74" style="stroke: #000000; stroke-width: 0.8"/>
      </g>
     </g>
     <g id="text_16">
      <!-- 1.0 -->
      <g transform="translate(49.096875 263.539219) scale(0.1 -0.1)">
       <use xlink:href="#DejaVuSans-31"/>
       <use xlink:href="#DejaVuSans-2e" x="63.623047"/>
       <use xlink:href="#DejaVuSans-30" x="95.410156"/>
      </g>
     </g>
    </g>
    <g id="ytick_4">
     <g id="line2d_31">
      <path d="M 72 207.765 
L 518.4 207.765 
" clip-path="url(#p26b72e072d)" style="fill: none; stroke: #b0b0b0; stroke-width: 0.8; stroke-linecap: square"/>
     </g>
     <g id="line2d_32">
      <g>
       <use xlink:href="#m6228545e8c" x="72" y="207.765" style="stroke: #000000; stroke-width: 0.8"/>
      </g>
     </g>
     <g id="text_17">
      <!-- 1.5 -->
      <g transform="translate(49.096875 211.564219) scale(0.1 -0.1)">
       <use xlink:href="#DejaVuSans-31"/>
       <use xlink:href="#DejaVuSans-2e" x="63.623047"/>
       <use xlink:href="#DejaVuSans-35" x="95.410156"/>
      </g>
     </g>
    </g>
    <g id="ytick_5">
     <g id="line2d_33">
      <path d="M 72 155.79 
L 518.4 155.79 
" clip-path="url(#p26b72e072d)" style="fill: none; stroke: #b0b0b0; stroke-width: 0.8; stroke-linecap: square"/>
     </g>
     <g id="line2d_34">
      <g>
       <use xlink:href="#m6228545e8c" x="72" y="155.79" style="stroke: #000000; stroke-width: 0.8"/>
      </g>
     </g>
     <g id="text_18">
      <!-- 2.0 -->
      <g transform="translate(49.096875 159.589219) scale(0.1 -0.1)">
       <use xlink:href="#DejaVuSans-32"/>
       <use xlink:href="#DejaVuSans-2e" x="63.623047"/>
       <use xlink:href="#DejaVuSans-30" x="95.410156"/>
      </g>
     </g>
    </g>
    <g id="ytick_6">
     <g id="line2d_35">
      <path d="M 72 103.815 
L 518.4 103.815 
" clip-path="url(#p26b72e072d)" style="fill: none; stroke: #b0b0b0; stroke-width: 0.8; stroke-linecap: square"/>
     </g>
     <g id="line2d_36">
      <g>
       <use xlink:href="#m6228545e8c" x="72" y="103.815" style="stroke: #000000; stroke-width: 0.8"/>
      </g>
     </g>
     <g id="text_19">
      <!-- 2.5 -->
      <g transform="translate(49.096875 107.614219) scale(0.1 -0.1)">
       <use xlink:href="#DejaVuSans-32"/>
       <use xlink:href="#DejaVuSans-2e" x="63.623047"/>
       <use xlink:href="#DejaVuSans-35" x="95.410156"/>
      </g>
     </g>
    </g>
    <g id="ytick_7">
     <g id="line2d_37">
      <path d="M 72 51.84 
L 518.4 51.84 
" clip-path="url(#p26b72e072d)" style="fill: none; stroke: #b0b0b0; stroke-width: 0.8; stroke-linecap: square"/>
     </g>
     <g id="line2d_38">
      <g>
       <use xlink:href="#m6228545e8c" x="72" y="51.84" style="stroke: #000000; stroke-width: 0.8"/>
      </g>
     </g>
     <g id="text_20">
      <!-- 3.0 -->
      <g transform="translate(49.096875 55.639219) scale(0.1 -0.1)">
       <use xlink:href="#DejaVuSans-33"/>
       <use xlink:href="#DejaVuSans-2e" x="63.623047"/>
       <use xlink:href="#DejaVuSans-30" x="95.410156"/>
      </g>
     </g>
    </g>
    <g id="text_21">
     <!-- blank corrected OD600 -->
     <g transform="translate(43.017187 276.115469) rotate(-90) scale(0.1 -0.1)">
      <defs>
       <path id="DejaVuSans-62" d="M 3116 1747 
Q 3116 2381 2855 2742 
Q 2594 3103 2138 3103 
Q 1681 3103 1420 2742 
Q 1159 2381 1159 1747 
Q 1159 1113 1420 752 
Q 1681 391 2138 391 
Q 2594 391 2855 752 
Q 3116 1113 3116 1747 
z
M 1159 2969 
Q 1341 3281 1617 3432 
Q 1894 3584 2278 3584 
Q 2916 3584 3314 3078 
Q 3713 2572 3713 1747 
Q 3713 922 3314 415 
Q 2916 -91 2278 -91 
Q 1894 -91 1617 61 
Q 1341 213 1159 525 
L 1159 0 
L 581 0 
L 581 4863 
L 1159 4863 
L 1159 2969 
z
" transform="scale(0.015625)"/>
       <path id="DejaVuSans-6c" d="M 603 4863 
L 1178 4863 
L 1178 0 
L 603 0 
L 603 4863 
z
" transform="scale(0.015625)"/>
       <path id="DejaVuSans-61" d="M 2194 1759 
Q 1497 1759 1228 1600 
Q 959 1441 959 1056 
Q 959 750 1161 570 
Q 1363 391 1709 391 
Q 2188 391 2477 730 
Q 2766 1069 2766 1631 
L 2766 1759 
L 2194 1759 
z
M 3341 1997 
L 3341 0 
L 2766 0 
L 2766 531 
Q 2569 213 2275 61 
Q 1981 -91 1556 -91 
Q 1019 -91 701 211 
Q 384 513 384 1019 
Q 384 1609 779 1909 
Q 1175 2209 1959 2209 
L 2766 2209 
L 2766 2266 
Q 2766 2663 2505 2880 
Q 2244 3097 1772 3097 
Q 1472 3097 1187 3025 
Q 903 2953 641 2809 
L 641 3341 
Q 956 3463 1253 3523 
Q 1550 3584 1831 3584 
Q 2591 3584 2966 3190 
Q 3341 2797 3341 1997 
z
" transform="scale(0.015625)"/>
       <path id="DejaVuSans-6b" d="M 581 4863 
L 1159 4863 
L 1159 1991 
L 2875 3500 
L 3609 3500 
L 1753 1863 
L 3688 0 
L 2938 0 
L 1159 1709 
L 1159 0 
L 581 0 
L 581 4863 
z
" transform="scale(0.015625)"/>
       <path id="DejaVuSans-63" d="M 3122 3366 
L 3122 2828 
Q 2878 2963 2633 3030 
Q 2388 3097 2138 3097 
Q 1578 3097 1268 2742 
Q 959 2388 959 1747 
Q 959 1106 1268 751 
Q 1578 397 2138 397 
Q 2388 397 2633 464 
Q 2878 531 3122 666 
L 3122 134 
Q 2881 22 2623 -34 
Q 2366 -91 2075 -91 
Q 1284 -91 818 406 
Q 353 903 353 1747 
Q 353 2603 823 3093 
Q 1294 3584 2113 3584 
Q 2378 3584 2631 3529 
Q 2884 3475 3122 3366 
z
" transform="scale(0.015625)"/>
       <path id="DejaVuSans-64" d="M 2906 2969 
L 2906 4863 
L 3481 4863 
L 3481 0 
L 2906 0 
L 2906 525 
Q 2725 213 2448 61 
Q 2172 -91 1784 -91 
Q 1150 -91 751 415 
Q 353 922 353 1747 
Q 353 2572 751 3078 
Q 1150 3584 1784 3584 
Q 2172 3584 2448 3432 
Q 2725 3281 2906 2969 
z
M 947 1747 
Q 947 1113 1208 752 
Q 1469 391 1925 391 
Q 2381 391 2643 752 
Q 2906 1113 2906 1747 
Q 2906 2381 2643 2742 
Q 2381 3103 1925 3103 
Q 1469 3103 1208 2742 
Q 947 2381 947 1747 
z
" transform="scale(0.015625)"/>
       <path id="DejaVuSans-4f" d="M 2522 4238 
Q 1834 4238 1429 3725 
Q 1025 3213 1025 2328 
Q 1025 1447 1429 934 
Q 1834 422 2522 422 
Q 3209 422 3611 934 
Q 4013 1447 4013 2328 
Q 4013 3213 3611 3725 
Q 3209 4238 2522 4238 
z
M 2522 4750 
Q 3503 4750 4090 4092 
Q 4678 3434 4678 2328 
Q 4678 1225 4090 567 
Q 3503 -91 2522 -91 
Q 1538 -91 948 565 
Q 359 1222 359 2328 
Q 359 3434 948 4092 
Q 1538 4750 2522 4750 
z
" transform="scale(0.015625)"/>
       <path id="DejaVuSans-44" d="M 1259 4147 
L 1259 519 
L 2022 519 
Q 2988 519 3436 956 
Q 3884 1394 3884 2338 
Q 3884 3275 3436 3711 
Q 2988 4147 2022 4147 
L 1259 4147 
z
M 628 4666 
L 1925 4666 
Q 3281 4666 3915 4102 
Q 4550 3538 4550 2338 
Q 4550 1131 3912 565 
Q 3275 0 1925 0 
L 628 0 
L 628 4666 
z
" transform="scale(0.015625)"/>
      </defs>
      <use xlink:href="#DejaVuSans-62"/>
      <use xlink:href="#DejaVuSans-6c" x="63.476562"/>
      <use xlink:href="#DejaVuSans-61" x="91.259766"/>
      <use xlink:href="#DejaVuSans-6e" x="152.539062"/>
      <use xlink:href="#DejaVuSans-6b" x="215.917969"/>
      <use xlink:href="#DejaVuSans-20" x="273.828125"/>
      <use xlink:href="#DejaVuSans-63" x="305.615234"/>
      <use xlink:href="#DejaVuSans-6f" x="360.595703"/>
      <use xlink:href="#DejaVuSans-72" x="421.777344"/>
      <use xlink:href="#DejaVuSans-72" x="461.140625"/>
      <use xlink:href="#DejaVuSans-65" x="500.003906"/>
      <use xlink:href="#DejaVuSans-63" x="561.527344"/>
      <use xlink:href="#DejaVuSans-74" x="616.507812"/>
      <use xlink:href="#DejaVuSans-65" x="655.716797"/>
      <use xlink:href="#DejaVuSans-64" x="717.240234"/>
      <use xlink:href="#DejaVuSans-20" x="780.716797"/>
      <use xlink:href="#DejaVuSans-4f" x="812.503906"/>
      <use xlink:href="#DejaVuSans-44" x="891.214844"/>
      <use xlink:href="#DejaVuSans-36" x="968.216797"/>
      <use xlink:href="#DejaVuSans-30" x="1031.839844"/>
      <use xlink:href="#DejaVuSans-30" x="1095.462891"/>
     </g>
    </g>
   </g>
   <g id="line2d_39">
    <path d="M 92.290909 364.284594 
L 93.19878 370.105794 
L 94.10665 369.378144 
L 95.014521 369.482094 
L 95.922392 369.378144 
L 97.738133 369.482094 
L 104.093228 369.586044 
L 107.72471 369.897894 
L 109.540451 369.793944 
L 110.448322 369.897894 
L 111.356193 369.793944 
L 112.264063 370.105794 
L 113.171934 369.897894 
L 114.079805 370.105794 
L 115.895546 370.001844 
L 116.803417 369.897894 
L 118.619158 370.001844 
L 120.434899 369.897894 
L 122.250641 369.793944 
L 123.158511 369.689994 
L 124.066382 369.793944 
L 124.974253 369.586044 
L 127.697865 369.793944 
L 129.513606 369.689994 
L 130.421477 369.897894 
L 131.329347 369.689994 
L 136.776571 369.793944 
L 137.684442 369.274194 
L 140.408054 369.170244 
L 141.315924 369.066294 
L 143.131666 369.170244 
L 144.039536 368.962344 
L 145.855278 369.066294 
L 146.763148 368.858394 
L 147.671019 368.962344 
L 148.57889 368.754444 
L 149.48676 368.858394 
L 151.302502 368.546544 
L 152.210372 368.650494 
L 153.118243 368.442594 
L 154.026113 368.026794 
L 160.381208 367.403094 
L 162.196949 367.403094 
L 163.10482 366.987294 
L 164.012691 367.299144 
L 165.828432 366.779394 
L 166.736303 366.675444 
L 167.644173 366.363594 
L 170.367785 366.259644 
L 171.275656 365.635944 
L 172.183527 365.635944 
L 173.091397 365.012244 
L 173.999268 365.220144 
L 175.815009 364.908294 
L 178.538621 364.700394 
L 179.446492 364.804344 
L 183.077974 364.492494 
L 183.985845 364.492494 
L 184.893716 364.076694 
L 185.801586 364.180644 
L 186.709457 363.868794 
L 187.617328 363.868794 
L 189.433069 363.349044 
L 190.34094 363.452994 
L 191.24881 363.037194 
L 192.156681 363.141144 
L 193.064552 362.725344 
L 193.972422 362.933244 
L 194.880293 362.933244 
L 195.788164 362.205594 
L 196.696034 362.413494 
L 198.511775 361.477944 
L 199.419646 361.270044 
L 200.327517 360.750294 
L 205.774741 358.983144 
L 206.682611 358.983144 
L 207.590482 358.775244 
L 208.498353 358.359444 
L 209.406223 358.463394 
L 210.314094 357.527844 
L 212.129835 357.319944 
L 213.037706 356.904144 
L 213.945577 356.176494 
L 215.761318 355.656744 
L 216.669189 354.617244 
L 217.577059 354.305394 
L 218.48493 353.473794 
L 219.3928 353.473794 
L 221.208542 352.018494 
L 222.116412 351.706644 
L 223.024283 351.082944 
L 224.840024 350.771094 
L 225.747895 349.627644 
L 226.655766 350.251344 
L 228.471507 349.003944 
L 229.379378 347.548644 
L 231.195119 347.132844 
L 232.10299 346.613094 
L 233.01086 345.677544 
L 233.918731 345.677544 
L 234.826602 344.430144 
L 235.734472 343.598544 
L 236.642343 343.182744 
L 237.550214 341.519544 
L 238.458084 340.583994 
L 239.365955 340.687944 
L 240.273826 339.856344 
L 241.181696 339.232644 
L 242.997437 338.401044 
L 243.905308 337.673394 
L 244.813179 337.257594 
L 245.721049 336.010194 
L 246.62892 335.282544 
L 247.536791 335.490444 
L 248.444661 334.346994 
L 249.352532 333.411444 
L 250.260403 332.683794 
L 251.168273 331.748244 
L 252.076144 330.292944 
L 252.984015 330.085044 
L 255.707627 326.862594 
L 256.615497 326.238894 
L 257.523368 324.887544 
L 258.431239 324.159894 
L 259.339109 323.640144 
L 260.24698 322.392744 
L 262.062721 321.145344 
L 262.970592 319.793994 
L 263.878462 319.066344 
L 264.786333 318.026844 
L 267.509945 315.428094 
L 268.417816 313.868844 
L 271.141428 310.438494 
L 272.049298 308.775294 
L 272.957169 307.943694 
L 273.86504 307.735794 
L 274.77291 305.968644 
L 275.680781 305.033094 
L 276.588652 303.785694 
L 277.496522 303.369894 
L 278.404393 301.810644 
L 281.128005 298.380294 
L 282.943746 295.573644 
L 283.851617 294.534144 
L 284.759487 292.766994 
L 285.667358 292.039344 
L 286.575229 289.752444 
L 287.483099 287.881344 
L 288.39097 286.945794 
L 289.298841 285.282594 
L 290.206711 284.347044 
L 291.114582 283.099644 
L 292.930323 281.332494 
L 293.838194 279.877194 
L 295.653935 277.798194 
L 296.561806 276.238944 
L 297.469677 275.511294 
L 298.377547 274.263894 
L 299.285418 272.808594 
L 300.193289 271.665144 
L 302.00903 268.130844 
L 302.916901 267.195294 
L 303.824771 265.428144 
L 304.732642 263.972844 
L 305.640513 261.789894 
L 306.548383 261.685944 
L 307.456254 260.854344 
L 308.364124 260.438544 
L 309.271995 259.399044 
L 311.087736 258.255594 
L 311.995607 257.320044 
L 312.903478 256.696344 
L 313.811348 254.513394 
L 314.719219 254.409444 
L 315.62709 253.473894 
L 316.53496 253.058094 
L 317.442831 251.810694 
L 318.350702 250.875144 
L 319.258572 250.251444 
L 320.166443 248.900094 
L 321.074314 249.627744 
L 321.982184 248.900094 
L 322.890055 247.652694 
L 323.797926 247.444794 
L 324.705796 247.028994 
L 325.613667 246.197394 
L 326.521538 245.573694 
L 327.429408 245.469744 
L 328.337279 244.742094 
L 329.245149 244.638144 
L 331.060891 242.974944 
L 331.968761 241.519644 
L 332.876632 241.207794 
L 333.784503 240.168294 
L 335.600244 239.336694 
L 337.415985 239.024844 
L 338.323856 238.505094 
L 339.231727 237.465594 
L 340.139597 238.297194 
L 341.047468 238.193244 
L 341.955339 238.401144 
L 342.863209 237.465594 
L 343.77108 236.945844 
L 344.678951 237.049794 
L 345.586821 236.841894 
L 346.494692 235.698444 
L 347.402563 235.594494 
L 348.310433 235.698444 
L 349.218304 234.658944 
L 350.126174 234.347094 
L 351.034045 233.515494 
L 351.941916 233.515494 
L 352.849786 232.475994 
L 354.665528 232.475994 
L 355.573398 232.268094 
L 356.481269 231.748344 
L 358.29701 231.852294 
L 359.204881 231.228594 
L 360.112752 231.644394 
L 361.020622 231.124644 
L 361.928493 230.916744 
L 362.836364 230.916744 
L 363.744234 230.189094 
L 364.652105 229.981194 
L 365.559976 229.357494 
L 366.467846 229.357494 
L 368.283588 228.421944 
L 369.191458 227.070594 
L 370.099329 226.758744 
L 371.0072 226.654794 
L 372.822941 225.927144 
L 373.730811 225.615294 
L 374.638682 226.135044 
L 375.546553 226.446894 
L 377.362294 226.135044 
L 378.270165 226.446894 
L 379.178035 226.031094 
L 380.085906 226.550844 
L 380.993777 226.238994 
L 381.901647 226.135044 
L 382.809518 226.446894 
L 383.717389 225.719244 
L 385.53313 226.031094 
L 386.441001 225.719244 
L 387.348871 224.471844 
L 389.164613 223.848144 
L 390.072483 223.952094 
L 390.980354 222.496794 
L 391.888225 222.912594 
L 392.796095 222.808644 
L 393.703966 222.080994 
L 394.611836 221.665194 
L 395.519707 223.120494 
L 397.335448 223.328394 
L 398.243319 226.654794 
L 399.15119 223.952094 
L 400.05906 222.496794 
L 400.966931 222.496794 
L 401.874802 223.536294 
L 402.782672 223.432344 
L 403.690543 222.808644 
L 404.598414 223.120494 
L 405.506284 222.912594 
L 406.414155 223.640244 
L 407.322026 223.744194 
L 408.229896 223.328394 
L 409.137767 223.744194 
L 410.045638 223.120494 
L 410.953508 223.120494 
L 412.76925 220.001994 
L 413.67712 221.873094 
L 414.584991 220.625694 
L 415.492862 220.729644 
L 416.400732 219.690144 
L 417.308603 218.338794 
L 418.216473 219.586194 
L 420.032215 219.066444 
L 420.940085 220.729644 
L 421.847956 220.521744 
L 422.755827 220.001994 
L 423.663697 220.729644 
L 424.571568 220.833594 
L 425.479439 221.249394 
L 426.387309 221.457294 
L 427.29518 221.873094 
L 429.110921 221.041494 
L 430.018792 221.977044 
L 430.926663 221.561244 
L 431.834533 221.873094 
L 432.742404 221.873094 
L 434.558145 221.145444 
L 435.466016 221.249394 
L 436.373887 220.937544 
L 437.281757 221.665194 
L 438.189628 220.833594 
L 439.097498 220.833594 
L 440.005369 219.794094 
L 440.91324 220.417794 
L 441.82111 217.922994 
L 442.728981 219.586194 
L 443.636852 218.546694 
L 445.452593 218.234844 
L 446.360464 218.026944 
L 447.268334 218.442744 
L 448.176205 218.546694 
L 449.084076 218.858544 
L 449.991946 218.338794 
L 450.899817 218.650644 
L 451.807688 218.754594 
L 452.715558 216.571644 
L 453.623429 219.170394 
L 454.5313 218.858544 
L 455.43917 219.690144 
L 456.347041 219.378294 
L 457.254912 219.586194 
L 458.162782 219.378294 
L 459.070653 219.690144 
L 459.978523 219.690144 
L 460.886394 220.001994 
L 461.794265 219.378294 
L 462.702135 219.482244 
L 463.610006 219.378294 
L 464.517877 220.001994 
L 465.425747 218.962494 
L 466.333618 219.690144 
L 467.241489 219.066444 
L 468.149359 219.378294 
L 469.05723 218.962494 
L 469.965101 219.794094 
L 470.872971 218.650644 
L 471.780842 219.170394 
L 472.688713 218.442744 
L 474.504454 219.378294 
L 475.412325 218.858544 
L 476.320195 218.858544 
L 477.228066 218.234844 
L 478.135937 217.819044 
L 479.043807 217.715094 
L 479.951678 217.922994 
L 480.859549 218.858544 
L 481.767419 218.026944 
L 484.491031 217.922994 
L 485.398902 217.611144 
L 486.306772 218.546694 
L 488.122514 218.234844 
L 489.030384 217.507194 
L 489.938255 217.299294 
L 490.846126 217.611144 
L 491.753996 215.947944 
L 492.661867 218.026944 
L 493.569738 218.130894 
L 494.477608 217.819044 
L 495.385479 217.195344 
L 496.29335 217.091394 
L 497.20122 217.507194 
L 498.109091 217.299294 
L 498.109091 217.299294 
" clip-path="url(#p26b72e072d)" style="fill: none; stroke: #0000ff; stroke-opacity: 0.5; stroke-width: 1.5; stroke-linecap: square"/>
   </g>
   <g id="line2d_40">
    <path d="M 92.290909 362.309544 
L 93.19878 370.001844 
L 94.10665 369.482094 
L 96.830262 368.962344 
L 99.553874 369.274194 
L 101.369616 369.066294 
L 102.277486 369.274194 
L 103.185357 369.170244 
L 105.001098 369.482094 
L 105.908969 369.066294 
L 106.81684 369.482094 
L 107.72471 369.274194 
L 108.632581 369.378144 
L 109.540451 369.274194 
L 110.448322 369.586044 
L 111.356193 369.274194 
L 112.264063 369.378144 
L 113.171934 369.274194 
L 114.079805 369.482094 
L 114.987675 369.482094 
L 115.895546 369.689994 
L 116.803417 369.378144 
L 118.619158 369.689994 
L 119.527029 369.378144 
L 120.434899 369.274194 
L 121.34277 369.482094 
L 122.250641 369.274194 
L 124.066382 369.378144 
L 124.974253 369.586044 
L 128.605735 369.170244 
L 129.513606 369.378144 
L 132.237218 369.482094 
L 133.145088 368.962344 
L 134.052959 368.858394 
L 134.96083 368.962344 
L 135.8687 368.754444 
L 136.776571 368.962344 
L 138.592312 368.858394 
L 139.500183 368.650494 
L 140.408054 368.754444 
L 141.315924 368.650494 
L 142.223795 368.754444 
L 143.131666 368.442594 
L 145.855278 368.130744 
L 146.763148 368.234694 
L 147.671019 367.922844 
L 148.57889 367.818894 
L 149.48676 368.234694 
L 150.394631 367.818894 
L 153.118243 367.714944 
L 154.026113 367.610994 
L 154.933984 367.299144 
L 156.749725 367.195194 
L 157.657596 366.987294 
L 160.381208 366.883344 
L 161.289079 366.363594 
L 162.196949 366.571494 
L 165.828432 366.155694 
L 166.736303 365.739894 
L 168.552044 365.428044 
L 170.367785 365.324094 
L 171.275656 365.116194 
L 172.183527 364.700394 
L 173.091397 365.012244 
L 173.999268 364.908294 
L 174.907138 364.388544 
L 175.815009 364.180644 
L 176.72288 364.284594 
L 177.63075 364.076694 
L 179.446492 364.180644 
L 180.354362 363.556944 
L 181.262233 363.660894 
L 183.077974 363.141144 
L 183.985845 363.349044 
L 184.893716 363.349044 
L 186.709457 362.621394 
L 187.617328 362.517444 
L 188.525198 362.621394 
L 189.433069 362.309544 
L 191.24881 361.997694 
L 192.156681 361.789794 
L 193.064552 362.101644 
L 193.972422 361.685844 
L 194.880293 361.581894 
L 195.788164 361.062144 
L 196.696034 361.166094 
L 197.603905 360.230544 
L 199.419646 360.542394 
L 201.235387 359.710794 
L 202.143258 359.606844 
L 203.051129 358.983144 
L 203.958999 358.567344 
L 204.86687 358.775244 
L 205.774741 358.047594 
L 207.590482 357.527844 
L 208.498353 357.112044 
L 209.406223 356.904144 
L 210.314094 356.176494 
L 211.221965 356.072544 
L 212.129835 355.344894 
L 213.037706 355.344894 
L 213.945577 354.513294 
L 214.853447 354.825144 
L 215.761318 353.681694 
L 216.669189 353.265894 
L 217.577059 353.057994 
L 218.48493 352.642194 
L 220.300671 351.498744 
L 222.116412 350.771094 
L 223.024283 350.043444 
L 223.932154 349.627644 
L 224.840024 349.419744 
L 225.747895 348.899994 
L 226.655766 347.964444 
L 228.471507 346.820994 
L 231.195119 344.741994 
L 232.10299 344.638044 
L 234.826602 342.559044 
L 237.550214 340.583994 
L 238.458084 339.648444 
L 239.365955 339.440544 
L 240.273826 338.920794 
L 241.181696 337.673394 
L 242.089567 337.361544 
L 242.997437 336.737844 
L 243.905308 336.322044 
L 244.813179 334.658844 
L 245.721049 334.139094 
L 246.62892 334.139094 
L 248.444661 332.164044 
L 249.352532 331.540344 
L 250.260403 330.188994 
L 251.168273 330.085044 
L 252.076144 329.357394 
L 253.891885 326.966544 
L 254.799756 326.550744 
L 256.615497 325.199394 
L 257.523368 323.848044 
L 258.431239 323.224344 
L 259.339109 321.561144 
L 260.24698 320.417694 
L 261.154851 319.586094 
L 262.062721 319.586094 
L 262.970592 318.026844 
L 263.878462 317.091294 
L 264.786333 315.012294 
L 265.694204 314.492544 
L 266.602074 313.245144 
L 267.509945 312.309594 
L 268.417816 311.789844 
L 269.325686 310.126644 
L 270.233557 309.606894 
L 271.141428 307.735794 
L 272.049298 306.488394 
L 273.86504 303.577794 
L 274.77291 303.889644 
L 275.680781 301.914594 
L 276.588652 301.082994 
L 277.496522 299.939544 
L 278.404393 298.276344 
L 279.312264 297.340794 
L 280.220134 295.261794 
L 281.128005 294.949944 
L 282.035876 292.559094 
L 282.943746 291.935394 
L 283.851617 290.168244 
L 284.759487 289.128744 
L 285.667358 287.257644 
L 286.575229 286.426044 
L 287.483099 284.347044 
L 288.39097 283.515444 
L 289.298841 281.956194 
L 290.206711 281.228544 
L 291.114582 279.253494 
L 292.022453 278.006094 
L 292.930323 276.031044 
L 294.746065 274.887594 
L 295.653935 272.704644 
L 298.377547 269.170344 
L 299.285418 267.611094 
L 300.193289 266.467644 
L 301.101159 265.012344 
L 302.00903 264.596544 
L 302.916901 263.141244 
L 303.824771 261.997794 
L 304.732642 260.334594 
L 305.640513 258.983244 
L 306.548383 258.151644 
L 307.456254 257.527944 
L 308.364124 256.696344 
L 309.271995 256.384494 
L 310.179866 255.241044 
L 311.087736 253.889694 
L 311.995607 253.577844 
L 312.903478 252.434394 
L 313.811348 252.226494 
L 314.719219 251.498844 
L 315.62709 250.251444 
L 316.53496 250.043544 
L 317.442831 249.523794 
L 318.350702 248.380344 
L 319.258572 248.484294 
L 320.166443 247.444794 
L 321.074314 246.717144 
L 321.982184 246.405294 
L 322.890055 245.677644 
L 323.797926 245.885544 
L 324.705796 244.638144 
L 325.613667 243.702594 
L 327.429408 242.870994 
L 329.245149 241.727544 
L 330.15302 242.039394 
L 331.060891 240.480144 
L 331.968761 239.960394 
L 333.784503 238.401144 
L 334.692373 237.465594 
L 335.600244 237.361644 
L 336.508115 237.465594 
L 337.415985 236.737944 
L 338.323856 236.945844 
L 339.231727 236.218194 
L 340.139597 235.282644 
L 341.955339 234.658944 
L 342.863209 234.658944 
L 343.77108 233.827344 
L 345.586821 233.307594 
L 346.494692 232.579944 
L 347.402563 232.891794 
L 348.310433 231.748344 
L 349.218304 231.644394 
L 350.126174 231.748344 
L 351.034045 230.500944 
L 351.941916 230.708844 
L 352.849786 230.085144 
L 353.757657 230.189094 
L 354.665528 229.253544 
L 355.573398 228.941694 
L 356.481269 229.149594 
L 358.29701 227.902194 
L 359.204881 228.006144 
L 360.112752 228.317994 
L 361.020622 228.214044 
L 361.928493 227.590344 
L 362.836364 227.382444 
L 363.744234 227.590344 
L 365.559976 226.135044 
L 366.467846 226.342944 
L 367.375717 225.823194 
L 368.283588 224.991594 
L 369.191458 224.991594 
L 370.099329 224.575794 
L 371.0072 224.679744 
L 372.822941 223.952094 
L 373.730811 223.848144 
L 376.454423 224.159994 
L 377.362294 223.952094 
L 378.270165 223.952094 
L 379.178035 223.224444 
L 380.085906 223.016544 
L 380.993777 223.952094 
L 381.901647 223.016544 
L 382.809518 223.640244 
L 384.625259 222.704694 
L 385.53313 222.808644 
L 386.441001 220.937544 
L 387.348871 222.392844 
L 388.256742 222.600744 
L 390.072483 221.353344 
L 390.980354 219.378294 
L 391.888225 221.249394 
L 392.796095 220.937544 
L 393.703966 220.417794 
L 394.611836 221.457294 
L 398.243319 221.769144 
L 399.15119 221.561244 
L 400.05906 220.833594 
L 400.966931 220.729644 
L 401.874802 221.561244 
L 402.782672 221.665194 
L 403.690543 220.729644 
L 404.598414 220.729644 
L 405.506284 221.041494 
L 407.322026 221.353344 
L 408.229896 220.625694 
L 410.953508 221.457294 
L 411.861379 220.313844 
L 412.76925 220.417794 
L 413.67712 220.209894 
L 414.584991 219.482244 
L 415.492862 217.195344 
L 416.400732 219.170394 
L 417.308603 219.274344 
L 418.216473 219.170394 
L 420.032215 219.274344 
L 420.940085 219.274344 
L 421.847956 219.898044 
L 422.755827 219.482244 
L 424.571568 219.794094 
L 425.479439 219.586194 
L 427.29518 220.417794 
L 428.203051 219.378294 
L 429.110921 220.001994 
L 430.926663 219.066444 
L 431.834533 219.794094 
L 432.742404 220.209894 
L 433.650275 219.586194 
L 434.558145 220.105944 
L 435.466016 219.898044 
L 436.373887 218.754594 
L 437.281757 220.833594 
L 438.189628 219.586194 
L 440.005369 219.274344 
L 440.91324 219.794094 
L 441.82111 219.170394 
L 442.728981 218.962494 
L 443.636852 218.546694 
L 444.544722 218.962494 
L 445.452593 218.546694 
L 446.360464 218.858544 
L 448.176205 218.962494 
L 449.084076 219.274344 
L 449.991946 219.794094 
L 450.899817 220.001994 
L 452.715558 219.898044 
L 453.623429 219.898044 
L 454.5313 219.586194 
L 455.43917 220.105944 
L 456.347041 220.313844 
L 457.254912 219.794094 
L 458.162782 220.209894 
L 459.070653 219.690144 
L 459.978523 220.417794 
L 460.886394 220.417794 
L 461.794265 220.209894 
L 462.702135 219.794094 
L 464.517877 220.001994 
L 465.425747 220.833594 
L 466.333618 220.105944 
L 468.149359 220.625694 
L 469.05723 220.729644 
L 469.965101 220.001994 
L 471.780842 220.521744 
L 472.688713 220.313844 
L 473.596583 220.313844 
L 474.504454 220.625694 
L 475.412325 221.249394 
L 476.320195 219.898044 
L 477.228066 220.729644 
L 478.135937 220.833594 
L 479.043807 220.521744 
L 479.951678 221.041494 
L 480.859549 221.041494 
L 481.767419 220.625694 
L 482.67529 221.457294 
L 483.58316 220.729644 
L 484.491031 221.353344 
L 485.398902 221.249394 
L 486.306772 220.625694 
L 487.214643 221.769144 
L 488.122514 221.873094 
L 489.030384 221.249394 
L 489.938255 221.665194 
L 490.846126 221.145444 
L 491.753996 221.769144 
L 492.661867 222.080994 
L 494.477608 222.080994 
L 496.29335 221.145444 
L 497.20122 221.665194 
L 498.109091 221.665194 
L 498.109091 221.665194 
" clip-path="url(#p26b72e072d)" style="fill: none; stroke: #0000ff; stroke-opacity: 0.5; stroke-width: 1.5; stroke-linecap: square"/>
   </g>
   <g id="line2d_41">
    <path d="M 92.290909 364.284594 
L 93.19878 369.793944 
L 94.10665 369.066294 
L 95.014521 368.858394 
L 98.646004 368.962344 
L 99.553874 369.170244 
L 101.369616 368.962344 
L 103.185357 369.170244 
L 104.093228 368.962344 
L 105.001098 369.066294 
L 105.908969 368.962344 
L 106.81684 369.170244 
L 107.72471 369.066294 
L 108.632581 369.170244 
L 109.540451 369.066294 
L 111.356193 369.378144 
L 112.264063 369.066294 
L 115.895546 369.378144 
L 118.619158 369.170244 
L 119.527029 369.586044 
L 120.434899 369.170244 
L 122.250641 369.274194 
L 123.158511 368.962344 
L 124.974253 369.482094 
L 125.882123 369.170244 
L 130.421477 369.170244 
L 131.329347 368.858394 
L 132.237218 368.962344 
L 133.145088 368.754444 
L 134.052959 369.274194 
L 134.96083 369.170244 
L 135.8687 368.546544 
L 136.776571 368.962344 
L 137.684442 368.650494 
L 139.500183 368.650494 
L 140.408054 368.442594 
L 141.315924 368.650494 
L 142.223795 368.650494 
L 143.131666 368.234694 
L 144.039536 368.546544 
L 144.947407 368.234694 
L 145.855278 368.338644 
L 146.763148 368.130744 
L 147.671019 367.714944 
L 148.57889 368.234694 
L 149.48676 367.610994 
L 150.394631 367.714944 
L 151.302502 367.403094 
L 152.210372 367.714944 
L 153.118243 367.403094 
L 154.933984 367.507044 
L 155.841855 367.091244 
L 156.749725 366.987294 
L 157.657596 367.195194 
L 158.565467 366.987294 
L 159.473337 366.987294 
L 160.381208 366.467544 
L 161.289079 366.363594 
L 162.196949 366.571494 
L 163.10482 366.363594 
L 164.012691 366.467544 
L 164.920561 366.259644 
L 165.828432 365.635944 
L 167.644173 365.531994 
L 168.552044 365.324094 
L 169.459915 365.324094 
L 170.367785 365.012244 
L 175.815009 364.388544 
L 176.72288 364.076694 
L 177.63075 363.972744 
L 178.538621 363.556944 
L 179.446492 363.556944 
L 180.354362 364.076694 
L 181.262233 363.556944 
L 183.077974 363.141144 
L 183.985845 363.245094 
L 184.893716 362.829294 
L 186.709457 362.933244 
L 187.617328 362.517444 
L 189.433069 361.997694 
L 190.34094 361.685844 
L 191.24881 361.893744 
L 192.156681 361.789794 
L 193.064552 361.997694 
L 194.880293 361.062144 
L 196.696034 360.542394 
L 197.603905 360.646344 
L 198.511775 360.022644 
L 199.419646 359.606844 
L 200.327517 359.606844 
L 201.235387 359.294994 
L 203.051129 358.983144 
L 203.958999 358.255494 
L 204.86687 358.255494 
L 205.774741 357.527844 
L 206.682611 357.527844 
L 208.498353 356.800194 
L 209.406223 356.800194 
L 210.314094 356.072544 
L 214.853447 354.097494 
L 215.761318 353.785644 
L 216.669189 353.265894 
L 217.577059 352.226394 
L 220.300671 350.771094 
L 221.208542 350.355294 
L 222.116412 350.355294 
L 223.024283 349.419744 
L 224.840024 348.588144 
L 225.747895 347.652594 
L 226.655766 347.236794 
L 227.563636 346.405194 
L 229.379378 345.781494 
L 230.287248 345.053844 
L 231.195119 344.741994 
L 232.10299 343.806444 
L 233.01086 343.286694 
L 233.918731 343.286694 
L 234.826602 341.935344 
L 235.734472 341.519544 
L 236.642343 340.480044 
L 237.550214 339.960294 
L 238.458084 339.856344 
L 240.273826 338.089194 
L 241.181696 337.361544 
L 242.089567 336.322044 
L 242.997437 336.114144 
L 243.905308 335.386494 
L 245.721049 333.411444 
L 246.62892 333.307494 
L 247.536791 331.852194 
L 248.444661 331.228494 
L 249.352532 330.812694 
L 250.260403 329.669244 
L 256.615497 323.848044 
L 257.523368 323.328294 
L 258.431239 321.872994 
L 259.339109 320.729544 
L 260.24698 319.066344 
L 261.154851 318.026844 
L 262.062721 318.026844 
L 262.970592 316.467594 
L 263.878462 315.947844 
L 266.602074 311.581944 
L 267.509945 310.958244 
L 268.417816 309.710844 
L 269.325686 308.775294 
L 270.233557 308.463444 
L 271.141428 306.280494 
L 272.049298 305.448894 
L 272.957169 303.785694 
L 273.86504 302.434344 
L 274.77291 302.330394 
L 275.680781 300.979044 
L 276.588652 299.315844 
L 279.312264 295.989444 
L 280.220134 294.014394 
L 281.128005 293.910444 
L 282.035876 291.623544 
L 282.943746 289.856394 
L 283.851617 289.024794 
L 285.667358 286.426044 
L 287.483099 283.099644 
L 288.39097 282.060144 
L 289.298841 280.708794 
L 290.206711 279.877194 
L 291.114582 277.486344 
L 292.022453 277.174494 
L 292.930323 275.823144 
L 293.838194 273.848094 
L 294.746065 273.432294 
L 295.653935 271.457244 
L 296.561806 270.625644 
L 297.469677 269.378244 
L 298.377547 267.195294 
L 299.285418 265.947894 
L 300.193289 265.532094 
L 301.101159 263.453094 
L 302.00903 262.933344 
L 302.916901 261.893844 
L 303.824771 259.918794 
L 304.732642 259.710894 
L 305.640513 258.463494 
L 306.548383 257.423994 
L 307.456254 257.008194 
L 308.364124 255.448944 
L 309.271995 255.137094 
L 310.179866 254.097594 
L 311.087736 252.434394 
L 311.995607 251.914644 
L 312.903478 250.979094 
L 313.811348 251.083044 
L 314.719219 250.251444 
L 315.62709 249.107994 
L 317.442831 247.860594 
L 318.350702 247.028994 
L 319.258572 246.509244 
L 320.166443 245.677644 
L 321.074314 245.781594 
L 321.982184 244.534194 
L 322.890055 243.806544 
L 323.797926 243.598644 
L 324.705796 242.870994 
L 325.613667 242.663094 
L 326.521538 241.415694 
L 327.429408 241.519644 
L 328.337279 241.207794 
L 329.245149 240.480144 
L 330.15302 240.688044 
L 331.060891 239.336694 
L 331.968761 238.297194 
L 332.876632 237.881394 
L 333.784503 237.673494 
L 334.692373 236.737944 
L 335.600244 236.737944 
L 336.508115 236.322144 
L 337.415985 235.386594 
L 338.323856 234.970794 
L 339.231727 235.074744 
L 340.139597 234.451044 
L 341.047468 233.515494 
L 341.955339 233.723394 
L 342.863209 233.203644 
L 343.77108 233.099694 
L 344.678951 231.748344 
L 345.586821 231.956244 
L 346.494692 231.436494 
L 347.402563 231.332544 
L 348.310433 230.708844 
L 349.218304 230.500944 
L 350.126174 230.812794 
L 351.034045 229.669344 
L 351.941916 229.149594 
L 352.849786 229.045644 
L 353.757657 228.317994 
L 354.665528 228.525894 
L 355.573398 228.317994 
L 357.38914 227.590344 
L 358.29701 226.758744 
L 359.204881 226.758744 
L 360.112752 226.550844 
L 361.020622 226.758744 
L 361.928493 225.823194 
L 363.744234 225.511344 
L 364.652105 225.823194 
L 365.559976 225.823194 
L 366.467846 224.991594 
L 367.375717 224.887644 
L 368.283588 224.991594 
L 369.191458 224.471844 
L 370.099329 223.744194 
L 371.0072 223.432344 
L 371.91507 223.744194 
L 372.822941 223.744194 
L 373.730811 222.288894 
L 374.638682 222.704694 
L 375.546553 222.496794 
L 376.454423 222.080994 
L 377.362294 220.937544 
L 378.270165 222.496794 
L 379.178035 222.184944 
L 380.085906 221.561244 
L 380.993777 221.873094 
L 381.901647 221.249394 
L 382.809518 221.457294 
L 383.717389 220.313844 
L 384.625259 221.561244 
L 385.53313 220.729644 
L 387.348871 220.417794 
L 388.256742 220.729644 
L 390.072483 220.417794 
L 390.980354 217.922994 
L 391.888225 220.209894 
L 392.796095 216.883494 
L 393.703966 220.001994 
L 394.611836 219.794094 
L 395.519707 220.625694 
L 396.427578 217.922994 
L 397.335448 219.898044 
L 398.243319 220.001994 
L 399.15119 220.313844 
L 400.05906 219.898044 
L 400.966931 218.962494 
L 401.874802 219.794094 
L 402.782672 219.586194 
L 403.690543 219.898044 
L 404.598414 219.274344 
L 405.506284 219.482244 
L 406.414155 219.378294 
L 407.322026 218.546694 
L 408.229896 218.130894 
L 409.137767 219.690144 
L 410.045638 218.546694 
L 410.953508 217.611144 
L 411.861379 218.546694 
L 412.76925 218.650644 
L 413.67712 218.442744 
L 414.584991 218.962494 
L 415.492862 218.650644 
L 418.216473 218.546694 
L 420.032215 219.066444 
L 422.755827 218.858544 
L 423.663697 218.130894 
L 424.571568 218.650644 
L 427.29518 218.546694 
L 428.203051 218.858544 
L 429.110921 218.546694 
L 430.018792 218.650644 
L 430.926663 218.546694 
L 431.834533 217.819044 
L 433.650275 218.442744 
L 434.558145 219.170394 
L 435.466016 218.026944 
L 436.373887 217.507194 
L 437.281757 218.754594 
L 438.189628 218.754594 
L 439.097498 218.546694 
L 440.005369 218.650644 
L 440.91324 218.234844 
L 441.82111 218.650644 
L 442.728981 218.026944 
L 443.636852 218.442744 
L 444.544722 218.650644 
L 445.452593 217.299294 
L 446.360464 217.715094 
L 449.084076 218.442744 
L 449.991946 219.170394 
L 450.899817 217.922994 
L 451.807688 218.026944 
L 452.715558 218.546694 
L 453.623429 218.754594 
L 454.5313 218.442744 
L 455.43917 218.650644 
L 456.347041 218.546694 
L 457.254912 218.754594 
L 458.162782 217.819044 
L 460.886394 218.546694 
L 462.702135 218.026944 
L 463.610006 218.858544 
L 464.517877 218.858544 
L 465.425747 218.650644 
L 466.333618 216.571644 
L 467.241489 218.754594 
L 468.149359 218.234844 
L 469.05723 218.858544 
L 469.965101 219.170394 
L 471.780842 219.482244 
L 472.688713 219.274344 
L 473.596583 219.586194 
L 474.504454 219.586194 
L 475.412325 219.378294 
L 476.320195 219.586194 
L 477.228066 219.170394 
L 478.135937 219.586194 
L 479.043807 218.858544 
L 479.951678 219.898044 
L 480.859549 219.274344 
L 481.767419 219.690144 
L 483.58316 219.898044 
L 485.398902 219.586194 
L 486.306772 219.898044 
L 489.030384 219.690144 
L 489.938255 220.001994 
L 490.846126 220.521744 
L 491.753996 220.001994 
L 492.661867 218.130894 
L 493.569738 220.625694 
L 494.477608 216.779544 
L 495.385479 220.209894 
L 496.29335 219.898044 
L 497.20122 220.937544 
L 498.109091 220.937544 
L 498.109091 220.937544 
" clip-path="url(#p26b72e072d)" style="fill: none; stroke: #0000ff; stroke-opacity: 0.5; stroke-width: 1.5; stroke-linecap: square"/>
   </g>
   <g id="line2d_42">
    <path d="M 92.290909 359.710794 
L 93.19878 369.586044 
L 94.10665 369.274194 
L 95.014521 368.754444 
L 95.922392 368.858394 
L 96.830262 368.754444 
L 97.738133 368.858394 
L 98.646004 368.754444 
L 99.553874 368.858394 
L 100.461745 368.754444 
L 101.369616 369.170244 
L 102.277486 368.754444 
L 104.093228 369.066294 
L 105.001098 368.858394 
L 105.908969 368.858394 
L 107.72471 369.170244 
L 108.632581 368.754444 
L 110.448322 368.962344 
L 111.356193 368.858394 
L 112.264063 369.066294 
L 113.171934 368.858394 
L 114.987675 368.962344 
L 118.619158 368.858394 
L 119.527029 369.274194 
L 120.434899 368.962344 
L 121.34277 369.066294 
L 124.066382 368.858394 
L 125.882123 368.962344 
L 126.789994 368.858394 
L 127.697865 369.482094 
L 128.605735 368.754444 
L 132.237218 368.650494 
L 133.145088 368.546544 
L 134.052959 368.650494 
L 135.8687 368.338644 
L 140.408054 368.234694 
L 141.315924 368.130744 
L 142.223795 368.234694 
L 144.947407 367.714944 
L 149.48676 367.714944 
L 151.302502 366.987294 
L 153.118243 367.091244 
L 155.841855 366.571494 
L 157.657596 366.571494 
L 158.565467 365.947794 
L 159.473337 366.363594 
L 161.289079 365.843844 
L 164.012691 365.739894 
L 164.920561 365.324094 
L 165.828432 365.531994 
L 170.367785 364.596444 
L 171.275656 364.492494 
L 172.183527 364.180644 
L 173.091397 364.180644 
L 173.999268 364.388544 
L 174.907138 363.972744 
L 175.815009 363.972744 
L 177.63075 363.452994 
L 178.538621 363.452994 
L 179.446492 363.245094 
L 180.354362 362.829294 
L 182.170104 362.725344 
L 184.893716 362.101644 
L 185.801586 362.101644 
L 186.709457 362.309544 
L 187.617328 361.789794 
L 188.525198 361.685844 
L 189.433069 361.893744 
L 190.34094 361.270044 
L 191.24881 361.270044 
L 197.603905 359.814744 
L 198.511775 359.398944 
L 199.419646 359.191044 
L 200.327517 359.294994 
L 203.958999 357.943644 
L 204.86687 357.527844 
L 205.774741 357.423894 
L 206.682611 356.696244 
L 207.590482 356.592294 
L 208.498353 356.072544 
L 209.406223 356.072544 
L 210.314094 355.344894 
L 211.221965 355.136994 
L 212.129835 354.721194 
L 213.037706 354.513294 
L 213.945577 353.889594 
L 214.853447 353.785644 
L 215.761318 352.746144 
L 217.577059 352.122444 
L 218.48493 351.498744 
L 219.3928 351.082944 
L 220.300671 350.459244 
L 221.208542 350.147394 
L 222.116412 349.627644 
L 223.932154 348.276294 
L 225.747895 347.444694 
L 226.655766 346.509144 
L 228.471507 345.781494 
L 230.287248 344.222244 
L 231.195119 343.910394 
L 232.10299 343.078794 
L 233.01086 342.662994 
L 233.918731 342.039294 
L 234.826602 341.103744 
L 235.734472 340.687944 
L 238.458084 338.504994 
L 239.365955 338.089194 
L 241.181696 336.322044 
L 242.997437 335.386494 
L 244.813179 333.411444 
L 245.721049 332.371944 
L 247.536791 331.436394 
L 248.444661 330.085044 
L 249.352532 329.045544 
L 250.260403 328.317894 
L 251.168273 328.109994 
L 252.076144 326.550744 
L 253.891885 324.991494 
L 254.799756 323.848044 
L 255.707627 323.328294 
L 256.615497 321.976944 
L 257.523368 321.353244 
L 258.431239 319.897944 
L 259.339109 319.274244 
L 260.24698 318.026844 
L 262.062721 316.571544 
L 262.970592 314.908344 
L 263.878462 313.972794 
L 264.786333 312.309594 
L 265.694204 311.997744 
L 266.602074 310.750344 
L 267.509945 308.983194 
L 268.417816 308.567394 
L 269.325686 307.216044 
L 270.233557 305.552844 
L 271.141428 304.617294 
L 272.049298 303.058044 
L 272.957169 301.810644 
L 273.86504 301.082994 
L 274.77291 299.835594 
L 275.680781 298.172394 
L 276.588652 297.340794 
L 277.496522 295.989444 
L 278.404393 294.326244 
L 279.312264 293.494644 
L 281.128005 290.168244 
L 282.035876 289.336644 
L 283.851617 286.945794 
L 284.759487 285.178644 
L 285.667358 283.723344 
L 286.575229 282.683844 
L 287.483099 280.812744 
L 288.39097 279.253494 
L 289.298841 278.110044 
L 291.114582 275.407344 
L 292.022453 274.471794 
L 292.930323 272.392794 
L 294.746065 270.521694 
L 295.653935 269.274294 
L 297.469677 266.155794 
L 298.377547 265.428144 
L 299.285418 263.660994 
L 300.193289 262.413594 
L 301.101159 261.478044 
L 302.00903 260.126694 
L 302.916901 258.983244 
L 303.824771 258.151644 
L 304.732642 257.112144 
L 305.640513 255.344994 
L 306.548383 255.033144 
L 307.456254 253.577844 
L 308.364124 252.538344 
L 309.271995 252.226494 
L 310.179866 250.667244 
L 311.087736 250.147494 
L 311.995607 249.835644 
L 312.903478 248.380344 
L 313.811348 247.548744 
L 314.719219 247.444794 
L 315.62709 245.781594 
L 316.53496 245.781594 
L 318.350702 245.053944 
L 319.258572 244.118394 
L 321.074314 242.767044 
L 321.982184 241.935444 
L 322.890055 241.311744 
L 323.797926 240.999894 
L 324.705796 239.856444 
L 325.613667 239.960394 
L 326.521538 239.336694 
L 327.429408 238.401144 
L 329.245149 237.569544 
L 330.15302 236.737944 
L 331.968761 235.802394 
L 334.692373 233.931294 
L 335.600244 234.139194 
L 336.508115 233.411544 
L 337.415985 233.203644 
L 338.323856 232.164144 
L 341.047468 231.436494 
L 342.863209 230.396994 
L 343.77108 230.085144 
L 344.678951 229.045644 
L 345.586821 229.045644 
L 346.494692 228.317994 
L 348.310433 228.317994 
L 349.218304 227.486394 
L 351.034045 226.654794 
L 351.941916 226.758744 
L 352.849786 226.342944 
L 353.757657 225.511344 
L 354.665528 225.823194 
L 355.573398 225.303444 
L 356.481269 224.991594 
L 357.38914 223.952094 
L 359.204881 223.848144 
L 360.112752 223.640244 
L 361.020622 223.744194 
L 361.928493 223.120494 
L 362.836364 223.224444 
L 363.744234 222.704694 
L 364.652105 222.496794 
L 365.559976 221.561244 
L 366.467846 221.977044 
L 367.375717 221.561244 
L 368.283588 221.353344 
L 369.191458 220.833594 
L 370.099329 219.482244 
L 371.0072 220.521744 
L 371.91507 220.313844 
L 372.822941 220.313844 
L 373.730811 220.001994 
L 375.546553 220.001994 
L 377.362294 219.274344 
L 378.270165 219.794094 
L 379.178035 219.274344 
L 380.085906 218.962494 
L 380.993777 218.962494 
L 383.717389 218.442744 
L 384.625259 218.442744 
L 385.53313 218.130894 
L 386.441001 217.403244 
L 387.348871 218.234844 
L 388.256742 218.442744 
L 389.164613 217.819044 
L 390.072483 217.611144 
L 392.796095 217.507194 
L 393.703966 214.180794 
L 394.611836 216.987444 
L 395.519707 217.403244 
L 396.427578 216.675594 
L 398.243319 216.987444 
L 399.15119 216.467694 
L 400.966931 216.779544 
L 401.874802 216.883494 
L 402.782672 216.779544 
L 403.690543 216.883494 
L 404.598414 216.467694 
L 406.414155 216.675594 
L 407.322026 215.740044 
L 408.229896 216.467694 
L 409.137767 213.141294 
L 410.045638 216.363744 
L 410.953508 216.363744 
L 411.861379 216.051894 
L 412.76925 216.259794 
L 413.67712 216.259794 
L 414.584991 214.076844 
L 415.492862 212.517594 
L 416.400732 215.324244 
L 417.308603 215.947944 
L 418.216473 216.363744 
L 419.124344 215.947944 
L 420.032215 215.843994 
L 420.940085 216.363744 
L 421.847956 215.740044 
L 423.663697 215.740044 
L 424.571568 216.259794 
L 425.479439 213.453144 
L 426.387309 216.259794 
L 427.29518 216.051894 
L 428.203051 215.220294 
L 429.110921 214.076844 
L 430.018792 215.843994 
L 430.926663 216.155844 
L 431.834533 215.843994 
L 432.742404 215.324244 
L 433.650275 215.740044 
L 434.558145 216.571644 
L 435.466016 214.492644 
L 436.373887 216.363744 
L 437.281757 216.051894 
L 438.189628 216.467694 
L 439.097498 216.155844 
L 440.005369 216.467694 
L 440.91324 216.051894 
L 441.82111 216.363744 
L 442.728981 216.155844 
L 443.636852 216.363744 
L 444.544722 216.363744 
L 445.452593 216.155844 
L 446.360464 215.428194 
L 447.268334 216.363744 
L 448.176205 216.155844 
L 449.084076 213.661044 
L 450.899817 216.883494 
L 451.807688 216.675594 
L 452.715558 214.804494 
L 453.623429 216.259794 
L 454.5313 216.779544 
L 455.43917 216.779544 
L 456.347041 216.467694 
L 457.254912 216.363744 
L 458.162782 216.675594 
L 459.070653 216.051894 
L 459.978523 216.883494 
L 460.886394 216.779544 
L 461.794265 217.403244 
L 462.702135 216.051894 
L 463.610006 216.987444 
L 464.517877 216.363744 
L 465.425747 216.987444 
L 466.333618 216.571644 
L 467.241489 217.299294 
L 468.149359 217.403244 
L 469.05723 217.195344 
L 469.965101 217.195344 
L 470.872971 218.130894 
L 471.780842 216.883494 
L 475.412325 217.819044 
L 477.228066 217.611144 
L 479.043807 218.026944 
L 479.951678 218.546694 
L 480.859549 217.299294 
L 481.767419 217.819044 
L 482.67529 218.650644 
L 483.58316 218.338794 
L 485.398902 218.650644 
L 486.306772 218.338794 
L 487.214643 218.442744 
L 488.122514 218.962494 
L 489.030384 218.546694 
L 489.938255 219.066444 
L 490.846126 219.170394 
L 491.753996 218.234844 
L 492.661867 218.442744 
L 493.569738 218.234844 
L 494.477608 219.690144 
L 495.385479 218.962494 
L 496.29335 219.482244 
L 497.20122 218.962494 
L 498.109091 219.898044 
L 498.109091 219.898044 
" clip-path="url(#p26b72e072d)" style="fill: none; stroke: #0000ff; stroke-opacity: 0.5; stroke-width: 1.5; stroke-linecap: square"/>
   </g>
   <g id="LineCollection_1">
    <path d="M 92.290909 364.815223 
L 92.290909 360.47954 
" clip-path="url(#p26b72e072d)" style="fill: none; stroke: #ff0000; stroke-width: 1.5"/>
    <path d="M 128.605735 369.606506 
L 128.605735 368.837932 
" clip-path="url(#p26b72e072d)" style="fill: none; stroke: #ff0000; stroke-width: 1.5"/>
    <path d="M 164.920561 366.91991 
L 164.920561 365.547403 
" clip-path="url(#p26b72e072d)" style="fill: none; stroke: #ff0000; stroke-width: 1.5"/>
    <path d="M 201.235387 360.236293 
L 201.235387 358.977395 
" clip-path="url(#p26b72e072d)" style="fill: none; stroke: #ff0000; stroke-width: 1.5"/>
    <path d="M 237.550214 341.281315 
L 237.550214 339.418898 
" clip-path="url(#p26b72e072d)" style="fill: none; stroke: #ff0000; stroke-width: 1.5"/>
    <path d="M 273.86504 306.580183 
L 273.86504 300.83528 
" clip-path="url(#p26b72e072d)" style="fill: none; stroke: #ff0000; stroke-width: 1.5"/>
    <path d="M 310.179866 258.038313 
L 310.179866 251.3523 
" clip-path="url(#p26b72e072d)" style="fill: none; stroke: #ff0000; stroke-width: 1.5"/>
    <path d="M 346.494692 235.057222 
L 346.494692 228.959216 
" clip-path="url(#p26b72e072d)" style="fill: none; stroke: #ff0000; stroke-width: 1.5"/>
    <path d="M 382.809518 225.853987 
L 382.809518 219.243551 
" clip-path="url(#p26b72e072d)" style="fill: none; stroke: #ff0000; stroke-width: 1.5"/>
    <path d="M 419.124344 219.99158 
L 419.124344 216.737983 
" clip-path="url(#p26b72e072d)" style="fill: none; stroke: #ff0000; stroke-width: 1.5"/>
    <path d="M 455.43917 220.290058 
L 455.43917 217.32308 
" clip-path="url(#p26b72e072d)" style="fill: none; stroke: #ff0000; stroke-width: 1.5"/>
    <path d="M 491.753996 221.476595 
L 491.753996 216.500368 
" clip-path="url(#p26b72e072d)" style="fill: none; stroke: #ff0000; stroke-width: 1.5"/>
   </g>
   <g id="line2d_43">
    <defs>
     <path id="m184681510f" d="M 5 0 
L -5 -0 
" style="stroke: #ff0000"/>
    </defs>
    <g clip-path="url(#p26b72e072d)">
     <use xlink:href="#m184681510f" x="92.290909" y="364.815223" style="fill: #ff0000; stroke: #ff0000"/>
     <use xlink:href="#m184681510f" x="128.605735" y="369.606506" style="fill: #ff0000; stroke: #ff0000"/>
     <use xlink:href="#m184681510f" x="164.920561" y="366.91991" style="fill: #ff0000; stroke: #ff0000"/>
     <use xlink:href="#m184681510f" x="201.235387" y="360.236293" style="fill: #ff0000; stroke: #ff0000"/>
     <use xlink:href="#m184681510f" x="237.550214" y="341.281315" style="fill: #ff0000; stroke: #ff0000"/>
     <use xlink:href="#m184681510f" x="273.86504" y="306.580183" style="fill: #ff0000; stroke: #ff0000"/>
     <use xlink:href="#m184681510f" x="310.179866" y="258.038313" style="fill: #ff0000; stroke: #ff0000"/>
     <use xlink:href="#m184681510f" x="346.494692" y="235.057222" style="fill: #ff0000; stroke: #ff0000"/>
     <use xlink:href="#m184681510f" x="382.809518" y="225.853987" style="fill: #ff0000; stroke: #ff0000"/>
     <use xlink:href="#m184681510f" x="419.124344" y="219.99158" style="fill: #ff0000; stroke: #ff0000"/>
     <use xlink:href="#m184681510f" x="455.43917" y="220.290058" style="fill: #ff0000; stroke: #ff0000"/>
     <use xlink:href="#m184681510f" x="491.753996" y="221.476595" style="fill: #ff0000; stroke: #ff0000"/>
    </g>
   </g>
   <g id="line2d_44">
    <g clip-path="url(#p26b72e072d)">
     <use xlink:href="#m184681510f" x="92.290909" y="360.47954" style="fill: #ff0000; stroke: #ff0000"/>
     <use xlink:href="#m184681510f" x="128.605735" y="368.837932" style="fill: #ff0000; stroke: #ff0000"/>
     <use xlink:href="#m184681510f" x="164.920561" y="365.547403" style="fill: #ff0000; stroke: #ff0000"/>
     <use xlink:href="#m184681510f" x="201.235387" y="358.977395" style="fill: #ff0000; stroke: #ff0000"/>
     <use xlink:href="#m184681510f" x="237.550214" y="339.418898" style="fill: #ff0000; stroke: #ff0000"/>
     <use xlink:href="#m184681510f" x="273.86504" y="300.83528" style="fill: #ff0000; stroke: #ff0000"/>
     <use xlink:href="#m184681510f" x="310.179866" y="251.3523" style="fill: #ff0000; stroke: #ff0000"/>
     <use xlink:href="#m184681510f" x="346.494692" y="228.959216" style="fill: #ff0000; stroke: #ff0000"/>
     <use xlink:href="#m184681510f" x="382.809518" y="219.243551" style="fill: #ff0000; stroke: #ff0000"/>
     <use xlink:href="#m184681510f" x="419.124344" y="216.737983" style="fill: #ff0000; stroke: #ff0000"/>
     <use xlink:href="#m184681510f" x="455.43917" y="217.32308" style="fill: #ff0000; stroke: #ff0000"/>
     <use xlink:href="#m184681510f" x="491.753996" y="216.500368" style="fill: #ff0000; stroke: #ff0000"/>
    </g>
   </g>
   <g id="line2d_45">
    <path d="M 92.290909 362.647381 
L 128.605735 369.222219 
L 164.920561 366.233656 
L 201.235387 359.606844 
L 237.550214 340.350106 
L 273.86504 303.707731 
L 310.179866 254.695306 
L 346.494692 232.008219 
L 382.809518 222.548769 
L 419.124344 218.364781 
L 455.43917 218.806569 
L 491.753996 218.988481 
" clip-path="url(#p26b72e072d)" style="fill: none; stroke: #ff0000; stroke-width: 1.5; stroke-linecap: square"/>
   </g>
   <g id="patch_3">
    <path d="M 72 384.48 
L 72 51.84 
" style="fill: none; stroke: #000000; stroke-width: 0.8; stroke-linejoin: miter; stroke-linecap: square"/>
   </g>
   <g id="patch_4">
    <path d="M 518.4 384.48 
L 518.4 51.84 
" style="fill: none; stroke: #000000; stroke-width: 0.8; stroke-linejoin: miter; stroke-linecap: square"/>
   </g>
   <g id="patch_5">
    <path d="M 72 384.48 
L 518.4 384.48 
" style="fill: none; stroke: #000000; stroke-width: 0.8; stroke-linejoin: miter; stroke-linecap: square"/>
   </g>
   <g id="patch_6">
    <path d="M 72 51.84 
L 518.4 51.84 
" style="fill: none; stroke: #000000; stroke-width: 0.8; stroke-linejoin: miter; stroke-linecap: square"/>
   </g>
   <g id="text_22">
    <!-- M16: Methionin; Phenylalanin -->
    <g transform="translate(221.260937 45.84) scale(0.1 -0.1)">
     <defs>
      <path id="DejaVuSans-4d" d="M 628 4666 
L 1569 4666 
L 2759 1491 
L 3956 4666 
L 4897 4666 
L 4897 0 
L 4281 0 
L 4281 4097 
L 3078 897 
L 2444 897 
L 1241 4097 
L 1241 0 
L 628 0 
L 628 4666 
z
" transform="scale(0.015625)"/>
      <path id="DejaVuSans-3a" d="M 750 794 
L 1409 794 
L 1409 0 
L 750 0 
L 750 794 
z
M 750 3309 
L 1409 3309 
L 1409 2516 
L 750 2516 
L 750 3309 
z
" transform="scale(0.015625)"/>
      <path id="DejaVuSans-3b" d="M 750 3309 
L 1409 3309 
L 1409 2516 
L 750 2516 
L 750 3309 
z
M 750 794 
L 1409 794 
L 1409 256 
L 897 -744 
L 494 -744 
L 750 256 
L 750 794 
z
" transform="scale(0.015625)"/>
      <path id="DejaVuSans-50" d="M 1259 4147 
L 1259 2394 
L 2053 2394 
Q 2494 2394 2734 2622 
Q 2975 2850 2975 3272 
Q 2975 3691 2734 3919 
Q 2494 4147 2053 4147 
L 1259 4147 
z
M 628 4666 
L 2053 4666 
Q 2838 4666 3239 4311 
Q 3641 3956 3641 3272 
Q 3641 2581 3239 2228 
Q 2838 1875 2053 1875 
L 1259 1875 
L 1259 0 
L 628 0 
L 628 4666 
z
" transform="scale(0.015625)"/>
      <path id="DejaVuSans-79" d="M 2059 -325 
Q 1816 -950 1584 -1140 
Q 1353 -1331 966 -1331 
L 506 -1331 
L 506 -850 
L 844 -850 
Q 1081 -850 1212 -737 
Q 1344 -625 1503 -206 
L 1606 56 
L 191 3500 
L 800 3500 
L 1894 763 
L 2988 3500 
L 3597 3500 
L 2059 -325 
z
" transform="scale(0.015625)"/>
     </defs>
     <use xlink:href="#DejaVuSans-4d"/>
     <use xlink:href="#DejaVuSans-31" x="86.279297"/>
     <use xlink:href="#DejaVuSans-36" x="149.902344"/>
     <use xlink:href="#DejaVuSans-3a" x="213.525391"/>
     <use xlink:href="#DejaVuSans-20" x="247.216797"/>
     <use xlink:href="#DejaVuSans-4d" x="279.003906"/>
     <use xlink:href="#DejaVuSans-65" x="365.283203"/>
     <use xlink:href="#DejaVuSans-74" x="426.806641"/>
     <use xlink:href="#DejaVuSans-68" x="466.015625"/>
     <use xlink:href="#DejaVuSans-69" x="529.394531"/>
     <use xlink:href="#DejaVuSans-6f" x="557.177734"/>
     <use xlink:href="#DejaVuSans-6e" x="618.359375"/>
     <use xlink:href="#DejaVuSans-69" x="681.738281"/>
     <use xlink:href="#DejaVuSans-6e" x="709.521484"/>
     <use xlink:href="#DejaVuSans-3b" x="772.900391"/>
     <use xlink:href="#DejaVuSans-20" x="806.591797"/>
     <use xlink:href="#DejaVuSans-50" x="838.378906"/>
     <use xlink:href="#DejaVuSans-68" x="898.681641"/>
     <use xlink:href="#DejaVuSans-65" x="962.060547"/>
     <use xlink:href="#DejaVuSans-6e" x="1023.583984"/>
     <use xlink:href="#DejaVuSans-79" x="1086.962891"/>
     <use xlink:href="#DejaVuSans-6c" x="1146.142578"/>
     <use xlink:href="#DejaVuSans-61" x="1173.925781"/>
     <use xlink:href="#DejaVuSans-6c" x="1235.205078"/>
     <use xlink:href="#DejaVuSans-61" x="1262.988281"/>
     <use xlink:href="#DejaVuSans-6e" x="1324.267578"/>
     <use xlink:href="#DejaVuSans-69" x="1387.646484"/>
     <use xlink:href="#DejaVuSans-6e" x="1415.429688"/>
    </g>
   </g>
  </g>
 </g>
 <defs>
  <clipPath id="p26b72e072d">
   <rect x="72" y="51.84" width="446.4" height="332.64"/>
  </clipPath>
 </defs>
</svg>
