<?xml version="1.0" encoding="utf-8" standalone="no"?>
<!DOCTYPE svg PUBLIC "-//W3C//DTD SVG 1.1//EN"
  "http://www.w3.org/Graphics/SVG/1.1/DTD/svg11.dtd">
<svg xmlns:xlink="http://www.w3.org/1999/xlink" width="576pt" height="432pt" viewBox="0 0 576 432" xmlns="http://www.w3.org/2000/svg" version="1.1">
 <metadata>
  <rdf:RDF xmlns:dc="http://purl.org/dc/elements/1.1/" xmlns:cc="http://creativecommons.org/ns#" xmlns:rdf="http://www.w3.org/1999/02/22-rdf-syntax-ns#">
   <cc:Work>
    <dc:type rdf:resource="http://purl.org/dc/dcmitype/StillImage"/>
    <dc:date>2024-11-12T14:09:14.773880</dc:date>
    <dc:format>image/svg+xml</dc:format>
    <dc:creator>
     <cc:Agent>
      <dc:title>Matplotlib v3.7.5, https://matplotlib.org/</dc:title>
     </cc:Agent>
    </dc:creator>
   </cc:Work>
  </rdf:RDF>
 </metadata>
 <defs>
  <style type="text/css">*{stroke-linejoin: round; stroke-linecap: butt}</style>
 </defs>
 <g id="figure_1">
  <g id="patch_1">
   <path d="M 0 432 
L 576 432 
L 576 0 
L 0 0 
z
" style="fill: #ffffff"/>
  </g>
  <g id="axes_1">
   <g id="patch_2">
    <path d="M 72 384.48 
L 518.4 384.48 
L 518.4 51.84 
L 72 51.84 
z
" style="fill: #ffffff"/>
   </g>
   <g id="matplotlib.axis_1">
    <g id="xtick_1">
     <g id="line2d_1">
      <path d="M 92.290909 384.48 
L 92.290909 51.84 
" clip-path="url(#pf9f3129dfa)" style="fill: none; stroke: #b0b0b0; stroke-width: 0.8; stroke-linecap: square"/>
     </g>
     <g id="line2d_2">
      <defs>
       <path id="mca27085516" d="M 0 0 
L 0 3.5 
" style="stroke: #000000; stroke-width: 0.8"/>
      </defs>
      <g>
       <use xlink:href="#mca27085516" x="92.290909" y="384.48" style="stroke: #000000; stroke-width: 0.8"/>
      </g>
     </g>
     <g id="text_1">
      <!-- 0.17 -->
      <g transform="translate(81.158097 399.078438) scale(0.1 -0.1)">
       <defs>
        <path id="DejaVuSans-30" d="M 2034 4250 
Q 1547 4250 1301 3770 
Q 1056 3291 1056 2328 
Q 1056 1369 1301 889 
Q 1547 409 2034 409 
Q 2525 409 2770 889 
Q 3016 1369 3016 2328 
Q 3016 3291 2770 3770 
Q 2525 4250 2034 4250 
z
M 2034 4750 
Q 2819 4750 3233 4129 
Q 3647 3509 3647 2328 
Q 3647 1150 3233 529 
Q 2819 -91 2034 -91 
Q 1250 -91 836 529 
Q 422 1150 422 2328 
Q 422 3509 836 4129 
Q 1250 4750 2034 4750 
z
" transform="scale(0.015625)"/>
        <path id="DejaVuSans-2e" d="M 684 794 
L 1344 794 
L 1344 0 
L 684 0 
L 684 794 
z
" transform="scale(0.015625)"/>
        <path id="DejaVuSans-31" d="M 794 531 
L 1825 531 
L 1825 4091 
L 703 3866 
L 703 4441 
L 1819 4666 
L 2450 4666 
L 2450 531 
L 3481 531 
L 3481 0 
L 794 0 
L 794 531 
z
" transform="scale(0.015625)"/>
        <path id="DejaVuSans-37" d="M 525 4666 
L 3525 4666 
L 3525 4397 
L 1831 0 
L 1172 0 
L 2766 4134 
L 525 4134 
L 525 4666 
z
" transform="scale(0.015625)"/>
       </defs>
       <use xlink:href="#DejaVuSans-30"/>
       <use xlink:href="#DejaVuSans-2e" x="63.623047"/>
       <use xlink:href="#DejaVuSans-31" x="95.410156"/>
       <use xlink:href="#DejaVuSans-37" x="159.033203"/>
      </g>
     </g>
    </g>
    <g id="xtick_2">
     <g id="line2d_3">
      <path d="M 128.605735 384.48 
L 128.605735 51.84 
" clip-path="url(#pf9f3129dfa)" style="fill: none; stroke: #b0b0b0; stroke-width: 0.8; stroke-linecap: square"/>
     </g>
     <g id="line2d_4">
      <g>
       <use xlink:href="#mca27085516" x="128.605735" y="384.48" style="stroke: #000000; stroke-width: 0.8"/>
      </g>
     </g>
     <g id="text_2">
      <!-- 6.83 -->
      <g transform="translate(117.472923 399.078438) scale(0.1 -0.1)">
       <defs>
        <path id="DejaVuSans-36" d="M 2113 2584 
Q 1688 2584 1439 2293 
Q 1191 2003 1191 1497 
Q 1191 994 1439 701 
Q 1688 409 2113 409 
Q 2538 409 2786 701 
Q 3034 994 3034 1497 
Q 3034 2003 2786 2293 
Q 2538 2584 2113 2584 
z
M 3366 4563 
L 3366 3988 
Q 3128 4100 2886 4159 
Q 2644 4219 2406 4219 
Q 1781 4219 1451 3797 
Q 1122 3375 1075 2522 
Q 1259 2794 1537 2939 
Q 1816 3084 2150 3084 
Q 2853 3084 3261 2657 
Q 3669 2231 3669 1497 
Q 3669 778 3244 343 
Q 2819 -91 2113 -91 
Q 1303 -91 875 529 
Q 447 1150 447 2328 
Q 447 3434 972 4092 
Q 1497 4750 2381 4750 
Q 2619 4750 2861 4703 
Q 3103 4656 3366 4563 
z
" transform="scale(0.015625)"/>
        <path id="DejaVuSans-38" d="M 2034 2216 
Q 1584 2216 1326 1975 
Q 1069 1734 1069 1313 
Q 1069 891 1326 650 
Q 1584 409 2034 409 
Q 2484 409 2743 651 
Q 3003 894 3003 1313 
Q 3003 1734 2745 1975 
Q 2488 2216 2034 2216 
z
M 1403 2484 
Q 997 2584 770 2862 
Q 544 3141 544 3541 
Q 544 4100 942 4425 
Q 1341 4750 2034 4750 
Q 2731 4750 3128 4425 
Q 3525 4100 3525 3541 
Q 3525 3141 3298 2862 
Q 3072 2584 2669 2484 
Q 3125 2378 3379 2068 
Q 3634 1759 3634 1313 
Q 3634 634 3220 271 
Q 2806 -91 2034 -91 
Q 1263 -91 848 271 
Q 434 634 434 1313 
Q 434 1759 690 2068 
Q 947 2378 1403 2484 
z
M 1172 3481 
Q 1172 3119 1398 2916 
Q 1625 2713 2034 2713 
Q 2441 2713 2670 2916 
Q 2900 3119 2900 3481 
Q 2900 3844 2670 4047 
Q 2441 4250 2034 4250 
Q 1625 4250 1398 4047 
Q 1172 3844 1172 3481 
z
" transform="scale(0.015625)"/>
        <path id="DejaVuSans-33" d="M 2597 2516 
Q 3050 2419 3304 2112 
Q 3559 1806 3559 1356 
Q 3559 666 3084 287 
Q 2609 -91 1734 -91 
Q 1441 -91 1130 -33 
Q 819 25 488 141 
L 488 750 
Q 750 597 1062 519 
Q 1375 441 1716 441 
Q 2309 441 2620 675 
Q 2931 909 2931 1356 
Q 2931 1769 2642 2001 
Q 2353 2234 1838 2234 
L 1294 2234 
L 1294 2753 
L 1863 2753 
Q 2328 2753 2575 2939 
Q 2822 3125 2822 3475 
Q 2822 3834 2567 4026 
Q 2313 4219 1838 4219 
Q 1578 4219 1281 4162 
Q 984 4106 628 3988 
L 628 4550 
Q 988 4650 1302 4700 
Q 1616 4750 1894 4750 
Q 2613 4750 3031 4423 
Q 3450 4097 3450 3541 
Q 3450 3153 3228 2886 
Q 3006 2619 2597 2516 
z
" transform="scale(0.015625)"/>
       </defs>
       <use xlink:href="#DejaVuSans-36"/>
       <use xlink:href="#DejaVuSans-2e" x="63.623047"/>
       <use xlink:href="#DejaVuSans-38" x="95.410156"/>
       <use xlink:href="#DejaVuSans-33" x="159.033203"/>
      </g>
     </g>
    </g>
    <g id="xtick_3">
     <g id="line2d_5">
      <path d="M 164.920561 384.48 
L 164.920561 51.84 
" clip-path="url(#pf9f3129dfa)" style="fill: none; stroke: #b0b0b0; stroke-width: 0.8; stroke-linecap: square"/>
     </g>
     <g id="line2d_6">
      <g>
       <use xlink:href="#mca27085516" x="164.920561" y="384.48" style="stroke: #000000; stroke-width: 0.8"/>
      </g>
     </g>
     <g id="text_3">
      <!-- 13.5 -->
      <g transform="translate(153.787749 399.078438) scale(0.1 -0.1)">
       <defs>
        <path id="DejaVuSans-35" d="M 691 4666 
L 3169 4666 
L 3169 4134 
L 1269 4134 
L 1269 2991 
Q 1406 3038 1543 3061 
Q 1681 3084 1819 3084 
Q 2600 3084 3056 2656 
Q 3513 2228 3513 1497 
Q 3513 744 3044 326 
Q 2575 -91 1722 -91 
Q 1428 -91 1123 -41 
Q 819 9 494 109 
L 494 744 
Q 775 591 1075 516 
Q 1375 441 1709 441 
Q 2250 441 2565 725 
Q 2881 1009 2881 1497 
Q 2881 1984 2565 2268 
Q 2250 2553 1709 2553 
Q 1456 2553 1204 2497 
Q 953 2441 691 2322 
L 691 4666 
z
" transform="scale(0.015625)"/>
       </defs>
       <use xlink:href="#DejaVuSans-31"/>
       <use xlink:href="#DejaVuSans-33" x="63.623047"/>
       <use xlink:href="#DejaVuSans-2e" x="127.246094"/>
       <use xlink:href="#DejaVuSans-35" x="159.033203"/>
      </g>
     </g>
    </g>
    <g id="xtick_4">
     <g id="line2d_7">
      <path d="M 201.235387 384.48 
L 201.235387 51.84 
" clip-path="url(#pf9f3129dfa)" style="fill: none; stroke: #b0b0b0; stroke-width: 0.8; stroke-linecap: square"/>
     </g>
     <g id="line2d_8">
      <g>
       <use xlink:href="#mca27085516" x="201.235387" y="384.48" style="stroke: #000000; stroke-width: 0.8"/>
      </g>
     </g>
     <g id="text_4">
      <!-- 20.17 -->
      <g transform="translate(186.921325 399.078438) scale(0.1 -0.1)">
       <defs>
        <path id="DejaVuSans-32" d="M 1228 531 
L 3431 531 
L 3431 0 
L 469 0 
L 469 531 
Q 828 903 1448 1529 
Q 2069 2156 2228 2338 
Q 2531 2678 2651 2914 
Q 2772 3150 2772 3378 
Q 2772 3750 2511 3984 
Q 2250 4219 1831 4219 
Q 1534 4219 1204 4116 
Q 875 4013 500 3803 
L 500 4441 
Q 881 4594 1212 4672 
Q 1544 4750 1819 4750 
Q 2544 4750 2975 4387 
Q 3406 4025 3406 3419 
Q 3406 3131 3298 2873 
Q 3191 2616 2906 2266 
Q 2828 2175 2409 1742 
Q 1991 1309 1228 531 
z
" transform="scale(0.015625)"/>
       </defs>
       <use xlink:href="#DejaVuSans-32"/>
       <use xlink:href="#DejaVuSans-30" x="63.623047"/>
       <use xlink:href="#DejaVuSans-2e" x="127.246094"/>
       <use xlink:href="#DejaVuSans-31" x="159.033203"/>
       <use xlink:href="#DejaVuSans-37" x="222.65625"/>
      </g>
     </g>
    </g>
    <g id="xtick_5">
     <g id="line2d_9">
      <path d="M 237.550214 384.48 
L 237.550214 51.84 
" clip-path="url(#pf9f3129dfa)" style="fill: none; stroke: #b0b0b0; stroke-width: 0.8; stroke-linecap: square"/>
     </g>
     <g id="line2d_10">
      <g>
       <use xlink:href="#mca27085516" x="237.550214" y="384.48" style="stroke: #000000; stroke-width: 0.8"/>
      </g>
     </g>
     <g id="text_5">
      <!-- 26.83 -->
      <g transform="translate(223.236151 399.078438) scale(0.1 -0.1)">
       <use xlink:href="#DejaVuSans-32"/>
       <use xlink:href="#DejaVuSans-36" x="63.623047"/>
       <use xlink:href="#DejaVuSans-2e" x="127.246094"/>
       <use xlink:href="#DejaVuSans-38" x="159.033203"/>
       <use xlink:href="#DejaVuSans-33" x="222.65625"/>
      </g>
     </g>
    </g>
    <g id="xtick_6">
     <g id="line2d_11">
      <path d="M 273.86504 384.48 
L 273.86504 51.84 
" clip-path="url(#pf9f3129dfa)" style="fill: none; stroke: #b0b0b0; stroke-width: 0.8; stroke-linecap: square"/>
     </g>
     <g id="line2d_12">
      <g>
       <use xlink:href="#mca27085516" x="273.86504" y="384.48" style="stroke: #000000; stroke-width: 0.8"/>
      </g>
     </g>
     <g id="text_6">
      <!-- 33.5 -->
      <g transform="translate(262.732227 399.078438) scale(0.1 -0.1)">
       <use xlink:href="#DejaVuSans-33"/>
       <use xlink:href="#DejaVuSans-33" x="63.623047"/>
       <use xlink:href="#DejaVuSans-2e" x="127.246094"/>
       <use xlink:href="#DejaVuSans-35" x="159.033203"/>
      </g>
     </g>
    </g>
    <g id="xtick_7">
     <g id="line2d_13">
      <path d="M 310.179866 384.48 
L 310.179866 51.84 
" clip-path="url(#pf9f3129dfa)" style="fill: none; stroke: #b0b0b0; stroke-width: 0.8; stroke-linecap: square"/>
     </g>
     <g id="line2d_14">
      <g>
       <use xlink:href="#mca27085516" x="310.179866" y="384.48" style="stroke: #000000; stroke-width: 0.8"/>
      </g>
     </g>
     <g id="text_7">
      <!-- 40.17 -->
      <g transform="translate(295.865803 399.078438) scale(0.1 -0.1)">
       <defs>
        <path id="DejaVuSans-34" d="M 2419 4116 
L 825 1625 
L 2419 1625 
L 2419 4116 
z
M 2253 4666 
L 3047 4666 
L 3047 1625 
L 3713 1625 
L 3713 1100 
L 3047 1100 
L 3047 0 
L 2419 0 
L 2419 1100 
L 313 1100 
L 313 1709 
L 2253 4666 
z
" transform="scale(0.015625)"/>
       </defs>
       <use xlink:href="#DejaVuSans-34"/>
       <use xlink:href="#DejaVuSans-30" x="63.623047"/>
       <use xlink:href="#DejaVuSans-2e" x="127.246094"/>
       <use xlink:href="#DejaVuSans-31" x="159.033203"/>
       <use xlink:href="#DejaVuSans-37" x="222.65625"/>
      </g>
     </g>
    </g>
    <g id="xtick_8">
     <g id="line2d_15">
      <path d="M 346.494692 384.48 
L 346.494692 51.84 
" clip-path="url(#pf9f3129dfa)" style="fill: none; stroke: #b0b0b0; stroke-width: 0.8; stroke-linecap: square"/>
     </g>
     <g id="line2d_16">
      <g>
       <use xlink:href="#mca27085516" x="346.494692" y="384.48" style="stroke: #000000; stroke-width: 0.8"/>
      </g>
     </g>
     <g id="text_8">
      <!-- 46.83 -->
      <g transform="translate(332.180629 399.078438) scale(0.1 -0.1)">
       <use xlink:href="#DejaVuSans-34"/>
       <use xlink:href="#DejaVuSans-36" x="63.623047"/>
       <use xlink:href="#DejaVuSans-2e" x="127.246094"/>
       <use xlink:href="#DejaVuSans-38" x="159.033203"/>
       <use xlink:href="#DejaVuSans-33" x="222.65625"/>
      </g>
     </g>
    </g>
    <g id="xtick_9">
     <g id="line2d_17">
      <path d="M 382.809518 384.48 
L 382.809518 51.84 
" clip-path="url(#pf9f3129dfa)" style="fill: none; stroke: #b0b0b0; stroke-width: 0.8; stroke-linecap: square"/>
     </g>
     <g id="line2d_18">
      <g>
       <use xlink:href="#mca27085516" x="382.809518" y="384.48" style="stroke: #000000; stroke-width: 0.8"/>
      </g>
     </g>
     <g id="text_9">
      <!-- 53.5 -->
      <g transform="translate(371.676705 399.078438) scale(0.1 -0.1)">
       <use xlink:href="#DejaVuSans-35"/>
       <use xlink:href="#DejaVuSans-33" x="63.623047"/>
       <use xlink:href="#DejaVuSans-2e" x="127.246094"/>
       <use xlink:href="#DejaVuSans-35" x="159.033203"/>
      </g>
     </g>
    </g>
    <g id="xtick_10">
     <g id="line2d_19">
      <path d="M 419.124344 384.48 
L 419.124344 51.84 
" clip-path="url(#pf9f3129dfa)" style="fill: none; stroke: #b0b0b0; stroke-width: 0.8; stroke-linecap: square"/>
     </g>
     <g id="line2d_20">
      <g>
       <use xlink:href="#mca27085516" x="419.124344" y="384.48" style="stroke: #000000; stroke-width: 0.8"/>
      </g>
     </g>
     <g id="text_10">
      <!-- 60.17 -->
      <g transform="translate(404.810282 399.078438) scale(0.1 -0.1)">
       <use xlink:href="#DejaVuSans-36"/>
       <use xlink:href="#DejaVuSans-30" x="63.623047"/>
       <use xlink:href="#DejaVuSans-2e" x="127.246094"/>
       <use xlink:href="#DejaVuSans-31" x="159.033203"/>
       <use xlink:href="#DejaVuSans-37" x="222.65625"/>
      </g>
     </g>
    </g>
    <g id="xtick_11">
     <g id="line2d_21">
      <path d="M 455.43917 384.48 
L 455.43917 51.84 
" clip-path="url(#pf9f3129dfa)" style="fill: none; stroke: #b0b0b0; stroke-width: 0.8; stroke-linecap: square"/>
     </g>
     <g id="line2d_22">
      <g>
       <use xlink:href="#mca27085516" x="455.43917" y="384.48" style="stroke: #000000; stroke-width: 0.8"/>
      </g>
     </g>
     <g id="text_11">
      <!-- 66.83 -->
      <g transform="translate(441.125108 399.078438) scale(0.1 -0.1)">
       <use xlink:href="#DejaVuSans-36"/>
       <use xlink:href="#DejaVuSans-36" x="63.623047"/>
       <use xlink:href="#DejaVuSans-2e" x="127.246094"/>
       <use xlink:href="#DejaVuSans-38" x="159.033203"/>
       <use xlink:href="#DejaVuSans-33" x="222.65625"/>
      </g>
     </g>
    </g>
    <g id="xtick_12">
     <g id="line2d_23">
      <path d="M 491.753996 384.48 
L 491.753996 51.84 
" clip-path="url(#pf9f3129dfa)" style="fill: none; stroke: #b0b0b0; stroke-width: 0.8; stroke-linecap: square"/>
     </g>
     <g id="line2d_24">
      <g>
       <use xlink:href="#mca27085516" x="491.753996" y="384.48" style="stroke: #000000; stroke-width: 0.8"/>
      </g>
     </g>
     <g id="text_12">
      <!-- 73.5 -->
      <g transform="translate(480.621184 399.078438) scale(0.1 -0.1)">
       <use xlink:href="#DejaVuSans-37"/>
       <use xlink:href="#DejaVuSans-33" x="63.623047"/>
       <use xlink:href="#DejaVuSans-2e" x="127.246094"/>
       <use xlink:href="#DejaVuSans-35" x="159.033203"/>
      </g>
     </g>
    </g>
    <g id="text_13">
     <!-- time in hours [h] -->
     <g transform="translate(253.451562 412.756563) scale(0.1 -0.1)">
      <defs>
       <path id="DejaVuSans-74" d="M 1172 4494 
L 1172 3500 
L 2356 3500 
L 2356 3053 
L 1172 3053 
L 1172 1153 
Q 1172 725 1289 603 
Q 1406 481 1766 481 
L 2356 481 
L 2356 0 
L 1766 0 
Q 1100 0 847 248 
Q 594 497 594 1153 
L 594 3053 
L 172 3053 
L 172 3500 
L 594 3500 
L 594 4494 
L 1172 4494 
z
" transform="scale(0.015625)"/>
       <path id="DejaVuSans-69" d="M 603 3500 
L 1178 3500 
L 1178 0 
L 603 0 
L 603 3500 
z
M 603 4863 
L 1178 4863 
L 1178 4134 
L 603 4134 
L 603 4863 
z
" transform="scale(0.015625)"/>
       <path id="DejaVuSans-6d" d="M 3328 2828 
Q 3544 3216 3844 3400 
Q 4144 3584 4550 3584 
Q 5097 3584 5394 3201 
Q 5691 2819 5691 2113 
L 5691 0 
L 5113 0 
L 5113 2094 
Q 5113 2597 4934 2840 
Q 4756 3084 4391 3084 
Q 3944 3084 3684 2787 
Q 3425 2491 3425 1978 
L 3425 0 
L 2847 0 
L 2847 2094 
Q 2847 2600 2669 2842 
Q 2491 3084 2119 3084 
Q 1678 3084 1418 2786 
Q 1159 2488 1159 1978 
L 1159 0 
L 581 0 
L 581 3500 
L 1159 3500 
L 1159 2956 
Q 1356 3278 1631 3431 
Q 1906 3584 2284 3584 
Q 2666 3584 2933 3390 
Q 3200 3197 3328 2828 
z
" transform="scale(0.015625)"/>
       <path id="DejaVuSans-65" d="M 3597 1894 
L 3597 1613 
L 953 1613 
Q 991 1019 1311 708 
Q 1631 397 2203 397 
Q 2534 397 2845 478 
Q 3156 559 3463 722 
L 3463 178 
Q 3153 47 2828 -22 
Q 2503 -91 2169 -91 
Q 1331 -91 842 396 
Q 353 884 353 1716 
Q 353 2575 817 3079 
Q 1281 3584 2069 3584 
Q 2775 3584 3186 3129 
Q 3597 2675 3597 1894 
z
M 3022 2063 
Q 3016 2534 2758 2815 
Q 2500 3097 2075 3097 
Q 1594 3097 1305 2825 
Q 1016 2553 972 2059 
L 3022 2063 
z
" transform="scale(0.015625)"/>
       <path id="DejaVuSans-20" transform="scale(0.015625)"/>
       <path id="DejaVuSans-6e" d="M 3513 2113 
L 3513 0 
L 2938 0 
L 2938 2094 
Q 2938 2591 2744 2837 
Q 2550 3084 2163 3084 
Q 1697 3084 1428 2787 
Q 1159 2491 1159 1978 
L 1159 0 
L 581 0 
L 581 3500 
L 1159 3500 
L 1159 2956 
Q 1366 3272 1645 3428 
Q 1925 3584 2291 3584 
Q 2894 3584 3203 3211 
Q 3513 2838 3513 2113 
z
" transform="scale(0.015625)"/>
       <path id="DejaVuSans-68" d="M 3513 2113 
L 3513 0 
L 2938 0 
L 2938 2094 
Q 2938 2591 2744 2837 
Q 2550 3084 2163 3084 
Q 1697 3084 1428 2787 
Q 1159 2491 1159 1978 
L 1159 0 
L 581 0 
L 581 4863 
L 1159 4863 
L 1159 2956 
Q 1366 3272 1645 3428 
Q 1925 3584 2291 3584 
Q 2894 3584 3203 3211 
Q 3513 2838 3513 2113 
z
" transform="scale(0.015625)"/>
       <path id="DejaVuSans-6f" d="M 1959 3097 
Q 1497 3097 1228 2736 
Q 959 2375 959 1747 
Q 959 1119 1226 758 
Q 1494 397 1959 397 
Q 2419 397 2687 759 
Q 2956 1122 2956 1747 
Q 2956 2369 2687 2733 
Q 2419 3097 1959 3097 
z
M 1959 3584 
Q 2709 3584 3137 3096 
Q 3566 2609 3566 1747 
Q 3566 888 3137 398 
Q 2709 -91 1959 -91 
Q 1206 -91 779 398 
Q 353 888 353 1747 
Q 353 2609 779 3096 
Q 1206 3584 1959 3584 
z
" transform="scale(0.015625)"/>
       <path id="DejaVuSans-75" d="M 544 1381 
L 544 3500 
L 1119 3500 
L 1119 1403 
Q 1119 906 1312 657 
Q 1506 409 1894 409 
Q 2359 409 2629 706 
Q 2900 1003 2900 1516 
L 2900 3500 
L 3475 3500 
L 3475 0 
L 2900 0 
L 2900 538 
Q 2691 219 2414 64 
Q 2138 -91 1772 -91 
Q 1169 -91 856 284 
Q 544 659 544 1381 
z
M 1991 3584 
L 1991 3584 
z
" transform="scale(0.015625)"/>
       <path id="DejaVuSans-72" d="M 2631 2963 
Q 2534 3019 2420 3045 
Q 2306 3072 2169 3072 
Q 1681 3072 1420 2755 
Q 1159 2438 1159 1844 
L 1159 0 
L 581 0 
L 581 3500 
L 1159 3500 
L 1159 2956 
Q 1341 3275 1631 3429 
Q 1922 3584 2338 3584 
Q 2397 3584 2469 3576 
Q 2541 3569 2628 3553 
L 2631 2963 
z
" transform="scale(0.015625)"/>
       <path id="DejaVuSans-73" d="M 2834 3397 
L 2834 2853 
Q 2591 2978 2328 3040 
Q 2066 3103 1784 3103 
Q 1356 3103 1142 2972 
Q 928 2841 928 2578 
Q 928 2378 1081 2264 
Q 1234 2150 1697 2047 
L 1894 2003 
Q 2506 1872 2764 1633 
Q 3022 1394 3022 966 
Q 3022 478 2636 193 
Q 2250 -91 1575 -91 
Q 1294 -91 989 -36 
Q 684 19 347 128 
L 347 722 
Q 666 556 975 473 
Q 1284 391 1588 391 
Q 1994 391 2212 530 
Q 2431 669 2431 922 
Q 2431 1156 2273 1281 
Q 2116 1406 1581 1522 
L 1381 1569 
Q 847 1681 609 1914 
Q 372 2147 372 2553 
Q 372 3047 722 3315 
Q 1072 3584 1716 3584 
Q 2034 3584 2315 3537 
Q 2597 3491 2834 3397 
z
" transform="scale(0.015625)"/>
       <path id="DejaVuSans-5b" d="M 550 4863 
L 1875 4863 
L 1875 4416 
L 1125 4416 
L 1125 -397 
L 1875 -397 
L 1875 -844 
L 550 -844 
L 550 4863 
z
" transform="scale(0.015625)"/>
       <path id="DejaVuSans-5d" d="M 1947 4863 
L 1947 -844 
L 622 -844 
L 622 -397 
L 1369 -397 
L 1369 4416 
L 622 4416 
L 622 4863 
L 1947 4863 
z
" transform="scale(0.015625)"/>
      </defs>
      <use xlink:href="#DejaVuSans-74"/>
      <use xlink:href="#DejaVuSans-69" x="39.208984"/>
      <use xlink:href="#DejaVuSans-6d" x="66.992188"/>
      <use xlink:href="#DejaVuSans-65" x="164.404297"/>
      <use xlink:href="#DejaVuSans-20" x="225.927734"/>
      <use xlink:href="#DejaVuSans-69" x="257.714844"/>
      <use xlink:href="#DejaVuSans-6e" x="285.498047"/>
      <use xlink:href="#DejaVuSans-20" x="348.876953"/>
      <use xlink:href="#DejaVuSans-68" x="380.664062"/>
      <use xlink:href="#DejaVuSans-6f" x="444.042969"/>
      <use xlink:href="#DejaVuSans-75" x="505.224609"/>
      <use xlink:href="#DejaVuSans-72" x="568.603516"/>
      <use xlink:href="#DejaVuSans-73" x="609.716797"/>
      <use xlink:href="#DejaVuSans-20" x="661.816406"/>
      <use xlink:href="#DejaVuSans-5b" x="693.603516"/>
      <use xlink:href="#DejaVuSans-68" x="732.617188"/>
      <use xlink:href="#DejaVuSans-5d" x="795.996094"/>
     </g>
    </g>
   </g>
   <g id="matplotlib.axis_2">
    <g id="ytick_1">
     <g id="line2d_25">
      <path d="M 72 363.69 
L 518.4 363.69 
" clip-path="url(#pf9f3129dfa)" style="fill: none; stroke: #b0b0b0; stroke-width: 0.8; stroke-linecap: square"/>
     </g>
     <g id="line2d_26">
      <defs>
       <path id="m9eecb5ed03" d="M 0 0 
L -3.5 0 
" style="stroke: #000000; stroke-width: 0.8"/>
      </defs>
      <g>
       <use xlink:href="#m9eecb5ed03" x="72" y="363.69" style="stroke: #000000; stroke-width: 0.8"/>
      </g>
     </g>
     <g id="text_14">
      <!-- 0.0 -->
      <g transform="translate(49.096875 367.489219) scale(0.1 -0.1)">
       <use xlink:href="#DejaVuSans-30"/>
       <use xlink:href="#DejaVuSans-2e" x="63.623047"/>
       <use xlink:href="#DejaVuSans-30" x="95.410156"/>
      </g>
     </g>
    </g>
    <g id="ytick_2">
     <g id="line2d_27">
      <path d="M 72 311.715 
L 518.4 311.715 
" clip-path="url(#pf9f3129dfa)" style="fill: none; stroke: #b0b0b0; stroke-width: 0.8; stroke-linecap: square"/>
     </g>
     <g id="line2d_28">
      <g>
       <use xlink:href="#m9eecb5ed03" x="72" y="311.715" style="stroke: #000000; stroke-width: 0.8"/>
      </g>
     </g>
     <g id="text_15">
      <!-- 0.5 -->
      <g transform="translate(49.096875 315.514219) scale(0.1 -0.1)">
       <use xlink:href="#DejaVuSans-30"/>
       <use xlink:href="#DejaVuSans-2e" x="63.623047"/>
       <use xlink:href="#DejaVuSans-35" x="95.410156"/>
      </g>
     </g>
    </g>
    <g id="ytick_3">
     <g id="line2d_29">
      <path d="M 72 259.74 
L 518.4 259.74 
" clip-path="url(#pf9f3129dfa)" style="fill: none; stroke: #b0b0b0; stroke-width: 0.8; stroke-linecap: square"/>
     </g>
     <g id="line2d_30">
      <g>
       <use xlink:href="#m9eecb5ed03" x="72" y="259.74" style="stroke: #000000; stroke-width: 0.8"/>
      </g>
     </g>
     <g id="text_16">
      <!-- 1.0 -->
      <g transform="translate(49.096875 263.539219) scale(0.1 -0.1)">
       <use xlink:href="#DejaVuSans-31"/>
       <use xlink:href="#DejaVuSans-2e" x="63.623047"/>
       <use xlink:href="#DejaVuSans-30" x="95.410156"/>
      </g>
     </g>
    </g>
    <g id="ytick_4">
     <g id="line2d_31">
      <path d="M 72 207.765 
L 518.4 207.765 
" clip-path="url(#pf9f3129dfa)" style="fill: none; stroke: #b0b0b0; stroke-width: 0.8; stroke-linecap: square"/>
     </g>
     <g id="line2d_32">
      <g>
       <use xlink:href="#m9eecb5ed03" x="72" y="207.765" style="stroke: #000000; stroke-width: 0.8"/>
      </g>
     </g>
     <g id="text_17">
      <!-- 1.5 -->
      <g transform="translate(49.096875 211.564219) scale(0.1 -0.1)">
       <use xlink:href="#DejaVuSans-31"/>
       <use xlink:href="#DejaVuSans-2e" x="63.623047"/>
       <use xlink:href="#DejaVuSans-35" x="95.410156"/>
      </g>
     </g>
    </g>
    <g id="ytick_5">
     <g id="line2d_33">
      <path d="M 72 155.79 
L 518.4 155.79 
" clip-path="url(#pf9f3129dfa)" style="fill: none; stroke: #b0b0b0; stroke-width: 0.8; stroke-linecap: square"/>
     </g>
     <g id="line2d_34">
      <g>
       <use xlink:href="#m9eecb5ed03" x="72" y="155.79" style="stroke: #000000; stroke-width: 0.8"/>
      </g>
     </g>
     <g id="text_18">
      <!-- 2.0 -->
      <g transform="translate(49.096875 159.589219) scale(0.1 -0.1)">
       <use xlink:href="#DejaVuSans-32"/>
       <use xlink:href="#DejaVuSans-2e" x="63.623047"/>
       <use xlink:href="#DejaVuSans-30" x="95.410156"/>
      </g>
     </g>
    </g>
    <g id="ytick_6">
     <g id="line2d_35">
      <path d="M 72 103.815 
L 518.4 103.815 
" clip-path="url(#pf9f3129dfa)" style="fill: none; stroke: #b0b0b0; stroke-width: 0.8; stroke-linecap: square"/>
     </g>
     <g id="line2d_36">
      <g>
       <use xlink:href="#m9eecb5ed03" x="72" y="103.815" style="stroke: #000000; stroke-width: 0.8"/>
      </g>
     </g>
     <g id="text_19">
      <!-- 2.5 -->
      <g transform="translate(49.096875 107.614219) scale(0.1 -0.1)">
       <use xlink:href="#DejaVuSans-32"/>
       <use xlink:href="#DejaVuSans-2e" x="63.623047"/>
       <use xlink:href="#DejaVuSans-35" x="95.410156"/>
      </g>
     </g>
    </g>
    <g id="ytick_7">
     <g id="line2d_37">
      <path d="M 72 51.84 
L 518.4 51.84 
" clip-path="url(#pf9f3129dfa)" style="fill: none; stroke: #b0b0b0; stroke-width: 0.8; stroke-linecap: square"/>
     </g>
     <g id="line2d_38">
      <g>
       <use xlink:href="#m9eecb5ed03" x="72" y="51.84" style="stroke: #000000; stroke-width: 0.8"/>
      </g>
     </g>
     <g id="text_20">
      <!-- 3.0 -->
      <g transform="translate(49.096875 55.639219) scale(0.1 -0.1)">
       <use xlink:href="#DejaVuSans-33"/>
       <use xlink:href="#DejaVuSans-2e" x="63.623047"/>
       <use xlink:href="#DejaVuSans-30" x="95.410156"/>
      </g>
     </g>
    </g>
    <g id="text_21">
     <!-- blank corrected OD600 -->
     <g transform="translate(43.017187 276.115469) rotate(-90) scale(0.1 -0.1)">
      <defs>
       <path id="DejaVuSans-62" d="M 3116 1747 
Q 3116 2381 2855 2742 
Q 2594 3103 2138 3103 
Q 1681 3103 1420 2742 
Q 1159 2381 1159 1747 
Q 1159 1113 1420 752 
Q 1681 391 2138 391 
Q 2594 391 2855 752 
Q 3116 1113 3116 1747 
z
M 1159 2969 
Q 1341 3281 1617 3432 
Q 1894 3584 2278 3584 
Q 2916 3584 3314 3078 
Q 3713 2572 3713 1747 
Q 3713 922 3314 415 
Q 2916 -91 2278 -91 
Q 1894 -91 1617 61 
Q 1341 213 1159 525 
L 1159 0 
L 581 0 
L 581 4863 
L 1159 4863 
L 1159 2969 
z
" transform="scale(0.015625)"/>
       <path id="DejaVuSans-6c" d="M 603 4863 
L 1178 4863 
L 1178 0 
L 603 0 
L 603 4863 
z
" transform="scale(0.015625)"/>
       <path id="DejaVuSans-61" d="M 2194 1759 
Q 1497 1759 1228 1600 
Q 959 1441 959 1056 
Q 959 750 1161 570 
Q 1363 391 1709 391 
Q 2188 391 2477 730 
Q 2766 1069 2766 1631 
L 2766 1759 
L 2194 1759 
z
M 3341 1997 
L 3341 0 
L 2766 0 
L 2766 531 
Q 2569 213 2275 61 
Q 1981 -91 1556 -91 
Q 1019 -91 701 211 
Q 384 513 384 1019 
Q 384 1609 779 1909 
Q 1175 2209 1959 2209 
L 2766 2209 
L 2766 2266 
Q 2766 2663 2505 2880 
Q 2244 3097 1772 3097 
Q 1472 3097 1187 3025 
Q 903 2953 641 2809 
L 641 3341 
Q 956 3463 1253 3523 
Q 1550 3584 1831 3584 
Q 2591 3584 2966 3190 
Q 3341 2797 3341 1997 
z
" transform="scale(0.015625)"/>
       <path id="DejaVuSans-6b" d="M 581 4863 
L 1159 4863 
L 1159 1991 
L 2875 3500 
L 3609 3500 
L 1753 1863 
L 3688 0 
L 2938 0 
L 1159 1709 
L 1159 0 
L 581 0 
L 581 4863 
z
" transform="scale(0.015625)"/>
       <path id="DejaVuSans-63" d="M 3122 3366 
L 3122 2828 
Q 2878 2963 2633 3030 
Q 2388 3097 2138 3097 
Q 1578 3097 1268 2742 
Q 959 2388 959 1747 
Q 959 1106 1268 751 
Q 1578 397 2138 397 
Q 2388 397 2633 464 
Q 2878 531 3122 666 
L 3122 134 
Q 2881 22 2623 -34 
Q 2366 -91 2075 -91 
Q 1284 -91 818 406 
Q 353 903 353 1747 
Q 353 2603 823 3093 
Q 1294 3584 2113 3584 
Q 2378 3584 2631 3529 
Q 2884 3475 3122 3366 
z
" transform="scale(0.015625)"/>
       <path id="DejaVuSans-64" d="M 2906 2969 
L 2906 4863 
L 3481 4863 
L 3481 0 
L 2906 0 
L 2906 525 
Q 2725 213 2448 61 
Q 2172 -91 1784 -91 
Q 1150 -91 751 415 
Q 353 922 353 1747 
Q 353 2572 751 3078 
Q 1150 3584 1784 3584 
Q 2172 3584 2448 3432 
Q 2725 3281 2906 2969 
z
M 947 1747 
Q 947 1113 1208 752 
Q 1469 391 1925 391 
Q 2381 391 2643 752 
Q 2906 1113 2906 1747 
Q 2906 2381 2643 2742 
Q 2381 3103 1925 3103 
Q 1469 3103 1208 2742 
Q 947 2381 947 1747 
z
" transform="scale(0.015625)"/>
       <path id="DejaVuSans-4f" d="M 2522 4238 
Q 1834 4238 1429 3725 
Q 1025 3213 1025 2328 
Q 1025 1447 1429 934 
Q 1834 422 2522 422 
Q 3209 422 3611 934 
Q 4013 1447 4013 2328 
Q 4013 3213 3611 3725 
Q 3209 4238 2522 4238 
z
M 2522 4750 
Q 3503 4750 4090 4092 
Q 4678 3434 4678 2328 
Q 4678 1225 4090 567 
Q 3503 -91 2522 -91 
Q 1538 -91 948 565 
Q 359 1222 359 2328 
Q 359 3434 948 4092 
Q 1538 4750 2522 4750 
z
" transform="scale(0.015625)"/>
       <path id="DejaVuSans-44" d="M 1259 4147 
L 1259 519 
L 2022 519 
Q 2988 519 3436 956 
Q 3884 1394 3884 2338 
Q 3884 3275 3436 3711 
Q 2988 4147 2022 4147 
L 1259 4147 
z
M 628 4666 
L 1925 4666 
Q 3281 4666 3915 4102 
Q 4550 3538 4550 2338 
Q 4550 1131 3912 565 
Q 3275 0 1925 0 
L 628 0 
L 628 4666 
z
" transform="scale(0.015625)"/>
      </defs>
      <use xlink:href="#DejaVuSans-62"/>
      <use xlink:href="#DejaVuSans-6c" x="63.476562"/>
      <use xlink:href="#DejaVuSans-61" x="91.259766"/>
      <use xlink:href="#DejaVuSans-6e" x="152.539062"/>
      <use xlink:href="#DejaVuSans-6b" x="215.917969"/>
      <use xlink:href="#DejaVuSans-20" x="273.828125"/>
      <use xlink:href="#DejaVuSans-63" x="305.615234"/>
      <use xlink:href="#DejaVuSans-6f" x="360.595703"/>
      <use xlink:href="#DejaVuSans-72" x="421.777344"/>
      <use xlink:href="#DejaVuSans-72" x="461.140625"/>
      <use xlink:href="#DejaVuSans-65" x="500.003906"/>
      <use xlink:href="#DejaVuSans-63" x="561.527344"/>
      <use xlink:href="#DejaVuSans-74" x="616.507812"/>
      <use xlink:href="#DejaVuSans-65" x="655.716797"/>
      <use xlink:href="#DejaVuSans-64" x="717.240234"/>
      <use xlink:href="#DejaVuSans-20" x="780.716797"/>
      <use xlink:href="#DejaVuSans-4f" x="812.503906"/>
      <use xlink:href="#DejaVuSans-44" x="891.214844"/>
      <use xlink:href="#DejaVuSans-36" x="968.216797"/>
      <use xlink:href="#DejaVuSans-30" x="1031.839844"/>
      <use xlink:href="#DejaVuSans-30" x="1095.462891"/>
     </g>
    </g>
   </g>
   <g id="line2d_39">
    <path d="M 92.290909 363.026799 
L 93.19878 368.120349 
L 94.10665 368.120349 
L 95.014521 368.328249 
L 96.830262 368.432199 
L 97.738133 368.120349 
L 98.646004 368.328249 
L 99.553874 368.120349 
L 100.461745 368.224299 
L 102.277486 367.912449 
L 103.185357 368.120349 
L 106.81684 368.016399 
L 107.72471 368.328249 
L 108.632581 368.120349 
L 109.540451 368.224299 
L 112.264063 368.016399 
L 114.079805 368.328249 
L 115.895546 368.328249 
L 116.803417 368.016399 
L 118.619158 368.328249 
L 119.527029 368.016399 
L 121.34277 368.224299 
L 124.066382 366.768999 
L 124.974253 366.353199 
L 126.789994 366.145299 
L 127.697865 366.353199 
L 129.513606 366.249249 
L 131.329347 366.249249 
L 133.145088 366.768999 
L 134.052959 366.665049 
L 134.96083 366.976899 
L 135.8687 366.457149 
L 136.776571 366.353199 
L 137.684442 365.729499 
L 138.592312 365.417649 
L 139.500183 365.313699 
L 140.408054 364.482099 
L 142.223795 364.170249 
L 144.039536 364.482099 
L 146.763148 364.482099 
L 147.671019 364.689999 
L 149.48676 364.586049 
L 150.394631 364.793949 
L 151.302502 364.689999 
L 152.210372 363.962349 
L 153.118243 363.650499 
L 154.933984 362.610999 
L 157.657596 361.675449 
L 158.565467 361.779399 
L 159.473337 361.467549 
L 160.381208 361.883349 
L 161.289079 361.883349 
L 162.196949 361.467549 
L 163.10482 361.571499 
L 164.012691 361.987299 
L 164.920561 361.987299 
L 166.736303 361.571499 
L 167.644173 361.155699 
L 169.459915 360.635949 
L 171.275656 359.908299 
L 172.183527 359.076699 
L 173.999268 358.349049 
L 174.907138 358.660899 
L 175.815009 357.933249 
L 176.72288 358.037199 
L 177.63075 357.933249 
L 178.538621 358.037199 
L 179.446492 357.829299 
L 181.262233 357.829299 
L 182.170104 357.413499 
L 183.077974 357.725349 
L 183.985845 357.829299 
L 184.893716 357.517449 
L 185.801586 357.517449 
L 186.709457 357.309549 
L 187.617328 357.621399 
L 189.433069 356.789799 
L 191.24881 356.581899 
L 192.156681 356.685849 
L 193.064552 356.373999 
L 193.972422 356.997699 
L 194.880293 356.270049 
L 195.788164 355.750299 
L 197.603905 355.334499 
L 199.419646 353.983149 
L 200.327517 353.463399 
L 201.235387 352.735749 
L 205.774741 350.760699 
L 206.682611 350.864649 
L 207.590482 350.552799 
L 208.498353 350.552799 
L 210.314094 350.136999 
L 211.221965 349.617249 
L 212.129835 349.825149 
L 213.037706 349.409349 
L 213.945577 349.513299 
L 214.853447 348.785649 
L 215.761318 348.369849 
L 216.669189 347.642199 
L 217.577059 347.434299 
L 219.3928 345.978999 
L 221.208542 344.835549 
L 222.116412 343.899999 
L 223.024283 343.796049 
L 224.840024 342.860499 
L 225.747895 342.652599 
L 226.655766 342.236799 
L 227.563636 342.236799 
L 228.471507 341.820999 
L 229.379378 341.197299 
L 230.287248 341.093349 
L 232.10299 340.365699 
L 233.01086 339.534099 
L 234.826602 338.598549 
L 235.734472 337.870899 
L 236.642343 336.831399 
L 237.550214 335.999799 
L 239.365955 334.648449 
L 240.273826 333.712899 
L 241.181696 333.504999 
L 243.905308 332.049699 
L 244.813179 332.049699 
L 245.721049 331.322049 
L 248.444661 329.866749 
L 249.352532 329.658849 
L 250.260403 329.035149 
L 251.168273 328.203549 
L 252.076144 327.891699 
L 253.891885 326.228499 
L 254.799756 325.085049 
L 258.431239 322.694199 
L 259.339109 322.382349 
L 260.24698 321.758649 
L 262.062721 320.823099 
L 262.970592 320.823099 
L 264.786333 319.471749 
L 265.694204 319.471749 
L 266.602074 319.055949 
L 270.233557 316.041399 
L 271.141428 315.105849 
L 272.049298 314.793999 
L 272.957169 313.858449 
L 273.86504 313.650549 
L 274.77291 312.818949 
L 275.680781 313.130799 
L 276.588652 312.507099 
L 277.496522 312.403149 
L 278.404393 311.987349 
L 280.220134 311.675499 
L 281.128005 311.675499 
L 282.035876 311.363649 
L 282.943746 311.259699 
L 283.851617 310.428099 
L 284.759487 309.804399 
L 285.667358 309.596499 
L 286.575229 308.556999 
L 287.483099 307.933299 
L 288.39097 308.037249 
L 289.298841 306.789849 
L 291.114582 306.477999 
L 292.022453 306.062199 
L 292.930323 305.958249 
L 293.838194 306.270099 
L 294.746065 305.646399 
L 295.653935 305.230599 
L 296.561806 305.334549 
L 297.469677 305.022699 
L 298.377547 305.126649 
L 300.193289 303.567399 
L 301.101159 303.463449 
L 302.00903 302.319999 
L 306.548383 298.681749 
L 307.456254 298.681749 
L 308.364124 298.369899 
L 309.271995 297.850149 
L 310.179866 298.058049 
L 311.087736 296.498799 
L 311.995607 297.642249 
L 312.903478 297.226449 
L 314.719219 296.082999 
L 315.62709 295.979049 
L 316.53496 295.563249 
L 317.442831 294.731649 
L 319.258572 294.211899 
L 321.074314 291.613149 
L 321.982184 292.444749 
L 323.797926 291.924999 
L 324.705796 291.717099 
L 325.613667 291.821049 
L 326.521538 291.509199 
L 327.429408 288.390699 
L 328.337279 290.885499 
L 329.245149 289.949949 
L 330.15302 289.326249 
L 331.060891 288.494649 
L 331.968761 287.455149 
L 332.876632 286.623549 
L 333.784503 286.311699 
L 334.692373 285.480099 
L 335.600244 285.064299 
L 337.415985 283.920849 
L 338.323856 283.920849 
L 339.231727 283.297149 
L 340.139597 283.712949 
L 341.047468 282.153699 
L 341.955339 282.465549 
L 342.863209 281.529999 
L 344.678951 283.089249 
L 345.586821 282.049749 
L 347.402563 281.114199 
L 348.310433 279.139149 
L 349.218304 279.762849 
L 351.034045 279.035199 
L 351.941916 276.332499 
L 352.849786 277.475949 
L 353.757657 276.644349 
L 354.665528 276.124599 
L 355.573398 276.956199 
L 356.481269 275.500899 
L 357.38914 275.500899 
L 358.29701 274.877199 
L 359.204881 274.877199 
L 360.112752 275.189049 
L 361.928493 275.085099 
L 362.836364 274.253499 
L 363.744234 274.669299 
L 364.652105 274.253499 
L 365.559976 274.877199 
L 366.467846 274.253499 
L 367.375717 274.149549 
L 369.191458 272.382399 
L 370.099329 271.654749 
L 371.0072 271.342899 
L 371.91507 271.446849 
L 372.822941 271.342899 
L 373.730811 270.511299 
L 376.454423 269.471799 
L 377.362294 269.055999 
L 378.270165 269.575749 
L 380.993777 268.640199 
L 381.901647 268.848099 
L 382.809518 268.536249 
L 384.625259 268.328349 
L 385.53313 267.704649 
L 386.441001 267.600699 
L 387.348871 266.561199 
L 388.256742 267.080949 
L 389.164613 265.313799 
L 390.072483 265.417749 
L 390.980354 264.274299 
L 391.888225 264.170349 
L 392.796095 265.105899 
L 393.703966 262.922949 
L 394.611836 263.650599 
L 395.519707 263.338749 
L 396.427578 263.234799 
L 397.335448 262.715049 
L 398.243319 262.507149 
L 399.15119 261.467649 
L 400.05906 261.779499 
L 400.966931 262.403199 
L 402.782672 261.363699 
L 403.690543 261.155799 
L 405.506284 261.051849 
L 406.414155 260.532099 
L 408.229896 260.947899 
L 409.137767 260.324199 
L 410.045638 260.116299 
L 410.953508 260.116299 
L 411.861379 259.284699 
L 413.67712 258.557049 
L 414.584991 257.621499 
L 416.400732 257.205699 
L 418.216473 256.270149 
L 419.124344 255.854349 
L 420.940085 255.958299 
L 421.847956 256.374099 
L 422.755827 256.166199 
L 423.663697 257.725449 
L 424.571568 255.438549 
L 425.479439 255.750399 
L 426.387309 255.126699 
L 427.29518 254.814849 
L 428.203051 255.854349 
L 429.110921 254.918799 
L 430.018792 254.814849 
L 430.926663 254.191149 
L 432.742404 254.710899 
L 433.650275 253.671399 
L 434.558145 254.191149 
L 435.466016 253.671399 
L 436.373887 255.230649 
L 437.281757 253.567449 
L 438.189628 252.423999 
L 439.097498 252.735849 
L 440.005369 252.216099 
L 440.91324 253.463499 
L 442.728981 250.137099 
L 443.636852 250.968699 
L 444.544722 250.552899 
L 445.452593 250.760799 
L 446.360464 250.241049 
L 447.268334 251.176599 
L 448.176205 249.721299 
L 449.084076 249.617349 
L 449.991946 249.929199 
L 450.899817 249.409449 
L 451.807688 250.241049 
L 453.623429 249.201549 
L 454.5313 249.097599 
L 456.347041 248.577849 
L 457.254912 249.201549 
L 459.070653 248.785749 
L 459.978523 249.617349 
L 460.886394 248.889699 
L 461.794265 248.889699 
L 462.702135 248.162049 
L 463.610006 247.850199 
L 465.425747 248.785749 
L 466.333618 248.058099 
L 467.241489 248.681799 
L 468.149359 248.162049 
L 469.05723 247.850199 
L 469.965101 248.265999 
L 470.872971 247.954149 
L 471.780842 247.018599 
L 472.688713 246.810699 
L 473.596583 247.122549 
L 474.504454 246.498849 
L 475.412325 247.122549 
L 476.320195 246.083049 
L 477.228066 246.602799 
L 478.135937 246.498849 
L 479.951678 245.355399 
L 480.859549 245.667249 
L 481.767419 246.290949 
L 482.67529 245.459349 
L 483.58316 246.290949 
L 484.491031 245.979099 
L 485.398902 244.835649 
L 486.306772 244.835649 
L 487.214643 244.419849 
L 488.122514 245.251449 
L 489.938255 245.355399 
L 490.846126 245.043549 
L 491.753996 247.122549 
L 492.661867 244.939599 
L 494.477608 244.627749 
L 495.385479 244.939599 
L 496.29335 244.107999 
L 498.109091 244.835649 
L 498.109091 244.835649 
" clip-path="url(#pf9f3129dfa)" style="fill: none; stroke: #0000ff; stroke-opacity: 0.5; stroke-width: 1.5; stroke-linecap: square"/>
   </g>
   <g id="line2d_40">
    <path d="M 92.290909 363.858399 
L 93.19878 368.640099 
L 94.10665 368.640099 
L 95.922392 368.951949 
L 96.830262 368.640099 
L 97.738133 368.640099 
L 98.646004 368.951949 
L 99.553874 368.536149 
L 100.461745 368.640099 
L 101.369616 368.224299 
L 102.277486 368.847999 
L 103.185357 368.536149 
L 104.093228 368.640099 
L 105.001098 368.951949 
L 105.908969 368.432199 
L 107.72471 368.951949 
L 111.356193 368.536149 
L 112.264063 368.744049 
L 113.171934 368.640099 
L 115.895546 368.847999 
L 116.803417 368.536149 
L 117.711287 368.847999 
L 118.619158 368.744049 
L 119.527029 368.224299 
L 120.434899 368.328249 
L 121.34277 368.640099 
L 122.250641 367.808499 
L 123.158511 367.704549 
L 124.066382 367.080849 
L 124.974253 366.976899 
L 126.789994 366.457149 
L 128.605735 366.249249 
L 130.421477 366.457149 
L 131.329347 366.976899 
L 133.145088 367.600599 
L 134.052959 367.600599 
L 134.96083 367.912449 
L 136.776571 367.184799 
L 137.684442 367.080849 
L 138.592312 366.353199 
L 140.408054 365.417649 
L 141.315924 365.313699 
L 142.223795 364.897899 
L 143.131666 365.105799 
L 144.039536 364.793949 
L 144.947407 364.689999 
L 145.855278 364.793949 
L 146.763148 365.105799 
L 147.671019 365.209749 
L 149.48676 365.937399 
L 150.394631 366.145299 
L 151.302502 365.833449 
L 154.933984 363.754449 
L 155.841855 363.442599 
L 156.749725 362.818899 
L 157.657596 362.818899 
L 162.196949 361.883349 
L 163.10482 362.195199 
L 164.012691 362.091249 
L 164.920561 362.299149 
L 165.828432 362.714949 
L 166.736303 362.195199 
L 167.644173 361.883349 
L 168.552044 362.091249 
L 173.091397 360.012249 
L 173.999268 359.804349 
L 175.815009 358.764849 
L 176.72288 358.452999 
L 179.446492 358.037199 
L 180.354362 357.829299 
L 181.262233 357.413499 
L 182.170104 357.517449 
L 183.985845 357.205599 
L 184.893716 357.413499 
L 185.801586 357.101649 
L 189.433069 356.997699 
L 190.34094 356.685849 
L 191.24881 356.997699 
L 192.156681 356.789799 
L 193.064552 356.789799 
L 194.880293 356.477949 
L 195.788164 355.854249 
L 196.696034 355.750299 
L 198.511775 354.606849 
L 200.327517 353.671299 
L 202.143258 352.943649 
L 203.051129 351.904149 
L 203.958999 351.488349 
L 204.86687 351.384399 
L 205.774741 350.656749 
L 206.682611 350.240949 
L 207.590482 350.033049 
L 208.498353 349.513299 
L 210.314094 348.993549 
L 211.221965 348.785649 
L 212.129835 348.161949 
L 213.037706 348.265899 
L 214.853447 347.226399 
L 215.761318 347.122449 
L 218.48493 345.459249 
L 219.3928 344.731599 
L 221.208542 343.796049 
L 222.116412 342.756549 
L 223.024283 342.652599 
L 224.840024 341.093349 
L 225.747895 341.093349 
L 227.563636 339.741999 
L 228.471507 339.222249 
L 229.379378 339.014349 
L 232.10299 337.559049 
L 233.01086 336.727449 
L 233.918731 336.623499 
L 234.826602 335.999799 
L 235.734472 335.064249 
L 238.458084 333.089199 
L 240.273826 331.633899 
L 241.181696 331.218099 
L 245.721049 328.099599 
L 247.536791 327.164049 
L 248.444661 326.436399 
L 250.260403 325.708749 
L 251.168273 324.773199 
L 252.076144 324.253449 
L 252.984015 323.421849 
L 253.891885 323.006049 
L 254.799756 322.174449 
L 255.707627 321.758649 
L 256.615497 321.134949 
L 257.523368 320.095449 
L 260.24698 318.224349 
L 262.062721 317.704599 
L 262.970592 316.872999 
L 263.878462 316.249299 
L 264.786333 315.937449 
L 265.694204 315.209799 
L 270.233557 313.234749 
L 271.141428 312.195249 
L 272.049298 311.987349 
L 272.957169 311.051799 
L 273.86504 310.532049 
L 274.77291 310.635999 
L 275.680781 309.596499 
L 276.588652 309.804399 
L 277.496522 308.764899 
L 279.312264 308.868849 
L 280.220134 307.829349 
L 281.128005 308.037249 
L 282.035876 307.725399 
L 282.943746 307.101699 
L 283.851617 307.725399 
L 284.759487 306.477999 
L 285.667358 306.166149 
L 287.483099 304.918749 
L 288.39097 304.814799 
L 289.298841 304.295049 
L 290.206711 303.983199 
L 291.114582 303.983199 
L 292.022453 302.943699 
L 293.838194 302.216049 
L 294.746065 302.216049 
L 295.653935 301.488399 
L 296.561806 301.280499 
L 297.469677 300.760749 
L 299.285418 300.344949 
L 301.101159 299.305449 
L 302.00903 299.097549 
L 302.916901 297.642249 
L 303.824771 297.226449 
L 304.732642 297.018549 
L 305.640513 296.186949 
L 307.456254 295.875099 
L 308.364124 294.627699 
L 310.179866 294.315849 
L 311.087736 293.068449 
L 311.995607 293.900049 
L 313.811348 292.652649 
L 314.719219 292.548699 
L 315.62709 291.821049 
L 316.53496 291.717099 
L 317.442831 290.365749 
L 318.350702 290.365749 
L 319.258572 290.157849 
L 320.166443 289.638099 
L 321.074314 288.286749 
L 321.982184 289.014399 
L 322.890055 288.390699 
L 323.797926 288.286749 
L 324.705796 287.559099 
L 326.521538 286.831449 
L 327.429408 286.207749 
L 328.337279 286.415649 
L 329.245149 285.376149 
L 330.15302 285.584049 
L 331.060891 284.024799 
L 331.968761 284.440599 
L 335.600244 282.465549 
L 336.508115 282.465549 
L 337.415985 281.218149 
L 338.323856 281.529999 
L 340.139597 280.802349 
L 341.047468 280.698399 
L 341.955339 280.074699 
L 342.863209 279.658899 
L 343.77108 279.450999 
L 344.678951 278.515449 
L 345.586821 278.619399 
L 346.494692 279.139149 
L 347.402563 277.579899 
L 348.310433 278.099649 
L 349.218304 277.579899 
L 350.126174 277.579899 
L 351.034045 276.852249 
L 351.941916 275.812749 
L 352.849786 276.020649 
L 353.757657 275.708799 
L 354.665528 275.085099 
L 356.481269 274.565349 
L 357.38914 274.565349 
L 358.29701 272.382399 
L 359.204881 273.733749 
L 361.020622 273.421899 
L 361.928493 273.006099 
L 362.836364 273.110049 
L 363.744234 272.798199 
L 364.652105 272.278449 
L 365.559976 272.382399 
L 366.467846 271.238949 
L 367.375717 271.134999 
L 368.283588 270.407349 
L 369.191458 269.887599 
L 370.099329 270.303399 
L 371.0072 268.432299 
L 371.91507 269.887599 
L 372.822941 269.367849 
L 373.730811 269.055999 
L 374.638682 268.952049 
L 375.546553 268.120449 
L 376.454423 266.873049 
L 377.362294 268.744149 
L 378.270165 267.600699 
L 379.178035 267.496749 
L 380.085906 267.600699 
L 380.993777 266.976999 
L 381.901647 267.080949 
L 382.809518 266.457249 
L 383.717389 266.353299 
L 384.625259 266.457249 
L 385.53313 266.041449 
L 387.348871 266.145399 
L 388.256742 265.833549 
L 390.072483 263.754549 
L 391.888225 263.442699 
L 392.796095 262.403199 
L 393.703966 263.442699 
L 394.611836 262.507149 
L 395.519707 261.883449 
L 396.427578 263.442699 
L 397.335448 261.675549 
L 398.243319 261.987399 
L 399.15119 261.259749 
L 400.05906 261.675549 
L 400.966931 261.571599 
L 401.874802 261.675549 
L 403.690543 260.324199 
L 406.414155 260.428149 
L 407.322026 259.908399 
L 408.229896 259.804449 
L 409.137767 260.012349 
L 410.045638 259.492599 
L 410.953508 259.492599 
L 411.861379 259.180749 
L 412.76925 258.557049 
L 413.67712 258.141249 
L 414.584991 257.933349 
L 415.492862 256.997799 
L 416.400732 256.893849 
L 417.308603 257.101749 
L 418.216473 257.517549 
L 419.124344 257.413599 
L 420.032215 256.270149 
L 420.940085 256.478049 
L 423.663697 255.750399 
L 425.479439 256.270149 
L 426.387309 255.022749 
L 427.29518 255.646449 
L 428.203051 255.230649 
L 429.110921 255.646449 
L 430.018792 254.814849 
L 431.834533 255.126699 
L 432.742404 253.567449 
L 433.650275 254.502999 
L 434.558145 253.879299 
L 435.466016 253.775349 
L 436.373887 253.983249 
L 437.281757 255.126699 
L 439.097498 253.671399 
L 440.005369 253.983249 
L 440.91324 252.943749 
L 441.82111 253.047699 
L 443.636852 252.527949 
L 444.544722 252.216099 
L 445.452593 252.320049 
L 446.360464 251.176599 
L 447.268334 251.592399 
L 448.176205 251.696349 
L 449.084076 251.592399 
L 449.991946 252.008199 
L 450.899817 251.904249 
L 451.807688 251.488449 
L 452.715558 252.112149 
L 453.623429 250.968699 
L 454.5313 251.696349 
L 455.43917 251.488449 
L 456.347041 251.592399 
L 457.254912 251.384499 
L 458.162782 250.864749 
L 459.070653 250.760799 
L 459.978523 250.448949 
L 460.886394 249.617349 
L 461.794265 250.760799 
L 462.702135 251.072649 
L 463.610006 250.033149 
L 464.517877 250.033149 
L 465.425747 250.760799 
L 466.333618 250.241049 
L 467.241489 250.864749 
L 468.149359 250.448949 
L 469.05723 249.825249 
L 470.872971 249.929199 
L 471.780842 248.993649 
L 472.688713 249.721299 
L 474.504454 249.305499 
L 475.412325 248.785749 
L 476.320195 249.513399 
L 477.228066 248.681799 
L 479.043807 249.617349 
L 479.951678 249.201549 
L 480.859549 248.577849 
L 481.767419 249.929199 
L 482.67529 248.577849 
L 483.58316 248.473899 
L 484.491031 249.305499 
L 485.398902 248.369949 
L 486.306772 248.785749 
L 487.214643 248.473899 
L 488.122514 248.577849 
L 489.030384 247.538349 
L 489.938255 247.850199 
L 490.846126 247.850199 
L 491.753996 248.473899 
L 493.569738 248.162049 
L 494.477608 249.097599 
L 495.385479 247.850199 
L 496.29335 248.058099 
L 497.20122 248.058099 
L 498.109091 247.850199 
L 498.109091 247.850199 
" clip-path="url(#pf9f3129dfa)" style="fill: none; stroke: #0000ff; stroke-opacity: 0.5; stroke-width: 1.5; stroke-linecap: square"/>
   </g>
   <g id="line2d_41">
    <path d="M 92.290909 358.141149 
L 93.19878 368.640099 
L 94.10665 368.432199 
L 95.922392 368.432199 
L 96.830262 368.640099 
L 97.738133 368.328249 
L 98.646004 368.951949 
L 99.553874 368.640099 
L 102.277486 368.432199 
L 109.540451 368.536149 
L 110.448322 368.224299 
L 111.356193 368.640099 
L 112.264063 368.224299 
L 113.171934 368.432199 
L 114.987675 368.432199 
L 115.895546 368.224299 
L 120.434899 368.744049 
L 121.34277 368.536149 
L 122.250641 368.640099 
L 123.158511 368.016399 
L 124.974253 368.120349 
L 125.882123 367.600599 
L 127.697865 367.912449 
L 128.605735 368.120349 
L 129.513606 367.808499 
L 130.421477 367.912449 
L 131.329347 367.704549 
L 132.237218 367.704549 
L 134.052959 368.016399 
L 138.592312 366.353199 
L 140.408054 365.209749 
L 141.315924 365.417649 
L 142.223795 364.897899 
L 144.039536 366.249249 
L 145.855278 366.665049 
L 146.763148 366.665049 
L 147.671019 366.249249 
L 148.57889 366.457149 
L 149.48676 365.209749 
L 150.394631 365.937399 
L 151.302502 365.729499 
L 152.210372 365.729499 
L 153.118243 365.001849 
L 154.026113 364.586049 
L 154.933984 364.378149 
L 156.749725 363.026799 
L 157.657596 363.338649 
L 160.381208 363.026799 
L 162.196949 364.378149 
L 163.10482 364.170249 
L 164.012691 364.378149 
L 164.920561 364.274199 
L 165.828432 363.546549 
L 167.644173 363.338649 
L 169.459915 362.714949 
L 170.367785 361.883349 
L 172.183527 360.635949 
L 173.999268 360.012249 
L 174.907138 360.116199 
L 175.815009 359.388549 
L 176.72288 359.180649 
L 178.538621 359.284599 
L 179.446492 359.908299 
L 180.354362 360.739899 
L 183.077974 360.116199 
L 183.985845 360.324099 
L 184.893716 360.012249 
L 185.801586 359.492499 
L 186.709457 359.700399 
L 188.525198 358.972749 
L 190.34094 358.452999 
L 191.24881 358.868799 
L 192.156681 358.141149 
L 193.064552 358.245099 
L 193.972422 357.829299 
L 194.880293 357.621399 
L 195.788164 356.997699 
L 196.696034 356.789799 
L 197.603905 356.373999 
L 198.511775 355.438449 
L 200.327517 354.087099 
L 201.235387 353.047599 
L 202.143258 353.255499 
L 203.051129 352.112049 
L 203.958999 351.800199 
L 204.86687 351.696249 
L 205.774741 351.176499 
L 206.682611 351.488349 
L 207.590482 351.384399 
L 208.498353 352.112049 
L 210.314094 352.319949 
L 211.221965 351.488349 
L 212.129835 351.176499 
L 213.037706 350.448849 
L 213.945577 350.448849 
L 214.853447 349.617249 
L 215.761318 349.617249 
L 216.669189 348.681699 
L 219.3928 346.394799 
L 220.300671 345.978999 
L 221.208542 344.211849 
L 222.116412 343.796049 
L 223.024283 343.796049 
L 223.932154 343.380249 
L 224.840024 343.172349 
L 225.747895 343.380249 
L 226.655766 343.172349 
L 227.563636 342.652599 
L 229.379378 342.132849 
L 230.287248 341.405199 
L 231.195119 341.093349 
L 232.10299 340.573599 
L 233.01086 339.741999 
L 233.918731 339.534099 
L 234.826602 338.702499 
L 237.550214 335.687949 
L 238.458084 334.960299 
L 239.365955 333.712899 
L 241.181696 332.569449 
L 242.089567 331.945749 
L 242.997437 331.010199 
L 245.721049 330.906249 
L 246.62892 331.425999 
L 247.536791 331.010199 
L 248.444661 330.178599 
L 249.352532 329.866749 
L 250.260403 328.931199 
L 251.168273 328.723299 
L 252.076144 327.371949 
L 252.984015 326.644299 
L 253.891885 325.500849 
L 256.615497 323.109999 
L 257.523368 322.798149 
L 258.431239 321.550749 
L 260.24698 320.823099 
L 261.154851 320.823099 
L 263.878462 321.446799 
L 264.786333 320.511249 
L 265.694204 319.783599 
L 266.602074 319.471749 
L 268.417816 318.224349 
L 269.325686 317.080899 
L 270.233557 316.353249 
L 271.141428 315.209799 
L 272.049298 314.897949 
L 272.957169 314.274249 
L 274.77291 313.754499 
L 277.496522 313.130799 
L 278.404393 313.754499 
L 279.312264 313.962399 
L 280.220134 313.962399 
L 281.128005 314.170299 
L 282.035876 313.442649 
L 283.851617 312.714999 
L 284.759487 312.195249 
L 285.667358 311.467599 
L 286.575229 310.116249 
L 287.483099 309.388599 
L 288.39097 308.453049 
L 289.298841 308.349099 
L 290.206711 308.037249 
L 291.114582 307.309599 
L 292.022453 307.205649 
L 292.930323 306.685899 
L 294.746065 306.166149 
L 295.653935 306.581949 
L 296.561806 307.621449 
L 297.469677 307.725399 
L 298.377547 307.517499 
L 300.193289 306.477999 
L 301.101159 305.334549 
L 302.00903 305.022699 
L 302.916901 303.463449 
L 303.824771 302.631849 
L 304.732642 302.319999 
L 305.640513 301.800249 
L 307.456254 300.448899 
L 308.364124 299.929149 
L 309.271995 299.929149 
L 310.179866 297.850149 
L 311.087736 297.746199 
L 311.995607 299.513349 
L 312.903478 299.721249 
L 313.811348 299.617299 
L 314.719219 299.825199 
L 315.62709 299.617299 
L 317.442831 298.473849 
L 318.350702 297.538299 
L 319.258572 297.122499 
L 320.166443 296.186949 
L 321.074314 296.602749 
L 321.982184 295.771149 
L 322.890055 294.419799 
L 323.797926 295.875099 
L 324.705796 295.355349 
L 325.613667 296.186949 
L 326.521538 295.667199 
L 327.429408 295.771149 
L 328.337279 295.459299 
L 329.245149 294.107949 
L 330.15302 294.107949 
L 331.060891 292.860549 
L 333.784503 291.197349 
L 334.692373 289.534149 
L 335.600244 290.053899 
L 336.508115 288.390699 
L 337.415985 287.663049 
L 338.323856 288.182799 
L 340.139597 287.766999 
L 341.047468 287.974899 
L 341.955339 286.935399 
L 342.863209 287.559099 
L 343.77108 288.390699 
L 344.678951 288.078849 
L 345.586821 288.078849 
L 346.494692 288.598599 
L 347.402563 288.078849 
L 349.218304 286.727499 
L 351.034045 284.440599 
L 351.941916 284.024799 
L 352.849786 283.401099 
L 353.757657 283.712949 
L 354.665528 283.401099 
L 355.573398 282.673449 
L 356.481269 282.777399 
L 357.38914 282.569499 
L 358.29701 281.426049 
L 359.204881 282.049749 
L 361.020622 282.777399 
L 361.928493 283.608999 
L 363.744234 284.024799 
L 364.652105 283.401099 
L 365.559976 282.153699 
L 367.375717 281.945799 
L 368.283588 280.802349 
L 369.191458 278.099649 
L 370.099329 279.347049 
L 371.0072 278.827299 
L 371.91507 278.723349 
L 372.822941 277.787799 
L 373.730811 277.787799 
L 374.638682 277.475949 
L 375.546553 277.371999 
L 376.454423 277.475949 
L 377.362294 276.644349 
L 378.270165 277.579899 
L 379.178035 277.475949 
L 380.085906 277.891749 
L 380.993777 276.644349 
L 381.901647 277.579899 
L 382.809518 278.203599 
L 383.717389 277.995699 
L 384.625259 277.475949 
L 385.53313 277.475949 
L 386.441001 276.956199 
L 389.164613 274.773249 
L 390.072483 274.565349 
L 390.980354 273.421899 
L 391.888225 273.629799 
L 392.796095 271.862649 
L 393.703966 272.486349 
L 394.611836 271.758699 
L 395.519707 272.174499 
L 396.427578 272.070549 
L 397.335448 272.174499 
L 398.243319 272.590299 
L 399.15119 272.590299 
L 400.05906 271.966599 
L 401.874802 271.966599 
L 402.782672 271.654749 
L 403.690543 272.902149 
L 406.414155 273.213999 
L 408.229896 272.694249 
L 409.137767 272.798199 
L 410.045638 271.862649 
L 411.861379 271.134999 
L 412.76925 269.887599 
L 413.67712 269.887599 
L 415.492862 268.744149 
L 416.400732 267.912549 
L 417.308603 267.392799 
L 418.216473 267.496749 
L 419.124344 267.080949 
L 420.032215 266.249349 
L 421.847956 266.561199 
L 422.755827 266.041449 
L 424.571568 266.041449 
L 425.479439 266.561199 
L 426.387309 266.457249 
L 427.29518 267.392799 
L 429.110921 268.432299 
L 430.018792 268.536249 
L 430.926663 268.120449 
L 431.834533 268.224399 
L 432.742404 268.640199 
L 433.650275 268.016499 
L 434.558145 268.432299 
L 435.466016 267.288849 
L 436.373887 267.288849 
L 437.281757 267.808599 
L 438.189628 267.496749 
L 439.097498 267.600699 
L 440.005369 266.665149 
L 440.91324 265.209849 
L 441.82111 265.001949 
L 442.728981 264.378249 
L 444.544722 264.378249 
L 445.452593 263.962449 
L 446.360464 263.338749 
L 447.268334 263.234799 
L 448.176205 263.650599 
L 449.084076 263.338749 
L 449.991946 262.091349 
L 450.899817 263.234799 
L 451.807688 262.818999 
L 452.715558 262.818999 
L 453.623429 263.858499 
L 454.5313 263.546649 
L 457.254912 265.417749 
L 458.162782 265.209849 
L 459.070653 264.586149 
L 459.978523 264.482199 
L 460.886394 265.001949 
L 461.794265 265.001949 
L 462.702135 265.313799 
L 463.610006 265.209849 
L 464.517877 264.794049 
L 465.425747 264.794049 
L 466.333618 265.209849 
L 467.241489 264.690099 
L 469.965101 265.001949 
L 470.872971 264.378249 
L 471.780842 264.170349 
L 472.688713 264.482199 
L 473.596583 265.001949 
L 474.504454 264.274299 
L 476.320195 264.378249 
L 477.228066 264.170349 
L 478.135937 263.754549 
L 479.951678 263.338749 
L 480.859549 263.442699 
L 481.767419 263.858499 
L 482.67529 263.858499 
L 483.58316 263.442699 
L 484.491031 263.338749 
L 485.398902 263.026899 
L 486.306772 263.338749 
L 487.214643 263.338749 
L 488.122514 263.130849 
L 489.030384 261.675549 
L 489.938255 261.675549 
L 490.846126 262.818999 
L 491.753996 262.818999 
L 492.661867 262.299249 
L 493.569738 263.026899 
L 494.477608 262.715049 
L 495.385479 263.234799 
L 496.29335 262.922949 
L 497.20122 262.922949 
L 498.109091 263.338749 
L 498.109091 263.338749 
" clip-path="url(#pf9f3129dfa)" style="fill: none; stroke: #0000ff; stroke-opacity: 0.5; stroke-width: 1.5; stroke-linecap: square"/>
   </g>
   <g id="line2d_42">
    <path d="M 92.290909 360.428049 
L 93.19878 368.432199 
L 94.10665 368.536149 
L 95.014521 368.328249 
L 95.922392 368.640099 
L 96.830262 368.536149 
L 97.738133 368.640099 
L 100.461745 368.432199 
L 101.369616 368.744049 
L 102.277486 368.432199 
L 103.185357 368.536149 
L 104.093228 368.432199 
L 105.001098 368.536149 
L 105.908969 368.328249 
L 107.72471 368.640099 
L 108.632581 368.432199 
L 109.540451 368.536149 
L 110.448322 368.432199 
L 111.356193 368.120349 
L 112.264063 368.536149 
L 113.171934 368.328249 
L 114.987675 368.432199 
L 115.895546 368.328249 
L 117.711287 368.432199 
L 118.619158 368.328249 
L 119.527029 368.432199 
L 120.434899 368.120349 
L 121.34277 368.224299 
L 122.250641 367.912449 
L 123.158511 368.224299 
L 124.974253 367.704549 
L 125.882123 367.600599 
L 128.605735 367.808499 
L 129.513606 367.808499 
L 130.421477 367.600599 
L 131.329347 367.808499 
L 132.237218 367.808499 
L 133.145088 367.600599 
L 134.96083 367.496649 
L 135.8687 367.288749 
L 136.776571 367.392699 
L 137.684442 367.288749 
L 138.592312 366.457149 
L 139.500183 366.457149 
L 140.408054 365.937399 
L 142.223795 366.041349 
L 143.131666 366.457149 
L 144.039536 366.561099 
L 146.763148 366.249249 
L 147.671019 366.353199 
L 149.48676 366.041349 
L 150.394631 366.041349 
L 151.302502 365.625549 
L 152.210372 365.417649 
L 153.118243 364.482099 
L 154.026113 364.274199 
L 154.933984 363.650499 
L 158.565467 362.507049 
L 161.289079 364.170249 
L 163.10482 363.754449 
L 164.012691 363.858399 
L 165.828432 363.546549 
L 166.736303 363.130749 
L 168.552044 362.818899 
L 170.367785 362.091249 
L 171.275656 361.155699 
L 173.091397 360.012249 
L 173.999268 360.116199 
L 174.907138 359.492499 
L 175.815009 359.492499 
L 176.72288 359.804349 
L 177.63075 359.596449 
L 178.538621 360.531999 
L 179.446492 360.739899 
L 180.354362 360.324099 
L 183.077974 359.700399 
L 183.985845 359.700399 
L 185.801586 359.180649 
L 186.709457 359.180649 
L 187.617328 358.660899 
L 188.525198 358.556949 
L 189.433069 358.764849 
L 190.34094 358.141149 
L 191.24881 358.037199 
L 192.156681 357.621399 
L 193.064552 357.517449 
L 193.972422 356.997699 
L 194.880293 356.893749 
L 196.696034 356.373999 
L 198.511775 355.022649 
L 200.327517 354.191049 
L 202.143258 352.735749 
L 203.051129 352.735749 
L 203.958999 352.112049 
L 204.86687 351.904149 
L 205.774741 352.008099 
L 206.682611 352.423899 
L 208.498353 351.904149 
L 209.406223 351.280449 
L 211.221965 350.760699 
L 212.129835 350.033049 
L 213.037706 349.929099 
L 213.945577 348.993549 
L 214.853447 348.993549 
L 215.761318 348.473799 
L 216.669189 347.642199 
L 217.577059 347.746149 
L 218.48493 346.602699 
L 219.3928 346.186899 
L 220.300671 345.251349 
L 221.208542 344.731599 
L 222.116412 343.796049 
L 223.024283 344.003949 
L 223.932154 343.484199 
L 224.840024 343.484199 
L 225.747895 343.172349 
L 228.471507 341.509149 
L 230.287248 340.261749 
L 231.195119 339.949899 
L 233.918731 337.974849 
L 234.826602 337.143249 
L 235.734472 336.103749 
L 236.642343 335.687949 
L 237.550214 335.064249 
L 238.458084 333.608949 
L 239.365955 333.401049 
L 240.273826 332.465499 
L 241.181696 331.841799 
L 242.089567 332.049699 
L 242.997437 331.945749 
L 244.813179 331.218099 
L 245.721049 330.594399 
L 246.62892 329.762799 
L 247.536791 329.554899 
L 248.444661 328.827249 
L 249.352532 328.411449 
L 250.260403 327.683799 
L 251.168273 327.475899 
L 252.076144 326.332449 
L 252.984015 325.604799 
L 254.799756 323.629749 
L 257.523368 321.862599 
L 260.24698 321.654699 
L 261.154851 321.030999 
L 262.062721 320.927049 
L 262.970592 319.679649 
L 263.878462 319.783599 
L 264.786333 319.055949 
L 265.694204 318.848049 
L 266.602074 318.328299 
L 268.417816 316.561149 
L 269.325686 315.937449 
L 270.233557 314.897949 
L 272.049298 313.338699 
L 273.86504 312.714999 
L 274.77291 312.195249 
L 275.680781 312.922899 
L 276.588652 313.130799 
L 277.496522 313.546599 
L 278.404393 313.026849 
L 281.128005 312.299199 
L 282.943746 311.467599 
L 285.667358 309.700449 
L 287.483099 307.725399 
L 288.39097 307.309599 
L 289.298841 306.477999 
L 291.114582 306.166149 
L 292.930323 305.646399 
L 293.838194 306.477999 
L 295.653935 306.685899 
L 296.561806 306.477999 
L 297.469677 305.854299 
L 298.377547 306.062199 
L 299.285418 305.022699 
L 301.101159 304.191099 
L 302.00903 302.735799 
L 303.824771 301.176549 
L 305.640513 299.513349 
L 306.548383 299.201499 
L 308.364124 298.265949 
L 309.271995 297.434349 
L 310.179866 299.201499 
L 311.087736 299.617299 
L 312.903478 299.305449 
L 313.811348 298.369899 
L 314.719219 297.954099 
L 315.62709 297.954099 
L 316.53496 296.810649 
L 317.442831 296.394849 
L 318.350702 296.290899 
L 320.166443 294.939549 
L 321.074314 295.043499 
L 323.797926 294.731649 
L 324.705796 293.276349 
L 325.613667 293.796099 
L 326.521538 293.172399 
L 327.429408 289.845999 
L 328.337279 292.028949 
L 329.245149 291.509199 
L 330.15302 288.910449 
L 331.060891 289.534149 
L 331.968761 289.326249 
L 332.876632 288.910449 
L 333.784503 287.974899 
L 334.692373 285.895899 
L 335.600244 285.584049 
L 336.508115 286.727499 
L 337.415985 283.816899 
L 339.231727 285.791949 
L 340.139597 285.687999 
L 341.047468 286.831449 
L 341.955339 285.687999 
L 342.863209 287.143299 
L 343.77108 286.103799 
L 344.678951 285.999849 
L 345.586821 285.480099 
L 346.494692 285.584049 
L 347.402563 285.376149 
L 348.310433 284.232699 
L 349.218304 282.257649 
L 350.126174 282.673449 
L 351.941916 281.322099 
L 352.849786 280.178649 
L 353.757657 279.347049 
L 354.665528 280.490499 
L 355.573398 279.762849 
L 356.481269 278.723349 
L 357.38914 280.178649 
L 358.29701 280.906299 
L 359.204881 280.802349 
L 360.112752 281.218149 
L 361.020622 280.698399 
L 361.928493 280.594449 
L 362.836364 279.866799 
L 363.744234 279.866799 
L 364.652105 277.787799 
L 365.559976 278.827299 
L 366.467846 277.891749 
L 367.375717 277.579899 
L 368.283588 276.436449 
L 371.0072 275.189049 
L 371.91507 273.525849 
L 372.822941 274.357449 
L 373.730811 273.837699 
L 374.638682 273.941649 
L 376.454423 274.565349 
L 378.270165 274.773249 
L 379.178035 274.357449 
L 380.993777 273.006099 
L 381.901647 273.837699 
L 382.809518 273.941649 
L 386.441001 271.966599 
L 387.348871 271.550799 
L 388.256742 269.783649 
L 389.164613 268.744149 
L 390.072483 268.744149 
L 390.980354 267.496749 
L 391.888225 268.120449 
L 392.796095 267.808599 
L 393.703966 266.353299 
L 394.611836 266.665149 
L 395.519707 265.833549 
L 396.427578 267.080949 
L 397.335448 266.873049 
L 398.243319 267.808599 
L 400.05906 268.224399 
L 400.966931 267.600699 
L 401.874802 267.184899 
L 402.782672 267.496749 
L 404.598414 266.976999 
L 405.506284 266.976999 
L 406.414155 265.105899 
L 407.322026 266.249349 
L 408.229896 265.937499 
L 409.137767 265.001949 
L 410.045638 264.482199 
L 410.953508 265.105899 
L 411.861379 263.962449 
L 412.76925 263.130849 
L 413.67712 262.715049 
L 414.584991 261.571599 
L 415.492862 261.051849 
L 416.400732 259.492599 
L 417.308603 260.012349 
L 418.216473 260.116299 
L 419.124344 259.284699 
L 420.032215 259.180749 
L 420.940085 258.037299 
L 421.847956 258.660999 
L 422.755827 258.868899 
L 423.663697 259.596549 
L 424.571568 259.908399 
L 425.479439 259.596549 
L 426.387309 261.467649 
L 427.29518 261.051849 
L 428.203051 260.843949 
L 429.110921 260.428149 
L 430.018792 260.532099 
L 431.834533 259.388649 
L 432.742404 259.596549 
L 433.650275 259.596549 
L 434.558145 259.180749 
L 435.466016 259.076799 
L 436.373887 258.660999 
L 437.281757 258.764949 
L 439.097498 258.557049 
L 440.005369 257.309649 
L 440.91324 256.893849 
L 441.82111 255.958299 
L 442.728981 255.230649 
L 443.636852 255.230649 
L 444.544722 254.814849 
L 445.452593 254.814849 
L 446.360464 254.295099 
L 447.268334 254.087199 
L 448.176205 252.527949 
L 449.084076 253.983249 
L 449.991946 254.606949 
L 450.899817 254.710899 
L 452.715558 256.062249 
L 456.347041 256.062249 
L 457.254912 255.646449 
L 458.162782 255.542499 
L 459.070653 255.126699 
L 459.978523 255.542499 
L 460.886394 255.542499 
L 461.794265 255.334599 
L 462.702135 254.814849 
L 464.517877 254.606949 
L 465.425747 254.710899 
L 466.333618 254.606949 
L 467.241489 254.814849 
L 468.149359 254.502999 
L 469.05723 254.399049 
L 469.965101 253.879299 
L 471.780842 253.983249 
L 473.596583 253.255599 
L 474.504454 253.463499 
L 475.412325 252.943749 
L 476.320195 253.879299 
L 477.228066 253.359549 
L 478.135937 253.151649 
L 479.043807 252.527949 
L 479.951678 253.567449 
L 480.859549 252.735849 
L 481.767419 253.047699 
L 482.67529 253.047699 
L 483.58316 252.008199 
L 484.491031 252.735849 
L 485.398902 252.735849 
L 486.306772 252.527949 
L 487.214643 252.112149 
L 488.122514 252.320049 
L 489.030384 252.112149 
L 489.938255 252.631899 
L 490.846126 252.216099 
L 491.753996 252.008199 
L 492.661867 252.423999 
L 493.569738 252.216099 
L 494.477608 251.800299 
L 496.29335 251.592399 
L 497.20122 252.008199 
L 498.109091 251.904249 
L 498.109091 251.904249 
" clip-path="url(#pf9f3129dfa)" style="fill: none; stroke: #0000ff; stroke-opacity: 0.5; stroke-width: 1.5; stroke-linecap: square"/>
   </g>
   <g id="LineCollection_1">
    <path d="M 92.290909 363.961656 
L 92.290909 358.765542 
" clip-path="url(#pf9f3129dfa)" style="fill: none; stroke: #ff0000; stroke-width: 1.5"/>
    <path d="M 128.605735 368.105244 
L 128.605735 366.108429 
" clip-path="url(#pf9f3129dfa)" style="fill: none; stroke: #ff0000; stroke-width: 1.5"/>
    <path d="M 164.920561 364.187032 
L 164.920561 361.970516 
" clip-path="url(#pf9f3129dfa)" style="fill: none; stroke: #ff0000; stroke-width: 1.5"/>
    <path d="M 201.235387 353.435964 
L 201.235387 352.815159 
" clip-path="url(#pf9f3129dfa)" style="fill: none; stroke: #ff0000; stroke-width: 1.5"/>
    <path d="M 237.550214 336.086261 
L 237.550214 334.250137 
" clip-path="url(#pf9f3129dfa)" style="fill: none; stroke: #ff0000; stroke-width: 1.5"/>
    <path d="M 273.86504 314.263819 
L 273.86504 311.166179 
" clip-path="url(#pf9f3129dfa)" style="fill: none; stroke: #ff0000; stroke-width: 1.5"/>
    <path d="M 310.179866 299.468687 
L 310.179866 295.244086 
" clip-path="url(#pf9f3129dfa)" style="fill: none; stroke: #ff0000; stroke-width: 1.5"/>
    <path d="M 346.494692 287.926608 
L 346.494692 279.551265 
" clip-path="url(#pf9f3129dfa)" style="fill: none; stroke: #ff0000; stroke-width: 1.5"/>
    <path d="M 382.809518 277.100978 
L 382.809518 266.468395 
" clip-path="url(#pf9f3129dfa)" style="fill: none; stroke: #ff0000; stroke-width: 1.5"/>
    <path d="M 419.124344 264.891498 
L 419.124344 254.9253 
" clip-path="url(#pf9f3129dfa)" style="fill: none; stroke: #ff0000; stroke-width: 1.5"/>
    <path d="M 455.43917 261.86236 
L 455.43917 248.391038 
" clip-path="url(#pf9f3129dfa)" style="fill: none; stroke: #ff0000; stroke-width: 1.5"/>
    <path d="M 491.753996 259.719401 
L 491.753996 245.492422 
" clip-path="url(#pf9f3129dfa)" style="fill: none; stroke: #ff0000; stroke-width: 1.5"/>
   </g>
   <g id="line2d_43">
    <defs>
     <path id="mf4bcf993d4" d="M 5 0 
L -5 -0 
" style="stroke: #ff0000"/>
    </defs>
    <g clip-path="url(#pf9f3129dfa)">
     <use xlink:href="#mf4bcf993d4" x="92.290909" y="363.961656" style="fill: #ff0000; stroke: #ff0000"/>
     <use xlink:href="#mf4bcf993d4" x="128.605735" y="368.105244" style="fill: #ff0000; stroke: #ff0000"/>
     <use xlink:href="#mf4bcf993d4" x="164.920561" y="364.187032" style="fill: #ff0000; stroke: #ff0000"/>
     <use xlink:href="#mf4bcf993d4" x="201.235387" y="353.435964" style="fill: #ff0000; stroke: #ff0000"/>
     <use xlink:href="#mf4bcf993d4" x="237.550214" y="336.086261" style="fill: #ff0000; stroke: #ff0000"/>
     <use xlink:href="#mf4bcf993d4" x="273.86504" y="314.263819" style="fill: #ff0000; stroke: #ff0000"/>
     <use xlink:href="#mf4bcf993d4" x="310.179866" y="299.468687" style="fill: #ff0000; stroke: #ff0000"/>
     <use xlink:href="#mf4bcf993d4" x="346.494692" y="287.926608" style="fill: #ff0000; stroke: #ff0000"/>
     <use xlink:href="#mf4bcf993d4" x="382.809518" y="277.100978" style="fill: #ff0000; stroke: #ff0000"/>
     <use xlink:href="#mf4bcf993d4" x="419.124344" y="264.891498" style="fill: #ff0000; stroke: #ff0000"/>
     <use xlink:href="#mf4bcf993d4" x="455.43917" y="261.86236" style="fill: #ff0000; stroke: #ff0000"/>
     <use xlink:href="#mf4bcf993d4" x="491.753996" y="259.719401" style="fill: #ff0000; stroke: #ff0000"/>
    </g>
   </g>
   <g id="line2d_44">
    <g clip-path="url(#pf9f3129dfa)">
     <use xlink:href="#mf4bcf993d4" x="92.290909" y="358.765542" style="fill: #ff0000; stroke: #ff0000"/>
     <use xlink:href="#mf4bcf993d4" x="128.605735" y="366.108429" style="fill: #ff0000; stroke: #ff0000"/>
     <use xlink:href="#mf4bcf993d4" x="164.920561" y="361.970516" style="fill: #ff0000; stroke: #ff0000"/>
     <use xlink:href="#mf4bcf993d4" x="201.235387" y="352.815159" style="fill: #ff0000; stroke: #ff0000"/>
     <use xlink:href="#mf4bcf993d4" x="237.550214" y="334.250137" style="fill: #ff0000; stroke: #ff0000"/>
     <use xlink:href="#mf4bcf993d4" x="273.86504" y="311.166179" style="fill: #ff0000; stroke: #ff0000"/>
     <use xlink:href="#mf4bcf993d4" x="310.179866" y="295.244086" style="fill: #ff0000; stroke: #ff0000"/>
     <use xlink:href="#mf4bcf993d4" x="346.494692" y="279.551265" style="fill: #ff0000; stroke: #ff0000"/>
     <use xlink:href="#mf4bcf993d4" x="382.809518" y="266.468395" style="fill: #ff0000; stroke: #ff0000"/>
     <use xlink:href="#mf4bcf993d4" x="419.124344" y="254.9253" style="fill: #ff0000; stroke: #ff0000"/>
     <use xlink:href="#mf4bcf993d4" x="455.43917" y="248.391038" style="fill: #ff0000; stroke: #ff0000"/>
     <use xlink:href="#mf4bcf993d4" x="491.753996" y="245.492422" style="fill: #ff0000; stroke: #ff0000"/>
    </g>
   </g>
   <g id="line2d_45">
    <path d="M 92.290909 361.363599 
L 128.605735 367.106836 
L 164.920561 363.078774 
L 201.235387 353.125562 
L 237.550214 335.168199 
L 273.86504 312.714999 
L 310.179866 297.356386 
L 346.494692 283.738936 
L 382.809518 271.784687 
L 419.124344 259.908399 
L 455.43917 255.126699 
L 491.753996 252.605911 
" clip-path="url(#pf9f3129dfa)" style="fill: none; stroke: #ff0000; stroke-width: 1.5; stroke-linecap: square"/>
   </g>
   <g id="patch_3">
    <path d="M 72 384.48 
L 72 51.84 
" style="fill: none; stroke: #000000; stroke-width: 0.8; stroke-linejoin: miter; stroke-linecap: square"/>
   </g>
   <g id="patch_4">
    <path d="M 518.4 384.48 
L 518.4 51.84 
" style="fill: none; stroke: #000000; stroke-width: 0.8; stroke-linejoin: miter; stroke-linecap: square"/>
   </g>
   <g id="patch_5">
    <path d="M 72 384.48 
L 518.4 384.48 
" style="fill: none; stroke: #000000; stroke-width: 0.8; stroke-linejoin: miter; stroke-linecap: square"/>
   </g>
   <g id="patch_6">
    <path d="M 72 51.84 
L 518.4 51.84 
" style="fill: none; stroke: #000000; stroke-width: 0.8; stroke-linejoin: miter; stroke-linecap: square"/>
   </g>
   <g id="text_22">
    <!-- M17: Methionin;Histidin;Isoleucin -->
    <g transform="translate(212.271094 45.84) scale(0.1 -0.1)">
     <defs>
      <path id="DejaVuSans-4d" d="M 628 4666 
L 1569 4666 
L 2759 1491 
L 3956 4666 
L 4897 4666 
L 4897 0 
L 4281 0 
L 4281 4097 
L 3078 897 
L 2444 897 
L 1241 4097 
L 1241 0 
L 628 0 
L 628 4666 
z
" transform="scale(0.015625)"/>
      <path id="DejaVuSans-3a" d="M 750 794 
L 1409 794 
L 1409 0 
L 750 0 
L 750 794 
z
M 750 3309 
L 1409 3309 
L 1409 2516 
L 750 2516 
L 750 3309 
z
" transform="scale(0.015625)"/>
      <path id="DejaVuSans-3b" d="M 750 3309 
L 1409 3309 
L 1409 2516 
L 750 2516 
L 750 3309 
z
M 750 794 
L 1409 794 
L 1409 256 
L 897 -744 
L 494 -744 
L 750 256 
L 750 794 
z
" transform="scale(0.015625)"/>
      <path id="DejaVuSans-48" d="M 628 4666 
L 1259 4666 
L 1259 2753 
L 3553 2753 
L 3553 4666 
L 4184 4666 
L 4184 0 
L 3553 0 
L 3553 2222 
L 1259 2222 
L 1259 0 
L 628 0 
L 628 4666 
z
" transform="scale(0.015625)"/>
      <path id="DejaVuSans-49" d="M 628 4666 
L 1259 4666 
L 1259 0 
L 628 0 
L 628 4666 
z
" transform="scale(0.015625)"/>
     </defs>
     <use xlink:href="#DejaVuSans-4d"/>
     <use xlink:href="#DejaVuSans-31" x="86.279297"/>
     <use xlink:href="#DejaVuSans-37" x="149.902344"/>
     <use xlink:href="#DejaVuSans-3a" x="213.525391"/>
     <use xlink:href="#DejaVuSans-20" x="247.216797"/>
     <use xlink:href="#DejaVuSans-4d" x="279.003906"/>
     <use xlink:href="#DejaVuSans-65" x="365.283203"/>
     <use xlink:href="#DejaVuSans-74" x="426.806641"/>
     <use xlink:href="#DejaVuSans-68" x="466.015625"/>
     <use xlink:href="#DejaVuSans-69" x="529.394531"/>
     <use xlink:href="#DejaVuSans-6f" x="557.177734"/>
     <use xlink:href="#DejaVuSans-6e" x="618.359375"/>
     <use xlink:href="#DejaVuSans-69" x="681.738281"/>
     <use xlink:href="#DejaVuSans-6e" x="709.521484"/>
     <use xlink:href="#DejaVuSans-3b" x="772.900391"/>
     <use xlink:href="#DejaVuSans-48" x="806.591797"/>
     <use xlink:href="#DejaVuSans-69" x="881.787109"/>
     <use xlink:href="#DejaVuSans-73" x="909.570312"/>
     <use xlink:href="#DejaVuSans-74" x="961.669922"/>
     <use xlink:href="#DejaVuSans-69" x="1000.878906"/>
     <use xlink:href="#DejaVuSans-64" x="1028.662109"/>
     <use xlink:href="#DejaVuSans-69" x="1092.138672"/>
     <use xlink:href="#DejaVuSans-6e" x="1119.921875"/>
     <use xlink:href="#DejaVuSans-3b" x="1183.300781"/>
     <use xlink:href="#DejaVuSans-49" x="1216.992188"/>
     <use xlink:href="#DejaVuSans-73" x="1246.484375"/>
     <use xlink:href="#DejaVuSans-6f" x="1298.583984"/>
     <use xlink:href="#DejaVuSans-6c" x="1359.765625"/>
     <use xlink:href="#DejaVuSans-65" x="1387.548828"/>
     <use xlink:href="#DejaVuSans-75" x="1449.072266"/>
     <use xlink:href="#DejaVuSans-63" x="1512.451172"/>
     <use xlink:href="#DejaVuSans-69" x="1567.431641"/>
     <use xlink:href="#DejaVuSans-6e" x="1595.214844"/>
    </g>
   </g>
  </g>
 </g>
 <defs>
  <clipPath id="pf9f3129dfa">
   <rect x="72" y="51.84" width="446.4" height="332.64"/>
  </clipPath>
 </defs>
</svg>
