<?xml version="1.0" encoding="utf-8" standalone="no"?>
<!DOCTYPE svg PUBLIC "-//W3C//DTD SVG 1.1//EN"
  "http://www.w3.org/Graphics/SVG/1.1/DTD/svg11.dtd">
<svg xmlns:xlink="http://www.w3.org/1999/xlink" width="576pt" height="432pt" viewBox="0 0 576 432" xmlns="http://www.w3.org/2000/svg" version="1.1">
 <metadata>
  <rdf:RDF xmlns:dc="http://purl.org/dc/elements/1.1/" xmlns:cc="http://creativecommons.org/ns#" xmlns:rdf="http://www.w3.org/1999/02/22-rdf-syntax-ns#">
   <cc:Work>
    <dc:type rdf:resource="http://purl.org/dc/dcmitype/StillImage"/>
    <dc:date>2024-11-12T14:09:15.003167</dc:date>
    <dc:format>image/svg+xml</dc:format>
    <dc:creator>
     <cc:Agent>
      <dc:title>Matplotlib v3.7.5, https://matplotlib.org/</dc:title>
     </cc:Agent>
    </dc:creator>
   </cc:Work>
  </rdf:RDF>
 </metadata>
 <defs>
  <style type="text/css">*{stroke-linejoin: round; stroke-linecap: butt}</style>
 </defs>
 <g id="figure_1">
  <g id="patch_1">
   <path d="M 0 432 
L 576 432 
L 576 0 
L 0 0 
z
" style="fill: #ffffff"/>
  </g>
  <g id="axes_1">
   <g id="patch_2">
    <path d="M 72 384.48 
L 518.4 384.48 
L 518.4 51.84 
L 72 51.84 
z
" style="fill: #ffffff"/>
   </g>
   <g id="matplotlib.axis_1">
    <g id="xtick_1">
     <g id="line2d_1">
      <path d="M 92.290909 384.48 
L 92.290909 51.84 
" clip-path="url(#pdca664fe87)" style="fill: none; stroke: #b0b0b0; stroke-width: 0.8; stroke-linecap: square"/>
     </g>
     <g id="line2d_2">
      <defs>
       <path id="m26f51ad703" d="M 0 0 
L 0 3.5 
" style="stroke: #000000; stroke-width: 0.8"/>
      </defs>
      <g>
       <use xlink:href="#m26f51ad703" x="92.290909" y="384.48" style="stroke: #000000; stroke-width: 0.8"/>
      </g>
     </g>
     <g id="text_1">
      <!-- 0.17 -->
      <g transform="translate(81.158097 399.078438) scale(0.1 -0.1)">
       <defs>
        <path id="DejaVuSans-30" d="M 2034 4250 
Q 1547 4250 1301 3770 
Q 1056 3291 1056 2328 
Q 1056 1369 1301 889 
Q 1547 409 2034 409 
Q 2525 409 2770 889 
Q 3016 1369 3016 2328 
Q 3016 3291 2770 3770 
Q 2525 4250 2034 4250 
z
M 2034 4750 
Q 2819 4750 3233 4129 
Q 3647 3509 3647 2328 
Q 3647 1150 3233 529 
Q 2819 -91 2034 -91 
Q 1250 -91 836 529 
Q 422 1150 422 2328 
Q 422 3509 836 4129 
Q 1250 4750 2034 4750 
z
" transform="scale(0.015625)"/>
        <path id="DejaVuSans-2e" d="M 684 794 
L 1344 794 
L 1344 0 
L 684 0 
L 684 794 
z
" transform="scale(0.015625)"/>
        <path id="DejaVuSans-31" d="M 794 531 
L 1825 531 
L 1825 4091 
L 703 3866 
L 703 4441 
L 1819 4666 
L 2450 4666 
L 2450 531 
L 3481 531 
L 3481 0 
L 794 0 
L 794 531 
z
" transform="scale(0.015625)"/>
        <path id="DejaVuSans-37" d="M 525 4666 
L 3525 4666 
L 3525 4397 
L 1831 0 
L 1172 0 
L 2766 4134 
L 525 4134 
L 525 4666 
z
" transform="scale(0.015625)"/>
       </defs>
       <use xlink:href="#DejaVuSans-30"/>
       <use xlink:href="#DejaVuSans-2e" x="63.623047"/>
       <use xlink:href="#DejaVuSans-31" x="95.410156"/>
       <use xlink:href="#DejaVuSans-37" x="159.033203"/>
      </g>
     </g>
    </g>
    <g id="xtick_2">
     <g id="line2d_3">
      <path d="M 128.605735 384.48 
L 128.605735 51.84 
" clip-path="url(#pdca664fe87)" style="fill: none; stroke: #b0b0b0; stroke-width: 0.8; stroke-linecap: square"/>
     </g>
     <g id="line2d_4">
      <g>
       <use xlink:href="#m26f51ad703" x="128.605735" y="384.48" style="stroke: #000000; stroke-width: 0.8"/>
      </g>
     </g>
     <g id="text_2">
      <!-- 6.83 -->
      <g transform="translate(117.472923 399.078438) scale(0.1 -0.1)">
       <defs>
        <path id="DejaVuSans-36" d="M 2113 2584 
Q 1688 2584 1439 2293 
Q 1191 2003 1191 1497 
Q 1191 994 1439 701 
Q 1688 409 2113 409 
Q 2538 409 2786 701 
Q 3034 994 3034 1497 
Q 3034 2003 2786 2293 
Q 2538 2584 2113 2584 
z
M 3366 4563 
L 3366 3988 
Q 3128 4100 2886 4159 
Q 2644 4219 2406 4219 
Q 1781 4219 1451 3797 
Q 1122 3375 1075 2522 
Q 1259 2794 1537 2939 
Q 1816 3084 2150 3084 
Q 2853 3084 3261 2657 
Q 3669 2231 3669 1497 
Q 3669 778 3244 343 
Q 2819 -91 2113 -91 
Q 1303 -91 875 529 
Q 447 1150 447 2328 
Q 447 3434 972 4092 
Q 1497 4750 2381 4750 
Q 2619 4750 2861 4703 
Q 3103 4656 3366 4563 
z
" transform="scale(0.015625)"/>
        <path id="DejaVuSans-38" d="M 2034 2216 
Q 1584 2216 1326 1975 
Q 1069 1734 1069 1313 
Q 1069 891 1326 650 
Q 1584 409 2034 409 
Q 2484 409 2743 651 
Q 3003 894 3003 1313 
Q 3003 1734 2745 1975 
Q 2488 2216 2034 2216 
z
M 1403 2484 
Q 997 2584 770 2862 
Q 544 3141 544 3541 
Q 544 4100 942 4425 
Q 1341 4750 2034 4750 
Q 2731 4750 3128 4425 
Q 3525 4100 3525 3541 
Q 3525 3141 3298 2862 
Q 3072 2584 2669 2484 
Q 3125 2378 3379 2068 
Q 3634 1759 3634 1313 
Q 3634 634 3220 271 
Q 2806 -91 2034 -91 
Q 1263 -91 848 271 
Q 434 634 434 1313 
Q 434 1759 690 2068 
Q 947 2378 1403 2484 
z
M 1172 3481 
Q 1172 3119 1398 2916 
Q 1625 2713 2034 2713 
Q 2441 2713 2670 2916 
Q 2900 3119 2900 3481 
Q 2900 3844 2670 4047 
Q 2441 4250 2034 4250 
Q 1625 4250 1398 4047 
Q 1172 3844 1172 3481 
z
" transform="scale(0.015625)"/>
        <path id="DejaVuSans-33" d="M 2597 2516 
Q 3050 2419 3304 2112 
Q 3559 1806 3559 1356 
Q 3559 666 3084 287 
Q 2609 -91 1734 -91 
Q 1441 -91 1130 -33 
Q 819 25 488 141 
L 488 750 
Q 750 597 1062 519 
Q 1375 441 1716 441 
Q 2309 441 2620 675 
Q 2931 909 2931 1356 
Q 2931 1769 2642 2001 
Q 2353 2234 1838 2234 
L 1294 2234 
L 1294 2753 
L 1863 2753 
Q 2328 2753 2575 2939 
Q 2822 3125 2822 3475 
Q 2822 3834 2567 4026 
Q 2313 4219 1838 4219 
Q 1578 4219 1281 4162 
Q 984 4106 628 3988 
L 628 4550 
Q 988 4650 1302 4700 
Q 1616 4750 1894 4750 
Q 2613 4750 3031 4423 
Q 3450 4097 3450 3541 
Q 3450 3153 3228 2886 
Q 3006 2619 2597 2516 
z
" transform="scale(0.015625)"/>
       </defs>
       <use xlink:href="#DejaVuSans-36"/>
       <use xlink:href="#DejaVuSans-2e" x="63.623047"/>
       <use xlink:href="#DejaVuSans-38" x="95.410156"/>
       <use xlink:href="#DejaVuSans-33" x="159.033203"/>
      </g>
     </g>
    </g>
    <g id="xtick_3">
     <g id="line2d_5">
      <path d="M 164.920561 384.48 
L 164.920561 51.84 
" clip-path="url(#pdca664fe87)" style="fill: none; stroke: #b0b0b0; stroke-width: 0.8; stroke-linecap: square"/>
     </g>
     <g id="line2d_6">
      <g>
       <use xlink:href="#m26f51ad703" x="164.920561" y="384.48" style="stroke: #000000; stroke-width: 0.8"/>
      </g>
     </g>
     <g id="text_3">
      <!-- 13.5 -->
      <g transform="translate(153.787749 399.078438) scale(0.1 -0.1)">
       <defs>
        <path id="DejaVuSans-35" d="M 691 4666 
L 3169 4666 
L 3169 4134 
L 1269 4134 
L 1269 2991 
Q 1406 3038 1543 3061 
Q 1681 3084 1819 3084 
Q 2600 3084 3056 2656 
Q 3513 2228 3513 1497 
Q 3513 744 3044 326 
Q 2575 -91 1722 -91 
Q 1428 -91 1123 -41 
Q 819 9 494 109 
L 494 744 
Q 775 591 1075 516 
Q 1375 441 1709 441 
Q 2250 441 2565 725 
Q 2881 1009 2881 1497 
Q 2881 1984 2565 2268 
Q 2250 2553 1709 2553 
Q 1456 2553 1204 2497 
Q 953 2441 691 2322 
L 691 4666 
z
" transform="scale(0.015625)"/>
       </defs>
       <use xlink:href="#DejaVuSans-31"/>
       <use xlink:href="#DejaVuSans-33" x="63.623047"/>
       <use xlink:href="#DejaVuSans-2e" x="127.246094"/>
       <use xlink:href="#DejaVuSans-35" x="159.033203"/>
      </g>
     </g>
    </g>
    <g id="xtick_4">
     <g id="line2d_7">
      <path d="M 201.235387 384.48 
L 201.235387 51.84 
" clip-path="url(#pdca664fe87)" style="fill: none; stroke: #b0b0b0; stroke-width: 0.8; stroke-linecap: square"/>
     </g>
     <g id="line2d_8">
      <g>
       <use xlink:href="#m26f51ad703" x="201.235387" y="384.48" style="stroke: #000000; stroke-width: 0.8"/>
      </g>
     </g>
     <g id="text_4">
      <!-- 20.17 -->
      <g transform="translate(186.921325 399.078438) scale(0.1 -0.1)">
       <defs>
        <path id="DejaVuSans-32" d="M 1228 531 
L 3431 531 
L 3431 0 
L 469 0 
L 469 531 
Q 828 903 1448 1529 
Q 2069 2156 2228 2338 
Q 2531 2678 2651 2914 
Q 2772 3150 2772 3378 
Q 2772 3750 2511 3984 
Q 2250 4219 1831 4219 
Q 1534 4219 1204 4116 
Q 875 4013 500 3803 
L 500 4441 
Q 881 4594 1212 4672 
Q 1544 4750 1819 4750 
Q 2544 4750 2975 4387 
Q 3406 4025 3406 3419 
Q 3406 3131 3298 2873 
Q 3191 2616 2906 2266 
Q 2828 2175 2409 1742 
Q 1991 1309 1228 531 
z
" transform="scale(0.015625)"/>
       </defs>
       <use xlink:href="#DejaVuSans-32"/>
       <use xlink:href="#DejaVuSans-30" x="63.623047"/>
       <use xlink:href="#DejaVuSans-2e" x="127.246094"/>
       <use xlink:href="#DejaVuSans-31" x="159.033203"/>
       <use xlink:href="#DejaVuSans-37" x="222.65625"/>
      </g>
     </g>
    </g>
    <g id="xtick_5">
     <g id="line2d_9">
      <path d="M 237.550214 384.48 
L 237.550214 51.84 
" clip-path="url(#pdca664fe87)" style="fill: none; stroke: #b0b0b0; stroke-width: 0.8; stroke-linecap: square"/>
     </g>
     <g id="line2d_10">
      <g>
       <use xlink:href="#m26f51ad703" x="237.550214" y="384.48" style="stroke: #000000; stroke-width: 0.8"/>
      </g>
     </g>
     <g id="text_5">
      <!-- 26.83 -->
      <g transform="translate(223.236151 399.078438) scale(0.1 -0.1)">
       <use xlink:href="#DejaVuSans-32"/>
       <use xlink:href="#DejaVuSans-36" x="63.623047"/>
       <use xlink:href="#DejaVuSans-2e" x="127.246094"/>
       <use xlink:href="#DejaVuSans-38" x="159.033203"/>
       <use xlink:href="#DejaVuSans-33" x="222.65625"/>
      </g>
     </g>
    </g>
    <g id="xtick_6">
     <g id="line2d_11">
      <path d="M 273.86504 384.48 
L 273.86504 51.84 
" clip-path="url(#pdca664fe87)" style="fill: none; stroke: #b0b0b0; stroke-width: 0.8; stroke-linecap: square"/>
     </g>
     <g id="line2d_12">
      <g>
       <use xlink:href="#m26f51ad703" x="273.86504" y="384.48" style="stroke: #000000; stroke-width: 0.8"/>
      </g>
     </g>
     <g id="text_6">
      <!-- 33.5 -->
      <g transform="translate(262.732227 399.078438) scale(0.1 -0.1)">
       <use xlink:href="#DejaVuSans-33"/>
       <use xlink:href="#DejaVuSans-33" x="63.623047"/>
       <use xlink:href="#DejaVuSans-2e" x="127.246094"/>
       <use xlink:href="#DejaVuSans-35" x="159.033203"/>
      </g>
     </g>
    </g>
    <g id="xtick_7">
     <g id="line2d_13">
      <path d="M 310.179866 384.48 
L 310.179866 51.84 
" clip-path="url(#pdca664fe87)" style="fill: none; stroke: #b0b0b0; stroke-width: 0.8; stroke-linecap: square"/>
     </g>
     <g id="line2d_14">
      <g>
       <use xlink:href="#m26f51ad703" x="310.179866" y="384.48" style="stroke: #000000; stroke-width: 0.8"/>
      </g>
     </g>
     <g id="text_7">
      <!-- 40.17 -->
      <g transform="translate(295.865803 399.078438) scale(0.1 -0.1)">
       <defs>
        <path id="DejaVuSans-34" d="M 2419 4116 
L 825 1625 
L 2419 1625 
L 2419 4116 
z
M 2253 4666 
L 3047 4666 
L 3047 1625 
L 3713 1625 
L 3713 1100 
L 3047 1100 
L 3047 0 
L 2419 0 
L 2419 1100 
L 313 1100 
L 313 1709 
L 2253 4666 
z
" transform="scale(0.015625)"/>
       </defs>
       <use xlink:href="#DejaVuSans-34"/>
       <use xlink:href="#DejaVuSans-30" x="63.623047"/>
       <use xlink:href="#DejaVuSans-2e" x="127.246094"/>
       <use xlink:href="#DejaVuSans-31" x="159.033203"/>
       <use xlink:href="#DejaVuSans-37" x="222.65625"/>
      </g>
     </g>
    </g>
    <g id="xtick_8">
     <g id="line2d_15">
      <path d="M 346.494692 384.48 
L 346.494692 51.84 
" clip-path="url(#pdca664fe87)" style="fill: none; stroke: #b0b0b0; stroke-width: 0.8; stroke-linecap: square"/>
     </g>
     <g id="line2d_16">
      <g>
       <use xlink:href="#m26f51ad703" x="346.494692" y="384.48" style="stroke: #000000; stroke-width: 0.8"/>
      </g>
     </g>
     <g id="text_8">
      <!-- 46.83 -->
      <g transform="translate(332.180629 399.078438) scale(0.1 -0.1)">
       <use xlink:href="#DejaVuSans-34"/>
       <use xlink:href="#DejaVuSans-36" x="63.623047"/>
       <use xlink:href="#DejaVuSans-2e" x="127.246094"/>
       <use xlink:href="#DejaVuSans-38" x="159.033203"/>
       <use xlink:href="#DejaVuSans-33" x="222.65625"/>
      </g>
     </g>
    </g>
    <g id="xtick_9">
     <g id="line2d_17">
      <path d="M 382.809518 384.48 
L 382.809518 51.84 
" clip-path="url(#pdca664fe87)" style="fill: none; stroke: #b0b0b0; stroke-width: 0.8; stroke-linecap: square"/>
     </g>
     <g id="line2d_18">
      <g>
       <use xlink:href="#m26f51ad703" x="382.809518" y="384.48" style="stroke: #000000; stroke-width: 0.8"/>
      </g>
     </g>
     <g id="text_9">
      <!-- 53.5 -->
      <g transform="translate(371.676705 399.078438) scale(0.1 -0.1)">
       <use xlink:href="#DejaVuSans-35"/>
       <use xlink:href="#DejaVuSans-33" x="63.623047"/>
       <use xlink:href="#DejaVuSans-2e" x="127.246094"/>
       <use xlink:href="#DejaVuSans-35" x="159.033203"/>
      </g>
     </g>
    </g>
    <g id="xtick_10">
     <g id="line2d_19">
      <path d="M 419.124344 384.48 
L 419.124344 51.84 
" clip-path="url(#pdca664fe87)" style="fill: none; stroke: #b0b0b0; stroke-width: 0.8; stroke-linecap: square"/>
     </g>
     <g id="line2d_20">
      <g>
       <use xlink:href="#m26f51ad703" x="419.124344" y="384.48" style="stroke: #000000; stroke-width: 0.8"/>
      </g>
     </g>
     <g id="text_10">
      <!-- 60.17 -->
      <g transform="translate(404.810282 399.078438) scale(0.1 -0.1)">
       <use xlink:href="#DejaVuSans-36"/>
       <use xlink:href="#DejaVuSans-30" x="63.623047"/>
       <use xlink:href="#DejaVuSans-2e" x="127.246094"/>
       <use xlink:href="#DejaVuSans-31" x="159.033203"/>
       <use xlink:href="#DejaVuSans-37" x="222.65625"/>
      </g>
     </g>
    </g>
    <g id="xtick_11">
     <g id="line2d_21">
      <path d="M 455.43917 384.48 
L 455.43917 51.84 
" clip-path="url(#pdca664fe87)" style="fill: none; stroke: #b0b0b0; stroke-width: 0.8; stroke-linecap: square"/>
     </g>
     <g id="line2d_22">
      <g>
       <use xlink:href="#m26f51ad703" x="455.43917" y="384.48" style="stroke: #000000; stroke-width: 0.8"/>
      </g>
     </g>
     <g id="text_11">
      <!-- 66.83 -->
      <g transform="translate(441.125108 399.078438) scale(0.1 -0.1)">
       <use xlink:href="#DejaVuSans-36"/>
       <use xlink:href="#DejaVuSans-36" x="63.623047"/>
       <use xlink:href="#DejaVuSans-2e" x="127.246094"/>
       <use xlink:href="#DejaVuSans-38" x="159.033203"/>
       <use xlink:href="#DejaVuSans-33" x="222.65625"/>
      </g>
     </g>
    </g>
    <g id="xtick_12">
     <g id="line2d_23">
      <path d="M 491.753996 384.48 
L 491.753996 51.84 
" clip-path="url(#pdca664fe87)" style="fill: none; stroke: #b0b0b0; stroke-width: 0.8; stroke-linecap: square"/>
     </g>
     <g id="line2d_24">
      <g>
       <use xlink:href="#m26f51ad703" x="491.753996" y="384.48" style="stroke: #000000; stroke-width: 0.8"/>
      </g>
     </g>
     <g id="text_12">
      <!-- 73.5 -->
      <g transform="translate(480.621184 399.078438) scale(0.1 -0.1)">
       <use xlink:href="#DejaVuSans-37"/>
       <use xlink:href="#DejaVuSans-33" x="63.623047"/>
       <use xlink:href="#DejaVuSans-2e" x="127.246094"/>
       <use xlink:href="#DejaVuSans-35" x="159.033203"/>
      </g>
     </g>
    </g>
    <g id="text_13">
     <!-- time in hours [h] -->
     <g transform="translate(253.451562 412.756563) scale(0.1 -0.1)">
      <defs>
       <path id="DejaVuSans-74" d="M 1172 4494 
L 1172 3500 
L 2356 3500 
L 2356 3053 
L 1172 3053 
L 1172 1153 
Q 1172 725 1289 603 
Q 1406 481 1766 481 
L 2356 481 
L 2356 0 
L 1766 0 
Q 1100 0 847 248 
Q 594 497 594 1153 
L 594 3053 
L 172 3053 
L 172 3500 
L 594 3500 
L 594 4494 
L 1172 4494 
z
" transform="scale(0.015625)"/>
       <path id="DejaVuSans-69" d="M 603 3500 
L 1178 3500 
L 1178 0 
L 603 0 
L 603 3500 
z
M 603 4863 
L 1178 4863 
L 1178 4134 
L 603 4134 
L 603 4863 
z
" transform="scale(0.015625)"/>
       <path id="DejaVuSans-6d" d="M 3328 2828 
Q 3544 3216 3844 3400 
Q 4144 3584 4550 3584 
Q 5097 3584 5394 3201 
Q 5691 2819 5691 2113 
L 5691 0 
L 5113 0 
L 5113 2094 
Q 5113 2597 4934 2840 
Q 4756 3084 4391 3084 
Q 3944 3084 3684 2787 
Q 3425 2491 3425 1978 
L 3425 0 
L 2847 0 
L 2847 2094 
Q 2847 2600 2669 2842 
Q 2491 3084 2119 3084 
Q 1678 3084 1418 2786 
Q 1159 2488 1159 1978 
L 1159 0 
L 581 0 
L 581 3500 
L 1159 3500 
L 1159 2956 
Q 1356 3278 1631 3431 
Q 1906 3584 2284 3584 
Q 2666 3584 2933 3390 
Q 3200 3197 3328 2828 
z
" transform="scale(0.015625)"/>
       <path id="DejaVuSans-65" d="M 3597 1894 
L 3597 1613 
L 953 1613 
Q 991 1019 1311 708 
Q 1631 397 2203 397 
Q 2534 397 2845 478 
Q 3156 559 3463 722 
L 3463 178 
Q 3153 47 2828 -22 
Q 2503 -91 2169 -91 
Q 1331 -91 842 396 
Q 353 884 353 1716 
Q 353 2575 817 3079 
Q 1281 3584 2069 3584 
Q 2775 3584 3186 3129 
Q 3597 2675 3597 1894 
z
M 3022 2063 
Q 3016 2534 2758 2815 
Q 2500 3097 2075 3097 
Q 1594 3097 1305 2825 
Q 1016 2553 972 2059 
L 3022 2063 
z
" transform="scale(0.015625)"/>
       <path id="DejaVuSans-20" transform="scale(0.015625)"/>
       <path id="DejaVuSans-6e" d="M 3513 2113 
L 3513 0 
L 2938 0 
L 2938 2094 
Q 2938 2591 2744 2837 
Q 2550 3084 2163 3084 
Q 1697 3084 1428 2787 
Q 1159 2491 1159 1978 
L 1159 0 
L 581 0 
L 581 3500 
L 1159 3500 
L 1159 2956 
Q 1366 3272 1645 3428 
Q 1925 3584 2291 3584 
Q 2894 3584 3203 3211 
Q 3513 2838 3513 2113 
z
" transform="scale(0.015625)"/>
       <path id="DejaVuSans-68" d="M 3513 2113 
L 3513 0 
L 2938 0 
L 2938 2094 
Q 2938 2591 2744 2837 
Q 2550 3084 2163 3084 
Q 1697 3084 1428 2787 
Q 1159 2491 1159 1978 
L 1159 0 
L 581 0 
L 581 4863 
L 1159 4863 
L 1159 2956 
Q 1366 3272 1645 3428 
Q 1925 3584 2291 3584 
Q 2894 3584 3203 3211 
Q 3513 2838 3513 2113 
z
" transform="scale(0.015625)"/>
       <path id="DejaVuSans-6f" d="M 1959 3097 
Q 1497 3097 1228 2736 
Q 959 2375 959 1747 
Q 959 1119 1226 758 
Q 1494 397 1959 397 
Q 2419 397 2687 759 
Q 2956 1122 2956 1747 
Q 2956 2369 2687 2733 
Q 2419 3097 1959 3097 
z
M 1959 3584 
Q 2709 3584 3137 3096 
Q 3566 2609 3566 1747 
Q 3566 888 3137 398 
Q 2709 -91 1959 -91 
Q 1206 -91 779 398 
Q 353 888 353 1747 
Q 353 2609 779 3096 
Q 1206 3584 1959 3584 
z
" transform="scale(0.015625)"/>
       <path id="DejaVuSans-75" d="M 544 1381 
L 544 3500 
L 1119 3500 
L 1119 1403 
Q 1119 906 1312 657 
Q 1506 409 1894 409 
Q 2359 409 2629 706 
Q 2900 1003 2900 1516 
L 2900 3500 
L 3475 3500 
L 3475 0 
L 2900 0 
L 2900 538 
Q 2691 219 2414 64 
Q 2138 -91 1772 -91 
Q 1169 -91 856 284 
Q 544 659 544 1381 
z
M 1991 3584 
L 1991 3584 
z
" transform="scale(0.015625)"/>
       <path id="DejaVuSans-72" d="M 2631 2963 
Q 2534 3019 2420 3045 
Q 2306 3072 2169 3072 
Q 1681 3072 1420 2755 
Q 1159 2438 1159 1844 
L 1159 0 
L 581 0 
L 581 3500 
L 1159 3500 
L 1159 2956 
Q 1341 3275 1631 3429 
Q 1922 3584 2338 3584 
Q 2397 3584 2469 3576 
Q 2541 3569 2628 3553 
L 2631 2963 
z
" transform="scale(0.015625)"/>
       <path id="DejaVuSans-73" d="M 2834 3397 
L 2834 2853 
Q 2591 2978 2328 3040 
Q 2066 3103 1784 3103 
Q 1356 3103 1142 2972 
Q 928 2841 928 2578 
Q 928 2378 1081 2264 
Q 1234 2150 1697 2047 
L 1894 2003 
Q 2506 1872 2764 1633 
Q 3022 1394 3022 966 
Q 3022 478 2636 193 
Q 2250 -91 1575 -91 
Q 1294 -91 989 -36 
Q 684 19 347 128 
L 347 722 
Q 666 556 975 473 
Q 1284 391 1588 391 
Q 1994 391 2212 530 
Q 2431 669 2431 922 
Q 2431 1156 2273 1281 
Q 2116 1406 1581 1522 
L 1381 1569 
Q 847 1681 609 1914 
Q 372 2147 372 2553 
Q 372 3047 722 3315 
Q 1072 3584 1716 3584 
Q 2034 3584 2315 3537 
Q 2597 3491 2834 3397 
z
" transform="scale(0.015625)"/>
       <path id="DejaVuSans-5b" d="M 550 4863 
L 1875 4863 
L 1875 4416 
L 1125 4416 
L 1125 -397 
L 1875 -397 
L 1875 -844 
L 550 -844 
L 550 4863 
z
" transform="scale(0.015625)"/>
       <path id="DejaVuSans-5d" d="M 1947 4863 
L 1947 -844 
L 622 -844 
L 622 -397 
L 1369 -397 
L 1369 4416 
L 622 4416 
L 622 4863 
L 1947 4863 
z
" transform="scale(0.015625)"/>
      </defs>
      <use xlink:href="#DejaVuSans-74"/>
      <use xlink:href="#DejaVuSans-69" x="39.208984"/>
      <use xlink:href="#DejaVuSans-6d" x="66.992188"/>
      <use xlink:href="#DejaVuSans-65" x="164.404297"/>
      <use xlink:href="#DejaVuSans-20" x="225.927734"/>
      <use xlink:href="#DejaVuSans-69" x="257.714844"/>
      <use xlink:href="#DejaVuSans-6e" x="285.498047"/>
      <use xlink:href="#DejaVuSans-20" x="348.876953"/>
      <use xlink:href="#DejaVuSans-68" x="380.664062"/>
      <use xlink:href="#DejaVuSans-6f" x="444.042969"/>
      <use xlink:href="#DejaVuSans-75" x="505.224609"/>
      <use xlink:href="#DejaVuSans-72" x="568.603516"/>
      <use xlink:href="#DejaVuSans-73" x="609.716797"/>
      <use xlink:href="#DejaVuSans-20" x="661.816406"/>
      <use xlink:href="#DejaVuSans-5b" x="693.603516"/>
      <use xlink:href="#DejaVuSans-68" x="732.617188"/>
      <use xlink:href="#DejaVuSans-5d" x="795.996094"/>
     </g>
    </g>
   </g>
   <g id="matplotlib.axis_2">
    <g id="ytick_1">
     <g id="line2d_25">
      <path d="M 72 363.69 
L 518.4 363.69 
" clip-path="url(#pdca664fe87)" style="fill: none; stroke: #b0b0b0; stroke-width: 0.8; stroke-linecap: square"/>
     </g>
     <g id="line2d_26">
      <defs>
       <path id="mc38adf1cd8" d="M 0 0 
L -3.5 0 
" style="stroke: #000000; stroke-width: 0.8"/>
      </defs>
      <g>
       <use xlink:href="#mc38adf1cd8" x="72" y="363.69" style="stroke: #000000; stroke-width: 0.8"/>
      </g>
     </g>
     <g id="text_14">
      <!-- 0.0 -->
      <g transform="translate(49.096875 367.489219) scale(0.1 -0.1)">
       <use xlink:href="#DejaVuSans-30"/>
       <use xlink:href="#DejaVuSans-2e" x="63.623047"/>
       <use xlink:href="#DejaVuSans-30" x="95.410156"/>
      </g>
     </g>
    </g>
    <g id="ytick_2">
     <g id="line2d_27">
      <path d="M 72 311.715 
L 518.4 311.715 
" clip-path="url(#pdca664fe87)" style="fill: none; stroke: #b0b0b0; stroke-width: 0.8; stroke-linecap: square"/>
     </g>
     <g id="line2d_28">
      <g>
       <use xlink:href="#mc38adf1cd8" x="72" y="311.715" style="stroke: #000000; stroke-width: 0.8"/>
      </g>
     </g>
     <g id="text_15">
      <!-- 0.5 -->
      <g transform="translate(49.096875 315.514219) scale(0.1 -0.1)">
       <use xlink:href="#DejaVuSans-30"/>
       <use xlink:href="#DejaVuSans-2e" x="63.623047"/>
       <use xlink:href="#DejaVuSans-35" x="95.410156"/>
      </g>
     </g>
    </g>
    <g id="ytick_3">
     <g id="line2d_29">
      <path d="M 72 259.74 
L 518.4 259.74 
" clip-path="url(#pdca664fe87)" style="fill: none; stroke: #b0b0b0; stroke-width: 0.8; stroke-linecap: square"/>
     </g>
     <g id="line2d_30">
      <g>
       <use xlink:href="#mc38adf1cd8" x="72" y="259.74" style="stroke: #000000; stroke-width: 0.8"/>
      </g>
     </g>
     <g id="text_16">
      <!-- 1.0 -->
      <g transform="translate(49.096875 263.539219) scale(0.1 -0.1)">
       <use xlink:href="#DejaVuSans-31"/>
       <use xlink:href="#DejaVuSans-2e" x="63.623047"/>
       <use xlink:href="#DejaVuSans-30" x="95.410156"/>
      </g>
     </g>
    </g>
    <g id="ytick_4">
     <g id="line2d_31">
      <path d="M 72 207.765 
L 518.4 207.765 
" clip-path="url(#pdca664fe87)" style="fill: none; stroke: #b0b0b0; stroke-width: 0.8; stroke-linecap: square"/>
     </g>
     <g id="line2d_32">
      <g>
       <use xlink:href="#mc38adf1cd8" x="72" y="207.765" style="stroke: #000000; stroke-width: 0.8"/>
      </g>
     </g>
     <g id="text_17">
      <!-- 1.5 -->
      <g transform="translate(49.096875 211.564219) scale(0.1 -0.1)">
       <use xlink:href="#DejaVuSans-31"/>
       <use xlink:href="#DejaVuSans-2e" x="63.623047"/>
       <use xlink:href="#DejaVuSans-35" x="95.410156"/>
      </g>
     </g>
    </g>
    <g id="ytick_5">
     <g id="line2d_33">
      <path d="M 72 155.79 
L 518.4 155.79 
" clip-path="url(#pdca664fe87)" style="fill: none; stroke: #b0b0b0; stroke-width: 0.8; stroke-linecap: square"/>
     </g>
     <g id="line2d_34">
      <g>
       <use xlink:href="#mc38adf1cd8" x="72" y="155.79" style="stroke: #000000; stroke-width: 0.8"/>
      </g>
     </g>
     <g id="text_18">
      <!-- 2.0 -->
      <g transform="translate(49.096875 159.589219) scale(0.1 -0.1)">
       <use xlink:href="#DejaVuSans-32"/>
       <use xlink:href="#DejaVuSans-2e" x="63.623047"/>
       <use xlink:href="#DejaVuSans-30" x="95.410156"/>
      </g>
     </g>
    </g>
    <g id="ytick_6">
     <g id="line2d_35">
      <path d="M 72 103.815 
L 518.4 103.815 
" clip-path="url(#pdca664fe87)" style="fill: none; stroke: #b0b0b0; stroke-width: 0.8; stroke-linecap: square"/>
     </g>
     <g id="line2d_36">
      <g>
       <use xlink:href="#mc38adf1cd8" x="72" y="103.815" style="stroke: #000000; stroke-width: 0.8"/>
      </g>
     </g>
     <g id="text_19">
      <!-- 2.5 -->
      <g transform="translate(49.096875 107.614219) scale(0.1 -0.1)">
       <use xlink:href="#DejaVuSans-32"/>
       <use xlink:href="#DejaVuSans-2e" x="63.623047"/>
       <use xlink:href="#DejaVuSans-35" x="95.410156"/>
      </g>
     </g>
    </g>
    <g id="ytick_7">
     <g id="line2d_37">
      <path d="M 72 51.84 
L 518.4 51.84 
" clip-path="url(#pdca664fe87)" style="fill: none; stroke: #b0b0b0; stroke-width: 0.8; stroke-linecap: square"/>
     </g>
     <g id="line2d_38">
      <g>
       <use xlink:href="#mc38adf1cd8" x="72" y="51.84" style="stroke: #000000; stroke-width: 0.8"/>
      </g>
     </g>
     <g id="text_20">
      <!-- 3.0 -->
      <g transform="translate(49.096875 55.639219) scale(0.1 -0.1)">
       <use xlink:href="#DejaVuSans-33"/>
       <use xlink:href="#DejaVuSans-2e" x="63.623047"/>
       <use xlink:href="#DejaVuSans-30" x="95.410156"/>
      </g>
     </g>
    </g>
    <g id="text_21">
     <!-- blank corrected OD600 -->
     <g transform="translate(43.017187 276.115469) rotate(-90) scale(0.1 -0.1)">
      <defs>
       <path id="DejaVuSans-62" d="M 3116 1747 
Q 3116 2381 2855 2742 
Q 2594 3103 2138 3103 
Q 1681 3103 1420 2742 
Q 1159 2381 1159 1747 
Q 1159 1113 1420 752 
Q 1681 391 2138 391 
Q 2594 391 2855 752 
Q 3116 1113 3116 1747 
z
M 1159 2969 
Q 1341 3281 1617 3432 
Q 1894 3584 2278 3584 
Q 2916 3584 3314 3078 
Q 3713 2572 3713 1747 
Q 3713 922 3314 415 
Q 2916 -91 2278 -91 
Q 1894 -91 1617 61 
Q 1341 213 1159 525 
L 1159 0 
L 581 0 
L 581 4863 
L 1159 4863 
L 1159 2969 
z
" transform="scale(0.015625)"/>
       <path id="DejaVuSans-6c" d="M 603 4863 
L 1178 4863 
L 1178 0 
L 603 0 
L 603 4863 
z
" transform="scale(0.015625)"/>
       <path id="DejaVuSans-61" d="M 2194 1759 
Q 1497 1759 1228 1600 
Q 959 1441 959 1056 
Q 959 750 1161 570 
Q 1363 391 1709 391 
Q 2188 391 2477 730 
Q 2766 1069 2766 1631 
L 2766 1759 
L 2194 1759 
z
M 3341 1997 
L 3341 0 
L 2766 0 
L 2766 531 
Q 2569 213 2275 61 
Q 1981 -91 1556 -91 
Q 1019 -91 701 211 
Q 384 513 384 1019 
Q 384 1609 779 1909 
Q 1175 2209 1959 2209 
L 2766 2209 
L 2766 2266 
Q 2766 2663 2505 2880 
Q 2244 3097 1772 3097 
Q 1472 3097 1187 3025 
Q 903 2953 641 2809 
L 641 3341 
Q 956 3463 1253 3523 
Q 1550 3584 1831 3584 
Q 2591 3584 2966 3190 
Q 3341 2797 3341 1997 
z
" transform="scale(0.015625)"/>
       <path id="DejaVuSans-6b" d="M 581 4863 
L 1159 4863 
L 1159 1991 
L 2875 3500 
L 3609 3500 
L 1753 1863 
L 3688 0 
L 2938 0 
L 1159 1709 
L 1159 0 
L 581 0 
L 581 4863 
z
" transform="scale(0.015625)"/>
       <path id="DejaVuSans-63" d="M 3122 3366 
L 3122 2828 
Q 2878 2963 2633 3030 
Q 2388 3097 2138 3097 
Q 1578 3097 1268 2742 
Q 959 2388 959 1747 
Q 959 1106 1268 751 
Q 1578 397 2138 397 
Q 2388 397 2633 464 
Q 2878 531 3122 666 
L 3122 134 
Q 2881 22 2623 -34 
Q 2366 -91 2075 -91 
Q 1284 -91 818 406 
Q 353 903 353 1747 
Q 353 2603 823 3093 
Q 1294 3584 2113 3584 
Q 2378 3584 2631 3529 
Q 2884 3475 3122 3366 
z
" transform="scale(0.015625)"/>
       <path id="DejaVuSans-64" d="M 2906 2969 
L 2906 4863 
L 3481 4863 
L 3481 0 
L 2906 0 
L 2906 525 
Q 2725 213 2448 61 
Q 2172 -91 1784 -91 
Q 1150 -91 751 415 
Q 353 922 353 1747 
Q 353 2572 751 3078 
Q 1150 3584 1784 3584 
Q 2172 3584 2448 3432 
Q 2725 3281 2906 2969 
z
M 947 1747 
Q 947 1113 1208 752 
Q 1469 391 1925 391 
Q 2381 391 2643 752 
Q 2906 1113 2906 1747 
Q 2906 2381 2643 2742 
Q 2381 3103 1925 3103 
Q 1469 3103 1208 2742 
Q 947 2381 947 1747 
z
" transform="scale(0.015625)"/>
       <path id="DejaVuSans-4f" d="M 2522 4238 
Q 1834 4238 1429 3725 
Q 1025 3213 1025 2328 
Q 1025 1447 1429 934 
Q 1834 422 2522 422 
Q 3209 422 3611 934 
Q 4013 1447 4013 2328 
Q 4013 3213 3611 3725 
Q 3209 4238 2522 4238 
z
M 2522 4750 
Q 3503 4750 4090 4092 
Q 4678 3434 4678 2328 
Q 4678 1225 4090 567 
Q 3503 -91 2522 -91 
Q 1538 -91 948 565 
Q 359 1222 359 2328 
Q 359 3434 948 4092 
Q 1538 4750 2522 4750 
z
" transform="scale(0.015625)"/>
       <path id="DejaVuSans-44" d="M 1259 4147 
L 1259 519 
L 2022 519 
Q 2988 519 3436 956 
Q 3884 1394 3884 2338 
Q 3884 3275 3436 3711 
Q 2988 4147 2022 4147 
L 1259 4147 
z
M 628 4666 
L 1925 4666 
Q 3281 4666 3915 4102 
Q 4550 3538 4550 2338 
Q 4550 1131 3912 565 
Q 3275 0 1925 0 
L 628 0 
L 628 4666 
z
" transform="scale(0.015625)"/>
      </defs>
      <use xlink:href="#DejaVuSans-62"/>
      <use xlink:href="#DejaVuSans-6c" x="63.476562"/>
      <use xlink:href="#DejaVuSans-61" x="91.259766"/>
      <use xlink:href="#DejaVuSans-6e" x="152.539062"/>
      <use xlink:href="#DejaVuSans-6b" x="215.917969"/>
      <use xlink:href="#DejaVuSans-20" x="273.828125"/>
      <use xlink:href="#DejaVuSans-63" x="305.615234"/>
      <use xlink:href="#DejaVuSans-6f" x="360.595703"/>
      <use xlink:href="#DejaVuSans-72" x="421.777344"/>
      <use xlink:href="#DejaVuSans-72" x="461.140625"/>
      <use xlink:href="#DejaVuSans-65" x="500.003906"/>
      <use xlink:href="#DejaVuSans-63" x="561.527344"/>
      <use xlink:href="#DejaVuSans-74" x="616.507812"/>
      <use xlink:href="#DejaVuSans-65" x="655.716797"/>
      <use xlink:href="#DejaVuSans-64" x="717.240234"/>
      <use xlink:href="#DejaVuSans-20" x="780.716797"/>
      <use xlink:href="#DejaVuSans-4f" x="812.503906"/>
      <use xlink:href="#DejaVuSans-44" x="891.214844"/>
      <use xlink:href="#DejaVuSans-36" x="968.216797"/>
      <use xlink:href="#DejaVuSans-30" x="1031.839844"/>
      <use xlink:href="#DejaVuSans-30" x="1095.462891"/>
     </g>
    </g>
   </g>
   <g id="line2d_39">
    <path d="M 92.290909 361.222227 
L 93.19878 366.835527 
L 94.10665 366.731577 
L 95.014521 366.835527 
L 95.922392 366.627627 
L 96.830262 366.835527 
L 97.738133 366.523677 
L 98.646004 366.939477 
L 99.553874 366.731577 
L 100.461745 366.835527 
L 103.185357 366.419727 
L 104.093228 366.731577 
L 105.001098 366.523677 
L 105.908969 366.627627 
L 106.81684 366.523677 
L 107.72471 366.939477 
L 108.632581 367.043427 
L 109.540451 366.835527 
L 111.356193 367.043427 
L 113.171934 366.731577 
L 114.079805 366.731577 
L 115.895546 367.043427 
L 116.803417 366.523677 
L 120.434899 366.835527 
L 121.34277 366.835527 
L 124.066382 366.107877 
L 124.974253 365.692077 
L 125.882123 366.107877 
L 126.789994 366.003927 
L 127.697865 366.107877 
L 128.605735 366.003927 
L 129.513606 366.419727 
L 130.421477 366.003927 
L 131.329347 366.107877 
L 132.237218 366.419727 
L 133.145088 366.523677 
L 134.052959 366.211827 
L 134.96083 366.107877 
L 135.8687 366.523677 
L 136.776571 366.211827 
L 137.684442 365.484177 
L 139.500183 365.172327 
L 140.408054 364.652577 
L 141.315924 364.340727 
L 142.223795 364.340727 
L 144.947407 365.068377 
L 145.855278 364.756527 
L 146.763148 365.068377 
L 149.48676 365.276277 
L 152.210372 364.548627 
L 154.026113 363.820977 
L 155.841855 363.093327 
L 156.749725 363.093327 
L 157.657596 362.469627 
L 158.565467 362.365677 
L 159.473337 362.469627 
L 160.381208 362.781477 
L 162.196949 362.885427 
L 164.012691 363.405177 
L 165.828432 363.093327 
L 166.736303 363.301227 
L 167.644173 363.093327 
L 168.552044 362.573577 
L 169.459915 362.469627 
L 170.367785 362.157777 
L 172.183527 361.014327 
L 173.091397 360.390627 
L 175.815009 360.390627 
L 176.72288 360.702477 
L 177.63075 360.390627 
L 178.538621 360.702477 
L 179.446492 360.494577 
L 181.262233 360.598527 
L 182.170104 360.910377 
L 183.985845 360.702477 
L 184.893716 360.390627 
L 186.709457 361.118277 
L 187.617328 361.326177 
L 188.525198 360.806427 
L 189.433069 360.910377 
L 191.24881 360.598527 
L 192.156681 360.806427 
L 193.064552 360.390627 
L 193.972422 360.702477 
L 194.880293 360.182727 
L 195.788164 360.390627 
L 196.696034 359.974827 
L 197.603905 359.870877 
L 198.511775 359.039277 
L 200.327517 358.311627 
L 202.143258 357.064227 
L 203.051129 357.480027 
L 203.958999 356.856327 
L 204.86687 356.440527 
L 205.774741 356.856327 
L 206.682611 356.232627 
L 207.590482 356.440527 
L 209.406223 356.440527 
L 210.314094 356.024727 
L 212.129835 356.648427 
L 213.037706 356.232627 
L 213.945577 356.128677 
L 214.853447 355.712877 
L 215.761318 355.608927 
L 216.669189 355.193127 
L 217.577059 354.985227 
L 218.48493 353.945727 
L 219.3928 353.841777 
L 220.300671 352.594377 
L 221.208542 351.970677 
L 225.747895 350.515377 
L 226.655766 350.931177 
L 227.563636 351.035127 
L 228.471507 349.891677 
L 231.195119 349.267977 
L 232.10299 348.540327 
L 233.01086 348.436377 
L 233.918731 347.604777 
L 234.826602 346.981077 
L 235.734472 346.669227 
L 236.642343 346.045527 
L 237.550214 344.798127 
L 238.458084 343.758627 
L 239.365955 343.446777 
L 240.273826 342.303327 
L 241.181696 341.783577 
L 242.997437 341.263827 
L 243.905308 340.536177 
L 244.813179 340.744077 
L 245.721049 339.704577 
L 246.62892 339.184827 
L 247.536791 339.288777 
L 248.444661 338.769027 
L 250.260403 337.209777 
L 251.168273 336.482127 
L 252.076144 335.338677 
L 252.984015 334.922877 
L 253.891885 333.883377 
L 254.799756 332.220177 
L 255.707627 331.076727 
L 256.615497 330.868827 
L 257.523368 329.309577 
L 258.431239 328.789827 
L 260.24698 327.334527 
L 261.154851 326.814777 
L 262.062721 326.502927 
L 262.970592 325.567377 
L 264.786333 323.384427 
L 265.694204 322.864677 
L 266.602074 322.033077 
L 267.509945 320.993577 
L 268.417816 319.538277 
L 269.325686 318.706677 
L 271.141428 315.172377 
L 272.049298 313.509177 
L 273.86504 312.053877 
L 275.680781 309.766977 
L 276.588652 308.415627 
L 277.496522 307.584027 
L 278.404393 306.440577 
L 279.312264 305.089227 
L 280.220134 303.945777 
L 281.128005 303.010227 
L 282.035876 301.866777 
L 282.943746 300.099627 
L 283.851617 298.748277 
L 285.667358 295.525827 
L 286.575229 293.342877 
L 288.39097 289.808577 
L 291.114582 286.378227 
L 292.022453 284.818977 
L 292.930323 284.195277 
L 294.746065 281.700477 
L 295.653935 281.388627 
L 296.561806 279.829377 
L 297.469677 278.997777 
L 300.193289 275.359527 
L 301.101159 273.592377 
L 302.00903 272.137077 
L 302.916901 267.563277 
L 303.824771 268.186977 
L 304.732642 266.731677 
L 305.640513 264.860577 
L 307.456254 262.469727 
L 308.364124 261.949977 
L 309.271995 260.702577 
L 310.179866 259.870977 
L 311.087736 259.455177 
L 311.995607 257.895927 
L 312.903478 256.960377 
L 313.811348 256.232727 
L 314.719219 254.257677 
L 315.62709 253.426077 
L 316.53496 250.203627 
L 317.442831 250.099677 
L 318.350702 249.164127 
L 319.258572 247.500927 
L 320.166443 246.565377 
L 321.074314 245.317977 
L 321.982184 244.590327 
L 322.890055 242.095527 
L 323.797926 241.679727 
L 324.705796 241.575777 
L 325.613667 240.016527 
L 326.521538 237.625677 
L 327.429408 237.833577 
L 328.337279 236.898027 
L 329.245149 236.690127 
L 330.15302 234.819027 
L 331.060891 232.636077 
L 331.968761 231.804477 
L 332.876632 230.037327 
L 334.692373 228.374127 
L 335.600244 226.606977 
L 336.508115 225.983277 
L 337.415985 223.904277 
L 338.323856 224.424027 
L 339.231727 223.800327 
L 340.139597 224.216127 
L 341.047468 222.656877 
L 341.955339 222.864777 
L 342.863209 221.721327 
L 343.77108 220.993677 
L 344.678951 221.097627 
L 345.586821 220.993677 
L 346.494692 219.122577 
L 347.402563 219.018627 
L 348.310433 217.979127 
L 349.218304 217.147527 
L 350.126174 213.925077 
L 351.034045 215.692227 
L 352.849786 212.261877 
L 353.757657 212.885577 
L 355.573398 212.157927 
L 356.481269 211.950027 
L 357.38914 211.326327 
L 358.29701 210.182877 
L 359.204881 210.702627 
L 360.112752 210.494727 
L 361.020622 209.663127 
L 361.928493 209.455227 
L 362.836364 208.935477 
L 364.652105 208.727577 
L 365.559976 208.311777 
L 366.467846 207.168327 
L 367.375717 203.426127 
L 368.283588 205.713027 
L 369.191458 204.777477 
L 370.099329 203.634027 
L 371.0072 201.970827 
L 371.91507 202.282677 
L 372.822941 203.322177 
L 373.730811 199.891827 
L 374.638682 201.866877 
L 375.546553 201.451077 
L 376.454423 201.555027 
L 377.362294 200.307627 
L 378.270165 197.189127 
L 379.178035 200.099727 
L 380.085906 200.411577 
L 380.993777 199.164177 
L 381.901647 200.307627 
L 382.809518 198.436527 
L 383.717389 197.500977 
L 384.625259 199.268127 
L 385.53313 198.332577 
L 386.441001 196.565427 
L 387.348871 197.293077 
L 388.256742 194.382477 
L 389.164613 194.902227 
L 390.072483 192.095577 
L 390.980354 190.952127 
L 391.888225 190.640277 
L 392.796095 192.719277 
L 393.703966 188.873127 
L 394.611836 192.303477 
L 396.427578 193.239027 
L 397.335448 192.823227 
L 398.243319 188.665227 
L 399.15119 191.471877 
L 400.05906 192.199527 
L 400.966931 191.991627 
L 402.782672 191.160027 
L 403.690543 191.367927 
L 404.598414 187.937577 
L 405.506284 190.120527 
L 406.414155 188.665227 
L 407.322026 188.561277 
L 408.229896 190.328427 
L 410.045638 188.977077 
L 410.953508 187.833627 
L 411.861379 188.353377 
L 412.76925 185.650677 
L 413.67712 186.898077 
L 414.584991 185.234877 
L 415.492862 184.923027 
L 416.400732 185.026977 
L 417.308603 183.883527 
L 418.216473 183.675627 
L 419.124344 184.923027 
L 420.032215 183.155877 
L 420.940085 184.507227 
L 421.847956 184.403277 
L 422.755827 179.829477 
L 423.663697 184.611177 
L 424.571568 183.883527 
L 425.479439 183.675627 
L 426.387309 184.403277 
L 427.29518 180.765027 
L 428.203051 183.987477 
L 429.110921 182.012427 
L 430.018792 183.259827 
L 430.926663 180.868977 
L 431.834533 182.220327 
L 432.742404 183.987477 
L 433.650275 181.596627 
L 434.558145 183.883527 
L 435.466016 175.775427 
L 436.373887 182.636127 
L 437.281757 180.557127 
L 438.189628 178.893927 
L 439.097498 181.180827 
L 440.005369 178.893927 
L 440.91324 178.582077 
L 441.82111 178.582077 
L 442.728981 178.997877 
L 443.636852 172.864827 
L 444.544722 178.789977 
L 445.452593 180.868977 
L 446.360464 178.478127 
L 447.268334 177.646527 
L 448.176205 177.958377 
L 449.084076 174.839877 
L 449.991946 180.557127 
L 450.899817 175.255677 
L 451.807688 172.552977 
L 452.715558 172.656927 
L 453.623429 176.087277 
L 454.5313 174.943827 
L 455.43917 173.592477 
L 456.347041 175.359627 
L 457.254912 180.557127 
L 458.162782 176.814927 
L 459.070653 181.700577 
L 459.978523 171.409527 
L 460.886394 179.205777 
L 461.794265 175.879377 
L 462.702135 179.933427 
L 463.610006 178.686027 
L 464.517877 174.216177 
L 465.425747 176.087277 
L 466.333618 175.463577 
L 467.241489 169.850277 
L 468.149359 175.359627 
L 469.05723 177.022827 
L 469.965101 181.596627 
L 470.872971 171.409527 
L 471.780842 183.675627 
L 472.688713 181.700577 
L 473.596583 173.904327 
L 474.504454 162.885627 
L 475.412325 172.552977 
L 476.320195 171.825327 
L 477.228066 168.914727 
L 478.135937 168.291027 
L 479.043807 169.538427 
L 479.951678 185.650677 
L 480.859549 172.864827 
L 481.767419 170.162127 
L 482.67529 175.671477 
L 483.58316 175.463577 
L 484.491031 171.721377 
L 485.398902 178.374177 
L 486.306772 171.097677 
L 487.214643 172.345077 
L 488.122514 170.681877 
L 489.030384 178.478127 
L 489.938255 185.026977 
L 490.846126 167.563377 
L 491.753996 173.488527 
L 492.661867 187.105977 
L 493.569738 176.918877 
L 494.477608 187.105977 
L 495.385479 162.469827 
L 496.29335 184.403277 
L 497.20122 169.434477 
L 498.109091 170.577927 
L 498.109091 170.577927 
" clip-path="url(#pdca664fe87)" style="fill: none; stroke: #0000ff; stroke-opacity: 0.5; stroke-width: 1.5; stroke-linecap: square"/>
   </g>
   <g id="line2d_40">
    <path d="M 92.290909 359.974827 
L 93.19878 367.355277 
L 94.10665 367.355277 
L 95.014521 367.563177 
L 97.738133 367.355277 
L 98.646004 367.771077 
L 99.553874 367.251327 
L 100.461745 367.043427 
L 101.369616 367.355277 
L 102.277486 367.459227 
L 103.185357 367.147377 
L 105.001098 367.667127 
L 105.908969 367.251327 
L 106.81684 367.459227 
L 107.72471 367.459227 
L 108.632581 367.667127 
L 109.540451 367.355277 
L 110.448322 367.667127 
L 112.264063 367.459227 
L 113.171934 367.043427 
L 114.079805 367.563177 
L 114.987675 367.459227 
L 115.895546 367.978977 
L 116.803417 367.355277 
L 117.711287 367.563177 
L 118.619158 367.563177 
L 119.527029 367.251327 
L 121.34277 367.563177 
L 122.250641 367.043427 
L 123.158511 366.835527 
L 124.066382 366.419727 
L 124.974253 366.419727 
L 127.697865 365.899977 
L 128.605735 366.211827 
L 129.513606 366.835527 
L 130.421477 366.731577 
L 131.329347 367.251327 
L 133.145088 367.251327 
L 134.052959 366.731577 
L 134.96083 366.731577 
L 135.8687 367.043427 
L 136.776571 366.315777 
L 137.684442 366.211827 
L 140.408054 364.444677 
L 141.315924 364.028877 
L 142.223795 364.028877 
L 143.131666 364.236777 
L 144.947407 364.132827 
L 145.855278 364.132827 
L 146.763148 365.588127 
L 147.671019 365.692077 
L 148.57889 365.484177 
L 149.48676 365.899977 
L 150.394631 365.484177 
L 151.302502 365.380227 
L 152.210372 365.068377 
L 153.118243 364.236777 
L 154.026113 363.820977 
L 154.933984 363.093327 
L 156.749725 362.469627 
L 157.657596 361.845927 
L 158.565467 361.949877 
L 159.473337 361.638027 
L 160.381208 362.157777 
L 161.289079 361.534077 
L 162.196949 361.638027 
L 164.920561 363.405177 
L 165.828432 363.820977 
L 166.736303 363.509127 
L 167.644173 363.613077 
L 170.367785 362.261727 
L 171.275656 361.638027 
L 172.183527 360.806427 
L 173.999268 360.286677 
L 174.907138 359.455077 
L 175.815009 359.559027 
L 179.446492 359.247177 
L 181.262233 358.311627 
L 182.170104 358.831377 
L 183.077974 358.727427 
L 183.985845 359.039277 
L 184.893716 359.662977 
L 186.709457 360.182727 
L 187.617328 360.494577 
L 188.525198 360.494577 
L 189.433069 361.014327 
L 190.34094 360.494577 
L 191.24881 360.286677 
L 192.156681 360.390627 
L 193.064552 359.974827 
L 193.972422 360.078777 
L 194.880293 359.974827 
L 196.696034 359.351127 
L 197.603905 357.999777 
L 198.511775 357.791877 
L 199.419646 357.999777 
L 201.235387 356.232627 
L 202.143258 356.232627 
L 203.051129 355.193127 
L 203.958999 354.777327 
L 204.86687 354.985227 
L 206.682611 354.465477 
L 207.590482 353.945727 
L 208.498353 353.841777 
L 209.406223 353.218077 
L 210.314094 353.425977 
L 211.221965 354.153627 
L 212.129835 354.569427 
L 213.037706 354.673377 
L 213.945577 354.361527 
L 214.853447 354.257577 
L 215.761318 353.841777 
L 216.669189 353.218077 
L 218.48493 352.282527 
L 219.3928 351.658827 
L 220.300671 350.619327 
L 221.208542 350.203527 
L 222.116412 348.748227 
L 223.024283 348.852177 
L 223.932154 348.020577 
L 224.840024 347.812677 
L 225.747895 347.085027 
L 226.655766 346.669227 
L 227.563636 346.981077 
L 228.471507 346.773177 
L 229.379378 346.357377 
L 230.287248 346.461327 
L 231.195119 346.045527 
L 232.10299 346.149477 
L 233.918731 344.278377 
L 236.642343 341.991477 
L 238.458084 339.704577 
L 239.365955 338.872977 
L 240.273826 337.729527 
L 241.181696 337.209777 
L 242.089567 336.897927 
L 242.997437 336.274227 
L 243.905308 335.234727 
L 244.813179 334.507077 
L 245.721049 334.091277 
L 246.62892 333.259677 
L 248.444661 332.532027 
L 249.352532 331.596477 
L 250.260403 331.180677 
L 251.168273 329.725377 
L 252.076144 329.621427 
L 252.984015 328.581927 
L 253.891885 327.230577 
L 254.799756 326.502927 
L 255.707627 324.735777 
L 256.615497 324.216027 
L 257.523368 322.656777 
L 258.431239 321.929127 
L 259.339109 320.473827 
L 260.24698 320.265927 
L 261.154851 318.914577 
L 263.878462 316.107927 
L 264.786333 314.756577 
L 265.694204 313.821027 
L 266.602074 313.197327 
L 267.509945 311.534127 
L 268.417816 311.222277 
L 269.325686 309.351177 
L 270.233557 308.415627 
L 271.141428 306.336627 
L 272.049298 305.089227 
L 273.86504 302.282577 
L 274.77291 302.074677 
L 275.680781 299.268027 
L 276.588652 298.852227 
L 277.496522 297.604827 
L 278.404393 296.149527 
L 279.312264 295.006077 
L 280.220134 293.550777 
L 281.128005 292.511277 
L 282.035876 290.848077 
L 282.943746 290.016477 
L 283.851617 288.353277 
L 286.575229 285.026877 
L 287.483099 282.636027 
L 288.39097 281.804427 
L 290.206711 278.893827 
L 291.114582 277.646427 
L 292.022453 276.191127 
L 292.930323 275.151627 
L 293.838194 274.320027 
L 294.746065 273.176577 
L 295.653935 272.448927 
L 297.469677 269.226477 
L 298.377547 268.706727 
L 299.285418 267.771177 
L 300.193289 266.627727 
L 301.101159 265.276377 
L 302.00903 264.548727 
L 302.916901 262.781577 
L 303.824771 261.638127 
L 304.732642 259.663077 
L 305.640513 258.207777 
L 306.548383 257.376177 
L 309.271995 253.841877 
L 310.179866 252.490527 
L 311.995607 250.411527 
L 312.903478 249.164127 
L 313.811348 248.436477 
L 314.719219 246.669327 
L 315.62709 245.733777 
L 317.442831 243.446877 
L 318.350702 242.615277 
L 319.258572 241.056027 
L 320.166443 240.120477 
L 321.074314 238.769127 
L 323.797926 236.066427 
L 324.705796 234.507177 
L 325.613667 233.675577 
L 326.521538 233.155827 
L 327.429408 231.492627 
L 328.337279 230.972877 
L 329.245149 229.829427 
L 330.15302 229.725477 
L 331.060891 228.582027 
L 332.876632 225.463527 
L 334.692373 223.696377 
L 335.600244 222.656877 
L 336.508115 222.241077 
L 337.415985 221.409477 
L 338.323856 219.642327 
L 340.139597 218.706777 
L 341.047468 217.875177 
L 343.77108 216.211977 
L 344.678951 215.484327 
L 345.586821 214.964577 
L 346.494692 214.236927 
L 347.402563 213.717177 
L 348.310433 212.677677 
L 349.218304 212.053977 
L 350.126174 211.118427 
L 351.034045 210.598677 
L 352.849786 208.519677 
L 353.757657 208.207827 
L 354.665528 207.480177 
L 355.573398 206.544627 
L 356.481269 205.401177 
L 358.29701 205.089327 
L 359.204881 204.673527 
L 360.112752 204.569577 
L 361.020622 203.841927 
L 361.928493 203.634027 
L 362.836364 202.386627 
L 363.744234 202.386627 
L 364.652105 201.658977 
L 366.467846 200.827377 
L 367.375717 199.891827 
L 368.283588 199.787877 
L 369.191458 198.644427 
L 370.099329 198.436527 
L 371.0072 197.604927 
L 371.91507 195.941727 
L 372.822941 196.565427 
L 374.638682 195.214077 
L 375.546553 194.902227 
L 376.454423 194.382477 
L 377.362294 194.486427 
L 378.270165 193.446927 
L 379.178035 190.744227 
L 380.085906 192.407427 
L 380.993777 192.615327 
L 381.901647 191.471877 
L 382.809518 191.887677 
L 383.717389 190.016577 
L 384.625259 191.367927 
L 385.53313 189.600777 
L 386.441001 190.640277 
L 387.348871 190.744227 
L 388.256742 189.496827 
L 389.164613 188.665227 
L 390.072483 188.249427 
L 390.980354 187.417827 
L 391.888225 186.794127 
L 392.796095 185.650677 
L 393.703966 186.794127 
L 394.611836 185.650677 
L 395.519707 185.546727 
L 396.427578 185.234877 
L 397.335448 184.715127 
L 399.15119 184.299327 
L 400.05906 182.740077 
L 400.966931 183.155877 
L 401.874802 183.051927 
L 402.782672 182.012427 
L 403.690543 182.116377 
L 404.598414 181.180827 
L 405.506284 181.388727 
L 406.414155 182.116377 
L 407.322026 180.661077 
L 408.229896 180.972927 
L 409.137767 180.765027 
L 410.045638 179.829477 
L 410.953508 179.621577 
L 411.861379 178.789977 
L 412.76925 179.101827 
L 413.67712 178.789977 
L 414.584991 177.438627 
L 415.492862 176.918877 
L 416.400732 176.710977 
L 417.308603 176.191227 
L 418.216473 175.879377 
L 419.124344 176.503077 
L 420.032215 175.359627 
L 420.940085 175.255677 
L 421.847956 174.839877 
L 422.755827 175.151727 
L 424.571568 172.760877 
L 425.479439 173.904327 
L 426.387309 174.112227 
L 427.29518 170.577927 
L 428.203051 174.008277 
L 429.110921 172.449027 
L 430.018792 172.968777 
L 430.926663 172.552977 
L 431.834533 172.552977 
L 432.742404 171.617427 
L 433.650275 172.449027 
L 434.558145 172.345077 
L 436.373887 170.162127 
L 437.281757 172.345077 
L 438.189628 170.993727 
L 439.097498 171.097677 
L 440.005369 170.889777 
L 440.91324 170.993727 
L 442.728981 168.914727 
L 443.636852 169.746327 
L 444.544722 169.122627 
L 445.452593 169.538427 
L 446.360464 168.187077 
L 447.268334 168.187077 
L 448.176205 166.627827 
L 449.084076 168.602877 
L 449.991946 166.939677 
L 450.899817 167.667327 
L 451.807688 167.563377 
L 452.715558 167.251527 
L 453.623429 167.771277 
L 455.43917 166.523877 
L 456.347041 166.835727 
L 457.254912 165.588327 
L 458.162782 166.835727 
L 459.070653 165.380427 
L 459.978523 166.108077 
L 461.794265 166.212027 
L 462.702135 166.004127 
L 463.610006 164.964627 
L 464.517877 165.484377 
L 465.425747 165.380427 
L 466.333618 165.068577 
L 467.241489 164.964627 
L 468.149359 165.692277 
L 469.965101 164.236977 
L 470.872971 165.172527 
L 472.688713 164.236977 
L 473.596583 164.340927 
L 474.504454 164.860677 
L 475.412325 164.340927 
L 476.320195 164.548827 
L 477.228066 164.236977 
L 478.135937 163.717227 
L 479.043807 164.340927 
L 479.951678 164.236977 
L 480.859549 163.405377 
L 481.767419 163.821177 
L 482.67529 163.613277 
L 483.58316 163.197477 
L 484.491031 162.989577 
L 485.398902 163.509327 
L 487.214643 163.405377 
L 488.122514 163.197477 
L 489.030384 162.677727 
L 489.938255 163.093527 
L 490.846126 162.885627 
L 491.753996 163.301427 
L 493.569738 162.989577 
L 494.477608 162.677727 
L 495.385479 161.846127 
L 496.29335 163.197477 
L 497.20122 162.573777 
L 498.109091 163.509327 
L 498.109091 163.509327 
" clip-path="url(#pdca664fe87)" style="fill: none; stroke: #0000ff; stroke-opacity: 0.5; stroke-width: 1.5; stroke-linecap: square"/>
   </g>
   <g id="line2d_41">
    <path d="M 92.290909 359.766927 
L 93.19878 367.563177 
L 95.922392 367.147377 
L 96.830262 367.459227 
L 97.738133 367.147377 
L 99.553874 367.667127 
L 101.369616 367.355277 
L 102.277486 367.459227 
L 103.185357 367.251327 
L 105.001098 367.355277 
L 107.72471 367.355277 
L 108.632581 367.667127 
L 109.540451 367.667127 
L 110.448322 367.355277 
L 111.356193 367.459227 
L 112.264063 367.355277 
L 114.987675 367.667127 
L 116.803417 367.355277 
L 120.434899 367.875027 
L 121.34277 367.667127 
L 122.250641 367.667127 
L 123.158511 367.147377 
L 124.974253 367.043427 
L 125.882123 366.523677 
L 128.605735 367.355277 
L 129.513606 367.355277 
L 130.421477 366.939477 
L 132.237218 366.835527 
L 133.145088 367.147377 
L 134.052959 367.251327 
L 134.96083 366.731577 
L 135.8687 366.731577 
L 136.776571 366.107877 
L 138.592312 365.899977 
L 139.500183 365.068377 
L 140.408054 364.652577 
L 141.315924 364.652577 
L 142.223795 364.340727 
L 143.131666 365.068377 
L 144.039536 366.211827 
L 144.947407 365.899977 
L 145.855278 366.107877 
L 146.763148 366.107877 
L 147.671019 365.899977 
L 148.57889 366.211827 
L 149.48676 365.692077 
L 152.210372 365.276277 
L 154.026113 363.924927 
L 154.933984 363.613077 
L 155.841855 363.093327 
L 159.473337 362.261727 
L 160.381208 362.781477 
L 161.289079 363.924927 
L 162.196949 364.340727 
L 163.10482 364.340727 
L 164.012691 364.132827 
L 164.920561 363.717027 
L 165.828432 363.509127 
L 166.736303 363.613077 
L 167.644173 363.509127 
L 169.459915 362.989377 
L 172.183527 361.014327 
L 173.091397 360.702477 
L 173.999268 360.078777 
L 174.907138 360.078777 
L 175.815009 359.662977 
L 176.72288 359.559027 
L 177.63075 359.662977 
L 178.538621 360.078777 
L 179.446492 360.702477 
L 180.354362 362.053827 
L 182.170104 361.534077 
L 183.077974 361.222227 
L 183.985845 361.638027 
L 184.893716 361.118277 
L 185.801586 360.910377 
L 186.709457 361.430127 
L 188.525198 360.702477 
L 189.433069 360.494577 
L 191.24881 360.806427 
L 192.156681 360.286677 
L 193.064552 360.494577 
L 194.880293 359.766927 
L 195.788164 359.766927 
L 197.603905 359.039277 
L 198.511775 357.895827 
L 199.419646 357.583977 
L 201.235387 356.336577 
L 202.143258 356.024727 
L 203.051129 355.297077 
L 203.958999 355.297077 
L 205.774741 354.777327 
L 207.590482 355.089177 
L 208.498353 356.544477 
L 211.221965 356.128677 
L 212.129835 355.504977 
L 213.037706 355.193127 
L 213.945577 354.673377 
L 214.853447 354.673377 
L 215.761318 353.841777 
L 216.669189 353.737827 
L 218.48493 352.594377 
L 219.3928 351.658827 
L 220.300671 351.139077 
L 221.208542 349.787727 
L 223.932154 348.956127 
L 224.840024 348.748227 
L 225.747895 349.164027 
L 226.655766 348.748227 
L 227.563636 348.540327 
L 229.379378 347.292927 
L 230.287248 347.188977 
L 231.195119 346.461327 
L 232.10299 345.941577 
L 233.01086 345.109977 
L 233.918731 345.006027 
L 234.826602 344.174427 
L 235.734472 343.134927 
L 237.550214 340.744077 
L 238.458084 340.016427 
L 239.365955 338.665077 
L 240.273826 338.145327 
L 241.181696 337.209777 
L 242.089567 336.897927 
L 242.997437 336.066327 
L 243.905308 335.754477 
L 244.813179 335.650527 
L 245.721049 335.962377 
L 246.62892 336.066327 
L 247.536791 335.650527 
L 248.444661 334.611027 
L 249.352532 334.091277 
L 250.260403 332.532027 
L 251.168273 332.220177 
L 252.076144 330.453027 
L 252.984015 329.621427 
L 255.707627 325.151577 
L 257.523368 323.384427 
L 258.431239 322.448877 
L 259.339109 321.721227 
L 260.24698 320.577777 
L 261.154851 319.954077 
L 262.062721 319.954077 
L 262.970592 319.746177 
L 263.878462 318.706677 
L 264.786333 318.082977 
L 265.694204 316.627677 
L 266.602074 315.484227 
L 268.417816 312.781527 
L 270.233557 309.247227 
L 271.141428 307.480077 
L 274.77291 301.762827 
L 275.680781 301.347027 
L 276.588652 299.787777 
L 277.496522 298.644327 
L 278.404393 298.956177 
L 279.312264 297.500877 
L 280.220134 297.189027 
L 281.128005 296.461377 
L 282.943746 293.862627 
L 286.575229 287.001927 
L 287.483099 285.130827 
L 288.39097 283.675527 
L 289.298841 282.636027 
L 290.206711 281.076777 
L 291.114582 280.141227 
L 292.022453 278.374077 
L 292.930323 278.166177 
L 293.838194 276.814827 
L 295.653935 276.191127 
L 296.561806 276.502977 
L 297.469677 275.567427 
L 299.285418 274.112127 
L 300.193289 272.760777 
L 302.00903 269.122527 
L 302.916901 267.459327 
L 303.824771 265.484277 
L 304.732642 264.236877 
L 305.640513 263.197377 
L 307.456254 260.598627 
L 308.364124 259.351227 
L 309.271995 258.415677 
L 310.179866 257.064327 
L 311.087736 256.648527 
L 312.903478 256.544577 
L 314.719219 254.985327 
L 315.62709 253.737927 
L 316.53496 251.658927 
L 317.442831 250.515477 
L 318.350702 249.164127 
L 319.258572 247.604877 
L 320.166443 246.565377 
L 321.074314 245.941677 
L 321.982184 244.694277 
L 322.890055 244.070577 
L 325.613667 243.238977 
L 326.521538 241.783677 
L 327.429408 240.952077 
L 328.337279 240.536277 
L 329.245149 238.769127 
L 330.15302 237.937527 
L 331.060891 236.586177 
L 331.968761 234.611127 
L 332.876632 233.675577 
L 334.692373 230.972877 
L 335.600244 230.245227 
L 336.508115 228.997827 
L 337.415985 228.166227 
L 338.323856 224.735877 
L 339.231727 227.022777 
L 340.139597 226.399077 
L 341.047468 224.320077 
L 341.955339 223.384527 
L 342.863209 224.943777 
L 343.77108 225.255627 
L 344.678951 225.255627 
L 345.586821 225.567477 
L 346.494692 224.943777 
L 348.310433 222.345027 
L 349.218304 222.241077 
L 350.126174 220.577877 
L 351.034045 219.434427 
L 351.941916 217.771227 
L 352.849786 217.459377 
L 353.757657 216.419877 
L 354.665528 216.004077 
L 355.573398 215.796177 
L 356.481269 214.548777 
L 357.38914 214.548777 
L 358.29701 214.029027 
L 359.204881 214.340877 
L 360.112752 214.029027 
L 361.020622 214.860627 
L 361.928493 215.276427 
L 362.836364 215.068527 
L 363.744234 214.132977 
L 364.652105 214.029027 
L 365.559976 213.301377 
L 366.467846 211.742127 
L 367.375717 211.118427 
L 368.283588 210.182877 
L 369.191458 208.935477 
L 370.099329 206.336727 
L 371.0072 206.752527 
L 371.91507 206.024877 
L 372.822941 205.713027 
L 373.730811 205.713027 
L 374.638682 205.193277 
L 376.454423 204.465627 
L 377.362294 203.945877 
L 378.270165 205.089327 
L 379.178035 205.816977 
L 380.993777 205.193277 
L 382.809518 203.841927 
L 383.717389 203.322177 
L 384.625259 203.322177 
L 385.53313 203.010327 
L 386.441001 201.866877 
L 387.348871 201.347127 
L 388.256742 201.243177 
L 389.164613 199.268127 
L 390.980354 197.604927 
L 391.888225 196.461477 
L 392.796095 195.110127 
L 393.703966 196.357527 
L 394.611836 194.590377 
L 395.519707 195.006177 
L 396.427578 194.486427 
L 397.335448 195.318027 
L 399.15119 195.318027 
L 400.966931 194.798277 
L 401.874802 195.525927 
L 402.782672 195.629877 
L 403.690543 195.525927 
L 404.598414 195.214077 
L 405.506284 194.486427 
L 406.414155 194.486427 
L 407.322026 193.550877 
L 408.229896 193.654827 
L 409.137767 193.342977 
L 410.045638 192.303477 
L 410.953508 192.303477 
L 411.861379 192.095577 
L 412.76925 190.016577 
L 413.67712 189.808677 
L 414.584991 188.249427 
L 415.492862 188.145477 
L 416.400732 185.858577 
L 417.308603 185.442777 
L 418.216473 185.962527 
L 419.124344 185.858577 
L 420.032215 185.234877 
L 420.940085 185.650677 
L 422.755827 183.883527 
L 423.663697 184.715127 
L 424.571568 185.130927 
L 425.479439 183.883527 
L 426.387309 185.546727 
L 427.29518 185.650677 
L 428.203051 186.690177 
L 429.110921 186.794127 
L 430.018792 186.274377 
L 430.926663 184.715127 
L 431.834533 185.754627 
L 432.742404 185.546727 
L 433.650275 184.819077 
L 436.373887 184.091427 
L 437.281757 184.819077 
L 438.189628 183.779577 
L 439.097498 183.675627 
L 440.005369 183.363777 
L 440.91324 181.284777 
L 441.82111 180.765027 
L 442.728981 180.037377 
L 443.636852 179.621577 
L 445.452593 179.517627 
L 446.360464 178.789977 
L 447.268334 178.374177 
L 448.176205 178.478127 
L 449.084076 177.958377 
L 450.899817 178.166277 
L 451.807688 176.918877 
L 452.715558 178.789977 
L 453.623429 179.101827 
L 454.5313 179.829477 
L 455.43917 179.933427 
L 456.347041 180.453177 
L 457.254912 179.725527 
L 458.162782 179.413677 
L 459.070653 179.725527 
L 460.886394 178.686027 
L 461.794265 179.309727 
L 462.702135 178.789977 
L 463.610006 178.686027 
L 464.517877 179.101827 
L 465.425747 178.893927 
L 466.333618 178.478127 
L 467.241489 177.542577 
L 468.149359 177.958377 
L 469.05723 176.399127 
L 470.872971 178.166277 
L 472.688713 176.918877 
L 473.596583 177.646527 
L 474.504454 177.646527 
L 475.412325 176.918877 
L 476.320195 177.334677 
L 477.228066 176.399127 
L 478.135937 176.399127 
L 479.043807 176.191227 
L 480.859549 176.295177 
L 481.767419 176.087277 
L 482.67529 176.087277 
L 483.58316 176.710977 
L 484.491031 175.463577 
L 485.398902 175.255677 
L 486.306772 175.879377 
L 487.214643 176.295177 
L 488.122514 175.671477 
L 489.030384 176.087277 
L 489.938255 175.151727 
L 490.846126 176.399127 
L 491.753996 176.191227 
L 492.661867 176.399127 
L 493.569738 175.983327 
L 494.477608 175.255677 
L 495.385479 175.983327 
L 496.29335 175.255677 
L 497.20122 176.295177 
L 498.109091 175.879377 
L 498.109091 175.879377 
" clip-path="url(#pdca664fe87)" style="fill: none; stroke: #0000ff; stroke-opacity: 0.5; stroke-width: 1.5; stroke-linecap: square"/>
   </g>
   <g id="line2d_42">
    <path d="M 92.290909 360.182727 
L 93.19878 367.147377 
L 94.10665 367.355277 
L 95.014521 367.147377 
L 96.830262 367.251327 
L 98.646004 367.459227 
L 99.553874 367.147377 
L 101.369616 367.667127 
L 102.277486 367.147377 
L 103.185357 367.355277 
L 104.093228 367.251327 
L 105.001098 367.355277 
L 106.81684 367.147377 
L 107.72471 367.563177 
L 108.632581 367.251327 
L 109.540451 367.459227 
L 110.448322 367.459227 
L 111.356193 367.043427 
L 114.079805 367.251327 
L 115.895546 367.355277 
L 116.803417 367.043427 
L 117.711287 367.251327 
L 118.619158 367.251327 
L 119.527029 367.459227 
L 120.434899 367.147377 
L 123.158511 367.043427 
L 124.066382 366.835527 
L 124.974253 366.835527 
L 125.882123 367.043427 
L 126.789994 366.835527 
L 129.513606 366.939477 
L 130.421477 366.627627 
L 131.329347 366.835527 
L 132.237218 366.835527 
L 134.052959 366.523677 
L 136.776571 366.419727 
L 138.592312 366.107877 
L 139.500183 365.796027 
L 140.408054 365.276277 
L 142.223795 365.380227 
L 143.131666 365.692077 
L 144.039536 365.796027 
L 146.763148 365.588127 
L 147.671019 365.692077 
L 149.48676 365.380227 
L 150.394631 365.484177 
L 151.302502 364.860477 
L 152.210372 364.756527 
L 154.026113 364.132827 
L 154.933984 363.613077 
L 157.657596 363.197277 
L 158.565467 362.677527 
L 159.473337 362.989377 
L 160.381208 363.613077 
L 161.289079 363.820977 
L 166.736303 363.093327 
L 169.459915 362.573577 
L 170.367785 362.469627 
L 172.183527 360.806427 
L 173.091397 360.390627 
L 173.999268 360.390627 
L 174.907138 359.974827 
L 175.815009 360.286677 
L 176.72288 360.390627 
L 177.63075 361.014327 
L 178.538621 361.326177 
L 180.354362 361.118277 
L 181.262233 360.806427 
L 182.170104 360.806427 
L 183.985845 360.494577 
L 186.709457 360.390627 
L 187.617328 360.182727 
L 189.433069 360.182727 
L 190.34094 359.766927 
L 191.24881 359.766927 
L 193.064552 359.351127 
L 193.972422 359.351127 
L 197.603905 358.415577 
L 198.511775 357.272127 
L 199.419646 357.480027 
L 200.327517 357.168177 
L 202.143258 355.712877 
L 203.051129 356.024727 
L 203.958999 355.401027 
L 204.86687 355.297077 
L 205.774741 355.920777 
L 206.682611 356.232627 
L 207.590482 356.232627 
L 208.498353 355.816827 
L 213.037706 354.673377 
L 213.945577 353.945727 
L 214.853447 353.841777 
L 216.669189 352.594377 
L 217.577059 352.594377 
L 218.48493 351.243027 
L 219.3928 351.346977 
L 220.300671 350.515377 
L 221.208542 350.099577 
L 222.116412 349.267977 
L 223.024283 349.267977 
L 223.932154 349.475877 
L 224.840024 348.748227 
L 225.747895 348.748227 
L 226.655766 348.332427 
L 227.563636 347.604777 
L 228.471507 347.396877 
L 229.379378 346.357377 
L 231.195119 345.421827 
L 233.01086 344.382327 
L 233.918731 343.342827 
L 234.826602 343.238877 
L 236.642343 341.471727 
L 237.550214 340.536177 
L 238.458084 338.769027 
L 239.365955 338.769027 
L 240.273826 337.833477 
L 241.181696 336.690027 
L 242.089567 336.897927 
L 242.997437 336.482127 
L 243.905308 336.586077 
L 244.813179 336.274227 
L 246.62892 334.507077 
L 247.536791 334.195227 
L 248.444661 332.739927 
L 249.352532 332.324127 
L 252.076144 329.829327 
L 254.799756 325.671327 
L 256.615497 323.696277 
L 258.431239 321.721227 
L 259.339109 321.097527 
L 260.24698 320.993577 
L 261.154851 320.473827 
L 262.062721 319.746177 
L 262.970592 318.498777 
L 264.786333 315.796077 
L 265.694204 315.068427 
L 266.602074 314.028927 
L 269.325686 309.766977 
L 271.141428 305.608977 
L 272.049298 304.569477 
L 272.957169 303.218127 
L 273.86504 302.074677 
L 274.77291 300.619377 
L 275.680781 299.891727 
L 276.588652 299.371977 
L 278.404393 297.708777 
L 279.312264 296.045577 
L 281.128005 293.758677 
L 282.035876 292.303377 
L 282.943746 291.367827 
L 285.667358 286.482177 
L 287.483099 282.947877 
L 288.39097 281.284677 
L 290.206711 279.309627 
L 291.114582 278.478027 
L 292.022453 277.022727 
L 292.930323 276.502977 
L 293.838194 276.606927 
L 294.746065 275.879277 
L 295.653935 275.463477 
L 296.561806 274.216077 
L 297.469677 272.656827 
L 298.377547 272.241027 
L 299.285418 270.889677 
L 300.193289 269.954127 
L 301.101159 268.498827 
L 303.824771 263.301327 
L 304.732642 262.053927 
L 305.640513 260.182827 
L 306.548383 259.559127 
L 307.456254 258.103827 
L 308.364124 257.064327 
L 309.271995 256.544577 
L 310.179866 256.544577 
L 311.087736 256.128777 
L 312.903478 253.945827 
L 313.811348 252.802377 
L 314.719219 251.970777 
L 316.53496 248.644377 
L 317.442831 247.396977 
L 318.350702 246.461427 
L 319.258572 245.006127 
L 320.166443 244.070577 
L 321.074314 243.446877 
L 321.982184 242.511327 
L 322.890055 242.095527 
L 323.797926 241.471827 
L 324.705796 240.016527 
L 325.613667 239.288877 
L 327.429408 237.313827 
L 328.337279 236.066427 
L 329.245149 235.650627 
L 330.15302 234.715077 
L 331.060891 233.155827 
L 331.968761 232.012377 
L 332.876632 230.349177 
L 333.784503 229.309677 
L 335.600244 226.814877 
L 337.415985 225.255627 
L 339.231727 224.112177 
L 340.139597 223.800327 
L 341.047468 224.112177 
L 341.955339 223.072677 
L 342.863209 223.696377 
L 343.77108 223.592427 
L 344.678951 222.345027 
L 345.586821 221.825277 
L 348.310433 219.330477 
L 349.218304 217.979127 
L 350.126174 217.459377 
L 351.034045 214.444827 
L 351.941916 214.340877 
L 352.849786 213.717177 
L 353.757657 213.301377 
L 354.665528 212.677677 
L 355.573398 211.222377 
L 356.481269 211.742127 
L 358.29701 210.806577 
L 359.204881 211.846077 
L 360.112752 212.157927 
L 363.744234 210.078927 
L 364.652105 210.078927 
L 365.559976 208.207827 
L 366.467846 208.103877 
L 367.375717 207.480177 
L 368.283588 206.544627 
L 369.191458 205.297227 
L 371.0072 204.153777 
L 372.822941 202.698477 
L 373.730811 199.476027 
L 374.638682 201.866877 
L 375.546553 202.282677 
L 376.454423 202.074777 
L 377.362294 202.178727 
L 378.270165 202.594527 
L 379.178035 201.347127 
L 380.085906 200.827377 
L 380.993777 201.451077 
L 381.901647 200.931327 
L 382.809518 200.099727 
L 383.717389 199.891827 
L 384.625259 198.852327 
L 385.53313 199.372077 
L 386.441001 198.020727 
L 387.348871 196.981227 
L 388.256742 196.669377 
L 390.072483 193.966677 
L 390.980354 193.550877 
L 391.888225 192.407427 
L 392.796095 192.823227 
L 393.703966 191.575827 
L 395.519707 192.407427 
L 396.427578 191.783727 
L 397.335448 192.511377 
L 398.243319 192.199527 
L 399.15119 193.135077 
L 400.05906 192.199527 
L 400.966931 192.303477 
L 401.874802 190.328427 
L 402.782672 191.679777 
L 404.598414 190.952127 
L 405.506284 190.536327 
L 406.414155 190.640277 
L 407.322026 188.873127 
L 408.229896 189.184977 
L 409.137767 189.081027 
L 410.045638 187.729677 
L 410.953508 188.561277 
L 411.861379 187.209927 
L 412.76925 186.482277 
L 413.67712 185.442777 
L 414.584991 184.195377 
L 415.492862 182.636127 
L 416.400732 183.051927 
L 417.308603 182.116377 
L 418.216473 180.765027 
L 419.124344 181.700577 
L 420.032215 181.180827 
L 420.940085 182.220327 
L 421.847956 181.596627 
L 422.755827 182.012427 
L 423.663697 182.844027 
L 424.571568 181.908477 
L 425.479439 183.571677 
L 426.387309 183.259827 
L 427.29518 182.740077 
L 428.203051 179.101827 
L 429.110921 182.012427 
L 430.018792 182.220327 
L 430.926663 180.037377 
L 431.834533 181.180827 
L 432.742404 181.492677 
L 433.650275 180.972927 
L 434.558145 180.868977 
L 435.466016 180.557127 
L 436.373887 179.829477 
L 437.281757 179.933427 
L 438.189628 179.205777 
L 439.097498 180.037377 
L 440.005369 177.334677 
L 441.82111 177.022827 
L 442.728981 175.255677 
L 443.636852 176.087277 
L 444.544722 175.255677 
L 445.452593 174.735927 
L 449.084076 174.424077 
L 449.991946 175.671477 
L 451.807688 176.399127 
L 452.715558 176.607027 
L 453.623429 176.191227 
L 454.5313 174.943827 
L 455.43917 174.528027 
L 456.347041 175.775427 
L 457.254912 174.943827 
L 459.978523 174.735927 
L 460.886394 173.592477 
L 461.794265 174.008277 
L 462.702135 172.968777 
L 463.610006 173.904327 
L 464.517877 173.384577 
L 465.425747 173.072727 
L 466.333618 172.968777 
L 467.241489 173.280627 
L 468.149359 173.072727 
L 469.05723 172.033227 
L 470.872971 172.968777 
L 471.780842 171.929277 
L 472.688713 171.201627 
L 473.596583 171.721377 
L 474.504454 171.929277 
L 475.412325 171.825327 
L 476.320195 171.929277 
L 477.228066 170.993727 
L 478.135937 171.097677 
L 479.043807 170.577927 
L 479.951678 171.305577 
L 480.859549 170.889777 
L 481.767419 170.993727 
L 482.67529 171.617427 
L 483.58316 170.473977 
L 484.491031 169.746327 
L 486.306772 170.473977 
L 487.214643 170.266077 
L 488.122514 169.642377 
L 489.030384 169.538427 
L 489.938255 169.954227 
L 490.846126 169.538427 
L 491.753996 170.266077 
L 493.569738 169.538427 
L 494.477608 169.330527 
L 495.385479 169.954227 
L 496.29335 169.018677 
L 497.20122 169.850277 
L 498.109091 168.706827 
L 498.109091 168.706827 
" clip-path="url(#pdca664fe87)" style="fill: none; stroke: #0000ff; stroke-opacity: 0.5; stroke-width: 1.5; stroke-linecap: square"/>
   </g>
   <g id="LineCollection_1">
    <path d="M 92.290909 360.933064 
L 92.290909 359.64029 
" clip-path="url(#pdca664fe87)" style="fill: none; stroke: #ff0000; stroke-width: 1.5"/>
    <path d="M 128.605735 367.215883 
L 128.605735 365.987396 
" clip-path="url(#pdca664fe87)" style="fill: none; stroke: #ff0000; stroke-width: 1.5"/>
    <path d="M 164.920561 363.629735 
L 164.920561 363.180619 
" clip-path="url(#pdca664fe87)" style="fill: none; stroke: #ff0000; stroke-width: 1.5"/>
    <path d="M 201.235387 357.355399 
L 201.235387 355.99343 
" clip-path="url(#pdca664fe87)" style="fill: none; stroke: #ff0000; stroke-width: 1.5"/>
    <path d="M 237.550214 343.780059 
L 237.550214 339.683145 
" clip-path="url(#pdca664fe87)" style="fill: none; stroke: #ff0000; stroke-width: 1.5"/>
    <path d="M 273.86504 309.711611 
L 273.86504 300.154993 
" clip-path="url(#pdca664fe87)" style="fill: none; stroke: #ff0000; stroke-width: 1.5"/>
    <path d="M 310.179866 259.534509 
L 310.179866 253.450695 
" clip-path="url(#pdca664fe87)" style="fill: none; stroke: #ff0000; stroke-width: 1.5"/>
    <path d="M 346.494692 224.269748 
L 346.494692 215.378731 
" clip-path="url(#pdca664fe87)" style="fill: none; stroke: #ff0000; stroke-width: 1.5"/>
    <path d="M 382.809518 203.559943 
L 382.809518 193.572986 
" clip-path="url(#pdca664fe87)" style="fill: none; stroke: #ff0000; stroke-width: 1.5"/>
    <path d="M 419.124344 186.469103 
L 419.124344 178.023526 
" clip-path="url(#pdca664fe87)" style="fill: none; stroke: #ff0000; stroke-width: 1.5"/>
    <path d="M 455.43917 179.153148 
L 455.43917 168.135756 
" clip-path="url(#pdca664fe87)" style="fill: none; stroke: #ff0000; stroke-width: 1.5"/>
    <path d="M 491.753996 176.373787 
L 491.753996 165.249842 
" clip-path="url(#pdca664fe87)" style="fill: none; stroke: #ff0000; stroke-width: 1.5"/>
   </g>
   <g id="line2d_43">
    <defs>
     <path id="m38dee0c5cf" d="M 5 0 
L -5 -0 
" style="stroke: #ff0000"/>
    </defs>
    <g clip-path="url(#pdca664fe87)">
     <use xlink:href="#m38dee0c5cf" x="92.290909" y="360.933064" style="fill: #ff0000; stroke: #ff0000"/>
     <use xlink:href="#m38dee0c5cf" x="128.605735" y="367.215883" style="fill: #ff0000; stroke: #ff0000"/>
     <use xlink:href="#m38dee0c5cf" x="164.920561" y="363.629735" style="fill: #ff0000; stroke: #ff0000"/>
     <use xlink:href="#m38dee0c5cf" x="201.235387" y="357.355399" style="fill: #ff0000; stroke: #ff0000"/>
     <use xlink:href="#m38dee0c5cf" x="237.550214" y="343.780059" style="fill: #ff0000; stroke: #ff0000"/>
     <use xlink:href="#m38dee0c5cf" x="273.86504" y="309.711611" style="fill: #ff0000; stroke: #ff0000"/>
     <use xlink:href="#m38dee0c5cf" x="310.179866" y="259.534509" style="fill: #ff0000; stroke: #ff0000"/>
     <use xlink:href="#m38dee0c5cf" x="346.494692" y="224.269748" style="fill: #ff0000; stroke: #ff0000"/>
     <use xlink:href="#m38dee0c5cf" x="382.809518" y="203.559943" style="fill: #ff0000; stroke: #ff0000"/>
     <use xlink:href="#m38dee0c5cf" x="419.124344" y="186.469103" style="fill: #ff0000; stroke: #ff0000"/>
     <use xlink:href="#m38dee0c5cf" x="455.43917" y="179.153148" style="fill: #ff0000; stroke: #ff0000"/>
     <use xlink:href="#m38dee0c5cf" x="491.753996" y="176.373787" style="fill: #ff0000; stroke: #ff0000"/>
    </g>
   </g>
   <g id="line2d_44">
    <g clip-path="url(#pdca664fe87)">
     <use xlink:href="#m38dee0c5cf" x="92.290909" y="359.64029" style="fill: #ff0000; stroke: #ff0000"/>
     <use xlink:href="#m38dee0c5cf" x="128.605735" y="365.987396" style="fill: #ff0000; stroke: #ff0000"/>
     <use xlink:href="#m38dee0c5cf" x="164.920561" y="363.180619" style="fill: #ff0000; stroke: #ff0000"/>
     <use xlink:href="#m38dee0c5cf" x="201.235387" y="355.99343" style="fill: #ff0000; stroke: #ff0000"/>
     <use xlink:href="#m38dee0c5cf" x="237.550214" y="339.683145" style="fill: #ff0000; stroke: #ff0000"/>
     <use xlink:href="#m38dee0c5cf" x="273.86504" y="300.154993" style="fill: #ff0000; stroke: #ff0000"/>
     <use xlink:href="#m38dee0c5cf" x="310.179866" y="253.450695" style="fill: #ff0000; stroke: #ff0000"/>
     <use xlink:href="#m38dee0c5cf" x="346.494692" y="215.378731" style="fill: #ff0000; stroke: #ff0000"/>
     <use xlink:href="#m38dee0c5cf" x="382.809518" y="193.572986" style="fill: #ff0000; stroke: #ff0000"/>
     <use xlink:href="#m38dee0c5cf" x="419.124344" y="178.023526" style="fill: #ff0000; stroke: #ff0000"/>
     <use xlink:href="#m38dee0c5cf" x="455.43917" y="168.135756" style="fill: #ff0000; stroke: #ff0000"/>
     <use xlink:href="#m38dee0c5cf" x="491.753996" y="165.249842" style="fill: #ff0000; stroke: #ff0000"/>
    </g>
   </g>
   <g id="line2d_45">
    <path d="M 92.290909 360.286677 
L 128.605735 366.601639 
L 164.920561 363.405177 
L 201.235387 356.674415 
L 237.550214 341.731602 
L 273.86504 304.933302 
L 310.179866 256.492602 
L 346.494692 219.82424 
L 382.809518 198.566464 
L 419.124344 182.246314 
L 455.43917 173.644452 
L 491.753996 170.811814 
" clip-path="url(#pdca664fe87)" style="fill: none; stroke: #ff0000; stroke-width: 1.5; stroke-linecap: square"/>
   </g>
   <g id="patch_3">
    <path d="M 72 384.48 
L 72 51.84 
" style="fill: none; stroke: #000000; stroke-width: 0.8; stroke-linejoin: miter; stroke-linecap: square"/>
   </g>
   <g id="patch_4">
    <path d="M 518.4 384.48 
L 518.4 51.84 
" style="fill: none; stroke: #000000; stroke-width: 0.8; stroke-linejoin: miter; stroke-linecap: square"/>
   </g>
   <g id="patch_5">
    <path d="M 72 384.48 
L 518.4 384.48 
" style="fill: none; stroke: #000000; stroke-width: 0.8; stroke-linejoin: miter; stroke-linecap: square"/>
   </g>
   <g id="patch_6">
    <path d="M 72 51.84 
L 518.4 51.84 
" style="fill: none; stroke: #000000; stroke-width: 0.8; stroke-linejoin: miter; stroke-linecap: square"/>
   </g>
   <g id="text_22">
    <!-- M18: Methionin; Histidin -->
    <g transform="translate(234.446875 45.84) scale(0.1 -0.1)">
     <defs>
      <path id="DejaVuSans-4d" d="M 628 4666 
L 1569 4666 
L 2759 1491 
L 3956 4666 
L 4897 4666 
L 4897 0 
L 4281 0 
L 4281 4097 
L 3078 897 
L 2444 897 
L 1241 4097 
L 1241 0 
L 628 0 
L 628 4666 
z
" transform="scale(0.015625)"/>
      <path id="DejaVuSans-3a" d="M 750 794 
L 1409 794 
L 1409 0 
L 750 0 
L 750 794 
z
M 750 3309 
L 1409 3309 
L 1409 2516 
L 750 2516 
L 750 3309 
z
" transform="scale(0.015625)"/>
      <path id="DejaVuSans-3b" d="M 750 3309 
L 1409 3309 
L 1409 2516 
L 750 2516 
L 750 3309 
z
M 750 794 
L 1409 794 
L 1409 256 
L 897 -744 
L 494 -744 
L 750 256 
L 750 794 
z
" transform="scale(0.015625)"/>
      <path id="DejaVuSans-48" d="M 628 4666 
L 1259 4666 
L 1259 2753 
L 3553 2753 
L 3553 4666 
L 4184 4666 
L 4184 0 
L 3553 0 
L 3553 2222 
L 1259 2222 
L 1259 0 
L 628 0 
L 628 4666 
z
" transform="scale(0.015625)"/>
     </defs>
     <use xlink:href="#DejaVuSans-4d"/>
     <use xlink:href="#DejaVuSans-31" x="86.279297"/>
     <use xlink:href="#DejaVuSans-38" x="149.902344"/>
     <use xlink:href="#DejaVuSans-3a" x="213.525391"/>
     <use xlink:href="#DejaVuSans-20" x="247.216797"/>
     <use xlink:href="#DejaVuSans-4d" x="279.003906"/>
     <use xlink:href="#DejaVuSans-65" x="365.283203"/>
     <use xlink:href="#DejaVuSans-74" x="426.806641"/>
     <use xlink:href="#DejaVuSans-68" x="466.015625"/>
     <use xlink:href="#DejaVuSans-69" x="529.394531"/>
     <use xlink:href="#DejaVuSans-6f" x="557.177734"/>
     <use xlink:href="#DejaVuSans-6e" x="618.359375"/>
     <use xlink:href="#DejaVuSans-69" x="681.738281"/>
     <use xlink:href="#DejaVuSans-6e" x="709.521484"/>
     <use xlink:href="#DejaVuSans-3b" x="772.900391"/>
     <use xlink:href="#DejaVuSans-20" x="806.591797"/>
     <use xlink:href="#DejaVuSans-48" x="838.378906"/>
     <use xlink:href="#DejaVuSans-69" x="913.574219"/>
     <use xlink:href="#DejaVuSans-73" x="941.357422"/>
     <use xlink:href="#DejaVuSans-74" x="993.457031"/>
     <use xlink:href="#DejaVuSans-69" x="1032.666016"/>
     <use xlink:href="#DejaVuSans-64" x="1060.449219"/>
     <use xlink:href="#DejaVuSans-69" x="1123.925781"/>
     <use xlink:href="#DejaVuSans-6e" x="1151.708984"/>
    </g>
   </g>
  </g>
 </g>
 <defs>
  <clipPath id="pdca664fe87">
   <rect x="72" y="51.84" width="446.4" height="332.64"/>
  </clipPath>
 </defs>
</svg>
