<?xml version="1.0" encoding="utf-8" standalone="no"?>
<!DOCTYPE svg PUBLIC "-//W3C//DTD SVG 1.1//EN"
  "http://www.w3.org/Graphics/SVG/1.1/DTD/svg11.dtd">
<svg xmlns:xlink="http://www.w3.org/1999/xlink" width="576pt" height="432pt" viewBox="0 0 576 432" xmlns="http://www.w3.org/2000/svg" version="1.1">
 <metadata>
  <rdf:RDF xmlns:dc="http://purl.org/dc/elements/1.1/" xmlns:cc="http://creativecommons.org/ns#" xmlns:rdf="http://www.w3.org/1999/02/22-rdf-syntax-ns#">
   <cc:Work>
    <dc:type rdf:resource="http://purl.org/dc/dcmitype/StillImage"/>
    <dc:date>2024-11-12T14:09:15.347202</dc:date>
    <dc:format>image/svg+xml</dc:format>
    <dc:creator>
     <cc:Agent>
      <dc:title>Matplotlib v3.7.5, https://matplotlib.org/</dc:title>
     </cc:Agent>
    </dc:creator>
   </cc:Work>
  </rdf:RDF>
 </metadata>
 <defs>
  <style type="text/css">*{stroke-linejoin: round; stroke-linecap: butt}</style>
 </defs>
 <g id="figure_1">
  <g id="patch_1">
   <path d="M 0 432 
L 576 432 
L 576 0 
L 0 0 
z
" style="fill: #ffffff"/>
  </g>
  <g id="axes_1">
   <g id="patch_2">
    <path d="M 72 384.48 
L 518.4 384.48 
L 518.4 51.84 
L 72 51.84 
z
" style="fill: #ffffff"/>
   </g>
   <g id="matplotlib.axis_1">
    <g id="xtick_1">
     <g id="line2d_1">
      <path d="M 92.290909 384.48 
L 92.290909 51.84 
" clip-path="url(#pd46c8fca45)" style="fill: none; stroke: #b0b0b0; stroke-width: 0.8; stroke-linecap: square"/>
     </g>
     <g id="line2d_2">
      <defs>
       <path id="m5f9e175009" d="M 0 0 
L 0 3.5 
" style="stroke: #000000; stroke-width: 0.8"/>
      </defs>
      <g>
       <use xlink:href="#m5f9e175009" x="92.290909" y="384.48" style="stroke: #000000; stroke-width: 0.8"/>
      </g>
     </g>
     <g id="text_1">
      <!-- 0.17 -->
      <g transform="translate(81.158097 399.078438) scale(0.1 -0.1)">
       <defs>
        <path id="DejaVuSans-30" d="M 2034 4250 
Q 1547 4250 1301 3770 
Q 1056 3291 1056 2328 
Q 1056 1369 1301 889 
Q 1547 409 2034 409 
Q 2525 409 2770 889 
Q 3016 1369 3016 2328 
Q 3016 3291 2770 3770 
Q 2525 4250 2034 4250 
z
M 2034 4750 
Q 2819 4750 3233 4129 
Q 3647 3509 3647 2328 
Q 3647 1150 3233 529 
Q 2819 -91 2034 -91 
Q 1250 -91 836 529 
Q 422 1150 422 2328 
Q 422 3509 836 4129 
Q 1250 4750 2034 4750 
z
" transform="scale(0.015625)"/>
        <path id="DejaVuSans-2e" d="M 684 794 
L 1344 794 
L 1344 0 
L 684 0 
L 684 794 
z
" transform="scale(0.015625)"/>
        <path id="DejaVuSans-31" d="M 794 531 
L 1825 531 
L 1825 4091 
L 703 3866 
L 703 4441 
L 1819 4666 
L 2450 4666 
L 2450 531 
L 3481 531 
L 3481 0 
L 794 0 
L 794 531 
z
" transform="scale(0.015625)"/>
        <path id="DejaVuSans-37" d="M 525 4666 
L 3525 4666 
L 3525 4397 
L 1831 0 
L 1172 0 
L 2766 4134 
L 525 4134 
L 525 4666 
z
" transform="scale(0.015625)"/>
       </defs>
       <use xlink:href="#DejaVuSans-30"/>
       <use xlink:href="#DejaVuSans-2e" x="63.623047"/>
       <use xlink:href="#DejaVuSans-31" x="95.410156"/>
       <use xlink:href="#DejaVuSans-37" x="159.033203"/>
      </g>
     </g>
    </g>
    <g id="xtick_2">
     <g id="line2d_3">
      <path d="M 128.605735 384.48 
L 128.605735 51.84 
" clip-path="url(#pd46c8fca45)" style="fill: none; stroke: #b0b0b0; stroke-width: 0.8; stroke-linecap: square"/>
     </g>
     <g id="line2d_4">
      <g>
       <use xlink:href="#m5f9e175009" x="128.605735" y="384.48" style="stroke: #000000; stroke-width: 0.8"/>
      </g>
     </g>
     <g id="text_2">
      <!-- 6.83 -->
      <g transform="translate(117.472923 399.078438) scale(0.1 -0.1)">
       <defs>
        <path id="DejaVuSans-36" d="M 2113 2584 
Q 1688 2584 1439 2293 
Q 1191 2003 1191 1497 
Q 1191 994 1439 701 
Q 1688 409 2113 409 
Q 2538 409 2786 701 
Q 3034 994 3034 1497 
Q 3034 2003 2786 2293 
Q 2538 2584 2113 2584 
z
M 3366 4563 
L 3366 3988 
Q 3128 4100 2886 4159 
Q 2644 4219 2406 4219 
Q 1781 4219 1451 3797 
Q 1122 3375 1075 2522 
Q 1259 2794 1537 2939 
Q 1816 3084 2150 3084 
Q 2853 3084 3261 2657 
Q 3669 2231 3669 1497 
Q 3669 778 3244 343 
Q 2819 -91 2113 -91 
Q 1303 -91 875 529 
Q 447 1150 447 2328 
Q 447 3434 972 4092 
Q 1497 4750 2381 4750 
Q 2619 4750 2861 4703 
Q 3103 4656 3366 4563 
z
" transform="scale(0.015625)"/>
        <path id="DejaVuSans-38" d="M 2034 2216 
Q 1584 2216 1326 1975 
Q 1069 1734 1069 1313 
Q 1069 891 1326 650 
Q 1584 409 2034 409 
Q 2484 409 2743 651 
Q 3003 894 3003 1313 
Q 3003 1734 2745 1975 
Q 2488 2216 2034 2216 
z
M 1403 2484 
Q 997 2584 770 2862 
Q 544 3141 544 3541 
Q 544 4100 942 4425 
Q 1341 4750 2034 4750 
Q 2731 4750 3128 4425 
Q 3525 4100 3525 3541 
Q 3525 3141 3298 2862 
Q 3072 2584 2669 2484 
Q 3125 2378 3379 2068 
Q 3634 1759 3634 1313 
Q 3634 634 3220 271 
Q 2806 -91 2034 -91 
Q 1263 -91 848 271 
Q 434 634 434 1313 
Q 434 1759 690 2068 
Q 947 2378 1403 2484 
z
M 1172 3481 
Q 1172 3119 1398 2916 
Q 1625 2713 2034 2713 
Q 2441 2713 2670 2916 
Q 2900 3119 2900 3481 
Q 2900 3844 2670 4047 
Q 2441 4250 2034 4250 
Q 1625 4250 1398 4047 
Q 1172 3844 1172 3481 
z
" transform="scale(0.015625)"/>
        <path id="DejaVuSans-33" d="M 2597 2516 
Q 3050 2419 3304 2112 
Q 3559 1806 3559 1356 
Q 3559 666 3084 287 
Q 2609 -91 1734 -91 
Q 1441 -91 1130 -33 
Q 819 25 488 141 
L 488 750 
Q 750 597 1062 519 
Q 1375 441 1716 441 
Q 2309 441 2620 675 
Q 2931 909 2931 1356 
Q 2931 1769 2642 2001 
Q 2353 2234 1838 2234 
L 1294 2234 
L 1294 2753 
L 1863 2753 
Q 2328 2753 2575 2939 
Q 2822 3125 2822 3475 
Q 2822 3834 2567 4026 
Q 2313 4219 1838 4219 
Q 1578 4219 1281 4162 
Q 984 4106 628 3988 
L 628 4550 
Q 988 4650 1302 4700 
Q 1616 4750 1894 4750 
Q 2613 4750 3031 4423 
Q 3450 4097 3450 3541 
Q 3450 3153 3228 2886 
Q 3006 2619 2597 2516 
z
" transform="scale(0.015625)"/>
       </defs>
       <use xlink:href="#DejaVuSans-36"/>
       <use xlink:href="#DejaVuSans-2e" x="63.623047"/>
       <use xlink:href="#DejaVuSans-38" x="95.410156"/>
       <use xlink:href="#DejaVuSans-33" x="159.033203"/>
      </g>
     </g>
    </g>
    <g id="xtick_3">
     <g id="line2d_5">
      <path d="M 164.920561 384.48 
L 164.920561 51.84 
" clip-path="url(#pd46c8fca45)" style="fill: none; stroke: #b0b0b0; stroke-width: 0.8; stroke-linecap: square"/>
     </g>
     <g id="line2d_6">
      <g>
       <use xlink:href="#m5f9e175009" x="164.920561" y="384.48" style="stroke: #000000; stroke-width: 0.8"/>
      </g>
     </g>
     <g id="text_3">
      <!-- 13.5 -->
      <g transform="translate(153.787749 399.078438) scale(0.1 -0.1)">
       <defs>
        <path id="DejaVuSans-35" d="M 691 4666 
L 3169 4666 
L 3169 4134 
L 1269 4134 
L 1269 2991 
Q 1406 3038 1543 3061 
Q 1681 3084 1819 3084 
Q 2600 3084 3056 2656 
Q 3513 2228 3513 1497 
Q 3513 744 3044 326 
Q 2575 -91 1722 -91 
Q 1428 -91 1123 -41 
Q 819 9 494 109 
L 494 744 
Q 775 591 1075 516 
Q 1375 441 1709 441 
Q 2250 441 2565 725 
Q 2881 1009 2881 1497 
Q 2881 1984 2565 2268 
Q 2250 2553 1709 2553 
Q 1456 2553 1204 2497 
Q 953 2441 691 2322 
L 691 4666 
z
" transform="scale(0.015625)"/>
       </defs>
       <use xlink:href="#DejaVuSans-31"/>
       <use xlink:href="#DejaVuSans-33" x="63.623047"/>
       <use xlink:href="#DejaVuSans-2e" x="127.246094"/>
       <use xlink:href="#DejaVuSans-35" x="159.033203"/>
      </g>
     </g>
    </g>
    <g id="xtick_4">
     <g id="line2d_7">
      <path d="M 201.235387 384.48 
L 201.235387 51.84 
" clip-path="url(#pd46c8fca45)" style="fill: none; stroke: #b0b0b0; stroke-width: 0.8; stroke-linecap: square"/>
     </g>
     <g id="line2d_8">
      <g>
       <use xlink:href="#m5f9e175009" x="201.235387" y="384.48" style="stroke: #000000; stroke-width: 0.8"/>
      </g>
     </g>
     <g id="text_4">
      <!-- 20.17 -->
      <g transform="translate(186.921325 399.078438) scale(0.1 -0.1)">
       <defs>
        <path id="DejaVuSans-32" d="M 1228 531 
L 3431 531 
L 3431 0 
L 469 0 
L 469 531 
Q 828 903 1448 1529 
Q 2069 2156 2228 2338 
Q 2531 2678 2651 2914 
Q 2772 3150 2772 3378 
Q 2772 3750 2511 3984 
Q 2250 4219 1831 4219 
Q 1534 4219 1204 4116 
Q 875 4013 500 3803 
L 500 4441 
Q 881 4594 1212 4672 
Q 1544 4750 1819 4750 
Q 2544 4750 2975 4387 
Q 3406 4025 3406 3419 
Q 3406 3131 3298 2873 
Q 3191 2616 2906 2266 
Q 2828 2175 2409 1742 
Q 1991 1309 1228 531 
z
" transform="scale(0.015625)"/>
       </defs>
       <use xlink:href="#DejaVuSans-32"/>
       <use xlink:href="#DejaVuSans-30" x="63.623047"/>
       <use xlink:href="#DejaVuSans-2e" x="127.246094"/>
       <use xlink:href="#DejaVuSans-31" x="159.033203"/>
       <use xlink:href="#DejaVuSans-37" x="222.65625"/>
      </g>
     </g>
    </g>
    <g id="xtick_5">
     <g id="line2d_9">
      <path d="M 237.550214 384.48 
L 237.550214 51.84 
" clip-path="url(#pd46c8fca45)" style="fill: none; stroke: #b0b0b0; stroke-width: 0.8; stroke-linecap: square"/>
     </g>
     <g id="line2d_10">
      <g>
       <use xlink:href="#m5f9e175009" x="237.550214" y="384.48" style="stroke: #000000; stroke-width: 0.8"/>
      </g>
     </g>
     <g id="text_5">
      <!-- 26.83 -->
      <g transform="translate(223.236151 399.078438) scale(0.1 -0.1)">
       <use xlink:href="#DejaVuSans-32"/>
       <use xlink:href="#DejaVuSans-36" x="63.623047"/>
       <use xlink:href="#DejaVuSans-2e" x="127.246094"/>
       <use xlink:href="#DejaVuSans-38" x="159.033203"/>
       <use xlink:href="#DejaVuSans-33" x="222.65625"/>
      </g>
     </g>
    </g>
    <g id="xtick_6">
     <g id="line2d_11">
      <path d="M 273.86504 384.48 
L 273.86504 51.84 
" clip-path="url(#pd46c8fca45)" style="fill: none; stroke: #b0b0b0; stroke-width: 0.8; stroke-linecap: square"/>
     </g>
     <g id="line2d_12">
      <g>
       <use xlink:href="#m5f9e175009" x="273.86504" y="384.48" style="stroke: #000000; stroke-width: 0.8"/>
      </g>
     </g>
     <g id="text_6">
      <!-- 33.5 -->
      <g transform="translate(262.732227 399.078438) scale(0.1 -0.1)">
       <use xlink:href="#DejaVuSans-33"/>
       <use xlink:href="#DejaVuSans-33" x="63.623047"/>
       <use xlink:href="#DejaVuSans-2e" x="127.246094"/>
       <use xlink:href="#DejaVuSans-35" x="159.033203"/>
      </g>
     </g>
    </g>
    <g id="xtick_7">
     <g id="line2d_13">
      <path d="M 310.179866 384.48 
L 310.179866 51.84 
" clip-path="url(#pd46c8fca45)" style="fill: none; stroke: #b0b0b0; stroke-width: 0.8; stroke-linecap: square"/>
     </g>
     <g id="line2d_14">
      <g>
       <use xlink:href="#m5f9e175009" x="310.179866" y="384.48" style="stroke: #000000; stroke-width: 0.8"/>
      </g>
     </g>
     <g id="text_7">
      <!-- 40.17 -->
      <g transform="translate(295.865803 399.078438) scale(0.1 -0.1)">
       <defs>
        <path id="DejaVuSans-34" d="M 2419 4116 
L 825 1625 
L 2419 1625 
L 2419 4116 
z
M 2253 4666 
L 3047 4666 
L 3047 1625 
L 3713 1625 
L 3713 1100 
L 3047 1100 
L 3047 0 
L 2419 0 
L 2419 1100 
L 313 1100 
L 313 1709 
L 2253 4666 
z
" transform="scale(0.015625)"/>
       </defs>
       <use xlink:href="#DejaVuSans-34"/>
       <use xlink:href="#DejaVuSans-30" x="63.623047"/>
       <use xlink:href="#DejaVuSans-2e" x="127.246094"/>
       <use xlink:href="#DejaVuSans-31" x="159.033203"/>
       <use xlink:href="#DejaVuSans-37" x="222.65625"/>
      </g>
     </g>
    </g>
    <g id="xtick_8">
     <g id="line2d_15">
      <path d="M 346.494692 384.48 
L 346.494692 51.84 
" clip-path="url(#pd46c8fca45)" style="fill: none; stroke: #b0b0b0; stroke-width: 0.8; stroke-linecap: square"/>
     </g>
     <g id="line2d_16">
      <g>
       <use xlink:href="#m5f9e175009" x="346.494692" y="384.48" style="stroke: #000000; stroke-width: 0.8"/>
      </g>
     </g>
     <g id="text_8">
      <!-- 46.83 -->
      <g transform="translate(332.180629 399.078438) scale(0.1 -0.1)">
       <use xlink:href="#DejaVuSans-34"/>
       <use xlink:href="#DejaVuSans-36" x="63.623047"/>
       <use xlink:href="#DejaVuSans-2e" x="127.246094"/>
       <use xlink:href="#DejaVuSans-38" x="159.033203"/>
       <use xlink:href="#DejaVuSans-33" x="222.65625"/>
      </g>
     </g>
    </g>
    <g id="xtick_9">
     <g id="line2d_17">
      <path d="M 382.809518 384.48 
L 382.809518 51.84 
" clip-path="url(#pd46c8fca45)" style="fill: none; stroke: #b0b0b0; stroke-width: 0.8; stroke-linecap: square"/>
     </g>
     <g id="line2d_18">
      <g>
       <use xlink:href="#m5f9e175009" x="382.809518" y="384.48" style="stroke: #000000; stroke-width: 0.8"/>
      </g>
     </g>
     <g id="text_9">
      <!-- 53.5 -->
      <g transform="translate(371.676705 399.078438) scale(0.1 -0.1)">
       <use xlink:href="#DejaVuSans-35"/>
       <use xlink:href="#DejaVuSans-33" x="63.623047"/>
       <use xlink:href="#DejaVuSans-2e" x="127.246094"/>
       <use xlink:href="#DejaVuSans-35" x="159.033203"/>
      </g>
     </g>
    </g>
    <g id="xtick_10">
     <g id="line2d_19">
      <path d="M 419.124344 384.48 
L 419.124344 51.84 
" clip-path="url(#pd46c8fca45)" style="fill: none; stroke: #b0b0b0; stroke-width: 0.8; stroke-linecap: square"/>
     </g>
     <g id="line2d_20">
      <g>
       <use xlink:href="#m5f9e175009" x="419.124344" y="384.48" style="stroke: #000000; stroke-width: 0.8"/>
      </g>
     </g>
     <g id="text_10">
      <!-- 60.17 -->
      <g transform="translate(404.810282 399.078438) scale(0.1 -0.1)">
       <use xlink:href="#DejaVuSans-36"/>
       <use xlink:href="#DejaVuSans-30" x="63.623047"/>
       <use xlink:href="#DejaVuSans-2e" x="127.246094"/>
       <use xlink:href="#DejaVuSans-31" x="159.033203"/>
       <use xlink:href="#DejaVuSans-37" x="222.65625"/>
      </g>
     </g>
    </g>
    <g id="xtick_11">
     <g id="line2d_21">
      <path d="M 455.43917 384.48 
L 455.43917 51.84 
" clip-path="url(#pd46c8fca45)" style="fill: none; stroke: #b0b0b0; stroke-width: 0.8; stroke-linecap: square"/>
     </g>
     <g id="line2d_22">
      <g>
       <use xlink:href="#m5f9e175009" x="455.43917" y="384.48" style="stroke: #000000; stroke-width: 0.8"/>
      </g>
     </g>
     <g id="text_11">
      <!-- 66.83 -->
      <g transform="translate(441.125108 399.078438) scale(0.1 -0.1)">
       <use xlink:href="#DejaVuSans-36"/>
       <use xlink:href="#DejaVuSans-36" x="63.623047"/>
       <use xlink:href="#DejaVuSans-2e" x="127.246094"/>
       <use xlink:href="#DejaVuSans-38" x="159.033203"/>
       <use xlink:href="#DejaVuSans-33" x="222.65625"/>
      </g>
     </g>
    </g>
    <g id="xtick_12">
     <g id="line2d_23">
      <path d="M 491.753996 384.48 
L 491.753996 51.84 
" clip-path="url(#pd46c8fca45)" style="fill: none; stroke: #b0b0b0; stroke-width: 0.8; stroke-linecap: square"/>
     </g>
     <g id="line2d_24">
      <g>
       <use xlink:href="#m5f9e175009" x="491.753996" y="384.48" style="stroke: #000000; stroke-width: 0.8"/>
      </g>
     </g>
     <g id="text_12">
      <!-- 73.5 -->
      <g transform="translate(480.621184 399.078438) scale(0.1 -0.1)">
       <use xlink:href="#DejaVuSans-37"/>
       <use xlink:href="#DejaVuSans-33" x="63.623047"/>
       <use xlink:href="#DejaVuSans-2e" x="127.246094"/>
       <use xlink:href="#DejaVuSans-35" x="159.033203"/>
      </g>
     </g>
    </g>
    <g id="text_13">
     <!-- time in hours [h] -->
     <g transform="translate(253.451562 412.756563) scale(0.1 -0.1)">
      <defs>
       <path id="DejaVuSans-74" d="M 1172 4494 
L 1172 3500 
L 2356 3500 
L 2356 3053 
L 1172 3053 
L 1172 1153 
Q 1172 725 1289 603 
Q 1406 481 1766 481 
L 2356 481 
L 2356 0 
L 1766 0 
Q 1100 0 847 248 
Q 594 497 594 1153 
L 594 3053 
L 172 3053 
L 172 3500 
L 594 3500 
L 594 4494 
L 1172 4494 
z
" transform="scale(0.015625)"/>
       <path id="DejaVuSans-69" d="M 603 3500 
L 1178 3500 
L 1178 0 
L 603 0 
L 603 3500 
z
M 603 4863 
L 1178 4863 
L 1178 4134 
L 603 4134 
L 603 4863 
z
" transform="scale(0.015625)"/>
       <path id="DejaVuSans-6d" d="M 3328 2828 
Q 3544 3216 3844 3400 
Q 4144 3584 4550 3584 
Q 5097 3584 5394 3201 
Q 5691 2819 5691 2113 
L 5691 0 
L 5113 0 
L 5113 2094 
Q 5113 2597 4934 2840 
Q 4756 3084 4391 3084 
Q 3944 3084 3684 2787 
Q 3425 2491 3425 1978 
L 3425 0 
L 2847 0 
L 2847 2094 
Q 2847 2600 2669 2842 
Q 2491 3084 2119 3084 
Q 1678 3084 1418 2786 
Q 1159 2488 1159 1978 
L 1159 0 
L 581 0 
L 581 3500 
L 1159 3500 
L 1159 2956 
Q 1356 3278 1631 3431 
Q 1906 3584 2284 3584 
Q 2666 3584 2933 3390 
Q 3200 3197 3328 2828 
z
" transform="scale(0.015625)"/>
       <path id="DejaVuSans-65" d="M 3597 1894 
L 3597 1613 
L 953 1613 
Q 991 1019 1311 708 
Q 1631 397 2203 397 
Q 2534 397 2845 478 
Q 3156 559 3463 722 
L 3463 178 
Q 3153 47 2828 -22 
Q 2503 -91 2169 -91 
Q 1331 -91 842 396 
Q 353 884 353 1716 
Q 353 2575 817 3079 
Q 1281 3584 2069 3584 
Q 2775 3584 3186 3129 
Q 3597 2675 3597 1894 
z
M 3022 2063 
Q 3016 2534 2758 2815 
Q 2500 3097 2075 3097 
Q 1594 3097 1305 2825 
Q 1016 2553 972 2059 
L 3022 2063 
z
" transform="scale(0.015625)"/>
       <path id="DejaVuSans-20" transform="scale(0.015625)"/>
       <path id="DejaVuSans-6e" d="M 3513 2113 
L 3513 0 
L 2938 0 
L 2938 2094 
Q 2938 2591 2744 2837 
Q 2550 3084 2163 3084 
Q 1697 3084 1428 2787 
Q 1159 2491 1159 1978 
L 1159 0 
L 581 0 
L 581 3500 
L 1159 3500 
L 1159 2956 
Q 1366 3272 1645 3428 
Q 1925 3584 2291 3584 
Q 2894 3584 3203 3211 
Q 3513 2838 3513 2113 
z
" transform="scale(0.015625)"/>
       <path id="DejaVuSans-68" d="M 3513 2113 
L 3513 0 
L 2938 0 
L 2938 2094 
Q 2938 2591 2744 2837 
Q 2550 3084 2163 3084 
Q 1697 3084 1428 2787 
Q 1159 2491 1159 1978 
L 1159 0 
L 581 0 
L 581 4863 
L 1159 4863 
L 1159 2956 
Q 1366 3272 1645 3428 
Q 1925 3584 2291 3584 
Q 2894 3584 3203 3211 
Q 3513 2838 3513 2113 
z
" transform="scale(0.015625)"/>
       <path id="DejaVuSans-6f" d="M 1959 3097 
Q 1497 3097 1228 2736 
Q 959 2375 959 1747 
Q 959 1119 1226 758 
Q 1494 397 1959 397 
Q 2419 397 2687 759 
Q 2956 1122 2956 1747 
Q 2956 2369 2687 2733 
Q 2419 3097 1959 3097 
z
M 1959 3584 
Q 2709 3584 3137 3096 
Q 3566 2609 3566 1747 
Q 3566 888 3137 398 
Q 2709 -91 1959 -91 
Q 1206 -91 779 398 
Q 353 888 353 1747 
Q 353 2609 779 3096 
Q 1206 3584 1959 3584 
z
" transform="scale(0.015625)"/>
       <path id="DejaVuSans-75" d="M 544 1381 
L 544 3500 
L 1119 3500 
L 1119 1403 
Q 1119 906 1312 657 
Q 1506 409 1894 409 
Q 2359 409 2629 706 
Q 2900 1003 2900 1516 
L 2900 3500 
L 3475 3500 
L 3475 0 
L 2900 0 
L 2900 538 
Q 2691 219 2414 64 
Q 2138 -91 1772 -91 
Q 1169 -91 856 284 
Q 544 659 544 1381 
z
M 1991 3584 
L 1991 3584 
z
" transform="scale(0.015625)"/>
       <path id="DejaVuSans-72" d="M 2631 2963 
Q 2534 3019 2420 3045 
Q 2306 3072 2169 3072 
Q 1681 3072 1420 2755 
Q 1159 2438 1159 1844 
L 1159 0 
L 581 0 
L 581 3500 
L 1159 3500 
L 1159 2956 
Q 1341 3275 1631 3429 
Q 1922 3584 2338 3584 
Q 2397 3584 2469 3576 
Q 2541 3569 2628 3553 
L 2631 2963 
z
" transform="scale(0.015625)"/>
       <path id="DejaVuSans-73" d="M 2834 3397 
L 2834 2853 
Q 2591 2978 2328 3040 
Q 2066 3103 1784 3103 
Q 1356 3103 1142 2972 
Q 928 2841 928 2578 
Q 928 2378 1081 2264 
Q 1234 2150 1697 2047 
L 1894 2003 
Q 2506 1872 2764 1633 
Q 3022 1394 3022 966 
Q 3022 478 2636 193 
Q 2250 -91 1575 -91 
Q 1294 -91 989 -36 
Q 684 19 347 128 
L 347 722 
Q 666 556 975 473 
Q 1284 391 1588 391 
Q 1994 391 2212 530 
Q 2431 669 2431 922 
Q 2431 1156 2273 1281 
Q 2116 1406 1581 1522 
L 1381 1569 
Q 847 1681 609 1914 
Q 372 2147 372 2553 
Q 372 3047 722 3315 
Q 1072 3584 1716 3584 
Q 2034 3584 2315 3537 
Q 2597 3491 2834 3397 
z
" transform="scale(0.015625)"/>
       <path id="DejaVuSans-5b" d="M 550 4863 
L 1875 4863 
L 1875 4416 
L 1125 4416 
L 1125 -397 
L 1875 -397 
L 1875 -844 
L 550 -844 
L 550 4863 
z
" transform="scale(0.015625)"/>
       <path id="DejaVuSans-5d" d="M 1947 4863 
L 1947 -844 
L 622 -844 
L 622 -397 
L 1369 -397 
L 1369 4416 
L 622 4416 
L 622 4863 
L 1947 4863 
z
" transform="scale(0.015625)"/>
      </defs>
      <use xlink:href="#DejaVuSans-74"/>
      <use xlink:href="#DejaVuSans-69" x="39.208984"/>
      <use xlink:href="#DejaVuSans-6d" x="66.992188"/>
      <use xlink:href="#DejaVuSans-65" x="164.404297"/>
      <use xlink:href="#DejaVuSans-20" x="225.927734"/>
      <use xlink:href="#DejaVuSans-69" x="257.714844"/>
      <use xlink:href="#DejaVuSans-6e" x="285.498047"/>
      <use xlink:href="#DejaVuSans-20" x="348.876953"/>
      <use xlink:href="#DejaVuSans-68" x="380.664062"/>
      <use xlink:href="#DejaVuSans-6f" x="444.042969"/>
      <use xlink:href="#DejaVuSans-75" x="505.224609"/>
      <use xlink:href="#DejaVuSans-72" x="568.603516"/>
      <use xlink:href="#DejaVuSans-73" x="609.716797"/>
      <use xlink:href="#DejaVuSans-20" x="661.816406"/>
      <use xlink:href="#DejaVuSans-5b" x="693.603516"/>
      <use xlink:href="#DejaVuSans-68" x="732.617188"/>
      <use xlink:href="#DejaVuSans-5d" x="795.996094"/>
     </g>
    </g>
   </g>
   <g id="matplotlib.axis_2">
    <g id="ytick_1">
     <g id="line2d_25">
      <path d="M 72 337.211554 
L 518.4 337.211554 
" clip-path="url(#pd46c8fca45)" style="fill: none; stroke: #b0b0b0; stroke-width: 0.8; stroke-linecap: square"/>
     </g>
     <g id="line2d_26">
      <defs>
       <path id="m2960bd5957" d="M 0 0 
L -3.5 0 
" style="stroke: #000000; stroke-width: 0.8"/>
      </defs>
      <g>
       <use xlink:href="#m2960bd5957" x="72" y="337.211554" style="stroke: #000000; stroke-width: 0.8"/>
      </g>
     </g>
     <g id="text_14">
      <!-- 30000 -->
      <g transform="translate(33.1875 341.010773) scale(0.1 -0.1)">
       <use xlink:href="#DejaVuSans-33"/>
       <use xlink:href="#DejaVuSans-30" x="63.623047"/>
       <use xlink:href="#DejaVuSans-30" x="127.246094"/>
       <use xlink:href="#DejaVuSans-30" x="190.869141"/>
       <use xlink:href="#DejaVuSans-30" x="254.492188"/>
      </g>
     </g>
    </g>
    <g id="ytick_2">
     <g id="line2d_27">
      <path d="M 72 279.991928 
L 518.4 279.991928 
" clip-path="url(#pd46c8fca45)" style="fill: none; stroke: #b0b0b0; stroke-width: 0.8; stroke-linecap: square"/>
     </g>
     <g id="line2d_28">
      <g>
       <use xlink:href="#m2960bd5957" x="72" y="279.991928" style="stroke: #000000; stroke-width: 0.8"/>
      </g>
     </g>
     <g id="text_15">
      <!-- 40000 -->
      <g transform="translate(33.1875 283.791147) scale(0.1 -0.1)">
       <use xlink:href="#DejaVuSans-34"/>
       <use xlink:href="#DejaVuSans-30" x="63.623047"/>
       <use xlink:href="#DejaVuSans-30" x="127.246094"/>
       <use xlink:href="#DejaVuSans-30" x="190.869141"/>
       <use xlink:href="#DejaVuSans-30" x="254.492188"/>
      </g>
     </g>
    </g>
    <g id="ytick_3">
     <g id="line2d_29">
      <path d="M 72 222.772302 
L 518.4 222.772302 
" clip-path="url(#pd46c8fca45)" style="fill: none; stroke: #b0b0b0; stroke-width: 0.8; stroke-linecap: square"/>
     </g>
     <g id="line2d_30">
      <g>
       <use xlink:href="#m2960bd5957" x="72" y="222.772302" style="stroke: #000000; stroke-width: 0.8"/>
      </g>
     </g>
     <g id="text_16">
      <!-- 50000 -->
      <g transform="translate(33.1875 226.571521) scale(0.1 -0.1)">
       <use xlink:href="#DejaVuSans-35"/>
       <use xlink:href="#DejaVuSans-30" x="63.623047"/>
       <use xlink:href="#DejaVuSans-30" x="127.246094"/>
       <use xlink:href="#DejaVuSans-30" x="190.869141"/>
       <use xlink:href="#DejaVuSans-30" x="254.492188"/>
      </g>
     </g>
    </g>
    <g id="ytick_4">
     <g id="line2d_31">
      <path d="M 72 165.552677 
L 518.4 165.552677 
" clip-path="url(#pd46c8fca45)" style="fill: none; stroke: #b0b0b0; stroke-width: 0.8; stroke-linecap: square"/>
     </g>
     <g id="line2d_32">
      <g>
       <use xlink:href="#m2960bd5957" x="72" y="165.552677" style="stroke: #000000; stroke-width: 0.8"/>
      </g>
     </g>
     <g id="text_17">
      <!-- 60000 -->
      <g transform="translate(33.1875 169.351895) scale(0.1 -0.1)">
       <use xlink:href="#DejaVuSans-36"/>
       <use xlink:href="#DejaVuSans-30" x="63.623047"/>
       <use xlink:href="#DejaVuSans-30" x="127.246094"/>
       <use xlink:href="#DejaVuSans-30" x="190.869141"/>
       <use xlink:href="#DejaVuSans-30" x="254.492188"/>
      </g>
     </g>
    </g>
    <g id="ytick_5">
     <g id="line2d_33">
      <path d="M 72 108.333051 
L 518.4 108.333051 
" clip-path="url(#pd46c8fca45)" style="fill: none; stroke: #b0b0b0; stroke-width: 0.8; stroke-linecap: square"/>
     </g>
     <g id="line2d_34">
      <g>
       <use xlink:href="#m2960bd5957" x="72" y="108.333051" style="stroke: #000000; stroke-width: 0.8"/>
      </g>
     </g>
     <g id="text_18">
      <!-- 70000 -->
      <g transform="translate(33.1875 112.13227) scale(0.1 -0.1)">
       <use xlink:href="#DejaVuSans-37"/>
       <use xlink:href="#DejaVuSans-30" x="63.623047"/>
       <use xlink:href="#DejaVuSans-30" x="127.246094"/>
       <use xlink:href="#DejaVuSans-30" x="190.869141"/>
       <use xlink:href="#DejaVuSans-30" x="254.492188"/>
      </g>
     </g>
    </g>
    <g id="text_19">
     <!-- blank corrected GFP RFU -->
     <g transform="translate(27.107812 280.149062) rotate(-90) scale(0.1 -0.1)">
      <defs>
       <path id="DejaVuSans-62" d="M 3116 1747 
Q 3116 2381 2855 2742 
Q 2594 3103 2138 3103 
Q 1681 3103 1420 2742 
Q 1159 2381 1159 1747 
Q 1159 1113 1420 752 
Q 1681 391 2138 391 
Q 2594 391 2855 752 
Q 3116 1113 3116 1747 
z
M 1159 2969 
Q 1341 3281 1617 3432 
Q 1894 3584 2278 3584 
Q 2916 3584 3314 3078 
Q 3713 2572 3713 1747 
Q 3713 922 3314 415 
Q 2916 -91 2278 -91 
Q 1894 -91 1617 61 
Q 1341 213 1159 525 
L 1159 0 
L 581 0 
L 581 4863 
L 1159 4863 
L 1159 2969 
z
" transform="scale(0.015625)"/>
       <path id="DejaVuSans-6c" d="M 603 4863 
L 1178 4863 
L 1178 0 
L 603 0 
L 603 4863 
z
" transform="scale(0.015625)"/>
       <path id="DejaVuSans-61" d="M 2194 1759 
Q 1497 1759 1228 1600 
Q 959 1441 959 1056 
Q 959 750 1161 570 
Q 1363 391 1709 391 
Q 2188 391 2477 730 
Q 2766 1069 2766 1631 
L 2766 1759 
L 2194 1759 
z
M 3341 1997 
L 3341 0 
L 2766 0 
L 2766 531 
Q 2569 213 2275 61 
Q 1981 -91 1556 -91 
Q 1019 -91 701 211 
Q 384 513 384 1019 
Q 384 1609 779 1909 
Q 1175 2209 1959 2209 
L 2766 2209 
L 2766 2266 
Q 2766 2663 2505 2880 
Q 2244 3097 1772 3097 
Q 1472 3097 1187 3025 
Q 903 2953 641 2809 
L 641 3341 
Q 956 3463 1253 3523 
Q 1550 3584 1831 3584 
Q 2591 3584 2966 3190 
Q 3341 2797 3341 1997 
z
" transform="scale(0.015625)"/>
       <path id="DejaVuSans-6b" d="M 581 4863 
L 1159 4863 
L 1159 1991 
L 2875 3500 
L 3609 3500 
L 1753 1863 
L 3688 0 
L 2938 0 
L 1159 1709 
L 1159 0 
L 581 0 
L 581 4863 
z
" transform="scale(0.015625)"/>
       <path id="DejaVuSans-63" d="M 3122 3366 
L 3122 2828 
Q 2878 2963 2633 3030 
Q 2388 3097 2138 3097 
Q 1578 3097 1268 2742 
Q 959 2388 959 1747 
Q 959 1106 1268 751 
Q 1578 397 2138 397 
Q 2388 397 2633 464 
Q 2878 531 3122 666 
L 3122 134 
Q 2881 22 2623 -34 
Q 2366 -91 2075 -91 
Q 1284 -91 818 406 
Q 353 903 353 1747 
Q 353 2603 823 3093 
Q 1294 3584 2113 3584 
Q 2378 3584 2631 3529 
Q 2884 3475 3122 3366 
z
" transform="scale(0.015625)"/>
       <path id="DejaVuSans-64" d="M 2906 2969 
L 2906 4863 
L 3481 4863 
L 3481 0 
L 2906 0 
L 2906 525 
Q 2725 213 2448 61 
Q 2172 -91 1784 -91 
Q 1150 -91 751 415 
Q 353 922 353 1747 
Q 353 2572 751 3078 
Q 1150 3584 1784 3584 
Q 2172 3584 2448 3432 
Q 2725 3281 2906 2969 
z
M 947 1747 
Q 947 1113 1208 752 
Q 1469 391 1925 391 
Q 2381 391 2643 752 
Q 2906 1113 2906 1747 
Q 2906 2381 2643 2742 
Q 2381 3103 1925 3103 
Q 1469 3103 1208 2742 
Q 947 2381 947 1747 
z
" transform="scale(0.015625)"/>
       <path id="DejaVuSans-47" d="M 3809 666 
L 3809 1919 
L 2778 1919 
L 2778 2438 
L 4434 2438 
L 4434 434 
Q 4069 175 3628 42 
Q 3188 -91 2688 -91 
Q 1594 -91 976 548 
Q 359 1188 359 2328 
Q 359 3472 976 4111 
Q 1594 4750 2688 4750 
Q 3144 4750 3555 4637 
Q 3966 4525 4313 4306 
L 4313 3634 
Q 3963 3931 3569 4081 
Q 3175 4231 2741 4231 
Q 1884 4231 1454 3753 
Q 1025 3275 1025 2328 
Q 1025 1384 1454 906 
Q 1884 428 2741 428 
Q 3075 428 3337 486 
Q 3600 544 3809 666 
z
" transform="scale(0.015625)"/>
       <path id="DejaVuSans-46" d="M 628 4666 
L 3309 4666 
L 3309 4134 
L 1259 4134 
L 1259 2759 
L 3109 2759 
L 3109 2228 
L 1259 2228 
L 1259 0 
L 628 0 
L 628 4666 
z
" transform="scale(0.015625)"/>
       <path id="DejaVuSans-50" d="M 1259 4147 
L 1259 2394 
L 2053 2394 
Q 2494 2394 2734 2622 
Q 2975 2850 2975 3272 
Q 2975 3691 2734 3919 
Q 2494 4147 2053 4147 
L 1259 4147 
z
M 628 4666 
L 2053 4666 
Q 2838 4666 3239 4311 
Q 3641 3956 3641 3272 
Q 3641 2581 3239 2228 
Q 2838 1875 2053 1875 
L 1259 1875 
L 1259 0 
L 628 0 
L 628 4666 
z
" transform="scale(0.015625)"/>
       <path id="DejaVuSans-52" d="M 2841 2188 
Q 3044 2119 3236 1894 
Q 3428 1669 3622 1275 
L 4263 0 
L 3584 0 
L 2988 1197 
Q 2756 1666 2539 1819 
Q 2322 1972 1947 1972 
L 1259 1972 
L 1259 0 
L 628 0 
L 628 4666 
L 2053 4666 
Q 2853 4666 3247 4331 
Q 3641 3997 3641 3322 
Q 3641 2881 3436 2590 
Q 3231 2300 2841 2188 
z
M 1259 4147 
L 1259 2491 
L 2053 2491 
Q 2509 2491 2742 2702 
Q 2975 2913 2975 3322 
Q 2975 3731 2742 3939 
Q 2509 4147 2053 4147 
L 1259 4147 
z
" transform="scale(0.015625)"/>
       <path id="DejaVuSans-55" d="M 556 4666 
L 1191 4666 
L 1191 1831 
Q 1191 1081 1462 751 
Q 1734 422 2344 422 
Q 2950 422 3222 751 
Q 3494 1081 3494 1831 
L 3494 4666 
L 4128 4666 
L 4128 1753 
Q 4128 841 3676 375 
Q 3225 -91 2344 -91 
Q 1459 -91 1007 375 
Q 556 841 556 1753 
L 556 4666 
z
" transform="scale(0.015625)"/>
      </defs>
      <use xlink:href="#DejaVuSans-62"/>
      <use xlink:href="#DejaVuSans-6c" x="63.476562"/>
      <use xlink:href="#DejaVuSans-61" x="91.259766"/>
      <use xlink:href="#DejaVuSans-6e" x="152.539062"/>
      <use xlink:href="#DejaVuSans-6b" x="215.917969"/>
      <use xlink:href="#DejaVuSans-20" x="273.828125"/>
      <use xlink:href="#DejaVuSans-63" x="305.615234"/>
      <use xlink:href="#DejaVuSans-6f" x="360.595703"/>
      <use xlink:href="#DejaVuSans-72" x="421.777344"/>
      <use xlink:href="#DejaVuSans-72" x="461.140625"/>
      <use xlink:href="#DejaVuSans-65" x="500.003906"/>
      <use xlink:href="#DejaVuSans-63" x="561.527344"/>
      <use xlink:href="#DejaVuSans-74" x="616.507812"/>
      <use xlink:href="#DejaVuSans-65" x="655.716797"/>
      <use xlink:href="#DejaVuSans-64" x="717.240234"/>
      <use xlink:href="#DejaVuSans-20" x="780.716797"/>
      <use xlink:href="#DejaVuSans-47" x="812.503906"/>
      <use xlink:href="#DejaVuSans-46" x="889.994141"/>
      <use xlink:href="#DejaVuSans-50" x="947.513672"/>
      <use xlink:href="#DejaVuSans-20" x="1007.816406"/>
      <use xlink:href="#DejaVuSans-52" x="1039.603516"/>
      <use xlink:href="#DejaVuSans-46" x="1109.085938"/>
      <use xlink:href="#DejaVuSans-55" x="1166.605469"/>
     </g>
    </g>
   </g>
   <g id="line2d_35">
    <path d="M 92.290909 350.866617 
L 93.19878 353.52733 
L 94.10665 353.813428 
L 95.014521 355.152367 
L 95.922392 354.259741 
L 96.830262 354.545839 
L 97.738133 354.620224 
L 98.646004 355.501407 
L 99.553874 355.140923 
L 100.461745 355.770339 
L 103.185357 355.186699 
L 104.093228 355.770339 
L 105.001098 354.871991 
L 105.908969 354.728942 
L 106.81684 354.145302 
L 107.72471 354.591615 
L 108.632581 354.036584 
L 109.540451 353.344227 
L 110.448322 353.630325 
L 112.264063 353.372837 
L 113.171934 352.897914 
L 114.079805 352.869304 
L 115.895546 352.325717 
L 116.803417 353.201178 
L 117.711287 351.375872 
L 120.434899 350.397416 
L 121.34277 349.264467 
L 122.250641 350.294421 
L 123.158511 349.098531 
L 124.066382 349.092809 
L 124.974253 348.457671 
L 125.882123 348.503446 
L 127.697865 346.311935 
L 129.513606 346.289047 
L 130.421477 345.665353 
L 131.329347 344.881444 
L 132.237218 344.990161 
L 133.145088 344.114701 
L 134.052959 343.794271 
L 134.96083 343.147689 
L 135.8687 343.267851 
L 136.776571 342.953143 
L 137.684442 343.187743 
L 138.592312 343.977374 
L 140.408054 341.906024 
L 141.315924 341.734365 
L 142.223795 340.155103 
L 144.039536 338.055143 
L 144.947407 336.487325 
L 145.855278 337.683215 
L 146.763148 336.544545 
L 147.671019 336.184061 
L 148.57889 334.530414 
L 149.48676 335.445928 
L 150.394631 334.118433 
L 151.302502 334.358755 
L 152.210372 332.356068 
L 153.118243 332.373234 
L 154.026113 333.128533 
L 154.933984 333.300192 
L 155.841855 332.453341 
L 156.749725 330.931299 
L 157.657596 332.396122 
L 158.565467 330.536484 
L 159.473337 328.390748 
L 160.381208 327.023199 
L 161.289079 324.963292 
L 162.196949 323.418363 
L 163.10482 322.760337 
L 164.920561 319.733419 
L 165.828432 319.716253 
L 166.736303 317.593405 
L 167.644173 316.975433 
L 168.552044 314.595096 
L 169.459915 313.805465 
L 171.275656 313.879851 
L 172.183527 315.785264 
L 173.091397 314.532155 
L 173.999268 311.779891 
L 174.907138 310.475283 
L 175.815009 307.631468 
L 176.72288 305.365571 
L 180.354362 295.260585 
L 183.985845 287.34711 
L 184.893716 284.612012 
L 185.801586 283.324571 
L 186.709457 279.977223 
L 187.617328 279.170426 
L 190.34094 271.211176 
L 191.24881 269.38587 
L 193.064552 264.424928 
L 193.972422 261.438064 
L 194.880293 260.139178 
L 195.788164 255.807653 
L 196.696034 255.68177 
L 197.603905 252.523246 
L 198.511775 250.692218 
L 199.419646 250.280237 
L 200.327517 249.313225 
L 201.235387 246.784118 
L 202.143258 246.663957 
L 203.051129 241.954781 
L 203.958999 240.541457 
L 204.86687 236.215653 
L 205.774741 230.779788 
L 206.682611 227.930251 
L 208.498353 218.88955 
L 209.406223 216.652263 
L 210.314094 213.453686 
L 211.221965 209.528419 
L 212.129835 208.172314 
L 213.037706 204.115443 
L 213.945577 200.716597 
L 214.853447 198.032997 
L 215.761318 194.74859 
L 216.669189 193.009114 
L 217.577059 190.205352 
L 218.48493 186.251476 
L 219.3928 186.068373 
L 222.116412 182.79541 
L 225.747895 161.4811 
L 226.655766 157.853375 
L 227.563636 152.715053 
L 228.471507 151.450499 
L 229.379378 147.95438 
L 230.287248 146.11763 
L 231.195119 141.677387 
L 232.10299 138.003887 
L 233.01086 136.813719 
L 233.918731 131.498016 
L 234.826602 133.643752 
L 235.734472 129.289338 
L 236.642343 131.807002 
L 237.550214 130.445175 
L 238.458084 131.704007 
L 239.365955 129.867257 
L 240.273826 127.629969 
L 241.181696 123.109619 
L 242.089567 119.304514 
L 242.997437 112.58693 
L 243.905308 110.830287 
L 244.813179 107.471495 
L 245.721049 100.66236 
L 246.62892 96.708483 
L 247.536791 95.64992 
L 248.444661 93.206642 
L 249.352532 89.899348 
L 250.260403 91.593049 
L 251.168273 88.932336 
L 252.076144 89.550308 
L 252.984015 90.740476 
L 253.891885 99.546577 
L 254.799756 103.105638 
L 255.707627 97.017469 
L 256.615497 98.619619 
L 257.523368 97.217738 
L 258.431239 94.230874 
L 259.339109 93.704453 
L 261.154851 89.046776 
L 262.062721 89.412981 
L 262.970592 87.7765 
L 263.878462 89.779187 
L 264.786333 90.16828 
L 265.694204 88.514633 
L 266.602074 90.80914 
L 267.509945 91.47861 
L 268.417816 96.222117 
L 269.325686 98.425072 
L 270.233557 101.984133 
L 271.141428 104.999607 
L 272.049298 106.830635 
L 272.957169 104.690621 
L 273.86504 105.983785 
L 274.77291 104.467465 
L 275.680781 103.63778 
L 276.588652 103.323072 
L 277.496522 106.041004 
L 278.404393 105.943731 
L 279.312264 107.763315 
L 280.220134 110.37253 
L 281.128005 111.562698 
L 282.035876 114.932934 
L 282.943746 116.020107 
L 284.759487 123.767644 
L 285.667358 131.045981 
L 286.575229 135.577775 
L 287.483099 141.580114 
L 288.39097 143.228039 
L 289.298841 146.403728 
L 290.206711 144.778691 
L 291.114582 144.435373 
L 292.022453 144.275158 
L 292.930323 145.276502 
L 293.838194 144.401041 
L 294.746065 141.33407 
L 295.653935 140.275506 
L 297.469677 142.695897 
L 298.377547 142.873277 
L 299.285418 144.887408 
L 301.101159 152.222964 
L 303.824771 172.381438 
L 304.732642 174.138081 
L 305.640513 176.46692 
L 306.548383 177.491151 
L 307.456254 173.98931 
L 308.364124 171.454481 
L 309.271995 168.330289 
L 310.179866 168.433284 
L 311.087736 165.927065 
L 312.903478 163.81566 
L 313.811348 163.924378 
L 315.62709 167.529214 
L 317.442831 173.34845 
L 318.350702 175.602903 
L 319.258572 180.186195 
L 320.166443 180.037424 
L 321.074314 181.090265 
L 321.982184 180.094644 
L 322.890055 179.287847 
L 323.797926 179.001749 
L 324.705796 181.359198 
L 325.613667 179.831434 
L 326.521538 181.908506 
L 327.429408 180.998714 
L 328.337279 186.034041 
L 329.245149 186.159924 
L 330.15302 190.674553 
L 331.060891 197.323473 
L 332.876632 212.046083 
L 333.784503 215.587978 
L 334.692373 220.045387 
L 336.508115 225.034938 
L 337.415985 223.43851 
L 338.323856 224.085092 
L 339.231727 220.966623 
L 340.139597 220.617583 
L 341.047468 218.260134 
L 341.955339 217.43045 
L 342.863209 215.891242 
L 343.77108 217.573499 
L 344.678951 217.974036 
L 345.586821 217.808099 
L 346.494692 219.610518 
L 347.402563 225.052104 
L 349.218304 231.311931 
L 351.034045 240.61012 
L 351.941916 249.193064 
L 353.757657 249.009961 
L 354.665528 250.737994 
L 355.573398 251.378854 
L 356.481269 250.938263 
L 357.38914 252.425973 
L 358.29701 252.946671 
L 359.204881 252.906618 
L 360.112752 252.569022 
L 361.020622 254.211225 
L 361.928493 256.803274 
L 362.836364 257.747398 
L 363.744234 259.572704 
L 364.652105 262.519515 
L 365.559976 264.642363 
L 366.467846 267.675003 
L 367.375717 274.564246 
L 368.283588 280.240433 
L 369.191458 286.832134 
L 370.099329 288.943538 
L 371.0072 291.386816 
L 371.91507 294.253519 
L 372.822941 292.725755 
L 373.730811 292.714311 
L 374.638682 293.772874 
L 375.546553 293.509664 
L 376.454423 294.997374 
L 377.362294 296.090269 
L 378.270165 296.450753 
L 379.178035 297.137388 
L 380.085906 299.563501 
L 380.993777 300.593454 
L 381.901647 302.516033 
L 382.809518 304.953589 
L 383.717389 306.847559 
L 384.625259 308.409655 
L 386.441001 312.632463 
L 387.348871 315.573552 
L 388.256742 320.105346 
L 389.164613 325.409605 
L 390.072483 329.483643 
L 390.980354 331.869701 
L 391.888225 332.962596 
L 392.796095 332.087136 
L 394.611836 330.771084 
L 395.519707 327.778498 
L 396.427578 326.222124 
L 397.335448 325.850197 
L 398.243319 324.259491 
L 399.15119 324.253769 
L 400.05906 323.281035 
L 400.966931 322.983493 
L 402.782672 322.193863 
L 404.598414 321.804769 
L 405.506284 321.249739 
L 406.414155 320.832035 
L 407.322026 321.158187 
L 408.229896 320.734762 
L 409.137767 321.804769 
L 410.045638 321.598778 
L 410.953508 322.079423 
L 411.861379 322.354077 
L 412.76925 326.199236 
L 413.67712 331.863979 
L 414.584991 333.855222 
L 415.492862 338.924881 
L 416.400732 338.770388 
L 417.308603 338.346963 
L 419.124344 335.766358 
L 420.032215 334.175652 
L 420.940085 331.881145 
L 421.847956 329.220433 
L 423.663697 325.895972 
L 424.571568 325.152117 
L 426.387309 321.804769 
L 427.29518 320.282727 
L 429.110921 318.554694 
L 430.018792 318.371592 
L 430.926663 317.513297 
L 431.834533 317.255809 
L 432.742404 317.221477 
L 433.650275 317.456078 
L 434.558145 316.311685 
L 435.466016 317.284419 
L 436.373887 317.147092 
L 437.281757 316.220134 
L 438.189628 317.43319 
L 439.097498 316.466178 
L 440.91324 325.724313 
L 441.82111 327.526732 
L 442.728981 331.125846 
L 443.636852 332.785215 
L 444.544722 332.464785 
L 445.452593 331.577881 
L 446.360464 330.994241 
L 447.268334 329.363482 
L 448.176205 326.479612 
L 449.084076 324.265213 
L 449.991946 322.399853 
L 450.899817 322.382687 
L 451.807688 321.375622 
L 452.715558 318.634802 
L 453.623429 316.941101 
L 454.5313 317.690678 
L 455.43917 316.769442 
L 456.347041 313.393484 
L 457.254912 315.041409 
L 458.162782 313.822631 
L 459.070653 313.708192 
L 459.978523 313.341986 
L 460.886394 313.273323 
L 461.794265 312.369253 
L 462.702135 311.928662 
L 463.610006 311.619676 
L 464.517877 312.615297 
L 465.425747 312.85562 
L 466.333618 311.379353 
L 467.241489 312.918561 
L 468.149359 312.048823 
L 469.05723 312.117486 
L 470.872971 311.076089 
L 471.780842 311.985881 
L 472.688713 311.997325 
L 473.596583 312.191872 
L 474.504454 311.882886 
L 475.412325 311.379353 
L 476.320195 309.634155 
L 477.228066 311.327856 
L 478.135937 310.154853 
L 479.043807 310.538225 
L 479.951678 310.503893 
L 480.859549 310.704162 
L 481.767419 309.857311 
L 482.67529 310.257849 
L 483.58316 309.496828 
L 484.491031 310.097634 
L 485.398902 307.87179 
L 486.306772 309.302281 
L 487.214643 309.485384 
L 488.122514 308.821636 
L 489.030384 310.715606 
L 489.938255 309.405276 
L 490.846126 309.977472 
L 491.753996 308.478318 
L 492.661867 308.787304 
L 493.569738 308.375323 
L 494.477608 309.742872 
L 495.385479 309.1249 
L 496.29335 308.884578 
L 497.20122 308.323825 
L 498.109091 308.375323 
L 498.109091 308.375323 
" clip-path="url(#pd46c8fca45)" style="fill: none; stroke: #008000; stroke-width: 1.5; stroke-linecap: square"/>
   </g>
   <g id="line2d_36">
    <path d="M 92.290909 350.832285 
L 94.10665 351.742077 
L 95.014521 352.503098 
L 95.922392 352.726255 
L 96.830262 352.165502 
L 97.738133 353.555939 
L 98.646004 353.401446 
L 99.553874 353.103904 
L 100.461745 353.721876 
L 101.369616 354.088082 
L 102.277486 353.435778 
L 103.185357 353.407168 
L 104.093228 354.076638 
L 105.001098 353.321339 
L 105.908969 354.179633 
L 106.81684 352.634703 
L 108.632581 353.132514 
L 109.540451 353.17829 
L 110.448322 352.766309 
L 111.356193 351.89657 
L 112.264063 351.438813 
L 114.079805 351.055442 
L 114.987675 351.118383 
L 115.895546 351.295764 
L 116.803417 350.374528 
L 117.711287 349.722224 
L 120.434899 348.903984 
L 121.34277 349.665005 
L 122.250641 349.916771 
L 123.158511 352.091117 
L 124.066382 353.624603 
L 124.974253 354.820493 
L 125.882123 354.75183 
L 126.789994 355.100869 
L 127.697865 352.743421 
L 128.605735 349.602063 
L 129.513606 344.915776 
L 130.421477 343.6455 
L 131.329347 343.485285 
L 132.237218 342.82726 
L 133.145088 342.947421 
L 134.052959 342.569771 
L 134.96083 341.568428 
L 135.8687 341.940355 
L 136.776571 343.759939 
L 137.684442 346.134554 
L 138.592312 347.69665 
L 139.500183 349.808054 
L 140.408054 351.290042 
L 141.315924 351.524643 
L 142.223795 351.072608 
L 143.131666 350.328752 
L 144.039536 348.154407 
L 146.763148 333.597734 
L 147.671019 334.765014 
L 148.57889 333.489017 
L 149.48676 333.391743 
L 150.394631 331.978419 
L 151.302502 334.192818 
L 152.210372 332.842435 
L 153.118243 336.636096 
L 154.026113 337.688937 
L 154.933984 339.251033 
L 155.841855 340.446923 
L 156.749725 342.878757 
L 157.657596 342.924533 
L 159.473337 342.586937 
L 160.381208 341.156446 
L 161.289079 338.673115 
L 164.012691 319.973741 
L 164.920561 317.513297 
L 165.828432 315.768099 
L 166.736303 316.420402 
L 167.644173 314.675204 
L 168.552044 314.995634 
L 169.459915 314.446325 
L 170.367785 317.799395 
L 171.275656 318.829349 
L 172.183527 321.850545 
L 173.091397 322.434185 
L 173.999268 322.279692 
L 174.907138 322.920552 
L 175.815009 320.488718 
L 176.72288 319.567482 
L 177.63075 318.857958 
L 178.538621 316.44329 
L 179.446492 314.349052 
L 180.354362 311.373631 
L 183.985845 288.537279 
L 184.893716 284.045538 
L 185.801586 280.303375 
L 186.709457 278.043199 
L 187.617328 276.807255 
L 189.433069 270.713365 
L 190.34094 269.740632 
L 192.156681 264.550812 
L 193.064552 260.980307 
L 195.788164 255.298398 
L 196.696034 257.037875 
L 197.603905 257.913335 
L 198.511775 258.165101 
L 200.327517 261.060414 
L 201.235387 260.059071 
L 202.143258 261.478118 
L 203.051129 259.978963 
L 203.958999 259.601314 
L 204.86687 257.398358 
L 206.682611 252.511802 
L 207.590482 249.296059 
L 209.406223 236.370146 
L 210.314094 225.229485 
L 212.129835 205.47727 
L 213.945577 196.453735 
L 214.853447 195.629772 
L 215.761318 193.421095 
L 216.669189 196.259188 
L 217.577059 193.215104 
L 218.48493 195.149128 
L 219.3928 196.224856 
L 220.300671 198.708188 
L 221.208542 199.9098 
L 222.116412 198.914179 
L 223.024283 198.244709 
L 223.932154 193.798744 
L 224.840024 190.926319 
L 225.747895 188.757695 
L 226.655766 179.705551 
L 229.379378 146.129074 
L 231.195119 138.79924 
L 232.10299 139.079616 
L 233.01086 139.806306 
L 233.918731 137.305808 
L 234.826602 141.997817 
L 235.734472 143.004883 
L 236.642343 146.243513 
L 237.550214 148.984333 
L 238.458084 153.510406 
L 239.365955 154.07688 
L 240.273826 153.985329 
L 242.089567 151.879647 
L 243.905308 148.280532 
L 245.721049 141.877656 
L 248.444661 119.699329 
L 249.352532 109.685895 
L 250.260403 108.444229 
L 251.168273 109.388352 
L 252.076144 111.820187 
L 252.984015 115.093149 
L 253.891885 121.764958 
L 254.799756 125.753165 
L 255.707627 130.582502 
L 256.615497 134.267446 
L 257.523368 134.387607 
L 258.431239 136.550509 
L 259.339109 136.458957 
L 260.24698 137.128427 
L 261.154851 138.12977 
L 262.062721 137.963834 
L 262.970592 135.50339 
L 263.878462 134.044289 
L 264.786333 127.263764 
L 265.694204 122.943682 
L 266.602074 119.476172 
L 267.509945 121.484581 
L 268.417816 125.020754 
L 269.325686 127.446866 
L 271.141428 142.47274 
L 273.86504 151.856759 
L 274.77291 153.069815 
L 275.680781 152.125691 
L 276.588652 156.268392 
L 277.496522 157.698882 
L 279.312264 158.74028 
L 280.220134 155.799191 
L 281.128005 152.280184 
L 282.035876 149.567974 
L 282.943746 151.147235 
L 283.851617 154.500305 
L 285.667358 163.209132 
L 286.575229 172.295609 
L 289.298841 186.680623 
L 290.206711 188.031006 
L 291.114582 191.509959 
L 292.022453 192.436917 
L 292.930323 191.647286 
L 293.838194 195.469557 
L 294.746065 195.366562 
L 295.653935 192.528469 
L 296.561806 191.607233 
L 297.469677 188.162611 
L 298.377547 184.037076 
L 299.285418 183.379051 
L 300.193289 187.178434 
L 301.101159 191.670174 
L 302.00903 194.822976 
L 302.916901 198.902735 
L 303.824771 203.783569 
L 304.732642 206.038022 
L 305.640513 209.7058 
L 306.548383 211.468165 
L 307.456254 214.3692 
L 308.364124 214.140321 
L 309.271995 215.685251 
L 310.179866 216.160174 
L 311.087736 216.20595 
L 311.995607 216.863975 
L 312.903478 214.552303 
L 313.811348 215.324768 
L 314.719219 214.357756 
L 315.62709 215.21605 
L 318.350702 221.704756 
L 320.166443 227.747148 
L 321.074314 228.256403 
L 321.982184 229.417961 
L 322.890055 229.755557 
L 323.797926 230.87134 
L 325.613667 225.836013 
L 327.429408 223.587282 
L 328.337279 226.282326 
L 329.245149 226.963239 
L 330.15302 232.542153 
L 331.060891 234.985431 
L 331.968761 239.843377 
L 332.876632 242.555587 
L 335.600244 256.631615 
L 336.508115 259.378157 
L 337.415985 261.060414 
L 338.323856 262.147587 
L 339.231727 263.492248 
L 340.139597 265.969858 
L 341.047468 267.726501 
L 341.955339 268.561907 
L 342.863209 268.979611 
L 343.77108 272.029417 
L 344.678951 269.73491 
L 345.586821 269.374426 
L 346.494692 269.317206 
L 347.402563 271.674655 
L 348.310433 275.21655 
L 349.218304 277.293622 
L 350.126174 280.228989 
L 351.034045 284.949608 
L 352.849786 292.617038 
L 354.665528 297.297603 
L 355.573398 300.044145 
L 357.38914 303.420103 
L 358.29701 306.624402 
L 359.204881 307.076437 
L 360.112752 307.305316 
L 361.020622 308.077781 
L 361.928493 308.146444 
L 362.836364 308.672865 
L 364.652105 310.658386 
L 365.559976 312.529468 
L 366.467846 315.178736 
L 368.283588 322.628732 
L 369.191458 326.954535 
L 370.099329 328.945778 
L 371.0072 332.04136 
L 371.91507 334.650575 
L 372.822941 336.172617 
L 373.730811 338.667393 
L 374.638682 340.710133 
L 375.546553 342.312283 
L 377.362294 346.786858 
L 378.270165 346.243271 
L 379.178035 348.446227 
L 380.085906 347.833977 
L 380.993777 348.812432 
L 381.901647 348.348953 
L 382.809518 350.208591 
L 384.625259 351.541809 
L 385.53313 352.972299 
L 386.441001 355.690231 
L 387.348871 356.8804 
L 388.256742 358.3395 
L 389.164613 361.492301 
L 390.072483 362.779743 
L 390.980354 365.120026 
L 391.888225 366.264418 
L 392.796095 366.493297 
L 393.703966 367.706353 
L 394.611836 367.734963 
L 395.519707 367.963841 
L 396.427578 368.415876 
L 397.335448 367.322981 
L 398.243319 366.956776 
L 399.15119 367.328703 
L 400.05906 367.191376 
L 400.966931 366.785117 
L 401.874802 367.219986 
L 404.598414 364.181624 
L 405.506284 361.686848 
L 406.414155 361.744068 
L 407.322026 359.958815 
L 409.137767 358.928862 
L 410.953508 358.522603 
L 411.861379 361.063154 
L 412.76925 361.360696 
L 413.67712 363.575096 
L 414.584991 364.256009 
L 415.492862 366.979664 
L 416.400732 367.179932 
L 417.308603 368.1355 
L 418.216473 367.820792 
L 419.124344 369.36 
L 420.032215 367.620523 
L 420.940085 368.461652 
L 421.847956 368.043949 
L 422.755827 368.564647 
L 423.663697 368.616145 
L 424.571568 367.031161 
L 425.479439 365.989764 
L 426.387309 365.966876 
L 427.29518 363.546486 
L 428.203051 362.001556 
L 429.110921 359.644108 
L 430.018792 357.710084 
L 430.926663 357.132166 
L 431.834533 356.834624 
L 432.742404 357.177942 
L 433.650275 356.874678 
L 434.558145 355.982052 
L 435.466016 353.853481 
L 436.373887 354.500063 
L 437.281757 353.487276 
L 439.097498 353.767652 
L 440.91324 358.390998 
L 441.82111 359.712771 
L 442.728981 361.297755 
L 443.636852 362.350596 
L 444.544722 361.875673 
L 445.452593 363.025787 
L 446.360464 363.29472 
L 448.176205 362.110273 
L 449.084076 362.648138 
L 449.991946 361.40075 
L 450.899817 362.379206 
L 451.807688 362.007278 
L 452.715558 361.326365 
L 453.623429 358.637042 
L 454.5313 357.526981 
L 455.43917 355.283972 
L 456.347041 354.69461 
L 457.254912 351.965234 
L 458.162782 351.358706 
L 459.070653 349.939659 
L 461.794265 347.925528 
L 462.702135 347.736703 
L 463.610006 346.426374 
L 464.517877 347.244615 
L 465.425747 347.479215 
L 466.333618 346.260437 
L 467.241489 348.234514 
L 468.149359 347.748147 
L 469.05723 348.411895 
L 469.965101 346.752526 
L 470.872971 345.957173 
L 472.688713 347.524991 
L 473.596583 346.655253 
L 474.504454 346.134554 
L 475.412325 346.826911 
L 476.320195 344.566736 
L 477.228066 343.09047 
L 479.043807 345.505138 
L 479.951678 345.631021 
L 480.859549 345.178986 
L 481.767419 345.196152 
L 482.67529 345.064547 
L 483.58316 345.224762 
L 484.491031 346.884131 
L 485.398902 344.761283 
L 486.306772 344.263472 
L 487.214643 345.304869 
L 488.122514 345.127489 
L 489.030384 345.436474 
L 489.938255 344.372189 
L 490.846126 344.040316 
L 491.753996 343.582559 
L 492.661867 342.592659 
L 493.569738 342.523996 
L 494.477608 344.166199 
L 495.385479 344.749839 
L 497.20122 343.273573 
L 498.109091 343.977374 
L 498.109091 343.977374 
" clip-path="url(#pd46c8fca45)" style="fill: none; stroke: #008000; stroke-width: 1.5; stroke-linecap: square"/>
   </g>
   <g id="line2d_37">
    <path d="M 92.290909 335.897963 
L 93.19878 339.102262 
L 94.10665 339.027876 
L 95.014521 338.650227 
L 95.922392 340.109327 
L 96.830262 340.120771 
L 97.738133 340.710133 
L 98.646004 341.745809 
L 99.553874 340.778797 
L 100.461745 341.247998 
L 101.369616 341.179334 
L 102.277486 340.761631 
L 103.185357 340.630026 
L 104.093228 341.316661 
L 105.001098 340.069274 
L 105.908969 340.767353 
L 106.81684 339.697346 
L 107.72471 339.720234 
L 108.632581 338.913437 
L 109.540451 339.03932 
L 110.448322 339.65157 
L 111.356193 339.399804 
L 112.264063 338.713168 
L 113.171934 339.056486 
L 114.079805 338.146694 
L 114.987675 338.724612 
L 115.895546 337.500112 
L 117.711287 337.059521 
L 118.619158 336.899306 
L 119.527029 336.613208 
L 120.434899 336.721925 
L 121.34277 336.681872 
L 122.250641 335.171274 
L 123.158511 335.560367 
L 124.974253 338.42707 
L 126.789994 334.553302 
L 127.697865 331.411944 
L 129.513606 330.336215 
L 131.329347 330.376269 
L 132.237218 329.420701 
L 133.145088 330.479264 
L 134.052959 327.194858 
L 134.96083 327.692669 
L 135.8687 327.658337 
L 136.776571 328.093206 
L 137.684442 328.058874 
L 138.592312 331.497774 
L 140.408054 334.496082 
L 141.315924 333.317358 
L 142.223795 332.659332 
L 143.131666 328.92289 
L 144.039536 322.994937 
L 144.947407 321.329846 
L 145.855278 319.950853 
L 146.763148 319.275662 
L 147.671019 320.002351 
L 148.57889 318.703465 
L 149.48676 319.172666 
L 150.394631 318.033996 
L 151.302502 317.993942 
L 152.210372 317.009764 
L 153.118243 319.613257 
L 154.026113 319.887912 
L 154.933984 321.89632 
L 155.841855 323.309645 
L 156.749725 323.538524 
L 157.657596 324.551311 
L 158.565467 323.195206 
L 159.473337 322.434185 
L 160.381208 316.494788 
L 161.289079 308.146444 
L 162.196949 305.485732 
L 163.10482 304.873482 
L 164.012691 303.626094 
L 164.920561 301.978169 
L 165.828432 302.144106 
L 166.736303 300.479015 
L 167.644173 298.48205 
L 168.552044 296.82268 
L 169.459915 296.393533 
L 170.367785 298.894031 
L 171.275656 300.890996 
L 172.183527 304.152515 
L 173.091397 304.982199 
L 174.907138 301.863729 
L 175.815009 300.765113 
L 176.72288 299.071412 
L 177.63075 294.745608 
L 179.446492 278.048921 
L 180.354362 276.183561 
L 182.170104 270.890746 
L 183.077974 269.139826 
L 183.985845 267.062753 
L 184.893716 265.552155 
L 185.801586 262.771281 
L 188.525198 256.900548 
L 189.433069 252.900896 
L 190.34094 251.31019 
L 191.24881 248.878356 
L 192.156681 245.502398 
L 193.064552 243.923136 
L 193.972422 241.720181 
L 194.880293 238.698985 
L 195.788164 235.12848 
L 196.696034 235.202866 
L 197.603905 234.470454 
L 198.511775 235.174256 
L 199.419646 233.663658 
L 200.327517 236.055438 
L 201.235387 237.188387 
L 202.143258 237.19983 
L 203.051129 235.088426 
L 203.958999 233.675102 
L 204.86687 229.240581 
L 205.774741 227.792924 
L 206.682611 221.527375 
L 208.498353 197.844172 
L 209.406223 192.848899 
L 210.314094 190.096635 
L 211.221965 185.988265 
L 212.129835 183.894027 
L 213.945577 177.479707 
L 214.853447 176.06066 
L 215.761318 170.035434 
L 216.669189 174.263964 
L 217.577059 171.168382 
L 218.48493 167.031403 
L 219.3928 169.617731 
L 220.300671 171.351485 
L 221.208542 172.009511 
L 222.116412 172.953635 
L 223.024283 170.281478 
L 223.932154 165.349146 
L 224.840024 155.965128 
L 225.747895 141.746051 
L 226.655766 130.994483 
L 227.563636 127.395369 
L 228.471507 126.502743 
L 229.379378 122.663306 
L 230.287248 122.308544 
L 231.195119 118.755205 
L 232.10299 113.296453 
L 233.01086 113.159126 
L 233.918731 110.767345 
L 234.826602 115.671067 
L 235.734472 113.267843 
L 236.642343 119.150021 
L 237.550214 121.433084 
L 238.458084 127.286651 
L 239.365955 129.375168 
L 240.273826 129.049016 
L 241.181696 125.758887 
L 242.089567 124.637383 
L 242.997437 122.26849 
L 243.905308 116.140268 
L 244.813179 105.257095 
L 245.721049 88.33153 
L 246.62892 75.394173 
L 247.536791 73.488759 
L 248.444661 72.029659 
L 249.352532 70.25585 
L 250.260403 69.889645 
L 251.168273 76.20097 
L 252.076144 77.957612 
L 252.984015 83.914175 
L 253.891885 94.80307 
L 254.799756 103.157135 
L 255.707627 104.936666 
L 256.615497 108.901986 
L 257.523368 108.346955 
L 258.431239 110.595687 
L 259.339109 109.52568 
L 260.24698 106.927909 
L 261.154851 95.701418 
L 262.062721 77.677236 
L 262.970592 72.447362 
L 263.878462 74.644596 
L 264.786333 74.398551 
L 266.602074 77.07643 
L 267.509945 80.320783 
L 268.417816 87.553343 
L 269.325686 95.958906 
L 270.233557 105.857902 
L 272.049298 119.367455 
L 272.957169 122.777745 
L 273.86504 127.526974 
L 274.77291 125.861883 
L 275.680781 126.685845 
L 276.588652 124.997866 
L 277.496522 115.980053 
L 278.404393 109.542845 
L 279.312264 104.530406 
L 280.220134 106.767694 
L 281.128005 109.571455 
L 282.035876 111.991845 
L 282.943746 115.419301 
L 283.851617 122.491647 
L 287.483099 157.006525 
L 288.39097 156.829144 
L 289.298841 163.306406 
L 290.206711 165.65241 
L 291.114582 164.937165 
L 292.022453 167.723761 
L 292.930323 168.13002 
L 293.838194 160.079219 
L 295.653935 138.656191 
L 296.561806 138.078273 
L 297.469677 139.874969 
L 298.377547 140.018018 
L 299.285418 140.727541 
L 301.101159 150.718088 
L 302.916901 166.567924 
L 303.824771 172.696146 
L 304.732642 176.403978 
L 306.548383 181.176095 
L 307.456254 182.045833 
L 308.364124 181.256202 
L 309.271995 178.727095 
L 310.179866 172.993688 
L 311.087736 165.011551 
L 311.995607 154.877955 
L 312.903478 153.779338 
L 313.811348 154.671964 
L 314.719219 157.389896 
L 316.53496 164.216198 
L 317.442831 169.451794 
L 318.350702 172.438658 
L 319.258572 176.558471 
L 320.166443 177.811581 
L 321.074314 180.769836 
L 321.982184 176.037773 
L 322.890055 167.157287 
L 323.797926 165.44642 
L 324.705796 166.928408 
L 325.613667 170.201371 
L 326.521538 171.008167 
L 327.429408 172.701868 
L 328.337279 175.79745 
L 329.245149 177.731473 
L 330.15302 182.801132 
L 331.968761 198.399202 
L 332.876632 204.098277 
L 333.784503 211.061905 
L 334.692373 216.314667 
L 335.600244 220.11405 
L 336.508115 222.454333 
L 337.415985 225.435475 
L 338.323856 227.75287 
L 339.231727 224.617235 
L 340.139597 222.179679 
L 341.047468 218.191471 
L 341.955339 207.891938 
L 342.863209 201.042749 
L 343.77108 199.286106 
L 344.678951 201.986873 
L 345.586821 203.194207 
L 346.494692 205.225504 
L 347.402563 214.821235 
L 348.310433 217.556333 
L 349.218304 222.21401 
L 350.126174 229.744113 
L 351.034045 236.015384 
L 351.941916 243.986078 
L 352.849786 245.679779 
L 353.757657 248.700975 
L 354.665528 251.201473 
L 355.573398 252.443139 
L 356.481269 253.055389 
L 357.38914 251.750781 
L 358.29701 246.967221 
L 359.204881 243.225057 
L 360.112752 235.122758 
L 361.020622 234.006975 
L 362.836364 237.983739 
L 363.744234 238.733316 
L 364.652105 242.246601 
L 365.559976 243.843029 
L 366.467846 247.882735 
L 367.375717 257.117982 
L 368.283588 262.845667 
L 369.191458 269.660524 
L 370.099329 274.787403 
L 371.0072 279.033099 
L 371.91507 281.373382 
L 373.730811 282.832482 
L 374.638682 284.589124 
L 375.546553 284.766505 
L 376.454423 282.992697 
L 377.362294 278.80422 
L 378.270165 273.156643 
L 379.178035 271.565938 
L 380.085906 273.442741 
L 380.993777 274.827456 
L 381.901647 277.882984 
L 382.809518 279.353529 
L 383.717389 282.031407 
L 384.625259 282.906867 
L 385.53313 284.240085 
L 386.441001 289.510012 
L 387.348871 293.023297 
L 388.256742 298.585045 
L 390.072483 307.997673 
L 390.980354 311.442295 
L 391.888225 313.713914 
L 392.796095 313.96568 
L 393.703966 313.525089 
L 394.611836 314.503545 
L 395.519707 313.851241 
L 397.335448 305.686 
L 398.243319 300.667839 
L 399.15119 298.087234 
L 400.05906 292.370994 
L 400.966931 292.433935 
L 401.874802 292.702867 
L 402.782672 293.429557 
L 403.690543 293.217844 
L 404.598414 292.737199 
L 405.506284 294.413734 
L 406.414155 294.865769 
L 408.229896 292.491155 
L 409.137767 295.449409 
L 410.045638 295.603902 
L 410.953508 294.48812 
L 411.861379 294.522452 
L 412.76925 299.689384 
L 413.67712 305.766108 
L 415.492862 312.689683 
L 416.400732 313.816909 
L 417.308603 315.453391 
L 418.216473 314.452047 
L 419.124344 314.709535 
L 420.032215 313.43926 
L 420.940085 312.580965 
L 421.847956 310.64122 
L 422.755827 306.710232 
L 423.663697 303.809197 
L 424.571568 292.582706 
L 425.479439 288.537279 
L 426.387309 286.311435 
L 427.29518 286.17983 
L 428.203051 284.365968 
L 429.110921 285.51036 
L 430.018792 285.006828 
L 430.926663 284.920998 
L 431.834533 284.228641 
L 432.742404 284.549071 
L 433.650275 284.148533 
L 434.558145 282.615047 
L 435.466016 282.872536 
L 436.373887 283.513396 
L 437.281757 282.27173 
L 438.189628 281.796807 
L 439.097498 281.97991 
L 440.005369 286.322879 
L 440.91324 292.308052 
L 441.82111 293.687045 
L 442.728981 300.175751 
L 443.636852 300.885274 
L 444.544722 300.919606 
L 446.360464 300.095643 
L 447.268334 298.859699 
L 448.176205 298.97986 
L 449.084076 295.746952 
L 449.991946 290.700181 
L 451.807688 283.685054 
L 452.715558 272.733218 
L 453.623429 273.007872 
L 454.5313 271.102459 
L 455.43917 271.462942 
L 456.347041 271.188288 
L 457.254912 271.880646 
L 458.162782 270.473043 
L 459.070653 270.295662 
L 459.978523 269.62047 
L 460.886394 268.430302 
L 461.794265 267.600618 
L 462.702135 268.561907 
L 463.610006 266.416171 
L 464.517877 266.29601 
L 465.425747 265.082954 
L 466.333618 267.182914 
L 467.241489 266.35323 
L 468.149359 264.350543 
L 469.05723 269.534641 
L 469.965101 263.217594 
L 470.872971 262.731227 
L 471.780842 260.768594 
L 472.688713 263.286258 
L 473.596583 263.068823 
L 474.504454 260.533994 
L 475.412325 258.983342 
L 476.320195 258.245209 
L 477.228066 258.966176 
L 478.135937 257.867559 
L 479.043807 259.715753 
L 479.951678 256.728889 
L 480.859549 257.072206 
L 481.767419 255.035188 
L 482.67529 257.72451 
L 483.58316 254.279889 
L 484.491031 255.412837 
L 485.398902 254.176893 
L 486.306772 253.513146 
L 487.214643 253.547478 
L 488.122514 252.231426 
L 489.030384 252.27148 
L 489.938255 252.431695 
L 490.846126 251.293024 
L 491.753996 249.650821 
L 492.661867 250.091412 
L 493.569738 249.055737 
L 494.477608 250.303125 
L 495.385479 250.366066 
L 496.29335 248.563648 
L 497.20122 247.133157 
L 498.109091 247.499363 
L 498.109091 247.499363 
" clip-path="url(#pd46c8fca45)" style="fill: none; stroke: #008000; stroke-width: 1.5; stroke-linecap: square"/>
   </g>
   <g id="line2d_38">
    <path d="M 92.290909 337.906372 
L 93.19878 337.694659 
L 94.10665 337.746157 
L 95.014521 339.422692 
L 95.922392 339.457024 
L 96.830262 339.994888 
L 97.738133 339.989166 
L 98.646004 340.332484 
L 99.553874 341.019119 
L 100.461745 339.514243 
L 101.369616 340.527031 
L 102.277486 339.76601 
L 103.185357 340.240932 
L 104.093228 340.02922 
L 105.001098 340.383982 
L 105.908969 340.229489 
L 106.81684 339.148038 
L 107.72471 338.879105 
L 108.632581 339.920503 
L 109.540451 338.490012 
L 110.448322 339.085096 
L 111.356193 338.650227 
L 112.264063 338.673115 
L 113.171934 338.278299 
L 114.987675 337.81482 
L 115.895546 338.129528 
L 116.803417 336.527379 
L 117.711287 336.00668 
L 118.619158 335.766358 
L 119.527029 335.36582 
L 120.434899 335.15983 
L 121.34277 334.599077 
L 122.250641 334.553302 
L 123.158511 335.10261 
L 124.066382 333.254416 
L 124.974253 334.793624 
L 125.882123 333.094201 
L 128.605735 330.879802 
L 129.513606 329.718243 
L 130.421477 329.924234 
L 131.329347 328.791285 
L 132.237218 329.483643 
L 133.145088 327.990211 
L 134.052959 327.20058 
L 134.96083 327.566785 
L 136.776571 326.903038 
L 137.684442 328.625348 
L 138.592312 330.75964 
L 139.500183 330.948465 
L 140.408054 332.522005 
L 141.315924 331.743818 
L 142.223795 330.004341 
L 143.131666 323.704461 
L 144.947407 320.900699 
L 145.855278 319.910799 
L 146.763148 319.927965 
L 147.671019 318.754963 
L 148.57889 317.942444 
L 149.48676 318.680577 
L 150.394631 317.547629 
L 151.302502 317.40458 
L 152.210372 315.91687 
L 153.118243 317.038374 
L 154.026113 318.594748 
L 154.933984 319.836414 
L 155.841855 319.596092 
L 156.749725 320.614601 
L 157.657596 319.018173 
L 158.565467 318.01683 
L 159.473337 314.171671 
L 160.381208 307.007774 
L 162.196949 305.857659 
L 163.10482 304.020909 
L 164.012691 302.882239 
L 164.920561 301.451748 
L 165.828432 302.023944 
L 166.736303 300.782279 
L 167.644173 298.899753 
L 168.552044 297.606589 
L 169.459915 295.12898 
L 170.367785 297.234662 
L 171.275656 298.899753 
L 172.183527 299.792379 
L 173.091397 299.59211 
L 173.999268 298.207395 
L 174.907138 295.930054 
L 175.815009 294.448066 
L 177.63075 281.808251 
L 178.538621 279.073153 
L 179.446492 277.894428 
L 180.354362 275.731526 
L 181.262233 273.231029 
L 182.170104 271.394279 
L 184.893716 264.579421 
L 185.801586 263.806956 
L 186.709457 261.912987 
L 188.525198 256.053697 
L 189.433069 253.776356 
L 190.34094 252.3287 
L 191.24881 249.8797 
L 192.156681 246.051707 
L 193.064552 243.448214 
L 193.972422 241.416917 
L 194.880293 240.169529 
L 195.788164 236.576137 
L 196.696034 235.214309 
L 197.603905 233.52633 
L 198.511775 233.955478 
L 199.419646 231.609473 
L 200.327517 233.228788 
L 201.235387 234.57345 
L 202.143258 232.582207 
L 203.051129 231.437814 
L 203.958999 228.479559 
L 204.86687 224.148034 
L 205.774741 219.221424 
L 207.590482 198.153158 
L 208.498353 194.605541 
L 209.406223 193.049167 
L 210.314094 190.348401 
L 211.221965 185.507621 
L 212.129835 182.692415 
L 213.037706 180.569567 
L 215.761318 172.20978 
L 216.669189 168.181518 
L 217.577059 165.812625 
L 218.48493 162.882981 
L 219.3928 164.971497 
L 220.300671 165.65241 
L 221.208542 162.882981 
L 222.116412 164.204754 
L 223.024283 159.621462 
L 223.932154 146.363675 
L 224.840024 138.759186 
L 225.747895 136.464679 
L 226.655766 131.400742 
L 227.563636 127.916067 
L 228.471507 127.612803 
L 229.379378 121.387308 
L 230.287248 120.540458 
L 231.195119 118.480551 
L 232.10299 113.948757 
L 233.01086 111.671416 
L 233.918731 107.597378 
L 234.826602 115.945722 
L 235.734472 111.757245 
L 236.642343 113.428058 
L 237.550214 117.765306 
L 238.458084 123.544488 
L 239.365955 124.282621 
L 242.089567 115.419301 
L 242.997437 107.940696 
L 243.905308 88.171315 
L 244.813179 76.303965 
L 245.721049 74.04379 
L 246.62892 74.146785 
L 247.536791 72.384421 
L 248.444661 69.511995 
L 249.352532 67.354815 
L 250.260403 68.991297 
L 251.168273 69.134346 
L 252.076144 70.278738 
L 252.984015 69.689376 
L 253.891885 82.958607 
L 254.799756 89.515976 
L 255.707627 92.142357 
L 257.523368 93.790283 
L 258.431239 87.587675 
L 259.339109 74.89064 
L 260.24698 68.367603 
L 261.154851 66.96 
L 262.062721 69.523439 
L 262.970592 67.646636 
L 263.878462 69.626435 
L 264.786333 71.165642 
L 265.694204 71.457463 
L 266.602074 72.0926 
L 267.509945 73.998014 
L 268.417816 82.672509 
L 269.325686 88.480301 
L 271.141428 101.720923 
L 272.049298 107.843423 
L 272.957169 109.422684 
L 273.86504 113.147682 
L 274.77291 108.701717 
L 275.680781 95.672808 
L 276.588652 88.777843 
L 277.496522 90.191168 
L 278.404393 92.485675 
L 279.312264 93.034983 
L 280.220134 96.479605 
L 282.035876 100.942736 
L 282.943746 103.197189 
L 283.851617 107.214007 
L 284.759487 120.72356 
L 285.667358 126.165147 
L 286.575229 137.059763 
L 287.483099 145.722815 
L 288.39097 149.487866 
L 289.298841 151.147235 
L 290.206711 151.381836 
L 291.114582 149.693857 
L 292.022453 147.159027 
L 292.930323 131.978661 
L 293.838194 120.391687 
L 294.746065 122.096831 
L 295.653935 124.070908 
L 296.561806 125.026476 
L 297.469677 126.313918 
L 298.377547 126.680123 
L 300.193289 129.792871 
L 301.101159 139.005231 
L 302.00903 144.223661 
L 302.916901 152.108525 
L 304.732642 162.316506 
L 305.640513 162.642658 
L 306.548383 163.95871 
L 307.456254 161.092006 
L 308.364124 153.773616 
L 309.271995 139.983686 
L 310.179866 132.173207 
L 311.087736 131.412186 
L 311.995607 133.98707 
L 312.903478 133.432039 
L 313.811348 134.032845 
L 314.719219 135.663605 
L 315.62709 136.802275 
L 316.53496 143.783069 
L 317.442831 144.143553 
L 318.350702 145.528268 
L 319.258572 146.11763 
L 320.166443 147.616784 
L 321.074314 141.643055 
L 321.982184 137.500355 
L 322.890055 137.116983 
L 323.797926 137.528964 
L 324.705796 139.445822 
L 325.613667 139.565983 
L 326.521538 139.308495 
L 327.429408 138.925123 
L 328.337279 140.618824 
L 329.245149 139.537373 
L 330.15302 144.103499 
L 331.060891 151.198733 
L 332.876632 163.764163 
L 333.784503 167.534936 
L 334.692373 173.600216 
L 335.600244 176.335315 
L 337.415985 177.359546 
L 338.323856 171.563198 
L 339.231727 163.180523 
L 341.047468 140.338448 
L 341.955339 142.129422 
L 343.77108 141.065137 
L 344.678951 140.824815 
L 345.586821 141.843324 
L 346.494692 141.259684 
L 347.402563 147.776999 
L 348.310433 147.084642 
L 351.034045 167.843922 
L 351.941916 176.129324 
L 352.849786 178.767149 
L 354.665528 179.013193 
L 355.573398 176.999062 
L 356.481269 173.69749 
L 357.38914 168.261625 
L 358.29701 149.167436 
L 359.204881 142.232418 
L 360.112752 143.14221 
L 361.020622 146.020357 
L 361.928493 144.887408 
L 362.836364 146.426616 
L 363.744234 145.894474 
L 364.652105 147.0217 
L 366.467846 147.576731 
L 367.375717 155.67903 
L 369.191458 168.381787 
L 371.0072 177.725751 
L 371.91507 176.35248 
L 372.822941 175.671567 
L 373.730811 172.810586 
L 374.638682 166.173109 
L 375.546553 154.374422 
L 376.454423 150.065784 
L 377.362294 148.097429 
L 378.270165 147.805609 
L 379.178035 151.313172 
L 380.085906 151.090016 
L 380.993777 150.512097 
L 381.901647 150.4606 
L 382.809518 152.016974 
L 383.717389 150.80964 
L 384.625259 152.789439 
L 385.53313 151.604992 
L 386.441001 159.833175 
L 387.348871 159.438359 
L 389.164613 178.698485 
L 390.072483 184.729434 
L 390.980354 187.126936 
L 391.888225 190.949207 
L 392.796095 190.342679 
L 393.703966 188.986574 
L 394.611836 187.178434 
L 395.519707 180.901441 
L 397.335448 156.863476 
L 398.243319 151.410446 
L 399.15119 153.212864 
L 400.05906 152.314516 
L 400.966931 150.861137 
L 401.874802 152.417511 
L 402.782672 152.85238 
L 403.690543 150.025731 
L 404.598414 150.19739 
L 405.506284 152.463287 
L 406.414155 151.725154 
L 407.322026 151.936866 
L 408.229896 153.561904 
L 409.137767 154.225651 
L 410.045638 154.300037 
L 410.953508 154.16271 
L 411.861379 155.713361 
L 412.76925 162.339394 
L 413.67712 173.497221 
L 414.584991 176.358202 
L 415.492862 183.150172 
L 416.400732 185.026976 
L 417.308603 184.13435 
L 418.216473 185.055586 
L 419.124344 184.191569 
L 420.032215 180.237693 
L 420.940085 174.269686 
L 421.847956 162.333672 
L 422.755827 145.791478 
L 423.663697 144.132109 
L 424.571568 145.013291 
L 425.479439 144.000504 
L 427.29518 143.485527 
L 428.203051 141.025084 
L 429.110921 141.459953 
L 430.018792 140.847703 
L 430.926663 142.650121 
L 431.834533 140.590214 
L 432.742404 140.327004 
L 433.650275 139.600315 
L 435.466016 136.258689 
L 436.373887 135.875317 
L 437.281757 134.988413 
L 438.189628 135.423282 
L 439.097498 135.720824 
L 440.91324 149.84835 
L 441.82111 153.024039 
L 442.728981 161.921691 
L 443.636852 162.207789 
L 444.544722 164.382135 
L 445.452593 163.340738 
L 447.268334 155.427263 
L 448.176205 150.740976 
L 449.991946 125.41557 
L 450.899817 121.993836 
L 451.807688 122.468759 
L 452.715558 119.762271 
L 453.623429 117.616535 
L 454.5313 117.467764 
L 455.43917 117.673754 
L 456.347041 116.992841 
L 457.254912 116.094493 
L 458.162782 115.814116 
L 459.070653 114.063196 
L 459.978523 114.984432 
L 460.886394 114.063196 
L 461.794265 112.489656 
L 463.610006 110.492691 
L 464.517877 110.383974 
L 465.425747 109.474182 
L 466.333618 110.326754 
L 467.241489 112.495378 
L 468.149359 109.43985 
L 469.05723 109.73167 
L 469.965101 107.008016 
L 470.872971 105.594691 
L 471.780842 106.933631 
L 472.688713 105.142656 
L 473.596583 103.712166 
L 474.504454 103.02553 
L 475.412325 103.820883 
L 476.320195 102.029909 
L 477.228066 102.007021 
L 479.043807 101.320385 
L 479.951678 99.895617 
L 480.859549 100.330486 
L 481.767419 98.138974 
L 482.67529 98.854219 
L 483.58316 96.811479 
L 484.491031 99.249035 
L 485.398902 95.913131 
L 486.306772 94.700075 
L 487.214643 95.449652 
L 488.122514 95.009061 
L 489.030384 96.164897 
L 489.938255 93.984829 
L 490.846126 93.183754 
L 491.753996 95.112056 
L 492.661867 93.103647 
L 493.569738 91.781874 
L 494.477608 94.734406 
L 495.385479 94.196542 
L 496.29335 90.4601 
L 497.20122 90.826306 
L 498.109091 92.737441 
L 498.109091 92.737441 
" clip-path="url(#pd46c8fca45)" style="fill: none; stroke: #008000; stroke-width: 1.5; stroke-linecap: square"/>
   </g>
   <g id="patch_3">
    <path d="M 72 384.48 
L 72 51.84 
" style="fill: none; stroke: #000000; stroke-width: 0.8; stroke-linejoin: miter; stroke-linecap: square"/>
   </g>
   <g id="patch_4">
    <path d="M 518.4 384.48 
L 518.4 51.84 
" style="fill: none; stroke: #000000; stroke-width: 0.8; stroke-linejoin: miter; stroke-linecap: square"/>
   </g>
   <g id="patch_5">
    <path d="M 72 384.48 
L 518.4 384.48 
" style="fill: none; stroke: #000000; stroke-width: 0.8; stroke-linejoin: miter; stroke-linecap: square"/>
   </g>
   <g id="patch_6">
    <path d="M 72 51.84 
L 518.4 51.84 
" style="fill: none; stroke: #000000; stroke-width: 0.8; stroke-linejoin: miter; stroke-linecap: square"/>
   </g>
   <g id="text_20">
    <!-- M19: Methionin; Isoleucin -->
    <g transform="translate(231.201562 45.84) scale(0.1 -0.1)">
     <defs>
      <path id="DejaVuSans-4d" d="M 628 4666 
L 1569 4666 
L 2759 1491 
L 3956 4666 
L 4897 4666 
L 4897 0 
L 4281 0 
L 4281 4097 
L 3078 897 
L 2444 897 
L 1241 4097 
L 1241 0 
L 628 0 
L 628 4666 
z
" transform="scale(0.015625)"/>
      <path id="DejaVuSans-39" d="M 703 97 
L 703 672 
Q 941 559 1184 500 
Q 1428 441 1663 441 
Q 2288 441 2617 861 
Q 2947 1281 2994 2138 
Q 2813 1869 2534 1725 
Q 2256 1581 1919 1581 
Q 1219 1581 811 2004 
Q 403 2428 403 3163 
Q 403 3881 828 4315 
Q 1253 4750 1959 4750 
Q 2769 4750 3195 4129 
Q 3622 3509 3622 2328 
Q 3622 1225 3098 567 
Q 2575 -91 1691 -91 
Q 1453 -91 1209 -44 
Q 966 3 703 97 
z
M 1959 2075 
Q 2384 2075 2632 2365 
Q 2881 2656 2881 3163 
Q 2881 3666 2632 3958 
Q 2384 4250 1959 4250 
Q 1534 4250 1286 3958 
Q 1038 3666 1038 3163 
Q 1038 2656 1286 2365 
Q 1534 2075 1959 2075 
z
" transform="scale(0.015625)"/>
      <path id="DejaVuSans-3a" d="M 750 794 
L 1409 794 
L 1409 0 
L 750 0 
L 750 794 
z
M 750 3309 
L 1409 3309 
L 1409 2516 
L 750 2516 
L 750 3309 
z
" transform="scale(0.015625)"/>
      <path id="DejaVuSans-3b" d="M 750 3309 
L 1409 3309 
L 1409 2516 
L 750 2516 
L 750 3309 
z
M 750 794 
L 1409 794 
L 1409 256 
L 897 -744 
L 494 -744 
L 750 256 
L 750 794 
z
" transform="scale(0.015625)"/>
      <path id="DejaVuSans-49" d="M 628 4666 
L 1259 4666 
L 1259 0 
L 628 0 
L 628 4666 
z
" transform="scale(0.015625)"/>
     </defs>
     <use xlink:href="#DejaVuSans-4d"/>
     <use xlink:href="#DejaVuSans-31" x="86.279297"/>
     <use xlink:href="#DejaVuSans-39" x="149.902344"/>
     <use xlink:href="#DejaVuSans-3a" x="213.525391"/>
     <use xlink:href="#DejaVuSans-20" x="247.216797"/>
     <use xlink:href="#DejaVuSans-4d" x="279.003906"/>
     <use xlink:href="#DejaVuSans-65" x="365.283203"/>
     <use xlink:href="#DejaVuSans-74" x="426.806641"/>
     <use xlink:href="#DejaVuSans-68" x="466.015625"/>
     <use xlink:href="#DejaVuSans-69" x="529.394531"/>
     <use xlink:href="#DejaVuSans-6f" x="557.177734"/>
     <use xlink:href="#DejaVuSans-6e" x="618.359375"/>
     <use xlink:href="#DejaVuSans-69" x="681.738281"/>
     <use xlink:href="#DejaVuSans-6e" x="709.521484"/>
     <use xlink:href="#DejaVuSans-3b" x="772.900391"/>
     <use xlink:href="#DejaVuSans-20" x="806.591797"/>
     <use xlink:href="#DejaVuSans-49" x="838.378906"/>
     <use xlink:href="#DejaVuSans-73" x="867.871094"/>
     <use xlink:href="#DejaVuSans-6f" x="919.970703"/>
     <use xlink:href="#DejaVuSans-6c" x="981.152344"/>
     <use xlink:href="#DejaVuSans-65" x="1008.935547"/>
     <use xlink:href="#DejaVuSans-75" x="1070.458984"/>
     <use xlink:href="#DejaVuSans-63" x="1133.837891"/>
     <use xlink:href="#DejaVuSans-69" x="1188.818359"/>
     <use xlink:href="#DejaVuSans-6e" x="1216.601562"/>
    </g>
   </g>
  </g>
 </g>
 <defs>
  <clipPath id="pd46c8fca45">
   <rect x="72" y="51.84" width="446.4" height="332.64"/>
  </clipPath>
 </defs>
</svg>
