<?xml version="1.0" encoding="utf-8" standalone="no"?>
<!DOCTYPE svg PUBLIC "-//W3C//DTD SVG 1.1//EN"
  "http://www.w3.org/Graphics/SVG/1.1/DTD/svg11.dtd">
<svg xmlns:xlink="http://www.w3.org/1999/xlink" width="576pt" height="432pt" viewBox="0 0 576 432" xmlns="http://www.w3.org/2000/svg" version="1.1">
 <metadata>
  <rdf:RDF xmlns:dc="http://purl.org/dc/elements/1.1/" xmlns:cc="http://creativecommons.org/ns#" xmlns:rdf="http://www.w3.org/1999/02/22-rdf-syntax-ns#">
   <cc:Work>
    <dc:type rdf:resource="http://purl.org/dc/dcmitype/StillImage"/>
    <dc:date>2024-11-12T14:09:15.462667</dc:date>
    <dc:format>image/svg+xml</dc:format>
    <dc:creator>
     <cc:Agent>
      <dc:title>Matplotlib v3.7.5, https://matplotlib.org/</dc:title>
     </cc:Agent>
    </dc:creator>
   </cc:Work>
  </rdf:RDF>
 </metadata>
 <defs>
  <style type="text/css">*{stroke-linejoin: round; stroke-linecap: butt}</style>
 </defs>
 <g id="figure_1">
  <g id="patch_1">
   <path d="M 0 432 
L 576 432 
L 576 0 
L 0 0 
z
" style="fill: #ffffff"/>
  </g>
  <g id="axes_1">
   <g id="patch_2">
    <path d="M 72 384.48 
L 518.4 384.48 
L 518.4 51.84 
L 72 51.84 
z
" style="fill: #ffffff"/>
   </g>
   <g id="matplotlib.axis_1">
    <g id="xtick_1">
     <g id="line2d_1">
      <path d="M 92.290909 384.48 
L 92.290909 51.84 
" clip-path="url(#pa5ea3f171f)" style="fill: none; stroke: #b0b0b0; stroke-width: 0.8; stroke-linecap: square"/>
     </g>
     <g id="line2d_2">
      <defs>
       <path id="m6f1a3d1937" d="M 0 0 
L 0 3.5 
" style="stroke: #000000; stroke-width: 0.8"/>
      </defs>
      <g>
       <use xlink:href="#m6f1a3d1937" x="92.290909" y="384.48" style="stroke: #000000; stroke-width: 0.8"/>
      </g>
     </g>
     <g id="text_1">
      <!-- 0.17 -->
      <g transform="translate(81.158097 399.078438) scale(0.1 -0.1)">
       <defs>
        <path id="DejaVuSans-30" d="M 2034 4250 
Q 1547 4250 1301 3770 
Q 1056 3291 1056 2328 
Q 1056 1369 1301 889 
Q 1547 409 2034 409 
Q 2525 409 2770 889 
Q 3016 1369 3016 2328 
Q 3016 3291 2770 3770 
Q 2525 4250 2034 4250 
z
M 2034 4750 
Q 2819 4750 3233 4129 
Q 3647 3509 3647 2328 
Q 3647 1150 3233 529 
Q 2819 -91 2034 -91 
Q 1250 -91 836 529 
Q 422 1150 422 2328 
Q 422 3509 836 4129 
Q 1250 4750 2034 4750 
z
" transform="scale(0.015625)"/>
        <path id="DejaVuSans-2e" d="M 684 794 
L 1344 794 
L 1344 0 
L 684 0 
L 684 794 
z
" transform="scale(0.015625)"/>
        <path id="DejaVuSans-31" d="M 794 531 
L 1825 531 
L 1825 4091 
L 703 3866 
L 703 4441 
L 1819 4666 
L 2450 4666 
L 2450 531 
L 3481 531 
L 3481 0 
L 794 0 
L 794 531 
z
" transform="scale(0.015625)"/>
        <path id="DejaVuSans-37" d="M 525 4666 
L 3525 4666 
L 3525 4397 
L 1831 0 
L 1172 0 
L 2766 4134 
L 525 4134 
L 525 4666 
z
" transform="scale(0.015625)"/>
       </defs>
       <use xlink:href="#DejaVuSans-30"/>
       <use xlink:href="#DejaVuSans-2e" x="63.623047"/>
       <use xlink:href="#DejaVuSans-31" x="95.410156"/>
       <use xlink:href="#DejaVuSans-37" x="159.033203"/>
      </g>
     </g>
    </g>
    <g id="xtick_2">
     <g id="line2d_3">
      <path d="M 128.605735 384.48 
L 128.605735 51.84 
" clip-path="url(#pa5ea3f171f)" style="fill: none; stroke: #b0b0b0; stroke-width: 0.8; stroke-linecap: square"/>
     </g>
     <g id="line2d_4">
      <g>
       <use xlink:href="#m6f1a3d1937" x="128.605735" y="384.48" style="stroke: #000000; stroke-width: 0.8"/>
      </g>
     </g>
     <g id="text_2">
      <!-- 6.83 -->
      <g transform="translate(117.472923 399.078438) scale(0.1 -0.1)">
       <defs>
        <path id="DejaVuSans-36" d="M 2113 2584 
Q 1688 2584 1439 2293 
Q 1191 2003 1191 1497 
Q 1191 994 1439 701 
Q 1688 409 2113 409 
Q 2538 409 2786 701 
Q 3034 994 3034 1497 
Q 3034 2003 2786 2293 
Q 2538 2584 2113 2584 
z
M 3366 4563 
L 3366 3988 
Q 3128 4100 2886 4159 
Q 2644 4219 2406 4219 
Q 1781 4219 1451 3797 
Q 1122 3375 1075 2522 
Q 1259 2794 1537 2939 
Q 1816 3084 2150 3084 
Q 2853 3084 3261 2657 
Q 3669 2231 3669 1497 
Q 3669 778 3244 343 
Q 2819 -91 2113 -91 
Q 1303 -91 875 529 
Q 447 1150 447 2328 
Q 447 3434 972 4092 
Q 1497 4750 2381 4750 
Q 2619 4750 2861 4703 
Q 3103 4656 3366 4563 
z
" transform="scale(0.015625)"/>
        <path id="DejaVuSans-38" d="M 2034 2216 
Q 1584 2216 1326 1975 
Q 1069 1734 1069 1313 
Q 1069 891 1326 650 
Q 1584 409 2034 409 
Q 2484 409 2743 651 
Q 3003 894 3003 1313 
Q 3003 1734 2745 1975 
Q 2488 2216 2034 2216 
z
M 1403 2484 
Q 997 2584 770 2862 
Q 544 3141 544 3541 
Q 544 4100 942 4425 
Q 1341 4750 2034 4750 
Q 2731 4750 3128 4425 
Q 3525 4100 3525 3541 
Q 3525 3141 3298 2862 
Q 3072 2584 2669 2484 
Q 3125 2378 3379 2068 
Q 3634 1759 3634 1313 
Q 3634 634 3220 271 
Q 2806 -91 2034 -91 
Q 1263 -91 848 271 
Q 434 634 434 1313 
Q 434 1759 690 2068 
Q 947 2378 1403 2484 
z
M 1172 3481 
Q 1172 3119 1398 2916 
Q 1625 2713 2034 2713 
Q 2441 2713 2670 2916 
Q 2900 3119 2900 3481 
Q 2900 3844 2670 4047 
Q 2441 4250 2034 4250 
Q 1625 4250 1398 4047 
Q 1172 3844 1172 3481 
z
" transform="scale(0.015625)"/>
        <path id="DejaVuSans-33" d="M 2597 2516 
Q 3050 2419 3304 2112 
Q 3559 1806 3559 1356 
Q 3559 666 3084 287 
Q 2609 -91 1734 -91 
Q 1441 -91 1130 -33 
Q 819 25 488 141 
L 488 750 
Q 750 597 1062 519 
Q 1375 441 1716 441 
Q 2309 441 2620 675 
Q 2931 909 2931 1356 
Q 2931 1769 2642 2001 
Q 2353 2234 1838 2234 
L 1294 2234 
L 1294 2753 
L 1863 2753 
Q 2328 2753 2575 2939 
Q 2822 3125 2822 3475 
Q 2822 3834 2567 4026 
Q 2313 4219 1838 4219 
Q 1578 4219 1281 4162 
Q 984 4106 628 3988 
L 628 4550 
Q 988 4650 1302 4700 
Q 1616 4750 1894 4750 
Q 2613 4750 3031 4423 
Q 3450 4097 3450 3541 
Q 3450 3153 3228 2886 
Q 3006 2619 2597 2516 
z
" transform="scale(0.015625)"/>
       </defs>
       <use xlink:href="#DejaVuSans-36"/>
       <use xlink:href="#DejaVuSans-2e" x="63.623047"/>
       <use xlink:href="#DejaVuSans-38" x="95.410156"/>
       <use xlink:href="#DejaVuSans-33" x="159.033203"/>
      </g>
     </g>
    </g>
    <g id="xtick_3">
     <g id="line2d_5">
      <path d="M 164.920561 384.48 
L 164.920561 51.84 
" clip-path="url(#pa5ea3f171f)" style="fill: none; stroke: #b0b0b0; stroke-width: 0.8; stroke-linecap: square"/>
     </g>
     <g id="line2d_6">
      <g>
       <use xlink:href="#m6f1a3d1937" x="164.920561" y="384.48" style="stroke: #000000; stroke-width: 0.8"/>
      </g>
     </g>
     <g id="text_3">
      <!-- 13.5 -->
      <g transform="translate(153.787749 399.078438) scale(0.1 -0.1)">
       <defs>
        <path id="DejaVuSans-35" d="M 691 4666 
L 3169 4666 
L 3169 4134 
L 1269 4134 
L 1269 2991 
Q 1406 3038 1543 3061 
Q 1681 3084 1819 3084 
Q 2600 3084 3056 2656 
Q 3513 2228 3513 1497 
Q 3513 744 3044 326 
Q 2575 -91 1722 -91 
Q 1428 -91 1123 -41 
Q 819 9 494 109 
L 494 744 
Q 775 591 1075 516 
Q 1375 441 1709 441 
Q 2250 441 2565 725 
Q 2881 1009 2881 1497 
Q 2881 1984 2565 2268 
Q 2250 2553 1709 2553 
Q 1456 2553 1204 2497 
Q 953 2441 691 2322 
L 691 4666 
z
" transform="scale(0.015625)"/>
       </defs>
       <use xlink:href="#DejaVuSans-31"/>
       <use xlink:href="#DejaVuSans-33" x="63.623047"/>
       <use xlink:href="#DejaVuSans-2e" x="127.246094"/>
       <use xlink:href="#DejaVuSans-35" x="159.033203"/>
      </g>
     </g>
    </g>
    <g id="xtick_4">
     <g id="line2d_7">
      <path d="M 201.235387 384.48 
L 201.235387 51.84 
" clip-path="url(#pa5ea3f171f)" style="fill: none; stroke: #b0b0b0; stroke-width: 0.8; stroke-linecap: square"/>
     </g>
     <g id="line2d_8">
      <g>
       <use xlink:href="#m6f1a3d1937" x="201.235387" y="384.48" style="stroke: #000000; stroke-width: 0.8"/>
      </g>
     </g>
     <g id="text_4">
      <!-- 20.17 -->
      <g transform="translate(186.921325 399.078438) scale(0.1 -0.1)">
       <defs>
        <path id="DejaVuSans-32" d="M 1228 531 
L 3431 531 
L 3431 0 
L 469 0 
L 469 531 
Q 828 903 1448 1529 
Q 2069 2156 2228 2338 
Q 2531 2678 2651 2914 
Q 2772 3150 2772 3378 
Q 2772 3750 2511 3984 
Q 2250 4219 1831 4219 
Q 1534 4219 1204 4116 
Q 875 4013 500 3803 
L 500 4441 
Q 881 4594 1212 4672 
Q 1544 4750 1819 4750 
Q 2544 4750 2975 4387 
Q 3406 4025 3406 3419 
Q 3406 3131 3298 2873 
Q 3191 2616 2906 2266 
Q 2828 2175 2409 1742 
Q 1991 1309 1228 531 
z
" transform="scale(0.015625)"/>
       </defs>
       <use xlink:href="#DejaVuSans-32"/>
       <use xlink:href="#DejaVuSans-30" x="63.623047"/>
       <use xlink:href="#DejaVuSans-2e" x="127.246094"/>
       <use xlink:href="#DejaVuSans-31" x="159.033203"/>
       <use xlink:href="#DejaVuSans-37" x="222.65625"/>
      </g>
     </g>
    </g>
    <g id="xtick_5">
     <g id="line2d_9">
      <path d="M 237.550214 384.48 
L 237.550214 51.84 
" clip-path="url(#pa5ea3f171f)" style="fill: none; stroke: #b0b0b0; stroke-width: 0.8; stroke-linecap: square"/>
     </g>
     <g id="line2d_10">
      <g>
       <use xlink:href="#m6f1a3d1937" x="237.550214" y="384.48" style="stroke: #000000; stroke-width: 0.8"/>
      </g>
     </g>
     <g id="text_5">
      <!-- 26.83 -->
      <g transform="translate(223.236151 399.078438) scale(0.1 -0.1)">
       <use xlink:href="#DejaVuSans-32"/>
       <use xlink:href="#DejaVuSans-36" x="63.623047"/>
       <use xlink:href="#DejaVuSans-2e" x="127.246094"/>
       <use xlink:href="#DejaVuSans-38" x="159.033203"/>
       <use xlink:href="#DejaVuSans-33" x="222.65625"/>
      </g>
     </g>
    </g>
    <g id="xtick_6">
     <g id="line2d_11">
      <path d="M 273.86504 384.48 
L 273.86504 51.84 
" clip-path="url(#pa5ea3f171f)" style="fill: none; stroke: #b0b0b0; stroke-width: 0.8; stroke-linecap: square"/>
     </g>
     <g id="line2d_12">
      <g>
       <use xlink:href="#m6f1a3d1937" x="273.86504" y="384.48" style="stroke: #000000; stroke-width: 0.8"/>
      </g>
     </g>
     <g id="text_6">
      <!-- 33.5 -->
      <g transform="translate(262.732227 399.078438) scale(0.1 -0.1)">
       <use xlink:href="#DejaVuSans-33"/>
       <use xlink:href="#DejaVuSans-33" x="63.623047"/>
       <use xlink:href="#DejaVuSans-2e" x="127.246094"/>
       <use xlink:href="#DejaVuSans-35" x="159.033203"/>
      </g>
     </g>
    </g>
    <g id="xtick_7">
     <g id="line2d_13">
      <path d="M 310.179866 384.48 
L 310.179866 51.84 
" clip-path="url(#pa5ea3f171f)" style="fill: none; stroke: #b0b0b0; stroke-width: 0.8; stroke-linecap: square"/>
     </g>
     <g id="line2d_14">
      <g>
       <use xlink:href="#m6f1a3d1937" x="310.179866" y="384.48" style="stroke: #000000; stroke-width: 0.8"/>
      </g>
     </g>
     <g id="text_7">
      <!-- 40.17 -->
      <g transform="translate(295.865803 399.078438) scale(0.1 -0.1)">
       <defs>
        <path id="DejaVuSans-34" d="M 2419 4116 
L 825 1625 
L 2419 1625 
L 2419 4116 
z
M 2253 4666 
L 3047 4666 
L 3047 1625 
L 3713 1625 
L 3713 1100 
L 3047 1100 
L 3047 0 
L 2419 0 
L 2419 1100 
L 313 1100 
L 313 1709 
L 2253 4666 
z
" transform="scale(0.015625)"/>
       </defs>
       <use xlink:href="#DejaVuSans-34"/>
       <use xlink:href="#DejaVuSans-30" x="63.623047"/>
       <use xlink:href="#DejaVuSans-2e" x="127.246094"/>
       <use xlink:href="#DejaVuSans-31" x="159.033203"/>
       <use xlink:href="#DejaVuSans-37" x="222.65625"/>
      </g>
     </g>
    </g>
    <g id="xtick_8">
     <g id="line2d_15">
      <path d="M 346.494692 384.48 
L 346.494692 51.84 
" clip-path="url(#pa5ea3f171f)" style="fill: none; stroke: #b0b0b0; stroke-width: 0.8; stroke-linecap: square"/>
     </g>
     <g id="line2d_16">
      <g>
       <use xlink:href="#m6f1a3d1937" x="346.494692" y="384.48" style="stroke: #000000; stroke-width: 0.8"/>
      </g>
     </g>
     <g id="text_8">
      <!-- 46.83 -->
      <g transform="translate(332.180629 399.078438) scale(0.1 -0.1)">
       <use xlink:href="#DejaVuSans-34"/>
       <use xlink:href="#DejaVuSans-36" x="63.623047"/>
       <use xlink:href="#DejaVuSans-2e" x="127.246094"/>
       <use xlink:href="#DejaVuSans-38" x="159.033203"/>
       <use xlink:href="#DejaVuSans-33" x="222.65625"/>
      </g>
     </g>
    </g>
    <g id="xtick_9">
     <g id="line2d_17">
      <path d="M 382.809518 384.48 
L 382.809518 51.84 
" clip-path="url(#pa5ea3f171f)" style="fill: none; stroke: #b0b0b0; stroke-width: 0.8; stroke-linecap: square"/>
     </g>
     <g id="line2d_18">
      <g>
       <use xlink:href="#m6f1a3d1937" x="382.809518" y="384.48" style="stroke: #000000; stroke-width: 0.8"/>
      </g>
     </g>
     <g id="text_9">
      <!-- 53.5 -->
      <g transform="translate(371.676705 399.078438) scale(0.1 -0.1)">
       <use xlink:href="#DejaVuSans-35"/>
       <use xlink:href="#DejaVuSans-33" x="63.623047"/>
       <use xlink:href="#DejaVuSans-2e" x="127.246094"/>
       <use xlink:href="#DejaVuSans-35" x="159.033203"/>
      </g>
     </g>
    </g>
    <g id="xtick_10">
     <g id="line2d_19">
      <path d="M 419.124344 384.48 
L 419.124344 51.84 
" clip-path="url(#pa5ea3f171f)" style="fill: none; stroke: #b0b0b0; stroke-width: 0.8; stroke-linecap: square"/>
     </g>
     <g id="line2d_20">
      <g>
       <use xlink:href="#m6f1a3d1937" x="419.124344" y="384.48" style="stroke: #000000; stroke-width: 0.8"/>
      </g>
     </g>
     <g id="text_10">
      <!-- 60.17 -->
      <g transform="translate(404.810282 399.078438) scale(0.1 -0.1)">
       <use xlink:href="#DejaVuSans-36"/>
       <use xlink:href="#DejaVuSans-30" x="63.623047"/>
       <use xlink:href="#DejaVuSans-2e" x="127.246094"/>
       <use xlink:href="#DejaVuSans-31" x="159.033203"/>
       <use xlink:href="#DejaVuSans-37" x="222.65625"/>
      </g>
     </g>
    </g>
    <g id="xtick_11">
     <g id="line2d_21">
      <path d="M 455.43917 384.48 
L 455.43917 51.84 
" clip-path="url(#pa5ea3f171f)" style="fill: none; stroke: #b0b0b0; stroke-width: 0.8; stroke-linecap: square"/>
     </g>
     <g id="line2d_22">
      <g>
       <use xlink:href="#m6f1a3d1937" x="455.43917" y="384.48" style="stroke: #000000; stroke-width: 0.8"/>
      </g>
     </g>
     <g id="text_11">
      <!-- 66.83 -->
      <g transform="translate(441.125108 399.078438) scale(0.1 -0.1)">
       <use xlink:href="#DejaVuSans-36"/>
       <use xlink:href="#DejaVuSans-36" x="63.623047"/>
       <use xlink:href="#DejaVuSans-2e" x="127.246094"/>
       <use xlink:href="#DejaVuSans-38" x="159.033203"/>
       <use xlink:href="#DejaVuSans-33" x="222.65625"/>
      </g>
     </g>
    </g>
    <g id="xtick_12">
     <g id="line2d_23">
      <path d="M 491.753996 384.48 
L 491.753996 51.84 
" clip-path="url(#pa5ea3f171f)" style="fill: none; stroke: #b0b0b0; stroke-width: 0.8; stroke-linecap: square"/>
     </g>
     <g id="line2d_24">
      <g>
       <use xlink:href="#m6f1a3d1937" x="491.753996" y="384.48" style="stroke: #000000; stroke-width: 0.8"/>
      </g>
     </g>
     <g id="text_12">
      <!-- 73.5 -->
      <g transform="translate(480.621184 399.078438) scale(0.1 -0.1)">
       <use xlink:href="#DejaVuSans-37"/>
       <use xlink:href="#DejaVuSans-33" x="63.623047"/>
       <use xlink:href="#DejaVuSans-2e" x="127.246094"/>
       <use xlink:href="#DejaVuSans-35" x="159.033203"/>
      </g>
     </g>
    </g>
    <g id="text_13">
     <!-- time in hours [h] -->
     <g transform="translate(253.451562 412.756563) scale(0.1 -0.1)">
      <defs>
       <path id="DejaVuSans-74" d="M 1172 4494 
L 1172 3500 
L 2356 3500 
L 2356 3053 
L 1172 3053 
L 1172 1153 
Q 1172 725 1289 603 
Q 1406 481 1766 481 
L 2356 481 
L 2356 0 
L 1766 0 
Q 1100 0 847 248 
Q 594 497 594 1153 
L 594 3053 
L 172 3053 
L 172 3500 
L 594 3500 
L 594 4494 
L 1172 4494 
z
" transform="scale(0.015625)"/>
       <path id="DejaVuSans-69" d="M 603 3500 
L 1178 3500 
L 1178 0 
L 603 0 
L 603 3500 
z
M 603 4863 
L 1178 4863 
L 1178 4134 
L 603 4134 
L 603 4863 
z
" transform="scale(0.015625)"/>
       <path id="DejaVuSans-6d" d="M 3328 2828 
Q 3544 3216 3844 3400 
Q 4144 3584 4550 3584 
Q 5097 3584 5394 3201 
Q 5691 2819 5691 2113 
L 5691 0 
L 5113 0 
L 5113 2094 
Q 5113 2597 4934 2840 
Q 4756 3084 4391 3084 
Q 3944 3084 3684 2787 
Q 3425 2491 3425 1978 
L 3425 0 
L 2847 0 
L 2847 2094 
Q 2847 2600 2669 2842 
Q 2491 3084 2119 3084 
Q 1678 3084 1418 2786 
Q 1159 2488 1159 1978 
L 1159 0 
L 581 0 
L 581 3500 
L 1159 3500 
L 1159 2956 
Q 1356 3278 1631 3431 
Q 1906 3584 2284 3584 
Q 2666 3584 2933 3390 
Q 3200 3197 3328 2828 
z
" transform="scale(0.015625)"/>
       <path id="DejaVuSans-65" d="M 3597 1894 
L 3597 1613 
L 953 1613 
Q 991 1019 1311 708 
Q 1631 397 2203 397 
Q 2534 397 2845 478 
Q 3156 559 3463 722 
L 3463 178 
Q 3153 47 2828 -22 
Q 2503 -91 2169 -91 
Q 1331 -91 842 396 
Q 353 884 353 1716 
Q 353 2575 817 3079 
Q 1281 3584 2069 3584 
Q 2775 3584 3186 3129 
Q 3597 2675 3597 1894 
z
M 3022 2063 
Q 3016 2534 2758 2815 
Q 2500 3097 2075 3097 
Q 1594 3097 1305 2825 
Q 1016 2553 972 2059 
L 3022 2063 
z
" transform="scale(0.015625)"/>
       <path id="DejaVuSans-20" transform="scale(0.015625)"/>
       <path id="DejaVuSans-6e" d="M 3513 2113 
L 3513 0 
L 2938 0 
L 2938 2094 
Q 2938 2591 2744 2837 
Q 2550 3084 2163 3084 
Q 1697 3084 1428 2787 
Q 1159 2491 1159 1978 
L 1159 0 
L 581 0 
L 581 3500 
L 1159 3500 
L 1159 2956 
Q 1366 3272 1645 3428 
Q 1925 3584 2291 3584 
Q 2894 3584 3203 3211 
Q 3513 2838 3513 2113 
z
" transform="scale(0.015625)"/>
       <path id="DejaVuSans-68" d="M 3513 2113 
L 3513 0 
L 2938 0 
L 2938 2094 
Q 2938 2591 2744 2837 
Q 2550 3084 2163 3084 
Q 1697 3084 1428 2787 
Q 1159 2491 1159 1978 
L 1159 0 
L 581 0 
L 581 4863 
L 1159 4863 
L 1159 2956 
Q 1366 3272 1645 3428 
Q 1925 3584 2291 3584 
Q 2894 3584 3203 3211 
Q 3513 2838 3513 2113 
z
" transform="scale(0.015625)"/>
       <path id="DejaVuSans-6f" d="M 1959 3097 
Q 1497 3097 1228 2736 
Q 959 2375 959 1747 
Q 959 1119 1226 758 
Q 1494 397 1959 397 
Q 2419 397 2687 759 
Q 2956 1122 2956 1747 
Q 2956 2369 2687 2733 
Q 2419 3097 1959 3097 
z
M 1959 3584 
Q 2709 3584 3137 3096 
Q 3566 2609 3566 1747 
Q 3566 888 3137 398 
Q 2709 -91 1959 -91 
Q 1206 -91 779 398 
Q 353 888 353 1747 
Q 353 2609 779 3096 
Q 1206 3584 1959 3584 
z
" transform="scale(0.015625)"/>
       <path id="DejaVuSans-75" d="M 544 1381 
L 544 3500 
L 1119 3500 
L 1119 1403 
Q 1119 906 1312 657 
Q 1506 409 1894 409 
Q 2359 409 2629 706 
Q 2900 1003 2900 1516 
L 2900 3500 
L 3475 3500 
L 3475 0 
L 2900 0 
L 2900 538 
Q 2691 219 2414 64 
Q 2138 -91 1772 -91 
Q 1169 -91 856 284 
Q 544 659 544 1381 
z
M 1991 3584 
L 1991 3584 
z
" transform="scale(0.015625)"/>
       <path id="DejaVuSans-72" d="M 2631 2963 
Q 2534 3019 2420 3045 
Q 2306 3072 2169 3072 
Q 1681 3072 1420 2755 
Q 1159 2438 1159 1844 
L 1159 0 
L 581 0 
L 581 3500 
L 1159 3500 
L 1159 2956 
Q 1341 3275 1631 3429 
Q 1922 3584 2338 3584 
Q 2397 3584 2469 3576 
Q 2541 3569 2628 3553 
L 2631 2963 
z
" transform="scale(0.015625)"/>
       <path id="DejaVuSans-73" d="M 2834 3397 
L 2834 2853 
Q 2591 2978 2328 3040 
Q 2066 3103 1784 3103 
Q 1356 3103 1142 2972 
Q 928 2841 928 2578 
Q 928 2378 1081 2264 
Q 1234 2150 1697 2047 
L 1894 2003 
Q 2506 1872 2764 1633 
Q 3022 1394 3022 966 
Q 3022 478 2636 193 
Q 2250 -91 1575 -91 
Q 1294 -91 989 -36 
Q 684 19 347 128 
L 347 722 
Q 666 556 975 473 
Q 1284 391 1588 391 
Q 1994 391 2212 530 
Q 2431 669 2431 922 
Q 2431 1156 2273 1281 
Q 2116 1406 1581 1522 
L 1381 1569 
Q 847 1681 609 1914 
Q 372 2147 372 2553 
Q 372 3047 722 3315 
Q 1072 3584 1716 3584 
Q 2034 3584 2315 3537 
Q 2597 3491 2834 3397 
z
" transform="scale(0.015625)"/>
       <path id="DejaVuSans-5b" d="M 550 4863 
L 1875 4863 
L 1875 4416 
L 1125 4416 
L 1125 -397 
L 1875 -397 
L 1875 -844 
L 550 -844 
L 550 4863 
z
" transform="scale(0.015625)"/>
       <path id="DejaVuSans-5d" d="M 1947 4863 
L 1947 -844 
L 622 -844 
L 622 -397 
L 1369 -397 
L 1369 4416 
L 622 4416 
L 622 4863 
L 1947 4863 
z
" transform="scale(0.015625)"/>
      </defs>
      <use xlink:href="#DejaVuSans-74"/>
      <use xlink:href="#DejaVuSans-69" x="39.208984"/>
      <use xlink:href="#DejaVuSans-6d" x="66.992188"/>
      <use xlink:href="#DejaVuSans-65" x="164.404297"/>
      <use xlink:href="#DejaVuSans-20" x="225.927734"/>
      <use xlink:href="#DejaVuSans-69" x="257.714844"/>
      <use xlink:href="#DejaVuSans-6e" x="285.498047"/>
      <use xlink:href="#DejaVuSans-20" x="348.876953"/>
      <use xlink:href="#DejaVuSans-68" x="380.664062"/>
      <use xlink:href="#DejaVuSans-6f" x="444.042969"/>
      <use xlink:href="#DejaVuSans-75" x="505.224609"/>
      <use xlink:href="#DejaVuSans-72" x="568.603516"/>
      <use xlink:href="#DejaVuSans-73" x="609.716797"/>
      <use xlink:href="#DejaVuSans-20" x="661.816406"/>
      <use xlink:href="#DejaVuSans-5b" x="693.603516"/>
      <use xlink:href="#DejaVuSans-68" x="732.617188"/>
      <use xlink:href="#DejaVuSans-5d" x="795.996094"/>
     </g>
    </g>
   </g>
   <g id="matplotlib.axis_2">
    <g id="ytick_1">
     <g id="line2d_25">
      <path d="M 72 363.69 
L 518.4 363.69 
" clip-path="url(#pa5ea3f171f)" style="fill: none; stroke: #b0b0b0; stroke-width: 0.8; stroke-linecap: square"/>
     </g>
     <g id="line2d_26">
      <defs>
       <path id="me8a4416781" d="M 0 0 
L -3.5 0 
" style="stroke: #000000; stroke-width: 0.8"/>
      </defs>
      <g>
       <use xlink:href="#me8a4416781" x="72" y="363.69" style="stroke: #000000; stroke-width: 0.8"/>
      </g>
     </g>
     <g id="text_14">
      <!-- 0.0 -->
      <g transform="translate(49.096875 367.489219) scale(0.1 -0.1)">
       <use xlink:href="#DejaVuSans-30"/>
       <use xlink:href="#DejaVuSans-2e" x="63.623047"/>
       <use xlink:href="#DejaVuSans-30" x="95.410156"/>
      </g>
     </g>
    </g>
    <g id="ytick_2">
     <g id="line2d_27">
      <path d="M 72 311.715 
L 518.4 311.715 
" clip-path="url(#pa5ea3f171f)" style="fill: none; stroke: #b0b0b0; stroke-width: 0.8; stroke-linecap: square"/>
     </g>
     <g id="line2d_28">
      <g>
       <use xlink:href="#me8a4416781" x="72" y="311.715" style="stroke: #000000; stroke-width: 0.8"/>
      </g>
     </g>
     <g id="text_15">
      <!-- 0.5 -->
      <g transform="translate(49.096875 315.514219) scale(0.1 -0.1)">
       <use xlink:href="#DejaVuSans-30"/>
       <use xlink:href="#DejaVuSans-2e" x="63.623047"/>
       <use xlink:href="#DejaVuSans-35" x="95.410156"/>
      </g>
     </g>
    </g>
    <g id="ytick_3">
     <g id="line2d_29">
      <path d="M 72 259.74 
L 518.4 259.74 
" clip-path="url(#pa5ea3f171f)" style="fill: none; stroke: #b0b0b0; stroke-width: 0.8; stroke-linecap: square"/>
     </g>
     <g id="line2d_30">
      <g>
       <use xlink:href="#me8a4416781" x="72" y="259.74" style="stroke: #000000; stroke-width: 0.8"/>
      </g>
     </g>
     <g id="text_16">
      <!-- 1.0 -->
      <g transform="translate(49.096875 263.539219) scale(0.1 -0.1)">
       <use xlink:href="#DejaVuSans-31"/>
       <use xlink:href="#DejaVuSans-2e" x="63.623047"/>
       <use xlink:href="#DejaVuSans-30" x="95.410156"/>
      </g>
     </g>
    </g>
    <g id="ytick_4">
     <g id="line2d_31">
      <path d="M 72 207.765 
L 518.4 207.765 
" clip-path="url(#pa5ea3f171f)" style="fill: none; stroke: #b0b0b0; stroke-width: 0.8; stroke-linecap: square"/>
     </g>
     <g id="line2d_32">
      <g>
       <use xlink:href="#me8a4416781" x="72" y="207.765" style="stroke: #000000; stroke-width: 0.8"/>
      </g>
     </g>
     <g id="text_17">
      <!-- 1.5 -->
      <g transform="translate(49.096875 211.564219) scale(0.1 -0.1)">
       <use xlink:href="#DejaVuSans-31"/>
       <use xlink:href="#DejaVuSans-2e" x="63.623047"/>
       <use xlink:href="#DejaVuSans-35" x="95.410156"/>
      </g>
     </g>
    </g>
    <g id="ytick_5">
     <g id="line2d_33">
      <path d="M 72 155.79 
L 518.4 155.79 
" clip-path="url(#pa5ea3f171f)" style="fill: none; stroke: #b0b0b0; stroke-width: 0.8; stroke-linecap: square"/>
     </g>
     <g id="line2d_34">
      <g>
       <use xlink:href="#me8a4416781" x="72" y="155.79" style="stroke: #000000; stroke-width: 0.8"/>
      </g>
     </g>
     <g id="text_18">
      <!-- 2.0 -->
      <g transform="translate(49.096875 159.589219) scale(0.1 -0.1)">
       <use xlink:href="#DejaVuSans-32"/>
       <use xlink:href="#DejaVuSans-2e" x="63.623047"/>
       <use xlink:href="#DejaVuSans-30" x="95.410156"/>
      </g>
     </g>
    </g>
    <g id="ytick_6">
     <g id="line2d_35">
      <path d="M 72 103.815 
L 518.4 103.815 
" clip-path="url(#pa5ea3f171f)" style="fill: none; stroke: #b0b0b0; stroke-width: 0.8; stroke-linecap: square"/>
     </g>
     <g id="line2d_36">
      <g>
       <use xlink:href="#me8a4416781" x="72" y="103.815" style="stroke: #000000; stroke-width: 0.8"/>
      </g>
     </g>
     <g id="text_19">
      <!-- 2.5 -->
      <g transform="translate(49.096875 107.614219) scale(0.1 -0.1)">
       <use xlink:href="#DejaVuSans-32"/>
       <use xlink:href="#DejaVuSans-2e" x="63.623047"/>
       <use xlink:href="#DejaVuSans-35" x="95.410156"/>
      </g>
     </g>
    </g>
    <g id="ytick_7">
     <g id="line2d_37">
      <path d="M 72 51.84 
L 518.4 51.84 
" clip-path="url(#pa5ea3f171f)" style="fill: none; stroke: #b0b0b0; stroke-width: 0.8; stroke-linecap: square"/>
     </g>
     <g id="line2d_38">
      <g>
       <use xlink:href="#me8a4416781" x="72" y="51.84" style="stroke: #000000; stroke-width: 0.8"/>
      </g>
     </g>
     <g id="text_20">
      <!-- 3.0 -->
      <g transform="translate(49.096875 55.639219) scale(0.1 -0.1)">
       <use xlink:href="#DejaVuSans-33"/>
       <use xlink:href="#DejaVuSans-2e" x="63.623047"/>
       <use xlink:href="#DejaVuSans-30" x="95.410156"/>
      </g>
     </g>
    </g>
    <g id="text_21">
     <!-- blank corrected OD600 -->
     <g transform="translate(43.017187 276.115469) rotate(-90) scale(0.1 -0.1)">
      <defs>
       <path id="DejaVuSans-62" d="M 3116 1747 
Q 3116 2381 2855 2742 
Q 2594 3103 2138 3103 
Q 1681 3103 1420 2742 
Q 1159 2381 1159 1747 
Q 1159 1113 1420 752 
Q 1681 391 2138 391 
Q 2594 391 2855 752 
Q 3116 1113 3116 1747 
z
M 1159 2969 
Q 1341 3281 1617 3432 
Q 1894 3584 2278 3584 
Q 2916 3584 3314 3078 
Q 3713 2572 3713 1747 
Q 3713 922 3314 415 
Q 2916 -91 2278 -91 
Q 1894 -91 1617 61 
Q 1341 213 1159 525 
L 1159 0 
L 581 0 
L 581 4863 
L 1159 4863 
L 1159 2969 
z
" transform="scale(0.015625)"/>
       <path id="DejaVuSans-6c" d="M 603 4863 
L 1178 4863 
L 1178 0 
L 603 0 
L 603 4863 
z
" transform="scale(0.015625)"/>
       <path id="DejaVuSans-61" d="M 2194 1759 
Q 1497 1759 1228 1600 
Q 959 1441 959 1056 
Q 959 750 1161 570 
Q 1363 391 1709 391 
Q 2188 391 2477 730 
Q 2766 1069 2766 1631 
L 2766 1759 
L 2194 1759 
z
M 3341 1997 
L 3341 0 
L 2766 0 
L 2766 531 
Q 2569 213 2275 61 
Q 1981 -91 1556 -91 
Q 1019 -91 701 211 
Q 384 513 384 1019 
Q 384 1609 779 1909 
Q 1175 2209 1959 2209 
L 2766 2209 
L 2766 2266 
Q 2766 2663 2505 2880 
Q 2244 3097 1772 3097 
Q 1472 3097 1187 3025 
Q 903 2953 641 2809 
L 641 3341 
Q 956 3463 1253 3523 
Q 1550 3584 1831 3584 
Q 2591 3584 2966 3190 
Q 3341 2797 3341 1997 
z
" transform="scale(0.015625)"/>
       <path id="DejaVuSans-6b" d="M 581 4863 
L 1159 4863 
L 1159 1991 
L 2875 3500 
L 3609 3500 
L 1753 1863 
L 3688 0 
L 2938 0 
L 1159 1709 
L 1159 0 
L 581 0 
L 581 4863 
z
" transform="scale(0.015625)"/>
       <path id="DejaVuSans-63" d="M 3122 3366 
L 3122 2828 
Q 2878 2963 2633 3030 
Q 2388 3097 2138 3097 
Q 1578 3097 1268 2742 
Q 959 2388 959 1747 
Q 959 1106 1268 751 
Q 1578 397 2138 397 
Q 2388 397 2633 464 
Q 2878 531 3122 666 
L 3122 134 
Q 2881 22 2623 -34 
Q 2366 -91 2075 -91 
Q 1284 -91 818 406 
Q 353 903 353 1747 
Q 353 2603 823 3093 
Q 1294 3584 2113 3584 
Q 2378 3584 2631 3529 
Q 2884 3475 3122 3366 
z
" transform="scale(0.015625)"/>
       <path id="DejaVuSans-64" d="M 2906 2969 
L 2906 4863 
L 3481 4863 
L 3481 0 
L 2906 0 
L 2906 525 
Q 2725 213 2448 61 
Q 2172 -91 1784 -91 
Q 1150 -91 751 415 
Q 353 922 353 1747 
Q 353 2572 751 3078 
Q 1150 3584 1784 3584 
Q 2172 3584 2448 3432 
Q 2725 3281 2906 2969 
z
M 947 1747 
Q 947 1113 1208 752 
Q 1469 391 1925 391 
Q 2381 391 2643 752 
Q 2906 1113 2906 1747 
Q 2906 2381 2643 2742 
Q 2381 3103 1925 3103 
Q 1469 3103 1208 2742 
Q 947 2381 947 1747 
z
" transform="scale(0.015625)"/>
       <path id="DejaVuSans-4f" d="M 2522 4238 
Q 1834 4238 1429 3725 
Q 1025 3213 1025 2328 
Q 1025 1447 1429 934 
Q 1834 422 2522 422 
Q 3209 422 3611 934 
Q 4013 1447 4013 2328 
Q 4013 3213 3611 3725 
Q 3209 4238 2522 4238 
z
M 2522 4750 
Q 3503 4750 4090 4092 
Q 4678 3434 4678 2328 
Q 4678 1225 4090 567 
Q 3503 -91 2522 -91 
Q 1538 -91 948 565 
Q 359 1222 359 2328 
Q 359 3434 948 4092 
Q 1538 4750 2522 4750 
z
" transform="scale(0.015625)"/>
       <path id="DejaVuSans-44" d="M 1259 4147 
L 1259 519 
L 2022 519 
Q 2988 519 3436 956 
Q 3884 1394 3884 2338 
Q 3884 3275 3436 3711 
Q 2988 4147 2022 4147 
L 1259 4147 
z
M 628 4666 
L 1925 4666 
Q 3281 4666 3915 4102 
Q 4550 3538 4550 2338 
Q 4550 1131 3912 565 
Q 3275 0 1925 0 
L 628 0 
L 628 4666 
z
" transform="scale(0.015625)"/>
      </defs>
      <use xlink:href="#DejaVuSans-62"/>
      <use xlink:href="#DejaVuSans-6c" x="63.476562"/>
      <use xlink:href="#DejaVuSans-61" x="91.259766"/>
      <use xlink:href="#DejaVuSans-6e" x="152.539062"/>
      <use xlink:href="#DejaVuSans-6b" x="215.917969"/>
      <use xlink:href="#DejaVuSans-20" x="273.828125"/>
      <use xlink:href="#DejaVuSans-63" x="305.615234"/>
      <use xlink:href="#DejaVuSans-6f" x="360.595703"/>
      <use xlink:href="#DejaVuSans-72" x="421.777344"/>
      <use xlink:href="#DejaVuSans-72" x="461.140625"/>
      <use xlink:href="#DejaVuSans-65" x="500.003906"/>
      <use xlink:href="#DejaVuSans-63" x="561.527344"/>
      <use xlink:href="#DejaVuSans-74" x="616.507812"/>
      <use xlink:href="#DejaVuSans-65" x="655.716797"/>
      <use xlink:href="#DejaVuSans-64" x="717.240234"/>
      <use xlink:href="#DejaVuSans-20" x="780.716797"/>
      <use xlink:href="#DejaVuSans-4f" x="812.503906"/>
      <use xlink:href="#DejaVuSans-44" x="891.214844"/>
      <use xlink:href="#DejaVuSans-36" x="968.216797"/>
      <use xlink:href="#DejaVuSans-30" x="1031.839844"/>
      <use xlink:href="#DejaVuSans-30" x="1095.462891"/>
     </g>
    </g>
   </g>
   <g id="line2d_39">
    <path d="M 92.290909 361.680646 
L 93.19878 365.526796 
L 95.014521 366.254446 
L 97.738133 366.046546 
L 100.461745 366.046546 
L 101.369616 366.254446 
L 102.277486 365.734696 
L 103.185357 365.838646 
L 105.001098 365.630746 
L 107.72471 366.254446 
L 108.632581 365.838646 
L 113.171934 366.358396 
L 114.079805 366.254446 
L 114.987675 365.942596 
L 115.895546 366.150496 
L 116.803417 365.838646 
L 118.619158 366.150496 
L 119.527029 365.838646 
L 120.434899 366.254446 
L 121.34277 366.046546 
L 123.158511 366.150496 
L 124.974253 365.526796 
L 125.882123 366.254446 
L 126.789994 365.942596 
L 127.697865 366.150496 
L 128.605735 366.150496 
L 129.513606 365.734696 
L 130.421477 366.046546 
L 131.329347 365.526796 
L 132.237218 365.942596 
L 133.145088 365.734696 
L 134.052959 365.942596 
L 134.96083 365.526796 
L 136.776571 365.838646 
L 137.684442 365.110996 
L 138.592312 365.214946 
L 139.500183 365.526796 
L 140.408054 365.214946 
L 141.315924 365.110996 
L 143.131666 365.214946 
L 144.039536 365.007047 
L 144.947407 365.318896 
L 146.763148 364.591247 
L 147.671019 364.695197 
L 148.57889 364.487297 
L 149.48676 364.591247 
L 151.302502 364.383347 
L 152.210372 364.591247 
L 153.118243 364.279397 
L 154.933984 363.343846 
L 155.841855 363.551746 
L 156.749725 363.239896 
L 157.657596 363.135946 
L 158.565467 363.343846 
L 159.473337 363.031996 
L 160.381208 363.135946 
L 161.289079 363.447796 
L 162.196949 362.824096 
L 163.10482 362.616197 
L 164.012691 362.824096 
L 164.920561 362.408297 
L 166.736303 362.304347 
L 167.644173 361.888547 
L 168.552044 361.992497 
L 170.367785 361.472746 
L 171.275656 360.849046 
L 172.183527 360.641146 
L 173.091397 360.121397 
L 173.999268 360.433246 
L 175.815009 359.913497 
L 176.72288 360.225347 
L 177.63075 360.017447 
L 178.538621 360.537196 
L 179.446492 360.121397 
L 180.354362 359.497697 
L 181.262233 359.705597 
L 182.170104 359.601647 
L 184.893716 358.770046 
L 185.801586 358.873996 
L 186.709457 358.770046 
L 188.525198 357.834497 
L 189.433069 358.042396 
L 190.34094 357.938446 
L 191.24881 357.210797 
L 192.156681 357.314747 
L 193.064552 356.898946 
L 193.972422 357.106847 
L 195.788164 355.963396 
L 196.696034 355.859446 
L 198.511775 355.027847 
L 199.419646 355.339697 
L 200.327517 353.988346 
L 201.235387 353.780446 
L 202.143258 353.260696 
L 203.051129 353.468596 
L 203.958999 352.740947 
L 204.86687 352.844897 
L 205.774741 352.221197 
L 206.682611 352.117247 
L 208.498353 351.077746 
L 209.406223 351.077746 
L 210.314094 350.142197 
L 213.037706 348.790846 
L 213.945577 348.790846 
L 216.669189 346.815796 
L 217.577059 346.815796 
L 218.48493 345.672347 
L 219.3928 345.256547 
L 220.300671 344.009146 
L 221.208542 343.593346 
L 222.116412 342.969647 
L 223.024283 342.657797 
L 223.932154 342.034096 
L 224.840024 342.241996 
L 225.747895 341.514346 
L 228.471507 339.851146 
L 229.379378 338.395847 
L 231.195119 337.668196 
L 232.10299 336.836596 
L 233.01086 336.524746 
L 234.826602 334.965496 
L 236.642343 332.990446 
L 237.550214 331.431196 
L 238.458084 330.287746 
L 239.365955 330.703547 
L 240.273826 329.664046 
L 241.181696 329.144296 
L 242.089567 328.104797 
L 242.997437 327.792946 
L 244.813179 326.649496 
L 245.721049 325.090246 
L 246.62892 324.050747 
L 247.536791 324.050747 
L 249.352532 321.451997 
L 250.260403 320.620396 
L 251.168273 320.308546 
L 252.076144 318.957197 
L 253.891885 316.774247 
L 255.707627 314.591296 
L 256.615497 313.967597 
L 257.523368 312.616246 
L 258.431239 311.992547 
L 259.339109 310.849096 
L 260.24698 310.329346 
L 261.154851 308.977996 
L 262.062721 308.666146 
L 262.970592 307.314796 
L 263.878462 306.795046 
L 264.786333 305.963446 
L 265.694204 304.819997 
L 266.602074 304.196297 
L 267.509945 303.052846 
L 268.417816 301.701496 
L 269.325686 301.181746 
L 270.233557 299.830397 
L 271.141428 298.998796 
L 272.049298 297.543496 
L 272.957169 296.607946 
L 273.86504 296.711896 
L 274.77291 295.464496 
L 275.680781 295.464496 
L 276.588652 293.905246 
L 277.496522 293.905246 
L 278.404393 292.969696 
L 280.220134 290.786746 
L 281.128005 290.370947 
L 282.035876 289.331446 
L 282.943746 288.603796 
L 283.851617 288.811696 
L 284.759487 287.460347 
L 285.667358 286.628746 
L 286.575229 286.108996 
L 287.483099 284.341846 
L 288.39097 284.549746 
L 289.298841 283.718146 
L 291.114582 282.990496 
L 292.022453 282.470747 
L 292.930323 282.158896 
L 293.838194 281.327296 
L 294.746065 281.119396 
L 295.653935 281.223346 
L 296.561806 279.664096 
L 297.469677 279.871996 
L 298.377547 278.312747 
L 299.285418 277.481146 
L 300.193289 278.312747 
L 301.101159 276.649546 
L 302.00903 275.298196 
L 302.916901 274.882396 
L 303.824771 274.258696 
L 304.732642 273.323147 
L 305.640513 272.179696 
L 306.548383 272.075746 
L 307.456254 271.555996 
L 308.364124 271.763896 
L 309.271995 271.244146 
L 310.179866 269.788846 
L 311.087736 270.308597 
L 311.995607 269.476996 
L 312.903478 269.476996 
L 313.811348 268.229596 
L 314.719219 267.501946 
L 315.62709 267.190096 
L 317.442831 265.526896 
L 318.350702 265.422946 
L 320.166443 264.279496 
L 321.074314 263.967647 
L 321.982184 263.239996 
L 322.890055 261.784696 
L 323.797926 261.680746 
L 324.705796 262.200496 
L 325.613667 260.745196 
L 326.521538 260.329396 
L 327.429408 259.497796 
L 328.337279 258.978047 
L 329.245149 258.250396 
L 330.15302 258.042496 
L 331.060891 256.587197 
L 331.968761 255.963496 
L 332.876632 255.131896 
L 334.692373 254.196347 
L 335.600244 252.948946 
L 336.508115 252.741046 
L 337.415985 251.909447 
L 338.323856 251.389696 
L 339.231727 251.597596 
L 340.139597 250.869946 
L 341.047468 249.830446 
L 341.955339 249.830446 
L 342.863209 249.518596 
L 343.77108 248.479096 
L 344.678951 248.375146 
L 345.586821 247.751446 
L 346.494692 246.815896 
L 348.310433 245.672446 
L 349.218304 244.736897 
L 350.126174 244.840846 
L 351.941916 242.865796 
L 352.849786 242.657896 
L 353.757657 241.826297 
L 354.665528 241.410496 
L 356.481269 239.955196 
L 357.38914 239.955196 
L 358.29701 239.227546 
L 360.112752 238.707796 
L 362.836364 236.940646 
L 363.744234 236.836696 
L 364.652105 235.589296 
L 365.559976 234.757696 
L 367.375717 233.718196 
L 368.283588 232.990546 
L 369.191458 231.535246 
L 370.099329 231.847096 
L 371.0072 231.431296 
L 371.91507 230.703646 
L 372.822941 230.703646 
L 373.730811 229.768096 
L 374.638682 230.079946 
L 375.546553 229.248346 
L 376.454423 228.832546 
L 377.362294 228.624646 
L 378.270165 228.208846 
L 379.178035 227.585146 
L 380.085906 226.649596 
L 380.993777 226.961446 
L 382.809518 226.129846 
L 383.717389 225.090346 
L 385.53313 224.050846 
L 386.441001 223.842946 
L 387.348871 222.907396 
L 388.256742 222.283696 
L 390.072483 221.556046 
L 390.980354 220.516546 
L 392.796095 221.036296 
L 393.703966 220.100746 
L 394.611836 219.373097 
L 395.519707 220.100746 
L 396.427578 219.061246 
L 398.243319 219.580996 
L 399.15119 218.229646 
L 400.05906 217.709896 
L 400.966931 217.398046 
L 401.874802 218.021746 
L 402.782672 217.398046 
L 403.690543 217.190146 
L 404.598414 216.254596 
L 405.506284 216.774346 
L 406.414155 215.942746 
L 407.322026 216.150646 
L 408.229896 215.215096 
L 409.137767 215.942746 
L 410.045638 215.319046 
L 410.953508 215.630896 
L 411.861379 214.383496 
L 412.76925 214.591396 
L 414.584991 212.720296 
L 415.492862 212.304496 
L 416.400732 212.408446 
L 417.308603 212.304496 
L 418.216473 212.616346 
L 419.124344 212.408446 
L 420.032215 213.551896 
L 420.940085 213.759796 
L 421.847956 214.279546 
L 422.755827 213.343996 
L 423.663697 214.071646 
L 424.571568 213.447946 
L 426.387309 212.928196 
L 427.29518 213.759796 
L 428.203051 213.032146 
L 429.110921 213.447946 
L 430.018792 213.032146 
L 430.926663 213.759796 
L 432.742404 213.136096 
L 433.650275 213.551896 
L 435.466016 213.447946 
L 436.373887 214.487446 
L 437.281757 214.383496 
L 438.189628 214.071646 
L 439.097498 214.175596 
L 440.005369 214.591396 
L 442.728981 213.655846 
L 443.636852 213.551896 
L 444.544722 215.007196 
L 445.452593 214.695346 
L 446.360464 214.175596 
L 447.268334 216.254596 
L 448.176205 216.150646 
L 449.084076 216.358546 
L 449.991946 215.734846 
L 450.899817 215.942746 
L 451.807688 216.774346 
L 452.715558 216.670396 
L 453.623429 216.358546 
L 454.5313 216.358546 
L 455.43917 217.086196 
L 456.347041 216.878296 
L 457.254912 217.190146 
L 458.162782 216.982246 
L 459.070653 216.566446 
L 459.978523 216.774346 
L 460.886394 216.566446 
L 461.794265 217.190146 
L 462.702135 215.526946 
L 463.610006 216.358546 
L 464.517877 216.046696 
L 465.425747 216.670396 
L 466.333618 215.734846 
L 467.241489 216.046696 
L 469.965101 216.358546 
L 470.872971 215.215096 
L 471.780842 215.526946 
L 472.688713 215.319046 
L 473.596583 215.942746 
L 474.504454 214.487446 
L 475.412325 215.734846 
L 476.320195 214.799296 
L 477.228066 215.111146 
L 478.135937 214.799296 
L 479.043807 214.903246 
L 479.951678 214.695346 
L 480.859549 214.695346 
L 481.767419 215.007196 
L 482.67529 214.175596 
L 483.58316 215.007196 
L 484.491031 214.175596 
L 485.398902 214.695346 
L 486.306772 214.591396 
L 487.214643 214.279546 
L 488.122514 214.695346 
L 489.030384 214.175596 
L 490.846126 214.487446 
L 491.753996 214.175596 
L 492.661867 214.695346 
L 493.569738 214.695346 
L 494.477608 214.175596 
L 497.20122 214.175596 
L 498.109091 213.759796 
L 498.109091 213.759796 
" clip-path="url(#pa5ea3f171f)" style="fill: none; stroke: #0000ff; stroke-opacity: 0.5; stroke-width: 1.5; stroke-linecap: square"/>
   </g>
   <g id="line2d_40">
    <path d="M 92.290909 363.343846 
L 93.19878 365.942596 
L 94.10665 366.358396 
L 95.922392 366.462346 
L 96.830262 365.942596 
L 98.646004 366.670247 
L 99.553874 366.150496 
L 100.461745 366.254446 
L 101.369616 366.150496 
L 102.277486 366.358396 
L 103.185357 366.254446 
L 105.001098 366.462346 
L 105.908969 366.046546 
L 106.81684 366.566297 
L 109.540451 366.254446 
L 110.448322 366.462346 
L 111.356193 366.358396 
L 114.079805 366.670247 
L 114.987675 366.566297 
L 115.895546 366.670247 
L 116.803417 366.150496 
L 117.711287 366.566297 
L 120.434899 366.566297 
L 121.34277 366.358396 
L 122.250641 365.734696 
L 123.158511 365.630746 
L 124.066382 365.110996 
L 125.882123 364.799147 
L 126.789994 364.487297 
L 127.697865 364.903097 
L 128.605735 365.942596 
L 131.329347 366.462346 
L 132.237218 366.566297 
L 133.145088 365.942596 
L 136.776571 365.838646 
L 137.684442 365.007047 
L 138.592312 364.591247 
L 139.500183 363.759646 
L 141.315924 363.135946 
L 144.039536 363.135946 
L 144.947407 364.279397 
L 145.855278 365.007047 
L 146.763148 365.110996 
L 147.671019 364.487297 
L 148.57889 364.383347 
L 149.48676 364.903097 
L 150.394631 364.903097 
L 151.302502 364.487297 
L 152.210372 364.383347 
L 154.026113 363.135946 
L 154.933984 362.304347 
L 155.841855 361.680646 
L 157.657596 360.745096 
L 158.565467 360.849046 
L 159.473337 360.433246 
L 160.381208 360.745096 
L 161.289079 360.745096 
L 163.10482 362.616197 
L 164.012691 362.928046 
L 164.920561 362.616197 
L 165.828432 362.512247 
L 166.736303 361.992497 
L 167.644173 362.096447 
L 169.459915 361.264846 
L 170.367785 361.056946 
L 172.183527 358.873996 
L 173.999268 358.250296 
L 174.907138 357.522647 
L 175.815009 357.314747 
L 176.72288 357.418697 
L 178.538621 357.210797 
L 179.446492 357.730547 
L 180.354362 357.522647 
L 181.262233 358.250296 
L 182.170104 358.562146 
L 183.077974 358.666096 
L 183.985845 358.354246 
L 184.893716 358.562146 
L 185.801586 358.562146 
L 186.709457 358.146346 
L 187.617328 357.522647 
L 188.525198 357.418697 
L 189.433069 357.626597 
L 191.24881 356.483146 
L 194.880293 356.067346 
L 195.788164 355.339697 
L 196.696034 355.027847 
L 197.603905 353.676496 
L 198.511775 353.260696 
L 199.419646 353.052796 
L 200.327517 351.805396 
L 202.143258 350.557997 
L 203.051129 349.518496 
L 203.958999 348.894796 
L 204.86687 348.894796 
L 205.774741 348.271096 
L 206.682611 347.855297 
L 207.590482 347.647397 
L 208.498353 347.647397 
L 210.314094 348.063197 
L 211.221965 348.686896 
L 212.129835 348.167147 
L 213.037706 348.167147 
L 214.853447 346.607896 
L 215.761318 345.984196 
L 217.577059 344.113096 
L 218.48493 343.593346 
L 219.3928 342.553846 
L 220.300671 341.306446 
L 221.208542 340.578797 
L 222.116412 339.019546 
L 223.024283 338.707696 
L 223.932154 337.876097 
L 224.840024 337.772146 
L 225.747895 337.148446 
L 227.563636 337.356346 
L 228.471507 337.668196 
L 229.379378 336.628696 
L 230.287248 336.004997 
L 231.195119 335.693147 
L 232.10299 335.069446 
L 233.918731 333.094396 
L 234.826602 332.054896 
L 235.734472 330.391696 
L 236.642343 329.560096 
L 238.458084 326.129747 
L 239.365955 326.025796 
L 240.273826 324.882346 
L 241.181696 323.530997 
L 242.997437 322.075696 
L 243.905308 321.555947 
L 244.813179 320.516446 
L 245.721049 319.788796 
L 248.444661 319.372996 
L 249.352532 319.061146 
L 250.260403 317.917696 
L 251.168273 317.190046 
L 252.984015 314.383397 
L 253.891885 312.408346 
L 255.707627 310.225396 
L 256.615497 309.601697 
L 257.523368 307.834546 
L 258.431239 307.522696 
L 259.339109 305.755546 
L 260.24698 304.716047 
L 261.154851 303.884446 
L 262.062721 304.404197 
L 262.970592 302.740996 
L 263.878462 302.429147 
L 264.786333 301.597546 
L 265.694204 301.285696 
L 266.602074 300.142246 
L 267.509945 299.414597 
L 268.417816 299.206696 
L 269.325686 297.023746 
L 270.233557 296.607946 
L 271.141428 293.281546 
L 272.049298 293.281546 
L 272.957169 291.306496 
L 273.86504 290.578846 
L 274.77291 291.202546 
L 275.680781 289.123546 
L 276.588652 289.227496 
L 277.496522 288.084046 
L 278.404393 287.564296 
L 279.312264 287.564296 
L 280.220134 285.797146 
L 281.128005 287.044546 
L 282.035876 285.901096 
L 282.943746 286.524796 
L 283.851617 284.757646 
L 284.759487 283.926046 
L 285.667358 283.302346 
L 286.575229 282.262846 
L 287.483099 280.287796 
L 288.39097 279.975946 
L 290.206711 278.000896 
L 291.114582 276.649546 
L 292.022453 276.545596 
L 292.930323 275.298196 
L 293.838194 275.817946 
L 294.746065 275.713996 
L 295.653935 274.466596 
L 296.561806 274.674496 
L 297.469677 273.842896 
L 298.377547 273.946846 
L 300.193289 273.531047 
L 301.101159 271.971796 
L 302.00903 271.763896 
L 302.916901 270.724397 
L 303.824771 269.165146 
L 304.732642 268.229596 
L 305.640513 266.982196 
L 306.548383 265.942697 
L 307.456254 266.150597 
L 308.364124 264.695296 
L 309.271995 265.422946 
L 310.179866 264.175546 
L 311.087736 263.239996 
L 312.903478 262.408396 
L 313.811348 262.824196 
L 315.62709 260.849146 
L 316.53496 260.953096 
L 317.442831 260.225446 
L 318.350702 259.289896 
L 319.258572 258.666196 
L 320.166443 258.458296 
L 321.074314 256.899046 
L 321.982184 256.899046 
L 322.890055 255.235846 
L 323.797926 255.443746 
L 325.613667 254.923996 
L 326.521538 255.339796 
L 328.337279 253.988447 
L 330.15302 253.364746 
L 331.060891 251.493646 
L 331.968761 250.662046 
L 332.876632 249.102796 
L 333.784503 248.583046 
L 335.600244 246.192196 
L 336.508115 245.568496 
L 337.415985 244.528997 
L 338.323856 244.840846 
L 339.231727 244.425046 
L 340.139597 243.281596 
L 341.047468 242.553946 
L 341.955339 242.138146 
L 342.863209 243.281596 
L 343.77108 242.034197 
L 344.678951 241.202596 
L 347.402563 242.138146 
L 348.310433 240.267046 
L 349.218304 238.915696 
L 350.126174 238.603846 
L 351.034045 236.940646 
L 351.941916 236.420896 
L 352.849786 235.069546 
L 353.757657 235.589296 
L 354.665528 233.926096 
L 355.573398 233.718196 
L 357.38914 232.470796 
L 358.29701 231.431296 
L 361.020622 231.015496 
L 361.928493 231.431296 
L 362.836364 230.807596 
L 363.744234 232.574747 
L 364.652105 231.119446 
L 365.559976 230.287847 
L 366.467846 229.975996 
L 367.375717 228.520696 
L 368.283588 227.377246 
L 369.191458 225.921946 
L 370.099329 225.298246 
L 371.0072 224.362696 
L 371.91507 224.050846 
L 372.822941 223.531096 
L 373.730811 222.699496 
L 374.638682 222.907396 
L 375.546553 221.659996 
L 376.454423 221.348146 
L 377.362294 221.867896 
L 378.270165 220.724446 
L 379.178035 219.996796 
L 380.085906 220.932346 
L 380.993777 220.620497 
L 382.809518 221.348146 
L 383.717389 219.892846 
L 384.625259 219.684946 
L 385.53313 220.100746 
L 386.441001 219.477046 
L 387.348871 218.333596 
L 388.256742 216.358546 
L 389.164613 216.254596 
L 390.072483 215.734846 
L 390.980354 214.487446 
L 391.888225 213.967696 
L 393.703966 213.551896 
L 394.611836 212.824246 
L 395.519707 213.343996 
L 396.427578 212.616346 
L 398.243319 212.096596 
L 399.15119 211.992646 
L 400.05906 211.161046 
L 401.874802 211.992646 
L 402.782672 210.953146 
L 403.690543 211.057096 
L 404.598414 211.576846 
L 405.506284 211.888696 
L 406.414155 212.928196 
L 407.322026 211.680796 
L 408.229896 211.472896 
L 409.137767 212.720296 
L 410.953508 210.953146 
L 411.861379 210.745246 
L 412.76925 210.745246 
L 413.67712 210.537346 
L 414.584991 208.562296 
L 415.492862 208.458346 
L 416.400732 207.314896 
L 417.308603 207.834646 
L 418.216473 207.314896 
L 419.124344 207.730696 
L 420.032215 207.106996 
L 420.940085 206.899096 
L 421.847956 207.003046 
L 422.755827 207.418847 
L 423.663697 207.106996 
L 425.479439 206.899096 
L 426.387309 207.834646 
L 427.29518 209.082046 
L 428.203051 209.497846 
L 429.110921 210.433396 
L 430.018792 210.433396 
L 430.926663 211.057096 
L 431.834533 211.264996 
L 432.742404 211.264996 
L 433.650275 210.953146 
L 434.558145 211.264996 
L 435.466016 211.057096 
L 436.373887 211.161046 
L 437.281757 212.928196 
L 438.189628 211.368946 
L 439.097498 212.096596 
L 440.005369 212.304496 
L 440.91324 210.953146 
L 441.82111 210.641296 
L 442.728981 210.849196 
L 443.636852 210.537346 
L 444.544722 211.057096 
L 445.452593 211.888696 
L 446.360464 210.953146 
L 448.176205 210.953146 
L 449.084076 211.161046 
L 449.991946 210.953146 
L 450.899817 212.304496 
L 451.807688 211.888696 
L 452.715558 212.200546 
L 453.623429 212.824246 
L 454.5313 214.279546 
L 455.43917 215.215096 
L 456.347041 214.695346 
L 457.254912 214.487446 
L 458.162782 214.903246 
L 459.070653 214.279546 
L 459.978523 215.007196 
L 460.886394 214.487446 
L 461.794265 214.903246 
L 463.610006 214.591396 
L 464.517877 214.903246 
L 465.425747 213.967696 
L 466.333618 213.967696 
L 467.241489 214.487446 
L 468.149359 214.487446 
L 469.05723 213.032146 
L 469.965101 213.447946 
L 470.872971 213.655846 
L 471.780842 213.136096 
L 472.688713 213.967696 
L 473.596583 213.343996 
L 474.504454 213.967696 
L 475.412325 213.343996 
L 476.320195 213.447946 
L 477.228066 213.136096 
L 478.135937 213.032146 
L 479.043807 213.759796 
L 479.951678 212.304496 
L 480.859549 212.720296 
L 482.67529 212.720296 
L 483.58316 211.992646 
L 484.491031 212.304496 
L 485.398902 212.824246 
L 486.306772 212.304496 
L 487.214643 212.304496 
L 488.122514 211.680796 
L 489.030384 211.888696 
L 489.938255 211.888696 
L 490.846126 212.408446 
L 491.753996 211.784746 
L 494.477608 212.824246 
L 495.385479 212.096596 
L 497.20122 212.304496 
L 498.109091 211.992646 
L 498.109091 211.992646 
" clip-path="url(#pa5ea3f171f)" style="fill: none; stroke: #0000ff; stroke-opacity: 0.5; stroke-width: 1.5; stroke-linecap: square"/>
   </g>
   <g id="line2d_41">
    <path d="M 92.290909 360.433246 
L 93.19878 366.254446 
L 94.10665 366.462346 
L 96.830262 366.254446 
L 97.738133 366.358396 
L 98.646004 366.254446 
L 99.553874 366.670247 
L 100.461745 366.462346 
L 101.369616 366.566297 
L 102.277486 366.462346 
L 103.185357 366.566297 
L 105.001098 366.254446 
L 105.908969 366.254446 
L 106.81684 366.566297 
L 107.72471 366.254446 
L 109.540451 366.462346 
L 110.448322 366.358396 
L 111.356193 366.566297 
L 112.264063 366.462346 
L 113.171934 366.670247 
L 114.079805 366.462346 
L 114.987675 366.670247 
L 115.895546 366.358396 
L 118.619158 366.462346 
L 119.527029 366.982097 
L 120.434899 366.878147 
L 121.34277 366.566297 
L 122.250641 366.670247 
L 123.158511 366.046546 
L 124.066382 366.046546 
L 125.882123 365.526796 
L 126.789994 365.838646 
L 127.697865 366.566297 
L 128.605735 366.566297 
L 129.513606 366.254446 
L 130.421477 366.358396 
L 131.329347 365.942596 
L 134.052959 366.462346 
L 134.96083 365.942596 
L 135.8687 365.734696 
L 136.776571 366.150496 
L 137.684442 365.214946 
L 138.592312 365.007047 
L 139.500183 364.071497 
L 140.408054 364.279397 
L 141.315924 364.279397 
L 142.223795 363.655696 
L 143.131666 364.799147 
L 144.039536 365.318896 
L 144.947407 365.526796 
L 145.855278 365.526796 
L 146.763148 365.110996 
L 147.671019 365.007047 
L 148.57889 365.214946 
L 150.394631 364.695197 
L 151.302502 364.487297 
L 152.210372 364.695197 
L 153.118243 364.071497 
L 154.026113 363.863596 
L 154.933984 362.928046 
L 155.841855 362.200397 
L 156.749725 362.096447 
L 157.657596 362.304347 
L 158.565467 362.096447 
L 159.473337 361.680646 
L 160.381208 362.200397 
L 161.289079 363.239896 
L 164.012691 362.824096 
L 165.828432 362.096447 
L 166.736303 362.304347 
L 169.459915 361.992497 
L 170.367785 360.641146 
L 171.275656 360.329296 
L 173.999268 358.873996 
L 174.907138 358.873996 
L 175.815009 358.042396 
L 176.72288 357.938446 
L 177.63075 358.250296 
L 178.538621 359.185846 
L 179.446492 359.601647 
L 181.262233 359.705597 
L 182.170104 359.081896 
L 183.985845 358.977946 
L 184.893716 358.770046 
L 185.801586 358.770046 
L 186.709457 358.562146 
L 187.617328 358.042396 
L 188.525198 357.730547 
L 189.433069 357.106847 
L 190.34094 357.522647 
L 192.156681 356.794996 
L 193.064552 356.794996 
L 193.972422 356.379196 
L 194.880293 356.171296 
L 195.788164 355.235747 
L 196.696034 355.027847 
L 197.603905 354.404146 
L 198.511775 353.572546 
L 199.419646 353.780446 
L 200.327517 352.221197 
L 201.235387 352.117247 
L 202.143258 351.285646 
L 203.051129 350.246147 
L 203.958999 349.726396 
L 204.86687 349.830347 
L 205.774741 349.102696 
L 206.682611 349.518496 
L 208.498353 350.661946 
L 209.406223 350.350097 
L 210.314094 349.206646 
L 211.221965 348.582946 
L 214.853447 347.231597 
L 219.3928 343.697296 
L 220.300671 342.034096 
L 221.208542 340.994597 
L 222.116412 340.162997 
L 223.024283 339.539296 
L 224.840024 339.539296 
L 225.747895 339.747196 
L 226.655766 339.227446 
L 227.563636 338.083997 
L 228.471507 337.876097 
L 229.379378 337.148446 
L 230.287248 336.212896 
L 231.195119 336.316846 
L 232.10299 335.173396 
L 233.918731 334.133896 
L 235.734472 331.327247 
L 236.642343 330.079846 
L 237.550214 329.144296 
L 238.458084 327.688996 
L 239.365955 326.857396 
L 240.273826 325.817896 
L 242.089567 323.427046 
L 245.721049 322.699396 
L 246.62892 322.907296 
L 248.444661 320.308546 
L 249.352532 319.892746 
L 250.260403 318.333496 
L 251.168273 317.501896 
L 252.076144 316.046596 
L 252.984015 314.903146 
L 253.891885 313.135996 
L 255.707627 310.329346 
L 257.523368 308.666146 
L 258.431239 307.418746 
L 259.339109 306.898996 
L 260.24698 305.339746 
L 261.154851 305.339746 
L 262.062721 305.859496 
L 262.970592 305.547646 
L 263.878462 305.027896 
L 265.694204 302.117297 
L 266.602074 300.661996 
L 267.509945 300.558046 
L 272.049298 293.385496 
L 272.957169 292.657847 
L 273.86504 291.306496 
L 274.77291 290.682796 
L 278.404393 289.955146 
L 279.312264 289.331446 
L 280.220134 288.499846 
L 281.128005 288.603796 
L 282.943746 286.732696 
L 283.851617 286.420846 
L 285.667358 284.029996 
L 286.575229 282.366796 
L 288.39097 280.391746 
L 289.298841 280.183846 
L 290.206711 279.144346 
L 291.114582 277.896947 
L 292.022453 277.896947 
L 292.930323 277.169296 
L 293.838194 276.857446 
L 294.746065 276.857446 
L 295.653935 277.689047 
L 296.561806 278.104847 
L 297.469677 276.961396 
L 298.377547 276.025847 
L 299.285418 276.129796 
L 300.193289 275.298196 
L 302.916901 271.867846 
L 303.824771 270.204646 
L 304.732642 269.996746 
L 305.640513 268.749347 
L 306.548383 267.813796 
L 307.456254 268.021696 
L 308.364124 266.774296 
L 309.271995 266.462446 
L 310.179866 265.942697 
L 311.087736 266.774296 
L 311.995607 267.086146 
L 312.903478 266.878246 
L 313.811348 265.942697 
L 314.719219 265.215046 
L 315.62709 264.695296 
L 316.53496 263.447896 
L 317.442831 263.447896 
L 318.350702 262.200496 
L 320.166443 260.225446 
L 321.074314 260.017546 
L 321.982184 259.497796 
L 322.890055 259.497796 
L 323.797926 258.666196 
L 324.705796 258.770147 
L 325.613667 258.562247 
L 326.521538 257.210896 
L 327.429408 256.379297 
L 328.337279 256.275347 
L 329.245149 255.339796 
L 330.15302 254.612146 
L 331.060891 252.948946 
L 331.968761 251.701547 
L 332.876632 250.038346 
L 333.784503 249.518596 
L 334.692373 248.375146 
L 336.508115 246.711946 
L 337.415985 245.672446 
L 339.231727 245.152696 
L 341.047468 244.425046 
L 341.955339 245.256646 
L 342.863209 244.736897 
L 343.77108 245.464546 
L 344.678951 244.217146 
L 345.586821 244.113196 
L 347.402563 242.346046 
L 349.218304 240.370996 
L 350.126174 239.643346 
L 351.034045 238.291996 
L 351.941916 236.212996 
L 352.849786 236.732746 
L 353.757657 235.485346 
L 355.573398 234.549796 
L 356.481269 233.822146 
L 357.38914 233.406346 
L 358.29701 232.678696 
L 359.204881 233.926096 
L 360.112752 233.510296 
L 361.020622 234.133996 
L 361.928493 233.926096 
L 362.836364 233.094496 
L 363.744234 233.094496 
L 366.467846 231.119446 
L 367.375717 229.456246 
L 368.283588 228.312796 
L 369.191458 226.545646 
L 370.099329 225.298246 
L 371.0072 225.194296 
L 371.91507 224.154796 
L 373.730811 223.219246 
L 374.638682 222.595546 
L 375.546553 222.803446 
L 376.454423 222.179746 
L 377.362294 222.283696 
L 378.270165 223.011346 
L 379.178035 223.011346 
L 380.085906 222.803446 
L 380.993777 222.283696 
L 381.901647 221.971846 
L 382.809518 221.971846 
L 383.717389 221.036296 
L 384.625259 221.244196 
L 385.53313 220.204696 
L 386.441001 219.684946 
L 387.348871 218.749396 
L 388.256742 218.125696 
L 390.072483 215.422996 
L 390.980354 214.695346 
L 393.703966 213.032146 
L 395.519707 213.032146 
L 396.427578 212.512396 
L 397.335448 213.240046 
L 398.243319 213.343996 
L 399.15119 213.863746 
L 400.05906 213.551896 
L 401.874802 213.447946 
L 402.782672 214.175596 
L 403.690543 214.175596 
L 404.598414 213.032146 
L 405.506284 213.343996 
L 406.414155 212.928196 
L 407.322026 212.304496 
L 408.229896 212.512396 
L 409.137767 211.888696 
L 410.953508 211.472896 
L 411.861379 211.057096 
L 412.76925 210.849196 
L 413.67712 209.082046 
L 414.584991 208.770196 
L 415.492862 207.730696 
L 418.216473 207.003046 
L 419.124344 206.691196 
L 420.032215 207.003046 
L 420.940085 207.626746 
L 422.755827 207.730696 
L 423.663697 208.250446 
L 424.571568 209.185996 
L 425.479439 209.393896 
L 426.387309 210.433396 
L 428.203051 210.953146 
L 429.110921 210.849196 
L 430.018792 210.953146 
L 430.926663 210.433396 
L 431.834533 210.121546 
L 432.742404 210.745246 
L 434.558145 211.576846 
L 435.466016 211.161046 
L 436.373887 211.576846 
L 438.189628 211.576846 
L 439.097498 211.784746 
L 440.005369 211.161046 
L 441.82111 210.433396 
L 442.728981 210.225496 
L 444.544722 210.225496 
L 445.452593 210.017596 
L 446.360464 210.433396 
L 447.268334 210.017596 
L 448.176205 210.537346 
L 450.899817 212.616346 
L 451.807688 212.720296 
L 452.715558 214.175596 
L 453.623429 214.383496 
L 454.5313 214.279546 
L 455.43917 213.759796 
L 456.347041 214.695346 
L 457.254912 214.799296 
L 458.162782 214.071646 
L 459.978523 214.279546 
L 460.886394 213.967696 
L 461.794265 214.487446 
L 462.702135 213.967696 
L 464.517877 213.759796 
L 465.425747 213.863746 
L 466.333618 213.240046 
L 467.241489 213.655846 
L 469.05723 212.304496 
L 470.872971 213.032146 
L 471.780842 213.032146 
L 472.688713 212.200546 
L 473.596583 213.032146 
L 474.504454 212.304496 
L 475.412325 212.304496 
L 476.320195 212.928196 
L 477.228066 211.264996 
L 478.135937 212.408446 
L 479.043807 211.472896 
L 479.951678 211.368946 
L 480.859549 211.888696 
L 481.767419 211.680796 
L 482.67529 211.680796 
L 483.58316 211.888696 
L 484.491031 211.472896 
L 485.398902 211.368946 
L 486.306772 212.096596 
L 487.214643 211.992646 
L 488.122514 211.680796 
L 489.030384 211.161046 
L 489.938255 210.953146 
L 490.846126 211.576846 
L 491.753996 211.576846 
L 492.661867 211.161046 
L 493.569738 211.888696 
L 494.477608 210.953146 
L 495.385479 211.888696 
L 496.29335 210.849196 
L 498.109091 211.576846 
L 498.109091 211.576846 
" clip-path="url(#pa5ea3f171f)" style="fill: none; stroke: #0000ff; stroke-opacity: 0.5; stroke-width: 1.5; stroke-linecap: square"/>
   </g>
   <g id="line2d_42">
    <path d="M 92.290909 361.160896 
L 93.19878 367.189997 
L 94.10665 367.397897 
L 95.014521 367.293947 
L 95.922392 367.501846 
L 96.830262 367.293947 
L 97.738133 367.605796 
L 99.553874 367.189997 
L 100.461745 367.501846 
L 101.369616 367.605796 
L 102.277486 367.293947 
L 103.185357 367.605796 
L 104.093228 367.501846 
L 105.001098 367.605796 
L 105.908969 367.189997 
L 107.72471 367.709746 
L 108.632581 367.189997 
L 109.540451 367.501846 
L 110.448322 367.605796 
L 111.356193 367.293947 
L 112.264063 367.501846 
L 113.171934 367.397897 
L 114.987675 367.605796 
L 115.895546 367.397897 
L 117.711287 367.709746 
L 118.619158 367.605796 
L 119.527029 367.813696 
L 120.434899 367.397897 
L 122.250641 367.397897 
L 124.066382 366.774197 
L 124.974253 366.774197 
L 125.882123 367.293947 
L 126.789994 367.189997 
L 128.605735 367.293947 
L 129.513606 367.189997 
L 132.237218 367.397897 
L 133.145088 366.982097 
L 134.052959 367.086047 
L 135.8687 366.774197 
L 136.776571 366.878147 
L 137.684442 366.566297 
L 140.408054 365.007047 
L 141.315924 365.007047 
L 142.223795 365.526796 
L 143.131666 366.462346 
L 144.039536 366.462346 
L 144.947407 366.150496 
L 146.763148 366.046546 
L 147.671019 366.254446 
L 148.57889 365.838646 
L 149.48676 366.150496 
L 150.394631 365.942596 
L 151.302502 365.422846 
L 152.210372 365.630746 
L 154.933984 363.655696 
L 155.841855 363.343846 
L 156.749725 363.447796 
L 158.565467 362.928046 
L 160.381208 364.175447 
L 161.289079 364.279397 
L 162.196949 364.175447 
L 163.10482 363.863596 
L 164.920561 363.655696 
L 165.828432 363.863596 
L 166.736303 363.343846 
L 167.644173 363.031996 
L 168.552044 362.928046 
L 171.275656 361.680646 
L 172.183527 360.641146 
L 173.091397 360.225347 
L 173.999268 360.537196 
L 174.907138 360.017447 
L 175.815009 360.433246 
L 176.72288 360.433246 
L 177.63075 361.056946 
L 179.446492 360.952996 
L 180.354362 360.433246 
L 181.262233 360.225347 
L 182.170104 360.225347 
L 183.077974 359.809547 
L 183.985845 359.705597 
L 185.801586 359.185846 
L 186.709457 359.393747 
L 187.617328 358.770046 
L 188.525198 358.873996 
L 189.433069 358.666096 
L 190.34094 358.146346 
L 191.24881 357.938446 
L 192.156681 357.522647 
L 193.972422 357.314747 
L 194.880293 356.794996 
L 195.788164 356.483146 
L 196.696034 355.963396 
L 197.603905 355.651546 
L 198.511775 354.715997 
L 199.419646 354.508096 
L 200.327517 353.988346 
L 201.235387 353.260696 
L 202.143258 352.221197 
L 203.051129 352.325147 
L 203.958999 351.493546 
L 204.86687 351.181696 
L 206.682611 352.013296 
L 207.590482 351.805396 
L 213.037706 349.414546 
L 213.945577 348.582946 
L 214.853447 348.582946 
L 215.761318 347.439497 
L 217.577059 346.503946 
L 218.48493 345.984196 
L 220.300671 344.009146 
L 221.208542 343.385447 
L 222.116412 342.345946 
L 223.024283 341.826196 
L 223.932154 341.826196 
L 224.840024 342.138046 
L 225.747895 341.514346 
L 226.655766 340.578797 
L 227.563636 340.162997 
L 230.287248 337.772146 
L 233.01086 336.004997 
L 233.918731 334.965496 
L 235.734472 333.406247 
L 236.642343 332.262796 
L 237.550214 331.327247 
L 238.458084 329.352196 
L 239.365955 328.832447 
L 241.181696 326.961346 
L 242.089567 326.337647 
L 242.997437 326.337647 
L 243.905308 326.129747 
L 244.813179 325.609996 
L 245.721049 324.466546 
L 247.536791 323.219146 
L 248.444661 321.971746 
L 249.352532 321.451997 
L 252.076144 318.333496 
L 252.984015 316.670297 
L 254.799756 313.863646 
L 256.615497 311.888597 
L 257.523368 310.953046 
L 258.431239 310.225396 
L 259.339109 309.913546 
L 260.24698 310.121446 
L 261.154851 308.977996 
L 262.062721 308.562196 
L 264.786333 305.131846 
L 265.694204 304.508147 
L 266.602074 303.260746 
L 267.509945 302.221247 
L 268.417816 301.389646 
L 269.325686 300.350146 
L 270.233557 298.582996 
L 272.049298 295.568446 
L 273.86504 294.217096 
L 274.77291 294.217096 
L 276.588652 293.697346 
L 277.496522 292.761796 
L 278.404393 292.345996 
L 279.312264 291.306496 
L 280.220134 290.786746 
L 281.128005 289.851197 
L 282.035876 289.123546 
L 283.851617 288.187996 
L 284.759487 287.044546 
L 285.667358 286.108996 
L 286.575229 284.861596 
L 287.483099 283.094447 
L 289.298841 282.054946 
L 290.206711 281.327296 
L 292.022453 280.495697 
L 292.930323 281.119396 
L 293.838194 281.327296 
L 295.653935 280.391746 
L 296.561806 279.560146 
L 299.285418 278.000896 
L 300.193289 277.065346 
L 301.101159 276.337696 
L 302.00903 274.778446 
L 305.640513 271.036246 
L 306.548383 270.412546 
L 307.456254 270.204646 
L 308.364124 269.373046 
L 309.271995 270.204646 
L 310.179866 270.828346 
L 311.087736 269.892796 
L 311.995607 269.476996 
L 312.903478 268.749347 
L 314.719219 267.709846 
L 315.62709 266.878246 
L 316.53496 265.734797 
L 317.442831 265.111096 
L 318.350702 265.111096 
L 319.258572 263.863696 
L 320.166443 263.759746 
L 321.074314 262.720246 
L 323.797926 261.576797 
L 324.705796 260.537296 
L 325.613667 260.329396 
L 326.521538 259.289896 
L 327.429408 258.770147 
L 328.337279 257.938547 
L 329.245149 257.522746 
L 330.15302 256.587197 
L 331.060891 255.027946 
L 331.968761 254.612146 
L 332.876632 252.948946 
L 333.784503 251.805496 
L 334.692373 250.869946 
L 335.600244 250.350196 
L 336.508115 249.414647 
L 337.415985 248.686996 
L 338.323856 248.167246 
L 339.231727 248.583046 
L 340.139597 248.271196 
L 341.047468 248.998846 
L 341.955339 248.894896 
L 342.863209 248.063296 
L 343.77108 247.543546 
L 344.678951 246.815896 
L 345.586821 246.296146 
L 347.402563 244.840846 
L 349.218304 242.034197 
L 350.126174 241.618396 
L 351.034045 240.163096 
L 351.941916 239.435446 
L 352.849786 238.395946 
L 354.665528 237.252497 
L 355.573398 237.044596 
L 356.481269 236.420896 
L 357.38914 236.420896 
L 358.29701 237.460397 
L 359.204881 237.460397 
L 360.112752 236.732746 
L 361.020622 235.589296 
L 362.836364 234.861646 
L 363.744234 234.341896 
L 364.652105 233.614247 
L 365.559976 233.094496 
L 366.467846 232.366846 
L 368.283588 229.975996 
L 369.191458 228.728596 
L 371.91507 226.233796 
L 372.822941 225.610096 
L 374.638682 225.090346 
L 375.546553 225.194296 
L 376.454423 225.506146 
L 378.270165 225.194296 
L 380.085906 224.258746 
L 380.993777 224.258746 
L 381.901647 223.011346 
L 382.809518 222.595546 
L 383.717389 221.763946 
L 384.625259 221.659996 
L 386.441001 220.100746 
L 387.348871 219.061246 
L 388.256742 218.437546 
L 389.164613 217.086196 
L 390.072483 215.942746 
L 391.888225 215.111146 
L 392.796095 214.175596 
L 393.703966 213.967696 
L 394.611836 213.447946 
L 395.519707 213.136096 
L 396.427578 213.967696 
L 397.335448 214.279546 
L 398.243319 214.279546 
L 399.15119 213.967696 
L 400.05906 213.240046 
L 400.966931 213.343996 
L 401.874802 212.512396 
L 402.782672 212.512396 
L 403.690543 212.096596 
L 404.598414 211.992646 
L 405.506284 211.472896 
L 406.414155 211.680796 
L 407.322026 210.641296 
L 409.137767 210.537346 
L 410.045638 210.017596 
L 410.953508 209.185996 
L 411.861379 208.874146 
L 412.76925 207.626746 
L 413.67712 206.899096 
L 414.584991 205.651696 
L 415.492862 205.027996 
L 416.400732 203.884546 
L 417.308603 203.572696 
L 418.216473 203.676646 
L 419.124344 203.572696 
L 420.032215 202.845046 
L 420.940085 203.572696 
L 421.847956 203.780596 
L 422.755827 205.027996 
L 423.663697 205.443796 
L 424.571568 205.339846 
L 425.479439 205.027996 
L 426.387309 204.924046 
L 427.29518 205.131946 
L 428.203051 204.924046 
L 429.110921 204.924046 
L 430.926663 204.612196 
L 431.834533 204.092446 
L 432.742404 204.092446 
L 433.650275 204.612196 
L 434.558145 203.988496 
L 435.466016 203.884546 
L 436.373887 204.300346 
L 437.281757 204.508246 
L 438.189628 203.988496 
L 439.097498 204.092446 
L 440.005369 202.948996 
L 440.91324 202.429246 
L 441.82111 202.117396 
L 442.728981 200.973946 
L 443.636852 201.181846 
L 446.360464 201.285796 
L 448.176205 202.013446 
L 450.899817 204.820096 
L 451.807688 204.300346 
L 452.715558 204.092446 
L 453.623429 204.716146 
L 454.5313 204.612196 
L 455.43917 204.924046 
L 456.347041 205.443796 
L 457.254912 205.235896 
L 459.070653 205.547746 
L 461.794265 206.483296 
L 462.702135 206.275396 
L 463.610006 206.275396 
L 464.517877 207.106996 
L 465.425747 207.106996 
L 466.333618 206.691196 
L 467.241489 207.210946 
L 469.05723 207.106996 
L 469.965101 207.522796 
L 472.688713 208.042546 
L 473.596583 207.938596 
L 474.504454 208.354396 
L 475.412325 208.354396 
L 476.320195 208.978096 
L 477.228066 208.354396 
L 479.043807 208.042546 
L 479.951678 208.770196 
L 480.859549 208.978096 
L 482.67529 208.250446 
L 484.491031 208.666246 
L 485.398902 208.458346 
L 486.306772 208.874146 
L 487.214643 209.082046 
L 488.122514 208.354396 
L 489.030384 208.458346 
L 489.938255 208.770196 
L 490.846126 208.562296 
L 491.753996 209.185996 
L 492.661867 208.146496 
L 493.569738 208.562296 
L 494.477608 208.770196 
L 495.385479 208.458346 
L 497.20122 208.770196 
L 498.109091 208.562296 
L 498.109091 208.562296 
" clip-path="url(#pa5ea3f171f)" style="fill: none; stroke: #0000ff; stroke-opacity: 0.5; stroke-width: 1.5; stroke-linecap: square"/>
   </g>
   <g id="LineCollection_1">
    <path d="M 92.290909 362.891548 
L 92.290909 360.41777 
" clip-path="url(#pa5ea3f171f)" style="fill: none; stroke: #ff0000; stroke-width: 1.5"/>
    <path d="M 128.605735 367.084727 
L 128.605735 365.891941 
" clip-path="url(#pa5ea3f171f)" style="fill: none; stroke: #ff0000; stroke-width: 1.5"/>
    <path d="M 164.920561 363.369269 
L 164.920561 362.174974 
" clip-path="url(#pa5ea3f171f)" style="fill: none; stroke: #ff0000; stroke-width: 1.5"/>
    <path d="M 201.235387 353.750313 
L 201.235387 351.41973 
" clip-path="url(#pa5ea3f171f)" style="fill: none; stroke: #ff0000; stroke-width: 1.5"/>
    <path d="M 237.550214 331.693109 
L 237.550214 328.154734 
" clip-path="url(#pa5ea3f171f)" style="fill: none; stroke: #ff0000; stroke-width: 1.5"/>
    <path d="M 273.86504 296.021601 
L 273.86504 290.385567 
" clip-path="url(#pa5ea3f171f)" style="fill: none; stroke: #ff0000; stroke-width: 1.5"/>
    <path d="M 310.179866 270.828096 
L 310.179866 264.539622 
" clip-path="url(#pa5ea3f171f)" style="fill: none; stroke: #ff0000; stroke-width: 1.5"/>
    <path d="M 346.494692 246.614635 
L 346.494692 242.131508 
" clip-path="url(#pa5ea3f171f)" style="fill: none; stroke: #ff0000; stroke-width: 1.5"/>
    <path d="M 382.809518 225.151808 
L 382.809518 220.870885 
" clip-path="url(#pa5ea3f171f)" style="fill: none; stroke: #ff0000; stroke-width: 1.5"/>
    <path d="M 419.124344 211.260601 
L 419.124344 203.940917 
" clip-path="url(#pa5ea3f171f)" style="fill: none; stroke: #ff0000; stroke-width: 1.5"/>
    <path d="M 455.43917 218.135919 
L 455.43917 207.356649 
" clip-path="url(#pa5ea3f171f)" style="fill: none; stroke: #ff0000; stroke-width: 1.5"/>
    <path d="M 491.753996 213.71956 
L 491.753996 209.642033 
" clip-path="url(#pa5ea3f171f)" style="fill: none; stroke: #ff0000; stroke-width: 1.5"/>
   </g>
   <g id="line2d_43">
    <defs>
     <path id="m30ebfa9503" d="M 5 0 
L -5 -0 
" style="stroke: #ff0000"/>
    </defs>
    <g clip-path="url(#pa5ea3f171f)">
     <use xlink:href="#m30ebfa9503" x="92.290909" y="362.891548" style="fill: #ff0000; stroke: #ff0000"/>
     <use xlink:href="#m30ebfa9503" x="128.605735" y="367.084727" style="fill: #ff0000; stroke: #ff0000"/>
     <use xlink:href="#m30ebfa9503" x="164.920561" y="363.369269" style="fill: #ff0000; stroke: #ff0000"/>
     <use xlink:href="#m30ebfa9503" x="201.235387" y="353.750313" style="fill: #ff0000; stroke: #ff0000"/>
     <use xlink:href="#m30ebfa9503" x="237.550214" y="331.693109" style="fill: #ff0000; stroke: #ff0000"/>
     <use xlink:href="#m30ebfa9503" x="273.86504" y="296.021601" style="fill: #ff0000; stroke: #ff0000"/>
     <use xlink:href="#m30ebfa9503" x="310.179866" y="270.828096" style="fill: #ff0000; stroke: #ff0000"/>
     <use xlink:href="#m30ebfa9503" x="346.494692" y="246.614635" style="fill: #ff0000; stroke: #ff0000"/>
     <use xlink:href="#m30ebfa9503" x="382.809518" y="225.151808" style="fill: #ff0000; stroke: #ff0000"/>
     <use xlink:href="#m30ebfa9503" x="419.124344" y="211.260601" style="fill: #ff0000; stroke: #ff0000"/>
     <use xlink:href="#m30ebfa9503" x="455.43917" y="218.135919" style="fill: #ff0000; stroke: #ff0000"/>
     <use xlink:href="#m30ebfa9503" x="491.753996" y="213.71956" style="fill: #ff0000; stroke: #ff0000"/>
    </g>
   </g>
   <g id="line2d_44">
    <g clip-path="url(#pa5ea3f171f)">
     <use xlink:href="#m30ebfa9503" x="92.290909" y="360.41777" style="fill: #ff0000; stroke: #ff0000"/>
     <use xlink:href="#m30ebfa9503" x="128.605735" y="365.891941" style="fill: #ff0000; stroke: #ff0000"/>
     <use xlink:href="#m30ebfa9503" x="164.920561" y="362.174974" style="fill: #ff0000; stroke: #ff0000"/>
     <use xlink:href="#m30ebfa9503" x="201.235387" y="351.41973" style="fill: #ff0000; stroke: #ff0000"/>
     <use xlink:href="#m30ebfa9503" x="237.550214" y="328.154734" style="fill: #ff0000; stroke: #ff0000"/>
     <use xlink:href="#m30ebfa9503" x="273.86504" y="290.385567" style="fill: #ff0000; stroke: #ff0000"/>
     <use xlink:href="#m30ebfa9503" x="310.179866" y="264.539622" style="fill: #ff0000; stroke: #ff0000"/>
     <use xlink:href="#m30ebfa9503" x="346.494692" y="242.131508" style="fill: #ff0000; stroke: #ff0000"/>
     <use xlink:href="#m30ebfa9503" x="382.809518" y="220.870885" style="fill: #ff0000; stroke: #ff0000"/>
     <use xlink:href="#m30ebfa9503" x="419.124344" y="203.940917" style="fill: #ff0000; stroke: #ff0000"/>
     <use xlink:href="#m30ebfa9503" x="455.43917" y="207.356649" style="fill: #ff0000; stroke: #ff0000"/>
     <use xlink:href="#m30ebfa9503" x="491.753996" y="209.642033" style="fill: #ff0000; stroke: #ff0000"/>
    </g>
   </g>
   <g id="line2d_45">
    <path d="M 92.290909 361.654659 
L 128.605735 366.488334 
L 164.920561 362.772121 
L 201.235387 352.585021 
L 237.550214 329.923922 
L 273.86504 293.203584 
L 310.179866 267.683859 
L 346.494692 244.373071 
L 382.809518 223.011346 
L 419.124344 207.600759 
L 455.43917 212.746284 
L 491.753996 211.680796 
" clip-path="url(#pa5ea3f171f)" style="fill: none; stroke: #ff0000; stroke-width: 1.5; stroke-linecap: square"/>
   </g>
   <g id="patch_3">
    <path d="M 72 384.48 
L 72 51.84 
" style="fill: none; stroke: #000000; stroke-width: 0.8; stroke-linejoin: miter; stroke-linecap: square"/>
   </g>
   <g id="patch_4">
    <path d="M 518.4 384.48 
L 518.4 51.84 
" style="fill: none; stroke: #000000; stroke-width: 0.8; stroke-linejoin: miter; stroke-linecap: square"/>
   </g>
   <g id="patch_5">
    <path d="M 72 384.48 
L 518.4 384.48 
" style="fill: none; stroke: #000000; stroke-width: 0.8; stroke-linejoin: miter; stroke-linecap: square"/>
   </g>
   <g id="patch_6">
    <path d="M 72 51.84 
L 518.4 51.84 
" style="fill: none; stroke: #000000; stroke-width: 0.8; stroke-linejoin: miter; stroke-linecap: square"/>
   </g>
   <g id="text_22">
    <!-- M20: Methionin; Tryptophan -->
    <g transform="translate(225.18125 45.84) scale(0.1 -0.1)">
     <defs>
      <path id="DejaVuSans-4d" d="M 628 4666 
L 1569 4666 
L 2759 1491 
L 3956 4666 
L 4897 4666 
L 4897 0 
L 4281 0 
L 4281 4097 
L 3078 897 
L 2444 897 
L 1241 4097 
L 1241 0 
L 628 0 
L 628 4666 
z
" transform="scale(0.015625)"/>
      <path id="DejaVuSans-3a" d="M 750 794 
L 1409 794 
L 1409 0 
L 750 0 
L 750 794 
z
M 750 3309 
L 1409 3309 
L 1409 2516 
L 750 2516 
L 750 3309 
z
" transform="scale(0.015625)"/>
      <path id="DejaVuSans-3b" d="M 750 3309 
L 1409 3309 
L 1409 2516 
L 750 2516 
L 750 3309 
z
M 750 794 
L 1409 794 
L 1409 256 
L 897 -744 
L 494 -744 
L 750 256 
L 750 794 
z
" transform="scale(0.015625)"/>
      <path id="DejaVuSans-54" d="M -19 4666 
L 3928 4666 
L 3928 4134 
L 2272 4134 
L 2272 0 
L 1638 0 
L 1638 4134 
L -19 4134 
L -19 4666 
z
" transform="scale(0.015625)"/>
      <path id="DejaVuSans-79" d="M 2059 -325 
Q 1816 -950 1584 -1140 
Q 1353 -1331 966 -1331 
L 506 -1331 
L 506 -850 
L 844 -850 
Q 1081 -850 1212 -737 
Q 1344 -625 1503 -206 
L 1606 56 
L 191 3500 
L 800 3500 
L 1894 763 
L 2988 3500 
L 3597 3500 
L 2059 -325 
z
" transform="scale(0.015625)"/>
      <path id="DejaVuSans-70" d="M 1159 525 
L 1159 -1331 
L 581 -1331 
L 581 3500 
L 1159 3500 
L 1159 2969 
Q 1341 3281 1617 3432 
Q 1894 3584 2278 3584 
Q 2916 3584 3314 3078 
Q 3713 2572 3713 1747 
Q 3713 922 3314 415 
Q 2916 -91 2278 -91 
Q 1894 -91 1617 61 
Q 1341 213 1159 525 
z
M 3116 1747 
Q 3116 2381 2855 2742 
Q 2594 3103 2138 3103 
Q 1681 3103 1420 2742 
Q 1159 2381 1159 1747 
Q 1159 1113 1420 752 
Q 1681 391 2138 391 
Q 2594 391 2855 752 
Q 3116 1113 3116 1747 
z
" transform="scale(0.015625)"/>
     </defs>
     <use xlink:href="#DejaVuSans-4d"/>
     <use xlink:href="#DejaVuSans-32" x="86.279297"/>
     <use xlink:href="#DejaVuSans-30" x="149.902344"/>
     <use xlink:href="#DejaVuSans-3a" x="213.525391"/>
     <use xlink:href="#DejaVuSans-20" x="247.216797"/>
     <use xlink:href="#DejaVuSans-4d" x="279.003906"/>
     <use xlink:href="#DejaVuSans-65" x="365.283203"/>
     <use xlink:href="#DejaVuSans-74" x="426.806641"/>
     <use xlink:href="#DejaVuSans-68" x="466.015625"/>
     <use xlink:href="#DejaVuSans-69" x="529.394531"/>
     <use xlink:href="#DejaVuSans-6f" x="557.177734"/>
     <use xlink:href="#DejaVuSans-6e" x="618.359375"/>
     <use xlink:href="#DejaVuSans-69" x="681.738281"/>
     <use xlink:href="#DejaVuSans-6e" x="709.521484"/>
     <use xlink:href="#DejaVuSans-3b" x="772.900391"/>
     <use xlink:href="#DejaVuSans-20" x="806.591797"/>
     <use xlink:href="#DejaVuSans-54" x="838.378906"/>
     <use xlink:href="#DejaVuSans-72" x="884.712891"/>
     <use xlink:href="#DejaVuSans-79" x="925.826172"/>
     <use xlink:href="#DejaVuSans-70" x="985.005859"/>
     <use xlink:href="#DejaVuSans-74" x="1048.482422"/>
     <use xlink:href="#DejaVuSans-6f" x="1087.691406"/>
     <use xlink:href="#DejaVuSans-70" x="1148.873047"/>
     <use xlink:href="#DejaVuSans-68" x="1212.349609"/>
     <use xlink:href="#DejaVuSans-61" x="1275.728516"/>
     <use xlink:href="#DejaVuSans-6e" x="1337.007812"/>
    </g>
   </g>
  </g>
 </g>
 <defs>
  <clipPath id="pa5ea3f171f">
   <rect x="72" y="51.84" width="446.4" height="332.64"/>
  </clipPath>
 </defs>
</svg>
