<?xml version="1.0" encoding="utf-8" standalone="no"?>
<!DOCTYPE svg PUBLIC "-//W3C//DTD SVG 1.1//EN"
  "http://www.w3.org/Graphics/SVG/1.1/DTD/svg11.dtd">
<svg xmlns:xlink="http://www.w3.org/1999/xlink" width="576pt" height="432pt" viewBox="0 0 576 432" xmlns="http://www.w3.org/2000/svg" version="1.1">
 <metadata>
  <rdf:RDF xmlns:dc="http://purl.org/dc/elements/1.1/" xmlns:cc="http://creativecommons.org/ns#" xmlns:rdf="http://www.w3.org/1999/02/22-rdf-syntax-ns#">
   <cc:Work>
    <dc:type rdf:resource="http://purl.org/dc/dcmitype/StillImage"/>
    <dc:date>2024-11-12T14:09:15.580406</dc:date>
    <dc:format>image/svg+xml</dc:format>
    <dc:creator>
     <cc:Agent>
      <dc:title>Matplotlib v3.7.5, https://matplotlib.org/</dc:title>
     </cc:Agent>
    </dc:creator>
   </cc:Work>
  </rdf:RDF>
 </metadata>
 <defs>
  <style type="text/css">*{stroke-linejoin: round; stroke-linecap: butt}</style>
 </defs>
 <g id="figure_1">
  <g id="patch_1">
   <path d="M 0 432 
L 576 432 
L 576 0 
L 0 0 
z
" style="fill: #ffffff"/>
  </g>
  <g id="axes_1">
   <g id="patch_2">
    <path d="M 72 384.48 
L 518.4 384.48 
L 518.4 51.84 
L 72 51.84 
z
" style="fill: #ffffff"/>
   </g>
   <g id="matplotlib.axis_1">
    <g id="xtick_1">
     <g id="line2d_1">
      <path d="M 92.290909 384.48 
L 92.290909 51.84 
" clip-path="url(#peb857e4166)" style="fill: none; stroke: #b0b0b0; stroke-width: 0.8; stroke-linecap: square"/>
     </g>
     <g id="line2d_2">
      <defs>
       <path id="m8c3305a646" d="M 0 0 
L 0 3.5 
" style="stroke: #000000; stroke-width: 0.8"/>
      </defs>
      <g>
       <use xlink:href="#m8c3305a646" x="92.290909" y="384.48" style="stroke: #000000; stroke-width: 0.8"/>
      </g>
     </g>
     <g id="text_1">
      <!-- 0.17 -->
      <g transform="translate(81.158097 399.078438) scale(0.1 -0.1)">
       <defs>
        <path id="DejaVuSans-30" d="M 2034 4250 
Q 1547 4250 1301 3770 
Q 1056 3291 1056 2328 
Q 1056 1369 1301 889 
Q 1547 409 2034 409 
Q 2525 409 2770 889 
Q 3016 1369 3016 2328 
Q 3016 3291 2770 3770 
Q 2525 4250 2034 4250 
z
M 2034 4750 
Q 2819 4750 3233 4129 
Q 3647 3509 3647 2328 
Q 3647 1150 3233 529 
Q 2819 -91 2034 -91 
Q 1250 -91 836 529 
Q 422 1150 422 2328 
Q 422 3509 836 4129 
Q 1250 4750 2034 4750 
z
" transform="scale(0.015625)"/>
        <path id="DejaVuSans-2e" d="M 684 794 
L 1344 794 
L 1344 0 
L 684 0 
L 684 794 
z
" transform="scale(0.015625)"/>
        <path id="DejaVuSans-31" d="M 794 531 
L 1825 531 
L 1825 4091 
L 703 3866 
L 703 4441 
L 1819 4666 
L 2450 4666 
L 2450 531 
L 3481 531 
L 3481 0 
L 794 0 
L 794 531 
z
" transform="scale(0.015625)"/>
        <path id="DejaVuSans-37" d="M 525 4666 
L 3525 4666 
L 3525 4397 
L 1831 0 
L 1172 0 
L 2766 4134 
L 525 4134 
L 525 4666 
z
" transform="scale(0.015625)"/>
       </defs>
       <use xlink:href="#DejaVuSans-30"/>
       <use xlink:href="#DejaVuSans-2e" x="63.623047"/>
       <use xlink:href="#DejaVuSans-31" x="95.410156"/>
       <use xlink:href="#DejaVuSans-37" x="159.033203"/>
      </g>
     </g>
    </g>
    <g id="xtick_2">
     <g id="line2d_3">
      <path d="M 128.605735 384.48 
L 128.605735 51.84 
" clip-path="url(#peb857e4166)" style="fill: none; stroke: #b0b0b0; stroke-width: 0.8; stroke-linecap: square"/>
     </g>
     <g id="line2d_4">
      <g>
       <use xlink:href="#m8c3305a646" x="128.605735" y="384.48" style="stroke: #000000; stroke-width: 0.8"/>
      </g>
     </g>
     <g id="text_2">
      <!-- 6.83 -->
      <g transform="translate(117.472923 399.078438) scale(0.1 -0.1)">
       <defs>
        <path id="DejaVuSans-36" d="M 2113 2584 
Q 1688 2584 1439 2293 
Q 1191 2003 1191 1497 
Q 1191 994 1439 701 
Q 1688 409 2113 409 
Q 2538 409 2786 701 
Q 3034 994 3034 1497 
Q 3034 2003 2786 2293 
Q 2538 2584 2113 2584 
z
M 3366 4563 
L 3366 3988 
Q 3128 4100 2886 4159 
Q 2644 4219 2406 4219 
Q 1781 4219 1451 3797 
Q 1122 3375 1075 2522 
Q 1259 2794 1537 2939 
Q 1816 3084 2150 3084 
Q 2853 3084 3261 2657 
Q 3669 2231 3669 1497 
Q 3669 778 3244 343 
Q 2819 -91 2113 -91 
Q 1303 -91 875 529 
Q 447 1150 447 2328 
Q 447 3434 972 4092 
Q 1497 4750 2381 4750 
Q 2619 4750 2861 4703 
Q 3103 4656 3366 4563 
z
" transform="scale(0.015625)"/>
        <path id="DejaVuSans-38" d="M 2034 2216 
Q 1584 2216 1326 1975 
Q 1069 1734 1069 1313 
Q 1069 891 1326 650 
Q 1584 409 2034 409 
Q 2484 409 2743 651 
Q 3003 894 3003 1313 
Q 3003 1734 2745 1975 
Q 2488 2216 2034 2216 
z
M 1403 2484 
Q 997 2584 770 2862 
Q 544 3141 544 3541 
Q 544 4100 942 4425 
Q 1341 4750 2034 4750 
Q 2731 4750 3128 4425 
Q 3525 4100 3525 3541 
Q 3525 3141 3298 2862 
Q 3072 2584 2669 2484 
Q 3125 2378 3379 2068 
Q 3634 1759 3634 1313 
Q 3634 634 3220 271 
Q 2806 -91 2034 -91 
Q 1263 -91 848 271 
Q 434 634 434 1313 
Q 434 1759 690 2068 
Q 947 2378 1403 2484 
z
M 1172 3481 
Q 1172 3119 1398 2916 
Q 1625 2713 2034 2713 
Q 2441 2713 2670 2916 
Q 2900 3119 2900 3481 
Q 2900 3844 2670 4047 
Q 2441 4250 2034 4250 
Q 1625 4250 1398 4047 
Q 1172 3844 1172 3481 
z
" transform="scale(0.015625)"/>
        <path id="DejaVuSans-33" d="M 2597 2516 
Q 3050 2419 3304 2112 
Q 3559 1806 3559 1356 
Q 3559 666 3084 287 
Q 2609 -91 1734 -91 
Q 1441 -91 1130 -33 
Q 819 25 488 141 
L 488 750 
Q 750 597 1062 519 
Q 1375 441 1716 441 
Q 2309 441 2620 675 
Q 2931 909 2931 1356 
Q 2931 1769 2642 2001 
Q 2353 2234 1838 2234 
L 1294 2234 
L 1294 2753 
L 1863 2753 
Q 2328 2753 2575 2939 
Q 2822 3125 2822 3475 
Q 2822 3834 2567 4026 
Q 2313 4219 1838 4219 
Q 1578 4219 1281 4162 
Q 984 4106 628 3988 
L 628 4550 
Q 988 4650 1302 4700 
Q 1616 4750 1894 4750 
Q 2613 4750 3031 4423 
Q 3450 4097 3450 3541 
Q 3450 3153 3228 2886 
Q 3006 2619 2597 2516 
z
" transform="scale(0.015625)"/>
       </defs>
       <use xlink:href="#DejaVuSans-36"/>
       <use xlink:href="#DejaVuSans-2e" x="63.623047"/>
       <use xlink:href="#DejaVuSans-38" x="95.410156"/>
       <use xlink:href="#DejaVuSans-33" x="159.033203"/>
      </g>
     </g>
    </g>
    <g id="xtick_3">
     <g id="line2d_5">
      <path d="M 164.920561 384.48 
L 164.920561 51.84 
" clip-path="url(#peb857e4166)" style="fill: none; stroke: #b0b0b0; stroke-width: 0.8; stroke-linecap: square"/>
     </g>
     <g id="line2d_6">
      <g>
       <use xlink:href="#m8c3305a646" x="164.920561" y="384.48" style="stroke: #000000; stroke-width: 0.8"/>
      </g>
     </g>
     <g id="text_3">
      <!-- 13.5 -->
      <g transform="translate(153.787749 399.078438) scale(0.1 -0.1)">
       <defs>
        <path id="DejaVuSans-35" d="M 691 4666 
L 3169 4666 
L 3169 4134 
L 1269 4134 
L 1269 2991 
Q 1406 3038 1543 3061 
Q 1681 3084 1819 3084 
Q 2600 3084 3056 2656 
Q 3513 2228 3513 1497 
Q 3513 744 3044 326 
Q 2575 -91 1722 -91 
Q 1428 -91 1123 -41 
Q 819 9 494 109 
L 494 744 
Q 775 591 1075 516 
Q 1375 441 1709 441 
Q 2250 441 2565 725 
Q 2881 1009 2881 1497 
Q 2881 1984 2565 2268 
Q 2250 2553 1709 2553 
Q 1456 2553 1204 2497 
Q 953 2441 691 2322 
L 691 4666 
z
" transform="scale(0.015625)"/>
       </defs>
       <use xlink:href="#DejaVuSans-31"/>
       <use xlink:href="#DejaVuSans-33" x="63.623047"/>
       <use xlink:href="#DejaVuSans-2e" x="127.246094"/>
       <use xlink:href="#DejaVuSans-35" x="159.033203"/>
      </g>
     </g>
    </g>
    <g id="xtick_4">
     <g id="line2d_7">
      <path d="M 201.235387 384.48 
L 201.235387 51.84 
" clip-path="url(#peb857e4166)" style="fill: none; stroke: #b0b0b0; stroke-width: 0.8; stroke-linecap: square"/>
     </g>
     <g id="line2d_8">
      <g>
       <use xlink:href="#m8c3305a646" x="201.235387" y="384.48" style="stroke: #000000; stroke-width: 0.8"/>
      </g>
     </g>
     <g id="text_4">
      <!-- 20.17 -->
      <g transform="translate(186.921325 399.078438) scale(0.1 -0.1)">
       <defs>
        <path id="DejaVuSans-32" d="M 1228 531 
L 3431 531 
L 3431 0 
L 469 0 
L 469 531 
Q 828 903 1448 1529 
Q 2069 2156 2228 2338 
Q 2531 2678 2651 2914 
Q 2772 3150 2772 3378 
Q 2772 3750 2511 3984 
Q 2250 4219 1831 4219 
Q 1534 4219 1204 4116 
Q 875 4013 500 3803 
L 500 4441 
Q 881 4594 1212 4672 
Q 1544 4750 1819 4750 
Q 2544 4750 2975 4387 
Q 3406 4025 3406 3419 
Q 3406 3131 3298 2873 
Q 3191 2616 2906 2266 
Q 2828 2175 2409 1742 
Q 1991 1309 1228 531 
z
" transform="scale(0.015625)"/>
       </defs>
       <use xlink:href="#DejaVuSans-32"/>
       <use xlink:href="#DejaVuSans-30" x="63.623047"/>
       <use xlink:href="#DejaVuSans-2e" x="127.246094"/>
       <use xlink:href="#DejaVuSans-31" x="159.033203"/>
       <use xlink:href="#DejaVuSans-37" x="222.65625"/>
      </g>
     </g>
    </g>
    <g id="xtick_5">
     <g id="line2d_9">
      <path d="M 237.550214 384.48 
L 237.550214 51.84 
" clip-path="url(#peb857e4166)" style="fill: none; stroke: #b0b0b0; stroke-width: 0.8; stroke-linecap: square"/>
     </g>
     <g id="line2d_10">
      <g>
       <use xlink:href="#m8c3305a646" x="237.550214" y="384.48" style="stroke: #000000; stroke-width: 0.8"/>
      </g>
     </g>
     <g id="text_5">
      <!-- 26.83 -->
      <g transform="translate(223.236151 399.078438) scale(0.1 -0.1)">
       <use xlink:href="#DejaVuSans-32"/>
       <use xlink:href="#DejaVuSans-36" x="63.623047"/>
       <use xlink:href="#DejaVuSans-2e" x="127.246094"/>
       <use xlink:href="#DejaVuSans-38" x="159.033203"/>
       <use xlink:href="#DejaVuSans-33" x="222.65625"/>
      </g>
     </g>
    </g>
    <g id="xtick_6">
     <g id="line2d_11">
      <path d="M 273.86504 384.48 
L 273.86504 51.84 
" clip-path="url(#peb857e4166)" style="fill: none; stroke: #b0b0b0; stroke-width: 0.8; stroke-linecap: square"/>
     </g>
     <g id="line2d_12">
      <g>
       <use xlink:href="#m8c3305a646" x="273.86504" y="384.48" style="stroke: #000000; stroke-width: 0.8"/>
      </g>
     </g>
     <g id="text_6">
      <!-- 33.5 -->
      <g transform="translate(262.732227 399.078438) scale(0.1 -0.1)">
       <use xlink:href="#DejaVuSans-33"/>
       <use xlink:href="#DejaVuSans-33" x="63.623047"/>
       <use xlink:href="#DejaVuSans-2e" x="127.246094"/>
       <use xlink:href="#DejaVuSans-35" x="159.033203"/>
      </g>
     </g>
    </g>
    <g id="xtick_7">
     <g id="line2d_13">
      <path d="M 310.179866 384.48 
L 310.179866 51.84 
" clip-path="url(#peb857e4166)" style="fill: none; stroke: #b0b0b0; stroke-width: 0.8; stroke-linecap: square"/>
     </g>
     <g id="line2d_14">
      <g>
       <use xlink:href="#m8c3305a646" x="310.179866" y="384.48" style="stroke: #000000; stroke-width: 0.8"/>
      </g>
     </g>
     <g id="text_7">
      <!-- 40.17 -->
      <g transform="translate(295.865803 399.078438) scale(0.1 -0.1)">
       <defs>
        <path id="DejaVuSans-34" d="M 2419 4116 
L 825 1625 
L 2419 1625 
L 2419 4116 
z
M 2253 4666 
L 3047 4666 
L 3047 1625 
L 3713 1625 
L 3713 1100 
L 3047 1100 
L 3047 0 
L 2419 0 
L 2419 1100 
L 313 1100 
L 313 1709 
L 2253 4666 
z
" transform="scale(0.015625)"/>
       </defs>
       <use xlink:href="#DejaVuSans-34"/>
       <use xlink:href="#DejaVuSans-30" x="63.623047"/>
       <use xlink:href="#DejaVuSans-2e" x="127.246094"/>
       <use xlink:href="#DejaVuSans-31" x="159.033203"/>
       <use xlink:href="#DejaVuSans-37" x="222.65625"/>
      </g>
     </g>
    </g>
    <g id="xtick_8">
     <g id="line2d_15">
      <path d="M 346.494692 384.48 
L 346.494692 51.84 
" clip-path="url(#peb857e4166)" style="fill: none; stroke: #b0b0b0; stroke-width: 0.8; stroke-linecap: square"/>
     </g>
     <g id="line2d_16">
      <g>
       <use xlink:href="#m8c3305a646" x="346.494692" y="384.48" style="stroke: #000000; stroke-width: 0.8"/>
      </g>
     </g>
     <g id="text_8">
      <!-- 46.83 -->
      <g transform="translate(332.180629 399.078438) scale(0.1 -0.1)">
       <use xlink:href="#DejaVuSans-34"/>
       <use xlink:href="#DejaVuSans-36" x="63.623047"/>
       <use xlink:href="#DejaVuSans-2e" x="127.246094"/>
       <use xlink:href="#DejaVuSans-38" x="159.033203"/>
       <use xlink:href="#DejaVuSans-33" x="222.65625"/>
      </g>
     </g>
    </g>
    <g id="xtick_9">
     <g id="line2d_17">
      <path d="M 382.809518 384.48 
L 382.809518 51.84 
" clip-path="url(#peb857e4166)" style="fill: none; stroke: #b0b0b0; stroke-width: 0.8; stroke-linecap: square"/>
     </g>
     <g id="line2d_18">
      <g>
       <use xlink:href="#m8c3305a646" x="382.809518" y="384.48" style="stroke: #000000; stroke-width: 0.8"/>
      </g>
     </g>
     <g id="text_9">
      <!-- 53.5 -->
      <g transform="translate(371.676705 399.078438) scale(0.1 -0.1)">
       <use xlink:href="#DejaVuSans-35"/>
       <use xlink:href="#DejaVuSans-33" x="63.623047"/>
       <use xlink:href="#DejaVuSans-2e" x="127.246094"/>
       <use xlink:href="#DejaVuSans-35" x="159.033203"/>
      </g>
     </g>
    </g>
    <g id="xtick_10">
     <g id="line2d_19">
      <path d="M 419.124344 384.48 
L 419.124344 51.84 
" clip-path="url(#peb857e4166)" style="fill: none; stroke: #b0b0b0; stroke-width: 0.8; stroke-linecap: square"/>
     </g>
     <g id="line2d_20">
      <g>
       <use xlink:href="#m8c3305a646" x="419.124344" y="384.48" style="stroke: #000000; stroke-width: 0.8"/>
      </g>
     </g>
     <g id="text_10">
      <!-- 60.17 -->
      <g transform="translate(404.810282 399.078438) scale(0.1 -0.1)">
       <use xlink:href="#DejaVuSans-36"/>
       <use xlink:href="#DejaVuSans-30" x="63.623047"/>
       <use xlink:href="#DejaVuSans-2e" x="127.246094"/>
       <use xlink:href="#DejaVuSans-31" x="159.033203"/>
       <use xlink:href="#DejaVuSans-37" x="222.65625"/>
      </g>
     </g>
    </g>
    <g id="xtick_11">
     <g id="line2d_21">
      <path d="M 455.43917 384.48 
L 455.43917 51.84 
" clip-path="url(#peb857e4166)" style="fill: none; stroke: #b0b0b0; stroke-width: 0.8; stroke-linecap: square"/>
     </g>
     <g id="line2d_22">
      <g>
       <use xlink:href="#m8c3305a646" x="455.43917" y="384.48" style="stroke: #000000; stroke-width: 0.8"/>
      </g>
     </g>
     <g id="text_11">
      <!-- 66.83 -->
      <g transform="translate(441.125108 399.078438) scale(0.1 -0.1)">
       <use xlink:href="#DejaVuSans-36"/>
       <use xlink:href="#DejaVuSans-36" x="63.623047"/>
       <use xlink:href="#DejaVuSans-2e" x="127.246094"/>
       <use xlink:href="#DejaVuSans-38" x="159.033203"/>
       <use xlink:href="#DejaVuSans-33" x="222.65625"/>
      </g>
     </g>
    </g>
    <g id="xtick_12">
     <g id="line2d_23">
      <path d="M 491.753996 384.48 
L 491.753996 51.84 
" clip-path="url(#peb857e4166)" style="fill: none; stroke: #b0b0b0; stroke-width: 0.8; stroke-linecap: square"/>
     </g>
     <g id="line2d_24">
      <g>
       <use xlink:href="#m8c3305a646" x="491.753996" y="384.48" style="stroke: #000000; stroke-width: 0.8"/>
      </g>
     </g>
     <g id="text_12">
      <!-- 73.5 -->
      <g transform="translate(480.621184 399.078438) scale(0.1 -0.1)">
       <use xlink:href="#DejaVuSans-37"/>
       <use xlink:href="#DejaVuSans-33" x="63.623047"/>
       <use xlink:href="#DejaVuSans-2e" x="127.246094"/>
       <use xlink:href="#DejaVuSans-35" x="159.033203"/>
      </g>
     </g>
    </g>
    <g id="text_13">
     <!-- time in hours [h] -->
     <g transform="translate(253.451562 412.756563) scale(0.1 -0.1)">
      <defs>
       <path id="DejaVuSans-74" d="M 1172 4494 
L 1172 3500 
L 2356 3500 
L 2356 3053 
L 1172 3053 
L 1172 1153 
Q 1172 725 1289 603 
Q 1406 481 1766 481 
L 2356 481 
L 2356 0 
L 1766 0 
Q 1100 0 847 248 
Q 594 497 594 1153 
L 594 3053 
L 172 3053 
L 172 3500 
L 594 3500 
L 594 4494 
L 1172 4494 
z
" transform="scale(0.015625)"/>
       <path id="DejaVuSans-69" d="M 603 3500 
L 1178 3500 
L 1178 0 
L 603 0 
L 603 3500 
z
M 603 4863 
L 1178 4863 
L 1178 4134 
L 603 4134 
L 603 4863 
z
" transform="scale(0.015625)"/>
       <path id="DejaVuSans-6d" d="M 3328 2828 
Q 3544 3216 3844 3400 
Q 4144 3584 4550 3584 
Q 5097 3584 5394 3201 
Q 5691 2819 5691 2113 
L 5691 0 
L 5113 0 
L 5113 2094 
Q 5113 2597 4934 2840 
Q 4756 3084 4391 3084 
Q 3944 3084 3684 2787 
Q 3425 2491 3425 1978 
L 3425 0 
L 2847 0 
L 2847 2094 
Q 2847 2600 2669 2842 
Q 2491 3084 2119 3084 
Q 1678 3084 1418 2786 
Q 1159 2488 1159 1978 
L 1159 0 
L 581 0 
L 581 3500 
L 1159 3500 
L 1159 2956 
Q 1356 3278 1631 3431 
Q 1906 3584 2284 3584 
Q 2666 3584 2933 3390 
Q 3200 3197 3328 2828 
z
" transform="scale(0.015625)"/>
       <path id="DejaVuSans-65" d="M 3597 1894 
L 3597 1613 
L 953 1613 
Q 991 1019 1311 708 
Q 1631 397 2203 397 
Q 2534 397 2845 478 
Q 3156 559 3463 722 
L 3463 178 
Q 3153 47 2828 -22 
Q 2503 -91 2169 -91 
Q 1331 -91 842 396 
Q 353 884 353 1716 
Q 353 2575 817 3079 
Q 1281 3584 2069 3584 
Q 2775 3584 3186 3129 
Q 3597 2675 3597 1894 
z
M 3022 2063 
Q 3016 2534 2758 2815 
Q 2500 3097 2075 3097 
Q 1594 3097 1305 2825 
Q 1016 2553 972 2059 
L 3022 2063 
z
" transform="scale(0.015625)"/>
       <path id="DejaVuSans-20" transform="scale(0.015625)"/>
       <path id="DejaVuSans-6e" d="M 3513 2113 
L 3513 0 
L 2938 0 
L 2938 2094 
Q 2938 2591 2744 2837 
Q 2550 3084 2163 3084 
Q 1697 3084 1428 2787 
Q 1159 2491 1159 1978 
L 1159 0 
L 581 0 
L 581 3500 
L 1159 3500 
L 1159 2956 
Q 1366 3272 1645 3428 
Q 1925 3584 2291 3584 
Q 2894 3584 3203 3211 
Q 3513 2838 3513 2113 
z
" transform="scale(0.015625)"/>
       <path id="DejaVuSans-68" d="M 3513 2113 
L 3513 0 
L 2938 0 
L 2938 2094 
Q 2938 2591 2744 2837 
Q 2550 3084 2163 3084 
Q 1697 3084 1428 2787 
Q 1159 2491 1159 1978 
L 1159 0 
L 581 0 
L 581 4863 
L 1159 4863 
L 1159 2956 
Q 1366 3272 1645 3428 
Q 1925 3584 2291 3584 
Q 2894 3584 3203 3211 
Q 3513 2838 3513 2113 
z
" transform="scale(0.015625)"/>
       <path id="DejaVuSans-6f" d="M 1959 3097 
Q 1497 3097 1228 2736 
Q 959 2375 959 1747 
Q 959 1119 1226 758 
Q 1494 397 1959 397 
Q 2419 397 2687 759 
Q 2956 1122 2956 1747 
Q 2956 2369 2687 2733 
Q 2419 3097 1959 3097 
z
M 1959 3584 
Q 2709 3584 3137 3096 
Q 3566 2609 3566 1747 
Q 3566 888 3137 398 
Q 2709 -91 1959 -91 
Q 1206 -91 779 398 
Q 353 888 353 1747 
Q 353 2609 779 3096 
Q 1206 3584 1959 3584 
z
" transform="scale(0.015625)"/>
       <path id="DejaVuSans-75" d="M 544 1381 
L 544 3500 
L 1119 3500 
L 1119 1403 
Q 1119 906 1312 657 
Q 1506 409 1894 409 
Q 2359 409 2629 706 
Q 2900 1003 2900 1516 
L 2900 3500 
L 3475 3500 
L 3475 0 
L 2900 0 
L 2900 538 
Q 2691 219 2414 64 
Q 2138 -91 1772 -91 
Q 1169 -91 856 284 
Q 544 659 544 1381 
z
M 1991 3584 
L 1991 3584 
z
" transform="scale(0.015625)"/>
       <path id="DejaVuSans-72" d="M 2631 2963 
Q 2534 3019 2420 3045 
Q 2306 3072 2169 3072 
Q 1681 3072 1420 2755 
Q 1159 2438 1159 1844 
L 1159 0 
L 581 0 
L 581 3500 
L 1159 3500 
L 1159 2956 
Q 1341 3275 1631 3429 
Q 1922 3584 2338 3584 
Q 2397 3584 2469 3576 
Q 2541 3569 2628 3553 
L 2631 2963 
z
" transform="scale(0.015625)"/>
       <path id="DejaVuSans-73" d="M 2834 3397 
L 2834 2853 
Q 2591 2978 2328 3040 
Q 2066 3103 1784 3103 
Q 1356 3103 1142 2972 
Q 928 2841 928 2578 
Q 928 2378 1081 2264 
Q 1234 2150 1697 2047 
L 1894 2003 
Q 2506 1872 2764 1633 
Q 3022 1394 3022 966 
Q 3022 478 2636 193 
Q 2250 -91 1575 -91 
Q 1294 -91 989 -36 
Q 684 19 347 128 
L 347 722 
Q 666 556 975 473 
Q 1284 391 1588 391 
Q 1994 391 2212 530 
Q 2431 669 2431 922 
Q 2431 1156 2273 1281 
Q 2116 1406 1581 1522 
L 1381 1569 
Q 847 1681 609 1914 
Q 372 2147 372 2553 
Q 372 3047 722 3315 
Q 1072 3584 1716 3584 
Q 2034 3584 2315 3537 
Q 2597 3491 2834 3397 
z
" transform="scale(0.015625)"/>
       <path id="DejaVuSans-5b" d="M 550 4863 
L 1875 4863 
L 1875 4416 
L 1125 4416 
L 1125 -397 
L 1875 -397 
L 1875 -844 
L 550 -844 
L 550 4863 
z
" transform="scale(0.015625)"/>
       <path id="DejaVuSans-5d" d="M 1947 4863 
L 1947 -844 
L 622 -844 
L 622 -397 
L 1369 -397 
L 1369 4416 
L 622 4416 
L 622 4863 
L 1947 4863 
z
" transform="scale(0.015625)"/>
      </defs>
      <use xlink:href="#DejaVuSans-74"/>
      <use xlink:href="#DejaVuSans-69" x="39.208984"/>
      <use xlink:href="#DejaVuSans-6d" x="66.992188"/>
      <use xlink:href="#DejaVuSans-65" x="164.404297"/>
      <use xlink:href="#DejaVuSans-20" x="225.927734"/>
      <use xlink:href="#DejaVuSans-69" x="257.714844"/>
      <use xlink:href="#DejaVuSans-6e" x="285.498047"/>
      <use xlink:href="#DejaVuSans-20" x="348.876953"/>
      <use xlink:href="#DejaVuSans-68" x="380.664062"/>
      <use xlink:href="#DejaVuSans-6f" x="444.042969"/>
      <use xlink:href="#DejaVuSans-75" x="505.224609"/>
      <use xlink:href="#DejaVuSans-72" x="568.603516"/>
      <use xlink:href="#DejaVuSans-73" x="609.716797"/>
      <use xlink:href="#DejaVuSans-20" x="661.816406"/>
      <use xlink:href="#DejaVuSans-5b" x="693.603516"/>
      <use xlink:href="#DejaVuSans-68" x="732.617188"/>
      <use xlink:href="#DejaVuSans-5d" x="795.996094"/>
     </g>
    </g>
   </g>
   <g id="matplotlib.axis_2">
    <g id="ytick_1">
     <g id="line2d_25">
      <path d="M 72 355.741024 
L 518.4 355.741024 
" clip-path="url(#peb857e4166)" style="fill: none; stroke: #b0b0b0; stroke-width: 0.8; stroke-linecap: square"/>
     </g>
     <g id="line2d_26">
      <defs>
       <path id="m079eab3c44" d="M 0 0 
L -3.5 0 
" style="stroke: #000000; stroke-width: 0.8"/>
      </defs>
      <g>
       <use xlink:href="#m079eab3c44" x="72" y="355.741024" style="stroke: #000000; stroke-width: 0.8"/>
      </g>
     </g>
     <g id="text_14">
      <!-- 20000 -->
      <g transform="translate(33.1875 359.540243) scale(0.1 -0.1)">
       <use xlink:href="#DejaVuSans-32"/>
       <use xlink:href="#DejaVuSans-30" x="63.623047"/>
       <use xlink:href="#DejaVuSans-30" x="127.246094"/>
       <use xlink:href="#DejaVuSans-30" x="190.869141"/>
       <use xlink:href="#DejaVuSans-30" x="254.492188"/>
      </g>
     </g>
    </g>
    <g id="ytick_2">
     <g id="line2d_27">
      <path d="M 72 318.281902 
L 518.4 318.281902 
" clip-path="url(#peb857e4166)" style="fill: none; stroke: #b0b0b0; stroke-width: 0.8; stroke-linecap: square"/>
     </g>
     <g id="line2d_28">
      <g>
       <use xlink:href="#m079eab3c44" x="72" y="318.281902" style="stroke: #000000; stroke-width: 0.8"/>
      </g>
     </g>
     <g id="text_15">
      <!-- 30000 -->
      <g transform="translate(33.1875 322.081121) scale(0.1 -0.1)">
       <use xlink:href="#DejaVuSans-33"/>
       <use xlink:href="#DejaVuSans-30" x="63.623047"/>
       <use xlink:href="#DejaVuSans-30" x="127.246094"/>
       <use xlink:href="#DejaVuSans-30" x="190.869141"/>
       <use xlink:href="#DejaVuSans-30" x="254.492188"/>
      </g>
     </g>
    </g>
    <g id="ytick_3">
     <g id="line2d_29">
      <path d="M 72 280.82278 
L 518.4 280.82278 
" clip-path="url(#peb857e4166)" style="fill: none; stroke: #b0b0b0; stroke-width: 0.8; stroke-linecap: square"/>
     </g>
     <g id="line2d_30">
      <g>
       <use xlink:href="#m079eab3c44" x="72" y="280.82278" style="stroke: #000000; stroke-width: 0.8"/>
      </g>
     </g>
     <g id="text_16">
      <!-- 40000 -->
      <g transform="translate(33.1875 284.621999) scale(0.1 -0.1)">
       <use xlink:href="#DejaVuSans-34"/>
       <use xlink:href="#DejaVuSans-30" x="63.623047"/>
       <use xlink:href="#DejaVuSans-30" x="127.246094"/>
       <use xlink:href="#DejaVuSans-30" x="190.869141"/>
       <use xlink:href="#DejaVuSans-30" x="254.492188"/>
      </g>
     </g>
    </g>
    <g id="ytick_4">
     <g id="line2d_31">
      <path d="M 72 243.363659 
L 518.4 243.363659 
" clip-path="url(#peb857e4166)" style="fill: none; stroke: #b0b0b0; stroke-width: 0.8; stroke-linecap: square"/>
     </g>
     <g id="line2d_32">
      <g>
       <use xlink:href="#m079eab3c44" x="72" y="243.363659" style="stroke: #000000; stroke-width: 0.8"/>
      </g>
     </g>
     <g id="text_17">
      <!-- 50000 -->
      <g transform="translate(33.1875 247.162877) scale(0.1 -0.1)">
       <use xlink:href="#DejaVuSans-35"/>
       <use xlink:href="#DejaVuSans-30" x="63.623047"/>
       <use xlink:href="#DejaVuSans-30" x="127.246094"/>
       <use xlink:href="#DejaVuSans-30" x="190.869141"/>
       <use xlink:href="#DejaVuSans-30" x="254.492188"/>
      </g>
     </g>
    </g>
    <g id="ytick_5">
     <g id="line2d_33">
      <path d="M 72 205.904537 
L 518.4 205.904537 
" clip-path="url(#peb857e4166)" style="fill: none; stroke: #b0b0b0; stroke-width: 0.8; stroke-linecap: square"/>
     </g>
     <g id="line2d_34">
      <g>
       <use xlink:href="#m079eab3c44" x="72" y="205.904537" style="stroke: #000000; stroke-width: 0.8"/>
      </g>
     </g>
     <g id="text_18">
      <!-- 60000 -->
      <g transform="translate(33.1875 209.703755) scale(0.1 -0.1)">
       <use xlink:href="#DejaVuSans-36"/>
       <use xlink:href="#DejaVuSans-30" x="63.623047"/>
       <use xlink:href="#DejaVuSans-30" x="127.246094"/>
       <use xlink:href="#DejaVuSans-30" x="190.869141"/>
       <use xlink:href="#DejaVuSans-30" x="254.492188"/>
      </g>
     </g>
    </g>
    <g id="ytick_6">
     <g id="line2d_35">
      <path d="M 72 168.445415 
L 518.4 168.445415 
" clip-path="url(#peb857e4166)" style="fill: none; stroke: #b0b0b0; stroke-width: 0.8; stroke-linecap: square"/>
     </g>
     <g id="line2d_36">
      <g>
       <use xlink:href="#m079eab3c44" x="72" y="168.445415" style="stroke: #000000; stroke-width: 0.8"/>
      </g>
     </g>
     <g id="text_19">
      <!-- 70000 -->
      <g transform="translate(33.1875 172.244633) scale(0.1 -0.1)">
       <use xlink:href="#DejaVuSans-37"/>
       <use xlink:href="#DejaVuSans-30" x="63.623047"/>
       <use xlink:href="#DejaVuSans-30" x="127.246094"/>
       <use xlink:href="#DejaVuSans-30" x="190.869141"/>
       <use xlink:href="#DejaVuSans-30" x="254.492188"/>
      </g>
     </g>
    </g>
    <g id="ytick_7">
     <g id="line2d_37">
      <path d="M 72 130.986293 
L 518.4 130.986293 
" clip-path="url(#peb857e4166)" style="fill: none; stroke: #b0b0b0; stroke-width: 0.8; stroke-linecap: square"/>
     </g>
     <g id="line2d_38">
      <g>
       <use xlink:href="#m079eab3c44" x="72" y="130.986293" style="stroke: #000000; stroke-width: 0.8"/>
      </g>
     </g>
     <g id="text_20">
      <!-- 80000 -->
      <g transform="translate(33.1875 134.785511) scale(0.1 -0.1)">
       <use xlink:href="#DejaVuSans-38"/>
       <use xlink:href="#DejaVuSans-30" x="63.623047"/>
       <use xlink:href="#DejaVuSans-30" x="127.246094"/>
       <use xlink:href="#DejaVuSans-30" x="190.869141"/>
       <use xlink:href="#DejaVuSans-30" x="254.492188"/>
      </g>
     </g>
    </g>
    <g id="ytick_8">
     <g id="line2d_39">
      <path d="M 72 93.527171 
L 518.4 93.527171 
" clip-path="url(#peb857e4166)" style="fill: none; stroke: #b0b0b0; stroke-width: 0.8; stroke-linecap: square"/>
     </g>
     <g id="line2d_40">
      <g>
       <use xlink:href="#m079eab3c44" x="72" y="93.527171" style="stroke: #000000; stroke-width: 0.8"/>
      </g>
     </g>
     <g id="text_21">
      <!-- 90000 -->
      <g transform="translate(33.1875 97.326389) scale(0.1 -0.1)">
       <defs>
        <path id="DejaVuSans-39" d="M 703 97 
L 703 672 
Q 941 559 1184 500 
Q 1428 441 1663 441 
Q 2288 441 2617 861 
Q 2947 1281 2994 2138 
Q 2813 1869 2534 1725 
Q 2256 1581 1919 1581 
Q 1219 1581 811 2004 
Q 403 2428 403 3163 
Q 403 3881 828 4315 
Q 1253 4750 1959 4750 
Q 2769 4750 3195 4129 
Q 3622 3509 3622 2328 
Q 3622 1225 3098 567 
Q 2575 -91 1691 -91 
Q 1453 -91 1209 -44 
Q 966 3 703 97 
z
M 1959 2075 
Q 2384 2075 2632 2365 
Q 2881 2656 2881 3163 
Q 2881 3666 2632 3958 
Q 2384 4250 1959 4250 
Q 1534 4250 1286 3958 
Q 1038 3666 1038 3163 
Q 1038 2656 1286 2365 
Q 1534 2075 1959 2075 
z
" transform="scale(0.015625)"/>
       </defs>
       <use xlink:href="#DejaVuSans-39"/>
       <use xlink:href="#DejaVuSans-30" x="63.623047"/>
       <use xlink:href="#DejaVuSans-30" x="127.246094"/>
       <use xlink:href="#DejaVuSans-30" x="190.869141"/>
       <use xlink:href="#DejaVuSans-30" x="254.492188"/>
      </g>
     </g>
    </g>
    <g id="ytick_9">
     <g id="line2d_41">
      <path d="M 72 56.068049 
L 518.4 56.068049 
" clip-path="url(#peb857e4166)" style="fill: none; stroke: #b0b0b0; stroke-width: 0.8; stroke-linecap: square"/>
     </g>
     <g id="line2d_42">
      <g>
       <use xlink:href="#m079eab3c44" x="72" y="56.068049" style="stroke: #000000; stroke-width: 0.8"/>
      </g>
     </g>
     <g id="text_22">
      <!-- 100000 -->
      <g transform="translate(26.825 59.867267) scale(0.1 -0.1)">
       <use xlink:href="#DejaVuSans-31"/>
       <use xlink:href="#DejaVuSans-30" x="63.623047"/>
       <use xlink:href="#DejaVuSans-30" x="127.246094"/>
       <use xlink:href="#DejaVuSans-30" x="190.869141"/>
       <use xlink:href="#DejaVuSans-30" x="254.492188"/>
       <use xlink:href="#DejaVuSans-30" x="318.115234"/>
      </g>
     </g>
    </g>
    <g id="text_23">
     <!-- blank corrected GFP RFU -->
     <g transform="translate(20.745312 280.149062) rotate(-90) scale(0.1 -0.1)">
      <defs>
       <path id="DejaVuSans-62" d="M 3116 1747 
Q 3116 2381 2855 2742 
Q 2594 3103 2138 3103 
Q 1681 3103 1420 2742 
Q 1159 2381 1159 1747 
Q 1159 1113 1420 752 
Q 1681 391 2138 391 
Q 2594 391 2855 752 
Q 3116 1113 3116 1747 
z
M 1159 2969 
Q 1341 3281 1617 3432 
Q 1894 3584 2278 3584 
Q 2916 3584 3314 3078 
Q 3713 2572 3713 1747 
Q 3713 922 3314 415 
Q 2916 -91 2278 -91 
Q 1894 -91 1617 61 
Q 1341 213 1159 525 
L 1159 0 
L 581 0 
L 581 4863 
L 1159 4863 
L 1159 2969 
z
" transform="scale(0.015625)"/>
       <path id="DejaVuSans-6c" d="M 603 4863 
L 1178 4863 
L 1178 0 
L 603 0 
L 603 4863 
z
" transform="scale(0.015625)"/>
       <path id="DejaVuSans-61" d="M 2194 1759 
Q 1497 1759 1228 1600 
Q 959 1441 959 1056 
Q 959 750 1161 570 
Q 1363 391 1709 391 
Q 2188 391 2477 730 
Q 2766 1069 2766 1631 
L 2766 1759 
L 2194 1759 
z
M 3341 1997 
L 3341 0 
L 2766 0 
L 2766 531 
Q 2569 213 2275 61 
Q 1981 -91 1556 -91 
Q 1019 -91 701 211 
Q 384 513 384 1019 
Q 384 1609 779 1909 
Q 1175 2209 1959 2209 
L 2766 2209 
L 2766 2266 
Q 2766 2663 2505 2880 
Q 2244 3097 1772 3097 
Q 1472 3097 1187 3025 
Q 903 2953 641 2809 
L 641 3341 
Q 956 3463 1253 3523 
Q 1550 3584 1831 3584 
Q 2591 3584 2966 3190 
Q 3341 2797 3341 1997 
z
" transform="scale(0.015625)"/>
       <path id="DejaVuSans-6b" d="M 581 4863 
L 1159 4863 
L 1159 1991 
L 2875 3500 
L 3609 3500 
L 1753 1863 
L 3688 0 
L 2938 0 
L 1159 1709 
L 1159 0 
L 581 0 
L 581 4863 
z
" transform="scale(0.015625)"/>
       <path id="DejaVuSans-63" d="M 3122 3366 
L 3122 2828 
Q 2878 2963 2633 3030 
Q 2388 3097 2138 3097 
Q 1578 3097 1268 2742 
Q 959 2388 959 1747 
Q 959 1106 1268 751 
Q 1578 397 2138 397 
Q 2388 397 2633 464 
Q 2878 531 3122 666 
L 3122 134 
Q 2881 22 2623 -34 
Q 2366 -91 2075 -91 
Q 1284 -91 818 406 
Q 353 903 353 1747 
Q 353 2603 823 3093 
Q 1294 3584 2113 3584 
Q 2378 3584 2631 3529 
Q 2884 3475 3122 3366 
z
" transform="scale(0.015625)"/>
       <path id="DejaVuSans-64" d="M 2906 2969 
L 2906 4863 
L 3481 4863 
L 3481 0 
L 2906 0 
L 2906 525 
Q 2725 213 2448 61 
Q 2172 -91 1784 -91 
Q 1150 -91 751 415 
Q 353 922 353 1747 
Q 353 2572 751 3078 
Q 1150 3584 1784 3584 
Q 2172 3584 2448 3432 
Q 2725 3281 2906 2969 
z
M 947 1747 
Q 947 1113 1208 752 
Q 1469 391 1925 391 
Q 2381 391 2643 752 
Q 2906 1113 2906 1747 
Q 2906 2381 2643 2742 
Q 2381 3103 1925 3103 
Q 1469 3103 1208 2742 
Q 947 2381 947 1747 
z
" transform="scale(0.015625)"/>
       <path id="DejaVuSans-47" d="M 3809 666 
L 3809 1919 
L 2778 1919 
L 2778 2438 
L 4434 2438 
L 4434 434 
Q 4069 175 3628 42 
Q 3188 -91 2688 -91 
Q 1594 -91 976 548 
Q 359 1188 359 2328 
Q 359 3472 976 4111 
Q 1594 4750 2688 4750 
Q 3144 4750 3555 4637 
Q 3966 4525 4313 4306 
L 4313 3634 
Q 3963 3931 3569 4081 
Q 3175 4231 2741 4231 
Q 1884 4231 1454 3753 
Q 1025 3275 1025 2328 
Q 1025 1384 1454 906 
Q 1884 428 2741 428 
Q 3075 428 3337 486 
Q 3600 544 3809 666 
z
" transform="scale(0.015625)"/>
       <path id="DejaVuSans-46" d="M 628 4666 
L 3309 4666 
L 3309 4134 
L 1259 4134 
L 1259 2759 
L 3109 2759 
L 3109 2228 
L 1259 2228 
L 1259 0 
L 628 0 
L 628 4666 
z
" transform="scale(0.015625)"/>
       <path id="DejaVuSans-50" d="M 1259 4147 
L 1259 2394 
L 2053 2394 
Q 2494 2394 2734 2622 
Q 2975 2850 2975 3272 
Q 2975 3691 2734 3919 
Q 2494 4147 2053 4147 
L 1259 4147 
z
M 628 4666 
L 2053 4666 
Q 2838 4666 3239 4311 
Q 3641 3956 3641 3272 
Q 3641 2581 3239 2228 
Q 2838 1875 2053 1875 
L 1259 1875 
L 1259 0 
L 628 0 
L 628 4666 
z
" transform="scale(0.015625)"/>
       <path id="DejaVuSans-52" d="M 2841 2188 
Q 3044 2119 3236 1894 
Q 3428 1669 3622 1275 
L 4263 0 
L 3584 0 
L 2988 1197 
Q 2756 1666 2539 1819 
Q 2322 1972 1947 1972 
L 1259 1972 
L 1259 0 
L 628 0 
L 628 4666 
L 2053 4666 
Q 2853 4666 3247 4331 
Q 3641 3997 3641 3322 
Q 3641 2881 3436 2590 
Q 3231 2300 2841 2188 
z
M 1259 4147 
L 1259 2491 
L 2053 2491 
Q 2509 2491 2742 2702 
Q 2975 2913 2975 3322 
Q 2975 3731 2742 3939 
Q 2509 4147 2053 4147 
L 1259 4147 
z
" transform="scale(0.015625)"/>
       <path id="DejaVuSans-55" d="M 556 4666 
L 1191 4666 
L 1191 1831 
Q 1191 1081 1462 751 
Q 1734 422 2344 422 
Q 2950 422 3222 751 
Q 3494 1081 3494 1831 
L 3494 4666 
L 4128 4666 
L 4128 1753 
Q 4128 841 3676 375 
Q 3225 -91 2344 -91 
Q 1459 -91 1007 375 
Q 556 841 556 1753 
L 556 4666 
z
" transform="scale(0.015625)"/>
      </defs>
      <use xlink:href="#DejaVuSans-62"/>
      <use xlink:href="#DejaVuSans-6c" x="63.476562"/>
      <use xlink:href="#DejaVuSans-61" x="91.259766"/>
      <use xlink:href="#DejaVuSans-6e" x="152.539062"/>
      <use xlink:href="#DejaVuSans-6b" x="215.917969"/>
      <use xlink:href="#DejaVuSans-20" x="273.828125"/>
      <use xlink:href="#DejaVuSans-63" x="305.615234"/>
      <use xlink:href="#DejaVuSans-6f" x="360.595703"/>
      <use xlink:href="#DejaVuSans-72" x="421.777344"/>
      <use xlink:href="#DejaVuSans-72" x="461.140625"/>
      <use xlink:href="#DejaVuSans-65" x="500.003906"/>
      <use xlink:href="#DejaVuSans-63" x="561.527344"/>
      <use xlink:href="#DejaVuSans-74" x="616.507812"/>
      <use xlink:href="#DejaVuSans-65" x="655.716797"/>
      <use xlink:href="#DejaVuSans-64" x="717.240234"/>
      <use xlink:href="#DejaVuSans-20" x="780.716797"/>
      <use xlink:href="#DejaVuSans-47" x="812.503906"/>
      <use xlink:href="#DejaVuSans-46" x="889.994141"/>
      <use xlink:href="#DejaVuSans-50" x="947.513672"/>
      <use xlink:href="#DejaVuSans-20" x="1007.816406"/>
      <use xlink:href="#DejaVuSans-52" x="1039.603516"/>
      <use xlink:href="#DejaVuSans-46" x="1109.085938"/>
      <use xlink:href="#DejaVuSans-55" x="1166.605469"/>
     </g>
    </g>
   </g>
   <g id="line2d_43">
    <path d="M 92.290909 324.225504 
L 93.19878 328.769295 
L 94.10665 328.29731 
L 95.014521 328.13249 
L 96.830262 328.724344 
L 97.738133 329.128903 
L 98.646004 329.379879 
L 99.553874 329.125157 
L 100.461745 329.162616 
L 101.369616 329.4061 
L 102.277486 329.297469 
L 103.185357 328.832976 
L 104.093228 329.567175 
L 105.001098 328.795517 
L 105.908969 328.739328 
L 106.81684 328.518319 
L 107.72471 328.960337 
L 108.632581 328.949099 
L 109.540451 328.420926 
L 110.448322 328.758058 
L 112.264063 328.143728 
L 113.171934 328.33477 
L 114.079805 328.29731 
L 114.987675 327.45448 
L 115.895546 328.271089 
L 116.803417 328.39845 
L 117.711287 327.360832 
L 118.619158 327.450734 
L 119.527029 326.806437 
L 120.434899 327.244709 
L 121.34277 326.338198 
L 122.250641 326.619142 
L 124.066382 325.85123 
L 124.974253 326.158395 
L 125.882123 325.854976 
L 126.789994 325.397974 
L 127.697865 324.764915 
L 128.605735 324.315406 
L 129.513606 324.536415 
L 130.421477 324.472734 
L 131.329347 324.079413 
L 132.237218 323.558732 
L 134.052959 323.090493 
L 134.96083 323.229091 
L 135.8687 322.779582 
L 136.776571 323.008082 
L 137.684442 322.644729 
L 138.592312 323.131698 
L 140.408054 322.15776 
L 141.315924 322.408736 
L 142.223795 321.296201 
L 143.131666 320.423403 
L 144.039536 321.116397 
L 144.947407 319.831549 
L 145.855278 320.127476 
L 146.763148 320.14246 
L 147.671019 319.314613 
L 149.48676 319.397023 
L 150.394631 318.610382 
L 151.302502 318.838882 
L 152.210372 318.059732 
L 153.118243 318.284487 
L 154.026113 317.831232 
L 154.933984 318.325692 
L 155.841855 318.355659 
L 156.749725 317.617715 
L 157.657596 317.535305 
L 158.565467 316.512671 
L 159.473337 315.726029 
L 160.381208 314.081574 
L 162.196949 313.639556 
L 163.10482 312.71057 
L 164.012691 312.972784 
L 164.920561 312.171158 
L 165.828432 312.03256 
L 166.736303 311.710411 
L 168.552044 310.286965 
L 169.459915 309.092019 
L 170.367785 309.740061 
L 171.275656 310.159604 
L 172.183527 309.661397 
L 173.091397 310.331916 
L 173.999268 308.62378 
L 174.907138 307.473785 
L 175.815009 306.518577 
L 176.72288 305.222491 
L 177.63075 303.551814 
L 178.538621 302.855075 
L 180.354362 300.967135 
L 181.262233 300.240428 
L 182.170104 299.760951 
L 183.077974 297.775618 
L 183.985845 298.206398 
L 184.893716 297.183764 
L 186.709457 294.213255 
L 187.617328 293.872377 
L 188.525198 292.797301 
L 189.433069 291.452518 
L 190.34094 291.430043 
L 191.24881 289.085102 
L 192.156681 288.201066 
L 193.064552 287.092276 
L 193.972422 286.241954 
L 194.880293 284.784794 
L 195.788164 283.893267 
L 196.696034 282.286271 
L 199.419646 279.210877 
L 200.327517 279.019835 
L 201.235387 277.116912 
L 202.143258 276.817239 
L 203.051129 274.756987 
L 203.958999 273.86546 
L 204.86687 271.524265 
L 205.774741 269.557661 
L 206.682611 266.770703 
L 208.498353 264.309638 
L 209.406223 261.739943 
L 210.314094 260.458841 
L 211.221965 258.042727 
L 212.129835 256.525633 
L 213.037706 255.873844 
L 213.945577 253.236722 
L 214.853447 252.229071 
L 215.761318 249.925335 
L 216.669189 248.921431 
L 217.577059 247.276976 
L 218.48493 245.381544 
L 219.3928 243.988065 
L 220.300671 243.347514 
L 221.208542 241.624394 
L 222.116412 241.171139 
L 223.024283 238.788738 
L 223.932154 232.503098 
L 224.840024 231.926227 
L 226.655766 227.476084 
L 230.287248 219.332471 
L 231.195119 217.695507 
L 232.10299 214.769949 
L 233.01086 213.481356 
L 233.918731 210.349773 
L 234.826602 210.570782 
L 235.734472 207.23692 
L 236.642343 207.810045 
L 237.550214 206.300442 
L 238.458084 207.574052 
L 239.365955 204.408756 
L 240.273826 202.651923 
L 242.997437 191.519072 
L 243.905308 188.758335 
L 244.813179 186.544501 
L 245.721049 181.708528 
L 247.536791 176.93249 
L 248.444661 175.31051 
L 249.352532 172.265084 
L 250.260403 170.343431 
L 251.168273 168.994902 
L 252.984015 164.379939 
L 253.891885 165.979443 
L 254.799756 166.177976 
L 255.707627 162.690532 
L 256.615497 160.840052 
L 259.339109 149.415019 
L 260.24698 145.448098 
L 261.154851 142.267819 
L 262.062721 140.319945 
L 262.970592 136.99732 
L 263.878462 135.648792 
L 264.786333 133.618508 
L 265.694204 130.123571 
L 266.602074 128.527813 
L 267.509945 125.471149 
L 268.417816 125.722125 
L 269.325686 123.129953 
L 270.233557 124.781901 
L 271.141428 123.560733 
L 272.049298 120.661397 
L 272.957169 117.061576 
L 273.86504 114.727872 
L 274.77291 111.394011 
L 275.680781 107.47204 
L 276.588652 105.722699 
L 277.496522 104.445343 
L 278.404393 102.246493 
L 279.312264 100.470931 
L 280.220134 97.972407 
L 281.128005 98.639179 
L 282.035876 97.466709 
L 282.943746 96.983486 
L 283.851617 96.226812 
L 284.759487 94.458741 
L 285.667358 99.324681 
L 286.575229 100.085102 
L 287.483099 100.399758 
L 288.39097 100.482168 
L 289.298841 98.403187 
L 290.206711 95.653687 
L 291.114582 91.432044 
L 292.022453 91.001264 
L 293.838194 85.595913 
L 294.746065 85.172625 
L 295.653935 83.809113 
L 296.561806 82.220846 
L 297.469677 82.288273 
L 298.377547 82.764004 
L 299.285418 81.632738 
L 300.193289 81.954887 
L 301.101159 85.168879 
L 302.00903 86.382555 
L 302.916901 86.255194 
L 303.824771 89.855015 
L 304.732642 90.682862 
L 305.640513 88.731242 
L 306.548383 88.858603 
L 309.271995 78.898222 
L 310.179866 79.355223 
L 311.087736 76.133739 
L 311.995607 76.59074 
L 312.903478 75.710451 
L 313.811348 75.635533 
L 314.719219 76.79302 
L 315.62709 76.631945 
L 316.53496 77.339923 
L 317.442831 77.703276 
L 318.350702 77.482267 
L 319.258572 78.72591 
L 320.166443 76.804257 
L 321.074314 76.418428 
L 321.982184 73.893683 
L 322.890055 74.695309 
L 323.797926 74.264529 
L 324.705796 75.609311 
L 325.613667 75.118597 
L 326.521538 73.137009 
L 327.429408 73.931143 
L 328.337279 74.504267 
L 329.245149 74.579185 
L 330.15302 76.347256 
L 331.968761 82.715307 
L 332.876632 85.086469 
L 333.784503 85.180117 
L 334.692373 85.738258 
L 335.600244 86.903237 
L 336.508115 87.255352 
L 337.415985 83.239734 
L 338.323856 83.471981 
L 339.231727 79.973299 
L 340.139597 79.887143 
L 341.955339 77.643342 
L 342.863209 79.325256 
L 343.77108 79.879651 
L 344.678951 78.815812 
L 345.586821 79.201641 
L 346.494692 80.898539 
L 347.402563 82.190879 
L 348.310433 80.812383 
L 349.218304 81.078343 
L 350.126174 82.786479 
L 351.034045 87.731083 
L 351.941916 93.915584 
L 352.849786 92.038882 
L 353.757657 89.371793 
L 354.665528 88.334175 
L 355.573398 89.263161 
L 356.481269 87.88092 
L 357.38914 87.843461 
L 358.29701 87.139229 
L 359.204881 87.952092 
L 360.112752 87.517566 
L 361.020622 88.764955 
L 361.928493 88.498995 
L 362.836364 89.956155 
L 363.744234 90.536771 
L 364.652105 90.424394 
L 365.559976 91.915267 
L 366.467846 91.409569 
L 367.375717 95.859713 
L 368.283588 99.433313 
L 369.191458 103.812284 
L 370.099329 104.111957 
L 371.0072 103.774825 
L 371.91507 104.156908 
L 372.822941 102.35887 
L 373.730811 99.013771 
L 374.638682 100.632005 
L 375.546553 99.620608 
L 376.454423 99.523215 
L 377.362294 101.501056 
L 378.270165 100.643242 
L 379.178035 101.740795 
L 380.085906 102.298936 
L 381.901647 104.41163 
L 382.809518 104.617655 
L 384.625259 106.662923 
L 385.53313 107.625623 
L 386.441001 111.251666 
L 387.348871 112.131955 
L 388.256742 114.192207 
L 389.164613 118.724761 
L 390.072483 120.429151 
L 390.980354 121.571654 
L 391.888225 122.440706 
L 392.796095 120.226871 
L 393.703966 119.814821 
L 394.611836 117.694635 
L 395.519707 118.024275 
L 396.427578 115.934056 
L 397.335448 116.218745 
L 398.243319 117.439913 
L 399.15119 119.035671 
L 400.966931 118.867105 
L 401.874802 120.249347 
L 402.782672 121.908786 
L 403.690543 122.672952 
L 404.598414 122.901453 
L 405.506284 125.752092 
L 406.414155 126.538734 
L 408.229896 128.745076 
L 409.137767 131.970306 
L 410.953508 135.439021 
L 411.861379 136.117031 
L 412.76925 141.027922 
L 413.67712 146.804119 
L 415.492862 153.265817 
L 417.308603 154.295943 
L 418.216473 152.460446 
L 419.124344 152.853767 
L 420.032215 152.333085 
L 420.940085 152.157027 
L 421.847956 153.764023 
L 422.755827 154.168582 
L 423.663697 156.0303 
L 424.571568 159.169375 
L 425.479439 160.600313 
L 426.387309 161.297053 
L 427.29518 163.391018 
L 428.203051 167.129438 
L 429.110921 168.496696 
L 430.018792 170.815416 
L 430.926663 173.60612 
L 432.742404 178.322224 
L 433.650275 181.79843 
L 435.466016 187.814365 
L 436.373887 191.63145 
L 437.281757 193.099847 
L 438.189628 197.815951 
L 439.097498 199.939883 
L 440.005369 206.615099 
L 440.91324 212.402533 
L 441.82111 215.979879 
L 442.728981 223.793852 
L 443.636852 225.696775 
L 444.544722 229.427704 
L 445.452593 231.757661 
L 448.176205 241.332213 
L 449.991946 248.36329 
L 451.807688 257.428398 
L 452.715558 260.855907 
L 458.162782 287.230875 
L 462.702135 307.102939 
L 463.610006 310.122144 
L 465.425747 318.067224 
L 466.333618 320.835453 
L 467.241489 325.105793 
L 468.149359 327.3908 
L 469.05723 330.447464 
L 470.872971 335.21601 
L 471.780842 337.399877 
L 472.688713 340.272992 
L 473.596583 342.54676 
L 474.504454 343.988937 
L 475.412325 345.060268 
L 476.320195 347.626217 
L 477.228066 349.281911 
L 478.135937 350.536791 
L 479.043807 352.083853 
L 479.951678 353.024077 
L 480.859549 354.728467 
L 481.767419 355.234165 
L 482.67529 356.620153 
L 483.58316 357.174548 
L 484.491031 358.230895 
L 485.398902 359.650596 
L 486.306772 359.747989 
L 487.214643 360.759386 
L 488.122514 361.41492 
L 489.030384 362.430062 
L 489.938255 362.430062 
L 490.846126 363.175499 
L 491.753996 363.681197 
L 493.569738 364.332986 
L 494.477608 365.018488 
L 495.385479 364.782495 
L 496.29335 365.591612 
L 497.20122 365.62158 
L 498.109091 366.101056 
L 498.109091 366.101056 
" clip-path="url(#peb857e4166)" style="fill: none; stroke: #008000; stroke-width: 1.5; stroke-linecap: square"/>
   </g>
   <g id="line2d_44">
    <path d="M 92.290909 318.58416 
L 93.19878 320.539526 
L 94.10665 320.30728 
L 95.014521 320.565748 
L 95.922392 320.644412 
L 96.830262 321.142618 
L 97.738133 320.696855 
L 98.646004 321.58089 
L 99.553874 321.577144 
L 100.461745 321.442291 
L 101.369616 321.876817 
L 102.277486 321.614603 
L 103.185357 321.6633 
L 104.093228 322.330072 
L 105.001098 321.116397 
L 105.908969 321.434799 
L 106.81684 321.58089 
L 107.72471 321.925514 
L 109.540451 320.408419 
L 110.448322 321.689521 
L 111.356193 320.614445 
L 112.264063 320.296042 
L 113.171934 320.741806 
L 114.079805 320.517051 
L 114.987675 320.018845 
L 115.895546 321.101413 
L 116.803417 319.756631 
L 117.711287 319.397023 
L 118.619158 319.910213 
L 119.527029 319.355818 
L 120.434899 319.292138 
L 121.34277 320.04132 
L 122.250641 320.633174 
L 124.974253 324.536415 
L 125.882123 324.113127 
L 126.789994 324.74244 
L 127.697865 322.629745 
L 128.605735 319.404515 
L 129.513606 316.73368 
L 132.237218 316.198014 
L 133.145088 315.681078 
L 134.052959 314.804535 
L 134.96083 315.366422 
L 135.8687 315.295249 
L 136.776571 315.819677 
L 137.684442 317.512829 
L 138.592312 320.45337 
L 140.408054 322.798311 
L 142.223795 322.847008 
L 143.131666 322.457433 
L 144.039536 320.726822 
L 144.947407 316.692474 
L 145.855278 311.901453 
L 146.763148 312.242331 
L 147.671019 311.31709 
L 149.48676 310.650318 
L 150.394631 311.283377 
L 152.210372 309.987292 
L 153.118243 312.766758 
L 154.026113 314.669682 
L 155.841855 317.636444 
L 156.749725 318.674062 
L 157.657596 318.793931 
L 158.565467 319.584319 
L 159.473337 319.168522 
L 160.381208 317.827486 
L 161.289079 315.44134 
L 163.10482 305.593337 
L 164.012691 303.772823 
L 164.920561 303.956373 
L 166.736303 302.944977 
L 167.644173 302.203286 
L 168.552044 301.678858 
L 169.459915 302.544164 
L 170.367785 303.937643 
L 171.275656 306.728348 
L 173.091397 309.676381 
L 173.999268 309.470356 
L 174.907138 310.06221 
L 175.815009 309.766283 
L 176.72288 308.70619 
L 177.63075 308.27541 
L 178.538621 306.548544 
L 179.446492 304.241062 
L 181.262233 296.633115 
L 182.170104 292.662448 
L 183.077974 289.549595 
L 183.985845 287.942598 
L 185.801586 286.646513 
L 186.709457 285.002057 
L 187.617328 283.619816 
L 188.525198 282.795715 
L 189.433069 281.638228 
L 190.34094 280.997677 
L 191.24881 279.091008 
L 192.156681 278.398014 
L 193.972422 275.970663 
L 194.880293 275.614801 
L 195.788164 273.498361 
L 197.603905 275.509916 
L 198.511775 276.206655 
L 199.419646 277.734988 
L 200.327517 278.735146 
L 201.235387 278.641498 
L 202.143258 279.990027 
L 203.051129 278.967393 
L 203.958999 279.147197 
L 204.86687 277.64134 
L 205.774741 276.510074 
L 206.682611 275.191513 
L 207.590482 273.18745 
L 208.498353 268.699847 
L 210.314094 255.326941 
L 211.221965 248.917685 
L 212.129835 245.905972 
L 213.945577 242.695725 
L 215.761318 240.792802 
L 216.669189 240.893941 
L 217.577059 242.24247 
L 219.3928 242.283675 
L 220.300671 245.351577 
L 222.116412 246.183169 
L 223.024283 246.003365 
L 223.932154 242.991652 
L 224.840024 241.171139 
L 225.747895 238.080761 
L 226.655766 231.656522 
L 227.563636 221.883437 
L 228.471507 213.361486 
L 229.379378 209.4545 
L 231.195119 206.435295 
L 232.10299 206.21054 
L 233.01086 204.285141 
L 233.918731 201.138575 
L 234.826602 205.259078 
L 235.734472 204.903217 
L 237.550214 209.544402 
L 238.458084 211.289997 
L 240.273826 211.40612 
L 241.181696 209.971436 
L 242.089567 207.757602 
L 242.997437 206.02699 
L 243.905308 205.270316 
L 244.813179 201.584339 
L 246.62892 190.646275 
L 249.352532 165.189056 
L 250.260403 163.027664 
L 252.076144 167.110709 
L 252.984015 167.844907 
L 253.891885 171.006457 
L 254.799756 173.268988 
L 255.707627 175.014583 
L 256.615497 177.655451 
L 257.523368 174.625008 
L 258.431239 172.999283 
L 259.339109 170.324701 
L 261.154851 166.492633 
L 262.062721 162.649327 
L 263.878462 151.396607 
L 265.694204 132.449783 
L 266.602074 125.531083 
L 267.509945 127.520163 
L 268.417816 130.550605 
L 269.325686 132.153856 
L 270.233557 137.746503 
L 271.141428 141.166521 
L 272.049298 142.548762 
L 272.957169 141.911957 
L 274.77291 142.537525 
L 275.680781 138.117348 
L 276.588652 139.630697 
L 277.496522 136.390483 
L 279.312264 131.562002 
L 280.220134 126.130429 
L 282.035876 109.633432 
L 282.943746 107.648098 
L 283.851617 109.356234 
L 284.759487 112.615178 
L 285.667358 116.934215 
L 286.575229 123.669365 
L 288.39097 129.984973 
L 289.298841 132.187569 
L 290.206711 131.932847 
L 291.114582 133.056621 
L 292.022453 133.663459 
L 292.930323 132.056462 
L 293.838194 132.741964 
L 294.746065 131.015099 
L 295.653935 125.699649 
L 296.561806 123.253569 
L 297.469677 117.252617 
L 298.377547 108.16878 
L 299.285418 105.666511 
L 300.193289 104.973517 
L 302.916901 118.84463 
L 304.732642 126.025544 
L 305.640513 127.947197 
L 306.548383 131.202394 
L 307.456254 131.674379 
L 308.364124 131.45337 
L 309.271995 130.809073 
L 310.179866 131.217378 
L 311.087736 127.703712 
L 311.995607 128.966085 
L 312.903478 123.684348 
L 314.719219 116.372328 
L 315.62709 116.870534 
L 316.53496 117.694635 
L 317.442831 119.642509 
L 318.350702 121.979958 
L 319.258572 124.624572 
L 321.074314 126.209093 
L 321.982184 126.583684 
L 322.890055 125.452419 
L 323.797926 122.598034 
L 324.705796 119.031925 
L 325.613667 112.101988 
L 326.521538 106.378234 
L 327.429408 102.797142 
L 328.337279 103.920916 
L 329.245149 104.175638 
L 331.060891 113.180811 
L 331.968761 117.477372 
L 333.784503 127.175539 
L 335.600244 133.966877 
L 336.508115 137.435592 
L 338.323856 137.469305 
L 339.231727 137.975003 
L 340.139597 137.105952 
L 341.047468 138.169791 
L 342.863209 134.940815 
L 343.77108 132.13138 
L 344.678951 127.306646 
L 345.586821 119.485181 
L 346.494692 116.597083 
L 347.402563 119.530132 
L 348.310433 121.365629 
L 349.218304 125.557305 
L 350.126174 129.209569 
L 351.941916 139.199917 
L 352.849786 141.601046 
L 354.665528 144.934908 
L 355.573398 145.174647 
L 356.481269 146.534413 
L 357.38914 147.403464 
L 358.29701 146.759168 
L 359.204881 146.819102 
L 360.112752 141.986875 
L 361.020622 138.6193 
L 361.928493 134.094238 
L 362.836364 128.048336 
L 363.744234 127.20176 
L 364.652105 123.886628 
L 365.559976 124.658286 
L 366.467846 126.538734 
L 367.375717 133.644729 
L 368.283588 139.158712 
L 369.191458 143.60511 
L 371.91507 153.539269 
L 372.822941 154.295943 
L 373.730811 153.99627 
L 374.638682 156.408637 
L 375.546553 155.910431 
L 376.454423 156.558474 
L 377.362294 158.723611 
L 378.270165 156.142678 
L 379.178035 154.565649 
L 380.085906 152.554094 
L 380.993777 147.808023 
L 381.901647 141.773358 
L 382.809518 142.290294 
L 383.717389 140.735741 
L 384.625259 139.836722 
L 385.53313 140.709519 
L 386.441001 145.923829 
L 387.348871 149.823324 
L 388.256742 153.232104 
L 389.164613 159.469048 
L 390.980354 168.005982 
L 391.888225 170.822908 
L 392.796095 170.927793 
L 393.703966 172.399937 
L 395.519707 174.093089 
L 396.427578 175.419142 
L 397.335448 174.602533 
L 398.243319 174.280385 
L 399.15119 175.561486 
L 400.05906 175.449109 
L 400.966931 174.190483 
L 401.874802 174.096835 
L 402.782672 173.632342 
L 404.598414 166.698658 
L 405.506284 162.256006 
L 406.414155 162.259752 
L 407.322026 160.798846 
L 408.229896 159.566441 
L 409.137767 160.821322 
L 410.045638 161.150962 
L 410.953508 162.675549 
L 411.861379 167.271783 
L 412.76925 172.57974 
L 413.67712 180.989313 
L 415.492862 190.088134 
L 416.400732 192.863855 
L 417.308603 197.553737 
L 419.124344 201.554371 
L 421.847956 204.779602 
L 422.755827 206.926009 
L 423.663697 207.506626 
L 424.571568 207.510372 
L 425.479439 207.686429 
L 426.387309 207.004673 
L 427.29518 203.944263 
L 428.203051 202.048832 
L 429.110921 198.853569 
L 430.018792 199.093307 
L 430.926663 200.790205 
L 431.834533 203.31495 
L 432.742404 204.648495 
L 433.650275 206.982198 
L 434.558145 208.825187 
L 436.373887 214.65008 
L 437.281757 216.253331 
L 438.189628 221.306566 
L 439.097498 224.213394 
L 442.728981 252.229071 
L 443.636852 257.364717 
L 444.544722 261.713721 
L 445.452593 266.710768 
L 447.268334 272.741687 
L 451.807688 291.456264 
L 452.715558 293.022055 
L 453.623429 294.351854 
L 454.5313 294.640289 
L 455.43917 295.857711 
L 456.347041 297.801839 
L 457.254912 301.248078 
L 458.162782 305.754411 
L 459.978523 310.624097 
L 461.794265 317.123254 
L 462.702135 320.569494 
L 463.610006 322.487401 
L 464.517877 325.611491 
L 465.425747 329.364895 
L 466.333618 331.852181 
L 467.241489 334.781484 
L 468.149359 337.208836 
L 469.05723 341.175757 
L 469.965101 341.906209 
L 470.872971 344.161249 
L 471.780842 345.730786 
L 472.688713 348.352924 
L 473.596583 349.150804 
L 476.320195 353.863161 
L 477.228066 355.035632 
L 479.043807 358.365748 
L 479.951678 358.25337 
L 480.859549 359.253529 
L 481.767419 360.463459 
L 482.67529 361.381207 
L 483.58316 361.778274 
L 484.491031 363.370286 
L 486.306772 363.654976 
L 487.214643 365.093406 
L 488.122514 365.76767 
L 489.030384 366.719132 
L 489.938255 367.119945 
L 491.753996 366.760337 
L 493.569738 367.835414 
L 494.477608 368.756908 
L 495.385479 368.644531 
L 496.29335 369.034106 
L 497.20122 368.891761 
L 498.109091 369.36 
L 498.109091 369.36 
" clip-path="url(#peb857e4166)" style="fill: none; stroke: #008000; stroke-width: 1.5; stroke-linecap: square"/>
   </g>
   <g id="line2d_45">
    <path d="M 92.290909 319.77536 
L 93.19878 320.797994 
L 94.10665 320.12373 
L 95.014521 321.004019 
L 95.922392 321.221282 
L 96.830262 321.719489 
L 97.738133 321.528447 
L 98.646004 322.285121 
L 99.553874 321.925514 
L 100.461745 321.820628 
L 101.369616 321.550923 
L 102.277486 322.180236 
L 103.185357 322.44245 
L 104.093228 321.869325 
L 105.001098 321.603365 
L 105.908969 321.771931 
L 106.81684 321.719489 
L 107.72471 321.490988 
L 108.632581 321.813136 
L 109.540451 321.176331 
L 110.448322 321.247504 
L 111.356193 320.584477 
L 112.264063 320.502067 
L 113.171934 320.644412 
L 114.079805 321.056462 
L 114.987675 320.20614 
L 115.895546 320.891642 
L 116.803417 320.131222 
L 117.711287 319.883992 
L 118.619158 320.57324 
L 119.527029 319.719172 
L 120.434899 320.835453 
L 121.34277 319.404515 
L 122.250641 318.846374 
L 123.158511 319.498163 
L 124.066382 321.356135 
L 124.974253 321.962973 
L 125.882123 320.569494 
L 126.789994 319.947672 
L 127.697865 317.082049 
L 128.605735 316.598827 
L 129.513606 316.759901 
L 130.421477 316.576351 
L 131.329347 316.756155 
L 132.237218 315.613652 
L 133.145088 316.059415 
L 134.052959 315.381405 
L 134.96083 315.681078 
L 135.8687 314.489878 
L 136.776571 315.018052 
L 137.684442 316.415277 
L 138.592312 318.801423 
L 139.500183 320.344739 
L 140.408054 321.142618 
L 141.315924 320.775519 
L 142.223795 319.69295 
L 143.131666 315.508766 
L 144.039536 312.556987 
L 144.947407 312.189888 
L 145.855278 311.702919 
L 146.763148 311.83028 
L 147.671019 310.882565 
L 148.57889 310.691523 
L 149.48676 311.174746 
L 150.394631 311.021163 
L 151.302502 309.826217 
L 152.210372 309.63143 
L 153.118243 311.84901 
L 154.026113 312.568225 
L 154.933984 315.25779 
L 155.841855 314.774567 
L 156.749725 316.126842 
L 157.657596 316.46772 
L 158.565467 315.377659 
L 159.473337 315.201601 
L 160.381208 309.661397 
L 161.289079 305.334869 
L 162.196949 304.74676 
L 164.012691 304.233571 
L 164.920561 303.667938 
L 165.828432 302.971198 
L 166.736303 302.903772 
L 167.644173 301.821203 
L 168.552044 301.214365 
L 169.459915 300.9072 
L 170.367785 303.229666 
L 172.183527 306.874439 
L 173.091397 307.638605 
L 173.999268 306.451151 
L 174.907138 307.043005 
L 176.72288 305.061417 
L 177.63075 301.716318 
L 178.538621 296.427089 
L 179.446492 293.370425 
L 180.354362 292.291602 
L 181.262233 290.658385 
L 182.170104 290.208875 
L 183.077974 288.942757 
L 183.985845 287.995041 
L 184.893716 287.287064 
L 185.801586 286.916218 
L 186.709457 285.608895 
L 187.617328 284.020628 
L 188.525198 283.484963 
L 189.433069 281.780573 
L 190.34094 280.829111 
L 191.24881 279.371951 
L 192.156681 278.21821 
L 193.064552 277.409093 
L 194.880293 275.184021 
L 195.788164 273.183704 
L 196.696034 272.606834 
L 197.603905 272.854064 
L 198.511775 273.254877 
L 199.419646 272.539407 
L 200.327517 274.64461 
L 201.235387 276.206655 
L 203.051129 275.498678 
L 203.958999 274.374904 
L 204.86687 273.015138 
L 205.774741 270.115802 
L 206.682611 266.512235 
L 208.498353 251.517348 
L 209.406223 249.723056 
L 210.314094 248.348306 
L 211.221965 247.35564 
L 212.129835 245.310372 
L 213.037706 243.76331 
L 213.945577 241.762993 
L 214.853447 241.553222 
L 215.761318 238.863657 
L 216.669189 240.122283 
L 217.577059 237.518874 
L 218.48493 234.271168 
L 219.3928 235.496082 
L 220.300671 238.133204 
L 221.208542 238.009589 
L 222.116412 239.373101 
L 223.024283 237.983367 
L 223.932154 235.248851 
L 224.840024 229.836008 
L 225.747895 220.463736 
L 226.655766 214.627605 
L 227.563636 212.383803 
L 228.471507 211.814425 
L 229.379378 208.956294 
L 230.287248 208.439358 
L 231.195119 206.124384 
L 232.10299 201.921471 
L 233.01086 200.542975 
L 233.918731 198.789888 
L 234.826602 202.382218 
L 235.734472 199.962359 
L 236.642343 202.977818 
L 237.550214 203.933025 
L 238.458084 207.120797 
L 239.365955 207.064608 
L 240.273826 207.23692 
L 241.181696 203.052736 
L 242.089567 201.516912 
L 242.997437 199.250635 
L 243.905308 192.867601 
L 244.813179 183.678878 
L 245.721049 171.328606 
L 246.62892 165.41381 
L 247.536791 164.885637 
L 248.444661 162.402097 
L 249.352532 158.510094 
L 250.260403 156.742024 
L 251.168273 160.132074 
L 252.076144 159.173121 
L 252.984015 160.409272 
L 253.891885 165.559901 
L 254.799756 169.84897 
L 255.707627 168.009727 
L 256.615497 170.676817 
L 257.523368 166.762339 
L 258.431239 163.582059 
L 259.339109 162.61936 
L 260.24698 157.32264 
L 261.154851 144.275628 
L 262.062721 129.052241 
L 262.970592 124.617081 
L 263.878462 122.7666 
L 264.786333 119.17427 
L 265.694204 116.77314 
L 267.509945 115.372169 
L 268.417816 120.03583 
L 269.325686 123.204872 
L 270.233557 127.216744 
L 271.141428 129.344422 
L 272.049298 131.082525 
L 272.957169 130.988877 
L 273.86504 132.318676 
L 274.77291 130.059891 
L 275.680781 124.549654 
L 276.588652 121.72149 
L 277.496522 109.884408 
L 278.404393 103.190463 
L 279.312264 93.930568 
L 280.220134 91.091166 
L 281.128005 89.697687 
L 282.035876 87.918379 
L 282.943746 88.454044 
L 283.851617 91.634324 
L 284.759487 96.264271 
L 285.667358 104.194367 
L 287.483099 114.611749 
L 288.39097 116.391057 
L 289.298841 119.732411 
L 290.206711 118.185349 
L 292.022453 117.597241 
L 292.930323 115.716793 
L 293.838194 110.169097 
L 294.746065 101.16767 
L 295.653935 85.91057 
L 296.561806 78.040408 
L 297.469677 77.070217 
L 298.377547 77.650833 
L 299.285418 76.291067 
L 300.193289 78.958157 
L 301.101159 84.116278 
L 302.916901 96.399124 
L 303.824771 104.437852 
L 304.732642 107.797935 
L 305.640513 108.614544 
L 306.548383 110.802156 
L 307.456254 110.30395 
L 308.364124 110.015515 
L 310.179866 101.047801 
L 312.903478 72.650041 
L 313.811348 72.0919 
L 314.719219 73.361764 
L 315.62709 77.55344 
L 316.53496 80.051963 
L 317.442831 83.26221 
L 318.350702 85.31497 
L 319.258572 87.682386 
L 320.166443 87.940854 
L 321.074314 88.851111 
L 321.982184 83.790384 
L 322.890055 73.96111 
L 323.797926 73.785052 
L 324.705796 73.151993 
L 325.613667 73.811273 
L 326.521538 73.627724 
L 327.429408 75.0699 
L 328.337279 75.691721 
L 329.245149 75.392048 
L 330.15302 83.486965 
L 331.968761 97.564103 
L 332.876632 105.250714 
L 333.784503 110.824632 
L 334.692373 113.727714 
L 335.600244 118.342678 
L 336.508115 120.882406 
L 338.323856 121.433055 
L 339.231727 118.930786 
L 340.139597 114.963865 
L 341.047468 108.738159 
L 341.955339 99.290968 
L 342.863209 88.244273 
L 343.77108 81.602771 
L 344.678951 81.643976 
L 345.586821 82.160912 
L 346.494692 82.258305 
L 347.402563 91.04247 
L 348.310433 93.85565 
L 350.126174 103.947137 
L 351.941916 120.166937 
L 352.849786 120.399183 
L 353.757657 124.073923 
L 354.665528 124.504703 
L 355.573398 123.916595 
L 356.481269 124.57213 
L 357.38914 123.822947 
L 359.204881 112.023324 
L 360.112752 98.897647 
L 361.020622 91.233511 
L 361.928493 92.750605 
L 362.836364 94.496201 
L 363.744234 93.713305 
L 364.652105 94.840824 
L 365.559976 96.256779 
L 366.467846 98.320777 
L 367.375717 109.168939 
L 368.283588 117.162715 
L 369.191458 126.632381 
L 370.099329 130.749139 
L 371.0072 133.648475 
L 371.91507 137.09846 
L 372.822941 137.885102 
L 373.730811 136.622729 
L 374.638682 137.341944 
L 375.546553 137.667839 
L 376.454423 135.0457 
L 378.270165 121.283219 
L 379.178035 111.652478 
L 380.085906 107.112433 
L 380.993777 105.823839 
L 381.901647 108.543371 
L 382.809518 110.345155 
L 383.717389 110.491246 
L 384.625259 111.180494 
L 385.53313 112.720063 
L 386.441001 120.050814 
L 387.348871 125.298837 
L 389.164613 140.548445 
L 390.980354 150.932114 
L 391.888225 154.074934 
L 392.796095 153.985032 
L 393.703966 155.408479 
L 394.611836 155.970366 
L 395.519707 156.206358 
L 397.335448 149.969414 
L 398.243319 143.76993 
L 399.15119 139.41718 
L 400.05906 133.330072 
L 400.966931 130.531876 
L 401.874802 126.42261 
L 402.782672 127.943451 
L 404.598414 130.01494 
L 405.506284 130.745393 
L 406.414155 132.419816 
L 407.322026 133.554827 
L 408.229896 135.124364 
L 409.137767 139.091285 
L 410.045638 140.196329 
L 410.953508 140.398609 
L 411.861379 143.020747 
L 412.76925 153.711581 
L 413.67712 162.319687 
L 414.584991 169.691642 
L 415.492862 175.793733 
L 416.400732 179.172546 
L 417.308603 183.068295 
L 418.216473 184.398093 
L 419.124344 185.076103 
L 420.032215 186.218607 
L 420.940085 185.525613 
L 421.847956 184.237019 
L 422.755827 182.716179 
L 423.663697 178.464568 
L 424.571568 171.759386 
L 425.479439 168.0809 
L 426.387309 166.230419 
L 427.29518 168.743926 
L 428.203051 172.321272 
L 429.110921 173.422571 
L 430.018792 175.434125 
L 431.834533 180.427426 
L 432.742404 183.150705 
L 433.650275 187.349872 
L 434.558145 189.200353 
L 435.466016 192.395616 
L 436.373887 196.594783 
L 437.281757 198.493961 
L 438.189628 203.090195 
L 439.097498 206.892296 
L 440.91324 224.168443 
L 441.82111 231.094635 
L 442.728981 240.459415 
L 443.636852 244.366402 
L 444.544722 249.116218 
L 446.360464 256.229706 
L 447.268334 258.630835 
L 448.176205 262.402969 
L 449.084076 263.923809 
L 449.991946 262.79629 
L 450.899817 265.182436 
L 451.807688 265.879176 
L 452.715558 266.156373 
L 453.623429 269.756195 
L 454.5313 274.052756 
L 455.43917 278.918696 
L 456.347041 282.926822 
L 457.254912 287.51931 
L 458.162782 291.519945 
L 459.070653 294.895011 
L 460.886394 303.697905 
L 461.794265 306.904406 
L 462.702135 310.961229 
L 463.610006 313.856819 
L 464.517877 317.64019 
L 465.425747 320.850437 
L 466.333618 324.836088 
L 468.149359 329.953004 
L 469.05723 335.223502 
L 469.965101 335.305912 
L 470.872971 337.471049 
L 471.780842 340.272992 
L 472.688713 341.95116 
L 473.596583 344.640725 
L 474.504454 345.843163 
L 477.228066 351.053727 
L 478.135937 352.143788 
L 479.043807 354.050457 
L 480.859549 356.005823 
L 481.767419 357.185785 
L 482.67529 359.081217 
L 483.58316 359.246037 
L 484.491031 360.276163 
L 485.398902 360.804337 
L 486.306772 361.613454 
L 487.214643 362.018012 
L 489.938255 364.104485 
L 490.846126 364.932332 
L 492.661867 365.629071 
L 493.569738 366.235909 
L 494.477608 367.056264 
L 495.385479 367.232322 
L 496.29335 366.9776 
L 497.20122 367.251051 
L 498.109091 368.408538 
L 498.109091 368.408538 
" clip-path="url(#peb857e4166)" style="fill: none; stroke: #008000; stroke-width: 1.5; stroke-linecap: square"/>
   </g>
   <g id="line2d_46">
    <path d="M 92.290909 324.026971 
L 93.19878 325.446671 
L 94.10665 325.371753 
L 95.014521 326.150903 
L 95.922392 326.480543 
L 96.830262 326.375658 
L 97.738133 326.503019 
L 98.646004 326.753995 
L 99.553874 327.14357 
L 100.461745 326.705298 
L 102.277486 326.761486 
L 104.093228 326.330707 
L 105.001098 327.14357 
L 105.908969 326.435592 
L 106.81684 326.323215 
L 107.72471 326.641617 
L 108.632581 326.169632 
L 109.540451 325.435434 
L 110.448322 325.675172 
L 111.356193 325.783803 
L 112.264063 326.072239 
L 113.171934 325.881197 
L 114.079805 325.570286 
L 114.987675 325.083318 
L 116.803417 325.439179 
L 117.711287 324.221758 
L 118.619158 325.214425 
L 119.527029 324.693743 
L 120.434899 324.356611 
L 121.34277 323.644888 
L 122.250641 323.656125 
L 123.158511 325.075826 
L 124.066382 325.727615 
L 124.974253 325.630221 
L 125.882123 323.584953 
L 126.789994 322.667204 
L 127.697865 322.17649 
L 128.605735 322.307597 
L 129.513606 321.356135 
L 130.421477 321.685775 
L 131.329347 321.633333 
L 132.237218 321.356135 
L 133.145088 320.621936 
L 134.052959 320.670633 
L 134.96083 320.408419 
L 135.8687 319.947672 
L 136.776571 320.108746 
L 138.592312 322.566065 
L 139.500183 324.251725 
L 140.408054 324.903514 
L 141.315924 323.959544 
L 142.223795 321.794407 
L 143.131666 317.362993 
L 144.039536 317.778789 
L 144.947407 316.610064 
L 145.855278 317.164459 
L 146.763148 316.38531 
L 147.671019 316.381564 
L 148.57889 316.03694 
L 149.48676 316.36658 
L 150.394631 316.325375 
L 151.302502 315.767234 
L 152.210372 314.849486 
L 153.118243 316.130588 
L 154.026113 318.52048 
L 154.933984 319.681712 
L 155.841855 319.26217 
L 156.749725 319.670475 
L 157.657596 319.235949 
L 158.565467 318.157126 
L 159.473337 314.973101 
L 160.381208 311.096082 
L 161.289079 310.148366 
L 162.196949 310.534195 
L 163.10482 309.556512 
L 164.012691 309.249347 
L 164.920561 308.507656 
L 165.828432 308.406517 
L 167.644173 306.803266 
L 168.552044 306.679651 
L 170.367785 307.84463 
L 171.275656 309.657651 
L 172.183527 309.792504 
L 173.091397 310.376867 
L 173.999268 310.095923 
L 174.907138 308.563845 
L 175.815009 308.590066 
L 177.63075 300.158018 
L 178.538621 298.285062 
L 181.262233 295.880186 
L 182.170104 294.880028 
L 183.077974 293.385409 
L 183.985845 293.475311 
L 184.893716 291.905773 
L 185.801586 291.246493 
L 186.709457 290.84568 
L 187.617328 288.83038 
L 188.525198 288.103673 
L 189.433069 287.159703 
L 190.34094 286.054659 
L 191.24881 284.537564 
L 192.156681 283.88203 
L 194.880293 279.364459 
L 195.788164 278.409252 
L 196.696034 278.278145 
L 197.603905 277.367888 
L 198.511775 278.58531 
L 199.419646 276.813493 
L 200.327517 278.922442 
L 201.235387 280.061199 
L 202.143258 279.533025 
L 203.051129 278.469186 
L 203.958999 276.952092 
L 204.86687 274.292494 
L 205.774741 269.752449 
L 206.682611 261.721213 
L 207.590482 258.720737 
L 208.498353 256.829052 
L 209.406223 255.945016 
L 210.314094 253.74242 
L 213.037706 248.943906 
L 213.945577 247.988699 
L 214.853447 246.303038 
L 215.761318 244.040507 
L 217.577059 240.556809 
L 218.48493 238.646394 
L 219.3928 239.193297 
L 220.300671 239.339388 
L 221.208542 239.743946 
L 222.116412 239.148346 
L 223.024283 236.687282 
L 223.932154 229.648713 
L 224.840024 223.966164 
L 225.747895 222.752488 
L 226.655766 220.21276 
L 227.563636 218.306091 
L 228.471507 217.043718 
L 229.379378 214.459039 
L 230.287248 212.867026 
L 231.195119 210.967849 
L 232.10299 207.671446 
L 233.01086 206.315426 
L 233.918731 203.989214 
L 234.826602 204.030419 
L 235.734472 199.685161 
L 236.642343 203.678303 
L 237.550214 203.520975 
L 238.458084 206.933501 
L 239.365955 205.255332 
L 240.273826 204.236444 
L 241.181696 201.52815 
L 242.089567 198.228001 
L 242.997437 192.219558 
L 243.905308 180.041597 
L 244.813179 175.786241 
L 247.536791 169.174706 
L 248.444661 167.391652 
L 249.352532 163.372288 
L 250.260403 162.057473 
L 251.168273 161.18093 
L 252.076144 163.391018 
L 252.984015 161.956333 
L 253.891885 167.354193 
L 254.799756 168.912492 
L 255.707627 168.054678 
L 257.523368 163.750625 
L 258.431239 158.071822 
L 259.339109 150.418924 
L 261.154851 132.873071 
L 262.062721 133.067858 
L 262.970592 129.756472 
L 263.878462 126.943292 
L 264.786333 125.186459 
L 265.694204 121.935007 
L 266.602074 119.927198 
L 267.509945 119.58632 
L 268.417816 121.893802 
L 269.325686 121.886311 
L 270.233557 124.774409 
L 271.141428 126.280266 
L 272.049298 128.254361 
L 272.957169 126.089224 
L 273.86504 122.834026 
L 274.77291 117.28633 
L 275.680781 104.007072 
L 276.588652 98.433154 
L 277.496522 97.005962 
L 278.404393 96.065738 
L 280.220134 91.394585 
L 281.128005 91.192306 
L 282.035876 90.589214 
L 282.943746 89.1358 
L 283.851617 91.919013 
L 284.759487 94.181544 
L 285.667358 98.440646 
L 287.483099 108.292395 
L 288.39097 111.304109 
L 289.298841 110.832124 
L 290.206711 108.902979 
L 291.114582 107.337188 
L 292.022453 104.587688 
L 292.930323 91.226019 
L 293.838194 80.134373 
L 294.746065 77.572169 
L 295.653935 77.796924 
L 296.561806 77.456046 
L 297.469677 76.594486 
L 298.377547 77.538456 
L 299.285418 76.163706 
L 300.193289 76.298559 
L 302.00903 87.937108 
L 303.824771 99.523215 
L 304.732642 101.10399 
L 305.640513 101.347474 
L 306.548383 100.793079 
L 307.456254 99.605625 
L 308.364124 94.754669 
L 309.271995 84.842985 
L 310.179866 71.646136 
L 311.087736 69.582139 
L 311.995607 70.192722 
L 312.903478 68.832956 
L 313.811348 68.788005 
L 314.719219 68.960317 
L 315.62709 68.889145 
L 316.53496 74.695309 
L 317.442831 75.864033 
L 318.350702 73.155739 
L 319.258572 76.144977 
L 320.166443 71.616169 
L 321.074314 73.163231 
L 321.982184 68.237356 
L 322.890055 69.110154 
L 324.705796 66.96 
L 325.613667 68.106249 
L 326.521538 67.379542 
L 327.429408 68.465857 
L 328.337279 67.65674 
L 329.245149 67.724166 
L 330.15302 74.002315 
L 331.968761 83.824097 
L 334.692373 98.953836 
L 336.508115 105.486707 
L 337.415985 104.947296 
L 338.323856 102.534928 
L 339.231727 95.054341 
L 340.139597 83.044947 
L 341.047468 72.575122 
L 341.955339 70.065361 
L 342.863209 71.848415 
L 343.77108 71.953301 
L 344.678951 72.245482 
L 345.586821 71.619915 
L 346.494692 72.653787 
L 347.402563 80.18307 
L 348.310433 83.280939 
L 349.218304 87.008122 
L 350.126174 93.331222 
L 351.034045 100.669464 
L 351.941916 105.640289 
L 352.849786 108.247444 
L 353.757657 109.719588 
L 354.665528 109.431153 
L 355.573398 107.483278 
L 356.481269 104.351696 
L 357.38914 99.058722 
L 358.29701 82.580454 
L 359.204881 78.613533 
L 360.112752 79.07428 
L 361.020622 79.227862 
L 361.928493 79.17542 
L 362.836364 81.760099 
L 363.744234 81.142024 
L 364.652105 82.494298 
L 365.559976 83.292177 
L 366.467846 85.108945 
L 367.375717 94.282684 
L 368.283588 99.448297 
L 369.191458 110.895804 
L 370.099329 113.413057 
L 371.91507 119.904723 
L 373.730811 117.290076 
L 374.638682 114.82152 
L 376.454423 101.703336 
L 377.362294 92.001423 
L 378.270165 92.454678 
L 379.178035 93.072754 
L 380.085906 94.604832 
L 380.993777 93.226336 
L 381.901647 95.530072 
L 382.809518 95.099292 
L 383.717389 96.972249 
L 384.625259 97.208241 
L 385.53313 98.242113 
L 386.441001 105.265698 
L 387.348871 109.300046 
L 388.256742 114.053608 
L 389.164613 122.062368 
L 390.072483 127.580097 
L 391.888225 134.124206 
L 392.796095 134.77974 
L 393.703966 133.521114 
L 394.611836 134.775994 
L 395.519707 129.483021 
L 396.427578 120.357978 
L 397.335448 112.42039 
L 398.243319 105.700224 
L 399.15119 107.288491 
L 400.05906 107.561942 
L 400.966931 107.337188 
L 401.874802 108.509658 
L 402.782672 110.554926 
L 403.690543 110.330171 
L 404.598414 110.712254 
L 405.506284 111.84352 
L 406.414155 114.255887 
L 408.229896 114.514355 
L 409.137767 117.848217 
L 410.045638 118.290235 
L 410.953508 119.395279 
L 411.861379 121.684031 
L 413.67712 139.806755 
L 415.492862 152.070871 
L 416.400732 155.78307 
L 417.308603 158.59625 
L 418.216473 158.940874 
L 419.124344 159.637614 
L 420.032215 157.315148 
L 421.847956 148.190106 
L 422.755827 140.548445 
L 423.663697 131.734314 
L 424.571568 132.356135 
L 425.479439 134.408895 
L 427.29518 136.839992 
L 428.203051 138.282168 
L 429.110921 138.870276 
L 430.018792 141.10284 
L 431.834533 143.773676 
L 432.742404 144.305595 
L 433.650275 146.901512 
L 434.558145 148.160139 
L 435.466016 148.530984 
L 436.373887 151.104426 
L 437.281757 151.69628 
L 438.189628 153.74904 
L 439.097498 156.712056 
L 440.005369 162.61936 
L 440.91324 170.837891 
L 441.82111 175.756274 
L 442.728981 185.158514 
L 443.636852 187.357364 
L 445.452593 192.717764 
L 446.360464 192.496756 
L 447.268334 190.410282 
L 448.176205 188.926901 
L 449.084076 183.465361 
L 449.991946 178.753004 
L 450.899817 179.86554 
L 451.807688 182.57758 
L 452.715558 184.143371 
L 453.623429 186.900363 
L 455.43917 191.088293 
L 456.347041 194.335998 
L 457.254912 196.946899 
L 458.162782 200.471803 
L 459.070653 202.434661 
L 459.978523 206.618845 
L 460.886394 208.813949 
L 461.794265 211.469801 
L 463.610006 218.864231 
L 464.517877 220.680999 
L 465.425747 226.150031 
L 466.333618 229.135523 
L 467.241489 233.274756 
L 468.149359 235.98305 
L 469.05723 242.673249 
L 469.965101 242.624553 
L 470.872971 246.90613 
L 471.780842 249.502047 
L 472.688713 254.281831 
L 474.504454 261.391573 
L 475.412325 264.998886 
L 476.320195 267.456205 
L 477.228066 271.374429 
L 478.135937 273.929141 
L 479.043807 278.105833 
L 481.767419 287.148465 
L 482.67529 291.733462 
L 483.58316 294.430518 
L 484.491031 297.487183 
L 485.398902 299.536197 
L 486.306772 302.847583 
L 487.214643 305.660763 
L 488.122514 307.885835 
L 489.030384 311.062368 
L 489.938255 312.871644 
L 491.753996 317.894912 
L 492.661867 319.809073 
L 494.477608 324.802374 
L 495.385479 326.416863 
L 497.20122 329.986717 
L 498.109091 331.500065 
L 498.109091 331.500065 
" clip-path="url(#peb857e4166)" style="fill: none; stroke: #008000; stroke-width: 1.5; stroke-linecap: square"/>
   </g>
   <g id="patch_3">
    <path d="M 72 384.48 
L 72 51.84 
" style="fill: none; stroke: #000000; stroke-width: 0.8; stroke-linejoin: miter; stroke-linecap: square"/>
   </g>
   <g id="patch_4">
    <path d="M 518.4 384.48 
L 518.4 51.84 
" style="fill: none; stroke: #000000; stroke-width: 0.8; stroke-linejoin: miter; stroke-linecap: square"/>
   </g>
   <g id="patch_5">
    <path d="M 72 384.48 
L 518.4 384.48 
" style="fill: none; stroke: #000000; stroke-width: 0.8; stroke-linejoin: miter; stroke-linecap: square"/>
   </g>
   <g id="patch_6">
    <path d="M 72 51.84 
L 518.4 51.84 
" style="fill: none; stroke: #000000; stroke-width: 0.8; stroke-linejoin: miter; stroke-linecap: square"/>
   </g>
   <g id="text_24">
    <!-- M20: Methionin; Tryptophan -->
    <g transform="translate(225.18125 45.84) scale(0.1 -0.1)">
     <defs>
      <path id="DejaVuSans-4d" d="M 628 4666 
L 1569 4666 
L 2759 1491 
L 3956 4666 
L 4897 4666 
L 4897 0 
L 4281 0 
L 4281 4097 
L 3078 897 
L 2444 897 
L 1241 4097 
L 1241 0 
L 628 0 
L 628 4666 
z
" transform="scale(0.015625)"/>
      <path id="DejaVuSans-3a" d="M 750 794 
L 1409 794 
L 1409 0 
L 750 0 
L 750 794 
z
M 750 3309 
L 1409 3309 
L 1409 2516 
L 750 2516 
L 750 3309 
z
" transform="scale(0.015625)"/>
      <path id="DejaVuSans-3b" d="M 750 3309 
L 1409 3309 
L 1409 2516 
L 750 2516 
L 750 3309 
z
M 750 794 
L 1409 794 
L 1409 256 
L 897 -744 
L 494 -744 
L 750 256 
L 750 794 
z
" transform="scale(0.015625)"/>
      <path id="DejaVuSans-54" d="M -19 4666 
L 3928 4666 
L 3928 4134 
L 2272 4134 
L 2272 0 
L 1638 0 
L 1638 4134 
L -19 4134 
L -19 4666 
z
" transform="scale(0.015625)"/>
      <path id="DejaVuSans-79" d="M 2059 -325 
Q 1816 -950 1584 -1140 
Q 1353 -1331 966 -1331 
L 506 -1331 
L 506 -850 
L 844 -850 
Q 1081 -850 1212 -737 
Q 1344 -625 1503 -206 
L 1606 56 
L 191 3500 
L 800 3500 
L 1894 763 
L 2988 3500 
L 3597 3500 
L 2059 -325 
z
" transform="scale(0.015625)"/>
      <path id="DejaVuSans-70" d="M 1159 525 
L 1159 -1331 
L 581 -1331 
L 581 3500 
L 1159 3500 
L 1159 2969 
Q 1341 3281 1617 3432 
Q 1894 3584 2278 3584 
Q 2916 3584 3314 3078 
Q 3713 2572 3713 1747 
Q 3713 922 3314 415 
Q 2916 -91 2278 -91 
Q 1894 -91 1617 61 
Q 1341 213 1159 525 
z
M 3116 1747 
Q 3116 2381 2855 2742 
Q 2594 3103 2138 3103 
Q 1681 3103 1420 2742 
Q 1159 2381 1159 1747 
Q 1159 1113 1420 752 
Q 1681 391 2138 391 
Q 2594 391 2855 752 
Q 3116 1113 3116 1747 
z
" transform="scale(0.015625)"/>
     </defs>
     <use xlink:href="#DejaVuSans-4d"/>
     <use xlink:href="#DejaVuSans-32" x="86.279297"/>
     <use xlink:href="#DejaVuSans-30" x="149.902344"/>
     <use xlink:href="#DejaVuSans-3a" x="213.525391"/>
     <use xlink:href="#DejaVuSans-20" x="247.216797"/>
     <use xlink:href="#DejaVuSans-4d" x="279.003906"/>
     <use xlink:href="#DejaVuSans-65" x="365.283203"/>
     <use xlink:href="#DejaVuSans-74" x="426.806641"/>
     <use xlink:href="#DejaVuSans-68" x="466.015625"/>
     <use xlink:href="#DejaVuSans-69" x="529.394531"/>
     <use xlink:href="#DejaVuSans-6f" x="557.177734"/>
     <use xlink:href="#DejaVuSans-6e" x="618.359375"/>
     <use xlink:href="#DejaVuSans-69" x="681.738281"/>
     <use xlink:href="#DejaVuSans-6e" x="709.521484"/>
     <use xlink:href="#DejaVuSans-3b" x="772.900391"/>
     <use xlink:href="#DejaVuSans-20" x="806.591797"/>
     <use xlink:href="#DejaVuSans-54" x="838.378906"/>
     <use xlink:href="#DejaVuSans-72" x="884.712891"/>
     <use xlink:href="#DejaVuSans-79" x="925.826172"/>
     <use xlink:href="#DejaVuSans-70" x="985.005859"/>
     <use xlink:href="#DejaVuSans-74" x="1048.482422"/>
     <use xlink:href="#DejaVuSans-6f" x="1087.691406"/>
     <use xlink:href="#DejaVuSans-70" x="1148.873047"/>
     <use xlink:href="#DejaVuSans-68" x="1212.349609"/>
     <use xlink:href="#DejaVuSans-61" x="1275.728516"/>
     <use xlink:href="#DejaVuSans-6e" x="1337.007812"/>
    </g>
   </g>
  </g>
 </g>
 <defs>
  <clipPath id="peb857e4166">
   <rect x="72" y="51.84" width="446.4" height="332.64"/>
  </clipPath>
 </defs>
</svg>
