<?xml version="1.0" encoding="utf-8" standalone="no"?>
<!DOCTYPE svg PUBLIC "-//W3C//DTD SVG 1.1//EN"
  "http://www.w3.org/Graphics/SVG/1.1/DTD/svg11.dtd">
<svg xmlns:xlink="http://www.w3.org/1999/xlink" width="576pt" height="432pt" viewBox="0 0 576 432" xmlns="http://www.w3.org/2000/svg" version="1.1">
 <metadata>
  <rdf:RDF xmlns:dc="http://purl.org/dc/elements/1.1/" xmlns:cc="http://creativecommons.org/ns#" xmlns:rdf="http://www.w3.org/1999/02/22-rdf-syntax-ns#">
   <cc:Work>
    <dc:type rdf:resource="http://purl.org/dc/dcmitype/StillImage"/>
    <dc:date>2024-11-12T14:09:15.710364</dc:date>
    <dc:format>image/svg+xml</dc:format>
    <dc:creator>
     <cc:Agent>
      <dc:title>Matplotlib v3.7.5, https://matplotlib.org/</dc:title>
     </cc:Agent>
    </dc:creator>
   </cc:Work>
  </rdf:RDF>
 </metadata>
 <defs>
  <style type="text/css">*{stroke-linejoin: round; stroke-linecap: butt}</style>
 </defs>
 <g id="figure_1">
  <g id="patch_1">
   <path d="M 0 432 
L 576 432 
L 576 0 
L 0 0 
z
" style="fill: #ffffff"/>
  </g>
  <g id="axes_1">
   <g id="patch_2">
    <path d="M 72 384.48 
L 518.4 384.48 
L 518.4 51.84 
L 72 51.84 
z
" style="fill: #ffffff"/>
   </g>
   <g id="matplotlib.axis_1">
    <g id="xtick_1">
     <g id="line2d_1">
      <path d="M 92.290909 384.48 
L 92.290909 51.84 
" clip-path="url(#p3def67685f)" style="fill: none; stroke: #b0b0b0; stroke-width: 0.8; stroke-linecap: square"/>
     </g>
     <g id="line2d_2">
      <defs>
       <path id="mb484f552eb" d="M 0 0 
L 0 3.5 
" style="stroke: #000000; stroke-width: 0.8"/>
      </defs>
      <g>
       <use xlink:href="#mb484f552eb" x="92.290909" y="384.48" style="stroke: #000000; stroke-width: 0.8"/>
      </g>
     </g>
     <g id="text_1">
      <!-- 0.17 -->
      <g transform="translate(81.158097 399.078438) scale(0.1 -0.1)">
       <defs>
        <path id="DejaVuSans-30" d="M 2034 4250 
Q 1547 4250 1301 3770 
Q 1056 3291 1056 2328 
Q 1056 1369 1301 889 
Q 1547 409 2034 409 
Q 2525 409 2770 889 
Q 3016 1369 3016 2328 
Q 3016 3291 2770 3770 
Q 2525 4250 2034 4250 
z
M 2034 4750 
Q 2819 4750 3233 4129 
Q 3647 3509 3647 2328 
Q 3647 1150 3233 529 
Q 2819 -91 2034 -91 
Q 1250 -91 836 529 
Q 422 1150 422 2328 
Q 422 3509 836 4129 
Q 1250 4750 2034 4750 
z
" transform="scale(0.015625)"/>
        <path id="DejaVuSans-2e" d="M 684 794 
L 1344 794 
L 1344 0 
L 684 0 
L 684 794 
z
" transform="scale(0.015625)"/>
        <path id="DejaVuSans-31" d="M 794 531 
L 1825 531 
L 1825 4091 
L 703 3866 
L 703 4441 
L 1819 4666 
L 2450 4666 
L 2450 531 
L 3481 531 
L 3481 0 
L 794 0 
L 794 531 
z
" transform="scale(0.015625)"/>
        <path id="DejaVuSans-37" d="M 525 4666 
L 3525 4666 
L 3525 4397 
L 1831 0 
L 1172 0 
L 2766 4134 
L 525 4134 
L 525 4666 
z
" transform="scale(0.015625)"/>
       </defs>
       <use xlink:href="#DejaVuSans-30"/>
       <use xlink:href="#DejaVuSans-2e" x="63.623047"/>
       <use xlink:href="#DejaVuSans-31" x="95.410156"/>
       <use xlink:href="#DejaVuSans-37" x="159.033203"/>
      </g>
     </g>
    </g>
    <g id="xtick_2">
     <g id="line2d_3">
      <path d="M 128.605735 384.48 
L 128.605735 51.84 
" clip-path="url(#p3def67685f)" style="fill: none; stroke: #b0b0b0; stroke-width: 0.8; stroke-linecap: square"/>
     </g>
     <g id="line2d_4">
      <g>
       <use xlink:href="#mb484f552eb" x="128.605735" y="384.48" style="stroke: #000000; stroke-width: 0.8"/>
      </g>
     </g>
     <g id="text_2">
      <!-- 6.83 -->
      <g transform="translate(117.472923 399.078438) scale(0.1 -0.1)">
       <defs>
        <path id="DejaVuSans-36" d="M 2113 2584 
Q 1688 2584 1439 2293 
Q 1191 2003 1191 1497 
Q 1191 994 1439 701 
Q 1688 409 2113 409 
Q 2538 409 2786 701 
Q 3034 994 3034 1497 
Q 3034 2003 2786 2293 
Q 2538 2584 2113 2584 
z
M 3366 4563 
L 3366 3988 
Q 3128 4100 2886 4159 
Q 2644 4219 2406 4219 
Q 1781 4219 1451 3797 
Q 1122 3375 1075 2522 
Q 1259 2794 1537 2939 
Q 1816 3084 2150 3084 
Q 2853 3084 3261 2657 
Q 3669 2231 3669 1497 
Q 3669 778 3244 343 
Q 2819 -91 2113 -91 
Q 1303 -91 875 529 
Q 447 1150 447 2328 
Q 447 3434 972 4092 
Q 1497 4750 2381 4750 
Q 2619 4750 2861 4703 
Q 3103 4656 3366 4563 
z
" transform="scale(0.015625)"/>
        <path id="DejaVuSans-38" d="M 2034 2216 
Q 1584 2216 1326 1975 
Q 1069 1734 1069 1313 
Q 1069 891 1326 650 
Q 1584 409 2034 409 
Q 2484 409 2743 651 
Q 3003 894 3003 1313 
Q 3003 1734 2745 1975 
Q 2488 2216 2034 2216 
z
M 1403 2484 
Q 997 2584 770 2862 
Q 544 3141 544 3541 
Q 544 4100 942 4425 
Q 1341 4750 2034 4750 
Q 2731 4750 3128 4425 
Q 3525 4100 3525 3541 
Q 3525 3141 3298 2862 
Q 3072 2584 2669 2484 
Q 3125 2378 3379 2068 
Q 3634 1759 3634 1313 
Q 3634 634 3220 271 
Q 2806 -91 2034 -91 
Q 1263 -91 848 271 
Q 434 634 434 1313 
Q 434 1759 690 2068 
Q 947 2378 1403 2484 
z
M 1172 3481 
Q 1172 3119 1398 2916 
Q 1625 2713 2034 2713 
Q 2441 2713 2670 2916 
Q 2900 3119 2900 3481 
Q 2900 3844 2670 4047 
Q 2441 4250 2034 4250 
Q 1625 4250 1398 4047 
Q 1172 3844 1172 3481 
z
" transform="scale(0.015625)"/>
        <path id="DejaVuSans-33" d="M 2597 2516 
Q 3050 2419 3304 2112 
Q 3559 1806 3559 1356 
Q 3559 666 3084 287 
Q 2609 -91 1734 -91 
Q 1441 -91 1130 -33 
Q 819 25 488 141 
L 488 750 
Q 750 597 1062 519 
Q 1375 441 1716 441 
Q 2309 441 2620 675 
Q 2931 909 2931 1356 
Q 2931 1769 2642 2001 
Q 2353 2234 1838 2234 
L 1294 2234 
L 1294 2753 
L 1863 2753 
Q 2328 2753 2575 2939 
Q 2822 3125 2822 3475 
Q 2822 3834 2567 4026 
Q 2313 4219 1838 4219 
Q 1578 4219 1281 4162 
Q 984 4106 628 3988 
L 628 4550 
Q 988 4650 1302 4700 
Q 1616 4750 1894 4750 
Q 2613 4750 3031 4423 
Q 3450 4097 3450 3541 
Q 3450 3153 3228 2886 
Q 3006 2619 2597 2516 
z
" transform="scale(0.015625)"/>
       </defs>
       <use xlink:href="#DejaVuSans-36"/>
       <use xlink:href="#DejaVuSans-2e" x="63.623047"/>
       <use xlink:href="#DejaVuSans-38" x="95.410156"/>
       <use xlink:href="#DejaVuSans-33" x="159.033203"/>
      </g>
     </g>
    </g>
    <g id="xtick_3">
     <g id="line2d_5">
      <path d="M 164.920561 384.48 
L 164.920561 51.84 
" clip-path="url(#p3def67685f)" style="fill: none; stroke: #b0b0b0; stroke-width: 0.8; stroke-linecap: square"/>
     </g>
     <g id="line2d_6">
      <g>
       <use xlink:href="#mb484f552eb" x="164.920561" y="384.48" style="stroke: #000000; stroke-width: 0.8"/>
      </g>
     </g>
     <g id="text_3">
      <!-- 13.5 -->
      <g transform="translate(153.787749 399.078438) scale(0.1 -0.1)">
       <defs>
        <path id="DejaVuSans-35" d="M 691 4666 
L 3169 4666 
L 3169 4134 
L 1269 4134 
L 1269 2991 
Q 1406 3038 1543 3061 
Q 1681 3084 1819 3084 
Q 2600 3084 3056 2656 
Q 3513 2228 3513 1497 
Q 3513 744 3044 326 
Q 2575 -91 1722 -91 
Q 1428 -91 1123 -41 
Q 819 9 494 109 
L 494 744 
Q 775 591 1075 516 
Q 1375 441 1709 441 
Q 2250 441 2565 725 
Q 2881 1009 2881 1497 
Q 2881 1984 2565 2268 
Q 2250 2553 1709 2553 
Q 1456 2553 1204 2497 
Q 953 2441 691 2322 
L 691 4666 
z
" transform="scale(0.015625)"/>
       </defs>
       <use xlink:href="#DejaVuSans-31"/>
       <use xlink:href="#DejaVuSans-33" x="63.623047"/>
       <use xlink:href="#DejaVuSans-2e" x="127.246094"/>
       <use xlink:href="#DejaVuSans-35" x="159.033203"/>
      </g>
     </g>
    </g>
    <g id="xtick_4">
     <g id="line2d_7">
      <path d="M 201.235387 384.48 
L 201.235387 51.84 
" clip-path="url(#p3def67685f)" style="fill: none; stroke: #b0b0b0; stroke-width: 0.8; stroke-linecap: square"/>
     </g>
     <g id="line2d_8">
      <g>
       <use xlink:href="#mb484f552eb" x="201.235387" y="384.48" style="stroke: #000000; stroke-width: 0.8"/>
      </g>
     </g>
     <g id="text_4">
      <!-- 20.17 -->
      <g transform="translate(186.921325 399.078438) scale(0.1 -0.1)">
       <defs>
        <path id="DejaVuSans-32" d="M 1228 531 
L 3431 531 
L 3431 0 
L 469 0 
L 469 531 
Q 828 903 1448 1529 
Q 2069 2156 2228 2338 
Q 2531 2678 2651 2914 
Q 2772 3150 2772 3378 
Q 2772 3750 2511 3984 
Q 2250 4219 1831 4219 
Q 1534 4219 1204 4116 
Q 875 4013 500 3803 
L 500 4441 
Q 881 4594 1212 4672 
Q 1544 4750 1819 4750 
Q 2544 4750 2975 4387 
Q 3406 4025 3406 3419 
Q 3406 3131 3298 2873 
Q 3191 2616 2906 2266 
Q 2828 2175 2409 1742 
Q 1991 1309 1228 531 
z
" transform="scale(0.015625)"/>
       </defs>
       <use xlink:href="#DejaVuSans-32"/>
       <use xlink:href="#DejaVuSans-30" x="63.623047"/>
       <use xlink:href="#DejaVuSans-2e" x="127.246094"/>
       <use xlink:href="#DejaVuSans-31" x="159.033203"/>
       <use xlink:href="#DejaVuSans-37" x="222.65625"/>
      </g>
     </g>
    </g>
    <g id="xtick_5">
     <g id="line2d_9">
      <path d="M 237.550214 384.48 
L 237.550214 51.84 
" clip-path="url(#p3def67685f)" style="fill: none; stroke: #b0b0b0; stroke-width: 0.8; stroke-linecap: square"/>
     </g>
     <g id="line2d_10">
      <g>
       <use xlink:href="#mb484f552eb" x="237.550214" y="384.48" style="stroke: #000000; stroke-width: 0.8"/>
      </g>
     </g>
     <g id="text_5">
      <!-- 26.83 -->
      <g transform="translate(223.236151 399.078438) scale(0.1 -0.1)">
       <use xlink:href="#DejaVuSans-32"/>
       <use xlink:href="#DejaVuSans-36" x="63.623047"/>
       <use xlink:href="#DejaVuSans-2e" x="127.246094"/>
       <use xlink:href="#DejaVuSans-38" x="159.033203"/>
       <use xlink:href="#DejaVuSans-33" x="222.65625"/>
      </g>
     </g>
    </g>
    <g id="xtick_6">
     <g id="line2d_11">
      <path d="M 273.86504 384.48 
L 273.86504 51.84 
" clip-path="url(#p3def67685f)" style="fill: none; stroke: #b0b0b0; stroke-width: 0.8; stroke-linecap: square"/>
     </g>
     <g id="line2d_12">
      <g>
       <use xlink:href="#mb484f552eb" x="273.86504" y="384.48" style="stroke: #000000; stroke-width: 0.8"/>
      </g>
     </g>
     <g id="text_6">
      <!-- 33.5 -->
      <g transform="translate(262.732227 399.078438) scale(0.1 -0.1)">
       <use xlink:href="#DejaVuSans-33"/>
       <use xlink:href="#DejaVuSans-33" x="63.623047"/>
       <use xlink:href="#DejaVuSans-2e" x="127.246094"/>
       <use xlink:href="#DejaVuSans-35" x="159.033203"/>
      </g>
     </g>
    </g>
    <g id="xtick_7">
     <g id="line2d_13">
      <path d="M 310.179866 384.48 
L 310.179866 51.84 
" clip-path="url(#p3def67685f)" style="fill: none; stroke: #b0b0b0; stroke-width: 0.8; stroke-linecap: square"/>
     </g>
     <g id="line2d_14">
      <g>
       <use xlink:href="#mb484f552eb" x="310.179866" y="384.48" style="stroke: #000000; stroke-width: 0.8"/>
      </g>
     </g>
     <g id="text_7">
      <!-- 40.17 -->
      <g transform="translate(295.865803 399.078438) scale(0.1 -0.1)">
       <defs>
        <path id="DejaVuSans-34" d="M 2419 4116 
L 825 1625 
L 2419 1625 
L 2419 4116 
z
M 2253 4666 
L 3047 4666 
L 3047 1625 
L 3713 1625 
L 3713 1100 
L 3047 1100 
L 3047 0 
L 2419 0 
L 2419 1100 
L 313 1100 
L 313 1709 
L 2253 4666 
z
" transform="scale(0.015625)"/>
       </defs>
       <use xlink:href="#DejaVuSans-34"/>
       <use xlink:href="#DejaVuSans-30" x="63.623047"/>
       <use xlink:href="#DejaVuSans-2e" x="127.246094"/>
       <use xlink:href="#DejaVuSans-31" x="159.033203"/>
       <use xlink:href="#DejaVuSans-37" x="222.65625"/>
      </g>
     </g>
    </g>
    <g id="xtick_8">
     <g id="line2d_15">
      <path d="M 346.494692 384.48 
L 346.494692 51.84 
" clip-path="url(#p3def67685f)" style="fill: none; stroke: #b0b0b0; stroke-width: 0.8; stroke-linecap: square"/>
     </g>
     <g id="line2d_16">
      <g>
       <use xlink:href="#mb484f552eb" x="346.494692" y="384.48" style="stroke: #000000; stroke-width: 0.8"/>
      </g>
     </g>
     <g id="text_8">
      <!-- 46.83 -->
      <g transform="translate(332.180629 399.078438) scale(0.1 -0.1)">
       <use xlink:href="#DejaVuSans-34"/>
       <use xlink:href="#DejaVuSans-36" x="63.623047"/>
       <use xlink:href="#DejaVuSans-2e" x="127.246094"/>
       <use xlink:href="#DejaVuSans-38" x="159.033203"/>
       <use xlink:href="#DejaVuSans-33" x="222.65625"/>
      </g>
     </g>
    </g>
    <g id="xtick_9">
     <g id="line2d_17">
      <path d="M 382.809518 384.48 
L 382.809518 51.84 
" clip-path="url(#p3def67685f)" style="fill: none; stroke: #b0b0b0; stroke-width: 0.8; stroke-linecap: square"/>
     </g>
     <g id="line2d_18">
      <g>
       <use xlink:href="#mb484f552eb" x="382.809518" y="384.48" style="stroke: #000000; stroke-width: 0.8"/>
      </g>
     </g>
     <g id="text_9">
      <!-- 53.5 -->
      <g transform="translate(371.676705 399.078438) scale(0.1 -0.1)">
       <use xlink:href="#DejaVuSans-35"/>
       <use xlink:href="#DejaVuSans-33" x="63.623047"/>
       <use xlink:href="#DejaVuSans-2e" x="127.246094"/>
       <use xlink:href="#DejaVuSans-35" x="159.033203"/>
      </g>
     </g>
    </g>
    <g id="xtick_10">
     <g id="line2d_19">
      <path d="M 419.124344 384.48 
L 419.124344 51.84 
" clip-path="url(#p3def67685f)" style="fill: none; stroke: #b0b0b0; stroke-width: 0.8; stroke-linecap: square"/>
     </g>
     <g id="line2d_20">
      <g>
       <use xlink:href="#mb484f552eb" x="419.124344" y="384.48" style="stroke: #000000; stroke-width: 0.8"/>
      </g>
     </g>
     <g id="text_10">
      <!-- 60.17 -->
      <g transform="translate(404.810282 399.078438) scale(0.1 -0.1)">
       <use xlink:href="#DejaVuSans-36"/>
       <use xlink:href="#DejaVuSans-30" x="63.623047"/>
       <use xlink:href="#DejaVuSans-2e" x="127.246094"/>
       <use xlink:href="#DejaVuSans-31" x="159.033203"/>
       <use xlink:href="#DejaVuSans-37" x="222.65625"/>
      </g>
     </g>
    </g>
    <g id="xtick_11">
     <g id="line2d_21">
      <path d="M 455.43917 384.48 
L 455.43917 51.84 
" clip-path="url(#p3def67685f)" style="fill: none; stroke: #b0b0b0; stroke-width: 0.8; stroke-linecap: square"/>
     </g>
     <g id="line2d_22">
      <g>
       <use xlink:href="#mb484f552eb" x="455.43917" y="384.48" style="stroke: #000000; stroke-width: 0.8"/>
      </g>
     </g>
     <g id="text_11">
      <!-- 66.83 -->
      <g transform="translate(441.125108 399.078438) scale(0.1 -0.1)">
       <use xlink:href="#DejaVuSans-36"/>
       <use xlink:href="#DejaVuSans-36" x="63.623047"/>
       <use xlink:href="#DejaVuSans-2e" x="127.246094"/>
       <use xlink:href="#DejaVuSans-38" x="159.033203"/>
       <use xlink:href="#DejaVuSans-33" x="222.65625"/>
      </g>
     </g>
    </g>
    <g id="xtick_12">
     <g id="line2d_23">
      <path d="M 491.753996 384.48 
L 491.753996 51.84 
" clip-path="url(#p3def67685f)" style="fill: none; stroke: #b0b0b0; stroke-width: 0.8; stroke-linecap: square"/>
     </g>
     <g id="line2d_24">
      <g>
       <use xlink:href="#mb484f552eb" x="491.753996" y="384.48" style="stroke: #000000; stroke-width: 0.8"/>
      </g>
     </g>
     <g id="text_12">
      <!-- 73.5 -->
      <g transform="translate(480.621184 399.078438) scale(0.1 -0.1)">
       <use xlink:href="#DejaVuSans-37"/>
       <use xlink:href="#DejaVuSans-33" x="63.623047"/>
       <use xlink:href="#DejaVuSans-2e" x="127.246094"/>
       <use xlink:href="#DejaVuSans-35" x="159.033203"/>
      </g>
     </g>
    </g>
    <g id="text_13">
     <!-- time in hours [h] -->
     <g transform="translate(253.451562 412.756563) scale(0.1 -0.1)">
      <defs>
       <path id="DejaVuSans-74" d="M 1172 4494 
L 1172 3500 
L 2356 3500 
L 2356 3053 
L 1172 3053 
L 1172 1153 
Q 1172 725 1289 603 
Q 1406 481 1766 481 
L 2356 481 
L 2356 0 
L 1766 0 
Q 1100 0 847 248 
Q 594 497 594 1153 
L 594 3053 
L 172 3053 
L 172 3500 
L 594 3500 
L 594 4494 
L 1172 4494 
z
" transform="scale(0.015625)"/>
       <path id="DejaVuSans-69" d="M 603 3500 
L 1178 3500 
L 1178 0 
L 603 0 
L 603 3500 
z
M 603 4863 
L 1178 4863 
L 1178 4134 
L 603 4134 
L 603 4863 
z
" transform="scale(0.015625)"/>
       <path id="DejaVuSans-6d" d="M 3328 2828 
Q 3544 3216 3844 3400 
Q 4144 3584 4550 3584 
Q 5097 3584 5394 3201 
Q 5691 2819 5691 2113 
L 5691 0 
L 5113 0 
L 5113 2094 
Q 5113 2597 4934 2840 
Q 4756 3084 4391 3084 
Q 3944 3084 3684 2787 
Q 3425 2491 3425 1978 
L 3425 0 
L 2847 0 
L 2847 2094 
Q 2847 2600 2669 2842 
Q 2491 3084 2119 3084 
Q 1678 3084 1418 2786 
Q 1159 2488 1159 1978 
L 1159 0 
L 581 0 
L 581 3500 
L 1159 3500 
L 1159 2956 
Q 1356 3278 1631 3431 
Q 1906 3584 2284 3584 
Q 2666 3584 2933 3390 
Q 3200 3197 3328 2828 
z
" transform="scale(0.015625)"/>
       <path id="DejaVuSans-65" d="M 3597 1894 
L 3597 1613 
L 953 1613 
Q 991 1019 1311 708 
Q 1631 397 2203 397 
Q 2534 397 2845 478 
Q 3156 559 3463 722 
L 3463 178 
Q 3153 47 2828 -22 
Q 2503 -91 2169 -91 
Q 1331 -91 842 396 
Q 353 884 353 1716 
Q 353 2575 817 3079 
Q 1281 3584 2069 3584 
Q 2775 3584 3186 3129 
Q 3597 2675 3597 1894 
z
M 3022 2063 
Q 3016 2534 2758 2815 
Q 2500 3097 2075 3097 
Q 1594 3097 1305 2825 
Q 1016 2553 972 2059 
L 3022 2063 
z
" transform="scale(0.015625)"/>
       <path id="DejaVuSans-20" transform="scale(0.015625)"/>
       <path id="DejaVuSans-6e" d="M 3513 2113 
L 3513 0 
L 2938 0 
L 2938 2094 
Q 2938 2591 2744 2837 
Q 2550 3084 2163 3084 
Q 1697 3084 1428 2787 
Q 1159 2491 1159 1978 
L 1159 0 
L 581 0 
L 581 3500 
L 1159 3500 
L 1159 2956 
Q 1366 3272 1645 3428 
Q 1925 3584 2291 3584 
Q 2894 3584 3203 3211 
Q 3513 2838 3513 2113 
z
" transform="scale(0.015625)"/>
       <path id="DejaVuSans-68" d="M 3513 2113 
L 3513 0 
L 2938 0 
L 2938 2094 
Q 2938 2591 2744 2837 
Q 2550 3084 2163 3084 
Q 1697 3084 1428 2787 
Q 1159 2491 1159 1978 
L 1159 0 
L 581 0 
L 581 4863 
L 1159 4863 
L 1159 2956 
Q 1366 3272 1645 3428 
Q 1925 3584 2291 3584 
Q 2894 3584 3203 3211 
Q 3513 2838 3513 2113 
z
" transform="scale(0.015625)"/>
       <path id="DejaVuSans-6f" d="M 1959 3097 
Q 1497 3097 1228 2736 
Q 959 2375 959 1747 
Q 959 1119 1226 758 
Q 1494 397 1959 397 
Q 2419 397 2687 759 
Q 2956 1122 2956 1747 
Q 2956 2369 2687 2733 
Q 2419 3097 1959 3097 
z
M 1959 3584 
Q 2709 3584 3137 3096 
Q 3566 2609 3566 1747 
Q 3566 888 3137 398 
Q 2709 -91 1959 -91 
Q 1206 -91 779 398 
Q 353 888 353 1747 
Q 353 2609 779 3096 
Q 1206 3584 1959 3584 
z
" transform="scale(0.015625)"/>
       <path id="DejaVuSans-75" d="M 544 1381 
L 544 3500 
L 1119 3500 
L 1119 1403 
Q 1119 906 1312 657 
Q 1506 409 1894 409 
Q 2359 409 2629 706 
Q 2900 1003 2900 1516 
L 2900 3500 
L 3475 3500 
L 3475 0 
L 2900 0 
L 2900 538 
Q 2691 219 2414 64 
Q 2138 -91 1772 -91 
Q 1169 -91 856 284 
Q 544 659 544 1381 
z
M 1991 3584 
L 1991 3584 
z
" transform="scale(0.015625)"/>
       <path id="DejaVuSans-72" d="M 2631 2963 
Q 2534 3019 2420 3045 
Q 2306 3072 2169 3072 
Q 1681 3072 1420 2755 
Q 1159 2438 1159 1844 
L 1159 0 
L 581 0 
L 581 3500 
L 1159 3500 
L 1159 2956 
Q 1341 3275 1631 3429 
Q 1922 3584 2338 3584 
Q 2397 3584 2469 3576 
Q 2541 3569 2628 3553 
L 2631 2963 
z
" transform="scale(0.015625)"/>
       <path id="DejaVuSans-73" d="M 2834 3397 
L 2834 2853 
Q 2591 2978 2328 3040 
Q 2066 3103 1784 3103 
Q 1356 3103 1142 2972 
Q 928 2841 928 2578 
Q 928 2378 1081 2264 
Q 1234 2150 1697 2047 
L 1894 2003 
Q 2506 1872 2764 1633 
Q 3022 1394 3022 966 
Q 3022 478 2636 193 
Q 2250 -91 1575 -91 
Q 1294 -91 989 -36 
Q 684 19 347 128 
L 347 722 
Q 666 556 975 473 
Q 1284 391 1588 391 
Q 1994 391 2212 530 
Q 2431 669 2431 922 
Q 2431 1156 2273 1281 
Q 2116 1406 1581 1522 
L 1381 1569 
Q 847 1681 609 1914 
Q 372 2147 372 2553 
Q 372 3047 722 3315 
Q 1072 3584 1716 3584 
Q 2034 3584 2315 3537 
Q 2597 3491 2834 3397 
z
" transform="scale(0.015625)"/>
       <path id="DejaVuSans-5b" d="M 550 4863 
L 1875 4863 
L 1875 4416 
L 1125 4416 
L 1125 -397 
L 1875 -397 
L 1875 -844 
L 550 -844 
L 550 4863 
z
" transform="scale(0.015625)"/>
       <path id="DejaVuSans-5d" d="M 1947 4863 
L 1947 -844 
L 622 -844 
L 622 -397 
L 1369 -397 
L 1369 4416 
L 622 4416 
L 622 4863 
L 1947 4863 
z
" transform="scale(0.015625)"/>
      </defs>
      <use xlink:href="#DejaVuSans-74"/>
      <use xlink:href="#DejaVuSans-69" x="39.208984"/>
      <use xlink:href="#DejaVuSans-6d" x="66.992188"/>
      <use xlink:href="#DejaVuSans-65" x="164.404297"/>
      <use xlink:href="#DejaVuSans-20" x="225.927734"/>
      <use xlink:href="#DejaVuSans-69" x="257.714844"/>
      <use xlink:href="#DejaVuSans-6e" x="285.498047"/>
      <use xlink:href="#DejaVuSans-20" x="348.876953"/>
      <use xlink:href="#DejaVuSans-68" x="380.664062"/>
      <use xlink:href="#DejaVuSans-6f" x="444.042969"/>
      <use xlink:href="#DejaVuSans-75" x="505.224609"/>
      <use xlink:href="#DejaVuSans-72" x="568.603516"/>
      <use xlink:href="#DejaVuSans-73" x="609.716797"/>
      <use xlink:href="#DejaVuSans-20" x="661.816406"/>
      <use xlink:href="#DejaVuSans-5b" x="693.603516"/>
      <use xlink:href="#DejaVuSans-68" x="732.617188"/>
      <use xlink:href="#DejaVuSans-5d" x="795.996094"/>
     </g>
    </g>
   </g>
   <g id="matplotlib.axis_2">
    <g id="ytick_1">
     <g id="line2d_25">
      <path d="M 72 363.69 
L 518.4 363.69 
" clip-path="url(#p3def67685f)" style="fill: none; stroke: #b0b0b0; stroke-width: 0.8; stroke-linecap: square"/>
     </g>
     <g id="line2d_26">
      <defs>
       <path id="m1107e6c9b1" d="M 0 0 
L -3.5 0 
" style="stroke: #000000; stroke-width: 0.8"/>
      </defs>
      <g>
       <use xlink:href="#m1107e6c9b1" x="72" y="363.69" style="stroke: #000000; stroke-width: 0.8"/>
      </g>
     </g>
     <g id="text_14">
      <!-- 0.0 -->
      <g transform="translate(49.096875 367.489219) scale(0.1 -0.1)">
       <use xlink:href="#DejaVuSans-30"/>
       <use xlink:href="#DejaVuSans-2e" x="63.623047"/>
       <use xlink:href="#DejaVuSans-30" x="95.410156"/>
      </g>
     </g>
    </g>
    <g id="ytick_2">
     <g id="line2d_27">
      <path d="M 72 311.715 
L 518.4 311.715 
" clip-path="url(#p3def67685f)" style="fill: none; stroke: #b0b0b0; stroke-width: 0.8; stroke-linecap: square"/>
     </g>
     <g id="line2d_28">
      <g>
       <use xlink:href="#m1107e6c9b1" x="72" y="311.715" style="stroke: #000000; stroke-width: 0.8"/>
      </g>
     </g>
     <g id="text_15">
      <!-- 0.5 -->
      <g transform="translate(49.096875 315.514219) scale(0.1 -0.1)">
       <use xlink:href="#DejaVuSans-30"/>
       <use xlink:href="#DejaVuSans-2e" x="63.623047"/>
       <use xlink:href="#DejaVuSans-35" x="95.410156"/>
      </g>
     </g>
    </g>
    <g id="ytick_3">
     <g id="line2d_29">
      <path d="M 72 259.74 
L 518.4 259.74 
" clip-path="url(#p3def67685f)" style="fill: none; stroke: #b0b0b0; stroke-width: 0.8; stroke-linecap: square"/>
     </g>
     <g id="line2d_30">
      <g>
       <use xlink:href="#m1107e6c9b1" x="72" y="259.74" style="stroke: #000000; stroke-width: 0.8"/>
      </g>
     </g>
     <g id="text_16">
      <!-- 1.0 -->
      <g transform="translate(49.096875 263.539219) scale(0.1 -0.1)">
       <use xlink:href="#DejaVuSans-31"/>
       <use xlink:href="#DejaVuSans-2e" x="63.623047"/>
       <use xlink:href="#DejaVuSans-30" x="95.410156"/>
      </g>
     </g>
    </g>
    <g id="ytick_4">
     <g id="line2d_31">
      <path d="M 72 207.765 
L 518.4 207.765 
" clip-path="url(#p3def67685f)" style="fill: none; stroke: #b0b0b0; stroke-width: 0.8; stroke-linecap: square"/>
     </g>
     <g id="line2d_32">
      <g>
       <use xlink:href="#m1107e6c9b1" x="72" y="207.765" style="stroke: #000000; stroke-width: 0.8"/>
      </g>
     </g>
     <g id="text_17">
      <!-- 1.5 -->
      <g transform="translate(49.096875 211.564219) scale(0.1 -0.1)">
       <use xlink:href="#DejaVuSans-31"/>
       <use xlink:href="#DejaVuSans-2e" x="63.623047"/>
       <use xlink:href="#DejaVuSans-35" x="95.410156"/>
      </g>
     </g>
    </g>
    <g id="ytick_5">
     <g id="line2d_33">
      <path d="M 72 155.79 
L 518.4 155.79 
" clip-path="url(#p3def67685f)" style="fill: none; stroke: #b0b0b0; stroke-width: 0.8; stroke-linecap: square"/>
     </g>
     <g id="line2d_34">
      <g>
       <use xlink:href="#m1107e6c9b1" x="72" y="155.79" style="stroke: #000000; stroke-width: 0.8"/>
      </g>
     </g>
     <g id="text_18">
      <!-- 2.0 -->
      <g transform="translate(49.096875 159.589219) scale(0.1 -0.1)">
       <use xlink:href="#DejaVuSans-32"/>
       <use xlink:href="#DejaVuSans-2e" x="63.623047"/>
       <use xlink:href="#DejaVuSans-30" x="95.410156"/>
      </g>
     </g>
    </g>
    <g id="ytick_6">
     <g id="line2d_35">
      <path d="M 72 103.815 
L 518.4 103.815 
" clip-path="url(#p3def67685f)" style="fill: none; stroke: #b0b0b0; stroke-width: 0.8; stroke-linecap: square"/>
     </g>
     <g id="line2d_36">
      <g>
       <use xlink:href="#m1107e6c9b1" x="72" y="103.815" style="stroke: #000000; stroke-width: 0.8"/>
      </g>
     </g>
     <g id="text_19">
      <!-- 2.5 -->
      <g transform="translate(49.096875 107.614219) scale(0.1 -0.1)">
       <use xlink:href="#DejaVuSans-32"/>
       <use xlink:href="#DejaVuSans-2e" x="63.623047"/>
       <use xlink:href="#DejaVuSans-35" x="95.410156"/>
      </g>
     </g>
    </g>
    <g id="ytick_7">
     <g id="line2d_37">
      <path d="M 72 51.84 
L 518.4 51.84 
" clip-path="url(#p3def67685f)" style="fill: none; stroke: #b0b0b0; stroke-width: 0.8; stroke-linecap: square"/>
     </g>
     <g id="line2d_38">
      <g>
       <use xlink:href="#m1107e6c9b1" x="72" y="51.84" style="stroke: #000000; stroke-width: 0.8"/>
      </g>
     </g>
     <g id="text_20">
      <!-- 3.0 -->
      <g transform="translate(49.096875 55.639219) scale(0.1 -0.1)">
       <use xlink:href="#DejaVuSans-33"/>
       <use xlink:href="#DejaVuSans-2e" x="63.623047"/>
       <use xlink:href="#DejaVuSans-30" x="95.410156"/>
      </g>
     </g>
    </g>
    <g id="text_21">
     <!-- blank corrected OD600 -->
     <g transform="translate(43.017187 276.115469) rotate(-90) scale(0.1 -0.1)">
      <defs>
       <path id="DejaVuSans-62" d="M 3116 1747 
Q 3116 2381 2855 2742 
Q 2594 3103 2138 3103 
Q 1681 3103 1420 2742 
Q 1159 2381 1159 1747 
Q 1159 1113 1420 752 
Q 1681 391 2138 391 
Q 2594 391 2855 752 
Q 3116 1113 3116 1747 
z
M 1159 2969 
Q 1341 3281 1617 3432 
Q 1894 3584 2278 3584 
Q 2916 3584 3314 3078 
Q 3713 2572 3713 1747 
Q 3713 922 3314 415 
Q 2916 -91 2278 -91 
Q 1894 -91 1617 61 
Q 1341 213 1159 525 
L 1159 0 
L 581 0 
L 581 4863 
L 1159 4863 
L 1159 2969 
z
" transform="scale(0.015625)"/>
       <path id="DejaVuSans-6c" d="M 603 4863 
L 1178 4863 
L 1178 0 
L 603 0 
L 603 4863 
z
" transform="scale(0.015625)"/>
       <path id="DejaVuSans-61" d="M 2194 1759 
Q 1497 1759 1228 1600 
Q 959 1441 959 1056 
Q 959 750 1161 570 
Q 1363 391 1709 391 
Q 2188 391 2477 730 
Q 2766 1069 2766 1631 
L 2766 1759 
L 2194 1759 
z
M 3341 1997 
L 3341 0 
L 2766 0 
L 2766 531 
Q 2569 213 2275 61 
Q 1981 -91 1556 -91 
Q 1019 -91 701 211 
Q 384 513 384 1019 
Q 384 1609 779 1909 
Q 1175 2209 1959 2209 
L 2766 2209 
L 2766 2266 
Q 2766 2663 2505 2880 
Q 2244 3097 1772 3097 
Q 1472 3097 1187 3025 
Q 903 2953 641 2809 
L 641 3341 
Q 956 3463 1253 3523 
Q 1550 3584 1831 3584 
Q 2591 3584 2966 3190 
Q 3341 2797 3341 1997 
z
" transform="scale(0.015625)"/>
       <path id="DejaVuSans-6b" d="M 581 4863 
L 1159 4863 
L 1159 1991 
L 2875 3500 
L 3609 3500 
L 1753 1863 
L 3688 0 
L 2938 0 
L 1159 1709 
L 1159 0 
L 581 0 
L 581 4863 
z
" transform="scale(0.015625)"/>
       <path id="DejaVuSans-63" d="M 3122 3366 
L 3122 2828 
Q 2878 2963 2633 3030 
Q 2388 3097 2138 3097 
Q 1578 3097 1268 2742 
Q 959 2388 959 1747 
Q 959 1106 1268 751 
Q 1578 397 2138 397 
Q 2388 397 2633 464 
Q 2878 531 3122 666 
L 3122 134 
Q 2881 22 2623 -34 
Q 2366 -91 2075 -91 
Q 1284 -91 818 406 
Q 353 903 353 1747 
Q 353 2603 823 3093 
Q 1294 3584 2113 3584 
Q 2378 3584 2631 3529 
Q 2884 3475 3122 3366 
z
" transform="scale(0.015625)"/>
       <path id="DejaVuSans-64" d="M 2906 2969 
L 2906 4863 
L 3481 4863 
L 3481 0 
L 2906 0 
L 2906 525 
Q 2725 213 2448 61 
Q 2172 -91 1784 -91 
Q 1150 -91 751 415 
Q 353 922 353 1747 
Q 353 2572 751 3078 
Q 1150 3584 1784 3584 
Q 2172 3584 2448 3432 
Q 2725 3281 2906 2969 
z
M 947 1747 
Q 947 1113 1208 752 
Q 1469 391 1925 391 
Q 2381 391 2643 752 
Q 2906 1113 2906 1747 
Q 2906 2381 2643 2742 
Q 2381 3103 1925 3103 
Q 1469 3103 1208 2742 
Q 947 2381 947 1747 
z
" transform="scale(0.015625)"/>
       <path id="DejaVuSans-4f" d="M 2522 4238 
Q 1834 4238 1429 3725 
Q 1025 3213 1025 2328 
Q 1025 1447 1429 934 
Q 1834 422 2522 422 
Q 3209 422 3611 934 
Q 4013 1447 4013 2328 
Q 4013 3213 3611 3725 
Q 3209 4238 2522 4238 
z
M 2522 4750 
Q 3503 4750 4090 4092 
Q 4678 3434 4678 2328 
Q 4678 1225 4090 567 
Q 3503 -91 2522 -91 
Q 1538 -91 948 565 
Q 359 1222 359 2328 
Q 359 3434 948 4092 
Q 1538 4750 2522 4750 
z
" transform="scale(0.015625)"/>
       <path id="DejaVuSans-44" d="M 1259 4147 
L 1259 519 
L 2022 519 
Q 2988 519 3436 956 
Q 3884 1394 3884 2338 
Q 3884 3275 3436 3711 
Q 2988 4147 2022 4147 
L 1259 4147 
z
M 628 4666 
L 1925 4666 
Q 3281 4666 3915 4102 
Q 4550 3538 4550 2338 
Q 4550 1131 3912 565 
Q 3275 0 1925 0 
L 628 0 
L 628 4666 
z
" transform="scale(0.015625)"/>
      </defs>
      <use xlink:href="#DejaVuSans-62"/>
      <use xlink:href="#DejaVuSans-6c" x="63.476562"/>
      <use xlink:href="#DejaVuSans-61" x="91.259766"/>
      <use xlink:href="#DejaVuSans-6e" x="152.539062"/>
      <use xlink:href="#DejaVuSans-6b" x="215.917969"/>
      <use xlink:href="#DejaVuSans-20" x="273.828125"/>
      <use xlink:href="#DejaVuSans-63" x="305.615234"/>
      <use xlink:href="#DejaVuSans-6f" x="360.595703"/>
      <use xlink:href="#DejaVuSans-72" x="421.777344"/>
      <use xlink:href="#DejaVuSans-72" x="461.140625"/>
      <use xlink:href="#DejaVuSans-65" x="500.003906"/>
      <use xlink:href="#DejaVuSans-63" x="561.527344"/>
      <use xlink:href="#DejaVuSans-74" x="616.507812"/>
      <use xlink:href="#DejaVuSans-65" x="655.716797"/>
      <use xlink:href="#DejaVuSans-64" x="717.240234"/>
      <use xlink:href="#DejaVuSans-20" x="780.716797"/>
      <use xlink:href="#DejaVuSans-4f" x="812.503906"/>
      <use xlink:href="#DejaVuSans-44" x="891.214844"/>
      <use xlink:href="#DejaVuSans-36" x="968.216797"/>
      <use xlink:href="#DejaVuSans-30" x="1031.839844"/>
      <use xlink:href="#DejaVuSans-30" x="1095.462891"/>
     </g>
    </g>
   </g>
   <g id="line2d_39">
    <path d="M 92.290909 360.48834 
L 93.19878 363.19104 
L 94.10665 363.29499 
L 95.014521 363.71079 
L 95.922392 363.39894 
L 96.830262 363.60684 
L 98.646004 363.71079 
L 99.553874 363.29499 
L 100.461745 363.50289 
L 101.369616 363.50289 
L 102.277486 363.08709 
L 103.185357 363.50289 
L 104.093228 363.19104 
L 105.001098 363.81474 
L 105.908969 363.71079 
L 106.81684 363.29499 
L 107.72471 363.91869 
L 108.632581 363.91869 
L 110.448322 363.60684 
L 114.079805 363.91869 
L 114.987675 363.71079 
L 115.895546 363.71079 
L 116.803417 363.50289 
L 120.434899 363.81474 
L 121.34277 363.71079 
L 123.158511 363.81474 
L 124.974253 363.08709 
L 125.882123 363.50289 
L 126.789994 363.50289 
L 127.697865 363.71079 
L 128.605735 363.50289 
L 130.421477 363.81474 
L 131.329347 363.39894 
L 132.237218 363.91869 
L 133.145088 364.12659 
L 134.052959 363.39894 
L 135.8687 363.60684 
L 136.776571 363.50289 
L 138.592312 362.67129 
L 139.500183 362.87919 
L 140.408054 362.46339 
L 141.315924 362.25549 
L 142.223795 362.35944 
L 144.039536 363.08709 
L 144.947407 363.19104 
L 145.855278 362.77524 
L 147.671019 362.98314 
L 148.57889 362.67129 
L 150.394631 363.08709 
L 152.210372 362.35944 
L 153.118243 362.56734 
L 154.026113 361.73574 
L 154.933984 361.42389 
L 155.841855 361.52784 
L 157.657596 360.80019 
L 158.565467 361.00809 
L 159.473337 361.00809 
L 160.381208 361.73574 
L 161.289079 362.15154 
L 162.196949 361.42389 
L 163.10482 361.42389 
L 164.012691 361.63179 
L 164.920561 361.21599 
L 165.828432 361.42389 
L 166.736303 361.42389 
L 167.644173 361.11204 
L 168.552044 361.31994 
L 169.459915 360.59229 
L 170.367785 360.48834 
L 172.183527 359.13699 
L 173.091397 358.82514 
L 173.999268 359.34489 
L 174.907138 358.82514 
L 175.815009 358.92909 
L 176.72288 359.55279 
L 177.63075 359.65674 
L 178.538621 360.48834 
L 179.446492 360.28044 
L 180.354362 359.44884 
L 181.262233 359.55279 
L 182.170104 359.86464 
L 183.077974 359.34489 
L 183.985845 359.44884 
L 185.801586 359.03304 
L 186.709457 359.24094 
L 187.617328 359.24094 
L 188.525198 358.61724 
L 190.34094 358.92909 
L 191.24881 358.61724 
L 192.156681 358.61724 
L 193.064552 358.40934 
L 193.972422 358.82514 
L 194.880293 357.99354 
L 195.788164 357.68169 
L 196.696034 357.78564 
L 198.511775 356.95404 
L 199.419646 357.26589 
L 200.327517 356.22639 
L 202.143258 355.39479 
L 203.958999 355.29084 
L 204.86687 355.49874 
L 205.774741 355.18689 
L 206.682611 355.29084 
L 209.406223 354.97899 
L 210.314094 354.66714 
L 211.221965 354.14739 
L 212.129835 353.83554 
L 213.037706 353.83554 
L 213.945577 354.04344 
L 214.853447 353.21184 
L 216.669189 352.48419 
L 217.577059 352.58814 
L 218.48493 351.44469 
L 219.3928 351.54864 
L 220.300671 350.82099 
L 221.208542 349.78149 
L 222.116412 349.26174 
L 223.024283 349.26174 
L 223.932154 348.53409 
L 224.840024 348.63804 
L 225.747895 349.05384 
L 226.655766 349.15779 
L 228.471507 348.22224 
L 229.379378 346.87089 
L 230.287248 347.18274 
L 231.195119 346.45509 
L 233.01086 346.14324 
L 233.918731 345.62349 
L 234.826602 344.48004 
L 235.734472 343.75239 
L 236.642343 343.33659 
L 237.550214 341.88129 
L 238.458084 340.84179 
L 239.365955 341.36154 
L 240.273826 340.21809 
L 241.181696 340.52994 
L 242.089567 339.80229 
L 242.997437 339.38649 
L 244.813179 339.28254 
L 245.721049 338.55489 
L 246.62892 337.30749 
L 247.536791 337.61934 
L 248.444661 336.78774 
L 249.352532 335.33244 
L 250.260403 334.29294 
L 251.168273 334.70874 
L 252.076144 333.77319 
L 252.984015 333.04554 
L 253.891885 331.79814 
L 254.799756 331.38234 
L 255.707627 329.71914 
L 256.615497 329.19939 
L 257.523368 328.15989 
L 258.431239 328.26384 
L 259.339109 327.12039 
L 260.24698 327.12039 
L 261.154851 326.18484 
L 262.062721 325.87299 
L 262.970592 324.00189 
L 263.878462 323.89794 
L 264.786333 323.27424 
L 266.602074 321.09129 
L 267.509945 320.36364 
L 268.417816 318.80439 
L 269.325686 317.97279 
L 270.233557 315.89379 
L 271.141428 315.27009 
L 272.049298 313.29504 
L 272.957169 312.67134 
L 273.86504 312.46344 
L 274.77291 311.63184 
L 275.680781 310.48839 
L 276.588652 309.13704 
L 277.496522 308.72124 
L 278.404393 306.95409 
L 280.220134 304.25139 
L 281.128005 303.52374 
L 282.035876 301.23684 
L 282.943746 300.71709 
L 283.851617 299.78154 
L 284.759487 298.22229 
L 285.667358 296.14329 
L 286.575229 294.48009 
L 287.483099 292.50504 
L 288.39097 291.36159 
L 289.298841 289.69839 
L 290.206711 289.38654 
L 291.114582 288.24309 
L 292.022453 286.68384 
L 292.930323 285.85224 
L 293.838194 284.50089 
L 294.746065 283.35744 
L 295.653935 282.62979 
L 296.561806 280.75869 
L 297.469677 279.61524 
L 299.285418 275.87304 
L 300.193289 275.66514 
L 301.101159 272.96244 
L 302.916901 270.15579 
L 303.824771 268.59654 
L 304.732642 266.72544 
L 305.640513 264.43854 
L 306.548383 264.64644 
L 307.456254 262.56744 
L 308.364124 262.56744 
L 309.271995 261.32004 
L 310.179866 259.65684 
L 311.087736 259.65684 
L 311.995607 258.20154 
L 312.903478 257.36994 
L 313.811348 256.33044 
L 314.719219 254.25144 
L 315.62709 254.56329 
L 316.53496 252.48429 
L 317.442831 252.17244 
L 318.350702 251.54874 
L 320.166443 251.23689 
L 321.074314 251.02899 
L 322.890055 249.15789 
L 323.797926 249.15789 
L 324.705796 250.09344 
L 325.613667 247.59864 
L 326.521538 247.49469 
L 327.429408 247.18284 
L 328.337279 245.83149 
L 329.245149 247.07889 
L 331.060891 245.41569 
L 331.968761 245.10384 
L 332.876632 244.27224 
L 334.692373 243.33669 
L 335.600244 242.19324 
L 336.508115 242.71299 
L 337.415985 241.88139 
L 338.323856 242.29719 
L 339.231727 241.36164 
L 340.139597 243.12879 
L 341.047468 241.67349 
L 341.955339 241.36164 
L 342.863209 241.46559 
L 343.77108 240.21819 
L 344.678951 241.25769 
L 345.586821 241.04979 
L 346.494692 239.90634 
L 347.402563 240.21819 
L 348.310433 239.17869 
L 349.218304 238.65894 
L 350.126174 238.65894 
L 351.034045 238.03524 
L 351.941916 238.13919 
L 352.849786 237.61944 
L 353.757657 237.41154 
L 354.665528 238.34709 
L 355.573398 237.20364 
L 356.481269 236.89179 
L 357.38914 236.99574 
L 358.29701 237.41154 
L 359.204881 236.68389 
L 360.112752 237.93129 
L 361.020622 236.78784 
L 361.928493 236.99574 
L 362.836364 235.95624 
L 363.744234 236.16414 
L 364.652105 235.85229 
L 365.559976 235.33254 
L 366.467846 235.74834 
L 368.283588 235.33254 
L 369.191458 233.46144 
L 370.099329 234.60489 
L 371.0072 234.39699 
L 371.91507 233.66934 
L 372.822941 234.60489 
L 373.730811 234.18909 
L 374.638682 234.70884 
L 375.546553 234.70884 
L 376.454423 234.39699 
L 377.362294 234.70884 
L 378.270165 234.18909 
L 379.178035 234.29304 
L 380.993777 235.12464 
L 381.901647 234.70884 
L 382.809518 233.04564 
L 383.717389 234.70884 
L 385.53313 233.56539 
L 386.441001 233.98119 
L 387.348871 233.46144 
L 388.256742 233.25354 
L 389.164613 231.90219 
L 390.072483 232.11009 
L 390.980354 231.17454 
L 391.888225 232.11009 
L 392.796095 231.69429 
L 393.703966 232.11009 
L 394.611836 232.83774 
L 395.519707 232.52589 
L 396.427578 232.73379 
L 397.335448 233.35749 
L 398.243319 233.04564 
L 400.05906 233.35749 
L 400.966931 232.62984 
L 401.874802 232.83774 
L 402.782672 232.83774 
L 403.690543 233.87724 
L 404.598414 233.04564 
L 405.506284 233.25354 
L 410.045638 233.35749 
L 410.953508 233.77329 
L 411.861379 231.79824 
L 412.76925 232.73379 
L 413.67712 232.52589 
L 414.584991 231.27849 
L 415.492862 231.07059 
L 416.400732 231.27849 
L 417.308603 231.17454 
L 418.216473 232.00614 
L 419.124344 231.69429 
L 420.032215 233.46144 
L 420.940085 233.25354 
L 421.847956 233.87724 
L 422.755827 233.35749 
L 423.663697 232.62984 
L 424.571568 233.46144 
L 425.479439 233.87724 
L 427.29518 234.08514 
L 429.110921 233.56539 
L 430.018792 233.87724 
L 430.926663 233.04564 
L 431.834533 234.39699 
L 432.742404 233.87724 
L 433.650275 233.77329 
L 434.558145 231.79824 
L 435.466016 233.98119 
L 436.373887 233.98119 
L 437.281757 234.39699 
L 438.189628 231.69429 
L 439.097498 234.08514 
L 440.91324 233.46144 
L 441.82111 232.11009 
L 442.728981 231.79824 
L 444.544722 231.59034 
L 445.452593 232.21404 
L 446.360464 232.11009 
L 447.268334 233.35749 
L 448.176205 233.46144 
L 449.084076 234.18909 
L 449.991946 233.25354 
L 450.899817 233.46144 
L 451.807688 234.18909 
L 452.715558 234.39699 
L 453.623429 234.29304 
L 454.5313 234.50094 
L 455.43917 235.12464 
L 456.347041 234.50094 
L 458.162782 234.60489 
L 459.070653 234.08514 
L 459.978523 233.25354 
L 460.886394 234.18909 
L 461.794265 234.50094 
L 462.702135 234.18909 
L 465.425747 234.60489 
L 466.333618 233.98119 
L 467.241489 235.02069 
L 468.149359 234.91674 
L 469.05723 234.08514 
L 469.965101 235.02069 
L 470.872971 235.22859 
L 471.780842 234.60489 
L 472.688713 234.39699 
L 475.412325 235.33254 
L 477.228066 234.60489 
L 478.135937 235.33254 
L 479.043807 234.81279 
L 479.951678 234.91674 
L 480.859549 235.43649 
L 481.767419 235.22859 
L 482.67529 235.33254 
L 483.58316 235.64439 
L 484.491031 234.50094 
L 485.398902 235.33254 
L 486.306772 235.54044 
L 488.122514 235.33254 
L 489.030384 235.64439 
L 489.938255 234.81279 
L 490.846126 234.91674 
L 491.753996 236.26809 
L 493.569738 235.74834 
L 494.477608 236.06019 
L 495.385479 235.74834 
L 496.29335 236.06019 
L 497.20122 235.64439 
L 498.109091 235.54044 
L 498.109091 235.54044 
" clip-path="url(#p3def67685f)" style="fill: none; stroke: #0000ff; stroke-opacity: 0.5; stroke-width: 1.5; stroke-linecap: square"/>
   </g>
   <g id="line2d_40">
    <path d="M 92.290909 360.07254 
L 93.19878 364.23054 
L 95.014521 364.64634 
L 96.830262 364.33449 
L 98.646004 364.75029 
L 99.553874 364.23054 
L 100.461745 364.43844 
L 101.369616 363.91869 
L 102.277486 364.64634 
L 103.185357 364.33449 
L 104.093228 364.43844 
L 105.001098 364.95819 
L 105.908969 364.43844 
L 106.81684 364.54239 
L 107.72471 364.85424 
L 108.632581 364.64634 
L 109.540451 364.75029 
L 110.448322 364.43844 
L 111.356193 364.75029 
L 112.264063 364.85424 
L 113.171934 364.75029 
L 114.079805 364.95819 
L 116.803417 364.54239 
L 117.711287 364.85424 
L 118.619158 364.85424 
L 119.527029 364.54239 
L 120.434899 364.85424 
L 121.34277 364.64634 
L 123.158511 363.71079 
L 124.066382 363.08709 
L 125.882123 362.77524 
L 126.789994 362.15154 
L 127.697865 362.67129 
L 128.605735 363.71079 
L 129.513606 364.43844 
L 131.329347 364.75029 
L 132.237218 364.95819 
L 134.052959 364.43844 
L 134.96083 364.33449 
L 135.8687 364.43844 
L 136.776571 363.91869 
L 137.684442 363.71079 
L 140.408054 361.63179 
L 141.315924 361.21599 
L 142.223795 361.42389 
L 143.131666 361.31994 
L 144.039536 361.63179 
L 144.947407 362.98314 
L 145.855278 363.50289 
L 146.763148 363.71079 
L 147.671019 363.39894 
L 148.57889 363.29499 
L 149.48676 363.60684 
L 151.302502 363.50289 
L 152.210372 363.29499 
L 154.933984 360.69624 
L 155.841855 360.69624 
L 156.749725 359.86464 
L 157.657596 359.34489 
L 158.565467 359.76069 
L 159.473337 359.24094 
L 160.381208 359.86464 
L 161.289079 359.96859 
L 162.196949 361.21599 
L 163.10482 362.25549 
L 164.012691 362.35944 
L 164.920561 362.04759 
L 165.828432 362.35944 
L 166.736303 361.73574 
L 167.644173 362.04759 
L 168.552044 361.73574 
L 171.275656 359.76069 
L 172.183527 358.72119 
L 173.091397 358.51329 
L 173.999268 358.09749 
L 174.907138 357.47379 
L 176.72288 357.26589 
L 178.538621 357.78564 
L 179.446492 357.88959 
L 180.354362 358.20144 
L 181.262233 359.13699 
L 182.170104 359.44884 
L 183.985845 359.44884 
L 184.893716 359.76069 
L 185.801586 359.76069 
L 186.709457 359.55279 
L 187.617328 358.82514 
L 188.525198 358.82514 
L 189.433069 359.34489 
L 190.34094 358.92909 
L 191.24881 358.92909 
L 192.156681 358.51329 
L 193.064552 358.61724 
L 194.880293 358.51329 
L 195.788164 357.88959 
L 196.696034 357.99354 
L 197.603905 356.64219 
L 198.511775 356.22639 
L 199.419646 356.43429 
L 200.327517 354.97899 
L 201.235387 354.25134 
L 202.143258 354.25134 
L 203.051129 353.00394 
L 203.958999 352.79604 
L 205.774741 352.69209 
L 206.682611 351.75654 
L 209.406223 353.10789 
L 211.221965 354.35529 
L 212.129835 353.62764 
L 213.037706 353.62764 
L 214.853447 352.89999 
L 215.761318 352.38024 
L 216.669189 351.34074 
L 218.48493 350.61309 
L 219.3928 349.57359 
L 222.116412 346.97484 
L 223.024283 346.87089 
L 223.932154 345.62349 
L 224.840024 345.93534 
L 225.747895 346.03929 
L 226.655766 346.45509 
L 227.563636 347.28669 
L 228.471507 347.28669 
L 229.379378 345.93534 
L 230.287248 345.93534 
L 231.195119 345.20769 
L 232.10299 345.31164 
L 233.01086 344.48004 
L 233.918731 343.96029 
L 234.826602 343.23264 
L 235.734472 341.67339 
L 236.642343 341.15364 
L 238.458084 337.93119 
L 239.365955 337.61934 
L 240.273826 336.78774 
L 241.181696 336.37194 
L 242.997437 334.91664 
L 243.905308 334.70874 
L 244.813179 333.77319 
L 245.721049 333.98109 
L 247.536791 334.91664 
L 248.444661 334.39689 
L 249.352532 334.08504 
L 250.260403 332.94159 
L 252.076144 331.17444 
L 252.984015 328.99149 
L 253.891885 328.05594 
L 254.799756 327.32829 
L 255.707627 325.76904 
L 256.615497 325.56114 
L 257.523368 324.10584 
L 258.431239 323.37819 
L 259.339109 322.13079 
L 260.24698 321.09129 
L 261.154851 320.77944 
L 262.062721 321.29919 
L 262.970592 320.46759 
L 263.878462 320.77944 
L 264.786333 319.53204 
L 265.694204 318.80439 
L 267.509945 316.82934 
L 268.417816 315.78984 
L 269.325686 313.60689 
L 270.233557 313.08714 
L 271.141428 309.96864 
L 272.049298 309.13704 
L 272.957169 307.05804 
L 273.86504 305.81064 
L 274.77291 305.81064 
L 275.680781 303.62769 
L 276.588652 303.62769 
L 277.496522 301.96449 
L 278.404393 300.92499 
L 279.312264 300.82104 
L 280.220134 299.36574 
L 281.128005 299.98944 
L 282.035876 297.80649 
L 282.943746 297.39069 
L 283.851617 294.99984 
L 284.759487 293.64849 
L 285.667358 292.50504 
L 286.575229 290.52999 
L 287.483099 287.51544 
L 288.39097 286.68384 
L 290.206711 283.66929 
L 291.114582 280.55079 
L 292.022453 279.92709 
L 292.930323 278.78364 
L 293.838194 277.84809 
L 294.746065 277.12044 
L 295.653935 275.14539 
L 296.561806 274.62564 
L 297.469677 272.96244 
L 298.377547 273.17034 
L 299.285418 271.81899 
L 300.193289 270.88344 
L 301.101159 268.28469 
L 302.00903 267.76494 
L 302.916901 265.37409 
L 303.824771 263.50299 
L 304.732642 262.04769 
L 305.640513 260.07264 
L 306.548383 258.40944 
L 307.456254 257.68179 
L 308.364124 256.33044 
L 309.271995 255.91464 
L 311.087736 252.79614 
L 311.995607 252.38034 
L 312.903478 251.44479 
L 313.811348 252.90009 
L 314.719219 250.92504 
L 315.62709 249.98949 
L 316.53496 249.98949 
L 318.350702 248.43024 
L 319.258572 248.01444 
L 320.166443 247.80654 
L 321.074314 246.55914 
L 321.982184 246.66309 
L 322.890055 244.99989 
L 323.797926 246.45519 
L 325.613667 245.72754 
L 326.521538 246.66309 
L 327.429408 245.83149 
L 328.337279 245.62359 
L 329.245149 245.83149 
L 330.15302 245.83149 
L 331.968761 242.29719 
L 332.876632 241.56954 
L 333.784503 241.25769 
L 334.692373 239.38659 
L 335.600244 238.65894 
L 336.508115 238.45104 
L 337.415985 238.03524 
L 338.323856 238.34709 
L 339.231727 237.61944 
L 340.139597 237.41154 
L 341.047468 236.89179 
L 341.955339 236.57994 
L 342.863209 238.03524 
L 343.77108 237.82734 
L 344.678951 237.82734 
L 345.586821 238.45104 
L 347.402563 239.17869 
L 348.310433 237.41154 
L 349.218304 236.37204 
L 350.126174 236.26809 
L 351.034045 235.02069 
L 352.849786 233.66934 
L 353.757657 233.98119 
L 354.665528 233.35749 
L 355.573398 232.31799 
L 356.481269 233.04564 
L 357.38914 232.94169 
L 358.29701 232.42194 
L 359.204881 232.83774 
L 361.020622 233.98119 
L 361.928493 235.02069 
L 362.836364 234.39699 
L 363.744234 235.85229 
L 364.652105 235.02069 
L 366.467846 234.50094 
L 367.375717 233.87724 
L 368.283588 233.04564 
L 369.191458 230.23899 
L 370.099329 231.79824 
L 371.0072 228.67974 
L 371.91507 230.34294 
L 372.822941 230.75874 
L 375.546553 230.44689 
L 376.454423 230.65479 
L 377.362294 230.03109 
L 378.270165 230.96664 
L 379.178035 230.65479 
L 380.085906 232.21404 
L 380.993777 233.35749 
L 381.901647 233.04564 
L 382.809518 233.87724 
L 383.717389 233.56539 
L 384.625259 232.21404 
L 385.53313 233.14959 
L 386.441001 232.94169 
L 387.348871 231.48639 
L 388.256742 230.75874 
L 389.164613 230.34294 
L 390.072483 230.23899 
L 390.980354 229.40739 
L 391.888225 228.15999 
L 392.796095 229.30344 
L 393.703966 229.19949 
L 394.611836 228.57579 
L 395.519707 229.19949 
L 396.427578 228.47184 
L 397.335448 228.57579 
L 398.243319 228.99159 
L 399.15119 228.47184 
L 400.966931 229.40739 
L 402.782672 229.71924 
L 403.690543 228.88764 
L 404.598414 230.86269 
L 405.506284 231.79824 
L 406.414155 232.00614 
L 407.322026 232.42194 
L 408.229896 232.31799 
L 409.137767 232.73379 
L 410.045638 232.83774 
L 410.953508 232.62984 
L 411.861379 231.07059 
L 412.76925 230.75874 
L 413.67712 230.86269 
L 414.584991 229.82319 
L 415.492862 229.51134 
L 416.400732 228.78369 
L 417.308603 228.99159 
L 418.216473 228.99159 
L 419.124344 228.78369 
L 420.032215 228.26394 
L 420.940085 228.88764 
L 421.847956 228.57579 
L 422.755827 228.78369 
L 423.663697 229.71924 
L 424.571568 229.92714 
L 425.479439 229.82319 
L 426.387309 230.86269 
L 427.29518 232.11009 
L 428.203051 232.00614 
L 430.018792 233.14959 
L 430.926663 232.52589 
L 431.834533 232.62984 
L 432.742404 232.94169 
L 433.650275 232.31799 
L 434.558145 233.04564 
L 435.466016 231.90219 
L 437.281757 233.66934 
L 438.189628 232.42194 
L 439.097498 233.35749 
L 440.005369 232.73379 
L 441.82111 230.55084 
L 442.728981 230.13504 
L 443.636852 230.34294 
L 444.544722 229.51134 
L 445.452593 229.51134 
L 447.268334 230.13504 
L 448.176205 229.51134 
L 449.084076 230.13504 
L 449.991946 229.71924 
L 450.899817 231.17454 
L 451.807688 230.96664 
L 452.715558 230.96664 
L 454.5313 233.14959 
L 455.43917 231.17454 
L 456.347041 234.39699 
L 457.254912 234.08514 
L 458.162782 234.08514 
L 459.070653 233.35749 
L 459.978523 234.08514 
L 460.886394 233.98119 
L 461.794265 234.29304 
L 465.425747 234.29304 
L 466.333618 234.08514 
L 467.241489 234.60489 
L 468.149359 234.39699 
L 469.05723 233.25354 
L 469.965101 233.87724 
L 470.872971 234.08514 
L 471.780842 233.46144 
L 472.688713 234.39699 
L 473.596583 233.87724 
L 474.504454 234.60489 
L 475.412325 234.39699 
L 476.320195 234.60489 
L 477.228066 234.39699 
L 478.135937 234.91674 
L 479.043807 235.12464 
L 479.951678 234.50094 
L 480.859549 234.91674 
L 481.767419 234.39699 
L 482.67529 234.60489 
L 484.491031 234.50094 
L 485.398902 235.43649 
L 486.306772 234.50094 
L 487.214643 234.91674 
L 489.030384 234.50094 
L 489.938255 235.33254 
L 490.846126 235.54044 
L 491.753996 234.29304 
L 493.569738 235.22859 
L 496.29335 235.64439 
L 497.20122 235.43649 
L 498.109091 235.54044 
L 498.109091 235.54044 
" clip-path="url(#p3def67685f)" style="fill: none; stroke: #0000ff; stroke-opacity: 0.5; stroke-width: 1.5; stroke-linecap: square"/>
   </g>
   <g id="line2d_41">
    <path d="M 92.290909 361.00809 
L 93.19878 364.64634 
L 95.014521 364.75029 
L 95.922392 364.64634 
L 96.830262 364.75029 
L 97.738133 364.64634 
L 98.646004 365.16609 
L 101.369616 364.75029 
L 102.277486 364.95819 
L 103.185357 364.95819 
L 104.093228 364.64634 
L 105.001098 365.06214 
L 105.908969 364.75029 
L 107.72471 364.85424 
L 108.632581 364.85424 
L 109.540451 365.06214 
L 110.448322 364.64634 
L 113.171934 365.37399 
L 114.987675 364.64634 
L 115.895546 365.06214 
L 116.803417 364.85424 
L 117.711287 365.16609 
L 119.527029 365.16609 
L 120.434899 365.37399 
L 121.34277 365.16609 
L 122.250641 365.47794 
L 123.158511 364.54239 
L 124.066382 364.54239 
L 124.974253 364.12659 
L 125.882123 364.02264 
L 127.697865 365.16609 
L 128.605735 365.27004 
L 129.513606 364.85424 
L 131.329347 364.75029 
L 132.237218 364.54239 
L 133.145088 365.06214 
L 134.052959 365.06214 
L 135.8687 364.33449 
L 136.776571 364.75029 
L 137.684442 364.02264 
L 139.500183 363.08709 
L 140.408054 363.08709 
L 142.223795 362.77524 
L 143.131666 363.71079 
L 144.039536 364.12659 
L 145.855278 364.33449 
L 146.763148 364.02264 
L 147.671019 364.23054 
L 148.57889 364.12659 
L 149.48676 363.71079 
L 150.394631 363.81474 
L 152.210372 363.60684 
L 153.118243 363.29499 
L 154.026113 362.77524 
L 154.933984 361.83969 
L 155.841855 361.73574 
L 156.749725 361.31994 
L 158.565467 361.11204 
L 159.473337 360.69624 
L 160.381208 361.31994 
L 161.289079 362.77524 
L 163.10482 362.67129 
L 164.012691 362.67129 
L 164.920561 362.25549 
L 165.828432 362.04759 
L 168.552044 362.25549 
L 169.459915 361.63179 
L 170.367785 360.80019 
L 173.999268 359.13699 
L 174.907138 359.13699 
L 175.815009 358.40934 
L 176.72288 358.61724 
L 177.63075 358.61724 
L 178.538621 359.76069 
L 179.446492 360.28044 
L 181.262233 360.59229 
L 183.077974 360.07254 
L 183.985845 360.17649 
L 184.893716 360.07254 
L 185.801586 360.17649 
L 187.617328 359.86464 
L 188.525198 359.34489 
L 189.433069 359.03304 
L 191.24881 359.96859 
L 192.156681 359.34489 
L 193.064552 359.24094 
L 193.972422 358.72119 
L 194.880293 358.82514 
L 195.788164 358.09749 
L 196.696034 358.40934 
L 197.603905 357.47379 
L 198.511775 356.85009 
L 199.419646 357.16194 
L 200.327517 356.12244 
L 202.143258 355.49874 
L 203.051129 354.25134 
L 204.86687 354.14739 
L 205.774741 354.04344 
L 206.682611 354.56319 
L 207.590482 355.49874 
L 208.498353 355.81059 
L 210.314094 355.39479 
L 211.221965 354.77109 
L 212.129835 353.83554 
L 213.945577 354.04344 
L 214.853447 353.62764 
L 215.761318 352.89999 
L 217.577059 352.17234 
L 218.48493 351.65259 
L 220.300671 349.88544 
L 221.208542 348.63804 
L 222.116412 348.11829 
L 223.024283 348.11829 
L 224.840024 347.59854 
L 225.747895 348.53409 
L 226.655766 348.01434 
L 227.563636 347.91039 
L 228.471507 347.28669 
L 232.10299 345.72744 
L 233.01086 344.79189 
L 233.918731 344.58399 
L 234.826602 343.75239 
L 235.734472 342.19314 
L 236.642343 341.15364 
L 238.458084 339.38649 
L 239.365955 338.24304 
L 241.181696 337.20354 
L 242.089567 335.85219 
L 242.997437 335.95614 
L 243.905308 336.47589 
L 244.813179 336.37194 
L 245.721049 336.68379 
L 246.62892 336.47589 
L 247.536791 335.95614 
L 249.352532 334.29294 
L 250.260403 333.14949 
L 251.168273 332.52579 
L 252.984015 330.34284 
L 253.891885 328.78359 
L 254.799756 327.84804 
L 255.707627 326.60064 
L 256.615497 325.76904 
L 257.523368 325.14534 
L 258.431239 323.89794 
L 259.339109 323.48214 
L 260.24698 322.23474 
L 261.154851 322.85844 
L 262.062721 322.96239 
L 263.878462 321.29919 
L 264.786333 319.63599 
L 265.694204 318.80439 
L 266.602074 317.24514 
L 267.509945 317.14119 
L 268.417816 314.95824 
L 270.233557 312.15159 
L 272.049298 308.61729 
L 272.957169 307.78569 
L 273.86504 306.22644 
L 274.77291 304.97904 
L 276.588652 303.41979 
L 277.496522 303.10794 
L 278.404393 302.06844 
L 279.312264 301.44474 
L 280.220134 300.19734 
L 281.128005 299.67759 
L 282.035876 298.01439 
L 282.943746 296.76699 
L 284.759487 293.02479 
L 285.667358 291.98529 
L 286.575229 289.38654 
L 289.298841 284.81274 
L 290.206711 283.66929 
L 291.114582 281.59029 
L 292.022453 281.07054 
L 292.930323 279.19944 
L 294.746065 277.43229 
L 296.561806 277.12044 
L 297.469677 276.39279 
L 298.377547 274.10589 
L 299.285418 273.27429 
L 302.916901 266.41359 
L 303.824771 263.91879 
L 304.732642 262.87929 
L 306.548383 259.55289 
L 307.456254 258.72129 
L 308.364124 257.68179 
L 309.271995 256.43439 
L 310.179866 255.81069 
L 311.995607 256.12254 
L 312.903478 256.01859 
L 313.811348 254.97909 
L 314.719219 254.66724 
L 315.62709 253.73169 
L 316.53496 252.48429 
L 317.442831 252.17244 
L 318.350702 250.92504 
L 319.258572 250.71714 
L 320.166443 249.57369 
L 321.074314 249.88554 
L 321.982184 248.94999 
L 322.890055 249.26184 
L 323.797926 248.84604 
L 324.705796 249.26184 
L 326.521538 248.32629 
L 327.429408 247.49469 
L 328.337279 247.91049 
L 329.245149 246.66309 
L 330.15302 246.35124 
L 331.968761 243.64854 
L 332.876632 242.50509 
L 333.784503 242.08929 
L 334.692373 240.32214 
L 335.600244 241.15374 
L 336.508115 239.80239 
L 337.415985 239.38659 
L 338.323856 239.28264 
L 339.231727 239.59449 
L 340.139597 239.17869 
L 341.047468 240.01029 
L 341.955339 241.04979 
L 342.863209 240.63399 
L 343.77108 241.25769 
L 344.678951 240.42609 
L 346.494692 240.21819 
L 348.310433 238.86684 
L 349.218304 238.76289 
L 350.126174 238.03524 
L 351.034045 236.89179 
L 351.941916 236.06019 
L 352.849786 236.16414 
L 353.757657 235.54044 
L 357.38914 236.06019 
L 358.29701 237.09969 
L 359.204881 237.51549 
L 360.112752 237.20364 
L 361.020622 235.54044 
L 361.928493 237.61944 
L 362.836364 237.30759 
L 364.652105 236.99574 
L 365.559976 236.37204 
L 367.375717 235.64439 
L 368.283588 234.18909 
L 370.099329 232.31799 
L 371.0072 232.62984 
L 371.91507 231.48639 
L 372.822941 231.79824 
L 373.730811 232.42194 
L 374.638682 231.90219 
L 375.546553 232.73379 
L 377.362294 233.25354 
L 378.270165 235.02069 
L 379.178035 234.60489 
L 380.085906 234.39699 
L 380.993777 234.50094 
L 381.901647 233.87724 
L 383.717389 234.18909 
L 385.53313 233.87724 
L 386.441001 232.83774 
L 387.348871 233.14959 
L 388.256742 232.31799 
L 389.164613 231.69429 
L 390.980354 229.40739 
L 391.888225 230.65479 
L 392.796095 229.40739 
L 393.703966 230.23899 
L 395.519707 230.34294 
L 396.427578 230.75874 
L 397.335448 232.21404 
L 398.243319 232.42194 
L 399.15119 233.04564 
L 400.05906 232.62984 
L 400.966931 233.66934 
L 401.874802 233.98119 
L 402.782672 233.87724 
L 403.690543 234.08514 
L 404.598414 234.08514 
L 405.506284 234.50094 
L 406.414155 234.08514 
L 407.322026 233.98119 
L 408.229896 234.39699 
L 410.953508 233.77329 
L 411.861379 233.87724 
L 412.76925 233.25354 
L 413.67712 232.11009 
L 414.584991 231.48639 
L 415.492862 230.55084 
L 416.400732 230.55084 
L 417.308603 230.23899 
L 418.216473 230.44689 
L 420.032215 231.27849 
L 420.940085 230.55084 
L 421.847956 231.90219 
L 423.663697 233.46144 
L 426.387309 234.18909 
L 427.29518 234.91674 
L 428.203051 234.18909 
L 429.110921 234.60489 
L 430.018792 234.60489 
L 430.926663 234.29304 
L 432.742404 234.81279 
L 433.650275 234.91674 
L 434.558145 233.98119 
L 435.466016 234.60489 
L 436.373887 235.02069 
L 437.281757 235.12464 
L 438.189628 234.39699 
L 439.097498 234.08514 
L 440.005369 234.29304 
L 440.91324 233.35749 
L 441.82111 233.04564 
L 443.636852 231.79824 
L 444.544722 232.31799 
L 445.452593 232.21404 
L 446.360464 232.42194 
L 447.268334 232.21404 
L 448.176205 232.42194 
L 449.084076 232.11009 
L 450.899817 234.50094 
L 451.807688 234.60489 
L 452.715558 235.43649 
L 453.623429 235.64439 
L 454.5313 235.22859 
L 455.43917 235.33254 
L 456.347041 235.64439 
L 457.254912 235.74834 
L 458.162782 234.70884 
L 459.070653 235.22859 
L 459.978523 234.81279 
L 460.886394 235.54044 
L 462.702135 235.74834 
L 463.610006 236.06019 
L 464.517877 236.16414 
L 465.425747 235.33254 
L 466.333618 235.85229 
L 467.241489 236.16414 
L 468.149359 235.64439 
L 469.05723 234.08514 
L 469.965101 236.37204 
L 470.872971 236.16414 
L 471.780842 236.16414 
L 472.688713 235.64439 
L 473.596583 236.37204 
L 474.504454 236.26809 
L 475.412325 235.74834 
L 476.320195 236.37204 
L 477.228066 236.06019 
L 478.135937 236.06019 
L 479.043807 236.68389 
L 479.951678 236.06019 
L 480.859549 236.47599 
L 482.67529 236.47599 
L 483.58316 236.89179 
L 484.491031 236.57994 
L 485.398902 236.47599 
L 486.306772 237.09969 
L 488.122514 236.78784 
L 489.030384 236.78784 
L 489.938255 235.85229 
L 490.846126 236.99574 
L 492.661867 236.37204 
L 493.569738 237.30759 
L 494.477608 236.68389 
L 495.385479 236.68389 
L 496.29335 236.89179 
L 497.20122 237.51549 
L 498.109091 237.61944 
L 498.109091 237.61944 
" clip-path="url(#p3def67685f)" style="fill: none; stroke: #0000ff; stroke-opacity: 0.5; stroke-width: 1.5; stroke-linecap: square"/>
   </g>
   <g id="line2d_42">
    <path d="M 92.290909 359.44884 
L 93.19878 365.37399 
L 94.10665 365.58189 
L 95.922392 365.47794 
L 96.830262 365.47794 
L 98.646004 365.78979 
L 99.553874 365.37399 
L 101.369616 365.89374 
L 102.277486 365.47794 
L 103.185357 365.78979 
L 106.81684 365.47794 
L 107.72471 365.68584 
L 110.448322 365.78979 
L 111.356193 365.47794 
L 112.264063 365.78979 
L 113.171934 365.68584 
L 114.987675 365.78979 
L 116.803417 365.68584 
L 118.619158 365.99769 
L 119.527029 366.10164 
L 120.434899 365.58189 
L 123.158511 365.68584 
L 124.066382 365.06214 
L 124.974253 364.95819 
L 125.882123 365.68584 
L 126.789994 365.47794 
L 127.697865 365.58189 
L 129.513606 365.47794 
L 131.329347 365.58189 
L 132.237218 365.78979 
L 133.145088 365.47794 
L 134.96083 365.37399 
L 135.8687 365.16609 
L 137.684442 365.27004 
L 138.592312 364.54239 
L 140.408054 363.60684 
L 141.315924 363.60684 
L 142.223795 364.02264 
L 143.131666 365.06214 
L 144.039536 365.06214 
L 144.947407 364.75029 
L 147.671019 364.75029 
L 148.57889 364.54239 
L 149.48676 364.75029 
L 150.394631 364.75029 
L 151.302502 364.23054 
L 152.210372 364.23054 
L 153.118243 364.02264 
L 155.841855 362.25549 
L 158.565467 361.63179 
L 160.381208 362.98314 
L 161.289079 363.60684 
L 162.196949 363.50289 
L 163.10482 363.08709 
L 164.012691 363.29499 
L 164.920561 363.08709 
L 165.828432 363.29499 
L 166.736303 362.77524 
L 168.552044 362.67129 
L 169.459915 362.04759 
L 170.367785 361.94364 
L 173.091397 360.07254 
L 173.999268 360.38439 
L 174.907138 359.86464 
L 176.72288 360.38439 
L 177.63075 361.11204 
L 179.446492 361.52784 
L 180.354362 361.00809 
L 181.262233 360.80019 
L 182.170104 360.90414 
L 183.077974 360.59229 
L 183.985845 360.48834 
L 184.893716 360.59229 
L 185.801586 360.17649 
L 186.709457 360.48834 
L 187.617328 360.07254 
L 188.525198 359.96859 
L 189.433069 360.28044 
L 190.34094 359.76069 
L 191.24881 359.76069 
L 192.156681 359.55279 
L 193.064552 359.55279 
L 194.880293 359.03304 
L 196.696034 358.82514 
L 197.603905 358.40934 
L 198.511775 357.57774 
L 199.419646 357.68169 
L 201.235387 356.53824 
L 202.143258 355.70664 
L 203.051129 356.01849 
L 204.86687 355.18689 
L 206.682611 356.22639 
L 207.590482 356.22639 
L 208.498353 355.91454 
L 209.406223 355.81059 
L 211.221965 355.08294 
L 212.129835 354.77109 
L 213.945577 354.45924 
L 214.853447 354.14739 
L 215.761318 353.41974 
L 216.669189 352.89999 
L 217.577059 352.79604 
L 218.48493 352.17234 
L 219.3928 351.75654 
L 220.300671 350.61309 
L 221.208542 349.78149 
L 223.024283 348.53409 
L 224.840024 348.63804 
L 225.747895 349.46964 
L 226.655766 349.15779 
L 227.563636 348.32619 
L 228.471507 348.11829 
L 231.195119 346.14324 
L 232.10299 345.83139 
L 233.01086 345.20769 
L 233.918731 344.99979 
L 234.826602 343.64844 
L 235.734472 343.12869 
L 236.642343 342.08919 
L 237.550214 341.36154 
L 238.458084 340.01019 
L 239.365955 340.01019 
L 240.273826 338.97069 
L 241.181696 338.45094 
L 242.089567 338.13909 
L 243.905308 338.24304 
L 244.813179 337.93119 
L 246.62892 336.37194 
L 247.536791 336.16404 
L 248.444661 335.12454 
L 249.352532 334.50084 
L 250.260403 334.18899 
L 251.168273 332.94159 
L 252.076144 332.31789 
L 252.984015 331.07049 
L 254.799756 328.26384 
L 255.707627 327.53619 
L 256.615497 326.18484 
L 257.523368 325.66509 
L 258.431239 324.72954 
L 259.339109 324.41769 
L 260.24698 324.41769 
L 261.154851 324.10584 
L 262.062721 323.58609 
L 262.970592 322.33869 
L 264.786333 320.57154 
L 265.694204 320.05179 
L 267.509945 317.24514 
L 270.233557 312.56739 
L 271.141428 311.31999 
L 272.049298 309.55284 
L 274.77291 306.74619 
L 276.588652 305.81064 
L 277.496522 304.56324 
L 278.404393 303.93954 
L 279.312264 302.17239 
L 280.220134 300.82104 
L 281.128005 299.78154 
L 282.943746 297.07884 
L 283.851617 296.24724 
L 288.39097 287.30754 
L 290.206711 284.81274 
L 291.114582 283.35744 
L 292.930323 281.38239 
L 293.838194 281.27844 
L 295.653935 279.71919 
L 297.469677 277.01649 
L 298.377547 276.08094 
L 299.285418 274.10589 
L 300.193289 272.44269 
L 301.101159 271.40319 
L 302.916901 267.45309 
L 304.732642 264.33459 
L 305.640513 262.77534 
L 307.456254 260.59239 
L 308.364124 259.13709 
L 309.271995 258.61734 
L 310.179866 258.82524 
L 311.087736 258.51339 
L 311.995607 258.40944 
L 312.903478 257.05809 
L 313.811348 256.43439 
L 314.719219 255.39489 
L 315.62709 255.29094 
L 316.53496 253.41984 
L 317.442831 253.21194 
L 318.350702 252.58824 
L 319.258572 252.27639 
L 320.166443 251.02899 
L 321.074314 251.34084 
L 321.982184 250.71714 
L 322.890055 250.61319 
L 323.797926 250.09344 
L 324.705796 250.09344 
L 325.613667 249.78159 
L 327.429408 248.32629 
L 330.15302 246.97494 
L 331.060891 245.93544 
L 331.968761 245.20779 
L 332.876632 243.96039 
L 333.784503 243.02484 
L 334.692373 242.71299 
L 337.415985 241.04979 
L 339.231727 241.56954 
L 340.139597 241.88139 
L 341.047468 242.40114 
L 341.955339 242.50509 
L 342.863209 242.19324 
L 343.77108 242.19324 
L 345.586821 241.25769 
L 346.494692 241.36164 
L 347.402563 240.63399 
L 348.310433 240.53004 
L 349.218304 239.59449 
L 350.126174 238.86684 
L 352.849786 237.20364 
L 353.757657 237.20364 
L 354.665528 236.37204 
L 355.573398 237.41154 
L 356.481269 237.41154 
L 357.38914 235.64439 
L 358.29701 238.03524 
L 361.020622 237.93129 
L 361.928493 238.65894 
L 362.836364 237.82734 
L 363.744234 237.20364 
L 364.652105 236.37204 
L 365.559976 236.99574 
L 366.467846 236.37204 
L 367.375717 236.68389 
L 368.283588 234.60489 
L 369.191458 234.08514 
L 371.0072 234.18909 
L 371.91507 233.25354 
L 372.822941 233.35749 
L 373.730811 233.66934 
L 374.638682 233.56539 
L 375.546553 234.50094 
L 377.362294 235.33254 
L 378.270165 235.22859 
L 379.178035 234.91674 
L 380.085906 235.33254 
L 380.993777 235.33254 
L 381.901647 235.54044 
L 382.809518 235.33254 
L 383.717389 235.33254 
L 384.625259 234.81279 
L 385.53313 234.91674 
L 387.348871 234.18909 
L 388.256742 232.94169 
L 389.164613 232.62984 
L 390.072483 232.62984 
L 390.980354 231.79824 
L 391.888225 232.42194 
L 392.796095 231.79824 
L 393.703966 232.11009 
L 394.611836 231.48639 
L 396.427578 233.04564 
L 397.335448 234.29304 
L 398.243319 234.29304 
L 399.15119 233.77329 
L 400.05906 234.50094 
L 400.966931 234.91674 
L 401.874802 234.91674 
L 402.782672 235.22859 
L 403.690543 234.08514 
L 404.598414 234.08514 
L 405.506284 235.22859 
L 406.414155 234.91674 
L 407.322026 235.12464 
L 408.229896 234.60489 
L 410.953508 234.91674 
L 411.861379 234.70884 
L 412.76925 234.29304 
L 413.67712 232.21404 
L 414.584991 233.04564 
L 416.400732 231.90219 
L 417.308603 232.00614 
L 418.216473 232.62984 
L 419.124344 232.31799 
L 420.032215 232.73379 
L 420.940085 232.94169 
L 421.847956 233.98119 
L 422.755827 235.54044 
L 423.663697 235.85229 
L 425.479439 235.85229 
L 427.29518 236.26809 
L 428.203051 235.74834 
L 429.110921 236.37204 
L 430.018792 234.39699 
L 430.926663 236.26809 
L 431.834533 236.37204 
L 432.742404 235.95624 
L 433.650275 236.16414 
L 434.558145 236.68389 
L 436.373887 236.68389 
L 437.281757 236.89179 
L 438.189628 236.26809 
L 439.097498 236.78784 
L 440.005369 235.85229 
L 440.91324 235.22859 
L 441.82111 234.91674 
L 442.728981 234.18909 
L 443.636852 233.25354 
L 444.544722 233.98119 
L 445.452593 233.46144 
L 446.360464 234.50094 
L 447.268334 234.50094 
L 448.176205 234.70884 
L 449.084076 236.16414 
L 449.991946 237.09969 
L 450.899817 236.47599 
L 451.807688 237.30759 
L 452.715558 237.20364 
L 453.623429 237.51549 
L 454.5313 237.41154 
L 456.347041 238.03524 
L 459.070653 238.24314 
L 459.978523 238.65894 
L 460.886394 238.45104 
L 461.794265 238.45104 
L 462.702135 238.24314 
L 463.610006 238.76289 
L 464.517877 238.55499 
L 465.425747 238.65894 
L 466.333618 238.03524 
L 467.241489 239.38659 
L 468.149359 238.03524 
L 469.05723 237.82734 
L 469.965101 238.76289 
L 470.872971 238.55499 
L 471.780842 238.55499 
L 472.688713 239.07474 
L 474.504454 238.34709 
L 475.412325 239.38659 
L 476.320195 239.59449 
L 477.228066 239.17869 
L 478.135937 239.69844 
L 479.951678 239.90634 
L 480.859549 240.21819 
L 481.767419 239.69844 
L 482.67529 239.38659 
L 483.58316 239.80239 
L 484.491031 239.49054 
L 485.398902 240.42609 
L 487.214643 240.32214 
L 488.122514 240.42609 
L 489.030384 240.21819 
L 489.938255 240.84189 
L 490.846126 240.42609 
L 491.753996 241.04979 
L 492.661867 241.04979 
L 493.569738 240.53004 
L 494.477608 241.25769 
L 495.385479 240.42609 
L 496.29335 240.94584 
L 497.20122 240.42609 
L 498.109091 240.84189 
L 498.109091 240.84189 
" clip-path="url(#p3def67685f)" style="fill: none; stroke: #0000ff; stroke-opacity: 0.5; stroke-width: 1.5; stroke-linecap: square"/>
   </g>
   <g id="LineCollection_1">
    <path d="M 92.290909 360.913941 
L 92.290909 359.594964 
" clip-path="url(#p3def67685f)" style="fill: none; stroke: #ff0000; stroke-width: 1.5"/>
    <path d="M 128.605735 365.517716 
L 128.605735 363.463114 
" clip-path="url(#p3def67685f)" style="fill: none; stroke: #ff0000; stroke-width: 1.5"/>
    <path d="M 164.920561 362.920114 
L 164.920561 361.382966 
" clip-path="url(#p3def67685f)" style="fill: none; stroke: #ff0000; stroke-width: 1.5"/>
    <path d="M 201.235387 356.566683 
L 201.235387 354.638697 
" clip-path="url(#p3def67685f)" style="fill: none; stroke: #ff0000; stroke-width: 1.5"/>
    <path d="M 237.550214 341.831953 
L 237.550214 339.695702 
" clip-path="url(#p3def67685f)" style="fill: none; stroke: #ff0000; stroke-width: 1.5"/>
    <path d="M 273.86504 311.120408 
L 273.86504 305.022697 
" clip-path="url(#p3def67685f)" style="fill: none; stroke: #ff0000; stroke-width: 1.5"/>
    <path d="M 310.179866 259.645553 
L 310.179866 254.730502 
" clip-path="url(#p3def67685f)" style="fill: none; stroke: #ff0000; stroke-width: 1.5"/>
    <path d="M 346.494692 241.130812 
L 346.494692 238.993718 
" clip-path="url(#p3def67685f)" style="fill: none; stroke: #ff0000; stroke-width: 1.5"/>
    <path d="M 382.809518 235.030266 
L 382.809518 233.140014 
" clip-path="url(#p3def67685f)" style="fill: none; stroke: #ff0000; stroke-width: 1.5"/>
    <path d="M 419.124344 232.455324 
L 419.124344 229.374006 
" clip-path="url(#p3def67685f)" style="fill: none; stroke: #ff0000; stroke-width: 1.5"/>
    <path d="M 455.43917 237.551288 
L 455.43917 232.126267 
" clip-path="url(#p3def67685f)" style="fill: none; stroke: #ff0000; stroke-width: 1.5"/>
    <path d="M 491.753996 239.92223 
L 491.753996 234.225175 
" clip-path="url(#p3def67685f)" style="fill: none; stroke: #ff0000; stroke-width: 1.5"/>
   </g>
   <g id="line2d_43">
    <defs>
     <path id="m39b43585d0" d="M 5 0 
L -5 -0 
" style="stroke: #ff0000"/>
    </defs>
    <g clip-path="url(#p3def67685f)">
     <use xlink:href="#m39b43585d0" x="92.290909" y="360.913941" style="fill: #ff0000; stroke: #ff0000"/>
     <use xlink:href="#m39b43585d0" x="128.605735" y="365.517716" style="fill: #ff0000; stroke: #ff0000"/>
     <use xlink:href="#m39b43585d0" x="164.920561" y="362.920114" style="fill: #ff0000; stroke: #ff0000"/>
     <use xlink:href="#m39b43585d0" x="201.235387" y="356.566683" style="fill: #ff0000; stroke: #ff0000"/>
     <use xlink:href="#m39b43585d0" x="237.550214" y="341.831953" style="fill: #ff0000; stroke: #ff0000"/>
     <use xlink:href="#m39b43585d0" x="273.86504" y="311.120408" style="fill: #ff0000; stroke: #ff0000"/>
     <use xlink:href="#m39b43585d0" x="310.179866" y="259.645553" style="fill: #ff0000; stroke: #ff0000"/>
     <use xlink:href="#m39b43585d0" x="346.494692" y="241.130812" style="fill: #ff0000; stroke: #ff0000"/>
     <use xlink:href="#m39b43585d0" x="382.809518" y="235.030266" style="fill: #ff0000; stroke: #ff0000"/>
     <use xlink:href="#m39b43585d0" x="419.124344" y="232.455324" style="fill: #ff0000; stroke: #ff0000"/>
     <use xlink:href="#m39b43585d0" x="455.43917" y="237.551288" style="fill: #ff0000; stroke: #ff0000"/>
     <use xlink:href="#m39b43585d0" x="491.753996" y="239.92223" style="fill: #ff0000; stroke: #ff0000"/>
    </g>
   </g>
   <g id="line2d_44">
    <g clip-path="url(#p3def67685f)">
     <use xlink:href="#m39b43585d0" x="92.290909" y="359.594964" style="fill: #ff0000; stroke: #ff0000"/>
     <use xlink:href="#m39b43585d0" x="128.605735" y="363.463114" style="fill: #ff0000; stroke: #ff0000"/>
     <use xlink:href="#m39b43585d0" x="164.920561" y="361.382966" style="fill: #ff0000; stroke: #ff0000"/>
     <use xlink:href="#m39b43585d0" x="201.235387" y="354.638697" style="fill: #ff0000; stroke: #ff0000"/>
     <use xlink:href="#m39b43585d0" x="237.550214" y="339.695702" style="fill: #ff0000; stroke: #ff0000"/>
     <use xlink:href="#m39b43585d0" x="273.86504" y="305.022697" style="fill: #ff0000; stroke: #ff0000"/>
     <use xlink:href="#m39b43585d0" x="310.179866" y="254.730502" style="fill: #ff0000; stroke: #ff0000"/>
     <use xlink:href="#m39b43585d0" x="346.494692" y="238.993718" style="fill: #ff0000; stroke: #ff0000"/>
     <use xlink:href="#m39b43585d0" x="382.809518" y="233.140014" style="fill: #ff0000; stroke: #ff0000"/>
     <use xlink:href="#m39b43585d0" x="419.124344" y="229.374006" style="fill: #ff0000; stroke: #ff0000"/>
     <use xlink:href="#m39b43585d0" x="455.43917" y="232.126267" style="fill: #ff0000; stroke: #ff0000"/>
     <use xlink:href="#m39b43585d0" x="491.753996" y="234.225175" style="fill: #ff0000; stroke: #ff0000"/>
    </g>
   </g>
   <g id="line2d_45">
    <path d="M 92.290909 360.254453 
L 128.605735 364.490415 
L 164.920561 362.15154 
L 201.235387 355.60269 
L 237.550214 340.763827 
L 273.86504 308.071552 
L 310.179866 257.188027 
L 346.494692 240.062265 
L 382.809518 234.08514 
L 419.124344 230.914665 
L 455.43917 234.838777 
L 491.753996 237.073702 
" clip-path="url(#p3def67685f)" style="fill: none; stroke: #ff0000; stroke-width: 1.5; stroke-linecap: square"/>
   </g>
   <g id="patch_3">
    <path d="M 72 384.48 
L 72 51.84 
" style="fill: none; stroke: #000000; stroke-width: 0.8; stroke-linejoin: miter; stroke-linecap: square"/>
   </g>
   <g id="patch_4">
    <path d="M 518.4 384.48 
L 518.4 51.84 
" style="fill: none; stroke: #000000; stroke-width: 0.8; stroke-linejoin: miter; stroke-linecap: square"/>
   </g>
   <g id="patch_5">
    <path d="M 72 384.48 
L 518.4 384.48 
" style="fill: none; stroke: #000000; stroke-width: 0.8; stroke-linejoin: miter; stroke-linecap: square"/>
   </g>
   <g id="patch_6">
    <path d="M 72 51.84 
L 518.4 51.84 
" style="fill: none; stroke: #000000; stroke-width: 0.8; stroke-linejoin: miter; stroke-linecap: square"/>
   </g>
   <g id="text_22">
    <!-- M23: Methionin -->
    <g transform="translate(256.555469 45.84) scale(0.1 -0.1)">
     <defs>
      <path id="DejaVuSans-4d" d="M 628 4666 
L 1569 4666 
L 2759 1491 
L 3956 4666 
L 4897 4666 
L 4897 0 
L 4281 0 
L 4281 4097 
L 3078 897 
L 2444 897 
L 1241 4097 
L 1241 0 
L 628 0 
L 628 4666 
z
" transform="scale(0.015625)"/>
      <path id="DejaVuSans-3a" d="M 750 794 
L 1409 794 
L 1409 0 
L 750 0 
L 750 794 
z
M 750 3309 
L 1409 3309 
L 1409 2516 
L 750 2516 
L 750 3309 
z
" transform="scale(0.015625)"/>
     </defs>
     <use xlink:href="#DejaVuSans-4d"/>
     <use xlink:href="#DejaVuSans-32" x="86.279297"/>
     <use xlink:href="#DejaVuSans-33" x="149.902344"/>
     <use xlink:href="#DejaVuSans-3a" x="213.525391"/>
     <use xlink:href="#DejaVuSans-20" x="247.216797"/>
     <use xlink:href="#DejaVuSans-4d" x="279.003906"/>
     <use xlink:href="#DejaVuSans-65" x="365.283203"/>
     <use xlink:href="#DejaVuSans-74" x="426.806641"/>
     <use xlink:href="#DejaVuSans-68" x="466.015625"/>
     <use xlink:href="#DejaVuSans-69" x="529.394531"/>
     <use xlink:href="#DejaVuSans-6f" x="557.177734"/>
     <use xlink:href="#DejaVuSans-6e" x="618.359375"/>
     <use xlink:href="#DejaVuSans-69" x="681.738281"/>
     <use xlink:href="#DejaVuSans-6e" x="709.521484"/>
    </g>
   </g>
  </g>
 </g>
 <defs>
  <clipPath id="p3def67685f">
   <rect x="72" y="51.84" width="446.4" height="332.64"/>
  </clipPath>
 </defs>
</svg>
