<?xml version="1.0" encoding="utf-8" standalone="no"?>
<!DOCTYPE svg PUBLIC "-//W3C//DTD SVG 1.1//EN"
  "http://www.w3.org/Graphics/SVG/1.1/DTD/svg11.dtd">
<svg xmlns:xlink="http://www.w3.org/1999/xlink" width="576pt" height="432pt" viewBox="0 0 576 432" xmlns="http://www.w3.org/2000/svg" version="1.1">
 <metadata>
  <rdf:RDF xmlns:dc="http://purl.org/dc/elements/1.1/" xmlns:cc="http://creativecommons.org/ns#" xmlns:rdf="http://www.w3.org/1999/02/22-rdf-syntax-ns#">
   <cc:Work>
    <dc:type rdf:resource="http://purl.org/dc/dcmitype/StillImage"/>
    <dc:date>2024-11-12T14:09:15.912160</dc:date>
    <dc:format>image/svg+xml</dc:format>
    <dc:creator>
     <cc:Agent>
      <dc:title>Matplotlib v3.7.5, https://matplotlib.org/</dc:title>
     </cc:Agent>
    </dc:creator>
   </cc:Work>
  </rdf:RDF>
 </metadata>
 <defs>
  <style type="text/css">*{stroke-linejoin: round; stroke-linecap: butt}</style>
 </defs>
 <g id="figure_1">
  <g id="patch_1">
   <path d="M 0 432 
L 576 432 
L 576 0 
L 0 0 
z
" style="fill: #ffffff"/>
  </g>
  <g id="axes_1">
   <g id="patch_2">
    <path d="M 72 384.48 
L 518.4 384.48 
L 518.4 51.84 
L 72 51.84 
z
" style="fill: #ffffff"/>
   </g>
   <g id="matplotlib.axis_1">
    <g id="xtick_1">
     <g id="line2d_1">
      <path d="M 92.290909 384.48 
L 92.290909 51.84 
" clip-path="url(#p1403827b7b)" style="fill: none; stroke: #b0b0b0; stroke-width: 0.8; stroke-linecap: square"/>
     </g>
     <g id="line2d_2">
      <defs>
       <path id="m9a9da13dcb" d="M 0 0 
L 0 3.5 
" style="stroke: #000000; stroke-width: 0.8"/>
      </defs>
      <g>
       <use xlink:href="#m9a9da13dcb" x="92.290909" y="384.48" style="stroke: #000000; stroke-width: 0.8"/>
      </g>
     </g>
     <g id="text_1">
      <!-- 0.17 -->
      <g transform="translate(81.158097 399.078438) scale(0.1 -0.1)">
       <defs>
        <path id="DejaVuSans-30" d="M 2034 4250 
Q 1547 4250 1301 3770 
Q 1056 3291 1056 2328 
Q 1056 1369 1301 889 
Q 1547 409 2034 409 
Q 2525 409 2770 889 
Q 3016 1369 3016 2328 
Q 3016 3291 2770 3770 
Q 2525 4250 2034 4250 
z
M 2034 4750 
Q 2819 4750 3233 4129 
Q 3647 3509 3647 2328 
Q 3647 1150 3233 529 
Q 2819 -91 2034 -91 
Q 1250 -91 836 529 
Q 422 1150 422 2328 
Q 422 3509 836 4129 
Q 1250 4750 2034 4750 
z
" transform="scale(0.015625)"/>
        <path id="DejaVuSans-2e" d="M 684 794 
L 1344 794 
L 1344 0 
L 684 0 
L 684 794 
z
" transform="scale(0.015625)"/>
        <path id="DejaVuSans-31" d="M 794 531 
L 1825 531 
L 1825 4091 
L 703 3866 
L 703 4441 
L 1819 4666 
L 2450 4666 
L 2450 531 
L 3481 531 
L 3481 0 
L 794 0 
L 794 531 
z
" transform="scale(0.015625)"/>
        <path id="DejaVuSans-37" d="M 525 4666 
L 3525 4666 
L 3525 4397 
L 1831 0 
L 1172 0 
L 2766 4134 
L 525 4134 
L 525 4666 
z
" transform="scale(0.015625)"/>
       </defs>
       <use xlink:href="#DejaVuSans-30"/>
       <use xlink:href="#DejaVuSans-2e" x="63.623047"/>
       <use xlink:href="#DejaVuSans-31" x="95.410156"/>
       <use xlink:href="#DejaVuSans-37" x="159.033203"/>
      </g>
     </g>
    </g>
    <g id="xtick_2">
     <g id="line2d_3">
      <path d="M 128.605735 384.48 
L 128.605735 51.84 
" clip-path="url(#p1403827b7b)" style="fill: none; stroke: #b0b0b0; stroke-width: 0.8; stroke-linecap: square"/>
     </g>
     <g id="line2d_4">
      <g>
       <use xlink:href="#m9a9da13dcb" x="128.605735" y="384.48" style="stroke: #000000; stroke-width: 0.8"/>
      </g>
     </g>
     <g id="text_2">
      <!-- 6.83 -->
      <g transform="translate(117.472923 399.078438) scale(0.1 -0.1)">
       <defs>
        <path id="DejaVuSans-36" d="M 2113 2584 
Q 1688 2584 1439 2293 
Q 1191 2003 1191 1497 
Q 1191 994 1439 701 
Q 1688 409 2113 409 
Q 2538 409 2786 701 
Q 3034 994 3034 1497 
Q 3034 2003 2786 2293 
Q 2538 2584 2113 2584 
z
M 3366 4563 
L 3366 3988 
Q 3128 4100 2886 4159 
Q 2644 4219 2406 4219 
Q 1781 4219 1451 3797 
Q 1122 3375 1075 2522 
Q 1259 2794 1537 2939 
Q 1816 3084 2150 3084 
Q 2853 3084 3261 2657 
Q 3669 2231 3669 1497 
Q 3669 778 3244 343 
Q 2819 -91 2113 -91 
Q 1303 -91 875 529 
Q 447 1150 447 2328 
Q 447 3434 972 4092 
Q 1497 4750 2381 4750 
Q 2619 4750 2861 4703 
Q 3103 4656 3366 4563 
z
" transform="scale(0.015625)"/>
        <path id="DejaVuSans-38" d="M 2034 2216 
Q 1584 2216 1326 1975 
Q 1069 1734 1069 1313 
Q 1069 891 1326 650 
Q 1584 409 2034 409 
Q 2484 409 2743 651 
Q 3003 894 3003 1313 
Q 3003 1734 2745 1975 
Q 2488 2216 2034 2216 
z
M 1403 2484 
Q 997 2584 770 2862 
Q 544 3141 544 3541 
Q 544 4100 942 4425 
Q 1341 4750 2034 4750 
Q 2731 4750 3128 4425 
Q 3525 4100 3525 3541 
Q 3525 3141 3298 2862 
Q 3072 2584 2669 2484 
Q 3125 2378 3379 2068 
Q 3634 1759 3634 1313 
Q 3634 634 3220 271 
Q 2806 -91 2034 -91 
Q 1263 -91 848 271 
Q 434 634 434 1313 
Q 434 1759 690 2068 
Q 947 2378 1403 2484 
z
M 1172 3481 
Q 1172 3119 1398 2916 
Q 1625 2713 2034 2713 
Q 2441 2713 2670 2916 
Q 2900 3119 2900 3481 
Q 2900 3844 2670 4047 
Q 2441 4250 2034 4250 
Q 1625 4250 1398 4047 
Q 1172 3844 1172 3481 
z
" transform="scale(0.015625)"/>
        <path id="DejaVuSans-33" d="M 2597 2516 
Q 3050 2419 3304 2112 
Q 3559 1806 3559 1356 
Q 3559 666 3084 287 
Q 2609 -91 1734 -91 
Q 1441 -91 1130 -33 
Q 819 25 488 141 
L 488 750 
Q 750 597 1062 519 
Q 1375 441 1716 441 
Q 2309 441 2620 675 
Q 2931 909 2931 1356 
Q 2931 1769 2642 2001 
Q 2353 2234 1838 2234 
L 1294 2234 
L 1294 2753 
L 1863 2753 
Q 2328 2753 2575 2939 
Q 2822 3125 2822 3475 
Q 2822 3834 2567 4026 
Q 2313 4219 1838 4219 
Q 1578 4219 1281 4162 
Q 984 4106 628 3988 
L 628 4550 
Q 988 4650 1302 4700 
Q 1616 4750 1894 4750 
Q 2613 4750 3031 4423 
Q 3450 4097 3450 3541 
Q 3450 3153 3228 2886 
Q 3006 2619 2597 2516 
z
" transform="scale(0.015625)"/>
       </defs>
       <use xlink:href="#DejaVuSans-36"/>
       <use xlink:href="#DejaVuSans-2e" x="63.623047"/>
       <use xlink:href="#DejaVuSans-38" x="95.410156"/>
       <use xlink:href="#DejaVuSans-33" x="159.033203"/>
      </g>
     </g>
    </g>
    <g id="xtick_3">
     <g id="line2d_5">
      <path d="M 164.920561 384.48 
L 164.920561 51.84 
" clip-path="url(#p1403827b7b)" style="fill: none; stroke: #b0b0b0; stroke-width: 0.8; stroke-linecap: square"/>
     </g>
     <g id="line2d_6">
      <g>
       <use xlink:href="#m9a9da13dcb" x="164.920561" y="384.48" style="stroke: #000000; stroke-width: 0.8"/>
      </g>
     </g>
     <g id="text_3">
      <!-- 13.5 -->
      <g transform="translate(153.787749 399.078438) scale(0.1 -0.1)">
       <defs>
        <path id="DejaVuSans-35" d="M 691 4666 
L 3169 4666 
L 3169 4134 
L 1269 4134 
L 1269 2991 
Q 1406 3038 1543 3061 
Q 1681 3084 1819 3084 
Q 2600 3084 3056 2656 
Q 3513 2228 3513 1497 
Q 3513 744 3044 326 
Q 2575 -91 1722 -91 
Q 1428 -91 1123 -41 
Q 819 9 494 109 
L 494 744 
Q 775 591 1075 516 
Q 1375 441 1709 441 
Q 2250 441 2565 725 
Q 2881 1009 2881 1497 
Q 2881 1984 2565 2268 
Q 2250 2553 1709 2553 
Q 1456 2553 1204 2497 
Q 953 2441 691 2322 
L 691 4666 
z
" transform="scale(0.015625)"/>
       </defs>
       <use xlink:href="#DejaVuSans-31"/>
       <use xlink:href="#DejaVuSans-33" x="63.623047"/>
       <use xlink:href="#DejaVuSans-2e" x="127.246094"/>
       <use xlink:href="#DejaVuSans-35" x="159.033203"/>
      </g>
     </g>
    </g>
    <g id="xtick_4">
     <g id="line2d_7">
      <path d="M 201.235387 384.48 
L 201.235387 51.84 
" clip-path="url(#p1403827b7b)" style="fill: none; stroke: #b0b0b0; stroke-width: 0.8; stroke-linecap: square"/>
     </g>
     <g id="line2d_8">
      <g>
       <use xlink:href="#m9a9da13dcb" x="201.235387" y="384.48" style="stroke: #000000; stroke-width: 0.8"/>
      </g>
     </g>
     <g id="text_4">
      <!-- 20.17 -->
      <g transform="translate(186.921325 399.078438) scale(0.1 -0.1)">
       <defs>
        <path id="DejaVuSans-32" d="M 1228 531 
L 3431 531 
L 3431 0 
L 469 0 
L 469 531 
Q 828 903 1448 1529 
Q 2069 2156 2228 2338 
Q 2531 2678 2651 2914 
Q 2772 3150 2772 3378 
Q 2772 3750 2511 3984 
Q 2250 4219 1831 4219 
Q 1534 4219 1204 4116 
Q 875 4013 500 3803 
L 500 4441 
Q 881 4594 1212 4672 
Q 1544 4750 1819 4750 
Q 2544 4750 2975 4387 
Q 3406 4025 3406 3419 
Q 3406 3131 3298 2873 
Q 3191 2616 2906 2266 
Q 2828 2175 2409 1742 
Q 1991 1309 1228 531 
z
" transform="scale(0.015625)"/>
       </defs>
       <use xlink:href="#DejaVuSans-32"/>
       <use xlink:href="#DejaVuSans-30" x="63.623047"/>
       <use xlink:href="#DejaVuSans-2e" x="127.246094"/>
       <use xlink:href="#DejaVuSans-31" x="159.033203"/>
       <use xlink:href="#DejaVuSans-37" x="222.65625"/>
      </g>
     </g>
    </g>
    <g id="xtick_5">
     <g id="line2d_9">
      <path d="M 237.550214 384.48 
L 237.550214 51.84 
" clip-path="url(#p1403827b7b)" style="fill: none; stroke: #b0b0b0; stroke-width: 0.8; stroke-linecap: square"/>
     </g>
     <g id="line2d_10">
      <g>
       <use xlink:href="#m9a9da13dcb" x="237.550214" y="384.48" style="stroke: #000000; stroke-width: 0.8"/>
      </g>
     </g>
     <g id="text_5">
      <!-- 26.83 -->
      <g transform="translate(223.236151 399.078438) scale(0.1 -0.1)">
       <use xlink:href="#DejaVuSans-32"/>
       <use xlink:href="#DejaVuSans-36" x="63.623047"/>
       <use xlink:href="#DejaVuSans-2e" x="127.246094"/>
       <use xlink:href="#DejaVuSans-38" x="159.033203"/>
       <use xlink:href="#DejaVuSans-33" x="222.65625"/>
      </g>
     </g>
    </g>
    <g id="xtick_6">
     <g id="line2d_11">
      <path d="M 273.86504 384.48 
L 273.86504 51.84 
" clip-path="url(#p1403827b7b)" style="fill: none; stroke: #b0b0b0; stroke-width: 0.8; stroke-linecap: square"/>
     </g>
     <g id="line2d_12">
      <g>
       <use xlink:href="#m9a9da13dcb" x="273.86504" y="384.48" style="stroke: #000000; stroke-width: 0.8"/>
      </g>
     </g>
     <g id="text_6">
      <!-- 33.5 -->
      <g transform="translate(262.732227 399.078438) scale(0.1 -0.1)">
       <use xlink:href="#DejaVuSans-33"/>
       <use xlink:href="#DejaVuSans-33" x="63.623047"/>
       <use xlink:href="#DejaVuSans-2e" x="127.246094"/>
       <use xlink:href="#DejaVuSans-35" x="159.033203"/>
      </g>
     </g>
    </g>
    <g id="xtick_7">
     <g id="line2d_13">
      <path d="M 310.179866 384.48 
L 310.179866 51.84 
" clip-path="url(#p1403827b7b)" style="fill: none; stroke: #b0b0b0; stroke-width: 0.8; stroke-linecap: square"/>
     </g>
     <g id="line2d_14">
      <g>
       <use xlink:href="#m9a9da13dcb" x="310.179866" y="384.48" style="stroke: #000000; stroke-width: 0.8"/>
      </g>
     </g>
     <g id="text_7">
      <!-- 40.17 -->
      <g transform="translate(295.865803 399.078438) scale(0.1 -0.1)">
       <defs>
        <path id="DejaVuSans-34" d="M 2419 4116 
L 825 1625 
L 2419 1625 
L 2419 4116 
z
M 2253 4666 
L 3047 4666 
L 3047 1625 
L 3713 1625 
L 3713 1100 
L 3047 1100 
L 3047 0 
L 2419 0 
L 2419 1100 
L 313 1100 
L 313 1709 
L 2253 4666 
z
" transform="scale(0.015625)"/>
       </defs>
       <use xlink:href="#DejaVuSans-34"/>
       <use xlink:href="#DejaVuSans-30" x="63.623047"/>
       <use xlink:href="#DejaVuSans-2e" x="127.246094"/>
       <use xlink:href="#DejaVuSans-31" x="159.033203"/>
       <use xlink:href="#DejaVuSans-37" x="222.65625"/>
      </g>
     </g>
    </g>
    <g id="xtick_8">
     <g id="line2d_15">
      <path d="M 346.494692 384.48 
L 346.494692 51.84 
" clip-path="url(#p1403827b7b)" style="fill: none; stroke: #b0b0b0; stroke-width: 0.8; stroke-linecap: square"/>
     </g>
     <g id="line2d_16">
      <g>
       <use xlink:href="#m9a9da13dcb" x="346.494692" y="384.48" style="stroke: #000000; stroke-width: 0.8"/>
      </g>
     </g>
     <g id="text_8">
      <!-- 46.83 -->
      <g transform="translate(332.180629 399.078438) scale(0.1 -0.1)">
       <use xlink:href="#DejaVuSans-34"/>
       <use xlink:href="#DejaVuSans-36" x="63.623047"/>
       <use xlink:href="#DejaVuSans-2e" x="127.246094"/>
       <use xlink:href="#DejaVuSans-38" x="159.033203"/>
       <use xlink:href="#DejaVuSans-33" x="222.65625"/>
      </g>
     </g>
    </g>
    <g id="xtick_9">
     <g id="line2d_17">
      <path d="M 382.809518 384.48 
L 382.809518 51.84 
" clip-path="url(#p1403827b7b)" style="fill: none; stroke: #b0b0b0; stroke-width: 0.8; stroke-linecap: square"/>
     </g>
     <g id="line2d_18">
      <g>
       <use xlink:href="#m9a9da13dcb" x="382.809518" y="384.48" style="stroke: #000000; stroke-width: 0.8"/>
      </g>
     </g>
     <g id="text_9">
      <!-- 53.5 -->
      <g transform="translate(371.676705 399.078438) scale(0.1 -0.1)">
       <use xlink:href="#DejaVuSans-35"/>
       <use xlink:href="#DejaVuSans-33" x="63.623047"/>
       <use xlink:href="#DejaVuSans-2e" x="127.246094"/>
       <use xlink:href="#DejaVuSans-35" x="159.033203"/>
      </g>
     </g>
    </g>
    <g id="xtick_10">
     <g id="line2d_19">
      <path d="M 419.124344 384.48 
L 419.124344 51.84 
" clip-path="url(#p1403827b7b)" style="fill: none; stroke: #b0b0b0; stroke-width: 0.8; stroke-linecap: square"/>
     </g>
     <g id="line2d_20">
      <g>
       <use xlink:href="#m9a9da13dcb" x="419.124344" y="384.48" style="stroke: #000000; stroke-width: 0.8"/>
      </g>
     </g>
     <g id="text_10">
      <!-- 60.17 -->
      <g transform="translate(404.810282 399.078438) scale(0.1 -0.1)">
       <use xlink:href="#DejaVuSans-36"/>
       <use xlink:href="#DejaVuSans-30" x="63.623047"/>
       <use xlink:href="#DejaVuSans-2e" x="127.246094"/>
       <use xlink:href="#DejaVuSans-31" x="159.033203"/>
       <use xlink:href="#DejaVuSans-37" x="222.65625"/>
      </g>
     </g>
    </g>
    <g id="xtick_11">
     <g id="line2d_21">
      <path d="M 455.43917 384.48 
L 455.43917 51.84 
" clip-path="url(#p1403827b7b)" style="fill: none; stroke: #b0b0b0; stroke-width: 0.8; stroke-linecap: square"/>
     </g>
     <g id="line2d_22">
      <g>
       <use xlink:href="#m9a9da13dcb" x="455.43917" y="384.48" style="stroke: #000000; stroke-width: 0.8"/>
      </g>
     </g>
     <g id="text_11">
      <!-- 66.83 -->
      <g transform="translate(441.125108 399.078438) scale(0.1 -0.1)">
       <use xlink:href="#DejaVuSans-36"/>
       <use xlink:href="#DejaVuSans-36" x="63.623047"/>
       <use xlink:href="#DejaVuSans-2e" x="127.246094"/>
       <use xlink:href="#DejaVuSans-38" x="159.033203"/>
       <use xlink:href="#DejaVuSans-33" x="222.65625"/>
      </g>
     </g>
    </g>
    <g id="xtick_12">
     <g id="line2d_23">
      <path d="M 491.753996 384.48 
L 491.753996 51.84 
" clip-path="url(#p1403827b7b)" style="fill: none; stroke: #b0b0b0; stroke-width: 0.8; stroke-linecap: square"/>
     </g>
     <g id="line2d_24">
      <g>
       <use xlink:href="#m9a9da13dcb" x="491.753996" y="384.48" style="stroke: #000000; stroke-width: 0.8"/>
      </g>
     </g>
     <g id="text_12">
      <!-- 73.5 -->
      <g transform="translate(480.621184 399.078438) scale(0.1 -0.1)">
       <use xlink:href="#DejaVuSans-37"/>
       <use xlink:href="#DejaVuSans-33" x="63.623047"/>
       <use xlink:href="#DejaVuSans-2e" x="127.246094"/>
       <use xlink:href="#DejaVuSans-35" x="159.033203"/>
      </g>
     </g>
    </g>
    <g id="text_13">
     <!-- time in hours [h] -->
     <g transform="translate(253.451562 412.756563) scale(0.1 -0.1)">
      <defs>
       <path id="DejaVuSans-74" d="M 1172 4494 
L 1172 3500 
L 2356 3500 
L 2356 3053 
L 1172 3053 
L 1172 1153 
Q 1172 725 1289 603 
Q 1406 481 1766 481 
L 2356 481 
L 2356 0 
L 1766 0 
Q 1100 0 847 248 
Q 594 497 594 1153 
L 594 3053 
L 172 3053 
L 172 3500 
L 594 3500 
L 594 4494 
L 1172 4494 
z
" transform="scale(0.015625)"/>
       <path id="DejaVuSans-69" d="M 603 3500 
L 1178 3500 
L 1178 0 
L 603 0 
L 603 3500 
z
M 603 4863 
L 1178 4863 
L 1178 4134 
L 603 4134 
L 603 4863 
z
" transform="scale(0.015625)"/>
       <path id="DejaVuSans-6d" d="M 3328 2828 
Q 3544 3216 3844 3400 
Q 4144 3584 4550 3584 
Q 5097 3584 5394 3201 
Q 5691 2819 5691 2113 
L 5691 0 
L 5113 0 
L 5113 2094 
Q 5113 2597 4934 2840 
Q 4756 3084 4391 3084 
Q 3944 3084 3684 2787 
Q 3425 2491 3425 1978 
L 3425 0 
L 2847 0 
L 2847 2094 
Q 2847 2600 2669 2842 
Q 2491 3084 2119 3084 
Q 1678 3084 1418 2786 
Q 1159 2488 1159 1978 
L 1159 0 
L 581 0 
L 581 3500 
L 1159 3500 
L 1159 2956 
Q 1356 3278 1631 3431 
Q 1906 3584 2284 3584 
Q 2666 3584 2933 3390 
Q 3200 3197 3328 2828 
z
" transform="scale(0.015625)"/>
       <path id="DejaVuSans-65" d="M 3597 1894 
L 3597 1613 
L 953 1613 
Q 991 1019 1311 708 
Q 1631 397 2203 397 
Q 2534 397 2845 478 
Q 3156 559 3463 722 
L 3463 178 
Q 3153 47 2828 -22 
Q 2503 -91 2169 -91 
Q 1331 -91 842 396 
Q 353 884 353 1716 
Q 353 2575 817 3079 
Q 1281 3584 2069 3584 
Q 2775 3584 3186 3129 
Q 3597 2675 3597 1894 
z
M 3022 2063 
Q 3016 2534 2758 2815 
Q 2500 3097 2075 3097 
Q 1594 3097 1305 2825 
Q 1016 2553 972 2059 
L 3022 2063 
z
" transform="scale(0.015625)"/>
       <path id="DejaVuSans-20" transform="scale(0.015625)"/>
       <path id="DejaVuSans-6e" d="M 3513 2113 
L 3513 0 
L 2938 0 
L 2938 2094 
Q 2938 2591 2744 2837 
Q 2550 3084 2163 3084 
Q 1697 3084 1428 2787 
Q 1159 2491 1159 1978 
L 1159 0 
L 581 0 
L 581 3500 
L 1159 3500 
L 1159 2956 
Q 1366 3272 1645 3428 
Q 1925 3584 2291 3584 
Q 2894 3584 3203 3211 
Q 3513 2838 3513 2113 
z
" transform="scale(0.015625)"/>
       <path id="DejaVuSans-68" d="M 3513 2113 
L 3513 0 
L 2938 0 
L 2938 2094 
Q 2938 2591 2744 2837 
Q 2550 3084 2163 3084 
Q 1697 3084 1428 2787 
Q 1159 2491 1159 1978 
L 1159 0 
L 581 0 
L 581 4863 
L 1159 4863 
L 1159 2956 
Q 1366 3272 1645 3428 
Q 1925 3584 2291 3584 
Q 2894 3584 3203 3211 
Q 3513 2838 3513 2113 
z
" transform="scale(0.015625)"/>
       <path id="DejaVuSans-6f" d="M 1959 3097 
Q 1497 3097 1228 2736 
Q 959 2375 959 1747 
Q 959 1119 1226 758 
Q 1494 397 1959 397 
Q 2419 397 2687 759 
Q 2956 1122 2956 1747 
Q 2956 2369 2687 2733 
Q 2419 3097 1959 3097 
z
M 1959 3584 
Q 2709 3584 3137 3096 
Q 3566 2609 3566 1747 
Q 3566 888 3137 398 
Q 2709 -91 1959 -91 
Q 1206 -91 779 398 
Q 353 888 353 1747 
Q 353 2609 779 3096 
Q 1206 3584 1959 3584 
z
" transform="scale(0.015625)"/>
       <path id="DejaVuSans-75" d="M 544 1381 
L 544 3500 
L 1119 3500 
L 1119 1403 
Q 1119 906 1312 657 
Q 1506 409 1894 409 
Q 2359 409 2629 706 
Q 2900 1003 2900 1516 
L 2900 3500 
L 3475 3500 
L 3475 0 
L 2900 0 
L 2900 538 
Q 2691 219 2414 64 
Q 2138 -91 1772 -91 
Q 1169 -91 856 284 
Q 544 659 544 1381 
z
M 1991 3584 
L 1991 3584 
z
" transform="scale(0.015625)"/>
       <path id="DejaVuSans-72" d="M 2631 2963 
Q 2534 3019 2420 3045 
Q 2306 3072 2169 3072 
Q 1681 3072 1420 2755 
Q 1159 2438 1159 1844 
L 1159 0 
L 581 0 
L 581 3500 
L 1159 3500 
L 1159 2956 
Q 1341 3275 1631 3429 
Q 1922 3584 2338 3584 
Q 2397 3584 2469 3576 
Q 2541 3569 2628 3553 
L 2631 2963 
z
" transform="scale(0.015625)"/>
       <path id="DejaVuSans-73" d="M 2834 3397 
L 2834 2853 
Q 2591 2978 2328 3040 
Q 2066 3103 1784 3103 
Q 1356 3103 1142 2972 
Q 928 2841 928 2578 
Q 928 2378 1081 2264 
Q 1234 2150 1697 2047 
L 1894 2003 
Q 2506 1872 2764 1633 
Q 3022 1394 3022 966 
Q 3022 478 2636 193 
Q 2250 -91 1575 -91 
Q 1294 -91 989 -36 
Q 684 19 347 128 
L 347 722 
Q 666 556 975 473 
Q 1284 391 1588 391 
Q 1994 391 2212 530 
Q 2431 669 2431 922 
Q 2431 1156 2273 1281 
Q 2116 1406 1581 1522 
L 1381 1569 
Q 847 1681 609 1914 
Q 372 2147 372 2553 
Q 372 3047 722 3315 
Q 1072 3584 1716 3584 
Q 2034 3584 2315 3537 
Q 2597 3491 2834 3397 
z
" transform="scale(0.015625)"/>
       <path id="DejaVuSans-5b" d="M 550 4863 
L 1875 4863 
L 1875 4416 
L 1125 4416 
L 1125 -397 
L 1875 -397 
L 1875 -844 
L 550 -844 
L 550 4863 
z
" transform="scale(0.015625)"/>
       <path id="DejaVuSans-5d" d="M 1947 4863 
L 1947 -844 
L 622 -844 
L 622 -397 
L 1369 -397 
L 1369 4416 
L 622 4416 
L 622 4863 
L 1947 4863 
z
" transform="scale(0.015625)"/>
      </defs>
      <use xlink:href="#DejaVuSans-74"/>
      <use xlink:href="#DejaVuSans-69" x="39.208984"/>
      <use xlink:href="#DejaVuSans-6d" x="66.992188"/>
      <use xlink:href="#DejaVuSans-65" x="164.404297"/>
      <use xlink:href="#DejaVuSans-20" x="225.927734"/>
      <use xlink:href="#DejaVuSans-69" x="257.714844"/>
      <use xlink:href="#DejaVuSans-6e" x="285.498047"/>
      <use xlink:href="#DejaVuSans-20" x="348.876953"/>
      <use xlink:href="#DejaVuSans-68" x="380.664062"/>
      <use xlink:href="#DejaVuSans-6f" x="444.042969"/>
      <use xlink:href="#DejaVuSans-75" x="505.224609"/>
      <use xlink:href="#DejaVuSans-72" x="568.603516"/>
      <use xlink:href="#DejaVuSans-73" x="609.716797"/>
      <use xlink:href="#DejaVuSans-20" x="661.816406"/>
      <use xlink:href="#DejaVuSans-5b" x="693.603516"/>
      <use xlink:href="#DejaVuSans-68" x="732.617188"/>
      <use xlink:href="#DejaVuSans-5d" x="795.996094"/>
     </g>
    </g>
   </g>
   <g id="matplotlib.axis_2">
    <g id="ytick_1">
     <g id="line2d_25">
      <path d="M 72 363.69 
L 518.4 363.69 
" clip-path="url(#p1403827b7b)" style="fill: none; stroke: #b0b0b0; stroke-width: 0.8; stroke-linecap: square"/>
     </g>
     <g id="line2d_26">
      <defs>
       <path id="m81e19745ad" d="M 0 0 
L -3.5 0 
" style="stroke: #000000; stroke-width: 0.8"/>
      </defs>
      <g>
       <use xlink:href="#m81e19745ad" x="72" y="363.69" style="stroke: #000000; stroke-width: 0.8"/>
      </g>
     </g>
     <g id="text_14">
      <!-- 0.0 -->
      <g transform="translate(49.096875 367.489219) scale(0.1 -0.1)">
       <use xlink:href="#DejaVuSans-30"/>
       <use xlink:href="#DejaVuSans-2e" x="63.623047"/>
       <use xlink:href="#DejaVuSans-30" x="95.410156"/>
      </g>
     </g>
    </g>
    <g id="ytick_2">
     <g id="line2d_27">
      <path d="M 72 311.715 
L 518.4 311.715 
" clip-path="url(#p1403827b7b)" style="fill: none; stroke: #b0b0b0; stroke-width: 0.8; stroke-linecap: square"/>
     </g>
     <g id="line2d_28">
      <g>
       <use xlink:href="#m81e19745ad" x="72" y="311.715" style="stroke: #000000; stroke-width: 0.8"/>
      </g>
     </g>
     <g id="text_15">
      <!-- 0.5 -->
      <g transform="translate(49.096875 315.514219) scale(0.1 -0.1)">
       <use xlink:href="#DejaVuSans-30"/>
       <use xlink:href="#DejaVuSans-2e" x="63.623047"/>
       <use xlink:href="#DejaVuSans-35" x="95.410156"/>
      </g>
     </g>
    </g>
    <g id="ytick_3">
     <g id="line2d_29">
      <path d="M 72 259.74 
L 518.4 259.74 
" clip-path="url(#p1403827b7b)" style="fill: none; stroke: #b0b0b0; stroke-width: 0.8; stroke-linecap: square"/>
     </g>
     <g id="line2d_30">
      <g>
       <use xlink:href="#m81e19745ad" x="72" y="259.74" style="stroke: #000000; stroke-width: 0.8"/>
      </g>
     </g>
     <g id="text_16">
      <!-- 1.0 -->
      <g transform="translate(49.096875 263.539219) scale(0.1 -0.1)">
       <use xlink:href="#DejaVuSans-31"/>
       <use xlink:href="#DejaVuSans-2e" x="63.623047"/>
       <use xlink:href="#DejaVuSans-30" x="95.410156"/>
      </g>
     </g>
    </g>
    <g id="ytick_4">
     <g id="line2d_31">
      <path d="M 72 207.765 
L 518.4 207.765 
" clip-path="url(#p1403827b7b)" style="fill: none; stroke: #b0b0b0; stroke-width: 0.8; stroke-linecap: square"/>
     </g>
     <g id="line2d_32">
      <g>
       <use xlink:href="#m81e19745ad" x="72" y="207.765" style="stroke: #000000; stroke-width: 0.8"/>
      </g>
     </g>
     <g id="text_17">
      <!-- 1.5 -->
      <g transform="translate(49.096875 211.564219) scale(0.1 -0.1)">
       <use xlink:href="#DejaVuSans-31"/>
       <use xlink:href="#DejaVuSans-2e" x="63.623047"/>
       <use xlink:href="#DejaVuSans-35" x="95.410156"/>
      </g>
     </g>
    </g>
    <g id="ytick_5">
     <g id="line2d_33">
      <path d="M 72 155.79 
L 518.4 155.79 
" clip-path="url(#p1403827b7b)" style="fill: none; stroke: #b0b0b0; stroke-width: 0.8; stroke-linecap: square"/>
     </g>
     <g id="line2d_34">
      <g>
       <use xlink:href="#m81e19745ad" x="72" y="155.79" style="stroke: #000000; stroke-width: 0.8"/>
      </g>
     </g>
     <g id="text_18">
      <!-- 2.0 -->
      <g transform="translate(49.096875 159.589219) scale(0.1 -0.1)">
       <use xlink:href="#DejaVuSans-32"/>
       <use xlink:href="#DejaVuSans-2e" x="63.623047"/>
       <use xlink:href="#DejaVuSans-30" x="95.410156"/>
      </g>
     </g>
    </g>
    <g id="ytick_6">
     <g id="line2d_35">
      <path d="M 72 103.815 
L 518.4 103.815 
" clip-path="url(#p1403827b7b)" style="fill: none; stroke: #b0b0b0; stroke-width: 0.8; stroke-linecap: square"/>
     </g>
     <g id="line2d_36">
      <g>
       <use xlink:href="#m81e19745ad" x="72" y="103.815" style="stroke: #000000; stroke-width: 0.8"/>
      </g>
     </g>
     <g id="text_19">
      <!-- 2.5 -->
      <g transform="translate(49.096875 107.614219) scale(0.1 -0.1)">
       <use xlink:href="#DejaVuSans-32"/>
       <use xlink:href="#DejaVuSans-2e" x="63.623047"/>
       <use xlink:href="#DejaVuSans-35" x="95.410156"/>
      </g>
     </g>
    </g>
    <g id="ytick_7">
     <g id="line2d_37">
      <path d="M 72 51.84 
L 518.4 51.84 
" clip-path="url(#p1403827b7b)" style="fill: none; stroke: #b0b0b0; stroke-width: 0.8; stroke-linecap: square"/>
     </g>
     <g id="line2d_38">
      <g>
       <use xlink:href="#m81e19745ad" x="72" y="51.84" style="stroke: #000000; stroke-width: 0.8"/>
      </g>
     </g>
     <g id="text_20">
      <!-- 3.0 -->
      <g transform="translate(49.096875 55.639219) scale(0.1 -0.1)">
       <use xlink:href="#DejaVuSans-33"/>
       <use xlink:href="#DejaVuSans-2e" x="63.623047"/>
       <use xlink:href="#DejaVuSans-30" x="95.410156"/>
      </g>
     </g>
    </g>
    <g id="text_21">
     <!-- blank corrected OD600 -->
     <g transform="translate(43.017187 276.115469) rotate(-90) scale(0.1 -0.1)">
      <defs>
       <path id="DejaVuSans-62" d="M 3116 1747 
Q 3116 2381 2855 2742 
Q 2594 3103 2138 3103 
Q 1681 3103 1420 2742 
Q 1159 2381 1159 1747 
Q 1159 1113 1420 752 
Q 1681 391 2138 391 
Q 2594 391 2855 752 
Q 3116 1113 3116 1747 
z
M 1159 2969 
Q 1341 3281 1617 3432 
Q 1894 3584 2278 3584 
Q 2916 3584 3314 3078 
Q 3713 2572 3713 1747 
Q 3713 922 3314 415 
Q 2916 -91 2278 -91 
Q 1894 -91 1617 61 
Q 1341 213 1159 525 
L 1159 0 
L 581 0 
L 581 4863 
L 1159 4863 
L 1159 2969 
z
" transform="scale(0.015625)"/>
       <path id="DejaVuSans-6c" d="M 603 4863 
L 1178 4863 
L 1178 0 
L 603 0 
L 603 4863 
z
" transform="scale(0.015625)"/>
       <path id="DejaVuSans-61" d="M 2194 1759 
Q 1497 1759 1228 1600 
Q 959 1441 959 1056 
Q 959 750 1161 570 
Q 1363 391 1709 391 
Q 2188 391 2477 730 
Q 2766 1069 2766 1631 
L 2766 1759 
L 2194 1759 
z
M 3341 1997 
L 3341 0 
L 2766 0 
L 2766 531 
Q 2569 213 2275 61 
Q 1981 -91 1556 -91 
Q 1019 -91 701 211 
Q 384 513 384 1019 
Q 384 1609 779 1909 
Q 1175 2209 1959 2209 
L 2766 2209 
L 2766 2266 
Q 2766 2663 2505 2880 
Q 2244 3097 1772 3097 
Q 1472 3097 1187 3025 
Q 903 2953 641 2809 
L 641 3341 
Q 956 3463 1253 3523 
Q 1550 3584 1831 3584 
Q 2591 3584 2966 3190 
Q 3341 2797 3341 1997 
z
" transform="scale(0.015625)"/>
       <path id="DejaVuSans-6b" d="M 581 4863 
L 1159 4863 
L 1159 1991 
L 2875 3500 
L 3609 3500 
L 1753 1863 
L 3688 0 
L 2938 0 
L 1159 1709 
L 1159 0 
L 581 0 
L 581 4863 
z
" transform="scale(0.015625)"/>
       <path id="DejaVuSans-63" d="M 3122 3366 
L 3122 2828 
Q 2878 2963 2633 3030 
Q 2388 3097 2138 3097 
Q 1578 3097 1268 2742 
Q 959 2388 959 1747 
Q 959 1106 1268 751 
Q 1578 397 2138 397 
Q 2388 397 2633 464 
Q 2878 531 3122 666 
L 3122 134 
Q 2881 22 2623 -34 
Q 2366 -91 2075 -91 
Q 1284 -91 818 406 
Q 353 903 353 1747 
Q 353 2603 823 3093 
Q 1294 3584 2113 3584 
Q 2378 3584 2631 3529 
Q 2884 3475 3122 3366 
z
" transform="scale(0.015625)"/>
       <path id="DejaVuSans-64" d="M 2906 2969 
L 2906 4863 
L 3481 4863 
L 3481 0 
L 2906 0 
L 2906 525 
Q 2725 213 2448 61 
Q 2172 -91 1784 -91 
Q 1150 -91 751 415 
Q 353 922 353 1747 
Q 353 2572 751 3078 
Q 1150 3584 1784 3584 
Q 2172 3584 2448 3432 
Q 2725 3281 2906 2969 
z
M 947 1747 
Q 947 1113 1208 752 
Q 1469 391 1925 391 
Q 2381 391 2643 752 
Q 2906 1113 2906 1747 
Q 2906 2381 2643 2742 
Q 2381 3103 1925 3103 
Q 1469 3103 1208 2742 
Q 947 2381 947 1747 
z
" transform="scale(0.015625)"/>
       <path id="DejaVuSans-4f" d="M 2522 4238 
Q 1834 4238 1429 3725 
Q 1025 3213 1025 2328 
Q 1025 1447 1429 934 
Q 1834 422 2522 422 
Q 3209 422 3611 934 
Q 4013 1447 4013 2328 
Q 4013 3213 3611 3725 
Q 3209 4238 2522 4238 
z
M 2522 4750 
Q 3503 4750 4090 4092 
Q 4678 3434 4678 2328 
Q 4678 1225 4090 567 
Q 3503 -91 2522 -91 
Q 1538 -91 948 565 
Q 359 1222 359 2328 
Q 359 3434 948 4092 
Q 1538 4750 2522 4750 
z
" transform="scale(0.015625)"/>
       <path id="DejaVuSans-44" d="M 1259 4147 
L 1259 519 
L 2022 519 
Q 2988 519 3436 956 
Q 3884 1394 3884 2338 
Q 3884 3275 3436 3711 
Q 2988 4147 2022 4147 
L 1259 4147 
z
M 628 4666 
L 1925 4666 
Q 3281 4666 3915 4102 
Q 4550 3538 4550 2338 
Q 4550 1131 3912 565 
Q 3275 0 1925 0 
L 628 0 
L 628 4666 
z
" transform="scale(0.015625)"/>
      </defs>
      <use xlink:href="#DejaVuSans-62"/>
      <use xlink:href="#DejaVuSans-6c" x="63.476562"/>
      <use xlink:href="#DejaVuSans-61" x="91.259766"/>
      <use xlink:href="#DejaVuSans-6e" x="152.539062"/>
      <use xlink:href="#DejaVuSans-6b" x="215.917969"/>
      <use xlink:href="#DejaVuSans-20" x="273.828125"/>
      <use xlink:href="#DejaVuSans-63" x="305.615234"/>
      <use xlink:href="#DejaVuSans-6f" x="360.595703"/>
      <use xlink:href="#DejaVuSans-72" x="421.777344"/>
      <use xlink:href="#DejaVuSans-72" x="461.140625"/>
      <use xlink:href="#DejaVuSans-65" x="500.003906"/>
      <use xlink:href="#DejaVuSans-63" x="561.527344"/>
      <use xlink:href="#DejaVuSans-74" x="616.507812"/>
      <use xlink:href="#DejaVuSans-65" x="655.716797"/>
      <use xlink:href="#DejaVuSans-64" x="717.240234"/>
      <use xlink:href="#DejaVuSans-20" x="780.716797"/>
      <use xlink:href="#DejaVuSans-4f" x="812.503906"/>
      <use xlink:href="#DejaVuSans-44" x="891.214844"/>
      <use xlink:href="#DejaVuSans-36" x="968.216797"/>
      <use xlink:href="#DejaVuSans-30" x="1031.839844"/>
      <use xlink:href="#DejaVuSans-30" x="1095.462891"/>
     </g>
    </g>
   </g>
   <g id="line2d_39">
    <path d="M 92.290909 357.66194 
L 93.19878 364.002889 
L 94.10665 364.522639 
L 95.922392 364.62659 
L 96.830262 364.314739 
L 97.738133 364.418689 
L 98.646004 364.73054 
L 99.553874 364.210789 
L 100.461745 364.210789 
L 101.369616 364.62659 
L 102.277486 363.587089 
L 104.093228 364.314739 
L 105.001098 364.210789 
L 105.908969 364.522639 
L 106.81684 363.898939 
L 107.72471 364.522639 
L 108.632581 364.314739 
L 109.540451 364.522639 
L 110.448322 364.418689 
L 111.356193 364.522639 
L 112.264063 364.418689 
L 114.079805 364.522639 
L 114.987675 364.314739 
L 115.895546 364.62659 
L 116.803417 364.62659 
L 117.711287 364.106839 
L 118.619158 364.002889 
L 119.527029 364.106839 
L 120.434899 364.418689 
L 122.250641 364.210789 
L 123.158511 364.314739 
L 124.066382 363.898939 
L 124.974253 363.06734 
L 125.882123 363.898939 
L 126.789994 363.691039 
L 127.697865 364.210789 
L 128.605735 364.210789 
L 129.513606 364.522639 
L 131.329347 364.002889 
L 132.237218 364.62659 
L 133.145088 364.73054 
L 134.052959 364.106839 
L 134.96083 364.002889 
L 135.8687 364.73054 
L 136.776571 364.418689 
L 137.684442 363.275239 
L 138.592312 363.691039 
L 139.500183 363.275239 
L 140.408054 363.17129 
L 141.315924 362.85944 
L 143.131666 363.587089 
L 144.039536 364.314739 
L 144.947407 364.418689 
L 145.855278 363.898939 
L 147.671019 364.314739 
L 148.57889 364.002889 
L 149.48676 364.418689 
L 153.118243 363.587089 
L 154.026113 363.17129 
L 154.933984 362.54759 
L 155.841855 362.96339 
L 156.749725 362.65154 
L 157.657596 362.13179 
L 158.565467 362.75549 
L 159.473337 362.54759 
L 160.381208 363.587089 
L 161.289079 364.002889 
L 162.196949 363.587089 
L 163.10482 363.691039 
L 164.012691 364.106839 
L 164.920561 363.17129 
L 165.828432 363.794989 
L 167.644173 364.106839 
L 168.552044 364.002889 
L 169.459915 363.275239 
L 170.367785 363.275239 
L 172.183527 362.33969 
L 173.091397 361.715989 
L 173.999268 362.44364 
L 174.907138 361.923889 
L 175.815009 361.612039 
L 176.72288 362.85944 
L 177.63075 362.85944 
L 178.538621 363.483139 
L 179.446492 363.06734 
L 181.262233 363.587089 
L 182.170104 363.794989 
L 183.077974 363.483139 
L 184.893716 363.587089 
L 185.801586 363.17129 
L 186.709457 363.794989 
L 187.617328 364.106839 
L 188.525198 363.483139 
L 189.433069 363.587089 
L 190.34094 364.002889 
L 191.24881 363.483139 
L 192.156681 363.691039 
L 193.064552 363.275239 
L 193.972422 363.691039 
L 194.880293 362.85944 
L 195.788164 363.06734 
L 197.603905 363.17129 
L 198.511775 362.85944 
L 199.419646 363.17129 
L 201.235387 361.923889 
L 202.143258 361.715989 
L 203.051129 361.819939 
L 203.958999 362.33969 
L 204.86687 361.819939 
L 206.682611 362.96339 
L 208.498353 363.379189 
L 210.314094 363.275239 
L 211.221965 363.17129 
L 213.037706 363.587089 
L 213.945577 363.483139 
L 214.853447 363.794989 
L 215.761318 363.794989 
L 216.669189 363.587089 
L 217.577059 363.898939 
L 218.48493 363.275239 
L 219.3928 363.691039 
L 220.300671 362.54759 
L 221.208542 363.275239 
L 222.116412 362.23574 
L 223.024283 362.44364 
L 223.932154 362.96339 
L 224.840024 363.17129 
L 225.747895 363.898939 
L 226.655766 364.002889 
L 227.563636 364.314739 
L 229.379378 363.587089 
L 231.195119 363.898939 
L 232.10299 363.587089 
L 233.01086 364.106839 
L 233.918731 363.587089 
L 234.826602 363.691039 
L 235.734472 364.106839 
L 236.642343 363.898939 
L 237.550214 363.483139 
L 238.458084 362.85944 
L 239.365955 363.483139 
L 240.273826 363.17129 
L 241.181696 363.17129 
L 242.997437 364.106839 
L 243.905308 363.898939 
L 244.813179 364.73054 
L 245.721049 364.210789 
L 246.62892 363.898939 
L 248.444661 364.418689 
L 249.352532 364.106839 
L 251.168273 364.002889 
L 252.076144 363.898939 
L 252.984015 364.418689 
L 253.891885 363.691039 
L 254.799756 363.587089 
L 256.615497 363.794989 
L 257.523368 363.691039 
L 258.431239 364.522639 
L 259.339109 364.106839 
L 260.24698 364.93844 
L 261.154851 364.418689 
L 262.970592 364.106839 
L 263.878462 364.418689 
L 264.786333 364.210789 
L 266.602074 364.93844 
L 267.509945 364.522639 
L 268.417816 364.522639 
L 269.325686 365.04239 
L 270.233557 363.898939 
L 271.141428 364.418689 
L 272.049298 364.314739 
L 272.957169 364.73054 
L 274.77291 365.04239 
L 275.680781 364.83449 
L 276.588652 365.45819 
L 277.496522 365.25029 
L 278.404393 364.83449 
L 279.312264 364.73054 
L 280.220134 364.93844 
L 281.128005 364.418689 
L 282.035876 364.93844 
L 283.851617 364.83449 
L 284.759487 365.35424 
L 285.667358 364.106839 
L 286.575229 364.93844 
L 287.483099 364.522639 
L 290.206711 364.73054 
L 291.114582 365.14634 
L 292.022453 364.83449 
L 292.930323 364.93844 
L 293.838194 364.73054 
L 294.746065 365.25029 
L 296.561806 365.25029 
L 297.469677 365.04239 
L 298.377547 365.04239 
L 299.285418 364.62659 
L 300.193289 365.14634 
L 301.101159 365.14634 
L 302.00903 364.83449 
L 302.916901 364.73054 
L 303.824771 364.83449 
L 304.732642 364.314739 
L 306.548383 364.62659 
L 308.364124 365.14634 
L 309.271995 365.35424 
L 310.179866 365.25029 
L 311.087736 365.56214 
L 312.903478 365.45819 
L 313.811348 365.45819 
L 314.719219 364.93844 
L 315.62709 365.45819 
L 316.53496 364.522639 
L 318.350702 365.25029 
L 319.258572 365.04239 
L 320.166443 365.45819 
L 321.074314 365.14634 
L 321.982184 365.873989 
L 322.890055 365.45819 
L 324.705796 365.35424 
L 325.613667 364.93844 
L 326.521538 365.56214 
L 327.429408 365.873989 
L 328.337279 365.56214 
L 331.060891 365.14634 
L 331.968761 365.45819 
L 332.876632 365.04239 
L 333.784503 365.14634 
L 334.692373 365.666089 
L 335.600244 365.25029 
L 337.415985 365.56214 
L 338.323856 365.770039 
L 339.231727 365.25029 
L 340.139597 366.497689 
L 341.047468 365.770039 
L 341.955339 365.666089 
L 342.863209 365.770039 
L 343.77108 365.25029 
L 344.678951 366.393739 
L 345.586821 365.977939 
L 346.494692 365.35424 
L 347.402563 365.770039 
L 348.310433 365.770039 
L 349.218304 365.977939 
L 350.126174 365.35424 
L 351.034045 365.25029 
L 352.849786 365.770039 
L 353.757657 365.977939 
L 354.665528 366.393739 
L 355.573398 365.35424 
L 356.481269 365.873989 
L 358.29701 365.770039 
L 360.112752 366.081889 
L 361.020622 365.56214 
L 362.836364 365.666089 
L 365.559976 366.081889 
L 366.467846 366.289789 
L 367.375717 365.56214 
L 369.191458 365.14634 
L 371.0072 366.289789 
L 371.91507 366.185839 
L 372.822941 366.705589 
L 373.730811 365.873989 
L 374.638682 365.873989 
L 375.546553 366.393739 
L 377.362294 366.289789 
L 378.270165 365.56214 
L 380.085906 366.497689 
L 381.901647 365.977939 
L 382.809518 366.601639 
L 383.717389 366.185839 
L 385.53313 366.081889 
L 386.441001 366.393739 
L 388.256742 366.289789 
L 389.164613 365.04239 
L 390.072483 365.45819 
L 390.980354 365.666089 
L 391.888225 365.666089 
L 392.796095 366.081889 
L 393.703966 365.666089 
L 394.611836 365.666089 
L 396.427578 365.977939 
L 397.335448 365.873989 
L 398.243319 365.56214 
L 399.15119 365.770039 
L 400.05906 366.185839 
L 400.966931 365.873989 
L 401.874802 365.770039 
L 402.782672 364.62659 
L 403.690543 365.873989 
L 404.598414 366.081889 
L 405.506284 365.770039 
L 406.414155 365.977939 
L 407.322026 365.666089 
L 408.229896 366.081889 
L 410.045638 365.873989 
L 410.953508 366.497689 
L 411.861379 366.393739 
L 412.76925 365.977939 
L 413.67712 365.04239 
L 414.584991 365.45819 
L 415.492862 365.56214 
L 416.400732 365.977939 
L 417.308603 365.45819 
L 418.216473 365.873989 
L 419.124344 366.081889 
L 420.032215 365.35424 
L 420.940085 366.289789 
L 421.847956 366.393739 
L 422.755827 366.913489 
L 423.663697 367.01744 
L 424.571568 366.393739 
L 425.479439 366.393739 
L 426.387309 366.601639 
L 428.203051 365.666089 
L 429.110921 366.289789 
L 430.018792 366.705589 
L 430.926663 366.393739 
L 431.834533 366.809539 
L 432.742404 365.977939 
L 433.650275 366.081889 
L 434.558145 365.977939 
L 435.466016 366.185839 
L 436.373887 366.913489 
L 437.281757 366.185839 
L 439.097498 366.081889 
L 440.91324 366.601639 
L 441.82111 366.081889 
L 442.728981 365.770039 
L 444.544722 365.977939 
L 446.360464 365.770039 
L 447.268334 366.289789 
L 448.176205 365.873989 
L 449.084076 366.497689 
L 449.991946 366.393739 
L 450.899817 366.809539 
L 451.807688 366.601639 
L 452.715558 366.185839 
L 453.623429 366.289789 
L 454.5313 366.081889 
L 455.43917 366.185839 
L 456.347041 365.977939 
L 457.254912 366.185839 
L 458.162782 366.081889 
L 459.070653 366.393739 
L 460.886394 366.081889 
L 462.702135 366.185839 
L 463.610006 366.081889 
L 464.517877 366.497689 
L 465.425747 366.185839 
L 467.241489 366.081889 
L 468.149359 366.393739 
L 469.05723 366.185839 
L 469.965101 366.393739 
L 471.780842 366.497689 
L 472.688713 366.185839 
L 473.596583 366.601639 
L 474.504454 366.393739 
L 475.412325 367.01744 
L 476.320195 366.289789 
L 477.228066 366.601639 
L 478.135937 366.601639 
L 479.043807 365.977939 
L 479.951678 366.289789 
L 482.67529 366.185839 
L 483.58316 366.081889 
L 484.491031 365.56214 
L 485.398902 366.289789 
L 486.306772 366.393739 
L 487.214643 366.289789 
L 488.122514 365.770039 
L 489.030384 366.705589 
L 489.938255 366.393739 
L 490.846126 366.289789 
L 491.753996 366.705589 
L 492.661867 366.393739 
L 494.477608 366.289789 
L 495.385479 367.01744 
L 496.29335 366.913489 
L 498.109091 365.770039 
L 498.109091 365.770039 
" clip-path="url(#p1403827b7b)" style="fill: none; stroke: #0000ff; stroke-opacity: 0.5; stroke-width: 1.5; stroke-linecap: square"/>
   </g>
   <g id="line2d_40">
    <path d="M 92.290909 361.819939 
L 93.19878 364.210789 
L 94.10665 364.522639 
L 95.922392 364.62659 
L 96.830262 364.314739 
L 98.646004 364.62659 
L 100.461745 364.314739 
L 101.369616 364.210789 
L 102.277486 364.418689 
L 103.185357 363.898939 
L 104.093228 364.418689 
L 105.001098 364.73054 
L 106.81684 364.210789 
L 108.632581 364.314739 
L 109.540451 364.73054 
L 110.448322 364.314739 
L 111.356193 364.83449 
L 113.171934 364.314739 
L 114.079805 364.62659 
L 116.803417 364.83449 
L 117.711287 364.522639 
L 121.34277 364.522639 
L 122.250641 363.794989 
L 123.158511 363.483139 
L 124.974253 362.23574 
L 125.882123 362.23574 
L 126.789994 361.819939 
L 127.697865 362.13179 
L 128.605735 363.483139 
L 129.513606 364.210789 
L 130.421477 364.418689 
L 131.329347 364.418689 
L 132.237218 364.83449 
L 134.052959 364.522639 
L 134.96083 364.314739 
L 135.8687 364.73054 
L 136.776571 364.002889 
L 137.684442 363.06734 
L 138.592312 362.96339 
L 139.500183 361.715989 
L 140.408054 361.612039 
L 141.315924 361.092289 
L 142.223795 361.300189 
L 143.131666 361.300189 
L 144.039536 361.923889 
L 144.947407 363.275239 
L 146.763148 364.106839 
L 148.57889 364.106839 
L 149.48676 364.522639 
L 151.302502 364.002889 
L 152.210372 363.794989 
L 153.118243 362.96339 
L 154.026113 362.33969 
L 154.933984 361.404139 
L 155.841855 361.612039 
L 156.749725 360.67649 
L 157.657596 360.26069 
L 158.565467 361.092289 
L 159.473337 360.36464 
L 160.381208 361.092289 
L 161.289079 361.508089 
L 162.196949 362.65154 
L 163.10482 364.210789 
L 164.012691 364.002889 
L 164.920561 363.483139 
L 165.828432 364.002889 
L 166.736303 363.794989 
L 167.644173 364.106839 
L 168.552044 363.794989 
L 171.275656 361.923889 
L 172.183527 360.67649 
L 173.091397 360.57254 
L 173.999268 360.05279 
L 175.815009 359.636989 
L 176.72288 359.94884 
L 178.538621 360.15674 
L 179.446492 360.988339 
L 181.262233 363.06734 
L 182.170104 363.379189 
L 183.077974 363.06734 
L 184.893716 363.794989 
L 185.801586 363.587089 
L 186.709457 363.691039 
L 188.525198 363.379189 
L 189.433069 363.794989 
L 190.34094 363.379189 
L 193.972422 363.379189 
L 194.880293 363.587089 
L 195.788164 363.17129 
L 196.696034 363.06734 
L 198.511775 361.715989 
L 199.419646 361.715989 
L 200.327517 360.884389 
L 201.235387 360.36464 
L 202.143258 360.57254 
L 203.051129 359.429089 
L 203.958999 359.636989 
L 204.86687 359.636989 
L 205.774741 359.94884 
L 206.682611 359.740939 
L 207.590482 360.26069 
L 208.498353 361.508089 
L 209.406223 362.13179 
L 210.314094 363.06734 
L 211.221965 363.587089 
L 212.129835 363.691039 
L 213.945577 363.379189 
L 214.853447 363.794989 
L 216.669189 362.75549 
L 218.48493 362.44364 
L 219.3928 362.33969 
L 221.208542 360.780439 
L 222.116412 360.57254 
L 223.024283 360.67649 
L 223.932154 360.36464 
L 224.840024 360.780439 
L 225.747895 361.819939 
L 226.655766 363.275239 
L 227.563636 364.106839 
L 229.379378 363.691039 
L 231.195119 363.587089 
L 232.10299 363.898939 
L 234.826602 363.483139 
L 237.550214 361.612039 
L 238.458084 360.67649 
L 239.365955 360.67649 
L 240.273826 360.26069 
L 241.181696 360.26069 
L 242.089567 360.57254 
L 242.997437 360.57254 
L 243.905308 360.780439 
L 244.813179 361.300189 
L 245.721049 362.54759 
L 247.536791 364.210789 
L 248.444661 364.314739 
L 249.352532 364.002889 
L 250.260403 364.106839 
L 252.984015 362.85944 
L 253.891885 361.819939 
L 254.799756 361.612039 
L 255.707627 361.092289 
L 256.615497 361.092289 
L 257.523368 360.884389 
L 258.431239 360.884389 
L 259.339109 360.67649 
L 260.24698 361.300189 
L 261.154851 362.13179 
L 262.062721 363.794989 
L 262.970592 364.522639 
L 263.878462 364.83449 
L 264.786333 364.210789 
L 266.602074 364.93844 
L 267.509945 363.794989 
L 268.417816 363.794989 
L 269.325686 362.96339 
L 270.233557 362.85944 
L 271.141428 361.508089 
L 272.049298 361.923889 
L 274.77291 362.23574 
L 275.680781 362.13179 
L 276.588652 363.17129 
L 277.496522 364.522639 
L 278.404393 364.93844 
L 279.312264 365.04239 
L 282.035876 364.73054 
L 282.943746 365.04239 
L 286.575229 362.85944 
L 287.483099 362.027839 
L 288.39097 361.612039 
L 289.298841 362.23574 
L 290.206711 360.988339 
L 291.114582 360.780439 
L 292.022453 361.092289 
L 292.930323 360.988339 
L 293.838194 362.13179 
L 294.746065 362.75549 
L 295.653935 364.418689 
L 296.561806 364.73054 
L 297.469677 364.83449 
L 298.377547 365.25029 
L 299.285418 365.04239 
L 300.193289 364.210789 
L 301.101159 364.314739 
L 302.00903 363.691039 
L 302.916901 362.75549 
L 303.824771 362.44364 
L 304.732642 361.819939 
L 305.640513 361.404139 
L 308.364124 361.092289 
L 309.271995 361.404139 
L 310.179866 361.300189 
L 311.087736 362.027839 
L 311.995607 362.96339 
L 313.811348 365.35424 
L 315.62709 364.522639 
L 317.442831 364.106839 
L 318.350702 363.691039 
L 319.258572 363.691039 
L 321.074314 362.96339 
L 321.982184 363.379189 
L 322.890055 364.002889 
L 323.797926 365.56214 
L 324.705796 365.04239 
L 325.613667 364.93844 
L 326.521538 365.873989 
L 327.429408 365.45819 
L 329.245149 365.666089 
L 331.968761 363.379189 
L 332.876632 362.54759 
L 333.784503 362.33969 
L 334.692373 361.404139 
L 336.508115 360.780439 
L 337.415985 361.404139 
L 338.323856 361.300189 
L 339.231727 360.67649 
L 340.139597 361.508089 
L 341.047468 361.715989 
L 341.955339 362.23574 
L 342.863209 363.794989 
L 343.77108 364.314739 
L 344.678951 365.14634 
L 345.586821 365.56214 
L 346.494692 365.770039 
L 347.402563 365.45819 
L 348.310433 364.73054 
L 349.218304 364.314739 
L 350.126174 363.587089 
L 352.849786 361.923889 
L 354.665528 361.923889 
L 356.481269 362.54759 
L 357.38914 361.612039 
L 358.29701 362.65154 
L 359.204881 362.75549 
L 360.112752 364.522639 
L 361.020622 365.35424 
L 361.928493 365.873989 
L 362.836364 365.666089 
L 363.744234 366.289789 
L 364.652105 365.56214 
L 366.467846 365.770039 
L 367.375717 365.04239 
L 368.283588 363.898939 
L 369.191458 363.06734 
L 370.099329 362.54759 
L 371.0072 362.75549 
L 371.91507 361.923889 
L 372.822941 362.33969 
L 376.454423 362.23574 
L 378.270165 362.96339 
L 380.085906 364.73054 
L 380.993777 365.45819 
L 382.809518 365.770039 
L 383.717389 366.185839 
L 384.625259 366.185839 
L 385.53313 365.666089 
L 386.441001 365.35424 
L 388.256742 363.587089 
L 389.164613 362.44364 
L 390.072483 362.44364 
L 391.888225 361.300189 
L 392.796095 361.300189 
L 393.703966 361.508089 
L 395.519707 361.196239 
L 396.427578 361.612039 
L 397.335448 361.196239 
L 398.243319 361.404139 
L 399.15119 362.027839 
L 400.05906 362.13179 
L 400.966931 363.06734 
L 402.782672 364.002889 
L 403.690543 363.898939 
L 404.598414 365.04239 
L 405.506284 365.770039 
L 406.414155 366.185839 
L 407.322026 366.289789 
L 408.229896 366.081889 
L 409.137767 366.081889 
L 411.861379 365.56214 
L 412.76925 364.314739 
L 413.67712 363.898939 
L 414.584991 362.33969 
L 415.492862 362.33969 
L 416.400732 361.612039 
L 417.308603 361.300189 
L 418.216473 361.508089 
L 419.124344 361.404139 
L 420.032215 360.884389 
L 420.940085 361.092289 
L 423.663697 362.75549 
L 424.571568 362.85944 
L 425.479439 363.379189 
L 426.387309 365.04239 
L 427.29518 365.666089 
L 429.110921 365.56214 
L 430.018792 366.497689 
L 430.926663 366.289789 
L 431.834533 366.601639 
L 432.742404 366.185839 
L 433.650275 365.25029 
L 434.558145 365.977939 
L 437.281757 365.977939 
L 438.189628 365.04239 
L 439.097498 365.35424 
L 440.005369 364.83449 
L 441.82111 363.06734 
L 442.728981 362.44364 
L 443.636852 362.54759 
L 444.544722 361.819939 
L 445.452593 362.54759 
L 446.360464 361.819939 
L 447.268334 362.23574 
L 448.176205 361.715989 
L 450.899817 363.17129 
L 451.807688 363.379189 
L 452.715558 363.898939 
L 453.623429 365.35424 
L 454.5313 366.185839 
L 455.43917 366.497689 
L 456.347041 366.393739 
L 457.254912 366.705589 
L 459.070653 366.289789 
L 460.886394 366.601639 
L 461.794265 366.289789 
L 462.702135 366.393739 
L 463.610006 366.289789 
L 464.517877 366.601639 
L 465.425747 365.666089 
L 466.333618 365.770039 
L 467.241489 366.289789 
L 468.149359 366.289789 
L 469.05723 365.56214 
L 469.965101 365.770039 
L 470.872971 366.393739 
L 471.780842 365.873989 
L 472.688713 366.081889 
L 473.596583 365.977939 
L 474.504454 366.705589 
L 476.320195 366.289789 
L 477.228066 365.873989 
L 478.135937 366.601639 
L 479.951678 366.289789 
L 480.859549 365.770039 
L 481.767419 366.497689 
L 482.67529 365.770039 
L 483.58316 365.977939 
L 484.491031 365.56214 
L 485.398902 365.977939 
L 486.306772 365.977939 
L 487.214643 366.185839 
L 488.122514 365.873989 
L 489.030384 366.289789 
L 489.938255 366.497689 
L 490.846126 365.666089 
L 491.753996 366.289789 
L 492.661867 365.25029 
L 493.569738 365.25029 
L 494.477608 365.770039 
L 495.385479 365.666089 
L 496.29335 366.289789 
L 498.109091 365.14634 
L 498.109091 365.14634 
" clip-path="url(#p1403827b7b)" style="fill: none; stroke: #0000ff; stroke-opacity: 0.5; stroke-width: 1.5; stroke-linecap: square"/>
   </g>
   <g id="line2d_41">
    <path d="M 92.290909 361.092289 
L 93.19878 364.73054 
L 94.10665 364.93844 
L 95.014521 364.73054 
L 96.830262 364.83449 
L 97.738133 364.83449 
L 98.646004 364.62659 
L 99.553874 365.14634 
L 100.461745 364.73054 
L 103.185357 364.62659 
L 104.093228 364.93844 
L 107.72471 364.62659 
L 108.632581 364.73054 
L 109.540451 365.14634 
L 110.448322 364.522639 
L 111.356193 364.83449 
L 112.264063 364.73054 
L 113.171934 364.93844 
L 114.987675 364.93844 
L 115.895546 365.14634 
L 118.619158 364.83449 
L 119.527029 364.93844 
L 120.434899 365.25029 
L 121.34277 365.14634 
L 122.250641 365.25029 
L 123.158511 364.106839 
L 124.066382 364.522639 
L 124.974253 363.898939 
L 125.882123 363.898939 
L 128.605735 365.14634 
L 131.329347 364.62659 
L 133.145088 364.93844 
L 134.052959 365.14634 
L 134.96083 364.73054 
L 136.776571 364.83449 
L 137.684442 363.898939 
L 139.500183 363.06734 
L 140.408054 362.85944 
L 141.315924 362.96339 
L 142.223795 362.54759 
L 143.131666 363.587089 
L 144.039536 363.794989 
L 144.947407 364.522639 
L 145.855278 364.73054 
L 146.763148 364.62659 
L 147.671019 364.93844 
L 150.394631 364.314739 
L 151.302502 364.62659 
L 152.210372 364.210789 
L 153.118243 364.002889 
L 154.026113 363.587089 
L 154.933984 362.85944 
L 157.657596 362.33969 
L 158.565467 362.54759 
L 159.473337 362.027839 
L 160.381208 363.06734 
L 161.289079 364.314739 
L 162.196949 364.002889 
L 163.10482 364.418689 
L 164.012691 364.210789 
L 164.920561 363.794989 
L 165.828432 363.691039 
L 166.736303 364.314739 
L 168.552044 364.314739 
L 169.459915 364.002889 
L 170.367785 363.17129 
L 172.183527 362.44364 
L 173.091397 362.23574 
L 173.999268 361.612039 
L 174.907138 361.819939 
L 175.815009 361.196239 
L 176.72288 361.508089 
L 177.63075 362.027839 
L 178.538621 362.85944 
L 180.354362 364.002889 
L 181.262233 364.106839 
L 182.170104 363.691039 
L 183.985845 364.002889 
L 184.893716 363.794989 
L 185.801586 363.898939 
L 186.709457 364.210789 
L 188.525198 363.691039 
L 189.433069 363.379189 
L 190.34094 364.106839 
L 191.24881 364.314739 
L 192.156681 364.002889 
L 194.880293 363.794989 
L 195.788164 363.379189 
L 196.696034 363.794989 
L 197.603905 363.06734 
L 198.511775 362.75549 
L 199.419646 363.275239 
L 200.327517 362.33969 
L 201.235387 362.027839 
L 202.143258 362.027839 
L 203.051129 361.404139 
L 203.958999 361.715989 
L 204.86687 361.508089 
L 205.774741 361.612039 
L 206.682611 362.96339 
L 208.498353 364.314739 
L 210.314094 364.002889 
L 213.037706 363.794989 
L 213.945577 364.314739 
L 214.853447 364.002889 
L 215.761318 364.106839 
L 216.669189 363.898939 
L 217.577059 363.898939 
L 218.48493 363.691039 
L 220.300671 362.75549 
L 221.208542 362.23574 
L 223.024283 362.13179 
L 225.747895 364.002889 
L 226.655766 363.691039 
L 227.563636 364.210789 
L 228.471507 363.794989 
L 230.287248 364.210789 
L 231.195119 364.210789 
L 232.10299 364.522639 
L 233.01086 364.210789 
L 233.918731 364.62659 
L 236.642343 363.379189 
L 237.550214 362.44364 
L 238.458084 362.54759 
L 239.365955 362.23574 
L 242.089567 361.819939 
L 242.997437 362.54759 
L 243.905308 363.587089 
L 244.813179 364.210789 
L 245.721049 364.210789 
L 246.62892 364.83449 
L 247.536791 364.62659 
L 249.352532 364.83449 
L 251.168273 364.314739 
L 252.076144 363.794989 
L 252.984015 364.106839 
L 253.891885 363.06734 
L 254.799756 362.96339 
L 255.707627 362.65154 
L 256.615497 362.54759 
L 257.523368 362.75549 
L 258.431239 362.54759 
L 259.339109 363.275239 
L 260.24698 363.691039 
L 261.154851 364.83449 
L 262.062721 364.314739 
L 262.970592 365.14634 
L 263.878462 364.93844 
L 264.786333 364.314739 
L 265.694204 364.93844 
L 267.509945 364.418689 
L 268.417816 363.794989 
L 269.325686 364.002889 
L 270.233557 363.379189 
L 271.141428 363.17129 
L 272.049298 363.275239 
L 272.957169 363.17129 
L 273.86504 362.75549 
L 274.77291 363.275239 
L 275.680781 364.62659 
L 276.588652 365.25029 
L 278.404393 364.93844 
L 279.312264 365.25029 
L 280.220134 364.83449 
L 281.128005 365.666089 
L 282.943746 365.25029 
L 283.851617 364.83449 
L 284.759487 364.83449 
L 285.667358 364.314739 
L 286.575229 363.483139 
L 287.483099 363.483139 
L 288.39097 362.85944 
L 289.298841 363.06734 
L 290.206711 362.96339 
L 291.114582 362.44364 
L 293.838194 363.898939 
L 294.746065 364.73054 
L 296.561806 365.56214 
L 297.469677 365.14634 
L 298.377547 365.25029 
L 299.285418 365.56214 
L 300.193289 365.14634 
L 301.101159 365.14634 
L 302.00903 364.314739 
L 302.916901 364.210789 
L 303.824771 363.587089 
L 304.732642 363.275239 
L 305.640513 362.65154 
L 306.548383 362.65154 
L 307.456254 362.96339 
L 308.364124 362.96339 
L 309.271995 363.587089 
L 310.179866 363.898939 
L 311.087736 364.93844 
L 311.995607 365.35424 
L 313.811348 365.666089 
L 314.719219 365.25029 
L 315.62709 365.666089 
L 316.53496 364.93844 
L 317.442831 365.14634 
L 318.350702 364.522639 
L 321.074314 364.73054 
L 321.982184 365.25029 
L 322.890055 365.977939 
L 323.797926 365.873989 
L 325.613667 366.393739 
L 326.521538 365.873989 
L 327.429408 366.289789 
L 328.337279 366.393739 
L 329.245149 365.770039 
L 330.15302 365.873989 
L 331.060891 364.83449 
L 332.876632 363.483139 
L 333.784503 363.691039 
L 334.692373 362.75549 
L 335.600244 363.275239 
L 336.508115 362.44364 
L 337.415985 362.96339 
L 339.231727 363.275239 
L 340.139597 363.691039 
L 341.047468 364.83449 
L 342.863209 366.289789 
L 343.77108 366.497689 
L 344.678951 365.873989 
L 345.586821 365.873989 
L 346.494692 366.289789 
L 348.310433 365.45819 
L 349.218304 365.770039 
L 350.126174 365.25029 
L 351.034045 364.418689 
L 352.849786 363.691039 
L 353.757657 364.002889 
L 354.665528 364.106839 
L 355.573398 364.418689 
L 356.481269 364.93844 
L 358.29701 365.45819 
L 359.204881 365.977939 
L 360.112752 366.081889 
L 361.020622 365.977939 
L 361.928493 366.601639 
L 362.836364 366.497689 
L 363.744234 366.705589 
L 365.559976 366.497689 
L 366.467846 366.705589 
L 367.375717 365.35424 
L 368.283588 364.83449 
L 369.191458 364.002889 
L 370.099329 363.691039 
L 371.0072 363.898939 
L 371.91507 363.483139 
L 372.822941 363.483139 
L 373.730811 363.691039 
L 374.638682 363.483139 
L 375.546553 364.210789 
L 376.454423 364.73054 
L 378.270165 366.289789 
L 381.901647 365.977939 
L 382.809518 366.185839 
L 384.625259 366.081889 
L 385.53313 366.393739 
L 386.441001 365.977939 
L 387.348871 365.35424 
L 388.256742 364.418689 
L 390.072483 363.483139 
L 390.980354 363.691039 
L 391.888225 363.275239 
L 392.796095 362.33969 
L 395.519707 363.379189 
L 396.427578 363.17129 
L 397.335448 364.002889 
L 398.243319 364.62659 
L 400.05906 365.35424 
L 400.966931 365.977939 
L 401.874802 365.873989 
L 402.782672 365.977939 
L 403.690543 366.497689 
L 404.598414 366.393739 
L 405.506284 366.913489 
L 406.414155 366.809539 
L 408.229896 366.185839 
L 409.137767 367.12139 
L 410.045638 366.601639 
L 410.953508 366.289789 
L 411.861379 366.809539 
L 412.76925 365.14634 
L 413.67712 364.83449 
L 414.584991 364.002889 
L 415.492862 364.314739 
L 416.400732 363.691039 
L 418.216473 363.17129 
L 419.124344 363.691039 
L 420.032215 363.587089 
L 420.940085 363.794989 
L 421.847956 364.522639 
L 422.755827 364.62659 
L 423.663697 366.185839 
L 424.571568 366.185839 
L 425.479439 366.393739 
L 427.29518 367.12139 
L 428.203051 366.393739 
L 429.110921 366.913489 
L 430.018792 367.12139 
L 433.650275 366.601639 
L 434.558145 367.01744 
L 435.466016 366.497689 
L 436.373887 366.913489 
L 437.281757 366.705589 
L 439.097498 366.601639 
L 440.005369 365.770039 
L 441.82111 365.04239 
L 442.728981 364.002889 
L 443.636852 364.418689 
L 444.544722 364.210789 
L 445.452593 363.794989 
L 446.360464 364.314739 
L 447.268334 363.898939 
L 448.176205 364.002889 
L 449.991946 364.83449 
L 450.899817 366.081889 
L 451.807688 365.770039 
L 453.623429 367.22534 
L 454.5313 367.12139 
L 455.43917 366.601639 
L 456.347041 367.32929 
L 457.254912 367.32929 
L 458.162782 367.12139 
L 459.070653 367.32929 
L 459.978523 366.705589 
L 460.886394 366.913489 
L 461.794265 366.393739 
L 462.702135 366.913489 
L 463.610006 366.497689 
L 464.517877 367.01744 
L 465.425747 366.705589 
L 466.333618 367.01744 
L 467.241489 366.497689 
L 468.149359 367.01744 
L 469.05723 366.185839 
L 469.965101 366.913489 
L 470.872971 367.01744 
L 471.780842 366.809539 
L 472.688713 366.809539 
L 473.596583 367.53719 
L 474.504454 367.43324 
L 475.412325 366.705589 
L 476.320195 367.22534 
L 477.228066 367.12139 
L 478.135937 366.705589 
L 479.043807 367.01744 
L 479.951678 366.289789 
L 480.859549 366.809539 
L 481.767419 366.497689 
L 482.67529 367.32929 
L 483.58316 366.913489 
L 484.491031 367.22534 
L 485.398902 366.809539 
L 486.306772 367.01744 
L 487.214643 366.809539 
L 488.122514 366.809539 
L 489.030384 367.01744 
L 489.938255 366.705589 
L 490.846126 367.53719 
L 491.753996 366.809539 
L 492.661867 366.705589 
L 493.569738 367.32929 
L 494.477608 366.601639 
L 495.385479 367.32929 
L 496.29335 367.12139 
L 497.20122 367.32929 
L 498.109091 367.22534 
L 498.109091 367.22534 
" clip-path="url(#p1403827b7b)" style="fill: none; stroke: #0000ff; stroke-opacity: 0.5; stroke-width: 1.5; stroke-linecap: square"/>
   </g>
   <g id="line2d_42">
    <path d="M 92.290909 360.05279 
L 93.19878 364.93844 
L 94.10665 365.25029 
L 95.014521 365.04239 
L 95.922392 365.14634 
L 96.830262 365.04239 
L 97.738133 365.35424 
L 98.646004 365.25029 
L 99.553874 364.93844 
L 100.461745 365.35424 
L 101.369616 365.35424 
L 102.277486 365.04239 
L 103.185357 365.35424 
L 105.001098 365.14634 
L 105.908969 365.25029 
L 106.81684 365.04239 
L 107.72471 365.25029 
L 108.632581 365.14634 
L 109.540451 365.45819 
L 110.448322 365.35424 
L 111.356193 365.04239 
L 112.264063 365.25029 
L 113.171934 365.04239 
L 114.079805 365.35424 
L 114.987675 365.14634 
L 115.895546 365.35424 
L 119.527029 365.45819 
L 120.434899 365.14634 
L 122.250641 364.83449 
L 123.158511 365.04239 
L 124.974253 364.522639 
L 126.789994 365.04239 
L 128.605735 364.93844 
L 129.513606 365.35424 
L 130.421477 364.93844 
L 131.329347 365.35424 
L 132.237218 365.35424 
L 134.052959 365.04239 
L 136.776571 364.93844 
L 138.592312 364.210789 
L 140.408054 363.06734 
L 141.315924 363.06734 
L 142.223795 363.379189 
L 143.131666 364.418689 
L 144.039536 364.83449 
L 144.947407 364.73054 
L 146.763148 364.93844 
L 148.57889 364.73054 
L 149.48676 365.04239 
L 150.394631 364.73054 
L 153.118243 364.314739 
L 154.933984 363.17129 
L 156.749725 362.44364 
L 157.657596 362.23574 
L 158.565467 362.23574 
L 159.473337 362.85944 
L 160.381208 363.794989 
L 161.289079 364.522639 
L 162.196949 364.73054 
L 163.10482 364.418689 
L 164.012691 364.62659 
L 164.920561 364.210789 
L 165.828432 364.522639 
L 166.736303 364.210789 
L 167.644173 364.314739 
L 170.367785 363.587089 
L 172.183527 362.54759 
L 173.091397 362.23574 
L 173.999268 362.44364 
L 174.907138 362.027839 
L 176.72288 362.65154 
L 178.538621 364.210789 
L 179.446492 364.418689 
L 181.262233 363.898939 
L 182.170104 364.106839 
L 183.077974 363.898939 
L 183.985845 363.898939 
L 184.893716 363.17129 
L 185.801586 363.794989 
L 186.709457 364.106839 
L 188.525198 363.691039 
L 189.433069 364.314739 
L 190.34094 363.898939 
L 196.696034 363.794989 
L 197.603905 363.691039 
L 198.511775 363.379189 
L 199.419646 363.691039 
L 200.327517 363.06734 
L 202.143258 362.13179 
L 203.051129 362.54759 
L 204.86687 362.54759 
L 205.774741 363.483139 
L 206.682611 364.002889 
L 208.498353 363.898939 
L 211.221965 364.002889 
L 213.037706 364.418689 
L 213.945577 364.002889 
L 214.853447 364.314739 
L 215.761318 364.106839 
L 216.669189 363.587089 
L 217.577059 364.314739 
L 218.48493 364.002889 
L 219.3928 363.898939 
L 220.300671 362.96339 
L 221.208542 362.96339 
L 222.116412 362.33969 
L 223.024283 362.23574 
L 223.932154 362.85944 
L 224.840024 363.898939 
L 225.747895 364.314739 
L 226.655766 364.418689 
L 227.563636 364.314739 
L 228.471507 364.62659 
L 229.379378 363.898939 
L 230.287248 364.314739 
L 233.918731 364.314739 
L 234.826602 363.794989 
L 235.734472 364.314739 
L 236.642343 363.691039 
L 237.550214 363.275239 
L 238.458084 362.44364 
L 240.273826 362.33969 
L 241.181696 362.65154 
L 242.089567 363.275239 
L 242.997437 364.314739 
L 245.721049 364.522639 
L 246.62892 364.106839 
L 247.536791 364.73054 
L 248.444661 364.83449 
L 249.352532 364.522639 
L 250.260403 364.83449 
L 252.076144 364.106839 
L 252.984015 364.002889 
L 253.891885 363.17129 
L 255.707627 362.96339 
L 256.615497 362.54759 
L 257.523368 362.75549 
L 258.431239 363.379189 
L 259.339109 364.522639 
L 260.24698 365.25029 
L 261.154851 364.93844 
L 262.062721 365.45819 
L 262.970592 364.83449 
L 264.786333 364.93844 
L 265.694204 365.35424 
L 266.602074 365.35424 
L 267.509945 364.93844 
L 268.417816 364.83449 
L 269.325686 364.210789 
L 270.233557 364.106839 
L 272.049298 363.587089 
L 272.957169 363.691039 
L 273.86504 364.002889 
L 274.77291 364.93844 
L 276.588652 365.666089 
L 277.496522 365.25029 
L 278.404393 365.666089 
L 280.220134 365.25029 
L 282.943746 365.25029 
L 283.851617 365.666089 
L 285.667358 364.418689 
L 287.483099 363.483139 
L 288.39097 363.379189 
L 289.298841 362.85944 
L 290.206711 363.379189 
L 291.114582 363.691039 
L 292.022453 363.691039 
L 292.930323 365.14634 
L 293.838194 365.45819 
L 296.561806 365.666089 
L 297.469677 365.56214 
L 298.377547 365.977939 
L 299.285418 365.56214 
L 300.193289 365.35424 
L 301.101159 365.56214 
L 302.00903 364.62659 
L 302.916901 364.106839 
L 303.824771 364.106839 
L 304.732642 363.691039 
L 305.640513 363.06734 
L 306.548383 363.379189 
L 307.456254 363.06734 
L 310.179866 365.56214 
L 311.087736 365.873989 
L 312.903478 366.081889 
L 313.811348 365.977939 
L 314.719219 365.666089 
L 315.62709 365.977939 
L 316.53496 365.04239 
L 317.442831 365.14634 
L 318.350702 365.56214 
L 320.166443 365.45819 
L 321.982184 366.081889 
L 322.890055 365.873989 
L 323.797926 365.977939 
L 324.705796 365.770039 
L 325.613667 365.977939 
L 326.521538 365.873989 
L 327.429408 366.081889 
L 329.245149 366.081889 
L 330.15302 365.35424 
L 331.060891 365.14634 
L 331.968761 364.62659 
L 332.876632 363.898939 
L 335.600244 363.06734 
L 336.508115 363.06734 
L 337.415985 362.75549 
L 338.323856 363.483139 
L 339.231727 363.898939 
L 340.139597 365.35424 
L 341.047468 366.289789 
L 341.955339 366.081889 
L 342.863209 366.497689 
L 343.77108 366.081889 
L 344.678951 366.289789 
L 345.586821 366.289789 
L 347.402563 365.977939 
L 348.310433 365.977939 
L 351.034045 364.83449 
L 352.849786 364.106839 
L 353.757657 364.210789 
L 354.665528 364.522639 
L 355.573398 365.04239 
L 356.481269 365.977939 
L 357.38914 365.977939 
L 358.29701 366.393739 
L 359.204881 365.977939 
L 360.112752 366.601639 
L 361.928493 366.289789 
L 362.836364 366.497689 
L 363.744234 365.977939 
L 364.652105 366.081889 
L 365.559976 365.873989 
L 366.467846 366.081889 
L 369.191458 364.314739 
L 370.099329 364.106839 
L 371.0072 364.210789 
L 371.91507 363.794989 
L 373.730811 364.314739 
L 374.638682 364.83449 
L 375.546553 365.977939 
L 376.454423 366.393739 
L 378.270165 366.185839 
L 380.993777 366.393739 
L 381.901647 366.185839 
L 384.625259 366.497689 
L 386.441001 365.977939 
L 387.348871 365.25029 
L 388.256742 365.04239 
L 389.164613 364.210789 
L 390.072483 363.794989 
L 390.980354 362.54759 
L 391.888225 363.379189 
L 393.703966 363.06734 
L 395.519707 363.691039 
L 396.427578 363.794989 
L 397.335448 364.93844 
L 399.15119 366.185839 
L 400.05906 366.393739 
L 401.874802 366.289789 
L 402.782672 366.497689 
L 403.690543 366.185839 
L 404.598414 366.497689 
L 405.506284 366.497689 
L 406.414155 366.705589 
L 408.229896 366.601639 
L 409.137767 366.393739 
L 410.045638 366.601639 
L 410.953508 366.497689 
L 411.861379 366.601639 
L 412.76925 365.770039 
L 413.67712 365.25029 
L 414.584991 364.418689 
L 415.492862 363.898939 
L 416.400732 364.002889 
L 417.308603 363.483139 
L 418.216473 363.898939 
L 420.032215 363.794989 
L 420.940085 365.25029 
L 421.847956 366.185839 
L 422.755827 366.913489 
L 423.663697 366.809539 
L 424.571568 366.913489 
L 425.479439 366.809539 
L 426.387309 366.913489 
L 427.29518 366.601639 
L 428.203051 366.497689 
L 429.110921 366.705589 
L 430.018792 366.601639 
L 431.834533 367.01744 
L 432.742404 366.913489 
L 433.650275 366.601639 
L 435.466016 366.705589 
L 437.281757 366.809539 
L 438.189628 366.601639 
L 439.097498 366.601639 
L 441.82111 364.83449 
L 442.728981 364.314739 
L 443.636852 364.314739 
L 444.544722 364.106839 
L 445.452593 363.691039 
L 446.360464 364.002889 
L 447.268334 364.106839 
L 448.176205 364.522639 
L 449.084076 365.35424 
L 449.991946 366.705589 
L 455.43917 366.705589 
L 456.347041 367.12139 
L 458.162782 366.705589 
L 459.978523 367.01744 
L 463.610006 366.497689 
L 465.425747 367.12139 
L 466.333618 366.809539 
L 467.241489 367.32929 
L 468.149359 366.601639 
L 469.05723 366.809539 
L 469.965101 366.705589 
L 471.780842 366.809539 
L 472.688713 366.809539 
L 473.596583 366.497689 
L 474.504454 366.601639 
L 475.412325 366.913489 
L 476.320195 366.809539 
L 478.135937 367.01744 
L 481.767419 366.601639 
L 482.67529 366.913489 
L 483.58316 366.705589 
L 484.491031 367.01744 
L 486.306772 367.01744 
L 488.122514 366.705589 
L 489.030384 367.12139 
L 490.846126 366.809539 
L 492.661867 367.22534 
L 493.569738 366.809539 
L 494.477608 367.43324 
L 495.385479 366.497689 
L 496.29335 367.01744 
L 497.20122 366.913489 
L 498.109091 367.01744 
L 498.109091 367.01744 
" clip-path="url(#p1403827b7b)" style="fill: none; stroke: #0000ff; stroke-opacity: 0.5; stroke-width: 1.5; stroke-linecap: square"/>
   </g>
   <g id="LineCollection_1">
    <path d="M 92.290909 361.971156 
L 92.290909 358.342323 
" clip-path="url(#p1403827b7b)" style="fill: none; stroke: #ff0000; stroke-width: 1.5"/>
    <path d="M 128.605735 365.200849 
L 128.605735 363.688505 
" clip-path="url(#p1403827b7b)" style="fill: none; stroke: #ff0000; stroke-width: 1.5"/>
    <path d="M 164.920561 364.109127 
L 164.920561 363.220977 
" clip-path="url(#p1403827b7b)" style="fill: none; stroke: #ff0000; stroke-width: 1.5"/>
    <path d="M 201.235387 362.714803 
L 201.235387 360.769151 
" clip-path="url(#p1403827b7b)" style="fill: none; stroke: #ff0000; stroke-width: 1.5"/>
    <path d="M 237.550214 363.558605 
L 237.550214 361.848424 
" clip-path="url(#p1403827b7b)" style="fill: none; stroke: #ff0000; stroke-width: 1.5"/>
    <path d="M 273.86504 364.725332 
L 273.86504 362.136997 
" clip-path="url(#p1403827b7b)" style="fill: none; stroke: #ff0000; stroke-width: 1.5"/>
    <path d="M 310.179866 365.943908 
L 310.179866 362.061871 
" clip-path="url(#p1403827b7b)" style="fill: none; stroke: #ff0000; stroke-width: 1.5"/>
    <path d="M 346.494692 366.281035 
L 346.494692 365.466944 
" clip-path="url(#p1403827b7b)" style="fill: none; stroke: #ff0000; stroke-width: 1.5"/>
    <path d="M 382.809518 366.555282 
L 382.809518 365.868372 
" clip-path="url(#p1403827b7b)" style="fill: none; stroke: #ff0000; stroke-width: 1.5"/>
    <path d="M 419.124344 365.653169 
L 419.124344 361.83286 
" clip-path="url(#p1403827b7b)" style="fill: none; stroke: #ff0000; stroke-width: 1.5"/>
    <path d="M 455.43917 366.722247 
L 455.43917 366.273132 
" clip-path="url(#p1403827b7b)" style="fill: none; stroke: #ff0000; stroke-width: 1.5"/>
    <path d="M 491.753996 367.01161 
L 491.753996 366.399569 
" clip-path="url(#p1403827b7b)" style="fill: none; stroke: #ff0000; stroke-width: 1.5"/>
   </g>
   <g id="line2d_43">
    <defs>
     <path id="m1adbd8e8f0" d="M 5 0 
L -5 -0 
" style="stroke: #ff0000"/>
    </defs>
    <g clip-path="url(#p1403827b7b)">
     <use xlink:href="#m1adbd8e8f0" x="92.290909" y="361.971156" style="fill: #ff0000; stroke: #ff0000"/>
     <use xlink:href="#m1adbd8e8f0" x="128.605735" y="365.200849" style="fill: #ff0000; stroke: #ff0000"/>
     <use xlink:href="#m1adbd8e8f0" x="164.920561" y="364.109127" style="fill: #ff0000; stroke: #ff0000"/>
     <use xlink:href="#m1adbd8e8f0" x="201.235387" y="362.714803" style="fill: #ff0000; stroke: #ff0000"/>
     <use xlink:href="#m1adbd8e8f0" x="237.550214" y="363.558605" style="fill: #ff0000; stroke: #ff0000"/>
     <use xlink:href="#m1adbd8e8f0" x="273.86504" y="364.725332" style="fill: #ff0000; stroke: #ff0000"/>
     <use xlink:href="#m1adbd8e8f0" x="310.179866" y="365.943908" style="fill: #ff0000; stroke: #ff0000"/>
     <use xlink:href="#m1adbd8e8f0" x="346.494692" y="366.281035" style="fill: #ff0000; stroke: #ff0000"/>
     <use xlink:href="#m1adbd8e8f0" x="382.809518" y="366.555282" style="fill: #ff0000; stroke: #ff0000"/>
     <use xlink:href="#m1adbd8e8f0" x="419.124344" y="365.653169" style="fill: #ff0000; stroke: #ff0000"/>
     <use xlink:href="#m1adbd8e8f0" x="455.43917" y="366.722247" style="fill: #ff0000; stroke: #ff0000"/>
     <use xlink:href="#m1adbd8e8f0" x="491.753996" y="367.01161" style="fill: #ff0000; stroke: #ff0000"/>
    </g>
   </g>
   <g id="line2d_44">
    <g clip-path="url(#p1403827b7b)">
     <use xlink:href="#m1adbd8e8f0" x="92.290909" y="358.342323" style="fill: #ff0000; stroke: #ff0000"/>
     <use xlink:href="#m1adbd8e8f0" x="128.605735" y="363.688505" style="fill: #ff0000; stroke: #ff0000"/>
     <use xlink:href="#m1adbd8e8f0" x="164.920561" y="363.220977" style="fill: #ff0000; stroke: #ff0000"/>
     <use xlink:href="#m1adbd8e8f0" x="201.235387" y="360.769151" style="fill: #ff0000; stroke: #ff0000"/>
     <use xlink:href="#m1adbd8e8f0" x="237.550214" y="361.848424" style="fill: #ff0000; stroke: #ff0000"/>
     <use xlink:href="#m1adbd8e8f0" x="273.86504" y="362.136997" style="fill: #ff0000; stroke: #ff0000"/>
     <use xlink:href="#m1adbd8e8f0" x="310.179866" y="362.061871" style="fill: #ff0000; stroke: #ff0000"/>
     <use xlink:href="#m1adbd8e8f0" x="346.494692" y="365.466944" style="fill: #ff0000; stroke: #ff0000"/>
     <use xlink:href="#m1adbd8e8f0" x="382.809518" y="365.868372" style="fill: #ff0000; stroke: #ff0000"/>
     <use xlink:href="#m1adbd8e8f0" x="419.124344" y="361.83286" style="fill: #ff0000; stroke: #ff0000"/>
     <use xlink:href="#m1adbd8e8f0" x="455.43917" y="366.273132" style="fill: #ff0000; stroke: #ff0000"/>
     <use xlink:href="#m1adbd8e8f0" x="491.753996" y="366.399569" style="fill: #ff0000; stroke: #ff0000"/>
    </g>
   </g>
   <g id="line2d_45">
    <path d="M 92.290909 360.15674 
L 128.605735 364.444677 
L 164.920561 363.665052 
L 201.235387 361.741977 
L 237.550214 362.703514 
L 273.86504 363.431165 
L 310.179866 364.002889 
L 346.494692 365.873989 
L 382.809518 366.211827 
L 419.124344 363.743015 
L 455.43917 366.497689 
L 491.753996 366.705589 
" clip-path="url(#p1403827b7b)" style="fill: none; stroke: #ff0000; stroke-width: 1.5; stroke-linecap: square"/>
   </g>
   <g id="patch_3">
    <path d="M 72 384.48 
L 72 51.84 
" style="fill: none; stroke: #000000; stroke-width: 0.8; stroke-linejoin: miter; stroke-linecap: square"/>
   </g>
   <g id="patch_4">
    <path d="M 518.4 384.48 
L 518.4 51.84 
" style="fill: none; stroke: #000000; stroke-width: 0.8; stroke-linejoin: miter; stroke-linecap: square"/>
   </g>
   <g id="patch_5">
    <path d="M 72 384.48 
L 518.4 384.48 
" style="fill: none; stroke: #000000; stroke-width: 0.8; stroke-linejoin: miter; stroke-linecap: square"/>
   </g>
   <g id="patch_6">
    <path d="M 72 51.84 
L 518.4 51.84 
" style="fill: none; stroke: #000000; stroke-width: 0.8; stroke-linejoin: miter; stroke-linecap: square"/>
   </g>
   <g id="text_22">
    <!-- M24: Aspartat; Asparagin; Isoleucin; Threonin; Phenylalanin; Methionin; Histidin; Arginin -->
    <g transform="translate(74.580469 45.84) scale(0.1 -0.1)">
     <defs>
      <path id="DejaVuSans-4d" d="M 628 4666 
L 1569 4666 
L 2759 1491 
L 3956 4666 
L 4897 4666 
L 4897 0 
L 4281 0 
L 4281 4097 
L 3078 897 
L 2444 897 
L 1241 4097 
L 1241 0 
L 628 0 
L 628 4666 
z
" transform="scale(0.015625)"/>
      <path id="DejaVuSans-3a" d="M 750 794 
L 1409 794 
L 1409 0 
L 750 0 
L 750 794 
z
M 750 3309 
L 1409 3309 
L 1409 2516 
L 750 2516 
L 750 3309 
z
" transform="scale(0.015625)"/>
      <path id="DejaVuSans-41" d="M 2188 4044 
L 1331 1722 
L 3047 1722 
L 2188 4044 
z
M 1831 4666 
L 2547 4666 
L 4325 0 
L 3669 0 
L 3244 1197 
L 1141 1197 
L 716 0 
L 50 0 
L 1831 4666 
z
" transform="scale(0.015625)"/>
      <path id="DejaVuSans-70" d="M 1159 525 
L 1159 -1331 
L 581 -1331 
L 581 3500 
L 1159 3500 
L 1159 2969 
Q 1341 3281 1617 3432 
Q 1894 3584 2278 3584 
Q 2916 3584 3314 3078 
Q 3713 2572 3713 1747 
Q 3713 922 3314 415 
Q 2916 -91 2278 -91 
Q 1894 -91 1617 61 
Q 1341 213 1159 525 
z
M 3116 1747 
Q 3116 2381 2855 2742 
Q 2594 3103 2138 3103 
Q 1681 3103 1420 2742 
Q 1159 2381 1159 1747 
Q 1159 1113 1420 752 
Q 1681 391 2138 391 
Q 2594 391 2855 752 
Q 3116 1113 3116 1747 
z
" transform="scale(0.015625)"/>
      <path id="DejaVuSans-3b" d="M 750 3309 
L 1409 3309 
L 1409 2516 
L 750 2516 
L 750 3309 
z
M 750 794 
L 1409 794 
L 1409 256 
L 897 -744 
L 494 -744 
L 750 256 
L 750 794 
z
" transform="scale(0.015625)"/>
      <path id="DejaVuSans-67" d="M 2906 1791 
Q 2906 2416 2648 2759 
Q 2391 3103 1925 3103 
Q 1463 3103 1205 2759 
Q 947 2416 947 1791 
Q 947 1169 1205 825 
Q 1463 481 1925 481 
Q 2391 481 2648 825 
Q 2906 1169 2906 1791 
z
M 3481 434 
Q 3481 -459 3084 -895 
Q 2688 -1331 1869 -1331 
Q 1566 -1331 1297 -1286 
Q 1028 -1241 775 -1147 
L 775 -588 
Q 1028 -725 1275 -790 
Q 1522 -856 1778 -856 
Q 2344 -856 2625 -561 
Q 2906 -266 2906 331 
L 2906 616 
Q 2728 306 2450 153 
Q 2172 0 1784 0 
Q 1141 0 747 490 
Q 353 981 353 1791 
Q 353 2603 747 3093 
Q 1141 3584 1784 3584 
Q 2172 3584 2450 3431 
Q 2728 3278 2906 2969 
L 2906 3500 
L 3481 3500 
L 3481 434 
z
" transform="scale(0.015625)"/>
      <path id="DejaVuSans-49" d="M 628 4666 
L 1259 4666 
L 1259 0 
L 628 0 
L 628 4666 
z
" transform="scale(0.015625)"/>
      <path id="DejaVuSans-54" d="M -19 4666 
L 3928 4666 
L 3928 4134 
L 2272 4134 
L 2272 0 
L 1638 0 
L 1638 4134 
L -19 4134 
L -19 4666 
z
" transform="scale(0.015625)"/>
      <path id="DejaVuSans-50" d="M 1259 4147 
L 1259 2394 
L 2053 2394 
Q 2494 2394 2734 2622 
Q 2975 2850 2975 3272 
Q 2975 3691 2734 3919 
Q 2494 4147 2053 4147 
L 1259 4147 
z
M 628 4666 
L 2053 4666 
Q 2838 4666 3239 4311 
Q 3641 3956 3641 3272 
Q 3641 2581 3239 2228 
Q 2838 1875 2053 1875 
L 1259 1875 
L 1259 0 
L 628 0 
L 628 4666 
z
" transform="scale(0.015625)"/>
      <path id="DejaVuSans-79" d="M 2059 -325 
Q 1816 -950 1584 -1140 
Q 1353 -1331 966 -1331 
L 506 -1331 
L 506 -850 
L 844 -850 
Q 1081 -850 1212 -737 
Q 1344 -625 1503 -206 
L 1606 56 
L 191 3500 
L 800 3500 
L 1894 763 
L 2988 3500 
L 3597 3500 
L 2059 -325 
z
" transform="scale(0.015625)"/>
      <path id="DejaVuSans-48" d="M 628 4666 
L 1259 4666 
L 1259 2753 
L 3553 2753 
L 3553 4666 
L 4184 4666 
L 4184 0 
L 3553 0 
L 3553 2222 
L 1259 2222 
L 1259 0 
L 628 0 
L 628 4666 
z
" transform="scale(0.015625)"/>
     </defs>
     <use xlink:href="#DejaVuSans-4d"/>
     <use xlink:href="#DejaVuSans-32" x="86.279297"/>
     <use xlink:href="#DejaVuSans-34" x="149.902344"/>
     <use xlink:href="#DejaVuSans-3a" x="213.525391"/>
     <use xlink:href="#DejaVuSans-20" x="247.216797"/>
     <use xlink:href="#DejaVuSans-41" x="279.003906"/>
     <use xlink:href="#DejaVuSans-73" x="347.412109"/>
     <use xlink:href="#DejaVuSans-70" x="399.511719"/>
     <use xlink:href="#DejaVuSans-61" x="462.988281"/>
     <use xlink:href="#DejaVuSans-72" x="524.267578"/>
     <use xlink:href="#DejaVuSans-74" x="565.380859"/>
     <use xlink:href="#DejaVuSans-61" x="604.589844"/>
     <use xlink:href="#DejaVuSans-74" x="665.869141"/>
     <use xlink:href="#DejaVuSans-3b" x="705.078125"/>
     <use xlink:href="#DejaVuSans-20" x="738.769531"/>
     <use xlink:href="#DejaVuSans-41" x="770.556641"/>
     <use xlink:href="#DejaVuSans-73" x="838.964844"/>
     <use xlink:href="#DejaVuSans-70" x="891.064453"/>
     <use xlink:href="#DejaVuSans-61" x="954.541016"/>
     <use xlink:href="#DejaVuSans-72" x="1015.820312"/>
     <use xlink:href="#DejaVuSans-61" x="1056.933594"/>
     <use xlink:href="#DejaVuSans-67" x="1118.212891"/>
     <use xlink:href="#DejaVuSans-69" x="1181.689453"/>
     <use xlink:href="#DejaVuSans-6e" x="1209.472656"/>
     <use xlink:href="#DejaVuSans-3b" x="1272.851562"/>
     <use xlink:href="#DejaVuSans-20" x="1306.542969"/>
     <use xlink:href="#DejaVuSans-49" x="1338.330078"/>
     <use xlink:href="#DejaVuSans-73" x="1367.822266"/>
     <use xlink:href="#DejaVuSans-6f" x="1419.921875"/>
     <use xlink:href="#DejaVuSans-6c" x="1481.103516"/>
     <use xlink:href="#DejaVuSans-65" x="1508.886719"/>
     <use xlink:href="#DejaVuSans-75" x="1570.410156"/>
     <use xlink:href="#DejaVuSans-63" x="1633.789062"/>
     <use xlink:href="#DejaVuSans-69" x="1688.769531"/>
     <use xlink:href="#DejaVuSans-6e" x="1716.552734"/>
     <use xlink:href="#DejaVuSans-3b" x="1779.931641"/>
     <use xlink:href="#DejaVuSans-20" x="1813.623047"/>
     <use xlink:href="#DejaVuSans-54" x="1845.410156"/>
     <use xlink:href="#DejaVuSans-68" x="1906.494141"/>
     <use xlink:href="#DejaVuSans-72" x="1969.873047"/>
     <use xlink:href="#DejaVuSans-65" x="2008.736328"/>
     <use xlink:href="#DejaVuSans-6f" x="2070.259766"/>
     <use xlink:href="#DejaVuSans-6e" x="2131.441406"/>
     <use xlink:href="#DejaVuSans-69" x="2194.820312"/>
     <use xlink:href="#DejaVuSans-6e" x="2222.603516"/>
     <use xlink:href="#DejaVuSans-3b" x="2285.982422"/>
     <use xlink:href="#DejaVuSans-20" x="2319.673828"/>
     <use xlink:href="#DejaVuSans-50" x="2351.460938"/>
     <use xlink:href="#DejaVuSans-68" x="2411.763672"/>
     <use xlink:href="#DejaVuSans-65" x="2475.142578"/>
     <use xlink:href="#DejaVuSans-6e" x="2536.666016"/>
     <use xlink:href="#DejaVuSans-79" x="2600.044922"/>
     <use xlink:href="#DejaVuSans-6c" x="2659.224609"/>
     <use xlink:href="#DejaVuSans-61" x="2687.007812"/>
     <use xlink:href="#DejaVuSans-6c" x="2748.287109"/>
     <use xlink:href="#DejaVuSans-61" x="2776.070312"/>
     <use xlink:href="#DejaVuSans-6e" x="2837.349609"/>
     <use xlink:href="#DejaVuSans-69" x="2900.728516"/>
     <use xlink:href="#DejaVuSans-6e" x="2928.511719"/>
     <use xlink:href="#DejaVuSans-3b" x="2991.890625"/>
     <use xlink:href="#DejaVuSans-20" x="3025.582031"/>
     <use xlink:href="#DejaVuSans-4d" x="3057.369141"/>
     <use xlink:href="#DejaVuSans-65" x="3143.648438"/>
     <use xlink:href="#DejaVuSans-74" x="3205.171875"/>
     <use xlink:href="#DejaVuSans-68" x="3244.380859"/>
     <use xlink:href="#DejaVuSans-69" x="3307.759766"/>
     <use xlink:href="#DejaVuSans-6f" x="3335.542969"/>
     <use xlink:href="#DejaVuSans-6e" x="3396.724609"/>
     <use xlink:href="#DejaVuSans-69" x="3460.103516"/>
     <use xlink:href="#DejaVuSans-6e" x="3487.886719"/>
     <use xlink:href="#DejaVuSans-3b" x="3551.265625"/>
     <use xlink:href="#DejaVuSans-20" x="3584.957031"/>
     <use xlink:href="#DejaVuSans-48" x="3616.744141"/>
     <use xlink:href="#DejaVuSans-69" x="3691.939453"/>
     <use xlink:href="#DejaVuSans-73" x="3719.722656"/>
     <use xlink:href="#DejaVuSans-74" x="3771.822266"/>
     <use xlink:href="#DejaVuSans-69" x="3811.03125"/>
     <use xlink:href="#DejaVuSans-64" x="3838.814453"/>
     <use xlink:href="#DejaVuSans-69" x="3902.291016"/>
     <use xlink:href="#DejaVuSans-6e" x="3930.074219"/>
     <use xlink:href="#DejaVuSans-3b" x="3993.453125"/>
     <use xlink:href="#DejaVuSans-20" x="4027.144531"/>
     <use xlink:href="#DejaVuSans-41" x="4058.931641"/>
     <use xlink:href="#DejaVuSans-72" x="4127.339844"/>
     <use xlink:href="#DejaVuSans-67" x="4166.703125"/>
     <use xlink:href="#DejaVuSans-69" x="4230.179688"/>
     <use xlink:href="#DejaVuSans-6e" x="4257.962891"/>
     <use xlink:href="#DejaVuSans-69" x="4321.341797"/>
     <use xlink:href="#DejaVuSans-6e" x="4349.125"/>
    </g>
   </g>
  </g>
 </g>
 <defs>
  <clipPath id="p1403827b7b">
   <rect x="72" y="51.84" width="446.4" height="332.64"/>
  </clipPath>
 </defs>
</svg>
