<?xml version="1.0" encoding="utf-8" standalone="no"?>
<!DOCTYPE svg PUBLIC "-//W3C//DTD SVG 1.1//EN"
  "http://www.w3.org/Graphics/SVG/1.1/DTD/svg11.dtd">
<svg xmlns:xlink="http://www.w3.org/1999/xlink" width="576pt" height="432pt" viewBox="0 0 576 432" xmlns="http://www.w3.org/2000/svg" version="1.1">
 <metadata>
  <rdf:RDF xmlns:dc="http://purl.org/dc/elements/1.1/" xmlns:cc="http://creativecommons.org/ns#" xmlns:rdf="http://www.w3.org/1999/02/22-rdf-syntax-ns#">
   <cc:Work>
    <dc:type rdf:resource="http://purl.org/dc/dcmitype/StillImage"/>
    <dc:date>2024-11-12T14:09:18.738977</dc:date>
    <dc:format>image/svg+xml</dc:format>
    <dc:creator>
     <cc:Agent>
      <dc:title>Matplotlib v3.7.5, https://matplotlib.org/</dc:title>
     </cc:Agent>
    </dc:creator>
   </cc:Work>
  </rdf:RDF>
 </metadata>
 <defs>
  <style type="text/css">*{stroke-linejoin: round; stroke-linecap: butt}</style>
 </defs>
 <g id="figure_1">
  <g id="patch_1">
   <path d="M 0 432 
L 576 432 
L 576 0 
L 0 0 
z
" style="fill: #ffffff"/>
  </g>
  <g id="axes_1">
   <g id="patch_2">
    <path d="M 72 384.48 
L 518.4 384.48 
L 518.4 51.84 
L 72 51.84 
z
" style="fill: #ffffff"/>
   </g>
   <g id="matplotlib.axis_1">
    <g id="xtick_1">
     <g id="line2d_1">
      <path d="M 92.290909 384.48 
L 92.290909 51.84 
" clip-path="url(#pdd059465e4)" style="fill: none; stroke: #b0b0b0; stroke-width: 0.8; stroke-linecap: square"/>
     </g>
     <g id="line2d_2">
      <defs>
       <path id="mcf8df0aa8f" d="M 0 0 
L 0 3.5 
" style="stroke: #000000; stroke-width: 0.8"/>
      </defs>
      <g>
       <use xlink:href="#mcf8df0aa8f" x="92.290909" y="384.48" style="stroke: #000000; stroke-width: 0.8"/>
      </g>
     </g>
     <g id="text_1">
      <!-- 0.17 -->
      <g transform="translate(81.158097 399.078438) scale(0.1 -0.1)">
       <defs>
        <path id="DejaVuSans-30" d="M 2034 4250 
Q 1547 4250 1301 3770 
Q 1056 3291 1056 2328 
Q 1056 1369 1301 889 
Q 1547 409 2034 409 
Q 2525 409 2770 889 
Q 3016 1369 3016 2328 
Q 3016 3291 2770 3770 
Q 2525 4250 2034 4250 
z
M 2034 4750 
Q 2819 4750 3233 4129 
Q 3647 3509 3647 2328 
Q 3647 1150 3233 529 
Q 2819 -91 2034 -91 
Q 1250 -91 836 529 
Q 422 1150 422 2328 
Q 422 3509 836 4129 
Q 1250 4750 2034 4750 
z
" transform="scale(0.015625)"/>
        <path id="DejaVuSans-2e" d="M 684 794 
L 1344 794 
L 1344 0 
L 684 0 
L 684 794 
z
" transform="scale(0.015625)"/>
        <path id="DejaVuSans-31" d="M 794 531 
L 1825 531 
L 1825 4091 
L 703 3866 
L 703 4441 
L 1819 4666 
L 2450 4666 
L 2450 531 
L 3481 531 
L 3481 0 
L 794 0 
L 794 531 
z
" transform="scale(0.015625)"/>
        <path id="DejaVuSans-37" d="M 525 4666 
L 3525 4666 
L 3525 4397 
L 1831 0 
L 1172 0 
L 2766 4134 
L 525 4134 
L 525 4666 
z
" transform="scale(0.015625)"/>
       </defs>
       <use xlink:href="#DejaVuSans-30"/>
       <use xlink:href="#DejaVuSans-2e" x="63.623047"/>
       <use xlink:href="#DejaVuSans-31" x="95.410156"/>
       <use xlink:href="#DejaVuSans-37" x="159.033203"/>
      </g>
     </g>
    </g>
    <g id="xtick_2">
     <g id="line2d_3">
      <path d="M 130.217842 384.48 
L 130.217842 51.84 
" clip-path="url(#pdd059465e4)" style="fill: none; stroke: #b0b0b0; stroke-width: 0.8; stroke-linecap: square"/>
     </g>
     <g id="line2d_4">
      <g>
       <use xlink:href="#mcf8df0aa8f" x="130.217842" y="384.48" style="stroke: #000000; stroke-width: 0.8"/>
      </g>
     </g>
     <g id="text_2">
      <!-- 6.83 -->
      <g transform="translate(119.085029 399.078438) scale(0.1 -0.1)">
       <defs>
        <path id="DejaVuSans-36" d="M 2113 2584 
Q 1688 2584 1439 2293 
Q 1191 2003 1191 1497 
Q 1191 994 1439 701 
Q 1688 409 2113 409 
Q 2538 409 2786 701 
Q 3034 994 3034 1497 
Q 3034 2003 2786 2293 
Q 2538 2584 2113 2584 
z
M 3366 4563 
L 3366 3988 
Q 3128 4100 2886 4159 
Q 2644 4219 2406 4219 
Q 1781 4219 1451 3797 
Q 1122 3375 1075 2522 
Q 1259 2794 1537 2939 
Q 1816 3084 2150 3084 
Q 2853 3084 3261 2657 
Q 3669 2231 3669 1497 
Q 3669 778 3244 343 
Q 2819 -91 2113 -91 
Q 1303 -91 875 529 
Q 447 1150 447 2328 
Q 447 3434 972 4092 
Q 1497 4750 2381 4750 
Q 2619 4750 2861 4703 
Q 3103 4656 3366 4563 
z
" transform="scale(0.015625)"/>
        <path id="DejaVuSans-38" d="M 2034 2216 
Q 1584 2216 1326 1975 
Q 1069 1734 1069 1313 
Q 1069 891 1326 650 
Q 1584 409 2034 409 
Q 2484 409 2743 651 
Q 3003 894 3003 1313 
Q 3003 1734 2745 1975 
Q 2488 2216 2034 2216 
z
M 1403 2484 
Q 997 2584 770 2862 
Q 544 3141 544 3541 
Q 544 4100 942 4425 
Q 1341 4750 2034 4750 
Q 2731 4750 3128 4425 
Q 3525 4100 3525 3541 
Q 3525 3141 3298 2862 
Q 3072 2584 2669 2484 
Q 3125 2378 3379 2068 
Q 3634 1759 3634 1313 
Q 3634 634 3220 271 
Q 2806 -91 2034 -91 
Q 1263 -91 848 271 
Q 434 634 434 1313 
Q 434 1759 690 2068 
Q 947 2378 1403 2484 
z
M 1172 3481 
Q 1172 3119 1398 2916 
Q 1625 2713 2034 2713 
Q 2441 2713 2670 2916 
Q 2900 3119 2900 3481 
Q 2900 3844 2670 4047 
Q 2441 4250 2034 4250 
Q 1625 4250 1398 4047 
Q 1172 3844 1172 3481 
z
" transform="scale(0.015625)"/>
        <path id="DejaVuSans-33" d="M 2597 2516 
Q 3050 2419 3304 2112 
Q 3559 1806 3559 1356 
Q 3559 666 3084 287 
Q 2609 -91 1734 -91 
Q 1441 -91 1130 -33 
Q 819 25 488 141 
L 488 750 
Q 750 597 1062 519 
Q 1375 441 1716 441 
Q 2309 441 2620 675 
Q 2931 909 2931 1356 
Q 2931 1769 2642 2001 
Q 2353 2234 1838 2234 
L 1294 2234 
L 1294 2753 
L 1863 2753 
Q 2328 2753 2575 2939 
Q 2822 3125 2822 3475 
Q 2822 3834 2567 4026 
Q 2313 4219 1838 4219 
Q 1578 4219 1281 4162 
Q 984 4106 628 3988 
L 628 4550 
Q 988 4650 1302 4700 
Q 1616 4750 1894 4750 
Q 2613 4750 3031 4423 
Q 3450 4097 3450 3541 
Q 3450 3153 3228 2886 
Q 3006 2619 2597 2516 
z
" transform="scale(0.015625)"/>
       </defs>
       <use xlink:href="#DejaVuSans-36"/>
       <use xlink:href="#DejaVuSans-2e" x="63.623047"/>
       <use xlink:href="#DejaVuSans-38" x="95.410156"/>
       <use xlink:href="#DejaVuSans-33" x="159.033203"/>
      </g>
     </g>
    </g>
    <g id="xtick_3">
     <g id="line2d_5">
      <path d="M 168.144775 384.48 
L 168.144775 51.84 
" clip-path="url(#pdd059465e4)" style="fill: none; stroke: #b0b0b0; stroke-width: 0.8; stroke-linecap: square"/>
     </g>
     <g id="line2d_6">
      <g>
       <use xlink:href="#mcf8df0aa8f" x="168.144775" y="384.48" style="stroke: #000000; stroke-width: 0.8"/>
      </g>
     </g>
     <g id="text_3">
      <!-- 13.5 -->
      <g transform="translate(157.011962 399.078438) scale(0.1 -0.1)">
       <defs>
        <path id="DejaVuSans-35" d="M 691 4666 
L 3169 4666 
L 3169 4134 
L 1269 4134 
L 1269 2991 
Q 1406 3038 1543 3061 
Q 1681 3084 1819 3084 
Q 2600 3084 3056 2656 
Q 3513 2228 3513 1497 
Q 3513 744 3044 326 
Q 2575 -91 1722 -91 
Q 1428 -91 1123 -41 
Q 819 9 494 109 
L 494 744 
Q 775 591 1075 516 
Q 1375 441 1709 441 
Q 2250 441 2565 725 
Q 2881 1009 2881 1497 
Q 2881 1984 2565 2268 
Q 2250 2553 1709 2553 
Q 1456 2553 1204 2497 
Q 953 2441 691 2322 
L 691 4666 
z
" transform="scale(0.015625)"/>
       </defs>
       <use xlink:href="#DejaVuSans-31"/>
       <use xlink:href="#DejaVuSans-33" x="63.623047"/>
       <use xlink:href="#DejaVuSans-2e" x="127.246094"/>
       <use xlink:href="#DejaVuSans-35" x="159.033203"/>
      </g>
     </g>
    </g>
    <g id="xtick_4">
     <g id="line2d_7">
      <path d="M 206.071708 384.48 
L 206.071708 51.84 
" clip-path="url(#pdd059465e4)" style="fill: none; stroke: #b0b0b0; stroke-width: 0.8; stroke-linecap: square"/>
     </g>
     <g id="line2d_8">
      <g>
       <use xlink:href="#mcf8df0aa8f" x="206.071708" y="384.48" style="stroke: #000000; stroke-width: 0.8"/>
      </g>
     </g>
     <g id="text_4">
      <!-- 20.17 -->
      <g transform="translate(191.757645 399.078438) scale(0.1 -0.1)">
       <defs>
        <path id="DejaVuSans-32" d="M 1228 531 
L 3431 531 
L 3431 0 
L 469 0 
L 469 531 
Q 828 903 1448 1529 
Q 2069 2156 2228 2338 
Q 2531 2678 2651 2914 
Q 2772 3150 2772 3378 
Q 2772 3750 2511 3984 
Q 2250 4219 1831 4219 
Q 1534 4219 1204 4116 
Q 875 4013 500 3803 
L 500 4441 
Q 881 4594 1212 4672 
Q 1544 4750 1819 4750 
Q 2544 4750 2975 4387 
Q 3406 4025 3406 3419 
Q 3406 3131 3298 2873 
Q 3191 2616 2906 2266 
Q 2828 2175 2409 1742 
Q 1991 1309 1228 531 
z
" transform="scale(0.015625)"/>
       </defs>
       <use xlink:href="#DejaVuSans-32"/>
       <use xlink:href="#DejaVuSans-30" x="63.623047"/>
       <use xlink:href="#DejaVuSans-2e" x="127.246094"/>
       <use xlink:href="#DejaVuSans-31" x="159.033203"/>
       <use xlink:href="#DejaVuSans-37" x="222.65625"/>
      </g>
     </g>
    </g>
    <g id="xtick_5">
     <g id="line2d_9">
      <path d="M 243.998641 384.48 
L 243.998641 51.84 
" clip-path="url(#pdd059465e4)" style="fill: none; stroke: #b0b0b0; stroke-width: 0.8; stroke-linecap: square"/>
     </g>
     <g id="line2d_10">
      <g>
       <use xlink:href="#mcf8df0aa8f" x="243.998641" y="384.48" style="stroke: #000000; stroke-width: 0.8"/>
      </g>
     </g>
     <g id="text_5">
      <!-- 26.83 -->
      <g transform="translate(229.684578 399.078438) scale(0.1 -0.1)">
       <use xlink:href="#DejaVuSans-32"/>
       <use xlink:href="#DejaVuSans-36" x="63.623047"/>
       <use xlink:href="#DejaVuSans-2e" x="127.246094"/>
       <use xlink:href="#DejaVuSans-38" x="159.033203"/>
       <use xlink:href="#DejaVuSans-33" x="222.65625"/>
      </g>
     </g>
    </g>
    <g id="xtick_6">
     <g id="line2d_11">
      <path d="M 281.925573 384.48 
L 281.925573 51.84 
" clip-path="url(#pdd059465e4)" style="fill: none; stroke: #b0b0b0; stroke-width: 0.8; stroke-linecap: square"/>
     </g>
     <g id="line2d_12">
      <g>
       <use xlink:href="#mcf8df0aa8f" x="281.925573" y="384.48" style="stroke: #000000; stroke-width: 0.8"/>
      </g>
     </g>
     <g id="text_6">
      <!-- 33.5 -->
      <g transform="translate(270.792761 399.078438) scale(0.1 -0.1)">
       <use xlink:href="#DejaVuSans-33"/>
       <use xlink:href="#DejaVuSans-33" x="63.623047"/>
       <use xlink:href="#DejaVuSans-2e" x="127.246094"/>
       <use xlink:href="#DejaVuSans-35" x="159.033203"/>
      </g>
     </g>
    </g>
    <g id="xtick_7">
     <g id="line2d_13">
      <path d="M 319.852506 384.48 
L 319.852506 51.84 
" clip-path="url(#pdd059465e4)" style="fill: none; stroke: #b0b0b0; stroke-width: 0.8; stroke-linecap: square"/>
     </g>
     <g id="line2d_14">
      <g>
       <use xlink:href="#mcf8df0aa8f" x="319.852506" y="384.48" style="stroke: #000000; stroke-width: 0.8"/>
      </g>
     </g>
     <g id="text_7">
      <!-- 40.17 -->
      <g transform="translate(305.538444 399.078438) scale(0.1 -0.1)">
       <defs>
        <path id="DejaVuSans-34" d="M 2419 4116 
L 825 1625 
L 2419 1625 
L 2419 4116 
z
M 2253 4666 
L 3047 4666 
L 3047 1625 
L 3713 1625 
L 3713 1100 
L 3047 1100 
L 3047 0 
L 2419 0 
L 2419 1100 
L 313 1100 
L 313 1709 
L 2253 4666 
z
" transform="scale(0.015625)"/>
       </defs>
       <use xlink:href="#DejaVuSans-34"/>
       <use xlink:href="#DejaVuSans-30" x="63.623047"/>
       <use xlink:href="#DejaVuSans-2e" x="127.246094"/>
       <use xlink:href="#DejaVuSans-31" x="159.033203"/>
       <use xlink:href="#DejaVuSans-37" x="222.65625"/>
      </g>
     </g>
    </g>
    <g id="xtick_8">
     <g id="line2d_15">
      <path d="M 357.779439 384.48 
L 357.779439 51.84 
" clip-path="url(#pdd059465e4)" style="fill: none; stroke: #b0b0b0; stroke-width: 0.8; stroke-linecap: square"/>
     </g>
     <g id="line2d_16">
      <g>
       <use xlink:href="#mcf8df0aa8f" x="357.779439" y="384.48" style="stroke: #000000; stroke-width: 0.8"/>
      </g>
     </g>
     <g id="text_8">
      <!-- 46.83 -->
      <g transform="translate(343.465377 399.078438) scale(0.1 -0.1)">
       <use xlink:href="#DejaVuSans-34"/>
       <use xlink:href="#DejaVuSans-36" x="63.623047"/>
       <use xlink:href="#DejaVuSans-2e" x="127.246094"/>
       <use xlink:href="#DejaVuSans-38" x="159.033203"/>
       <use xlink:href="#DejaVuSans-33" x="222.65625"/>
      </g>
     </g>
    </g>
    <g id="xtick_9">
     <g id="line2d_17">
      <path d="M 395.706372 384.48 
L 395.706372 51.84 
" clip-path="url(#pdd059465e4)" style="fill: none; stroke: #b0b0b0; stroke-width: 0.8; stroke-linecap: square"/>
     </g>
     <g id="line2d_18">
      <g>
       <use xlink:href="#mcf8df0aa8f" x="395.706372" y="384.48" style="stroke: #000000; stroke-width: 0.8"/>
      </g>
     </g>
     <g id="text_9">
      <!-- 53.5 -->
      <g transform="translate(384.57356 399.078438) scale(0.1 -0.1)">
       <use xlink:href="#DejaVuSans-35"/>
       <use xlink:href="#DejaVuSans-33" x="63.623047"/>
       <use xlink:href="#DejaVuSans-2e" x="127.246094"/>
       <use xlink:href="#DejaVuSans-35" x="159.033203"/>
      </g>
     </g>
    </g>
    <g id="xtick_10">
     <g id="line2d_19">
      <path d="M 433.633305 384.48 
L 433.633305 51.84 
" clip-path="url(#pdd059465e4)" style="fill: none; stroke: #b0b0b0; stroke-width: 0.8; stroke-linecap: square"/>
     </g>
     <g id="line2d_20">
      <g>
       <use xlink:href="#mcf8df0aa8f" x="433.633305" y="384.48" style="stroke: #000000; stroke-width: 0.8"/>
      </g>
     </g>
     <g id="text_10">
      <!-- 60.17 -->
      <g transform="translate(419.319243 399.078438) scale(0.1 -0.1)">
       <use xlink:href="#DejaVuSans-36"/>
       <use xlink:href="#DejaVuSans-30" x="63.623047"/>
       <use xlink:href="#DejaVuSans-2e" x="127.246094"/>
       <use xlink:href="#DejaVuSans-31" x="159.033203"/>
       <use xlink:href="#DejaVuSans-37" x="222.65625"/>
      </g>
     </g>
    </g>
    <g id="xtick_11">
     <g id="line2d_21">
      <path d="M 471.560238 384.48 
L 471.560238 51.84 
" clip-path="url(#pdd059465e4)" style="fill: none; stroke: #b0b0b0; stroke-width: 0.8; stroke-linecap: square"/>
     </g>
     <g id="line2d_22">
      <g>
       <use xlink:href="#mcf8df0aa8f" x="471.560238" y="384.48" style="stroke: #000000; stroke-width: 0.8"/>
      </g>
     </g>
     <g id="text_11">
      <!-- 66.83 -->
      <g transform="translate(457.246175 399.078438) scale(0.1 -0.1)">
       <use xlink:href="#DejaVuSans-36"/>
       <use xlink:href="#DejaVuSans-36" x="63.623047"/>
       <use xlink:href="#DejaVuSans-2e" x="127.246094"/>
       <use xlink:href="#DejaVuSans-38" x="159.033203"/>
       <use xlink:href="#DejaVuSans-33" x="222.65625"/>
      </g>
     </g>
    </g>
    <g id="text_12">
     <!-- time in hours [h] -->
     <g transform="translate(253.451562 412.756563) scale(0.1 -0.1)">
      <defs>
       <path id="DejaVuSans-74" d="M 1172 4494 
L 1172 3500 
L 2356 3500 
L 2356 3053 
L 1172 3053 
L 1172 1153 
Q 1172 725 1289 603 
Q 1406 481 1766 481 
L 2356 481 
L 2356 0 
L 1766 0 
Q 1100 0 847 248 
Q 594 497 594 1153 
L 594 3053 
L 172 3053 
L 172 3500 
L 594 3500 
L 594 4494 
L 1172 4494 
z
" transform="scale(0.015625)"/>
       <path id="DejaVuSans-69" d="M 603 3500 
L 1178 3500 
L 1178 0 
L 603 0 
L 603 3500 
z
M 603 4863 
L 1178 4863 
L 1178 4134 
L 603 4134 
L 603 4863 
z
" transform="scale(0.015625)"/>
       <path id="DejaVuSans-6d" d="M 3328 2828 
Q 3544 3216 3844 3400 
Q 4144 3584 4550 3584 
Q 5097 3584 5394 3201 
Q 5691 2819 5691 2113 
L 5691 0 
L 5113 0 
L 5113 2094 
Q 5113 2597 4934 2840 
Q 4756 3084 4391 3084 
Q 3944 3084 3684 2787 
Q 3425 2491 3425 1978 
L 3425 0 
L 2847 0 
L 2847 2094 
Q 2847 2600 2669 2842 
Q 2491 3084 2119 3084 
Q 1678 3084 1418 2786 
Q 1159 2488 1159 1978 
L 1159 0 
L 581 0 
L 581 3500 
L 1159 3500 
L 1159 2956 
Q 1356 3278 1631 3431 
Q 1906 3584 2284 3584 
Q 2666 3584 2933 3390 
Q 3200 3197 3328 2828 
z
" transform="scale(0.015625)"/>
       <path id="DejaVuSans-65" d="M 3597 1894 
L 3597 1613 
L 953 1613 
Q 991 1019 1311 708 
Q 1631 397 2203 397 
Q 2534 397 2845 478 
Q 3156 559 3463 722 
L 3463 178 
Q 3153 47 2828 -22 
Q 2503 -91 2169 -91 
Q 1331 -91 842 396 
Q 353 884 353 1716 
Q 353 2575 817 3079 
Q 1281 3584 2069 3584 
Q 2775 3584 3186 3129 
Q 3597 2675 3597 1894 
z
M 3022 2063 
Q 3016 2534 2758 2815 
Q 2500 3097 2075 3097 
Q 1594 3097 1305 2825 
Q 1016 2553 972 2059 
L 3022 2063 
z
" transform="scale(0.015625)"/>
       <path id="DejaVuSans-20" transform="scale(0.015625)"/>
       <path id="DejaVuSans-6e" d="M 3513 2113 
L 3513 0 
L 2938 0 
L 2938 2094 
Q 2938 2591 2744 2837 
Q 2550 3084 2163 3084 
Q 1697 3084 1428 2787 
Q 1159 2491 1159 1978 
L 1159 0 
L 581 0 
L 581 3500 
L 1159 3500 
L 1159 2956 
Q 1366 3272 1645 3428 
Q 1925 3584 2291 3584 
Q 2894 3584 3203 3211 
Q 3513 2838 3513 2113 
z
" transform="scale(0.015625)"/>
       <path id="DejaVuSans-68" d="M 3513 2113 
L 3513 0 
L 2938 0 
L 2938 2094 
Q 2938 2591 2744 2837 
Q 2550 3084 2163 3084 
Q 1697 3084 1428 2787 
Q 1159 2491 1159 1978 
L 1159 0 
L 581 0 
L 581 4863 
L 1159 4863 
L 1159 2956 
Q 1366 3272 1645 3428 
Q 1925 3584 2291 3584 
Q 2894 3584 3203 3211 
Q 3513 2838 3513 2113 
z
" transform="scale(0.015625)"/>
       <path id="DejaVuSans-6f" d="M 1959 3097 
Q 1497 3097 1228 2736 
Q 959 2375 959 1747 
Q 959 1119 1226 758 
Q 1494 397 1959 397 
Q 2419 397 2687 759 
Q 2956 1122 2956 1747 
Q 2956 2369 2687 2733 
Q 2419 3097 1959 3097 
z
M 1959 3584 
Q 2709 3584 3137 3096 
Q 3566 2609 3566 1747 
Q 3566 888 3137 398 
Q 2709 -91 1959 -91 
Q 1206 -91 779 398 
Q 353 888 353 1747 
Q 353 2609 779 3096 
Q 1206 3584 1959 3584 
z
" transform="scale(0.015625)"/>
       <path id="DejaVuSans-75" d="M 544 1381 
L 544 3500 
L 1119 3500 
L 1119 1403 
Q 1119 906 1312 657 
Q 1506 409 1894 409 
Q 2359 409 2629 706 
Q 2900 1003 2900 1516 
L 2900 3500 
L 3475 3500 
L 3475 0 
L 2900 0 
L 2900 538 
Q 2691 219 2414 64 
Q 2138 -91 1772 -91 
Q 1169 -91 856 284 
Q 544 659 544 1381 
z
M 1991 3584 
L 1991 3584 
z
" transform="scale(0.015625)"/>
       <path id="DejaVuSans-72" d="M 2631 2963 
Q 2534 3019 2420 3045 
Q 2306 3072 2169 3072 
Q 1681 3072 1420 2755 
Q 1159 2438 1159 1844 
L 1159 0 
L 581 0 
L 581 3500 
L 1159 3500 
L 1159 2956 
Q 1341 3275 1631 3429 
Q 1922 3584 2338 3584 
Q 2397 3584 2469 3576 
Q 2541 3569 2628 3553 
L 2631 2963 
z
" transform="scale(0.015625)"/>
       <path id="DejaVuSans-73" d="M 2834 3397 
L 2834 2853 
Q 2591 2978 2328 3040 
Q 2066 3103 1784 3103 
Q 1356 3103 1142 2972 
Q 928 2841 928 2578 
Q 928 2378 1081 2264 
Q 1234 2150 1697 2047 
L 1894 2003 
Q 2506 1872 2764 1633 
Q 3022 1394 3022 966 
Q 3022 478 2636 193 
Q 2250 -91 1575 -91 
Q 1294 -91 989 -36 
Q 684 19 347 128 
L 347 722 
Q 666 556 975 473 
Q 1284 391 1588 391 
Q 1994 391 2212 530 
Q 2431 669 2431 922 
Q 2431 1156 2273 1281 
Q 2116 1406 1581 1522 
L 1381 1569 
Q 847 1681 609 1914 
Q 372 2147 372 2553 
Q 372 3047 722 3315 
Q 1072 3584 1716 3584 
Q 2034 3584 2315 3537 
Q 2597 3491 2834 3397 
z
" transform="scale(0.015625)"/>
       <path id="DejaVuSans-5b" d="M 550 4863 
L 1875 4863 
L 1875 4416 
L 1125 4416 
L 1125 -397 
L 1875 -397 
L 1875 -844 
L 550 -844 
L 550 4863 
z
" transform="scale(0.015625)"/>
       <path id="DejaVuSans-5d" d="M 1947 4863 
L 1947 -844 
L 622 -844 
L 622 -397 
L 1369 -397 
L 1369 4416 
L 622 4416 
L 622 4863 
L 1947 4863 
z
" transform="scale(0.015625)"/>
      </defs>
      <use xlink:href="#DejaVuSans-74"/>
      <use xlink:href="#DejaVuSans-69" x="39.208984"/>
      <use xlink:href="#DejaVuSans-6d" x="66.992188"/>
      <use xlink:href="#DejaVuSans-65" x="164.404297"/>
      <use xlink:href="#DejaVuSans-20" x="225.927734"/>
      <use xlink:href="#DejaVuSans-69" x="257.714844"/>
      <use xlink:href="#DejaVuSans-6e" x="285.498047"/>
      <use xlink:href="#DejaVuSans-20" x="348.876953"/>
      <use xlink:href="#DejaVuSans-68" x="380.664062"/>
      <use xlink:href="#DejaVuSans-6f" x="444.042969"/>
      <use xlink:href="#DejaVuSans-75" x="505.224609"/>
      <use xlink:href="#DejaVuSans-72" x="568.603516"/>
      <use xlink:href="#DejaVuSans-73" x="609.716797"/>
      <use xlink:href="#DejaVuSans-20" x="661.816406"/>
      <use xlink:href="#DejaVuSans-5b" x="693.603516"/>
      <use xlink:href="#DejaVuSans-68" x="732.617188"/>
      <use xlink:href="#DejaVuSans-5d" x="795.996094"/>
     </g>
    </g>
   </g>
   <g id="matplotlib.axis_2">
    <g id="ytick_1">
     <g id="line2d_23">
      <path d="M 72 363.69 
L 518.4 363.69 
" clip-path="url(#pdd059465e4)" style="fill: none; stroke: #b0b0b0; stroke-width: 0.8; stroke-linecap: square"/>
     </g>
     <g id="line2d_24">
      <defs>
       <path id="m7e62a34672" d="M 0 0 
L -3.5 0 
" style="stroke: #000000; stroke-width: 0.8"/>
      </defs>
      <g>
       <use xlink:href="#m7e62a34672" x="72" y="363.69" style="stroke: #000000; stroke-width: 0.8"/>
      </g>
     </g>
     <g id="text_13">
      <!-- 0.0 -->
      <g transform="translate(49.096875 367.489219) scale(0.1 -0.1)">
       <use xlink:href="#DejaVuSans-30"/>
       <use xlink:href="#DejaVuSans-2e" x="63.623047"/>
       <use xlink:href="#DejaVuSans-30" x="95.410156"/>
      </g>
     </g>
    </g>
    <g id="ytick_2">
     <g id="line2d_25">
      <path d="M 72 311.715 
L 518.4 311.715 
" clip-path="url(#pdd059465e4)" style="fill: none; stroke: #b0b0b0; stroke-width: 0.8; stroke-linecap: square"/>
     </g>
     <g id="line2d_26">
      <g>
       <use xlink:href="#m7e62a34672" x="72" y="311.715" style="stroke: #000000; stroke-width: 0.8"/>
      </g>
     </g>
     <g id="text_14">
      <!-- 0.5 -->
      <g transform="translate(49.096875 315.514219) scale(0.1 -0.1)">
       <use xlink:href="#DejaVuSans-30"/>
       <use xlink:href="#DejaVuSans-2e" x="63.623047"/>
       <use xlink:href="#DejaVuSans-35" x="95.410156"/>
      </g>
     </g>
    </g>
    <g id="ytick_3">
     <g id="line2d_27">
      <path d="M 72 259.74 
L 518.4 259.74 
" clip-path="url(#pdd059465e4)" style="fill: none; stroke: #b0b0b0; stroke-width: 0.8; stroke-linecap: square"/>
     </g>
     <g id="line2d_28">
      <g>
       <use xlink:href="#m7e62a34672" x="72" y="259.74" style="stroke: #000000; stroke-width: 0.8"/>
      </g>
     </g>
     <g id="text_15">
      <!-- 1.0 -->
      <g transform="translate(49.096875 263.539219) scale(0.1 -0.1)">
       <use xlink:href="#DejaVuSans-31"/>
       <use xlink:href="#DejaVuSans-2e" x="63.623047"/>
       <use xlink:href="#DejaVuSans-30" x="95.410156"/>
      </g>
     </g>
    </g>
    <g id="ytick_4">
     <g id="line2d_29">
      <path d="M 72 207.765 
L 518.4 207.765 
" clip-path="url(#pdd059465e4)" style="fill: none; stroke: #b0b0b0; stroke-width: 0.8; stroke-linecap: square"/>
     </g>
     <g id="line2d_30">
      <g>
       <use xlink:href="#m7e62a34672" x="72" y="207.765" style="stroke: #000000; stroke-width: 0.8"/>
      </g>
     </g>
     <g id="text_16">
      <!-- 1.5 -->
      <g transform="translate(49.096875 211.564219) scale(0.1 -0.1)">
       <use xlink:href="#DejaVuSans-31"/>
       <use xlink:href="#DejaVuSans-2e" x="63.623047"/>
       <use xlink:href="#DejaVuSans-35" x="95.410156"/>
      </g>
     </g>
    </g>
    <g id="ytick_5">
     <g id="line2d_31">
      <path d="M 72 155.79 
L 518.4 155.79 
" clip-path="url(#pdd059465e4)" style="fill: none; stroke: #b0b0b0; stroke-width: 0.8; stroke-linecap: square"/>
     </g>
     <g id="line2d_32">
      <g>
       <use xlink:href="#m7e62a34672" x="72" y="155.79" style="stroke: #000000; stroke-width: 0.8"/>
      </g>
     </g>
     <g id="text_17">
      <!-- 2.0 -->
      <g transform="translate(49.096875 159.589219) scale(0.1 -0.1)">
       <use xlink:href="#DejaVuSans-32"/>
       <use xlink:href="#DejaVuSans-2e" x="63.623047"/>
       <use xlink:href="#DejaVuSans-30" x="95.410156"/>
      </g>
     </g>
    </g>
    <g id="ytick_6">
     <g id="line2d_33">
      <path d="M 72 103.815 
L 518.4 103.815 
" clip-path="url(#pdd059465e4)" style="fill: none; stroke: #b0b0b0; stroke-width: 0.8; stroke-linecap: square"/>
     </g>
     <g id="line2d_34">
      <g>
       <use xlink:href="#m7e62a34672" x="72" y="103.815" style="stroke: #000000; stroke-width: 0.8"/>
      </g>
     </g>
     <g id="text_18">
      <!-- 2.5 -->
      <g transform="translate(49.096875 107.614219) scale(0.1 -0.1)">
       <use xlink:href="#DejaVuSans-32"/>
       <use xlink:href="#DejaVuSans-2e" x="63.623047"/>
       <use xlink:href="#DejaVuSans-35" x="95.410156"/>
      </g>
     </g>
    </g>
    <g id="ytick_7">
     <g id="line2d_35">
      <path d="M 72 51.84 
L 518.4 51.84 
" clip-path="url(#pdd059465e4)" style="fill: none; stroke: #b0b0b0; stroke-width: 0.8; stroke-linecap: square"/>
     </g>
     <g id="line2d_36">
      <g>
       <use xlink:href="#m7e62a34672" x="72" y="51.84" style="stroke: #000000; stroke-width: 0.8"/>
      </g>
     </g>
     <g id="text_19">
      <!-- 3.0 -->
      <g transform="translate(49.096875 55.639219) scale(0.1 -0.1)">
       <use xlink:href="#DejaVuSans-33"/>
       <use xlink:href="#DejaVuSans-2e" x="63.623047"/>
       <use xlink:href="#DejaVuSans-30" x="95.410156"/>
      </g>
     </g>
    </g>
    <g id="text_20">
     <!-- blank corrected OD600 -->
     <g transform="translate(43.017187 276.115469) rotate(-90) scale(0.1 -0.1)">
      <defs>
       <path id="DejaVuSans-62" d="M 3116 1747 
Q 3116 2381 2855 2742 
Q 2594 3103 2138 3103 
Q 1681 3103 1420 2742 
Q 1159 2381 1159 1747 
Q 1159 1113 1420 752 
Q 1681 391 2138 391 
Q 2594 391 2855 752 
Q 3116 1113 3116 1747 
z
M 1159 2969 
Q 1341 3281 1617 3432 
Q 1894 3584 2278 3584 
Q 2916 3584 3314 3078 
Q 3713 2572 3713 1747 
Q 3713 922 3314 415 
Q 2916 -91 2278 -91 
Q 1894 -91 1617 61 
Q 1341 213 1159 525 
L 1159 0 
L 581 0 
L 581 4863 
L 1159 4863 
L 1159 2969 
z
" transform="scale(0.015625)"/>
       <path id="DejaVuSans-6c" d="M 603 4863 
L 1178 4863 
L 1178 0 
L 603 0 
L 603 4863 
z
" transform="scale(0.015625)"/>
       <path id="DejaVuSans-61" d="M 2194 1759 
Q 1497 1759 1228 1600 
Q 959 1441 959 1056 
Q 959 750 1161 570 
Q 1363 391 1709 391 
Q 2188 391 2477 730 
Q 2766 1069 2766 1631 
L 2766 1759 
L 2194 1759 
z
M 3341 1997 
L 3341 0 
L 2766 0 
L 2766 531 
Q 2569 213 2275 61 
Q 1981 -91 1556 -91 
Q 1019 -91 701 211 
Q 384 513 384 1019 
Q 384 1609 779 1909 
Q 1175 2209 1959 2209 
L 2766 2209 
L 2766 2266 
Q 2766 2663 2505 2880 
Q 2244 3097 1772 3097 
Q 1472 3097 1187 3025 
Q 903 2953 641 2809 
L 641 3341 
Q 956 3463 1253 3523 
Q 1550 3584 1831 3584 
Q 2591 3584 2966 3190 
Q 3341 2797 3341 1997 
z
" transform="scale(0.015625)"/>
       <path id="DejaVuSans-6b" d="M 581 4863 
L 1159 4863 
L 1159 1991 
L 2875 3500 
L 3609 3500 
L 1753 1863 
L 3688 0 
L 2938 0 
L 1159 1709 
L 1159 0 
L 581 0 
L 581 4863 
z
" transform="scale(0.015625)"/>
       <path id="DejaVuSans-63" d="M 3122 3366 
L 3122 2828 
Q 2878 2963 2633 3030 
Q 2388 3097 2138 3097 
Q 1578 3097 1268 2742 
Q 959 2388 959 1747 
Q 959 1106 1268 751 
Q 1578 397 2138 397 
Q 2388 397 2633 464 
Q 2878 531 3122 666 
L 3122 134 
Q 2881 22 2623 -34 
Q 2366 -91 2075 -91 
Q 1284 -91 818 406 
Q 353 903 353 1747 
Q 353 2603 823 3093 
Q 1294 3584 2113 3584 
Q 2378 3584 2631 3529 
Q 2884 3475 3122 3366 
z
" transform="scale(0.015625)"/>
       <path id="DejaVuSans-64" d="M 2906 2969 
L 2906 4863 
L 3481 4863 
L 3481 0 
L 2906 0 
L 2906 525 
Q 2725 213 2448 61 
Q 2172 -91 1784 -91 
Q 1150 -91 751 415 
Q 353 922 353 1747 
Q 353 2572 751 3078 
Q 1150 3584 1784 3584 
Q 2172 3584 2448 3432 
Q 2725 3281 2906 2969 
z
M 947 1747 
Q 947 1113 1208 752 
Q 1469 391 1925 391 
Q 2381 391 2643 752 
Q 2906 1113 2906 1747 
Q 2906 2381 2643 2742 
Q 2381 3103 1925 3103 
Q 1469 3103 1208 2742 
Q 947 2381 947 1747 
z
" transform="scale(0.015625)"/>
       <path id="DejaVuSans-4f" d="M 2522 4238 
Q 1834 4238 1429 3725 
Q 1025 3213 1025 2328 
Q 1025 1447 1429 934 
Q 1834 422 2522 422 
Q 3209 422 3611 934 
Q 4013 1447 4013 2328 
Q 4013 3213 3611 3725 
Q 3209 4238 2522 4238 
z
M 2522 4750 
Q 3503 4750 4090 4092 
Q 4678 3434 4678 2328 
Q 4678 1225 4090 567 
Q 3503 -91 2522 -91 
Q 1538 -91 948 565 
Q 359 1222 359 2328 
Q 359 3434 948 4092 
Q 1538 4750 2522 4750 
z
" transform="scale(0.015625)"/>
       <path id="DejaVuSans-44" d="M 1259 4147 
L 1259 519 
L 2022 519 
Q 2988 519 3436 956 
Q 3884 1394 3884 2338 
Q 3884 3275 3436 3711 
Q 2988 4147 2022 4147 
L 1259 4147 
z
M 628 4666 
L 1925 4666 
Q 3281 4666 3915 4102 
Q 4550 3538 4550 2338 
Q 4550 1131 3912 565 
Q 3275 0 1925 0 
L 628 0 
L 628 4666 
z
" transform="scale(0.015625)"/>
      </defs>
      <use xlink:href="#DejaVuSans-62"/>
      <use xlink:href="#DejaVuSans-6c" x="63.476562"/>
      <use xlink:href="#DejaVuSans-61" x="91.259766"/>
      <use xlink:href="#DejaVuSans-6e" x="152.539062"/>
      <use xlink:href="#DejaVuSans-6b" x="215.917969"/>
      <use xlink:href="#DejaVuSans-20" x="273.828125"/>
      <use xlink:href="#DejaVuSans-63" x="305.615234"/>
      <use xlink:href="#DejaVuSans-6f" x="360.595703"/>
      <use xlink:href="#DejaVuSans-72" x="421.777344"/>
      <use xlink:href="#DejaVuSans-72" x="461.140625"/>
      <use xlink:href="#DejaVuSans-65" x="500.003906"/>
      <use xlink:href="#DejaVuSans-63" x="561.527344"/>
      <use xlink:href="#DejaVuSans-74" x="616.507812"/>
      <use xlink:href="#DejaVuSans-65" x="655.716797"/>
      <use xlink:href="#DejaVuSans-64" x="717.240234"/>
      <use xlink:href="#DejaVuSans-20" x="780.716797"/>
      <use xlink:href="#DejaVuSans-4f" x="812.503906"/>
      <use xlink:href="#DejaVuSans-44" x="891.214844"/>
      <use xlink:href="#DejaVuSans-36" x="968.216797"/>
      <use xlink:href="#DejaVuSans-30" x="1031.839844"/>
      <use xlink:href="#DejaVuSans-30" x="1095.462891"/>
     </g>
    </g>
   </g>
   <g id="line2d_37">
    <path d="M 92.290909 360.096449 
L 93.239082 355.626599 
L 94.187256 365.293948 
L 95.135429 364.046548 
L 96.083602 363.007048 
L 97.031776 364.878149 
L 97.979949 364.254449 
L 98.928122 364.150499 
L 100.824469 364.462349 
L 101.772642 364.150499 
L 102.720816 364.982099 
L 104.617162 364.982099 
L 105.565336 365.189999 
L 106.513509 364.774199 
L 107.461682 365.189999 
L 108.409856 364.878149 
L 110.306202 365.189999 
L 112.202549 365.189999 
L 113.150722 365.397898 
L 114.098895 364.878149 
L 115.995242 365.086049 
L 119.787935 364.358399 
L 122.632455 364.254449 
L 123.580629 363.838648 
L 124.528802 363.838648 
L 125.476975 363.526798 
L 126.425149 363.838648 
L 127.373322 363.630748 
L 128.321495 363.734698 
L 129.269669 363.422848 
L 134.958709 362.695199 
L 135.906882 362.175449 
L 136.855055 362.383349 
L 137.803229 362.383349 
L 139.699575 361.863599 
L 143.492268 361.343848 
L 144.440442 361.031998 
L 145.388615 361.135948 
L 146.336788 360.720148 
L 147.284962 360.720148 
L 148.233135 360.304349 
L 149.181308 360.304349 
L 150.129482 359.784599 
L 152.025828 359.368799 
L 152.974002 359.368799 
L 154.870348 358.849048 
L 160.559388 357.497699 
L 165.300255 356.042398 
L 168.144775 355.418699 
L 169.092948 355.002899 
L 172.885641 354.067348 
L 173.833815 353.651548 
L 174.781988 353.027849 
L 176.678335 352.715999 
L 177.626508 351.988348 
L 178.574681 351.780448 
L 179.522855 351.156748 
L 180.471028 350.844898 
L 181.419201 350.221199 
L 182.367375 350.013299 
L 183.315548 349.181698 
L 184.263721 348.557998 
L 187.108241 347.206648 
L 188.056415 346.686898 
L 189.004588 345.855299 
L 190.900935 345.127649 
L 191.849108 344.711848 
L 192.797281 343.984198 
L 193.745455 343.984198 
L 194.693628 343.360499 
L 195.641801 342.528898 
L 196.589975 342.424948 
L 198.486321 341.281498 
L 199.434494 341.281498 
L 200.382668 340.241998 
L 201.330841 340.138048 
L 203.227188 338.994598 
L 206.071708 337.539298 
L 207.019881 336.707698 
L 208.916228 335.668199 
L 209.864401 334.836598 
L 211.760748 334.004998 
L 213.657094 332.237848 
L 214.605268 331.718098 
L 215.553441 330.782548 
L 216.501614 330.262798 
L 218.397961 328.703549 
L 222.190654 324.857398 
L 223.138828 324.649498 
L 224.087001 323.609998 
L 225.035174 322.258648 
L 226.931521 320.699398 
L 227.879694 319.140149 
L 229.776041 318.308548 
L 230.724214 317.372998 
L 231.672387 315.813748 
L 232.620561 315.813748 
L 233.568734 314.878198 
L 234.516907 313.630798 
L 235.465081 312.799198 
L 236.413254 312.487348 
L 237.361427 310.096498 
L 238.309601 310.720198 
L 239.257774 309.784649 
L 240.205947 309.160949 
L 241.154121 307.913548 
L 242.102294 307.081949 
L 243.050467 306.458248 
L 243.998641 306.146398 
L 244.946814 305.314798 
L 245.894987 304.691099 
L 246.843161 303.859498 
L 250.635854 301.884448 
L 251.584027 300.948898 
L 252.532201 300.740998 
L 253.480374 300.325198 
L 255.37672 299.909398 
L 257.273067 298.765948 
L 258.22124 298.038298 
L 259.169414 297.622499 
L 260.117587 297.518549 
L 262.013934 296.375098 
L 262.962107 295.543498 
L 263.91028 295.855348 
L 264.858454 295.023749 
L 265.806627 294.400048 
L 266.7548 294.503998 
L 267.702974 293.360548 
L 268.651147 293.672398 
L 270.547494 292.321048 
L 272.44384 290.657849 
L 273.392014 290.761798 
L 274.340187 289.930198 
L 276.236534 288.994648 
L 277.184707 288.163048 
L 278.13288 288.266998 
L 279.081054 287.123548 
L 280.9774 286.084048 
L 283.82192 285.148498 
L 285.718267 284.108998 
L 286.66644 283.901098 
L 287.614613 283.381349 
L 288.562787 283.173449 
L 291.407307 281.926048 
L 292.35548 282.341848 
L 293.303653 281.718148 
L 294.251827 281.302348 
L 295.2 281.094448 
L 296.148173 281.406298 
L 297.096347 280.782598 
L 298.04452 280.886549 
L 298.992693 280.678649 
L 300.88904 280.574698 
L 303.73356 280.054948 
L 304.681733 279.950998 
L 305.629907 280.158898 
L 306.57808 279.847048 
L 308.474427 279.847048 
L 309.4226 279.535198 
L 310.370773 280.054948 
L 312.26712 279.743098 
L 315.11164 279.639148 
L 316.059813 279.431248 
L 317.007986 279.847048 
L 317.95616 279.535198 
L 319.852506 279.639148 
L 320.80068 280.158898 
L 321.748853 279.743098 
L 323.6452 280.158898 
L 326.48972 280.262849 
L 327.437893 279.847048 
L 328.386066 279.950998 
L 330.282413 280.678649 
L 331.230586 280.262849 
L 332.17876 280.990499 
L 333.126933 280.366798 
L 335.02328 280.678649 
L 336.919626 280.990499 
L 337.867799 281.198398 
L 339.764146 281.094448 
L 340.712319 281.614198 
L 341.660493 281.614198 
L 342.608666 281.822098 
L 343.556839 281.718148 
L 344.505013 282.341848 
L 345.453186 282.341848 
L 346.401359 282.549748 
L 347.349533 282.341848 
L 350.194053 282.965548 
L 352.090399 282.861599 
L 353.038573 283.381349 
L 353.986746 283.485298 
L 354.934919 283.277399 
L 355.883093 283.589248 
L 356.831266 283.589248 
L 358.727613 284.005048 
L 359.675786 283.901098 
L 361.572133 284.524798 
L 362.520306 284.524798 
L 363.468479 284.732698 
L 366.312999 284.628748 
L 368.209346 285.148498 
L 369.157519 284.940598 
L 370.105692 285.252448 
L 372.950212 285.148498 
L 373.898386 285.564298 
L 374.846559 285.460349 
L 375.794732 285.564298 
L 377.691079 285.044548 
L 378.639252 285.460349 
L 379.587426 285.252448 
L 380.535599 285.564298 
L 381.483772 285.356398 
L 384.328292 285.564298 
L 385.276466 285.252448 
L 387.172812 285.252448 
L 388.120986 284.940598 
L 390.017332 285.252448 
L 390.965506 284.628748 
L 391.913679 285.252448 
L 392.861852 284.732698 
L 398.550892 284.732698 
L 399.499065 284.420848 
L 401.395412 284.524798 
L 403.291759 284.420848 
L 404.239932 284.420848 
L 405.188105 284.212948 
L 407.084452 284.108998 
L 409.928972 283.901098 
L 410.877145 284.108998 
L 411.825319 283.901098 
L 412.773492 284.005048 
L 413.721665 283.693198 
L 414.669839 284.005048 
L 415.618012 283.797148 
L 417.514359 283.693198 
L 418.462532 283.589248 
L 419.410705 284.005048 
L 420.358879 283.693198 
L 423.203398 283.485298 
L 425.099745 283.589248 
L 426.047918 283.693198 
L 426.996092 283.381349 
L 427.944265 283.693198 
L 428.892438 283.277399 
L 430.788785 283.797148 
L 431.736958 283.693198 
L 432.685132 283.797148 
L 433.633305 283.277399 
L 434.581478 283.797148 
L 436.477825 283.485298 
L 437.425998 283.797148 
L 439.322345 283.485298 
L 440.270518 283.589248 
L 441.218692 283.277399 
L 442.166865 283.589248 
L 444.063212 283.485298 
L 445.959558 283.589248 
L 446.907732 283.485298 
L 448.804078 283.901098 
L 450.700425 283.589248 
L 451.648598 284.005048 
L 452.596771 283.693198 
L 453.544945 283.901098 
L 454.493118 283.693198 
L 456.389465 283.901098 
L 459.233985 283.381349 
L 460.182158 284.108998 
L 461.130331 283.797148 
L 463.974851 284.005048 
L 464.923025 283.901098 
L 465.871198 284.005048 
L 466.819371 283.693198 
L 467.767545 284.108998 
L 468.715718 284.108998 
L 469.663891 283.901098 
L 470.612065 284.005048 
L 471.560238 283.901098 
L 472.508411 284.420848 
L 473.456585 284.005048 
L 474.404758 284.005048 
L 475.352931 284.212948 
L 476.301105 284.005048 
L 477.249278 284.316898 
L 478.197451 284.108998 
L 481.990144 284.212948 
L 482.938318 284.628748 
L 483.886491 284.316898 
L 486.731011 284.732698 
L 487.679184 284.524798 
L 488.627358 284.524798 
L 489.575531 284.940598 
L 490.523704 284.524798 
L 492.420051 284.212948 
L 493.368224 284.940598 
L 494.316398 284.732698 
L 498.109091 284.732698 
L 498.109091 284.732698 
" clip-path="url(#pdd059465e4)" style="fill: none; stroke: #0000ff; stroke-opacity: 0.5; stroke-width: 1.5; stroke-linecap: square"/>
   </g>
   <g id="line2d_38">
    <path d="M 92.290909 356.146348 
L 93.239082 358.641148 
L 94.187256 364.150499 
L 95.135429 361.551748 
L 96.083602 361.343848 
L 97.031776 361.967549 
L 97.979949 363.734698 
L 98.928122 364.046548 
L 100.824469 364.150499 
L 101.772642 364.254449 
L 104.617162 365.086049 
L 105.565336 365.086049 
L 106.513509 365.293948 
L 108.409856 364.774199 
L 110.306202 364.670249 
L 111.254376 364.358399 
L 112.202549 364.878149 
L 114.098895 364.254449 
L 115.995242 364.358399 
L 116.943415 364.358399 
L 118.839762 363.630748 
L 119.787935 362.487299 
L 120.736109 362.903098 
L 122.632455 362.175449 
L 123.580629 362.487299 
L 125.476975 361.967549 
L 126.425149 360.928048 
L 127.373322 362.175449 
L 128.321495 360.720148 
L 129.269669 361.551748 
L 130.217842 361.239898 
L 131.166015 361.239898 
L 132.114189 361.031998 
L 133.062362 360.616198 
L 134.010535 360.824098 
L 134.958709 360.408299 
L 135.906882 360.408299 
L 136.855055 360.616198 
L 137.803229 360.096449 
L 138.751402 360.200399 
L 139.699575 359.784599 
L 140.647749 359.992499 
L 141.595922 359.576699 
L 142.544095 359.576699 
L 143.492268 359.368799 
L 144.440442 359.368799 
L 145.388615 358.329298 
L 146.336788 358.849048 
L 147.284962 358.329298 
L 148.233135 358.641148 
L 149.181308 358.121398 
L 152.025828 357.705599 
L 154.870348 356.250298 
L 158.663042 355.314749 
L 161.507562 355.626599 
L 164.352082 355.002899 
L 165.300255 354.587098 
L 166.248428 354.483148 
L 170.041121 352.923899 
L 170.989295 352.819949 
L 173.833815 351.156748 
L 175.730161 349.909349 
L 178.574681 348.661948 
L 179.522855 348.038249 
L 180.471028 348.038249 
L 182.367375 347.102698 
L 183.315548 346.998748 
L 184.263721 346.478998 
L 185.211895 346.167148 
L 186.160068 345.543449 
L 187.108241 345.335549 
L 189.004588 343.984198 
L 189.952761 343.672348 
L 190.900935 342.840749 
L 191.849108 342.217048 
L 192.797281 341.801248 
L 193.745455 341.073599 
L 194.693628 340.657799 
L 195.641801 339.930148 
L 196.589975 338.786698 
L 197.538148 338.162999 
L 198.486321 336.915598 
L 199.434494 336.603748 
L 200.382668 336.083999 
L 201.330841 335.356348 
L 202.279014 334.836598 
L 203.227188 334.108948 
L 204.175361 333.797099 
L 206.071708 332.653648 
L 207.019881 332.549698 
L 207.968054 332.133898 
L 209.864401 330.886499 
L 210.812574 330.990449 
L 211.760748 330.262798 
L 212.708921 329.223298 
L 213.657094 328.599598 
L 214.605268 327.664048 
L 215.553441 327.352198 
L 216.501614 326.520599 
L 219.346134 324.649498 
L 220.294308 323.298149 
L 221.242481 322.258648 
L 222.190654 321.011248 
L 224.087001 319.244099 
L 225.035174 318.204598 
L 225.983347 317.684848 
L 226.931521 316.437448 
L 227.879694 316.021648 
L 229.776041 314.670299 
L 230.724214 313.526848 
L 231.672387 313.630798 
L 232.620561 312.903148 
L 233.568734 311.863648 
L 235.465081 310.616248 
L 236.413254 310.304398 
L 237.361427 308.849098 
L 238.309601 308.225398 
L 239.257774 307.393799 
L 240.205947 307.393799 
L 242.102294 305.730598 
L 243.050467 305.314798 
L 243.998641 304.275298 
L 245.894987 302.612099 
L 247.791334 301.676548 
L 248.739507 301.052848 
L 249.687681 300.740998 
L 250.635854 300.637048 
L 251.584027 299.909398 
L 253.480374 299.805449 
L 255.37672 299.077798 
L 256.324894 298.973848 
L 257.273067 298.558048 
L 259.169414 298.246198 
L 260.117587 297.518549 
L 261.06576 296.998799 
L 262.013934 296.894848 
L 262.962107 295.959298 
L 263.91028 295.751398 
L 264.858454 295.127699 
L 265.806627 294.919798 
L 266.7548 294.296098 
L 267.702974 293.984248 
L 268.651147 293.464498 
L 269.59932 292.736848 
L 271.495667 292.009198 
L 272.44384 291.073648 
L 273.392014 290.553899 
L 274.340187 290.449949 
L 275.28836 289.722298 
L 276.236534 289.202548 
L 277.184707 288.059099 
L 279.081054 286.707748 
L 280.029227 285.876148 
L 280.9774 285.460349 
L 281.925573 285.356398 
L 283.82192 284.005048 
L 285.718267 284.108998 
L 288.562787 283.693198 
L 289.51096 283.485298 
L 292.35548 283.485298 
L 293.303653 283.277399 
L 294.251827 282.653699 
L 295.2 283.069499 
L 297.096347 282.549748 
L 298.992693 282.757648 
L 299.940867 282.237898 
L 300.88904 282.237898 
L 301.837213 282.445798 
L 302.785387 282.133948 
L 303.73356 282.237898 
L 304.681733 282.029998 
L 305.629907 282.133948 
L 307.526253 281.822098 
L 308.474427 281.510248 
L 310.370773 281.198398 
L 312.26712 280.782598 
L 313.215293 280.886549 
L 314.163466 280.574698 
L 315.11164 280.782598 
L 316.059813 281.406298 
L 317.007986 281.510248 
L 317.95616 281.302348 
L 318.904333 281.406298 
L 319.852506 282.133948 
L 320.80068 282.133948 
L 321.748853 282.445798 
L 323.6452 282.133948 
L 324.593373 282.445798 
L 326.48972 282.549748 
L 327.437893 282.861599 
L 329.33424 282.549748 
L 330.282413 283.069499 
L 331.230586 283.381349 
L 332.17876 282.965548 
L 333.126933 283.381349 
L 334.075106 283.381349 
L 335.02328 283.693198 
L 335.971453 283.589248 
L 336.919626 283.693198 
L 337.867799 283.277399 
L 342.608666 284.316898 
L 343.556839 284.732698 
L 346.401359 285.252448 
L 348.297706 285.356398 
L 349.245879 286.084048 
L 351.142226 285.772198 
L 352.090399 286.395898 
L 353.038573 286.603798 
L 353.986746 286.395898 
L 355.883093 286.707748 
L 356.831266 286.499848 
L 358.727613 286.395898 
L 359.675786 286.915648 
L 360.623959 287.227498 
L 361.572133 287.227498 
L 363.468479 287.851199 
L 365.364826 287.643299 
L 366.312999 287.955148 
L 367.261172 287.955148 
L 368.209346 288.163048 
L 369.157519 288.163048 
L 370.105692 288.474898 
L 371.053866 288.578848 
L 372.002039 288.474898 
L 372.950212 288.786748 
L 374.846559 288.682798 
L 375.794732 289.098598 
L 376.742906 288.786748 
L 378.639252 289.098598 
L 379.587426 289.098598 
L 380.535599 289.306498 
L 381.483772 288.994648 
L 384.328292 289.306498 
L 385.276466 289.098598 
L 386.224639 289.202548 
L 387.172812 288.890698 
L 388.120986 288.786748 
L 389.069159 288.474898 
L 390.017332 288.578848 
L 390.965506 288.890698 
L 393.810025 288.994648 
L 395.706372 289.098598 
L 396.654545 288.890698 
L 397.602719 289.098598 
L 398.550892 288.786748 
L 400.447239 288.786748 
L 401.395412 288.578848 
L 402.343585 288.682798 
L 403.291759 288.370948 
L 404.239932 288.474898 
L 405.188105 288.266998 
L 406.136279 288.682798 
L 407.084452 288.578848 
L 408.032625 288.059099 
L 408.980799 288.163048 
L 409.928972 287.955148 
L 411.825319 288.266998 
L 413.721665 287.955148 
L 414.669839 288.370948 
L 415.618012 287.955148 
L 416.566185 288.163048 
L 417.514359 287.851199 
L 420.358879 287.747248 
L 421.307052 287.435398 
L 422.255225 287.747248 
L 423.203398 287.331448 
L 424.151572 287.123548 
L 425.099745 287.435398 
L 426.047918 287.331448 
L 426.996092 287.019598 
L 428.892438 287.539348 
L 429.840612 287.331448 
L 430.788785 287.435398 
L 431.736958 287.331448 
L 432.685132 287.539348 
L 433.633305 287.123548 
L 434.581478 287.227498 
L 435.529652 287.019598 
L 436.477825 287.123548 
L 437.425998 287.435398 
L 438.374172 287.331448 
L 439.322345 287.019598 
L 440.270518 287.227498 
L 442.166865 287.227498 
L 444.063212 287.539348 
L 445.011385 287.019598 
L 445.959558 287.331448 
L 446.907732 287.123548 
L 447.855905 287.123548 
L 448.804078 287.331448 
L 450.700425 287.227498 
L 451.648598 287.331448 
L 452.596771 287.747248 
L 453.544945 287.435398 
L 454.493118 286.915648 
L 456.389465 287.435398 
L 457.337638 287.123548 
L 458.285811 287.123548 
L 459.233985 287.331448 
L 463.026678 287.331448 
L 463.974851 287.123548 
L 464.923025 287.539348 
L 468.715718 287.227498 
L 469.663891 287.435398 
L 470.612065 287.227498 
L 471.560238 287.227498 
L 473.456585 287.539348 
L 474.404758 287.123548 
L 475.352931 287.539348 
L 476.301105 287.123548 
L 477.249278 287.539348 
L 478.197451 287.435398 
L 479.145624 287.747248 
L 480.093798 287.435398 
L 481.041971 287.435398 
L 481.990144 287.643299 
L 484.834664 287.643299 
L 486.731011 288.163048 
L 487.679184 287.747248 
L 488.627358 287.643299 
L 489.575531 288.059099 
L 490.523704 287.955148 
L 491.471878 287.643299 
L 493.368224 288.059099 
L 494.316398 287.643299 
L 495.264571 288.059099 
L 496.212744 287.539348 
L 497.160918 287.851199 
L 498.109091 287.747248 
L 498.109091 287.747248 
" clip-path="url(#pdd059465e4)" style="fill: none; stroke: #0000ff; stroke-opacity: 0.5; stroke-width: 1.5; stroke-linecap: square"/>
   </g>
   <g id="line2d_39">
    <path d="M 92.290909 357.497699 
L 93.239082 356.977949 
L 94.187256 364.878149 
L 95.135429 364.150499 
L 96.083602 362.591249 
L 97.979949 361.551748 
L 98.928122 362.279399 
L 99.876296 363.422848 
L 100.824469 364.150499 
L 101.772642 364.254449 
L 102.720816 364.982099 
L 103.668989 365.189999 
L 104.617162 364.982099 
L 105.565336 365.293948 
L 106.513509 364.878149 
L 107.461682 365.397898 
L 110.306202 364.878149 
L 111.254376 364.982099 
L 112.202549 364.774199 
L 113.150722 364.982099 
L 115.047069 364.254449 
L 115.995242 364.774199 
L 116.943415 364.358399 
L 117.891589 364.462349 
L 118.839762 363.526798 
L 119.787935 363.942598 
L 120.736109 363.422848 
L 121.684282 363.422848 
L 122.632455 363.838648 
L 123.580629 363.214948 
L 124.528802 363.422848 
L 125.476975 362.695199 
L 126.425149 363.214948 
L 128.321495 362.487299 
L 129.269669 361.655698 
L 130.217842 361.759648 
L 131.166015 361.343848 
L 132.114189 362.175449 
L 133.062362 361.343848 
L 134.958709 361.863599 
L 135.906882 360.304349 
L 136.855055 360.824098 
L 137.803229 359.992499 
L 138.751402 360.512248 
L 139.699575 360.824098 
L 141.595922 360.720148 
L 142.544095 359.784599 
L 143.492268 359.992499 
L 144.440442 359.368799 
L 145.388615 359.056948 
L 146.336788 359.056948 
L 147.284962 359.576699 
L 148.233135 358.952998 
L 149.181308 359.056948 
L 150.129482 358.433248 
L 152.025828 358.329298 
L 152.974002 358.329298 
L 154.870348 357.185849 
L 156.766695 357.289799 
L 157.714868 356.873998 
L 158.663042 356.977949 
L 163.403908 355.834498 
L 165.300255 355.106849 
L 166.248428 355.210799 
L 167.196602 354.691049 
L 168.144775 354.483148 
L 169.092948 354.067348 
L 170.041121 353.859448 
L 174.781988 351.676498 
L 175.730161 351.052798 
L 177.626508 350.533049 
L 178.574681 350.221199 
L 179.522855 349.701448 
L 183.315548 348.454048 
L 185.211895 347.414549 
L 186.160068 347.102698 
L 187.108241 346.271098 
L 188.056415 346.063198 
L 189.004588 345.647399 
L 189.952761 344.815798 
L 190.900935 344.296048 
L 191.849108 343.568399 
L 192.797281 343.256549 
L 193.745455 342.217048 
L 195.641801 341.281498 
L 198.486321 339.202498 
L 199.434494 338.578799 
L 201.330841 337.643249 
L 202.279014 337.123498 
L 203.227188 336.811648 
L 204.175361 336.291899 
L 206.071708 335.668199 
L 207.019881 334.940548 
L 207.968054 334.628698 
L 209.864401 333.277349 
L 212.708921 331.302299 
L 214.605268 329.327248 
L 216.501614 328.599598 
L 217.449788 327.871948 
L 218.397961 326.832448 
L 221.242481 324.545548 
L 222.190654 323.506049 
L 223.138828 322.258648 
L 224.087001 321.738899 
L 225.983347 319.971748 
L 226.931521 319.348049 
L 227.879694 318.308548 
L 228.827867 317.684848 
L 229.776041 317.476948 
L 230.724214 316.333498 
L 231.672387 315.605848 
L 232.620561 314.462399 
L 233.568734 314.046598 
L 234.516907 312.903148 
L 236.413254 311.967599 
L 237.361427 310.616248 
L 238.309601 309.888599 
L 239.257774 309.368849 
L 240.205947 308.641198 
L 241.154121 308.225398 
L 242.102294 307.393799 
L 243.050467 306.250348 
L 243.998641 306.146398 
L 244.946814 305.418748 
L 246.843161 303.235798 
L 247.791334 303.131848 
L 248.739507 302.508149 
L 249.687681 302.819998 
L 250.635854 301.988398 
L 251.584027 302.092348 
L 253.480374 301.468648 
L 254.428547 301.364698 
L 255.37672 300.948898 
L 256.324894 300.221249 
L 257.273067 300.013349 
L 258.22124 299.181748 
L 259.169414 298.973848 
L 262.962107 296.894848 
L 263.91028 296.894848 
L 265.806627 295.751398 
L 266.7548 295.543498 
L 267.702974 294.711898 
L 268.651147 294.503998 
L 270.547494 293.152648 
L 271.495667 292.528948 
L 272.44384 292.424999 
L 273.392014 292.009198 
L 274.340187 291.177598 
L 277.184707 289.722298 
L 278.13288 288.578848 
L 279.081054 288.474898 
L 280.029227 287.227498 
L 281.925573 286.811698 
L 283.82192 285.668249 
L 285.718267 285.252448 
L 286.66644 285.252448 
L 287.614613 284.420848 
L 289.51096 284.108998 
L 290.459133 283.173449 
L 292.35548 282.861599 
L 293.303653 282.549748 
L 294.251827 282.445798 
L 295.2 282.133948 
L 296.148173 282.653699 
L 298.04452 281.718148 
L 298.992693 281.822098 
L 299.940867 281.302348 
L 300.88904 281.406298 
L 301.837213 281.302348 
L 302.785387 280.886549 
L 303.73356 281.094448 
L 306.57808 280.678649 
L 307.526253 280.470749 
L 308.474427 280.678649 
L 309.4226 280.574698 
L 310.370773 280.678649 
L 311.318946 280.054948 
L 312.26712 280.262849 
L 315.11164 280.054948 
L 316.059813 280.054948 
L 317.007986 280.366798 
L 317.95616 280.886549 
L 318.904333 280.886549 
L 319.852506 280.262849 
L 320.80068 280.678649 
L 322.697026 280.470749 
L 323.6452 280.678649 
L 324.593373 280.574698 
L 325.541546 280.990499 
L 326.48972 280.678649 
L 327.437893 281.094448 
L 328.386066 280.990499 
L 329.33424 281.302348 
L 330.282413 281.406298 
L 331.230586 281.198398 
L 332.17876 281.302348 
L 333.126933 281.198398 
L 334.075106 281.302348 
L 335.02328 281.718148 
L 335.971453 281.510248 
L 336.919626 281.822098 
L 337.867799 281.926048 
L 338.815973 281.614198 
L 339.764146 282.445798 
L 340.712319 282.237898 
L 341.660493 282.653699 
L 342.608666 282.445798 
L 344.505013 282.549748 
L 345.453186 282.965548 
L 349.245879 283.485298 
L 351.142226 284.005048 
L 352.090399 284.005048 
L 353.038573 284.316898 
L 353.986746 284.005048 
L 354.934919 284.420848 
L 357.779439 284.524798 
L 358.727613 285.148498 
L 361.572133 285.668249 
L 362.520306 285.564298 
L 364.416653 285.876148 
L 365.364826 286.187998 
L 366.312999 286.084048 
L 367.261172 286.395898 
L 368.209346 286.499848 
L 369.157519 286.187998 
L 371.053866 286.915648 
L 372.002039 286.707748 
L 372.950212 287.227498 
L 373.898386 287.435398 
L 374.846559 286.915648 
L 375.794732 287.643299 
L 377.691079 287.435398 
L 378.639252 287.643299 
L 380.535599 287.643299 
L 383.380119 288.163048 
L 384.328292 287.851199 
L 386.224639 288.059099 
L 388.120986 287.539348 
L 390.017332 288.370948 
L 390.965506 288.163048 
L 391.913679 288.163048 
L 392.861852 287.851199 
L 393.810025 288.474898 
L 394.758199 288.370948 
L 395.706372 288.682798 
L 396.654545 288.163048 
L 397.602719 288.370948 
L 398.550892 288.266998 
L 400.447239 288.578848 
L 401.395412 288.370948 
L 402.343585 288.474898 
L 403.291759 288.370948 
L 404.239932 288.578848 
L 405.188105 288.163048 
L 407.084452 288.059099 
L 408.032625 288.370948 
L 409.928972 287.851199 
L 411.825319 287.955148 
L 412.773492 287.539348 
L 413.721665 287.747248 
L 414.669839 287.643299 
L 415.618012 287.955148 
L 416.566185 287.851199 
L 417.514359 287.955148 
L 418.462532 287.747248 
L 419.410705 287.851199 
L 421.307052 287.331448 
L 423.203398 287.019598 
L 424.151572 287.643299 
L 425.099745 287.019598 
L 426.047918 287.331448 
L 426.996092 287.123548 
L 430.788785 287.019598 
L 431.736958 286.707748 
L 435.529652 287.435398 
L 436.477825 286.603798 
L 437.425998 286.915648 
L 438.374172 287.019598 
L 439.322345 286.811698 
L 440.270518 286.811698 
L 442.166865 286.499848 
L 443.115038 286.811698 
L 444.063212 286.811698 
L 445.011385 286.603798 
L 445.959558 287.123548 
L 446.907732 287.435398 
L 447.855905 286.811698 
L 448.804078 287.123548 
L 449.752251 286.811698 
L 450.700425 286.915648 
L 451.648598 286.707748 
L 452.596771 286.811698 
L 453.544945 286.707748 
L 454.493118 286.811698 
L 456.389465 286.499848 
L 457.337638 286.915648 
L 461.130331 286.915648 
L 462.078505 287.123548 
L 463.026678 286.915648 
L 463.974851 287.227498 
L 464.923025 286.811698 
L 465.871198 286.915648 
L 466.819371 287.227498 
L 467.767545 287.123548 
L 468.715718 287.227498 
L 469.663891 287.123548 
L 470.612065 286.811698 
L 471.560238 287.331448 
L 472.508411 287.123548 
L 473.456585 287.435398 
L 475.352931 287.123548 
L 476.301105 287.019598 
L 477.249278 286.707748 
L 479.145624 286.915648 
L 480.093798 286.707748 
L 481.041971 287.123548 
L 482.938318 287.227498 
L 483.886491 287.331448 
L 484.834664 287.019598 
L 485.782838 287.123548 
L 486.731011 286.811698 
L 487.679184 286.811698 
L 488.627358 287.435398 
L 489.575531 287.123548 
L 491.471878 287.019598 
L 492.420051 287.123548 
L 493.368224 287.539348 
L 496.212744 287.227498 
L 497.160918 287.643299 
L 498.109091 287.435398 
L 498.109091 287.435398 
" clip-path="url(#pdd059465e4)" style="fill: none; stroke: #0000ff; stroke-opacity: 0.5; stroke-width: 1.5; stroke-linecap: square"/>
   </g>
   <g id="line2d_40">
    <path d="M 92.290909 356.146348 
L 93.239082 353.755498 
L 94.187256 365.501848 
L 95.135429 363.630748 
L 96.083602 362.071499 
L 97.031776 362.903098 
L 97.979949 363.422848 
L 98.928122 363.318898 
L 99.876296 363.630748 
L 101.772642 363.526798 
L 102.720816 364.358399 
L 103.668989 364.462349 
L 104.617162 364.358399 
L 105.565336 365.293948 
L 106.513509 365.189999 
L 109.358029 365.397898 
L 111.254376 365.086049 
L 115.995242 364.670249 
L 116.943415 364.670249 
L 117.891589 363.942598 
L 118.839762 364.566299 
L 119.787935 364.462349 
L 120.736109 364.150499 
L 122.632455 364.046548 
L 126.425149 362.799149 
L 127.373322 363.007048 
L 128.321495 361.759648 
L 129.269669 361.863599 
L 130.217842 362.383349 
L 132.114189 361.239898 
L 133.062362 360.512248 
L 134.010535 360.928048 
L 135.906882 360.928048 
L 136.855055 360.512248 
L 137.803229 360.928048 
L 138.751402 360.304349 
L 139.699575 360.200399 
L 140.647749 360.408299 
L 141.595922 359.888549 
L 142.544095 359.056948 
L 144.440442 359.264848 
L 145.388615 359.160898 
L 146.336788 358.745098 
L 147.284962 358.849048 
L 148.233135 358.329298 
L 149.181308 358.121398 
L 150.129482 358.225348 
L 151.077655 357.809549 
L 152.025828 357.809549 
L 154.870348 356.770048 
L 156.766695 357.081899 
L 157.714868 356.770048 
L 159.611215 356.666098 
L 161.507562 356.250298 
L 162.455735 355.834498 
L 163.403908 355.834498 
L 168.144775 354.275248 
L 169.092948 354.379198 
L 170.041121 353.755498 
L 171.937468 353.235748 
L 175.730161 351.676498 
L 176.678335 350.948848 
L 177.626508 351.052798 
L 178.574681 350.533049 
L 179.522855 350.325149 
L 180.471028 349.909349 
L 181.419201 349.285648 
L 182.367375 349.181698 
L 183.315548 348.765898 
L 184.263721 347.934299 
L 185.211895 347.830349 
L 187.108241 346.790848 
L 188.056415 346.063198 
L 189.004588 345.855299 
L 189.952761 344.919748 
L 190.900935 344.607898 
L 191.849108 344.503948 
L 192.797281 343.672348 
L 193.745455 343.464449 
L 194.693628 342.736799 
L 195.641801 342.320998 
L 198.486321 340.241998 
L 200.382668 338.890648 
L 201.330841 338.786698 
L 203.227188 337.643249 
L 204.175361 336.915598 
L 205.123534 336.499798 
L 206.071708 335.876099 
L 207.019881 334.732648 
L 209.864401 333.589199 
L 210.812574 332.653648 
L 211.760748 332.341798 
L 212.708921 331.302299 
L 218.397961 327.456148 
L 219.346134 326.416649 
L 220.294308 326.000848 
L 221.242481 324.857398 
L 223.138828 323.506049 
L 225.983347 320.803348 
L 226.931521 320.387548 
L 227.879694 319.451999 
L 228.827867 318.932249 
L 229.776041 317.892748 
L 230.724214 317.165098 
L 231.672387 316.229548 
L 232.620561 315.917698 
L 235.465081 312.903148 
L 236.413254 312.487348 
L 238.309601 310.512298 
L 241.154121 308.537248 
L 242.102294 307.705648 
L 243.050467 307.185899 
L 244.946814 305.626648 
L 246.843161 304.691099 
L 247.791334 304.067398 
L 249.687681 303.131848 
L 250.635854 302.508149 
L 251.584027 301.364698 
L 252.532201 301.780498 
L 253.480374 301.468648 
L 254.428547 300.740998 
L 255.37672 300.637048 
L 257.273067 299.181748 
L 258.22124 299.597548 
L 259.169414 298.038298 
L 260.117587 298.558048 
L 261.06576 297.934348 
L 262.013934 298.038298 
L 262.962107 296.894848 
L 263.91028 296.790898 
L 270.547494 293.152648 
L 271.495667 292.321048 
L 272.44384 292.009198 
L 273.392014 291.281548 
L 274.340187 290.761798 
L 277.184707 288.682798 
L 278.13288 288.266998 
L 279.081054 287.123548 
L 283.82192 284.005048 
L 284.770093 283.173449 
L 286.66644 282.341848 
L 291.407307 278.703598 
L 292.35548 278.391748 
L 293.303653 277.768048 
L 294.251827 276.832498 
L 295.2 276.520648 
L 296.148173 275.689049 
L 300.88904 272.570548 
L 301.837213 272.154748 
L 302.785387 271.115249 
L 303.73356 270.699449 
L 304.681733 269.867848 
L 305.629907 269.659948 
L 306.57808 268.724399 
L 315.11164 263.215048 
L 316.059813 262.903198 
L 317.007986 262.071598 
L 318.904333 260.928148 
L 320.80068 259.368899 
L 321.748853 258.849148 
L 322.697026 257.809648 
L 323.6452 257.185948 
L 325.541546 255.314848 
L 326.48972 254.587198 
L 328.386066 252.612148 
L 330.282413 250.844998 
L 331.230586 250.013398 
L 332.17876 248.869948 
L 333.126933 248.038348 
L 334.075106 246.894898 
L 335.971453 244.919849 
L 336.919626 243.880348 
L 337.867799 242.632948 
L 339.764146 240.449998 
L 340.712319 239.098648 
L 341.660493 237.955198 
L 342.608666 236.499899 
L 343.556839 235.668298 
L 344.505013 233.901148 
L 346.401359 231.302398 
L 347.349533 229.639198 
L 348.297706 228.391798 
L 349.245879 226.936498 
L 350.194053 225.689098 
L 351.142226 224.233798 
L 352.090399 222.570598 
L 353.038573 221.531098 
L 353.986746 219.659998 
L 354.934919 218.204698 
L 355.883093 216.437548 
L 356.831266 215.294098 
L 357.779439 213.319048 
L 358.727613 212.591398 
L 359.675786 210.928198 
L 360.623959 209.680798 
L 361.572133 208.121548 
L 364.416653 204.691198 
L 366.312999 201.572698 
L 369.157519 197.830498 
L 370.105692 197.206798 
L 371.053866 195.543598 
L 372.002039 194.711998 
L 373.898386 192.113248 
L 374.846559 191.073748 
L 375.794732 189.514498 
L 376.742906 188.474998 
L 377.691079 187.123648 
L 378.639252 186.395998 
L 379.587426 185.148598 
L 380.535599 184.524898 
L 381.483772 182.965648 
L 382.431946 181.718248 
L 383.380119 180.990598 
L 384.328292 179.847148 
L 385.276466 179.119498 
L 386.224639 177.768148 
L 387.172812 176.624698 
L 388.120986 174.753598 
L 389.069159 174.961498 
L 390.017332 173.818048 
L 391.913679 173.194348 
L 392.861852 172.258798 
L 393.810025 171.842998 
L 394.758199 171.011398 
L 395.706372 170.803498 
L 396.654545 171.011398 
L 397.602719 170.075848 
L 398.550892 169.452148 
L 399.499065 169.556098 
L 400.447239 169.244248 
L 401.395412 168.412648 
L 402.343585 168.620548 
L 403.291759 168.516598 
L 404.239932 168.620548 
L 405.188105 167.788948 
L 406.136279 167.996848 
L 407.084452 166.853398 
L 408.032625 167.788948 
L 408.980799 167.061298 
L 409.928972 167.788948 
L 410.877145 167.477098 
L 411.825319 166.957348 
L 413.721665 167.892898 
L 414.669839 166.853398 
L 415.618012 167.061298 
L 416.566185 167.996848 
L 417.514359 167.061298 
L 419.410705 167.373148 
L 420.358879 167.061298 
L 421.307052 166.957348 
L 422.255225 166.333648 
L 423.203398 167.061298 
L 424.151572 167.373148 
L 425.099745 167.061298 
L 426.996092 167.165248 
L 428.892438 166.229698 
L 429.840612 167.165248 
L 430.788785 167.061298 
L 431.736958 166.541548 
L 432.685132 167.165248 
L 434.581478 167.165248 
L 435.529652 166.333648 
L 438.374172 166.853398 
L 442.166865 167.269198 
L 443.115038 166.853398 
L 445.011385 167.165248 
L 446.907732 166.333648 
L 447.855905 166.541548 
L 448.804078 167.165248 
L 449.752251 166.645498 
L 450.700425 166.957348 
L 451.648598 167.477098 
L 452.596771 166.541548 
L 453.544945 167.061298 
L 454.493118 166.645498 
L 455.441291 167.373148 
L 456.389465 166.749448 
L 457.337638 167.269198 
L 458.285811 166.645498 
L 459.233985 166.957348 
L 461.130331 167.269198 
L 462.078505 166.749448 
L 463.026678 167.061298 
L 463.974851 166.853398 
L 464.923025 167.581048 
L 465.871198 167.788948 
L 466.819371 168.516598 
L 467.767545 168.932399 
L 468.715718 168.932399 
L 469.663891 169.452148 
L 471.560238 169.867948 
L 472.508411 170.283748 
L 473.456585 171.011398 
L 474.404758 171.946948 
L 475.352931 171.635098 
L 476.301105 171.531148 
L 478.197451 173.090398 
L 479.145624 172.570648 
L 480.093798 173.818048 
L 481.041971 174.545698 
L 481.990144 174.233848 
L 485.782838 176.416798 
L 487.679184 176.728648 
L 488.627358 177.456298 
L 489.575531 177.976048 
L 490.523704 177.872098 
L 491.471878 178.391848 
L 492.420051 179.119498 
L 493.368224 179.431348 
L 494.316398 179.535298 
L 495.264571 180.470848 
L 496.212744 180.990598 
L 498.109091 181.406398 
L 498.109091 181.406398 
" clip-path="url(#pdd059465e4)" style="fill: none; stroke: #0000ff; stroke-opacity: 0.5; stroke-width: 1.5; stroke-linecap: square"/>
   </g>
   <g id="LineCollection_1">
    <path d="M 92.290909 359.333887 
L 92.290909 355.609535 
" clip-path="url(#pdd059465e4)" style="fill: none; stroke: #ff0000; stroke-width: 1.5"/>
    <path d="M 130.217842 363.06966 
L 130.217842 361.281237 
" clip-path="url(#pdd059465e4)" style="fill: none; stroke: #ff0000; stroke-width: 1.5"/>
    <path d="M 168.144775 355.177879 
L 168.144775 353.788418 
" clip-path="url(#pdd059465e4)" style="fill: none; stroke: #ff0000; stroke-width: 1.5"/>
    <path d="M 206.071708 337.468431 
L 206.071708 333.400191 
" clip-path="url(#pdd059465e4)" style="fill: none; stroke: #ff0000; stroke-width: 1.5"/>
    <path d="M 243.998641 306.705736 
L 243.998641 304.755461 
" clip-path="url(#pdd059465e4)" style="fill: none; stroke: #ff0000; stroke-width: 1.5"/>
    <path d="M 281.925573 286.511083 
L 281.925573 285.137264 
" clip-path="url(#pdd059465e4)" style="fill: none; stroke: #ff0000; stroke-width: 1.5"/>
    <path d="M 319.852506 285.878629 
L 319.852506 265.187618 
" clip-path="url(#pdd059465e4)" style="fill: none; stroke: #ff0000; stroke-width: 1.5"/>
    <path d="M 357.779439 302.864186 
L 357.779439 231.206236 
" clip-path="url(#pdd059465e4)" style="fill: none; stroke: #ff0000; stroke-width: 1.5"/>
    <path d="M 395.706372 316.754836 
L 395.706372 199.955936 
" clip-path="url(#pdd059465e4)" style="fill: none; stroke: #ff0000; stroke-width: 1.5"/>
    <path d="M 433.633305 315.538254 
L 433.633305 196.806618 
" clip-path="url(#pdd059465e4)" style="fill: none; stroke: #ff0000; stroke-width: 1.5"/>
    <path d="M 471.560238 315.246521 
L 471.560238 198.917476 
" clip-path="url(#pdd059465e4)" style="fill: none; stroke: #ff0000; stroke-width: 1.5"/>
   </g>
   <g id="line2d_41">
    <defs>
     <path id="med2040914e" d="M 5 0 
L -5 -0 
" style="stroke: #ff0000"/>
    </defs>
    <g clip-path="url(#pdd059465e4)">
     <use xlink:href="#med2040914e" x="92.290909" y="359.333887" style="fill: #ff0000; stroke: #ff0000"/>
     <use xlink:href="#med2040914e" x="130.217842" y="363.06966" style="fill: #ff0000; stroke: #ff0000"/>
     <use xlink:href="#med2040914e" x="168.144775" y="355.177879" style="fill: #ff0000; stroke: #ff0000"/>
     <use xlink:href="#med2040914e" x="206.071708" y="337.468431" style="fill: #ff0000; stroke: #ff0000"/>
     <use xlink:href="#med2040914e" x="243.998641" y="306.705736" style="fill: #ff0000; stroke: #ff0000"/>
     <use xlink:href="#med2040914e" x="281.925573" y="286.511083" style="fill: #ff0000; stroke: #ff0000"/>
     <use xlink:href="#med2040914e" x="319.852506" y="285.878629" style="fill: #ff0000; stroke: #ff0000"/>
     <use xlink:href="#med2040914e" x="357.779439" y="302.864186" style="fill: #ff0000; stroke: #ff0000"/>
     <use xlink:href="#med2040914e" x="395.706372" y="316.754836" style="fill: #ff0000; stroke: #ff0000"/>
     <use xlink:href="#med2040914e" x="433.633305" y="315.538254" style="fill: #ff0000; stroke: #ff0000"/>
     <use xlink:href="#med2040914e" x="471.560238" y="315.246521" style="fill: #ff0000; stroke: #ff0000"/>
    </g>
   </g>
   <g id="line2d_42">
    <g clip-path="url(#pdd059465e4)">
     <use xlink:href="#med2040914e" x="92.290909" y="355.609535" style="fill: #ff0000; stroke: #ff0000"/>
     <use xlink:href="#med2040914e" x="130.217842" y="361.281237" style="fill: #ff0000; stroke: #ff0000"/>
     <use xlink:href="#med2040914e" x="168.144775" y="353.788418" style="fill: #ff0000; stroke: #ff0000"/>
     <use xlink:href="#med2040914e" x="206.071708" y="333.400191" style="fill: #ff0000; stroke: #ff0000"/>
     <use xlink:href="#med2040914e" x="243.998641" y="304.755461" style="fill: #ff0000; stroke: #ff0000"/>
     <use xlink:href="#med2040914e" x="281.925573" y="285.137264" style="fill: #ff0000; stroke: #ff0000"/>
     <use xlink:href="#med2040914e" x="319.852506" y="265.187618" style="fill: #ff0000; stroke: #ff0000"/>
     <use xlink:href="#med2040914e" x="357.779439" y="231.206236" style="fill: #ff0000; stroke: #ff0000"/>
     <use xlink:href="#med2040914e" x="395.706372" y="199.955936" style="fill: #ff0000; stroke: #ff0000"/>
     <use xlink:href="#med2040914e" x="433.633305" y="196.806618" style="fill: #ff0000; stroke: #ff0000"/>
     <use xlink:href="#med2040914e" x="471.560238" y="198.917476" style="fill: #ff0000; stroke: #ff0000"/>
    </g>
   </g>
   <g id="line2d_43">
    <path d="M 92.290909 357.471711 
L 130.217842 362.175449 
L 168.144775 354.483148 
L 206.071708 335.434311 
L 243.998641 305.730598 
L 281.925573 285.824173 
L 319.852506 275.533123 
L 357.779439 267.035211 
L 395.706372 258.355386 
L 433.633305 256.172436 
L 471.560238 257.081998 
" clip-path="url(#pdd059465e4)" style="fill: none; stroke: #ff0000; stroke-width: 1.5; stroke-linecap: square"/>
   </g>
   <g id="patch_3">
    <path d="M 72 384.48 
L 72 51.84 
" style="fill: none; stroke: #000000; stroke-width: 0.8; stroke-linejoin: miter; stroke-linecap: square"/>
   </g>
   <g id="patch_4">
    <path d="M 518.4 384.48 
L 518.4 51.84 
" style="fill: none; stroke: #000000; stroke-width: 0.8; stroke-linejoin: miter; stroke-linecap: square"/>
   </g>
   <g id="patch_5">
    <path d="M 72 384.48 
L 518.4 384.48 
" style="fill: none; stroke: #000000; stroke-width: 0.8; stroke-linejoin: miter; stroke-linecap: square"/>
   </g>
   <g id="patch_6">
    <path d="M 72 51.84 
L 518.4 51.84 
" style="fill: none; stroke: #000000; stroke-width: 0.8; stroke-linejoin: miter; stroke-linecap: square"/>
   </g>
   <g id="text_21">
    <!-- M33: Aspartat; Methionin; Histidin -->
    <g transform="translate(209.870312 45.84) scale(0.1 -0.1)">
     <defs>
      <path id="DejaVuSans-4d" d="M 628 4666 
L 1569 4666 
L 2759 1491 
L 3956 4666 
L 4897 4666 
L 4897 0 
L 4281 0 
L 4281 4097 
L 3078 897 
L 2444 897 
L 1241 4097 
L 1241 0 
L 628 0 
L 628 4666 
z
" transform="scale(0.015625)"/>
      <path id="DejaVuSans-3a" d="M 750 794 
L 1409 794 
L 1409 0 
L 750 0 
L 750 794 
z
M 750 3309 
L 1409 3309 
L 1409 2516 
L 750 2516 
L 750 3309 
z
" transform="scale(0.015625)"/>
      <path id="DejaVuSans-41" d="M 2188 4044 
L 1331 1722 
L 3047 1722 
L 2188 4044 
z
M 1831 4666 
L 2547 4666 
L 4325 0 
L 3669 0 
L 3244 1197 
L 1141 1197 
L 716 0 
L 50 0 
L 1831 4666 
z
" transform="scale(0.015625)"/>
      <path id="DejaVuSans-70" d="M 1159 525 
L 1159 -1331 
L 581 -1331 
L 581 3500 
L 1159 3500 
L 1159 2969 
Q 1341 3281 1617 3432 
Q 1894 3584 2278 3584 
Q 2916 3584 3314 3078 
Q 3713 2572 3713 1747 
Q 3713 922 3314 415 
Q 2916 -91 2278 -91 
Q 1894 -91 1617 61 
Q 1341 213 1159 525 
z
M 3116 1747 
Q 3116 2381 2855 2742 
Q 2594 3103 2138 3103 
Q 1681 3103 1420 2742 
Q 1159 2381 1159 1747 
Q 1159 1113 1420 752 
Q 1681 391 2138 391 
Q 2594 391 2855 752 
Q 3116 1113 3116 1747 
z
" transform="scale(0.015625)"/>
      <path id="DejaVuSans-3b" d="M 750 3309 
L 1409 3309 
L 1409 2516 
L 750 2516 
L 750 3309 
z
M 750 794 
L 1409 794 
L 1409 256 
L 897 -744 
L 494 -744 
L 750 256 
L 750 794 
z
" transform="scale(0.015625)"/>
      <path id="DejaVuSans-48" d="M 628 4666 
L 1259 4666 
L 1259 2753 
L 3553 2753 
L 3553 4666 
L 4184 4666 
L 4184 0 
L 3553 0 
L 3553 2222 
L 1259 2222 
L 1259 0 
L 628 0 
L 628 4666 
z
" transform="scale(0.015625)"/>
     </defs>
     <use xlink:href="#DejaVuSans-4d"/>
     <use xlink:href="#DejaVuSans-33" x="86.279297"/>
     <use xlink:href="#DejaVuSans-33" x="149.902344"/>
     <use xlink:href="#DejaVuSans-3a" x="213.525391"/>
     <use xlink:href="#DejaVuSans-20" x="247.216797"/>
     <use xlink:href="#DejaVuSans-41" x="279.003906"/>
     <use xlink:href="#DejaVuSans-73" x="347.412109"/>
     <use xlink:href="#DejaVuSans-70" x="399.511719"/>
     <use xlink:href="#DejaVuSans-61" x="462.988281"/>
     <use xlink:href="#DejaVuSans-72" x="524.267578"/>
     <use xlink:href="#DejaVuSans-74" x="565.380859"/>
     <use xlink:href="#DejaVuSans-61" x="604.589844"/>
     <use xlink:href="#DejaVuSans-74" x="665.869141"/>
     <use xlink:href="#DejaVuSans-3b" x="705.078125"/>
     <use xlink:href="#DejaVuSans-20" x="738.769531"/>
     <use xlink:href="#DejaVuSans-4d" x="770.556641"/>
     <use xlink:href="#DejaVuSans-65" x="856.835938"/>
     <use xlink:href="#DejaVuSans-74" x="918.359375"/>
     <use xlink:href="#DejaVuSans-68" x="957.568359"/>
     <use xlink:href="#DejaVuSans-69" x="1020.947266"/>
     <use xlink:href="#DejaVuSans-6f" x="1048.730469"/>
     <use xlink:href="#DejaVuSans-6e" x="1109.912109"/>
     <use xlink:href="#DejaVuSans-69" x="1173.291016"/>
     <use xlink:href="#DejaVuSans-6e" x="1201.074219"/>
     <use xlink:href="#DejaVuSans-3b" x="1264.453125"/>
     <use xlink:href="#DejaVuSans-20" x="1298.144531"/>
     <use xlink:href="#DejaVuSans-48" x="1329.931641"/>
     <use xlink:href="#DejaVuSans-69" x="1405.126953"/>
     <use xlink:href="#DejaVuSans-73" x="1432.910156"/>
     <use xlink:href="#DejaVuSans-74" x="1485.009766"/>
     <use xlink:href="#DejaVuSans-69" x="1524.21875"/>
     <use xlink:href="#DejaVuSans-64" x="1552.001953"/>
     <use xlink:href="#DejaVuSans-69" x="1615.478516"/>
     <use xlink:href="#DejaVuSans-6e" x="1643.261719"/>
    </g>
   </g>
  </g>
 </g>
 <defs>
  <clipPath id="pdd059465e4">
   <rect x="72" y="51.84" width="446.4" height="332.64"/>
  </clipPath>
 </defs>
</svg>
