<?xml version="1.0" encoding="utf-8" standalone="no"?>
<!DOCTYPE svg PUBLIC "-//W3C//DTD SVG 1.1//EN"
  "http://www.w3.org/Graphics/SVG/1.1/DTD/svg11.dtd">
<svg xmlns:xlink="http://www.w3.org/1999/xlink" width="576pt" height="432pt" viewBox="0 0 576 432" xmlns="http://www.w3.org/2000/svg" version="1.1">
 <metadata>
  <rdf:RDF xmlns:dc="http://purl.org/dc/elements/1.1/" xmlns:cc="http://creativecommons.org/ns#" xmlns:rdf="http://www.w3.org/1999/02/22-rdf-syntax-ns#">
   <cc:Work>
    <dc:type rdf:resource="http://purl.org/dc/dcmitype/StillImage"/>
    <dc:date>2024-11-12T14:09:19.079204</dc:date>
    <dc:format>image/svg+xml</dc:format>
    <dc:creator>
     <cc:Agent>
      <dc:title>Matplotlib v3.7.5, https://matplotlib.org/</dc:title>
     </cc:Agent>
    </dc:creator>
   </cc:Work>
  </rdf:RDF>
 </metadata>
 <defs>
  <style type="text/css">*{stroke-linejoin: round; stroke-linecap: butt}</style>
 </defs>
 <g id="figure_1">
  <g id="patch_1">
   <path d="M 0 432 
L 576 432 
L 576 0 
L 0 0 
z
" style="fill: #ffffff"/>
  </g>
  <g id="axes_1">
   <g id="patch_2">
    <path d="M 72 384.48 
L 518.4 384.48 
L 518.4 51.84 
L 72 51.84 
z
" style="fill: #ffffff"/>
   </g>
   <g id="matplotlib.axis_1">
    <g id="xtick_1">
     <g id="line2d_1">
      <path d="M 92.290909 384.48 
L 92.290909 51.84 
" clip-path="url(#pc949091494)" style="fill: none; stroke: #b0b0b0; stroke-width: 0.8; stroke-linecap: square"/>
     </g>
     <g id="line2d_2">
      <defs>
       <path id="m9821eaf95c" d="M 0 0 
L 0 3.5 
" style="stroke: #000000; stroke-width: 0.8"/>
      </defs>
      <g>
       <use xlink:href="#m9821eaf95c" x="92.290909" y="384.48" style="stroke: #000000; stroke-width: 0.8"/>
      </g>
     </g>
     <g id="text_1">
      <!-- 0.17 -->
      <g transform="translate(81.158097 399.078438) scale(0.1 -0.1)">
       <defs>
        <path id="DejaVuSans-30" d="M 2034 4250 
Q 1547 4250 1301 3770 
Q 1056 3291 1056 2328 
Q 1056 1369 1301 889 
Q 1547 409 2034 409 
Q 2525 409 2770 889 
Q 3016 1369 3016 2328 
Q 3016 3291 2770 3770 
Q 2525 4250 2034 4250 
z
M 2034 4750 
Q 2819 4750 3233 4129 
Q 3647 3509 3647 2328 
Q 3647 1150 3233 529 
Q 2819 -91 2034 -91 
Q 1250 -91 836 529 
Q 422 1150 422 2328 
Q 422 3509 836 4129 
Q 1250 4750 2034 4750 
z
" transform="scale(0.015625)"/>
        <path id="DejaVuSans-2e" d="M 684 794 
L 1344 794 
L 1344 0 
L 684 0 
L 684 794 
z
" transform="scale(0.015625)"/>
        <path id="DejaVuSans-31" d="M 794 531 
L 1825 531 
L 1825 4091 
L 703 3866 
L 703 4441 
L 1819 4666 
L 2450 4666 
L 2450 531 
L 3481 531 
L 3481 0 
L 794 0 
L 794 531 
z
" transform="scale(0.015625)"/>
        <path id="DejaVuSans-37" d="M 525 4666 
L 3525 4666 
L 3525 4397 
L 1831 0 
L 1172 0 
L 2766 4134 
L 525 4134 
L 525 4666 
z
" transform="scale(0.015625)"/>
       </defs>
       <use xlink:href="#DejaVuSans-30"/>
       <use xlink:href="#DejaVuSans-2e" x="63.623047"/>
       <use xlink:href="#DejaVuSans-31" x="95.410156"/>
       <use xlink:href="#DejaVuSans-37" x="159.033203"/>
      </g>
     </g>
    </g>
    <g id="xtick_2">
     <g id="line2d_3">
      <path d="M 130.217842 384.48 
L 130.217842 51.84 
" clip-path="url(#pc949091494)" style="fill: none; stroke: #b0b0b0; stroke-width: 0.8; stroke-linecap: square"/>
     </g>
     <g id="line2d_4">
      <g>
       <use xlink:href="#m9821eaf95c" x="130.217842" y="384.48" style="stroke: #000000; stroke-width: 0.8"/>
      </g>
     </g>
     <g id="text_2">
      <!-- 6.83 -->
      <g transform="translate(119.085029 399.078438) scale(0.1 -0.1)">
       <defs>
        <path id="DejaVuSans-36" d="M 2113 2584 
Q 1688 2584 1439 2293 
Q 1191 2003 1191 1497 
Q 1191 994 1439 701 
Q 1688 409 2113 409 
Q 2538 409 2786 701 
Q 3034 994 3034 1497 
Q 3034 2003 2786 2293 
Q 2538 2584 2113 2584 
z
M 3366 4563 
L 3366 3988 
Q 3128 4100 2886 4159 
Q 2644 4219 2406 4219 
Q 1781 4219 1451 3797 
Q 1122 3375 1075 2522 
Q 1259 2794 1537 2939 
Q 1816 3084 2150 3084 
Q 2853 3084 3261 2657 
Q 3669 2231 3669 1497 
Q 3669 778 3244 343 
Q 2819 -91 2113 -91 
Q 1303 -91 875 529 
Q 447 1150 447 2328 
Q 447 3434 972 4092 
Q 1497 4750 2381 4750 
Q 2619 4750 2861 4703 
Q 3103 4656 3366 4563 
z
" transform="scale(0.015625)"/>
        <path id="DejaVuSans-38" d="M 2034 2216 
Q 1584 2216 1326 1975 
Q 1069 1734 1069 1313 
Q 1069 891 1326 650 
Q 1584 409 2034 409 
Q 2484 409 2743 651 
Q 3003 894 3003 1313 
Q 3003 1734 2745 1975 
Q 2488 2216 2034 2216 
z
M 1403 2484 
Q 997 2584 770 2862 
Q 544 3141 544 3541 
Q 544 4100 942 4425 
Q 1341 4750 2034 4750 
Q 2731 4750 3128 4425 
Q 3525 4100 3525 3541 
Q 3525 3141 3298 2862 
Q 3072 2584 2669 2484 
Q 3125 2378 3379 2068 
Q 3634 1759 3634 1313 
Q 3634 634 3220 271 
Q 2806 -91 2034 -91 
Q 1263 -91 848 271 
Q 434 634 434 1313 
Q 434 1759 690 2068 
Q 947 2378 1403 2484 
z
M 1172 3481 
Q 1172 3119 1398 2916 
Q 1625 2713 2034 2713 
Q 2441 2713 2670 2916 
Q 2900 3119 2900 3481 
Q 2900 3844 2670 4047 
Q 2441 4250 2034 4250 
Q 1625 4250 1398 4047 
Q 1172 3844 1172 3481 
z
" transform="scale(0.015625)"/>
        <path id="DejaVuSans-33" d="M 2597 2516 
Q 3050 2419 3304 2112 
Q 3559 1806 3559 1356 
Q 3559 666 3084 287 
Q 2609 -91 1734 -91 
Q 1441 -91 1130 -33 
Q 819 25 488 141 
L 488 750 
Q 750 597 1062 519 
Q 1375 441 1716 441 
Q 2309 441 2620 675 
Q 2931 909 2931 1356 
Q 2931 1769 2642 2001 
Q 2353 2234 1838 2234 
L 1294 2234 
L 1294 2753 
L 1863 2753 
Q 2328 2753 2575 2939 
Q 2822 3125 2822 3475 
Q 2822 3834 2567 4026 
Q 2313 4219 1838 4219 
Q 1578 4219 1281 4162 
Q 984 4106 628 3988 
L 628 4550 
Q 988 4650 1302 4700 
Q 1616 4750 1894 4750 
Q 2613 4750 3031 4423 
Q 3450 4097 3450 3541 
Q 3450 3153 3228 2886 
Q 3006 2619 2597 2516 
z
" transform="scale(0.015625)"/>
       </defs>
       <use xlink:href="#DejaVuSans-36"/>
       <use xlink:href="#DejaVuSans-2e" x="63.623047"/>
       <use xlink:href="#DejaVuSans-38" x="95.410156"/>
       <use xlink:href="#DejaVuSans-33" x="159.033203"/>
      </g>
     </g>
    </g>
    <g id="xtick_3">
     <g id="line2d_5">
      <path d="M 168.144775 384.48 
L 168.144775 51.84 
" clip-path="url(#pc949091494)" style="fill: none; stroke: #b0b0b0; stroke-width: 0.8; stroke-linecap: square"/>
     </g>
     <g id="line2d_6">
      <g>
       <use xlink:href="#m9821eaf95c" x="168.144775" y="384.48" style="stroke: #000000; stroke-width: 0.8"/>
      </g>
     </g>
     <g id="text_3">
      <!-- 13.5 -->
      <g transform="translate(157.011962 399.078438) scale(0.1 -0.1)">
       <defs>
        <path id="DejaVuSans-35" d="M 691 4666 
L 3169 4666 
L 3169 4134 
L 1269 4134 
L 1269 2991 
Q 1406 3038 1543 3061 
Q 1681 3084 1819 3084 
Q 2600 3084 3056 2656 
Q 3513 2228 3513 1497 
Q 3513 744 3044 326 
Q 2575 -91 1722 -91 
Q 1428 -91 1123 -41 
Q 819 9 494 109 
L 494 744 
Q 775 591 1075 516 
Q 1375 441 1709 441 
Q 2250 441 2565 725 
Q 2881 1009 2881 1497 
Q 2881 1984 2565 2268 
Q 2250 2553 1709 2553 
Q 1456 2553 1204 2497 
Q 953 2441 691 2322 
L 691 4666 
z
" transform="scale(0.015625)"/>
       </defs>
       <use xlink:href="#DejaVuSans-31"/>
       <use xlink:href="#DejaVuSans-33" x="63.623047"/>
       <use xlink:href="#DejaVuSans-2e" x="127.246094"/>
       <use xlink:href="#DejaVuSans-35" x="159.033203"/>
      </g>
     </g>
    </g>
    <g id="xtick_4">
     <g id="line2d_7">
      <path d="M 206.071708 384.48 
L 206.071708 51.84 
" clip-path="url(#pc949091494)" style="fill: none; stroke: #b0b0b0; stroke-width: 0.8; stroke-linecap: square"/>
     </g>
     <g id="line2d_8">
      <g>
       <use xlink:href="#m9821eaf95c" x="206.071708" y="384.48" style="stroke: #000000; stroke-width: 0.8"/>
      </g>
     </g>
     <g id="text_4">
      <!-- 20.17 -->
      <g transform="translate(191.757645 399.078438) scale(0.1 -0.1)">
       <defs>
        <path id="DejaVuSans-32" d="M 1228 531 
L 3431 531 
L 3431 0 
L 469 0 
L 469 531 
Q 828 903 1448 1529 
Q 2069 2156 2228 2338 
Q 2531 2678 2651 2914 
Q 2772 3150 2772 3378 
Q 2772 3750 2511 3984 
Q 2250 4219 1831 4219 
Q 1534 4219 1204 4116 
Q 875 4013 500 3803 
L 500 4441 
Q 881 4594 1212 4672 
Q 1544 4750 1819 4750 
Q 2544 4750 2975 4387 
Q 3406 4025 3406 3419 
Q 3406 3131 3298 2873 
Q 3191 2616 2906 2266 
Q 2828 2175 2409 1742 
Q 1991 1309 1228 531 
z
" transform="scale(0.015625)"/>
       </defs>
       <use xlink:href="#DejaVuSans-32"/>
       <use xlink:href="#DejaVuSans-30" x="63.623047"/>
       <use xlink:href="#DejaVuSans-2e" x="127.246094"/>
       <use xlink:href="#DejaVuSans-31" x="159.033203"/>
       <use xlink:href="#DejaVuSans-37" x="222.65625"/>
      </g>
     </g>
    </g>
    <g id="xtick_5">
     <g id="line2d_9">
      <path d="M 243.998641 384.48 
L 243.998641 51.84 
" clip-path="url(#pc949091494)" style="fill: none; stroke: #b0b0b0; stroke-width: 0.8; stroke-linecap: square"/>
     </g>
     <g id="line2d_10">
      <g>
       <use xlink:href="#m9821eaf95c" x="243.998641" y="384.48" style="stroke: #000000; stroke-width: 0.8"/>
      </g>
     </g>
     <g id="text_5">
      <!-- 26.83 -->
      <g transform="translate(229.684578 399.078438) scale(0.1 -0.1)">
       <use xlink:href="#DejaVuSans-32"/>
       <use xlink:href="#DejaVuSans-36" x="63.623047"/>
       <use xlink:href="#DejaVuSans-2e" x="127.246094"/>
       <use xlink:href="#DejaVuSans-38" x="159.033203"/>
       <use xlink:href="#DejaVuSans-33" x="222.65625"/>
      </g>
     </g>
    </g>
    <g id="xtick_6">
     <g id="line2d_11">
      <path d="M 281.925573 384.48 
L 281.925573 51.84 
" clip-path="url(#pc949091494)" style="fill: none; stroke: #b0b0b0; stroke-width: 0.8; stroke-linecap: square"/>
     </g>
     <g id="line2d_12">
      <g>
       <use xlink:href="#m9821eaf95c" x="281.925573" y="384.48" style="stroke: #000000; stroke-width: 0.8"/>
      </g>
     </g>
     <g id="text_6">
      <!-- 33.5 -->
      <g transform="translate(270.792761 399.078438) scale(0.1 -0.1)">
       <use xlink:href="#DejaVuSans-33"/>
       <use xlink:href="#DejaVuSans-33" x="63.623047"/>
       <use xlink:href="#DejaVuSans-2e" x="127.246094"/>
       <use xlink:href="#DejaVuSans-35" x="159.033203"/>
      </g>
     </g>
    </g>
    <g id="xtick_7">
     <g id="line2d_13">
      <path d="M 319.852506 384.48 
L 319.852506 51.84 
" clip-path="url(#pc949091494)" style="fill: none; stroke: #b0b0b0; stroke-width: 0.8; stroke-linecap: square"/>
     </g>
     <g id="line2d_14">
      <g>
       <use xlink:href="#m9821eaf95c" x="319.852506" y="384.48" style="stroke: #000000; stroke-width: 0.8"/>
      </g>
     </g>
     <g id="text_7">
      <!-- 40.17 -->
      <g transform="translate(305.538444 399.078438) scale(0.1 -0.1)">
       <defs>
        <path id="DejaVuSans-34" d="M 2419 4116 
L 825 1625 
L 2419 1625 
L 2419 4116 
z
M 2253 4666 
L 3047 4666 
L 3047 1625 
L 3713 1625 
L 3713 1100 
L 3047 1100 
L 3047 0 
L 2419 0 
L 2419 1100 
L 313 1100 
L 313 1709 
L 2253 4666 
z
" transform="scale(0.015625)"/>
       </defs>
       <use xlink:href="#DejaVuSans-34"/>
       <use xlink:href="#DejaVuSans-30" x="63.623047"/>
       <use xlink:href="#DejaVuSans-2e" x="127.246094"/>
       <use xlink:href="#DejaVuSans-31" x="159.033203"/>
       <use xlink:href="#DejaVuSans-37" x="222.65625"/>
      </g>
     </g>
    </g>
    <g id="xtick_8">
     <g id="line2d_15">
      <path d="M 357.779439 384.48 
L 357.779439 51.84 
" clip-path="url(#pc949091494)" style="fill: none; stroke: #b0b0b0; stroke-width: 0.8; stroke-linecap: square"/>
     </g>
     <g id="line2d_16">
      <g>
       <use xlink:href="#m9821eaf95c" x="357.779439" y="384.48" style="stroke: #000000; stroke-width: 0.8"/>
      </g>
     </g>
     <g id="text_8">
      <!-- 46.83 -->
      <g transform="translate(343.465377 399.078438) scale(0.1 -0.1)">
       <use xlink:href="#DejaVuSans-34"/>
       <use xlink:href="#DejaVuSans-36" x="63.623047"/>
       <use xlink:href="#DejaVuSans-2e" x="127.246094"/>
       <use xlink:href="#DejaVuSans-38" x="159.033203"/>
       <use xlink:href="#DejaVuSans-33" x="222.65625"/>
      </g>
     </g>
    </g>
    <g id="xtick_9">
     <g id="line2d_17">
      <path d="M 395.706372 384.48 
L 395.706372 51.84 
" clip-path="url(#pc949091494)" style="fill: none; stroke: #b0b0b0; stroke-width: 0.8; stroke-linecap: square"/>
     </g>
     <g id="line2d_18">
      <g>
       <use xlink:href="#m9821eaf95c" x="395.706372" y="384.48" style="stroke: #000000; stroke-width: 0.8"/>
      </g>
     </g>
     <g id="text_9">
      <!-- 53.5 -->
      <g transform="translate(384.57356 399.078438) scale(0.1 -0.1)">
       <use xlink:href="#DejaVuSans-35"/>
       <use xlink:href="#DejaVuSans-33" x="63.623047"/>
       <use xlink:href="#DejaVuSans-2e" x="127.246094"/>
       <use xlink:href="#DejaVuSans-35" x="159.033203"/>
      </g>
     </g>
    </g>
    <g id="xtick_10">
     <g id="line2d_19">
      <path d="M 433.633305 384.48 
L 433.633305 51.84 
" clip-path="url(#pc949091494)" style="fill: none; stroke: #b0b0b0; stroke-width: 0.8; stroke-linecap: square"/>
     </g>
     <g id="line2d_20">
      <g>
       <use xlink:href="#m9821eaf95c" x="433.633305" y="384.48" style="stroke: #000000; stroke-width: 0.8"/>
      </g>
     </g>
     <g id="text_10">
      <!-- 60.17 -->
      <g transform="translate(419.319243 399.078438) scale(0.1 -0.1)">
       <use xlink:href="#DejaVuSans-36"/>
       <use xlink:href="#DejaVuSans-30" x="63.623047"/>
       <use xlink:href="#DejaVuSans-2e" x="127.246094"/>
       <use xlink:href="#DejaVuSans-31" x="159.033203"/>
       <use xlink:href="#DejaVuSans-37" x="222.65625"/>
      </g>
     </g>
    </g>
    <g id="xtick_11">
     <g id="line2d_21">
      <path d="M 471.560238 384.48 
L 471.560238 51.84 
" clip-path="url(#pc949091494)" style="fill: none; stroke: #b0b0b0; stroke-width: 0.8; stroke-linecap: square"/>
     </g>
     <g id="line2d_22">
      <g>
       <use xlink:href="#m9821eaf95c" x="471.560238" y="384.48" style="stroke: #000000; stroke-width: 0.8"/>
      </g>
     </g>
     <g id="text_11">
      <!-- 66.83 -->
      <g transform="translate(457.246175 399.078438) scale(0.1 -0.1)">
       <use xlink:href="#DejaVuSans-36"/>
       <use xlink:href="#DejaVuSans-36" x="63.623047"/>
       <use xlink:href="#DejaVuSans-2e" x="127.246094"/>
       <use xlink:href="#DejaVuSans-38" x="159.033203"/>
       <use xlink:href="#DejaVuSans-33" x="222.65625"/>
      </g>
     </g>
    </g>
    <g id="text_12">
     <!-- time in hours [h] -->
     <g transform="translate(253.451562 412.756563) scale(0.1 -0.1)">
      <defs>
       <path id="DejaVuSans-74" d="M 1172 4494 
L 1172 3500 
L 2356 3500 
L 2356 3053 
L 1172 3053 
L 1172 1153 
Q 1172 725 1289 603 
Q 1406 481 1766 481 
L 2356 481 
L 2356 0 
L 1766 0 
Q 1100 0 847 248 
Q 594 497 594 1153 
L 594 3053 
L 172 3053 
L 172 3500 
L 594 3500 
L 594 4494 
L 1172 4494 
z
" transform="scale(0.015625)"/>
       <path id="DejaVuSans-69" d="M 603 3500 
L 1178 3500 
L 1178 0 
L 603 0 
L 603 3500 
z
M 603 4863 
L 1178 4863 
L 1178 4134 
L 603 4134 
L 603 4863 
z
" transform="scale(0.015625)"/>
       <path id="DejaVuSans-6d" d="M 3328 2828 
Q 3544 3216 3844 3400 
Q 4144 3584 4550 3584 
Q 5097 3584 5394 3201 
Q 5691 2819 5691 2113 
L 5691 0 
L 5113 0 
L 5113 2094 
Q 5113 2597 4934 2840 
Q 4756 3084 4391 3084 
Q 3944 3084 3684 2787 
Q 3425 2491 3425 1978 
L 3425 0 
L 2847 0 
L 2847 2094 
Q 2847 2600 2669 2842 
Q 2491 3084 2119 3084 
Q 1678 3084 1418 2786 
Q 1159 2488 1159 1978 
L 1159 0 
L 581 0 
L 581 3500 
L 1159 3500 
L 1159 2956 
Q 1356 3278 1631 3431 
Q 1906 3584 2284 3584 
Q 2666 3584 2933 3390 
Q 3200 3197 3328 2828 
z
" transform="scale(0.015625)"/>
       <path id="DejaVuSans-65" d="M 3597 1894 
L 3597 1613 
L 953 1613 
Q 991 1019 1311 708 
Q 1631 397 2203 397 
Q 2534 397 2845 478 
Q 3156 559 3463 722 
L 3463 178 
Q 3153 47 2828 -22 
Q 2503 -91 2169 -91 
Q 1331 -91 842 396 
Q 353 884 353 1716 
Q 353 2575 817 3079 
Q 1281 3584 2069 3584 
Q 2775 3584 3186 3129 
Q 3597 2675 3597 1894 
z
M 3022 2063 
Q 3016 2534 2758 2815 
Q 2500 3097 2075 3097 
Q 1594 3097 1305 2825 
Q 1016 2553 972 2059 
L 3022 2063 
z
" transform="scale(0.015625)"/>
       <path id="DejaVuSans-20" transform="scale(0.015625)"/>
       <path id="DejaVuSans-6e" d="M 3513 2113 
L 3513 0 
L 2938 0 
L 2938 2094 
Q 2938 2591 2744 2837 
Q 2550 3084 2163 3084 
Q 1697 3084 1428 2787 
Q 1159 2491 1159 1978 
L 1159 0 
L 581 0 
L 581 3500 
L 1159 3500 
L 1159 2956 
Q 1366 3272 1645 3428 
Q 1925 3584 2291 3584 
Q 2894 3584 3203 3211 
Q 3513 2838 3513 2113 
z
" transform="scale(0.015625)"/>
       <path id="DejaVuSans-68" d="M 3513 2113 
L 3513 0 
L 2938 0 
L 2938 2094 
Q 2938 2591 2744 2837 
Q 2550 3084 2163 3084 
Q 1697 3084 1428 2787 
Q 1159 2491 1159 1978 
L 1159 0 
L 581 0 
L 581 4863 
L 1159 4863 
L 1159 2956 
Q 1366 3272 1645 3428 
Q 1925 3584 2291 3584 
Q 2894 3584 3203 3211 
Q 3513 2838 3513 2113 
z
" transform="scale(0.015625)"/>
       <path id="DejaVuSans-6f" d="M 1959 3097 
Q 1497 3097 1228 2736 
Q 959 2375 959 1747 
Q 959 1119 1226 758 
Q 1494 397 1959 397 
Q 2419 397 2687 759 
Q 2956 1122 2956 1747 
Q 2956 2369 2687 2733 
Q 2419 3097 1959 3097 
z
M 1959 3584 
Q 2709 3584 3137 3096 
Q 3566 2609 3566 1747 
Q 3566 888 3137 398 
Q 2709 -91 1959 -91 
Q 1206 -91 779 398 
Q 353 888 353 1747 
Q 353 2609 779 3096 
Q 1206 3584 1959 3584 
z
" transform="scale(0.015625)"/>
       <path id="DejaVuSans-75" d="M 544 1381 
L 544 3500 
L 1119 3500 
L 1119 1403 
Q 1119 906 1312 657 
Q 1506 409 1894 409 
Q 2359 409 2629 706 
Q 2900 1003 2900 1516 
L 2900 3500 
L 3475 3500 
L 3475 0 
L 2900 0 
L 2900 538 
Q 2691 219 2414 64 
Q 2138 -91 1772 -91 
Q 1169 -91 856 284 
Q 544 659 544 1381 
z
M 1991 3584 
L 1991 3584 
z
" transform="scale(0.015625)"/>
       <path id="DejaVuSans-72" d="M 2631 2963 
Q 2534 3019 2420 3045 
Q 2306 3072 2169 3072 
Q 1681 3072 1420 2755 
Q 1159 2438 1159 1844 
L 1159 0 
L 581 0 
L 581 3500 
L 1159 3500 
L 1159 2956 
Q 1341 3275 1631 3429 
Q 1922 3584 2338 3584 
Q 2397 3584 2469 3576 
Q 2541 3569 2628 3553 
L 2631 2963 
z
" transform="scale(0.015625)"/>
       <path id="DejaVuSans-73" d="M 2834 3397 
L 2834 2853 
Q 2591 2978 2328 3040 
Q 2066 3103 1784 3103 
Q 1356 3103 1142 2972 
Q 928 2841 928 2578 
Q 928 2378 1081 2264 
Q 1234 2150 1697 2047 
L 1894 2003 
Q 2506 1872 2764 1633 
Q 3022 1394 3022 966 
Q 3022 478 2636 193 
Q 2250 -91 1575 -91 
Q 1294 -91 989 -36 
Q 684 19 347 128 
L 347 722 
Q 666 556 975 473 
Q 1284 391 1588 391 
Q 1994 391 2212 530 
Q 2431 669 2431 922 
Q 2431 1156 2273 1281 
Q 2116 1406 1581 1522 
L 1381 1569 
Q 847 1681 609 1914 
Q 372 2147 372 2553 
Q 372 3047 722 3315 
Q 1072 3584 1716 3584 
Q 2034 3584 2315 3537 
Q 2597 3491 2834 3397 
z
" transform="scale(0.015625)"/>
       <path id="DejaVuSans-5b" d="M 550 4863 
L 1875 4863 
L 1875 4416 
L 1125 4416 
L 1125 -397 
L 1875 -397 
L 1875 -844 
L 550 -844 
L 550 4863 
z
" transform="scale(0.015625)"/>
       <path id="DejaVuSans-5d" d="M 1947 4863 
L 1947 -844 
L 622 -844 
L 622 -397 
L 1369 -397 
L 1369 4416 
L 622 4416 
L 622 4863 
L 1947 4863 
z
" transform="scale(0.015625)"/>
      </defs>
      <use xlink:href="#DejaVuSans-74"/>
      <use xlink:href="#DejaVuSans-69" x="39.208984"/>
      <use xlink:href="#DejaVuSans-6d" x="66.992188"/>
      <use xlink:href="#DejaVuSans-65" x="164.404297"/>
      <use xlink:href="#DejaVuSans-20" x="225.927734"/>
      <use xlink:href="#DejaVuSans-69" x="257.714844"/>
      <use xlink:href="#DejaVuSans-6e" x="285.498047"/>
      <use xlink:href="#DejaVuSans-20" x="348.876953"/>
      <use xlink:href="#DejaVuSans-68" x="380.664062"/>
      <use xlink:href="#DejaVuSans-6f" x="444.042969"/>
      <use xlink:href="#DejaVuSans-75" x="505.224609"/>
      <use xlink:href="#DejaVuSans-72" x="568.603516"/>
      <use xlink:href="#DejaVuSans-73" x="609.716797"/>
      <use xlink:href="#DejaVuSans-20" x="661.816406"/>
      <use xlink:href="#DejaVuSans-5b" x="693.603516"/>
      <use xlink:href="#DejaVuSans-68" x="732.617188"/>
      <use xlink:href="#DejaVuSans-5d" x="795.996094"/>
     </g>
    </g>
   </g>
   <g id="matplotlib.axis_2">
    <g id="ytick_1">
     <g id="line2d_23">
      <path d="M 72 370.387413 
L 518.4 370.387413 
" clip-path="url(#pc949091494)" style="fill: none; stroke: #b0b0b0; stroke-width: 0.8; stroke-linecap: square"/>
     </g>
     <g id="line2d_24">
      <defs>
       <path id="me6adbd3cd7" d="M 0 0 
L -3.5 0 
" style="stroke: #000000; stroke-width: 0.8"/>
      </defs>
      <g>
       <use xlink:href="#me6adbd3cd7" x="72" y="370.387413" style="stroke: #000000; stroke-width: 0.8"/>
      </g>
     </g>
     <g id="text_13">
      <!-- 5000 -->
      <g transform="translate(39.55 374.186631) scale(0.1 -0.1)">
       <use xlink:href="#DejaVuSans-35"/>
       <use xlink:href="#DejaVuSans-30" x="63.623047"/>
       <use xlink:href="#DejaVuSans-30" x="127.246094"/>
       <use xlink:href="#DejaVuSans-30" x="190.869141"/>
      </g>
     </g>
    </g>
    <g id="ytick_2">
     <g id="line2d_25">
      <path d="M 72 318.202695 
L 518.4 318.202695 
" clip-path="url(#pc949091494)" style="fill: none; stroke: #b0b0b0; stroke-width: 0.8; stroke-linecap: square"/>
     </g>
     <g id="line2d_26">
      <g>
       <use xlink:href="#me6adbd3cd7" x="72" y="318.202695" style="stroke: #000000; stroke-width: 0.8"/>
      </g>
     </g>
     <g id="text_14">
      <!-- 10000 -->
      <g transform="translate(33.1875 322.001914) scale(0.1 -0.1)">
       <use xlink:href="#DejaVuSans-31"/>
       <use xlink:href="#DejaVuSans-30" x="63.623047"/>
       <use xlink:href="#DejaVuSans-30" x="127.246094"/>
       <use xlink:href="#DejaVuSans-30" x="190.869141"/>
       <use xlink:href="#DejaVuSans-30" x="254.492188"/>
      </g>
     </g>
    </g>
    <g id="ytick_3">
     <g id="line2d_27">
      <path d="M 72 266.017978 
L 518.4 266.017978 
" clip-path="url(#pc949091494)" style="fill: none; stroke: #b0b0b0; stroke-width: 0.8; stroke-linecap: square"/>
     </g>
     <g id="line2d_28">
      <g>
       <use xlink:href="#me6adbd3cd7" x="72" y="266.017978" style="stroke: #000000; stroke-width: 0.8"/>
      </g>
     </g>
     <g id="text_15">
      <!-- 15000 -->
      <g transform="translate(33.1875 269.817197) scale(0.1 -0.1)">
       <use xlink:href="#DejaVuSans-31"/>
       <use xlink:href="#DejaVuSans-35" x="63.623047"/>
       <use xlink:href="#DejaVuSans-30" x="127.246094"/>
       <use xlink:href="#DejaVuSans-30" x="190.869141"/>
       <use xlink:href="#DejaVuSans-30" x="254.492188"/>
      </g>
     </g>
    </g>
    <g id="ytick_4">
     <g id="line2d_29">
      <path d="M 72 213.833261 
L 518.4 213.833261 
" clip-path="url(#pc949091494)" style="fill: none; stroke: #b0b0b0; stroke-width: 0.8; stroke-linecap: square"/>
     </g>
     <g id="line2d_30">
      <g>
       <use xlink:href="#me6adbd3cd7" x="72" y="213.833261" style="stroke: #000000; stroke-width: 0.8"/>
      </g>
     </g>
     <g id="text_16">
      <!-- 20000 -->
      <g transform="translate(33.1875 217.632479) scale(0.1 -0.1)">
       <use xlink:href="#DejaVuSans-32"/>
       <use xlink:href="#DejaVuSans-30" x="63.623047"/>
       <use xlink:href="#DejaVuSans-30" x="127.246094"/>
       <use xlink:href="#DejaVuSans-30" x="190.869141"/>
       <use xlink:href="#DejaVuSans-30" x="254.492188"/>
      </g>
     </g>
    </g>
    <g id="ytick_5">
     <g id="line2d_31">
      <path d="M 72 161.648543 
L 518.4 161.648543 
" clip-path="url(#pc949091494)" style="fill: none; stroke: #b0b0b0; stroke-width: 0.8; stroke-linecap: square"/>
     </g>
     <g id="line2d_32">
      <g>
       <use xlink:href="#me6adbd3cd7" x="72" y="161.648543" style="stroke: #000000; stroke-width: 0.8"/>
      </g>
     </g>
     <g id="text_17">
      <!-- 25000 -->
      <g transform="translate(33.1875 165.447762) scale(0.1 -0.1)">
       <use xlink:href="#DejaVuSans-32"/>
       <use xlink:href="#DejaVuSans-35" x="63.623047"/>
       <use xlink:href="#DejaVuSans-30" x="127.246094"/>
       <use xlink:href="#DejaVuSans-30" x="190.869141"/>
       <use xlink:href="#DejaVuSans-30" x="254.492188"/>
      </g>
     </g>
    </g>
    <g id="ytick_6">
     <g id="line2d_33">
      <path d="M 72 109.463826 
L 518.4 109.463826 
" clip-path="url(#pc949091494)" style="fill: none; stroke: #b0b0b0; stroke-width: 0.8; stroke-linecap: square"/>
     </g>
     <g id="line2d_34">
      <g>
       <use xlink:href="#me6adbd3cd7" x="72" y="109.463826" style="stroke: #000000; stroke-width: 0.8"/>
      </g>
     </g>
     <g id="text_18">
      <!-- 30000 -->
      <g transform="translate(33.1875 113.263045) scale(0.1 -0.1)">
       <use xlink:href="#DejaVuSans-33"/>
       <use xlink:href="#DejaVuSans-30" x="63.623047"/>
       <use xlink:href="#DejaVuSans-30" x="127.246094"/>
       <use xlink:href="#DejaVuSans-30" x="190.869141"/>
       <use xlink:href="#DejaVuSans-30" x="254.492188"/>
      </g>
     </g>
    </g>
    <g id="ytick_7">
     <g id="line2d_35">
      <path d="M 72 57.279109 
L 518.4 57.279109 
" clip-path="url(#pc949091494)" style="fill: none; stroke: #b0b0b0; stroke-width: 0.8; stroke-linecap: square"/>
     </g>
     <g id="line2d_36">
      <g>
       <use xlink:href="#me6adbd3cd7" x="72" y="57.279109" style="stroke: #000000; stroke-width: 0.8"/>
      </g>
     </g>
     <g id="text_19">
      <!-- 35000 -->
      <g transform="translate(33.1875 61.078327) scale(0.1 -0.1)">
       <use xlink:href="#DejaVuSans-33"/>
       <use xlink:href="#DejaVuSans-35" x="63.623047"/>
       <use xlink:href="#DejaVuSans-30" x="127.246094"/>
       <use xlink:href="#DejaVuSans-30" x="190.869141"/>
       <use xlink:href="#DejaVuSans-30" x="254.492188"/>
      </g>
     </g>
    </g>
    <g id="text_20">
     <!-- blank corrected GFP RFU -->
     <g transform="translate(27.107812 280.149062) rotate(-90) scale(0.1 -0.1)">
      <defs>
       <path id="DejaVuSans-62" d="M 3116 1747 
Q 3116 2381 2855 2742 
Q 2594 3103 2138 3103 
Q 1681 3103 1420 2742 
Q 1159 2381 1159 1747 
Q 1159 1113 1420 752 
Q 1681 391 2138 391 
Q 2594 391 2855 752 
Q 3116 1113 3116 1747 
z
M 1159 2969 
Q 1341 3281 1617 3432 
Q 1894 3584 2278 3584 
Q 2916 3584 3314 3078 
Q 3713 2572 3713 1747 
Q 3713 922 3314 415 
Q 2916 -91 2278 -91 
Q 1894 -91 1617 61 
Q 1341 213 1159 525 
L 1159 0 
L 581 0 
L 581 4863 
L 1159 4863 
L 1159 2969 
z
" transform="scale(0.015625)"/>
       <path id="DejaVuSans-6c" d="M 603 4863 
L 1178 4863 
L 1178 0 
L 603 0 
L 603 4863 
z
" transform="scale(0.015625)"/>
       <path id="DejaVuSans-61" d="M 2194 1759 
Q 1497 1759 1228 1600 
Q 959 1441 959 1056 
Q 959 750 1161 570 
Q 1363 391 1709 391 
Q 2188 391 2477 730 
Q 2766 1069 2766 1631 
L 2766 1759 
L 2194 1759 
z
M 3341 1997 
L 3341 0 
L 2766 0 
L 2766 531 
Q 2569 213 2275 61 
Q 1981 -91 1556 -91 
Q 1019 -91 701 211 
Q 384 513 384 1019 
Q 384 1609 779 1909 
Q 1175 2209 1959 2209 
L 2766 2209 
L 2766 2266 
Q 2766 2663 2505 2880 
Q 2244 3097 1772 3097 
Q 1472 3097 1187 3025 
Q 903 2953 641 2809 
L 641 3341 
Q 956 3463 1253 3523 
Q 1550 3584 1831 3584 
Q 2591 3584 2966 3190 
Q 3341 2797 3341 1997 
z
" transform="scale(0.015625)"/>
       <path id="DejaVuSans-6b" d="M 581 4863 
L 1159 4863 
L 1159 1991 
L 2875 3500 
L 3609 3500 
L 1753 1863 
L 3688 0 
L 2938 0 
L 1159 1709 
L 1159 0 
L 581 0 
L 581 4863 
z
" transform="scale(0.015625)"/>
       <path id="DejaVuSans-63" d="M 3122 3366 
L 3122 2828 
Q 2878 2963 2633 3030 
Q 2388 3097 2138 3097 
Q 1578 3097 1268 2742 
Q 959 2388 959 1747 
Q 959 1106 1268 751 
Q 1578 397 2138 397 
Q 2388 397 2633 464 
Q 2878 531 3122 666 
L 3122 134 
Q 2881 22 2623 -34 
Q 2366 -91 2075 -91 
Q 1284 -91 818 406 
Q 353 903 353 1747 
Q 353 2603 823 3093 
Q 1294 3584 2113 3584 
Q 2378 3584 2631 3529 
Q 2884 3475 3122 3366 
z
" transform="scale(0.015625)"/>
       <path id="DejaVuSans-64" d="M 2906 2969 
L 2906 4863 
L 3481 4863 
L 3481 0 
L 2906 0 
L 2906 525 
Q 2725 213 2448 61 
Q 2172 -91 1784 -91 
Q 1150 -91 751 415 
Q 353 922 353 1747 
Q 353 2572 751 3078 
Q 1150 3584 1784 3584 
Q 2172 3584 2448 3432 
Q 2725 3281 2906 2969 
z
M 947 1747 
Q 947 1113 1208 752 
Q 1469 391 1925 391 
Q 2381 391 2643 752 
Q 2906 1113 2906 1747 
Q 2906 2381 2643 2742 
Q 2381 3103 1925 3103 
Q 1469 3103 1208 2742 
Q 947 2381 947 1747 
z
" transform="scale(0.015625)"/>
       <path id="DejaVuSans-47" d="M 3809 666 
L 3809 1919 
L 2778 1919 
L 2778 2438 
L 4434 2438 
L 4434 434 
Q 4069 175 3628 42 
Q 3188 -91 2688 -91 
Q 1594 -91 976 548 
Q 359 1188 359 2328 
Q 359 3472 976 4111 
Q 1594 4750 2688 4750 
Q 3144 4750 3555 4637 
Q 3966 4525 4313 4306 
L 4313 3634 
Q 3963 3931 3569 4081 
Q 3175 4231 2741 4231 
Q 1884 4231 1454 3753 
Q 1025 3275 1025 2328 
Q 1025 1384 1454 906 
Q 1884 428 2741 428 
Q 3075 428 3337 486 
Q 3600 544 3809 666 
z
" transform="scale(0.015625)"/>
       <path id="DejaVuSans-46" d="M 628 4666 
L 3309 4666 
L 3309 4134 
L 1259 4134 
L 1259 2759 
L 3109 2759 
L 3109 2228 
L 1259 2228 
L 1259 0 
L 628 0 
L 628 4666 
z
" transform="scale(0.015625)"/>
       <path id="DejaVuSans-50" d="M 1259 4147 
L 1259 2394 
L 2053 2394 
Q 2494 2394 2734 2622 
Q 2975 2850 2975 3272 
Q 2975 3691 2734 3919 
Q 2494 4147 2053 4147 
L 1259 4147 
z
M 628 4666 
L 2053 4666 
Q 2838 4666 3239 4311 
Q 3641 3956 3641 3272 
Q 3641 2581 3239 2228 
Q 2838 1875 2053 1875 
L 1259 1875 
L 1259 0 
L 628 0 
L 628 4666 
z
" transform="scale(0.015625)"/>
       <path id="DejaVuSans-52" d="M 2841 2188 
Q 3044 2119 3236 1894 
Q 3428 1669 3622 1275 
L 4263 0 
L 3584 0 
L 2988 1197 
Q 2756 1666 2539 1819 
Q 2322 1972 1947 1972 
L 1259 1972 
L 1259 0 
L 628 0 
L 628 4666 
L 2053 4666 
Q 2853 4666 3247 4331 
Q 3641 3997 3641 3322 
Q 3641 2881 3436 2590 
Q 3231 2300 2841 2188 
z
M 1259 4147 
L 1259 2491 
L 2053 2491 
Q 2509 2491 2742 2702 
Q 2975 2913 2975 3322 
Q 2975 3731 2742 3939 
Q 2509 4147 2053 4147 
L 1259 4147 
z
" transform="scale(0.015625)"/>
       <path id="DejaVuSans-55" d="M 556 4666 
L 1191 4666 
L 1191 1831 
Q 1191 1081 1462 751 
Q 1734 422 2344 422 
Q 2950 422 3222 751 
Q 3494 1081 3494 1831 
L 3494 4666 
L 4128 4666 
L 4128 1753 
Q 4128 841 3676 375 
Q 3225 -91 2344 -91 
Q 1459 -91 1007 375 
Q 556 841 556 1753 
L 556 4666 
z
" transform="scale(0.015625)"/>
      </defs>
      <use xlink:href="#DejaVuSans-62"/>
      <use xlink:href="#DejaVuSans-6c" x="63.476562"/>
      <use xlink:href="#DejaVuSans-61" x="91.259766"/>
      <use xlink:href="#DejaVuSans-6e" x="152.539062"/>
      <use xlink:href="#DejaVuSans-6b" x="215.917969"/>
      <use xlink:href="#DejaVuSans-20" x="273.828125"/>
      <use xlink:href="#DejaVuSans-63" x="305.615234"/>
      <use xlink:href="#DejaVuSans-6f" x="360.595703"/>
      <use xlink:href="#DejaVuSans-72" x="421.777344"/>
      <use xlink:href="#DejaVuSans-72" x="461.140625"/>
      <use xlink:href="#DejaVuSans-65" x="500.003906"/>
      <use xlink:href="#DejaVuSans-63" x="561.527344"/>
      <use xlink:href="#DejaVuSans-74" x="616.507812"/>
      <use xlink:href="#DejaVuSans-65" x="655.716797"/>
      <use xlink:href="#DejaVuSans-64" x="717.240234"/>
      <use xlink:href="#DejaVuSans-20" x="780.716797"/>
      <use xlink:href="#DejaVuSans-47" x="812.503906"/>
      <use xlink:href="#DejaVuSans-46" x="889.994141"/>
      <use xlink:href="#DejaVuSans-50" x="947.513672"/>
      <use xlink:href="#DejaVuSans-20" x="1007.816406"/>
      <use xlink:href="#DejaVuSans-52" x="1039.603516"/>
      <use xlink:href="#DejaVuSans-46" x="1109.085938"/>
      <use xlink:href="#DejaVuSans-55" x="1166.605469"/>
     </g>
    </g>
   </g>
   <g id="line2d_37">
    <path d="M 92.290909 356.89829 
L 93.239082 362.575987 
L 94.187256 365.801002 
L 95.135429 367.199553 
L 97.031776 367.063872 
L 97.979949 366.59421 
L 100.824469 364.235461 
L 101.772642 364.06847 
L 102.720816 363.233514 
L 103.668989 362.200257 
L 104.617162 362.46118 
L 105.565336 360.906076 
L 106.513509 361.000008 
L 107.461682 360.123305 
L 109.358029 357.733245 
L 110.306202 358.19247 
L 111.254376 356.689551 
L 112.202549 356.272073 
L 114.098895 354.236869 
L 115.047069 353.172301 
L 115.995242 352.337345 
L 116.943415 350.792678 
L 117.891589 349.707235 
L 118.839762 349.425438 
L 119.787935 348.642667 
L 120.736109 346.294355 
L 121.684282 346.116927 
L 122.632455 343.946043 
L 123.580629 342.797979 
L 124.528802 342.766668 
L 125.476975 341.649915 
L 126.425149 340.261802 
L 127.373322 339.750391 
L 130.217842 335.210321 
L 131.166015 334.855465 
L 133.062362 331.66176 
L 134.010535 329.835295 
L 134.958709 328.436745 
L 136.855055 326.119743 
L 137.803229 325.420468 
L 138.751402 322.404191 
L 139.699575 321.621421 
L 140.647749 321.673605 
L 141.595922 318.563396 
L 142.544095 317.425769 
L 143.492268 316.476007 
L 144.440442 314.159006 
L 146.336788 310.725252 
L 147.284962 308.658737 
L 148.233135 307.448051 
L 149.181308 304.536144 
L 150.129482 304.807505 
L 151.077655 302.375697 
L 152.025828 300.643164 
L 152.974002 299.35942 
L 154.870348 294.516678 
L 155.818522 292.70065 
L 156.766695 291.855258 
L 157.714868 290.31059 
L 158.663042 288.390193 
L 159.611215 286.052317 
L 160.559388 284.194541 
L 161.507562 283.161284 
L 162.455735 280.552048 
L 163.403908 278.36029 
L 165.300255 275.030905 
L 166.248428 272.755651 
L 167.196602 271.628461 
L 168.144775 269.081847 
L 169.092948 266.159503 
L 170.041121 265.689841 
L 170.989295 262.610942 
L 171.937468 261.692491 
L 172.885641 259.250246 
L 173.833815 255.680812 
L 174.781988 255.37814 
L 175.730161 251.913075 
L 176.678335 248.907235 
L 178.574681 245.92227 
L 179.522855 242.154533 
L 180.471028 240.244572 
L 181.419201 237.562278 
L 182.367375 235.631443 
L 183.315548 234.796488 
L 184.263721 231.404481 
L 185.211895 230.579963 
L 186.160068 227.334073 
L 187.108241 225.351054 
L 189.952761 218.462671 
L 190.900935 216.918004 
L 191.849108 214.26702 
L 192.797281 209.591269 
L 193.745455 209.789571 
L 194.693628 206.58543 
L 195.641801 205.917465 
L 197.538148 198.862092 
L 198.486321 198.340244 
L 199.434494 195.083918 
L 200.382668 191.326618 
L 201.330841 190.408167 
L 202.279014 187.016161 
L 203.227188 184.772218 
L 204.175361 181.609824 
L 205.123534 180.722684 
L 206.071708 177.163686 
L 207.019881 176.80883 
L 208.916228 172.54012 
L 210.812574 166.758053 
L 213.657094 161.550019 
L 214.605268 158.19976 
L 215.553441 157.4483 
L 217.449788 153.252649 
L 218.397961 148.222042 
L 219.346134 149.213551 
L 221.242481 144.318625 
L 222.190654 140.884871 
L 223.138828 139.235834 
L 224.087001 135.603777 
L 225.035174 136.094314 
L 225.983347 132.597937 
L 226.931521 130.635792 
L 227.879694 127.629952 
L 228.827867 128.04743 
L 229.776041 125.876546 
L 230.724214 121.159047 
L 231.672387 123.830905 
L 232.620561 119.395204 
L 233.568734 118.257577 
L 234.516907 114.813386 
L 236.413254 110.711667 
L 237.361427 113.007795 
L 238.309601 108.269422 
L 239.257774 107.747575 
L 240.205947 103.80241 
L 241.154121 101.725459 
L 242.102294 103.061387 
L 243.050467 100.055548 
L 243.998641 98.803115 
L 244.946814 93.532458 
L 245.894987 95.024941 
L 246.843161 91.95648 
L 248.739507 89.128068 
L 249.687681 86.518832 
L 250.635854 87.437283 
L 251.584027 84.076587 
L 252.532201 84.765426 
L 253.480374 84.911543 
L 254.428547 83.742605 
L 255.37672 84.087024 
L 256.324894 83.826101 
L 257.273067 83.69042 
L 258.22124 82.521483 
L 259.169414 83.429497 
L 261.06576 84.587998 
L 262.013934 85.9448 
L 262.962107 86.174413 
L 263.91028 86.122228 
L 264.858454 87.875635 
L 265.806627 88.303549 
L 267.702974 89.493361 
L 268.651147 90.380501 
L 269.59932 93.542895 
L 270.547494 94.304792 
L 271.495667 93.803819 
L 272.44384 96.079072 
L 273.392014 95.390234 
L 274.340187 97.581992 
L 275.28836 97.811605 
L 277.184707 100.880066 
L 278.13288 103.645856 
L 279.081054 105.242709 
L 280.029227 105.013096 
L 280.9774 105.211398 
L 281.925573 107.831071 
L 282.873747 111.035212 
L 284.770093 114.0828 
L 285.718267 116.47286 
L 286.66644 118.236703 
L 287.614613 120.898124 
L 288.562787 124.404937 
L 289.51096 126.899366 
L 290.459133 129.936517 
L 291.407307 134.883628 
L 292.35548 137.764224 
L 293.303653 141.187542 
L 295.2 150.236372 
L 296.148173 153.82668 
L 298.992693 170.682344 
L 299.940867 175.765136 
L 300.88904 181.860311 
L 302.785387 191.441425 
L 303.73356 198.298497 
L 304.681733 201.721814 
L 305.629907 208.349273 
L 306.57808 213.776484 
L 307.526253 218.243496 
L 308.474427 223.493278 
L 311.318946 236.758633 
L 313.215293 242.67638 
L 314.163466 248.249708 
L 315.11164 249.366461 
L 317.007986 257.058488 
L 318.904333 262.819681 
L 319.852506 267.547616 
L 320.80068 270.229911 
L 322.697026 276.512951 
L 325.541546 284.382406 
L 326.48972 289.016409 
L 327.437893 291.750888 
L 328.386066 295.19508 
L 330.282413 300.277871 
L 331.230586 303.450702 
L 332.17876 305.966005 
L 334.075106 311.988122 
L 335.02328 313.69978 
L 335.971453 316.966544 
L 336.919626 319.450536 
L 338.815973 323.186962 
L 339.764146 326.015374 
L 340.712319 326.965136 
L 341.660493 329.64743 
L 342.608666 331.599139 
L 345.453186 336.254015 
L 346.401359 338.059607 
L 347.349533 338.884125 
L 348.297706 341.263748 
L 349.245879 341.107194 
L 351.142226 343.789489 
L 352.090399 345.021048 
L 353.038573 345.21935 
L 355.883093 346.450909 
L 356.831266 346.99363 
L 357.779439 347.932955 
L 358.727613 347.36936 
L 359.675786 347.692905 
L 360.623959 347.452856 
L 361.572133 348.538298 
L 362.520306 348.966212 
L 363.468479 348.851406 
L 364.416653 349.467186 
L 365.364826 349.227136 
L 366.312999 350.281267 
L 367.261172 350.082965 
L 368.209346 350.13515 
L 369.157519 350.75093 
L 370.105692 350.771804 
L 371.053866 351.794624 
L 372.002039 351.199718 
L 372.950212 351.324962 
L 375.794732 352.514773 
L 376.742906 352.587832 
L 377.691079 352.786134 
L 378.639252 353.193175 
L 379.587426 353.89245 
L 380.535599 353.975945 
L 382.431946 353.735896 
L 383.380119 353.662837 
L 384.328292 353.923761 
L 385.276466 354.393423 
L 386.224639 354.195121 
L 387.172812 353.75677 
L 388.120986 354.153373 
L 389.069159 354.289054 
L 390.017332 353.777643 
L 390.965506 354.612599 
L 391.913679 354.560414 
L 392.861852 354.758716 
L 393.810025 353.955071 
L 394.758199 354.518666 
L 395.706372 354.069878 
L 396.654545 354.518666 
L 397.602719 354.174247 
L 398.550892 354.007256 
L 399.499065 354.309928 
L 400.447239 354.007256 
L 401.395412 354.623036 
L 403.291759 353.798517 
L 404.239932 354.424734 
L 405.188105 353.360166 
L 406.136279 354.038567 
L 407.084452 354.017693 
L 408.032625 354.195121 
L 408.980799 353.109679 
L 409.928972 353.955071 
L 410.877145 352.942688 
L 412.773492 353.527157 
L 413.721665 353.161864 
L 414.669839 353.694148 
L 415.618012 352.587832 
L 416.566185 354.090752 
L 417.514359 353.360166 
L 418.462532 352.838318 
L 419.410705 352.744386 
L 421.307052 352.963562 
L 422.255225 353.057494 
L 423.203398 352.848755 
L 424.151572 352.754823 
L 425.099745 352.243413 
L 426.996092 352.243413 
L 427.944265 352.598269 
L 429.840612 352.055548 
L 430.788785 352.38953 
L 431.736958 352.326908 
L 432.685132 351.972052 
L 433.633305 351.982489 
L 434.581478 351.742439 
L 435.529652 351.627633 
L 436.477825 351.690255 
L 437.425998 351.575448 
L 438.374172 351.606759 
L 439.322345 351.930304 
L 440.270518 351.147534 
L 441.218692 351.439768 
L 442.166865 350.907484 
L 443.115038 350.844862 
L 444.063212 351.084912 
L 445.011385 350.625686 
L 446.907732 351.387583 
L 447.855905 351.554574 
L 448.804078 351.387583 
L 449.752251 350.740493 
L 450.700425 350.907484 
L 451.648598 350.771804 
L 452.596771 350.959669 
L 453.544945 350.604813 
L 454.493118 350.740493 
L 455.441291 350.75093 
L 456.389465 350.490006 
L 457.337638 350.803115 
L 458.285811 350.949232 
L 459.233985 350.197772 
L 461.130331 349.832479 
L 462.078505 350.13515 
L 463.026678 350.156024 
L 463.974851 349.51937 
L 464.923025 349.707235 
L 466.819371 349.592429 
L 467.767545 349.227136 
L 468.715718 349.62374 
L 469.663891 349.832479 
L 470.612065 350.583939 
L 471.560238 350.208209 
L 472.508411 348.976649 
L 473.456585 349.581992 
L 474.404758 348.642667 
L 475.352931 349.122767 
L 476.301105 349.477623 
L 477.249278 349.154077 
L 478.197451 349.425438 
L 479.145624 349.081019 
L 480.093798 349.529807 
L 481.041971 348.559172 
L 481.990144 348.465239 
L 482.938318 349.508934 
L 483.886491 348.642667 
L 484.834664 349.070582 
L 485.782838 348.726163 
L 486.731011 348.548735 
L 489.575531 349.195825 
L 490.523704 347.943392 
L 491.471878 348.423491 
L 492.420051 348.016451 
L 493.368224 348.413054 
L 495.264571 348.204316 
L 496.212744 348.037324 
L 497.160918 347.348486 
L 498.109091 347.98514 
L 498.109091 347.98514 
" clip-path="url(#pc949091494)" style="fill: none; stroke: #008000; stroke-width: 1.5; stroke-linecap: square"/>
   </g>
   <g id="line2d_38">
    <path d="M 92.290909 359.591021 
L 93.239082 364.193713 
L 94.187256 366.479404 
L 96.083602 369.36 
L 97.031776 367.85708 
L 97.979949 367.752711 
L 98.928122 367.220427 
L 99.876296 366.479404 
L 100.824469 366.688142 
L 101.772642 365.320903 
L 102.720816 366.009741 
L 103.668989 364.997358 
L 104.617162 364.193713 
L 105.565336 362.596861 
L 106.513509 362.471617 
L 107.461682 362.575987 
L 108.409856 360.759959 
L 109.358029 359.350971 
L 110.306202 359.225728 
L 111.254376 358.067227 
L 112.202549 357.086154 
L 113.150722 355.489302 
L 115.047069 354.758716 
L 115.995242 353.965508 
L 116.943415 351.794624 
L 117.891589 351.439768 
L 118.839762 350.218646 
L 119.787935 349.310632 
L 120.736109 347.974703 
L 121.684282 346.931008 
L 122.632455 344.426142 
L 123.580629 343.893858 
L 124.528802 342.526618 
L 125.476975 342.297006 
L 126.425149 342.954533 
L 127.373322 339.771265 
L 129.269669 337.777809 
L 130.217842 336.535813 
L 131.166015 334.270996 
L 133.062362 333.446478 
L 134.010535 332.17317 
L 134.958709 328.593299 
L 135.906882 328.582862 
L 136.855055 327.403487 
L 138.751402 324.178472 
L 139.699575 323.625314 
L 140.647749 320.817776 
L 141.595922 318.949563 
L 142.544095 318.459027 
L 144.440442 314.346871 
L 145.388615 314.221628 
L 146.336788 312.155113 
L 147.284962 309.744179 
L 148.233135 308.815291 
L 149.181308 306.39392 
L 151.077655 304.557018 
L 152.025828 303.304585 
L 152.974002 304.045608 
L 153.922175 304.483959 
L 154.870348 304.181288 
L 155.818522 302.271327 
L 156.766695 302.845359 
L 158.663042 299.620344 
L 159.611215 297.564266 
L 160.559388 294.913282 
L 161.507562 293.900899 
L 162.455735 289.339954 
L 163.403908 286.730719 
L 164.352082 284.612019 
L 165.300255 279.226556 
L 167.196602 273.694976 
L 168.144775 271.576277 
L 169.092948 268.580874 
L 170.041121 267.182323 
L 171.937468 263.581578 
L 172.885641 263.508519 
L 173.833815 264.646146 
L 174.781988 263.873812 
L 175.730161 263.466772 
L 177.626508 261.097585 
L 178.574681 259.573792 
L 179.522855 256.922808 
L 180.471028 255.566005 
L 181.419201 253.102887 
L 182.367375 250.180543 
L 183.315548 248.020095 
L 184.263721 244.596778 
L 185.211895 240.401127 
L 186.160068 237.228296 
L 187.108241 233.523181 
L 188.056415 230.72608 
L 189.004588 224.349107 
L 190.900935 218.91146 
L 191.849108 213.536434 
L 192.797281 211.094189 
L 194.693628 207.691746 
L 195.641801 209.873067 
L 196.589975 210.300982 
L 197.538148 209.674765 
L 198.486321 210.634964 
L 199.434494 210.61409 
L 200.382668 209.539085 
L 201.330841 209.810445 
L 203.227188 205.395618 
L 204.175361 204.727654 
L 205.123534 201.826183 
L 206.071708 199.363065 
L 207.019881 197.380046 
L 207.968054 196.618149 
L 208.916228 193.580998 
L 209.864401 188.519081 
L 210.812574 185.962029 
L 211.760748 181.359337 
L 212.708921 174.147409 
L 213.657094 169.419474 
L 214.605268 165.359503 
L 215.553441 158.533742 
L 216.501614 155.632272 
L 217.449788 152.135896 
L 218.397961 149.411853 
L 219.346134 145.998973 
L 220.294308 147.105289 
L 221.242481 148.796074 
L 222.190654 148.723015 
L 223.138828 149.724962 
L 224.087001 153.93105 
L 225.035174 152.396819 
L 225.983347 151.78104 
L 226.931521 149.297047 
L 227.879694 147.815001 
L 228.827867 147.314028 
L 229.776041 144.997026 
L 230.724214 141.531961 
L 231.672387 141.782448 
L 232.620561 136.271742 
L 233.568734 132.723181 
L 234.516907 129.915643 
L 235.465081 124.175324 
L 236.413254 123.695225 
L 238.309601 114.844697 
L 239.257774 113.070416 
L 240.205947 109.260932 
L 241.154121 107.340534 
L 242.102294 106.724755 
L 243.050467 107.131795 
L 243.998641 110.3255 
L 244.946814 112.392015 
L 245.894987 113.738381 
L 246.843161 116.180625 
L 247.791334 117.370437 
L 248.739507 116.577229 
L 249.687681 117.422622 
L 250.635854 116.389364 
L 251.584027 117.370437 
L 252.532201 115.523098 
L 253.480374 115.408292 
L 254.428547 114.886444 
L 255.37672 115.022125 
L 256.324894 112.506821 
L 257.273067 113.519205 
L 259.169414 112.95561 
L 260.117587 109.542729 
L 261.06576 109.605351 
L 262.013934 110.596861 
L 262.962107 109.177436 
L 263.91028 106.985678 
L 264.858454 106.860435 
L 265.806627 106.317714 
L 266.7548 105.451448 
L 267.702974 104.981785 
L 268.651147 104.866979 
L 269.59932 102.863086 
L 270.547494 103.917217 
L 271.495667 102.236869 
L 272.44384 104.626929 
L 273.392014 104.303384 
L 274.340187 103.645856 
L 275.28836 104.199014 
L 276.236534 107.705827 
L 277.184707 113.174786 
L 278.13288 119.332582 
L 279.081054 123.997896 
L 280.029227 125.960041 
L 281.925573 134.278285 
L 282.873747 135.896012 
L 283.82192 139.225397 
L 284.770093 139.455009 
L 285.718267 143.400174 
L 286.66644 144.402121 
L 287.614613 144.464742 
L 288.562787 146.917424 
L 289.51096 147.867186 
L 290.459133 151.227882 
L 291.407307 149.954574 
L 293.303653 153.409203 
L 294.251827 154.265032 
L 295.2 155.423533 
L 297.096347 162.071866 
L 298.04452 163.512164 
L 298.992693 168.167041 
L 299.940867 172.091332 
L 300.88904 174.909306 
L 302.785387 183.394541 
L 303.73356 188.790441 
L 304.681733 195.094355 
L 305.629907 198.841218 
L 306.57808 204.915519 
L 307.526253 209.132044 
L 308.474427 217.220675 
L 311.318946 236.675138 
L 314.163466 251.318169 
L 316.059813 257.7682 
L 317.007986 260.033017 
L 319.852506 271.075303 
L 320.80068 272.07725 
L 323.6452 280.019764 
L 325.541546 283.51614 
L 326.48972 286.114939 
L 327.437893 287.513489 
L 328.386066 290.571514 
L 329.33424 292.596281 
L 330.282413 295.685616 
L 331.230586 297.616451 
L 333.126933 304.483959 
L 334.075106 306.967952 
L 335.02328 309.107525 
L 335.971453 312.468221 
L 336.919626 316.476007 
L 337.867799 321.11001 
L 340.712319 328.718542 
L 341.660493 332.183607 
L 342.608666 333.561284 
L 343.556839 336.03484 
L 346.401359 339.197233 
L 347.349533 338.915436 
L 349.245879 340.460104 
L 350.194053 342.568366 
L 352.090399 344.311336 
L 353.038573 345.574206 
L 353.986746 345.97081 
L 354.934919 347.066689 
L 355.883093 349.049708 
L 360.623959 354.299491 
L 362.520306 354.299491 
L 363.468479 354.998766 
L 365.364826 355.228379 
L 366.312999 354.748279 
L 367.261172 355.437117 
L 368.209346 355.332748 
L 369.157519 354.758716 
L 370.105692 355.739789 
L 371.053866 354.685657 
L 372.950212 355.301437 
L 373.898386 354.883959 
L 374.846559 355.249252 
L 375.794732 355.416244 
L 376.742906 355.384933 
L 377.691079 355.551924 
L 378.639252 356.366005 
L 379.587426 356.115519 
L 380.535599 356.313821 
L 381.483772 355.865032 
L 382.431946 356.574744 
L 383.380119 356.219888 
L 384.328292 357.399263 
L 385.276466 356.981785 
L 386.224639 357.597565 
L 387.172812 359.392719 
L 388.120986 359.42403 
L 389.069159 361.292243 
L 390.017332 361.970644 
L 390.965506 361.928896 
L 392.861852 362.659482 
L 393.810025 362.482054 
L 394.758199 361.81409 
L 395.706372 362.471617 
L 396.654545 362.826473 
L 397.602719 362.064577 
L 399.499065 361.083504 
L 400.447239 360.081557 
L 401.395412 360.196364 
L 403.291759 359.716264 
L 404.239932 359.079611 
L 405.188105 357.983732 
L 406.136279 358.630822 
L 407.084452 357.827177 
L 408.032625 358.495142 
L 408.980799 357.670623 
L 409.928972 357.294893 
L 410.877145 357.900236 
L 411.825319 357.044407 
L 415.618012 355.927654 
L 416.566185 356.240762 
L 417.514359 355.969402 
L 418.462532 355.885906 
L 419.410705 355.917217 
L 421.307052 357.587128 
L 422.255225 357.691497 
L 423.203398 358.651696 
L 424.151572 359.977188 
L 426.047918 359.820634 
L 426.996092 360.749522 
L 427.944265 359.904129 
L 428.892438 360.394666 
L 429.840612 359.987625 
L 430.788785 358.891746 
L 431.736958 359.225728 
L 432.685132 358.829124 
L 433.633305 358.004606 
L 434.581478 356.825231 
L 435.529652 356.783483 
L 436.477825 355.791973 
L 437.425998 356.355568 
L 438.374172 355.259689 
L 439.322345 354.894396 
L 440.270518 354.372549 
L 441.218692 354.257743 
L 442.166865 355.092698 
L 443.115038 354.184684 
L 444.063212 354.320364 
L 445.011385 354.581288 
L 445.959558 355.165757 
L 446.907732 353.600215 
L 447.855905 353.725459 
L 448.804078 354.205558 
L 449.752251 353.694148 
L 450.700425 353.360166 
L 451.648598 354.132499 
L 452.596771 353.715022 
L 453.544945 354.40386 
L 454.493118 354.727405 
L 455.441291 356.230325 
L 456.389465 356.188577 
L 457.337638 357.576691 
L 458.285811 357.973295 
L 459.233985 358.495142 
L 460.182158 358.16116 
L 461.130331 358.985678 
L 462.078505 358.589074 
L 463.026678 357.712371 
L 463.974851 358.547327 
L 465.871198 357.608002 
L 466.819371 357.30533 
L 467.767545 357.347078 
L 468.715718 356.261636 
L 469.663891 355.750226 
L 470.612065 354.737842 
L 471.560238 354.727405 
L 472.508411 353.662837 
L 473.456585 352.410404 
L 474.404758 352.566958 
L 475.352931 352.264287 
L 476.301105 352.754823 
L 477.249278 352.337345 
L 478.197451 352.441715 
L 479.145624 351.544138 
L 480.093798 351.345836 
L 481.990144 351.77375 
L 482.938318 351.137097 
L 484.834664 351.335399 
L 485.782838 350.949232 
L 486.731011 351.178844 
L 487.679184 350.855299 
L 489.575531 351.157971 
L 490.523704 350.970106 
L 492.420051 353.318418 
L 493.368224 353.882013 
L 494.316398 354.080315 
L 495.264571 354.852649 
L 496.212744 354.581288 
L 497.160918 355.53105 
L 498.109091 355.249252 
L 498.109091 355.249252 
" clip-path="url(#pc949091494)" style="fill: none; stroke: #008000; stroke-width: 1.5; stroke-linecap: square"/>
   </g>
   <g id="line2d_39">
    <path d="M 92.290909 359.841508 
L 93.239082 363.619681 
L 94.187256 366.260228 
L 95.135429 366.322849 
L 96.083602 368.639851 
L 97.979949 368.358053 
L 98.928122 366.531588 
L 99.876296 366.823823 
L 100.824469 366.615084 
L 103.668989 364.496384 
L 105.565336 363.410942 
L 106.513509 363.056086 
L 107.461682 361.605351 
L 108.409856 361.260932 
L 109.358029 360.07112 
L 110.306202 359.914566 
L 111.254376 357.983732 
L 112.202549 357.524506 
L 113.150722 356.804357 
L 114.098895 356.741735 
L 115.047069 355.15532 
L 116.943415 353.047057 
L 117.891589 351.857246 
L 118.839762 350.333452 
L 119.787935 350.030781 
L 120.736109 349.122767 
L 122.632455 346.231733 
L 123.580629 344.248714 
L 124.528802 344.123471 
L 125.476975 343.215457 
L 127.373322 341.983897 
L 128.321495 340.073937 
L 130.217842 338.717134 
L 131.166015 338.539706 
L 132.114189 338.122228 
L 134.010535 334.364929 
L 134.958709 334.218811 
L 135.906882 331.588702 
L 136.855055 330.628503 
L 138.751402 328.405434 
L 139.699575 327.01732 
L 140.647749 324.762941 
L 141.595922 324.376774 
L 143.492268 321.287438 
L 144.440442 320.22287 
L 145.388615 318.949563 
L 146.336788 317.290089 
L 147.284962 315.06702 
L 149.181308 311.977685 
L 150.129482 309.900733 
L 151.077655 309.566751 
L 152.025828 308.596115 
L 152.974002 308.909223 
L 153.922175 308.815291 
L 154.870348 308.209948 
L 155.818522 308.199511 
L 156.766695 306.174744 
L 157.714868 304.473522 
L 158.663042 302.459192 
L 159.611215 301.665985 
L 160.559388 298.910632 
L 161.507562 295.268138 
L 162.455735 289.861802 
L 164.352082 284.591145 
L 166.248428 280.416368 
L 167.196602 279.435295 
L 168.144775 277.47315 
L 169.092948 274.70736 
L 170.041121 272.557349 
L 170.989295 269.843744 
L 171.937468 270.115105 
L 172.885641 269.885492 
L 173.833815 268.121648 
L 174.781988 268.507815 
L 175.730161 269.102721 
L 176.678335 268.038153 
L 177.626508 265.919453 
L 178.574681 264.896633 
L 179.522855 262.318708 
L 180.471028 260.805351 
L 181.419201 258.603156 
L 182.367375 253.207256 
L 183.315548 249.992678 
L 184.263721 242.947741 
L 185.211895 240.035834 
L 186.160068 235.652317 
L 187.108241 233.971969 
L 188.056415 231.352297 
L 189.004588 229.515394 
L 189.952761 225.998145 
L 190.900935 224.411729 
L 191.849108 222.439147 
L 192.797281 218.53573 
L 193.745455 217.690338 
L 194.693628 215.999553 
L 195.641801 216.991062 
L 196.589975 218.285243 
L 197.538148 218.076504 
L 198.486321 219.944717 
L 199.434494 215.811688 
L 200.382668 216.14567 
L 201.330841 215.248093 
L 202.279014 213.557308 
L 203.227188 210.822829 
L 204.175361 208.996364 
L 205.123534 208.589323 
L 206.071708 203.924009 
L 207.019881 202.243661 
L 207.968054 196.837324 
L 208.916228 192.75648 
L 209.864401 185.596736 
L 210.812574 176.339168 
L 211.760748 172.289633 
L 212.708921 167.352959 
L 213.657094 166.716306 
L 214.605268 164.169691 
L 217.449788 157.95971 
L 218.397961 153.889302 
L 220.294308 153.357018 
L 221.242481 152.636869 
L 222.190654 152.970851 
L 223.138828 155.05824 
L 224.087001 155.527902 
L 225.035174 156.926453 
L 225.983347 155.538339 
L 226.931521 155.19392 
L 227.879694 151.770603 
L 228.827867 151.54099 
L 229.776041 150.03807 
L 230.724214 145.863293 
L 231.672387 142.304295 
L 232.620561 136.303052 
L 235.465081 114.96994 
L 236.413254 112.71556 
L 237.361427 110.826473 
L 238.309601 110.231568 
L 239.257774 108.17549 
L 240.205947 103.718915 
L 241.154121 103.865032 
L 242.102294 106.046353 
L 243.050467 108.82258 
L 243.998641 112.214587 
L 244.946814 117.234757 
L 245.894987 121.461719 
L 246.843161 123.037697 
L 247.791334 123.590855 
L 248.739507 122.087935 
L 249.687681 122.453228 
L 250.635854 121.952255 
L 251.584027 121.273854 
L 252.532201 120.104916 
L 253.480374 117.015581 
L 254.428547 118.24714 
L 255.37672 116.253684 
L 256.324894 110.356811 
L 257.273067 107.862381 
L 258.22124 100.890503 
L 259.169414 96.308685 
L 261.06576 84.024403 
L 262.013934 79.296467 
L 262.962107 78.899863 
L 263.91028 78.764183 
L 264.858454 79.077291 
L 265.806627 78.179714 
L 266.7548 80.507153 
L 268.651147 82.135316 
L 269.59932 83.147699 
L 270.547494 82.949397 
L 271.495667 83.878285 
L 272.44384 86.299656 
L 273.392014 84.556687 
L 274.340187 87.405972 
L 275.28836 86.351841 
L 276.236534 92.113034 
L 277.184707 99.857246 
L 278.13288 105.68106 
L 279.081054 113.894935 
L 280.029227 117.589613 
L 280.9774 120.814628 
L 281.925573 123.569981 
L 282.873747 124.551054 
L 283.82192 125.907857 
L 284.770093 128.172673 
L 285.718267 129.571224 
L 286.66644 128.308354 
L 287.614613 129.508602 
L 288.562787 129.195494 
L 289.51096 128.746705 
L 291.407307 119.207339 
L 292.35548 112.517258 
L 293.303653 110.262878 
L 295.2 116.264121 
L 296.148173 116.765094 
L 297.096347 122.526287 
L 298.04452 122.390607 
L 298.992693 126.701064 
L 299.940867 130.489675 
L 300.88904 136.939706 
L 301.837213 138.338256 
L 303.73356 146.646063 
L 304.681733 152.991725 
L 305.629907 158.377188 
L 306.57808 161.47696 
L 307.526253 167.718252 
L 309.4226 186.254264 
L 310.370773 193.257453 
L 311.318946 202.619391 
L 312.26712 208.526701 
L 313.215293 213.212889 
L 314.163466 218.702721 
L 315.11164 222.084291 
L 317.007986 230.016368 
L 317.95616 232.12463 
L 318.904333 235.307898 
L 319.852506 237.082179 
L 320.80068 236.372466 
L 321.748853 234.984353 
L 322.697026 235.057411 
L 323.6452 238.428544 
L 324.593373 241.382199 
L 325.541546 243.56352 
L 329.33424 259.333742 
L 330.282413 261.932541 
L 333.126933 273.4758 
L 335.02328 278.965633 
L 335.971453 282.169774 
L 337.867799 294.850661 
L 338.815973 298.98369 
L 339.764146 302.573999 
L 340.712319 306.853146 
L 341.660493 308.700485 
L 342.608666 311.758509 
L 343.556839 313.616285 
L 344.505013 314.920903 
L 345.453186 313.250992 
L 346.401359 312.530843 
L 347.349533 315.17139 
L 348.297706 319.147865 
L 350.194053 322.623367 
L 351.142226 325.295225 
L 352.090399 327.382613 
L 353.038573 329.991849 
L 353.986746 331.776567 
L 354.934919 334.53192 
L 355.883093 337.850868 
L 356.831266 339.980004 
L 357.779439 343.278078 
L 358.727613 345.146291 
L 359.675786 346.534405 
L 361.572133 348.006014 
L 363.468479 348.830532 
L 364.416653 349.707235 
L 365.364826 349.310632 
L 366.312999 347.50504 
L 367.261172 346.283918 
L 368.209346 346.670085 
L 369.157519 346.837076 
L 370.105692 346.503094 
L 371.053866 347.212806 
L 372.002039 346.189986 
L 372.950212 348.371307 
L 373.898386 348.079072 
L 374.846559 348.381744 
L 376.742906 349.258447 
L 377.691079 349.62374 
L 378.639252 349.289758 
L 379.587426 350.030781 
L 380.535599 350.323015 
L 382.431946 350.604813 
L 383.380119 351.366709 
L 384.328292 351.491953 
L 385.276466 352.556521 
L 386.224639 352.994873 
L 387.172812 355.364059 
L 388.120986 356.846105 
L 389.069159 357.274019 
L 390.017332 359.350971 
L 390.965506 359.142232 
L 391.913679 359.66408 
L 392.861852 360.029373 
L 393.810025 360.530346 
L 394.758199 359.872818 
L 395.706372 360.394666 
L 396.654545 358.923057 
L 397.602719 358.244655 
L 398.550892 356.272073 
L 399.499065 354.883959 
L 401.395412 354.456045 
L 402.343585 353.506283 
L 403.291759 353.861139 
L 404.239932 353.735896 
L 406.136279 353.934198 
L 407.084452 353.41235 
L 408.980799 353.882013 
L 409.928972 353.495846 
L 410.877145 353.234922 
L 411.825319 353.391476 
L 412.773492 353.120116 
L 413.721665 353.923761 
L 415.618012 353.318418 
L 416.566185 353.370603 
L 417.514359 353.130553 
L 418.462532 353.662837 
L 419.410705 352.963562 
L 421.307052 353.840265 
L 422.255225 355.082261 
L 423.203398 356.856542 
L 424.151572 357.649749 
L 425.099745 357.858488 
L 426.047918 357.795867 
L 426.996092 358.05679 
L 427.944265 357.722808 
L 429.840612 356.543433 
L 430.788785 355.541487 
L 431.736958 353.474972 
L 432.685132 352.201665 
L 433.633305 351.867683 
L 434.581478 352.420841 
L 435.529652 351.147534 
L 437.425998 351.857246 
L 438.374172 351.805061 
L 439.322345 352.410404 
L 440.270518 351.074475 
L 441.218692 351.314525 
L 442.166865 350.949232 
L 443.115038 350.23952 
L 444.063212 351.314525 
L 445.959558 350.938795 
L 446.907732 351.481516 
L 447.855905 350.782241 
L 449.752251 350.604813 
L 450.700425 351.02229 
L 451.648598 350.876173 
L 452.596771 350.082965 
L 453.544945 350.156024 
L 455.441291 353.391476 
L 456.389465 354.414297 
L 457.337638 354.988329 
L 458.285811 356.679114 
L 459.233985 355.635419 
L 460.182158 356.877416 
L 461.130331 356.28251 
L 463.026678 355.896343 
L 463.974851 354.675221 
L 465.871198 351.210155 
L 466.819371 350.041218 
L 467.767545 349.362816 
L 468.715718 349.373253 
L 469.663891 348.945339 
L 471.560238 348.684415 
L 472.508411 348.527861 
L 473.456585 348.006014 
L 474.404758 348.799221 
L 475.352931 348.36087 
L 476.301105 348.642667 
L 477.249278 348.621793 
L 478.197451 348.976649 
L 481.041971 348.266937 
L 481.990144 348.173005 
L 482.938318 348.559172 
L 483.886491 348.214753 
L 484.834664 348.329559 
L 485.782838 347.077126 
L 487.679184 348.36087 
L 488.627358 346.826639 
L 489.575531 347.661595 
L 490.523704 348.047761 
L 491.471878 349.300195 
L 492.420051 348.997523 
L 493.368224 350.761367 
L 494.316398 351.690255 
L 495.264571 352.086859 
L 496.212744 351.742439 
L 497.160918 351.930304 
L 498.109091 350.949232 
L 498.109091 350.949232 
" clip-path="url(#pc949091494)" style="fill: none; stroke: #008000; stroke-width: 1.5; stroke-linecap: square"/>
   </g>
   <g id="line2d_40">
    <path d="M 92.290909 358.171597 
L 93.239082 363.609244 
L 94.187256 362.482054 
L 96.083602 365.143475 
L 97.031776 363.306573 
L 97.979949 363.671866 
L 98.928122 363.82842 
L 99.876296 362.8056 
L 100.824469 363.58837 
L 101.772642 362.398559 
L 102.720816 362.586424 
L 103.668989 360.895639 
L 105.565336 359.246602 
L 106.513509 358.119412 
L 107.461682 357.367952 
L 108.409856 356.115519 
L 109.358029 355.437117 
L 110.306202 354.111626 
L 112.202549 352.650454 
L 113.150722 351.011853 
L 114.098895 350.051655 
L 115.047069 349.331505 
L 115.995242 347.84946 
L 116.943415 346.690959 
L 117.891589 344.384394 
L 118.839762 344.154782 
L 119.787935 342.610114 
L 120.736109 341.775158 
L 121.684282 341.535109 
L 122.632455 339.249418 
L 123.580629 337.516885 
L 124.528802 336.723678 
L 125.476975 335.04333 
L 126.425149 334.615415 
L 127.373322 332.851572 
L 128.321495 331.546954 
L 129.269669 330.513696 
L 130.217842 328.603736 
L 131.166015 327.340866 
L 132.114189 325.357846 
L 133.062362 325.232603 
L 134.010535 323.040845 
L 134.958709 321.35006 
L 135.906882 321.141321 
L 136.855055 320.723843 
L 137.803229 316.830864 
L 138.751402 316.048093 
L 139.699575 314.618232 
L 140.647749 312.969194 
L 141.595922 312.196861 
L 142.544095 310.683504 
L 143.492268 309.504129 
L 144.440442 307.166254 
L 145.388615 306.039064 
L 146.336788 305.13105 
L 147.284962 301.561615 
L 148.233135 301.947782 
L 149.181308 300.684912 
L 150.129482 298.263541 
L 151.077655 296.165715 
L 152.025828 295.789986 
L 152.974002 295.257701 
L 153.922175 295.111584 
L 154.870348 295.685616 
L 155.818522 294.902845 
L 156.766695 293.619101 
L 157.714868 291.249915 
L 158.663042 289.444324 
L 159.611215 286.782903 
L 160.559388 280.311998 
L 161.507562 277.316596 
L 163.403908 272.891332 
L 164.352082 271.033556 
L 165.300255 269.614131 
L 166.248428 267.53718 
L 167.196602 265.909016 
L 168.144775 263.372839 
L 169.092948 260.220882 
L 170.041121 258.978886 
L 170.989295 256.181785 
L 171.937468 258.331795 
L 172.885641 255.639064 
L 173.833815 257.402907 
L 174.781988 255.179838 
L 175.730161 257.778637 
L 176.678335 254.783235 
L 177.626508 253.217693 
L 179.522855 249.136848 
L 180.471028 245.640472 
L 182.367375 231.957639 
L 183.315548 229.515394 
L 184.263721 227.396695 
L 185.211895 224.902265 
L 186.160068 223.869008 
L 187.108241 219.318501 
L 188.056415 219.214131 
L 189.004588 215.759503 
L 189.952761 213.2442 
L 190.900935 211.720406 
L 191.849108 208.725003 
L 192.797281 207.138588 
L 193.745455 202.535896 
L 194.693628 202.128855 
L 195.641801 203.600464 
L 196.589975 202.755071 
L 197.538148 205.823533 
L 198.486321 207.044655 
L 199.434494 203.141238 
L 200.382668 203.412599 
L 201.330841 202.577643 
L 202.279014 199.780543 
L 203.227188 198.131505 
L 205.123534 191.90065 
L 206.071708 186.035088 
L 207.968054 166.747616 
L 208.916228 161.800505 
L 209.864401 158.533742 
L 211.760748 156.279362 
L 212.708921 154.379838 
L 213.657094 150.518169 
L 214.605268 149.036123 
L 217.449788 142.022497 
L 218.397961 139.830739 
L 219.346134 139.914235 
L 220.294308 136.146498 
L 221.242481 136.031692 
L 222.190654 138.296509 
L 223.138828 140.133411 
L 224.087001 140.133411 
L 225.035174 143.61935 
L 226.931521 140.310839 
L 227.879694 138.129517 
L 228.827867 136.303052 
L 229.776041 129.915643 
L 230.724214 115.669215 
L 231.672387 107.016989 
L 232.620561 106.067227 
L 233.568734 104.52256 
L 234.516907 102.466482 
L 235.465081 99.794624 
L 236.413254 98.75093 
L 237.361427 97.310632 
L 238.309601 96.621793 
L 239.257774 93.094106 
L 240.205947 92.958426 
L 241.154121 90.161325 
L 242.102294 88.33486 
L 243.998641 94.127364 
L 244.946814 98.51088 
L 245.894987 101.214048 
L 246.843161 104.679114 
L 247.791334 103.092698 
L 248.739507 101.808954 
L 249.687681 101.109679 
L 250.635854 99.721566 
L 251.584027 98.970106 
L 253.480374 91.95648 
L 254.428547 85.109845 
L 255.37672 76.154947 
L 256.324894 68.556852 
L 257.273067 67.325293 
L 258.22124 66.96 
L 259.169414 69.621421 
L 260.117587 67.732334 
L 261.06576 68.431609 
L 262.013934 71.552255 
L 262.962107 72.721193 
L 263.91028 69.903218 
L 264.858454 71.854926 
L 265.806627 71.280895 
L 266.7548 73.597896 
L 268.651147 75.800091 
L 269.59932 75.653974 
L 270.547494 75.987956 
L 271.495667 75.6331 
L 272.44384 75.153001 
L 273.392014 78.524133 
L 274.340187 78.26321 
L 275.28836 79.588702 
L 278.13288 93.856003 
L 279.081054 100.535647 
L 280.029227 103.614545 
L 280.9774 107.580584 
L 281.925573 109.375738 
L 283.82192 109.981081 
L 284.770093 109.647099 
L 285.718267 110.763852 
L 286.66644 106.94393 
L 287.614613 96.079072 
L 288.562787 89.963023 
L 289.51096 92.634881 
L 290.459133 94.127364 
L 291.407307 92.968863 
L 292.35548 95.442419 
L 293.303653 96.851406 
L 294.251827 96.225189 
L 295.2 99.345836 
L 296.148173 99.157971 
L 297.096347 103.53105 
L 298.04452 105.023533 
L 298.992693 104.971348 
L 299.940867 107.18398 
L 300.88904 108.759959 
L 301.837213 111.755361 
L 302.785387 113.727944 
L 303.73356 116.84859 
L 304.681733 118.508064 
L 305.629907 121.597399 
L 306.57808 123.674351 
L 308.474427 134.246975 
L 309.4226 141.323222 
L 310.370773 149.839768 
L 311.318946 155.235668 
L 312.26712 159.890545 
L 315.11164 169.847389 
L 316.059813 170.254429 
L 317.007986 169.012433 
L 317.95616 168.083545 
L 318.904333 162.186672 
L 320.80068 166.340576 
L 321.748853 170.640596 
L 322.697026 173.750806 
L 323.6452 175.900816 
L 324.593373 179.992098 
L 325.541546 182.830946 
L 326.48972 184.417362 
L 327.437893 187.558882 
L 328.386066 189.907194 
L 329.33424 193.852359 
L 330.282413 195.92931 
L 331.230586 199.394376 
L 333.126933 205.061636 
L 334.075106 207.639561 
L 335.02328 211.073315 
L 335.971453 212.920654 
L 337.867799 224.881392 
L 338.815973 228.09597 
L 339.764146 233.366627 
L 340.712319 236.007173 
L 341.660493 238.261553 
L 342.608666 238.939954 
L 343.556839 239.117382 
L 344.505013 235.579259 
L 345.453186 238.480729 
L 346.401359 240.975158 
L 347.349533 242.739002 
L 348.297706 245.619598 
L 349.245879 250.107484 
L 350.194053 251.568656 
L 351.142226 254.511874 
L 352.090399 257.089799 
L 353.038573 258.75971 
L 353.986746 262.496136 
L 354.934919 264.593961 
L 355.883093 271.169236 
L 356.831266 275.072653 
L 357.779439 279.477043 
L 358.727613 281.553995 
L 359.675786 284.695515 
L 360.623959 286.720282 
L 361.572133 288.348445 
L 362.520306 289.235585 
L 363.468479 288.922477 
L 364.416653 289.987045 
L 365.364826 290.863748 
L 366.312999 293.431236 
L 368.209346 297.679072 
L 369.157519 300.538795 
L 370.105692 302.073025 
L 372.002039 307.458488 
L 372.950212 308.992719 
L 373.898386 310.79831 
L 375.794732 315.275759 
L 377.691079 318.813883 
L 378.639252 319.836703 
L 380.535599 323.12434 
L 381.483772 323.823616 
L 382.431946 325.169981 
L 383.380119 326.255423 
L 384.328292 326.766834 
L 385.276466 329.438691 
L 386.224639 330.169277 
L 388.120986 334.041383 
L 390.017332 337.516885 
L 390.965506 337.120282 
L 391.913679 338.393589 
L 392.861852 338.341404 
L 393.810025 337.913489 
L 395.706372 336.337511 
L 396.654545 332.851572 
L 397.602719 331.066854 
L 399.499065 330.795494 
L 400.447239 331.787004 
L 401.395412 331.317341 
L 403.291759 331.265156 
L 404.239932 331.035544 
L 405.188105 330.53457 
L 406.136279 330.597192 
L 407.084452 329.939665 
L 408.032625 330.711998 
L 408.980799 330.064908 
L 409.928972 330.440638 
L 410.877145 330.211025 
L 412.773492 329.51175 
L 413.721665 330.378016 
L 414.669839 328.676794 
L 415.618012 329.00034 
L 416.566185 328.791601 
L 417.514359 328.228006 
L 418.462532 327.831402 
L 419.410705 328.24888 
L 420.358879 327.476546 
L 422.255225 327.935771 
L 423.203398 330.242336 
L 424.151572 331.578265 
L 425.099745 332.611522 
L 426.996092 330.565881 
L 427.944265 329.323885 
L 428.892438 326.50591 
L 429.840612 324.533328 
L 430.788785 323.166088 
L 431.736958 323.072156 
L 432.685132 323.406138 
L 433.633305 322.779921 
L 434.581478 322.790358 
L 435.529652 322.47725 
L 436.477825 321.934529 
L 437.425998 322.205889 
L 438.374172 321.297875 
L 439.322345 320.755154 
L 440.270518 320.525542 
L 441.218692 320.08719 
L 442.166865 320.389861 
L 443.115038 320.035005 
L 444.063212 318.949563 
L 445.011385 319.085243 
L 445.959558 318.532085 
L 446.907732 317.69713 
L 447.855905 317.279652 
L 448.804078 317.958053 
L 449.752251 316.663872 
L 450.700425 316.309016 
L 451.648598 315.776732 
L 452.596771 316.517755 
L 453.544945 315.359255 
L 455.441291 317.989364 
L 456.389465 319.022622 
L 457.337638 319.304419 
L 458.285811 320.254181 
L 459.233985 319.168739 
L 460.182158 319.523595 
L 461.130331 317.791062 
L 462.078505 314.305123 
L 463.026678 312.02987 
L 463.974851 311.267973 
L 464.923025 312.196861 
L 465.871198 311.299283 
L 466.819371 310.067724 
L 467.767545 310.777436 
L 468.715718 309.848548 
L 469.663891 309.514566 
L 470.612065 309.754616 
L 471.560238 309.441508 
L 472.508411 308.763106 
L 473.456585 308.88835 
L 474.404758 307.604606 
L 475.352931 307.615042 
L 476.301105 307.813344 
L 477.249278 307.437614 
L 478.197451 307.688101 
L 479.145624 306.654844 
L 481.041971 306.070375 
L 481.990144 305.74683 
L 482.938318 306.059938 
L 483.886491 305.047554 
L 484.834664 304.870126 
L 485.782838 305.412847 
L 486.731011 304.870126 
L 487.679184 303.941238 
L 488.627358 303.836869 
L 489.575531 303.847306 
L 490.523704 303.179341 
L 491.471878 305.183235 
L 492.420051 305.162361 
L 493.368224 305.986879 
L 494.316398 305.423284 
L 495.264571 305.632023 
L 498.109091 300.173502 
L 498.109091 300.173502 
" clip-path="url(#pc949091494)" style="fill: none; stroke: #008000; stroke-width: 1.5; stroke-linecap: square"/>
   </g>
   <g id="patch_3">
    <path d="M 72 384.48 
L 72 51.84 
" style="fill: none; stroke: #000000; stroke-width: 0.8; stroke-linejoin: miter; stroke-linecap: square"/>
   </g>
   <g id="patch_4">
    <path d="M 518.4 384.48 
L 518.4 51.84 
" style="fill: none; stroke: #000000; stroke-width: 0.8; stroke-linejoin: miter; stroke-linecap: square"/>
   </g>
   <g id="patch_5">
    <path d="M 72 384.48 
L 518.4 384.48 
" style="fill: none; stroke: #000000; stroke-width: 0.8; stroke-linejoin: miter; stroke-linecap: square"/>
   </g>
   <g id="patch_6">
    <path d="M 72 51.84 
L 518.4 51.84 
" style="fill: none; stroke: #000000; stroke-width: 0.8; stroke-linejoin: miter; stroke-linecap: square"/>
   </g>
   <g id="text_21">
    <!-- M34: Aspartat; Isoleucin; Methionin -->
    <g transform="translate(206.625 45.84) scale(0.1 -0.1)">
     <defs>
      <path id="DejaVuSans-4d" d="M 628 4666 
L 1569 4666 
L 2759 1491 
L 3956 4666 
L 4897 4666 
L 4897 0 
L 4281 0 
L 4281 4097 
L 3078 897 
L 2444 897 
L 1241 4097 
L 1241 0 
L 628 0 
L 628 4666 
z
" transform="scale(0.015625)"/>
      <path id="DejaVuSans-3a" d="M 750 794 
L 1409 794 
L 1409 0 
L 750 0 
L 750 794 
z
M 750 3309 
L 1409 3309 
L 1409 2516 
L 750 2516 
L 750 3309 
z
" transform="scale(0.015625)"/>
      <path id="DejaVuSans-41" d="M 2188 4044 
L 1331 1722 
L 3047 1722 
L 2188 4044 
z
M 1831 4666 
L 2547 4666 
L 4325 0 
L 3669 0 
L 3244 1197 
L 1141 1197 
L 716 0 
L 50 0 
L 1831 4666 
z
" transform="scale(0.015625)"/>
      <path id="DejaVuSans-70" d="M 1159 525 
L 1159 -1331 
L 581 -1331 
L 581 3500 
L 1159 3500 
L 1159 2969 
Q 1341 3281 1617 3432 
Q 1894 3584 2278 3584 
Q 2916 3584 3314 3078 
Q 3713 2572 3713 1747 
Q 3713 922 3314 415 
Q 2916 -91 2278 -91 
Q 1894 -91 1617 61 
Q 1341 213 1159 525 
z
M 3116 1747 
Q 3116 2381 2855 2742 
Q 2594 3103 2138 3103 
Q 1681 3103 1420 2742 
Q 1159 2381 1159 1747 
Q 1159 1113 1420 752 
Q 1681 391 2138 391 
Q 2594 391 2855 752 
Q 3116 1113 3116 1747 
z
" transform="scale(0.015625)"/>
      <path id="DejaVuSans-3b" d="M 750 3309 
L 1409 3309 
L 1409 2516 
L 750 2516 
L 750 3309 
z
M 750 794 
L 1409 794 
L 1409 256 
L 897 -744 
L 494 -744 
L 750 256 
L 750 794 
z
" transform="scale(0.015625)"/>
      <path id="DejaVuSans-49" d="M 628 4666 
L 1259 4666 
L 1259 0 
L 628 0 
L 628 4666 
z
" transform="scale(0.015625)"/>
     </defs>
     <use xlink:href="#DejaVuSans-4d"/>
     <use xlink:href="#DejaVuSans-33" x="86.279297"/>
     <use xlink:href="#DejaVuSans-34" x="149.902344"/>
     <use xlink:href="#DejaVuSans-3a" x="213.525391"/>
     <use xlink:href="#DejaVuSans-20" x="247.216797"/>
     <use xlink:href="#DejaVuSans-41" x="279.003906"/>
     <use xlink:href="#DejaVuSans-73" x="347.412109"/>
     <use xlink:href="#DejaVuSans-70" x="399.511719"/>
     <use xlink:href="#DejaVuSans-61" x="462.988281"/>
     <use xlink:href="#DejaVuSans-72" x="524.267578"/>
     <use xlink:href="#DejaVuSans-74" x="565.380859"/>
     <use xlink:href="#DejaVuSans-61" x="604.589844"/>
     <use xlink:href="#DejaVuSans-74" x="665.869141"/>
     <use xlink:href="#DejaVuSans-3b" x="705.078125"/>
     <use xlink:href="#DejaVuSans-20" x="738.769531"/>
     <use xlink:href="#DejaVuSans-49" x="770.556641"/>
     <use xlink:href="#DejaVuSans-73" x="800.048828"/>
     <use xlink:href="#DejaVuSans-6f" x="852.148438"/>
     <use xlink:href="#DejaVuSans-6c" x="913.330078"/>
     <use xlink:href="#DejaVuSans-65" x="941.113281"/>
     <use xlink:href="#DejaVuSans-75" x="1002.636719"/>
     <use xlink:href="#DejaVuSans-63" x="1066.015625"/>
     <use xlink:href="#DejaVuSans-69" x="1120.996094"/>
     <use xlink:href="#DejaVuSans-6e" x="1148.779297"/>
     <use xlink:href="#DejaVuSans-3b" x="1212.158203"/>
     <use xlink:href="#DejaVuSans-20" x="1245.849609"/>
     <use xlink:href="#DejaVuSans-4d" x="1277.636719"/>
     <use xlink:href="#DejaVuSans-65" x="1363.916016"/>
     <use xlink:href="#DejaVuSans-74" x="1425.439453"/>
     <use xlink:href="#DejaVuSans-68" x="1464.648438"/>
     <use xlink:href="#DejaVuSans-69" x="1528.027344"/>
     <use xlink:href="#DejaVuSans-6f" x="1555.810547"/>
     <use xlink:href="#DejaVuSans-6e" x="1616.992188"/>
     <use xlink:href="#DejaVuSans-69" x="1680.371094"/>
     <use xlink:href="#DejaVuSans-6e" x="1708.154297"/>
    </g>
   </g>
  </g>
 </g>
 <defs>
  <clipPath id="pc949091494">
   <rect x="72" y="51.84" width="446.4" height="332.64"/>
  </clipPath>
 </defs>
</svg>
