<?xml version="1.0" encoding="utf-8" standalone="no"?>
<!DOCTYPE svg PUBLIC "-//W3C//DTD SVG 1.1//EN"
  "http://www.w3.org/Graphics/SVG/1.1/DTD/svg11.dtd">
<svg xmlns:xlink="http://www.w3.org/1999/xlink" width="576pt" height="432pt" viewBox="0 0 576 432" xmlns="http://www.w3.org/2000/svg" version="1.1">
 <metadata>
  <rdf:RDF xmlns:dc="http://purl.org/dc/elements/1.1/" xmlns:cc="http://creativecommons.org/ns#" xmlns:rdf="http://www.w3.org/1999/02/22-rdf-syntax-ns#">
   <cc:Work>
    <dc:type rdf:resource="http://purl.org/dc/dcmitype/StillImage"/>
    <dc:date>2024-11-12T14:09:19.952895</dc:date>
    <dc:format>image/svg+xml</dc:format>
    <dc:creator>
     <cc:Agent>
      <dc:title>Matplotlib v3.7.5, https://matplotlib.org/</dc:title>
     </cc:Agent>
    </dc:creator>
   </cc:Work>
  </rdf:RDF>
 </metadata>
 <defs>
  <style type="text/css">*{stroke-linejoin: round; stroke-linecap: butt}</style>
 </defs>
 <g id="figure_1">
  <g id="patch_1">
   <path d="M 0 432 
L 576 432 
L 576 0 
L 0 0 
z
" style="fill: #ffffff"/>
  </g>
  <g id="axes_1">
   <g id="patch_2">
    <path d="M 72 384.48 
L 518.4 384.48 
L 518.4 51.84 
L 72 51.84 
z
" style="fill: #ffffff"/>
   </g>
   <g id="matplotlib.axis_1">
    <g id="xtick_1">
     <g id="line2d_1">
      <path d="M 92.290909 384.48 
L 92.290909 51.84 
" clip-path="url(#p6d08c1e50f)" style="fill: none; stroke: #b0b0b0; stroke-width: 0.8; stroke-linecap: square"/>
     </g>
     <g id="line2d_2">
      <defs>
       <path id="m2362f3ca16" d="M 0 0 
L 0 3.5 
" style="stroke: #000000; stroke-width: 0.8"/>
      </defs>
      <g>
       <use xlink:href="#m2362f3ca16" x="92.290909" y="384.48" style="stroke: #000000; stroke-width: 0.8"/>
      </g>
     </g>
     <g id="text_1">
      <!-- 0.17 -->
      <g transform="translate(81.158097 399.078438) scale(0.1 -0.1)">
       <defs>
        <path id="DejaVuSans-30" d="M 2034 4250 
Q 1547 4250 1301 3770 
Q 1056 3291 1056 2328 
Q 1056 1369 1301 889 
Q 1547 409 2034 409 
Q 2525 409 2770 889 
Q 3016 1369 3016 2328 
Q 3016 3291 2770 3770 
Q 2525 4250 2034 4250 
z
M 2034 4750 
Q 2819 4750 3233 4129 
Q 3647 3509 3647 2328 
Q 3647 1150 3233 529 
Q 2819 -91 2034 -91 
Q 1250 -91 836 529 
Q 422 1150 422 2328 
Q 422 3509 836 4129 
Q 1250 4750 2034 4750 
z
" transform="scale(0.015625)"/>
        <path id="DejaVuSans-2e" d="M 684 794 
L 1344 794 
L 1344 0 
L 684 0 
L 684 794 
z
" transform="scale(0.015625)"/>
        <path id="DejaVuSans-31" d="M 794 531 
L 1825 531 
L 1825 4091 
L 703 3866 
L 703 4441 
L 1819 4666 
L 2450 4666 
L 2450 531 
L 3481 531 
L 3481 0 
L 794 0 
L 794 531 
z
" transform="scale(0.015625)"/>
        <path id="DejaVuSans-37" d="M 525 4666 
L 3525 4666 
L 3525 4397 
L 1831 0 
L 1172 0 
L 2766 4134 
L 525 4134 
L 525 4666 
z
" transform="scale(0.015625)"/>
       </defs>
       <use xlink:href="#DejaVuSans-30"/>
       <use xlink:href="#DejaVuSans-2e" x="63.623047"/>
       <use xlink:href="#DejaVuSans-31" x="95.410156"/>
       <use xlink:href="#DejaVuSans-37" x="159.033203"/>
      </g>
     </g>
    </g>
    <g id="xtick_2">
     <g id="line2d_3">
      <path d="M 130.217842 384.48 
L 130.217842 51.84 
" clip-path="url(#p6d08c1e50f)" style="fill: none; stroke: #b0b0b0; stroke-width: 0.8; stroke-linecap: square"/>
     </g>
     <g id="line2d_4">
      <g>
       <use xlink:href="#m2362f3ca16" x="130.217842" y="384.48" style="stroke: #000000; stroke-width: 0.8"/>
      </g>
     </g>
     <g id="text_2">
      <!-- 6.83 -->
      <g transform="translate(119.085029 399.078438) scale(0.1 -0.1)">
       <defs>
        <path id="DejaVuSans-36" d="M 2113 2584 
Q 1688 2584 1439 2293 
Q 1191 2003 1191 1497 
Q 1191 994 1439 701 
Q 1688 409 2113 409 
Q 2538 409 2786 701 
Q 3034 994 3034 1497 
Q 3034 2003 2786 2293 
Q 2538 2584 2113 2584 
z
M 3366 4563 
L 3366 3988 
Q 3128 4100 2886 4159 
Q 2644 4219 2406 4219 
Q 1781 4219 1451 3797 
Q 1122 3375 1075 2522 
Q 1259 2794 1537 2939 
Q 1816 3084 2150 3084 
Q 2853 3084 3261 2657 
Q 3669 2231 3669 1497 
Q 3669 778 3244 343 
Q 2819 -91 2113 -91 
Q 1303 -91 875 529 
Q 447 1150 447 2328 
Q 447 3434 972 4092 
Q 1497 4750 2381 4750 
Q 2619 4750 2861 4703 
Q 3103 4656 3366 4563 
z
" transform="scale(0.015625)"/>
        <path id="DejaVuSans-38" d="M 2034 2216 
Q 1584 2216 1326 1975 
Q 1069 1734 1069 1313 
Q 1069 891 1326 650 
Q 1584 409 2034 409 
Q 2484 409 2743 651 
Q 3003 894 3003 1313 
Q 3003 1734 2745 1975 
Q 2488 2216 2034 2216 
z
M 1403 2484 
Q 997 2584 770 2862 
Q 544 3141 544 3541 
Q 544 4100 942 4425 
Q 1341 4750 2034 4750 
Q 2731 4750 3128 4425 
Q 3525 4100 3525 3541 
Q 3525 3141 3298 2862 
Q 3072 2584 2669 2484 
Q 3125 2378 3379 2068 
Q 3634 1759 3634 1313 
Q 3634 634 3220 271 
Q 2806 -91 2034 -91 
Q 1263 -91 848 271 
Q 434 634 434 1313 
Q 434 1759 690 2068 
Q 947 2378 1403 2484 
z
M 1172 3481 
Q 1172 3119 1398 2916 
Q 1625 2713 2034 2713 
Q 2441 2713 2670 2916 
Q 2900 3119 2900 3481 
Q 2900 3844 2670 4047 
Q 2441 4250 2034 4250 
Q 1625 4250 1398 4047 
Q 1172 3844 1172 3481 
z
" transform="scale(0.015625)"/>
        <path id="DejaVuSans-33" d="M 2597 2516 
Q 3050 2419 3304 2112 
Q 3559 1806 3559 1356 
Q 3559 666 3084 287 
Q 2609 -91 1734 -91 
Q 1441 -91 1130 -33 
Q 819 25 488 141 
L 488 750 
Q 750 597 1062 519 
Q 1375 441 1716 441 
Q 2309 441 2620 675 
Q 2931 909 2931 1356 
Q 2931 1769 2642 2001 
Q 2353 2234 1838 2234 
L 1294 2234 
L 1294 2753 
L 1863 2753 
Q 2328 2753 2575 2939 
Q 2822 3125 2822 3475 
Q 2822 3834 2567 4026 
Q 2313 4219 1838 4219 
Q 1578 4219 1281 4162 
Q 984 4106 628 3988 
L 628 4550 
Q 988 4650 1302 4700 
Q 1616 4750 1894 4750 
Q 2613 4750 3031 4423 
Q 3450 4097 3450 3541 
Q 3450 3153 3228 2886 
Q 3006 2619 2597 2516 
z
" transform="scale(0.015625)"/>
       </defs>
       <use xlink:href="#DejaVuSans-36"/>
       <use xlink:href="#DejaVuSans-2e" x="63.623047"/>
       <use xlink:href="#DejaVuSans-38" x="95.410156"/>
       <use xlink:href="#DejaVuSans-33" x="159.033203"/>
      </g>
     </g>
    </g>
    <g id="xtick_3">
     <g id="line2d_5">
      <path d="M 168.144775 384.48 
L 168.144775 51.84 
" clip-path="url(#p6d08c1e50f)" style="fill: none; stroke: #b0b0b0; stroke-width: 0.8; stroke-linecap: square"/>
     </g>
     <g id="line2d_6">
      <g>
       <use xlink:href="#m2362f3ca16" x="168.144775" y="384.48" style="stroke: #000000; stroke-width: 0.8"/>
      </g>
     </g>
     <g id="text_3">
      <!-- 13.5 -->
      <g transform="translate(157.011962 399.078438) scale(0.1 -0.1)">
       <defs>
        <path id="DejaVuSans-35" d="M 691 4666 
L 3169 4666 
L 3169 4134 
L 1269 4134 
L 1269 2991 
Q 1406 3038 1543 3061 
Q 1681 3084 1819 3084 
Q 2600 3084 3056 2656 
Q 3513 2228 3513 1497 
Q 3513 744 3044 326 
Q 2575 -91 1722 -91 
Q 1428 -91 1123 -41 
Q 819 9 494 109 
L 494 744 
Q 775 591 1075 516 
Q 1375 441 1709 441 
Q 2250 441 2565 725 
Q 2881 1009 2881 1497 
Q 2881 1984 2565 2268 
Q 2250 2553 1709 2553 
Q 1456 2553 1204 2497 
Q 953 2441 691 2322 
L 691 4666 
z
" transform="scale(0.015625)"/>
       </defs>
       <use xlink:href="#DejaVuSans-31"/>
       <use xlink:href="#DejaVuSans-33" x="63.623047"/>
       <use xlink:href="#DejaVuSans-2e" x="127.246094"/>
       <use xlink:href="#DejaVuSans-35" x="159.033203"/>
      </g>
     </g>
    </g>
    <g id="xtick_4">
     <g id="line2d_7">
      <path d="M 206.071708 384.48 
L 206.071708 51.84 
" clip-path="url(#p6d08c1e50f)" style="fill: none; stroke: #b0b0b0; stroke-width: 0.8; stroke-linecap: square"/>
     </g>
     <g id="line2d_8">
      <g>
       <use xlink:href="#m2362f3ca16" x="206.071708" y="384.48" style="stroke: #000000; stroke-width: 0.8"/>
      </g>
     </g>
     <g id="text_4">
      <!-- 20.17 -->
      <g transform="translate(191.757645 399.078438) scale(0.1 -0.1)">
       <defs>
        <path id="DejaVuSans-32" d="M 1228 531 
L 3431 531 
L 3431 0 
L 469 0 
L 469 531 
Q 828 903 1448 1529 
Q 2069 2156 2228 2338 
Q 2531 2678 2651 2914 
Q 2772 3150 2772 3378 
Q 2772 3750 2511 3984 
Q 2250 4219 1831 4219 
Q 1534 4219 1204 4116 
Q 875 4013 500 3803 
L 500 4441 
Q 881 4594 1212 4672 
Q 1544 4750 1819 4750 
Q 2544 4750 2975 4387 
Q 3406 4025 3406 3419 
Q 3406 3131 3298 2873 
Q 3191 2616 2906 2266 
Q 2828 2175 2409 1742 
Q 1991 1309 1228 531 
z
" transform="scale(0.015625)"/>
       </defs>
       <use xlink:href="#DejaVuSans-32"/>
       <use xlink:href="#DejaVuSans-30" x="63.623047"/>
       <use xlink:href="#DejaVuSans-2e" x="127.246094"/>
       <use xlink:href="#DejaVuSans-31" x="159.033203"/>
       <use xlink:href="#DejaVuSans-37" x="222.65625"/>
      </g>
     </g>
    </g>
    <g id="xtick_5">
     <g id="line2d_9">
      <path d="M 243.998641 384.48 
L 243.998641 51.84 
" clip-path="url(#p6d08c1e50f)" style="fill: none; stroke: #b0b0b0; stroke-width: 0.8; stroke-linecap: square"/>
     </g>
     <g id="line2d_10">
      <g>
       <use xlink:href="#m2362f3ca16" x="243.998641" y="384.48" style="stroke: #000000; stroke-width: 0.8"/>
      </g>
     </g>
     <g id="text_5">
      <!-- 26.83 -->
      <g transform="translate(229.684578 399.078438) scale(0.1 -0.1)">
       <use xlink:href="#DejaVuSans-32"/>
       <use xlink:href="#DejaVuSans-36" x="63.623047"/>
       <use xlink:href="#DejaVuSans-2e" x="127.246094"/>
       <use xlink:href="#DejaVuSans-38" x="159.033203"/>
       <use xlink:href="#DejaVuSans-33" x="222.65625"/>
      </g>
     </g>
    </g>
    <g id="xtick_6">
     <g id="line2d_11">
      <path d="M 281.925573 384.48 
L 281.925573 51.84 
" clip-path="url(#p6d08c1e50f)" style="fill: none; stroke: #b0b0b0; stroke-width: 0.8; stroke-linecap: square"/>
     </g>
     <g id="line2d_12">
      <g>
       <use xlink:href="#m2362f3ca16" x="281.925573" y="384.48" style="stroke: #000000; stroke-width: 0.8"/>
      </g>
     </g>
     <g id="text_6">
      <!-- 33.5 -->
      <g transform="translate(270.792761 399.078438) scale(0.1 -0.1)">
       <use xlink:href="#DejaVuSans-33"/>
       <use xlink:href="#DejaVuSans-33" x="63.623047"/>
       <use xlink:href="#DejaVuSans-2e" x="127.246094"/>
       <use xlink:href="#DejaVuSans-35" x="159.033203"/>
      </g>
     </g>
    </g>
    <g id="xtick_7">
     <g id="line2d_13">
      <path d="M 319.852506 384.48 
L 319.852506 51.84 
" clip-path="url(#p6d08c1e50f)" style="fill: none; stroke: #b0b0b0; stroke-width: 0.8; stroke-linecap: square"/>
     </g>
     <g id="line2d_14">
      <g>
       <use xlink:href="#m2362f3ca16" x="319.852506" y="384.48" style="stroke: #000000; stroke-width: 0.8"/>
      </g>
     </g>
     <g id="text_7">
      <!-- 40.17 -->
      <g transform="translate(305.538444 399.078438) scale(0.1 -0.1)">
       <defs>
        <path id="DejaVuSans-34" d="M 2419 4116 
L 825 1625 
L 2419 1625 
L 2419 4116 
z
M 2253 4666 
L 3047 4666 
L 3047 1625 
L 3713 1625 
L 3713 1100 
L 3047 1100 
L 3047 0 
L 2419 0 
L 2419 1100 
L 313 1100 
L 313 1709 
L 2253 4666 
z
" transform="scale(0.015625)"/>
       </defs>
       <use xlink:href="#DejaVuSans-34"/>
       <use xlink:href="#DejaVuSans-30" x="63.623047"/>
       <use xlink:href="#DejaVuSans-2e" x="127.246094"/>
       <use xlink:href="#DejaVuSans-31" x="159.033203"/>
       <use xlink:href="#DejaVuSans-37" x="222.65625"/>
      </g>
     </g>
    </g>
    <g id="xtick_8">
     <g id="line2d_15">
      <path d="M 357.779439 384.48 
L 357.779439 51.84 
" clip-path="url(#p6d08c1e50f)" style="fill: none; stroke: #b0b0b0; stroke-width: 0.8; stroke-linecap: square"/>
     </g>
     <g id="line2d_16">
      <g>
       <use xlink:href="#m2362f3ca16" x="357.779439" y="384.48" style="stroke: #000000; stroke-width: 0.8"/>
      </g>
     </g>
     <g id="text_8">
      <!-- 46.83 -->
      <g transform="translate(343.465377 399.078438) scale(0.1 -0.1)">
       <use xlink:href="#DejaVuSans-34"/>
       <use xlink:href="#DejaVuSans-36" x="63.623047"/>
       <use xlink:href="#DejaVuSans-2e" x="127.246094"/>
       <use xlink:href="#DejaVuSans-38" x="159.033203"/>
       <use xlink:href="#DejaVuSans-33" x="222.65625"/>
      </g>
     </g>
    </g>
    <g id="xtick_9">
     <g id="line2d_17">
      <path d="M 395.706372 384.48 
L 395.706372 51.84 
" clip-path="url(#p6d08c1e50f)" style="fill: none; stroke: #b0b0b0; stroke-width: 0.8; stroke-linecap: square"/>
     </g>
     <g id="line2d_18">
      <g>
       <use xlink:href="#m2362f3ca16" x="395.706372" y="384.48" style="stroke: #000000; stroke-width: 0.8"/>
      </g>
     </g>
     <g id="text_9">
      <!-- 53.5 -->
      <g transform="translate(384.57356 399.078438) scale(0.1 -0.1)">
       <use xlink:href="#DejaVuSans-35"/>
       <use xlink:href="#DejaVuSans-33" x="63.623047"/>
       <use xlink:href="#DejaVuSans-2e" x="127.246094"/>
       <use xlink:href="#DejaVuSans-35" x="159.033203"/>
      </g>
     </g>
    </g>
    <g id="xtick_10">
     <g id="line2d_19">
      <path d="M 433.633305 384.48 
L 433.633305 51.84 
" clip-path="url(#p6d08c1e50f)" style="fill: none; stroke: #b0b0b0; stroke-width: 0.8; stroke-linecap: square"/>
     </g>
     <g id="line2d_20">
      <g>
       <use xlink:href="#m2362f3ca16" x="433.633305" y="384.48" style="stroke: #000000; stroke-width: 0.8"/>
      </g>
     </g>
     <g id="text_10">
      <!-- 60.17 -->
      <g transform="translate(419.319243 399.078438) scale(0.1 -0.1)">
       <use xlink:href="#DejaVuSans-36"/>
       <use xlink:href="#DejaVuSans-30" x="63.623047"/>
       <use xlink:href="#DejaVuSans-2e" x="127.246094"/>
       <use xlink:href="#DejaVuSans-31" x="159.033203"/>
       <use xlink:href="#DejaVuSans-37" x="222.65625"/>
      </g>
     </g>
    </g>
    <g id="xtick_11">
     <g id="line2d_21">
      <path d="M 471.560238 384.48 
L 471.560238 51.84 
" clip-path="url(#p6d08c1e50f)" style="fill: none; stroke: #b0b0b0; stroke-width: 0.8; stroke-linecap: square"/>
     </g>
     <g id="line2d_22">
      <g>
       <use xlink:href="#m2362f3ca16" x="471.560238" y="384.48" style="stroke: #000000; stroke-width: 0.8"/>
      </g>
     </g>
     <g id="text_11">
      <!-- 66.83 -->
      <g transform="translate(457.246175 399.078438) scale(0.1 -0.1)">
       <use xlink:href="#DejaVuSans-36"/>
       <use xlink:href="#DejaVuSans-36" x="63.623047"/>
       <use xlink:href="#DejaVuSans-2e" x="127.246094"/>
       <use xlink:href="#DejaVuSans-38" x="159.033203"/>
       <use xlink:href="#DejaVuSans-33" x="222.65625"/>
      </g>
     </g>
    </g>
    <g id="text_12">
     <!-- time in hours [h] -->
     <g transform="translate(253.451562 412.756563) scale(0.1 -0.1)">
      <defs>
       <path id="DejaVuSans-74" d="M 1172 4494 
L 1172 3500 
L 2356 3500 
L 2356 3053 
L 1172 3053 
L 1172 1153 
Q 1172 725 1289 603 
Q 1406 481 1766 481 
L 2356 481 
L 2356 0 
L 1766 0 
Q 1100 0 847 248 
Q 594 497 594 1153 
L 594 3053 
L 172 3053 
L 172 3500 
L 594 3500 
L 594 4494 
L 1172 4494 
z
" transform="scale(0.015625)"/>
       <path id="DejaVuSans-69" d="M 603 3500 
L 1178 3500 
L 1178 0 
L 603 0 
L 603 3500 
z
M 603 4863 
L 1178 4863 
L 1178 4134 
L 603 4134 
L 603 4863 
z
" transform="scale(0.015625)"/>
       <path id="DejaVuSans-6d" d="M 3328 2828 
Q 3544 3216 3844 3400 
Q 4144 3584 4550 3584 
Q 5097 3584 5394 3201 
Q 5691 2819 5691 2113 
L 5691 0 
L 5113 0 
L 5113 2094 
Q 5113 2597 4934 2840 
Q 4756 3084 4391 3084 
Q 3944 3084 3684 2787 
Q 3425 2491 3425 1978 
L 3425 0 
L 2847 0 
L 2847 2094 
Q 2847 2600 2669 2842 
Q 2491 3084 2119 3084 
Q 1678 3084 1418 2786 
Q 1159 2488 1159 1978 
L 1159 0 
L 581 0 
L 581 3500 
L 1159 3500 
L 1159 2956 
Q 1356 3278 1631 3431 
Q 1906 3584 2284 3584 
Q 2666 3584 2933 3390 
Q 3200 3197 3328 2828 
z
" transform="scale(0.015625)"/>
       <path id="DejaVuSans-65" d="M 3597 1894 
L 3597 1613 
L 953 1613 
Q 991 1019 1311 708 
Q 1631 397 2203 397 
Q 2534 397 2845 478 
Q 3156 559 3463 722 
L 3463 178 
Q 3153 47 2828 -22 
Q 2503 -91 2169 -91 
Q 1331 -91 842 396 
Q 353 884 353 1716 
Q 353 2575 817 3079 
Q 1281 3584 2069 3584 
Q 2775 3584 3186 3129 
Q 3597 2675 3597 1894 
z
M 3022 2063 
Q 3016 2534 2758 2815 
Q 2500 3097 2075 3097 
Q 1594 3097 1305 2825 
Q 1016 2553 972 2059 
L 3022 2063 
z
" transform="scale(0.015625)"/>
       <path id="DejaVuSans-20" transform="scale(0.015625)"/>
       <path id="DejaVuSans-6e" d="M 3513 2113 
L 3513 0 
L 2938 0 
L 2938 2094 
Q 2938 2591 2744 2837 
Q 2550 3084 2163 3084 
Q 1697 3084 1428 2787 
Q 1159 2491 1159 1978 
L 1159 0 
L 581 0 
L 581 3500 
L 1159 3500 
L 1159 2956 
Q 1366 3272 1645 3428 
Q 1925 3584 2291 3584 
Q 2894 3584 3203 3211 
Q 3513 2838 3513 2113 
z
" transform="scale(0.015625)"/>
       <path id="DejaVuSans-68" d="M 3513 2113 
L 3513 0 
L 2938 0 
L 2938 2094 
Q 2938 2591 2744 2837 
Q 2550 3084 2163 3084 
Q 1697 3084 1428 2787 
Q 1159 2491 1159 1978 
L 1159 0 
L 581 0 
L 581 4863 
L 1159 4863 
L 1159 2956 
Q 1366 3272 1645 3428 
Q 1925 3584 2291 3584 
Q 2894 3584 3203 3211 
Q 3513 2838 3513 2113 
z
" transform="scale(0.015625)"/>
       <path id="DejaVuSans-6f" d="M 1959 3097 
Q 1497 3097 1228 2736 
Q 959 2375 959 1747 
Q 959 1119 1226 758 
Q 1494 397 1959 397 
Q 2419 397 2687 759 
Q 2956 1122 2956 1747 
Q 2956 2369 2687 2733 
Q 2419 3097 1959 3097 
z
M 1959 3584 
Q 2709 3584 3137 3096 
Q 3566 2609 3566 1747 
Q 3566 888 3137 398 
Q 2709 -91 1959 -91 
Q 1206 -91 779 398 
Q 353 888 353 1747 
Q 353 2609 779 3096 
Q 1206 3584 1959 3584 
z
" transform="scale(0.015625)"/>
       <path id="DejaVuSans-75" d="M 544 1381 
L 544 3500 
L 1119 3500 
L 1119 1403 
Q 1119 906 1312 657 
Q 1506 409 1894 409 
Q 2359 409 2629 706 
Q 2900 1003 2900 1516 
L 2900 3500 
L 3475 3500 
L 3475 0 
L 2900 0 
L 2900 538 
Q 2691 219 2414 64 
Q 2138 -91 1772 -91 
Q 1169 -91 856 284 
Q 544 659 544 1381 
z
M 1991 3584 
L 1991 3584 
z
" transform="scale(0.015625)"/>
       <path id="DejaVuSans-72" d="M 2631 2963 
Q 2534 3019 2420 3045 
Q 2306 3072 2169 3072 
Q 1681 3072 1420 2755 
Q 1159 2438 1159 1844 
L 1159 0 
L 581 0 
L 581 3500 
L 1159 3500 
L 1159 2956 
Q 1341 3275 1631 3429 
Q 1922 3584 2338 3584 
Q 2397 3584 2469 3576 
Q 2541 3569 2628 3553 
L 2631 2963 
z
" transform="scale(0.015625)"/>
       <path id="DejaVuSans-73" d="M 2834 3397 
L 2834 2853 
Q 2591 2978 2328 3040 
Q 2066 3103 1784 3103 
Q 1356 3103 1142 2972 
Q 928 2841 928 2578 
Q 928 2378 1081 2264 
Q 1234 2150 1697 2047 
L 1894 2003 
Q 2506 1872 2764 1633 
Q 3022 1394 3022 966 
Q 3022 478 2636 193 
Q 2250 -91 1575 -91 
Q 1294 -91 989 -36 
Q 684 19 347 128 
L 347 722 
Q 666 556 975 473 
Q 1284 391 1588 391 
Q 1994 391 2212 530 
Q 2431 669 2431 922 
Q 2431 1156 2273 1281 
Q 2116 1406 1581 1522 
L 1381 1569 
Q 847 1681 609 1914 
Q 372 2147 372 2553 
Q 372 3047 722 3315 
Q 1072 3584 1716 3584 
Q 2034 3584 2315 3537 
Q 2597 3491 2834 3397 
z
" transform="scale(0.015625)"/>
       <path id="DejaVuSans-5b" d="M 550 4863 
L 1875 4863 
L 1875 4416 
L 1125 4416 
L 1125 -397 
L 1875 -397 
L 1875 -844 
L 550 -844 
L 550 4863 
z
" transform="scale(0.015625)"/>
       <path id="DejaVuSans-5d" d="M 1947 4863 
L 1947 -844 
L 622 -844 
L 622 -397 
L 1369 -397 
L 1369 4416 
L 622 4416 
L 622 4863 
L 1947 4863 
z
" transform="scale(0.015625)"/>
      </defs>
      <use xlink:href="#DejaVuSans-74"/>
      <use xlink:href="#DejaVuSans-69" x="39.208984"/>
      <use xlink:href="#DejaVuSans-6d" x="66.992188"/>
      <use xlink:href="#DejaVuSans-65" x="164.404297"/>
      <use xlink:href="#DejaVuSans-20" x="225.927734"/>
      <use xlink:href="#DejaVuSans-69" x="257.714844"/>
      <use xlink:href="#DejaVuSans-6e" x="285.498047"/>
      <use xlink:href="#DejaVuSans-20" x="348.876953"/>
      <use xlink:href="#DejaVuSans-68" x="380.664062"/>
      <use xlink:href="#DejaVuSans-6f" x="444.042969"/>
      <use xlink:href="#DejaVuSans-75" x="505.224609"/>
      <use xlink:href="#DejaVuSans-72" x="568.603516"/>
      <use xlink:href="#DejaVuSans-73" x="609.716797"/>
      <use xlink:href="#DejaVuSans-20" x="661.816406"/>
      <use xlink:href="#DejaVuSans-5b" x="693.603516"/>
      <use xlink:href="#DejaVuSans-68" x="732.617188"/>
      <use xlink:href="#DejaVuSans-5d" x="795.996094"/>
     </g>
    </g>
   </g>
   <g id="matplotlib.axis_2">
    <g id="ytick_1">
     <g id="line2d_23">
      <path d="M 72 324.234234 
L 518.4 324.234234 
" clip-path="url(#p6d08c1e50f)" style="fill: none; stroke: #b0b0b0; stroke-width: 0.8; stroke-linecap: square"/>
     </g>
     <g id="line2d_24">
      <defs>
       <path id="m16ade72b43" d="M 0 0 
L -3.5 0 
" style="stroke: #000000; stroke-width: 0.8"/>
      </defs>
      <g>
       <use xlink:href="#m16ade72b43" x="72" y="324.234234" style="stroke: #000000; stroke-width: 0.8"/>
      </g>
     </g>
     <g id="text_13">
      <!-- 20000 -->
      <g transform="translate(33.1875 328.033453) scale(0.1 -0.1)">
       <use xlink:href="#DejaVuSans-32"/>
       <use xlink:href="#DejaVuSans-30" x="63.623047"/>
       <use xlink:href="#DejaVuSans-30" x="127.246094"/>
       <use xlink:href="#DejaVuSans-30" x="190.869141"/>
       <use xlink:href="#DejaVuSans-30" x="254.492188"/>
      </g>
     </g>
    </g>
    <g id="ytick_2">
     <g id="line2d_25">
      <path d="M 72 263.677327 
L 518.4 263.677327 
" clip-path="url(#p6d08c1e50f)" style="fill: none; stroke: #b0b0b0; stroke-width: 0.8; stroke-linecap: square"/>
     </g>
     <g id="line2d_26">
      <g>
       <use xlink:href="#m16ade72b43" x="72" y="263.677327" style="stroke: #000000; stroke-width: 0.8"/>
      </g>
     </g>
     <g id="text_14">
      <!-- 40000 -->
      <g transform="translate(33.1875 267.476546) scale(0.1 -0.1)">
       <use xlink:href="#DejaVuSans-34"/>
       <use xlink:href="#DejaVuSans-30" x="63.623047"/>
       <use xlink:href="#DejaVuSans-30" x="127.246094"/>
       <use xlink:href="#DejaVuSans-30" x="190.869141"/>
       <use xlink:href="#DejaVuSans-30" x="254.492188"/>
      </g>
     </g>
    </g>
    <g id="ytick_3">
     <g id="line2d_27">
      <path d="M 72 203.12042 
L 518.4 203.12042 
" clip-path="url(#p6d08c1e50f)" style="fill: none; stroke: #b0b0b0; stroke-width: 0.8; stroke-linecap: square"/>
     </g>
     <g id="line2d_28">
      <g>
       <use xlink:href="#m16ade72b43" x="72" y="203.12042" style="stroke: #000000; stroke-width: 0.8"/>
      </g>
     </g>
     <g id="text_15">
      <!-- 60000 -->
      <g transform="translate(33.1875 206.919638) scale(0.1 -0.1)">
       <use xlink:href="#DejaVuSans-36"/>
       <use xlink:href="#DejaVuSans-30" x="63.623047"/>
       <use xlink:href="#DejaVuSans-30" x="127.246094"/>
       <use xlink:href="#DejaVuSans-30" x="190.869141"/>
       <use xlink:href="#DejaVuSans-30" x="254.492188"/>
      </g>
     </g>
    </g>
    <g id="ytick_4">
     <g id="line2d_29">
      <path d="M 72 142.563512 
L 518.4 142.563512 
" clip-path="url(#p6d08c1e50f)" style="fill: none; stroke: #b0b0b0; stroke-width: 0.8; stroke-linecap: square"/>
     </g>
     <g id="line2d_30">
      <g>
       <use xlink:href="#m16ade72b43" x="72" y="142.563512" style="stroke: #000000; stroke-width: 0.8"/>
      </g>
     </g>
     <g id="text_16">
      <!-- 80000 -->
      <g transform="translate(33.1875 146.362731) scale(0.1 -0.1)">
       <use xlink:href="#DejaVuSans-38"/>
       <use xlink:href="#DejaVuSans-30" x="63.623047"/>
       <use xlink:href="#DejaVuSans-30" x="127.246094"/>
       <use xlink:href="#DejaVuSans-30" x="190.869141"/>
       <use xlink:href="#DejaVuSans-30" x="254.492188"/>
      </g>
     </g>
    </g>
    <g id="ytick_5">
     <g id="line2d_31">
      <path d="M 72 82.006605 
L 518.4 82.006605 
" clip-path="url(#p6d08c1e50f)" style="fill: none; stroke: #b0b0b0; stroke-width: 0.8; stroke-linecap: square"/>
     </g>
     <g id="line2d_32">
      <g>
       <use xlink:href="#m16ade72b43" x="72" y="82.006605" style="stroke: #000000; stroke-width: 0.8"/>
      </g>
     </g>
     <g id="text_17">
      <!-- 100000 -->
      <g transform="translate(26.825 85.805824) scale(0.1 -0.1)">
       <use xlink:href="#DejaVuSans-31"/>
       <use xlink:href="#DejaVuSans-30" x="63.623047"/>
       <use xlink:href="#DejaVuSans-30" x="127.246094"/>
       <use xlink:href="#DejaVuSans-30" x="190.869141"/>
       <use xlink:href="#DejaVuSans-30" x="254.492188"/>
       <use xlink:href="#DejaVuSans-30" x="318.115234"/>
      </g>
     </g>
    </g>
    <g id="text_18">
     <!-- blank corrected GFP RFU -->
     <g transform="translate(20.745312 280.149062) rotate(-90) scale(0.1 -0.1)">
      <defs>
       <path id="DejaVuSans-62" d="M 3116 1747 
Q 3116 2381 2855 2742 
Q 2594 3103 2138 3103 
Q 1681 3103 1420 2742 
Q 1159 2381 1159 1747 
Q 1159 1113 1420 752 
Q 1681 391 2138 391 
Q 2594 391 2855 752 
Q 3116 1113 3116 1747 
z
M 1159 2969 
Q 1341 3281 1617 3432 
Q 1894 3584 2278 3584 
Q 2916 3584 3314 3078 
Q 3713 2572 3713 1747 
Q 3713 922 3314 415 
Q 2916 -91 2278 -91 
Q 1894 -91 1617 61 
Q 1341 213 1159 525 
L 1159 0 
L 581 0 
L 581 4863 
L 1159 4863 
L 1159 2969 
z
" transform="scale(0.015625)"/>
       <path id="DejaVuSans-6c" d="M 603 4863 
L 1178 4863 
L 1178 0 
L 603 0 
L 603 4863 
z
" transform="scale(0.015625)"/>
       <path id="DejaVuSans-61" d="M 2194 1759 
Q 1497 1759 1228 1600 
Q 959 1441 959 1056 
Q 959 750 1161 570 
Q 1363 391 1709 391 
Q 2188 391 2477 730 
Q 2766 1069 2766 1631 
L 2766 1759 
L 2194 1759 
z
M 3341 1997 
L 3341 0 
L 2766 0 
L 2766 531 
Q 2569 213 2275 61 
Q 1981 -91 1556 -91 
Q 1019 -91 701 211 
Q 384 513 384 1019 
Q 384 1609 779 1909 
Q 1175 2209 1959 2209 
L 2766 2209 
L 2766 2266 
Q 2766 2663 2505 2880 
Q 2244 3097 1772 3097 
Q 1472 3097 1187 3025 
Q 903 2953 641 2809 
L 641 3341 
Q 956 3463 1253 3523 
Q 1550 3584 1831 3584 
Q 2591 3584 2966 3190 
Q 3341 2797 3341 1997 
z
" transform="scale(0.015625)"/>
       <path id="DejaVuSans-6b" d="M 581 4863 
L 1159 4863 
L 1159 1991 
L 2875 3500 
L 3609 3500 
L 1753 1863 
L 3688 0 
L 2938 0 
L 1159 1709 
L 1159 0 
L 581 0 
L 581 4863 
z
" transform="scale(0.015625)"/>
       <path id="DejaVuSans-63" d="M 3122 3366 
L 3122 2828 
Q 2878 2963 2633 3030 
Q 2388 3097 2138 3097 
Q 1578 3097 1268 2742 
Q 959 2388 959 1747 
Q 959 1106 1268 751 
Q 1578 397 2138 397 
Q 2388 397 2633 464 
Q 2878 531 3122 666 
L 3122 134 
Q 2881 22 2623 -34 
Q 2366 -91 2075 -91 
Q 1284 -91 818 406 
Q 353 903 353 1747 
Q 353 2603 823 3093 
Q 1294 3584 2113 3584 
Q 2378 3584 2631 3529 
Q 2884 3475 3122 3366 
z
" transform="scale(0.015625)"/>
       <path id="DejaVuSans-64" d="M 2906 2969 
L 2906 4863 
L 3481 4863 
L 3481 0 
L 2906 0 
L 2906 525 
Q 2725 213 2448 61 
Q 2172 -91 1784 -91 
Q 1150 -91 751 415 
Q 353 922 353 1747 
Q 353 2572 751 3078 
Q 1150 3584 1784 3584 
Q 2172 3584 2448 3432 
Q 2725 3281 2906 2969 
z
M 947 1747 
Q 947 1113 1208 752 
Q 1469 391 1925 391 
Q 2381 391 2643 752 
Q 2906 1113 2906 1747 
Q 2906 2381 2643 2742 
Q 2381 3103 1925 3103 
Q 1469 3103 1208 2742 
Q 947 2381 947 1747 
z
" transform="scale(0.015625)"/>
       <path id="DejaVuSans-47" d="M 3809 666 
L 3809 1919 
L 2778 1919 
L 2778 2438 
L 4434 2438 
L 4434 434 
Q 4069 175 3628 42 
Q 3188 -91 2688 -91 
Q 1594 -91 976 548 
Q 359 1188 359 2328 
Q 359 3472 976 4111 
Q 1594 4750 2688 4750 
Q 3144 4750 3555 4637 
Q 3966 4525 4313 4306 
L 4313 3634 
Q 3963 3931 3569 4081 
Q 3175 4231 2741 4231 
Q 1884 4231 1454 3753 
Q 1025 3275 1025 2328 
Q 1025 1384 1454 906 
Q 1884 428 2741 428 
Q 3075 428 3337 486 
Q 3600 544 3809 666 
z
" transform="scale(0.015625)"/>
       <path id="DejaVuSans-46" d="M 628 4666 
L 3309 4666 
L 3309 4134 
L 1259 4134 
L 1259 2759 
L 3109 2759 
L 3109 2228 
L 1259 2228 
L 1259 0 
L 628 0 
L 628 4666 
z
" transform="scale(0.015625)"/>
       <path id="DejaVuSans-50" d="M 1259 4147 
L 1259 2394 
L 2053 2394 
Q 2494 2394 2734 2622 
Q 2975 2850 2975 3272 
Q 2975 3691 2734 3919 
Q 2494 4147 2053 4147 
L 1259 4147 
z
M 628 4666 
L 2053 4666 
Q 2838 4666 3239 4311 
Q 3641 3956 3641 3272 
Q 3641 2581 3239 2228 
Q 2838 1875 2053 1875 
L 1259 1875 
L 1259 0 
L 628 0 
L 628 4666 
z
" transform="scale(0.015625)"/>
       <path id="DejaVuSans-52" d="M 2841 2188 
Q 3044 2119 3236 1894 
Q 3428 1669 3622 1275 
L 4263 0 
L 3584 0 
L 2988 1197 
Q 2756 1666 2539 1819 
Q 2322 1972 1947 1972 
L 1259 1972 
L 1259 0 
L 628 0 
L 628 4666 
L 2053 4666 
Q 2853 4666 3247 4331 
Q 3641 3997 3641 3322 
Q 3641 2881 3436 2590 
Q 3231 2300 2841 2188 
z
M 1259 4147 
L 1259 2491 
L 2053 2491 
Q 2509 2491 2742 2702 
Q 2975 2913 2975 3322 
Q 2975 3731 2742 3939 
Q 2509 4147 2053 4147 
L 1259 4147 
z
" transform="scale(0.015625)"/>
       <path id="DejaVuSans-55" d="M 556 4666 
L 1191 4666 
L 1191 1831 
Q 1191 1081 1462 751 
Q 1734 422 2344 422 
Q 2950 422 3222 751 
Q 3494 1081 3494 1831 
L 3494 4666 
L 4128 4666 
L 4128 1753 
Q 4128 841 3676 375 
Q 3225 -91 2344 -91 
Q 1459 -91 1007 375 
Q 556 841 556 1753 
L 556 4666 
z
" transform="scale(0.015625)"/>
      </defs>
      <use xlink:href="#DejaVuSans-62"/>
      <use xlink:href="#DejaVuSans-6c" x="63.476562"/>
      <use xlink:href="#DejaVuSans-61" x="91.259766"/>
      <use xlink:href="#DejaVuSans-6e" x="152.539062"/>
      <use xlink:href="#DejaVuSans-6b" x="215.917969"/>
      <use xlink:href="#DejaVuSans-20" x="273.828125"/>
      <use xlink:href="#DejaVuSans-63" x="305.615234"/>
      <use xlink:href="#DejaVuSans-6f" x="360.595703"/>
      <use xlink:href="#DejaVuSans-72" x="421.777344"/>
      <use xlink:href="#DejaVuSans-72" x="461.140625"/>
      <use xlink:href="#DejaVuSans-65" x="500.003906"/>
      <use xlink:href="#DejaVuSans-63" x="561.527344"/>
      <use xlink:href="#DejaVuSans-74" x="616.507812"/>
      <use xlink:href="#DejaVuSans-65" x="655.716797"/>
      <use xlink:href="#DejaVuSans-64" x="717.240234"/>
      <use xlink:href="#DejaVuSans-20" x="780.716797"/>
      <use xlink:href="#DejaVuSans-47" x="812.503906"/>
      <use xlink:href="#DejaVuSans-46" x="889.994141"/>
      <use xlink:href="#DejaVuSans-50" x="947.513672"/>
      <use xlink:href="#DejaVuSans-20" x="1007.816406"/>
      <use xlink:href="#DejaVuSans-52" x="1039.603516"/>
      <use xlink:href="#DejaVuSans-46" x="1109.085938"/>
      <use xlink:href="#DejaVuSans-55" x="1166.605469"/>
     </g>
    </g>
   </g>
   <g id="line2d_33">
    <path d="M 92.290909 366.198929 
L 93.239082 367.761298 
L 94.187256 368.345672 
L 95.135429 369.132912 
L 97.031776 368.890684 
L 98.928122 368.366867 
L 99.876296 368.403201 
L 100.824469 368.048943 
L 105.565336 366.843861 
L 106.513509 366.528965 
L 107.461682 366.077816 
L 110.306202 365.202768 
L 112.202549 364.775842 
L 113.150722 364.430668 
L 114.098895 363.734263 
L 115.047069 363.646456 
L 115.995242 363.264947 
L 117.891589 362.129505 
L 118.839762 362.199146 
L 119.787935 361.590549 
L 120.736109 361.242347 
L 122.632455 359.897983 
L 123.580629 359.95854 
L 124.528802 359.225802 
L 127.373322 358.265975 
L 128.321495 357.572598 
L 130.217842 356.679384 
L 131.166015 355.904255 
L 132.114189 355.768002 
L 134.010535 354.475112 
L 134.958709 354.072409 
L 135.906882 353.288197 
L 137.803229 352.234507 
L 138.751402 351.716745 
L 139.699575 350.868948 
L 140.647749 350.275491 
L 141.595922 349.370165 
L 142.544095 348.628343 
L 143.492268 348.461811 
L 146.336788 346.863109 
L 148.233135 344.985845 
L 149.181308 344.168327 
L 150.129482 343.801957 
L 151.077655 343.199416 
L 152.025828 342.88452 
L 152.974002 341.194982 
L 153.922175 340.895226 
L 154.870348 340.210933 
L 155.818522 339.311663 
L 156.766695 338.799957 
L 158.663042 336.807634 
L 159.611215 336.607797 
L 160.559388 335.611636 
L 161.507562 334.963677 
L 163.403908 333.016772 
L 164.352082 332.586818 
L 165.300255 331.415042 
L 166.248428 330.842779 
L 167.196602 330.097929 
L 168.144775 328.632452 
L 170.041121 327.80585 
L 170.989295 326.095118 
L 171.937468 325.541022 
L 172.885641 324.393469 
L 173.833815 323.594117 
L 174.781988 323.251971 
L 175.730161 322.037805 
L 178.574681 319.391468 
L 179.522855 318.186386 
L 180.471028 317.46273 
L 181.419201 316.375734 
L 184.263721 313.762703 
L 185.211895 312.624234 
L 186.160068 311.676518 
L 187.108241 310.280681 
L 188.056415 309.335994 
L 189.004588 308.996875 
L 189.952761 307.328532 
L 190.900935 306.480735 
L 191.849108 305.387683 
L 192.797281 304.81542 
L 193.745455 303.147078 
L 195.641801 301.575626 
L 197.538148 298.647699 
L 201.330841 294.012068 
L 202.279014 293.267218 
L 203.227188 291.638237 
L 204.175361 290.769246 
L 205.123534 289.600497 
L 206.071708 287.959405 
L 207.019881 286.887548 
L 207.968054 286.209311 
L 208.916228 285.098091 
L 209.864401 283.623531 
L 210.812574 282.600119 
L 211.760748 281.05289 
L 212.708921 279.91442 
L 213.657094 278.118908 
L 214.605268 277.189359 
L 215.553441 276.47176 
L 216.501614 275.396875 
L 217.449788 273.991955 
L 218.397961 271.908797 
L 219.346134 270.994388 
L 221.242481 268.678086 
L 222.190654 267.0703 
L 223.138828 266.195253 
L 224.087001 264.502687 
L 225.035174 263.400552 
L 225.983347 261.465758 
L 226.931521 260.257648 
L 227.879694 258.649862 
L 228.827867 258.053377 
L 229.776041 255.976275 
L 232.620561 252.494253 
L 233.568734 251.567732 
L 234.516907 249.68744 
L 235.465081 248.203796 
L 236.413254 247.471057 
L 237.361427 245.648294 
L 239.257774 243.398605 
L 241.154121 240.619043 
L 242.102294 239.350376 
L 243.050467 237.267218 
L 243.998641 236.313447 
L 244.946814 234.602714 
L 245.894987 232.637643 
L 247.791334 230.306202 
L 248.739507 228.571246 
L 249.687681 227.702255 
L 250.635854 227.178437 
L 251.584027 225.494955 
L 255.37672 222.109824 
L 256.324894 221.84943 
L 257.273067 220.447537 
L 258.22124 219.793523 
L 259.169414 218.618719 
L 260.117587 218.185737 
L 261.06576 217.943509 
L 262.013934 218.0404 
L 263.91028 215.708959 
L 264.858454 215.042833 
L 265.806627 215.10339 
L 266.7548 213.759027 
L 267.702974 213.931614 
L 268.651147 213.214015 
L 269.59932 213.30485 
L 270.547494 212.675058 
L 271.495667 211.469976 
L 272.44384 211.630451 
L 273.392014 210.510149 
L 274.340187 211.0703 
L 275.28836 209.392874 
L 276.236534 209.141563 
L 277.184707 208.402768 
L 278.13288 208.617745 
L 279.081054 207.385412 
L 280.029227 207.821422 
L 280.9774 205.138751 
L 281.925573 205.641373 
L 282.873747 205.52026 
L 283.82192 204.472625 
L 285.718267 203.618773 
L 286.66644 203.013204 
L 287.614613 202.964758 
L 288.562787 202.065488 
L 289.51096 202.110906 
L 290.459133 201.877762 
L 292.35548 200.094361 
L 293.303653 199.522098 
L 294.251827 199.918746 
L 296.148173 198.117178 
L 297.096347 197.575193 
L 298.04452 196.509392 
L 298.992693 196.839427 
L 299.940867 196.070354 
L 301.837213 194.032614 
L 302.785387 193.814609 
L 303.73356 193.081871 
L 304.681733 192.863866 
L 305.629907 191.634561 
L 306.57808 190.608121 
L 307.526253 189.869327 
L 308.474427 188.6703 
L 309.4226 187.129127 
L 310.370773 187.113988 
L 311.318946 185.566759 
L 312.26712 185.257918 
L 313.215293 184.125504 
L 314.163466 183.650132 
L 315.11164 182.127126 
L 316.059813 181.079492 
L 317.007986 179.707878 
L 318.904333 178.857053 
L 319.852506 177.346158 
L 320.80068 176.189521 
L 321.748853 175.535507 
L 322.697026 173.903498 
L 324.593373 171.520584 
L 325.541546 170.10658 
L 326.48972 169.131614 
L 327.437893 168.731938 
L 328.386066 166.022017 
L 329.33424 164.644347 
L 330.282413 163.054728 
L 331.230586 162.488521 
L 333.126933 159.124585 
L 334.075106 157.035372 
L 335.971453 154.45262 
L 337.867799 150.355945 
L 338.815973 147.633912 
L 340.712319 143.585683 
L 341.660493 142.323071 
L 342.608666 139.943185 
L 343.556839 138.023531 
L 344.505013 135.253052 
L 345.453186 133.56957 
L 346.401359 131.380438 
L 347.349533 128.343509 
L 348.297706 128.113393 
L 350.194053 123.171949 
L 351.142226 120.02299 
L 352.090399 117.794496 
L 353.038573 116.156431 
L 353.986746 112.374653 
L 354.934919 110.573085 
L 355.883093 108.150808 
L 356.831266 104.484088 
L 357.779439 102.20412 
L 358.727613 98.56465 
L 361.572133 91.049538 
L 362.520306 87.437318 
L 363.468479 85.372328 
L 365.364826 79.84651 
L 366.312999 78.190278 
L 367.261172 76.879221 
L 368.209346 73.539508 
L 370.105692 69.800119 
L 371.053866 68.622287 
L 372.002039 66.96 
L 372.950212 67.229478 
L 373.898386 67.347564 
L 374.846559 69.987845 
L 375.794732 72.189089 
L 376.742906 75.253268 
L 378.639252 84.406445 
L 379.587426 90.692252 
L 381.483772 98.78871 
L 382.431946 100.68717 
L 383.380119 103.545456 
L 385.276466 107.68452 
L 386.224639 108.874463 
L 387.172812 108.629208 
L 388.120986 110.291495 
L 390.017332 111.342157 
L 390.965506 111.484466 
L 391.913679 113.143725 
L 392.861852 113.367786 
L 393.810025 113.903715 
L 394.758199 115.714366 
L 395.706372 115.817313 
L 396.654545 116.268462 
L 397.602719 116.056513 
L 398.550892 117.700633 
L 399.499065 116.989089 
L 400.447239 119.256945 
L 402.343585 119.677816 
L 403.291759 121.491495 
L 404.239932 122.01834 
L 406.136279 123.447483 
L 407.084452 124.473923 
L 408.032625 124.797902 
L 408.980799 125.830397 
L 409.928972 126.475328 
L 410.877145 126.039319 
L 411.825319 128.6796 
L 412.773492 128.852187 
L 414.669839 131.113988 
L 415.618012 131.501552 
L 416.566185 133.409094 
L 417.514359 133.9208 
L 418.462532 133.926856 
L 419.410705 136.418773 
L 421.307052 137.142428 
L 422.255225 137.654134 
L 423.203398 138.850132 
L 425.099745 140.406445 
L 426.047918 140.152106 
L 426.996092 141.426829 
L 427.944265 142.18379 
L 428.892438 143.776437 
L 429.840612 144.445591 
L 430.788785 144.933074 
L 431.736958 146.619584 
L 432.685132 146.628667 
L 433.633305 148.817799 
L 434.581478 149.50512 
L 435.529652 150.849484 
L 436.477825 153.017421 
L 437.425998 153.683547 
L 438.374172 154.010554 
L 440.270518 157.132263 
L 441.218692 158.301011 
L 442.166865 158.818773 
L 443.115038 159.548483 
L 445.959558 164.07814 
L 446.907732 165.449754 
L 447.855905 166.028072 
L 448.804078 168.268678 
L 449.752251 168.320151 
L 450.700425 170.342752 
L 451.648598 171.263217 
L 452.596771 172.822557 
L 453.544945 172.961838 
L 454.493118 174.727072 
L 455.441291 175.34778 
L 456.389465 176.898037 
L 457.337638 177.997145 
L 459.233985 179.181033 
L 460.182158 181.355026 
L 461.130331 181.2218 
L 462.078505 183.683439 
L 463.026678 184.282952 
L 463.974851 186.220773 
L 464.923025 185.948267 
L 465.871198 187.289603 
L 466.819371 187.495496 
L 467.767545 189.614988 
L 468.715718 190.541509 
L 469.663891 191.976707 
L 471.560238 194.120422 
L 472.508411 195.652511 
L 473.456585 196.388278 
L 475.352931 199.727991 
L 476.301105 200.618178 
L 477.249278 202.549943 
L 478.197451 204.163785 
L 479.145624 205.138751 
L 480.093798 206.928208 
L 481.041971 208.336156 
L 481.990144 210.161946 
L 482.938318 212.920314 
L 483.886491 213.683331 
L 484.834664 215.339562 
L 485.782838 216.599146 
L 487.679184 219.884358 
L 488.627358 221.240833 
L 489.575531 223.869002 
L 490.523704 224.365569 
L 492.420051 228.098902 
L 495.264571 232.077491 
L 496.212744 233.243212 
L 497.160918 234.036507 
L 498.109091 235.26884 
L 498.109091 235.26884 
" clip-path="url(#p6d08c1e50f)" style="fill: none; stroke: #008000; stroke-width: 1.5; stroke-linecap: square"/>
   </g>
   <g id="line2d_34">
    <path d="M 92.290909 365.750808 
L 93.239082 368.53037 
L 94.187256 368.609094 
L 95.135429 368.887656 
L 96.083602 369.320638 
L 97.031776 368.884628 
L 97.979949 368.772598 
L 98.928122 368.54551 
L 99.876296 368.593955 
L 100.824469 368.248781 
L 104.617162 367.843049 
L 106.513509 367.052782 
L 107.461682 366.974058 
L 110.306202 366.065704 
L 111.254376 365.475274 
L 112.202549 365.127072 
L 113.150722 364.93329 
L 114.098895 364.585088 
L 115.047069 364.058243 
L 116.943415 363.422395 
L 117.891589 362.850132 
L 118.839762 362.65635 
L 121.684282 361.281709 
L 123.580629 360.494469 
L 124.528802 360.364271 
L 126.425149 359.601254 
L 127.373322 358.768597 
L 128.321495 358.217529 
L 129.269669 358.126694 
L 130.217842 357.421206 
L 132.114189 356.606715 
L 133.062362 355.640833 
L 134.010535 355.347132 
L 134.958709 354.883871 
L 135.906882 354.036075 
L 136.855055 353.942211 
L 137.803229 353.003579 
L 138.751402 352.258729 
L 139.699575 351.771246 
L 140.647749 350.962812 
L 141.595922 350.914366 
L 142.544095 349.98179 
L 143.492268 349.706256 
L 144.440442 348.734317 
L 145.388615 348.204444 
L 146.336788 347.511068 
L 147.284962 346.56638 
L 149.181308 345.194766 
L 150.129482 344.10777 
L 151.077655 343.883709 
L 152.025828 343.03894 
L 152.974002 343.141887 
L 153.922175 343.375031 
L 154.870348 342.914799 
L 157.714868 341.070841 
L 158.663042 339.823368 
L 159.611215 338.306418 
L 161.507562 335.663109 
L 162.455735 335.187737 
L 163.403908 334.448943 
L 164.352082 333.873652 
L 166.248428 332.111446 
L 167.196602 331.708743 
L 168.144775 331.000227 
L 169.092948 329.631641 
L 170.041121 329.065434 
L 170.989295 328.205526 
L 171.937468 327.987521 
L 172.885641 327.279005 
L 173.833815 327.366813 
L 174.781988 326.988332 
L 175.730161 327.166975 
L 176.678335 326.410014 
L 177.626508 326.185953 
L 178.574681 324.99601 
L 179.522855 323.554755 
L 180.471028 321.262676 
L 181.419201 319.830506 
L 182.367375 317.338589 
L 183.315548 316.412068 
L 185.211895 314.201741 
L 186.160068 312.936102 
L 187.108241 312.385034 
L 188.056415 311.373733 
L 189.004588 310.020287 
L 191.849108 306.862244 
L 192.797281 305.514853 
L 193.745455 304.906256 
L 194.693628 303.785953 
L 195.641801 304.125072 
L 196.589975 304.709446 
L 197.538148 305.545131 
L 198.486321 305.675328 
L 199.434494 305.009202 
L 200.382668 304.203796 
L 201.330841 304.252241 
L 202.279014 303.022936 
L 203.227188 302.054025 
L 204.175361 301.284953 
L 207.019881 295.089981 
L 207.968054 291.262785 
L 209.864401 286.439427 
L 210.812574 285.219205 
L 212.708921 281.967299 
L 215.553441 279.251322 
L 216.501614 277.716204 
L 217.449788 276.786656 
L 218.397961 274.972976 
L 219.346134 274.285656 
L 220.294308 273.307662 
L 221.242481 273.988927 
L 222.190654 274.415853 
L 223.138828 274.231154 
L 224.087001 274.664136 
L 225.035174 275.820773 
L 225.983347 274.688359 
L 226.931521 273.331884 
L 227.879694 271.587845 
L 228.827867 270.16173 
L 229.776041 266.76146 
L 230.724214 262.564866 
L 232.620561 255.879384 
L 235.465081 250.998497 
L 236.413254 250.302092 
L 237.361427 248.488413 
L 240.205947 244.842887 
L 241.154121 243.192712 
L 243.050467 240.924855 
L 243.998641 242.805147 
L 244.946814 243.780114 
L 245.894987 245.460568 
L 246.843161 245.275869 
L 247.791334 245.545347 
L 248.739507 244.070787 
L 249.687681 243.928478 
L 250.635854 242.360054 
L 251.584027 240.39801 
L 253.480374 232.994928 
L 254.428547 231.178221 
L 255.37672 227.874842 
L 257.273067 222.59428 
L 258.22124 222.15827 
L 259.169414 221.352863 
L 261.06576 219.130424 
L 262.013934 219.360541 
L 262.962107 218.234182 
L 263.91028 216.907986 
L 264.858454 216.965515 
L 265.806627 216.260027 
L 266.7548 215.272949 
L 267.702974 214.909608 
L 268.651147 214.285872 
L 269.59932 213.868029 
L 270.547494 213.210987 
L 271.495667 212.302633 
L 272.44384 212.160324 
L 273.392014 211.248943 
L 274.340187 211.466948 
L 275.28836 210.122584 
L 277.184707 212.905174 
L 280.029227 221.222666 
L 280.9774 222.052295 
L 281.925573 222.715393 
L 282.873747 221.985683 
L 283.82192 221.994766 
L 285.718267 219.957026 
L 286.66644 217.465109 
L 287.614613 214.173842 
L 288.562787 210.407202 
L 289.51096 208.705553 
L 290.459133 205.605039 
L 291.407307 203.040454 
L 292.35548 203.001092 
L 293.303653 201.868678 
L 295.2 200.990603 
L 296.148173 199.958108 
L 297.096347 200.064082 
L 298.04452 199.467597 
L 298.992693 199.942968 
L 299.940867 197.67814 
L 301.837213 197.968813 
L 302.785387 196.542698 
L 303.73356 196.73648 
L 306.57808 194.517069 
L 307.526253 193.850943 
L 308.474427 196.433696 
L 309.4226 199.685602 
L 310.370773 202.280465 
L 312.26712 205.605039 
L 313.215293 206.843428 
L 314.163466 207.379357 
L 316.059813 205.105445 
L 317.007986 203.991198 
L 317.95616 202.69528 
L 318.904333 199.903606 
L 319.852506 196.276248 
L 320.80068 192.055431 
L 321.748853 186.550808 
L 322.697026 183.238345 
L 324.593373 178.629965 
L 325.541546 177.340103 
L 326.48972 175.611203 
L 327.437893 175.738373 
L 329.33424 172.955783 
L 330.282413 171.569029 
L 332.17876 169.676626 
L 333.126933 168.341346 
L 334.075106 166.061379 
L 335.02328 165.464893 
L 335.971453 166.358108 
L 336.919626 170.521395 
L 337.867799 173.01634 
L 338.815973 173.879275 
L 339.764146 174.999578 
L 340.712319 175.635426 
L 341.660493 174.37887 
L 343.556839 169.933993 
L 344.505013 167.67522 
L 345.453186 161.035155 
L 346.401359 152.003093 
L 347.349533 144.715069 
L 349.245879 140.015853 
L 350.194053 137.539075 
L 351.142226 135.813204 
L 352.090399 133.518097 
L 353.038573 131.719557 
L 353.986746 129.66365 
L 354.934919 130.151133 
L 355.883093 134.420395 
L 356.831266 136.433912 
L 357.779439 138.950051 
L 358.727613 138.023531 
L 359.675786 138.444401 
L 360.623959 134.732263 
L 361.572133 134.235696 
L 362.520306 132.903444 
L 363.468479 130.278302 
L 364.416653 128.522152 
L 366.312999 120.480195 
L 367.261172 116.925504 
L 368.209346 111.378491 
L 369.157519 107.281817 
L 371.053866 100.968759 
L 372.950212 91.827694 
L 374.846559 83.825099 
L 375.794732 82.589738 
L 376.742906 80.763947 
L 377.691079 78.371949 
L 378.639252 76.297875 
L 379.587426 75.85581 
L 380.535599 77.230451 
L 381.483772 76.612771 
L 383.380119 82.992441 
L 384.328292 87.12545 
L 385.276466 93.508148 
L 387.172812 113.458621 
L 389.069159 128.503985 
L 390.017332 132.918583 
L 390.965506 136.013041 
L 391.913679 138.523125 
L 392.861852 139.876572 
L 393.810025 139.098416 
L 394.758199 140.457918 
L 395.706372 140.121828 
L 396.654545 138.03867 
L 397.602719 134.499119 
L 398.550892 132.621855 
L 399.499065 128.234507 
L 401.395412 122.599686 
L 403.291759 120.095658 
L 404.239932 119.526423 
L 405.188105 119.747456 
L 406.136279 121.040346 
L 407.084452 121.31588 
L 409.928972 123.020557 
L 410.877145 123.332425 
L 411.825319 125.091603 
L 412.773492 124.458783 
L 413.721665 127.27468 
L 414.669839 126.496523 
L 415.618012 127.093009 
L 416.566185 128.276896 
L 417.514359 128.025585 
L 419.410705 130.145077 
L 421.307052 135.083493 
L 422.255225 141.069543 
L 423.203398 145.571949 
L 424.151572 151.061433 
L 425.099745 152.811527 
L 426.047918 155.058189 
L 426.996092 156.605418 
L 427.944265 156.396496 
L 428.892438 157.307878 
L 429.840612 155.951403 
L 431.736958 152.033371 
L 433.633305 144.730208 
L 435.529652 141.24213 
L 436.477825 141.372328 
L 437.425998 143.304093 
L 439.322345 144.330533 
L 440.270518 144.385034 
L 441.218692 145.257053 
L 442.166865 147.588494 
L 443.115038 146.982925 
L 444.063212 148.581627 
L 445.011385 149.720097 
L 445.959558 149.989576 
L 446.907732 151.230992 
L 447.855905 151.330911 
L 448.804078 153.744104 
L 449.752251 152.757026 
L 450.700425 154.131668 
L 451.648598 155.091495 
L 452.596771 155.691008 
L 453.544945 156.47522 
L 455.441291 166.321773 
L 456.389465 171.317718 
L 457.337638 175.502201 
L 458.285811 178.560324 
L 460.182158 182.199795 
L 461.130331 182.738751 
L 462.078505 183.710689 
L 463.974851 183.638021 
L 464.923025 181.188494 
L 465.871198 180.319503 
L 466.819371 177.891171 
L 467.767545 176.322747 
L 468.715718 173.431154 
L 469.663891 171.381303 
L 470.612065 171.214772 
L 471.560238 170.236778 
L 472.508411 170.842347 
L 473.456585 171.099713 
L 474.404758 171.768867 
L 475.352931 173.888359 
L 476.301105 172.683277 
L 478.197451 176.680032 
L 480.093798 176.016934 
L 481.041971 179.056891 
L 481.990144 178.154593 
L 482.938318 179.514096 
L 483.886491 180.358865 
L 484.834664 180.88571 
L 485.782838 181.845537 
L 486.731011 181.791035 
L 487.679184 183.202011 
L 488.627358 183.638021 
L 489.575531 185.77568 
L 490.523704 185.966434 
L 491.471878 190.444617 
L 494.316398 199.291982 
L 495.264571 200.600011 
L 496.212744 200.972436 
L 497.160918 202.086683 
L 498.109091 201.287332 
L 498.109091 201.287332 
" clip-path="url(#p6d08c1e50f)" style="fill: none; stroke: #008000; stroke-width: 1.5; stroke-linecap: square"/>
   </g>
   <g id="line2d_35">
    <path d="M 92.290909 367.028559 
L 93.239082 368.581844 
L 94.187256 368.609094 
L 95.135429 369.287332 
L 96.083602 369.36 
L 97.031776 369.29036 
L 97.979949 369.102633 
L 98.928122 369.145023 
L 99.876296 368.848294 
L 102.720816 368.415312 
L 104.617162 367.873328 
L 105.565336 367.909662 
L 106.513509 367.198118 
L 107.461682 367.152701 
L 108.409856 366.459324 
L 111.254376 365.681168 
L 112.202549 365.248186 
L 113.150722 365.008986 
L 114.098895 364.415529 
L 115.047069 364.388278 
L 115.995242 363.828127 
L 116.943415 363.452674 
L 118.839762 362.423206 
L 121.684282 361.042509 
L 122.632455 360.482357 
L 125.476975 359.331776 
L 126.425149 359.486196 
L 127.373322 358.789792 
L 128.321495 358.499119 
L 129.269669 357.139616 
L 131.166015 356.497713 
L 133.062362 355.53183 
L 134.010535 355.177572 
L 134.958709 354.626504 
L 135.906882 353.624288 
L 136.855055 352.952106 
L 137.803229 352.87641 
L 138.751402 352.376815 
L 140.647749 351.141454 
L 141.595922 350.814447 
L 142.544095 349.666894 
L 144.440442 348.728262 
L 145.388615 348.019746 
L 146.336788 347.726045 
L 148.233135 346.290846 
L 150.129482 345.206878 
L 151.077655 344.162271 
L 152.974002 343.665704 
L 153.922175 343.732317 
L 154.870348 343.55973 
L 156.766695 342.303174 
L 157.714868 341.839913 
L 158.663042 340.77714 
L 160.559388 336.850024 
L 161.507562 336.332263 
L 162.455735 335.581357 
L 163.403908 335.193793 
L 164.352082 334.170381 
L 167.196602 331.926748 
L 169.092948 330.122152 
L 170.041121 329.304634 
L 170.989295 328.317556 
L 171.937468 328.393252 
L 172.885641 327.469759 
L 174.781988 327.269922 
L 175.730161 327.345618 
L 176.678335 326.967137 
L 177.626508 326.128424 
L 178.574681 325.02326 
L 179.522855 324.117935 
L 181.419201 318.864623 
L 182.367375 318.031965 
L 183.315548 316.872301 
L 184.263721 316.390873 
L 185.211895 315.094955 
L 186.160068 314.310743 
L 187.108241 313.305499 
L 188.056415 312.8816 
L 189.004588 311.458513 
L 189.952761 310.828721 
L 190.900935 310.056621 
L 191.849108 308.14605 
L 192.797281 307.588927 
L 194.693628 305.090954 
L 195.641801 305.769192 
L 196.589975 306.041698 
L 197.538148 306.765353 
L 198.486321 306.429262 
L 199.434494 306.398984 
L 200.382668 304.924423 
L 201.330841 304.927451 
L 202.279014 303.316637 
L 203.227188 302.3992 
L 204.175361 301.154755 
L 205.123534 300.140427 
L 207.019881 294.647916 
L 207.968054 290.281763 
L 208.916228 287.93821 
L 209.864401 286.400065 
L 210.812574 285.131398 
L 211.760748 284.107986 
L 212.708921 282.666732 
L 213.657094 282.203471 
L 214.605268 280.61688 
L 215.553441 279.590441 
L 216.501614 277.976599 
L 217.449788 277.537562 
L 219.346134 274.733777 
L 221.242481 274.764055 
L 222.190654 275.118313 
L 223.138828 274.458243 
L 224.087001 275.64213 
L 225.035174 276.323396 
L 226.931521 274.079762 
L 227.879694 272.387197 
L 228.827867 271.336534 
L 229.776041 268.638724 
L 231.672387 257.584061 
L 234.516907 254.026342 
L 236.413254 252.1188 
L 237.361427 250.202174 
L 238.309601 247.991846 
L 239.257774 248.010014 
L 240.205947 246.211473 
L 242.102294 243.719557 
L 243.050467 243.13821 
L 244.946814 245.757297 
L 245.894987 246.656567 
L 246.843161 246.70804 
L 247.791334 246.181195 
L 248.739507 245.060892 
L 249.687681 245.136588 
L 251.584027 242.214717 
L 253.480374 235.374815 
L 254.428547 232.513501 
L 255.37672 227.145131 
L 256.324894 224.946915 
L 257.273067 223.71761 
L 258.22124 223.750916 
L 259.169414 222.315718 
L 261.06576 221.673815 
L 262.013934 220.444509 
L 263.91028 219.666353 
L 264.858454 217.725504 
L 265.806627 217.419692 
L 266.7548 216.844401 
L 269.59932 215.487926 
L 270.547494 214.043644 
L 271.495667 214.500849 
L 272.44384 214.391846 
L 273.392014 213.23521 
L 274.340187 212.438886 
L 275.28836 212.290522 
L 276.236534 214.09209 
L 277.184707 213.85289 
L 278.13288 217.510527 
L 280.029227 221.555729 
L 280.9774 222.076518 
L 281.925573 222.827424 
L 283.82192 220.647375 
L 284.770093 220.717015 
L 285.718267 220.659486 
L 286.66644 218.555134 
L 287.614613 213.668191 
L 288.562787 206.661757 
L 289.51096 205.741292 
L 290.459133 205.1115 
L 291.407307 204.884412 
L 292.35548 203.776221 
L 293.303653 203.494631 
L 294.251827 203.909446 
L 295.2 202.925396 
L 296.148173 201.717286 
L 297.096347 202.431857 
L 298.04452 200.666623 
L 298.992693 200.766542 
L 300.88904 199.367678 
L 301.837213 199.143617 
L 302.785387 198.756053 
L 303.73356 197.520692 
L 304.681733 197.871922 
L 305.629907 196.893928 
L 306.57808 195.700957 
L 307.526253 195.025747 
L 308.474427 198.008175 
L 310.370773 201.998875 
L 311.318946 204.799632 
L 312.26712 205.938102 
L 313.215293 206.828289 
L 314.163466 206.352917 
L 315.11164 205.662568 
L 316.059813 205.159946 
L 317.95616 202.032182 
L 318.904333 198.943779 
L 320.80068 186.251052 
L 321.748853 182.632776 
L 322.697026 182.405688 
L 323.6452 181.037102 
L 324.593373 180.155999 
L 325.541546 180.258946 
L 326.48972 178.772274 
L 327.437893 177.873004 
L 329.33424 174.566596 
L 330.282413 173.612825 
L 331.230586 172.011095 
L 332.17876 171.114853 
L 333.126933 171.00585 
L 334.075106 168.177843 
L 335.02328 167.257378 
L 335.971453 169.065001 
L 336.919626 172.547024 
L 337.867799 174.42126 
L 339.764146 177.019151 
L 340.712319 176.404499 
L 341.660493 175.287224 
L 342.608666 173.270679 
L 343.556839 170.796929 
L 344.505013 164.23256 
L 345.453186 153.919719 
L 346.401359 148.545293 
L 347.349533 146.244131 
L 348.297706 145.432668 
L 349.245879 143.939941 
L 350.194053 141.027153 
L 351.142226 139.576815 
L 353.038573 135.295442 
L 353.986746 132.061703 
L 354.934919 131.198767 
L 355.883093 135.882844 
L 356.831266 139.249808 
L 357.779439 141.290576 
L 358.727613 140.69409 
L 359.675786 140.503336 
L 360.623959 137.56027 
L 361.572133 136.343077 
L 362.520306 132.521936 
L 363.468479 131.607526 
L 364.416653 129.784763 
L 365.364826 126.054458 
L 367.261172 115.114853 
L 368.209346 106.34924 
L 369.157519 98.970381 
L 370.105692 94.216664 
L 371.053866 90.03521 
L 372.002039 86.668245 
L 372.950212 83.791792 
L 373.898386 81.551187 
L 374.846559 79.946429 
L 375.794732 79.007797 
L 376.742906 76.821692 
L 377.691079 74.272247 
L 378.639252 73.73329 
L 380.535599 73.917989 
L 381.483772 74.623477 
L 382.431946 75.568164 
L 383.380119 77.518097 
L 384.328292 80.582276 
L 385.276466 87.80066 
L 386.224639 96.968975 
L 388.120986 116.737778 
L 389.069159 123.35362 
L 390.017332 129.033858 
L 390.965506 132.78233 
L 391.913679 135.53767 
L 392.861852 136.46419 
L 393.810025 138.244563 
L 394.758199 139.216502 
L 395.706372 139.216502 
L 396.654545 138.177951 
L 398.550892 131.958756 
L 399.499065 122.32718 
L 400.447239 116.035318 
L 401.395412 116.789251 
L 402.343585 117.249484 
L 404.239932 118.487872 
L 405.188105 118.073058 
L 406.136279 119.054079 
L 407.084452 119.762595 
L 408.032625 119.577897 
L 408.980799 120.57103 
L 411.825319 122.333236 
L 413.721665 124.237751 
L 415.618012 125.324747 
L 416.566185 126.299713 
L 417.514359 126.20585 
L 418.462532 126.965839 
L 419.410705 127.925666 
L 420.358879 129.575842 
L 421.307052 130.123882 
L 422.255225 137.254458 
L 424.151572 148.481709 
L 425.099745 148.960108 
L 426.047918 150.486142 
L 426.996092 151.355134 
L 427.944265 152.826667 
L 428.892438 153.302038 
L 429.840612 150.256026 
L 430.788785 145.229803 
L 431.736958 140.869705 
L 432.685132 135.177356 
L 433.633305 135.664839 
L 434.581478 137.872138 
L 435.529652 137.372544 
L 436.477825 137.863055 
L 437.425998 138.756269 
L 438.374172 140.152106 
L 439.322345 141.339021 
L 442.166865 141.596388 
L 443.115038 142.559243 
L 444.063212 143.991414 
L 445.011385 144.058026 
L 445.959558 146.010987 
L 446.907732 145.935291 
L 447.855905 146.595361 
L 448.804078 148.133506 
L 449.752251 148.820827 
L 450.700425 148.645212 
L 451.648598 149.929019 
L 452.596771 150.570922 
L 453.544945 151.000876 
L 454.493118 155.230776 
L 455.441291 161.110852 
L 456.389465 165.76465 
L 457.337638 169.310257 
L 459.233985 174.239589 
L 460.182158 174.784601 
L 461.130331 175.580925 
L 462.078505 177.212933 
L 463.026678 175.526423 
L 463.974851 175.620287 
L 464.923025 170.969516 
L 465.871198 168.638075 
L 466.819371 164.12053 
L 467.767545 161.446942 
L 469.663891 160.868624 
L 470.612065 162.182709 
L 471.560238 162.652025 
L 472.508411 162.670192 
L 473.456585 163.303012 
L 474.404758 163.502849 
L 475.352931 165.037967 
L 476.301105 165.710149 
L 477.249278 166.830451 
L 478.197451 166.576112 
L 480.093798 168.271706 
L 481.041971 168.513933 
L 481.990144 168.998389 
L 482.938318 169.912798 
L 483.886491 169.824991 
L 484.834664 170.736372 
L 485.782838 171.962649 
L 486.731011 172.316907 
L 487.679184 173.612825 
L 488.627358 173.39482 
L 489.575531 174.354647 
L 490.523704 174.045807 
L 491.471878 178.372598 
L 492.420051 181.19455 
L 495.264571 187.861865 
L 496.212744 187.889116 
L 497.160918 187.380438 
L 498.109091 185.197361 
L 498.109091 185.197361 
" clip-path="url(#p6d08c1e50f)" style="fill: none; stroke: #008000; stroke-width: 1.5; stroke-linecap: square"/>
   </g>
   <g id="line2d_36">
    <path d="M 92.290909 366.768164 
L 93.239082 368.291171 
L 94.187256 368.487981 
L 95.135429 369.036021 
L 96.083602 369.326694 
L 97.031776 368.996659 
L 97.979949 368.951241 
L 98.928122 368.702958 
L 99.876296 368.814988 
L 100.824469 368.412284 
L 101.772642 368.506148 
L 103.668989 368.403201 
L 104.617162 368.073166 
L 105.565336 367.864244 
L 107.461682 367.058838 
L 108.409856 366.880195 
L 109.358029 366.320043 
L 110.306202 366.02937 
L 111.254376 365.478302 
L 112.202549 365.578221 
L 113.150722 364.969624 
L 114.098895 364.612338 
L 115.047069 364.521503 
L 115.995242 364.067326 
L 116.943415 363.791792 
L 117.891589 363.131722 
L 118.839762 363.152917 
L 119.787935 362.701768 
L 120.736109 362.044726 
L 121.684282 362.199146 
L 122.632455 361.442184 
L 127.373322 359.392333 
L 128.321495 358.450673 
L 129.269669 358.335615 
L 133.062362 356.261541 
L 134.010535 355.338048 
L 134.958709 354.95654 
L 135.906882 354.193523 
L 136.855055 353.808986 
L 137.803229 353.248835 
L 140.647749 351.008229 
L 143.492268 349.130965 
L 144.440442 348.888737 
L 146.336788 347.735128 
L 147.284962 347.099281 
L 148.233135 346.133398 
L 149.181308 345.800335 
L 150.129482 345.267434 
L 151.077655 344.916204 
L 152.025828 344.083547 
L 152.974002 343.635426 
L 153.922175 343.765623 
L 154.870348 343.487061 
L 155.818522 342.545401 
L 156.766695 341.800552 
L 158.663042 339.974761 
L 159.611215 338.539562 
L 160.559388 338.121719 
L 161.507562 337.564596 
L 163.403908 336.226288 
L 164.352082 335.644942 
L 165.300255 334.642725 
L 167.196602 333.595091 
L 168.144775 332.502038 
L 169.092948 331.130424 
L 171.937468 329.392441 
L 172.885641 328.223693 
L 173.833815 327.730154 
L 174.781988 328.378113 
L 175.730161 327.914853 
L 176.678335 327.024666 
L 177.626508 325.822612 
L 180.471028 321.090089 
L 181.419201 319.903174 
L 184.263721 317.166002 
L 185.211895 316.018448 
L 186.160068 315.639968 
L 187.108241 314.21688 
L 188.056415 313.060243 
L 189.004588 312.242725 
L 189.952761 311.186007 
L 190.900935 310.680357 
L 191.849108 308.909067 
L 192.797281 308.276248 
L 193.745455 307.162001 
L 194.693628 305.869111 
L 195.641801 305.554215 
L 196.589975 305.847916 
L 197.538148 306.580654 
L 198.486321 306.674517 
L 199.434494 305.684412 
L 200.382668 304.449051 
L 201.330841 303.967624 
L 203.227188 301.869327 
L 204.175361 299.080681 
L 206.071708 292.697983 
L 207.019881 291.780546 
L 208.916228 289.594442 
L 210.812574 287.387142 
L 211.760748 286.063974 
L 212.708921 285.073869 
L 213.657094 284.274517 
L 214.605268 283.042184 
L 215.553441 281.183087 
L 216.501614 280.256567 
L 217.449788 279.000011 
L 218.397961 278.00385 
L 219.346134 277.271111 
L 220.294308 275.184926 
L 221.242481 275.396875 
L 222.190654 275.015366 
L 223.138828 275.09409 
L 224.087001 275.735994 
L 225.035174 276.620124 
L 225.983347 275.018394 
L 226.931521 274.052511 
L 227.879694 271.130641 
L 228.827867 267.236832 
L 229.776041 262.828289 
L 230.724214 260.778437 
L 231.672387 260.172868 
L 233.568734 256.848294 
L 234.516907 255.797632 
L 235.465081 255.080032 
L 237.361427 252.073382 
L 238.309601 251.125666 
L 239.257774 249.751025 
L 240.205947 248.879005 
L 241.154121 246.574815 
L 242.102294 244.930695 
L 243.050467 243.916367 
L 243.998641 243.895172 
L 244.946814 245.751241 
L 245.894987 245.642238 
L 246.843161 245.251646 
L 247.791334 245.109338 
L 249.687681 242.865704 
L 251.584027 235.70485 
L 252.532201 230.145726 
L 255.37672 226.863541 
L 256.324894 226.073274 
L 257.273067 224.96811 
L 258.22124 224.096091 
L 259.169414 223.460243 
L 260.117587 222.191576 
L 261.06576 221.231749 
L 262.013934 221.210554 
L 262.962107 220.393036 
L 263.91028 218.467326 
L 264.858454 217.952593 
L 265.806627 217.147186 
L 266.7548 216.674842 
L 267.702974 215.472787 
L 268.651147 215.173031 
L 269.59932 213.925558 
L 270.547494 214.282844 
L 271.495667 213.026288 
L 273.392014 212.263271 
L 274.340187 212.345023 
L 275.28836 211.121773 
L 276.236534 211.563839 
L 277.184707 212.811311 
L 278.13288 216.072301 
L 279.081054 218.297767 
L 280.029227 219.433209 
L 280.9774 219.848024 
L 281.925573 219.342374 
L 282.873747 218.972976 
L 283.82192 217.465109 
L 284.770093 215.21542 
L 285.718267 213.713609 
L 286.66644 206.304471 
L 287.614613 203.942752 
L 288.562787 202.973842 
L 291.407307 202.552971 
L 292.35548 201.802065 
L 293.303653 200.875545 
L 294.251827 200.291171 
L 295.2 200.999686 
L 296.148173 199.267759 
L 297.096347 198.192874 
L 298.04452 198.544104 
L 298.992693 198.749997 
L 299.940867 197.890089 
L 300.88904 197.290576 
L 301.837213 196.382222 
L 302.785387 196.152106 
L 303.73356 195.280087 
L 305.629907 195.140806 
L 306.57808 192.960757 
L 307.526253 193.151511 
L 308.474427 195.198335 
L 309.4226 196.69409 
L 310.370773 197.684196 
L 311.318946 200.312366 
L 312.26712 200.148862 
L 313.215293 201.853539 
L 314.163466 201.284304 
L 315.11164 199.140589 
L 316.059813 196.678951 
L 317.007986 190.747402 
L 317.95616 184.037697 
L 318.904333 183.925666 
L 319.852506 182.551025 
L 320.80068 181.627532 
L 321.748853 181.884899 
L 322.697026 180.952322 
L 323.6452 179.362703 
L 324.593373 178.775301 
L 326.48972 176.016934 
L 327.437893 175.502201 
L 331.230586 170.878681 
L 332.17876 169.588819 
L 333.126933 169.022612 
L 334.075106 167.657053 
L 335.02328 166.497388 
L 335.971453 165.159081 
L 336.919626 169.364758 
L 337.867799 170.666732 
L 338.815973 169.752322 
L 339.764146 170.639481 
L 340.712319 170.409365 
L 341.660493 169.322368 
L 342.608666 164.835101 
L 343.556839 155.248943 
L 344.505013 150.991792 
L 345.453186 149.932046 
L 346.401359 147.076788 
L 347.349533 146.634723 
L 349.245879 143.370706 
L 350.194053 140.518475 
L 351.142226 139.72518 
L 352.090399 137.227207 
L 353.986746 133.121449 
L 354.934919 131.325937 
L 355.883093 136.391522 
L 356.831266 138.129505 
L 357.779439 140.439751 
L 358.727613 138.604877 
L 359.675786 137.287764 
L 361.572133 131.746807 
L 362.520306 127.510852 
L 363.468479 120.758756 
L 364.416653 111.750916 
L 365.364826 105.004877 
L 367.261172 101.008121 
L 368.209346 97.247537 
L 369.157519 94.916096 
L 370.105692 91.794388 
L 371.053866 90.743725 
L 372.002039 85.865866 
L 372.950212 84.869705 
L 373.898386 83.534426 
L 374.846559 79.840454 
L 375.794732 78.592982 
L 376.742906 76.007202 
L 377.691079 74.602282 
L 378.639252 72.016502 
L 379.587426 71.607743 
L 380.535599 72.125504 
L 381.483772 69.89701 
L 382.431946 70.139238 
L 383.380119 71.562325 
L 384.328292 73.660622 
L 385.276466 78.03283 
L 386.224639 83.958324 
L 387.172812 96.393685 
L 389.069159 111.660081 
L 390.017332 118.563569 
L 390.965506 121.331019 
L 391.913679 124.628343 
L 392.861852 126.638832 
L 393.810025 125.809202 
L 394.758199 123.810825 
L 395.706372 119.296307 
L 396.654545 111.290684 
L 397.602719 109.044023 
L 398.550892 110.915231 
L 399.499065 109.349835 
L 400.447239 110.927343 
L 401.395412 110.203687 
L 402.343585 110.975788 
L 403.291759 110.906148 
L 404.239932 111.417853 
L 405.188105 111.545023 
L 406.136279 113.186115 
L 407.084452 113.379897 
L 408.032625 112.756161 
L 408.980799 114.19136 
L 409.928972 113.376869 
L 410.877145 113.791684 
L 411.825319 115.529667 
L 412.773492 115.48425 
L 414.669839 116.637859 
L 415.618012 117.004228 
L 416.566185 118.172976 
L 417.514359 117.494739 
L 418.462532 117.273706 
L 419.410705 118.651376 
L 420.358879 119.7414 
L 421.307052 119.91096 
L 422.255225 124.555675 
L 423.203398 130.886899 
L 424.151572 134.97449 
L 425.099745 135.967624 
L 426.047918 136.639805 
L 426.996092 137.115177 
L 427.944265 137.202985 
L 428.892438 131.468245 
L 429.840612 122.163677 
L 430.788785 121.903282 
L 431.736958 122.84797 
L 432.685132 122.844942 
L 433.633305 124.010662 
L 434.581478 123.798713 
L 435.529652 124.216556 
L 436.477825 125.58817 
L 437.425998 126.242184 
L 438.374172 125.685061 
L 439.322345 127.553241 
L 440.270518 126.681222 
L 441.218692 127.392766 
L 442.166865 126.814447 
L 443.115038 128.658405 
L 444.063212 128.649321 
L 445.011385 130.320692 
L 445.959558 129.799903 
L 446.907732 130.726423 
L 447.855905 131.280519 
L 448.804078 131.132155 
L 449.752251 130.762758 
L 450.700425 132.170706 
L 451.648598 132.658189 
L 452.596771 132.882249 
L 453.544945 132.485602 
L 454.493118 136.249213 
L 455.441291 141.457107 
L 456.389465 145.786926 
L 457.337638 148.384818 
L 458.285811 151.452025 
L 459.233985 152.675274 
L 460.182158 153.53821 
L 461.130331 152.856945 
L 462.078505 150.325666 
L 463.026678 144.100416 
L 463.974851 139.201363 
L 464.923025 135.558865 
L 465.871198 136.337021 
L 466.819371 136.246185 
L 467.767545 136.679167 
L 468.715718 137.545131 
L 469.663891 137.20904 
L 470.612065 138.801687 
L 471.560238 137.399795 
L 472.508411 138.483763 
L 473.456585 137.260514 
L 474.404758 136.975896 
L 475.352931 138.12345 
L 476.301105 137.18179 
L 477.249278 139.09236 
L 478.197451 138.217313 
L 479.145624 137.57541 
L 480.093798 137.499713 
L 481.041971 137.92664 
L 481.990144 137.660189 
L 482.938318 138.520097 
L 483.886491 136.803309 
L 484.834664 137.793414 
L 485.782838 137.614772 
L 486.731011 137.64505 
L 487.679184 136.770003 
L 489.575531 137.057648 
L 490.523704 135.486196 
L 492.420051 139.231641 
L 493.368224 140.212663 
L 494.316398 140.112744 
L 495.264571 137.905445 
L 496.212744 133.572598 
L 497.160918 131.804336 
L 498.109091 132.043536 
L 498.109091 132.043536 
" clip-path="url(#p6d08c1e50f)" style="fill: none; stroke: #008000; stroke-width: 1.5; stroke-linecap: square"/>
   </g>
   <g id="patch_3">
    <path d="M 72 384.48 
L 72 51.84 
" style="fill: none; stroke: #000000; stroke-width: 0.8; stroke-linejoin: miter; stroke-linecap: square"/>
   </g>
   <g id="patch_4">
    <path d="M 518.4 384.48 
L 518.4 51.84 
" style="fill: none; stroke: #000000; stroke-width: 0.8; stroke-linejoin: miter; stroke-linecap: square"/>
   </g>
   <g id="patch_5">
    <path d="M 72 384.48 
L 518.4 384.48 
" style="fill: none; stroke: #000000; stroke-width: 0.8; stroke-linejoin: miter; stroke-linecap: square"/>
   </g>
   <g id="patch_6">
    <path d="M 72 51.84 
L 518.4 51.84 
" style="fill: none; stroke: #000000; stroke-width: 0.8; stroke-linejoin: miter; stroke-linecap: square"/>
   </g>
   <g id="text_19">
    <!-- M36: Aspartat; Histidin; Methionin; Phenylalanin -->
    <g transform="translate(174.575781 45.84) scale(0.1 -0.1)">
     <defs>
      <path id="DejaVuSans-4d" d="M 628 4666 
L 1569 4666 
L 2759 1491 
L 3956 4666 
L 4897 4666 
L 4897 0 
L 4281 0 
L 4281 4097 
L 3078 897 
L 2444 897 
L 1241 4097 
L 1241 0 
L 628 0 
L 628 4666 
z
" transform="scale(0.015625)"/>
      <path id="DejaVuSans-3a" d="M 750 794 
L 1409 794 
L 1409 0 
L 750 0 
L 750 794 
z
M 750 3309 
L 1409 3309 
L 1409 2516 
L 750 2516 
L 750 3309 
z
" transform="scale(0.015625)"/>
      <path id="DejaVuSans-41" d="M 2188 4044 
L 1331 1722 
L 3047 1722 
L 2188 4044 
z
M 1831 4666 
L 2547 4666 
L 4325 0 
L 3669 0 
L 3244 1197 
L 1141 1197 
L 716 0 
L 50 0 
L 1831 4666 
z
" transform="scale(0.015625)"/>
      <path id="DejaVuSans-70" d="M 1159 525 
L 1159 -1331 
L 581 -1331 
L 581 3500 
L 1159 3500 
L 1159 2969 
Q 1341 3281 1617 3432 
Q 1894 3584 2278 3584 
Q 2916 3584 3314 3078 
Q 3713 2572 3713 1747 
Q 3713 922 3314 415 
Q 2916 -91 2278 -91 
Q 1894 -91 1617 61 
Q 1341 213 1159 525 
z
M 3116 1747 
Q 3116 2381 2855 2742 
Q 2594 3103 2138 3103 
Q 1681 3103 1420 2742 
Q 1159 2381 1159 1747 
Q 1159 1113 1420 752 
Q 1681 391 2138 391 
Q 2594 391 2855 752 
Q 3116 1113 3116 1747 
z
" transform="scale(0.015625)"/>
      <path id="DejaVuSans-3b" d="M 750 3309 
L 1409 3309 
L 1409 2516 
L 750 2516 
L 750 3309 
z
M 750 794 
L 1409 794 
L 1409 256 
L 897 -744 
L 494 -744 
L 750 256 
L 750 794 
z
" transform="scale(0.015625)"/>
      <path id="DejaVuSans-48" d="M 628 4666 
L 1259 4666 
L 1259 2753 
L 3553 2753 
L 3553 4666 
L 4184 4666 
L 4184 0 
L 3553 0 
L 3553 2222 
L 1259 2222 
L 1259 0 
L 628 0 
L 628 4666 
z
" transform="scale(0.015625)"/>
      <path id="DejaVuSans-79" d="M 2059 -325 
Q 1816 -950 1584 -1140 
Q 1353 -1331 966 -1331 
L 506 -1331 
L 506 -850 
L 844 -850 
Q 1081 -850 1212 -737 
Q 1344 -625 1503 -206 
L 1606 56 
L 191 3500 
L 800 3500 
L 1894 763 
L 2988 3500 
L 3597 3500 
L 2059 -325 
z
" transform="scale(0.015625)"/>
     </defs>
     <use xlink:href="#DejaVuSans-4d"/>
     <use xlink:href="#DejaVuSans-33" x="86.279297"/>
     <use xlink:href="#DejaVuSans-36" x="149.902344"/>
     <use xlink:href="#DejaVuSans-3a" x="213.525391"/>
     <use xlink:href="#DejaVuSans-20" x="247.216797"/>
     <use xlink:href="#DejaVuSans-41" x="279.003906"/>
     <use xlink:href="#DejaVuSans-73" x="347.412109"/>
     <use xlink:href="#DejaVuSans-70" x="399.511719"/>
     <use xlink:href="#DejaVuSans-61" x="462.988281"/>
     <use xlink:href="#DejaVuSans-72" x="524.267578"/>
     <use xlink:href="#DejaVuSans-74" x="565.380859"/>
     <use xlink:href="#DejaVuSans-61" x="604.589844"/>
     <use xlink:href="#DejaVuSans-74" x="665.869141"/>
     <use xlink:href="#DejaVuSans-3b" x="705.078125"/>
     <use xlink:href="#DejaVuSans-20" x="738.769531"/>
     <use xlink:href="#DejaVuSans-48" x="770.556641"/>
     <use xlink:href="#DejaVuSans-69" x="845.751953"/>
     <use xlink:href="#DejaVuSans-73" x="873.535156"/>
     <use xlink:href="#DejaVuSans-74" x="925.634766"/>
     <use xlink:href="#DejaVuSans-69" x="964.84375"/>
     <use xlink:href="#DejaVuSans-64" x="992.626953"/>
     <use xlink:href="#DejaVuSans-69" x="1056.103516"/>
     <use xlink:href="#DejaVuSans-6e" x="1083.886719"/>
     <use xlink:href="#DejaVuSans-3b" x="1147.265625"/>
     <use xlink:href="#DejaVuSans-20" x="1180.957031"/>
     <use xlink:href="#DejaVuSans-4d" x="1212.744141"/>
     <use xlink:href="#DejaVuSans-65" x="1299.023438"/>
     <use xlink:href="#DejaVuSans-74" x="1360.546875"/>
     <use xlink:href="#DejaVuSans-68" x="1399.755859"/>
     <use xlink:href="#DejaVuSans-69" x="1463.134766"/>
     <use xlink:href="#DejaVuSans-6f" x="1490.917969"/>
     <use xlink:href="#DejaVuSans-6e" x="1552.099609"/>
     <use xlink:href="#DejaVuSans-69" x="1615.478516"/>
     <use xlink:href="#DejaVuSans-6e" x="1643.261719"/>
     <use xlink:href="#DejaVuSans-3b" x="1706.640625"/>
     <use xlink:href="#DejaVuSans-20" x="1740.332031"/>
     <use xlink:href="#DejaVuSans-50" x="1772.119141"/>
     <use xlink:href="#DejaVuSans-68" x="1832.421875"/>
     <use xlink:href="#DejaVuSans-65" x="1895.800781"/>
     <use xlink:href="#DejaVuSans-6e" x="1957.324219"/>
     <use xlink:href="#DejaVuSans-79" x="2020.703125"/>
     <use xlink:href="#DejaVuSans-6c" x="2079.882812"/>
     <use xlink:href="#DejaVuSans-61" x="2107.666016"/>
     <use xlink:href="#DejaVuSans-6c" x="2168.945312"/>
     <use xlink:href="#DejaVuSans-61" x="2196.728516"/>
     <use xlink:href="#DejaVuSans-6e" x="2258.007812"/>
     <use xlink:href="#DejaVuSans-69" x="2321.386719"/>
     <use xlink:href="#DejaVuSans-6e" x="2349.169922"/>
    </g>
   </g>
  </g>
 </g>
 <defs>
  <clipPath id="p6d08c1e50f">
   <rect x="72" y="51.84" width="446.4" height="332.64"/>
  </clipPath>
 </defs>
</svg>
