<?xml version="1.0" encoding="utf-8" standalone="no"?>
<!DOCTYPE svg PUBLIC "-//W3C//DTD SVG 1.1//EN"
  "http://www.w3.org/Graphics/SVG/1.1/DTD/svg11.dtd">
<svg xmlns:xlink="http://www.w3.org/1999/xlink" width="576pt" height="432pt" viewBox="0 0 576 432" xmlns="http://www.w3.org/2000/svg" version="1.1">
 <metadata>
  <rdf:RDF xmlns:dc="http://purl.org/dc/elements/1.1/" xmlns:cc="http://creativecommons.org/ns#" xmlns:rdf="http://www.w3.org/1999/02/22-rdf-syntax-ns#">
   <cc:Work>
    <dc:type rdf:resource="http://purl.org/dc/dcmitype/StillImage"/>
    <dc:date>2024-11-12T14:09:20.070386</dc:date>
    <dc:format>image/svg+xml</dc:format>
    <dc:creator>
     <cc:Agent>
      <dc:title>Matplotlib v3.7.5, https://matplotlib.org/</dc:title>
     </cc:Agent>
    </dc:creator>
   </cc:Work>
  </rdf:RDF>
 </metadata>
 <defs>
  <style type="text/css">*{stroke-linejoin: round; stroke-linecap: butt}</style>
 </defs>
 <g id="figure_1">
  <g id="patch_1">
   <path d="M 0 432 
L 576 432 
L 576 0 
L 0 0 
z
" style="fill: #ffffff"/>
  </g>
  <g id="axes_1">
   <g id="patch_2">
    <path d="M 72 384.48 
L 518.4 384.48 
L 518.4 51.84 
L 72 51.84 
z
" style="fill: #ffffff"/>
   </g>
   <g id="matplotlib.axis_1">
    <g id="xtick_1">
     <g id="line2d_1">
      <path d="M 92.290909 384.48 
L 92.290909 51.84 
" clip-path="url(#pe77c0b3b85)" style="fill: none; stroke: #b0b0b0; stroke-width: 0.8; stroke-linecap: square"/>
     </g>
     <g id="line2d_2">
      <defs>
       <path id="mbc0f66f9a4" d="M 0 0 
L 0 3.5 
" style="stroke: #000000; stroke-width: 0.8"/>
      </defs>
      <g>
       <use xlink:href="#mbc0f66f9a4" x="92.290909" y="384.48" style="stroke: #000000; stroke-width: 0.8"/>
      </g>
     </g>
     <g id="text_1">
      <!-- 0.17 -->
      <g transform="translate(81.158097 399.078438) scale(0.1 -0.1)">
       <defs>
        <path id="DejaVuSans-30" d="M 2034 4250 
Q 1547 4250 1301 3770 
Q 1056 3291 1056 2328 
Q 1056 1369 1301 889 
Q 1547 409 2034 409 
Q 2525 409 2770 889 
Q 3016 1369 3016 2328 
Q 3016 3291 2770 3770 
Q 2525 4250 2034 4250 
z
M 2034 4750 
Q 2819 4750 3233 4129 
Q 3647 3509 3647 2328 
Q 3647 1150 3233 529 
Q 2819 -91 2034 -91 
Q 1250 -91 836 529 
Q 422 1150 422 2328 
Q 422 3509 836 4129 
Q 1250 4750 2034 4750 
z
" transform="scale(0.015625)"/>
        <path id="DejaVuSans-2e" d="M 684 794 
L 1344 794 
L 1344 0 
L 684 0 
L 684 794 
z
" transform="scale(0.015625)"/>
        <path id="DejaVuSans-31" d="M 794 531 
L 1825 531 
L 1825 4091 
L 703 3866 
L 703 4441 
L 1819 4666 
L 2450 4666 
L 2450 531 
L 3481 531 
L 3481 0 
L 794 0 
L 794 531 
z
" transform="scale(0.015625)"/>
        <path id="DejaVuSans-37" d="M 525 4666 
L 3525 4666 
L 3525 4397 
L 1831 0 
L 1172 0 
L 2766 4134 
L 525 4134 
L 525 4666 
z
" transform="scale(0.015625)"/>
       </defs>
       <use xlink:href="#DejaVuSans-30"/>
       <use xlink:href="#DejaVuSans-2e" x="63.623047"/>
       <use xlink:href="#DejaVuSans-31" x="95.410156"/>
       <use xlink:href="#DejaVuSans-37" x="159.033203"/>
      </g>
     </g>
    </g>
    <g id="xtick_2">
     <g id="line2d_3">
      <path d="M 130.217842 384.48 
L 130.217842 51.84 
" clip-path="url(#pe77c0b3b85)" style="fill: none; stroke: #b0b0b0; stroke-width: 0.8; stroke-linecap: square"/>
     </g>
     <g id="line2d_4">
      <g>
       <use xlink:href="#mbc0f66f9a4" x="130.217842" y="384.48" style="stroke: #000000; stroke-width: 0.8"/>
      </g>
     </g>
     <g id="text_2">
      <!-- 6.83 -->
      <g transform="translate(119.085029 399.078438) scale(0.1 -0.1)">
       <defs>
        <path id="DejaVuSans-36" d="M 2113 2584 
Q 1688 2584 1439 2293 
Q 1191 2003 1191 1497 
Q 1191 994 1439 701 
Q 1688 409 2113 409 
Q 2538 409 2786 701 
Q 3034 994 3034 1497 
Q 3034 2003 2786 2293 
Q 2538 2584 2113 2584 
z
M 3366 4563 
L 3366 3988 
Q 3128 4100 2886 4159 
Q 2644 4219 2406 4219 
Q 1781 4219 1451 3797 
Q 1122 3375 1075 2522 
Q 1259 2794 1537 2939 
Q 1816 3084 2150 3084 
Q 2853 3084 3261 2657 
Q 3669 2231 3669 1497 
Q 3669 778 3244 343 
Q 2819 -91 2113 -91 
Q 1303 -91 875 529 
Q 447 1150 447 2328 
Q 447 3434 972 4092 
Q 1497 4750 2381 4750 
Q 2619 4750 2861 4703 
Q 3103 4656 3366 4563 
z
" transform="scale(0.015625)"/>
        <path id="DejaVuSans-38" d="M 2034 2216 
Q 1584 2216 1326 1975 
Q 1069 1734 1069 1313 
Q 1069 891 1326 650 
Q 1584 409 2034 409 
Q 2484 409 2743 651 
Q 3003 894 3003 1313 
Q 3003 1734 2745 1975 
Q 2488 2216 2034 2216 
z
M 1403 2484 
Q 997 2584 770 2862 
Q 544 3141 544 3541 
Q 544 4100 942 4425 
Q 1341 4750 2034 4750 
Q 2731 4750 3128 4425 
Q 3525 4100 3525 3541 
Q 3525 3141 3298 2862 
Q 3072 2584 2669 2484 
Q 3125 2378 3379 2068 
Q 3634 1759 3634 1313 
Q 3634 634 3220 271 
Q 2806 -91 2034 -91 
Q 1263 -91 848 271 
Q 434 634 434 1313 
Q 434 1759 690 2068 
Q 947 2378 1403 2484 
z
M 1172 3481 
Q 1172 3119 1398 2916 
Q 1625 2713 2034 2713 
Q 2441 2713 2670 2916 
Q 2900 3119 2900 3481 
Q 2900 3844 2670 4047 
Q 2441 4250 2034 4250 
Q 1625 4250 1398 4047 
Q 1172 3844 1172 3481 
z
" transform="scale(0.015625)"/>
        <path id="DejaVuSans-33" d="M 2597 2516 
Q 3050 2419 3304 2112 
Q 3559 1806 3559 1356 
Q 3559 666 3084 287 
Q 2609 -91 1734 -91 
Q 1441 -91 1130 -33 
Q 819 25 488 141 
L 488 750 
Q 750 597 1062 519 
Q 1375 441 1716 441 
Q 2309 441 2620 675 
Q 2931 909 2931 1356 
Q 2931 1769 2642 2001 
Q 2353 2234 1838 2234 
L 1294 2234 
L 1294 2753 
L 1863 2753 
Q 2328 2753 2575 2939 
Q 2822 3125 2822 3475 
Q 2822 3834 2567 4026 
Q 2313 4219 1838 4219 
Q 1578 4219 1281 4162 
Q 984 4106 628 3988 
L 628 4550 
Q 988 4650 1302 4700 
Q 1616 4750 1894 4750 
Q 2613 4750 3031 4423 
Q 3450 4097 3450 3541 
Q 3450 3153 3228 2886 
Q 3006 2619 2597 2516 
z
" transform="scale(0.015625)"/>
       </defs>
       <use xlink:href="#DejaVuSans-36"/>
       <use xlink:href="#DejaVuSans-2e" x="63.623047"/>
       <use xlink:href="#DejaVuSans-38" x="95.410156"/>
       <use xlink:href="#DejaVuSans-33" x="159.033203"/>
      </g>
     </g>
    </g>
    <g id="xtick_3">
     <g id="line2d_5">
      <path d="M 168.144775 384.48 
L 168.144775 51.84 
" clip-path="url(#pe77c0b3b85)" style="fill: none; stroke: #b0b0b0; stroke-width: 0.8; stroke-linecap: square"/>
     </g>
     <g id="line2d_6">
      <g>
       <use xlink:href="#mbc0f66f9a4" x="168.144775" y="384.48" style="stroke: #000000; stroke-width: 0.8"/>
      </g>
     </g>
     <g id="text_3">
      <!-- 13.5 -->
      <g transform="translate(157.011962 399.078438) scale(0.1 -0.1)">
       <defs>
        <path id="DejaVuSans-35" d="M 691 4666 
L 3169 4666 
L 3169 4134 
L 1269 4134 
L 1269 2991 
Q 1406 3038 1543 3061 
Q 1681 3084 1819 3084 
Q 2600 3084 3056 2656 
Q 3513 2228 3513 1497 
Q 3513 744 3044 326 
Q 2575 -91 1722 -91 
Q 1428 -91 1123 -41 
Q 819 9 494 109 
L 494 744 
Q 775 591 1075 516 
Q 1375 441 1709 441 
Q 2250 441 2565 725 
Q 2881 1009 2881 1497 
Q 2881 1984 2565 2268 
Q 2250 2553 1709 2553 
Q 1456 2553 1204 2497 
Q 953 2441 691 2322 
L 691 4666 
z
" transform="scale(0.015625)"/>
       </defs>
       <use xlink:href="#DejaVuSans-31"/>
       <use xlink:href="#DejaVuSans-33" x="63.623047"/>
       <use xlink:href="#DejaVuSans-2e" x="127.246094"/>
       <use xlink:href="#DejaVuSans-35" x="159.033203"/>
      </g>
     </g>
    </g>
    <g id="xtick_4">
     <g id="line2d_7">
      <path d="M 206.071708 384.48 
L 206.071708 51.84 
" clip-path="url(#pe77c0b3b85)" style="fill: none; stroke: #b0b0b0; stroke-width: 0.8; stroke-linecap: square"/>
     </g>
     <g id="line2d_8">
      <g>
       <use xlink:href="#mbc0f66f9a4" x="206.071708" y="384.48" style="stroke: #000000; stroke-width: 0.8"/>
      </g>
     </g>
     <g id="text_4">
      <!-- 20.17 -->
      <g transform="translate(191.757645 399.078438) scale(0.1 -0.1)">
       <defs>
        <path id="DejaVuSans-32" d="M 1228 531 
L 3431 531 
L 3431 0 
L 469 0 
L 469 531 
Q 828 903 1448 1529 
Q 2069 2156 2228 2338 
Q 2531 2678 2651 2914 
Q 2772 3150 2772 3378 
Q 2772 3750 2511 3984 
Q 2250 4219 1831 4219 
Q 1534 4219 1204 4116 
Q 875 4013 500 3803 
L 500 4441 
Q 881 4594 1212 4672 
Q 1544 4750 1819 4750 
Q 2544 4750 2975 4387 
Q 3406 4025 3406 3419 
Q 3406 3131 3298 2873 
Q 3191 2616 2906 2266 
Q 2828 2175 2409 1742 
Q 1991 1309 1228 531 
z
" transform="scale(0.015625)"/>
       </defs>
       <use xlink:href="#DejaVuSans-32"/>
       <use xlink:href="#DejaVuSans-30" x="63.623047"/>
       <use xlink:href="#DejaVuSans-2e" x="127.246094"/>
       <use xlink:href="#DejaVuSans-31" x="159.033203"/>
       <use xlink:href="#DejaVuSans-37" x="222.65625"/>
      </g>
     </g>
    </g>
    <g id="xtick_5">
     <g id="line2d_9">
      <path d="M 243.998641 384.48 
L 243.998641 51.84 
" clip-path="url(#pe77c0b3b85)" style="fill: none; stroke: #b0b0b0; stroke-width: 0.8; stroke-linecap: square"/>
     </g>
     <g id="line2d_10">
      <g>
       <use xlink:href="#mbc0f66f9a4" x="243.998641" y="384.48" style="stroke: #000000; stroke-width: 0.8"/>
      </g>
     </g>
     <g id="text_5">
      <!-- 26.83 -->
      <g transform="translate(229.684578 399.078438) scale(0.1 -0.1)">
       <use xlink:href="#DejaVuSans-32"/>
       <use xlink:href="#DejaVuSans-36" x="63.623047"/>
       <use xlink:href="#DejaVuSans-2e" x="127.246094"/>
       <use xlink:href="#DejaVuSans-38" x="159.033203"/>
       <use xlink:href="#DejaVuSans-33" x="222.65625"/>
      </g>
     </g>
    </g>
    <g id="xtick_6">
     <g id="line2d_11">
      <path d="M 281.925573 384.48 
L 281.925573 51.84 
" clip-path="url(#pe77c0b3b85)" style="fill: none; stroke: #b0b0b0; stroke-width: 0.8; stroke-linecap: square"/>
     </g>
     <g id="line2d_12">
      <g>
       <use xlink:href="#mbc0f66f9a4" x="281.925573" y="384.48" style="stroke: #000000; stroke-width: 0.8"/>
      </g>
     </g>
     <g id="text_6">
      <!-- 33.5 -->
      <g transform="translate(270.792761 399.078438) scale(0.1 -0.1)">
       <use xlink:href="#DejaVuSans-33"/>
       <use xlink:href="#DejaVuSans-33" x="63.623047"/>
       <use xlink:href="#DejaVuSans-2e" x="127.246094"/>
       <use xlink:href="#DejaVuSans-35" x="159.033203"/>
      </g>
     </g>
    </g>
    <g id="xtick_7">
     <g id="line2d_13">
      <path d="M 319.852506 384.48 
L 319.852506 51.84 
" clip-path="url(#pe77c0b3b85)" style="fill: none; stroke: #b0b0b0; stroke-width: 0.8; stroke-linecap: square"/>
     </g>
     <g id="line2d_14">
      <g>
       <use xlink:href="#mbc0f66f9a4" x="319.852506" y="384.48" style="stroke: #000000; stroke-width: 0.8"/>
      </g>
     </g>
     <g id="text_7">
      <!-- 40.17 -->
      <g transform="translate(305.538444 399.078438) scale(0.1 -0.1)">
       <defs>
        <path id="DejaVuSans-34" d="M 2419 4116 
L 825 1625 
L 2419 1625 
L 2419 4116 
z
M 2253 4666 
L 3047 4666 
L 3047 1625 
L 3713 1625 
L 3713 1100 
L 3047 1100 
L 3047 0 
L 2419 0 
L 2419 1100 
L 313 1100 
L 313 1709 
L 2253 4666 
z
" transform="scale(0.015625)"/>
       </defs>
       <use xlink:href="#DejaVuSans-34"/>
       <use xlink:href="#DejaVuSans-30" x="63.623047"/>
       <use xlink:href="#DejaVuSans-2e" x="127.246094"/>
       <use xlink:href="#DejaVuSans-31" x="159.033203"/>
       <use xlink:href="#DejaVuSans-37" x="222.65625"/>
      </g>
     </g>
    </g>
    <g id="xtick_8">
     <g id="line2d_15">
      <path d="M 357.779439 384.48 
L 357.779439 51.84 
" clip-path="url(#pe77c0b3b85)" style="fill: none; stroke: #b0b0b0; stroke-width: 0.8; stroke-linecap: square"/>
     </g>
     <g id="line2d_16">
      <g>
       <use xlink:href="#mbc0f66f9a4" x="357.779439" y="384.48" style="stroke: #000000; stroke-width: 0.8"/>
      </g>
     </g>
     <g id="text_8">
      <!-- 46.83 -->
      <g transform="translate(343.465377 399.078438) scale(0.1 -0.1)">
       <use xlink:href="#DejaVuSans-34"/>
       <use xlink:href="#DejaVuSans-36" x="63.623047"/>
       <use xlink:href="#DejaVuSans-2e" x="127.246094"/>
       <use xlink:href="#DejaVuSans-38" x="159.033203"/>
       <use xlink:href="#DejaVuSans-33" x="222.65625"/>
      </g>
     </g>
    </g>
    <g id="xtick_9">
     <g id="line2d_17">
      <path d="M 395.706372 384.48 
L 395.706372 51.84 
" clip-path="url(#pe77c0b3b85)" style="fill: none; stroke: #b0b0b0; stroke-width: 0.8; stroke-linecap: square"/>
     </g>
     <g id="line2d_18">
      <g>
       <use xlink:href="#mbc0f66f9a4" x="395.706372" y="384.48" style="stroke: #000000; stroke-width: 0.8"/>
      </g>
     </g>
     <g id="text_9">
      <!-- 53.5 -->
      <g transform="translate(384.57356 399.078438) scale(0.1 -0.1)">
       <use xlink:href="#DejaVuSans-35"/>
       <use xlink:href="#DejaVuSans-33" x="63.623047"/>
       <use xlink:href="#DejaVuSans-2e" x="127.246094"/>
       <use xlink:href="#DejaVuSans-35" x="159.033203"/>
      </g>
     </g>
    </g>
    <g id="xtick_10">
     <g id="line2d_19">
      <path d="M 433.633305 384.48 
L 433.633305 51.84 
" clip-path="url(#pe77c0b3b85)" style="fill: none; stroke: #b0b0b0; stroke-width: 0.8; stroke-linecap: square"/>
     </g>
     <g id="line2d_20">
      <g>
       <use xlink:href="#mbc0f66f9a4" x="433.633305" y="384.48" style="stroke: #000000; stroke-width: 0.8"/>
      </g>
     </g>
     <g id="text_10">
      <!-- 60.17 -->
      <g transform="translate(419.319243 399.078438) scale(0.1 -0.1)">
       <use xlink:href="#DejaVuSans-36"/>
       <use xlink:href="#DejaVuSans-30" x="63.623047"/>
       <use xlink:href="#DejaVuSans-2e" x="127.246094"/>
       <use xlink:href="#DejaVuSans-31" x="159.033203"/>
       <use xlink:href="#DejaVuSans-37" x="222.65625"/>
      </g>
     </g>
    </g>
    <g id="xtick_11">
     <g id="line2d_21">
      <path d="M 471.560238 384.48 
L 471.560238 51.84 
" clip-path="url(#pe77c0b3b85)" style="fill: none; stroke: #b0b0b0; stroke-width: 0.8; stroke-linecap: square"/>
     </g>
     <g id="line2d_22">
      <g>
       <use xlink:href="#mbc0f66f9a4" x="471.560238" y="384.48" style="stroke: #000000; stroke-width: 0.8"/>
      </g>
     </g>
     <g id="text_11">
      <!-- 66.83 -->
      <g transform="translate(457.246175 399.078438) scale(0.1 -0.1)">
       <use xlink:href="#DejaVuSans-36"/>
       <use xlink:href="#DejaVuSans-36" x="63.623047"/>
       <use xlink:href="#DejaVuSans-2e" x="127.246094"/>
       <use xlink:href="#DejaVuSans-38" x="159.033203"/>
       <use xlink:href="#DejaVuSans-33" x="222.65625"/>
      </g>
     </g>
    </g>
    <g id="text_12">
     <!-- time in hours [h] -->
     <g transform="translate(253.451562 412.756563) scale(0.1 -0.1)">
      <defs>
       <path id="DejaVuSans-74" d="M 1172 4494 
L 1172 3500 
L 2356 3500 
L 2356 3053 
L 1172 3053 
L 1172 1153 
Q 1172 725 1289 603 
Q 1406 481 1766 481 
L 2356 481 
L 2356 0 
L 1766 0 
Q 1100 0 847 248 
Q 594 497 594 1153 
L 594 3053 
L 172 3053 
L 172 3500 
L 594 3500 
L 594 4494 
L 1172 4494 
z
" transform="scale(0.015625)"/>
       <path id="DejaVuSans-69" d="M 603 3500 
L 1178 3500 
L 1178 0 
L 603 0 
L 603 3500 
z
M 603 4863 
L 1178 4863 
L 1178 4134 
L 603 4134 
L 603 4863 
z
" transform="scale(0.015625)"/>
       <path id="DejaVuSans-6d" d="M 3328 2828 
Q 3544 3216 3844 3400 
Q 4144 3584 4550 3584 
Q 5097 3584 5394 3201 
Q 5691 2819 5691 2113 
L 5691 0 
L 5113 0 
L 5113 2094 
Q 5113 2597 4934 2840 
Q 4756 3084 4391 3084 
Q 3944 3084 3684 2787 
Q 3425 2491 3425 1978 
L 3425 0 
L 2847 0 
L 2847 2094 
Q 2847 2600 2669 2842 
Q 2491 3084 2119 3084 
Q 1678 3084 1418 2786 
Q 1159 2488 1159 1978 
L 1159 0 
L 581 0 
L 581 3500 
L 1159 3500 
L 1159 2956 
Q 1356 3278 1631 3431 
Q 1906 3584 2284 3584 
Q 2666 3584 2933 3390 
Q 3200 3197 3328 2828 
z
" transform="scale(0.015625)"/>
       <path id="DejaVuSans-65" d="M 3597 1894 
L 3597 1613 
L 953 1613 
Q 991 1019 1311 708 
Q 1631 397 2203 397 
Q 2534 397 2845 478 
Q 3156 559 3463 722 
L 3463 178 
Q 3153 47 2828 -22 
Q 2503 -91 2169 -91 
Q 1331 -91 842 396 
Q 353 884 353 1716 
Q 353 2575 817 3079 
Q 1281 3584 2069 3584 
Q 2775 3584 3186 3129 
Q 3597 2675 3597 1894 
z
M 3022 2063 
Q 3016 2534 2758 2815 
Q 2500 3097 2075 3097 
Q 1594 3097 1305 2825 
Q 1016 2553 972 2059 
L 3022 2063 
z
" transform="scale(0.015625)"/>
       <path id="DejaVuSans-20" transform="scale(0.015625)"/>
       <path id="DejaVuSans-6e" d="M 3513 2113 
L 3513 0 
L 2938 0 
L 2938 2094 
Q 2938 2591 2744 2837 
Q 2550 3084 2163 3084 
Q 1697 3084 1428 2787 
Q 1159 2491 1159 1978 
L 1159 0 
L 581 0 
L 581 3500 
L 1159 3500 
L 1159 2956 
Q 1366 3272 1645 3428 
Q 1925 3584 2291 3584 
Q 2894 3584 3203 3211 
Q 3513 2838 3513 2113 
z
" transform="scale(0.015625)"/>
       <path id="DejaVuSans-68" d="M 3513 2113 
L 3513 0 
L 2938 0 
L 2938 2094 
Q 2938 2591 2744 2837 
Q 2550 3084 2163 3084 
Q 1697 3084 1428 2787 
Q 1159 2491 1159 1978 
L 1159 0 
L 581 0 
L 581 4863 
L 1159 4863 
L 1159 2956 
Q 1366 3272 1645 3428 
Q 1925 3584 2291 3584 
Q 2894 3584 3203 3211 
Q 3513 2838 3513 2113 
z
" transform="scale(0.015625)"/>
       <path id="DejaVuSans-6f" d="M 1959 3097 
Q 1497 3097 1228 2736 
Q 959 2375 959 1747 
Q 959 1119 1226 758 
Q 1494 397 1959 397 
Q 2419 397 2687 759 
Q 2956 1122 2956 1747 
Q 2956 2369 2687 2733 
Q 2419 3097 1959 3097 
z
M 1959 3584 
Q 2709 3584 3137 3096 
Q 3566 2609 3566 1747 
Q 3566 888 3137 398 
Q 2709 -91 1959 -91 
Q 1206 -91 779 398 
Q 353 888 353 1747 
Q 353 2609 779 3096 
Q 1206 3584 1959 3584 
z
" transform="scale(0.015625)"/>
       <path id="DejaVuSans-75" d="M 544 1381 
L 544 3500 
L 1119 3500 
L 1119 1403 
Q 1119 906 1312 657 
Q 1506 409 1894 409 
Q 2359 409 2629 706 
Q 2900 1003 2900 1516 
L 2900 3500 
L 3475 3500 
L 3475 0 
L 2900 0 
L 2900 538 
Q 2691 219 2414 64 
Q 2138 -91 1772 -91 
Q 1169 -91 856 284 
Q 544 659 544 1381 
z
M 1991 3584 
L 1991 3584 
z
" transform="scale(0.015625)"/>
       <path id="DejaVuSans-72" d="M 2631 2963 
Q 2534 3019 2420 3045 
Q 2306 3072 2169 3072 
Q 1681 3072 1420 2755 
Q 1159 2438 1159 1844 
L 1159 0 
L 581 0 
L 581 3500 
L 1159 3500 
L 1159 2956 
Q 1341 3275 1631 3429 
Q 1922 3584 2338 3584 
Q 2397 3584 2469 3576 
Q 2541 3569 2628 3553 
L 2631 2963 
z
" transform="scale(0.015625)"/>
       <path id="DejaVuSans-73" d="M 2834 3397 
L 2834 2853 
Q 2591 2978 2328 3040 
Q 2066 3103 1784 3103 
Q 1356 3103 1142 2972 
Q 928 2841 928 2578 
Q 928 2378 1081 2264 
Q 1234 2150 1697 2047 
L 1894 2003 
Q 2506 1872 2764 1633 
Q 3022 1394 3022 966 
Q 3022 478 2636 193 
Q 2250 -91 1575 -91 
Q 1294 -91 989 -36 
Q 684 19 347 128 
L 347 722 
Q 666 556 975 473 
Q 1284 391 1588 391 
Q 1994 391 2212 530 
Q 2431 669 2431 922 
Q 2431 1156 2273 1281 
Q 2116 1406 1581 1522 
L 1381 1569 
Q 847 1681 609 1914 
Q 372 2147 372 2553 
Q 372 3047 722 3315 
Q 1072 3584 1716 3584 
Q 2034 3584 2315 3537 
Q 2597 3491 2834 3397 
z
" transform="scale(0.015625)"/>
       <path id="DejaVuSans-5b" d="M 550 4863 
L 1875 4863 
L 1875 4416 
L 1125 4416 
L 1125 -397 
L 1875 -397 
L 1875 -844 
L 550 -844 
L 550 4863 
z
" transform="scale(0.015625)"/>
       <path id="DejaVuSans-5d" d="M 1947 4863 
L 1947 -844 
L 622 -844 
L 622 -397 
L 1369 -397 
L 1369 4416 
L 622 4416 
L 622 4863 
L 1947 4863 
z
" transform="scale(0.015625)"/>
      </defs>
      <use xlink:href="#DejaVuSans-74"/>
      <use xlink:href="#DejaVuSans-69" x="39.208984"/>
      <use xlink:href="#DejaVuSans-6d" x="66.992188"/>
      <use xlink:href="#DejaVuSans-65" x="164.404297"/>
      <use xlink:href="#DejaVuSans-20" x="225.927734"/>
      <use xlink:href="#DejaVuSans-69" x="257.714844"/>
      <use xlink:href="#DejaVuSans-6e" x="285.498047"/>
      <use xlink:href="#DejaVuSans-20" x="348.876953"/>
      <use xlink:href="#DejaVuSans-68" x="380.664062"/>
      <use xlink:href="#DejaVuSans-6f" x="444.042969"/>
      <use xlink:href="#DejaVuSans-75" x="505.224609"/>
      <use xlink:href="#DejaVuSans-72" x="568.603516"/>
      <use xlink:href="#DejaVuSans-73" x="609.716797"/>
      <use xlink:href="#DejaVuSans-20" x="661.816406"/>
      <use xlink:href="#DejaVuSans-5b" x="693.603516"/>
      <use xlink:href="#DejaVuSans-68" x="732.617188"/>
      <use xlink:href="#DejaVuSans-5d" x="795.996094"/>
     </g>
    </g>
   </g>
   <g id="matplotlib.axis_2">
    <g id="ytick_1">
     <g id="line2d_23">
      <path d="M 72 363.69 
L 518.4 363.69 
" clip-path="url(#pe77c0b3b85)" style="fill: none; stroke: #b0b0b0; stroke-width: 0.8; stroke-linecap: square"/>
     </g>
     <g id="line2d_24">
      <defs>
       <path id="m1a24a97ec1" d="M 0 0 
L -3.5 0 
" style="stroke: #000000; stroke-width: 0.8"/>
      </defs>
      <g>
       <use xlink:href="#m1a24a97ec1" x="72" y="363.69" style="stroke: #000000; stroke-width: 0.8"/>
      </g>
     </g>
     <g id="text_13">
      <!-- 0.0 -->
      <g transform="translate(49.096875 367.489219) scale(0.1 -0.1)">
       <use xlink:href="#DejaVuSans-30"/>
       <use xlink:href="#DejaVuSans-2e" x="63.623047"/>
       <use xlink:href="#DejaVuSans-30" x="95.410156"/>
      </g>
     </g>
    </g>
    <g id="ytick_2">
     <g id="line2d_25">
      <path d="M 72 311.715 
L 518.4 311.715 
" clip-path="url(#pe77c0b3b85)" style="fill: none; stroke: #b0b0b0; stroke-width: 0.8; stroke-linecap: square"/>
     </g>
     <g id="line2d_26">
      <g>
       <use xlink:href="#m1a24a97ec1" x="72" y="311.715" style="stroke: #000000; stroke-width: 0.8"/>
      </g>
     </g>
     <g id="text_14">
      <!-- 0.5 -->
      <g transform="translate(49.096875 315.514219) scale(0.1 -0.1)">
       <use xlink:href="#DejaVuSans-30"/>
       <use xlink:href="#DejaVuSans-2e" x="63.623047"/>
       <use xlink:href="#DejaVuSans-35" x="95.410156"/>
      </g>
     </g>
    </g>
    <g id="ytick_3">
     <g id="line2d_27">
      <path d="M 72 259.74 
L 518.4 259.74 
" clip-path="url(#pe77c0b3b85)" style="fill: none; stroke: #b0b0b0; stroke-width: 0.8; stroke-linecap: square"/>
     </g>
     <g id="line2d_28">
      <g>
       <use xlink:href="#m1a24a97ec1" x="72" y="259.74" style="stroke: #000000; stroke-width: 0.8"/>
      </g>
     </g>
     <g id="text_15">
      <!-- 1.0 -->
      <g transform="translate(49.096875 263.539219) scale(0.1 -0.1)">
       <use xlink:href="#DejaVuSans-31"/>
       <use xlink:href="#DejaVuSans-2e" x="63.623047"/>
       <use xlink:href="#DejaVuSans-30" x="95.410156"/>
      </g>
     </g>
    </g>
    <g id="ytick_4">
     <g id="line2d_29">
      <path d="M 72 207.765 
L 518.4 207.765 
" clip-path="url(#pe77c0b3b85)" style="fill: none; stroke: #b0b0b0; stroke-width: 0.8; stroke-linecap: square"/>
     </g>
     <g id="line2d_30">
      <g>
       <use xlink:href="#m1a24a97ec1" x="72" y="207.765" style="stroke: #000000; stroke-width: 0.8"/>
      </g>
     </g>
     <g id="text_16">
      <!-- 1.5 -->
      <g transform="translate(49.096875 211.564219) scale(0.1 -0.1)">
       <use xlink:href="#DejaVuSans-31"/>
       <use xlink:href="#DejaVuSans-2e" x="63.623047"/>
       <use xlink:href="#DejaVuSans-35" x="95.410156"/>
      </g>
     </g>
    </g>
    <g id="ytick_5">
     <g id="line2d_31">
      <path d="M 72 155.79 
L 518.4 155.79 
" clip-path="url(#pe77c0b3b85)" style="fill: none; stroke: #b0b0b0; stroke-width: 0.8; stroke-linecap: square"/>
     </g>
     <g id="line2d_32">
      <g>
       <use xlink:href="#m1a24a97ec1" x="72" y="155.79" style="stroke: #000000; stroke-width: 0.8"/>
      </g>
     </g>
     <g id="text_17">
      <!-- 2.0 -->
      <g transform="translate(49.096875 159.589219) scale(0.1 -0.1)">
       <use xlink:href="#DejaVuSans-32"/>
       <use xlink:href="#DejaVuSans-2e" x="63.623047"/>
       <use xlink:href="#DejaVuSans-30" x="95.410156"/>
      </g>
     </g>
    </g>
    <g id="ytick_6">
     <g id="line2d_33">
      <path d="M 72 103.815 
L 518.4 103.815 
" clip-path="url(#pe77c0b3b85)" style="fill: none; stroke: #b0b0b0; stroke-width: 0.8; stroke-linecap: square"/>
     </g>
     <g id="line2d_34">
      <g>
       <use xlink:href="#m1a24a97ec1" x="72" y="103.815" style="stroke: #000000; stroke-width: 0.8"/>
      </g>
     </g>
     <g id="text_18">
      <!-- 2.5 -->
      <g transform="translate(49.096875 107.614219) scale(0.1 -0.1)">
       <use xlink:href="#DejaVuSans-32"/>
       <use xlink:href="#DejaVuSans-2e" x="63.623047"/>
       <use xlink:href="#DejaVuSans-35" x="95.410156"/>
      </g>
     </g>
    </g>
    <g id="ytick_7">
     <g id="line2d_35">
      <path d="M 72 51.84 
L 518.4 51.84 
" clip-path="url(#pe77c0b3b85)" style="fill: none; stroke: #b0b0b0; stroke-width: 0.8; stroke-linecap: square"/>
     </g>
     <g id="line2d_36">
      <g>
       <use xlink:href="#m1a24a97ec1" x="72" y="51.84" style="stroke: #000000; stroke-width: 0.8"/>
      </g>
     </g>
     <g id="text_19">
      <!-- 3.0 -->
      <g transform="translate(49.096875 55.639219) scale(0.1 -0.1)">
       <use xlink:href="#DejaVuSans-33"/>
       <use xlink:href="#DejaVuSans-2e" x="63.623047"/>
       <use xlink:href="#DejaVuSans-30" x="95.410156"/>
      </g>
     </g>
    </g>
    <g id="text_20">
     <!-- blank corrected OD600 -->
     <g transform="translate(43.017187 276.115469) rotate(-90) scale(0.1 -0.1)">
      <defs>
       <path id="DejaVuSans-62" d="M 3116 1747 
Q 3116 2381 2855 2742 
Q 2594 3103 2138 3103 
Q 1681 3103 1420 2742 
Q 1159 2381 1159 1747 
Q 1159 1113 1420 752 
Q 1681 391 2138 391 
Q 2594 391 2855 752 
Q 3116 1113 3116 1747 
z
M 1159 2969 
Q 1341 3281 1617 3432 
Q 1894 3584 2278 3584 
Q 2916 3584 3314 3078 
Q 3713 2572 3713 1747 
Q 3713 922 3314 415 
Q 2916 -91 2278 -91 
Q 1894 -91 1617 61 
Q 1341 213 1159 525 
L 1159 0 
L 581 0 
L 581 4863 
L 1159 4863 
L 1159 2969 
z
" transform="scale(0.015625)"/>
       <path id="DejaVuSans-6c" d="M 603 4863 
L 1178 4863 
L 1178 0 
L 603 0 
L 603 4863 
z
" transform="scale(0.015625)"/>
       <path id="DejaVuSans-61" d="M 2194 1759 
Q 1497 1759 1228 1600 
Q 959 1441 959 1056 
Q 959 750 1161 570 
Q 1363 391 1709 391 
Q 2188 391 2477 730 
Q 2766 1069 2766 1631 
L 2766 1759 
L 2194 1759 
z
M 3341 1997 
L 3341 0 
L 2766 0 
L 2766 531 
Q 2569 213 2275 61 
Q 1981 -91 1556 -91 
Q 1019 -91 701 211 
Q 384 513 384 1019 
Q 384 1609 779 1909 
Q 1175 2209 1959 2209 
L 2766 2209 
L 2766 2266 
Q 2766 2663 2505 2880 
Q 2244 3097 1772 3097 
Q 1472 3097 1187 3025 
Q 903 2953 641 2809 
L 641 3341 
Q 956 3463 1253 3523 
Q 1550 3584 1831 3584 
Q 2591 3584 2966 3190 
Q 3341 2797 3341 1997 
z
" transform="scale(0.015625)"/>
       <path id="DejaVuSans-6b" d="M 581 4863 
L 1159 4863 
L 1159 1991 
L 2875 3500 
L 3609 3500 
L 1753 1863 
L 3688 0 
L 2938 0 
L 1159 1709 
L 1159 0 
L 581 0 
L 581 4863 
z
" transform="scale(0.015625)"/>
       <path id="DejaVuSans-63" d="M 3122 3366 
L 3122 2828 
Q 2878 2963 2633 3030 
Q 2388 3097 2138 3097 
Q 1578 3097 1268 2742 
Q 959 2388 959 1747 
Q 959 1106 1268 751 
Q 1578 397 2138 397 
Q 2388 397 2633 464 
Q 2878 531 3122 666 
L 3122 134 
Q 2881 22 2623 -34 
Q 2366 -91 2075 -91 
Q 1284 -91 818 406 
Q 353 903 353 1747 
Q 353 2603 823 3093 
Q 1294 3584 2113 3584 
Q 2378 3584 2631 3529 
Q 2884 3475 3122 3366 
z
" transform="scale(0.015625)"/>
       <path id="DejaVuSans-64" d="M 2906 2969 
L 2906 4863 
L 3481 4863 
L 3481 0 
L 2906 0 
L 2906 525 
Q 2725 213 2448 61 
Q 2172 -91 1784 -91 
Q 1150 -91 751 415 
Q 353 922 353 1747 
Q 353 2572 751 3078 
Q 1150 3584 1784 3584 
Q 2172 3584 2448 3432 
Q 2725 3281 2906 2969 
z
M 947 1747 
Q 947 1113 1208 752 
Q 1469 391 1925 391 
Q 2381 391 2643 752 
Q 2906 1113 2906 1747 
Q 2906 2381 2643 2742 
Q 2381 3103 1925 3103 
Q 1469 3103 1208 2742 
Q 947 2381 947 1747 
z
" transform="scale(0.015625)"/>
       <path id="DejaVuSans-4f" d="M 2522 4238 
Q 1834 4238 1429 3725 
Q 1025 3213 1025 2328 
Q 1025 1447 1429 934 
Q 1834 422 2522 422 
Q 3209 422 3611 934 
Q 4013 1447 4013 2328 
Q 4013 3213 3611 3725 
Q 3209 4238 2522 4238 
z
M 2522 4750 
Q 3503 4750 4090 4092 
Q 4678 3434 4678 2328 
Q 4678 1225 4090 567 
Q 3503 -91 2522 -91 
Q 1538 -91 948 565 
Q 359 1222 359 2328 
Q 359 3434 948 4092 
Q 1538 4750 2522 4750 
z
" transform="scale(0.015625)"/>
       <path id="DejaVuSans-44" d="M 1259 4147 
L 1259 519 
L 2022 519 
Q 2988 519 3436 956 
Q 3884 1394 3884 2338 
Q 3884 3275 3436 3711 
Q 2988 4147 2022 4147 
L 1259 4147 
z
M 628 4666 
L 1925 4666 
Q 3281 4666 3915 4102 
Q 4550 3538 4550 2338 
Q 4550 1131 3912 565 
Q 3275 0 1925 0 
L 628 0 
L 628 4666 
z
" transform="scale(0.015625)"/>
      </defs>
      <use xlink:href="#DejaVuSans-62"/>
      <use xlink:href="#DejaVuSans-6c" x="63.476562"/>
      <use xlink:href="#DejaVuSans-61" x="91.259766"/>
      <use xlink:href="#DejaVuSans-6e" x="152.539062"/>
      <use xlink:href="#DejaVuSans-6b" x="215.917969"/>
      <use xlink:href="#DejaVuSans-20" x="273.828125"/>
      <use xlink:href="#DejaVuSans-63" x="305.615234"/>
      <use xlink:href="#DejaVuSans-6f" x="360.595703"/>
      <use xlink:href="#DejaVuSans-72" x="421.777344"/>
      <use xlink:href="#DejaVuSans-72" x="461.140625"/>
      <use xlink:href="#DejaVuSans-65" x="500.003906"/>
      <use xlink:href="#DejaVuSans-63" x="561.527344"/>
      <use xlink:href="#DejaVuSans-74" x="616.507812"/>
      <use xlink:href="#DejaVuSans-65" x="655.716797"/>
      <use xlink:href="#DejaVuSans-64" x="717.240234"/>
      <use xlink:href="#DejaVuSans-20" x="780.716797"/>
      <use xlink:href="#DejaVuSans-4f" x="812.503906"/>
      <use xlink:href="#DejaVuSans-44" x="891.214844"/>
      <use xlink:href="#DejaVuSans-36" x="968.216797"/>
      <use xlink:href="#DejaVuSans-30" x="1031.839844"/>
      <use xlink:href="#DejaVuSans-30" x="1095.462891"/>
     </g>
    </g>
   </g>
   <g id="line2d_37">
    <path d="M 92.290909 357.395827 
L 93.239082 355.732627 
L 94.187256 363.736778 
L 95.135429 358.331377 
L 96.083602 358.851128 
L 97.031776 360.098527 
L 97.979949 360.618277 
L 98.928122 361.969628 
L 99.876296 363.009127 
L 101.772642 363.320977 
L 102.720816 363.320977 
L 103.668989 363.632828 
L 104.617162 364.152578 
L 105.565336 363.632828 
L 106.513509 363.528878 
L 107.461682 363.840728 
L 108.409856 363.009127 
L 110.306202 363.736778 
L 111.254376 363.736778 
L 112.202549 363.320977 
L 113.150722 363.217027 
L 114.098895 363.320977 
L 115.047069 363.009127 
L 117.891589 363.009127 
L 119.787935 362.073577 
L 120.736109 362.697277 
L 121.684282 362.489377 
L 122.632455 362.801227 
L 123.580629 362.281477 
L 125.476975 362.177527 
L 126.425149 361.865678 
L 127.373322 362.281477 
L 128.321495 362.177527 
L 129.269669 361.553828 
L 130.217842 361.345928 
L 131.166015 360.930127 
L 132.114189 361.657778 
L 133.062362 361.034078 
L 134.010535 360.098527 
L 134.958709 361.034078 
L 135.906882 361.138028 
L 136.855055 360.722227 
L 138.751402 360.618277 
L 139.699575 360.306427 
L 140.647749 360.410377 
L 142.544095 359.994577 
L 144.440442 359.890627 
L 147.284962 359.578778 
L 148.233135 359.266928 
L 149.181308 358.643228 
L 150.129482 358.851128 
L 151.077655 358.435327 
L 152.025828 358.227427 
L 152.974002 358.539277 
L 153.922175 358.331377 
L 155.818522 358.227427 
L 156.766695 357.915577 
L 157.714868 357.811627 
L 158.663042 357.395827 
L 159.611215 357.499777 
L 163.403908 356.668178 
L 164.352082 356.772128 
L 165.300255 356.148427 
L 166.248428 356.252378 
L 167.196602 355.940527 
L 168.144775 356.044477 
L 169.092948 355.524727 
L 170.041121 355.316827 
L 170.989295 355.316827 
L 175.730161 353.757577 
L 177.626508 353.445727 
L 178.574681 353.653627 
L 180.471028 352.510177 
L 181.419201 351.990428 
L 182.367375 352.198328 
L 184.263721 351.262777 
L 185.211895 351.574628 
L 186.160068 350.535127 
L 187.108241 350.743027 
L 188.056415 350.119327 
L 189.004588 350.327227 
L 190.900935 348.871927 
L 191.849108 348.871927 
L 192.797281 348.248227 
L 193.745455 348.456127 
L 194.693628 348.144277 
L 195.641801 347.104778 
L 196.589975 347.520578 
L 197.538148 347.000828 
L 198.486321 346.792928 
L 199.434494 346.896878 
L 201.330841 346.377127 
L 202.279014 345.961327 
L 203.227188 345.337627 
L 204.175361 345.545527 
L 207.019881 344.090227 
L 207.968054 344.090227 
L 208.916228 343.882327 
L 209.864401 343.154677 
L 212.708921 342.427028 
L 215.553441 341.387527 
L 216.501614 340.971727 
L 218.397961 340.451977 
L 220.294308 339.620378 
L 221.242481 339.516427 
L 222.190654 338.892727 
L 223.138828 338.996677 
L 225.035174 338.061127 
L 225.983347 337.957178 
L 226.931521 337.333478 
L 228.827867 336.917677 
L 231.672387 335.670277 
L 232.620561 334.942628 
L 234.516907 334.838678 
L 236.413254 334.318927 
L 237.361427 333.695227 
L 238.309601 333.799177 
L 243.050467 332.343877 
L 243.998641 332.239927 
L 244.946814 331.928077 
L 245.894987 332.032027 
L 247.791334 331.408327 
L 248.739507 331.616227 
L 250.635854 330.576728 
L 251.584027 330.576728 
L 252.532201 330.264878 
L 253.480374 330.680678 
L 254.428547 330.680678 
L 255.37672 329.433277 
L 256.324894 330.472778 
L 257.273067 329.953027 
L 258.22124 330.160928 
L 260.117587 329.641177 
L 261.06576 330.056978 
L 262.013934 329.849078 
L 262.962107 329.849078 
L 263.91028 329.537227 
L 264.858454 329.953027 
L 265.806627 329.953027 
L 266.7548 328.809577 
L 267.702974 328.601677 
L 268.651147 329.537227 
L 269.59932 329.433277 
L 271.495667 329.537227 
L 273.392014 329.225377 
L 274.340187 329.329327 
L 275.28836 329.121427 
L 276.236534 328.705627 
L 277.184707 328.705627 
L 278.13288 329.329327 
L 279.081054 328.913527 
L 280.029227 328.185878 
L 281.925573 328.705627 
L 282.873747 328.081928 
L 283.82192 328.081928 
L 285.718267 327.666128 
L 286.66644 328.601677 
L 287.614613 328.289828 
L 288.562787 327.666128 
L 289.51096 328.185878 
L 290.459133 327.146377 
L 292.35548 326.938477 
L 293.303653 327.146377 
L 294.251827 327.042427 
L 295.2 326.626627 
L 296.148173 326.938477 
L 298.04452 326.418727 
L 298.992693 325.691078 
L 299.940867 326.314777 
L 301.837213 326.210827 
L 302.785387 325.483178 
L 303.73356 325.587128 
L 304.681733 324.963427 
L 305.629907 325.587128 
L 307.526253 324.651577 
L 309.4226 324.651577 
L 310.370773 324.235777 
L 312.26712 323.923927 
L 313.215293 324.235777 
L 314.163466 324.027877 
L 315.11164 323.508128 
L 316.059813 323.196278 
L 317.007986 323.508128 
L 317.95616 322.988377 
L 318.904333 323.092328 
L 319.852506 322.572577 
L 320.80068 322.884428 
L 322.697026 322.364677 
L 323.6452 322.676527 
L 324.593373 322.156777 
L 325.541546 322.052827 
L 326.48972 322.156777 
L 327.437893 321.637027 
L 330.282413 321.740977 
L 331.230586 321.221227 
L 332.17876 321.844927 
L 333.126933 321.117278 
L 334.075106 321.013328 
L 335.02328 320.597528 
L 335.971453 320.805428 
L 336.919626 320.597528 
L 338.815973 320.701478 
L 339.764146 320.389628 
L 340.712319 320.701478 
L 341.660493 320.181727 
L 342.608666 320.493578 
L 343.556839 320.181727 
L 344.505013 320.285678 
L 345.453186 320.077778 
L 347.349533 320.077778 
L 348.297706 319.661977 
L 349.245879 319.973827 
L 350.194053 319.973827 
L 351.142226 319.558027 
L 352.090399 319.973827 
L 353.038573 319.661977 
L 353.986746 319.765927 
L 354.934919 319.558027 
L 355.883093 319.869877 
L 356.831266 319.558027 
L 359.675786 319.246177 
L 361.572133 319.558027 
L 363.468479 319.454077 
L 364.416653 319.142227 
L 365.364826 319.454077 
L 367.261172 319.038277 
L 368.209346 319.454077 
L 369.157519 318.934327 
L 370.105692 319.558027 
L 371.053866 319.246177 
L 372.002039 319.558027 
L 372.950212 319.558027 
L 373.898386 319.765927 
L 374.846559 319.558027 
L 375.794732 319.558027 
L 377.691079 319.038277 
L 378.639252 319.454077 
L 380.535599 319.350127 
L 381.483772 319.142227 
L 382.431946 319.454077 
L 383.380119 319.142227 
L 384.328292 319.661977 
L 385.276466 319.350127 
L 386.224639 319.350127 
L 387.172812 319.661977 
L 388.120986 319.661977 
L 390.017332 320.077778 
L 390.965506 319.454077 
L 392.861852 319.973827 
L 393.810025 319.661977 
L 395.706372 319.661977 
L 396.654545 320.285678 
L 397.602719 319.765927 
L 398.550892 319.973827 
L 399.499065 319.869877 
L 401.395412 320.181727 
L 402.343585 320.077778 
L 403.291759 320.285678 
L 405.188105 319.973827 
L 407.084452 320.493578 
L 408.032625 320.701478 
L 408.980799 320.701478 
L 409.928972 320.493578 
L 410.877145 320.909378 
L 411.825319 321.013328 
L 412.773492 320.597528 
L 413.721665 320.597528 
L 414.669839 321.117278 
L 415.618012 320.805428 
L 416.566185 320.805428 
L 417.514359 321.221227 
L 418.462532 321.013328 
L 419.410705 321.533077 
L 420.358879 321.740977 
L 421.307052 321.013328 
L 422.255225 321.013328 
L 423.203398 321.325177 
L 424.151572 321.221227 
L 425.099745 321.637027 
L 426.047918 321.637027 
L 426.996092 321.429127 
L 427.944265 321.740977 
L 428.892438 321.637027 
L 429.840612 321.740977 
L 430.788785 322.052827 
L 433.633305 321.637027 
L 434.581478 321.948877 
L 436.477825 321.844927 
L 437.425998 322.260727 
L 438.374172 322.052827 
L 440.270518 322.156777 
L 441.218692 321.429127 
L 442.166865 322.364677 
L 443.115038 322.052827 
L 444.063212 322.260727 
L 445.011385 322.052827 
L 445.959558 322.052827 
L 446.907732 322.260727 
L 447.855905 322.260727 
L 448.804078 322.468627 
L 450.700425 322.364677 
L 452.596771 323.092328 
L 453.544945 322.676527 
L 455.441291 323.092328 
L 456.389465 323.092328 
L 457.337638 322.572577 
L 458.285811 322.780477 
L 459.233985 322.364677 
L 460.182158 322.780477 
L 463.026678 323.196278 
L 463.974851 322.676527 
L 464.923025 322.988377 
L 468.715718 323.404178 
L 469.663891 322.884428 
L 470.612065 322.780477 
L 472.508411 322.884428 
L 474.404758 322.780477 
L 476.301105 322.884428 
L 478.197451 323.404178 
L 479.145624 322.988377 
L 481.990144 322.988377 
L 482.938318 323.300228 
L 484.834664 322.988377 
L 485.782838 323.300228 
L 486.731011 323.300228 
L 487.679184 322.884428 
L 489.575531 323.404178 
L 490.523704 322.988377 
L 491.471878 323.300228 
L 492.420051 322.988377 
L 493.368224 323.196278 
L 494.316398 323.092328 
L 496.212744 323.612077 
L 498.109091 322.988377 
L 498.109091 322.988377 
" clip-path="url(#pe77c0b3b85)" style="fill: none; stroke: #0000ff; stroke-opacity: 0.5; stroke-width: 1.5; stroke-linecap: square"/>
   </g>
   <g id="line2d_38">
    <path d="M 92.290909 354.069428 
L 93.239082 356.772128 
L 94.187256 363.840728 
L 95.135429 359.890627 
L 96.083602 360.826177 
L 97.031776 362.177527 
L 97.979949 362.489377 
L 98.928122 363.009127 
L 99.876296 362.697277 
L 100.824469 363.528878 
L 101.772642 363.217027 
L 102.720816 363.113077 
L 103.668989 364.048628 
L 104.617162 364.048628 
L 105.565336 364.360478 
L 107.461682 363.840728 
L 108.409856 364.256528 
L 109.358029 363.944678 
L 111.254376 363.632828 
L 112.202549 363.944678 
L 113.150722 363.113077 
L 114.098895 363.113077 
L 115.047069 363.528878 
L 115.995242 363.113077 
L 118.839762 362.905177 
L 119.787935 362.281477 
L 120.736109 362.801227 
L 121.684282 362.489377 
L 122.632455 361.865678 
L 124.528802 362.385427 
L 125.476975 361.449878 
L 126.425149 359.890627 
L 129.269669 361.449878 
L 130.217842 360.722227 
L 133.062362 360.514327 
L 134.010535 361.034078 
L 135.906882 360.514327 
L 136.855055 360.722227 
L 137.803229 360.618277 
L 138.751402 360.722227 
L 139.699575 359.890627 
L 140.647749 360.410377 
L 141.595922 359.786677 
L 143.492268 359.994577 
L 152.025828 358.123477 
L 153.922175 356.564228 
L 154.870348 355.940527 
L 156.766695 355.628677 
L 157.714868 354.901027 
L 158.663042 355.212877 
L 159.611215 356.044477 
L 161.507562 356.564228 
L 162.455735 356.044477 
L 164.352082 356.148427 
L 165.300255 355.732627 
L 167.196602 355.420777 
L 168.144775 355.420777 
L 169.092948 354.901027 
L 170.041121 354.589178 
L 170.989295 354.901027 
L 171.937468 354.069428 
L 172.885641 353.445727 
L 173.833815 353.133877 
L 174.781988 352.198328 
L 175.730161 351.574628 
L 176.678335 351.262777 
L 177.626508 350.743027 
L 178.574681 350.639077 
L 179.522855 350.223277 
L 180.471028 351.158827 
L 181.419201 351.054877 
L 182.367375 351.470677 
L 185.211895 350.846977 
L 186.160068 350.327227 
L 187.108241 350.431177 
L 188.056415 349.703528 
L 189.004588 349.391678 
L 189.952761 349.391678 
L 191.849108 348.560077 
L 192.797281 348.352177 
L 193.745455 347.936377 
L 194.693628 347.728477 
L 195.641801 346.896878 
L 196.589975 345.753427 
L 198.486321 344.402078 
L 199.434494 343.570477 
L 204.175361 342.115178 
L 205.123534 342.011228 
L 206.071708 342.115178 
L 207.019881 342.530978 
L 207.968054 343.258627 
L 208.916228 343.570477 
L 210.812574 343.674427 
L 211.760748 343.570477 
L 212.708921 342.842827 
L 213.657094 342.842827 
L 214.605268 342.323078 
L 215.553441 342.219128 
L 216.501614 341.803327 
L 217.449788 341.803327 
L 218.397961 341.595427 
L 219.346134 341.179627 
L 220.294308 340.244078 
L 221.242481 339.620378 
L 222.190654 338.580877 
L 223.138828 338.372977 
L 224.087001 337.229528 
L 225.035174 336.397927 
L 225.983347 336.086077 
L 226.931521 335.566327 
L 229.776041 335.462378 
L 230.724214 336.086077 
L 231.672387 336.397927 
L 232.620561 336.501877 
L 236.413254 335.670277 
L 237.361427 334.942628 
L 238.309601 334.942628 
L 239.257774 334.318927 
L 240.205947 334.318927 
L 243.050467 333.071528 
L 244.946814 331.304377 
L 245.894987 330.784627 
L 246.843161 330.472778 
L 247.791334 329.953027 
L 249.687681 329.225377 
L 250.635854 329.433277 
L 251.584027 328.705627 
L 252.532201 329.225377 
L 253.480374 330.056978 
L 256.324894 330.888577 
L 257.273067 330.888577 
L 258.22124 331.096477 
L 259.169414 331.096477 
L 260.117587 330.472778 
L 262.013934 330.992527 
L 262.962107 330.472778 
L 263.91028 330.576728 
L 264.858454 330.472778 
L 265.806627 330.784627 
L 266.7548 330.888577 
L 267.702974 330.576728 
L 268.651147 330.680678 
L 270.547494 330.368828 
L 271.495667 330.680678 
L 272.44384 330.056978 
L 273.392014 330.056978 
L 274.340187 330.680678 
L 275.28836 330.160928 
L 276.236534 329.953027 
L 278.13288 329.017477 
L 279.081054 327.666128 
L 280.029227 327.250327 
L 280.9774 327.042427 
L 281.925573 327.146377 
L 282.873747 326.418727 
L 284.770093 326.314777 
L 286.66644 326.730577 
L 288.562787 327.770078 
L 289.51096 327.666128 
L 290.459133 328.081928 
L 293.303653 328.185878 
L 294.251827 327.770078 
L 297.096347 327.042427 
L 298.04452 327.146377 
L 298.992693 326.626627 
L 299.940867 326.834527 
L 300.88904 326.522677 
L 301.837213 326.730577 
L 303.73356 326.314777 
L 304.681733 325.795028 
L 306.57808 325.795028 
L 307.526253 324.859477 
L 308.474427 324.443677 
L 309.4226 324.339727 
L 313.215293 321.533077 
L 315.11164 321.117278 
L 316.059813 321.221227 
L 317.007986 321.117278 
L 317.95616 320.389628 
L 318.904333 320.909378 
L 319.852506 322.156777 
L 320.80068 322.156777 
L 321.748853 323.092328 
L 323.6452 322.572577 
L 324.593373 322.780477 
L 325.541546 322.052827 
L 327.437893 322.364677 
L 328.386066 321.844927 
L 329.33424 321.637027 
L 331.230586 321.948877 
L 332.17876 321.533077 
L 333.126933 321.429127 
L 334.075106 321.533077 
L 335.02328 321.325177 
L 335.971453 320.805428 
L 336.919626 320.077778 
L 337.867799 319.142227 
L 338.815973 318.934327 
L 339.764146 318.414578 
L 340.712319 318.414578 
L 341.660493 317.998777 
L 342.608666 317.998777 
L 344.505013 318.726427 
L 345.453186 319.869877 
L 346.401359 319.973827 
L 347.349533 320.389628 
L 348.297706 319.869877 
L 349.245879 320.285678 
L 350.194053 319.973827 
L 351.142226 319.869877 
L 352.090399 320.181727 
L 353.038573 320.181727 
L 354.934919 319.661977 
L 356.831266 318.206678 
L 357.779439 317.167177 
L 358.727613 316.647427 
L 360.623959 317.167177 
L 361.572133 316.855327 
L 362.520306 316.855327 
L 364.416653 317.582977 
L 365.364826 317.479027 
L 366.312999 318.310628 
L 367.261172 318.518528 
L 368.209346 319.142227 
L 369.157519 318.934327 
L 371.053866 319.142227 
L 372.002039 318.934327 
L 372.950212 319.246177 
L 373.898386 319.038277 
L 375.794732 319.142227 
L 376.742906 318.830377 
L 377.691079 319.142227 
L 380.535599 319.246177 
L 381.483772 318.726427 
L 382.431946 318.934327 
L 383.380119 318.934327 
L 384.328292 319.246177 
L 386.224639 318.622478 
L 387.172812 317.790877 
L 388.120986 317.479027 
L 389.069159 316.543477 
L 390.017332 316.231628 
L 390.965506 316.335577 
L 391.913679 315.919778 
L 392.861852 316.647427 
L 393.810025 316.127678 
L 394.758199 316.751377 
L 396.654545 317.063227 
L 397.602719 318.206678 
L 398.550892 318.830377 
L 399.499065 319.246177 
L 401.395412 319.454077 
L 403.291759 319.246177 
L 404.239932 319.661977 
L 405.188105 319.454077 
L 406.136279 320.181727 
L 407.084452 319.558027 
L 408.032625 319.973827 
L 409.928972 319.869877 
L 410.877145 319.765927 
L 411.825319 320.493578 
L 412.773492 320.285678 
L 413.721665 320.285678 
L 414.669839 320.701478 
L 415.618012 320.285678 
L 416.566185 320.389628 
L 417.514359 320.701478 
L 418.462532 320.389628 
L 419.410705 320.701478 
L 420.358879 320.389628 
L 421.307052 320.597528 
L 422.255225 319.973827 
L 424.151572 318.414578 
L 425.099745 318.830377 
L 426.047918 318.310628 
L 426.996092 318.102728 
L 428.892438 319.038277 
L 429.840612 319.038277 
L 430.788785 320.285678 
L 431.736958 320.701478 
L 432.685132 321.533077 
L 433.633305 320.909378 
L 434.581478 321.429127 
L 435.529652 321.429127 
L 436.477825 320.909378 
L 437.425998 321.533077 
L 438.374172 321.740977 
L 439.322345 321.429127 
L 440.270518 321.948877 
L 442.166865 321.844927 
L 444.063212 322.156777 
L 445.011385 321.533077 
L 445.959558 321.948877 
L 446.907732 321.844927 
L 447.855905 321.533077 
L 448.804078 322.364677 
L 450.700425 322.260727 
L 451.648598 322.468627 
L 452.596771 322.988377 
L 455.441291 321.221227 
L 456.389465 321.325177 
L 457.337638 319.765927 
L 458.285811 319.661977 
L 459.233985 319.765927 
L 460.182158 319.558027 
L 461.130331 319.661977 
L 462.078505 319.350127 
L 463.026678 320.285678 
L 463.974851 320.285678 
L 464.923025 321.740977 
L 465.871198 321.533077 
L 466.819371 322.468627 
L 467.767545 322.572577 
L 468.715718 322.364677 
L 470.612065 322.676527 
L 471.560238 322.364677 
L 472.508411 322.572577 
L 474.404758 322.468627 
L 475.352931 322.676527 
L 476.301105 322.676527 
L 477.249278 322.988377 
L 478.197451 322.988377 
L 479.145624 323.196278 
L 480.093798 322.988377 
L 481.041971 322.572577 
L 481.990144 323.196278 
L 482.938318 322.884428 
L 483.886491 322.884428 
L 484.834664 323.300228 
L 486.731011 323.404178 
L 488.627358 322.988377 
L 489.575531 323.300228 
L 490.523704 323.196278 
L 491.471878 322.676527 
L 492.420051 322.572577 
L 493.368224 322.260727 
L 494.316398 321.429127 
L 495.264571 321.948877 
L 496.212744 321.533077 
L 497.160918 321.429127 
L 498.109091 321.740977 
L 498.109091 321.740977 
" clip-path="url(#pe77c0b3b85)" style="fill: none; stroke: #0000ff; stroke-opacity: 0.5; stroke-width: 1.5; stroke-linecap: square"/>
   </g>
   <g id="line2d_39">
    <path d="M 92.290909 359.059028 
L 93.239082 353.341777 
L 94.187256 363.009127 
L 95.135429 361.657778 
L 96.083602 361.138028 
L 97.979949 361.138028 
L 98.928122 361.865678 
L 99.876296 363.217027 
L 100.824469 363.632828 
L 101.772642 362.593327 
L 102.720816 364.256528 
L 104.617162 364.360478 
L 105.565336 363.944678 
L 106.513509 364.152578 
L 107.461682 364.048628 
L 108.409856 363.736778 
L 109.358029 363.736778 
L 110.306202 364.256528 
L 112.202549 363.528878 
L 113.150722 363.840728 
L 114.098895 363.113077 
L 116.943415 363.320977 
L 117.891589 363.320977 
L 118.839762 362.385427 
L 119.787935 362.801227 
L 120.736109 362.177527 
L 122.632455 362.073577 
L 123.580629 361.761728 
L 124.528802 361.657778 
L 125.476975 361.865678 
L 126.425149 361.034078 
L 127.373322 361.241978 
L 128.321495 360.930127 
L 129.269669 359.994577 
L 130.217842 359.994577 
L 131.166015 361.034078 
L 132.114189 361.241978 
L 134.010535 360.306427 
L 134.958709 360.410377 
L 135.906882 359.059028 
L 136.855055 359.994577 
L 137.803229 359.059028 
L 138.751402 360.202477 
L 139.699575 359.578778 
L 140.647749 359.786677 
L 141.595922 359.370878 
L 142.544095 359.162978 
L 143.492268 359.266928 
L 144.440442 358.539277 
L 145.388615 358.123477 
L 146.336788 359.266928 
L 147.284962 359.059028 
L 148.233135 358.331377 
L 149.181308 358.643228 
L 151.077655 358.019527 
L 152.025828 358.123477 
L 152.974002 357.291877 
L 153.922175 356.252378 
L 154.870348 356.148427 
L 155.818522 355.628677 
L 156.766695 355.732627 
L 157.714868 355.212877 
L 158.663042 355.420777 
L 159.611215 356.044477 
L 160.559388 356.356328 
L 161.507562 356.460278 
L 163.403908 355.940527 
L 166.248428 355.732627 
L 167.196602 355.108927 
L 170.041121 354.901027 
L 170.989295 354.277328 
L 172.885641 353.653627 
L 174.781988 352.302278 
L 175.730161 351.782528 
L 176.678335 351.678578 
L 177.626508 351.262777 
L 178.574681 351.054877 
L 179.522855 351.262777 
L 180.471028 351.990428 
L 181.419201 351.990428 
L 182.367375 351.678578 
L 183.315548 351.678578 
L 185.211895 351.158827 
L 186.160068 350.639077 
L 189.004588 350.015377 
L 189.952761 349.599578 
L 190.900935 349.599578 
L 191.849108 349.287728 
L 192.797281 349.183778 
L 195.641801 347.832427 
L 196.589975 346.688977 
L 197.538148 345.961327 
L 198.486321 344.921828 
L 199.434494 344.921828 
L 200.382668 343.882327 
L 202.279014 343.674427 
L 203.227188 343.778377 
L 204.175361 342.946777 
L 205.123534 342.946777 
L 207.019881 343.570477 
L 207.968054 344.921828 
L 209.864401 344.609978 
L 211.760748 343.570477 
L 214.605268 342.738878 
L 215.553441 342.530978 
L 216.501614 342.530978 
L 218.397961 341.595427 
L 219.346134 341.595427 
L 220.294308 340.244078 
L 221.242481 339.932228 
L 222.190654 338.476927 
L 223.138828 338.476927 
L 226.931521 335.566327 
L 227.879694 336.086077 
L 228.827867 335.358428 
L 229.776041 336.086077 
L 230.724214 336.605827 
L 231.672387 337.333478 
L 232.620561 336.709777 
L 233.568734 336.397927 
L 234.516907 335.462378 
L 236.413254 335.878177 
L 237.361427 335.046578 
L 238.309601 335.254478 
L 240.205947 334.422877 
L 241.154121 334.526827 
L 242.102294 333.799177 
L 243.050467 333.383377 
L 243.998641 332.447828 
L 244.946814 331.720177 
L 245.894987 330.680678 
L 246.843161 330.368828 
L 247.791334 329.849078 
L 248.739507 329.641177 
L 249.687681 329.745127 
L 250.635854 329.121427 
L 253.480374 330.888577 
L 254.428547 331.096477 
L 255.37672 331.616227 
L 256.324894 331.096477 
L 257.273067 331.096477 
L 258.22124 330.888577 
L 259.169414 331.304377 
L 260.117587 331.200427 
L 261.06576 331.304377 
L 262.013934 330.680678 
L 262.962107 330.576728 
L 263.91028 331.512277 
L 264.858454 330.576728 
L 266.7548 331.096477 
L 267.702974 330.472778 
L 269.59932 330.784627 
L 270.547494 330.784627 
L 271.495667 330.160928 
L 272.44384 330.784627 
L 273.392014 330.472778 
L 275.28836 330.472778 
L 276.236534 329.849078 
L 277.184707 329.433277 
L 278.13288 329.329327 
L 279.081054 328.289828 
L 280.029227 327.770078 
L 280.9774 327.458228 
L 281.925573 327.562177 
L 284.770093 326.938477 
L 285.718267 327.042427 
L 286.66644 327.666128 
L 287.614613 328.705627 
L 288.562787 328.809577 
L 289.51096 328.601677 
L 290.459133 328.185878 
L 292.35548 328.497727 
L 294.251827 327.977978 
L 295.2 327.354277 
L 296.148173 327.977978 
L 298.04452 327.250327 
L 298.992693 327.250327 
L 299.940867 326.626627 
L 300.88904 326.418727 
L 301.837213 326.730577 
L 302.785387 326.106877 
L 303.73356 326.418727 
L 305.629907 325.691078 
L 306.57808 325.795028 
L 307.526253 325.379227 
L 308.474427 325.275278 
L 309.4226 324.859477 
L 310.370773 323.716027 
L 312.26712 322.572577 
L 314.163466 322.156777 
L 315.11164 321.637027 
L 316.059813 321.325177 
L 317.007986 321.740977 
L 318.904333 323.092328 
L 319.852506 322.988377 
L 320.80068 323.716027 
L 321.748853 322.988377 
L 322.697026 322.988377 
L 324.593373 322.468627 
L 325.541546 322.988377 
L 326.48972 322.468627 
L 329.33424 322.572577 
L 331.230586 321.844927 
L 332.17876 321.325177 
L 333.126933 321.637027 
L 334.075106 321.221227 
L 335.971453 321.221227 
L 336.919626 320.389628 
L 337.867799 320.181727 
L 338.815973 318.726427 
L 339.764146 319.454077 
L 340.712319 318.726427 
L 341.660493 318.310628 
L 343.556839 318.934327 
L 344.505013 320.077778 
L 345.453186 320.597528 
L 347.349533 320.493578 
L 348.297706 319.765927 
L 349.245879 319.454077 
L 350.194053 320.077778 
L 351.142226 320.181727 
L 352.090399 319.765927 
L 353.038573 319.869877 
L 353.986746 319.454077 
L 354.934919 319.350127 
L 355.883093 318.414578 
L 356.831266 318.310628 
L 357.779439 317.894828 
L 358.727613 317.790877 
L 359.675786 316.751377 
L 360.623959 317.686927 
L 361.572133 317.375077 
L 362.520306 316.855327 
L 363.468479 317.271127 
L 364.416653 318.830377 
L 365.364826 319.246177 
L 366.312999 318.622478 
L 367.261172 318.830377 
L 368.209346 318.414578 
L 372.002039 318.830377 
L 374.846559 318.622478 
L 376.742906 318.934327 
L 378.639252 318.622478 
L 379.587426 318.830377 
L 380.535599 318.830377 
L 381.483772 318.414578 
L 382.431946 318.726427 
L 383.380119 318.102728 
L 384.328292 318.726427 
L 385.276466 318.414578 
L 386.224639 318.310628 
L 387.172812 317.375077 
L 388.120986 316.647427 
L 389.069159 316.751377 
L 390.017332 316.231628 
L 390.965506 316.127678 
L 391.913679 316.335577 
L 392.861852 316.231628 
L 394.758199 316.647427 
L 395.706372 317.271127 
L 396.654545 317.479027 
L 397.602719 319.038277 
L 398.550892 318.830377 
L 399.499065 318.830377 
L 401.395412 319.350127 
L 402.343585 319.142227 
L 403.291759 319.142227 
L 404.239932 318.830377 
L 407.084452 319.038277 
L 408.032625 319.454077 
L 408.980799 319.350127 
L 409.928972 319.765927 
L 410.877145 319.558027 
L 411.825319 319.661977 
L 412.773492 319.350127 
L 413.721665 319.558027 
L 415.618012 319.454077 
L 416.566185 319.869877 
L 417.514359 319.765927 
L 418.462532 320.181727 
L 419.410705 319.765927 
L 420.358879 320.077778 
L 422.255225 319.246177 
L 423.203398 318.414578 
L 424.151572 318.518528 
L 425.099745 317.998777 
L 426.047918 318.622478 
L 426.996092 317.894828 
L 428.892438 318.622478 
L 429.840612 319.350127 
L 430.788785 320.493578 
L 431.736958 320.701478 
L 432.685132 320.701478 
L 434.581478 321.117278 
L 435.529652 320.805428 
L 436.477825 321.013328 
L 437.425998 321.013328 
L 438.374172 320.805428 
L 440.270518 321.325177 
L 441.218692 321.221227 
L 442.166865 320.909378 
L 443.115038 321.221227 
L 444.063212 321.221227 
L 445.959558 321.740977 
L 446.907732 321.637027 
L 448.804078 321.948877 
L 449.752251 321.637027 
L 450.700425 321.637027 
L 452.596771 322.052827 
L 454.493118 321.429127 
L 455.441291 320.805428 
L 456.389465 320.701478 
L 458.285811 319.973827 
L 459.233985 319.350127 
L 461.130331 319.973827 
L 462.078505 320.077778 
L 464.923025 322.364677 
L 465.871198 322.156777 
L 466.819371 322.572577 
L 467.767545 322.260727 
L 469.663891 322.364677 
L 470.612065 322.156777 
L 471.560238 322.572577 
L 472.508411 322.364677 
L 473.456585 322.572577 
L 475.352931 322.364677 
L 476.301105 322.676527 
L 477.249278 322.260727 
L 478.197451 322.468627 
L 479.145624 322.364677 
L 480.093798 321.948877 
L 481.041971 322.676527 
L 481.990144 322.572577 
L 482.938318 322.676527 
L 483.886491 322.468627 
L 484.834664 322.676527 
L 487.679184 322.572577 
L 488.627358 322.364677 
L 489.575531 322.676527 
L 490.523704 322.780477 
L 491.471878 322.156777 
L 493.368224 321.429127 
L 494.316398 321.533077 
L 496.212744 321.013328 
L 497.160918 321.429127 
L 498.109091 322.780477 
L 498.109091 322.780477 
" clip-path="url(#pe77c0b3b85)" style="fill: none; stroke: #0000ff; stroke-opacity: 0.5; stroke-width: 1.5; stroke-linecap: square"/>
   </g>
   <g id="line2d_40">
    <path d="M 92.290909 356.564228 
L 93.239082 356.564228 
L 94.187256 364.048628 
L 95.135429 361.761728 
L 96.083602 360.826177 
L 97.031776 362.593327 
L 97.979949 362.073577 
L 98.928122 361.969628 
L 99.876296 362.281477 
L 100.824469 363.009127 
L 101.772642 362.905177 
L 102.720816 364.048628 
L 103.668989 362.905177 
L 104.617162 363.009127 
L 105.565336 363.736778 
L 106.513509 363.632828 
L 107.461682 364.152578 
L 108.409856 364.048628 
L 109.358029 364.256528 
L 110.306202 363.736778 
L 111.254376 363.632828 
L 112.202549 363.736778 
L 113.150722 363.632828 
L 114.098895 363.113077 
L 115.047069 363.632828 
L 115.995242 363.217027 
L 116.943415 363.528878 
L 117.891589 362.385427 
L 119.787935 363.320977 
L 121.684282 362.073577 
L 123.580629 361.449878 
L 125.476975 361.969628 
L 126.425149 359.786677 
L 127.373322 361.241978 
L 128.321495 360.514327 
L 129.269669 360.722227 
L 130.217842 361.449878 
L 131.166015 361.138028 
L 132.114189 360.410377 
L 133.062362 360.826177 
L 134.010535 360.722227 
L 134.958709 360.202477 
L 135.906882 360.098527 
L 136.855055 359.578778 
L 137.803229 360.618277 
L 138.751402 359.682727 
L 139.699575 359.890627 
L 140.647749 359.578778 
L 142.544095 359.786677 
L 143.492268 359.578778 
L 144.440442 359.578778 
L 145.388615 359.162978 
L 146.336788 359.370878 
L 147.284962 359.162978 
L 148.233135 359.370878 
L 149.181308 358.643228 
L 150.129482 359.266928 
L 151.077655 358.851128 
L 152.025828 358.747178 
L 152.974002 358.227427 
L 153.922175 356.772128 
L 154.870348 356.876078 
L 155.818522 357.187928 
L 156.766695 356.876078 
L 157.714868 356.356328 
L 158.663042 356.252378 
L 159.611215 357.811627 
L 160.559388 356.668178 
L 161.507562 357.395827 
L 162.455735 356.356328 
L 164.352082 356.772128 
L 165.300255 356.356328 
L 166.248428 356.148427 
L 167.196602 355.524727 
L 169.092948 355.628677 
L 173.833815 354.069428 
L 174.781988 353.445727 
L 175.730161 353.133877 
L 176.678335 352.614127 
L 178.574681 352.510177 
L 179.522855 353.029927 
L 181.419201 353.133877 
L 182.367375 352.718077 
L 184.263721 352.406227 
L 186.160068 351.886478 
L 188.056415 351.366728 
L 189.004588 351.054877 
L 189.952761 351.054877 
L 190.900935 350.846977 
L 191.849108 350.431177 
L 194.693628 349.807478 
L 195.641801 349.079828 
L 196.589975 348.040327 
L 198.486321 346.585027 
L 202.279014 345.441577 
L 204.175361 345.129728 
L 205.123534 345.441577 
L 206.071708 346.169227 
L 208.916228 345.545527 
L 209.864401 345.545527 
L 210.812574 344.921828 
L 211.760748 344.921828 
L 212.708921 344.402078 
L 213.657094 344.609978 
L 214.605268 343.778377 
L 215.553441 343.778377 
L 216.501614 343.466527 
L 217.449788 342.946777 
L 218.397961 342.842827 
L 221.242481 341.491477 
L 222.190654 340.867777 
L 223.138828 340.555927 
L 224.087001 339.516427 
L 225.035174 338.892727 
L 226.931521 338.372977 
L 227.879694 338.165077 
L 228.827867 339.204577 
L 229.776041 338.684827 
L 230.724214 338.996677 
L 231.672387 338.372977 
L 232.620561 338.269027 
L 233.568734 337.749278 
L 234.516907 337.749278 
L 235.465081 337.229528 
L 237.361427 336.605827 
L 238.309601 336.086077 
L 242.102294 334.838678 
L 243.050467 334.942628 
L 244.946814 333.383377 
L 245.894987 332.447828 
L 246.843161 331.720177 
L 247.791334 331.720177 
L 248.739507 331.408327 
L 249.687681 330.888577 
L 250.635854 330.992527 
L 251.584027 331.408327 
L 252.532201 332.343877 
L 254.428547 331.824127 
L 255.37672 331.720177 
L 256.324894 331.304377 
L 257.273067 331.304377 
L 258.22124 331.512277 
L 259.169414 331.200427 
L 261.06576 330.992527 
L 262.013934 331.304377 
L 262.962107 330.680678 
L 264.858454 330.784627 
L 269.59932 330.680678 
L 270.547494 330.576728 
L 271.495667 330.888577 
L 272.44384 330.576728 
L 273.392014 330.472778 
L 274.340187 330.576728 
L 276.236534 330.160928 
L 277.184707 330.264878 
L 278.13288 330.160928 
L 279.081054 328.913527 
L 280.029227 328.705627 
L 280.9774 328.185878 
L 282.873747 328.185878 
L 284.770093 328.601677 
L 285.718267 329.017477 
L 286.66644 329.953027 
L 287.614613 329.537227 
L 291.407307 328.809577 
L 293.303653 328.705627 
L 294.251827 328.497727 
L 295.2 328.809577 
L 296.148173 328.185878 
L 298.04452 327.977978 
L 298.992693 327.458228 
L 299.940867 327.770078 
L 300.88904 327.354277 
L 301.837213 327.146377 
L 302.785387 327.250327 
L 303.73356 326.834527 
L 305.629907 326.730577 
L 306.57808 326.210827 
L 307.526253 326.002927 
L 308.474427 325.587128 
L 309.4226 325.483178 
L 310.370773 324.963427 
L 311.318946 324.131827 
L 312.26712 324.027877 
L 313.215293 323.508128 
L 314.163466 323.196278 
L 316.059813 323.196278 
L 317.007986 323.819977 
L 317.95616 324.131827 
L 318.904333 324.131827 
L 319.852506 323.819977 
L 322.697026 323.923927 
L 323.6452 323.508128 
L 324.593373 323.508128 
L 325.541546 322.884428 
L 326.48972 322.884428 
L 329.33424 322.260727 
L 330.282413 322.468627 
L 331.230586 322.468627 
L 332.17876 321.844927 
L 333.126933 321.948877 
L 334.075106 321.533077 
L 335.02328 321.844927 
L 335.971453 321.325177 
L 336.919626 320.181727 
L 337.867799 320.077778 
L 340.712319 318.934327 
L 341.660493 318.726427 
L 342.608666 319.765927 
L 343.556839 320.597528 
L 346.401359 319.765927 
L 349.245879 319.454077 
L 350.194053 319.661977 
L 351.142226 319.246177 
L 352.090399 319.350127 
L 353.038573 318.830377 
L 353.986746 319.246177 
L 354.934919 318.934327 
L 355.883093 318.102728 
L 356.831266 317.479027 
L 357.779439 317.167177 
L 359.675786 316.959277 
L 360.623959 317.063227 
L 361.572133 317.375077 
L 362.520306 317.998777 
L 363.468479 318.414578 
L 364.416653 317.686927 
L 366.312999 317.894828 
L 367.261172 318.310628 
L 368.209346 317.790877 
L 369.157519 317.686927 
L 370.105692 317.894828 
L 371.053866 317.686927 
L 372.950212 317.790877 
L 375.794732 317.271127 
L 382.431946 317.167177 
L 383.380119 317.582977 
L 384.328292 317.271127 
L 385.276466 317.582977 
L 387.172812 315.919778 
L 388.120986 315.815828 
L 390.017332 314.880277 
L 390.965506 314.984227 
L 391.913679 314.880277 
L 393.810025 315.503978 
L 394.758199 316.647427 
L 395.706372 316.855327 
L 396.654545 316.751377 
L 397.602719 316.855327 
L 398.550892 317.167177 
L 400.447239 316.855327 
L 401.395412 317.063227 
L 406.136279 317.063227 
L 407.084452 316.855327 
L 408.032625 317.271127 
L 408.980799 317.167177 
L 409.928972 317.271127 
L 411.825319 317.167177 
L 412.773492 317.271127 
L 413.721665 316.959277 
L 415.618012 317.686927 
L 416.566185 317.167177 
L 418.462532 317.271127 
L 419.410705 317.790877 
L 420.358879 317.375077 
L 421.307052 317.271127 
L 422.255225 316.751377 
L 423.203398 316.647427 
L 424.151572 315.711878 
L 425.099745 316.231628 
L 426.047918 315.815828 
L 426.996092 315.607927 
L 427.944265 316.023728 
L 428.892438 317.167177 
L 429.840612 317.790877 
L 430.788785 318.206678 
L 431.736958 317.998777 
L 432.685132 318.102728 
L 433.633305 317.894828 
L 435.529652 317.790877 
L 436.477825 318.102728 
L 439.322345 318.310628 
L 440.270518 318.726427 
L 441.218692 318.518528 
L 442.166865 318.518528 
L 443.115038 318.726427 
L 444.063212 318.726427 
L 445.011385 318.310628 
L 448.804078 319.038277 
L 449.752251 318.934327 
L 450.700425 319.350127 
L 451.648598 319.038277 
L 453.544945 319.142227 
L 454.493118 318.830377 
L 455.441291 318.934327 
L 456.389465 318.414578 
L 457.337638 317.686927 
L 458.285811 317.582977 
L 459.233985 317.271127 
L 461.130331 317.479027 
L 462.078505 318.310628 
L 463.026678 319.869877 
L 463.974851 319.661977 
L 464.923025 319.765927 
L 465.871198 320.077778 
L 466.819371 319.973827 
L 467.767545 320.181727 
L 468.715718 319.869877 
L 470.612065 320.181727 
L 471.560238 319.869877 
L 472.508411 320.389628 
L 473.456585 319.973827 
L 474.404758 320.389628 
L 476.301105 320.285678 
L 477.249278 320.597528 
L 481.041971 320.597528 
L 481.990144 320.805428 
L 482.938318 320.493578 
L 483.886491 320.805428 
L 484.834664 320.597528 
L 485.782838 321.013328 
L 493.368224 321.013328 
L 494.316398 320.701478 
L 495.264571 320.597528 
L 496.212744 321.429127 
L 497.160918 321.221227 
L 498.109091 321.221227 
L 498.109091 321.221227 
" clip-path="url(#pe77c0b3b85)" style="fill: none; stroke: #0000ff; stroke-opacity: 0.5; stroke-width: 1.5; stroke-linecap: square"/>
   </g>
   <g id="LineCollection_1">
    <path d="M 92.290909 358.851128 
L 92.290909 354.693128 
" clip-path="url(#pe77c0b3b85)" style="fill: none; stroke: #ff0000; stroke-width: 1.5"/>
    <path d="M 130.217842 361.549147 
L 130.217842 360.207158 
" clip-path="url(#pe77c0b3b85)" style="fill: none; stroke: #ff0000; stroke-width: 1.5"/>
    <path d="M 168.144775 355.926285 
L 168.144775 355.071195 
" clip-path="url(#pe77c0b3b85)" style="fill: none; stroke: #ff0000; stroke-width: 1.5"/>
    <path d="M 206.071708 345.786962 
L 206.071708 342.289543 
" clip-path="url(#pe77c0b3b85)" style="fill: none; stroke: #ff0000; stroke-width: 1.5"/>
    <path d="M 243.998641 333.738502 
L 243.998641 331.780853 
" clip-path="url(#pe77c0b3b85)" style="fill: none; stroke: #ff0000; stroke-width: 1.5"/>
    <path d="M 281.925573 328.586269 
L 281.925573 327.213761 
" clip-path="url(#pe77c0b3b85)" style="fill: none; stroke: #ff0000; stroke-width: 1.5"/>
    <path d="M 319.852506 323.594541 
L 319.852506 322.174314 
" clip-path="url(#pe77c0b3b85)" style="fill: none; stroke: #ff0000; stroke-width: 1.5"/>
    <path d="M 357.779439 318.999009 
L 357.779439 316.842621 
" clip-path="url(#pe77c0b3b85)" style="fill: none; stroke: #ff0000; stroke-width: 1.5"/>
    <path d="M 395.706372 319.009288 
L 395.706372 316.312592 
" clip-path="url(#pe77c0b3b85)" style="fill: none; stroke: #ff0000; stroke-width: 1.5"/>
    <path d="M 433.633305 322.001935 
L 433.633305 318.67337 
" clip-path="url(#pe77c0b3b85)" style="fill: none; stroke: #ff0000; stroke-width: 1.5"/>
    <path d="M 471.560238 323.308132 
L 471.560238 320.537648 
" clip-path="url(#pe77c0b3b85)" style="fill: none; stroke: #ff0000; stroke-width: 1.5"/>
   </g>
   <g id="line2d_41">
    <defs>
     <path id="me012df2152" d="M 5 0 
L -5 -0 
" style="stroke: #ff0000"/>
    </defs>
    <g clip-path="url(#pe77c0b3b85)">
     <use xlink:href="#me012df2152" x="92.290909" y="358.851128" style="fill: #ff0000; stroke: #ff0000"/>
     <use xlink:href="#me012df2152" x="130.217842" y="361.549147" style="fill: #ff0000; stroke: #ff0000"/>
     <use xlink:href="#me012df2152" x="168.144775" y="355.926285" style="fill: #ff0000; stroke: #ff0000"/>
     <use xlink:href="#me012df2152" x="206.071708" y="345.786962" style="fill: #ff0000; stroke: #ff0000"/>
     <use xlink:href="#me012df2152" x="243.998641" y="333.738502" style="fill: #ff0000; stroke: #ff0000"/>
     <use xlink:href="#me012df2152" x="281.925573" y="328.586269" style="fill: #ff0000; stroke: #ff0000"/>
     <use xlink:href="#me012df2152" x="319.852506" y="323.594541" style="fill: #ff0000; stroke: #ff0000"/>
     <use xlink:href="#me012df2152" x="357.779439" y="318.999009" style="fill: #ff0000; stroke: #ff0000"/>
     <use xlink:href="#me012df2152" x="395.706372" y="319.009288" style="fill: #ff0000; stroke: #ff0000"/>
     <use xlink:href="#me012df2152" x="433.633305" y="322.001935" style="fill: #ff0000; stroke: #ff0000"/>
     <use xlink:href="#me012df2152" x="471.560238" y="323.308132" style="fill: #ff0000; stroke: #ff0000"/>
    </g>
   </g>
   <g id="line2d_42">
    <g clip-path="url(#pe77c0b3b85)">
     <use xlink:href="#me012df2152" x="92.290909" y="354.693128" style="fill: #ff0000; stroke: #ff0000"/>
     <use xlink:href="#me012df2152" x="130.217842" y="360.207158" style="fill: #ff0000; stroke: #ff0000"/>
     <use xlink:href="#me012df2152" x="168.144775" y="355.071195" style="fill: #ff0000; stroke: #ff0000"/>
     <use xlink:href="#me012df2152" x="206.071708" y="342.289543" style="fill: #ff0000; stroke: #ff0000"/>
     <use xlink:href="#me012df2152" x="243.998641" y="331.780853" style="fill: #ff0000; stroke: #ff0000"/>
     <use xlink:href="#me012df2152" x="281.925573" y="327.213761" style="fill: #ff0000; stroke: #ff0000"/>
     <use xlink:href="#me012df2152" x="319.852506" y="322.174314" style="fill: #ff0000; stroke: #ff0000"/>
     <use xlink:href="#me012df2152" x="357.779439" y="316.842621" style="fill: #ff0000; stroke: #ff0000"/>
     <use xlink:href="#me012df2152" x="395.706372" y="316.312592" style="fill: #ff0000; stroke: #ff0000"/>
     <use xlink:href="#me012df2152" x="433.633305" y="318.67337" style="fill: #ff0000; stroke: #ff0000"/>
     <use xlink:href="#me012df2152" x="471.560238" y="320.537648" style="fill: #ff0000; stroke: #ff0000"/>
    </g>
   </g>
   <g id="line2d_43">
    <path d="M 92.290909 356.772128 
L 130.217842 360.878152 
L 168.144775 355.49874 
L 206.071708 344.038252 
L 243.998641 332.759678 
L 281.925573 327.900015 
L 319.852506 322.884428 
L 357.779439 317.920815 
L 395.706372 317.66094 
L 433.633305 320.337652 
L 471.560238 321.92289 
" clip-path="url(#pe77c0b3b85)" style="fill: none; stroke: #ff0000; stroke-width: 1.5; stroke-linecap: square"/>
   </g>
   <g id="patch_3">
    <path d="M 72 384.48 
L 72 51.84 
" style="fill: none; stroke: #000000; stroke-width: 0.8; stroke-linejoin: miter; stroke-linecap: square"/>
   </g>
   <g id="patch_4">
    <path d="M 518.4 384.48 
L 518.4 51.84 
" style="fill: none; stroke: #000000; stroke-width: 0.8; stroke-linejoin: miter; stroke-linecap: square"/>
   </g>
   <g id="patch_5">
    <path d="M 72 384.48 
L 518.4 384.48 
" style="fill: none; stroke: #000000; stroke-width: 0.8; stroke-linejoin: miter; stroke-linecap: square"/>
   </g>
   <g id="patch_6">
    <path d="M 72 51.84 
L 518.4 51.84 
" style="fill: none; stroke: #000000; stroke-width: 0.8; stroke-linejoin: miter; stroke-linecap: square"/>
   </g>
   <g id="text_21">
    <!-- M37: Aspartat; Isoleucin; Methionin; Histidin; Phenylalanin -->
    <g transform="translate(149.221875 45.84) scale(0.1 -0.1)">
     <defs>
      <path id="DejaVuSans-4d" d="M 628 4666 
L 1569 4666 
L 2759 1491 
L 3956 4666 
L 4897 4666 
L 4897 0 
L 4281 0 
L 4281 4097 
L 3078 897 
L 2444 897 
L 1241 4097 
L 1241 0 
L 628 0 
L 628 4666 
z
" transform="scale(0.015625)"/>
      <path id="DejaVuSans-3a" d="M 750 794 
L 1409 794 
L 1409 0 
L 750 0 
L 750 794 
z
M 750 3309 
L 1409 3309 
L 1409 2516 
L 750 2516 
L 750 3309 
z
" transform="scale(0.015625)"/>
      <path id="DejaVuSans-41" d="M 2188 4044 
L 1331 1722 
L 3047 1722 
L 2188 4044 
z
M 1831 4666 
L 2547 4666 
L 4325 0 
L 3669 0 
L 3244 1197 
L 1141 1197 
L 716 0 
L 50 0 
L 1831 4666 
z
" transform="scale(0.015625)"/>
      <path id="DejaVuSans-70" d="M 1159 525 
L 1159 -1331 
L 581 -1331 
L 581 3500 
L 1159 3500 
L 1159 2969 
Q 1341 3281 1617 3432 
Q 1894 3584 2278 3584 
Q 2916 3584 3314 3078 
Q 3713 2572 3713 1747 
Q 3713 922 3314 415 
Q 2916 -91 2278 -91 
Q 1894 -91 1617 61 
Q 1341 213 1159 525 
z
M 3116 1747 
Q 3116 2381 2855 2742 
Q 2594 3103 2138 3103 
Q 1681 3103 1420 2742 
Q 1159 2381 1159 1747 
Q 1159 1113 1420 752 
Q 1681 391 2138 391 
Q 2594 391 2855 752 
Q 3116 1113 3116 1747 
z
" transform="scale(0.015625)"/>
      <path id="DejaVuSans-3b" d="M 750 3309 
L 1409 3309 
L 1409 2516 
L 750 2516 
L 750 3309 
z
M 750 794 
L 1409 794 
L 1409 256 
L 897 -744 
L 494 -744 
L 750 256 
L 750 794 
z
" transform="scale(0.015625)"/>
      <path id="DejaVuSans-49" d="M 628 4666 
L 1259 4666 
L 1259 0 
L 628 0 
L 628 4666 
z
" transform="scale(0.015625)"/>
      <path id="DejaVuSans-48" d="M 628 4666 
L 1259 4666 
L 1259 2753 
L 3553 2753 
L 3553 4666 
L 4184 4666 
L 4184 0 
L 3553 0 
L 3553 2222 
L 1259 2222 
L 1259 0 
L 628 0 
L 628 4666 
z
" transform="scale(0.015625)"/>
      <path id="DejaVuSans-50" d="M 1259 4147 
L 1259 2394 
L 2053 2394 
Q 2494 2394 2734 2622 
Q 2975 2850 2975 3272 
Q 2975 3691 2734 3919 
Q 2494 4147 2053 4147 
L 1259 4147 
z
M 628 4666 
L 2053 4666 
Q 2838 4666 3239 4311 
Q 3641 3956 3641 3272 
Q 3641 2581 3239 2228 
Q 2838 1875 2053 1875 
L 1259 1875 
L 1259 0 
L 628 0 
L 628 4666 
z
" transform="scale(0.015625)"/>
      <path id="DejaVuSans-79" d="M 2059 -325 
Q 1816 -950 1584 -1140 
Q 1353 -1331 966 -1331 
L 506 -1331 
L 506 -850 
L 844 -850 
Q 1081 -850 1212 -737 
Q 1344 -625 1503 -206 
L 1606 56 
L 191 3500 
L 800 3500 
L 1894 763 
L 2988 3500 
L 3597 3500 
L 2059 -325 
z
" transform="scale(0.015625)"/>
     </defs>
     <use xlink:href="#DejaVuSans-4d"/>
     <use xlink:href="#DejaVuSans-33" x="86.279297"/>
     <use xlink:href="#DejaVuSans-37" x="149.902344"/>
     <use xlink:href="#DejaVuSans-3a" x="213.525391"/>
     <use xlink:href="#DejaVuSans-20" x="247.216797"/>
     <use xlink:href="#DejaVuSans-41" x="279.003906"/>
     <use xlink:href="#DejaVuSans-73" x="347.412109"/>
     <use xlink:href="#DejaVuSans-70" x="399.511719"/>
     <use xlink:href="#DejaVuSans-61" x="462.988281"/>
     <use xlink:href="#DejaVuSans-72" x="524.267578"/>
     <use xlink:href="#DejaVuSans-74" x="565.380859"/>
     <use xlink:href="#DejaVuSans-61" x="604.589844"/>
     <use xlink:href="#DejaVuSans-74" x="665.869141"/>
     <use xlink:href="#DejaVuSans-3b" x="705.078125"/>
     <use xlink:href="#DejaVuSans-20" x="738.769531"/>
     <use xlink:href="#DejaVuSans-49" x="770.556641"/>
     <use xlink:href="#DejaVuSans-73" x="800.048828"/>
     <use xlink:href="#DejaVuSans-6f" x="852.148438"/>
     <use xlink:href="#DejaVuSans-6c" x="913.330078"/>
     <use xlink:href="#DejaVuSans-65" x="941.113281"/>
     <use xlink:href="#DejaVuSans-75" x="1002.636719"/>
     <use xlink:href="#DejaVuSans-63" x="1066.015625"/>
     <use xlink:href="#DejaVuSans-69" x="1120.996094"/>
     <use xlink:href="#DejaVuSans-6e" x="1148.779297"/>
     <use xlink:href="#DejaVuSans-3b" x="1212.158203"/>
     <use xlink:href="#DejaVuSans-20" x="1245.849609"/>
     <use xlink:href="#DejaVuSans-4d" x="1277.636719"/>
     <use xlink:href="#DejaVuSans-65" x="1363.916016"/>
     <use xlink:href="#DejaVuSans-74" x="1425.439453"/>
     <use xlink:href="#DejaVuSans-68" x="1464.648438"/>
     <use xlink:href="#DejaVuSans-69" x="1528.027344"/>
     <use xlink:href="#DejaVuSans-6f" x="1555.810547"/>
     <use xlink:href="#DejaVuSans-6e" x="1616.992188"/>
     <use xlink:href="#DejaVuSans-69" x="1680.371094"/>
     <use xlink:href="#DejaVuSans-6e" x="1708.154297"/>
     <use xlink:href="#DejaVuSans-3b" x="1771.533203"/>
     <use xlink:href="#DejaVuSans-20" x="1805.224609"/>
     <use xlink:href="#DejaVuSans-48" x="1837.011719"/>
     <use xlink:href="#DejaVuSans-69" x="1912.207031"/>
     <use xlink:href="#DejaVuSans-73" x="1939.990234"/>
     <use xlink:href="#DejaVuSans-74" x="1992.089844"/>
     <use xlink:href="#DejaVuSans-69" x="2031.298828"/>
     <use xlink:href="#DejaVuSans-64" x="2059.082031"/>
     <use xlink:href="#DejaVuSans-69" x="2122.558594"/>
     <use xlink:href="#DejaVuSans-6e" x="2150.341797"/>
     <use xlink:href="#DejaVuSans-3b" x="2213.720703"/>
     <use xlink:href="#DejaVuSans-20" x="2247.412109"/>
     <use xlink:href="#DejaVuSans-50" x="2279.199219"/>
     <use xlink:href="#DejaVuSans-68" x="2339.501953"/>
     <use xlink:href="#DejaVuSans-65" x="2402.880859"/>
     <use xlink:href="#DejaVuSans-6e" x="2464.404297"/>
     <use xlink:href="#DejaVuSans-79" x="2527.783203"/>
     <use xlink:href="#DejaVuSans-6c" x="2586.962891"/>
     <use xlink:href="#DejaVuSans-61" x="2614.746094"/>
     <use xlink:href="#DejaVuSans-6c" x="2676.025391"/>
     <use xlink:href="#DejaVuSans-61" x="2703.808594"/>
     <use xlink:href="#DejaVuSans-6e" x="2765.087891"/>
     <use xlink:href="#DejaVuSans-69" x="2828.466797"/>
     <use xlink:href="#DejaVuSans-6e" x="2856.25"/>
    </g>
   </g>
  </g>
 </g>
 <defs>
  <clipPath id="pe77c0b3b85">
   <rect x="72" y="51.84" width="446.4" height="332.64"/>
  </clipPath>
 </defs>
</svg>
