<?xml version="1.0" encoding="utf-8" standalone="no"?>
<!DOCTYPE svg PUBLIC "-//W3C//DTD SVG 1.1//EN"
  "http://www.w3.org/Graphics/SVG/1.1/DTD/svg11.dtd">
<svg xmlns:xlink="http://www.w3.org/1999/xlink" width="576pt" height="432pt" viewBox="0 0 576 432" xmlns="http://www.w3.org/2000/svg" version="1.1">
 <metadata>
  <rdf:RDF xmlns:dc="http://purl.org/dc/elements/1.1/" xmlns:cc="http://creativecommons.org/ns#" xmlns:rdf="http://www.w3.org/1999/02/22-rdf-syntax-ns#">
   <cc:Work>
    <dc:type rdf:resource="http://purl.org/dc/dcmitype/StillImage"/>
    <dc:date>2024-11-12T14:09:20.278402</dc:date>
    <dc:format>image/svg+xml</dc:format>
    <dc:creator>
     <cc:Agent>
      <dc:title>Matplotlib v3.7.5, https://matplotlib.org/</dc:title>
     </cc:Agent>
    </dc:creator>
   </cc:Work>
  </rdf:RDF>
 </metadata>
 <defs>
  <style type="text/css">*{stroke-linejoin: round; stroke-linecap: butt}</style>
 </defs>
 <g id="figure_1">
  <g id="patch_1">
   <path d="M 0 432 
L 576 432 
L 576 0 
L 0 0 
z
" style="fill: #ffffff"/>
  </g>
  <g id="axes_1">
   <g id="patch_2">
    <path d="M 72 384.48 
L 518.4 384.48 
L 518.4 51.84 
L 72 51.84 
z
" style="fill: #ffffff"/>
   </g>
   <g id="matplotlib.axis_1">
    <g id="xtick_1">
     <g id="line2d_1">
      <path d="M 92.290909 384.48 
L 92.290909 51.84 
" clip-path="url(#p513ec62a5d)" style="fill: none; stroke: #b0b0b0; stroke-width: 0.8; stroke-linecap: square"/>
     </g>
     <g id="line2d_2">
      <defs>
       <path id="m4b0e9362af" d="M 0 0 
L 0 3.5 
" style="stroke: #000000; stroke-width: 0.8"/>
      </defs>
      <g>
       <use xlink:href="#m4b0e9362af" x="92.290909" y="384.48" style="stroke: #000000; stroke-width: 0.8"/>
      </g>
     </g>
     <g id="text_1">
      <!-- 0.17 -->
      <g transform="translate(81.158097 399.078438) scale(0.1 -0.1)">
       <defs>
        <path id="DejaVuSans-30" d="M 2034 4250 
Q 1547 4250 1301 3770 
Q 1056 3291 1056 2328 
Q 1056 1369 1301 889 
Q 1547 409 2034 409 
Q 2525 409 2770 889 
Q 3016 1369 3016 2328 
Q 3016 3291 2770 3770 
Q 2525 4250 2034 4250 
z
M 2034 4750 
Q 2819 4750 3233 4129 
Q 3647 3509 3647 2328 
Q 3647 1150 3233 529 
Q 2819 -91 2034 -91 
Q 1250 -91 836 529 
Q 422 1150 422 2328 
Q 422 3509 836 4129 
Q 1250 4750 2034 4750 
z
" transform="scale(0.015625)"/>
        <path id="DejaVuSans-2e" d="M 684 794 
L 1344 794 
L 1344 0 
L 684 0 
L 684 794 
z
" transform="scale(0.015625)"/>
        <path id="DejaVuSans-31" d="M 794 531 
L 1825 531 
L 1825 4091 
L 703 3866 
L 703 4441 
L 1819 4666 
L 2450 4666 
L 2450 531 
L 3481 531 
L 3481 0 
L 794 0 
L 794 531 
z
" transform="scale(0.015625)"/>
        <path id="DejaVuSans-37" d="M 525 4666 
L 3525 4666 
L 3525 4397 
L 1831 0 
L 1172 0 
L 2766 4134 
L 525 4134 
L 525 4666 
z
" transform="scale(0.015625)"/>
       </defs>
       <use xlink:href="#DejaVuSans-30"/>
       <use xlink:href="#DejaVuSans-2e" x="63.623047"/>
       <use xlink:href="#DejaVuSans-31" x="95.410156"/>
       <use xlink:href="#DejaVuSans-37" x="159.033203"/>
      </g>
     </g>
    </g>
    <g id="xtick_2">
     <g id="line2d_3">
      <path d="M 130.217842 384.48 
L 130.217842 51.84 
" clip-path="url(#p513ec62a5d)" style="fill: none; stroke: #b0b0b0; stroke-width: 0.8; stroke-linecap: square"/>
     </g>
     <g id="line2d_4">
      <g>
       <use xlink:href="#m4b0e9362af" x="130.217842" y="384.48" style="stroke: #000000; stroke-width: 0.8"/>
      </g>
     </g>
     <g id="text_2">
      <!-- 6.83 -->
      <g transform="translate(119.085029 399.078438) scale(0.1 -0.1)">
       <defs>
        <path id="DejaVuSans-36" d="M 2113 2584 
Q 1688 2584 1439 2293 
Q 1191 2003 1191 1497 
Q 1191 994 1439 701 
Q 1688 409 2113 409 
Q 2538 409 2786 701 
Q 3034 994 3034 1497 
Q 3034 2003 2786 2293 
Q 2538 2584 2113 2584 
z
M 3366 4563 
L 3366 3988 
Q 3128 4100 2886 4159 
Q 2644 4219 2406 4219 
Q 1781 4219 1451 3797 
Q 1122 3375 1075 2522 
Q 1259 2794 1537 2939 
Q 1816 3084 2150 3084 
Q 2853 3084 3261 2657 
Q 3669 2231 3669 1497 
Q 3669 778 3244 343 
Q 2819 -91 2113 -91 
Q 1303 -91 875 529 
Q 447 1150 447 2328 
Q 447 3434 972 4092 
Q 1497 4750 2381 4750 
Q 2619 4750 2861 4703 
Q 3103 4656 3366 4563 
z
" transform="scale(0.015625)"/>
        <path id="DejaVuSans-38" d="M 2034 2216 
Q 1584 2216 1326 1975 
Q 1069 1734 1069 1313 
Q 1069 891 1326 650 
Q 1584 409 2034 409 
Q 2484 409 2743 651 
Q 3003 894 3003 1313 
Q 3003 1734 2745 1975 
Q 2488 2216 2034 2216 
z
M 1403 2484 
Q 997 2584 770 2862 
Q 544 3141 544 3541 
Q 544 4100 942 4425 
Q 1341 4750 2034 4750 
Q 2731 4750 3128 4425 
Q 3525 4100 3525 3541 
Q 3525 3141 3298 2862 
Q 3072 2584 2669 2484 
Q 3125 2378 3379 2068 
Q 3634 1759 3634 1313 
Q 3634 634 3220 271 
Q 2806 -91 2034 -91 
Q 1263 -91 848 271 
Q 434 634 434 1313 
Q 434 1759 690 2068 
Q 947 2378 1403 2484 
z
M 1172 3481 
Q 1172 3119 1398 2916 
Q 1625 2713 2034 2713 
Q 2441 2713 2670 2916 
Q 2900 3119 2900 3481 
Q 2900 3844 2670 4047 
Q 2441 4250 2034 4250 
Q 1625 4250 1398 4047 
Q 1172 3844 1172 3481 
z
" transform="scale(0.015625)"/>
        <path id="DejaVuSans-33" d="M 2597 2516 
Q 3050 2419 3304 2112 
Q 3559 1806 3559 1356 
Q 3559 666 3084 287 
Q 2609 -91 1734 -91 
Q 1441 -91 1130 -33 
Q 819 25 488 141 
L 488 750 
Q 750 597 1062 519 
Q 1375 441 1716 441 
Q 2309 441 2620 675 
Q 2931 909 2931 1356 
Q 2931 1769 2642 2001 
Q 2353 2234 1838 2234 
L 1294 2234 
L 1294 2753 
L 1863 2753 
Q 2328 2753 2575 2939 
Q 2822 3125 2822 3475 
Q 2822 3834 2567 4026 
Q 2313 4219 1838 4219 
Q 1578 4219 1281 4162 
Q 984 4106 628 3988 
L 628 4550 
Q 988 4650 1302 4700 
Q 1616 4750 1894 4750 
Q 2613 4750 3031 4423 
Q 3450 4097 3450 3541 
Q 3450 3153 3228 2886 
Q 3006 2619 2597 2516 
z
" transform="scale(0.015625)"/>
       </defs>
       <use xlink:href="#DejaVuSans-36"/>
       <use xlink:href="#DejaVuSans-2e" x="63.623047"/>
       <use xlink:href="#DejaVuSans-38" x="95.410156"/>
       <use xlink:href="#DejaVuSans-33" x="159.033203"/>
      </g>
     </g>
    </g>
    <g id="xtick_3">
     <g id="line2d_5">
      <path d="M 168.144775 384.48 
L 168.144775 51.84 
" clip-path="url(#p513ec62a5d)" style="fill: none; stroke: #b0b0b0; stroke-width: 0.8; stroke-linecap: square"/>
     </g>
     <g id="line2d_6">
      <g>
       <use xlink:href="#m4b0e9362af" x="168.144775" y="384.48" style="stroke: #000000; stroke-width: 0.8"/>
      </g>
     </g>
     <g id="text_3">
      <!-- 13.5 -->
      <g transform="translate(157.011962 399.078438) scale(0.1 -0.1)">
       <defs>
        <path id="DejaVuSans-35" d="M 691 4666 
L 3169 4666 
L 3169 4134 
L 1269 4134 
L 1269 2991 
Q 1406 3038 1543 3061 
Q 1681 3084 1819 3084 
Q 2600 3084 3056 2656 
Q 3513 2228 3513 1497 
Q 3513 744 3044 326 
Q 2575 -91 1722 -91 
Q 1428 -91 1123 -41 
Q 819 9 494 109 
L 494 744 
Q 775 591 1075 516 
Q 1375 441 1709 441 
Q 2250 441 2565 725 
Q 2881 1009 2881 1497 
Q 2881 1984 2565 2268 
Q 2250 2553 1709 2553 
Q 1456 2553 1204 2497 
Q 953 2441 691 2322 
L 691 4666 
z
" transform="scale(0.015625)"/>
       </defs>
       <use xlink:href="#DejaVuSans-31"/>
       <use xlink:href="#DejaVuSans-33" x="63.623047"/>
       <use xlink:href="#DejaVuSans-2e" x="127.246094"/>
       <use xlink:href="#DejaVuSans-35" x="159.033203"/>
      </g>
     </g>
    </g>
    <g id="xtick_4">
     <g id="line2d_7">
      <path d="M 206.071708 384.48 
L 206.071708 51.84 
" clip-path="url(#p513ec62a5d)" style="fill: none; stroke: #b0b0b0; stroke-width: 0.8; stroke-linecap: square"/>
     </g>
     <g id="line2d_8">
      <g>
       <use xlink:href="#m4b0e9362af" x="206.071708" y="384.48" style="stroke: #000000; stroke-width: 0.8"/>
      </g>
     </g>
     <g id="text_4">
      <!-- 20.17 -->
      <g transform="translate(191.757645 399.078438) scale(0.1 -0.1)">
       <defs>
        <path id="DejaVuSans-32" d="M 1228 531 
L 3431 531 
L 3431 0 
L 469 0 
L 469 531 
Q 828 903 1448 1529 
Q 2069 2156 2228 2338 
Q 2531 2678 2651 2914 
Q 2772 3150 2772 3378 
Q 2772 3750 2511 3984 
Q 2250 4219 1831 4219 
Q 1534 4219 1204 4116 
Q 875 4013 500 3803 
L 500 4441 
Q 881 4594 1212 4672 
Q 1544 4750 1819 4750 
Q 2544 4750 2975 4387 
Q 3406 4025 3406 3419 
Q 3406 3131 3298 2873 
Q 3191 2616 2906 2266 
Q 2828 2175 2409 1742 
Q 1991 1309 1228 531 
z
" transform="scale(0.015625)"/>
       </defs>
       <use xlink:href="#DejaVuSans-32"/>
       <use xlink:href="#DejaVuSans-30" x="63.623047"/>
       <use xlink:href="#DejaVuSans-2e" x="127.246094"/>
       <use xlink:href="#DejaVuSans-31" x="159.033203"/>
       <use xlink:href="#DejaVuSans-37" x="222.65625"/>
      </g>
     </g>
    </g>
    <g id="xtick_5">
     <g id="line2d_9">
      <path d="M 243.998641 384.48 
L 243.998641 51.84 
" clip-path="url(#p513ec62a5d)" style="fill: none; stroke: #b0b0b0; stroke-width: 0.8; stroke-linecap: square"/>
     </g>
     <g id="line2d_10">
      <g>
       <use xlink:href="#m4b0e9362af" x="243.998641" y="384.48" style="stroke: #000000; stroke-width: 0.8"/>
      </g>
     </g>
     <g id="text_5">
      <!-- 26.83 -->
      <g transform="translate(229.684578 399.078438) scale(0.1 -0.1)">
       <use xlink:href="#DejaVuSans-32"/>
       <use xlink:href="#DejaVuSans-36" x="63.623047"/>
       <use xlink:href="#DejaVuSans-2e" x="127.246094"/>
       <use xlink:href="#DejaVuSans-38" x="159.033203"/>
       <use xlink:href="#DejaVuSans-33" x="222.65625"/>
      </g>
     </g>
    </g>
    <g id="xtick_6">
     <g id="line2d_11">
      <path d="M 281.925573 384.48 
L 281.925573 51.84 
" clip-path="url(#p513ec62a5d)" style="fill: none; stroke: #b0b0b0; stroke-width: 0.8; stroke-linecap: square"/>
     </g>
     <g id="line2d_12">
      <g>
       <use xlink:href="#m4b0e9362af" x="281.925573" y="384.48" style="stroke: #000000; stroke-width: 0.8"/>
      </g>
     </g>
     <g id="text_6">
      <!-- 33.5 -->
      <g transform="translate(270.792761 399.078438) scale(0.1 -0.1)">
       <use xlink:href="#DejaVuSans-33"/>
       <use xlink:href="#DejaVuSans-33" x="63.623047"/>
       <use xlink:href="#DejaVuSans-2e" x="127.246094"/>
       <use xlink:href="#DejaVuSans-35" x="159.033203"/>
      </g>
     </g>
    </g>
    <g id="xtick_7">
     <g id="line2d_13">
      <path d="M 319.852506 384.48 
L 319.852506 51.84 
" clip-path="url(#p513ec62a5d)" style="fill: none; stroke: #b0b0b0; stroke-width: 0.8; stroke-linecap: square"/>
     </g>
     <g id="line2d_14">
      <g>
       <use xlink:href="#m4b0e9362af" x="319.852506" y="384.48" style="stroke: #000000; stroke-width: 0.8"/>
      </g>
     </g>
     <g id="text_7">
      <!-- 40.17 -->
      <g transform="translate(305.538444 399.078438) scale(0.1 -0.1)">
       <defs>
        <path id="DejaVuSans-34" d="M 2419 4116 
L 825 1625 
L 2419 1625 
L 2419 4116 
z
M 2253 4666 
L 3047 4666 
L 3047 1625 
L 3713 1625 
L 3713 1100 
L 3047 1100 
L 3047 0 
L 2419 0 
L 2419 1100 
L 313 1100 
L 313 1709 
L 2253 4666 
z
" transform="scale(0.015625)"/>
       </defs>
       <use xlink:href="#DejaVuSans-34"/>
       <use xlink:href="#DejaVuSans-30" x="63.623047"/>
       <use xlink:href="#DejaVuSans-2e" x="127.246094"/>
       <use xlink:href="#DejaVuSans-31" x="159.033203"/>
       <use xlink:href="#DejaVuSans-37" x="222.65625"/>
      </g>
     </g>
    </g>
    <g id="xtick_8">
     <g id="line2d_15">
      <path d="M 357.779439 384.48 
L 357.779439 51.84 
" clip-path="url(#p513ec62a5d)" style="fill: none; stroke: #b0b0b0; stroke-width: 0.8; stroke-linecap: square"/>
     </g>
     <g id="line2d_16">
      <g>
       <use xlink:href="#m4b0e9362af" x="357.779439" y="384.48" style="stroke: #000000; stroke-width: 0.8"/>
      </g>
     </g>
     <g id="text_8">
      <!-- 46.83 -->
      <g transform="translate(343.465377 399.078438) scale(0.1 -0.1)">
       <use xlink:href="#DejaVuSans-34"/>
       <use xlink:href="#DejaVuSans-36" x="63.623047"/>
       <use xlink:href="#DejaVuSans-2e" x="127.246094"/>
       <use xlink:href="#DejaVuSans-38" x="159.033203"/>
       <use xlink:href="#DejaVuSans-33" x="222.65625"/>
      </g>
     </g>
    </g>
    <g id="xtick_9">
     <g id="line2d_17">
      <path d="M 395.706372 384.48 
L 395.706372 51.84 
" clip-path="url(#p513ec62a5d)" style="fill: none; stroke: #b0b0b0; stroke-width: 0.8; stroke-linecap: square"/>
     </g>
     <g id="line2d_18">
      <g>
       <use xlink:href="#m4b0e9362af" x="395.706372" y="384.48" style="stroke: #000000; stroke-width: 0.8"/>
      </g>
     </g>
     <g id="text_9">
      <!-- 53.5 -->
      <g transform="translate(384.57356 399.078438) scale(0.1 -0.1)">
       <use xlink:href="#DejaVuSans-35"/>
       <use xlink:href="#DejaVuSans-33" x="63.623047"/>
       <use xlink:href="#DejaVuSans-2e" x="127.246094"/>
       <use xlink:href="#DejaVuSans-35" x="159.033203"/>
      </g>
     </g>
    </g>
    <g id="xtick_10">
     <g id="line2d_19">
      <path d="M 433.633305 384.48 
L 433.633305 51.84 
" clip-path="url(#p513ec62a5d)" style="fill: none; stroke: #b0b0b0; stroke-width: 0.8; stroke-linecap: square"/>
     </g>
     <g id="line2d_20">
      <g>
       <use xlink:href="#m4b0e9362af" x="433.633305" y="384.48" style="stroke: #000000; stroke-width: 0.8"/>
      </g>
     </g>
     <g id="text_10">
      <!-- 60.17 -->
      <g transform="translate(419.319243 399.078438) scale(0.1 -0.1)">
       <use xlink:href="#DejaVuSans-36"/>
       <use xlink:href="#DejaVuSans-30" x="63.623047"/>
       <use xlink:href="#DejaVuSans-2e" x="127.246094"/>
       <use xlink:href="#DejaVuSans-31" x="159.033203"/>
       <use xlink:href="#DejaVuSans-37" x="222.65625"/>
      </g>
     </g>
    </g>
    <g id="xtick_11">
     <g id="line2d_21">
      <path d="M 471.560238 384.48 
L 471.560238 51.84 
" clip-path="url(#p513ec62a5d)" style="fill: none; stroke: #b0b0b0; stroke-width: 0.8; stroke-linecap: square"/>
     </g>
     <g id="line2d_22">
      <g>
       <use xlink:href="#m4b0e9362af" x="471.560238" y="384.48" style="stroke: #000000; stroke-width: 0.8"/>
      </g>
     </g>
     <g id="text_11">
      <!-- 66.83 -->
      <g transform="translate(457.246175 399.078438) scale(0.1 -0.1)">
       <use xlink:href="#DejaVuSans-36"/>
       <use xlink:href="#DejaVuSans-36" x="63.623047"/>
       <use xlink:href="#DejaVuSans-2e" x="127.246094"/>
       <use xlink:href="#DejaVuSans-38" x="159.033203"/>
       <use xlink:href="#DejaVuSans-33" x="222.65625"/>
      </g>
     </g>
    </g>
    <g id="text_12">
     <!-- time in hours [h] -->
     <g transform="translate(253.451562 412.756563) scale(0.1 -0.1)">
      <defs>
       <path id="DejaVuSans-74" d="M 1172 4494 
L 1172 3500 
L 2356 3500 
L 2356 3053 
L 1172 3053 
L 1172 1153 
Q 1172 725 1289 603 
Q 1406 481 1766 481 
L 2356 481 
L 2356 0 
L 1766 0 
Q 1100 0 847 248 
Q 594 497 594 1153 
L 594 3053 
L 172 3053 
L 172 3500 
L 594 3500 
L 594 4494 
L 1172 4494 
z
" transform="scale(0.015625)"/>
       <path id="DejaVuSans-69" d="M 603 3500 
L 1178 3500 
L 1178 0 
L 603 0 
L 603 3500 
z
M 603 4863 
L 1178 4863 
L 1178 4134 
L 603 4134 
L 603 4863 
z
" transform="scale(0.015625)"/>
       <path id="DejaVuSans-6d" d="M 3328 2828 
Q 3544 3216 3844 3400 
Q 4144 3584 4550 3584 
Q 5097 3584 5394 3201 
Q 5691 2819 5691 2113 
L 5691 0 
L 5113 0 
L 5113 2094 
Q 5113 2597 4934 2840 
Q 4756 3084 4391 3084 
Q 3944 3084 3684 2787 
Q 3425 2491 3425 1978 
L 3425 0 
L 2847 0 
L 2847 2094 
Q 2847 2600 2669 2842 
Q 2491 3084 2119 3084 
Q 1678 3084 1418 2786 
Q 1159 2488 1159 1978 
L 1159 0 
L 581 0 
L 581 3500 
L 1159 3500 
L 1159 2956 
Q 1356 3278 1631 3431 
Q 1906 3584 2284 3584 
Q 2666 3584 2933 3390 
Q 3200 3197 3328 2828 
z
" transform="scale(0.015625)"/>
       <path id="DejaVuSans-65" d="M 3597 1894 
L 3597 1613 
L 953 1613 
Q 991 1019 1311 708 
Q 1631 397 2203 397 
Q 2534 397 2845 478 
Q 3156 559 3463 722 
L 3463 178 
Q 3153 47 2828 -22 
Q 2503 -91 2169 -91 
Q 1331 -91 842 396 
Q 353 884 353 1716 
Q 353 2575 817 3079 
Q 1281 3584 2069 3584 
Q 2775 3584 3186 3129 
Q 3597 2675 3597 1894 
z
M 3022 2063 
Q 3016 2534 2758 2815 
Q 2500 3097 2075 3097 
Q 1594 3097 1305 2825 
Q 1016 2553 972 2059 
L 3022 2063 
z
" transform="scale(0.015625)"/>
       <path id="DejaVuSans-20" transform="scale(0.015625)"/>
       <path id="DejaVuSans-6e" d="M 3513 2113 
L 3513 0 
L 2938 0 
L 2938 2094 
Q 2938 2591 2744 2837 
Q 2550 3084 2163 3084 
Q 1697 3084 1428 2787 
Q 1159 2491 1159 1978 
L 1159 0 
L 581 0 
L 581 3500 
L 1159 3500 
L 1159 2956 
Q 1366 3272 1645 3428 
Q 1925 3584 2291 3584 
Q 2894 3584 3203 3211 
Q 3513 2838 3513 2113 
z
" transform="scale(0.015625)"/>
       <path id="DejaVuSans-68" d="M 3513 2113 
L 3513 0 
L 2938 0 
L 2938 2094 
Q 2938 2591 2744 2837 
Q 2550 3084 2163 3084 
Q 1697 3084 1428 2787 
Q 1159 2491 1159 1978 
L 1159 0 
L 581 0 
L 581 4863 
L 1159 4863 
L 1159 2956 
Q 1366 3272 1645 3428 
Q 1925 3584 2291 3584 
Q 2894 3584 3203 3211 
Q 3513 2838 3513 2113 
z
" transform="scale(0.015625)"/>
       <path id="DejaVuSans-6f" d="M 1959 3097 
Q 1497 3097 1228 2736 
Q 959 2375 959 1747 
Q 959 1119 1226 758 
Q 1494 397 1959 397 
Q 2419 397 2687 759 
Q 2956 1122 2956 1747 
Q 2956 2369 2687 2733 
Q 2419 3097 1959 3097 
z
M 1959 3584 
Q 2709 3584 3137 3096 
Q 3566 2609 3566 1747 
Q 3566 888 3137 398 
Q 2709 -91 1959 -91 
Q 1206 -91 779 398 
Q 353 888 353 1747 
Q 353 2609 779 3096 
Q 1206 3584 1959 3584 
z
" transform="scale(0.015625)"/>
       <path id="DejaVuSans-75" d="M 544 1381 
L 544 3500 
L 1119 3500 
L 1119 1403 
Q 1119 906 1312 657 
Q 1506 409 1894 409 
Q 2359 409 2629 706 
Q 2900 1003 2900 1516 
L 2900 3500 
L 3475 3500 
L 3475 0 
L 2900 0 
L 2900 538 
Q 2691 219 2414 64 
Q 2138 -91 1772 -91 
Q 1169 -91 856 284 
Q 544 659 544 1381 
z
M 1991 3584 
L 1991 3584 
z
" transform="scale(0.015625)"/>
       <path id="DejaVuSans-72" d="M 2631 2963 
Q 2534 3019 2420 3045 
Q 2306 3072 2169 3072 
Q 1681 3072 1420 2755 
Q 1159 2438 1159 1844 
L 1159 0 
L 581 0 
L 581 3500 
L 1159 3500 
L 1159 2956 
Q 1341 3275 1631 3429 
Q 1922 3584 2338 3584 
Q 2397 3584 2469 3576 
Q 2541 3569 2628 3553 
L 2631 2963 
z
" transform="scale(0.015625)"/>
       <path id="DejaVuSans-73" d="M 2834 3397 
L 2834 2853 
Q 2591 2978 2328 3040 
Q 2066 3103 1784 3103 
Q 1356 3103 1142 2972 
Q 928 2841 928 2578 
Q 928 2378 1081 2264 
Q 1234 2150 1697 2047 
L 1894 2003 
Q 2506 1872 2764 1633 
Q 3022 1394 3022 966 
Q 3022 478 2636 193 
Q 2250 -91 1575 -91 
Q 1294 -91 989 -36 
Q 684 19 347 128 
L 347 722 
Q 666 556 975 473 
Q 1284 391 1588 391 
Q 1994 391 2212 530 
Q 2431 669 2431 922 
Q 2431 1156 2273 1281 
Q 2116 1406 1581 1522 
L 1381 1569 
Q 847 1681 609 1914 
Q 372 2147 372 2553 
Q 372 3047 722 3315 
Q 1072 3584 1716 3584 
Q 2034 3584 2315 3537 
Q 2597 3491 2834 3397 
z
" transform="scale(0.015625)"/>
       <path id="DejaVuSans-5b" d="M 550 4863 
L 1875 4863 
L 1875 4416 
L 1125 4416 
L 1125 -397 
L 1875 -397 
L 1875 -844 
L 550 -844 
L 550 4863 
z
" transform="scale(0.015625)"/>
       <path id="DejaVuSans-5d" d="M 1947 4863 
L 1947 -844 
L 622 -844 
L 622 -397 
L 1369 -397 
L 1369 4416 
L 622 4416 
L 622 4863 
L 1947 4863 
z
" transform="scale(0.015625)"/>
      </defs>
      <use xlink:href="#DejaVuSans-74"/>
      <use xlink:href="#DejaVuSans-69" x="39.208984"/>
      <use xlink:href="#DejaVuSans-6d" x="66.992188"/>
      <use xlink:href="#DejaVuSans-65" x="164.404297"/>
      <use xlink:href="#DejaVuSans-20" x="225.927734"/>
      <use xlink:href="#DejaVuSans-69" x="257.714844"/>
      <use xlink:href="#DejaVuSans-6e" x="285.498047"/>
      <use xlink:href="#DejaVuSans-20" x="348.876953"/>
      <use xlink:href="#DejaVuSans-68" x="380.664062"/>
      <use xlink:href="#DejaVuSans-6f" x="444.042969"/>
      <use xlink:href="#DejaVuSans-75" x="505.224609"/>
      <use xlink:href="#DejaVuSans-72" x="568.603516"/>
      <use xlink:href="#DejaVuSans-73" x="609.716797"/>
      <use xlink:href="#DejaVuSans-20" x="661.816406"/>
      <use xlink:href="#DejaVuSans-5b" x="693.603516"/>
      <use xlink:href="#DejaVuSans-68" x="732.617188"/>
      <use xlink:href="#DejaVuSans-5d" x="795.996094"/>
     </g>
    </g>
   </g>
   <g id="matplotlib.axis_2">
    <g id="ytick_1">
     <g id="line2d_23">
      <path d="M 72 363.69 
L 518.4 363.69 
" clip-path="url(#p513ec62a5d)" style="fill: none; stroke: #b0b0b0; stroke-width: 0.8; stroke-linecap: square"/>
     </g>
     <g id="line2d_24">
      <defs>
       <path id="m2cd38b6d40" d="M 0 0 
L -3.5 0 
" style="stroke: #000000; stroke-width: 0.8"/>
      </defs>
      <g>
       <use xlink:href="#m2cd38b6d40" x="72" y="363.69" style="stroke: #000000; stroke-width: 0.8"/>
      </g>
     </g>
     <g id="text_13">
      <!-- 0.0 -->
      <g transform="translate(49.096875 367.489219) scale(0.1 -0.1)">
       <use xlink:href="#DejaVuSans-30"/>
       <use xlink:href="#DejaVuSans-2e" x="63.623047"/>
       <use xlink:href="#DejaVuSans-30" x="95.410156"/>
      </g>
     </g>
    </g>
    <g id="ytick_2">
     <g id="line2d_25">
      <path d="M 72 311.715 
L 518.4 311.715 
" clip-path="url(#p513ec62a5d)" style="fill: none; stroke: #b0b0b0; stroke-width: 0.8; stroke-linecap: square"/>
     </g>
     <g id="line2d_26">
      <g>
       <use xlink:href="#m2cd38b6d40" x="72" y="311.715" style="stroke: #000000; stroke-width: 0.8"/>
      </g>
     </g>
     <g id="text_14">
      <!-- 0.5 -->
      <g transform="translate(49.096875 315.514219) scale(0.1 -0.1)">
       <use xlink:href="#DejaVuSans-30"/>
       <use xlink:href="#DejaVuSans-2e" x="63.623047"/>
       <use xlink:href="#DejaVuSans-35" x="95.410156"/>
      </g>
     </g>
    </g>
    <g id="ytick_3">
     <g id="line2d_27">
      <path d="M 72 259.74 
L 518.4 259.74 
" clip-path="url(#p513ec62a5d)" style="fill: none; stroke: #b0b0b0; stroke-width: 0.8; stroke-linecap: square"/>
     </g>
     <g id="line2d_28">
      <g>
       <use xlink:href="#m2cd38b6d40" x="72" y="259.74" style="stroke: #000000; stroke-width: 0.8"/>
      </g>
     </g>
     <g id="text_15">
      <!-- 1.0 -->
      <g transform="translate(49.096875 263.539219) scale(0.1 -0.1)">
       <use xlink:href="#DejaVuSans-31"/>
       <use xlink:href="#DejaVuSans-2e" x="63.623047"/>
       <use xlink:href="#DejaVuSans-30" x="95.410156"/>
      </g>
     </g>
    </g>
    <g id="ytick_4">
     <g id="line2d_29">
      <path d="M 72 207.765 
L 518.4 207.765 
" clip-path="url(#p513ec62a5d)" style="fill: none; stroke: #b0b0b0; stroke-width: 0.8; stroke-linecap: square"/>
     </g>
     <g id="line2d_30">
      <g>
       <use xlink:href="#m2cd38b6d40" x="72" y="207.765" style="stroke: #000000; stroke-width: 0.8"/>
      </g>
     </g>
     <g id="text_16">
      <!-- 1.5 -->
      <g transform="translate(49.096875 211.564219) scale(0.1 -0.1)">
       <use xlink:href="#DejaVuSans-31"/>
       <use xlink:href="#DejaVuSans-2e" x="63.623047"/>
       <use xlink:href="#DejaVuSans-35" x="95.410156"/>
      </g>
     </g>
    </g>
    <g id="ytick_5">
     <g id="line2d_31">
      <path d="M 72 155.79 
L 518.4 155.79 
" clip-path="url(#p513ec62a5d)" style="fill: none; stroke: #b0b0b0; stroke-width: 0.8; stroke-linecap: square"/>
     </g>
     <g id="line2d_32">
      <g>
       <use xlink:href="#m2cd38b6d40" x="72" y="155.79" style="stroke: #000000; stroke-width: 0.8"/>
      </g>
     </g>
     <g id="text_17">
      <!-- 2.0 -->
      <g transform="translate(49.096875 159.589219) scale(0.1 -0.1)">
       <use xlink:href="#DejaVuSans-32"/>
       <use xlink:href="#DejaVuSans-2e" x="63.623047"/>
       <use xlink:href="#DejaVuSans-30" x="95.410156"/>
      </g>
     </g>
    </g>
    <g id="ytick_6">
     <g id="line2d_33">
      <path d="M 72 103.815 
L 518.4 103.815 
" clip-path="url(#p513ec62a5d)" style="fill: none; stroke: #b0b0b0; stroke-width: 0.8; stroke-linecap: square"/>
     </g>
     <g id="line2d_34">
      <g>
       <use xlink:href="#m2cd38b6d40" x="72" y="103.815" style="stroke: #000000; stroke-width: 0.8"/>
      </g>
     </g>
     <g id="text_18">
      <!-- 2.5 -->
      <g transform="translate(49.096875 107.614219) scale(0.1 -0.1)">
       <use xlink:href="#DejaVuSans-32"/>
       <use xlink:href="#DejaVuSans-2e" x="63.623047"/>
       <use xlink:href="#DejaVuSans-35" x="95.410156"/>
      </g>
     </g>
    </g>
    <g id="ytick_7">
     <g id="line2d_35">
      <path d="M 72 51.84 
L 518.4 51.84 
" clip-path="url(#p513ec62a5d)" style="fill: none; stroke: #b0b0b0; stroke-width: 0.8; stroke-linecap: square"/>
     </g>
     <g id="line2d_36">
      <g>
       <use xlink:href="#m2cd38b6d40" x="72" y="51.84" style="stroke: #000000; stroke-width: 0.8"/>
      </g>
     </g>
     <g id="text_19">
      <!-- 3.0 -->
      <g transform="translate(49.096875 55.639219) scale(0.1 -0.1)">
       <use xlink:href="#DejaVuSans-33"/>
       <use xlink:href="#DejaVuSans-2e" x="63.623047"/>
       <use xlink:href="#DejaVuSans-30" x="95.410156"/>
      </g>
     </g>
    </g>
    <g id="text_20">
     <!-- blank corrected OD600 -->
     <g transform="translate(43.017187 276.115469) rotate(-90) scale(0.1 -0.1)">
      <defs>
       <path id="DejaVuSans-62" d="M 3116 1747 
Q 3116 2381 2855 2742 
Q 2594 3103 2138 3103 
Q 1681 3103 1420 2742 
Q 1159 2381 1159 1747 
Q 1159 1113 1420 752 
Q 1681 391 2138 391 
Q 2594 391 2855 752 
Q 3116 1113 3116 1747 
z
M 1159 2969 
Q 1341 3281 1617 3432 
Q 1894 3584 2278 3584 
Q 2916 3584 3314 3078 
Q 3713 2572 3713 1747 
Q 3713 922 3314 415 
Q 2916 -91 2278 -91 
Q 1894 -91 1617 61 
Q 1341 213 1159 525 
L 1159 0 
L 581 0 
L 581 4863 
L 1159 4863 
L 1159 2969 
z
" transform="scale(0.015625)"/>
       <path id="DejaVuSans-6c" d="M 603 4863 
L 1178 4863 
L 1178 0 
L 603 0 
L 603 4863 
z
" transform="scale(0.015625)"/>
       <path id="DejaVuSans-61" d="M 2194 1759 
Q 1497 1759 1228 1600 
Q 959 1441 959 1056 
Q 959 750 1161 570 
Q 1363 391 1709 391 
Q 2188 391 2477 730 
Q 2766 1069 2766 1631 
L 2766 1759 
L 2194 1759 
z
M 3341 1997 
L 3341 0 
L 2766 0 
L 2766 531 
Q 2569 213 2275 61 
Q 1981 -91 1556 -91 
Q 1019 -91 701 211 
Q 384 513 384 1019 
Q 384 1609 779 1909 
Q 1175 2209 1959 2209 
L 2766 2209 
L 2766 2266 
Q 2766 2663 2505 2880 
Q 2244 3097 1772 3097 
Q 1472 3097 1187 3025 
Q 903 2953 641 2809 
L 641 3341 
Q 956 3463 1253 3523 
Q 1550 3584 1831 3584 
Q 2591 3584 2966 3190 
Q 3341 2797 3341 1997 
z
" transform="scale(0.015625)"/>
       <path id="DejaVuSans-6b" d="M 581 4863 
L 1159 4863 
L 1159 1991 
L 2875 3500 
L 3609 3500 
L 1753 1863 
L 3688 0 
L 2938 0 
L 1159 1709 
L 1159 0 
L 581 0 
L 581 4863 
z
" transform="scale(0.015625)"/>
       <path id="DejaVuSans-63" d="M 3122 3366 
L 3122 2828 
Q 2878 2963 2633 3030 
Q 2388 3097 2138 3097 
Q 1578 3097 1268 2742 
Q 959 2388 959 1747 
Q 959 1106 1268 751 
Q 1578 397 2138 397 
Q 2388 397 2633 464 
Q 2878 531 3122 666 
L 3122 134 
Q 2881 22 2623 -34 
Q 2366 -91 2075 -91 
Q 1284 -91 818 406 
Q 353 903 353 1747 
Q 353 2603 823 3093 
Q 1294 3584 2113 3584 
Q 2378 3584 2631 3529 
Q 2884 3475 3122 3366 
z
" transform="scale(0.015625)"/>
       <path id="DejaVuSans-64" d="M 2906 2969 
L 2906 4863 
L 3481 4863 
L 3481 0 
L 2906 0 
L 2906 525 
Q 2725 213 2448 61 
Q 2172 -91 1784 -91 
Q 1150 -91 751 415 
Q 353 922 353 1747 
Q 353 2572 751 3078 
Q 1150 3584 1784 3584 
Q 2172 3584 2448 3432 
Q 2725 3281 2906 2969 
z
M 947 1747 
Q 947 1113 1208 752 
Q 1469 391 1925 391 
Q 2381 391 2643 752 
Q 2906 1113 2906 1747 
Q 2906 2381 2643 2742 
Q 2381 3103 1925 3103 
Q 1469 3103 1208 2742 
Q 947 2381 947 1747 
z
" transform="scale(0.015625)"/>
       <path id="DejaVuSans-4f" d="M 2522 4238 
Q 1834 4238 1429 3725 
Q 1025 3213 1025 2328 
Q 1025 1447 1429 934 
Q 1834 422 2522 422 
Q 3209 422 3611 934 
Q 4013 1447 4013 2328 
Q 4013 3213 3611 3725 
Q 3209 4238 2522 4238 
z
M 2522 4750 
Q 3503 4750 4090 4092 
Q 4678 3434 4678 2328 
Q 4678 1225 4090 567 
Q 3503 -91 2522 -91 
Q 1538 -91 948 565 
Q 359 1222 359 2328 
Q 359 3434 948 4092 
Q 1538 4750 2522 4750 
z
" transform="scale(0.015625)"/>
       <path id="DejaVuSans-44" d="M 1259 4147 
L 1259 519 
L 2022 519 
Q 2988 519 3436 956 
Q 3884 1394 3884 2338 
Q 3884 3275 3436 3711 
Q 2988 4147 2022 4147 
L 1259 4147 
z
M 628 4666 
L 1925 4666 
Q 3281 4666 3915 4102 
Q 4550 3538 4550 2338 
Q 4550 1131 3912 565 
Q 3275 0 1925 0 
L 628 0 
L 628 4666 
z
" transform="scale(0.015625)"/>
      </defs>
      <use xlink:href="#DejaVuSans-62"/>
      <use xlink:href="#DejaVuSans-6c" x="63.476562"/>
      <use xlink:href="#DejaVuSans-61" x="91.259766"/>
      <use xlink:href="#DejaVuSans-6e" x="152.539062"/>
      <use xlink:href="#DejaVuSans-6b" x="215.917969"/>
      <use xlink:href="#DejaVuSans-20" x="273.828125"/>
      <use xlink:href="#DejaVuSans-63" x="305.615234"/>
      <use xlink:href="#DejaVuSans-6f" x="360.595703"/>
      <use xlink:href="#DejaVuSans-72" x="421.777344"/>
      <use xlink:href="#DejaVuSans-72" x="461.140625"/>
      <use xlink:href="#DejaVuSans-65" x="500.003906"/>
      <use xlink:href="#DejaVuSans-63" x="561.527344"/>
      <use xlink:href="#DejaVuSans-74" x="616.507812"/>
      <use xlink:href="#DejaVuSans-65" x="655.716797"/>
      <use xlink:href="#DejaVuSans-64" x="717.240234"/>
      <use xlink:href="#DejaVuSans-20" x="780.716797"/>
      <use xlink:href="#DejaVuSans-4f" x="812.503906"/>
      <use xlink:href="#DejaVuSans-44" x="891.214844"/>
      <use xlink:href="#DejaVuSans-36" x="968.216797"/>
      <use xlink:href="#DejaVuSans-30" x="1031.839844"/>
      <use xlink:href="#DejaVuSans-30" x="1095.462891"/>
     </g>
    </g>
   </g>
   <g id="line2d_37">
    <path d="M 92.290909 361.586052 
L 93.239082 369.694152 
L 94.187256 367.719102 
L 95.135429 367.719102 
L 96.083602 368.134902 
L 97.031776 367.719102 
L 97.979949 367.927002 
L 98.928122 369.070452 
L 99.876296 369.590202 
L 101.772642 369.902052 
L 102.720816 369.486252 
L 104.617162 370.317852 
L 106.513509 369.486252 
L 107.461682 369.902052 
L 108.409856 367.823052 
L 109.358029 369.486252 
L 110.306202 369.278352 
L 111.254376 369.798102 
L 112.202549 368.862552 
L 113.150722 369.694152 
L 115.047069 368.654652 
L 115.995242 369.278352 
L 116.943415 369.070452 
L 117.891589 369.278352 
L 118.839762 368.758602 
L 119.787935 367.615152 
L 120.736109 368.758602 
L 122.632455 369.486252 
L 123.580629 368.758602 
L 128.321495 368.758602 
L 129.269669 368.134902 
L 130.217842 367.927002 
L 131.166015 366.263802 
L 132.114189 368.134902 
L 133.062362 367.719102 
L 134.010535 366.991452 
L 134.958709 367.719102 
L 135.906882 367.615152 
L 136.855055 367.199352 
L 137.803229 367.719102 
L 138.751402 367.719102 
L 140.647749 366.991452 
L 141.595922 366.991452 
L 142.544095 366.679602 
L 145.388615 366.575652 
L 146.336788 366.263802 
L 147.284962 366.471702 
L 148.233135 366.055902 
L 149.181308 365.224302 
L 150.129482 365.744052 
L 151.077655 365.744052 
L 152.025828 364.080852 
L 152.974002 365.432202 
L 153.922175 365.016402 
L 156.766695 364.912452 
L 157.714868 364.808502 
L 158.663042 364.288752 
L 159.611215 364.080852 
L 161.507562 364.080852 
L 163.403908 363.561102 
L 164.352082 363.561102 
L 165.300255 363.041352 
L 166.248428 362.729502 
L 167.196602 362.833452 
L 169.092948 362.521602 
L 170.041121 362.209752 
L 171.937468 362.209752 
L 173.833815 361.586052 
L 174.781988 361.066302 
L 175.730161 360.858402 
L 176.678335 360.858402 
L 177.626508 360.650502 
L 178.574681 361.066302 
L 179.522855 360.338652 
L 180.471028 360.234702 
L 181.419201 359.714952 
L 182.367375 359.922852 
L 183.315548 359.714952 
L 184.263721 358.987302 
L 185.211895 359.507052 
L 186.160068 358.987302 
L 187.108241 359.195202 
L 188.056415 358.779402 
L 189.952761 358.467552 
L 190.900935 357.843852 
L 191.849108 357.428052 
L 192.797281 357.635952 
L 194.693628 357.532002 
L 195.641801 356.180652 
L 196.589975 356.492502 
L 198.486321 355.660902 
L 199.434494 356.180652 
L 200.382668 355.868802 
L 201.330841 356.076702 
L 202.279014 355.868802 
L 203.227188 355.349052 
L 204.175361 355.556952 
L 205.123534 355.453002 
L 206.071708 355.037202 
L 207.019881 354.829302 
L 207.968054 354.933252 
L 208.916228 354.829302 
L 209.864401 354.205602 
L 210.812574 354.621402 
L 211.760748 354.309552 
L 218.397961 353.685852 
L 219.346134 353.270052 
L 221.242481 353.374002 
L 222.190654 353.062152 
L 223.138828 353.374002 
L 224.087001 352.958202 
L 225.035174 352.334502 
L 225.983347 353.062152 
L 226.931521 352.750302 
L 228.827867 352.750302 
L 229.776041 352.542402 
L 230.724214 352.958202 
L 231.672387 352.126602 
L 232.620561 352.334502 
L 233.568734 352.126602 
L 234.516907 352.230552 
L 235.465081 351.814752 
L 236.413254 351.710802 
L 237.361427 351.398952 
L 238.309601 351.606852 
L 239.257774 351.295002 
L 240.205947 351.606852 
L 241.154121 351.191052 
L 242.102294 350.983152 
L 243.050467 351.087102 
L 244.946814 350.359452 
L 245.894987 350.463402 
L 247.791334 350.359452 
L 248.739507 350.463402 
L 251.584027 349.735752 
L 252.532201 349.216002 
L 253.480374 349.735752 
L 254.428547 349.735752 
L 255.37672 349.216002 
L 256.324894 349.319952 
L 258.22124 349.216002 
L 259.169414 348.696252 
L 261.06576 349.008102 
L 262.013934 349.008102 
L 263.91028 348.488352 
L 264.858454 348.696252 
L 268.651147 347.448852 
L 269.59932 348.072552 
L 271.495667 348.072552 
L 272.44384 347.760702 
L 273.392014 347.968602 
L 276.236534 346.929102 
L 277.184707 347.240952 
L 279.081054 347.344902 
L 280.029227 346.929102 
L 280.9774 346.929102 
L 281.925573 347.137002 
L 282.873747 346.409352 
L 283.82192 347.033052 
L 284.770093 346.305402 
L 285.718267 346.721202 
L 286.66644 346.825152 
L 287.614613 347.137002 
L 288.562787 346.097502 
L 289.51096 346.825152 
L 290.459133 346.305402 
L 291.407307 346.201452 
L 292.35548 345.577752 
L 293.303653 346.097502 
L 294.251827 345.473802 
L 295.2 345.681702 
L 298.04452 345.161952 
L 299.940867 345.473802 
L 300.88904 345.058002 
L 302.785387 345.161952 
L 303.73356 344.746152 
L 306.57808 344.642202 
L 308.474427 344.018502 
L 310.370773 343.914552 
L 311.318946 343.498752 
L 312.26712 343.394802 
L 313.215293 343.914552 
L 314.163466 343.810602 
L 315.11164 344.122452 
L 316.059813 343.186902 
L 317.007986 343.186902 
L 317.95616 342.979002 
L 318.904333 343.082952 
L 319.852506 342.875052 
L 321.748853 343.082952 
L 322.697026 342.771102 
L 323.6452 342.875052 
L 324.593373 342.251352 
L 326.48972 342.979002 
L 327.437893 342.147402 
L 328.386066 342.355302 
L 329.33424 341.939502 
L 332.17876 342.667152 
L 333.126933 341.731602 
L 335.02328 341.315802 
L 335.971453 341.627652 
L 336.919626 341.211852 
L 337.867799 341.107902 
L 338.815973 341.731602 
L 339.764146 341.211852 
L 340.712319 341.315802 
L 343.556839 340.900002 
L 344.505013 341.315802 
L 345.453186 340.692102 
L 346.401359 340.692102 
L 347.349533 340.484202 
L 348.297706 340.588152 
L 349.245879 340.380252 
L 350.194053 340.588152 
L 351.142226 339.548652 
L 353.038573 339.860502 
L 353.986746 339.756552 
L 354.934919 339.132852 
L 355.883093 339.548652 
L 356.831266 338.924952 
L 357.779439 339.028902 
L 358.727613 338.509152 
L 360.623959 338.509152 
L 361.572133 338.301252 
L 362.520306 338.821002 
L 364.416653 337.677552 
L 366.312999 337.781502 
L 367.261172 337.365702 
L 368.209346 337.573602 
L 369.157519 337.469652 
L 370.105692 337.781502 
L 371.053866 337.261752 
L 372.002039 337.573602 
L 372.950212 337.157802 
L 373.898386 337.157802 
L 374.846559 337.365702 
L 375.794732 337.053852 
L 376.742906 336.534102 
L 377.691079 336.534102 
L 378.639252 336.742002 
L 379.587426 336.742002 
L 380.535599 336.534102 
L 381.483772 336.742002 
L 382.431946 336.222252 
L 383.380119 336.534102 
L 384.328292 335.910402 
L 385.276466 336.430152 
L 387.172812 335.910402 
L 389.069159 335.286702 
L 390.017332 336.118302 
L 390.965506 336.222252 
L 391.913679 335.494602 
L 392.861852 335.806452 
L 393.810025 335.494602 
L 395.706372 335.494602 
L 396.654545 336.118302 
L 397.602719 335.078802 
L 400.447239 335.286702 
L 402.343585 334.766952 
L 403.291759 335.078802 
L 404.239932 334.870902 
L 407.084452 335.078802 
L 408.032625 335.494602 
L 408.980799 334.870902 
L 409.928972 334.455102 
L 410.877145 335.078802 
L 412.773492 334.663002 
L 413.721665 334.247202 
L 414.669839 335.078802 
L 415.618012 334.455102 
L 417.514359 334.351152 
L 418.462532 334.247202 
L 419.410705 334.663002 
L 420.358879 334.870902 
L 421.307052 334.143252 
L 423.203398 333.935352 
L 425.099745 334.559052 
L 426.047918 333.935352 
L 426.996092 334.039302 
L 427.944265 334.559052 
L 430.788785 334.247202 
L 431.736958 334.455102 
L 433.633305 333.519552 
L 434.581478 334.247202 
L 435.529652 333.415602 
L 436.477825 333.831402 
L 437.425998 334.039302 
L 438.374172 333.623502 
L 439.322345 334.143252 
L 441.218692 333.519552 
L 442.166865 333.935352 
L 444.063212 334.143252 
L 445.011385 333.623502 
L 446.907732 333.623502 
L 447.855905 333.935352 
L 448.804078 333.415602 
L 449.752251 333.831402 
L 450.700425 333.831402 
L 451.648598 334.351152 
L 452.596771 333.935352 
L 453.544945 333.727452 
L 454.493118 333.831402 
L 455.441291 334.663002 
L 456.389465 334.143252 
L 457.337638 333.415602 
L 458.285811 333.727452 
L 459.233985 333.623502 
L 460.182158 333.727452 
L 461.130331 333.311652 
L 462.078505 333.831402 
L 463.026678 334.143252 
L 463.974851 333.311652 
L 465.871198 333.935352 
L 466.819371 334.039302 
L 467.767545 334.455102 
L 468.715718 334.559052 
L 469.663891 333.935352 
L 470.612065 334.039302 
L 471.560238 333.623502 
L 472.508411 334.039302 
L 473.456585 333.519552 
L 474.404758 333.623502 
L 475.352931 334.143252 
L 476.301105 333.831402 
L 477.249278 333.727452 
L 478.197451 334.455102 
L 479.145624 334.143252 
L 480.093798 334.143252 
L 481.041971 333.519552 
L 482.938318 334.247202 
L 483.886491 334.247202 
L 484.834664 334.039302 
L 485.782838 334.247202 
L 486.731011 334.143252 
L 487.679184 334.247202 
L 488.627358 333.831402 
L 490.523704 334.143252 
L 491.471878 333.727452 
L 493.368224 334.455102 
L 494.316398 334.247202 
L 496.212744 334.455102 
L 497.160918 334.247202 
L 498.109091 333.831402 
L 498.109091 333.831402 
" clip-path="url(#p513ec62a5d)" style="fill: none; stroke: #0000ff; stroke-opacity: 0.5; stroke-width: 1.5; stroke-linecap: square"/>
   </g>
   <g id="line2d_38">
    <path d="M 92.290909 357.739902 
L 93.239082 371.565252 
L 94.187256 369.590202 
L 95.135429 368.758602 
L 97.031776 368.758602 
L 97.979949 369.278352 
L 98.928122 369.486252 
L 99.876296 370.525752 
L 100.824469 370.837602 
L 101.772642 370.629702 
L 102.720816 370.629702 
L 103.668989 370.941552 
L 104.617162 370.837602 
L 105.565336 371.045502 
L 106.513509 370.941552 
L 107.461682 370.421802 
L 108.409856 370.837602 
L 109.358029 369.798102 
L 110.306202 370.525752 
L 112.202549 370.629702 
L 113.150722 370.109952 
L 115.047069 370.629702 
L 115.995242 369.902052 
L 116.943415 370.213902 
L 117.891589 370.317852 
L 118.839762 369.902052 
L 119.787935 369.902052 
L 120.736109 369.694152 
L 121.684282 369.902052 
L 122.632455 368.966502 
L 123.580629 369.902052 
L 124.528802 369.902052 
L 125.476975 369.174402 
L 126.425149 368.966502 
L 127.373322 368.342802 
L 128.321495 367.511202 
L 129.269669 367.407252 
L 130.217842 369.382302 
L 132.114189 369.278352 
L 133.062362 368.758602 
L 134.010535 368.550702 
L 134.958709 368.550702 
L 135.906882 368.238852 
L 136.855055 368.342802 
L 138.751402 367.823052 
L 139.699575 367.407252 
L 143.492268 367.823052 
L 144.440442 367.303302 
L 147.284962 367.303302 
L 149.181308 366.159852 
L 150.129482 366.471702 
L 151.077655 366.367752 
L 152.025828 366.055902 
L 152.974002 365.016402 
L 153.922175 363.353202 
L 154.870348 363.769002 
L 156.766695 362.937402 
L 157.714868 362.937402 
L 158.663042 362.729502 
L 159.611215 363.249252 
L 160.559388 364.288752 
L 161.507562 365.016402 
L 162.455735 364.704552 
L 166.248428 364.288752 
L 167.196602 363.665052 
L 168.144775 363.665052 
L 169.092948 363.872952 
L 170.041121 363.561102 
L 170.989295 363.457152 
L 171.937468 362.729502 
L 172.885641 362.313702 
L 173.833815 361.690002 
L 174.781988 360.858402 
L 176.678335 360.130752 
L 177.626508 359.818902 
L 178.574681 359.299152 
L 180.471028 359.611002 
L 181.419201 360.338652 
L 183.315548 361.274202 
L 184.263721 360.858402 
L 185.211895 360.858402 
L 186.160068 360.650502 
L 187.108241 360.650502 
L 188.056415 360.234702 
L 189.952761 360.130752 
L 191.849108 359.403102 
L 192.797281 359.299152 
L 194.693628 358.779402 
L 195.641801 358.051752 
L 196.589975 356.804352 
L 198.486321 356.076702 
L 199.434494 355.141152 
L 200.382668 354.725352 
L 201.330841 354.725352 
L 202.279014 353.789802 
L 203.227188 353.893752 
L 206.071708 353.477952 
L 207.968054 354.517452 
L 208.916228 355.453002 
L 209.864401 355.972752 
L 210.812574 355.660902 
L 211.760748 356.284602 
L 212.708921 355.972752 
L 213.657094 355.972752 
L 214.605268 356.180652 
L 217.449788 355.660902 
L 218.397961 355.660902 
L 219.346134 355.245102 
L 220.294308 355.245102 
L 222.190654 353.997702 
L 223.138828 353.893752 
L 224.087001 352.958202 
L 226.931521 352.126602 
L 227.879694 352.230552 
L 228.827867 352.022652 
L 229.776041 352.230552 
L 230.724214 352.750302 
L 231.672387 353.477952 
L 232.620561 353.997702 
L 233.568734 354.101652 
L 235.465081 353.685852 
L 236.413254 353.685852 
L 237.361427 353.477952 
L 238.309601 353.477952 
L 239.257774 353.166102 
L 240.205947 353.166102 
L 241.154121 353.374002 
L 243.050467 352.750302 
L 244.946814 351.087102 
L 245.894987 350.671302 
L 246.843161 350.463402 
L 247.791334 349.735752 
L 248.739507 349.839702 
L 250.635854 349.527852 
L 251.584027 348.800202 
L 252.532201 348.904152 
L 253.480374 349.735752 
L 255.37672 350.463402 
L 256.324894 350.879202 
L 259.169414 351.398952 
L 260.117587 350.671302 
L 262.013934 350.775252 
L 262.962107 350.255502 
L 263.91028 350.567352 
L 264.858454 350.255502 
L 266.7548 350.567352 
L 267.702974 349.839702 
L 269.59932 350.151552 
L 270.547494 349.735752 
L 271.495667 349.943652 
L 273.392014 349.423902 
L 274.340187 349.527852 
L 275.28836 349.319952 
L 276.236534 349.423902 
L 277.184707 348.904152 
L 279.081054 347.344902 
L 280.029227 347.137002 
L 280.9774 346.513302 
L 281.925573 346.721202 
L 282.873747 346.201452 
L 283.82192 345.993552 
L 284.770093 345.993552 
L 285.718267 346.305402 
L 286.66644 346.305402 
L 288.562787 347.448852 
L 289.51096 347.656752 
L 291.407307 348.384402 
L 292.35548 348.072552 
L 293.303653 348.280452 
L 295.2 347.760702 
L 297.096347 347.448852 
L 298.04452 347.656752 
L 298.992693 347.448852 
L 299.940867 347.448852 
L 300.88904 347.137002 
L 301.837213 347.033052 
L 302.785387 347.552802 
L 303.73356 347.448852 
L 305.629907 346.721202 
L 306.57808 346.929102 
L 307.526253 346.305402 
L 309.4226 345.577752 
L 311.318946 344.434302 
L 312.26712 343.602702 
L 313.215293 343.290852 
L 315.11164 343.394802 
L 317.007986 342.875052 
L 318.904333 343.498752 
L 319.852506 344.330352 
L 321.748853 345.058002 
L 322.697026 345.058002 
L 323.6452 344.850102 
L 324.593373 345.058002 
L 325.541546 344.434302 
L 326.48972 344.642202 
L 327.437893 344.642202 
L 328.386066 344.434302 
L 329.33424 344.018502 
L 330.282413 344.434302 
L 331.230586 344.226402 
L 332.17876 344.330352 
L 333.126933 343.810602 
L 334.075106 343.914552 
L 335.971453 343.810602 
L 336.919626 343.082952 
L 337.867799 342.147402 
L 338.815973 341.939502 
L 339.764146 341.315802 
L 340.712319 341.523702 
L 342.608666 340.900002 
L 343.556839 341.523702 
L 344.505013 342.667152 
L 345.453186 342.875052 
L 346.401359 342.563202 
L 347.349533 343.186902 
L 348.297706 342.771102 
L 349.245879 342.771102 
L 350.194053 342.979002 
L 351.142226 342.563202 
L 353.986746 342.875052 
L 355.883093 341.627652 
L 356.831266 340.692102 
L 358.727613 339.340752 
L 359.675786 339.236802 
L 360.623959 339.444702 
L 361.572133 338.924952 
L 362.520306 339.236802 
L 363.468479 339.028902 
L 364.416653 340.068402 
L 365.364826 339.756552 
L 366.312999 340.276302 
L 367.261172 340.172352 
L 368.209346 340.588152 
L 371.053866 340.068402 
L 372.002039 339.548652 
L 372.950212 339.964452 
L 373.898386 339.548652 
L 374.846559 339.860502 
L 375.794732 339.340752 
L 376.742906 339.028902 
L 377.691079 339.548652 
L 378.639252 339.132852 
L 379.587426 338.924952 
L 380.535599 339.340752 
L 381.483772 339.132852 
L 382.431946 338.405202 
L 383.380119 338.717052 
L 384.328292 338.405202 
L 385.276466 338.717052 
L 386.224639 338.197302 
L 387.172812 337.261752 
L 389.069159 335.806452 
L 390.017332 335.598552 
L 390.965506 335.806452 
L 391.913679 335.286702 
L 392.861852 335.702502 
L 393.810025 335.286702 
L 394.758199 335.702502 
L 396.654545 336.222252 
L 397.602719 337.157802 
L 398.550892 337.261752 
L 399.499065 337.677552 
L 400.447239 337.573602 
L 401.395412 337.053852 
L 402.343585 336.949902 
L 404.239932 337.261752 
L 405.188105 337.053852 
L 406.136279 337.677552 
L 407.084452 336.845952 
L 408.032625 337.469652 
L 408.980799 337.053852 
L 409.928972 337.157802 
L 410.877145 336.845952 
L 411.825319 337.469652 
L 412.773492 337.053852 
L 413.721665 337.053852 
L 414.669839 337.573602 
L 415.618012 336.534102 
L 416.566185 336.638052 
L 417.514359 336.949902 
L 418.462532 336.845952 
L 420.358879 336.222252 
L 421.307052 336.326202 
L 423.203398 334.974852 
L 424.151572 334.247202 
L 425.099745 334.143252 
L 426.047918 333.727452 
L 426.996092 334.039302 
L 428.892438 334.143252 
L 429.840612 334.559052 
L 430.788785 335.286702 
L 431.736958 335.806452 
L 432.685132 336.118302 
L 433.633305 335.494602 
L 434.581478 335.910402 
L 435.529652 335.494602 
L 436.477825 335.702502 
L 439.322345 335.702502 
L 440.270518 336.118302 
L 442.166865 335.598552 
L 443.115038 335.910402 
L 444.063212 336.014352 
L 445.011385 335.702502 
L 447.855905 335.390652 
L 448.804078 335.910402 
L 449.752251 335.598552 
L 451.648598 336.222252 
L 453.544945 335.702502 
L 454.493118 334.974852 
L 455.441291 335.078802 
L 456.389465 334.455102 
L 457.337638 333.207702 
L 458.285811 332.999802 
L 460.182158 333.311652 
L 462.078505 332.687952 
L 463.026678 333.207702 
L 463.974851 333.207702 
L 464.923025 334.663002 
L 465.871198 334.663002 
L 466.819371 335.702502 
L 467.767545 335.598552 
L 468.715718 335.806452 
L 469.663891 335.598552 
L 470.612065 335.702502 
L 471.560238 335.182752 
L 472.508411 335.598552 
L 473.456585 335.598552 
L 474.404758 335.078802 
L 475.352931 335.806452 
L 476.301105 335.494602 
L 477.249278 335.806452 
L 478.197451 335.910402 
L 479.145624 335.702502 
L 480.093798 335.806452 
L 481.041971 335.390652 
L 481.990144 335.494602 
L 483.886491 335.390652 
L 484.834664 335.806452 
L 485.782838 335.702502 
L 487.679184 336.014352 
L 488.627358 335.494602 
L 490.523704 335.806452 
L 491.471878 334.870902 
L 492.420051 334.870902 
L 493.368224 334.351152 
L 494.316398 334.247202 
L 495.264571 334.559052 
L 497.160918 333.727452 
L 498.109091 334.143252 
L 498.109091 334.143252 
" clip-path="url(#p513ec62a5d)" style="fill: none; stroke: #0000ff; stroke-opacity: 0.5; stroke-width: 1.5; stroke-linecap: square"/>
   </g>
   <g id="line2d_39">
    <path d="M 92.290909 359.299152 
L 93.239082 370.213902 
L 94.187256 367.303302 
L 95.135429 367.927002 
L 96.083602 367.407252 
L 97.031776 366.679602 
L 97.979949 367.407252 
L 98.928122 368.654652 
L 99.876296 370.317852 
L 100.824469 370.525752 
L 101.772642 370.006002 
L 102.720816 370.733652 
L 103.668989 370.837602 
L 104.617162 370.629702 
L 105.565336 370.629702 
L 107.461682 370.213902 
L 108.409856 369.590202 
L 109.358029 369.694152 
L 110.306202 370.109952 
L 111.254376 369.902052 
L 112.202549 369.070452 
L 113.150722 370.317852 
L 114.098895 369.174402 
L 115.047069 369.382302 
L 115.995242 369.798102 
L 116.943415 369.278352 
L 117.891589 369.486252 
L 118.839762 367.927002 
L 119.787935 368.862552 
L 120.736109 368.342802 
L 121.684282 369.070452 
L 124.528802 368.654652 
L 125.476975 368.238852 
L 126.425149 368.134902 
L 127.373322 368.342802 
L 129.269669 366.991452 
L 130.217842 367.095402 
L 131.166015 368.030952 
L 132.114189 367.927002 
L 133.062362 367.407252 
L 134.010535 368.030952 
L 134.958709 367.303302 
L 135.906882 366.991452 
L 136.855055 366.991452 
L 137.803229 366.575652 
L 138.751402 367.095402 
L 139.699575 366.367752 
L 140.647749 366.679602 
L 142.544095 366.367752 
L 143.492268 366.367752 
L 144.440442 365.536152 
L 145.388615 365.224302 
L 146.336788 366.263802 
L 147.284962 365.951952 
L 148.233135 365.224302 
L 149.181308 365.744052 
L 150.129482 364.704552 
L 151.077655 365.120352 
L 152.025828 365.224302 
L 152.974002 364.600602 
L 153.922175 363.353202 
L 155.818522 362.001852 
L 156.766695 362.625552 
L 157.714868 362.001852 
L 158.663042 362.105802 
L 159.611215 363.457152 
L 160.559388 363.145302 
L 161.507562 363.665052 
L 162.455735 363.249252 
L 164.352082 362.937402 
L 165.300255 363.249252 
L 166.248428 363.041352 
L 167.196602 362.521602 
L 168.144775 362.729502 
L 169.092948 362.521602 
L 170.041121 362.001852 
L 170.989295 362.313702 
L 171.937468 361.378152 
L 172.885641 361.378152 
L 173.833815 360.650502 
L 174.781988 359.507052 
L 175.730161 358.883352 
L 176.678335 358.779402 
L 177.626508 358.051752 
L 179.522855 358.155702 
L 180.471028 359.091252 
L 181.419201 359.507052 
L 182.367375 359.507052 
L 183.315548 359.299152 
L 184.263721 358.883352 
L 185.211895 358.675452 
L 186.160068 358.155702 
L 188.056415 357.843852 
L 189.004588 357.947802 
L 189.952761 357.635952 
L 192.797281 357.635952 
L 193.745455 357.428052 
L 194.693628 356.804352 
L 195.641801 356.492502 
L 196.589975 355.453002 
L 198.486321 353.893752 
L 199.434494 353.893752 
L 200.382668 353.062152 
L 204.175361 352.958202 
L 205.123534 352.750302 
L 206.071708 353.374002 
L 207.019881 354.205602 
L 207.968054 355.764852 
L 208.916228 355.972752 
L 209.864401 355.972752 
L 211.760748 355.349052 
L 212.708921 355.349052 
L 213.657094 354.933252 
L 216.501614 355.349052 
L 217.449788 354.829302 
L 219.346134 354.725352 
L 220.294308 353.789802 
L 221.242481 353.581902 
L 222.190654 352.230552 
L 223.138828 352.230552 
L 224.087001 351.502902 
L 225.983347 350.567352 
L 226.931521 350.151552 
L 227.879694 350.567352 
L 228.827867 350.047602 
L 229.776041 351.398952 
L 230.724214 352.334502 
L 231.672387 352.854252 
L 232.620561 352.438452 
L 233.568734 352.646352 
L 234.516907 352.022652 
L 235.465081 352.126602 
L 236.413254 352.438452 
L 237.361427 351.814752 
L 238.309601 352.126602 
L 240.205947 351.606852 
L 241.154121 351.814752 
L 242.102294 351.191052 
L 243.050467 351.087102 
L 245.894987 348.280452 
L 246.843161 347.968602 
L 247.791334 347.448852 
L 248.739507 347.448852 
L 250.635854 346.929102 
L 251.584027 347.760702 
L 253.480374 349.112052 
L 255.37672 349.839702 
L 256.324894 349.423902 
L 257.273067 349.527852 
L 258.22124 349.112052 
L 259.169414 349.527852 
L 260.117587 349.216002 
L 261.06576 349.319952 
L 262.013934 348.800202 
L 262.962107 348.696252 
L 263.91028 349.112052 
L 264.858454 348.592302 
L 266.7548 348.696252 
L 267.702974 348.280452 
L 268.651147 348.072552 
L 269.59932 348.488352 
L 270.547494 348.280452 
L 271.495667 347.864652 
L 272.44384 348.072552 
L 274.340187 348.072552 
L 275.28836 347.864652 
L 276.236534 347.240952 
L 277.184707 346.929102 
L 278.13288 345.889602 
L 279.081054 345.473802 
L 280.029227 344.746152 
L 280.9774 344.330352 
L 282.873747 343.810602 
L 283.82192 344.122452 
L 284.770093 343.810602 
L 285.718267 343.706652 
L 286.66644 344.434302 
L 287.614613 345.577752 
L 288.562787 346.305402 
L 289.51096 346.409352 
L 290.459133 345.993552 
L 291.407307 346.305402 
L 292.35548 346.305402 
L 293.303653 346.097502 
L 294.251827 345.681702 
L 295.2 345.577752 
L 296.148173 345.889602 
L 297.096347 345.577752 
L 298.992693 345.577752 
L 299.940867 345.161952 
L 300.88904 344.954052 
L 301.837213 344.954052 
L 302.785387 344.746152 
L 303.73356 344.954052 
L 304.681733 344.850102 
L 305.629907 344.538252 
L 306.57808 344.746152 
L 307.526253 344.226402 
L 308.474427 344.018502 
L 309.4226 343.498752 
L 310.370773 342.563202 
L 312.26712 341.003952 
L 315.11164 340.588152 
L 316.059813 340.276302 
L 317.007986 340.380252 
L 318.904333 342.147402 
L 319.852506 342.355302 
L 320.80068 343.186902 
L 321.748853 342.667152 
L 322.697026 342.563202 
L 323.6452 342.251352 
L 324.593373 342.355302 
L 325.541546 342.667152 
L 326.48972 342.771102 
L 327.437893 342.147402 
L 328.386066 342.667152 
L 330.282413 342.459252 
L 331.230586 341.939502 
L 333.126933 341.835552 
L 334.075106 341.419752 
L 335.02328 341.627652 
L 335.971453 341.523702 
L 336.919626 340.588152 
L 337.867799 340.588152 
L 338.815973 339.132852 
L 339.764146 339.444702 
L 341.660493 338.405202 
L 343.556839 339.652602 
L 344.505013 340.692102 
L 345.453186 340.588152 
L 346.401359 340.692102 
L 347.349533 340.588152 
L 348.297706 339.964452 
L 349.245879 339.548652 
L 350.194053 340.172352 
L 351.142226 339.860502 
L 352.090399 339.340752 
L 353.038573 339.444702 
L 355.883093 338.509152 
L 356.831266 337.781502 
L 357.779439 336.638052 
L 358.727613 336.534102 
L 359.675786 335.910402 
L 360.623959 336.638052 
L 361.572133 336.014352 
L 363.468479 336.534102 
L 364.416653 337.989402 
L 365.364826 338.093352 
L 366.312999 337.469652 
L 367.261172 337.573602 
L 368.209346 337.261752 
L 370.105692 337.573602 
L 371.053866 337.157802 
L 372.950212 337.261752 
L 373.898386 336.742002 
L 374.846559 337.053852 
L 375.794732 336.638052 
L 376.742906 336.949902 
L 377.691079 336.845952 
L 378.639252 336.534102 
L 380.535599 336.845952 
L 381.483772 336.222252 
L 382.431946 336.222252 
L 383.380119 335.910402 
L 385.276466 336.222252 
L 386.224639 335.910402 
L 388.120986 333.415602 
L 389.069159 333.519552 
L 390.965506 332.999802 
L 391.913679 333.311652 
L 392.861852 332.584002 
L 394.758199 333.311652 
L 395.706372 334.143252 
L 396.654545 334.559052 
L 397.602719 335.598552 
L 398.550892 334.974852 
L 399.499065 335.390652 
L 400.447239 335.182752 
L 401.395412 335.182752 
L 402.343585 334.974852 
L 403.291759 335.390652 
L 404.239932 335.078802 
L 407.084452 334.870902 
L 408.032625 334.974852 
L 408.980799 334.766952 
L 409.928972 334.974852 
L 413.721665 334.455102 
L 414.669839 334.663002 
L 415.618012 334.455102 
L 416.566185 334.559052 
L 417.514359 334.247202 
L 418.462532 334.559052 
L 421.307052 333.727452 
L 422.255225 332.791902 
L 423.203398 332.168202 
L 424.151572 332.064252 
L 425.099745 331.648452 
L 426.047918 331.960302 
L 426.996092 331.752402 
L 427.944265 331.960302 
L 428.892438 332.480052 
L 429.840612 333.311652 
L 430.788785 333.519552 
L 431.736958 333.935352 
L 432.685132 333.727452 
L 434.581478 334.039302 
L 435.529652 333.831402 
L 437.425998 333.935352 
L 438.374172 333.623502 
L 439.322345 333.935352 
L 441.218692 333.831402 
L 442.166865 333.831402 
L 443.115038 333.519552 
L 444.063212 333.623502 
L 445.011385 334.143252 
L 445.959558 334.143252 
L 446.907732 333.623502 
L 447.855905 334.039302 
L 449.752251 333.935352 
L 450.700425 333.727452 
L 451.648598 334.143252 
L 453.544945 333.623502 
L 456.389465 332.064252 
L 457.337638 331.960302 
L 459.233985 330.816852 
L 460.182158 331.128702 
L 461.130331 331.232652 
L 462.078505 331.544502 
L 463.026678 332.584002 
L 463.974851 332.999802 
L 464.923025 333.831402 
L 465.871198 334.039302 
L 467.767545 334.039302 
L 468.715718 334.247202 
L 469.663891 334.143252 
L 470.612065 334.247202 
L 472.508411 334.039302 
L 473.456585 334.143252 
L 475.352931 333.831402 
L 476.301105 334.143252 
L 477.249278 333.935352 
L 478.197451 333.935352 
L 479.145624 333.727452 
L 480.093798 333.727452 
L 481.041971 334.039302 
L 481.990144 333.831402 
L 482.938318 333.935352 
L 483.886491 333.623502 
L 484.834664 334.247202 
L 485.782838 334.039302 
L 487.679184 334.143252 
L 488.627358 333.727452 
L 490.523704 334.039302 
L 491.471878 332.791902 
L 492.420051 332.376102 
L 495.264571 332.272152 
L 497.160918 331.856352 
L 498.109091 332.999802 
L 498.109091 332.999802 
" clip-path="url(#p513ec62a5d)" style="fill: none; stroke: #0000ff; stroke-opacity: 0.5; stroke-width: 1.5; stroke-linecap: square"/>
   </g>
   <g id="line2d_40">
    <path d="M 92.290909 360.026802 
L 93.239082 370.525752 
L 94.187256 368.966502 
L 95.135429 368.342802 
L 97.979949 367.823052 
L 98.928122 368.342802 
L 99.876296 369.798102 
L 100.824469 370.733652 
L 101.772642 370.317852 
L 102.720816 370.629702 
L 104.617162 370.421802 
L 105.565336 370.629702 
L 106.513509 370.006002 
L 107.461682 370.837602 
L 108.409856 370.525752 
L 109.358029 370.629702 
L 110.306202 370.109952 
L 111.254376 370.317852 
L 112.202549 370.317852 
L 113.150722 369.902052 
L 115.047069 370.421802 
L 115.995242 370.006002 
L 116.943415 370.006002 
L 118.839762 369.694152 
L 119.787935 370.006002 
L 120.736109 370.109952 
L 121.684282 369.902052 
L 122.632455 369.902052 
L 123.580629 369.694152 
L 124.528802 369.694152 
L 125.476975 369.486252 
L 126.425149 369.070452 
L 127.373322 368.342802 
L 128.321495 368.758602 
L 129.269669 368.758602 
L 130.217842 368.550702 
L 131.166015 368.758602 
L 134.010535 368.654652 
L 134.958709 368.238852 
L 135.906882 368.550702 
L 136.855055 368.134902 
L 137.803229 368.134902 
L 138.751402 367.303302 
L 139.699575 367.719102 
L 142.544095 366.991452 
L 143.492268 367.303302 
L 144.440442 367.407252 
L 146.336788 366.263802 
L 147.284962 365.640102 
L 148.233135 367.095402 
L 149.181308 365.951952 
L 150.129482 366.887502 
L 151.077655 366.367752 
L 152.025828 365.328252 
L 152.974002 365.536152 
L 153.922175 363.769002 
L 154.870348 363.561102 
L 155.818522 363.769002 
L 156.766695 363.665052 
L 157.714868 361.897902 
L 158.663042 363.872952 
L 159.611215 364.600602 
L 160.559388 363.872952 
L 161.507562 364.184802 
L 162.455735 363.872952 
L 163.403908 364.392702 
L 164.352082 363.976902 
L 165.300255 363.145302 
L 166.248428 363.769002 
L 167.196602 362.625552 
L 168.144775 363.249252 
L 169.092948 363.353202 
L 170.041121 362.833452 
L 170.989295 362.937402 
L 171.937468 362.417652 
L 172.885641 362.521602 
L 173.833815 361.897902 
L 174.781988 360.962352 
L 176.678335 360.130752 
L 178.574681 360.026802 
L 180.471028 361.170252 
L 181.419201 360.650502 
L 182.367375 360.962352 
L 184.263721 359.818902 
L 186.160068 359.507052 
L 187.108241 359.403102 
L 188.056415 358.987302 
L 189.952761 359.091252 
L 190.900935 358.987302 
L 192.797281 358.467552 
L 193.745455 358.675452 
L 194.693628 358.571502 
L 195.641801 357.843852 
L 196.589975 356.804352 
L 197.538148 356.180652 
L 199.434494 355.453002 
L 200.382668 355.245102 
L 202.279014 355.349052 
L 203.227188 355.037202 
L 204.175361 355.037202 
L 205.123534 355.453002 
L 206.071708 356.492502 
L 207.019881 356.908302 
L 207.968054 357.012252 
L 211.760748 356.492502 
L 212.708921 356.284602 
L 213.657094 356.492502 
L 214.605268 356.180652 
L 216.501614 355.868802 
L 217.449788 355.660902 
L 218.397961 355.764852 
L 220.294308 355.349052 
L 221.242481 354.621402 
L 222.190654 354.101652 
L 223.138828 354.101652 
L 224.087001 353.166102 
L 225.035174 353.062152 
L 225.983347 352.542402 
L 227.879694 352.646352 
L 228.827867 353.789802 
L 230.724214 354.309552 
L 231.672387 353.893752 
L 232.620561 354.309552 
L 233.568734 353.789802 
L 234.516907 354.101652 
L 235.465081 353.477952 
L 237.361427 353.477952 
L 240.205947 352.646352 
L 241.154121 352.854252 
L 242.102294 352.646352 
L 243.050467 352.646352 
L 244.946814 351.295002 
L 246.843161 350.047602 
L 248.739507 350.047602 
L 249.687681 349.423902 
L 250.635854 350.047602 
L 251.584027 350.879202 
L 252.532201 351.087102 
L 253.480374 350.983152 
L 254.428547 351.087102 
L 256.324894 350.463402 
L 257.273067 350.671302 
L 258.22124 350.567352 
L 259.169414 350.255502 
L 262.013934 350.359452 
L 262.962107 349.839702 
L 264.858454 349.735752 
L 265.806627 349.631802 
L 266.7548 349.319952 
L 271.495667 349.423902 
L 273.392014 348.904152 
L 274.340187 349.112052 
L 275.28836 348.592302 
L 277.184707 348.488352 
L 278.13288 347.864652 
L 279.081054 346.929102 
L 280.9774 346.201452 
L 281.925573 346.305402 
L 282.873747 346.097502 
L 284.770093 346.409352 
L 285.718267 346.721202 
L 286.66644 348.384402 
L 287.614613 347.656752 
L 289.51096 347.656752 
L 291.407307 347.344902 
L 292.35548 347.344902 
L 294.251827 347.033052 
L 295.2 347.448852 
L 296.148173 346.929102 
L 298.04452 346.825152 
L 298.992693 346.409352 
L 299.940867 346.929102 
L 300.88904 346.513302 
L 301.837213 346.617252 
L 303.73356 346.201452 
L 304.681733 346.305402 
L 306.57808 345.889602 
L 307.526253 345.473802 
L 310.370773 344.746152 
L 311.318946 343.914552 
L 314.163466 342.979002 
L 315.11164 343.082952 
L 316.059813 342.771102 
L 318.904333 344.746152 
L 319.852506 344.434302 
L 320.80068 344.330352 
L 321.748853 344.642202 
L 322.697026 344.642202 
L 323.6452 344.330352 
L 324.593373 344.226402 
L 325.541546 343.810602 
L 327.437893 343.706652 
L 328.386066 343.810602 
L 329.33424 343.290852 
L 331.230586 343.706652 
L 332.17876 343.186902 
L 333.126933 343.394802 
L 334.075106 343.082952 
L 335.02328 343.394802 
L 335.971453 342.979002 
L 336.919626 342.043452 
L 337.867799 341.939502 
L 338.815973 341.315802 
L 339.764146 341.003952 
L 340.712319 341.003952 
L 341.660493 340.692102 
L 342.608666 341.939502 
L 343.556839 342.563202 
L 344.505013 342.667152 
L 345.453186 342.147402 
L 346.401359 341.835552 
L 349.245879 342.043452 
L 350.194053 341.939502 
L 351.142226 341.523702 
L 352.090399 341.523702 
L 353.038573 341.107902 
L 354.934919 341.003952 
L 355.883093 340.172352 
L 356.831266 339.964452 
L 357.779439 339.132852 
L 360.623959 338.924952 
L 361.572133 339.132852 
L 362.520306 339.756552 
L 363.468479 339.860502 
L 364.416653 339.236802 
L 365.364826 339.548652 
L 368.209346 339.340752 
L 369.157519 338.924952 
L 370.105692 339.028902 
L 371.053866 338.821002 
L 372.002039 338.924952 
L 376.742906 337.989402 
L 377.691079 338.301252 
L 383.380119 337.677552 
L 384.328292 337.885452 
L 386.224639 337.157802 
L 387.172812 336.014352 
L 388.120986 335.390652 
L 392.861852 334.974852 
L 393.810025 334.974852 
L 394.758199 336.014352 
L 395.706372 336.742002 
L 396.654545 336.638052 
L 397.602719 336.742002 
L 398.550892 337.053852 
L 399.499065 336.742002 
L 400.447239 336.222252 
L 401.395412 336.534102 
L 402.343585 334.455102 
L 403.291759 336.326202 
L 404.239932 336.430152 
L 405.188105 336.118302 
L 406.136279 336.326202 
L 408.032625 336.326202 
L 408.980799 336.014352 
L 412.773492 335.910402 
L 413.721665 335.702502 
L 414.669839 336.118302 
L 417.514359 335.702502 
L 418.462532 335.494602 
L 419.410705 335.910402 
L 420.358879 335.702502 
L 421.307052 335.286702 
L 422.255225 334.559052 
L 423.203398 334.455102 
L 424.151572 333.519552 
L 425.099745 333.831402 
L 426.047918 333.311652 
L 427.944265 333.935352 
L 428.892438 335.078802 
L 429.840612 335.286702 
L 430.788785 335.286702 
L 431.736958 334.870902 
L 433.633305 334.974852 
L 434.581478 334.974852 
L 435.529652 334.663002 
L 436.477825 335.078802 
L 437.425998 334.870902 
L 439.322345 334.974852 
L 440.270518 334.974852 
L 442.166865 334.663002 
L 444.063212 334.870902 
L 445.011385 334.559052 
L 446.907732 334.455102 
L 448.804078 334.766952 
L 449.752251 334.455102 
L 450.700425 334.766952 
L 451.648598 334.455102 
L 453.544945 334.351152 
L 455.441291 334.143252 
L 456.389465 333.415602 
L 457.337638 332.895852 
L 460.182158 332.064252 
L 461.130331 332.376102 
L 462.078505 332.999802 
L 463.026678 334.351152 
L 463.974851 334.247202 
L 464.923025 334.455102 
L 469.663891 334.559052 
L 470.612065 334.766952 
L 471.560238 334.247202 
L 472.508411 334.663002 
L 473.456585 334.143252 
L 474.404758 334.559052 
L 475.352931 334.455102 
L 479.145624 334.870902 
L 480.093798 334.766952 
L 481.041971 334.455102 
L 481.990144 334.766952 
L 482.938318 334.247202 
L 484.834664 334.766952 
L 485.782838 334.870902 
L 487.679184 334.766952 
L 490.523704 334.663002 
L 491.471878 334.247202 
L 492.420051 334.351152 
L 493.368224 334.039302 
L 494.316398 334.351152 
L 495.264571 333.935352 
L 496.212744 334.663002 
L 497.160918 334.974852 
L 498.109091 334.766952 
L 498.109091 334.766952 
" clip-path="url(#p513ec62a5d)" style="fill: none; stroke: #0000ff; stroke-opacity: 0.5; stroke-width: 1.5; stroke-linecap: square"/>
   </g>
   <g id="LineCollection_1">
    <path d="M 92.290909 361.261015 
L 92.290909 358.064939 
" clip-path="url(#p513ec62a5d)" style="fill: none; stroke: #ff0000; stroke-width: 1.5"/>
    <path d="M 130.217842 369.206574 
L 130.217842 367.27113 
" clip-path="url(#p513ec62a5d)" style="fill: none; stroke: #ff0000; stroke-width: 1.5"/>
    <path d="M 168.144775 363.546435 
L 168.144775 362.640219 
" clip-path="url(#p513ec62a5d)" style="fill: none; stroke: #ff0000; stroke-width: 1.5"/>
    <path d="M 206.071708 356.071297 
L 206.071708 353.119532 
" clip-path="url(#p513ec62a5d)" style="fill: none; stroke: #ff0000; stroke-width: 1.5"/>
    <path d="M 243.998641 352.069004 
L 243.998641 350.3131 
" clip-path="url(#p513ec62a5d)" style="fill: none; stroke: #ff0000; stroke-width: 1.5"/>
    <path d="M 281.925573 347.414509 
L 281.925573 344.72852 
" clip-path="url(#p513ec62a5d)" style="fill: none; stroke: #ff0000; stroke-width: 1.5"/>
    <path d="M 319.852506 344.541711 
L 319.852506 342.455793 
" clip-path="url(#p513ec62a5d)" style="fill: none; stroke: #ff0000; stroke-width: 1.5"/>
    <path d="M 357.779439 340.122344 
L 357.779439 337.259785 
" clip-path="url(#p513ec62a5d)" style="fill: none; stroke: #ff0000; stroke-width: 1.5"/>
    <path d="M 395.706372 336.657419 
L 395.706372 334.48771 
" clip-path="url(#p513ec62a5d)" style="fill: none; stroke: #ff0000; stroke-width: 1.5"/>
    <path d="M 433.633305 335.388725 
L 433.633305 333.521479 
" clip-path="url(#p513ec62a5d)" style="fill: none; stroke: #ff0000; stroke-width: 1.5"/>
    <path d="M 471.560238 334.948345 
L 471.560238 333.650009 
" clip-path="url(#p513ec62a5d)" style="fill: none; stroke: #ff0000; stroke-width: 1.5"/>
   </g>
   <g id="line2d_41">
    <defs>
     <path id="m7e6ff37130" d="M 5 0 
L -5 -0 
" style="stroke: #ff0000"/>
    </defs>
    <g clip-path="url(#p513ec62a5d)">
     <use xlink:href="#m7e6ff37130" x="92.290909" y="361.261015" style="fill: #ff0000; stroke: #ff0000"/>
     <use xlink:href="#m7e6ff37130" x="130.217842" y="369.206574" style="fill: #ff0000; stroke: #ff0000"/>
     <use xlink:href="#m7e6ff37130" x="168.144775" y="363.546435" style="fill: #ff0000; stroke: #ff0000"/>
     <use xlink:href="#m7e6ff37130" x="206.071708" y="356.071297" style="fill: #ff0000; stroke: #ff0000"/>
     <use xlink:href="#m7e6ff37130" x="243.998641" y="352.069004" style="fill: #ff0000; stroke: #ff0000"/>
     <use xlink:href="#m7e6ff37130" x="281.925573" y="347.414509" style="fill: #ff0000; stroke: #ff0000"/>
     <use xlink:href="#m7e6ff37130" x="319.852506" y="344.541711" style="fill: #ff0000; stroke: #ff0000"/>
     <use xlink:href="#m7e6ff37130" x="357.779439" y="340.122344" style="fill: #ff0000; stroke: #ff0000"/>
     <use xlink:href="#m7e6ff37130" x="395.706372" y="336.657419" style="fill: #ff0000; stroke: #ff0000"/>
     <use xlink:href="#m7e6ff37130" x="433.633305" y="335.388725" style="fill: #ff0000; stroke: #ff0000"/>
     <use xlink:href="#m7e6ff37130" x="471.560238" y="334.948345" style="fill: #ff0000; stroke: #ff0000"/>
    </g>
   </g>
   <g id="line2d_42">
    <g clip-path="url(#p513ec62a5d)">
     <use xlink:href="#m7e6ff37130" x="92.290909" y="358.064939" style="fill: #ff0000; stroke: #ff0000"/>
     <use xlink:href="#m7e6ff37130" x="130.217842" y="367.27113" style="fill: #ff0000; stroke: #ff0000"/>
     <use xlink:href="#m7e6ff37130" x="168.144775" y="362.640219" style="fill: #ff0000; stroke: #ff0000"/>
     <use xlink:href="#m7e6ff37130" x="206.071708" y="353.119532" style="fill: #ff0000; stroke: #ff0000"/>
     <use xlink:href="#m7e6ff37130" x="243.998641" y="350.3131" style="fill: #ff0000; stroke: #ff0000"/>
     <use xlink:href="#m7e6ff37130" x="281.925573" y="344.72852" style="fill: #ff0000; stroke: #ff0000"/>
     <use xlink:href="#m7e6ff37130" x="319.852506" y="342.455793" style="fill: #ff0000; stroke: #ff0000"/>
     <use xlink:href="#m7e6ff37130" x="357.779439" y="337.259785" style="fill: #ff0000; stroke: #ff0000"/>
     <use xlink:href="#m7e6ff37130" x="395.706372" y="334.48771" style="fill: #ff0000; stroke: #ff0000"/>
     <use xlink:href="#m7e6ff37130" x="433.633305" y="333.521479" style="fill: #ff0000; stroke: #ff0000"/>
     <use xlink:href="#m7e6ff37130" x="471.560238" y="333.650009" style="fill: #ff0000; stroke: #ff0000"/>
    </g>
   </g>
   <g id="line2d_43">
    <path d="M 92.290909 359.662977 
L 130.217842 368.238852 
L 168.144775 363.093327 
L 206.071708 354.595415 
L 243.998641 351.191052 
L 281.925573 346.071514 
L 319.852506 343.498752 
L 357.779439 338.691064 
L 395.706372 335.572564 
L 433.633305 334.455102 
L 471.560238 334.299177 
" clip-path="url(#p513ec62a5d)" style="fill: none; stroke: #ff0000; stroke-width: 1.5; stroke-linecap: square"/>
   </g>
   <g id="patch_3">
    <path d="M 72 384.48 
L 72 51.84 
" style="fill: none; stroke: #000000; stroke-width: 0.8; stroke-linejoin: miter; stroke-linecap: square"/>
   </g>
   <g id="patch_4">
    <path d="M 518.4 384.48 
L 518.4 51.84 
" style="fill: none; stroke: #000000; stroke-width: 0.8; stroke-linejoin: miter; stroke-linecap: square"/>
   </g>
   <g id="patch_5">
    <path d="M 72 384.48 
L 518.4 384.48 
" style="fill: none; stroke: #000000; stroke-width: 0.8; stroke-linejoin: miter; stroke-linecap: square"/>
   </g>
   <g id="patch_6">
    <path d="M 72 51.84 
L 518.4 51.84 
" style="fill: none; stroke: #000000; stroke-width: 0.8; stroke-linejoin: miter; stroke-linecap: square"/>
   </g>
   <g id="text_21">
    <!-- M38: Threonin -->
    <g transform="translate(259.221875 45.84) scale(0.1 -0.1)">
     <defs>
      <path id="DejaVuSans-4d" d="M 628 4666 
L 1569 4666 
L 2759 1491 
L 3956 4666 
L 4897 4666 
L 4897 0 
L 4281 0 
L 4281 4097 
L 3078 897 
L 2444 897 
L 1241 4097 
L 1241 0 
L 628 0 
L 628 4666 
z
" transform="scale(0.015625)"/>
      <path id="DejaVuSans-3a" d="M 750 794 
L 1409 794 
L 1409 0 
L 750 0 
L 750 794 
z
M 750 3309 
L 1409 3309 
L 1409 2516 
L 750 2516 
L 750 3309 
z
" transform="scale(0.015625)"/>
      <path id="DejaVuSans-54" d="M -19 4666 
L 3928 4666 
L 3928 4134 
L 2272 4134 
L 2272 0 
L 1638 0 
L 1638 4134 
L -19 4134 
L -19 4666 
z
" transform="scale(0.015625)"/>
     </defs>
     <use xlink:href="#DejaVuSans-4d"/>
     <use xlink:href="#DejaVuSans-33" x="86.279297"/>
     <use xlink:href="#DejaVuSans-38" x="149.902344"/>
     <use xlink:href="#DejaVuSans-3a" x="213.525391"/>
     <use xlink:href="#DejaVuSans-20" x="247.216797"/>
     <use xlink:href="#DejaVuSans-54" x="279.003906"/>
     <use xlink:href="#DejaVuSans-68" x="340.087891"/>
     <use xlink:href="#DejaVuSans-72" x="403.466797"/>
     <use xlink:href="#DejaVuSans-65" x="442.330078"/>
     <use xlink:href="#DejaVuSans-6f" x="503.853516"/>
     <use xlink:href="#DejaVuSans-6e" x="565.035156"/>
     <use xlink:href="#DejaVuSans-69" x="628.414062"/>
     <use xlink:href="#DejaVuSans-6e" x="656.197266"/>
    </g>
   </g>
  </g>
 </g>
 <defs>
  <clipPath id="p513ec62a5d">
   <rect x="72" y="51.84" width="446.4" height="332.64"/>
  </clipPath>
 </defs>
</svg>
