<?xml version="1.0" encoding="utf-8" standalone="no"?>
<!DOCTYPE svg PUBLIC "-//W3C//DTD SVG 1.1//EN"
  "http://www.w3.org/Graphics/SVG/1.1/DTD/svg11.dtd">
<svg xmlns:xlink="http://www.w3.org/1999/xlink" width="576pt" height="432pt" viewBox="0 0 576 432" xmlns="http://www.w3.org/2000/svg" version="1.1">
 <metadata>
  <rdf:RDF xmlns:dc="http://purl.org/dc/elements/1.1/" xmlns:cc="http://creativecommons.org/ns#" xmlns:rdf="http://www.w3.org/1999/02/22-rdf-syntax-ns#">
   <cc:Work>
    <dc:type rdf:resource="http://purl.org/dc/dcmitype/StillImage"/>
    <dc:date>2024-11-12T14:09:20.582269</dc:date>
    <dc:format>image/svg+xml</dc:format>
    <dc:creator>
     <cc:Agent>
      <dc:title>Matplotlib v3.7.5, https://matplotlib.org/</dc:title>
     </cc:Agent>
    </dc:creator>
   </cc:Work>
  </rdf:RDF>
 </metadata>
 <defs>
  <style type="text/css">*{stroke-linejoin: round; stroke-linecap: butt}</style>
 </defs>
 <g id="figure_1">
  <g id="patch_1">
   <path d="M 0 432 
L 576 432 
L 576 0 
L 0 0 
z
" style="fill: #ffffff"/>
  </g>
  <g id="axes_1">
   <g id="patch_2">
    <path d="M 72 384.48 
L 518.4 384.48 
L 518.4 51.84 
L 72 51.84 
z
" style="fill: #ffffff"/>
   </g>
   <g id="matplotlib.axis_1">
    <g id="xtick_1">
     <g id="line2d_1">
      <path d="M 92.290909 384.48 
L 92.290909 51.84 
" clip-path="url(#pfabd088de4)" style="fill: none; stroke: #b0b0b0; stroke-width: 0.8; stroke-linecap: square"/>
     </g>
     <g id="line2d_2">
      <defs>
       <path id="m71bf87ff95" d="M 0 0 
L 0 3.5 
" style="stroke: #000000; stroke-width: 0.8"/>
      </defs>
      <g>
       <use xlink:href="#m71bf87ff95" x="92.290909" y="384.48" style="stroke: #000000; stroke-width: 0.8"/>
      </g>
     </g>
     <g id="text_1">
      <!-- 0.17 -->
      <g transform="translate(81.158097 399.078438) scale(0.1 -0.1)">
       <defs>
        <path id="DejaVuSans-30" d="M 2034 4250 
Q 1547 4250 1301 3770 
Q 1056 3291 1056 2328 
Q 1056 1369 1301 889 
Q 1547 409 2034 409 
Q 2525 409 2770 889 
Q 3016 1369 3016 2328 
Q 3016 3291 2770 3770 
Q 2525 4250 2034 4250 
z
M 2034 4750 
Q 2819 4750 3233 4129 
Q 3647 3509 3647 2328 
Q 3647 1150 3233 529 
Q 2819 -91 2034 -91 
Q 1250 -91 836 529 
Q 422 1150 422 2328 
Q 422 3509 836 4129 
Q 1250 4750 2034 4750 
z
" transform="scale(0.015625)"/>
        <path id="DejaVuSans-2e" d="M 684 794 
L 1344 794 
L 1344 0 
L 684 0 
L 684 794 
z
" transform="scale(0.015625)"/>
        <path id="DejaVuSans-31" d="M 794 531 
L 1825 531 
L 1825 4091 
L 703 3866 
L 703 4441 
L 1819 4666 
L 2450 4666 
L 2450 531 
L 3481 531 
L 3481 0 
L 794 0 
L 794 531 
z
" transform="scale(0.015625)"/>
        <path id="DejaVuSans-37" d="M 525 4666 
L 3525 4666 
L 3525 4397 
L 1831 0 
L 1172 0 
L 2766 4134 
L 525 4134 
L 525 4666 
z
" transform="scale(0.015625)"/>
       </defs>
       <use xlink:href="#DejaVuSans-30"/>
       <use xlink:href="#DejaVuSans-2e" x="63.623047"/>
       <use xlink:href="#DejaVuSans-31" x="95.410156"/>
       <use xlink:href="#DejaVuSans-37" x="159.033203"/>
      </g>
     </g>
    </g>
    <g id="xtick_2">
     <g id="line2d_3">
      <path d="M 130.217842 384.48 
L 130.217842 51.84 
" clip-path="url(#pfabd088de4)" style="fill: none; stroke: #b0b0b0; stroke-width: 0.8; stroke-linecap: square"/>
     </g>
     <g id="line2d_4">
      <g>
       <use xlink:href="#m71bf87ff95" x="130.217842" y="384.48" style="stroke: #000000; stroke-width: 0.8"/>
      </g>
     </g>
     <g id="text_2">
      <!-- 6.83 -->
      <g transform="translate(119.085029 399.078438) scale(0.1 -0.1)">
       <defs>
        <path id="DejaVuSans-36" d="M 2113 2584 
Q 1688 2584 1439 2293 
Q 1191 2003 1191 1497 
Q 1191 994 1439 701 
Q 1688 409 2113 409 
Q 2538 409 2786 701 
Q 3034 994 3034 1497 
Q 3034 2003 2786 2293 
Q 2538 2584 2113 2584 
z
M 3366 4563 
L 3366 3988 
Q 3128 4100 2886 4159 
Q 2644 4219 2406 4219 
Q 1781 4219 1451 3797 
Q 1122 3375 1075 2522 
Q 1259 2794 1537 2939 
Q 1816 3084 2150 3084 
Q 2853 3084 3261 2657 
Q 3669 2231 3669 1497 
Q 3669 778 3244 343 
Q 2819 -91 2113 -91 
Q 1303 -91 875 529 
Q 447 1150 447 2328 
Q 447 3434 972 4092 
Q 1497 4750 2381 4750 
Q 2619 4750 2861 4703 
Q 3103 4656 3366 4563 
z
" transform="scale(0.015625)"/>
        <path id="DejaVuSans-38" d="M 2034 2216 
Q 1584 2216 1326 1975 
Q 1069 1734 1069 1313 
Q 1069 891 1326 650 
Q 1584 409 2034 409 
Q 2484 409 2743 651 
Q 3003 894 3003 1313 
Q 3003 1734 2745 1975 
Q 2488 2216 2034 2216 
z
M 1403 2484 
Q 997 2584 770 2862 
Q 544 3141 544 3541 
Q 544 4100 942 4425 
Q 1341 4750 2034 4750 
Q 2731 4750 3128 4425 
Q 3525 4100 3525 3541 
Q 3525 3141 3298 2862 
Q 3072 2584 2669 2484 
Q 3125 2378 3379 2068 
Q 3634 1759 3634 1313 
Q 3634 634 3220 271 
Q 2806 -91 2034 -91 
Q 1263 -91 848 271 
Q 434 634 434 1313 
Q 434 1759 690 2068 
Q 947 2378 1403 2484 
z
M 1172 3481 
Q 1172 3119 1398 2916 
Q 1625 2713 2034 2713 
Q 2441 2713 2670 2916 
Q 2900 3119 2900 3481 
Q 2900 3844 2670 4047 
Q 2441 4250 2034 4250 
Q 1625 4250 1398 4047 
Q 1172 3844 1172 3481 
z
" transform="scale(0.015625)"/>
        <path id="DejaVuSans-33" d="M 2597 2516 
Q 3050 2419 3304 2112 
Q 3559 1806 3559 1356 
Q 3559 666 3084 287 
Q 2609 -91 1734 -91 
Q 1441 -91 1130 -33 
Q 819 25 488 141 
L 488 750 
Q 750 597 1062 519 
Q 1375 441 1716 441 
Q 2309 441 2620 675 
Q 2931 909 2931 1356 
Q 2931 1769 2642 2001 
Q 2353 2234 1838 2234 
L 1294 2234 
L 1294 2753 
L 1863 2753 
Q 2328 2753 2575 2939 
Q 2822 3125 2822 3475 
Q 2822 3834 2567 4026 
Q 2313 4219 1838 4219 
Q 1578 4219 1281 4162 
Q 984 4106 628 3988 
L 628 4550 
Q 988 4650 1302 4700 
Q 1616 4750 1894 4750 
Q 2613 4750 3031 4423 
Q 3450 4097 3450 3541 
Q 3450 3153 3228 2886 
Q 3006 2619 2597 2516 
z
" transform="scale(0.015625)"/>
       </defs>
       <use xlink:href="#DejaVuSans-36"/>
       <use xlink:href="#DejaVuSans-2e" x="63.623047"/>
       <use xlink:href="#DejaVuSans-38" x="95.410156"/>
       <use xlink:href="#DejaVuSans-33" x="159.033203"/>
      </g>
     </g>
    </g>
    <g id="xtick_3">
     <g id="line2d_5">
      <path d="M 168.144775 384.48 
L 168.144775 51.84 
" clip-path="url(#pfabd088de4)" style="fill: none; stroke: #b0b0b0; stroke-width: 0.8; stroke-linecap: square"/>
     </g>
     <g id="line2d_6">
      <g>
       <use xlink:href="#m71bf87ff95" x="168.144775" y="384.48" style="stroke: #000000; stroke-width: 0.8"/>
      </g>
     </g>
     <g id="text_3">
      <!-- 13.5 -->
      <g transform="translate(157.011962 399.078438) scale(0.1 -0.1)">
       <defs>
        <path id="DejaVuSans-35" d="M 691 4666 
L 3169 4666 
L 3169 4134 
L 1269 4134 
L 1269 2991 
Q 1406 3038 1543 3061 
Q 1681 3084 1819 3084 
Q 2600 3084 3056 2656 
Q 3513 2228 3513 1497 
Q 3513 744 3044 326 
Q 2575 -91 1722 -91 
Q 1428 -91 1123 -41 
Q 819 9 494 109 
L 494 744 
Q 775 591 1075 516 
Q 1375 441 1709 441 
Q 2250 441 2565 725 
Q 2881 1009 2881 1497 
Q 2881 1984 2565 2268 
Q 2250 2553 1709 2553 
Q 1456 2553 1204 2497 
Q 953 2441 691 2322 
L 691 4666 
z
" transform="scale(0.015625)"/>
       </defs>
       <use xlink:href="#DejaVuSans-31"/>
       <use xlink:href="#DejaVuSans-33" x="63.623047"/>
       <use xlink:href="#DejaVuSans-2e" x="127.246094"/>
       <use xlink:href="#DejaVuSans-35" x="159.033203"/>
      </g>
     </g>
    </g>
    <g id="xtick_4">
     <g id="line2d_7">
      <path d="M 206.071708 384.48 
L 206.071708 51.84 
" clip-path="url(#pfabd088de4)" style="fill: none; stroke: #b0b0b0; stroke-width: 0.8; stroke-linecap: square"/>
     </g>
     <g id="line2d_8">
      <g>
       <use xlink:href="#m71bf87ff95" x="206.071708" y="384.48" style="stroke: #000000; stroke-width: 0.8"/>
      </g>
     </g>
     <g id="text_4">
      <!-- 20.17 -->
      <g transform="translate(191.757645 399.078438) scale(0.1 -0.1)">
       <defs>
        <path id="DejaVuSans-32" d="M 1228 531 
L 3431 531 
L 3431 0 
L 469 0 
L 469 531 
Q 828 903 1448 1529 
Q 2069 2156 2228 2338 
Q 2531 2678 2651 2914 
Q 2772 3150 2772 3378 
Q 2772 3750 2511 3984 
Q 2250 4219 1831 4219 
Q 1534 4219 1204 4116 
Q 875 4013 500 3803 
L 500 4441 
Q 881 4594 1212 4672 
Q 1544 4750 1819 4750 
Q 2544 4750 2975 4387 
Q 3406 4025 3406 3419 
Q 3406 3131 3298 2873 
Q 3191 2616 2906 2266 
Q 2828 2175 2409 1742 
Q 1991 1309 1228 531 
z
" transform="scale(0.015625)"/>
       </defs>
       <use xlink:href="#DejaVuSans-32"/>
       <use xlink:href="#DejaVuSans-30" x="63.623047"/>
       <use xlink:href="#DejaVuSans-2e" x="127.246094"/>
       <use xlink:href="#DejaVuSans-31" x="159.033203"/>
       <use xlink:href="#DejaVuSans-37" x="222.65625"/>
      </g>
     </g>
    </g>
    <g id="xtick_5">
     <g id="line2d_9">
      <path d="M 243.998641 384.48 
L 243.998641 51.84 
" clip-path="url(#pfabd088de4)" style="fill: none; stroke: #b0b0b0; stroke-width: 0.8; stroke-linecap: square"/>
     </g>
     <g id="line2d_10">
      <g>
       <use xlink:href="#m71bf87ff95" x="243.998641" y="384.48" style="stroke: #000000; stroke-width: 0.8"/>
      </g>
     </g>
     <g id="text_5">
      <!-- 26.83 -->
      <g transform="translate(229.684578 399.078438) scale(0.1 -0.1)">
       <use xlink:href="#DejaVuSans-32"/>
       <use xlink:href="#DejaVuSans-36" x="63.623047"/>
       <use xlink:href="#DejaVuSans-2e" x="127.246094"/>
       <use xlink:href="#DejaVuSans-38" x="159.033203"/>
       <use xlink:href="#DejaVuSans-33" x="222.65625"/>
      </g>
     </g>
    </g>
    <g id="xtick_6">
     <g id="line2d_11">
      <path d="M 281.925573 384.48 
L 281.925573 51.84 
" clip-path="url(#pfabd088de4)" style="fill: none; stroke: #b0b0b0; stroke-width: 0.8; stroke-linecap: square"/>
     </g>
     <g id="line2d_12">
      <g>
       <use xlink:href="#m71bf87ff95" x="281.925573" y="384.48" style="stroke: #000000; stroke-width: 0.8"/>
      </g>
     </g>
     <g id="text_6">
      <!-- 33.5 -->
      <g transform="translate(270.792761 399.078438) scale(0.1 -0.1)">
       <use xlink:href="#DejaVuSans-33"/>
       <use xlink:href="#DejaVuSans-33" x="63.623047"/>
       <use xlink:href="#DejaVuSans-2e" x="127.246094"/>
       <use xlink:href="#DejaVuSans-35" x="159.033203"/>
      </g>
     </g>
    </g>
    <g id="xtick_7">
     <g id="line2d_13">
      <path d="M 319.852506 384.48 
L 319.852506 51.84 
" clip-path="url(#pfabd088de4)" style="fill: none; stroke: #b0b0b0; stroke-width: 0.8; stroke-linecap: square"/>
     </g>
     <g id="line2d_14">
      <g>
       <use xlink:href="#m71bf87ff95" x="319.852506" y="384.48" style="stroke: #000000; stroke-width: 0.8"/>
      </g>
     </g>
     <g id="text_7">
      <!-- 40.17 -->
      <g transform="translate(305.538444 399.078438) scale(0.1 -0.1)">
       <defs>
        <path id="DejaVuSans-34" d="M 2419 4116 
L 825 1625 
L 2419 1625 
L 2419 4116 
z
M 2253 4666 
L 3047 4666 
L 3047 1625 
L 3713 1625 
L 3713 1100 
L 3047 1100 
L 3047 0 
L 2419 0 
L 2419 1100 
L 313 1100 
L 313 1709 
L 2253 4666 
z
" transform="scale(0.015625)"/>
       </defs>
       <use xlink:href="#DejaVuSans-34"/>
       <use xlink:href="#DejaVuSans-30" x="63.623047"/>
       <use xlink:href="#DejaVuSans-2e" x="127.246094"/>
       <use xlink:href="#DejaVuSans-31" x="159.033203"/>
       <use xlink:href="#DejaVuSans-37" x="222.65625"/>
      </g>
     </g>
    </g>
    <g id="xtick_8">
     <g id="line2d_15">
      <path d="M 357.779439 384.48 
L 357.779439 51.84 
" clip-path="url(#pfabd088de4)" style="fill: none; stroke: #b0b0b0; stroke-width: 0.8; stroke-linecap: square"/>
     </g>
     <g id="line2d_16">
      <g>
       <use xlink:href="#m71bf87ff95" x="357.779439" y="384.48" style="stroke: #000000; stroke-width: 0.8"/>
      </g>
     </g>
     <g id="text_8">
      <!-- 46.83 -->
      <g transform="translate(343.465377 399.078438) scale(0.1 -0.1)">
       <use xlink:href="#DejaVuSans-34"/>
       <use xlink:href="#DejaVuSans-36" x="63.623047"/>
       <use xlink:href="#DejaVuSans-2e" x="127.246094"/>
       <use xlink:href="#DejaVuSans-38" x="159.033203"/>
       <use xlink:href="#DejaVuSans-33" x="222.65625"/>
      </g>
     </g>
    </g>
    <g id="xtick_9">
     <g id="line2d_17">
      <path d="M 395.706372 384.48 
L 395.706372 51.84 
" clip-path="url(#pfabd088de4)" style="fill: none; stroke: #b0b0b0; stroke-width: 0.8; stroke-linecap: square"/>
     </g>
     <g id="line2d_18">
      <g>
       <use xlink:href="#m71bf87ff95" x="395.706372" y="384.48" style="stroke: #000000; stroke-width: 0.8"/>
      </g>
     </g>
     <g id="text_9">
      <!-- 53.5 -->
      <g transform="translate(384.57356 399.078438) scale(0.1 -0.1)">
       <use xlink:href="#DejaVuSans-35"/>
       <use xlink:href="#DejaVuSans-33" x="63.623047"/>
       <use xlink:href="#DejaVuSans-2e" x="127.246094"/>
       <use xlink:href="#DejaVuSans-35" x="159.033203"/>
      </g>
     </g>
    </g>
    <g id="xtick_10">
     <g id="line2d_19">
      <path d="M 433.633305 384.48 
L 433.633305 51.84 
" clip-path="url(#pfabd088de4)" style="fill: none; stroke: #b0b0b0; stroke-width: 0.8; stroke-linecap: square"/>
     </g>
     <g id="line2d_20">
      <g>
       <use xlink:href="#m71bf87ff95" x="433.633305" y="384.48" style="stroke: #000000; stroke-width: 0.8"/>
      </g>
     </g>
     <g id="text_10">
      <!-- 60.17 -->
      <g transform="translate(419.319243 399.078438) scale(0.1 -0.1)">
       <use xlink:href="#DejaVuSans-36"/>
       <use xlink:href="#DejaVuSans-30" x="63.623047"/>
       <use xlink:href="#DejaVuSans-2e" x="127.246094"/>
       <use xlink:href="#DejaVuSans-31" x="159.033203"/>
       <use xlink:href="#DejaVuSans-37" x="222.65625"/>
      </g>
     </g>
    </g>
    <g id="xtick_11">
     <g id="line2d_21">
      <path d="M 471.560238 384.48 
L 471.560238 51.84 
" clip-path="url(#pfabd088de4)" style="fill: none; stroke: #b0b0b0; stroke-width: 0.8; stroke-linecap: square"/>
     </g>
     <g id="line2d_22">
      <g>
       <use xlink:href="#m71bf87ff95" x="471.560238" y="384.48" style="stroke: #000000; stroke-width: 0.8"/>
      </g>
     </g>
     <g id="text_11">
      <!-- 66.83 -->
      <g transform="translate(457.246175 399.078438) scale(0.1 -0.1)">
       <use xlink:href="#DejaVuSans-36"/>
       <use xlink:href="#DejaVuSans-36" x="63.623047"/>
       <use xlink:href="#DejaVuSans-2e" x="127.246094"/>
       <use xlink:href="#DejaVuSans-38" x="159.033203"/>
       <use xlink:href="#DejaVuSans-33" x="222.65625"/>
      </g>
     </g>
    </g>
    <g id="text_12">
     <!-- time in hours [h] -->
     <g transform="translate(253.451562 412.756563) scale(0.1 -0.1)">
      <defs>
       <path id="DejaVuSans-74" d="M 1172 4494 
L 1172 3500 
L 2356 3500 
L 2356 3053 
L 1172 3053 
L 1172 1153 
Q 1172 725 1289 603 
Q 1406 481 1766 481 
L 2356 481 
L 2356 0 
L 1766 0 
Q 1100 0 847 248 
Q 594 497 594 1153 
L 594 3053 
L 172 3053 
L 172 3500 
L 594 3500 
L 594 4494 
L 1172 4494 
z
" transform="scale(0.015625)"/>
       <path id="DejaVuSans-69" d="M 603 3500 
L 1178 3500 
L 1178 0 
L 603 0 
L 603 3500 
z
M 603 4863 
L 1178 4863 
L 1178 4134 
L 603 4134 
L 603 4863 
z
" transform="scale(0.015625)"/>
       <path id="DejaVuSans-6d" d="M 3328 2828 
Q 3544 3216 3844 3400 
Q 4144 3584 4550 3584 
Q 5097 3584 5394 3201 
Q 5691 2819 5691 2113 
L 5691 0 
L 5113 0 
L 5113 2094 
Q 5113 2597 4934 2840 
Q 4756 3084 4391 3084 
Q 3944 3084 3684 2787 
Q 3425 2491 3425 1978 
L 3425 0 
L 2847 0 
L 2847 2094 
Q 2847 2600 2669 2842 
Q 2491 3084 2119 3084 
Q 1678 3084 1418 2786 
Q 1159 2488 1159 1978 
L 1159 0 
L 581 0 
L 581 3500 
L 1159 3500 
L 1159 2956 
Q 1356 3278 1631 3431 
Q 1906 3584 2284 3584 
Q 2666 3584 2933 3390 
Q 3200 3197 3328 2828 
z
" transform="scale(0.015625)"/>
       <path id="DejaVuSans-65" d="M 3597 1894 
L 3597 1613 
L 953 1613 
Q 991 1019 1311 708 
Q 1631 397 2203 397 
Q 2534 397 2845 478 
Q 3156 559 3463 722 
L 3463 178 
Q 3153 47 2828 -22 
Q 2503 -91 2169 -91 
Q 1331 -91 842 396 
Q 353 884 353 1716 
Q 353 2575 817 3079 
Q 1281 3584 2069 3584 
Q 2775 3584 3186 3129 
Q 3597 2675 3597 1894 
z
M 3022 2063 
Q 3016 2534 2758 2815 
Q 2500 3097 2075 3097 
Q 1594 3097 1305 2825 
Q 1016 2553 972 2059 
L 3022 2063 
z
" transform="scale(0.015625)"/>
       <path id="DejaVuSans-20" transform="scale(0.015625)"/>
       <path id="DejaVuSans-6e" d="M 3513 2113 
L 3513 0 
L 2938 0 
L 2938 2094 
Q 2938 2591 2744 2837 
Q 2550 3084 2163 3084 
Q 1697 3084 1428 2787 
Q 1159 2491 1159 1978 
L 1159 0 
L 581 0 
L 581 3500 
L 1159 3500 
L 1159 2956 
Q 1366 3272 1645 3428 
Q 1925 3584 2291 3584 
Q 2894 3584 3203 3211 
Q 3513 2838 3513 2113 
z
" transform="scale(0.015625)"/>
       <path id="DejaVuSans-68" d="M 3513 2113 
L 3513 0 
L 2938 0 
L 2938 2094 
Q 2938 2591 2744 2837 
Q 2550 3084 2163 3084 
Q 1697 3084 1428 2787 
Q 1159 2491 1159 1978 
L 1159 0 
L 581 0 
L 581 4863 
L 1159 4863 
L 1159 2956 
Q 1366 3272 1645 3428 
Q 1925 3584 2291 3584 
Q 2894 3584 3203 3211 
Q 3513 2838 3513 2113 
z
" transform="scale(0.015625)"/>
       <path id="DejaVuSans-6f" d="M 1959 3097 
Q 1497 3097 1228 2736 
Q 959 2375 959 1747 
Q 959 1119 1226 758 
Q 1494 397 1959 397 
Q 2419 397 2687 759 
Q 2956 1122 2956 1747 
Q 2956 2369 2687 2733 
Q 2419 3097 1959 3097 
z
M 1959 3584 
Q 2709 3584 3137 3096 
Q 3566 2609 3566 1747 
Q 3566 888 3137 398 
Q 2709 -91 1959 -91 
Q 1206 -91 779 398 
Q 353 888 353 1747 
Q 353 2609 779 3096 
Q 1206 3584 1959 3584 
z
" transform="scale(0.015625)"/>
       <path id="DejaVuSans-75" d="M 544 1381 
L 544 3500 
L 1119 3500 
L 1119 1403 
Q 1119 906 1312 657 
Q 1506 409 1894 409 
Q 2359 409 2629 706 
Q 2900 1003 2900 1516 
L 2900 3500 
L 3475 3500 
L 3475 0 
L 2900 0 
L 2900 538 
Q 2691 219 2414 64 
Q 2138 -91 1772 -91 
Q 1169 -91 856 284 
Q 544 659 544 1381 
z
M 1991 3584 
L 1991 3584 
z
" transform="scale(0.015625)"/>
       <path id="DejaVuSans-72" d="M 2631 2963 
Q 2534 3019 2420 3045 
Q 2306 3072 2169 3072 
Q 1681 3072 1420 2755 
Q 1159 2438 1159 1844 
L 1159 0 
L 581 0 
L 581 3500 
L 1159 3500 
L 1159 2956 
Q 1341 3275 1631 3429 
Q 1922 3584 2338 3584 
Q 2397 3584 2469 3576 
Q 2541 3569 2628 3553 
L 2631 2963 
z
" transform="scale(0.015625)"/>
       <path id="DejaVuSans-73" d="M 2834 3397 
L 2834 2853 
Q 2591 2978 2328 3040 
Q 2066 3103 1784 3103 
Q 1356 3103 1142 2972 
Q 928 2841 928 2578 
Q 928 2378 1081 2264 
Q 1234 2150 1697 2047 
L 1894 2003 
Q 2506 1872 2764 1633 
Q 3022 1394 3022 966 
Q 3022 478 2636 193 
Q 2250 -91 1575 -91 
Q 1294 -91 989 -36 
Q 684 19 347 128 
L 347 722 
Q 666 556 975 473 
Q 1284 391 1588 391 
Q 1994 391 2212 530 
Q 2431 669 2431 922 
Q 2431 1156 2273 1281 
Q 2116 1406 1581 1522 
L 1381 1569 
Q 847 1681 609 1914 
Q 372 2147 372 2553 
Q 372 3047 722 3315 
Q 1072 3584 1716 3584 
Q 2034 3584 2315 3537 
Q 2597 3491 2834 3397 
z
" transform="scale(0.015625)"/>
       <path id="DejaVuSans-5b" d="M 550 4863 
L 1875 4863 
L 1875 4416 
L 1125 4416 
L 1125 -397 
L 1875 -397 
L 1875 -844 
L 550 -844 
L 550 4863 
z
" transform="scale(0.015625)"/>
       <path id="DejaVuSans-5d" d="M 1947 4863 
L 1947 -844 
L 622 -844 
L 622 -397 
L 1369 -397 
L 1369 4416 
L 622 4416 
L 622 4863 
L 1947 4863 
z
" transform="scale(0.015625)"/>
      </defs>
      <use xlink:href="#DejaVuSans-74"/>
      <use xlink:href="#DejaVuSans-69" x="39.208984"/>
      <use xlink:href="#DejaVuSans-6d" x="66.992188"/>
      <use xlink:href="#DejaVuSans-65" x="164.404297"/>
      <use xlink:href="#DejaVuSans-20" x="225.927734"/>
      <use xlink:href="#DejaVuSans-69" x="257.714844"/>
      <use xlink:href="#DejaVuSans-6e" x="285.498047"/>
      <use xlink:href="#DejaVuSans-20" x="348.876953"/>
      <use xlink:href="#DejaVuSans-68" x="380.664062"/>
      <use xlink:href="#DejaVuSans-6f" x="444.042969"/>
      <use xlink:href="#DejaVuSans-75" x="505.224609"/>
      <use xlink:href="#DejaVuSans-72" x="568.603516"/>
      <use xlink:href="#DejaVuSans-73" x="609.716797"/>
      <use xlink:href="#DejaVuSans-20" x="661.816406"/>
      <use xlink:href="#DejaVuSans-5b" x="693.603516"/>
      <use xlink:href="#DejaVuSans-68" x="732.617188"/>
      <use xlink:href="#DejaVuSans-5d" x="795.996094"/>
     </g>
    </g>
   </g>
   <g id="matplotlib.axis_2">
    <g id="ytick_1">
     <g id="line2d_23">
      <path d="M 72 372.779529 
L 518.4 372.779529 
" clip-path="url(#pfabd088de4)" style="fill: none; stroke: #b0b0b0; stroke-width: 0.8; stroke-linecap: square"/>
     </g>
     <g id="line2d_24">
      <defs>
       <path id="m1a28c59ede" d="M 0 0 
L -3.5 0 
" style="stroke: #000000; stroke-width: 0.8"/>
      </defs>
      <g>
       <use xlink:href="#m1a28c59ede" x="72" y="372.779529" style="stroke: #000000; stroke-width: 0.8"/>
      </g>
     </g>
     <g id="text_13">
      <!-- 5000 -->
      <g transform="translate(39.55 376.578748) scale(0.1 -0.1)">
       <use xlink:href="#DejaVuSans-35"/>
       <use xlink:href="#DejaVuSans-30" x="63.623047"/>
       <use xlink:href="#DejaVuSans-30" x="127.246094"/>
       <use xlink:href="#DejaVuSans-30" x="190.869141"/>
      </g>
     </g>
    </g>
    <g id="ytick_2">
     <g id="line2d_25">
      <path d="M 72 320.335979 
L 518.4 320.335979 
" clip-path="url(#pfabd088de4)" style="fill: none; stroke: #b0b0b0; stroke-width: 0.8; stroke-linecap: square"/>
     </g>
     <g id="line2d_26">
      <g>
       <use xlink:href="#m1a28c59ede" x="72" y="320.335979" style="stroke: #000000; stroke-width: 0.8"/>
      </g>
     </g>
     <g id="text_14">
      <!-- 10000 -->
      <g transform="translate(33.1875 324.135198) scale(0.1 -0.1)">
       <use xlink:href="#DejaVuSans-31"/>
       <use xlink:href="#DejaVuSans-30" x="63.623047"/>
       <use xlink:href="#DejaVuSans-30" x="127.246094"/>
       <use xlink:href="#DejaVuSans-30" x="190.869141"/>
       <use xlink:href="#DejaVuSans-30" x="254.492188"/>
      </g>
     </g>
    </g>
    <g id="ytick_3">
     <g id="line2d_27">
      <path d="M 72 267.892429 
L 518.4 267.892429 
" clip-path="url(#pfabd088de4)" style="fill: none; stroke: #b0b0b0; stroke-width: 0.8; stroke-linecap: square"/>
     </g>
     <g id="line2d_28">
      <g>
       <use xlink:href="#m1a28c59ede" x="72" y="267.892429" style="stroke: #000000; stroke-width: 0.8"/>
      </g>
     </g>
     <g id="text_15">
      <!-- 15000 -->
      <g transform="translate(33.1875 271.691647) scale(0.1 -0.1)">
       <use xlink:href="#DejaVuSans-31"/>
       <use xlink:href="#DejaVuSans-35" x="63.623047"/>
       <use xlink:href="#DejaVuSans-30" x="127.246094"/>
       <use xlink:href="#DejaVuSans-30" x="190.869141"/>
       <use xlink:href="#DejaVuSans-30" x="254.492188"/>
      </g>
     </g>
    </g>
    <g id="ytick_4">
     <g id="line2d_29">
      <path d="M 72 215.448878 
L 518.4 215.448878 
" clip-path="url(#pfabd088de4)" style="fill: none; stroke: #b0b0b0; stroke-width: 0.8; stroke-linecap: square"/>
     </g>
     <g id="line2d_30">
      <g>
       <use xlink:href="#m1a28c59ede" x="72" y="215.448878" style="stroke: #000000; stroke-width: 0.8"/>
      </g>
     </g>
     <g id="text_16">
      <!-- 20000 -->
      <g transform="translate(33.1875 219.248097) scale(0.1 -0.1)">
       <use xlink:href="#DejaVuSans-32"/>
       <use xlink:href="#DejaVuSans-30" x="63.623047"/>
       <use xlink:href="#DejaVuSans-30" x="127.246094"/>
       <use xlink:href="#DejaVuSans-30" x="190.869141"/>
       <use xlink:href="#DejaVuSans-30" x="254.492188"/>
      </g>
     </g>
    </g>
    <g id="ytick_5">
     <g id="line2d_31">
      <path d="M 72 163.005328 
L 518.4 163.005328 
" clip-path="url(#pfabd088de4)" style="fill: none; stroke: #b0b0b0; stroke-width: 0.8; stroke-linecap: square"/>
     </g>
     <g id="line2d_32">
      <g>
       <use xlink:href="#m1a28c59ede" x="72" y="163.005328" style="stroke: #000000; stroke-width: 0.8"/>
      </g>
     </g>
     <g id="text_17">
      <!-- 25000 -->
      <g transform="translate(33.1875 166.804547) scale(0.1 -0.1)">
       <use xlink:href="#DejaVuSans-32"/>
       <use xlink:href="#DejaVuSans-35" x="63.623047"/>
       <use xlink:href="#DejaVuSans-30" x="127.246094"/>
       <use xlink:href="#DejaVuSans-30" x="190.869141"/>
       <use xlink:href="#DejaVuSans-30" x="254.492188"/>
      </g>
     </g>
    </g>
    <g id="ytick_6">
     <g id="line2d_33">
      <path d="M 72 110.561778 
L 518.4 110.561778 
" clip-path="url(#pfabd088de4)" style="fill: none; stroke: #b0b0b0; stroke-width: 0.8; stroke-linecap: square"/>
     </g>
     <g id="line2d_34">
      <g>
       <use xlink:href="#m1a28c59ede" x="72" y="110.561778" style="stroke: #000000; stroke-width: 0.8"/>
      </g>
     </g>
     <g id="text_18">
      <!-- 30000 -->
      <g transform="translate(33.1875 114.360996) scale(0.1 -0.1)">
       <use xlink:href="#DejaVuSans-33"/>
       <use xlink:href="#DejaVuSans-30" x="63.623047"/>
       <use xlink:href="#DejaVuSans-30" x="127.246094"/>
       <use xlink:href="#DejaVuSans-30" x="190.869141"/>
       <use xlink:href="#DejaVuSans-30" x="254.492188"/>
      </g>
     </g>
    </g>
    <g id="ytick_7">
     <g id="line2d_35">
      <path d="M 72 58.118227 
L 518.4 58.118227 
" clip-path="url(#pfabd088de4)" style="fill: none; stroke: #b0b0b0; stroke-width: 0.8; stroke-linecap: square"/>
     </g>
     <g id="line2d_36">
      <g>
       <use xlink:href="#m1a28c59ede" x="72" y="58.118227" style="stroke: #000000; stroke-width: 0.8"/>
      </g>
     </g>
     <g id="text_19">
      <!-- 35000 -->
      <g transform="translate(33.1875 61.917446) scale(0.1 -0.1)">
       <use xlink:href="#DejaVuSans-33"/>
       <use xlink:href="#DejaVuSans-35" x="63.623047"/>
       <use xlink:href="#DejaVuSans-30" x="127.246094"/>
       <use xlink:href="#DejaVuSans-30" x="190.869141"/>
       <use xlink:href="#DejaVuSans-30" x="254.492188"/>
      </g>
     </g>
    </g>
    <g id="text_20">
     <!-- blank corrected GFP RFU -->
     <g transform="translate(27.107812 280.149062) rotate(-90) scale(0.1 -0.1)">
      <defs>
       <path id="DejaVuSans-62" d="M 3116 1747 
Q 3116 2381 2855 2742 
Q 2594 3103 2138 3103 
Q 1681 3103 1420 2742 
Q 1159 2381 1159 1747 
Q 1159 1113 1420 752 
Q 1681 391 2138 391 
Q 2594 391 2855 752 
Q 3116 1113 3116 1747 
z
M 1159 2969 
Q 1341 3281 1617 3432 
Q 1894 3584 2278 3584 
Q 2916 3584 3314 3078 
Q 3713 2572 3713 1747 
Q 3713 922 3314 415 
Q 2916 -91 2278 -91 
Q 1894 -91 1617 61 
Q 1341 213 1159 525 
L 1159 0 
L 581 0 
L 581 4863 
L 1159 4863 
L 1159 2969 
z
" transform="scale(0.015625)"/>
       <path id="DejaVuSans-6c" d="M 603 4863 
L 1178 4863 
L 1178 0 
L 603 0 
L 603 4863 
z
" transform="scale(0.015625)"/>
       <path id="DejaVuSans-61" d="M 2194 1759 
Q 1497 1759 1228 1600 
Q 959 1441 959 1056 
Q 959 750 1161 570 
Q 1363 391 1709 391 
Q 2188 391 2477 730 
Q 2766 1069 2766 1631 
L 2766 1759 
L 2194 1759 
z
M 3341 1997 
L 3341 0 
L 2766 0 
L 2766 531 
Q 2569 213 2275 61 
Q 1981 -91 1556 -91 
Q 1019 -91 701 211 
Q 384 513 384 1019 
Q 384 1609 779 1909 
Q 1175 2209 1959 2209 
L 2766 2209 
L 2766 2266 
Q 2766 2663 2505 2880 
Q 2244 3097 1772 3097 
Q 1472 3097 1187 3025 
Q 903 2953 641 2809 
L 641 3341 
Q 956 3463 1253 3523 
Q 1550 3584 1831 3584 
Q 2591 3584 2966 3190 
Q 3341 2797 3341 1997 
z
" transform="scale(0.015625)"/>
       <path id="DejaVuSans-6b" d="M 581 4863 
L 1159 4863 
L 1159 1991 
L 2875 3500 
L 3609 3500 
L 1753 1863 
L 3688 0 
L 2938 0 
L 1159 1709 
L 1159 0 
L 581 0 
L 581 4863 
z
" transform="scale(0.015625)"/>
       <path id="DejaVuSans-63" d="M 3122 3366 
L 3122 2828 
Q 2878 2963 2633 3030 
Q 2388 3097 2138 3097 
Q 1578 3097 1268 2742 
Q 959 2388 959 1747 
Q 959 1106 1268 751 
Q 1578 397 2138 397 
Q 2388 397 2633 464 
Q 2878 531 3122 666 
L 3122 134 
Q 2881 22 2623 -34 
Q 2366 -91 2075 -91 
Q 1284 -91 818 406 
Q 353 903 353 1747 
Q 353 2603 823 3093 
Q 1294 3584 2113 3584 
Q 2378 3584 2631 3529 
Q 2884 3475 3122 3366 
z
" transform="scale(0.015625)"/>
       <path id="DejaVuSans-64" d="M 2906 2969 
L 2906 4863 
L 3481 4863 
L 3481 0 
L 2906 0 
L 2906 525 
Q 2725 213 2448 61 
Q 2172 -91 1784 -91 
Q 1150 -91 751 415 
Q 353 922 353 1747 
Q 353 2572 751 3078 
Q 1150 3584 1784 3584 
Q 2172 3584 2448 3432 
Q 2725 3281 2906 2969 
z
M 947 1747 
Q 947 1113 1208 752 
Q 1469 391 1925 391 
Q 2381 391 2643 752 
Q 2906 1113 2906 1747 
Q 2906 2381 2643 2742 
Q 2381 3103 1925 3103 
Q 1469 3103 1208 2742 
Q 947 2381 947 1747 
z
" transform="scale(0.015625)"/>
       <path id="DejaVuSans-47" d="M 3809 666 
L 3809 1919 
L 2778 1919 
L 2778 2438 
L 4434 2438 
L 4434 434 
Q 4069 175 3628 42 
Q 3188 -91 2688 -91 
Q 1594 -91 976 548 
Q 359 1188 359 2328 
Q 359 3472 976 4111 
Q 1594 4750 2688 4750 
Q 3144 4750 3555 4637 
Q 3966 4525 4313 4306 
L 4313 3634 
Q 3963 3931 3569 4081 
Q 3175 4231 2741 4231 
Q 1884 4231 1454 3753 
Q 1025 3275 1025 2328 
Q 1025 1384 1454 906 
Q 1884 428 2741 428 
Q 3075 428 3337 486 
Q 3600 544 3809 666 
z
" transform="scale(0.015625)"/>
       <path id="DejaVuSans-46" d="M 628 4666 
L 3309 4666 
L 3309 4134 
L 1259 4134 
L 1259 2759 
L 3109 2759 
L 3109 2228 
L 1259 2228 
L 1259 0 
L 628 0 
L 628 4666 
z
" transform="scale(0.015625)"/>
       <path id="DejaVuSans-50" d="M 1259 4147 
L 1259 2394 
L 2053 2394 
Q 2494 2394 2734 2622 
Q 2975 2850 2975 3272 
Q 2975 3691 2734 3919 
Q 2494 4147 2053 4147 
L 1259 4147 
z
M 628 4666 
L 2053 4666 
Q 2838 4666 3239 4311 
Q 3641 3956 3641 3272 
Q 3641 2581 3239 2228 
Q 2838 1875 2053 1875 
L 1259 1875 
L 1259 0 
L 628 0 
L 628 4666 
z
" transform="scale(0.015625)"/>
       <path id="DejaVuSans-52" d="M 2841 2188 
Q 3044 2119 3236 1894 
Q 3428 1669 3622 1275 
L 4263 0 
L 3584 0 
L 2988 1197 
Q 2756 1666 2539 1819 
Q 2322 1972 1947 1972 
L 1259 1972 
L 1259 0 
L 628 0 
L 628 4666 
L 2053 4666 
Q 2853 4666 3247 4331 
Q 3641 3997 3641 3322 
Q 3641 2881 3436 2590 
Q 3231 2300 2841 2188 
z
M 1259 4147 
L 1259 2491 
L 2053 2491 
Q 2509 2491 2742 2702 
Q 2975 2913 2975 3322 
Q 2975 3731 2742 3939 
Q 2509 4147 2053 4147 
L 1259 4147 
z
" transform="scale(0.015625)"/>
       <path id="DejaVuSans-55" d="M 556 4666 
L 1191 4666 
L 1191 1831 
Q 1191 1081 1462 751 
Q 1734 422 2344 422 
Q 2950 422 3222 751 
Q 3494 1081 3494 1831 
L 3494 4666 
L 4128 4666 
L 4128 1753 
Q 4128 841 3676 375 
Q 3225 -91 2344 -91 
Q 1459 -91 1007 375 
Q 556 841 556 1753 
L 556 4666 
z
" transform="scale(0.015625)"/>
      </defs>
      <use xlink:href="#DejaVuSans-62"/>
      <use xlink:href="#DejaVuSans-6c" x="63.476562"/>
      <use xlink:href="#DejaVuSans-61" x="91.259766"/>
      <use xlink:href="#DejaVuSans-6e" x="152.539062"/>
      <use xlink:href="#DejaVuSans-6b" x="215.917969"/>
      <use xlink:href="#DejaVuSans-20" x="273.828125"/>
      <use xlink:href="#DejaVuSans-63" x="305.615234"/>
      <use xlink:href="#DejaVuSans-6f" x="360.595703"/>
      <use xlink:href="#DejaVuSans-72" x="421.777344"/>
      <use xlink:href="#DejaVuSans-72" x="461.140625"/>
      <use xlink:href="#DejaVuSans-65" x="500.003906"/>
      <use xlink:href="#DejaVuSans-63" x="561.527344"/>
      <use xlink:href="#DejaVuSans-74" x="616.507812"/>
      <use xlink:href="#DejaVuSans-65" x="655.716797"/>
      <use xlink:href="#DejaVuSans-64" x="717.240234"/>
      <use xlink:href="#DejaVuSans-20" x="780.716797"/>
      <use xlink:href="#DejaVuSans-47" x="812.503906"/>
      <use xlink:href="#DejaVuSans-46" x="889.994141"/>
      <use xlink:href="#DejaVuSans-50" x="947.513672"/>
      <use xlink:href="#DejaVuSans-20" x="1007.816406"/>
      <use xlink:href="#DejaVuSans-52" x="1039.603516"/>
      <use xlink:href="#DejaVuSans-46" x="1109.085938"/>
      <use xlink:href="#DejaVuSans-55" x="1166.605469"/>
     </g>
    </g>
   </g>
   <g id="line2d_37">
    <path d="M 92.290909 357.423848 
L 93.239082 365.646997 
L 94.187256 366.979063 
L 95.135429 367.933535 
L 96.083602 367.702784 
L 97.031776 368.0594 
L 98.928122 366.171432 
L 100.824469 365.342824 
L 101.772642 364.147111 
L 102.720816 364.231021 
L 103.668989 363.884893 
L 104.617162 363.003842 
L 105.565336 362.909443 
L 106.513509 362.301098 
L 107.461682 361.38858 
L 109.358029 360.192867 
L 110.306202 359.878206 
L 111.254376 358.252456 
L 112.202549 358.367832 
L 113.150722 357.748998 
L 114.098895 356.993811 
L 115.047069 356.75257 
L 115.995242 355.231708 
L 116.943415 354.633851 
L 117.891589 352.945169 
L 118.839762 353.522048 
L 119.787935 353.417161 
L 121.684282 350.774006 
L 122.632455 350.312503 
L 123.580629 349.725135 
L 124.528802 348.025964 
L 125.476975 347.134423 
L 126.425149 346.735852 
L 127.373322 345.949199 
L 128.321495 344.80593 
L 129.269669 344.333938 
L 130.217842 342.676722 
L 131.166015 341.397099 
L 132.114189 340.537025 
L 133.062362 338.86932 
L 134.010535 338.040712 
L 134.958709 338.848342 
L 135.906882 336.603758 
L 136.855055 336.467405 
L 137.803229 334.96752 
L 138.751402 335.848571 
L 139.699575 332.754402 
L 140.647749 331.327937 
L 141.595922 330.74057 
L 142.544095 329.911961 
L 143.492268 328.894557 
L 144.440442 328.044971 
L 145.388615 327.531024 
L 147.284962 323.838998 
L 148.233135 322.223737 
L 149.181308 320.356747 
L 150.129482 320.304303 
L 151.077655 318.342914 
L 152.025828 318.647087 
L 152.974002 316.339571 
L 153.922175 316.843029 
L 154.870348 313.979611 
L 155.818522 311.672095 
L 156.766695 310.948374 
L 157.714868 308.588414 
L 158.663042 307.917136 
L 159.611215 305.798417 
L 160.559388 304.843944 
L 161.507562 303.029398 
L 162.455735 302.379097 
L 163.403908 299.138086 
L 164.352082 297.522825 
L 165.300255 296.18027 
L 166.248428 293.400762 
L 167.196602 292.205049 
L 168.144775 289.67727 
L 169.092948 288.94306 
L 170.041121 287.936144 
L 170.989295 283.446976 
L 171.937468 281.3807 
L 172.885641 280.0801 
L 173.833815 274.741346 
L 174.781988 277.531343 
L 175.730161 274.783301 
L 176.678335 270.3256 
L 177.626508 266.434288 
L 179.522855 261.861211 
L 180.471028 258.819485 
L 181.419201 256.627344 
L 182.367375 255.106481 
L 183.315548 252.337462 
L 184.263721 250.984418 
L 185.211895 246.49525 
L 186.160068 244.575816 
L 188.056415 236.929547 
L 189.004588 234.989135 
L 189.952761 232.251582 
L 190.900935 230.741208 
L 191.849108 225.853469 
L 192.797281 222.685878 
L 193.745455 218.44844 
L 195.641801 215.857728 
L 196.589975 213.046754 
L 197.538148 211.158786 
L 198.486321 211.347583 
L 199.434494 205.820033 
L 200.382668 199.01286 
L 201.330841 195.247413 
L 202.279014 192.688168 
L 203.227188 185.388025 
L 204.175361 182.073593 
L 205.123534 180.63664 
L 206.071708 175.948186 
L 207.019881 173.273565 
L 207.968054 168.84733 
L 208.916228 166.833497 
L 209.864401 161.106662 
L 210.812574 157.141929 
L 211.760748 155.044187 
L 212.708921 148.76145 
L 213.657094 145.216266 
L 214.605268 142.436758 
L 215.553441 138.83913 
L 216.501614 135.734472 
L 217.449788 131.077485 
L 218.397961 127.993804 
L 219.346134 126.861023 
L 220.294308 121.532758 
L 221.242481 120.190204 
L 222.190654 114.316526 
L 223.138828 112.229273 
L 224.087001 111.946077 
L 225.035174 108.663111 
L 225.983347 101.855938 
L 226.931521 99.579888 
L 227.879694 99.107896 
L 228.827867 95.49978 
L 229.776041 93.506925 
L 230.724214 91.954596 
L 231.672387 92.227303 
L 232.620561 89.877832 
L 233.568734 86.469001 
L 234.516907 86.458512 
L 235.465081 84.161485 
L 236.413254 83.039193 
L 237.361427 83.259455 
L 238.309601 81.885434 
L 239.257774 79.945023 
L 240.205947 79.609384 
L 241.154121 78.42416 
L 242.102294 79.126904 
L 243.998641 76.284463 
L 244.946814 78.067544 
L 245.894987 77.553597 
L 246.843161 77.553597 
L 247.791334 76.546681 
L 248.739507 73.431534 
L 249.687681 73.085407 
L 250.635854 73.95597 
L 251.584027 72.781234 
L 252.532201 72.48755 
L 253.480374 73.263715 
L 254.428547 73.767173 
L 256.324894 75.08875 
L 257.273067 72.623903 
L 258.22124 73.672774 
L 259.169414 74.008413 
L 260.117587 74.564315 
L 261.06576 74.721645 
L 262.013934 74.386007 
L 262.962107 73.494466 
L 263.91028 73.903526 
L 264.858454 73.599353 
L 265.806627 72.728791 
L 266.7548 73.641308 
L 267.702974 74.795066 
L 268.651147 73.735707 
L 269.59932 76.001268 
L 270.547494 73.095895 
L 271.495667 74.029391 
L 272.44384 74.7636 
L 273.392014 73.536421 
L 274.340187 73.725218 
L 275.28836 72.393152 
L 276.236534 74.312586 
L 277.184707 73.284692 
L 278.13288 76.211042 
L 279.081054 77.186492 
L 280.029227 77.763371 
L 280.9774 74.165744 
L 281.925573 73.232249 
L 282.873747 73.127362 
L 283.82192 72.288265 
L 284.770093 73.494466 
L 285.718267 75.634163 
L 286.66644 74.564315 
L 287.614613 75.634163 
L 288.562787 75.204126 
L 289.51096 76.211042 
L 290.459133 78.602468 
L 292.35548 77.186492 
L 293.303653 77.029162 
L 294.251827 78.371717 
L 295.2 81.853968 
L 296.148173 81.539307 
L 298.04452 84.486635 
L 298.992693 86.87806 
L 299.940867 87.04588 
L 300.88904 89.353396 
L 301.837213 91.18892 
L 302.785387 92.437077 
L 303.73356 95.017299 
L 304.681733 95.877374 
L 305.629907 98.520529 
L 306.57808 100.335075 
L 307.526253 102.65308 
L 308.474427 103.072629 
L 309.4226 109.302923 
L 311.318946 117.94562 
L 312.26712 119.969941 
L 313.215293 122.550163 
L 315.11164 132.472483 
L 316.059813 138.377627 
L 317.007986 145.593859 
L 317.95616 151.142387 
L 318.904333 158.589371 
L 319.852506 167.116692 
L 321.748853 181.433782 
L 322.697026 189.510088 
L 323.6452 196.390682 
L 324.593373 202.065074 
L 325.541546 210.340667 
L 326.48972 217.042952 
L 327.437893 224.940951 
L 328.386066 228.591022 
L 329.33424 234.307369 
L 331.230586 247.628031 
L 332.17876 251.676673 
L 333.126933 256.291705 
L 336.919626 272.675071 
L 338.815973 277.929914 
L 339.764146 280.908708 
L 340.712319 283.310623 
L 341.660493 287.579528 
L 342.608666 289.740202 
L 343.556839 292.92877 
L 344.505013 294.743317 
L 345.453186 297.858463 
L 346.401359 300.40722 
L 347.349533 301.959549 
L 348.297706 305.515222 
L 349.245879 308.116422 
L 351.142226 310.759577 
L 353.038573 314.587956 
L 353.986746 315.458519 
L 354.934919 317.797501 
L 355.883093 318.720508 
L 357.779439 322.129339 
L 358.727613 322.223737 
L 360.623959 323.922908 
L 361.572133 323.922908 
L 362.520306 324.489298 
L 363.468479 326.219935 
L 364.416653 326.198958 
L 366.312999 327.625423 
L 367.261172 327.688355 
L 368.209346 328.684782 
L 369.157519 328.370121 
L 370.105692 328.338655 
L 371.053866 329.460947 
L 372.002039 329.418992 
L 372.950212 329.786097 
L 373.898386 329.586811 
L 374.846559 330.069292 
L 375.794732 329.68121 
L 376.742906 330.824479 
L 377.691079 329.932939 
L 378.639252 330.341999 
L 379.587426 329.870007 
L 381.483772 330.709103 
L 382.431946 330.362976 
L 383.380119 329.849029 
L 384.328292 330.457374 
L 385.276466 330.195157 
L 387.172812 331.411847 
L 389.069159 330.321021 
L 390.017332 330.604216 
L 390.965506 329.104331 
L 391.913679 330.016849 
L 392.861852 328.947 
L 393.810025 328.842113 
L 394.758199 329.35606 
L 395.706372 329.209218 
L 396.654545 329.251173 
L 398.550892 327.604445 
L 399.499065 328.181324 
L 400.447239 328.485497 
L 401.395412 329.062376 
L 402.343585 328.097415 
L 403.291759 328.359632 
L 404.239932 328.317677 
L 405.188105 327.426137 
L 406.136279 327.038055 
L 407.084452 326.482153 
L 408.032625 327.698844 
L 409.928972 327.593957 
L 410.877145 327.038055 
L 411.825319 327.835197 
L 412.773492 326.807303 
L 413.721665 326.555574 
L 414.669839 327.656889 
L 415.618012 327.184897 
L 416.566185 327.090498 
L 417.514359 326.167492 
L 418.462532 327.090498 
L 419.410705 326.796815 
L 420.358879 326.702416 
L 421.307052 326.744371 
L 422.255225 326.576552 
L 423.203398 328.779181 
L 424.151572 328.768692 
L 425.099745 328.475008 
L 426.047918 327.048544 
L 426.996092 326.387755 
L 427.944265 326.723394 
L 428.892438 326.219935 
L 429.840612 326.094071 
L 430.788785 324.709561 
L 431.736958 325.317906 
L 432.685132 325.674523 
L 433.633305 325.359861 
L 434.581478 325.422794 
L 435.529652 324.887869 
L 436.477825 324.898358 
L 437.425998 326.471665 
L 440.270518 325.066177 
L 441.218692 325.852831 
L 442.166865 325.538169 
L 443.115038 325.517192 
L 444.063212 325.685011 
L 445.011385 325.517192 
L 445.959558 325.653545 
L 446.907732 325.517192 
L 447.855905 324.615163 
L 448.804078 325.93674 
L 449.752251 325.601102 
L 450.700425 326.094071 
L 451.648598 325.359861 
L 452.596771 326.608018 
L 453.544945 325.37035 
L 454.493118 324.971779 
L 455.441291 326.964634 
L 456.389465 327.436626 
L 457.337638 328.086926 
L 458.285811 327.436626 
L 459.233985 327.761776 
L 460.182158 327.908618 
L 461.130331 326.157003 
L 462.078505 324.877381 
L 463.026678 325.485726 
L 463.974851 325.139598 
L 464.923025 324.31099 
L 465.871198 324.877381 
L 466.819371 324.678095 
L 467.767545 325.852831 
L 468.715718 325.37035 
L 470.612065 325.559147 
L 471.560238 324.887869 
L 472.508411 324.866892 
L 473.456585 324.992756 
L 474.404758 324.206103 
L 475.352931 325.380839 
L 476.301105 323.870464 
L 477.249278 324.929824 
L 478.197451 324.47881 
L 479.145624 324.908847 
L 480.093798 325.580124 
L 481.041971 324.856403 
L 481.990144 324.709561 
L 482.938318 325.831853 
L 484.834664 324.793471 
L 485.782838 325.821365 
L 486.731011 324.971779 
L 487.679184 324.866892 
L 488.627358 324.887869 
L 489.575531 325.726966 
L 490.523704 324.531253 
L 491.471878 326.251402 
L 492.420051 325.905274 
L 493.368224 325.737455 
L 494.316398 326.031139 
L 495.264571 325.664034 
L 496.212744 325.768921 
L 497.160918 325.45426 
L 498.109091 324.762005 
L 498.109091 324.762005 
" clip-path="url(#pfabd088de4)" style="fill: none; stroke: #008000; stroke-width: 1.5; stroke-linecap: square"/>
   </g>
   <g id="line2d_38">
    <path d="M 92.290909 361.126363 
L 93.239082 366.895153 
L 94.187256 368.153798 
L 95.135429 369.087294 
L 96.083602 369.150226 
L 97.031776 369.36 
L 98.928122 367.482521 
L 99.876296 367.786693 
L 100.824469 367.388123 
L 101.772642 365.804327 
L 102.720816 367.451055 
L 103.668989 366.129477 
L 104.617162 365.185493 
L 105.565336 365.29038 
L 106.513509 363.979292 
L 107.461682 364.021247 
L 108.409856 363.234593 
L 111.254376 361.336137 
L 112.202549 359.878206 
L 113.150722 360.182379 
L 114.098895 358.200012 
L 115.047069 357.843396 
L 115.995242 358.179035 
L 116.943415 356.563774 
L 117.891589 355.326106 
L 118.839762 356.647683 
L 119.787935 356.144225 
L 120.736109 354.172348 
L 121.684282 352.620019 
L 122.632455 352.536109 
L 123.580629 351.183065 
L 124.528802 350.637653 
L 125.476975 349.609759 
L 126.425149 348.812617 
L 127.373322 347.690325 
L 128.321495 346.054086 
L 129.269669 346.777807 
L 130.217842 346.274349 
L 131.166015 345.61356 
L 132.114189 344.271006 
L 133.062362 342.414504 
L 134.010535 341.14537 
L 134.958709 341.732738 
L 135.906882 340.012589 
L 136.855055 339.142026 
L 137.803229 337.07575 
L 138.751402 336.488383 
L 139.699575 335.061918 
L 140.647749 334.957031 
L 141.595922 333.152973 
L 143.492268 331.076208 
L 144.440442 328.642828 
L 145.388615 328.475008 
L 146.336788 327.919107 
L 147.284962 326.3458 
L 148.233135 324.174637 
L 149.181308 324.269035 
L 150.129482 321.972008 
L 151.077655 320.503588 
L 152.025828 320.944114 
L 152.974002 323.513848 
L 153.922175 324.384411 
L 154.870348 324.646629 
L 155.818522 322.926481 
L 156.766695 322.255203 
L 157.714868 322.496443 
L 158.663042 320.524566 
L 159.611215 316.486413 
L 160.559388 311.399388 
L 161.507562 304.781012 
L 162.455735 302.305677 
L 164.352082 299.536657 
L 165.300255 297.134742 
L 166.248428 295.85512 
L 168.144775 292.51971 
L 169.092948 289.173812 
L 170.041121 288.345203 
L 170.989295 285.817424 
L 171.937468 285.04126 
L 172.885641 285.565695 
L 173.833815 284.22314 
L 174.781988 285.397876 
L 175.730161 286.121597 
L 176.678335 286.488702 
L 177.626508 284.705621 
L 179.522855 279.293447 
L 180.471028 275.276271 
L 181.419201 265.857409 
L 182.367375 258.263583 
L 183.315548 252.001823 
L 184.263721 250.7222 
L 185.211895 248.414684 
L 187.108241 242.425631 
L 188.056415 241.555068 
L 189.004588 238.387477 
L 190.900935 233.992708 
L 191.849108 229.576961 
L 192.797281 224.353583 
L 193.745455 220.703512 
L 194.693628 222.434149 
L 195.641801 222.811743 
L 196.589975 227.458241 
L 197.538148 225.863958 
L 198.486321 228.349782 
L 199.434494 224.21723 
L 200.382668 221.846782 
L 201.330841 221.542609 
L 203.227188 215.752841 
L 204.175361 212.952355 
L 205.123534 207.854842 
L 206.071708 205.075334 
L 207.019881 198.110831 
L 207.968054 186.478851 
L 208.916228 177.322207 
L 209.864401 162.134555 
L 210.812574 156.281855 
L 211.760748 151.645845 
L 213.657094 144.020553 
L 214.605268 141.555706 
L 215.553441 137.423154 
L 216.501614 134.559736 
L 218.397961 126.735159 
L 219.346134 125.654822 
L 220.294308 125.570912 
L 221.242481 127.500835 
L 223.138828 133.531843 
L 225.035174 138.000033 
L 225.983347 136.993117 
L 226.931521 134.968796 
L 227.879694 131.727785 
L 228.827867 128.969254 
L 229.776041 121.239075 
L 230.724214 105.411611 
L 232.620561 85.671859 
L 233.568734 83.028704 
L 234.516907 84.476146 
L 235.465081 82.441336 
L 236.413254 81.927389 
L 237.361427 79.042994 
L 238.309601 78.529047 
L 239.257774 77.805326 
L 240.205947 77.459199 
L 241.154121 75.938336 
L 242.102294 75.371945 
L 243.050467 82.00081 
L 245.894987 103.911726 
L 246.843161 105.264769 
L 247.791334 109.848335 
L 248.739507 108.0233 
L 249.687681 107.226158 
L 250.635854 109.208524 
L 251.584027 106.827587 
L 252.532201 97.545079 
L 253.480374 86.825617 
L 254.428547 80.312128 
L 255.37672 72.865144 
L 256.324894 70.610071 
L 257.273067 69.781463 
L 258.22124 72.340708 
L 259.169414 73.735707 
L 260.117587 71.564544 
L 261.06576 72.141423 
L 262.013934 72.949053 
L 262.962107 74.228676 
L 263.91028 71.281349 
L 264.858454 71.050597 
L 265.806627 71.407213 
L 266.7548 70.714958 
L 267.702974 71.396724 
L 268.651147 72.65537 
L 269.59932 74.260142 
L 270.547494 72.099468 
L 272.44384 73.127362 
L 273.392014 72.351197 
L 274.340187 73.13785 
L 275.28836 70.180034 
L 276.236534 77.354312 
L 277.184707 76.546681 
L 278.13288 90.62253 
L 279.081054 98.352709 
L 280.029227 101.667142 
L 280.9774 107.383489 
L 281.925573 110.246906 
L 282.873747 111.127958 
L 283.82192 112.585889 
L 284.770093 110.561568 
L 285.718267 112.460024 
L 286.66644 103.974658 
L 288.562787 83.962199 
L 289.51096 79.609384 
L 290.459133 78.602468 
L 291.407307 78.172431 
L 292.35548 78.696867 
L 293.303653 80.45897 
L 294.251827 81.832991 
L 295.2 84.654454 
L 296.148173 83.269944 
L 297.096347 84.423702 
L 298.992693 90.003696 
L 299.940867 90.223959 
L 300.88904 91.063056 
L 301.837213 94.104782 
L 302.785387 96.286433 
L 304.681733 101.614698 
L 305.629907 101.719585 
L 306.57808 105.264769 
L 307.526253 107.163226 
L 308.474427 120.106294 
L 310.370773 141.157135 
L 311.318946 151.341673 
L 314.163466 175.769878 
L 315.11164 179.870964 
L 316.059813 187.034753 
L 317.007986 193.212603 
L 317.95616 193.883881 
L 318.904333 195.425721 
L 319.852506 195.635495 
L 320.80068 194.439782 
L 321.748853 198.771619 
L 324.593373 219.119717 
L 325.541546 224.374561 
L 326.48972 231.506884 
L 328.386066 243.5689 
L 329.33424 248.079045 
L 330.282413 251.288591 
L 331.230586 256.994449 
L 332.17876 260.151551 
L 333.126933 265.783988 
L 334.075106 268.280301 
L 335.02328 273.954693 
L 335.971453 277.783072 
L 336.919626 284.737087 
L 337.867799 290.4849 
L 338.815973 295.026512 
L 339.764146 300.753347 
L 340.712319 303.459435 
L 341.660493 306.595559 
L 342.608666 307.361235 
L 343.556839 304.739057 
L 344.505013 303.060864 
L 345.453186 303.071352 
L 346.401359 306.301875 
L 347.349533 308.305219 
L 348.297706 309.752661 
L 349.245879 312.93074 
L 350.194053 314.525024 
L 351.142226 314.325738 
L 352.090399 316.601788 
L 353.038573 318.573666 
L 353.986746 319.716935 
L 354.934919 322.129339 
L 355.883093 325.349373 
L 356.831266 329.261661 
L 357.779439 331.768463 
L 358.727613 333.792784 
L 359.675786 334.589926 
L 360.623959 334.978008 
L 361.572133 334.862633 
L 362.520306 335.082895 
L 363.468479 332.764891 
L 364.416653 330.027337 
L 365.364826 328.842113 
L 366.312999 328.223279 
L 367.261172 330.069292 
L 368.209346 329.68121 
L 369.157519 330.583239 
L 370.105692 330.625194 
L 371.053866 332.586582 
L 372.002039 330.855945 
L 372.950212 331.600644 
L 373.898386 330.98181 
L 374.846559 332.219478 
L 375.794732 332.020192 
L 378.639252 331.139141 
L 379.587426 332.450229 
L 380.535599 333.415191 
L 381.483772 332.36632 
L 382.431946 331.663576 
L 383.380119 332.219478 
L 384.328292 332.586582 
L 386.224639 333.677408 
L 387.172812 337.275036 
L 388.120986 339.267891 
L 389.069159 340.558002 
L 390.017332 341.22928 
L 390.965506 341.323678 
L 391.913679 342.498414 
L 392.861852 340.998528 
L 393.810025 340.809731 
L 394.758199 339.163004 
L 395.706372 338.858831 
L 396.654545 335.638797 
L 397.602719 331.338426 
L 398.550892 330.467863 
L 399.499065 331.275494 
L 400.447239 330.845457 
L 401.395412 329.995871 
L 402.343585 329.92245 
L 403.291759 329.964405 
L 404.239932 330.950344 
L 405.188105 329.985382 
L 406.136279 330.530795 
L 407.084452 330.111247 
L 408.032625 330.667149 
L 409.928972 330.216134 
L 410.877145 330.258089 
L 411.825319 329.953916 
L 412.773492 329.209218 
L 413.721665 329.817563 
L 414.669839 328.716248 
L 415.618012 329.859518 
L 416.566185 330.100758 
L 417.514359 329.618278 
L 418.462532 329.964405 
L 419.410705 329.712676 
L 420.358879 331.107674 
L 421.307052 331.537711 
L 422.255225 334.684325 
L 423.203398 336.960375 
L 424.151572 338.365862 
L 425.099745 338.586125 
L 426.047918 338.575636 
L 426.996092 338.806388 
L 427.944265 338.827365 
L 428.892438 338.093155 
L 429.840612 335.921992 
L 430.788785 331.915305 
L 431.736958 330.184668 
L 432.685132 329.639255 
L 433.633305 328.86309 
L 435.529652 328.674294 
L 436.477825 328.873579 
L 437.425998 329.27215 
L 438.374172 328.338655 
L 439.322345 329.324594 
L 440.270518 328.349144 
L 441.218692 328.454031 
L 442.166865 329.135797 
L 443.115038 328.527452 
L 444.063212 329.156774 
L 445.011385 329.03091 
L 445.959558 327.835197 
L 446.907732 328.433053 
L 447.855905 328.454031 
L 448.804078 329.240684 
L 449.752251 327.593957 
L 450.700425 329.18824 
L 451.648598 328.223279 
L 452.596771 328.873579 
L 453.544945 328.422565 
L 457.337638 335.890526 
L 459.233985 338.732967 
L 460.182158 338.082667 
L 461.130331 338.470749 
L 462.078505 337.610675 
L 463.026678 335.838083 
L 463.974851 335.250715 
L 464.923025 330.153202 
L 465.871198 329.104331 
L 466.819371 327.866663 
L 467.767545 328.38061 
L 468.715718 328.600873 
L 469.663891 327.111476 
L 470.612065 328.013505 
L 471.560238 328.097415 
L 472.508411 328.05546 
L 473.456585 327.572979 
L 474.404758 327.572979 
L 475.352931 328.044971 
L 476.301105 327.625423 
L 477.249278 328.62185 
L 478.197451 328.003016 
L 479.145624 327.677866 
L 480.093798 326.786326 
L 481.041971 328.338655 
L 482.938318 328.034482 
L 483.886491 327.614934 
L 484.834664 326.796815 
L 485.782838 328.023994 
L 487.679184 328.003016 
L 488.627358 327.866663 
L 489.575531 326.933168 
L 490.523704 327.824708 
L 491.471878 331.275494 
L 492.420051 331.485268 
L 493.368224 333.876694 
L 494.316398 334.516505 
L 495.264571 335.796128 
L 496.212744 335.271692 
L 497.160918 335.806616 
L 498.109091 334.736768 
L 498.109091 334.736768 
" clip-path="url(#pfabd088de4)" style="fill: none; stroke: #008000; stroke-width: 1.5; stroke-linecap: square"/>
   </g>
   <g id="line2d_39">
    <path d="M 92.290909 358.325877 
L 93.239082 363.811472 
L 94.187256 365.888237 
L 95.135429 366.244853 
L 96.083602 367.010529 
L 97.031776 366.958085 
L 97.979949 366.276319 
L 98.928122 366.213387 
L 99.876296 365.951169 
L 100.824469 364.8079 
L 101.772642 364.577148 
L 102.720816 363.308014 
L 103.668989 364.094668 
L 106.513509 362.017903 
L 107.461682 362.028392 
L 108.409856 361.409558 
L 109.358029 360.591438 
L 110.306202 360.402642 
L 111.254376 358.598583 
L 112.202549 358.640538 
L 113.150722 357.885351 
L 114.098895 356.784037 
L 115.047069 356.259601 
L 115.995242 355.546369 
L 116.943415 354.266746 
L 117.891589 354.088438 
L 118.839762 353.112988 
L 119.787935 351.707501 
L 120.736109 350.585209 
L 121.684282 350.438367 
L 122.632455 349.651714 
L 123.580629 349.347541 
L 124.528802 347.071491 
L 125.476975 347.543483 
L 126.425149 345.61356 
L 127.373322 346.179951 
L 128.321495 344.291983 
L 129.269669 342.949428 
L 130.217842 341.963489 
L 131.166015 340.809731 
L 132.114189 341.890068 
L 133.062362 339.27838 
L 134.010535 338.95323 
L 134.958709 337.883381 
L 135.906882 336.435939 
L 136.855055 336.089812 
L 137.803229 333.194928 
L 138.751402 333.037597 
L 139.699575 330.646171 
L 140.647749 333.079552 
L 141.595922 330.939855 
L 142.544095 328.391098 
L 143.492268 329.35606 
L 144.440442 326.880724 
L 145.388615 326.576552 
L 148.233135 321.992985 
L 149.181308 321.049001 
L 150.129482 320.681897 
L 151.077655 316.864006 
L 152.025828 319.486184 
L 152.974002 318.856861 
L 155.818522 320.115506 
L 156.766695 318.647087 
L 158.663042 314.682354 
L 160.559388 302.641315 
L 161.507562 301.414136 
L 162.455735 299.127597 
L 163.403908 297.218652 
L 164.352082 296.3376 
L 165.300255 295.697789 
L 167.196602 289.813623 
L 168.144775 289.079413 
L 170.041121 285.901334 
L 170.989295 282.072955 
L 171.937468 282.146376 
L 172.885641 281.62194 
L 173.833815 280.625513 
L 174.781988 282.031 
L 175.730161 280.709422 
L 176.678335 278.884387 
L 177.626508 276.786645 
L 178.574681 273.482701 
L 179.522855 272.119169 
L 180.471028 266.01474 
L 181.419201 256.962983 
L 182.367375 252.494792 
L 183.315548 249.526487 
L 185.211895 245.215628 
L 186.160068 240.160069 
L 187.108241 240.034205 
L 188.056415 237.873531 
L 189.004588 233.531205 
L 190.900935 228.570045 
L 192.797281 219.623175 
L 193.745455 215.742352 
L 194.693628 215.501112 
L 195.641801 215.710886 
L 196.589975 220.053212 
L 197.538148 219.360957 
L 198.486321 221.448211 
L 200.382668 214.599083 
L 201.330841 214.148068 
L 202.279014 211.955928 
L 203.227188 206.617175 
L 204.175361 205.033379 
L 205.123534 201.362331 
L 206.071708 195.236924 
L 207.019881 186.688625 
L 207.968054 169.141013 
L 208.916228 163.330268 
L 209.864401 155.50569 
L 210.812574 152.233213 
L 211.760748 147.953819 
L 212.708921 146.275626 
L 213.657094 142.310893 
L 214.605268 139.174769 
L 215.553441 132.975941 
L 216.501614 132.619325 
L 217.449788 129.441246 
L 218.397961 125.497491 
L 219.346134 122.17257 
L 220.294308 122.225013 
L 221.242481 122.833359 
L 222.190654 127.427414 
L 223.138828 126.126813 
L 224.087001 129.483201 
L 225.035174 132.115867 
L 225.983347 128.790946 
L 226.931521 124.784259 
L 227.879694 123.462681 
L 228.827867 117.568026 
L 229.776041 110.834274 
L 230.724214 90.370801 
L 231.672387 84.654454 
L 232.620561 83.542651 
L 233.568734 81.560284 
L 234.516907 79.966 
L 235.465081 79.357655 
L 236.413254 77.270402 
L 237.361427 77.85777 
L 238.309601 75.025818 
L 239.257774 74.627247 
L 240.205947 73.347624 
L 241.154121 73.421045 
L 242.102294 72.854655 
L 243.050467 75.267058 
L 243.998641 79.556941 
L 244.946814 90.307869 
L 245.894987 96.422787 
L 247.791334 101.341992 
L 248.739507 99.632332 
L 250.635854 100.775601 
L 251.584027 95.027788 
L 252.532201 84.371259 
L 253.480374 70.788379 
L 254.428547 67.683721 
L 255.37672 66.96 
L 256.324894 67.190752 
L 257.273067 67.641766 
L 258.22124 68.229134 
L 259.169414 67.04391 
L 260.117587 70.001726 
L 261.06576 70.53665 
L 262.013934 69.089208 
L 262.962107 68.58575 
L 263.91028 69.729019 
L 264.858454 67.20124 
L 265.806627 68.365487 
L 266.7548 70.253455 
L 267.702974 68.34451 
L 268.651147 68.952855 
L 269.59932 68.973832 
L 270.547494 68.145224 
L 271.495667 68.889923 
L 272.44384 70.473718 
L 273.392014 69.078719 
L 274.340187 70.379319 
L 275.28836 69.298982 
L 276.236534 70.305899 
L 277.184707 74.228676 
L 278.13288 84.497123 
L 279.081054 93.192264 
L 280.9774 98.709325 
L 281.925573 104.740334 
L 282.873747 103.544621 
L 283.82192 102.904809 
L 284.770093 102.757967 
L 285.718267 102.202066 
L 286.66644 94.083804 
L 287.614613 79.787692 
L 288.562787 71.365258 
L 289.51096 72.991008 
L 290.459133 72.498039 
L 291.407307 75.770516 
L 292.35548 73.588865 
L 293.303653 75.676118 
L 294.251827 77.176004 
L 295.2 79.682805 
L 296.148173 79.011528 
L 297.096347 83.091636 
L 298.04452 84.150996 
L 298.992693 84.056597 
L 299.940867 86.920015 
L 300.88904 88.734562 
L 301.837213 89.835877 
L 302.785387 89.028246 
L 303.73356 92.98249 
L 304.681733 95.290006 
L 305.629907 97.104553 
L 306.57808 99.936504 
L 307.526253 101.415413 
L 308.474427 112.481002 
L 312.26712 151.110921 
L 313.215293 156.470652 
L 314.163466 163.403689 
L 315.11164 166.298573 
L 317.007986 177.657846 
L 317.95616 180.405888 
L 318.904333 179.377995 
L 319.852506 178.748672 
L 320.80068 181.570135 
L 322.697026 195.908202 
L 323.6452 203.984508 
L 325.541546 217.829606 
L 326.48972 221.647496 
L 327.437893 228.968616 
L 328.386066 233.992708 
L 329.33424 240.789392 
L 330.282413 245.047808 
L 331.230586 250.795621 
L 332.17876 253.669528 
L 333.126933 259.438318 
L 335.02328 266.748949 
L 335.971453 271.909395 
L 337.867799 284.170697 
L 338.815973 287.600505 
L 339.764146 293.211965 
L 340.712319 295.414594 
L 341.660493 297.921396 
L 342.608666 297.145231 
L 343.556839 294.606963 
L 344.505013 296.106849 
L 345.453186 299.337372 
L 346.401359 301.959549 
L 347.349533 303.74263 
L 348.297706 306.710935 
L 349.245879 307.308791 
L 350.194053 310.591757 
L 351.142226 311.735027 
L 352.090399 313.948145 
L 353.038573 315.416564 
L 354.934919 318.710019 
L 355.883093 322.926481 
L 356.831266 324.793471 
L 357.779439 328.2967 
L 358.727613 329.712676 
L 359.675786 330.562261 
L 360.623959 332.229966 
L 361.572133 331.695042 
L 362.520306 330.258089 
L 363.468479 327.950573 
L 364.416653 326.482153 
L 365.364826 326.545085 
L 366.312999 327.279295 
L 367.261172 327.604445 
L 368.209346 328.695271 
L 369.157519 329.985382 
L 371.053866 328.978466 
L 372.002039 328.884068 
L 372.950212 329.282639 
L 373.898386 330.09027 
L 374.846559 330.709103 
L 375.794732 329.859518 
L 376.742906 330.562261 
L 377.691079 330.00636 
L 378.639252 330.646171 
L 379.587426 331.149629 
L 380.535599 330.772036 
L 382.431946 330.226623 
L 383.380119 330.57275 
L 384.328292 329.712676 
L 385.276466 331.275494 
L 386.224639 331.055231 
L 387.172812 334.348686 
L 389.069159 336.771578 
L 390.017332 337.379923 
L 390.965506 338.281952 
L 391.913679 338.565147 
L 392.861852 338.103644 
L 393.810025 337.264547 
L 395.706372 330.677637 
L 396.654545 328.611361 
L 397.602719 328.506474 
L 398.550892 329.020421 
L 399.499065 327.667377 
L 400.447239 327.572979 
L 401.395412 328.286211 
L 402.343585 328.2967 
L 403.291759 327.478581 
L 404.239932 328.475008 
L 405.188105 327.604445 
L 406.136279 327.363205 
L 407.084452 328.023994 
L 408.032625 327.163919 
L 408.980799 327.038055 
L 409.928972 327.919107 
L 410.877145 327.153431 
L 411.825319 327.719821 
L 412.773492 325.989184 
L 413.721665 326.765348 
L 414.669839 326.419221 
L 415.618012 326.849258 
L 416.566185 327.017077 
L 417.514359 326.67095 
L 418.462532 325.852831 
L 419.410705 326.177981 
L 420.358879 328.359632 
L 421.307052 326.786326 
L 422.255225 329.282639 
L 423.203398 333.142484 
L 424.151572 334.096957 
L 425.099745 333.855716 
L 426.047918 334.159889 
L 426.996092 332.922221 
L 427.944265 333.457145 
L 428.892438 330.939855 
L 429.840612 326.293356 
L 430.788785 325.517192 
L 431.736958 326.387755 
L 432.685132 325.003245 
L 433.633305 324.709561 
L 434.581478 325.968206 
L 435.529652 325.192042 
L 436.477825 325.202531 
L 437.425998 325.77941 
L 438.374172 324.835426 
L 439.322345 326.58704 
L 440.270518 325.192042 
L 441.218692 325.433282 
L 442.166865 325.391327 
L 443.115038 324.908847 
L 444.063212 325.328395 
L 445.011385 325.013734 
L 445.959558 325.380839 
L 446.907732 324.887869 
L 447.855905 325.097644 
L 448.804078 325.0452 
L 449.752251 325.517192 
L 450.700425 324.604674 
L 451.648598 324.468321 
L 452.596771 324.562719 
L 453.544945 324.950802 
L 454.493118 325.632568 
L 455.441291 328.307189 
L 456.389465 330.41542 
L 457.337638 331.506245 
L 458.285811 333.656431 
L 459.233985 334.946542 
L 460.182158 333.845228 
L 461.130331 333.027108 
L 462.078505 332.502673 
L 463.026678 328.611361 
L 463.974851 326.901702 
L 464.923025 324.594185 
L 465.871198 325.171064 
L 466.819371 324.741027 
L 467.767545 325.0452 
L 469.663891 323.618735 
L 471.560238 325.181553 
L 472.508411 324.15366 
L 473.456585 323.818021 
L 474.404758 323.797043 
L 475.352931 324.237569 
L 476.301105 324.331968 
L 477.249278 324.845914 
L 478.197451 324.47881 
L 479.145624 323.681668 
L 480.093798 324.835426 
L 481.041971 323.891442 
L 481.990144 323.188698 
L 482.938318 323.629224 
L 483.886491 323.50336 
L 484.834664 324.436855 
L 485.782838 323.346029 
L 486.731011 322.947458 
L 487.679184 324.950802 
L 488.627358 324.080239 
L 489.575531 324.604674 
L 490.523704 324.489298 
L 491.471878 327.6464 
L 492.420051 327.56249 
L 493.368224 328.800158 
L 494.316398 329.209218 
L 495.264571 330.918878 
L 496.212744 330.908389 
L 497.160918 330.57275 
L 498.109091 326.167492 
L 498.109091 326.167492 
" clip-path="url(#pfabd088de4)" style="fill: none; stroke: #008000; stroke-width: 1.5; stroke-linecap: square"/>
   </g>
   <g id="line2d_40">
    <path d="M 92.290909 359.867717 
L 93.239082 365.258914 
L 94.187256 367.00004 
L 95.135429 367.587408 
L 96.083602 367.839137 
L 97.031776 367.639852 
L 97.979949 367.08395 
L 98.928122 366.014101 
L 99.876296 367.786693 
L 100.824469 366.559514 
L 101.772642 366.297297 
L 102.720816 365.426734 
L 103.668989 365.720418 
L 104.617162 365.720418 
L 105.565336 364.293953 
L 106.513509 364.063201 
L 107.461682 362.804556 
L 108.409856 362.301098 
L 110.306202 361.703242 
L 111.254376 360.58095 
L 112.202549 360.622905 
L 113.150722 359.039109 
L 114.098895 359.123019 
L 115.047069 358.713959 
L 115.995242 356.805014 
L 116.943415 357.035766 
L 117.891589 354.434566 
L 118.839762 355.042911 
L 119.787935 353.228364 
L 120.736109 353.34374 
L 121.684282 350.836938 
L 122.632455 351.864832 
L 124.528802 349.148256 
L 125.476975 349.232165 
L 126.425149 347.963031 
L 127.373322 346.389725 
L 128.321495 346.10653 
L 129.269669 344.701043 
L 130.217842 344.124164 
L 131.166015 342.970405 
L 132.114189 343.306044 
L 133.062362 342.026422 
L 134.010535 340.421649 
L 134.958709 340.222363 
L 136.855055 338.040712 
L 137.803229 336.551315 
L 138.751402 335.345113 
L 139.699575 335.355602 
L 140.647749 334.547971 
L 142.544095 331.160118 
L 143.492268 331.611132 
L 144.440442 330.195157 
L 145.388615 329.83854 
L 146.336788 327.835197 
L 147.284962 327.205874 
L 148.233135 324.709561 
L 149.181308 323.450916 
L 150.129482 323.429939 
L 151.077655 321.405618 
L 152.025828 320.524566 
L 152.974002 321.405618 
L 153.922175 323.933397 
L 154.870348 321.867121 
L 155.818522 320.440656 
L 156.766695 318.636598 
L 157.714868 317.346487 
L 158.663042 313.381754 
L 159.611215 306.973153 
L 160.559388 306.75289 
L 161.507562 305.567665 
L 162.455735 303.386014 
L 163.403908 300.029626 
L 164.352082 299.631055 
L 165.300255 297.56478 
L 167.196602 294.743317 
L 168.144775 291.722568 
L 169.092948 291.177155 
L 170.041121 289.425541 
L 170.989295 287.988587 
L 171.937468 287.118024 
L 172.885641 284.758065 
L 173.833815 284.149719 
L 174.781988 284.747576 
L 175.730161 282.891074 
L 177.626508 279.712995 
L 178.574681 277.384501 
L 179.522855 272.643604 
L 180.471028 264.378501 
L 181.419201 261.032602 
L 182.367375 259.805423 
L 183.315548 257.403509 
L 184.263721 252.746521 
L 185.211895 250.061412 
L 187.108241 246.065213 
L 189.004588 239.090221 
L 189.952761 236.373645 
L 190.900935 233.227032 
L 191.849108 228.979104 
L 192.797281 226.126175 
L 193.745455 221.794338 
L 194.693628 220.168588 
L 195.641801 220.745467 
L 196.589975 224.773132 
L 197.538148 225.297567 
L 198.486321 223.965501 
L 199.434494 221.899225 
L 200.382668 220.273475 
L 202.279014 214.567617 
L 203.227188 211.011944 
L 204.175361 205.809544 
L 205.123534 199.49534 
L 207.019881 177.678823 
L 207.968054 171.070936 
L 208.916228 168.826352 
L 209.864401 164.116921 
L 210.812574 162.658991 
L 212.708921 153.355505 
L 214.605268 148.59363 
L 215.553441 145.027469 
L 216.501614 139.940445 
L 217.449788 137.94759 
L 218.397961 134.066767 
L 219.346134 131.434101 
L 220.294308 129.818839 
L 221.242481 130.553049 
L 222.190654 132.871054 
L 223.138828 129.776885 
L 224.087001 132.126356 
L 225.035174 133.846504 
L 225.983347 130.71038 
L 226.931521 125.654822 
L 227.879694 122.08866 
L 228.827867 114.725586 
L 230.724214 92.458054 
L 231.672387 92.552453 
L 232.620561 88.388435 
L 233.568734 89.269486 
L 234.516907 85.545994 
L 235.465081 85.409641 
L 236.413254 85.504039 
L 237.361427 83.154568 
L 238.309601 80.343594 
L 239.257774 80.102354 
L 240.205947 80.983405 
L 241.154121 78.518558 
L 242.102294 76.55717 
L 243.050467 76.357884 
L 243.998641 82.441336 
L 244.946814 93.853053 
L 246.843161 100.418985 
L 247.791334 100.156767 
L 249.687681 98.9191 
L 250.635854 91.577003 
L 251.584027 83.039193 
L 252.532201 72.98052 
L 253.480374 71.711386 
L 254.428547 71.501611 
L 255.37672 71.564544 
L 256.324894 72.498039 
L 257.273067 72.854655 
L 258.22124 72.728791 
L 259.169414 74.1133 
L 260.117587 71.931649 
L 261.06576 72.340708 
L 262.013934 73.735707 
L 262.962107 75.382434 
L 263.91028 72.435107 
L 265.806627 72.959542 
L 266.7548 72.707813 
L 267.702974 73.483978 
L 268.651147 73.22176 
L 269.59932 73.085407 
L 270.547494 73.651797 
L 271.495667 72.875632 
L 272.44384 72.48755 
L 273.392014 72.917587 
L 274.340187 73.735707 
L 275.28836 73.578376 
L 276.236534 76.326418 
L 277.184707 74.490894 
L 278.13288 89.08069 
L 279.081054 93.832075 
L 280.029227 95.49978 
L 280.9774 97.85974 
L 281.925573 99.370114 
L 282.873747 99.24425 
L 283.82192 94.84948 
L 284.770093 93.999895 
L 285.718267 86.63682 
L 286.66644 74.176233 
L 287.614613 73.504955 
L 288.562787 73.200782 
L 289.51096 74.532849 
L 290.459133 75.151683 
L 291.407307 74.84751 
L 292.35548 75.550254 
L 293.303653 77.658484 
L 294.251827 78.927618 
L 295.2 80.553368 
L 296.148173 80.437992 
L 297.096347 83.227989 
L 298.04452 84.077575 
L 298.992693 85.189378 
L 299.940867 85.378175 
L 300.88904 86.416557 
L 302.785387 91.314785 
L 303.73356 92.751738 
L 304.681733 93.485948 
L 305.629907 96.034704 
L 306.57808 96.244479 
L 307.526253 100.114813 
L 308.474427 101.730074 
L 312.26712 132.545904 
L 313.215293 133.301091 
L 314.163466 139.57334 
L 315.11164 139.552362 
L 316.059813 141.922811 
L 317.007986 138.398604 
L 317.95616 131.44459 
L 318.904333 132.220754 
L 321.748853 150.334756 
L 322.697026 156.103547 
L 323.6452 160.833955 
L 324.593373 169.277367 
L 325.541546 174.228038 
L 326.48972 180.657617 
L 327.437893 186.122235 
L 329.33424 199.317032 
L 330.282413 206.49131 
L 331.230586 210.613373 
L 332.17876 217.231749 
L 335.02328 232.052296 
L 335.971453 235.68139 
L 336.919626 244.187734 
L 337.867799 249.557954 
L 339.764146 258.347493 
L 340.712319 262.742262 
L 341.660493 264.053351 
L 342.608666 259.784446 
L 343.556839 261.913654 
L 344.505013 264.535832 
L 345.453186 268.175414 
L 346.401359 270.178758 
L 347.349533 273.619054 
L 350.194053 280.625513 
L 351.142226 282.125398 
L 352.090399 286.100619 
L 353.038573 288.114452 
L 353.986746 289.803134 
L 354.934919 291.932342 
L 355.883093 297.061321 
L 356.831266 299.284928 
L 357.779439 304.854433 
L 359.675786 307.665407 
L 360.623959 307.193415 
L 361.572133 305.336914 
L 362.520306 305.28447 
L 363.468479 305.662064 
L 364.416653 308.462549 
L 365.364826 308.336685 
L 366.312999 310.119766 
L 367.261172 312.941229 
L 368.209346 312.43777 
L 369.157519 313.004161 
L 370.105692 313.3398 
L 371.053866 316.035398 
L 372.002039 315.594872 
L 373.898386 317.619193 
L 374.846559 317.692614 
L 375.794732 318.007276 
L 376.742906 319.129567 
L 377.691079 319.67498 
L 378.639252 319.832311 
L 379.587426 319.223966 
L 380.535599 320.472122 
L 381.483772 319.8428 
L 382.431946 320.021108 
L 383.380119 320.451145 
L 384.328292 320.451145 
L 385.276466 320.755318 
L 386.224639 320.335769 
L 387.172812 323.765577 
L 388.120986 326.177981 
L 389.069159 326.398244 
L 390.017332 327.929595 
L 390.965506 328.023994 
L 391.913679 327.688355 
L 392.861852 325.968206 
L 393.810025 322.737684 
L 394.758199 317.388442 
L 395.706372 318.04923 
L 396.654545 316.843029 
L 397.602719 316.822051 
L 398.550892 317.010848 
L 399.499065 316.297616 
L 400.447239 315.961977 
L 401.395412 315.017993 
L 402.343585 315.038971 
L 404.239932 313.937656 
L 405.188105 314.032054 
L 407.084452 313.643972 
L 408.032625 313.056604 
L 408.980799 312.857319 
L 409.928972 313.01465 
L 410.877145 312.123109 
L 411.825319 311.021795 
L 412.773492 310.32954 
L 413.721665 311.965779 
L 414.669839 310.528825 
L 415.618012 310.266607 
L 416.566185 310.256119 
L 417.514359 309.35409 
L 418.462532 308.682812 
L 419.410705 309.301646 
L 420.358879 308.577925 
L 421.307052 308.986985 
L 422.255225 311.074238 
L 423.203398 314.042543 
L 424.151572 315.510963 
L 425.099745 315.227767 
L 426.047918 315.489985 
L 426.996092 313.717393 
L 427.944265 312.532169 
L 428.892438 307.046573 
L 429.840612 305.106162 
L 430.788785 305.410335 
L 431.736958 304.109735 
L 432.685132 304.445373 
L 433.633305 302.976954 
L 434.581478 303.962893 
L 435.529652 303.522367 
L 436.477825 303.732141 
L 437.425998 303.448946 
L 438.374172 302.798646 
L 439.322345 302.903533 
L 440.270518 301.802218 
L 441.218692 302.053947 
L 442.166865 302.483985 
L 443.115038 302.746202 
L 444.063212 301.246317 
L 445.011385 301.581956 
L 445.959558 301.508535 
L 446.907732 300.711393 
L 447.855905 300.669438 
L 448.804078 300.186957 
L 449.752251 299.84083 
L 450.700425 300.81628 
L 451.648598 300.354776 
L 452.596771 299.201018 
L 453.544945 298.288501 
L 454.493118 300.459664 
L 455.441291 302.945488 
L 456.389465 304.990786 
L 457.337638 306.301875 
L 458.285811 309.228225 
L 459.233985 309.469466 
L 460.182158 308.70379 
L 461.130331 306.794844 
L 463.026678 298.361922 
L 463.974851 296.515909 
L 464.923025 296.683728 
L 465.871198 296.494931 
L 466.819371 296.148804 
L 467.767545 295.645346 
L 468.715718 296.232713 
L 470.612065 296.369067 
L 471.560238 294.187415 
L 472.508411 295.320196 
L 473.456585 294.55452 
L 475.352931 294.848204 
L 476.301105 295.183842 
L 477.249278 294.187415 
L 478.197451 294.858692 
L 479.145624 293.222454 
L 480.093798 293.589558 
L 481.041971 293.442717 
L 481.990144 293.778355 
L 482.938318 293.012679 
L 483.886491 293.526626 
L 484.834664 294.407678 
L 485.782838 293.862265 
L 487.679184 292.309936 
L 488.627358 292.781928 
L 489.575531 293.107078 
L 490.523704 293.232942 
L 491.471878 296.620796 
L 492.420051 296.610307 
L 493.368224 297.994817 
L 494.316398 297.07181 
L 495.264571 299.872296 
L 498.109091 290.789073 
L 498.109091 290.789073 
" clip-path="url(#pfabd088de4)" style="fill: none; stroke: #008000; stroke-width: 1.5; stroke-linecap: square"/>
   </g>
   <g id="patch_3">
    <path d="M 72 384.48 
L 72 51.84 
" style="fill: none; stroke: #000000; stroke-width: 0.8; stroke-linejoin: miter; stroke-linecap: square"/>
   </g>
   <g id="patch_4">
    <path d="M 518.4 384.48 
L 518.4 51.84 
" style="fill: none; stroke: #000000; stroke-width: 0.8; stroke-linejoin: miter; stroke-linecap: square"/>
   </g>
   <g id="patch_5">
    <path d="M 72 384.48 
L 518.4 384.48 
" style="fill: none; stroke: #000000; stroke-width: 0.8; stroke-linejoin: miter; stroke-linecap: square"/>
   </g>
   <g id="patch_6">
    <path d="M 72 51.84 
L 518.4 51.84 
" style="fill: none; stroke: #000000; stroke-width: 0.8; stroke-linejoin: miter; stroke-linecap: square"/>
   </g>
   <g id="text_21">
    <!-- M39: Phenylalanin -->
    <g transform="translate(249.228906 45.84) scale(0.1 -0.1)">
     <defs>
      <path id="DejaVuSans-4d" d="M 628 4666 
L 1569 4666 
L 2759 1491 
L 3956 4666 
L 4897 4666 
L 4897 0 
L 4281 0 
L 4281 4097 
L 3078 897 
L 2444 897 
L 1241 4097 
L 1241 0 
L 628 0 
L 628 4666 
z
" transform="scale(0.015625)"/>
      <path id="DejaVuSans-39" d="M 703 97 
L 703 672 
Q 941 559 1184 500 
Q 1428 441 1663 441 
Q 2288 441 2617 861 
Q 2947 1281 2994 2138 
Q 2813 1869 2534 1725 
Q 2256 1581 1919 1581 
Q 1219 1581 811 2004 
Q 403 2428 403 3163 
Q 403 3881 828 4315 
Q 1253 4750 1959 4750 
Q 2769 4750 3195 4129 
Q 3622 3509 3622 2328 
Q 3622 1225 3098 567 
Q 2575 -91 1691 -91 
Q 1453 -91 1209 -44 
Q 966 3 703 97 
z
M 1959 2075 
Q 2384 2075 2632 2365 
Q 2881 2656 2881 3163 
Q 2881 3666 2632 3958 
Q 2384 4250 1959 4250 
Q 1534 4250 1286 3958 
Q 1038 3666 1038 3163 
Q 1038 2656 1286 2365 
Q 1534 2075 1959 2075 
z
" transform="scale(0.015625)"/>
      <path id="DejaVuSans-3a" d="M 750 794 
L 1409 794 
L 1409 0 
L 750 0 
L 750 794 
z
M 750 3309 
L 1409 3309 
L 1409 2516 
L 750 2516 
L 750 3309 
z
" transform="scale(0.015625)"/>
      <path id="DejaVuSans-79" d="M 2059 -325 
Q 1816 -950 1584 -1140 
Q 1353 -1331 966 -1331 
L 506 -1331 
L 506 -850 
L 844 -850 
Q 1081 -850 1212 -737 
Q 1344 -625 1503 -206 
L 1606 56 
L 191 3500 
L 800 3500 
L 1894 763 
L 2988 3500 
L 3597 3500 
L 2059 -325 
z
" transform="scale(0.015625)"/>
     </defs>
     <use xlink:href="#DejaVuSans-4d"/>
     <use xlink:href="#DejaVuSans-33" x="86.279297"/>
     <use xlink:href="#DejaVuSans-39" x="149.902344"/>
     <use xlink:href="#DejaVuSans-3a" x="213.525391"/>
     <use xlink:href="#DejaVuSans-20" x="247.216797"/>
     <use xlink:href="#DejaVuSans-50" x="279.003906"/>
     <use xlink:href="#DejaVuSans-68" x="339.306641"/>
     <use xlink:href="#DejaVuSans-65" x="402.685547"/>
     <use xlink:href="#DejaVuSans-6e" x="464.208984"/>
     <use xlink:href="#DejaVuSans-79" x="527.587891"/>
     <use xlink:href="#DejaVuSans-6c" x="586.767578"/>
     <use xlink:href="#DejaVuSans-61" x="614.550781"/>
     <use xlink:href="#DejaVuSans-6c" x="675.830078"/>
     <use xlink:href="#DejaVuSans-61" x="703.613281"/>
     <use xlink:href="#DejaVuSans-6e" x="764.892578"/>
     <use xlink:href="#DejaVuSans-69" x="828.271484"/>
     <use xlink:href="#DejaVuSans-6e" x="856.054688"/>
    </g>
   </g>
  </g>
 </g>
 <defs>
  <clipPath id="pfabd088de4">
   <rect x="72" y="51.84" width="446.4" height="332.64"/>
  </clipPath>
 </defs>
</svg>
