<?xml version="1.0" encoding="utf-8" standalone="no"?>
<!DOCTYPE svg PUBLIC "-//W3C//DTD SVG 1.1//EN"
  "http://www.w3.org/Graphics/SVG/1.1/DTD/svg11.dtd">
<svg xmlns:xlink="http://www.w3.org/1999/xlink" width="576pt" height="432pt" viewBox="0 0 576 432" xmlns="http://www.w3.org/2000/svg" version="1.1">
 <metadata>
  <rdf:RDF xmlns:dc="http://purl.org/dc/elements/1.1/" xmlns:cc="http://creativecommons.org/ns#" xmlns:rdf="http://www.w3.org/1999/02/22-rdf-syntax-ns#">
   <cc:Work>
    <dc:type rdf:resource="http://purl.org/dc/dcmitype/StillImage"/>
    <dc:date>2024-11-12T14:09:20.476445</dc:date>
    <dc:format>image/svg+xml</dc:format>
    <dc:creator>
     <cc:Agent>
      <dc:title>Matplotlib v3.7.5, https://matplotlib.org/</dc:title>
     </cc:Agent>
    </dc:creator>
   </cc:Work>
  </rdf:RDF>
 </metadata>
 <defs>
  <style type="text/css">*{stroke-linejoin: round; stroke-linecap: butt}</style>
 </defs>
 <g id="figure_1">
  <g id="patch_1">
   <path d="M 0 432 
L 576 432 
L 576 0 
L 0 0 
z
" style="fill: #ffffff"/>
  </g>
  <g id="axes_1">
   <g id="patch_2">
    <path d="M 72 384.48 
L 518.4 384.48 
L 518.4 51.84 
L 72 51.84 
z
" style="fill: #ffffff"/>
   </g>
   <g id="matplotlib.axis_1">
    <g id="xtick_1">
     <g id="line2d_1">
      <path d="M 92.290909 384.48 
L 92.290909 51.84 
" clip-path="url(#pb243be1c1f)" style="fill: none; stroke: #b0b0b0; stroke-width: 0.8; stroke-linecap: square"/>
     </g>
     <g id="line2d_2">
      <defs>
       <path id="m4c031d9ad6" d="M 0 0 
L 0 3.5 
" style="stroke: #000000; stroke-width: 0.8"/>
      </defs>
      <g>
       <use xlink:href="#m4c031d9ad6" x="92.290909" y="384.48" style="stroke: #000000; stroke-width: 0.8"/>
      </g>
     </g>
     <g id="text_1">
      <!-- 0.17 -->
      <g transform="translate(81.158097 399.078438) scale(0.1 -0.1)">
       <defs>
        <path id="DejaVuSans-30" d="M 2034 4250 
Q 1547 4250 1301 3770 
Q 1056 3291 1056 2328 
Q 1056 1369 1301 889 
Q 1547 409 2034 409 
Q 2525 409 2770 889 
Q 3016 1369 3016 2328 
Q 3016 3291 2770 3770 
Q 2525 4250 2034 4250 
z
M 2034 4750 
Q 2819 4750 3233 4129 
Q 3647 3509 3647 2328 
Q 3647 1150 3233 529 
Q 2819 -91 2034 -91 
Q 1250 -91 836 529 
Q 422 1150 422 2328 
Q 422 3509 836 4129 
Q 1250 4750 2034 4750 
z
" transform="scale(0.015625)"/>
        <path id="DejaVuSans-2e" d="M 684 794 
L 1344 794 
L 1344 0 
L 684 0 
L 684 794 
z
" transform="scale(0.015625)"/>
        <path id="DejaVuSans-31" d="M 794 531 
L 1825 531 
L 1825 4091 
L 703 3866 
L 703 4441 
L 1819 4666 
L 2450 4666 
L 2450 531 
L 3481 531 
L 3481 0 
L 794 0 
L 794 531 
z
" transform="scale(0.015625)"/>
        <path id="DejaVuSans-37" d="M 525 4666 
L 3525 4666 
L 3525 4397 
L 1831 0 
L 1172 0 
L 2766 4134 
L 525 4134 
L 525 4666 
z
" transform="scale(0.015625)"/>
       </defs>
       <use xlink:href="#DejaVuSans-30"/>
       <use xlink:href="#DejaVuSans-2e" x="63.623047"/>
       <use xlink:href="#DejaVuSans-31" x="95.410156"/>
       <use xlink:href="#DejaVuSans-37" x="159.033203"/>
      </g>
     </g>
    </g>
    <g id="xtick_2">
     <g id="line2d_3">
      <path d="M 130.217842 384.48 
L 130.217842 51.84 
" clip-path="url(#pb243be1c1f)" style="fill: none; stroke: #b0b0b0; stroke-width: 0.8; stroke-linecap: square"/>
     </g>
     <g id="line2d_4">
      <g>
       <use xlink:href="#m4c031d9ad6" x="130.217842" y="384.48" style="stroke: #000000; stroke-width: 0.8"/>
      </g>
     </g>
     <g id="text_2">
      <!-- 6.83 -->
      <g transform="translate(119.085029 399.078438) scale(0.1 -0.1)">
       <defs>
        <path id="DejaVuSans-36" d="M 2113 2584 
Q 1688 2584 1439 2293 
Q 1191 2003 1191 1497 
Q 1191 994 1439 701 
Q 1688 409 2113 409 
Q 2538 409 2786 701 
Q 3034 994 3034 1497 
Q 3034 2003 2786 2293 
Q 2538 2584 2113 2584 
z
M 3366 4563 
L 3366 3988 
Q 3128 4100 2886 4159 
Q 2644 4219 2406 4219 
Q 1781 4219 1451 3797 
Q 1122 3375 1075 2522 
Q 1259 2794 1537 2939 
Q 1816 3084 2150 3084 
Q 2853 3084 3261 2657 
Q 3669 2231 3669 1497 
Q 3669 778 3244 343 
Q 2819 -91 2113 -91 
Q 1303 -91 875 529 
Q 447 1150 447 2328 
Q 447 3434 972 4092 
Q 1497 4750 2381 4750 
Q 2619 4750 2861 4703 
Q 3103 4656 3366 4563 
z
" transform="scale(0.015625)"/>
        <path id="DejaVuSans-38" d="M 2034 2216 
Q 1584 2216 1326 1975 
Q 1069 1734 1069 1313 
Q 1069 891 1326 650 
Q 1584 409 2034 409 
Q 2484 409 2743 651 
Q 3003 894 3003 1313 
Q 3003 1734 2745 1975 
Q 2488 2216 2034 2216 
z
M 1403 2484 
Q 997 2584 770 2862 
Q 544 3141 544 3541 
Q 544 4100 942 4425 
Q 1341 4750 2034 4750 
Q 2731 4750 3128 4425 
Q 3525 4100 3525 3541 
Q 3525 3141 3298 2862 
Q 3072 2584 2669 2484 
Q 3125 2378 3379 2068 
Q 3634 1759 3634 1313 
Q 3634 634 3220 271 
Q 2806 -91 2034 -91 
Q 1263 -91 848 271 
Q 434 634 434 1313 
Q 434 1759 690 2068 
Q 947 2378 1403 2484 
z
M 1172 3481 
Q 1172 3119 1398 2916 
Q 1625 2713 2034 2713 
Q 2441 2713 2670 2916 
Q 2900 3119 2900 3481 
Q 2900 3844 2670 4047 
Q 2441 4250 2034 4250 
Q 1625 4250 1398 4047 
Q 1172 3844 1172 3481 
z
" transform="scale(0.015625)"/>
        <path id="DejaVuSans-33" d="M 2597 2516 
Q 3050 2419 3304 2112 
Q 3559 1806 3559 1356 
Q 3559 666 3084 287 
Q 2609 -91 1734 -91 
Q 1441 -91 1130 -33 
Q 819 25 488 141 
L 488 750 
Q 750 597 1062 519 
Q 1375 441 1716 441 
Q 2309 441 2620 675 
Q 2931 909 2931 1356 
Q 2931 1769 2642 2001 
Q 2353 2234 1838 2234 
L 1294 2234 
L 1294 2753 
L 1863 2753 
Q 2328 2753 2575 2939 
Q 2822 3125 2822 3475 
Q 2822 3834 2567 4026 
Q 2313 4219 1838 4219 
Q 1578 4219 1281 4162 
Q 984 4106 628 3988 
L 628 4550 
Q 988 4650 1302 4700 
Q 1616 4750 1894 4750 
Q 2613 4750 3031 4423 
Q 3450 4097 3450 3541 
Q 3450 3153 3228 2886 
Q 3006 2619 2597 2516 
z
" transform="scale(0.015625)"/>
       </defs>
       <use xlink:href="#DejaVuSans-36"/>
       <use xlink:href="#DejaVuSans-2e" x="63.623047"/>
       <use xlink:href="#DejaVuSans-38" x="95.410156"/>
       <use xlink:href="#DejaVuSans-33" x="159.033203"/>
      </g>
     </g>
    </g>
    <g id="xtick_3">
     <g id="line2d_5">
      <path d="M 168.144775 384.48 
L 168.144775 51.84 
" clip-path="url(#pb243be1c1f)" style="fill: none; stroke: #b0b0b0; stroke-width: 0.8; stroke-linecap: square"/>
     </g>
     <g id="line2d_6">
      <g>
       <use xlink:href="#m4c031d9ad6" x="168.144775" y="384.48" style="stroke: #000000; stroke-width: 0.8"/>
      </g>
     </g>
     <g id="text_3">
      <!-- 13.5 -->
      <g transform="translate(157.011962 399.078438) scale(0.1 -0.1)">
       <defs>
        <path id="DejaVuSans-35" d="M 691 4666 
L 3169 4666 
L 3169 4134 
L 1269 4134 
L 1269 2991 
Q 1406 3038 1543 3061 
Q 1681 3084 1819 3084 
Q 2600 3084 3056 2656 
Q 3513 2228 3513 1497 
Q 3513 744 3044 326 
Q 2575 -91 1722 -91 
Q 1428 -91 1123 -41 
Q 819 9 494 109 
L 494 744 
Q 775 591 1075 516 
Q 1375 441 1709 441 
Q 2250 441 2565 725 
Q 2881 1009 2881 1497 
Q 2881 1984 2565 2268 
Q 2250 2553 1709 2553 
Q 1456 2553 1204 2497 
Q 953 2441 691 2322 
L 691 4666 
z
" transform="scale(0.015625)"/>
       </defs>
       <use xlink:href="#DejaVuSans-31"/>
       <use xlink:href="#DejaVuSans-33" x="63.623047"/>
       <use xlink:href="#DejaVuSans-2e" x="127.246094"/>
       <use xlink:href="#DejaVuSans-35" x="159.033203"/>
      </g>
     </g>
    </g>
    <g id="xtick_4">
     <g id="line2d_7">
      <path d="M 206.071708 384.48 
L 206.071708 51.84 
" clip-path="url(#pb243be1c1f)" style="fill: none; stroke: #b0b0b0; stroke-width: 0.8; stroke-linecap: square"/>
     </g>
     <g id="line2d_8">
      <g>
       <use xlink:href="#m4c031d9ad6" x="206.071708" y="384.48" style="stroke: #000000; stroke-width: 0.8"/>
      </g>
     </g>
     <g id="text_4">
      <!-- 20.17 -->
      <g transform="translate(191.757645 399.078438) scale(0.1 -0.1)">
       <defs>
        <path id="DejaVuSans-32" d="M 1228 531 
L 3431 531 
L 3431 0 
L 469 0 
L 469 531 
Q 828 903 1448 1529 
Q 2069 2156 2228 2338 
Q 2531 2678 2651 2914 
Q 2772 3150 2772 3378 
Q 2772 3750 2511 3984 
Q 2250 4219 1831 4219 
Q 1534 4219 1204 4116 
Q 875 4013 500 3803 
L 500 4441 
Q 881 4594 1212 4672 
Q 1544 4750 1819 4750 
Q 2544 4750 2975 4387 
Q 3406 4025 3406 3419 
Q 3406 3131 3298 2873 
Q 3191 2616 2906 2266 
Q 2828 2175 2409 1742 
Q 1991 1309 1228 531 
z
" transform="scale(0.015625)"/>
       </defs>
       <use xlink:href="#DejaVuSans-32"/>
       <use xlink:href="#DejaVuSans-30" x="63.623047"/>
       <use xlink:href="#DejaVuSans-2e" x="127.246094"/>
       <use xlink:href="#DejaVuSans-31" x="159.033203"/>
       <use xlink:href="#DejaVuSans-37" x="222.65625"/>
      </g>
     </g>
    </g>
    <g id="xtick_5">
     <g id="line2d_9">
      <path d="M 243.998641 384.48 
L 243.998641 51.84 
" clip-path="url(#pb243be1c1f)" style="fill: none; stroke: #b0b0b0; stroke-width: 0.8; stroke-linecap: square"/>
     </g>
     <g id="line2d_10">
      <g>
       <use xlink:href="#m4c031d9ad6" x="243.998641" y="384.48" style="stroke: #000000; stroke-width: 0.8"/>
      </g>
     </g>
     <g id="text_5">
      <!-- 26.83 -->
      <g transform="translate(229.684578 399.078438) scale(0.1 -0.1)">
       <use xlink:href="#DejaVuSans-32"/>
       <use xlink:href="#DejaVuSans-36" x="63.623047"/>
       <use xlink:href="#DejaVuSans-2e" x="127.246094"/>
       <use xlink:href="#DejaVuSans-38" x="159.033203"/>
       <use xlink:href="#DejaVuSans-33" x="222.65625"/>
      </g>
     </g>
    </g>
    <g id="xtick_6">
     <g id="line2d_11">
      <path d="M 281.925573 384.48 
L 281.925573 51.84 
" clip-path="url(#pb243be1c1f)" style="fill: none; stroke: #b0b0b0; stroke-width: 0.8; stroke-linecap: square"/>
     </g>
     <g id="line2d_12">
      <g>
       <use xlink:href="#m4c031d9ad6" x="281.925573" y="384.48" style="stroke: #000000; stroke-width: 0.8"/>
      </g>
     </g>
     <g id="text_6">
      <!-- 33.5 -->
      <g transform="translate(270.792761 399.078438) scale(0.1 -0.1)">
       <use xlink:href="#DejaVuSans-33"/>
       <use xlink:href="#DejaVuSans-33" x="63.623047"/>
       <use xlink:href="#DejaVuSans-2e" x="127.246094"/>
       <use xlink:href="#DejaVuSans-35" x="159.033203"/>
      </g>
     </g>
    </g>
    <g id="xtick_7">
     <g id="line2d_13">
      <path d="M 319.852506 384.48 
L 319.852506 51.84 
" clip-path="url(#pb243be1c1f)" style="fill: none; stroke: #b0b0b0; stroke-width: 0.8; stroke-linecap: square"/>
     </g>
     <g id="line2d_14">
      <g>
       <use xlink:href="#m4c031d9ad6" x="319.852506" y="384.48" style="stroke: #000000; stroke-width: 0.8"/>
      </g>
     </g>
     <g id="text_7">
      <!-- 40.17 -->
      <g transform="translate(305.538444 399.078438) scale(0.1 -0.1)">
       <defs>
        <path id="DejaVuSans-34" d="M 2419 4116 
L 825 1625 
L 2419 1625 
L 2419 4116 
z
M 2253 4666 
L 3047 4666 
L 3047 1625 
L 3713 1625 
L 3713 1100 
L 3047 1100 
L 3047 0 
L 2419 0 
L 2419 1100 
L 313 1100 
L 313 1709 
L 2253 4666 
z
" transform="scale(0.015625)"/>
       </defs>
       <use xlink:href="#DejaVuSans-34"/>
       <use xlink:href="#DejaVuSans-30" x="63.623047"/>
       <use xlink:href="#DejaVuSans-2e" x="127.246094"/>
       <use xlink:href="#DejaVuSans-31" x="159.033203"/>
       <use xlink:href="#DejaVuSans-37" x="222.65625"/>
      </g>
     </g>
    </g>
    <g id="xtick_8">
     <g id="line2d_15">
      <path d="M 357.779439 384.48 
L 357.779439 51.84 
" clip-path="url(#pb243be1c1f)" style="fill: none; stroke: #b0b0b0; stroke-width: 0.8; stroke-linecap: square"/>
     </g>
     <g id="line2d_16">
      <g>
       <use xlink:href="#m4c031d9ad6" x="357.779439" y="384.48" style="stroke: #000000; stroke-width: 0.8"/>
      </g>
     </g>
     <g id="text_8">
      <!-- 46.83 -->
      <g transform="translate(343.465377 399.078438) scale(0.1 -0.1)">
       <use xlink:href="#DejaVuSans-34"/>
       <use xlink:href="#DejaVuSans-36" x="63.623047"/>
       <use xlink:href="#DejaVuSans-2e" x="127.246094"/>
       <use xlink:href="#DejaVuSans-38" x="159.033203"/>
       <use xlink:href="#DejaVuSans-33" x="222.65625"/>
      </g>
     </g>
    </g>
    <g id="xtick_9">
     <g id="line2d_17">
      <path d="M 395.706372 384.48 
L 395.706372 51.84 
" clip-path="url(#pb243be1c1f)" style="fill: none; stroke: #b0b0b0; stroke-width: 0.8; stroke-linecap: square"/>
     </g>
     <g id="line2d_18">
      <g>
       <use xlink:href="#m4c031d9ad6" x="395.706372" y="384.48" style="stroke: #000000; stroke-width: 0.8"/>
      </g>
     </g>
     <g id="text_9">
      <!-- 53.5 -->
      <g transform="translate(384.57356 399.078438) scale(0.1 -0.1)">
       <use xlink:href="#DejaVuSans-35"/>
       <use xlink:href="#DejaVuSans-33" x="63.623047"/>
       <use xlink:href="#DejaVuSans-2e" x="127.246094"/>
       <use xlink:href="#DejaVuSans-35" x="159.033203"/>
      </g>
     </g>
    </g>
    <g id="xtick_10">
     <g id="line2d_19">
      <path d="M 433.633305 384.48 
L 433.633305 51.84 
" clip-path="url(#pb243be1c1f)" style="fill: none; stroke: #b0b0b0; stroke-width: 0.8; stroke-linecap: square"/>
     </g>
     <g id="line2d_20">
      <g>
       <use xlink:href="#m4c031d9ad6" x="433.633305" y="384.48" style="stroke: #000000; stroke-width: 0.8"/>
      </g>
     </g>
     <g id="text_10">
      <!-- 60.17 -->
      <g transform="translate(419.319243 399.078438) scale(0.1 -0.1)">
       <use xlink:href="#DejaVuSans-36"/>
       <use xlink:href="#DejaVuSans-30" x="63.623047"/>
       <use xlink:href="#DejaVuSans-2e" x="127.246094"/>
       <use xlink:href="#DejaVuSans-31" x="159.033203"/>
       <use xlink:href="#DejaVuSans-37" x="222.65625"/>
      </g>
     </g>
    </g>
    <g id="xtick_11">
     <g id="line2d_21">
      <path d="M 471.560238 384.48 
L 471.560238 51.84 
" clip-path="url(#pb243be1c1f)" style="fill: none; stroke: #b0b0b0; stroke-width: 0.8; stroke-linecap: square"/>
     </g>
     <g id="line2d_22">
      <g>
       <use xlink:href="#m4c031d9ad6" x="471.560238" y="384.48" style="stroke: #000000; stroke-width: 0.8"/>
      </g>
     </g>
     <g id="text_11">
      <!-- 66.83 -->
      <g transform="translate(457.246175 399.078438) scale(0.1 -0.1)">
       <use xlink:href="#DejaVuSans-36"/>
       <use xlink:href="#DejaVuSans-36" x="63.623047"/>
       <use xlink:href="#DejaVuSans-2e" x="127.246094"/>
       <use xlink:href="#DejaVuSans-38" x="159.033203"/>
       <use xlink:href="#DejaVuSans-33" x="222.65625"/>
      </g>
     </g>
    </g>
    <g id="text_12">
     <!-- time in hours [h] -->
     <g transform="translate(253.451562 412.756563) scale(0.1 -0.1)">
      <defs>
       <path id="DejaVuSans-74" d="M 1172 4494 
L 1172 3500 
L 2356 3500 
L 2356 3053 
L 1172 3053 
L 1172 1153 
Q 1172 725 1289 603 
Q 1406 481 1766 481 
L 2356 481 
L 2356 0 
L 1766 0 
Q 1100 0 847 248 
Q 594 497 594 1153 
L 594 3053 
L 172 3053 
L 172 3500 
L 594 3500 
L 594 4494 
L 1172 4494 
z
" transform="scale(0.015625)"/>
       <path id="DejaVuSans-69" d="M 603 3500 
L 1178 3500 
L 1178 0 
L 603 0 
L 603 3500 
z
M 603 4863 
L 1178 4863 
L 1178 4134 
L 603 4134 
L 603 4863 
z
" transform="scale(0.015625)"/>
       <path id="DejaVuSans-6d" d="M 3328 2828 
Q 3544 3216 3844 3400 
Q 4144 3584 4550 3584 
Q 5097 3584 5394 3201 
Q 5691 2819 5691 2113 
L 5691 0 
L 5113 0 
L 5113 2094 
Q 5113 2597 4934 2840 
Q 4756 3084 4391 3084 
Q 3944 3084 3684 2787 
Q 3425 2491 3425 1978 
L 3425 0 
L 2847 0 
L 2847 2094 
Q 2847 2600 2669 2842 
Q 2491 3084 2119 3084 
Q 1678 3084 1418 2786 
Q 1159 2488 1159 1978 
L 1159 0 
L 581 0 
L 581 3500 
L 1159 3500 
L 1159 2956 
Q 1356 3278 1631 3431 
Q 1906 3584 2284 3584 
Q 2666 3584 2933 3390 
Q 3200 3197 3328 2828 
z
" transform="scale(0.015625)"/>
       <path id="DejaVuSans-65" d="M 3597 1894 
L 3597 1613 
L 953 1613 
Q 991 1019 1311 708 
Q 1631 397 2203 397 
Q 2534 397 2845 478 
Q 3156 559 3463 722 
L 3463 178 
Q 3153 47 2828 -22 
Q 2503 -91 2169 -91 
Q 1331 -91 842 396 
Q 353 884 353 1716 
Q 353 2575 817 3079 
Q 1281 3584 2069 3584 
Q 2775 3584 3186 3129 
Q 3597 2675 3597 1894 
z
M 3022 2063 
Q 3016 2534 2758 2815 
Q 2500 3097 2075 3097 
Q 1594 3097 1305 2825 
Q 1016 2553 972 2059 
L 3022 2063 
z
" transform="scale(0.015625)"/>
       <path id="DejaVuSans-20" transform="scale(0.015625)"/>
       <path id="DejaVuSans-6e" d="M 3513 2113 
L 3513 0 
L 2938 0 
L 2938 2094 
Q 2938 2591 2744 2837 
Q 2550 3084 2163 3084 
Q 1697 3084 1428 2787 
Q 1159 2491 1159 1978 
L 1159 0 
L 581 0 
L 581 3500 
L 1159 3500 
L 1159 2956 
Q 1366 3272 1645 3428 
Q 1925 3584 2291 3584 
Q 2894 3584 3203 3211 
Q 3513 2838 3513 2113 
z
" transform="scale(0.015625)"/>
       <path id="DejaVuSans-68" d="M 3513 2113 
L 3513 0 
L 2938 0 
L 2938 2094 
Q 2938 2591 2744 2837 
Q 2550 3084 2163 3084 
Q 1697 3084 1428 2787 
Q 1159 2491 1159 1978 
L 1159 0 
L 581 0 
L 581 4863 
L 1159 4863 
L 1159 2956 
Q 1366 3272 1645 3428 
Q 1925 3584 2291 3584 
Q 2894 3584 3203 3211 
Q 3513 2838 3513 2113 
z
" transform="scale(0.015625)"/>
       <path id="DejaVuSans-6f" d="M 1959 3097 
Q 1497 3097 1228 2736 
Q 959 2375 959 1747 
Q 959 1119 1226 758 
Q 1494 397 1959 397 
Q 2419 397 2687 759 
Q 2956 1122 2956 1747 
Q 2956 2369 2687 2733 
Q 2419 3097 1959 3097 
z
M 1959 3584 
Q 2709 3584 3137 3096 
Q 3566 2609 3566 1747 
Q 3566 888 3137 398 
Q 2709 -91 1959 -91 
Q 1206 -91 779 398 
Q 353 888 353 1747 
Q 353 2609 779 3096 
Q 1206 3584 1959 3584 
z
" transform="scale(0.015625)"/>
       <path id="DejaVuSans-75" d="M 544 1381 
L 544 3500 
L 1119 3500 
L 1119 1403 
Q 1119 906 1312 657 
Q 1506 409 1894 409 
Q 2359 409 2629 706 
Q 2900 1003 2900 1516 
L 2900 3500 
L 3475 3500 
L 3475 0 
L 2900 0 
L 2900 538 
Q 2691 219 2414 64 
Q 2138 -91 1772 -91 
Q 1169 -91 856 284 
Q 544 659 544 1381 
z
M 1991 3584 
L 1991 3584 
z
" transform="scale(0.015625)"/>
       <path id="DejaVuSans-72" d="M 2631 2963 
Q 2534 3019 2420 3045 
Q 2306 3072 2169 3072 
Q 1681 3072 1420 2755 
Q 1159 2438 1159 1844 
L 1159 0 
L 581 0 
L 581 3500 
L 1159 3500 
L 1159 2956 
Q 1341 3275 1631 3429 
Q 1922 3584 2338 3584 
Q 2397 3584 2469 3576 
Q 2541 3569 2628 3553 
L 2631 2963 
z
" transform="scale(0.015625)"/>
       <path id="DejaVuSans-73" d="M 2834 3397 
L 2834 2853 
Q 2591 2978 2328 3040 
Q 2066 3103 1784 3103 
Q 1356 3103 1142 2972 
Q 928 2841 928 2578 
Q 928 2378 1081 2264 
Q 1234 2150 1697 2047 
L 1894 2003 
Q 2506 1872 2764 1633 
Q 3022 1394 3022 966 
Q 3022 478 2636 193 
Q 2250 -91 1575 -91 
Q 1294 -91 989 -36 
Q 684 19 347 128 
L 347 722 
Q 666 556 975 473 
Q 1284 391 1588 391 
Q 1994 391 2212 530 
Q 2431 669 2431 922 
Q 2431 1156 2273 1281 
Q 2116 1406 1581 1522 
L 1381 1569 
Q 847 1681 609 1914 
Q 372 2147 372 2553 
Q 372 3047 722 3315 
Q 1072 3584 1716 3584 
Q 2034 3584 2315 3537 
Q 2597 3491 2834 3397 
z
" transform="scale(0.015625)"/>
       <path id="DejaVuSans-5b" d="M 550 4863 
L 1875 4863 
L 1875 4416 
L 1125 4416 
L 1125 -397 
L 1875 -397 
L 1875 -844 
L 550 -844 
L 550 4863 
z
" transform="scale(0.015625)"/>
       <path id="DejaVuSans-5d" d="M 1947 4863 
L 1947 -844 
L 622 -844 
L 622 -397 
L 1369 -397 
L 1369 4416 
L 622 4416 
L 622 4863 
L 1947 4863 
z
" transform="scale(0.015625)"/>
      </defs>
      <use xlink:href="#DejaVuSans-74"/>
      <use xlink:href="#DejaVuSans-69" x="39.208984"/>
      <use xlink:href="#DejaVuSans-6d" x="66.992188"/>
      <use xlink:href="#DejaVuSans-65" x="164.404297"/>
      <use xlink:href="#DejaVuSans-20" x="225.927734"/>
      <use xlink:href="#DejaVuSans-69" x="257.714844"/>
      <use xlink:href="#DejaVuSans-6e" x="285.498047"/>
      <use xlink:href="#DejaVuSans-20" x="348.876953"/>
      <use xlink:href="#DejaVuSans-68" x="380.664062"/>
      <use xlink:href="#DejaVuSans-6f" x="444.042969"/>
      <use xlink:href="#DejaVuSans-75" x="505.224609"/>
      <use xlink:href="#DejaVuSans-72" x="568.603516"/>
      <use xlink:href="#DejaVuSans-73" x="609.716797"/>
      <use xlink:href="#DejaVuSans-20" x="661.816406"/>
      <use xlink:href="#DejaVuSans-5b" x="693.603516"/>
      <use xlink:href="#DejaVuSans-68" x="732.617188"/>
      <use xlink:href="#DejaVuSans-5d" x="795.996094"/>
     </g>
    </g>
   </g>
   <g id="matplotlib.axis_2">
    <g id="ytick_1">
     <g id="line2d_23">
      <path d="M 72 363.69 
L 518.4 363.69 
" clip-path="url(#pb243be1c1f)" style="fill: none; stroke: #b0b0b0; stroke-width: 0.8; stroke-linecap: square"/>
     </g>
     <g id="line2d_24">
      <defs>
       <path id="me7fb646444" d="M 0 0 
L -3.5 0 
" style="stroke: #000000; stroke-width: 0.8"/>
      </defs>
      <g>
       <use xlink:href="#me7fb646444" x="72" y="363.69" style="stroke: #000000; stroke-width: 0.8"/>
      </g>
     </g>
     <g id="text_13">
      <!-- 0.0 -->
      <g transform="translate(49.096875 367.489219) scale(0.1 -0.1)">
       <use xlink:href="#DejaVuSans-30"/>
       <use xlink:href="#DejaVuSans-2e" x="63.623047"/>
       <use xlink:href="#DejaVuSans-30" x="95.410156"/>
      </g>
     </g>
    </g>
    <g id="ytick_2">
     <g id="line2d_25">
      <path d="M 72 311.715 
L 518.4 311.715 
" clip-path="url(#pb243be1c1f)" style="fill: none; stroke: #b0b0b0; stroke-width: 0.8; stroke-linecap: square"/>
     </g>
     <g id="line2d_26">
      <g>
       <use xlink:href="#me7fb646444" x="72" y="311.715" style="stroke: #000000; stroke-width: 0.8"/>
      </g>
     </g>
     <g id="text_14">
      <!-- 0.5 -->
      <g transform="translate(49.096875 315.514219) scale(0.1 -0.1)">
       <use xlink:href="#DejaVuSans-30"/>
       <use xlink:href="#DejaVuSans-2e" x="63.623047"/>
       <use xlink:href="#DejaVuSans-35" x="95.410156"/>
      </g>
     </g>
    </g>
    <g id="ytick_3">
     <g id="line2d_27">
      <path d="M 72 259.74 
L 518.4 259.74 
" clip-path="url(#pb243be1c1f)" style="fill: none; stroke: #b0b0b0; stroke-width: 0.8; stroke-linecap: square"/>
     </g>
     <g id="line2d_28">
      <g>
       <use xlink:href="#me7fb646444" x="72" y="259.74" style="stroke: #000000; stroke-width: 0.8"/>
      </g>
     </g>
     <g id="text_15">
      <!-- 1.0 -->
      <g transform="translate(49.096875 263.539219) scale(0.1 -0.1)">
       <use xlink:href="#DejaVuSans-31"/>
       <use xlink:href="#DejaVuSans-2e" x="63.623047"/>
       <use xlink:href="#DejaVuSans-30" x="95.410156"/>
      </g>
     </g>
    </g>
    <g id="ytick_4">
     <g id="line2d_29">
      <path d="M 72 207.765 
L 518.4 207.765 
" clip-path="url(#pb243be1c1f)" style="fill: none; stroke: #b0b0b0; stroke-width: 0.8; stroke-linecap: square"/>
     </g>
     <g id="line2d_30">
      <g>
       <use xlink:href="#me7fb646444" x="72" y="207.765" style="stroke: #000000; stroke-width: 0.8"/>
      </g>
     </g>
     <g id="text_16">
      <!-- 1.5 -->
      <g transform="translate(49.096875 211.564219) scale(0.1 -0.1)">
       <use xlink:href="#DejaVuSans-31"/>
       <use xlink:href="#DejaVuSans-2e" x="63.623047"/>
       <use xlink:href="#DejaVuSans-35" x="95.410156"/>
      </g>
     </g>
    </g>
    <g id="ytick_5">
     <g id="line2d_31">
      <path d="M 72 155.79 
L 518.4 155.79 
" clip-path="url(#pb243be1c1f)" style="fill: none; stroke: #b0b0b0; stroke-width: 0.8; stroke-linecap: square"/>
     </g>
     <g id="line2d_32">
      <g>
       <use xlink:href="#me7fb646444" x="72" y="155.79" style="stroke: #000000; stroke-width: 0.8"/>
      </g>
     </g>
     <g id="text_17">
      <!-- 2.0 -->
      <g transform="translate(49.096875 159.589219) scale(0.1 -0.1)">
       <use xlink:href="#DejaVuSans-32"/>
       <use xlink:href="#DejaVuSans-2e" x="63.623047"/>
       <use xlink:href="#DejaVuSans-30" x="95.410156"/>
      </g>
     </g>
    </g>
    <g id="ytick_6">
     <g id="line2d_33">
      <path d="M 72 103.815 
L 518.4 103.815 
" clip-path="url(#pb243be1c1f)" style="fill: none; stroke: #b0b0b0; stroke-width: 0.8; stroke-linecap: square"/>
     </g>
     <g id="line2d_34">
      <g>
       <use xlink:href="#me7fb646444" x="72" y="103.815" style="stroke: #000000; stroke-width: 0.8"/>
      </g>
     </g>
     <g id="text_18">
      <!-- 2.5 -->
      <g transform="translate(49.096875 107.614219) scale(0.1 -0.1)">
       <use xlink:href="#DejaVuSans-32"/>
       <use xlink:href="#DejaVuSans-2e" x="63.623047"/>
       <use xlink:href="#DejaVuSans-35" x="95.410156"/>
      </g>
     </g>
    </g>
    <g id="ytick_7">
     <g id="line2d_35">
      <path d="M 72 51.84 
L 518.4 51.84 
" clip-path="url(#pb243be1c1f)" style="fill: none; stroke: #b0b0b0; stroke-width: 0.8; stroke-linecap: square"/>
     </g>
     <g id="line2d_36">
      <g>
       <use xlink:href="#me7fb646444" x="72" y="51.84" style="stroke: #000000; stroke-width: 0.8"/>
      </g>
     </g>
     <g id="text_19">
      <!-- 3.0 -->
      <g transform="translate(49.096875 55.639219) scale(0.1 -0.1)">
       <use xlink:href="#DejaVuSans-33"/>
       <use xlink:href="#DejaVuSans-2e" x="63.623047"/>
       <use xlink:href="#DejaVuSans-30" x="95.410156"/>
      </g>
     </g>
    </g>
    <g id="text_20">
     <!-- blank corrected OD600 -->
     <g transform="translate(43.017187 276.115469) rotate(-90) scale(0.1 -0.1)">
      <defs>
       <path id="DejaVuSans-62" d="M 3116 1747 
Q 3116 2381 2855 2742 
Q 2594 3103 2138 3103 
Q 1681 3103 1420 2742 
Q 1159 2381 1159 1747 
Q 1159 1113 1420 752 
Q 1681 391 2138 391 
Q 2594 391 2855 752 
Q 3116 1113 3116 1747 
z
M 1159 2969 
Q 1341 3281 1617 3432 
Q 1894 3584 2278 3584 
Q 2916 3584 3314 3078 
Q 3713 2572 3713 1747 
Q 3713 922 3314 415 
Q 2916 -91 2278 -91 
Q 1894 -91 1617 61 
Q 1341 213 1159 525 
L 1159 0 
L 581 0 
L 581 4863 
L 1159 4863 
L 1159 2969 
z
" transform="scale(0.015625)"/>
       <path id="DejaVuSans-6c" d="M 603 4863 
L 1178 4863 
L 1178 0 
L 603 0 
L 603 4863 
z
" transform="scale(0.015625)"/>
       <path id="DejaVuSans-61" d="M 2194 1759 
Q 1497 1759 1228 1600 
Q 959 1441 959 1056 
Q 959 750 1161 570 
Q 1363 391 1709 391 
Q 2188 391 2477 730 
Q 2766 1069 2766 1631 
L 2766 1759 
L 2194 1759 
z
M 3341 1997 
L 3341 0 
L 2766 0 
L 2766 531 
Q 2569 213 2275 61 
Q 1981 -91 1556 -91 
Q 1019 -91 701 211 
Q 384 513 384 1019 
Q 384 1609 779 1909 
Q 1175 2209 1959 2209 
L 2766 2209 
L 2766 2266 
Q 2766 2663 2505 2880 
Q 2244 3097 1772 3097 
Q 1472 3097 1187 3025 
Q 903 2953 641 2809 
L 641 3341 
Q 956 3463 1253 3523 
Q 1550 3584 1831 3584 
Q 2591 3584 2966 3190 
Q 3341 2797 3341 1997 
z
" transform="scale(0.015625)"/>
       <path id="DejaVuSans-6b" d="M 581 4863 
L 1159 4863 
L 1159 1991 
L 2875 3500 
L 3609 3500 
L 1753 1863 
L 3688 0 
L 2938 0 
L 1159 1709 
L 1159 0 
L 581 0 
L 581 4863 
z
" transform="scale(0.015625)"/>
       <path id="DejaVuSans-63" d="M 3122 3366 
L 3122 2828 
Q 2878 2963 2633 3030 
Q 2388 3097 2138 3097 
Q 1578 3097 1268 2742 
Q 959 2388 959 1747 
Q 959 1106 1268 751 
Q 1578 397 2138 397 
Q 2388 397 2633 464 
Q 2878 531 3122 666 
L 3122 134 
Q 2881 22 2623 -34 
Q 2366 -91 2075 -91 
Q 1284 -91 818 406 
Q 353 903 353 1747 
Q 353 2603 823 3093 
Q 1294 3584 2113 3584 
Q 2378 3584 2631 3529 
Q 2884 3475 3122 3366 
z
" transform="scale(0.015625)"/>
       <path id="DejaVuSans-64" d="M 2906 2969 
L 2906 4863 
L 3481 4863 
L 3481 0 
L 2906 0 
L 2906 525 
Q 2725 213 2448 61 
Q 2172 -91 1784 -91 
Q 1150 -91 751 415 
Q 353 922 353 1747 
Q 353 2572 751 3078 
Q 1150 3584 1784 3584 
Q 2172 3584 2448 3432 
Q 2725 3281 2906 2969 
z
M 947 1747 
Q 947 1113 1208 752 
Q 1469 391 1925 391 
Q 2381 391 2643 752 
Q 2906 1113 2906 1747 
Q 2906 2381 2643 2742 
Q 2381 3103 1925 3103 
Q 1469 3103 1208 2742 
Q 947 2381 947 1747 
z
" transform="scale(0.015625)"/>
       <path id="DejaVuSans-4f" d="M 2522 4238 
Q 1834 4238 1429 3725 
Q 1025 3213 1025 2328 
Q 1025 1447 1429 934 
Q 1834 422 2522 422 
Q 3209 422 3611 934 
Q 4013 1447 4013 2328 
Q 4013 3213 3611 3725 
Q 3209 4238 2522 4238 
z
M 2522 4750 
Q 3503 4750 4090 4092 
Q 4678 3434 4678 2328 
Q 4678 1225 4090 567 
Q 3503 -91 2522 -91 
Q 1538 -91 948 565 
Q 359 1222 359 2328 
Q 359 3434 948 4092 
Q 1538 4750 2522 4750 
z
" transform="scale(0.015625)"/>
       <path id="DejaVuSans-44" d="M 1259 4147 
L 1259 519 
L 2022 519 
Q 2988 519 3436 956 
Q 3884 1394 3884 2338 
Q 3884 3275 3436 3711 
Q 2988 4147 2022 4147 
L 1259 4147 
z
M 628 4666 
L 1925 4666 
Q 3281 4666 3915 4102 
Q 4550 3538 4550 2338 
Q 4550 1131 3912 565 
Q 3275 0 1925 0 
L 628 0 
L 628 4666 
z
" transform="scale(0.015625)"/>
      </defs>
      <use xlink:href="#DejaVuSans-62"/>
      <use xlink:href="#DejaVuSans-6c" x="63.476562"/>
      <use xlink:href="#DejaVuSans-61" x="91.259766"/>
      <use xlink:href="#DejaVuSans-6e" x="152.539062"/>
      <use xlink:href="#DejaVuSans-6b" x="215.917969"/>
      <use xlink:href="#DejaVuSans-20" x="273.828125"/>
      <use xlink:href="#DejaVuSans-63" x="305.615234"/>
      <use xlink:href="#DejaVuSans-6f" x="360.595703"/>
      <use xlink:href="#DejaVuSans-72" x="421.777344"/>
      <use xlink:href="#DejaVuSans-72" x="461.140625"/>
      <use xlink:href="#DejaVuSans-65" x="500.003906"/>
      <use xlink:href="#DejaVuSans-63" x="561.527344"/>
      <use xlink:href="#DejaVuSans-74" x="616.507812"/>
      <use xlink:href="#DejaVuSans-65" x="655.716797"/>
      <use xlink:href="#DejaVuSans-64" x="717.240234"/>
      <use xlink:href="#DejaVuSans-20" x="780.716797"/>
      <use xlink:href="#DejaVuSans-4f" x="812.503906"/>
      <use xlink:href="#DejaVuSans-44" x="891.214844"/>
      <use xlink:href="#DejaVuSans-36" x="968.216797"/>
      <use xlink:href="#DejaVuSans-30" x="1031.839844"/>
      <use xlink:href="#DejaVuSans-30" x="1095.462891"/>
     </g>
    </g>
   </g>
   <g id="line2d_37">
    <path d="M 92.290909 361.641145 
L 93.239082 370.892696 
L 94.187256 369.957145 
L 95.135429 369.749245 
L 96.083602 370.165046 
L 97.031776 370.372946 
L 97.979949 370.165046 
L 98.928122 370.684796 
L 99.876296 371.516395 
L 101.772642 371.620345 
L 102.720816 371.308495 
L 104.617162 372.244045 
L 105.565336 371.724295 
L 106.513509 371.516395 
L 107.461682 371.932195 
L 108.409856 369.229495 
L 109.358029 371.412445 
L 110.306202 371.412445 
L 111.254376 371.724295 
L 112.202549 370.580846 
L 113.150722 371.516395 
L 115.047069 370.580846 
L 115.995242 370.684796 
L 116.943415 371.204545 
L 117.891589 371.516395 
L 118.839762 370.580846 
L 119.787935 368.709745 
L 120.736109 370.788746 
L 122.632455 372.036145 
L 123.580629 370.476896 
L 124.528802 370.996645 
L 125.476975 370.268996 
L 126.425149 371.412445 
L 127.373322 370.996645 
L 128.321495 370.996645 
L 129.269669 370.268996 
L 130.217842 370.476896 
L 131.166015 367.982096 
L 132.114189 370.684796 
L 133.062362 370.165046 
L 134.010535 369.437395 
L 134.958709 370.372946 
L 135.906882 369.957145 
L 136.855055 370.061096 
L 137.803229 369.853195 
L 138.751402 369.853195 
L 139.699575 370.061096 
L 142.544095 368.709745 
L 143.492268 369.125545 
L 144.440442 369.021595 
L 145.388615 369.437395 
L 146.336788 369.229495 
L 147.284962 369.333445 
L 149.181308 368.189996 
L 150.129482 368.086046 
L 151.077655 368.189996 
L 152.025828 366.838645 
L 152.974002 367.982096 
L 153.922175 367.670246 
L 154.870348 367.670246 
L 155.818522 367.358395 
L 156.766695 367.670246 
L 157.714868 367.774196 
L 158.663042 367.150495 
L 159.611215 366.734695 
L 160.559388 366.734695 
L 161.507562 367.150495 
L 163.403908 366.422845 
L 164.352082 366.214945 
L 165.300255 365.799146 
L 166.248428 365.695196 
L 167.196602 365.799146 
L 168.144775 365.071495 
L 169.092948 365.383346 
L 170.041121 364.967545 
L 171.937468 364.863595 
L 172.885641 364.343845 
L 173.833815 364.031995 
L 174.781988 363.408296 
L 175.730161 363.096446 
L 176.678335 363.200396 
L 178.574681 363.096446 
L 179.522855 362.576695 
L 180.471028 362.264845 
L 181.419201 361.641145 
L 182.367375 361.537195 
L 183.315548 361.121396 
L 184.263721 360.393745 
L 185.211895 360.705596 
L 186.160068 360.081895 
L 187.108241 360.601646 
L 188.056415 359.666095 
L 189.952761 358.730546 
L 190.900935 357.898945 
L 194.693628 356.651545 
L 195.641801 354.676495 
L 196.589975 355.404145 
L 197.538148 354.468595 
L 198.486321 353.740946 
L 200.382668 353.948846 
L 201.330841 353.844896 
L 202.279014 353.325146 
L 203.227188 353.429096 
L 205.123534 352.909345 
L 206.071708 352.805395 
L 207.019881 352.077745 
L 207.968054 352.077745 
L 208.916228 351.246146 
L 209.864401 351.350096 
L 210.812574 350.934296 
L 211.760748 349.790845 
L 212.708921 351.038246 
L 213.657094 350.830345 
L 214.605268 350.830345 
L 215.553441 350.206645 
L 216.501614 349.790845 
L 217.449788 349.894795 
L 218.397961 349.582945 
L 219.346134 348.855296 
L 221.242481 348.335545 
L 223.138828 348.439495 
L 224.087001 347.503945 
L 225.035174 347.919745 
L 227.879694 346.984195 
L 228.827867 346.984195 
L 229.776041 346.360496 
L 230.724214 346.776296 
L 231.672387 345.528895 
L 232.620561 345.944695 
L 233.568734 345.528895 
L 234.516907 345.320995 
L 235.465081 345.320995 
L 236.413254 344.697295 
L 237.361427 344.697295 
L 238.309601 344.385446 
L 240.205947 344.385446 
L 241.154121 343.657795 
L 242.102294 343.345945 
L 243.050467 343.553845 
L 244.946814 342.202495 
L 245.894987 342.202495 
L 246.843161 342.514345 
L 248.739507 342.202495 
L 249.687681 342.618295 
L 250.635854 341.786696 
L 252.532201 340.851145 
L 253.480374 340.955095 
L 254.428547 341.370895 
L 255.37672 340.435345 
L 256.324894 340.851145 
L 257.273067 340.331395 
L 258.22124 340.539295 
L 259.169414 339.499796 
L 260.117587 340.123495 
L 261.06576 340.227445 
L 262.013934 339.499796 
L 263.91028 339.395846 
L 266.7548 338.356345 
L 267.702974 338.772145 
L 268.651147 338.252395 
L 269.59932 338.252395 
L 270.547494 338.044495 
L 271.495667 338.356345 
L 272.44384 337.732645 
L 273.392014 337.524745 
L 274.340187 337.004996 
L 275.28836 337.524745 
L 276.236534 337.004996 
L 278.13288 337.108946 
L 279.081054 336.277345 
L 280.029227 336.173395 
L 281.925573 336.485245 
L 282.873747 335.549695 
L 283.82192 335.757595 
L 284.770093 335.445745 
L 285.718267 335.549695 
L 286.66644 335.341795 
L 287.614613 336.277345 
L 288.562787 335.029945 
L 289.51096 335.341795 
L 291.407307 335.445745 
L 292.35548 334.510196 
L 293.303653 335.341795 
L 294.251827 334.094395 
L 295.2 334.614146 
L 296.148173 333.886495 
L 298.992693 333.366745 
L 299.940867 334.094395 
L 300.88904 332.431196 
L 301.837213 333.262795 
L 302.785387 333.366745 
L 303.73356 332.639095 
L 304.681733 332.950945 
L 305.629907 332.846995 
L 306.57808 331.911445 
L 307.526253 332.431196 
L 308.474427 332.535145 
L 309.4226 331.495645 
L 310.370773 331.599595 
L 311.318946 331.079845 
L 312.26712 330.767995 
L 313.215293 331.495645 
L 314.163466 331.391695 
L 315.11164 331.807495 
L 316.059813 331.287745 
L 317.95616 330.975895 
L 318.904333 331.183795 
L 320.80068 330.975895 
L 324.593373 331.287745 
L 325.541546 331.079845 
L 326.48972 331.495645 
L 327.437893 330.767995 
L 328.386066 331.079845 
L 330.282413 330.560095 
L 331.230586 330.975895 
L 332.17876 331.599595 
L 333.126933 330.871945 
L 334.075106 330.456145 
L 335.02328 330.767995 
L 336.919626 330.560095 
L 337.867799 330.040346 
L 338.815973 330.767995 
L 340.712319 330.040346 
L 341.660493 330.040346 
L 342.608666 330.664045 
L 343.556839 330.040346 
L 344.505013 329.832446 
L 345.453186 329.416646 
L 347.349533 329.728496 
L 348.297706 330.144295 
L 349.245879 329.104796 
L 350.194053 329.520596 
L 351.142226 328.896895 
L 352.090399 329.104796 
L 353.038573 328.792945 
L 353.986746 329.520596 
L 354.934919 328.688995 
L 355.883093 329.312696 
L 356.831266 328.273195 
L 358.727613 329.104796 
L 359.675786 328.273195 
L 360.623959 328.065295 
L 361.572133 328.377145 
L 362.520306 329.416646 
L 363.468479 328.896895 
L 364.416653 328.169245 
L 365.364826 328.065295 
L 366.312999 328.273195 
L 367.261172 327.649496 
L 369.157519 328.273195 
L 371.053866 327.961345 
L 372.002039 328.688995 
L 372.950212 328.273195 
L 373.898386 328.169245 
L 374.846559 328.377145 
L 375.794732 328.065295 
L 376.742906 328.065295 
L 377.691079 328.273195 
L 378.639252 327.337646 
L 379.587426 327.961345 
L 380.535599 327.649496 
L 381.483772 328.585045 
L 382.431946 328.585045 
L 383.380119 328.792945 
L 384.328292 328.377145 
L 385.276466 328.273195 
L 386.224639 329.000845 
L 387.172812 328.481095 
L 388.120986 328.273195 
L 390.017332 328.377145 
L 390.965506 328.377145 
L 391.913679 329.000845 
L 392.861852 328.688995 
L 393.810025 329.104796 
L 395.706372 328.481095 
L 396.654545 329.624546 
L 397.602719 328.792945 
L 398.550892 329.208745 
L 399.499065 329.000845 
L 401.395412 328.896895 
L 402.343585 329.624546 
L 403.291759 328.896895 
L 404.239932 329.520596 
L 405.188105 329.936396 
L 406.136279 329.624546 
L 407.084452 329.936396 
L 408.032625 329.416646 
L 408.980799 329.728496 
L 409.928972 328.896895 
L 410.877145 330.560095 
L 411.825319 329.624546 
L 412.773492 330.664045 
L 413.721665 330.040346 
L 414.669839 330.352195 
L 415.618012 329.936396 
L 416.566185 330.040346 
L 417.514359 330.352195 
L 418.462532 330.040346 
L 419.410705 329.416646 
L 420.358879 330.975895 
L 421.307052 330.664045 
L 422.255225 329.624546 
L 423.203398 329.000845 
L 424.151572 330.144295 
L 426.047918 329.832446 
L 426.996092 330.560095 
L 427.944265 330.767995 
L 428.892438 330.144295 
L 429.840612 330.871945 
L 430.788785 331.079845 
L 431.736958 330.975895 
L 432.685132 330.664045 
L 433.633305 330.975895 
L 434.581478 330.456145 
L 435.529652 330.664045 
L 436.477825 331.079845 
L 437.425998 330.456145 
L 438.374172 330.456145 
L 439.322345 330.975895 
L 441.218692 330.456145 
L 442.166865 331.183795 
L 444.063212 331.495645 
L 445.011385 330.871945 
L 446.907732 329.936396 
L 447.855905 330.975895 
L 448.804078 330.767995 
L 449.752251 330.767995 
L 451.648598 331.287745 
L 452.596771 330.975895 
L 453.544945 331.495645 
L 454.493118 331.079845 
L 455.441291 330.456145 
L 456.389465 330.767995 
L 457.337638 330.456145 
L 459.233985 330.144295 
L 460.182158 330.560095 
L 462.078505 331.703545 
L 463.026678 331.391695 
L 463.974851 330.456145 
L 464.923025 331.183795 
L 465.871198 331.183795 
L 467.767545 330.767995 
L 468.715718 331.703545 
L 469.663891 331.183795 
L 470.612065 330.040346 
L 471.560238 331.599595 
L 472.508411 331.495645 
L 473.456585 331.079845 
L 474.404758 331.599595 
L 475.352931 330.975895 
L 476.301105 331.287745 
L 477.249278 331.079845 
L 478.197451 331.495645 
L 481.041971 331.287745 
L 481.990144 331.495645 
L 483.886491 331.599595 
L 484.834664 331.183795 
L 485.782838 331.287745 
L 486.731011 331.079845 
L 487.679184 331.391695 
L 488.627358 331.079845 
L 489.575531 331.703545 
L 490.523704 331.495645 
L 491.471878 330.975895 
L 493.368224 331.287745 
L 494.316398 331.391695 
L 495.264571 331.287745 
L 496.212744 331.703545 
L 497.160918 331.911445 
L 498.109091 331.287745 
L 498.109091 331.287745 
" clip-path="url(#pb243be1c1f)" style="fill: none; stroke: #0000ff; stroke-opacity: 0.5; stroke-width: 1.5; stroke-linecap: square"/>
   </g>
   <g id="line2d_38">
    <path d="M 92.290909 359.146345 
L 93.239082 372.659846 
L 94.187256 369.853195 
L 95.135429 369.229495 
L 96.083602 369.853195 
L 97.979949 370.580846 
L 98.928122 370.061096 
L 100.824469 371.932195 
L 101.772642 372.036145 
L 102.720816 371.932195 
L 103.668989 372.555896 
L 104.617162 372.451945 
L 105.565336 371.620345 
L 106.513509 372.451945 
L 107.461682 372.036145 
L 108.409856 372.347995 
L 109.358029 371.412445 
L 110.306202 372.140095 
L 111.254376 371.516395 
L 112.202549 372.036145 
L 113.150722 371.204545 
L 114.098895 372.140095 
L 115.047069 372.244045 
L 115.995242 371.620345 
L 116.943415 371.932195 
L 117.891589 371.828245 
L 118.839762 371.516395 
L 119.787935 371.724295 
L 120.736109 371.412445 
L 121.684282 371.620345 
L 122.632455 370.892696 
L 123.580629 371.516395 
L 124.528802 371.724295 
L 125.476975 370.788746 
L 126.425149 370.580846 
L 127.373322 371.100595 
L 129.269669 369.957145 
L 130.217842 370.892696 
L 132.114189 371.204545 
L 133.062362 370.476896 
L 134.010535 369.229495 
L 134.958709 370.684796 
L 135.906882 369.957145 
L 136.855055 369.957145 
L 137.803229 369.541345 
L 138.751402 369.853195 
L 139.699575 368.917645 
L 140.647749 369.541345 
L 141.595922 369.229495 
L 142.544095 368.605795 
L 143.492268 369.333445 
L 144.440442 369.021595 
L 145.388615 368.917645 
L 146.336788 369.229495 
L 147.284962 369.229495 
L 149.181308 368.189996 
L 150.129482 368.501846 
L 151.077655 368.397896 
L 152.025828 367.982096 
L 152.974002 367.046545 
L 153.922175 365.383346 
L 154.870348 365.695196 
L 155.818522 365.279395 
L 156.766695 364.655695 
L 157.714868 364.863595 
L 158.663042 364.655695 
L 159.611215 364.967545 
L 160.559388 365.591246 
L 161.507562 366.838645 
L 163.403908 366.526795 
L 164.352082 366.526795 
L 166.248428 366.007046 
L 169.092948 365.487296 
L 170.041121 365.383346 
L 170.989295 365.071495 
L 172.885641 363.512246 
L 173.833815 362.264845 
L 174.781988 361.952995 
L 175.730161 361.225346 
L 179.522855 359.250295 
L 180.471028 359.354245 
L 183.315548 360.497695 
L 184.263721 359.977945 
L 185.211895 360.081895 
L 186.160068 359.250295 
L 187.108241 359.250295 
L 188.056415 358.938446 
L 189.004588 358.418696 
L 189.952761 358.314746 
L 190.900935 357.691045 
L 191.849108 357.379195 
L 192.797281 357.275245 
L 193.745455 356.859445 
L 194.693628 356.235746 
L 195.641801 355.092295 
L 196.589975 353.740946 
L 198.486321 352.597495 
L 199.434494 351.454046 
L 200.382668 351.454046 
L 201.330841 351.038246 
L 202.279014 350.830345 
L 203.227188 350.206645 
L 204.175361 349.790845 
L 205.123534 349.582945 
L 206.071708 349.686895 
L 207.019881 349.478995 
L 207.968054 349.790845 
L 208.916228 350.622445 
L 209.864401 351.973795 
L 210.812574 352.077745 
L 211.760748 351.869845 
L 212.708921 351.246146 
L 213.657094 351.246146 
L 216.501614 350.102695 
L 217.449788 349.790845 
L 218.397961 349.790845 
L 219.346134 349.375045 
L 220.294308 348.335545 
L 221.242481 347.711845 
L 222.190654 346.880246 
L 223.138828 346.256546 
L 224.087001 345.320995 
L 225.983347 344.593345 
L 226.931521 343.865696 
L 227.879694 344.073596 
L 228.827867 343.969646 
L 229.776041 344.073596 
L 230.724214 344.905195 
L 231.672387 345.320995 
L 232.620561 346.048646 
L 233.568734 346.152596 
L 235.465081 345.424945 
L 236.413254 345.217045 
L 237.361427 345.217045 
L 238.309601 344.905195 
L 239.257774 343.553845 
L 240.205947 343.657795 
L 241.154121 344.281496 
L 242.102294 344.177546 
L 243.050467 343.241995 
L 244.946814 341.059045 
L 245.894987 340.435345 
L 246.843161 340.331395 
L 247.791334 339.499796 
L 249.687681 339.291896 
L 250.635854 338.980045 
L 251.584027 338.148445 
L 252.532201 338.564245 
L 253.480374 339.707695 
L 254.428547 340.435345 
L 255.37672 340.539295 
L 256.324894 340.851145 
L 257.273067 340.435345 
L 258.22124 340.643245 
L 259.169414 340.539295 
L 260.117587 339.707695 
L 261.06576 340.019545 
L 262.013934 339.915595 
L 262.962107 339.291896 
L 263.91028 339.291896 
L 264.858454 339.083996 
L 265.806627 339.291896 
L 266.7548 339.291896 
L 267.702974 338.772145 
L 268.651147 338.564245 
L 269.59932 338.772145 
L 270.547494 338.044495 
L 271.495667 338.564245 
L 272.44384 338.044495 
L 273.392014 337.108946 
L 274.340187 337.420795 
L 275.28836 337.316845 
L 276.236534 337.628695 
L 277.184707 336.693146 
L 279.081054 334.302296 
L 280.029227 334.406246 
L 280.9774 333.366745 
L 281.925573 333.366745 
L 282.873747 332.950945 
L 283.82192 332.327246 
L 284.770093 332.743045 
L 285.718267 332.639095 
L 286.66644 332.327246 
L 287.614613 334.094395 
L 288.562787 334.614146 
L 289.51096 334.614146 
L 290.459133 335.445745 
L 294.251827 334.510196 
L 295.2 334.822046 
L 296.148173 333.886495 
L 297.096347 334.198345 
L 298.04452 333.990445 
L 298.992693 333.262795 
L 299.940867 333.574645 
L 300.88904 332.950945 
L 301.837213 332.639095 
L 302.785387 333.366745 
L 304.681733 332.743045 
L 305.629907 332.223296 
L 306.57808 332.327246 
L 308.474427 331.703545 
L 309.4226 330.767995 
L 312.26712 328.481095 
L 314.163466 328.065295 
L 315.11164 328.377145 
L 316.059813 328.169245 
L 317.007986 328.169245 
L 317.95616 328.377145 
L 318.904333 329.104796 
L 319.852506 330.040346 
L 320.80068 330.560095 
L 321.748853 331.599595 
L 324.593373 331.599595 
L 325.541546 331.079845 
L 327.437893 331.599595 
L 328.386066 331.079845 
L 329.33424 330.975895 
L 331.230586 331.495645 
L 332.17876 331.287745 
L 333.126933 330.767995 
L 334.075106 331.079845 
L 335.02328 331.079845 
L 335.971453 330.664045 
L 336.919626 330.560095 
L 337.867799 329.000845 
L 338.815973 328.792945 
L 339.764146 327.753445 
L 340.712319 328.481095 
L 341.660493 327.857395 
L 342.608666 327.961345 
L 344.505013 329.832446 
L 345.453186 330.040346 
L 346.401359 329.520596 
L 347.349533 330.248245 
L 348.297706 330.248245 
L 349.245879 329.832446 
L 353.038573 329.520596 
L 353.986746 329.832446 
L 356.831266 327.545546 
L 357.779439 326.713945 
L 358.727613 326.713945 
L 359.675786 326.090245 
L 360.623959 326.402095 
L 361.572133 325.362595 
L 362.520306 326.506045 
L 363.468479 326.817895 
L 364.416653 328.377145 
L 365.364826 326.921846 
L 366.312999 328.377145 
L 367.261172 328.481095 
L 368.209346 328.169245 
L 369.157519 328.481095 
L 370.105692 328.065295 
L 371.053866 328.377145 
L 372.002039 328.169245 
L 372.950212 328.481095 
L 373.898386 327.857395 
L 374.846559 328.273195 
L 375.794732 328.481095 
L 376.742906 327.857395 
L 377.691079 328.792945 
L 378.639252 328.377145 
L 380.535599 328.585045 
L 381.483772 328.481095 
L 382.431946 328.169245 
L 383.380119 328.792945 
L 385.276466 328.377145 
L 386.224639 328.688995 
L 388.120986 326.090245 
L 389.069159 324.323095 
L 390.965506 326.090245 
L 391.913679 325.882345 
L 392.861852 325.986295 
L 393.810025 325.778395 
L 394.758199 326.506045 
L 395.706372 326.921846 
L 396.654545 327.649496 
L 397.602719 329.104796 
L 399.499065 329.312696 
L 400.447239 328.792945 
L 401.395412 329.208745 
L 402.343585 329.104796 
L 403.291759 328.481095 
L 404.239932 329.312696 
L 406.136279 329.728496 
L 407.084452 329.416646 
L 408.980799 329.312696 
L 409.928972 329.728496 
L 410.877145 329.416646 
L 411.825319 330.040346 
L 412.773492 329.728496 
L 413.721665 329.936396 
L 414.669839 329.208745 
L 415.618012 329.728496 
L 417.514359 329.728496 
L 418.462532 330.040346 
L 419.410705 329.416646 
L 420.358879 329.104796 
L 421.307052 329.000845 
L 422.255225 328.688995 
L 425.099745 327.233696 
L 426.047918 326.298145 
L 426.996092 326.817895 
L 427.944265 326.921846 
L 428.892438 326.402095 
L 431.736958 329.208745 
L 432.685132 329.728496 
L 433.633305 329.312696 
L 434.581478 329.104796 
L 435.529652 329.936396 
L 436.477825 329.624546 
L 437.425998 329.624546 
L 438.374172 330.248245 
L 440.270518 330.248245 
L 441.218692 330.560095 
L 442.166865 329.728496 
L 443.115038 330.144295 
L 444.063212 330.975895 
L 445.011385 329.936396 
L 445.959558 330.456145 
L 446.907732 330.144295 
L 448.804078 330.456145 
L 449.752251 330.767995 
L 450.700425 330.767995 
L 451.648598 331.183795 
L 452.596771 330.871945 
L 453.544945 330.871945 
L 454.493118 329.936396 
L 455.441291 329.728496 
L 456.389465 329.208745 
L 457.337638 327.753445 
L 459.233985 327.649496 
L 461.130331 327.961345 
L 462.078505 327.753445 
L 463.974851 328.481095 
L 464.923025 330.144295 
L 465.871198 329.728496 
L 466.819371 331.183795 
L 468.715718 330.767995 
L 469.663891 330.975895 
L 473.456585 330.975895 
L 474.404758 330.664045 
L 475.352931 330.871945 
L 476.301105 330.560095 
L 477.249278 331.079845 
L 480.093798 331.391695 
L 481.041971 330.352195 
L 481.990144 331.079845 
L 482.938318 331.599595 
L 484.834664 330.664045 
L 485.782838 331.287745 
L 486.731011 331.287745 
L 487.679184 331.495645 
L 488.627358 330.871945 
L 489.575531 331.391695 
L 490.523704 331.079845 
L 491.471878 330.144295 
L 492.420051 330.248245 
L 493.368224 329.312696 
L 496.212744 329.208745 
L 497.160918 328.688995 
L 498.109091 328.377145 
L 498.109091 328.377145 
" clip-path="url(#pb243be1c1f)" style="fill: none; stroke: #0000ff; stroke-opacity: 0.5; stroke-width: 1.5; stroke-linecap: square"/>
   </g>
   <g id="line2d_39">
    <path d="M 92.290909 360.289795 
L 93.239082 371.828245 
L 94.187256 369.749245 
L 95.135429 370.372946 
L 96.083602 369.333445 
L 97.031776 369.645295 
L 97.979949 369.749245 
L 98.928122 368.917645 
L 99.876296 371.308495 
L 100.824469 372.140095 
L 101.772642 371.932195 
L 102.720816 372.763796 
L 103.668989 372.971696 
L 104.617162 372.555896 
L 105.565336 372.763796 
L 106.513509 372.659846 
L 107.461682 372.036145 
L 109.358029 371.932195 
L 110.306202 372.555896 
L 111.254376 372.347995 
L 112.202549 371.308495 
L 113.150722 372.347995 
L 114.098895 370.892696 
L 115.995242 371.620345 
L 116.943415 370.996645 
L 117.891589 371.828245 
L 118.839762 369.333445 
L 119.787935 370.996645 
L 120.736109 370.684796 
L 121.684282 371.828245 
L 122.632455 371.412445 
L 123.580629 371.516395 
L 124.528802 371.412445 
L 125.476975 370.788746 
L 126.425149 370.684796 
L 127.373322 371.100595 
L 128.321495 370.892696 
L 129.269669 370.268996 
L 132.114189 370.165046 
L 133.062362 370.061096 
L 134.010535 370.268996 
L 135.906882 369.333445 
L 136.855055 369.645295 
L 137.803229 368.397896 
L 138.751402 370.061096 
L 139.699575 369.333445 
L 141.595922 369.645295 
L 142.544095 368.293946 
L 143.492268 369.749245 
L 144.440442 368.397896 
L 145.388615 368.501846 
L 146.336788 369.333445 
L 150.129482 368.189996 
L 151.077655 368.397896 
L 152.025828 368.293946 
L 152.974002 367.254445 
L 153.922175 366.630745 
L 154.870348 365.799146 
L 155.818522 365.799146 
L 156.766695 366.007046 
L 157.714868 365.279395 
L 158.663042 365.383346 
L 159.611215 366.110996 
L 160.559388 365.487296 
L 161.507562 366.734695 
L 163.403908 366.214945 
L 164.352082 366.318895 
L 165.300255 366.007046 
L 166.248428 365.903096 
L 167.196602 365.591246 
L 169.092948 365.591246 
L 170.041121 365.071495 
L 170.989295 364.863595 
L 171.937468 364.239895 
L 172.885641 363.928045 
L 173.833815 363.096446 
L 174.781988 362.056945 
L 176.678335 361.433245 
L 177.626508 360.913496 
L 178.574681 360.913496 
L 179.522855 360.601646 
L 180.471028 360.705596 
L 181.419201 361.433245 
L 182.367375 361.641145 
L 183.315548 361.225346 
L 184.263721 361.017446 
L 187.108241 359.562145 
L 188.056415 359.354245 
L 189.004588 359.354245 
L 189.952761 358.834496 
L 191.849108 358.418696 
L 192.797281 357.794995 
L 193.745455 357.691045 
L 194.693628 356.963395 
L 195.641801 356.443646 
L 198.486321 353.740946 
L 199.434494 353.636996 
L 200.382668 352.597495 
L 201.330841 352.493545 
L 202.279014 352.077745 
L 203.227188 352.077745 
L 205.123534 351.454046 
L 207.019881 351.661946 
L 207.968054 352.805395 
L 209.864401 353.117245 
L 211.760748 352.077745 
L 212.708921 351.973795 
L 213.657094 351.246146 
L 214.605268 351.350096 
L 215.553441 351.038246 
L 216.501614 351.038246 
L 217.449788 350.310595 
L 218.397961 349.894795 
L 219.346134 349.998745 
L 220.294308 348.543445 
L 221.242481 348.543445 
L 222.190654 347.503945 
L 224.087001 346.568396 
L 225.983347 345.217045 
L 226.931521 344.905195 
L 227.879694 345.009145 
L 228.827867 343.657795 
L 229.776041 345.320995 
L 230.724214 346.152596 
L 231.672387 346.672346 
L 232.620561 345.840745 
L 233.568734 346.048646 
L 234.516907 345.009145 
L 236.413254 345.632845 
L 237.361427 345.009145 
L 238.309601 345.113095 
L 239.257774 345.009145 
L 240.205947 344.593345 
L 241.154121 344.593345 
L 242.102294 344.281496 
L 243.050467 343.657795 
L 244.946814 342.098546 
L 245.894987 340.955095 
L 246.843161 340.955095 
L 247.791334 340.123495 
L 249.687681 339.811645 
L 250.635854 339.603746 
L 252.532201 340.643245 
L 255.37672 341.474846 
L 256.324894 340.851145 
L 257.273067 340.747195 
L 258.22124 340.435345 
L 259.169414 340.747195 
L 262.013934 339.811645 
L 262.962107 339.811645 
L 263.91028 340.019545 
L 264.858454 338.980045 
L 266.7548 339.395846 
L 268.651147 338.356345 
L 269.59932 339.187946 
L 270.547494 338.460295 
L 271.495667 338.356345 
L 272.44384 337.940545 
L 273.392014 338.148445 
L 274.340187 337.836595 
L 275.28836 337.732645 
L 276.236534 337.108946 
L 277.184707 336.797096 
L 278.13288 335.757595 
L 280.029227 334.614146 
L 280.9774 334.510196 
L 282.873747 333.782545 
L 283.82192 334.198345 
L 284.770093 333.678595 
L 285.718267 333.470695 
L 286.66644 334.094395 
L 287.614613 335.341795 
L 288.562787 335.653645 
L 290.459133 335.341795 
L 291.407307 335.445745 
L 292.35548 335.341795 
L 295.2 334.302296 
L 296.148173 334.406246 
L 297.096347 334.198345 
L 298.04452 334.198345 
L 300.88904 333.054895 
L 302.785387 332.950945 
L 303.73356 332.639095 
L 304.681733 332.743045 
L 305.629907 332.327246 
L 306.57808 332.327246 
L 307.526253 332.535145 
L 308.474427 331.911445 
L 309.4226 330.975895 
L 310.370773 330.248245 
L 311.318946 329.936396 
L 312.26712 329.104796 
L 313.215293 329.312696 
L 315.11164 329.000845 
L 316.059813 328.896895 
L 317.95616 329.416646 
L 318.904333 330.560095 
L 319.852506 330.664045 
L 320.80068 331.287745 
L 321.748853 330.871945 
L 322.697026 330.871945 
L 323.6452 331.391695 
L 324.593373 330.456145 
L 325.541546 331.287745 
L 326.48972 331.391695 
L 327.437893 331.079845 
L 328.386066 331.391695 
L 329.33424 331.391695 
L 330.282413 331.183795 
L 331.230586 330.664045 
L 332.17876 330.975895 
L 333.126933 330.767995 
L 334.075106 330.248245 
L 335.02328 330.664045 
L 335.971453 330.560095 
L 336.919626 329.936396 
L 337.867799 329.832446 
L 338.815973 328.688995 
L 339.764146 329.104796 
L 341.660493 328.481095 
L 342.608666 329.416646 
L 343.556839 330.144295 
L 344.505013 330.040346 
L 347.349533 330.248245 
L 348.297706 329.624546 
L 349.245879 329.208745 
L 350.194053 329.936396 
L 351.142226 329.832446 
L 352.090399 329.208745 
L 353.038573 329.312696 
L 353.986746 329.208745 
L 355.883093 328.273195 
L 356.831266 328.377145 
L 357.779439 327.545546 
L 358.727613 327.545546 
L 359.675786 326.506045 
L 360.623959 327.441596 
L 361.572133 326.921846 
L 363.468479 327.441596 
L 364.416653 329.000845 
L 366.312999 328.273195 
L 367.261172 328.273195 
L 368.209346 327.857395 
L 369.157519 328.273195 
L 371.053866 327.961345 
L 372.002039 328.377145 
L 373.898386 328.065295 
L 375.794732 328.377145 
L 376.742906 328.688995 
L 377.691079 328.481095 
L 380.535599 328.896895 
L 381.483772 328.481095 
L 382.431946 328.792945 
L 383.380119 328.481095 
L 386.224639 329.208745 
L 387.172812 328.169245 
L 388.120986 326.817895 
L 389.069159 327.337646 
L 390.017332 326.506045 
L 390.965506 326.817895 
L 391.913679 327.441596 
L 392.861852 326.713945 
L 393.810025 327.753445 
L 394.758199 328.273195 
L 395.706372 329.416646 
L 396.654545 329.728496 
L 397.602719 329.832446 
L 398.550892 329.104796 
L 399.499065 329.520596 
L 400.447239 329.624546 
L 401.395412 330.040346 
L 402.343585 329.728496 
L 404.239932 329.728496 
L 405.188105 330.144295 
L 406.136279 330.144295 
L 407.084452 329.728496 
L 408.032625 329.520596 
L 408.980799 329.936396 
L 409.928972 330.144295 
L 410.877145 329.936396 
L 411.825319 329.416646 
L 412.773492 330.352195 
L 413.721665 329.728496 
L 414.669839 330.352195 
L 415.618012 329.936396 
L 416.566185 330.352195 
L 417.514359 329.936396 
L 418.462532 330.871945 
L 419.410705 329.832446 
L 420.358879 330.560095 
L 421.307052 330.144295 
L 422.255225 328.896895 
L 423.203398 329.000845 
L 425.099745 328.585045 
L 426.047918 328.896895 
L 426.996092 328.688995 
L 427.944265 328.896895 
L 428.892438 328.896895 
L 429.840612 329.624546 
L 430.788785 329.832446 
L 431.736958 330.767995 
L 432.685132 330.664045 
L 433.633305 331.079845 
L 435.529652 330.456145 
L 436.477825 331.079845 
L 437.425998 330.871945 
L 438.374172 330.456145 
L 439.322345 330.975895 
L 440.270518 331.183795 
L 441.218692 330.871945 
L 442.166865 330.248245 
L 445.959558 331.495645 
L 446.907732 330.871945 
L 447.855905 331.287745 
L 449.752251 331.391695 
L 450.700425 330.767995 
L 451.648598 331.495645 
L 452.596771 331.079845 
L 453.544945 331.287745 
L 454.493118 330.975895 
L 455.441291 330.248245 
L 456.389465 329.728496 
L 457.337638 329.832446 
L 458.285811 329.104796 
L 459.233985 328.688995 
L 461.130331 329.416646 
L 462.078505 329.104796 
L 463.026678 330.144295 
L 463.974851 330.975895 
L 464.923025 331.391695 
L 465.871198 331.287745 
L 466.819371 331.703545 
L 468.715718 331.599595 
L 471.560238 331.495645 
L 472.508411 331.807495 
L 474.404758 331.703545 
L 475.352931 331.495645 
L 478.197451 331.391695 
L 479.145624 330.352195 
L 480.093798 331.703545 
L 481.041971 331.911445 
L 481.990144 331.495645 
L 483.886491 331.183795 
L 484.834664 331.911445 
L 485.782838 331.495645 
L 486.731011 331.495645 
L 487.679184 331.183795 
L 488.627358 331.079845 
L 490.523704 331.807495 
L 491.471878 331.079845 
L 492.420051 329.416646 
L 493.368224 330.144295 
L 494.316398 329.624546 
L 495.264571 330.352195 
L 496.212744 330.144295 
L 497.160918 329.624546 
L 498.109091 331.079845 
L 498.109091 331.079845 
" clip-path="url(#pb243be1c1f)" style="fill: none; stroke: #0000ff; stroke-opacity: 0.5; stroke-width: 1.5; stroke-linecap: square"/>
   </g>
   <g id="line2d_40">
    <path d="M 92.290909 361.849045 
L 93.239082 371.724295 
L 96.083602 368.813695 
L 97.031776 370.580846 
L 97.979949 369.853195 
L 98.928122 369.541345 
L 99.876296 370.996645 
L 100.824469 371.412445 
L 101.772642 371.620345 
L 102.720816 372.555896 
L 103.668989 372.244045 
L 104.617162 372.244045 
L 106.513509 371.724295 
L 107.461682 372.555896 
L 108.409856 372.244045 
L 109.358029 372.451945 
L 110.306202 371.724295 
L 111.254376 371.516395 
L 112.202549 372.036145 
L 113.150722 371.516395 
L 114.098895 371.932195 
L 115.047069 372.140095 
L 115.995242 371.204545 
L 116.943415 371.412445 
L 117.891589 371.412445 
L 118.839762 371.204545 
L 119.787935 371.516395 
L 120.736109 372.140095 
L 121.684282 371.412445 
L 122.632455 371.828245 
L 123.580629 371.516395 
L 124.528802 371.620345 
L 125.476975 371.100595 
L 126.425149 371.100595 
L 127.373322 370.684796 
L 128.321495 370.061096 
L 129.269669 371.100595 
L 130.217842 370.268996 
L 131.166015 370.892696 
L 133.062362 370.788746 
L 134.010535 370.996645 
L 134.958709 370.061096 
L 135.906882 370.268996 
L 136.855055 370.061096 
L 137.803229 370.061096 
L 138.751402 369.437395 
L 139.699575 369.645295 
L 143.492268 369.229495 
L 144.440442 369.333445 
L 145.388615 368.709745 
L 146.336788 368.917645 
L 147.284962 368.086046 
L 148.233135 368.813695 
L 149.181308 367.150495 
L 150.129482 368.813695 
L 151.077655 367.670246 
L 152.025828 367.150495 
L 152.974002 366.422845 
L 153.922175 365.383346 
L 154.870348 365.383346 
L 155.818522 365.695196 
L 156.766695 365.799146 
L 157.714868 364.031995 
L 158.663042 365.071495 
L 159.611215 367.150495 
L 160.559388 365.279395 
L 161.507562 366.214945 
L 162.455735 365.799146 
L 163.403908 366.734695 
L 164.352082 366.214945 
L 165.300255 365.279395 
L 166.248428 365.799146 
L 167.196602 364.863595 
L 169.092948 365.487296 
L 170.041121 365.071495 
L 170.989295 365.071495 
L 172.885641 364.343845 
L 173.833815 363.616196 
L 174.781988 362.680645 
L 175.730161 362.264845 
L 176.678335 361.433245 
L 178.574681 361.121396 
L 179.522855 361.121396 
L 180.471028 361.952995 
L 190.900935 359.666095 
L 191.849108 359.146345 
L 192.797281 358.834496 
L 193.745455 358.938446 
L 194.693628 358.314746 
L 195.641801 357.483145 
L 196.589975 356.339696 
L 197.538148 355.404145 
L 199.434494 354.260695 
L 203.227188 352.909345 
L 204.175361 353.013295 
L 205.123534 352.805395 
L 206.071708 353.533046 
L 207.019881 354.052796 
L 208.916228 353.948846 
L 209.864401 353.636996 
L 210.812574 353.117245 
L 213.657094 352.597495 
L 215.553441 351.661946 
L 216.501614 351.454046 
L 218.397961 350.726395 
L 219.346134 350.518495 
L 220.294308 350.102695 
L 221.242481 349.271096 
L 222.190654 348.647396 
L 223.138828 348.335545 
L 224.087001 347.192095 
L 225.035174 346.880246 
L 225.983347 346.256546 
L 227.879694 346.152596 
L 228.827867 346.672346 
L 229.776041 346.880246 
L 230.724214 347.815795 
L 231.672387 347.296045 
L 232.620561 347.607895 
L 233.568734 346.880246 
L 234.516907 346.984195 
L 235.465081 346.360496 
L 237.361427 346.256546 
L 239.257774 345.528895 
L 240.205947 345.528895 
L 241.154121 345.113095 
L 242.102294 344.905195 
L 243.050467 345.009145 
L 246.843161 341.786696 
L 249.687681 341.059045 
L 252.532201 342.410395 
L 253.480374 342.202495 
L 254.428547 342.514345 
L 255.37672 342.202495 
L 256.324894 341.682746 
L 258.22124 341.786696 
L 259.169414 341.162995 
L 261.06576 340.955095 
L 262.013934 341.162995 
L 262.962107 340.643245 
L 268.651147 339.291896 
L 269.59932 339.499796 
L 270.547494 339.187946 
L 271.495667 339.395846 
L 272.44384 338.772145 
L 274.340187 338.772145 
L 275.28836 338.148445 
L 276.236534 338.460295 
L 277.184707 338.044495 
L 278.13288 337.316845 
L 279.081054 336.277345 
L 281.925573 335.341795 
L 283.82192 335.133895 
L 284.770093 335.341795 
L 285.718267 335.965495 
L 286.66644 337.212896 
L 287.614613 336.797096 
L 288.562787 336.589195 
L 289.51096 336.797096 
L 290.459133 336.277345 
L 291.407307 336.173395 
L 292.35548 336.277345 
L 294.251827 335.549695 
L 295.2 335.861545 
L 296.148173 335.133895 
L 297.096347 335.029945 
L 298.04452 335.133895 
L 298.992693 334.614146 
L 299.940867 334.718096 
L 300.88904 334.302296 
L 302.785387 334.198345 
L 303.73356 333.574645 
L 304.681733 333.678595 
L 307.526253 333.158845 
L 308.474427 332.119346 
L 309.4226 331.911445 
L 310.370773 331.391695 
L 311.318946 330.560095 
L 312.26712 330.144295 
L 314.163466 329.624546 
L 315.11164 329.728496 
L 316.059813 329.416646 
L 318.904333 331.287745 
L 322.697026 331.599595 
L 323.6452 331.287745 
L 324.593373 331.495645 
L 325.541546 330.767995 
L 326.48972 331.183795 
L 327.437893 331.079845 
L 328.386066 331.287745 
L 329.33424 330.664045 
L 330.282413 331.079845 
L 331.230586 331.183795 
L 334.075106 330.871945 
L 335.02328 331.183795 
L 335.971453 330.871945 
L 336.919626 330.144295 
L 338.815973 329.624546 
L 339.764146 329.104796 
L 340.712319 329.000845 
L 341.660493 329.208745 
L 342.608666 330.248245 
L 343.556839 330.767995 
L 344.505013 330.767995 
L 345.453186 330.352195 
L 347.349533 330.248245 
L 348.297706 330.456145 
L 350.194053 330.456145 
L 351.142226 330.040346 
L 352.090399 330.248245 
L 353.038573 330.040346 
L 354.934919 330.144295 
L 355.883093 329.312696 
L 356.831266 328.896895 
L 357.779439 328.169245 
L 358.727613 328.065295 
L 359.675786 328.169245 
L 361.572133 328.896895 
L 362.520306 329.936396 
L 363.468479 329.728496 
L 364.416653 329.208745 
L 365.364826 329.312696 
L 366.312999 329.728496 
L 367.261172 329.832446 
L 369.157519 329.104796 
L 370.105692 329.312696 
L 372.950212 329.104796 
L 373.898386 329.208745 
L 374.846559 328.792945 
L 375.794732 329.000845 
L 377.691079 328.688995 
L 378.639252 329.104796 
L 380.535599 329.000845 
L 381.483772 329.208745 
L 382.431946 329.104796 
L 383.380119 329.208745 
L 384.328292 328.688995 
L 385.276466 329.000845 
L 386.224639 328.792945 
L 387.172812 327.961345 
L 389.069159 327.025795 
L 390.017332 326.713945 
L 390.965506 326.194195 
L 391.913679 326.609995 
L 392.861852 326.402095 
L 393.810025 327.545546 
L 394.758199 329.520596 
L 396.654545 329.416646 
L 397.602719 329.624546 
L 398.550892 325.986295 
L 399.499065 329.520596 
L 400.447239 329.208745 
L 401.395412 329.832446 
L 402.343585 330.144295 
L 403.291759 326.713945 
L 404.239932 330.248245 
L 405.188105 330.352195 
L 406.136279 330.664045 
L 407.084452 327.649496 
L 408.032625 330.767995 
L 409.928972 330.560095 
L 410.877145 330.040346 
L 411.825319 330.248245 
L 412.773492 328.896895 
L 413.721665 330.871945 
L 414.669839 331.183795 
L 415.618012 330.975895 
L 416.566185 331.183795 
L 417.514359 330.975895 
L 418.462532 331.391695 
L 421.307052 331.599595 
L 423.203398 330.248245 
L 424.151572 329.624546 
L 425.099745 330.040346 
L 426.047918 329.624546 
L 426.996092 327.441596 
L 427.944265 330.352195 
L 428.892438 331.287745 
L 429.840612 331.391695 
L 430.788785 332.119346 
L 431.736958 331.911445 
L 432.685132 332.015395 
L 433.633305 331.807495 
L 435.529652 332.119346 
L 436.477825 332.119346 
L 437.425998 328.585045 
L 438.374172 332.223296 
L 439.322345 331.911445 
L 441.218692 332.223296 
L 443.115038 332.431196 
L 444.063212 332.743045 
L 445.011385 332.327246 
L 446.907732 332.639095 
L 447.855905 332.327246 
L 448.804078 332.639095 
L 449.752251 332.535145 
L 450.700425 332.743045 
L 451.648598 330.664045 
L 452.596771 332.846995 
L 453.544945 332.119346 
L 455.441291 332.223296 
L 456.389465 331.807495 
L 457.337638 328.896895 
L 458.285811 330.560095 
L 459.233985 330.248245 
L 460.182158 330.352195 
L 461.130331 330.664045 
L 462.078505 331.391695 
L 463.026678 333.366745 
L 463.974851 332.846995 
L 465.871198 332.950945 
L 467.767545 333.366745 
L 468.715718 333.158845 
L 469.663891 333.158845 
L 470.612065 333.470695 
L 473.456585 333.054895 
L 475.352931 333.782545 
L 476.301105 333.470695 
L 478.197451 333.678595 
L 479.145624 333.574645 
L 480.093798 333.782545 
L 481.990144 332.639095 
L 482.938318 333.054895 
L 483.886491 333.782545 
L 484.834664 333.470695 
L 485.782838 333.886495 
L 486.731011 333.782545 
L 487.679184 331.807495 
L 488.627358 333.678595 
L 489.575531 333.678595 
L 490.523704 333.886495 
L 491.471878 333.054895 
L 492.420051 332.950945 
L 493.368224 332.535145 
L 494.316398 332.846995 
L 495.264571 332.223296 
L 496.212744 332.743045 
L 497.160918 333.470695 
L 498.109091 331.807495 
L 498.109091 331.807495 
" clip-path="url(#pb243be1c1f)" style="fill: none; stroke: #0000ff; stroke-opacity: 0.5; stroke-width: 1.5; stroke-linecap: square"/>
   </g>
   <g id="LineCollection_1">
    <path d="M 92.290909 361.994408 
L 92.290909 359.468758 
" clip-path="url(#pb243be1c1f)" style="fill: none; stroke: #ff0000; stroke-width: 1.5"/>
    <path d="M 130.217842 370.77091 
L 130.217842 370.182881 
" clip-path="url(#pb243be1c1f)" style="fill: none; stroke: #ff0000; stroke-width: 1.5"/>
    <path d="M 168.144775 365.578821 
L 168.144775 365.08392 
" clip-path="url(#pb243be1c1f)" style="fill: none; stroke: #ff0000; stroke-width: 1.5"/>
    <path d="M 206.071708 353.579213 
L 206.071708 350.212453 
" clip-path="url(#pb243be1c1f)" style="fill: none; stroke: #ff0000; stroke-width: 1.5"/>
    <path d="M 243.998641 343.849755 
L 243.998641 342.114486 
" clip-path="url(#pb243be1c1f)" style="fill: none; stroke: #ff0000; stroke-width: 1.5"/>
    <path d="M 281.925573 336.198484 
L 281.925573 333.445607 
" clip-path="url(#pb243be1c1f)" style="fill: none; stroke: #ff0000; stroke-width: 1.5"/>
    <path d="M 319.852506 331.378172 
L 319.852506 330.209794 
" clip-path="url(#pb243be1c1f)" style="fill: none; stroke: #ff0000; stroke-width: 1.5"/>
    <path d="M 357.779439 328.629771 
L 357.779439 326.929095 
" clip-path="url(#pb243be1c1f)" style="fill: none; stroke: #ff0000; stroke-width: 1.5"/>
    <path d="M 395.706372 329.736266 
L 395.706372 327.38185 
" clip-path="url(#pb243be1c1f)" style="fill: none; stroke: #ff0000; stroke-width: 1.5"/>
    <path d="M 433.633305 331.848533 
L 433.633305 329.739433 
" clip-path="url(#pb243be1c1f)" style="fill: none; stroke: #ff0000; stroke-width: 1.5"/>
    <path d="M 471.560238 332.900702 
L 471.560238 330.818239 
" clip-path="url(#pb243be1c1f)" style="fill: none; stroke: #ff0000; stroke-width: 1.5"/>
   </g>
   <g id="line2d_41">
    <defs>
     <path id="ma020a42f00" d="M 5 0 
L -5 -0 
" style="stroke: #ff0000"/>
    </defs>
    <g clip-path="url(#pb243be1c1f)">
     <use xlink:href="#ma020a42f00" x="92.290909" y="361.994408" style="fill: #ff0000; stroke: #ff0000"/>
     <use xlink:href="#ma020a42f00" x="130.217842" y="370.77091" style="fill: #ff0000; stroke: #ff0000"/>
     <use xlink:href="#ma020a42f00" x="168.144775" y="365.578821" style="fill: #ff0000; stroke: #ff0000"/>
     <use xlink:href="#ma020a42f00" x="206.071708" y="353.579213" style="fill: #ff0000; stroke: #ff0000"/>
     <use xlink:href="#ma020a42f00" x="243.998641" y="343.849755" style="fill: #ff0000; stroke: #ff0000"/>
     <use xlink:href="#ma020a42f00" x="281.925573" y="336.198484" style="fill: #ff0000; stroke: #ff0000"/>
     <use xlink:href="#ma020a42f00" x="319.852506" y="331.378172" style="fill: #ff0000; stroke: #ff0000"/>
     <use xlink:href="#ma020a42f00" x="357.779439" y="328.629771" style="fill: #ff0000; stroke: #ff0000"/>
     <use xlink:href="#ma020a42f00" x="395.706372" y="329.736266" style="fill: #ff0000; stroke: #ff0000"/>
     <use xlink:href="#ma020a42f00" x="433.633305" y="331.848533" style="fill: #ff0000; stroke: #ff0000"/>
     <use xlink:href="#ma020a42f00" x="471.560238" y="332.900702" style="fill: #ff0000; stroke: #ff0000"/>
    </g>
   </g>
   <g id="line2d_42">
    <g clip-path="url(#pb243be1c1f)">
     <use xlink:href="#ma020a42f00" x="92.290909" y="359.468758" style="fill: #ff0000; stroke: #ff0000"/>
     <use xlink:href="#ma020a42f00" x="130.217842" y="370.182881" style="fill: #ff0000; stroke: #ff0000"/>
     <use xlink:href="#ma020a42f00" x="168.144775" y="365.08392" style="fill: #ff0000; stroke: #ff0000"/>
     <use xlink:href="#ma020a42f00" x="206.071708" y="350.212453" style="fill: #ff0000; stroke: #ff0000"/>
     <use xlink:href="#ma020a42f00" x="243.998641" y="342.114486" style="fill: #ff0000; stroke: #ff0000"/>
     <use xlink:href="#ma020a42f00" x="281.925573" y="333.445607" style="fill: #ff0000; stroke: #ff0000"/>
     <use xlink:href="#ma020a42f00" x="319.852506" y="330.209794" style="fill: #ff0000; stroke: #ff0000"/>
     <use xlink:href="#ma020a42f00" x="357.779439" y="326.929095" style="fill: #ff0000; stroke: #ff0000"/>
     <use xlink:href="#ma020a42f00" x="395.706372" y="327.38185" style="fill: #ff0000; stroke: #ff0000"/>
     <use xlink:href="#ma020a42f00" x="433.633305" y="329.739433" style="fill: #ff0000; stroke: #ff0000"/>
     <use xlink:href="#ma020a42f00" x="471.560238" y="330.818239" style="fill: #ff0000; stroke: #ff0000"/>
    </g>
   </g>
   <g id="line2d_43">
    <path d="M 92.290909 360.731583 
L 130.217842 370.476896 
L 168.144775 365.33137 
L 206.071708 351.895833 
L 243.998641 342.982121 
L 281.925573 334.822046 
L 319.852506 330.793983 
L 357.779439 327.779433 
L 395.706372 328.559058 
L 433.633305 330.793983 
L 471.560238 331.85947 
" clip-path="url(#pb243be1c1f)" style="fill: none; stroke: #ff0000; stroke-width: 1.5; stroke-linecap: square"/>
   </g>
   <g id="patch_3">
    <path d="M 72 384.48 
L 72 51.84 
" style="fill: none; stroke: #000000; stroke-width: 0.8; stroke-linejoin: miter; stroke-linecap: square"/>
   </g>
   <g id="patch_4">
    <path d="M 518.4 384.48 
L 518.4 51.84 
" style="fill: none; stroke: #000000; stroke-width: 0.8; stroke-linejoin: miter; stroke-linecap: square"/>
   </g>
   <g id="patch_5">
    <path d="M 72 384.48 
L 518.4 384.48 
" style="fill: none; stroke: #000000; stroke-width: 0.8; stroke-linejoin: miter; stroke-linecap: square"/>
   </g>
   <g id="patch_6">
    <path d="M 72 51.84 
L 518.4 51.84 
" style="fill: none; stroke: #000000; stroke-width: 0.8; stroke-linejoin: miter; stroke-linecap: square"/>
   </g>
   <g id="text_21">
    <!-- M39: Phenylalanin -->
    <g transform="translate(249.228906 45.84) scale(0.1 -0.1)">
     <defs>
      <path id="DejaVuSans-4d" d="M 628 4666 
L 1569 4666 
L 2759 1491 
L 3956 4666 
L 4897 4666 
L 4897 0 
L 4281 0 
L 4281 4097 
L 3078 897 
L 2444 897 
L 1241 4097 
L 1241 0 
L 628 0 
L 628 4666 
z
" transform="scale(0.015625)"/>
      <path id="DejaVuSans-39" d="M 703 97 
L 703 672 
Q 941 559 1184 500 
Q 1428 441 1663 441 
Q 2288 441 2617 861 
Q 2947 1281 2994 2138 
Q 2813 1869 2534 1725 
Q 2256 1581 1919 1581 
Q 1219 1581 811 2004 
Q 403 2428 403 3163 
Q 403 3881 828 4315 
Q 1253 4750 1959 4750 
Q 2769 4750 3195 4129 
Q 3622 3509 3622 2328 
Q 3622 1225 3098 567 
Q 2575 -91 1691 -91 
Q 1453 -91 1209 -44 
Q 966 3 703 97 
z
M 1959 2075 
Q 2384 2075 2632 2365 
Q 2881 2656 2881 3163 
Q 2881 3666 2632 3958 
Q 2384 4250 1959 4250 
Q 1534 4250 1286 3958 
Q 1038 3666 1038 3163 
Q 1038 2656 1286 2365 
Q 1534 2075 1959 2075 
z
" transform="scale(0.015625)"/>
      <path id="DejaVuSans-3a" d="M 750 794 
L 1409 794 
L 1409 0 
L 750 0 
L 750 794 
z
M 750 3309 
L 1409 3309 
L 1409 2516 
L 750 2516 
L 750 3309 
z
" transform="scale(0.015625)"/>
      <path id="DejaVuSans-50" d="M 1259 4147 
L 1259 2394 
L 2053 2394 
Q 2494 2394 2734 2622 
Q 2975 2850 2975 3272 
Q 2975 3691 2734 3919 
Q 2494 4147 2053 4147 
L 1259 4147 
z
M 628 4666 
L 2053 4666 
Q 2838 4666 3239 4311 
Q 3641 3956 3641 3272 
Q 3641 2581 3239 2228 
Q 2838 1875 2053 1875 
L 1259 1875 
L 1259 0 
L 628 0 
L 628 4666 
z
" transform="scale(0.015625)"/>
      <path id="DejaVuSans-79" d="M 2059 -325 
Q 1816 -950 1584 -1140 
Q 1353 -1331 966 -1331 
L 506 -1331 
L 506 -850 
L 844 -850 
Q 1081 -850 1212 -737 
Q 1344 -625 1503 -206 
L 1606 56 
L 191 3500 
L 800 3500 
L 1894 763 
L 2988 3500 
L 3597 3500 
L 2059 -325 
z
" transform="scale(0.015625)"/>
     </defs>
     <use xlink:href="#DejaVuSans-4d"/>
     <use xlink:href="#DejaVuSans-33" x="86.279297"/>
     <use xlink:href="#DejaVuSans-39" x="149.902344"/>
     <use xlink:href="#DejaVuSans-3a" x="213.525391"/>
     <use xlink:href="#DejaVuSans-20" x="247.216797"/>
     <use xlink:href="#DejaVuSans-50" x="279.003906"/>
     <use xlink:href="#DejaVuSans-68" x="339.306641"/>
     <use xlink:href="#DejaVuSans-65" x="402.685547"/>
     <use xlink:href="#DejaVuSans-6e" x="464.208984"/>
     <use xlink:href="#DejaVuSans-79" x="527.587891"/>
     <use xlink:href="#DejaVuSans-6c" x="586.767578"/>
     <use xlink:href="#DejaVuSans-61" x="614.550781"/>
     <use xlink:href="#DejaVuSans-6c" x="675.830078"/>
     <use xlink:href="#DejaVuSans-61" x="703.613281"/>
     <use xlink:href="#DejaVuSans-6e" x="764.892578"/>
     <use xlink:href="#DejaVuSans-69" x="828.271484"/>
     <use xlink:href="#DejaVuSans-6e" x="856.054688"/>
    </g>
   </g>
  </g>
 </g>
 <defs>
  <clipPath id="pb243be1c1f">
   <rect x="72" y="51.84" width="446.4" height="332.64"/>
  </clipPath>
 </defs>
</svg>
